<?xml version="1.0" encoding="UTF-8" standalone="no"?>
<!DOCTYPE svg PUBLIC "-//W3C//DTD SVG 1.1//EN"
 "http://www.w3.org/Graphics/SVG/1.1/DTD/svg11.dtd">
<!-- Generated by graphviz version 2.43.0 (0)
 -->
<!-- Title: fall_back Pages: 1 -->
<svg width="569pt" height="66pt"
 viewBox="0.00 0.00 569.00 66.00" xmlns="http://www.w3.org/2000/svg" xmlns:xlink="http://www.w3.org/1999/xlink">
<g id="graph0" class="graph" transform="scale(1 1) rotate(0) translate(4 62)">
<title>fall_back</title>
<!-- Node1 -->
<g id="node1" class="node">
<title>Node1</title>
<g id="a_node1"><a xlink:title=" ">
<polygon fill="#bfbfbf" stroke="black" points="500,-19.5 500,-38.5 561,-38.5 561,-19.5 500,-19.5"/>
<text text-anchor="middle" x="530.5" y="-26.5" font-family="Helvetica,sans-Serif" font-size="10.00">fall_back</text>
</a>
</g>
</g>
<!-- Node2 -->
<g id="node2" class="node">
<title>Node2</title>
<g id="a_node2"><a xlink:href="argv__builder_8c.html#a5f4104276b4a0d98dde31f75622668b4" target="_top" xlink:title="Ends and null terminate the argv so it can be used.">
<polygon fill="none" stroke="black" points="378.5,-38.5 378.5,-57.5 461.5,-57.5 461.5,-38.5 378.5,-38.5"/>
<text text-anchor="middle" x="420" y="-45.5" font-family="Helvetica,sans-Serif" font-size="10.00">argv_buf_end</text>
</a>
</g>
</g>
<!-- Node1&#45;&gt;Node2 -->
<g id="edge1" class="edge">
<title>Node1&#45;&gt;Node2</title>
<path fill="none" stroke="midnightblue" d="M489.8,-35.95C480.61,-37.56 470.82,-39.28 461.59,-40.89"/>
<polygon fill="midnightblue" stroke="midnightblue" points="490.61,-39.36 499.85,-34.19 489.4,-32.47 490.61,-39.36"/>
</g>
<!-- Node7 -->
<g id="node7" class="node">
<title>Node7</title>
<g id="a_node7"><a xlink:href="argv__builder_8c.html#a71866a37dc221a296b930979eb5e98c2" target="_top" xlink:title="Tool to build an argv with a buffer that reallocates when more memory is needed and add a string to t...">
<polygon fill="none" stroke="black" points="376,-0.5 376,-19.5 464,-19.5 464,-0.5 376,-0.5"/>
<text text-anchor="middle" x="420" y="-7.5" font-family="Helvetica,sans-Serif" font-size="10.00">argv_buf_push</text>
</a>
</g>
</g>
<!-- Node1&#45;&gt;Node7 -->
<g id="edge6" class="edge">
<title>Node1&#45;&gt;Node7</title>
<path fill="none" stroke="midnightblue" d="M489.9,-22.07C481.49,-20.59 472.57,-19.03 464.04,-17.54"/>
<polygon fill="midnightblue" stroke="midnightblue" points="489.4,-25.53 499.85,-23.81 490.61,-18.64 489.4,-25.53"/>
</g>
<!-- Node3 -->
<g id="node3" class="node">
<title>Node3</title>
<g id="a_node3"><a xlink:href="parser_8c.html#ad8a725eb1fe38bc14d96924df6878b56" target="_top" xlink:title=" ">
<polygon fill="none" stroke="black" points="270,-19.5 270,-38.5 340,-38.5 340,-19.5 270,-19.5"/>
<text text-anchor="middle" x="305" y="-26.5" font-family="Helvetica,sans-Serif" font-size="10.00">parse_cmd</text>
</a>
</g>
</g>
<!-- Node2&#45;&gt;Node3 -->
<g id="edge2" class="edge">
<title>Node2&#45;&gt;Node3</title>
<path fill="none" stroke="midnightblue" d="M368.04,-39.43C358.56,-37.84 348.86,-36.21 340.04,-34.72"/>
<polygon fill="midnightblue" stroke="midnightblue" points="367.76,-42.93 378.2,-41.14 368.92,-36.03 367.76,-42.93"/>
</g>
<!-- Node4 -->
<g id="node4" class="node">
<title>Node4</title>
<g id="a_node4"><a xlink:href="parser_8c.html#a7e8d15749e17fe4ed49f75c3c6998719" target="_top" xlink:title=" ">
<polygon fill="none" stroke="black" points="160,-19.5 160,-38.5 234,-38.5 234,-19.5 160,-19.5"/>
<text text-anchor="middle" x="197" y="-26.5" font-family="Helvetica,sans-Serif" font-size="10.00">parser_loop</text>
</a>
</g>
</g>
<!-- Node3&#45;&gt;Node4 -->
<g id="edge3" class="edge">
<title>Node3&#45;&gt;Node4</title>
<path fill="none" stroke="midnightblue" d="M259.74,-29C251.25,-29 242.45,-29 234.25,-29"/>
<polygon fill="midnightblue" stroke="midnightblue" points="259.88,-32.5 269.88,-29 259.88,-25.5 259.88,-32.5"/>
</g>
<!-- Node5 -->
<g id="node5" class="node">
<title>Node5</title>
<g id="a_node5"><a xlink:href="parser_8c.html#ae22079ec4dbb24c0eb15425a8dd785bd" target="_top" xlink:title=" ">
<polygon fill="none" stroke="black" points="77,-19.5 77,-38.5 124,-38.5 124,-19.5 77,-19.5"/>
<text text-anchor="middle" x="100.5" y="-26.5" font-family="Helvetica,sans-Serif" font-size="10.00">parser</text>
</a>
</g>
</g>
<!-- Node4&#45;&gt;Node5 -->
<g id="edge4" class="edge">
<title>Node4&#45;&gt;Node5</title>
<path fill="none" stroke="midnightblue" d="M149.47,-29C140.65,-29 131.8,-29 124.14,-29"/>
<polygon fill="midnightblue" stroke="midnightblue" points="149.73,-32.5 159.73,-29 149.73,-25.5 149.73,-32.5"/>
</g>
<!-- Node6 -->
<g id="node6" class="node">
<title>Node6</title>
<g id="a_node6"><a xlink:href="main_8c.html#a647f21a28344e1d9c643f4115516d7c9" target="_top" xlink:title=" ">
<polygon fill="none" stroke="black" points="0,-19.5 0,-38.5 41,-38.5 41,-19.5 0,-19.5"/>
<text text-anchor="middle" x="20.5" y="-26.5" font-family="Helvetica,sans-Serif" font-size="10.00">main</text>
</a>
</g>
</g>
<!-- Node5&#45;&gt;Node6 -->
<g id="edge5" class="edge">
<title>Node5&#45;&gt;Node6</title>
<path fill="none" stroke="midnightblue" d="M66.66,-29C57.96,-29 48.84,-29 41.1,-29"/>
<polygon fill="midnightblue" stroke="midnightblue" points="66.94,-32.5 76.94,-29 66.94,-25.5 66.94,-32.5"/>
</g>
<!-- Node7&#45;&gt;Node3 -->
<g id="edge7" class="edge">
<title>Node7&#45;&gt;Node3</title>
<path fill="none" stroke="midnightblue" d="M366.09,-18.9C357.27,-20.38 348.34,-21.88 340.14,-23.26"/>
<polygon fill="midnightblue" stroke="midnightblue" points="366.68,-22.35 375.96,-17.24 365.52,-15.44 366.68,-22.35"/>
</g>
</g>
</svg>
