<?xml version="1.0" encoding="UTF-8" standalone="no"?>
<!DOCTYPE svg PUBLIC "-//W3C//DTD SVG 1.1//EN"
 "http://www.w3.org/Graphics/SVG/1.1/DTD/svg11.dtd">
<!-- Generated by graphviz version 2.43.0 (0)
 -->
<!-- Title: len Pages: 1 -->
<svg width="1037pt" height="104pt"
 viewBox="0.00 0.00 1037.00 104.00" xmlns="http://www.w3.org/2000/svg" xmlns:xlink="http://www.w3.org/1999/xlink">
<g id="graph0" class="graph" transform="scale(1 1) rotate(0) translate(4 100)">
<title>len</title>
<!-- Node1 -->
<g id="node1" class="node">
<title>Node1</title>
<g id="a_node1"><a xlink:title=" ">
<polygon fill="#bfbfbf" stroke="black" points="997,-19.5 997,-38.5 1029,-38.5 1029,-19.5 997,-19.5"/>
<text text-anchor="middle" x="1013" y="-26.5" font-family="Helvetica,sans-Serif" font-size="10.00">len</text>
</a>
</g>
</g>
<!-- Node2 -->
<g id="node2" class="node">
<title>Node2</title>
<g id="a_node2"><a xlink:href="cd_8c.html#afa3cf8a1d55856208b8d44453d4cf9b4" target="_top" xlink:title=" ">
<polygon fill="none" stroke="black" points="918.5,-38.5 918.5,-57.5 947.5,-57.5 947.5,-38.5 918.5,-38.5"/>
<text text-anchor="middle" x="933" y="-45.5" font-family="Helvetica,sans-Serif" font-size="10.00">cd</text>
</a>
</g>
</g>
<!-- Node1&#45;&gt;Node2 -->
<g id="edge1" class="edge">
<title>Node1&#45;&gt;Node2</title>
<path fill="none" stroke="midnightblue" d="M987.14,-35.05C974.08,-38.24 958.57,-42.02 947.69,-44.67"/>
<polygon fill="midnightblue" stroke="midnightblue" points="988.07,-38.43 996.96,-32.66 986.42,-31.63 988.07,-38.43"/>
</g>
<!-- Node12 -->
<g id="node12" class="node">
<title>Node12</title>
<g id="a_node12"><a xlink:href="exit_8c.html#adcbec3416f97b2d0b8d53cf4c2b2a436" target="_top" xlink:title=" ">
<polygon fill="none" stroke="black" points="905,-0.5 905,-19.5 961,-19.5 961,-0.5 905,-0.5"/>
<text text-anchor="middle" x="933" y="-7.5" font-family="Helvetica,sans-Serif" font-size="10.00">my_exit</text>
</a>
</g>
</g>
<!-- Node1&#45;&gt;Node12 -->
<g id="edge13" class="edge">
<title>Node1&#45;&gt;Node12</title>
<path fill="none" stroke="midnightblue" d="M987.18,-22.95C978.94,-20.95 969.72,-18.7 961.31,-16.65"/>
<polygon fill="midnightblue" stroke="midnightblue" points="986.42,-26.37 996.96,-25.34 988.07,-19.57 986.42,-26.37"/>
</g>
<!-- Node3 -->
<g id="node3" class="node">
<title>Node3</title>
<g id="a_node3"><a xlink:href="execution_8c.html#a7bee4f6fbfd70ef7ec1f52856538ac71" target="_top" xlink:title="launch the builtin &#160;&#160;some of them are not present because we have to fork() them why ?...">
<polygon fill="none" stroke="black" points="784,-19.5 784,-38.5 869,-38.5 869,-19.5 784,-19.5"/>
<text text-anchor="middle" x="826.5" y="-26.5" font-family="Helvetica,sans-Serif" font-size="10.00">launch_builtin</text>
</a>
</g>
</g>
<!-- Node2&#45;&gt;Node3 -->
<g id="edge2" class="edge">
<title>Node2&#45;&gt;Node3</title>
<path fill="none" stroke="midnightblue" d="M908.2,-43.67C896.65,-41.57 882.43,-38.99 869.16,-36.57"/>
<polygon fill="midnightblue" stroke="midnightblue" points="907.87,-47.17 918.34,-45.52 909.13,-40.28 907.87,-47.17"/>
</g>
<!-- Node4 -->
<g id="node4" class="node">
<title>Node4</title>
<g id="a_node4"><a xlink:href="execution__node_8c.html#adda76b40c34c18ec83b1d98700083f8a" target="_top" xlink:title="we are going to execute the command here we have a security about absolute path given =&gt; because it&#39;s...">
<polygon fill="none" stroke="black" points="655,-38.5 655,-57.5 748,-57.5 748,-38.5 655,-38.5"/>
<text text-anchor="middle" x="701.5" y="-45.5" font-family="Helvetica,sans-Serif" font-size="10.00">execution_node</text>
</a>
</g>
</g>
<!-- Node3&#45;&gt;Node4 -->
<g id="edge3" class="edge">
<title>Node3&#45;&gt;Node4</title>
<path fill="none" stroke="midnightblue" d="M773.73,-37C765.29,-38.3 756.61,-39.64 748.32,-40.92"/>
<polygon fill="midnightblue" stroke="midnightblue" points="774.51,-40.42 783.86,-35.43 773.44,-33.5 774.51,-40.42"/>
</g>
<!-- Node11 -->
<g id="node11" class="node">
<title>Node11</title>
<g id="a_node11"><a xlink:href="execution_8c.html#a38335028b2bc7aa436f8f79a3753ce5e" target="_top" xlink:title="here we check if it&#39;s a builtin where we have to fork or not we still need to do the redirection veri...">
<polygon fill="none" stroke="black" points="331.5,-38.5 331.5,-57.5 420.5,-57.5 420.5,-38.5 331.5,-38.5"/>
<text text-anchor="middle" x="376" y="-45.5" font-family="Helvetica,sans-Serif" font-size="10.00">one_command</text>
</a>
</g>
</g>
<!-- Node3&#45;&gt;Node11 -->
<g id="edge12" class="edge">
<title>Node3&#45;&gt;Node11</title>
<path fill="none" stroke="midnightblue" d="M773.84,-26.36C708.03,-23.61 590.85,-20.74 491,-29 467.6,-30.94 441.78,-35.07 420.64,-38.99"/>
<polygon fill="midnightblue" stroke="midnightblue" points="773.81,-29.87 783.95,-26.8 774.11,-22.87 773.81,-29.87"/>
</g>
<!-- Node5 -->
<g id="node5" class="node">
<title>Node5</title>
<g id="a_node5"><a xlink:href="multipipe_8c.html#a461ae962ce9a1aee7221ac4b9c581f98" target="_top" xlink:title=" ">
<polygon fill="none" stroke="black" points="513.5,-76.5 513.5,-95.5 596.5,-95.5 596.5,-76.5 513.5,-76.5"/>
<text text-anchor="middle" x="555" y="-83.5" font-family="Helvetica,sans-Serif" font-size="10.00">execute_child</text>
</a>
</g>
</g>
<!-- Node4&#45;&gt;Node5 -->
<g id="edge4" class="edge">
<title>Node4&#45;&gt;Node5</title>
<path fill="none" stroke="midnightblue" d="M654.17,-60.18C634.11,-65.46 610.97,-71.54 592.2,-76.48"/>
<polygon fill="midnightblue" stroke="midnightblue" points="655.26,-63.52 664.04,-57.59 653.48,-56.75 655.26,-63.52"/>
</g>
<!-- Node10 -->
<g id="node10" class="node">
<title>Node10</title>
<g id="a_node10"><a xlink:href="execution_8c.html#aa6f3ac2f0c10538c125eafcb587fd021" target="_top" xlink:title="in this function we do the fork to create a child process we do the redirection if we need to">
<polygon fill="none" stroke="black" points="491,-38.5 491,-57.5 619,-57.5 619,-38.5 491,-38.5"/>
<text text-anchor="middle" x="555" y="-45.5" font-family="Helvetica,sans-Serif" font-size="10.00">one_command_execve</text>
</a>
</g>
</g>
<!-- Node4&#45;&gt;Node10 -->
<g id="edge9" class="edge">
<title>Node4&#45;&gt;Node10</title>
<path fill="none" stroke="midnightblue" d="M644.74,-48C636.35,-48 627.65,-48 619.12,-48"/>
<polygon fill="midnightblue" stroke="midnightblue" points="644.78,-51.5 654.78,-48 644.78,-44.5 644.78,-51.5"/>
</g>
<!-- Node6 -->
<g id="node6" class="node">
<title>Node6</title>
<g id="a_node6"><a xlink:href="multipipe_8c.html#af31c329200501f497cd102a470450103" target="_top" xlink:title="it&#39;s where the fork happen and sent to be execute">
<polygon fill="none" stroke="black" points="297,-76.5 297,-95.5 455,-95.5 455,-76.5 297,-76.5"/>
<text text-anchor="middle" x="376" y="-83.5" font-family="Helvetica,sans-Serif" font-size="10.00">multipipe_intermediary_cmd</text>
</a>
</g>
</g>
<!-- Node5&#45;&gt;Node6 -->
<g id="edge5" class="edge">
<title>Node5&#45;&gt;Node6</title>
<path fill="none" stroke="midnightblue" d="M503.29,-86C488.24,-86 471.4,-86 455.04,-86"/>
<polygon fill="midnightblue" stroke="midnightblue" points="503.39,-89.5 513.39,-86 503.39,-82.5 503.39,-89.5"/>
</g>
<!-- Node7 -->
<g id="node7" class="node">
<title>Node7</title>
<g id="a_node7"><a xlink:href="multipipe_8c.html#aa4f1c217eeb689ecbc622baecd2c5dec" target="_top" xlink:title="management of the multipipe (= name when we have at least one pipe) First step is to manage the hered...">
<polygon fill="none" stroke="black" points="172,-76.5 172,-95.5 261,-95.5 261,-76.5 172,-76.5"/>
<text text-anchor="middle" x="216.5" y="-83.5" font-family="Helvetica,sans-Serif" font-size="10.00">multipipe_cmd</text>
</a>
</g>
</g>
<!-- Node6&#45;&gt;Node7 -->
<g id="edge6" class="edge">
<title>Node6&#45;&gt;Node7</title>
<path fill="none" stroke="midnightblue" d="M286.44,-86C277.73,-86 269.19,-86 261.24,-86"/>
<polygon fill="midnightblue" stroke="midnightblue" points="286.71,-89.5 296.71,-86 286.71,-82.5 286.71,-89.5"/>
</g>
<!-- Node8 -->
<g id="node8" class="node">
<title>Node8</title>
<g id="a_node8"><a xlink:href="execution_8c.html#a9542b61daba3eb4d45c8887c5648b2f6" target="_top" xlink:title="first function of the execution part when we have something to do we have to deal with two cases ; if...">
<polygon fill="none" stroke="black" points="77,-57.5 77,-76.5 136,-76.5 136,-57.5 77,-57.5"/>
<text text-anchor="middle" x="106.5" y="-64.5" font-family="Helvetica,sans-Serif" font-size="10.00">executor</text>
</a>
</g>
</g>
<!-- Node7&#45;&gt;Node8 -->
<g id="edge7" class="edge">
<title>Node7&#45;&gt;Node8</title>
<path fill="none" stroke="midnightblue" d="M161.88,-76.57C152.97,-75 144.05,-73.43 136.08,-72.03"/>
<polygon fill="midnightblue" stroke="midnightblue" points="161.43,-80.04 171.88,-78.33 162.64,-73.15 161.43,-80.04"/>
</g>
<!-- Node9 -->
<g id="node9" class="node">
<title>Node9</title>
<g id="a_node9"><a xlink:href="main_8c.html#a647f21a28344e1d9c643f4115516d7c9" target="_top" xlink:title=" ">
<polygon fill="none" stroke="black" points="0,-57.5 0,-76.5 41,-76.5 41,-57.5 0,-57.5"/>
<text text-anchor="middle" x="20.5" y="-64.5" font-family="Helvetica,sans-Serif" font-size="10.00">main</text>
</a>
</g>
</g>
<!-- Node8&#45;&gt;Node9 -->
<g id="edge8" class="edge">
<title>Node8&#45;&gt;Node9</title>
<path fill="none" stroke="midnightblue" d="M66.48,-67C57.72,-67 48.78,-67 41.21,-67"/>
<polygon fill="midnightblue" stroke="midnightblue" points="66.59,-70.5 76.59,-67 66.59,-63.5 66.59,-70.5"/>
</g>
<!-- Node10&#45;&gt;Node11 -->
<g id="edge10" class="edge">
<title>Node10&#45;&gt;Node11</title>
<path fill="none" stroke="midnightblue" d="M480.4,-48C460.05,-48 438.62,-48 420.57,-48"/>
<polygon fill="midnightblue" stroke="midnightblue" points="480.6,-51.5 490.6,-48 480.6,-44.5 480.6,-51.5"/>
</g>
<!-- Node11&#45;&gt;Node8 -->
<g id="edge11" class="edge">
<title>Node11&#45;&gt;Node8</title>
<path fill="none" stroke="midnightblue" d="M321.37,-51.81C265.58,-55.77 180.35,-61.83 136.22,-64.96"/>
<polygon fill="midnightblue" stroke="midnightblue" points="321.7,-55.29 331.43,-51.09 321.2,-48.31 321.7,-55.29"/>
</g>
<!-- Node12&#45;&gt;Node3 -->
<g id="edge14" class="edge">
<title>Node12&#45;&gt;Node3</title>
<path fill="none" stroke="midnightblue" d="M894.96,-16.73C886.6,-18.25 877.67,-19.88 869.14,-21.43"/>
<polygon fill="midnightblue" stroke="midnightblue" points="895.6,-20.17 904.82,-14.94 894.35,-13.29 895.6,-20.17"/>
</g>
</g>
</svg>
