<?xml version="1.0" encoding="UTF-8" standalone="no"?>
<!DOCTYPE svg PUBLIC "-//W3C//DTD SVG 1.1//EN"
 "http://www.w3.org/Graphics/SVG/1.1/DTD/svg11.dtd">
<!-- Generated by graphviz version 2.43.0 (0)
 -->
<!-- Title: src Pages: 1 -->
<svg width="464pt" height="132pt"
 viewBox="0.00 0.00 464.00 132.00" xmlns="http://www.w3.org/2000/svg" xmlns:xlink="http://www.w3.org/1999/xlink">
<g id="graph0" class="graph" transform="scale(1 1) rotate(0) translate(4 128)">
<title>src</title>
<g id="clust1" class="cluster">
<title>clusterdir_68267d1309a1af8e8297ef4c3efbcdba</title>
<g id="a_clust1"><a xlink:href="dir_68267d1309a1af8e8297ef4c3efbcdba.html" target="_top">
<polygon fill="#eeeeff" stroke="black" points="8,-64 8,-116 448,-116 448,-64 8,-64"/>
</a>
</g>
</g>
<!-- dir_68267d1309a1af8e8297ef4c3efbcdba -->
<g id="node1" class="node">
<title>dir_68267d1309a1af8e8297ef4c3efbcdba</title>
<text text-anchor="middle" x="413" y="-87.5" font-family="Helvetica,sans-Serif" font-size="10.00">src</text>
</g>
<!-- dir_373c2c7059a28a5fb56f71d9101aecc4 -->
<g id="node2" class="node">
<title>dir_373c2c7059a28a5fb56f71d9101aecc4</title>
<g id="a_node2"><a xlink:href="dir_373c2c7059a28a5fb56f71d9101aecc4.html" target="_top" xlink:title="builtin">
<polygon fill="white" stroke="black" points="368,-108 314,-108 314,-72 368,-72 368,-108"/>
<text text-anchor="middle" x="341" y="-87.5" font-family="Helvetica,sans-Serif" font-size="10.00">builtin</text>
</a>
</g>
</g>
<!-- dir_09e761304027c904456130627fd4dcf5 -->
<g id="node7" class="node">
<title>dir_09e761304027c904456130627fd4dcf5</title>
<g id="a_node7"><a xlink:href="dir_09e761304027c904456130627fd4dcf5.html" target="_top" xlink:title="includes">
<polygon fill="none" stroke="black" points="220.5,-36 163.5,-36 163.5,0 220.5,0 220.5,-36"/>
<text text-anchor="middle" x="192" y="-15.5" font-family="Helvetica,sans-Serif" font-size="10.00">includes</text>
</a>
</g>
</g>
<!-- dir_373c2c7059a28a5fb56f71d9101aecc4&#45;&gt;dir_09e761304027c904456130627fd4dcf5 -->
<g id="edge3" class="edge">
<title>dir_373c2c7059a28a5fb56f71d9101aecc4&#45;&gt;dir_09e761304027c904456130627fd4dcf5</title>
<path fill="none" stroke="black" d="M317.86,-71.8C313.69,-69.02 309.29,-66.3 305,-64 281.02,-51.12 252.53,-39.8 230.16,-31.73"/>
<polygon fill="black" stroke="black" points="231.26,-28.41 220.67,-28.37 228.93,-35.01 231.26,-28.41"/>
<g id="a_edge3&#45;headlabel"><a xlink:href="dir_000002_000000.html" target="_top" xlink:title="6">
<text text-anchor="middle" x="235.6" y="-24.43" font-family="Helvetica,sans-Serif" font-size="10.00">6</text>
</a>
</g>
</g>
<!-- dir_51e5b56c5a94789e05e3a3352a90e377 -->
<g id="node3" class="node">
<title>dir_51e5b56c5a94789e05e3a3352a90e377</title>
<g id="a_node3"><a xlink:href="dir_51e5b56c5a94789e05e3a3352a90e377.html" target="_top" xlink:title="env">
<polygon fill="white" stroke="black" points="296,-108 242,-108 242,-72 296,-72 296,-108"/>
<text text-anchor="middle" x="269" y="-87.5" font-family="Helvetica,sans-Serif" font-size="10.00">env</text>
</a>
</g>
</g>
<!-- dir_51e5b56c5a94789e05e3a3352a90e377&#45;&gt;dir_09e761304027c904456130627fd4dcf5 -->
<g id="edge1" class="edge">
<title>dir_51e5b56c5a94789e05e3a3352a90e377&#45;&gt;dir_09e761304027c904456130627fd4dcf5</title>
<path fill="none" stroke="black" d="M249.97,-71.7C240.46,-63.05 228.79,-52.45 218.43,-43.03"/>
<polygon fill="black" stroke="black" points="220.57,-40.24 210.81,-36.1 215.86,-45.42 220.57,-40.24"/>
<g id="a_edge1&#45;headlabel"><a xlink:href="dir_000003_000000.html" target="_top" xlink:title="4">
<text text-anchor="middle" x="225.14" y="-38.06" font-family="Helvetica,sans-Serif" font-size="10.00">4</text>
</a>
</g>
</g>
<!-- dir_bd0755c95a42e835fb06f38bbeb1d6ed -->
<g id="node4" class="node">
<title>dir_bd0755c95a42e835fb06f38bbeb1d6ed</title>
<g id="a_node4"><a xlink:href="dir_bd0755c95a42e835fb06f38bbeb1d6ed.html" target="_top" xlink:title="execution">
<polygon fill="white" stroke="black" points="224,-108 160,-108 160,-72 224,-72 224,-108"/>
<text text-anchor="middle" x="192" y="-87.5" font-family="Helvetica,sans-Serif" font-size="10.00">execution</text>
</a>
</g>
</g>
<!-- dir_bd0755c95a42e835fb06f38bbeb1d6ed&#45;&gt;dir_09e761304027c904456130627fd4dcf5 -->
<g id="edge4" class="edge">
<title>dir_bd0755c95a42e835fb06f38bbeb1d6ed&#45;&gt;dir_09e761304027c904456130627fd4dcf5</title>
<path fill="none" stroke="black" d="M192,-71.7C192,-63.98 192,-54.71 192,-46.11"/>
<polygon fill="black" stroke="black" points="195.5,-46.1 192,-36.1 188.5,-46.1 195.5,-46.1"/>
<g id="a_edge4&#45;headlabel"><a xlink:href="dir_000004_000000.html" target="_top" xlink:title="13">
<text text-anchor="middle" x="198.34" y="-47.2" font-family="Helvetica,sans-Serif" font-size="10.00">13</text>
</a>
</g>
</g>
<!-- dir_17a25f50411d5c48f9623756cb25d43e -->
<g id="node5" class="node">
<title>dir_17a25f50411d5c48f9623756cb25d43e</title>
<g id="a_node5"><a xlink:href="dir_17a25f50411d5c48f9623756cb25d43e.html" target="_top" xlink:title="lexing">
<polygon fill="white" stroke="black" points="142,-108 88,-108 88,-72 142,-72 142,-108"/>
<text text-anchor="middle" x="115" y="-87.5" font-family="Helvetica,sans-Serif" font-size="10.00">lexing</text>
</a>
</g>
</g>
<!-- dir_17a25f50411d5c48f9623756cb25d43e&#45;&gt;dir_09e761304027c904456130627fd4dcf5 -->
<g id="edge2" class="edge">
<title>dir_17a25f50411d5c48f9623756cb25d43e&#45;&gt;dir_09e761304027c904456130627fd4dcf5</title>
<path fill="none" stroke="black" d="M134.03,-71.7C143.54,-63.05 155.21,-52.45 165.57,-43.03"/>
<polygon fill="black" stroke="black" points="168.14,-45.42 173.19,-36.1 163.43,-40.24 168.14,-45.42"/>
<g id="a_edge2&#45;headlabel"><a xlink:href="dir_000005_000000.html" target="_top" xlink:title="5">
<text text-anchor="middle" x="167.39" y="-47.44" font-family="Helvetica,sans-Serif" font-size="10.00">5</text>
</a>
</g>
</g>
<!-- dir_3fb67633942bd84f7aa391e58ba835b3 -->
<g id="node6" class="node">
<title>dir_3fb67633942bd84f7aa391e58ba835b3</title>
<g id="a_node6"><a xlink:href="dir_3fb67633942bd84f7aa391e58ba835b3.html" target="_top" xlink:title="parsing">
<polygon fill="white" stroke="black" points="70,-108 16,-108 16,-72 70,-72 70,-108"/>
<text text-anchor="middle" x="43" y="-87.5" font-family="Helvetica,sans-Serif" font-size="10.00">parsing</text>
</a>
</g>
</g>
<!-- dir_3fb67633942bd84f7aa391e58ba835b3&#45;&gt;dir_09e761304027c904456130627fd4dcf5 -->
<g id="edge5" class="edge">
<title>dir_3fb67633942bd84f7aa391e58ba835b3&#45;&gt;dir_09e761304027c904456130627fd4dcf5</title>
<path fill="none" stroke="black" d="M66.14,-71.8C70.31,-69.02 74.71,-66.3 79,-64 102.98,-51.12 131.47,-39.8 153.84,-31.73"/>
<polygon fill="black" stroke="black" points="155.07,-35.01 163.33,-28.37 152.74,-28.41 155.07,-35.01"/>
<g id="a_edge5&#45;headlabel"><a xlink:href="dir_000006_000000.html" target="_top" xlink:title="3">
<text text-anchor="middle" x="152.63" y="-36.38" font-family="Helvetica,sans-Serif" font-size="10.00">3</text>
</a>
</g>
</g>
</g>
</svg>
