<?xml version="1.0" encoding="UTF-8" standalone="no"?>
<!DOCTYPE svg PUBLIC "-//W3C//DTD SVG 1.1//EN"
 "http://www.w3.org/Graphics/SVG/1.1/DTD/svg11.dtd">
<!-- Generated by graphviz version 2.43.0 (0)
 -->
<!-- Title: src Pages: 1 -->
<svg width="536pt" height="132pt"
 viewBox="0.00 0.00 536.00 132.00" xmlns="http://www.w3.org/2000/svg" xmlns:xlink="http://www.w3.org/1999/xlink">
<g id="graph0" class="graph" transform="scale(1 1) rotate(0) translate(4 128)">
<title>src</title>
<g id="clust1" class="cluster">
<title>clusterdir_68267d1309a1af8e8297ef4c3efbcdba</title>
<g id="a_clust1"><a xlink:href="dir_68267d1309a1af8e8297ef4c3efbcdba.html" target="_top">
<polygon fill="#eeeeff" stroke="black" points="8,-64 8,-116 520,-116 520,-64 8,-64"/>
</a>
</g>
</g>
<!-- dir_68267d1309a1af8e8297ef4c3efbcdba -->
<g id="node1" class="node">
<title>dir_68267d1309a1af8e8297ef4c3efbcdba</title>
<text text-anchor="middle" x="485" y="-87.5" font-family="Helvetica,sans-Serif" font-size="10.00">src</text>
</g>
<!-- dir_373c2c7059a28a5fb56f71d9101aecc4 -->
<g id="node2" class="node">
<title>dir_373c2c7059a28a5fb56f71d9101aecc4</title>
<g id="a_node2"><a xlink:href="dir_373c2c7059a28a5fb56f71d9101aecc4.html" target="_top" xlink:title="builtin">
<polygon fill="white" stroke="black" points="440,-108 386,-108 386,-72 440,-72 440,-108"/>
<text text-anchor="middle" x="413" y="-87.5" font-family="Helvetica,sans-Serif" font-size="10.00">builtin</text>
</a>
</g>
</g>
<!-- dir_09e761304027c904456130627fd4dcf5 -->
<g id="node8" class="node">
<title>dir_09e761304027c904456130627fd4dcf5</title>
<g id="a_node8"><a xlink:href="dir_09e761304027c904456130627fd4dcf5.html" target="_top" xlink:title="includes">
<polygon fill="none" stroke="black" points="253.5,-36 196.5,-36 196.5,0 253.5,0 253.5,-36"/>
<text text-anchor="middle" x="225" y="-15.5" font-family="Helvetica,sans-Serif" font-size="10.00">includes</text>
</a>
</g>
</g>
<!-- dir_373c2c7059a28a5fb56f71d9101aecc4&#45;&gt;dir_09e761304027c904456130627fd4dcf5 -->
<g id="edge3" class="edge">
<title>dir_373c2c7059a28a5fb56f71d9101aecc4&#45;&gt;dir_09e761304027c904456130627fd4dcf5</title>
<path fill="none" stroke="black" d="M390.82,-71.98C386.39,-69.05 381.66,-66.24 377,-64 340.33,-46.4 295.34,-34.13 263.86,-26.89"/>
<polygon fill="black" stroke="black" points="264.25,-23.39 253.73,-24.63 262.73,-30.23 264.25,-23.39"/>
<g id="a_edge3&#45;headlabel"><a xlink:href="dir_000002_000000.html" target="_top" xlink:title="8">
<text text-anchor="middle" x="268.38" y="-18.91" font-family="Helvetica,sans-Serif" font-size="10.00">8</text>
</a>
</g>
</g>
<!-- dir_51e5b56c5a94789e05e3a3352a90e377 -->
<g id="node3" class="node">
<title>dir_51e5b56c5a94789e05e3a3352a90e377</title>
<g id="a_node3"><a xlink:href="dir_51e5b56c5a94789e05e3a3352a90e377.html" target="_top" xlink:title="env">
<polygon fill="white" stroke="black" points="368,-108 314,-108 314,-72 368,-72 368,-108"/>
<text text-anchor="middle" x="341" y="-87.5" font-family="Helvetica,sans-Serif" font-size="10.00">env</text>
</a>
</g>
</g>
<!-- dir_51e5b56c5a94789e05e3a3352a90e377&#45;&gt;dir_09e761304027c904456130627fd4dcf5 -->
<g id="edge1" class="edge">
<title>dir_51e5b56c5a94789e05e3a3352a90e377&#45;&gt;dir_09e761304027c904456130627fd4dcf5</title>
<path fill="none" stroke="black" d="M316.81,-71.74C312.9,-69.08 308.87,-66.42 305,-64 291.39,-55.48 276.11,-46.69 262.57,-39.17"/>
<polygon fill="black" stroke="black" points="263.97,-35.95 253.52,-34.19 260.59,-42.08 263.97,-35.95"/>
<g id="a_edge1&#45;headlabel"><a xlink:href="dir_000003_000000.html" target="_top" xlink:title="4">
<text text-anchor="middle" x="268.48" y="-32.69" font-family="Helvetica,sans-Serif" font-size="10.00">4</text>
</a>
</g>
</g>
<!-- dir_bd0755c95a42e835fb06f38bbeb1d6ed -->
<g id="node4" class="node">
<title>dir_bd0755c95a42e835fb06f38bbeb1d6ed</title>
<g id="a_node4"><a xlink:href="dir_bd0755c95a42e835fb06f38bbeb1d6ed.html" target="_top" xlink:title="execution">
<polygon fill="white" stroke="black" points="296,-108 232,-108 232,-72 296,-72 296,-108"/>
<text text-anchor="middle" x="264" y="-87.5" font-family="Helvetica,sans-Serif" font-size="10.00">execution</text>
</a>
</g>
</g>
<!-- dir_bd0755c95a42e835fb06f38bbeb1d6ed&#45;&gt;dir_09e761304027c904456130627fd4dcf5 -->
<g id="edge5" class="edge">
<title>dir_bd0755c95a42e835fb06f38bbeb1d6ed&#45;&gt;dir_09e761304027c904456130627fd4dcf5</title>
<path fill="none" stroke="black" d="M254.36,-71.7C249.87,-63.64 244.44,-53.89 239.48,-44.98"/>
<polygon fill="black" stroke="black" points="242.45,-43.14 234.53,-36.1 236.34,-46.54 242.45,-43.14"/>
<g id="a_edge5&#45;headlabel"><a xlink:href="dir_000004_000000.html" target="_top" xlink:title="15">
<text text-anchor="middle" x="246.68" y="-42.39" font-family="Helvetica,sans-Serif" font-size="10.00">15</text>
</a>
</g>
</g>
<!-- dir_e5986d01aae1422d724ecb71d884ed82 -->
<g id="node5" class="node">
<title>dir_e5986d01aae1422d724ecb71d884ed82</title>
<g id="a_node5"><a xlink:href="dir_e5986d01aae1422d724ecb71d884ed82.html" target="_top" xlink:title="expand">
<polygon fill="white" stroke="black" points="214,-108 160,-108 160,-72 214,-72 214,-108"/>
<text text-anchor="middle" x="187" y="-87.5" font-family="Helvetica,sans-Serif" font-size="10.00">expand</text>
</a>
</g>
</g>
<!-- dir_e5986d01aae1422d724ecb71d884ed82&#45;&gt;dir_09e761304027c904456130627fd4dcf5 -->
<g id="edge4" class="edge">
<title>dir_e5986d01aae1422d724ecb71d884ed82&#45;&gt;dir_09e761304027c904456130627fd4dcf5</title>
<path fill="none" stroke="black" d="M196.39,-71.7C200.76,-63.64 206.06,-53.89 210.9,-44.98"/>
<polygon fill="black" stroke="black" points="214.02,-46.56 215.71,-36.1 207.87,-43.22 214.02,-46.56"/>
<g id="a_edge4&#45;headlabel"><a xlink:href="dir_000005_000000.html" target="_top" xlink:title="3">
<text text-anchor="middle" x="214.8" y="-48.58" font-family="Helvetica,sans-Serif" font-size="10.00">3</text>
</a>
</g>
</g>
<!-- dir_17a25f50411d5c48f9623756cb25d43e -->
<g id="node6" class="node">
<title>dir_17a25f50411d5c48f9623756cb25d43e</title>
<g id="a_node6"><a xlink:href="dir_17a25f50411d5c48f9623756cb25d43e.html" target="_top" xlink:title="lexing">
<polygon fill="white" stroke="black" points="142,-108 88,-108 88,-72 142,-72 142,-108"/>
<text text-anchor="middle" x="115" y="-87.5" font-family="Helvetica,sans-Serif" font-size="10.00">lexing</text>
</a>
</g>
</g>
<!-- dir_17a25f50411d5c48f9623756cb25d43e&#45;&gt;dir_09e761304027c904456130627fd4dcf5 -->
<g id="edge2" class="edge">
<title>dir_17a25f50411d5c48f9623756cb25d43e&#45;&gt;dir_09e761304027c904456130627fd4dcf5</title>
<path fill="none" stroke="black" d="M139.26,-71.85C143.16,-69.19 147.17,-66.49 151,-64 162.75,-56.36 175.76,-48.31 187.55,-41.17"/>
<polygon fill="black" stroke="black" points="189.52,-44.07 196.29,-35.91 185.91,-38.07 189.52,-44.07"/>
<g id="a_edge2&#45;headlabel"><a xlink:href="dir_000006_000000.html" target="_top" xlink:title="5">
<text text-anchor="middle" x="187.91" y="-45.85" font-family="Helvetica,sans-Serif" font-size="10.00">5</text>
</a>
</g>
</g>
<!-- dir_3fb67633942bd84f7aa391e58ba835b3 -->
<g id="node7" class="node">
<title>dir_3fb67633942bd84f7aa391e58ba835b3</title>
<g id="a_node7"><a xlink:href="dir_3fb67633942bd84f7aa391e58ba835b3.html" target="_top" xlink:title="parsing">
<polygon fill="white" stroke="black" points="70,-108 16,-108 16,-72 70,-72 70,-108"/>
<text text-anchor="middle" x="43" y="-87.5" font-family="Helvetica,sans-Serif" font-size="10.00">parsing</text>
</a>
</g>
</g>
<!-- dir_3fb67633942bd84f7aa391e58ba835b3&#45;&gt;dir_09e761304027c904456130627fd4dcf5 -->
<g id="edge6" class="edge">
<title>dir_3fb67633942bd84f7aa391e58ba835b3&#45;&gt;dir_09e761304027c904456130627fd4dcf5</title>
<path fill="none" stroke="black" d="M65.59,-71.76C69.9,-68.92 74.48,-66.2 79,-64 113.82,-47.05 156.41,-34.8 186.58,-27.4"/>
<polygon fill="black" stroke="black" points="187.39,-30.8 196.31,-25.07 185.77,-23.99 187.39,-30.8"/>
<g id="a_edge6&#45;headlabel"><a xlink:href="dir_000007_000000.html" target="_top" xlink:title="4">
<text text-anchor="middle" x="184.56" y="-31.9" font-family="Helvetica,sans-Serif" font-size="10.00">4</text>
</a>
</g>
</g>
</g>
</svg>
