<?xml version="1.0" encoding="UTF-8" standalone="no"?>
<!DOCTYPE svg PUBLIC "-//W3C//DTD SVG 1.1//EN"
 "http://www.w3.org/Graphics/SVG/1.1/DTD/svg11.dtd">
<!-- Generated by graphviz version 2.43.0 (0)
 -->
<!-- Title: env_lst_size Pages: 1 -->
<svg width="916pt" height="66pt"
 viewBox="0.00 0.00 916.00 66.00" xmlns="http://www.w3.org/2000/svg" xmlns:xlink="http://www.w3.org/1999/xlink">
<g id="graph0" class="graph" transform="scale(1 1) rotate(0) translate(4 62)">
<title>env_lst_size</title>
<!-- Node1 -->
<g id="node1" class="node">
<title>Node1</title>
<g id="a_node1"><a xlink:title=" ">
<polygon fill="#bfbfbf" stroke="black" points="831,-19.5 831,-38.5 908,-38.5 908,-19.5 831,-19.5"/>
<text text-anchor="middle" x="869.5" y="-26.5" font-family="Helvetica,sans-Serif" font-size="10.00">env_lst_size</text>
</a>
</g>
</g>
<!-- Node2 -->
<g id="node2" class="node">
<title>Node2</title>
<g id="a_node2"><a xlink:href="lst__env__two_8c.html#aafcce0b2f2958645e84ae23b14116680" target="_top" xlink:title=" ">
<polygon fill="none" stroke="black" points="707,-19.5 707,-38.5 795,-38.5 795,-19.5 707,-19.5"/>
<text text-anchor="middle" x="751" y="-26.5" font-family="Helvetica,sans-Serif" font-size="10.00">lst_to_tab_env</text>
</a>
</g>
</g>
<!-- Node1&#45;&gt;Node2 -->
<g id="edge1" class="edge">
<title>Node1&#45;&gt;Node2</title>
<path fill="none" stroke="midnightblue" d="M820.82,-29C812.31,-29 803.48,-29 795.11,-29"/>
<polygon fill="midnightblue" stroke="midnightblue" points="821,-32.5 831,-29 821,-25.5 821,-32.5"/>
</g>
<!-- Node3 -->
<g id="node3" class="node">
<title>Node3</title>
<g id="a_node3"><a xlink:href="execution__node_8c.html#a6cfdc545c2222bbb0ca1dfc8431f72a3" target="_top" xlink:title="we are going to execute the command here we have a security about absolute path given =&gt; because it&#39;s...">
<polygon fill="none" stroke="black" points="578,-19.5 578,-38.5 671,-38.5 671,-19.5 578,-19.5"/>
<text text-anchor="middle" x="624.5" y="-26.5" font-family="Helvetica,sans-Serif" font-size="10.00">execution_node</text>
</a>
</g>
</g>
<!-- Node2&#45;&gt;Node3 -->
<g id="edge2" class="edge">
<title>Node2&#45;&gt;Node3</title>
<path fill="none" stroke="midnightblue" d="M696.62,-29C688.14,-29 679.44,-29 671.16,-29"/>
<polygon fill="midnightblue" stroke="midnightblue" points="696.81,-32.5 706.81,-29 696.81,-25.5 696.81,-32.5"/>
</g>
<!-- Node4 -->
<g id="node4" class="node">
<title>Node4</title>
<g id="a_node4"><a xlink:href="multipipe_8c.html#a43baea25481fdd02ce42e4d249f12353" target="_top" xlink:title=" ">
<polygon fill="none" stroke="black" points="436.5,-38.5 436.5,-57.5 519.5,-57.5 519.5,-38.5 436.5,-38.5"/>
<text text-anchor="middle" x="478" y="-45.5" font-family="Helvetica,sans-Serif" font-size="10.00">execute_child</text>
</a>
</g>
</g>
<!-- Node3&#45;&gt;Node4 -->
<g id="edge3" class="edge">
<title>Node3&#45;&gt;Node4</title>
<path fill="none" stroke="midnightblue" d="M567.47,-36.37C551.5,-38.47 534.4,-40.72 519.54,-42.67"/>
<polygon fill="midnightblue" stroke="midnightblue" points="568.32,-39.79 577.78,-35.01 567.41,-32.85 568.32,-39.79"/>
</g>
<!-- Node8 -->
<g id="node8" class="node">
<title>Node8</title>
<g id="a_node8"><a xlink:href="execution_8c.html#ac70faaedddc427b5051b808a8de40da4" target="_top" xlink:title="in this function we do the fork to create a child process we do the redirection if we need to">
<polygon fill="none" stroke="black" points="414,-0.5 414,-19.5 542,-19.5 542,-0.5 414,-0.5"/>
<text text-anchor="middle" x="478" y="-7.5" font-family="Helvetica,sans-Serif" font-size="10.00">one_command_execve</text>
</a>
</g>
</g>
<!-- Node3&#45;&gt;Node8 -->
<g id="edge7" class="edge">
<title>Node3&#45;&gt;Node8</title>
<path fill="none" stroke="midnightblue" d="M567.74,-21.67C559.35,-20.56 550.65,-19.42 542.12,-18.3"/>
<polygon fill="midnightblue" stroke="midnightblue" points="567.41,-25.15 577.78,-22.99 568.32,-18.21 567.41,-25.15"/>
</g>
<!-- Node5 -->
<g id="node5" class="node">
<title>Node5</title>
<g id="a_node5"><a xlink:href="multipipe_8c.html#af32b88ab44b94650a0bb6f805f70a805" target="_top" xlink:title="it&#39;s where the fork happen and sent to be execute">
<polygon fill="none" stroke="black" points="220,-38.5 220,-57.5 378,-57.5 378,-38.5 220,-38.5"/>
<text text-anchor="middle" x="299" y="-45.5" font-family="Helvetica,sans-Serif" font-size="10.00">multipipe_intermediary_cmd</text>
</a>
</g>
</g>
<!-- Node4&#45;&gt;Node5 -->
<g id="edge4" class="edge">
<title>Node4&#45;&gt;Node5</title>
<path fill="none" stroke="midnightblue" d="M426.29,-48C411.24,-48 394.4,-48 378.04,-48"/>
<polygon fill="midnightblue" stroke="midnightblue" points="426.39,-51.5 436.39,-48 426.39,-44.5 426.39,-51.5"/>
</g>
<!-- Node6 -->
<g id="node6" class="node">
<title>Node6</title>
<g id="a_node6"><a xlink:href="multipipe_8c.html#a3f78d597d08aaca5580b2c89f956a3a2" target="_top" xlink:title="management of the multipipe (= name when we have at least one pipe) First step is to manage the hered...">
<polygon fill="none" stroke="black" points="95,-38.5 95,-57.5 184,-57.5 184,-38.5 95,-38.5"/>
<text text-anchor="middle" x="139.5" y="-45.5" font-family="Helvetica,sans-Serif" font-size="10.00">multipipe_cmd</text>
</a>
</g>
</g>
<!-- Node5&#45;&gt;Node6 -->
<g id="edge5" class="edge">
<title>Node5&#45;&gt;Node6</title>
<path fill="none" stroke="midnightblue" d="M209.44,-48C200.73,-48 192.19,-48 184.24,-48"/>
<polygon fill="midnightblue" stroke="midnightblue" points="209.71,-51.5 219.71,-48 209.71,-44.5 209.71,-51.5"/>
</g>
<!-- Node7 -->
<g id="node7" class="node">
<title>Node7</title>
<g id="a_node7"><a xlink:href="execution_8c.html#a9dffeca3c2ff474e24c3e98ab856df76" target="_top" xlink:title="first function of the execution part when we have something to do we have to deal with two cases ; if...">
<polygon fill="none" stroke="black" points="0,-19.5 0,-38.5 59,-38.5 59,-19.5 0,-19.5"/>
<text text-anchor="middle" x="29.5" y="-26.5" font-family="Helvetica,sans-Serif" font-size="10.00">executor</text>
</a>
</g>
</g>
<!-- Node6&#45;&gt;Node7 -->
<g id="edge6" class="edge">
<title>Node6&#45;&gt;Node7</title>
<path fill="none" stroke="midnightblue" d="M84.88,-38.57C75.97,-37 67.05,-35.43 59.08,-34.03"/>
<polygon fill="midnightblue" stroke="midnightblue" points="84.43,-42.04 94.88,-40.33 85.64,-35.15 84.43,-42.04"/>
</g>
<!-- Node9 -->
<g id="node9" class="node">
<title>Node9</title>
<g id="a_node9"><a xlink:href="execution_8c.html#a4ef7db02a474eb1b198b2a25e1303118" target="_top" xlink:title="here we check if it&#39;s a builtin where we have to fork or not we still need to do the redirection veri...">
<polygon fill="none" stroke="black" points="95,-0.5 95,-19.5 184,-19.5 184,-0.5 95,-0.5"/>
<text text-anchor="middle" x="139.5" y="-7.5" font-family="Helvetica,sans-Serif" font-size="10.00">one_command</text>
</a>
</g>
</g>
<!-- Node8&#45;&gt;Node9 -->
<g id="edge8" class="edge">
<title>Node8&#45;&gt;Node9</title>
<path fill="none" stroke="midnightblue" d="M403.64,-10C336.64,-10 239.84,-10 184.23,-10"/>
<polygon fill="midnightblue" stroke="midnightblue" points="403.71,-13.5 413.71,-10 403.71,-6.5 403.71,-13.5"/>
</g>
<!-- Node9&#45;&gt;Node7 -->
<g id="edge9" class="edge">
<title>Node9&#45;&gt;Node7</title>
<path fill="none" stroke="midnightblue" d="M84.88,-19.43C75.97,-21 67.05,-22.57 59.08,-23.97"/>
<polygon fill="midnightblue" stroke="midnightblue" points="85.64,-22.85 94.88,-17.67 84.43,-15.96 85.64,-22.85"/>
</g>
</g>
</svg>
