<?xml version="1.0" encoding="UTF-8" standalone="no"?>
<!DOCTYPE svg PUBLIC "-//W3C//DTD SVG 1.1//EN"
 "http://www.w3.org/Graphics/SVG/1.1/DTD/svg11.dtd">
<!-- Generated by graphviz version 2.43.0 (0)
 -->
<!-- Title: src/parsing/error.c Pages: 1 -->
<svg width="1387pt" height="252pt"
 viewBox="0.00 0.00 1387.00 252.00" xmlns="http://www.w3.org/2000/svg" xmlns:xlink="http://www.w3.org/1999/xlink">
<g id="graph0" class="graph" transform="scale(1 1) rotate(0) translate(4 248)">
<title>src/parsing/error.c</title>
<!-- Node1 -->
<g id="node1" class="node">
<title>Node1</title>
<g id="a_node1"><a xlink:title=" ">
<polygon fill="#bfbfbf" stroke="black" points="619.5,-224.5 619.5,-243.5 723.5,-243.5 723.5,-224.5 619.5,-224.5"/>
<text text-anchor="middle" x="671.5" y="-231.5" font-family="Helvetica,sans-Serif" font-size="10.00">src/parsing/error.c</text>
</a>
</g>
</g>
<!-- Node2 -->
<g id="node2" class="node">
<title>Node2</title>
<g id="a_node2"><a xlink:href="parsing_8h.html" target="_top" xlink:title=" ">
<polygon fill="none" stroke="black" points="610,-168.5 610,-187.5 733,-187.5 733,-168.5 610,-168.5"/>
<text text-anchor="middle" x="671.5" y="-175.5" font-family="Helvetica,sans-Serif" font-size="10.00">../../includes/parsing.h</text>
</a>
</g>
</g>
<!-- Node1&#45;&gt;Node2 -->
<g id="edge1" class="edge">
<title>Node1&#45;&gt;Node2</title>
<path fill="none" stroke="midnightblue" d="M671.5,-224.08C671.5,-217.01 671.5,-206.86 671.5,-197.99"/>
<polygon fill="midnightblue" stroke="midnightblue" points="675,-197.75 671.5,-187.75 668,-197.75 675,-197.75"/>
</g>
<!-- Node3 -->
<g id="node3" class="node">
<title>Node3</title>
<g id="a_node3"><a xlink:href="minishell_8h.html" target="_top" xlink:title=" ">
<polygon fill="none" stroke="black" points="596,-56.5 596,-75.5 667,-75.5 667,-56.5 596,-56.5"/>
<text text-anchor="middle" x="631.5" y="-63.5" font-family="Helvetica,sans-Serif" font-size="10.00">minishell.h</text>
</a>
</g>
</g>
<!-- Node2&#45;&gt;Node3 -->
<g id="edge2" class="edge">
<title>Node2&#45;&gt;Node3</title>
<path fill="none" stroke="midnightblue" d="M651.59,-168.41C637.28,-161.04 619.04,-148.92 610.5,-132 602.68,-116.52 610.65,-97.51 618.92,-84.06"/>
<polygon fill="midnightblue" stroke="midnightblue" points="621.83,-86 624.5,-75.75 616.02,-82.1 621.83,-86"/>
</g>
<!-- Node21 -->
<g id="node21" class="node">
<title>Node21</title>
<g id="a_node21"><a xlink:href="parsing__helpers_8h.html" target="_top" xlink:title=" ">
<polygon fill="none" stroke="black" points="620,-112.5 620,-131.5 723,-131.5 723,-112.5 620,-112.5"/>
<text text-anchor="middle" x="671.5" y="-119.5" font-family="Helvetica,sans-Serif" font-size="10.00">parsing_helpers.h</text>
</a>
</g>
</g>
<!-- Node2&#45;&gt;Node21 -->
<g id="edge20" class="edge">
<title>Node2&#45;&gt;Node21</title>
<path fill="none" stroke="midnightblue" d="M666.33,-168.08C664.82,-160.93 664.39,-150.64 665.04,-141.69"/>
<polygon fill="midnightblue" stroke="midnightblue" points="668.52,-142.13 666.37,-131.75 661.58,-141.2 668.52,-142.13"/>
</g>
<!-- Node4 -->
<g id="node4" class="node">
<title>Node4</title>
<g id="a_node4"><a xlink:title=" ">
<polygon fill="none" stroke="#bfbfbf" points="0,-0.5 0,-19.5 75,-19.5 75,-0.5 0,-0.5"/>
<text text-anchor="middle" x="37.5" y="-7.5" font-family="Helvetica,sans-Serif" font-size="10.00">../libft/libft.h</text>
</a>
</g>
</g>
<!-- Node3&#45;&gt;Node4 -->
<g id="edge3" class="edge">
<title>Node3&#45;&gt;Node4</title>
<path fill="none" stroke="midnightblue" d="M595.77,-63.44C509.59,-59.4 283.37,-47.03 85.11,-20.09"/>
<polygon fill="midnightblue" stroke="midnightblue" points="85.48,-16.6 75.1,-18.71 84.53,-23.54 85.48,-16.6"/>
</g>
<!-- Node5 -->
<g id="node5" class="node">
<title>Node5</title>
<g id="a_node5"><a xlink:title=" ">
<polygon fill="none" stroke="#bfbfbf" points="92.5,-0.5 92.5,-19.5 148.5,-19.5 148.5,-0.5 92.5,-0.5"/>
<text text-anchor="middle" x="120.5" y="-7.5" font-family="Helvetica,sans-Serif" font-size="10.00">unistd.h</text>
</a>
</g>
</g>
<!-- Node3&#45;&gt;Node5 -->
<g id="edge4" class="edge">
<title>Node3&#45;&gt;Node5</title>
<path fill="none" stroke="midnightblue" d="M595.89,-63.37C518.2,-59.45 327.56,-47.79 158.76,-19.98"/>
<polygon fill="midnightblue" stroke="midnightblue" points="159.14,-16.5 148.7,-18.3 157.98,-23.4 159.14,-16.5"/>
</g>
<!-- Node6 -->
<g id="node6" class="node">
<title>Node6</title>
<g id="a_node6"><a xlink:title=" ">
<polygon fill="none" stroke="#bfbfbf" points="167,-0.5 167,-19.5 214,-19.5 214,-0.5 167,-0.5"/>
<text text-anchor="middle" x="190.5" y="-7.5" font-family="Helvetica,sans-Serif" font-size="10.00">fcntl.h</text>
</a>
</g>
</g>
<!-- Node3&#45;&gt;Node6 -->
<g id="edge5" class="edge">
<title>Node3&#45;&gt;Node6</title>
<path fill="none" stroke="midnightblue" d="M595.92,-63.06C526.22,-58.84 366.77,-47.1 224.38,-20.09"/>
<polygon fill="midnightblue" stroke="midnightblue" points="224.64,-16.58 214.16,-18.12 223.32,-23.45 224.64,-16.58"/>
</g>
<!-- Node7 -->
<g id="node7" class="node">
<title>Node7</title>
<g id="a_node7"><a xlink:title=" ">
<polygon fill="none" stroke="#bfbfbf" points="232,-0.5 232,-19.5 287,-19.5 287,-0.5 232,-0.5"/>
<text text-anchor="middle" x="259.5" y="-7.5" font-family="Helvetica,sans-Serif" font-size="10.00">signal.h</text>
</a>
</g>
</g>
<!-- Node3&#45;&gt;Node7 -->
<g id="edge6" class="edge">
<title>Node3&#45;&gt;Node7</title>
<path fill="none" stroke="midnightblue" d="M595.61,-61.43C535.82,-55.21 411.91,-41.18 297.31,-19.97"/>
<polygon fill="midnightblue" stroke="midnightblue" points="297.79,-16.5 287.31,-18.1 296.5,-23.38 297.79,-16.5"/>
</g>
<!-- Node8 -->
<g id="node8" class="node">
<title>Node8</title>
<g id="a_node8"><a xlink:title=" ">
<polygon fill="none" stroke="#bfbfbf" points="305.5,-0.5 305.5,-19.5 371.5,-19.5 371.5,-0.5 305.5,-0.5"/>
<text text-anchor="middle" x="338.5" y="-7.5" font-family="Helvetica,sans-Serif" font-size="10.00">sys/wait.h</text>
</a>
</g>
</g>
<!-- Node3&#45;&gt;Node8 -->
<g id="edge7" class="edge">
<title>Node3&#45;&gt;Node8</title>
<path fill="none" stroke="midnightblue" d="M595.68,-58.97C548.82,-50.99 463.92,-36.25 381.93,-20.23"/>
<polygon fill="midnightblue" stroke="midnightblue" points="382.44,-16.77 371.95,-18.27 381.09,-23.63 382.44,-16.77"/>
</g>
<!-- Node9 -->
<g id="node9" class="node">
<title>Node9</title>
<g id="a_node9"><a xlink:title=" ">
<polygon fill="none" stroke="#bfbfbf" points="390,-0.5 390,-19.5 443,-19.5 443,-0.5 390,-0.5"/>
<text text-anchor="middle" x="416.5" y="-7.5" font-family="Helvetica,sans-Serif" font-size="10.00">stdlib.h</text>
</a>
</g>
</g>
<!-- Node3&#45;&gt;Node9 -->
<g id="edge8" class="edge">
<title>Node3&#45;&gt;Node9</title>
<path fill="none" stroke="midnightblue" d="M597.43,-56.44C558.03,-46.55 493.41,-30.32 453,-20.17"/>
<polygon fill="midnightblue" stroke="midnightblue" points="453.83,-16.77 443.28,-17.73 452.12,-23.56 453.83,-16.77"/>
</g>
<!-- Node10 -->
<g id="node10" class="node">
<title>Node10</title>
<g id="a_node10"><a xlink:title=" ">
<polygon fill="none" stroke="#bfbfbf" points="461.5,-0.5 461.5,-19.5 511.5,-19.5 511.5,-0.5 461.5,-0.5"/>
<text text-anchor="middle" x="486.5" y="-7.5" font-family="Helvetica,sans-Serif" font-size="10.00">stdio.h</text>
</a>
</g>
</g>
<!-- Node3&#45;&gt;Node10 -->
<g id="edge9" class="edge">
<title>Node3&#45;&gt;Node10</title>
<path fill="none" stroke="midnightblue" d="M608.52,-56.44C584.34,-47.44 546.08,-33.19 518.85,-23.05"/>
<polygon fill="midnightblue" stroke="midnightblue" points="519.96,-19.73 509.37,-19.52 517.52,-26.29 519.96,-19.73"/>
</g>
<!-- Node11 -->
<g id="node11" class="node">
<title>Node11</title>
<g id="a_node11"><a xlink:title=" ">
<polygon fill="none" stroke="#bfbfbf" points="530,-0.5 530,-19.5 581,-19.5 581,-0.5 530,-0.5"/>
<text text-anchor="middle" x="555.5" y="-7.5" font-family="Helvetica,sans-Serif" font-size="10.00">errno.h</text>
</a>
</g>
</g>
<!-- Node3&#45;&gt;Node11 -->
<g id="edge10" class="edge">
<title>Node3&#45;&gt;Node11</title>
<path fill="none" stroke="midnightblue" d="M619.29,-56.32C607.72,-48.11 590.12,-35.6 576.34,-25.81"/>
<polygon fill="midnightblue" stroke="midnightblue" points="578.11,-22.77 567.93,-19.83 574.06,-28.48 578.11,-22.77"/>
</g>
<!-- Node12 -->
<g id="node12" class="node">
<title>Node12</title>
<g id="a_node12"><a xlink:title=" ">
<polygon fill="none" stroke="#bfbfbf" points="599.5,-0.5 599.5,-19.5 663.5,-19.5 663.5,-0.5 599.5,-0.5"/>
<text text-anchor="middle" x="631.5" y="-7.5" font-family="Helvetica,sans-Serif" font-size="10.00">sys/stat.h</text>
</a>
</g>
</g>
<!-- Node3&#45;&gt;Node12 -->
<g id="edge11" class="edge">
<title>Node3&#45;&gt;Node12</title>
<path fill="none" stroke="midnightblue" d="M631.5,-56.08C631.5,-49.01 631.5,-38.86 631.5,-29.99"/>
<polygon fill="midnightblue" stroke="midnightblue" points="635,-29.75 631.5,-19.75 628,-29.75 635,-29.75"/>
</g>
<!-- Node13 -->
<g id="node13" class="node">
<title>Node13</title>
<g id="a_node13"><a xlink:title=" ">
<polygon fill="none" stroke="#bfbfbf" points="681.5,-0.5 681.5,-19.5 753.5,-19.5 753.5,-0.5 681.5,-0.5"/>
<text text-anchor="middle" x="717.5" y="-7.5" font-family="Helvetica,sans-Serif" font-size="10.00">sys/types.h</text>
</a>
</g>
</g>
<!-- Node3&#45;&gt;Node13 -->
<g id="edge12" class="edge">
<title>Node3&#45;&gt;Node13</title>
<path fill="none" stroke="midnightblue" d="M645.32,-56.32C658.73,-47.9 679.32,-34.97 695.09,-25.07"/>
<polygon fill="midnightblue" stroke="midnightblue" points="697.11,-27.94 703.72,-19.65 693.39,-22.01 697.11,-27.94"/>
</g>
<!-- Node14 -->
<g id="node14" class="node">
<title>Node14</title>
<g id="a_node14"><a xlink:title=" ">
<polygon fill="none" stroke="#bfbfbf" points="771.5,-0.5 771.5,-19.5 837.5,-19.5 837.5,-0.5 771.5,-0.5"/>
<text text-anchor="middle" x="804.5" y="-7.5" font-family="Helvetica,sans-Serif" font-size="10.00">sys/ioctl.h</text>
</a>
</g>
</g>
<!-- Node3&#45;&gt;Node14 -->
<g id="edge13" class="edge">
<title>Node3&#45;&gt;Node14</title>
<path fill="none" stroke="midnightblue" d="M658.91,-56.44C688.27,-47.28 735.02,-32.69 767.6,-22.52"/>
<polygon fill="midnightblue" stroke="midnightblue" points="768.71,-25.84 777.22,-19.52 766.63,-19.16 768.71,-25.84"/>
</g>
<!-- Node15 -->
<g id="node15" class="node">
<title>Node15</title>
<g id="a_node15"><a xlink:title=" ">
<polygon fill="none" stroke="#bfbfbf" points="855.5,-0.5 855.5,-19.5 909.5,-19.5 909.5,-0.5 855.5,-0.5"/>
<text text-anchor="middle" x="882.5" y="-7.5" font-family="Helvetica,sans-Serif" font-size="10.00">dirent.h</text>
</a>
</g>
</g>
<!-- Node3&#45;&gt;Node15 -->
<g id="edge14" class="edge">
<title>Node3&#45;&gt;Node15</title>
<path fill="none" stroke="midnightblue" d="M667.35,-57.94C708.1,-49.81 776.86,-35.81 845.31,-20.21"/>
<polygon fill="midnightblue" stroke="midnightblue" points="846.43,-23.54 855.4,-17.89 844.87,-16.72 846.43,-23.54"/>
</g>
<!-- Node16 -->
<g id="node16" class="node">
<title>Node16</title>
<g id="a_node16"><a xlink:title=" ">
<polygon fill="none" stroke="#bfbfbf" points="928,-0.5 928,-19.5 991,-19.5 991,-0.5 928,-0.5"/>
<text text-anchor="middle" x="959.5" y="-7.5" font-family="Helvetica,sans-Serif" font-size="10.00">termios.h</text>
</a>
</g>
</g>
<!-- Node3&#45;&gt;Node16 -->
<g id="edge15" class="edge">
<title>Node3&#45;&gt;Node16</title>
<path fill="none" stroke="midnightblue" d="M667.41,-60.08C720.07,-52.72 821.51,-37.93 917.85,-20.02"/>
<polygon fill="midnightblue" stroke="midnightblue" points="918.57,-23.45 927.75,-18.17 917.28,-16.57 918.57,-23.45"/>
</g>
<!-- Node17 -->
<g id="node17" class="node">
<title>Node17</title>
<g id="a_node17"><a xlink:title=" ">
<polygon fill="none" stroke="#bfbfbf" points="1009,-0.5 1009,-19.5 1058,-19.5 1058,-0.5 1009,-0.5"/>
<text text-anchor="middle" x="1033.5" y="-7.5" font-family="Helvetica,sans-Serif" font-size="10.00">term.h</text>
</a>
</g>
</g>
<!-- Node3&#45;&gt;Node17 -->
<g id="edge16" class="edge">
<title>Node3&#45;&gt;Node17</title>
<path fill="none" stroke="midnightblue" d="M667.13,-62.38C731.61,-57.27 872.02,-44.44 998.84,-20.1"/>
<polygon fill="midnightblue" stroke="midnightblue" points="999.58,-23.52 1008.72,-18.17 998.24,-16.65 999.58,-23.52"/>
</g>
<!-- Node18 -->
<g id="node18" class="node">
<title>Node18</title>
<g id="a_node18"><a xlink:title=" ">
<polygon fill="none" stroke="#bfbfbf" points="1076,-0.5 1076,-19.5 1133,-19.5 1133,-0.5 1076,-0.5"/>
<text text-anchor="middle" x="1104.5" y="-7.5" font-family="Helvetica,sans-Serif" font-size="10.00">curses.h</text>
</a>
</g>
</g>
<!-- Node3&#45;&gt;Node18 -->
<g id="edge17" class="edge">
<title>Node3&#45;&gt;Node18</title>
<path fill="none" stroke="midnightblue" d="M667.04,-62.97C740.07,-58.45 912.34,-45.99 1065.82,-20.09"/>
<polygon fill="midnightblue" stroke="midnightblue" points="1066.63,-23.5 1075.9,-18.36 1065.45,-16.6 1066.63,-23.5"/>
</g>
<!-- Node19 -->
<g id="node19" class="node">
<title>Node19</title>
<g id="a_node19"><a xlink:title=" ">
<polygon fill="none" stroke="#bfbfbf" points="1151.5,-0.5 1151.5,-19.5 1259.5,-19.5 1259.5,-0.5 1151.5,-0.5"/>
<text text-anchor="middle" x="1205.5" y="-7.5" font-family="Helvetica,sans-Serif" font-size="10.00">readline/readline.h</text>
</a>
</g>
</g>
<!-- Node3&#45;&gt;Node19 -->
<g id="edge18" class="edge">
<title>Node3&#45;&gt;Node19</title>
<path fill="none" stroke="midnightblue" d="M667.19,-62.52C749.04,-56.7 956.76,-41.12 1141.08,-20.11"/>
<polygon fill="midnightblue" stroke="midnightblue" points="1141.69,-23.56 1151.23,-18.94 1140.89,-16.61 1141.69,-23.56"/>
</g>
<!-- Node20 -->
<g id="node20" class="node">
<title>Node20</title>
<g id="a_node20"><a xlink:title=" ">
<polygon fill="none" stroke="#bfbfbf" points="1278,-0.5 1278,-19.5 1379,-19.5 1379,-0.5 1278,-0.5"/>
<text text-anchor="middle" x="1328.5" y="-7.5" font-family="Helvetica,sans-Serif" font-size="10.00">readline/history.h</text>
</a>
</g>
</g>
<!-- Node3&#45;&gt;Node20 -->
<g id="edge19" class="edge">
<title>Node3&#45;&gt;Node20</title>
<path fill="none" stroke="midnightblue" d="M667.16,-63.46C762.65,-59.14 1032.33,-45.55 1267.68,-20"/>
<polygon fill="midnightblue" stroke="midnightblue" points="1268.24,-23.46 1277.8,-18.89 1267.48,-16.5 1268.24,-23.46"/>
</g>
<!-- Node21&#45;&gt;Node2 -->
<g id="edge22" class="edge">
<title>Node21&#45;&gt;Node2</title>
<path fill="none" stroke="midnightblue" d="M676.63,-131.75C678.16,-138.86 678.6,-149.14 677.97,-158.1"/>
<polygon fill="midnightblue" stroke="midnightblue" points="674.49,-157.71 676.67,-168.08 681.43,-158.62 674.49,-157.71"/>
</g>
<!-- Node21&#45;&gt;Node3 -->
<g id="edge21" class="edge">
<title>Node21&#45;&gt;Node3</title>
<path fill="none" stroke="midnightblue" d="M664.89,-112.08C659.24,-104.46 650.96,-93.26 644.05,-83.94"/>
<polygon fill="midnightblue" stroke="midnightblue" points="646.75,-81.7 637.98,-75.75 641.12,-85.87 646.75,-81.7"/>
</g>
</g>
</svg>
