<?xml version="1.0" encoding="UTF-8" standalone="no"?>
<!DOCTYPE svg PUBLIC "-//W3C//DTD SVG 1.1//EN"
 "http://www.w3.org/Graphics/SVG/1.1/DTD/svg11.dtd">
<!-- Generated by graphviz version 2.43.0 (0)
 -->
<!-- Title: is_it_builtin Pages: 1 -->
<svg width="788pt" height="85pt"
 viewBox="0.00 0.00 788.00 85.00" xmlns="http://www.w3.org/2000/svg" xmlns:xlink="http://www.w3.org/1999/xlink">
<g id="graph0" class="graph" transform="scale(1 1) rotate(0) translate(4 81)">
<title>is_it_builtin</title>
<!-- Node1 -->
<g id="node1" class="node">
<title>Node1</title>
<g id="a_node1"><a xlink:title="detect if it&#39;s a builtin with strncmp()">
<polygon fill="#bfbfbf" stroke="black" points="707,-0.5 707,-19.5 780,-19.5 780,-0.5 707,-0.5"/>
<text text-anchor="middle" x="743.5" y="-7.5" font-family="Helvetica,sans-Serif" font-size="10.00">is_it_builtin</text>
</a>
</g>
</g>
<!-- Node2 -->
<g id="node2" class="node">
<title>Node2</title>
<g id="a_node2"><a xlink:href="execution__node_8c.html#a6cfdc545c2222bbb0ca1dfc8431f72a3" target="_top" xlink:title=" ">
<polygon fill="none" stroke="black" points="578,-19.5 578,-38.5 671,-38.5 671,-19.5 578,-19.5"/>
<text text-anchor="middle" x="624.5" y="-26.5" font-family="Helvetica,sans-Serif" font-size="10.00">execution_node</text>
</a>
</g>
</g>
<!-- Node1&#45;&gt;Node2 -->
<g id="edge1" class="edge">
<title>Node1&#45;&gt;Node2</title>
<path fill="none" stroke="midnightblue" d="M696.81,-17.42C688.46,-18.78 679.74,-20.19 671.39,-21.55"/>
<polygon fill="midnightblue" stroke="midnightblue" points="697.45,-20.86 706.76,-15.8 696.33,-13.95 697.45,-20.86"/>
</g>
<!-- Node8 -->
<g id="node8" class="node">
<title>Node8</title>
<g id="a_node8"><a xlink:href="execution_8c.html#a4ef7db02a474eb1b198b2a25e1303118" target="_top" xlink:title=" ">
<polygon fill="none" stroke="black" points="254.5,-19.5 254.5,-38.5 343.5,-38.5 343.5,-19.5 254.5,-19.5"/>
<text text-anchor="middle" x="299" y="-26.5" font-family="Helvetica,sans-Serif" font-size="10.00">one_command</text>
</a>
</g>
</g>
<!-- Node1&#45;&gt;Node8 -->
<g id="edge9" class="edge">
<title>Node1&#45;&gt;Node8</title>
<path fill="none" stroke="midnightblue" d="M696.85,-7.63C633.31,-4.87 514.68,-1.67 414,-10 390.6,-11.94 364.78,-16.07 343.64,-19.99"/>
<polygon fill="midnightblue" stroke="midnightblue" points="696.79,-11.13 706.93,-8.08 697.1,-4.14 696.79,-11.13"/>
</g>
<!-- Node3 -->
<g id="node3" class="node">
<title>Node3</title>
<g id="a_node3"><a xlink:href="multipipe_8c.html#a43baea25481fdd02ce42e4d249f12353" target="_top" xlink:title=" ">
<polygon fill="none" stroke="black" points="436.5,-57.5 436.5,-76.5 519.5,-76.5 519.5,-57.5 436.5,-57.5"/>
<text text-anchor="middle" x="478" y="-64.5" font-family="Helvetica,sans-Serif" font-size="10.00">execute_child</text>
</a>
</g>
</g>
<!-- Node2&#45;&gt;Node3 -->
<g id="edge2" class="edge">
<title>Node2&#45;&gt;Node3</title>
<path fill="none" stroke="midnightblue" d="M577.17,-41.18C557.11,-46.46 533.97,-52.54 515.2,-57.48"/>
<polygon fill="midnightblue" stroke="midnightblue" points="578.26,-44.52 587.04,-38.59 576.48,-37.75 578.26,-44.52"/>
</g>
<!-- Node7 -->
<g id="node7" class="node">
<title>Node7</title>
<g id="a_node7"><a xlink:href="execution_8c.html#ac70faaedddc427b5051b808a8de40da4" target="_top" xlink:title=" ">
<polygon fill="none" stroke="black" points="414,-19.5 414,-38.5 542,-38.5 542,-19.5 414,-19.5"/>
<text text-anchor="middle" x="478" y="-26.5" font-family="Helvetica,sans-Serif" font-size="10.00">one_command_execve</text>
</a>
</g>
</g>
<!-- Node2&#45;&gt;Node7 -->
<g id="edge6" class="edge">
<title>Node2&#45;&gt;Node7</title>
<path fill="none" stroke="midnightblue" d="M567.74,-29C559.35,-29 550.65,-29 542.12,-29"/>
<polygon fill="midnightblue" stroke="midnightblue" points="567.78,-32.5 577.78,-29 567.78,-25.5 567.78,-32.5"/>
</g>
<!-- Node4 -->
<g id="node4" class="node">
<title>Node4</title>
<g id="a_node4"><a xlink:href="multipipe_8c.html#af32b88ab44b94650a0bb6f805f70a805" target="_top" xlink:title=" ">
<polygon fill="none" stroke="black" points="220,-57.5 220,-76.5 378,-76.5 378,-57.5 220,-57.5"/>
<text text-anchor="middle" x="299" y="-64.5" font-family="Helvetica,sans-Serif" font-size="10.00">multipipe_intermediary_cmd</text>
</a>
</g>
</g>
<!-- Node3&#45;&gt;Node4 -->
<g id="edge3" class="edge">
<title>Node3&#45;&gt;Node4</title>
<path fill="none" stroke="midnightblue" d="M426.29,-67C411.24,-67 394.4,-67 378.04,-67"/>
<polygon fill="midnightblue" stroke="midnightblue" points="426.39,-70.5 436.39,-67 426.39,-63.5 426.39,-70.5"/>
</g>
<!-- Node5 -->
<g id="node5" class="node">
<title>Node5</title>
<g id="a_node5"><a xlink:href="multipipe_8c.html#a3f78d597d08aaca5580b2c89f956a3a2" target="_top" xlink:title=" ">
<polygon fill="none" stroke="black" points="95,-57.5 95,-76.5 184,-76.5 184,-57.5 95,-57.5"/>
<text text-anchor="middle" x="139.5" y="-64.5" font-family="Helvetica,sans-Serif" font-size="10.00">multipipe_cmd</text>
</a>
</g>
</g>
<!-- Node4&#45;&gt;Node5 -->
<g id="edge4" class="edge">
<title>Node4&#45;&gt;Node5</title>
<path fill="none" stroke="midnightblue" d="M209.44,-67C200.73,-67 192.19,-67 184.24,-67"/>
<polygon fill="midnightblue" stroke="midnightblue" points="209.71,-70.5 219.71,-67 209.71,-63.5 209.71,-70.5"/>
</g>
<!-- Node6 -->
<g id="node6" class="node">
<title>Node6</title>
<g id="a_node6"><a xlink:href="execution_8c.html#a9dffeca3c2ff474e24c3e98ab856df76" target="_top" xlink:title=" ">
<polygon fill="none" stroke="black" points="0,-38.5 0,-57.5 59,-57.5 59,-38.5 0,-38.5"/>
<text text-anchor="middle" x="29.5" y="-45.5" font-family="Helvetica,sans-Serif" font-size="10.00">executor</text>
</a>
</g>
</g>
<!-- Node5&#45;&gt;Node6 -->
<g id="edge5" class="edge">
<title>Node5&#45;&gt;Node6</title>
<path fill="none" stroke="midnightblue" d="M84.88,-57.57C75.97,-56 67.05,-54.43 59.08,-53.03"/>
<polygon fill="midnightblue" stroke="midnightblue" points="84.43,-61.04 94.88,-59.33 85.64,-54.15 84.43,-61.04"/>
</g>
<!-- Node7&#45;&gt;Node8 -->
<g id="edge7" class="edge">
<title>Node7&#45;&gt;Node8</title>
<path fill="none" stroke="midnightblue" d="M403.4,-29C383.05,-29 361.62,-29 343.57,-29"/>
<polygon fill="midnightblue" stroke="midnightblue" points="403.6,-32.5 413.6,-29 403.6,-25.5 403.6,-32.5"/>
</g>
<!-- Node8&#45;&gt;Node6 -->
<g id="edge8" class="edge">
<title>Node8&#45;&gt;Node6</title>
<path fill="none" stroke="midnightblue" d="M244.37,-32.81C188.58,-36.77 103.35,-42.83 59.22,-45.96"/>
<polygon fill="midnightblue" stroke="midnightblue" points="244.7,-36.29 254.43,-32.09 244.2,-29.31 244.7,-36.29"/>
</g>
</g>
</svg>
