<?xml version="1.0" encoding="UTF-8" standalone="no"?>
<!DOCTYPE svg PUBLIC "-//W3C//DTD SVG 1.1//EN"
 "http://www.w3.org/Graphics/SVG/1.1/DTD/svg11.dtd">
<!-- Generated by graphviz version 2.43.0 (0)
 -->
<!-- Title: execution_node Pages: 1 -->
<svg width="366pt" height="218pt"
 viewBox="0.00 0.00 366.00 218.00" xmlns="http://www.w3.org/2000/svg" xmlns:xlink="http://www.w3.org/1999/xlink">
<g id="graph0" class="graph" transform="scale(1 1) rotate(0) translate(4 214)">
<title>execution_node</title>
<!-- Node1 -->
<g id="node1" class="node">
<title>Node1</title>
<g id="a_node1"><a xlink:title="we are going to execute the command here we have a security about absolute path given =&gt; because it&#39;s...">
<polygon fill="#bfbfbf" stroke="black" points="0,-76.5 0,-95.5 93,-95.5 93,-76.5 0,-76.5"/>
<text text-anchor="middle" x="46.5" y="-83.5" font-family="Helvetica,sans-Serif" font-size="10.00">execution_node</text>
</a>
</g>
</g>
<!-- Node2 -->
<g id="node2" class="node">
<title>Node2</title>
<g id="a_node2"><a xlink:href="execution_8c.html#a3acc0bb56da881cc8609ca9e94ec8e93" target="_top" xlink:title="detect if it&#39;s a builtin with strncmp() but the real question is &quot;is it a builtin I have to launch in...">
<polygon fill="none" stroke="black" points="137,-152.5 137,-171.5 210,-171.5 210,-152.5 137,-152.5"/>
<text text-anchor="middle" x="173.5" y="-159.5" font-family="Helvetica,sans-Serif" font-size="10.00">is_it_builtin</text>
</a>
</g>
</g>
<!-- Node1&#45;&gt;Node2 -->
<g id="edge1" class="edge">
<title>Node1&#45;&gt;Node2</title>
<path fill="none" stroke="midnightblue" d="M59.7,-95.69C75.21,-107.74 103.1,-128.47 129,-143 132.11,-144.75 135.42,-146.44 138.76,-148.06"/>
<polygon fill="midnightblue" stroke="midnightblue" points="137.61,-151.38 148.15,-152.38 140.53,-145.02 137.61,-151.38"/>
</g>
<!-- Node3 -->
<g id="node3" class="node">
<title>Node3</title>
<g id="a_node3"><a xlink:href="execution_8c.html#a8b2bd9dba90bfc9b2ead44af5e630315" target="_top" xlink:title="launch the builtin &#160;&#160;some of them are not present because we have to fork() them why ?...">
<polygon fill="none" stroke="black" points="131,-114.5 131,-133.5 216,-133.5 216,-114.5 131,-114.5"/>
<text text-anchor="middle" x="173.5" y="-121.5" font-family="Helvetica,sans-Serif" font-size="10.00">launch_builtin</text>
</a>
</g>
</g>
<!-- Node1&#45;&gt;Node3 -->
<g id="edge2" class="edge">
<title>Node1&#45;&gt;Node3</title>
<path fill="none" stroke="midnightblue" d="M79.04,-95.59C94.88,-100.4 114.27,-106.3 131.28,-111.47"/>
<polygon fill="midnightblue" stroke="midnightblue" points="130.38,-114.85 140.97,-114.41 132.42,-108.16 130.38,-114.85"/>
</g>
<!-- Node7 -->
<g id="node7" class="node">
<title>Node7</title>
<g id="a_node7"><a xlink:href="lst__env__two_8c.html#aafcce0b2f2958645e84ae23b14116680" target="_top" xlink:title=" ">
<polygon fill="none" stroke="black" points="129.5,-76.5 129.5,-95.5 217.5,-95.5 217.5,-76.5 129.5,-76.5"/>
<text text-anchor="middle" x="173.5" y="-83.5" font-family="Helvetica,sans-Serif" font-size="10.00">lst_to_tab_env</text>
</a>
</g>
</g>
<!-- Node1&#45;&gt;Node7 -->
<g id="edge6" class="edge">
<title>Node1&#45;&gt;Node7</title>
<path fill="none" stroke="midnightblue" d="M93.34,-86C101.66,-86 110.41,-86 118.93,-86"/>
<polygon fill="midnightblue" stroke="midnightblue" points="119.16,-89.5 129.16,-86 119.16,-82.5 119.16,-89.5"/>
</g>
<!-- Node10 -->
<g id="node10" class="node">
<title>Node10</title>
<g id="a_node10"><a xlink:href="execution__node_8c.html#adc2c91230d4a0a1a1f98db2a888afcaa" target="_top" xlink:title="error message management for the specific case of execution">
<polygon fill="none" stroke="black" points="129,-38.5 129,-57.5 218,-57.5 218,-38.5 129,-38.5"/>
<text text-anchor="middle" x="173.5" y="-45.5" font-family="Helvetica,sans-Serif" font-size="10.00">message_error</text>
</a>
</g>
</g>
<!-- Node1&#45;&gt;Node10 -->
<g id="edge9" class="edge">
<title>Node1&#45;&gt;Node10</title>
<path fill="none" stroke="midnightblue" d="M79.04,-76.41C94.88,-71.6 114.27,-65.7 131.28,-60.53"/>
<polygon fill="midnightblue" stroke="midnightblue" points="132.42,-63.84 140.97,-57.59 130.38,-57.15 132.42,-63.84"/>
</g>
<!-- Node11 -->
<g id="node11" class="node">
<title>Node11</title>
<g id="a_node11"><a xlink:href="getenv_8c.html#a5d0cf05c2622983111dcfc0f179c5739" target="_top" xlink:title=" ">
<polygon fill="none" stroke="black" points="135.5,-0.5 135.5,-19.5 211.5,-19.5 211.5,-0.5 135.5,-0.5"/>
<text text-anchor="middle" x="173.5" y="-7.5" font-family="Helvetica,sans-Serif" font-size="10.00">search_path</text>
</a>
</g>
</g>
<!-- Node1&#45;&gt;Node11 -->
<g id="edge10" class="edge">
<title>Node1&#45;&gt;Node11</title>
<path fill="none" stroke="midnightblue" d="M59.7,-76.31C75.21,-64.26 103.1,-43.53 129,-29 132.11,-27.25 135.42,-25.56 138.76,-23.94"/>
<polygon fill="midnightblue" stroke="midnightblue" points="140.53,-26.98 148.15,-19.62 137.61,-20.62 140.53,-26.98"/>
</g>
<!-- Node4 -->
<g id="node4" class="node">
<title>Node4</title>
<g id="a_node4"><a xlink:href="env_8c.html#ad7678c59b5365c776294bdeefd3d7583" target="_top" xlink:title=" ">
<polygon fill="none" stroke="black" points="288.5,-190.5 288.5,-209.5 323.5,-209.5 323.5,-190.5 288.5,-190.5"/>
<text text-anchor="middle" x="306" y="-197.5" font-family="Helvetica,sans-Serif" font-size="10.00">env</text>
</a>
</g>
</g>
<!-- Node3&#45;&gt;Node4 -->
<g id="edge3" class="edge">
<title>Node3&#45;&gt;Node4</title>
<path fill="none" stroke="midnightblue" d="M201.17,-133.63C206.96,-136.26 212.87,-139.4 218,-143 237.04,-156.37 234.6,-168.16 254,-181 261.51,-185.97 270.49,-189.87 278.81,-192.81"/>
<polygon fill="midnightblue" stroke="midnightblue" points="277.89,-196.19 288.49,-195.93 280.04,-189.53 277.89,-196.19"/>
</g>
<!-- Node5 -->
<g id="node5" class="node">
<title>Node5</title>
<g id="a_node5"><a xlink:href="my__echo_8c.html#a5522916069f77552d810e207670e3170" target="_top" xlink:title=" ">
<polygon fill="none" stroke="black" points="275.5,-152.5 275.5,-171.5 336.5,-171.5 336.5,-152.5 275.5,-152.5"/>
<text text-anchor="middle" x="306" y="-159.5" font-family="Helvetica,sans-Serif" font-size="10.00">my_echo</text>
</a>
</g>
</g>
<!-- Node3&#45;&gt;Node5 -->
<g id="edge4" class="edge">
<title>Node3&#45;&gt;Node5</title>
<path fill="none" stroke="midnightblue" d="M207.43,-133.59C225.1,-138.73 246.99,-145.11 265.56,-150.51"/>
<polygon fill="midnightblue" stroke="midnightblue" points="264.62,-153.89 275.2,-153.32 266.58,-147.17 264.62,-153.89"/>
</g>
<!-- Node6 -->
<g id="node6" class="node">
<title>Node6</title>
<g id="a_node6"><a xlink:href="pwd_8c.html#ab62618359287b6604bd60852145b9726" target="_top" xlink:title=" ">
<polygon fill="none" stroke="black" points="287.5,-114.5 287.5,-133.5 324.5,-133.5 324.5,-114.5 287.5,-114.5"/>
<text text-anchor="middle" x="306" y="-121.5" font-family="Helvetica,sans-Serif" font-size="10.00">pwd</text>
</a>
</g>
</g>
<!-- Node3&#45;&gt;Node6 -->
<g id="edge5" class="edge">
<title>Node3&#45;&gt;Node6</title>
<path fill="none" stroke="midnightblue" d="M216.15,-124C236.04,-124 259.31,-124 277.05,-124"/>
<polygon fill="midnightblue" stroke="midnightblue" points="277.3,-127.5 287.3,-124 277.3,-120.5 277.3,-127.5"/>
</g>
<!-- Node8 -->
<g id="node8" class="node">
<title>Node8</title>
<g id="a_node8"><a xlink:href="env__utils_8c.html#a7cc35c974bce053dbba1c1ec1028f36b" target="_top" xlink:title=" ">
<polygon fill="none" stroke="black" points="267.5,-76.5 267.5,-95.5 344.5,-95.5 344.5,-76.5 267.5,-76.5"/>
<text text-anchor="middle" x="306" y="-83.5" font-family="Helvetica,sans-Serif" font-size="10.00">env_lst_size</text>
</a>
</g>
</g>
<!-- Node7&#45;&gt;Node8 -->
<g id="edge7" class="edge">
<title>Node7&#45;&gt;Node8</title>
<path fill="none" stroke="midnightblue" d="M217.59,-86C230.25,-86 244.16,-86 257.1,-86"/>
<polygon fill="midnightblue" stroke="midnightblue" points="257.22,-89.5 267.22,-86 257.22,-82.5 257.22,-89.5"/>
</g>
<!-- Node9 -->
<g id="node9" class="node">
<title>Node9</title>
<g id="a_node9"><a xlink:href="getenv_8c.html#a0250cce1862c20e31d0c0ece960bc3a0" target="_top" xlink:title=" ">
<polygon fill="none" stroke="black" points="275,-38.5 275,-57.5 337,-57.5 337,-38.5 275,-38.5"/>
<text text-anchor="middle" x="306" y="-45.5" font-family="Helvetica,sans-Serif" font-size="10.00">join_path</text>
</a>
</g>
</g>
<!-- Node7&#45;&gt;Node9 -->
<g id="edge8" class="edge">
<title>Node7&#45;&gt;Node9</title>
<path fill="none" stroke="midnightblue" d="M207.43,-76.41C224.97,-71.3 246.67,-64.98 265.15,-59.6"/>
<polygon fill="midnightblue" stroke="midnightblue" points="266.14,-62.96 274.76,-56.8 264.18,-56.24 266.14,-62.96"/>
</g>
<!-- Node11&#45;&gt;Node9 -->
<g id="edge11" class="edge">
<title>Node11&#45;&gt;Node9</title>
<path fill="none" stroke="midnightblue" d="M207.43,-19.59C224.97,-24.7 246.67,-31.02 265.15,-36.4"/>
<polygon fill="midnightblue" stroke="midnightblue" points="264.18,-39.76 274.76,-39.2 266.14,-33.04 264.18,-39.76"/>
</g>
<!-- Node12 -->
<g id="node12" class="node">
<title>Node12</title>
<g id="a_node12"><a xlink:href="lst__env__two_8c.html#a4d4a14327b2c3ff88099102b6bd77986" target="_top" xlink:title=" ">
<polygon fill="none" stroke="black" points="254,-0.5 254,-19.5 358,-19.5 358,-0.5 254,-0.5"/>
<text text-anchor="middle" x="306" y="-7.5" font-family="Helvetica,sans-Serif" font-size="10.00">research_key_env</text>
</a>
</g>
</g>
<!-- Node11&#45;&gt;Node12 -->
<g id="edge12" class="edge">
<title>Node11&#45;&gt;Node12</title>
<path fill="none" stroke="midnightblue" d="M211.55,-10C221.59,-10 232.73,-10 243.72,-10"/>
<polygon fill="midnightblue" stroke="midnightblue" points="243.73,-13.5 253.73,-10 243.73,-6.5 243.73,-13.5"/>
</g>
</g>
</svg>
