<?xml version="1.0" encoding="UTF-8" standalone="no"?>
<!DOCTYPE svg PUBLIC "-//W3C//DTD SVG 1.1//EN"
 "http://www.w3.org/Graphics/SVG/1.1/DTD/svg11.dtd">
<!-- Generated by graphviz version 2.43.0 (0)
 -->
<!-- Title: is_it_builtin Pages: 1 -->
<svg width="185pt" height="66pt"
 viewBox="0.00 0.00 185.00 66.00" xmlns="http://www.w3.org/2000/svg" xmlns:xlink="http://www.w3.org/1999/xlink">
<g id="graph0" class="graph" transform="scale(1 1) rotate(0) translate(4 62)">
<title>is_it_builtin</title>
<!-- Node1 -->
<g id="node1" class="node">
<title>Node1</title>
<g id="a_node1"><a xlink:title=" ">
<polygon fill="#bfbfbf" stroke="black" points="0,-19.5 0,-38.5 73,-38.5 73,-19.5 0,-19.5"/>
<text text-anchor="middle" x="36.5" y="-26.5" font-family="Helvetica,sans-Serif" font-size="10.00">is_it_builtin</text>
</a>
</g>
</g>
<!-- Node2 -->
<g id="node2" class="node">
<title>Node2</title>
<g id="a_node2"><a xlink:href="ft__strlen_8c.html#a828402378653640f545a4be2e00e92f9" target="_top" xlink:title=" ">
<polygon fill="none" stroke="black" points="115,-38.5 115,-57.5 171,-57.5 171,-38.5 115,-38.5"/>
<text text-anchor="middle" x="143" y="-45.5" font-family="Helvetica,sans-Serif" font-size="10.00">ft_strlen</text>
</a>
</g>
</g>
<!-- Node1&#45;&gt;Node2 -->
<g id="edge1" class="edge">
<title>Node1&#45;&gt;Node2</title>
<path fill="none" stroke="midnightblue" d="M73.17,-35.49C83.37,-37.34 94.51,-39.37 104.8,-41.24"/>
<polygon fill="midnightblue" stroke="midnightblue" points="104.27,-44.7 114.74,-43.04 105.52,-37.81 104.27,-44.7"/>
</g>
<!-- Node3 -->
<g id="node3" class="node">
<title>Node3</title>
<g id="a_node3"><a xlink:href="ft__strncmp_8c.html#a9d2fe792187aa4ed08e5864fb2c4d6dc" target="_top" xlink:title=" ">
<polygon fill="none" stroke="black" points="109,-0.5 109,-19.5 177,-19.5 177,-0.5 109,-0.5"/>
<text text-anchor="middle" x="143" y="-7.5" font-family="Helvetica,sans-Serif" font-size="10.00">ft_strncmp</text>
</a>
</g>
</g>
<!-- Node1&#45;&gt;Node3 -->
<g id="edge2" class="edge">
<title>Node1&#45;&gt;Node3</title>
<path fill="none" stroke="midnightblue" d="M73.17,-22.51C81.5,-21 90.46,-19.37 99.06,-17.81"/>
<polygon fill="midnightblue" stroke="midnightblue" points="99.74,-21.24 108.95,-16.01 98.49,-14.35 99.74,-21.24"/>
</g>
</g>
</svg>
