<?xml version="1.0" encoding="UTF-8" standalone="no"?>
<!DOCTYPE svg PUBLIC "-//W3C//DTD SVG 1.1//EN"
 "http://www.w3.org/Graphics/SVG/1.1/DTD/svg11.dtd">
<!-- Generated by graphviz version 2.43.0 (0)
 -->
<!-- Title: one_command_execve Pages: 1 -->
<!--zoomable 692 -->
<svg id="main" version="1.1" xmlns="http://www.w3.org/2000/svg" xmlns:xlink="http://www.w3.org/1999/xlink" xml:space="preserve" onload="init(evt)">
<style type="text/css"><![CDATA[
.edge:hover path { stroke: red; }
.edge:hover polygon { stroke: red; fill: red; }
]]></style>
<script type="text/javascript"><![CDATA[
var edges = document.getElementsByTagName('g');
if (edges && edges.length) {
  for (var i=0;i<edges.length;i++) {
    if (edges[i].id.substr(0,4)=='edge') {
      edges[i].setAttribute('class','edge');
    }
  }
}
]]></script>
        <defs>
                <circle id="rim" cx="0" cy="0" r="7"/>
                <circle id="rim2" cx="0" cy="0" r="3.5"/>
                <g id="zoomPlus">
                        <use xlink:href="#rim" fill="#404040">
                                <set attributeName="fill" to="#808080" begin="zoomplus.mouseover" end="zoomplus.mouseout"/>
                        </use>
                        <path d="M-4,0h8M0,-4v8" fill="none" stroke="white" stroke-width="1.5" pointer-events="none"/>
                </g>
                <g id="zoomMin">
                        <use xlink:href="#rim" fill="#404040">
                                <set attributeName="fill" to="#808080" begin="zoomminus.mouseover" end="zoomminus.mouseout"/>
                        </use>
                        <path d="M-4,0h8" fill="none" stroke="white" stroke-width="1.5" pointer-events="none"/>
                </g>
                <g id="dirArrow">
                        <path fill="none" stroke="white" stroke-width="1.5" d="M0,-3.0v7 M-2.5,-0.5L0,-3.0L2.5,-0.5"/>
                </g>
               <g id="resetDef">
                       <use xlink:href="#rim2" fill="#404040">
                               <set attributeName="fill" to="#808080" begin="reset.mouseover" end="reset.mouseout"/>
                       </use>
               </g>
        </defs>

<script type="text/javascript">
var viewWidth = 1196;
var viewHeight = 692;
var sectionId = 'dynsection-9';
</script>
<script xlink:href="svgpan.js"/>
<svg id="graph" class="graph">
<g id="viewport">
<title>one_command_execve</title>
<!-- Node1 -->
<g id="node1" class="node">
<title>Node1</title>
<g id="a_node1"><a xlink:title="in this function we do the fork to create a child process we do the redirection if we need to">
<polygon fill="#bfbfbf" stroke="black" points="0,-494.5 0,-513.5 128,-513.5 128,-494.5 0,-494.5"/>
<text text-anchor="middle" x="64" y="-501.5" font-family="Helvetica,sans-Serif" font-size="10.00">one_command_execve</text>
</a>
</g>
</g>
<!-- Node2 -->
<g id="node2" class="node">
<title>Node2</title>
<g id="a_node2"><a xlink:href="redirection__multipipe_8c.html#a26c96266f1645047a9bdd9af22de94a7" target="_top" xlink:title=" ">
<polygon fill="none" stroke="black" points="848.5,-627.5 848.5,-646.5 956.5,-646.5 956.5,-627.5 848.5,-627.5"/>
<text text-anchor="middle" x="902.5" y="-634.5" font-family="Helvetica,sans-Serif" font-size="10.00">command_redirect</text>
</a>
</g>
</g>
<!-- Node1&#45;&gt;Node2 -->
<g id="edge1" class="edge">
<title>Node1&#45;&gt;Node2</title>
<path fill="none" stroke="midnightblue" d="M72.51,-513.74C87.62,-532.57 123.68,-573.87 164,-594 236.26,-630.07 261.74,-628 342.5,-628 342.5,-628 342.5,-628 611,-628 689.18,-628 779.15,-631.3 837.99,-633.9"/>
<polygon fill="midnightblue" stroke="midnightblue" points="838.09,-637.41 848.24,-634.36 838.41,-630.42 838.09,-637.41"/>
</g>
<!-- Node4 -->
<g id="node4" class="node">
<title>Node4</title>
<g id="a_node4"><a xlink:href="redirection__multipipe_8c.html#a1bca6910c90a19d96b36506a2e2cebf6" target="_top" xlink:title="as fd are all setup to &#45;1 at the beginning we check if they are open before trying to close we avoid ...">
<polygon fill="none" stroke="black" points="1119,-589.5 1119,-608.5 1188,-608.5 1188,-589.5 1119,-589.5"/>
<text text-anchor="middle" x="1153.5" y="-596.5" font-family="Helvetica,sans-Serif" font-size="10.00">ft_close_fd</text>
</a>
</g>
</g>
<!-- Node1&#45;&gt;Node4 -->
<g id="edge53" class="edge">
<title>Node1&#45;&gt;Node4</title>
<path fill="none" stroke="midnightblue" d="M85.36,-513.63C130.55,-534.08 243.1,-580 342.5,-580 342.5,-580 342.5,-580 903.5,-580 975.55,-580 1058.98,-588.01 1108.66,-593.62"/>
<polygon fill="midnightblue" stroke="midnightblue" points="1108.4,-597.12 1118.73,-594.78 1109.2,-590.16 1108.4,-597.12"/>
</g>
<!-- Node6 -->
<g id="node6" class="node">
<title>Node6</title>
<g id="a_node6"><a xlink:href="lst__cmd2_8c.html#a132395876bb5a7cfe926b9e37571a1e3" target="_top" xlink:title=" ">
<polygon fill="none" stroke="black" points="564,-494.5 564,-513.5 656,-513.5 656,-494.5 564,-494.5"/>
<text text-anchor="middle" x="610" y="-501.5" font-family="Helvetica,sans-Serif" font-size="10.00">destructor_cmd</text>
</a>
</g>
</g>
<!-- Node1&#45;&gt;Node6 -->
<g id="edge7" class="edge">
<title>Node1&#45;&gt;Node6</title>
<path fill="none" stroke="midnightblue" d="M122.44,-513.51C136.03,-515.38 150.49,-517.05 164,-518 304.08,-527.86 469.45,-516.67 553.67,-509.35"/>
<polygon fill="midnightblue" stroke="midnightblue" points="554.12,-512.82 563.78,-508.45 553.51,-505.85 554.12,-512.82"/>
</g>
<!-- Node10 -->
<g id="node10" class="node">
<title>Node10</title>
<g id="a_node10"><a xlink:href="lst__env_8c.html#a226ae0aa054e697998b2ecbc5d61d592" target="_top" xlink:title=" ">
<polygon fill="none" stroke="black" points="565.5,-380.5 565.5,-399.5 654.5,-399.5 654.5,-380.5 565.5,-380.5"/>
<text text-anchor="middle" x="610" y="-387.5" font-family="Helvetica,sans-Serif" font-size="10.00">destructor_env</text>
</a>
</g>
</g>
<!-- Node1&#45;&gt;Node10 -->
<g id="edge13" class="edge">
<title>Node1&#45;&gt;Node10</title>
<path fill="none" stroke="midnightblue" d="M128.32,-504.66C217.94,-503.7 385.73,-494.85 519,-447 545.39,-437.53 572.08,-419.29 589.46,-405.99"/>
<polygon fill="midnightblue" stroke="midnightblue" points="591.95,-408.48 597.66,-399.55 587.63,-402.98 591.95,-408.48"/>
</g>
<!-- Node12 -->
<g id="node12" class="node">
<title>Node12</title>
<g id="a_node12"><a xlink:href="execution__node_8c.html#adda76b40c34c18ec83b1d98700083f8a" target="_top" xlink:title="we are going to execute the command here we have a security about absolute path given =&gt; because it&#39;s...">
<polygon fill="none" stroke="black" points="164,-380.5 164,-399.5 257,-399.5 257,-380.5 164,-380.5"/>
<text text-anchor="middle" x="210.5" y="-387.5" font-family="Helvetica,sans-Serif" font-size="10.00">execution_node</text>
</a>
</g>
</g>
<!-- Node1&#45;&gt;Node12 -->
<g id="edge15" class="edge">
<title>Node1&#45;&gt;Node12</title>
<path fill="none" stroke="midnightblue" d="M77.32,-494.28C102.17,-474.68 158.51,-430.23 188.99,-406.18"/>
<polygon fill="midnightblue" stroke="midnightblue" points="191.53,-408.64 197.21,-399.69 187.19,-403.14 191.53,-408.64"/>
</g>
<!-- Node41 -->
<g id="node41" class="node">
<title>Node41</title>
<g id="a_node41"><a xlink:href="signals_8c.html#aa06f925baa9a6f549b31de64d4faac32" target="_top" xlink:title="allow us to don&#39;t create issue when a child process with readline">
<polygon fill="none" stroke="black" points="164.5,-342.5 164.5,-361.5 256.5,-361.5 256.5,-342.5 164.5,-342.5"/>
<text text-anchor="middle" x="210.5" y="-349.5" font-family="Helvetica,sans-Serif" font-size="10.00">sigint_handler2</text>
</a>
</g>
</g>
<!-- Node1&#45;&gt;Node41 -->
<g id="edge54" class="edge">
<title>Node1&#45;&gt;Node41</title>
<path fill="none" stroke="midnightblue" d="M69.87,-494.24C82.34,-470.14 117.73,-407.15 164,-371 166.07,-369.39 168.29,-367.89 170.6,-366.5"/>
<polygon fill="midnightblue" stroke="midnightblue" points="172.58,-369.41 179.82,-361.67 169.34,-363.21 172.58,-369.41"/>
</g>
<!-- Node42 -->
<g id="node42" class="node">
<title>Node42</title>
<g id="a_node42"><a xlink:href="signals_8c.html#a368a774e2b304a3de55f58168563967d" target="_top" xlink:title=" ">
<polygon fill="none" stroke="black" points="164.5,-304.5 164.5,-323.5 256.5,-323.5 256.5,-304.5 164.5,-304.5"/>
<text text-anchor="middle" x="210.5" y="-311.5" font-family="Helvetica,sans-Serif" font-size="10.00">sigquit_handler</text>
</a>
</g>
</g>
<!-- Node1&#45;&gt;Node42 -->
<g id="edge55" class="edge">
<title>Node1&#45;&gt;Node42</title>
<path fill="none" stroke="midnightblue" d="M68.06,-494.43C77.63,-465.96 109.62,-380.77 164,-333 165.72,-331.49 167.59,-330.08 169.54,-328.78"/>
<polygon fill="midnightblue" stroke="midnightblue" points="171.54,-331.67 178.53,-323.7 168.1,-325.57 171.54,-331.67"/>
</g>
<!-- Node3 -->
<g id="node3" class="node">
<title>Node3</title>
<g id="a_node3"><a xlink:href="redirection__multipipe_8c.html#a3a0d7f695cf53df46301e14ffab77638" target="_top" xlink:title=" ">
<polygon fill="none" stroke="black" points="994,-608.5 994,-627.5 1083,-627.5 1083,-608.5 994,-608.5"/>
<text text-anchor="middle" x="1038.5" y="-615.5" font-family="Helvetica,sans-Serif" font-size="10.00">close_previous</text>
</a>
</g>
</g>
<!-- Node2&#45;&gt;Node3 -->
<g id="edge2" class="edge">
<title>Node2&#45;&gt;Node3</title>
<path fill="none" stroke="midnightblue" d="M956.85,-629.44C965.66,-628.19 974.8,-626.89 983.63,-625.64"/>
<polygon fill="midnightblue" stroke="midnightblue" points="984.39,-629.07 993.8,-624.2 983.41,-622.13 984.39,-629.07"/>
</g>
<!-- Node2&#45;&gt;Node4 -->
<g id="edge6" class="edge">
<title>Node2&#45;&gt;Node4</title>
<path fill="none" stroke="midnightblue" d="M919.54,-646.71C951.76,-664.89 1026.16,-700.05 1083,-675 1109.61,-663.27 1130.46,-635.77 1142.13,-617.27"/>
<polygon fill="midnightblue" stroke="midnightblue" points="1145.22,-618.92 1147.38,-608.55 1139.22,-615.31 1145.22,-618.92"/>
</g>
<!-- Node5 -->
<g id="node5" class="node">
<title>Node5</title>
<g id="a_node5"><a xlink:href="redirection__multipipe_8c.html#a5b749bc2b4088984c0efe1c479ae6ec8" target="_top" xlink:title=" ">
<polygon fill="none" stroke="black" points="998.5,-646.5 998.5,-665.5 1078.5,-665.5 1078.5,-646.5 998.5,-646.5"/>
<text text-anchor="middle" x="1038.5" y="-653.5" font-family="Helvetica,sans-Serif" font-size="10.00">fail_previous</text>
</a>
</g>
</g>
<!-- Node2&#45;&gt;Node5 -->
<g id="edge4" class="edge">
<title>Node2&#45;&gt;Node5</title>
<path fill="none" stroke="midnightblue" d="M956.85,-644.56C967.25,-646.04 978.1,-647.58 988.36,-649.03"/>
<polygon fill="midnightblue" stroke="midnightblue" points="987.98,-652.51 998.38,-650.45 988.97,-645.58 987.98,-652.51"/>
</g>
<!-- Node3&#45;&gt;Node4 -->
<g id="edge3" class="edge">
<title>Node3&#45;&gt;Node4</title>
<path fill="none" stroke="midnightblue" d="M1083.19,-610.65C1091.58,-609.24 1100.36,-607.77 1108.76,-606.36"/>
<polygon fill="midnightblue" stroke="midnightblue" points="1109.46,-609.79 1118.74,-604.68 1108.3,-602.88 1109.46,-609.79"/>
</g>
<!-- Node5&#45;&gt;Node4 -->
<g id="edge5" class="edge">
<title>Node5&#45;&gt;Node4</title>
<path fill="none" stroke="midnightblue" d="M1062.7,-646.32C1069.31,-643.44 1076.49,-640.19 1083,-637 1097.8,-629.74 1113.98,-620.94 1127.01,-613.64"/>
<polygon fill="midnightblue" stroke="midnightblue" points="1128.88,-616.6 1135.87,-608.64 1125.44,-610.51 1128.88,-616.6"/>
</g>
<!-- Node7 -->
<g id="node7" class="node">
<title>Node7</title>
<g id="a_node7"><a xlink:href="lst__cmd2_8c.html#a8e2b63759f149b547e0d07f210ede9b3" target="_top" xlink:title=" ">
<polygon fill="none" stroke="black" points="725.5,-494.5 725.5,-513.5 786.5,-513.5 786.5,-494.5 725.5,-494.5"/>
<text text-anchor="middle" x="756" y="-501.5" font-family="Helvetica,sans-Serif" font-size="10.00">pop_cmd</text>
</a>
</g>
</g>
<!-- Node6&#45;&gt;Node7 -->
<g id="edge8" class="edge">
<title>Node6&#45;&gt;Node7</title>
<path fill="none" stroke="midnightblue" d="M656.17,-504C675.15,-504 697.03,-504 715.37,-504"/>
<polygon fill="midnightblue" stroke="midnightblue" points="715.44,-507.5 725.44,-504 715.44,-500.5 715.44,-507.5"/>
</g>
<!-- Node7&#45;&gt;Node4 -->
<g id="edge12" class="edge">
<title>Node7&#45;&gt;Node4</title>
<path fill="none" stroke="midnightblue" d="M786.55,-510.45C804.09,-514.23 826.79,-519.03 847,-523 951.61,-543.57 981.52,-533.3 1083,-566 1097.89,-570.8 1113.71,-578.12 1126.48,-584.64"/>
<polygon fill="midnightblue" stroke="midnightblue" points="1125.11,-587.88 1135.59,-589.42 1128.37,-581.68 1125.11,-587.88"/>
</g>
<!-- Node8 -->
<g id="node8" class="node">
<title>Node8</title>
<g id="a_node8"><a xlink:href="lst__redir2_8c.html#a30ccaf401a4f897e48ead5fe54f4b307" target="_top" xlink:title=" ">
<polygon fill="none" stroke="black" points="855.5,-494.5 855.5,-513.5 949.5,-513.5 949.5,-494.5 855.5,-494.5"/>
<text text-anchor="middle" x="902.5" y="-501.5" font-family="Helvetica,sans-Serif" font-size="10.00">destructor_redir</text>
</a>
</g>
</g>
<!-- Node7&#45;&gt;Node8 -->
<g id="edge9" class="edge">
<title>Node7&#45;&gt;Node8</title>
<path fill="none" stroke="midnightblue" d="M786.59,-504C803.47,-504 825.18,-504 845.18,-504"/>
<polygon fill="midnightblue" stroke="midnightblue" points="845.44,-507.5 855.44,-504 845.44,-500.5 845.44,-507.5"/>
</g>
<!-- Node9 -->
<g id="node9" class="node">
<title>Node9</title>
<g id="a_node9"><a xlink:href="lst__redir2_8c.html#ade8f0bdda51d9bf348ebeb38fefba881" target="_top" xlink:title=" ">
<polygon fill="none" stroke="black" points="1007.5,-494.5 1007.5,-513.5 1069.5,-513.5 1069.5,-494.5 1007.5,-494.5"/>
<text text-anchor="middle" x="1038.5" y="-501.5" font-family="Helvetica,sans-Serif" font-size="10.00">pop_redir</text>
</a>
</g>
</g>
<!-- Node8&#45;&gt;Node9 -->
<g id="edge10" class="edge">
<title>Node8&#45;&gt;Node9</title>
<path fill="none" stroke="midnightblue" d="M949.62,-504C965.12,-504 982.27,-504 997.28,-504"/>
<polygon fill="midnightblue" stroke="midnightblue" points="997.29,-507.5 1007.29,-504 997.29,-500.5 997.29,-507.5"/>
</g>
<!-- Node9&#45;&gt;Node4 -->
<g id="edge11" class="edge">
<title>Node9&#45;&gt;Node4</title>
<path fill="none" stroke="midnightblue" d="M1059.74,-513.59C1067.34,-517.59 1075.86,-522.57 1083,-528 1104.08,-544.03 1124.88,-566.38 1138.15,-581.69"/>
<polygon fill="midnightblue" stroke="midnightblue" points="1135.55,-584.05 1144.7,-589.4 1140.89,-579.51 1135.55,-584.05"/>
</g>
<!-- Node11 -->
<g id="node11" class="node">
<title>Node11</title>
<g id="a_node11"><a xlink:href="lst__env_8c.html#a058c245b5f2ef22f9d2659f90e4d3537" target="_top" xlink:title=" ">
<polygon fill="none" stroke="black" points="727,-380.5 727,-399.5 785,-399.5 785,-380.5 727,-380.5"/>
<text text-anchor="middle" x="756" y="-387.5" font-family="Helvetica,sans-Serif" font-size="10.00">pop_env</text>
</a>
</g>
</g>
<!-- Node10&#45;&gt;Node11 -->
<g id="edge14" class="edge">
<title>Node10&#45;&gt;Node11</title>
<path fill="none" stroke="midnightblue" d="M654.6,-390C674.43,-390 697.69,-390 716.83,-390"/>
<polygon fill="midnightblue" stroke="midnightblue" points="716.99,-393.5 726.99,-390 716.99,-386.5 716.99,-393.5"/>
</g>
<!-- Node12&#45;&gt;Node6 -->
<g id="edge18" class="edge">
<title>Node12&#45;&gt;Node6</title>
<path fill="none" stroke="midnightblue" d="M222.18,-399.8C236.94,-412.76 264.94,-435.32 293,-447 379.71,-483.09 489.17,-496.36 553.86,-501.22"/>
<polygon fill="midnightblue" stroke="midnightblue" points="553.63,-504.72 563.85,-501.93 554.13,-497.73 553.63,-504.72"/>
</g>
<!-- Node12&#45;&gt;Node10 -->
<g id="edge19" class="edge">
<title>Node12&#45;&gt;Node10</title>
<path fill="none" stroke="midnightblue" d="M257.1,-390C330.97,-390 476.46,-390 555.25,-390"/>
<polygon fill="midnightblue" stroke="midnightblue" points="555.45,-393.5 565.45,-390 555.45,-386.5 555.45,-393.5"/>
</g>
<!-- Node13 -->
<g id="node13" class="node">
<title>Node13</title>
<g id="a_node13"><a xlink:href="execution__node_8c.html#a74f4c34ebdc38c1fb50db2aa13f97b66" target="_top" xlink:title=" ">
<polygon fill="none" stroke="black" points="293,-304.5 293,-323.5 394,-323.5 394,-304.5 293,-304.5"/>
<text text-anchor="middle" x="343.5" y="-311.5" font-family="Helvetica,sans-Serif" font-size="10.00">check_accessible</text>
</a>
</g>
</g>
<!-- Node12&#45;&gt;Node13 -->
<g id="edge16" class="edge">
<title>Node12&#45;&gt;Node13</title>
<path fill="none" stroke="midnightblue" d="M239.89,-380.3C245.78,-377.7 251.79,-374.6 257,-371 276.15,-357.79 273.66,-345.93 293,-333 295.88,-331.07 298.98,-329.3 302.18,-327.68"/>
<polygon fill="midnightblue" stroke="midnightblue" points="303.69,-330.84 311.34,-323.52 300.79,-324.47 303.69,-330.84"/>
</g>
<!-- Node14 -->
<g id="node14" class="node">
<title>Node14</title>
<g id="a_node14"><a xlink:href="execution__node_8c.html#adc2c91230d4a0a1a1f98db2a888afcaa" target="_top" xlink:title="error message management for the specific case of execution">
<polygon fill="none" stroke="black" points="430,-304.5 430,-323.5 519,-323.5 519,-304.5 430,-304.5"/>
<text text-anchor="middle" x="474.5" y="-311.5" font-family="Helvetica,sans-Serif" font-size="10.00">message_error</text>
</a>
</g>
</g>
<!-- Node12&#45;&gt;Node14 -->
<g id="edge49" class="edge">
<title>Node12&#45;&gt;Node14</title>
<path fill="none" stroke="midnightblue" d="M244.58,-380.31C249.19,-377.85 253.53,-374.79 257,-371 292.85,-331.78 250.14,-288.41 293,-257 329.21,-230.46 352.76,-239.26 394,-257 415.37,-266.19 410.96,-281.63 430,-295 432.4,-296.69 434.98,-298.27 437.63,-299.75"/>
<polygon fill="midnightblue" stroke="midnightblue" points="436.32,-303.01 446.83,-304.37 439.46,-296.75 436.32,-303.01"/>
</g>
<!-- Node15 -->
<g id="node15" class="node">
<title>Node15</title>
<g id="a_node15"><a xlink:href="execution_8c.html#a3acc0bb56da881cc8609ca9e94ec8e93" target="_top" xlink:title="detect if it&#39;s a builtin with strncmp() but the real question is &quot;is it a builtin I have &#160;to launch i...">
<polygon fill="none" stroke="black" points="307,-266.5 307,-285.5 380,-285.5 380,-266.5 307,-266.5"/>
<text text-anchor="middle" x="343.5" y="-273.5" font-family="Helvetica,sans-Serif" font-size="10.00">is_it_builtin</text>
</a>
</g>
</g>
<!-- Node12&#45;&gt;Node15 -->
<g id="edge20" class="edge">
<title>Node12&#45;&gt;Node15</title>
<path fill="none" stroke="midnightblue" d="M243.2,-380.35C248.21,-377.86 253.04,-374.78 257,-371 284.04,-345.2 265.59,-320.41 293,-295 294.7,-293.42 296.55,-291.97 298.49,-290.64"/>
<polygon fill="midnightblue" stroke="midnightblue" points="300.55,-293.5 307.52,-285.51 297.09,-287.41 300.55,-293.5"/>
</g>
<!-- Node16 -->
<g id="node16" class="node">
<title>Node16</title>
<g id="a_node16"><a xlink:href="execution_8c.html#a7bee4f6fbfd70ef7ec1f52856538ac71" target="_top" xlink:title="launch the builtin &#160;&#160;some of them are not present because we have to fork() them why ?...">
<polygon fill="none" stroke="black" points="301,-133.5 301,-152.5 386,-152.5 386,-133.5 301,-133.5"/>
<text text-anchor="middle" x="343.5" y="-140.5" font-family="Helvetica,sans-Serif" font-size="10.00">launch_builtin</text>
</a>
</g>
</g>
<!-- Node12&#45;&gt;Node16 -->
<g id="edge21" class="edge">
<title>Node12&#45;&gt;Node16</title>
<path fill="none" stroke="midnightblue" d="M245.26,-380.25C249.67,-377.81 253.77,-374.77 257,-371 300.73,-319.89 267.16,-286.1 293,-224 302.53,-201.11 317.96,-177.14 329.06,-161.27"/>
<polygon fill="midnightblue" stroke="midnightblue" points="332.05,-163.11 335.02,-152.94 326.35,-159.04 332.05,-163.11"/>
</g>
<!-- Node37 -->
<g id="node37" class="node">
<title>Node37</title>
<g id="a_node37"><a xlink:href="lst__env__two_8c.html#aafcce0b2f2958645e84ae23b14116680" target="_top" xlink:title=" ">
<polygon fill="none" stroke="black" points="299.5,-418.5 299.5,-437.5 387.5,-437.5 387.5,-418.5 299.5,-418.5"/>
<text text-anchor="middle" x="343.5" y="-425.5" font-family="Helvetica,sans-Serif" font-size="10.00">lst_to_tab_env</text>
</a>
</g>
</g>
<!-- Node12&#45;&gt;Node37 -->
<g id="edge46" class="edge">
<title>Node12&#45;&gt;Node37</title>
<path fill="none" stroke="midnightblue" d="M244.56,-399.59C261.31,-404.45 281.86,-410.41 299.8,-415.61"/>
<polygon fill="midnightblue" stroke="midnightblue" points="298.87,-418.99 309.45,-418.41 300.82,-412.27 298.87,-418.99"/>
</g>
<!-- Node40 -->
<g id="node40" class="node">
<title>Node40</title>
<g id="a_node40"><a xlink:href="getenv_8c.html#a5d0cf05c2622983111dcfc0f179c5739" target="_top" xlink:title=" ">
<polygon fill="none" stroke="black" points="305.5,-342.5 305.5,-361.5 381.5,-361.5 381.5,-342.5 305.5,-342.5"/>
<text text-anchor="middle" x="343.5" y="-349.5" font-family="Helvetica,sans-Serif" font-size="10.00">search_path</text>
</a>
</g>
</g>
<!-- Node12&#45;&gt;Node40 -->
<g id="edge50" class="edge">
<title>Node12&#45;&gt;Node40</title>
<path fill="none" stroke="midnightblue" d="M244.56,-380.41C261.31,-375.55 281.86,-369.59 299.8,-364.39"/>
<polygon fill="midnightblue" stroke="midnightblue" points="300.82,-367.73 309.45,-361.59 298.87,-361.01 300.82,-367.73"/>
</g>
<!-- Node13&#45;&gt;Node14 -->
<g id="edge17" class="edge">
<title>Node13&#45;&gt;Node14</title>
<path fill="none" stroke="midnightblue" d="M394.01,-314C402.39,-314 411.13,-314 419.62,-314"/>
<polygon fill="midnightblue" stroke="midnightblue" points="419.82,-317.5 429.82,-314 419.82,-310.5 419.82,-317.5"/>
</g>
<!-- Node17 -->
<g id="node17" class="node">
<title>Node17</title>
<g id="a_node17"><a xlink:href="cd_8c.html#afa3cf8a1d55856208b8d44453d4cf9b4" target="_top" xlink:title=" ">
<polygon fill="none" stroke="black" points="460,-114.5 460,-133.5 489,-133.5 489,-114.5 460,-114.5"/>
<text text-anchor="middle" x="474.5" y="-121.5" font-family="Helvetica,sans-Serif" font-size="10.00">cd</text>
</a>
</g>
</g>
<!-- Node16&#45;&gt;Node17 -->
<g id="edge22" class="edge">
<title>Node16&#45;&gt;Node17</title>
<path fill="none" stroke="midnightblue" d="M386.03,-136.88C407.13,-133.78 432.01,-130.11 449.83,-127.49"/>
<polygon fill="midnightblue" stroke="midnightblue" points="450.53,-130.92 459.91,-126 449.51,-124 450.53,-130.92"/>
</g>
<!-- Node22 -->
<g id="node22" class="node">
<title>Node22</title>
<g id="a_node22"><a xlink:href="env_8c.html#a08aa1a32a4d2f6bcca10f6424195d4ef" target="_top" xlink:title=" ">
<polygon fill="none" stroke="black" points="457,-152.5 457,-171.5 492,-171.5 492,-152.5 457,-152.5"/>
<text text-anchor="middle" x="474.5" y="-159.5" font-family="Helvetica,sans-Serif" font-size="10.00">env</text>
</a>
</g>
</g>
<!-- Node16&#45;&gt;Node22 -->
<g id="edge27" class="edge">
<title>Node16&#45;&gt;Node22</title>
<path fill="none" stroke="midnightblue" d="M386.03,-149.12C405.91,-152.04 429.15,-155.47 446.67,-158.05"/>
<polygon fill="midnightblue" stroke="midnightblue" points="446.36,-161.54 456.76,-159.53 447.38,-154.61 446.36,-161.54"/>
</g>
<!-- Node23 -->
<g id="node23" class="node">
<title>Node23</title>
<g id="a_node23"><a xlink:href="export_8c.html#a1bb2544b6254ee4ddb592a4cfa61734f" target="_top" xlink:title=" ">
<polygon fill="none" stroke="black" points="439,-38.5 439,-57.5 510,-57.5 510,-38.5 439,-38.5"/>
<text text-anchor="middle" x="474.5" y="-45.5" font-family="Helvetica,sans-Serif" font-size="10.00">export_call</text>
</a>
</g>
</g>
<!-- Node16&#45;&gt;Node23 -->
<g id="edge28" class="edge">
<title>Node16&#45;&gt;Node23</title>
<path fill="none" stroke="midnightblue" d="M353.68,-133.02C368.52,-117.34 399.22,-86.7 430,-67 432.78,-65.22 435.75,-63.54 438.78,-61.96"/>
<polygon fill="midnightblue" stroke="midnightblue" points="440.46,-65.04 447.96,-57.55 437.43,-58.72 440.46,-65.04"/>
</g>
<!-- Node30 -->
<g id="node30" class="node">
<title>Node30</title>
<g id="a_node30"><a xlink:href="my__echo_8c.html#a5522916069f77552d810e207670e3170" target="_top" xlink:title=" ">
<polygon fill="none" stroke="black" points="444,-0.5 444,-19.5 505,-19.5 505,-0.5 444,-0.5"/>
<text text-anchor="middle" x="474.5" y="-7.5" font-family="Helvetica,sans-Serif" font-size="10.00">my_echo</text>
</a>
</g>
</g>
<!-- Node16&#45;&gt;Node30 -->
<g id="edge36" class="edge">
<title>Node16&#45;&gt;Node30</title>
<path fill="none" stroke="midnightblue" d="M349.41,-133.43C360.84,-112.02 391.2,-59.71 430,-29 432.04,-27.39 434.23,-25.89 436.51,-24.49"/>
<polygon fill="midnightblue" stroke="midnightblue" points="438.43,-27.43 445.6,-19.63 435.13,-21.26 438.43,-27.43"/>
</g>
<!-- Node32 -->
<g id="node32" class="node">
<title>Node32</title>
<g id="a_node32"><a xlink:href="exit_8c.html#adcbec3416f97b2d0b8d53cf4c2b2a436" target="_top" xlink:title=" ">
<polygon fill="none" stroke="black" points="446.5,-266.5 446.5,-285.5 502.5,-285.5 502.5,-266.5 446.5,-266.5"/>
<text text-anchor="middle" x="474.5" y="-273.5" font-family="Helvetica,sans-Serif" font-size="10.00">my_exit</text>
</a>
</g>
</g>
<!-- Node16&#45;&gt;Node32 -->
<g id="edge38" class="edge">
<title>Node16&#45;&gt;Node32</title>
<path fill="none" stroke="midnightblue" d="M353.78,-152.57C375.43,-174.89 429.53,-230.66 456.97,-258.96"/>
<polygon fill="midnightblue" stroke="midnightblue" points="454.48,-261.42 463.96,-266.16 459.51,-256.55 454.48,-261.42"/>
</g>
<!-- Node34 -->
<g id="node34" class="node">
<title>Node34</title>
<g id="a_node34"><a xlink:href="pwd_8c.html#ac6977235be2514ba716ef89aad796063" target="_top" xlink:title=" ">
<polygon fill="none" stroke="black" points="456,-190.5 456,-209.5 493,-209.5 493,-190.5 456,-190.5"/>
<text text-anchor="middle" x="474.5" y="-197.5" font-family="Helvetica,sans-Serif" font-size="10.00">pwd</text>
</a>
</g>
</g>
<!-- Node16&#45;&gt;Node34 -->
<g id="edge43" class="edge">
<title>Node16&#45;&gt;Node34</title>
<path fill="none" stroke="midnightblue" d="M365.92,-152.56C383.2,-160.27 408.15,-171.37 430,-181 435.28,-183.33 440.92,-185.8 446.34,-188.17"/>
<polygon fill="midnightblue" stroke="midnightblue" points="445.15,-191.47 455.71,-192.26 447.95,-185.05 445.15,-191.47"/>
</g>
<!-- Node35 -->
<g id="node35" class="node">
<title>Node35</title>
<g id="a_node35"><a xlink:href="unset_8c.html#abcfd4d5a4f0408bdc748ce044e5ce08c" target="_top" xlink:title=" ">
<polygon fill="none" stroke="black" points="441.5,-76.5 441.5,-95.5 507.5,-95.5 507.5,-76.5 441.5,-76.5"/>
<text text-anchor="middle" x="474.5" y="-83.5" font-family="Helvetica,sans-Serif" font-size="10.00">unset_call</text>
</a>
</g>
</g>
<!-- Node16&#45;&gt;Node35 -->
<g id="edge44" class="edge">
<title>Node16&#45;&gt;Node35</title>
<path fill="none" stroke="midnightblue" d="M365.92,-133.44C383.2,-125.73 408.15,-114.63 430,-105 433.9,-103.28 438.01,-101.48 442.07,-99.7"/>
<polygon fill="midnightblue" stroke="midnightblue" points="443.6,-102.85 451.36,-95.64 440.79,-96.44 443.6,-102.85"/>
</g>
<!-- Node18 -->
<g id="node18" class="node">
<title>Node18</title>
<g id="a_node18"><a xlink:href="cd_8c.html#a7593627e795ae769b5117673b60846c9" target="_top" xlink:title=" ">
<polygon fill="none" stroke="black" points="594,-209.5 594,-228.5 626,-228.5 626,-209.5 594,-209.5"/>
<text text-anchor="middle" x="610" y="-216.5" font-family="Helvetica,sans-Serif" font-size="10.00">len</text>
</a>
</g>
</g>
<!-- Node17&#45;&gt;Node18 -->
<g id="edge23" class="edge">
<title>Node17&#45;&gt;Node18</title>
<path fill="none" stroke="midnightblue" d="M489.02,-127.89C498.14,-130.97 510.08,-135.94 519,-143 539.91,-159.55 534.65,-173.76 555,-191 563.7,-198.37 574.67,-204.51 584.45,-209.14"/>
<polygon fill="midnightblue" stroke="midnightblue" points="583.14,-212.39 593.7,-213.26 585.99,-205.99 583.14,-212.39"/>
</g>
<!-- Node19 -->
<g id="node19" class="node">
<title>Node19</title>
<g id="a_node19"><a xlink:href="lst__env__two_8c.html#a4d4a14327b2c3ff88099102b6bd77986" target="_top" xlink:title=" ">
<polygon fill="none" stroke="black" points="558,-162.5 558,-181.5 662,-181.5 662,-162.5 558,-162.5"/>
<text text-anchor="middle" x="610" y="-169.5" font-family="Helvetica,sans-Serif" font-size="10.00">research_key_env</text>
</a>
</g>
</g>
<!-- Node17&#45;&gt;Node19 -->
<g id="edge24" class="edge">
<title>Node17&#45;&gt;Node19</title>
<path fill="none" stroke="midnightblue" d="M489.28,-128.96C508.8,-135.97 545.19,-149.06 572.75,-158.97"/>
<polygon fill="midnightblue" stroke="midnightblue" points="571.86,-162.36 582.45,-162.45 574.23,-155.78 571.86,-162.36"/>
</g>
<!-- Node20 -->
<g id="node20" class="node">
<title>Node20</title>
<g id="a_node20"><a xlink:href="cd_8c.html#a68bb8beb2cf13bb992af8322f31f94e7" target="_top" xlink:title=" ">
<polygon fill="none" stroke="black" points="718,-114.5 718,-133.5 794,-133.5 794,-114.5 718,-114.5"/>
<text text-anchor="middle" x="756" y="-121.5" font-family="Helvetica,sans-Serif" font-size="10.00">update_pwd</text>
</a>
</g>
</g>
<!-- Node17&#45;&gt;Node20 -->
<g id="edge25" class="edge">
<title>Node17&#45;&gt;Node20</title>
<path fill="none" stroke="midnightblue" d="M489.36,-124C528.78,-124 642.86,-124 707.98,-124"/>
<polygon fill="midnightblue" stroke="midnightblue" points="708,-127.5 718,-124 708,-120.5 708,-127.5"/>
</g>
<!-- Node21 -->
<g id="node21" class="node">
<title>Node21</title>
<g id="a_node21"><a xlink:href="export_8c.html#a8cd6579fc3858072521e55ef235a2637" target="_top" xlink:title=" ">
<polygon fill="none" stroke="black" points="847,-104.5 847,-123.5 958,-123.5 958,-104.5 847,-104.5"/>
<text text-anchor="middle" x="902.5" y="-111.5" font-family="Helvetica,sans-Serif" font-size="10.00">research_node_env</text>
</a>
</g>
</g>
<!-- Node20&#45;&gt;Node21 -->
<g id="edge26" class="edge">
<title>Node20&#45;&gt;Node21</title>
<path fill="none" stroke="midnightblue" d="M794.21,-121.42C807.26,-120.52 822.31,-119.48 836.94,-118.47"/>
<polygon fill="midnightblue" stroke="midnightblue" points="837.24,-121.96 846.97,-117.77 836.76,-114.97 837.24,-121.96"/>
</g>
<!-- Node24 -->
<g id="node24" class="node">
<title>Node24</title>
<g id="a_node24"><a xlink:href="export_8c.html#a63ef72e778f2b52c924bf77ae989dc80" target="_top" xlink:title=" ">
<polygon fill="none" stroke="black" points="586,-38.5 586,-57.5 634,-57.5 634,-38.5 586,-38.5"/>
<text text-anchor="middle" x="610" y="-45.5" font-family="Helvetica,sans-Serif" font-size="10.00">export</text>
</a>
</g>
</g>
<!-- Node23&#45;&gt;Node24 -->
<g id="edge29" class="edge">
<title>Node23&#45;&gt;Node24</title>
<path fill="none" stroke="midnightblue" d="M510.23,-48C530.4,-48 555.68,-48 575.62,-48"/>
<polygon fill="midnightblue" stroke="midnightblue" points="575.79,-51.5 585.79,-48 575.79,-44.5 575.79,-51.5"/>
</g>
<!-- Node25 -->
<g id="node25" class="node">
<title>Node25</title>
<g id="a_node25"><a xlink:href="export_8c.html#a077edb8749298d8320620813ff84519c" target="_top" xlink:title=" ">
<polygon fill="none" stroke="black" points="701,-76.5 701,-95.5 811,-95.5 811,-76.5 701,-76.5"/>
<text text-anchor="middle" x="756" y="-83.5" font-family="Helvetica,sans-Serif" font-size="10.00">check_validity_key</text>
</a>
</g>
</g>
<!-- Node24&#45;&gt;Node25 -->
<g id="edge30" class="edge">
<title>Node24&#45;&gt;Node25</title>
<path fill="none" stroke="midnightblue" d="M634.14,-54.11C654.35,-59.44 684.29,-67.34 709.32,-73.94"/>
<polygon fill="midnightblue" stroke="midnightblue" points="708.43,-77.33 718.99,-76.5 710.21,-70.56 708.43,-77.33"/>
</g>
<!-- Node26 -->
<g id="node26" class="node">
<title>Node26</title>
<g id="a_node26"><a xlink:href="export_8c.html#a90ff129fee9412bd5c6d74be5970b99f" target="_top" xlink:title=" ">
<polygon fill="none" stroke="black" points="701,-38.5 701,-57.5 811,-57.5 811,-38.5 701,-38.5"/>
<text text-anchor="middle" x="756" y="-45.5" font-family="Helvetica,sans-Serif" font-size="10.00">export_env_update</text>
</a>
</g>
</g>
<!-- Node24&#45;&gt;Node26 -->
<g id="edge31" class="edge">
<title>Node24&#45;&gt;Node26</title>
<path fill="none" stroke="midnightblue" d="M634.14,-48C649.51,-48 670.5,-48 690.68,-48"/>
<polygon fill="midnightblue" stroke="midnightblue" points="690.81,-51.5 700.81,-48 690.81,-44.5 690.81,-51.5"/>
</g>
<!-- Node26&#45;&gt;Node21 -->
<g id="edge35" class="edge">
<title>Node26&#45;&gt;Node21</title>
<path fill="none" stroke="midnightblue" d="M786.73,-57.58C794.71,-60.39 803.26,-63.62 811,-67 827.58,-74.24 830.95,-77.64 847,-86 855.73,-90.55 865.27,-95.46 873.89,-99.89"/>
<polygon fill="midnightblue" stroke="midnightblue" points="872.31,-103.01 882.81,-104.46 875.51,-96.78 872.31,-103.01"/>
</g>
<!-- Node27 -->
<g id="node27" class="node">
<title>Node27</title>
<g id="a_node27"><a xlink:href="lst__env_8c.html#a9c375db3cbfe2e87b52bae7ee7472eae" target="_top" xlink:title=" ">
<polygon fill="none" stroke="black" points="852.5,-57.5 852.5,-76.5 952.5,-76.5 952.5,-57.5 852.5,-57.5"/>
<text text-anchor="middle" x="902.5" y="-64.5" font-family="Helvetica,sans-Serif" font-size="10.00">create_node_env</text>
</a>
</g>
</g>
<!-- Node26&#45;&gt;Node27 -->
<g id="edge32" class="edge">
<title>Node26&#45;&gt;Node27</title>
<path fill="none" stroke="midnightblue" d="M811.22,-55.13C821.31,-56.46 831.9,-57.85 842.14,-59.19"/>
<polygon fill="midnightblue" stroke="midnightblue" points="841.85,-62.69 852.22,-60.52 842.76,-55.75 841.85,-62.69"/>
</g>
<!-- Node28 -->
<g id="node28" class="node">
<title>Node28</title>
<g id="a_node28"><a xlink:href="lst__env_8c.html#a5976d1b2a8159220749fac94a83d5c95" target="_top" xlink:title=" ">
<polygon fill="none" stroke="black" points="856.5,-19.5 856.5,-38.5 948.5,-38.5 948.5,-19.5 856.5,-19.5"/>
<text text-anchor="middle" x="902.5" y="-26.5" font-family="Helvetica,sans-Serif" font-size="10.00">push_back_env</text>
</a>
</g>
</g>
<!-- Node26&#45;&gt;Node28 -->
<g id="edge33" class="edge">
<title>Node26&#45;&gt;Node28</title>
<path fill="none" stroke="midnightblue" d="M811.22,-40.87C822.74,-39.36 834.91,-37.76 846.46,-36.24"/>
<polygon fill="midnightblue" stroke="midnightblue" points="846.96,-39.7 856.42,-34.93 846.05,-32.76 846.96,-39.7"/>
</g>
<!-- Node29 -->
<g id="node29" class="node">
<title>Node29</title>
<g id="a_node29"><a xlink:href="env__utils_8c.html#ac7b3f84bb622bdf477616c5b0022f035" target="_top" xlink:title=" ">
<polygon fill="none" stroke="black" points="999,-19.5 999,-38.5 1078,-38.5 1078,-19.5 999,-19.5"/>
<text text-anchor="middle" x="1038.5" y="-26.5" font-family="Helvetica,sans-Serif" font-size="10.00">get_last_env</text>
</a>
</g>
</g>
<!-- Node28&#45;&gt;Node29 -->
<g id="edge34" class="edge">
<title>Node28&#45;&gt;Node29</title>
<path fill="none" stroke="midnightblue" d="M948.87,-29C961.69,-29 975.69,-29 988.71,-29"/>
<polygon fill="midnightblue" stroke="midnightblue" points="988.89,-32.5 998.89,-29 988.89,-25.5 988.89,-32.5"/>
</g>
<!-- Node31 -->
<g id="node31" class="node">
<title>Node31</title>
<g id="a_node31"><a xlink:href="my__echo_8c.html#a7c657de7306d33ae5cdab2bf43f35ae1" target="_top" xlink:title=" ">
<polygon fill="none" stroke="black" points="555,-0.5 555,-19.5 665,-19.5 665,-0.5 555,-0.5"/>
<text text-anchor="middle" x="610" y="-7.5" font-family="Helvetica,sans-Serif" font-size="10.00">check_option_echo</text>
</a>
</g>
</g>
<!-- Node30&#45;&gt;Node31 -->
<g id="edge37" class="edge">
<title>Node30&#45;&gt;Node31</title>
<path fill="none" stroke="midnightblue" d="M505.13,-10C516.87,-10 530.87,-10 544.72,-10"/>
<polygon fill="midnightblue" stroke="midnightblue" points="544.74,-13.5 554.74,-10 544.74,-6.5 544.74,-13.5"/>
</g>
<!-- Node32&#45;&gt;Node6 -->
<g id="edge40" class="edge">
<title>Node32&#45;&gt;Node6</title>
<path fill="none" stroke="midnightblue" d="M502.66,-283.64C508.69,-286.4 514.59,-290.1 519,-295 554.53,-334.51 533.75,-360.3 555,-409 567.14,-436.84 585.22,-467.01 597.06,-485.71"/>
<polygon fill="midnightblue" stroke="midnightblue" points="594.27,-487.85 602.61,-494.37 600.16,-484.07 594.27,-487.85"/>
</g>
<!-- Node32&#45;&gt;Node10 -->
<g id="edge41" class="edge">
<title>Node32&#45;&gt;Node10</title>
<path fill="none" stroke="midnightblue" d="M502.17,-285.63C507.96,-288.26 513.87,-291.4 519,-295 550.56,-317.16 579.84,-351.7 595.98,-372.46"/>
<polygon fill="midnightblue" stroke="midnightblue" points="593.22,-374.61 602.07,-380.44 598.79,-370.36 593.22,-374.61"/>
</g>
<!-- Node32&#45;&gt;Node18 -->
<g id="edge42" class="edge">
<title>Node32&#45;&gt;Node18</title>
<path fill="none" stroke="midnightblue" d="M497.84,-266.46C521.72,-256.26 559.47,-240.15 584.24,-229.57"/>
<polygon fill="midnightblue" stroke="midnightblue" points="585.84,-232.69 593.67,-225.55 583.1,-226.25 585.84,-232.69"/>
</g>
<!-- Node33 -->
<g id="node33" class="node">
<title>Node33</title>
<g id="a_node33"><a xlink:href="exit_8c.html#a7e369b4894a31549c9b65f718e28823f" target="_top" xlink:title=" ">
<polygon fill="none" stroke="black" points="575.5,-266.5 575.5,-285.5 644.5,-285.5 644.5,-266.5 575.5,-266.5"/>
<text text-anchor="middle" x="610" y="-273.5" font-family="Helvetica,sans-Serif" font-size="10.00">check_exit</text>
</a>
</g>
</g>
<!-- Node32&#45;&gt;Node33 -->
<g id="edge39" class="edge">
<title>Node32&#45;&gt;Node33</title>
<path fill="none" stroke="midnightblue" d="M502.52,-276C520.5,-276 544.55,-276 565.23,-276"/>
<polygon fill="midnightblue" stroke="midnightblue" points="565.39,-279.5 575.39,-276 565.39,-272.5 565.39,-279.5"/>
</g>
<!-- Node36 -->
<g id="node36" class="node">
<title>Node36</title>
<g id="a_node36"><a xlink:href="unset_8c.html#a4b3bbc6cfa6ff293119825a11324fb9f" target="_top" xlink:title=" ">
<polygon fill="none" stroke="black" points="588,-76.5 588,-95.5 632,-95.5 632,-76.5 588,-76.5"/>
<text text-anchor="middle" x="610" y="-83.5" font-family="Helvetica,sans-Serif" font-size="10.00">unset</text>
</a>
</g>
</g>
<!-- Node35&#45;&gt;Node36 -->
<g id="edge45" class="edge">
<title>Node35&#45;&gt;Node36</title>
<path fill="none" stroke="midnightblue" d="M507.82,-86C529.07,-86 556.75,-86 577.78,-86"/>
<polygon fill="midnightblue" stroke="midnightblue" points="577.81,-89.5 587.81,-86 577.81,-82.5 577.81,-89.5"/>
</g>
<!-- Node38 -->
<g id="node38" class="node">
<title>Node38</title>
<g id="a_node38"><a xlink:href="env__utils_8c.html#a7cc35c974bce053dbba1c1ec1028f36b" target="_top" xlink:title=" ">
<polygon fill="none" stroke="black" points="436,-418.5 436,-437.5 513,-437.5 513,-418.5 436,-418.5"/>
<text text-anchor="middle" x="474.5" y="-425.5" font-family="Helvetica,sans-Serif" font-size="10.00">env_lst_size</text>
</a>
</g>
</g>
<!-- Node37&#45;&gt;Node38 -->
<g id="edge47" class="edge">
<title>Node37&#45;&gt;Node38</title>
<path fill="none" stroke="midnightblue" d="M387.81,-428C399.94,-428 413.18,-428 425.56,-428"/>
<polygon fill="midnightblue" stroke="midnightblue" points="425.7,-431.5 435.7,-428 425.7,-424.5 425.7,-431.5"/>
</g>
<!-- Node39 -->
<g id="node39" class="node">
<title>Node39</title>
<g id="a_node39"><a xlink:href="getenv_8c.html#a0250cce1862c20e31d0c0ece960bc3a0" target="_top" xlink:title=" ">
<polygon fill="none" stroke="black" points="443.5,-342.5 443.5,-361.5 505.5,-361.5 505.5,-342.5 443.5,-342.5"/>
<text text-anchor="middle" x="474.5" y="-349.5" font-family="Helvetica,sans-Serif" font-size="10.00">join_path</text>
</a>
</g>
</g>
<!-- Node37&#45;&gt;Node39 -->
<g id="edge48" class="edge">
<title>Node37&#45;&gt;Node39</title>
<path fill="none" stroke="midnightblue" d="M360.84,-418.37C382.94,-405.35 422.56,-382.01 448.44,-366.76"/>
<polygon fill="midnightblue" stroke="midnightblue" points="450.46,-369.64 457.29,-361.55 446.9,-363.61 450.46,-369.64"/>
</g>
<!-- Node40&#45;&gt;Node19 -->
<g id="edge52" class="edge">
<title>Node40&#45;&gt;Node19</title>
<path fill="none" stroke="midnightblue" d="M379.48,-342.49C384.75,-339.99 389.81,-336.88 394,-333 421.41,-307.59 403.06,-282.91 430,-257 461,-227.18 480.17,-237.5 519,-219 535.33,-211.22 538.97,-208.39 555,-200 563.57,-195.52 572.91,-190.66 581.38,-186.27"/>
<polygon fill="midnightblue" stroke="midnightblue" points="583.22,-189.26 590.49,-181.56 580,-183.05 583.22,-189.26"/>
</g>
<!-- Node40&#45;&gt;Node39 -->
<g id="edge51" class="edge">
<title>Node40&#45;&gt;Node39</title>
<path fill="none" stroke="midnightblue" d="M381.81,-352C397.8,-352 416.53,-352 432.87,-352"/>
<polygon fill="midnightblue" stroke="midnightblue" points="433.21,-355.5 443.21,-352 433.21,-348.5 433.21,-355.5"/>
</g>
</g>
</svg>
        <g id="navigator" transform="translate(0 0)" fill="#404254">
                <rect fill="#f2f5e9" fill-opacity="0.5" stroke="#606060" stroke-width=".5" x="0" y="0" width="60" height="60"/>
                <use id="zoomplus" xlink:href="#zoomPlus" x="17" y="9" onmousedown="handleZoom(evt,'in')"/>
                <use id="zoomminus" xlink:href="#zoomMin" x="42" y="9" onmousedown="handleZoom(evt,'out')"/>
                <use id="reset" xlink:href="#resetDef" x="30" y="36" onmousedown="handleReset()"/>
                <g id="arrowUp" xlink:href="#dirArrow" transform="translate(30 24)" onmousedown="handlePan(0,-1)">
                  <use xlink:href="#rim" fill="#404040">
                        <set attributeName="fill" to="#808080" begin="arrowUp.mouseover" end="arrowUp.mouseout"/>
                  </use>
                  <path fill="none" stroke="white" stroke-width="1.5" d="M0,-3.0v7 M-2.5,-0.5L0,-3.0L2.5,-0.5"/>
                </g>
                <g id="arrowRight" xlink:href="#dirArrow" transform="rotate(90) translate(36 -43)" onmousedown="handlePan(1,0)">
                  <use xlink:href="#rim" fill="#404040">
                        <set attributeName="fill" to="#808080" begin="arrowRight.mouseover" end="arrowRight.mouseout"/>
                  </use>
                  <path fill="none" stroke="white" stroke-width="1.5" d="M0,-3.0v7 M-2.5,-0.5L0,-3.0L2.5,-0.5"/>
                </g>
                <g id="arrowDown" xlink:href="#dirArrow" transform="rotate(180) translate(-30 -48)" onmousedown="handlePan(0,1)">
                  <use xlink:href="#rim" fill="#404040">
                        <set attributeName="fill" to="#808080" begin="arrowDown.mouseover" end="arrowDown.mouseout"/>
                  </use>
                  <path fill="none" stroke="white" stroke-width="1.5" d="M0,-3.0v7 M-2.5,-0.5L0,-3.0L2.5,-0.5"/>
                </g>
                <g id="arrowLeft" xlink:href="#dirArrow" transform="rotate(270) translate(-36 17)" onmousedown="handlePan(-1,0)">
                  <use xlink:href="#rim" fill="#404040">
                        <set attributeName="fill" to="#808080" begin="arrowLeft.mouseover" end="arrowLeft.mouseout"/>
                  </use>
                  <path fill="none" stroke="white" stroke-width="1.5" d="M0,-3.0v7 M-2.5,-0.5L0,-3.0L2.5,-0.5"/>
                </g>
        </g>
        <svg viewBox="0 0 15 15" width="100%" height="30px" preserveAspectRatio="xMaxYMin meet">
         <g id="arrow_out" transform="scale(0.3 0.3)">
          <a xlink:href="execution_8c_aa6f3ac2f0c10538c125eafcb587fd021_cgraph_org.svg" target="_base">
           <rect id="button" ry="5" rx="5" y="6" x="6" height="38" width="38"
                fill="#f2f5e9" fill-opacity="0.5" stroke="#606060" stroke-width="1.0"/>
           <path id="arrow"
             d="M 11.500037,31.436501 C 11.940474,20.09759 22.043105,11.32322 32.158766,21.979434 L 37.068811,17.246167 C 37.068811,17.246167 37.088388,32 37.088388,32 L 22.160133,31.978069 C 22.160133,31.978069 26.997745,27.140456 26.997745,27.140456 C 18.528582,18.264221 13.291696,25.230495 11.500037,31.436501 z"
             style="fill:#404040;"/>
          </a>
         </g>
        </svg>
</svg>
