<?xml version="1.0" encoding="UTF-8" standalone="no"?>
<!DOCTYPE svg PUBLIC "-//W3C//DTD SVG 1.1//EN"
 "http://www.w3.org/Graphics/SVG/1.1/DTD/svg11.dtd">
<!-- Generated by graphviz version 2.43.0 (0)
 -->
<!-- Title: one_command Pages: 1 -->
<svg width="1022pt" height="933pt"
 viewBox="0.00 0.00 1022.00 932.89" xmlns="http://www.w3.org/2000/svg" xmlns:xlink="http://www.w3.org/1999/xlink">
<g id="graph0" class="graph" transform="scale(1 1) rotate(0) translate(4 928.89)">
<title>one_command</title>
<!-- Node1 -->
<g id="node1" class="node">
<title>Node1</title>
<g id="a_node1"><a xlink:title="here we check if it&#39;s a builtin where we have to fork or not we still need to do the redirection veri...">
<polygon fill="#bfbfbf" stroke="black" points="0,-418.5 0,-437.5 89,-437.5 89,-418.5 0,-418.5"/>
<text text-anchor="middle" x="44.5" y="-425.5" font-family="Helvetica,sans-Serif" font-size="10.00">one_command</text>
</a>
</g>
</g>
<!-- Node2 -->
<g id="node2" class="node">
<title>Node2</title>
<g id="a_node2"><a xlink:href="multipipe_8c.html#a9b21b82386f20636501d279a66b7260d" target="_top" xlink:title="in the case of an error in the redirection, we have a case where the here_doc opened in a previous si...">
<polygon fill="none" stroke="black" points="140,-489.5 140,-508.5 241,-508.5 241,-489.5 140,-489.5"/>
<text text-anchor="middle" x="190.5" y="-496.5" font-family="Helvetica,sans-Serif" font-size="10.00">close_redir_temp</text>
</a>
</g>
</g>
<!-- Node1&#45;&gt;Node2 -->
<g id="edge1" class="edge">
<title>Node1&#45;&gt;Node2</title>
<path fill="none" stroke="midnightblue" d="M64.92,-437.58C89.61,-449.75 132.45,-470.87 160.88,-484.89"/>
<polygon fill="midnightblue" stroke="midnightblue" points="159.41,-488.07 169.93,-489.35 162.51,-481.79 159.41,-488.07"/>
</g>
<!-- Node4 -->
<g id="node4" class="node">
<title>Node4</title>
<g id="a_node4"><a xlink:href="lst__cmd2_8c.html#a132395876bb5a7cfe926b9e37571a1e3" target="_top" xlink:title=" ">
<polygon fill="none" stroke="black" points="310.5,-266.5 310.5,-285.5 402.5,-285.5 402.5,-266.5 310.5,-266.5"/>
<text text-anchor="middle" x="356.5" y="-273.5" font-family="Helvetica,sans-Serif" font-size="10.00">destructor_cmd</text>
</a>
</g>
</g>
<!-- Node1&#45;&gt;Node4 -->
<g id="edge3" class="edge">
<title>Node1&#45;&gt;Node4</title>
<path fill="none" stroke="midnightblue" d="M48.3,-418.17C55.91,-393.42 79.55,-328.46 125,-300 177.53,-267.11 250.3,-265.11 299.94,-268.74"/>
<polygon fill="midnightblue" stroke="midnightblue" points="299.9,-272.25 310.16,-269.59 300.48,-265.27 299.9,-272.25"/>
</g>
<!-- Node8 -->
<g id="node8" class="node">
<title>Node8</title>
<g id="a_node8"><a xlink:href="heredoc_8c.html#aa5260679719a4e1f862a6efd1f12cf85" target="_top" xlink:title="the function will go through all the commands and check the redirection if we encounter a heredoc we ...">
<polygon fill="none" stroke="black" points="125,-593.5 125,-612.5 256,-612.5 256,-593.5 125,-593.5"/>
<text text-anchor="middle" x="190.5" y="-600.5" font-family="Helvetica,sans-Serif" font-size="10.00">here_doc_management</text>
</a>
</g>
</g>
<!-- Node1&#45;&gt;Node8 -->
<g id="edge7" class="edge">
<title>Node1&#45;&gt;Node8</title>
<path fill="none" stroke="midnightblue" d="M53.45,-437.66C76.7,-465.92 144.85,-548.74 174.94,-585.31"/>
<polygon fill="midnightblue" stroke="midnightblue" points="172.34,-587.66 181.4,-593.16 177.75,-583.21 172.34,-587.66"/>
</g>
<!-- Node15 -->
<g id="node15" class="node">
<title>Node15</title>
<g id="a_node15"><a xlink:href="execution_8c.html#a30cac5c7712d6462192a55849ea237f2" target="_top" xlink:title="ici ce sont les builtin qu&#39;on doit pas fork dans le cas d&#39;un one_command">
<polygon fill="none" stroke="black" points="132.5,-228.5 132.5,-247.5 248.5,-247.5 248.5,-228.5 132.5,-228.5"/>
<text text-anchor="middle" x="190.5" y="-235.5" font-family="Helvetica,sans-Serif" font-size="10.00">is_it_builtin_nonfork</text>
</a>
</g>
</g>
<!-- Node1&#45;&gt;Node15 -->
<g id="edge20" class="edge">
<title>Node1&#45;&gt;Node15</title>
<path fill="none" stroke="midnightblue" d="M47.48,-418.23C53.7,-389.97 75.45,-307.26 125,-262 129.41,-257.97 134.55,-254.6 139.98,-251.79"/>
<polygon fill="midnightblue" stroke="midnightblue" points="141.64,-254.88 149.29,-247.56 138.74,-248.51 141.64,-254.88"/>
</g>
<!-- Node16 -->
<g id="node16" class="node">
<title>Node16</title>
<g id="a_node16"><a xlink:href="execution_8c.html#a8b2bd9dba90bfc9b2ead44af5e630315" target="_top" xlink:title="launch the builtin &#160;&#160;some of them are not present because we have to fork() them why ?...">
<polygon fill="none" stroke="black" points="487.5,-152.5 487.5,-171.5 572.5,-171.5 572.5,-152.5 487.5,-152.5"/>
<text text-anchor="middle" x="530" y="-159.5" font-family="Helvetica,sans-Serif" font-size="10.00">launch_builtin</text>
</a>
</g>
</g>
<!-- Node1&#45;&gt;Node16 -->
<g id="edge21" class="edge">
<title>Node1&#45;&gt;Node16</title>
<path fill="none" stroke="midnightblue" d="M68.38,-418.46C111.65,-400.59 208.61,-361.3 292,-333 348.6,-313.79 375.57,-333.84 421,-295 449.41,-270.71 433.74,-248.25 457,-219 470.27,-202.31 489.33,-187.5 504.5,-177.16"/>
<polygon fill="midnightblue" stroke="midnightblue" points="506.5,-180.04 512.92,-171.61 502.64,-174.2 506.5,-180.04"/>
</g>
<!-- Node27 -->
<g id="node27" class="node">
<title>Node27</title>
<g id="a_node27"><a xlink:href="execution_8c.html#ac70faaedddc427b5051b808a8de40da4" target="_top" xlink:title="in this function we do the fork to create a child process we do the redirection if we need to">
<polygon fill="none" stroke="black" points="126.5,-418.5 126.5,-437.5 254.5,-437.5 254.5,-418.5 126.5,-418.5"/>
<text text-anchor="middle" x="190.5" y="-425.5" font-family="Helvetica,sans-Serif" font-size="10.00">one_command_execve</text>
</a>
</g>
</g>
<!-- Node1&#45;&gt;Node27 -->
<g id="edge33" class="edge">
<title>Node1&#45;&gt;Node27</title>
<path fill="none" stroke="midnightblue" d="M89.1,-428C97.73,-428 107.01,-428 116.32,-428"/>
<polygon fill="midnightblue" stroke="midnightblue" points="116.4,-431.5 126.4,-428 116.4,-424.5 116.4,-431.5"/>
</g>
<!-- Node41 -->
<g id="node41" class="node">
<title>Node41</title>
<g id="a_node41"><a xlink:href="redirection__verification_8c.html#af9b05287627b76434ceb0070c5cb2c8a" target="_top" xlink:title="we go through each node of the redirection and we have special treatment depending of the following c...">
<polygon fill="none" stroke="black" points="292,-817.5 292,-836.5 421,-836.5 421,-817.5 292,-817.5"/>
<text text-anchor="middle" x="356.5" y="-824.5" font-family="Helvetica,sans-Serif" font-size="10.00">redirection_verification</text>
</a>
</g>
</g>
<!-- Node1&#45;&gt;Node41 -->
<g id="edge56" class="edge">
<title>Node1&#45;&gt;Node41</title>
<path fill="none" stroke="midnightblue" d="M47.78,-437.64C55.15,-467.31 80.39,-559.04 125,-622 185.1,-706.83 286.6,-780.89 332.15,-811.73"/>
<polygon fill="midnightblue" stroke="midnightblue" points="330.48,-814.82 340.73,-817.48 334.37,-809.01 330.48,-814.82"/>
</g>
<!-- Node3 -->
<g id="node3" class="node">
<title>Node3</title>
<g id="a_node3"><a xlink:href="redirection__multipipe_8c.html#a1bca6910c90a19d96b36506a2e2cebf6" target="_top" xlink:title="as fd are all setup to &#45;1 at the beginning we check if they are open before trying to close we avoid ...">
<polygon fill="none" stroke="black" points="809,-608.5 809,-627.5 878,-627.5 878,-608.5 809,-608.5"/>
<text text-anchor="middle" x="843.5" y="-615.5" font-family="Helvetica,sans-Serif" font-size="10.00">ft_close_fd</text>
</a>
</g>
</g>
<!-- Node2&#45;&gt;Node3 -->
<g id="edge2" class="edge">
<title>Node2&#45;&gt;Node3</title>
<path fill="none" stroke="midnightblue" d="M239.21,-508.52C255.88,-511.71 274.74,-515.18 292,-518 495.83,-551.34 552.21,-531.65 752,-584 772.22,-589.3 794.19,-597.49 811.42,-604.5"/>
<polygon fill="midnightblue" stroke="midnightblue" points="810.39,-607.87 820.96,-608.47 813.07,-601.4 810.39,-607.87"/>
</g>
<!-- Node5 -->
<g id="node5" class="node">
<title>Node5</title>
<g id="a_node5"><a xlink:href="lst__cmd2_8c.html#a8e2b63759f149b547e0d07f210ede9b3" target="_top" xlink:title=" ">
<polygon fill="none" stroke="black" points="499.5,-57.5 499.5,-76.5 560.5,-76.5 560.5,-57.5 499.5,-57.5"/>
<text text-anchor="middle" x="530" y="-64.5" font-family="Helvetica,sans-Serif" font-size="10.00">pop_cmd</text>
</a>
</g>
</g>
<!-- Node4&#45;&gt;Node5 -->
<g id="edge4" class="edge">
<title>Node4&#45;&gt;Node5</title>
<path fill="none" stroke="midnightblue" d="M364.13,-266.36C379.61,-244.03 419.64,-187.32 457,-143 474.95,-121.7 497.22,-98.66 512.2,-83.6"/>
<polygon fill="midnightblue" stroke="midnightblue" points="514.7,-86.05 519.31,-76.5 509.76,-81.09 514.7,-86.05"/>
</g>
<!-- Node6 -->
<g id="node6" class="node">
<title>Node6</title>
<g id="a_node6"><a xlink:href="lst__redir2_8c.html#a30ccaf401a4f897e48ead5fe54f4b307" target="_top" xlink:title=" ">
<polygon fill="none" stroke="black" points="648.5,-0.5 648.5,-19.5 742.5,-19.5 742.5,-0.5 648.5,-0.5"/>
<text text-anchor="middle" x="695.5" y="-7.5" font-family="Helvetica,sans-Serif" font-size="10.00">destructor_redir</text>
</a>
</g>
</g>
<!-- Node5&#45;&gt;Node6 -->
<g id="edge5" class="edge">
<title>Node5&#45;&gt;Node6</title>
<path fill="none" stroke="midnightblue" d="M558.05,-57.41C579.88,-49.69 611.4,-38.58 639,-29 644.73,-27.01 650.8,-24.92 656.74,-22.88"/>
<polygon fill="midnightblue" stroke="midnightblue" points="658.21,-26.08 666.53,-19.52 655.94,-19.45 658.21,-26.08"/>
</g>
<!-- Node7 -->
<g id="node7" class="node">
<title>Node7</title>
<g id="a_node7"><a xlink:href="lst__redir2_8c.html#ade8f0bdda51d9bf348ebeb38fefba881" target="_top" xlink:title=" ">
<polygon fill="none" stroke="black" points="812.5,-0.5 812.5,-19.5 874.5,-19.5 874.5,-0.5 812.5,-0.5"/>
<text text-anchor="middle" x="843.5" y="-7.5" font-family="Helvetica,sans-Serif" font-size="10.00">pop_redir</text>
</a>
</g>
</g>
<!-- Node6&#45;&gt;Node7 -->
<g id="edge6" class="edge">
<title>Node6&#45;&gt;Node7</title>
<path fill="none" stroke="midnightblue" d="M742.7,-10C761.78,-10 783.7,-10 802.13,-10"/>
<polygon fill="midnightblue" stroke="midnightblue" points="802.25,-13.5 812.25,-10 802.25,-6.5 802.25,-13.5"/>
</g>
<!-- Node9 -->
<g id="node9" class="node">
<title>Node9</title>
<g id="a_node9"><a xlink:href="heredoc_8c.html#ab68377acf2c8adf39f991dc425297c09" target="_top" xlink:title="it&#39;s where we open the heredoc and start writing inside our pipe each time we check if it&#39;s the word ...">
<polygon fill="none" stroke="black" points="313.5,-646.5 313.5,-665.5 399.5,-665.5 399.5,-646.5 313.5,-646.5"/>
<text text-anchor="middle" x="356.5" y="-653.5" font-family="Helvetica,sans-Serif" font-size="10.00">heredoc_input</text>
</a>
</g>
</g>
<!-- Node8&#45;&gt;Node9 -->
<g id="edge8" class="edge">
<title>Node8&#45;&gt;Node9</title>
<path fill="none" stroke="midnightblue" d="M221.2,-612.6C247.79,-621.19 286.96,-633.85 316.15,-643.28"/>
<polygon fill="midnightblue" stroke="midnightblue" points="315.43,-646.73 326.02,-646.47 317.58,-640.07 315.43,-646.73"/>
</g>
<!-- Node9&#45;&gt;Node3 -->
<g id="edge11" class="edge">
<title>Node9&#45;&gt;Node3</title>
<path fill="none" stroke="midnightblue" d="M363.75,-665.71C377.59,-686.2 413.1,-733.41 457,-751 517.23,-775.14 540.18,-767.27 603,-751 692.03,-727.94 783.22,-663.83 822.5,-633.84"/>
<polygon fill="midnightblue" stroke="midnightblue" points="824.73,-636.54 830.5,-627.66 820.45,-631.01 824.73,-636.54"/>
</g>
<!-- Node10 -->
<g id="node10" class="node">
<title>Node10</title>
<g id="a_node10"><a xlink:href="heredoc_8c.html#a3e1410633d8c1ad5b1441509a020b0d4" target="_top" xlink:title="allow us to close the file descriptors when we have fork() again the process">
<polygon fill="none" stroke="black" points="639,-608.5 639,-627.5 752,-627.5 752,-608.5 639,-608.5"/>
<text text-anchor="middle" x="695.5" y="-615.5" font-family="Helvetica,sans-Serif" font-size="10.00">close_fd_heredocs2</text>
</a>
</g>
</g>
<!-- Node9&#45;&gt;Node10 -->
<g id="edge9" class="edge">
<title>Node9&#45;&gt;Node10</title>
<path fill="none" stroke="midnightblue" d="M399.94,-646.84C417.53,-643.32 438.18,-639.54 457,-637 514.67,-629.21 580.67,-624.24 628.44,-621.35"/>
<polygon fill="midnightblue" stroke="midnightblue" points="628.88,-624.83 638.65,-620.75 628.46,-617.84 628.88,-624.83"/>
</g>
<!-- Node11 -->
<g id="node11" class="node">
<title>Node11</title>
<g id="a_node11"><a xlink:href="heredoc_8c.html#ae1fac908d63c4fd12485122128c0c0fd" target="_top" xlink:title="function which allow me to do the loop to call GNL =&gt; there is also the management to leave with the ...">
<polygon fill="none" stroke="black" points="478.5,-646.5 478.5,-665.5 581.5,-665.5 581.5,-646.5 478.5,-646.5"/>
<text text-anchor="middle" x="530" y="-653.5" font-family="Helvetica,sans-Serif" font-size="10.00">read_gnl_heredoc</text>
</a>
</g>
</g>
<!-- Node9&#45;&gt;Node11 -->
<g id="edge12" class="edge">
<title>Node9&#45;&gt;Node11</title>
<path fill="none" stroke="midnightblue" d="M399.89,-656C420.45,-656 445.52,-656 468.08,-656"/>
<polygon fill="midnightblue" stroke="midnightblue" points="468.25,-659.5 478.25,-656 468.25,-652.5 468.25,-659.5"/>
</g>
<!-- Node12 -->
<g id="node12" class="node">
<title>Node12</title>
<g id="a_node12"><a xlink:href="ctl_8c.html#a4fd8e3642e456e9a2f7fe4dc8f44ad43" target="_top" xlink:title="remove the echoctl which are the symbol which appears when you press CTRL+C or CTRL+\ it&#39;s different ...">
<polygon fill="none" stroke="black" points="482.5,-722.5 482.5,-741.5 577.5,-741.5 577.5,-722.5 482.5,-722.5"/>
<text text-anchor="middle" x="530" y="-729.5" font-family="Helvetica,sans-Serif" font-size="10.00">remove_echoctl</text>
</a>
</g>
</g>
<!-- Node9&#45;&gt;Node12 -->
<g id="edge15" class="edge">
<title>Node9&#45;&gt;Node12</title>
<path fill="none" stroke="midnightblue" d="M371.4,-665.54C390.11,-678 424.77,-699.78 457,-713 462.89,-715.41 469.17,-717.6 475.48,-719.56"/>
<polygon fill="midnightblue" stroke="midnightblue" points="474.79,-723.01 485.37,-722.45 476.76,-716.29 474.79,-723.01"/>
</g>
<!-- Node13 -->
<g id="node13" class="node">
<title>Node13</title>
<g id="a_node13"><a xlink:href="signals_8c.html#a7ea78f2f2215fe1ed765af80a1b2893d" target="_top" xlink:title="allow us to warn the process child heredoc it&#39;s time to stop and close the file descriptor">
<polygon fill="none" stroke="black" points="486,-684.5 486,-703.5 574,-703.5 574,-684.5 486,-684.5"/>
<text text-anchor="middle" x="530" y="-691.5" font-family="Helvetica,sans-Serif" font-size="10.00">sigint_heredoc</text>
</a>
</g>
</g>
<!-- Node9&#45;&gt;Node13 -->
<g id="edge16" class="edge">
<title>Node9&#45;&gt;Node13</title>
<path fill="none" stroke="midnightblue" d="M399.89,-665.39C422.91,-670.49 451.58,-676.85 476.05,-682.27"/>
<polygon fill="midnightblue" stroke="midnightblue" points="475.38,-685.7 485.9,-684.45 476.9,-678.87 475.38,-685.7"/>
</g>
<!-- Node14 -->
<g id="node14" class="node">
<title>Node14</title>
<g id="a_node14"><a xlink:href="heredoc_8c.html#a1e49e3a472f4fd4b4c38a3e393868e67" target="_top" xlink:title="origin of creation ; the norm what it is doing ? juste close the fd the right way if we encounter the...">
<polygon fill="none" stroke="black" points="487,-570.5 487,-589.5 573,-589.5 573,-570.5 487,-570.5"/>
<text text-anchor="middle" x="530" y="-577.5" font-family="Helvetica,sans-Serif" font-size="10.00">update_status</text>
</a>
</g>
</g>
<!-- Node9&#45;&gt;Node14 -->
<g id="edge17" class="edge">
<title>Node9&#45;&gt;Node14</title>
<path fill="none" stroke="midnightblue" d="M374,-646.33C393.43,-635.2 426.86,-616.8 457,-604 466.55,-599.94 477.04,-596.11 486.98,-592.75"/>
<polygon fill="midnightblue" stroke="midnightblue" points="488.29,-596.01 496.69,-589.55 486.1,-589.36 488.29,-596.01"/>
</g>
<!-- Node10&#45;&gt;Node3 -->
<g id="edge10" class="edge">
<title>Node10&#45;&gt;Node3</title>
<path fill="none" stroke="midnightblue" d="M752.11,-618C767.42,-618 783.8,-618 798.36,-618"/>
<polygon fill="midnightblue" stroke="midnightblue" points="798.6,-621.5 808.6,-618 798.6,-614.5 798.6,-621.5"/>
</g>
<!-- Node11&#45;&gt;Node3 -->
<g id="edge14" class="edge">
<title>Node11&#45;&gt;Node3</title>
<path fill="none" stroke="midnightblue" d="M581.67,-653.39C626.6,-650.67 693.9,-645.56 752,-637 767.36,-634.74 784.02,-631.47 798.82,-628.29"/>
<polygon fill="midnightblue" stroke="midnightblue" points="799.71,-631.67 808.72,-626.11 798.21,-624.84 799.71,-631.67"/>
</g>
<!-- Node11&#45;&gt;Node10 -->
<g id="edge13" class="edge">
<title>Node11&#45;&gt;Node10</title>
<path fill="none" stroke="midnightblue" d="M572.26,-646.41C593.93,-641.37 620.68,-635.16 643.63,-629.82"/>
<polygon fill="midnightblue" stroke="midnightblue" points="644.59,-633.19 653.54,-627.52 643.01,-626.37 644.59,-633.19"/>
</g>
<!-- Node14&#45;&gt;Node3 -->
<g id="edge19" class="edge">
<title>Node14&#45;&gt;Node3</title>
<path fill="none" stroke="midnightblue" d="M573.13,-582.1C617.73,-584.68 690.09,-589.87 752,-599 767.36,-601.26 784.02,-604.53 798.82,-607.71"/>
<polygon fill="midnightblue" stroke="midnightblue" points="798.21,-611.16 808.72,-609.89 799.71,-604.33 798.21,-611.16"/>
</g>
<!-- Node14&#45;&gt;Node10 -->
<g id="edge18" class="edge">
<title>Node14&#45;&gt;Node10</title>
<path fill="none" stroke="midnightblue" d="M572.26,-589.59C593.93,-594.63 620.68,-600.84 643.63,-606.18"/>
<polygon fill="midnightblue" stroke="midnightblue" points="643.01,-609.63 653.54,-608.48 644.59,-602.81 643.01,-609.63"/>
</g>
<!-- Node17 -->
<g id="node17" class="node">
<title>Node17</title>
<g id="a_node17"><a xlink:href="cd_8c.html#a68ca1d5a8272f17815cfd7394a24ad19" target="_top" xlink:title=" ">
<polygon fill="none" stroke="black" points="681,-190.5 681,-209.5 710,-209.5 710,-190.5 681,-190.5"/>
<text text-anchor="middle" x="695.5" y="-197.5" font-family="Helvetica,sans-Serif" font-size="10.00">cd</text>
</a>
</g>
</g>
<!-- Node16&#45;&gt;Node17 -->
<g id="edge22" class="edge">
<title>Node16&#45;&gt;Node17</title>
<path fill="none" stroke="midnightblue" d="M572.26,-171.59C603.38,-178.82 644.98,-188.49 670.74,-194.48"/>
<polygon fill="midnightblue" stroke="midnightblue" points="670.2,-197.95 680.74,-196.8 671.79,-191.13 670.2,-197.95"/>
</g>
<!-- Node19 -->
<g id="node19" class="node">
<title>Node19</title>
<g id="a_node19"><a xlink:href="env_8c.html#ad7678c59b5365c776294bdeefd3d7583" target="_top" xlink:title=" ">
<polygon fill="none" stroke="black" points="826,-152.5 826,-171.5 861,-171.5 861,-152.5 826,-152.5"/>
<text text-anchor="middle" x="843.5" y="-159.5" font-family="Helvetica,sans-Serif" font-size="10.00">env</text>
</a>
</g>
</g>
<!-- Node16&#45;&gt;Node19 -->
<g id="edge24" class="edge">
<title>Node16&#45;&gt;Node19</title>
<path fill="none" stroke="midnightblue" d="M572.69,-162C637.67,-162 761.31,-162 815.69,-162"/>
<polygon fill="midnightblue" stroke="midnightblue" points="815.9,-165.5 825.9,-162 815.9,-158.5 815.9,-165.5"/>
</g>
<!-- Node20 -->
<g id="node20" class="node">
<title>Node20</title>
<g id="a_node20"><a xlink:href="export_8c.html#ab409cd8fcc654b7e32155051ded49ff5" target="_top" xlink:title=" ">
<polygon fill="none" stroke="black" points="671.5,-114.5 671.5,-133.5 719.5,-133.5 719.5,-114.5 671.5,-114.5"/>
<text text-anchor="middle" x="695.5" y="-121.5" font-family="Helvetica,sans-Serif" font-size="10.00">export</text>
</a>
</g>
</g>
<!-- Node16&#45;&gt;Node20 -->
<g id="edge25" class="edge">
<title>Node16&#45;&gt;Node20</title>
<path fill="none" stroke="midnightblue" d="M572.26,-152.41C599.86,-146 635.71,-137.66 661.43,-131.69"/>
<polygon fill="midnightblue" stroke="midnightblue" points="662.49,-135.03 671.44,-129.36 660.91,-128.21 662.49,-135.03"/>
</g>
<!-- Node25 -->
<g id="node25" class="node">
<title>Node25</title>
<g id="a_node25"><a xlink:href="my__echo_8c.html#a5522916069f77552d810e207670e3170" target="_top" xlink:title=" ">
<polygon fill="none" stroke="black" points="665,-76.5 665,-95.5 726,-95.5 726,-76.5 665,-76.5"/>
<text text-anchor="middle" x="695.5" y="-83.5" font-family="Helvetica,sans-Serif" font-size="10.00">my_echo</text>
</a>
</g>
</g>
<!-- Node16&#45;&gt;Node25 -->
<g id="edge31" class="edge">
<title>Node16&#45;&gt;Node25</title>
<path fill="none" stroke="midnightblue" d="M547.08,-152.5C567.84,-140.46 605.33,-119.54 639,-105 644.14,-102.78 649.64,-100.64 655.09,-98.64"/>
<polygon fill="midnightblue" stroke="midnightblue" points="656.53,-101.84 664.8,-95.22 654.2,-95.24 656.53,-101.84"/>
</g>
<!-- Node26 -->
<g id="node26" class="node">
<title>Node26</title>
<g id="a_node26"><a xlink:href="pwd_8c.html#ab62618359287b6604bd60852145b9726" target="_top" xlink:title=" ">
<polygon fill="none" stroke="black" points="677,-38.5 677,-57.5 714,-57.5 714,-38.5 677,-38.5"/>
<text text-anchor="middle" x="695.5" y="-45.5" font-family="Helvetica,sans-Serif" font-size="10.00">pwd</text>
</a>
</g>
</g>
<!-- Node16&#45;&gt;Node26 -->
<g id="edge32" class="edge">
<title>Node16&#45;&gt;Node26</title>
<path fill="none" stroke="midnightblue" d="M539.56,-152.26C556.68,-133.33 597.09,-91.31 639,-67 647.73,-61.93 658.03,-57.94 667.36,-54.95"/>
<polygon fill="midnightblue" stroke="midnightblue" points="668.4,-58.29 676.99,-52.1 666.41,-51.58 668.4,-58.29"/>
</g>
<!-- Node18 -->
<g id="node18" class="node">
<title>Node18</title>
<g id="a_node18"><a xlink:href="lst__env__two_8c.html#a4d4a14327b2c3ff88099102b6bd77986" target="_top" xlink:title=" ">
<polygon fill="none" stroke="black" points="791.5,-209.5 791.5,-228.5 895.5,-228.5 895.5,-209.5 791.5,-209.5"/>
<text text-anchor="middle" x="843.5" y="-216.5" font-family="Helvetica,sans-Serif" font-size="10.00">research_key_env</text>
</a>
</g>
</g>
<!-- Node17&#45;&gt;Node18 -->
<g id="edge23" class="edge">
<title>Node17&#45;&gt;Node18</title>
<path fill="none" stroke="midnightblue" d="M710.24,-201.79C726.6,-203.92 755.05,-207.62 781.37,-211.05"/>
<polygon fill="midnightblue" stroke="midnightblue" points="780.96,-214.52 791.33,-212.34 781.87,-207.58 780.96,-214.52"/>
</g>
<!-- Node20&#45;&gt;Node19 -->
<g id="edge27" class="edge">
<title>Node20&#45;&gt;Node19</title>
<path fill="none" stroke="midnightblue" d="M719.63,-130.02C745.87,-136.85 788.57,-147.96 816.09,-155.13"/>
<polygon fill="midnightblue" stroke="midnightblue" points="815.27,-158.53 825.83,-157.66 817.04,-151.76 815.27,-158.53"/>
</g>
<!-- Node21 -->
<g id="node21" class="node">
<title>Node21</title>
<g id="a_node21"><a xlink:href="lst__env_8c.html#a9c375db3cbfe2e87b52bae7ee7472eae" target="_top" xlink:title=" ">
<polygon fill="none" stroke="black" points="793.5,-38.5 793.5,-57.5 893.5,-57.5 893.5,-38.5 793.5,-38.5"/>
<text text-anchor="middle" x="843.5" y="-45.5" font-family="Helvetica,sans-Serif" font-size="10.00">create_node_env</text>
</a>
</g>
</g>
<!-- Node20&#45;&gt;Node21 -->
<g id="edge26" class="edge">
<title>Node20&#45;&gt;Node21</title>
<path fill="none" stroke="midnightblue" d="M719.77,-118.74C730.16,-115.73 742.23,-111.28 752,-105 771.57,-92.42 768.46,-79.63 788,-67 791.08,-65.01 794.4,-63.19 797.83,-61.55"/>
<polygon fill="midnightblue" stroke="midnightblue" points="799.23,-64.76 807.04,-57.59 796.47,-58.32 799.23,-64.76"/>
</g>
<!-- Node22 -->
<g id="node22" class="node">
<title>Node22</title>
<g id="a_node22"><a xlink:href="lst__env_8c.html#a5976d1b2a8159220749fac94a83d5c95" target="_top" xlink:title=" ">
<polygon fill="none" stroke="black" points="797.5,-114.5 797.5,-133.5 889.5,-133.5 889.5,-114.5 797.5,-114.5"/>
<text text-anchor="middle" x="843.5" y="-121.5" font-family="Helvetica,sans-Serif" font-size="10.00">push_back_env</text>
</a>
</g>
</g>
<!-- Node20&#45;&gt;Node22 -->
<g id="edge28" class="edge">
<title>Node20&#45;&gt;Node22</title>
<path fill="none" stroke="midnightblue" d="M719.63,-124C737.77,-124 763.79,-124 787.21,-124"/>
<polygon fill="midnightblue" stroke="midnightblue" points="787.4,-127.5 797.4,-124 787.4,-120.5 787.4,-127.5"/>
</g>
<!-- Node24 -->
<g id="node24" class="node">
<title>Node24</title>
<g id="a_node24"><a xlink:href="export_8c.html#a2db1828ad3293b53b14b47a11c636e51" target="_top" xlink:title=" ">
<polygon fill="none" stroke="black" points="788,-76.5 788,-95.5 899,-95.5 899,-76.5 788,-76.5"/>
<text text-anchor="middle" x="843.5" y="-83.5" font-family="Helvetica,sans-Serif" font-size="10.00">research_node_env</text>
</a>
</g>
</g>
<!-- Node20&#45;&gt;Node24 -->
<g id="edge30" class="edge">
<title>Node20&#45;&gt;Node24</title>
<path fill="none" stroke="midnightblue" d="M719.63,-117.98C740.08,-112.66 770.52,-104.74 795.98,-98.11"/>
<polygon fill="midnightblue" stroke="midnightblue" points="797.03,-101.45 805.82,-95.55 795.26,-94.68 797.03,-101.45"/>
</g>
<!-- Node23 -->
<g id="node23" class="node">
<title>Node23</title>
<g id="a_node23"><a xlink:href="env__utils_8c.html#ac7b3f84bb622bdf477616c5b0022f035" target="_top" xlink:title=" ">
<polygon fill="none" stroke="black" points="935,-114.5 935,-133.5 1014,-133.5 1014,-114.5 935,-114.5"/>
<text text-anchor="middle" x="974.5" y="-121.5" font-family="Helvetica,sans-Serif" font-size="10.00">get_last_env</text>
</a>
</g>
</g>
<!-- Node22&#45;&gt;Node23 -->
<g id="edge29" class="edge">
<title>Node22&#45;&gt;Node23</title>
<path fill="none" stroke="midnightblue" d="M889.62,-124C900.85,-124 912.96,-124 924.38,-124"/>
<polygon fill="midnightblue" stroke="midnightblue" points="924.63,-127.5 934.63,-124 924.63,-120.5 924.63,-127.5"/>
</g>
<!-- Node27&#45;&gt;Node3 -->
<g id="edge55" class="edge">
<title>Node27&#45;&gt;Node3</title>
<path fill="none" stroke="midnightblue" d="M212.27,-437.61C232.31,-446.57 263.7,-459.74 292,-468 491.82,-526.3 559.86,-475.93 752,-556 779.19,-567.33 806.57,-587.61 823.97,-601.88"/>
<polygon fill="midnightblue" stroke="midnightblue" points="821.76,-604.59 831.67,-608.34 826.26,-599.23 821.76,-604.59"/>
</g>
<!-- Node27&#45;&gt;Node4 -->
<g id="edge40" class="edge">
<title>Node27&#45;&gt;Node4</title>
<path fill="none" stroke="midnightblue" d="M201.41,-418.48C219.34,-401.27 258.45,-363.91 292,-333 307.02,-319.17 324.27,-303.71 337,-292.38"/>
<polygon fill="midnightblue" stroke="midnightblue" points="339.48,-294.86 344.64,-285.6 334.84,-289.62 339.48,-294.86"/>
</g>
<!-- Node28 -->
<g id="node28" class="node">
<title>Node28</title>
<g id="a_node28"><a xlink:href="redirection__multipipe_8c.html#a19e2c31eeb0eb25575df2277cbd7774e" target="_top" xlink:title=" ">
<polygon fill="none" stroke="black" points="476,-456.5 476,-475.5 584,-475.5 584,-456.5 476,-456.5"/>
<text text-anchor="middle" x="530" y="-463.5" font-family="Helvetica,sans-Serif" font-size="10.00">command_redirect</text>
</a>
</g>
</g>
<!-- Node27&#45;&gt;Node28 -->
<g id="edge34" class="edge">
<title>Node27&#45;&gt;Node28</title>
<path fill="none" stroke="midnightblue" d="M236.36,-437.54C253.68,-440.95 273.7,-444.54 292,-447 350.51,-454.85 417.6,-459.86 465.44,-462.75"/>
<polygon fill="midnightblue" stroke="midnightblue" points="465.46,-466.26 475.64,-463.36 465.87,-459.27 465.46,-466.26"/>
</g>
<!-- Node31 -->
<g id="node31" class="node">
<title>Node31</title>
<g id="a_node31"><a xlink:href="lst__env_8c.html#a226ae0aa054e697998b2ecbc5d61d592" target="_top" xlink:title=" ">
<polygon fill="none" stroke="black" points="312,-418.5 312,-437.5 401,-437.5 401,-418.5 312,-418.5"/>
<text text-anchor="middle" x="356.5" y="-425.5" font-family="Helvetica,sans-Serif" font-size="10.00">destructor_env</text>
</a>
</g>
</g>
<!-- Node27&#45;&gt;Node31 -->
<g id="edge41" class="edge">
<title>Node27&#45;&gt;Node31</title>
<path fill="none" stroke="midnightblue" d="M254.91,-428C270.29,-428 286.59,-428 301.49,-428"/>
<polygon fill="midnightblue" stroke="midnightblue" points="301.55,-431.5 311.55,-428 301.55,-424.5 301.55,-431.5"/>
</g>
<!-- Node33 -->
<g id="node33" class="node">
<title>Node33</title>
<g id="a_node33"><a xlink:href="execution__node_8c.html#a6cfdc545c2222bbb0ca1dfc8431f72a3" target="_top" xlink:title="we are going to execute the command here we have a security about absolute path given =&gt; because it&#39;s...">
<polygon fill="none" stroke="black" points="310,-342.5 310,-361.5 403,-361.5 403,-342.5 310,-342.5"/>
<text text-anchor="middle" x="356.5" y="-349.5" font-family="Helvetica,sans-Serif" font-size="10.00">execution_node</text>
</a>
</g>
</g>
<!-- Node27&#45;&gt;Node33 -->
<g id="edge43" class="edge">
<title>Node27&#45;&gt;Node33</title>
<path fill="none" stroke="midnightblue" d="M212.27,-418.37C240.98,-405.07 292.96,-380.98 325.78,-365.77"/>
<polygon fill="midnightblue" stroke="midnightblue" points="327.3,-368.93 334.9,-361.55 324.35,-362.58 327.3,-368.93"/>
</g>
<!-- Node28&#45;&gt;Node3 -->
<g id="edge39" class="edge">
<title>Node28&#45;&gt;Node3</title>
<path fill="none" stroke="midnightblue" d="M584.36,-460.01C631.66,-457.32 700.94,-459.96 752,-490 794.83,-515.2 822.6,-569.56 835.01,-598.67"/>
<polygon fill="midnightblue" stroke="midnightblue" points="831.86,-600.22 838.88,-608.15 838.34,-597.57 831.86,-600.22"/>
</g>
<!-- Node29 -->
<g id="node29" class="node">
<title>Node29</title>
<g id="a_node29"><a xlink:href="redirection__multipipe_8c.html#a3a0d7f695cf53df46301e14ffab77638" target="_top" xlink:title=" ">
<polygon fill="none" stroke="black" points="651,-418.5 651,-437.5 740,-437.5 740,-418.5 651,-418.5"/>
<text text-anchor="middle" x="695.5" y="-425.5" font-family="Helvetica,sans-Serif" font-size="10.00">close_previous</text>
</a>
</g>
</g>
<!-- Node28&#45;&gt;Node29 -->
<g id="edge35" class="edge">
<title>Node28&#45;&gt;Node29</title>
<path fill="none" stroke="midnightblue" d="M572.26,-456.41C593.93,-451.37 620.68,-445.16 643.63,-439.82"/>
<polygon fill="midnightblue" stroke="midnightblue" points="644.59,-443.19 653.54,-437.52 643.01,-436.37 644.59,-443.19"/>
</g>
<!-- Node30 -->
<g id="node30" class="node">
<title>Node30</title>
<g id="a_node30"><a xlink:href="redirection__multipipe_8c.html#a5b749bc2b4088984c0efe1c479ae6ec8" target="_top" xlink:title=" ">
<polygon fill="none" stroke="black" points="655.5,-380.5 655.5,-399.5 735.5,-399.5 735.5,-380.5 655.5,-380.5"/>
<text text-anchor="middle" x="695.5" y="-387.5" font-family="Helvetica,sans-Serif" font-size="10.00">fail_previous</text>
</a>
</g>
</g>
<!-- Node28&#45;&gt;Node30 -->
<g id="edge37" class="edge">
<title>Node28&#45;&gt;Node30</title>
<path fill="none" stroke="midnightblue" d="M581.63,-456.47C589.08,-454 596.44,-450.89 603,-447 623.01,-435.13 619.43,-421.58 639,-409 642.14,-406.98 645.52,-405.15 649,-403.5"/>
<polygon fill="midnightblue" stroke="midnightblue" points="650.54,-406.65 658.39,-399.52 647.81,-400.2 650.54,-406.65"/>
</g>
<!-- Node29&#45;&gt;Node3 -->
<g id="edge36" class="edge">
<title>Node29&#45;&gt;Node3</title>
<path fill="none" stroke="midnightblue" d="M728.31,-437.52C736.68,-441.1 745.25,-445.84 752,-452 797.94,-493.94 825.45,-564.74 836.65,-598.7"/>
<polygon fill="midnightblue" stroke="midnightblue" points="833.35,-599.88 839.72,-608.35 840.02,-597.76 833.35,-599.88"/>
</g>
<!-- Node30&#45;&gt;Node3 -->
<g id="edge38" class="edge">
<title>Node30&#45;&gt;Node3</title>
<path fill="none" stroke="midnightblue" d="M735.54,-398.69C741.53,-401.28 747.29,-404.65 752,-409 809.19,-461.85 831.95,-557.08 839.4,-598.2"/>
<polygon fill="midnightblue" stroke="midnightblue" points="835.96,-598.8 841.08,-608.07 842.86,-597.63 835.96,-598.8"/>
</g>
<!-- Node32 -->
<g id="node32" class="node">
<title>Node32</title>
<g id="a_node32"><a xlink:href="lst__env_8c.html#a058c245b5f2ef22f9d2659f90e4d3537" target="_top" xlink:title=" ">
<polygon fill="none" stroke="black" points="501,-418.5 501,-437.5 559,-437.5 559,-418.5 501,-418.5"/>
<text text-anchor="middle" x="530" y="-425.5" font-family="Helvetica,sans-Serif" font-size="10.00">pop_env</text>
</a>
</g>
</g>
<!-- Node31&#45;&gt;Node32 -->
<g id="edge42" class="edge">
<title>Node31&#45;&gt;Node32</title>
<path fill="none" stroke="midnightblue" d="M401.22,-428C428.91,-428 464.36,-428 490.89,-428"/>
<polygon fill="midnightblue" stroke="midnightblue" points="490.95,-431.5 500.95,-428 490.95,-424.5 490.95,-431.5"/>
</g>
<!-- Node33&#45;&gt;Node16 -->
<g id="edge47" class="edge">
<title>Node33&#45;&gt;Node16</title>
<path fill="none" stroke="midnightblue" d="M399,-342.4C407.11,-338.96 414.97,-334.3 421,-328 456.3,-291.17 427.77,-260.81 457,-219 469.06,-201.74 487.85,-187.12 503.2,-177.01"/>
<polygon fill="midnightblue" stroke="midnightblue" points="505.19,-179.89 511.77,-171.59 501.45,-173.97 505.19,-179.89"/>
</g>
<!-- Node34 -->
<g id="node34" class="node">
<title>Node34</title>
<g id="a_node34"><a xlink:href="execution__node_8c.html#a74f4c34ebdc38c1fb50db2aa13f97b66" target="_top" xlink:title=" ">
<polygon fill="none" stroke="black" points="479.5,-342.5 479.5,-361.5 580.5,-361.5 580.5,-342.5 479.5,-342.5"/>
<text text-anchor="middle" x="530" y="-349.5" font-family="Helvetica,sans-Serif" font-size="10.00">check_accessible</text>
</a>
</g>
</g>
<!-- Node33&#45;&gt;Node34 -->
<g id="edge44" class="edge">
<title>Node33&#45;&gt;Node34</title>
<path fill="none" stroke="midnightblue" d="M403.01,-352C423.31,-352 447.51,-352 469.24,-352"/>
<polygon fill="midnightblue" stroke="midnightblue" points="469.36,-355.5 479.36,-352 469.36,-348.5 469.36,-355.5"/>
</g>
<!-- Node35 -->
<g id="node35" class="node">
<title>Node35</title>
<g id="a_node35"><a xlink:href="execution__node_8c.html#adc2c91230d4a0a1a1f98db2a888afcaa" target="_top" xlink:title="error message management for the specific case of execution">
<polygon fill="none" stroke="black" points="651,-342.5 651,-361.5 740,-361.5 740,-342.5 651,-342.5"/>
<text text-anchor="middle" x="695.5" y="-349.5" font-family="Helvetica,sans-Serif" font-size="10.00">message_error</text>
</a>
</g>
</g>
<!-- Node33&#45;&gt;Node35 -->
<g id="edge51" class="edge">
<title>Node33&#45;&gt;Node35</title>
<path fill="none" stroke="midnightblue" d="M397.92,-361.51C415.89,-365.28 437.39,-369.14 457,-371 521.6,-377.11 538.45,-377.63 603,-371 617.55,-369.51 633.19,-366.71 647.36,-363.71"/>
<polygon fill="midnightblue" stroke="midnightblue" points="648.36,-367.07 657.37,-361.51 646.86,-360.24 648.36,-367.07"/>
</g>
<!-- Node36 -->
<g id="node36" class="node">
<title>Node36</title>
<g id="a_node36"><a xlink:href="execution_8c.html#a3acc0bb56da881cc8609ca9e94ec8e93" target="_top" xlink:title="detect if it&#39;s a builtin with strncmp() but the real question is &quot;is it a builtin I have &#160;to launch i...">
<polygon fill="none" stroke="black" points="493.5,-266.5 493.5,-285.5 566.5,-285.5 566.5,-266.5 493.5,-266.5"/>
<text text-anchor="middle" x="530" y="-273.5" font-family="Helvetica,sans-Serif" font-size="10.00">is_it_builtin</text>
</a>
</g>
</g>
<!-- Node33&#45;&gt;Node36 -->
<g id="edge46" class="edge">
<title>Node33&#45;&gt;Node36</title>
<path fill="none" stroke="midnightblue" d="M389.94,-342.42C400.26,-338.69 411.46,-333.87 421,-328 439.49,-316.62 437.95,-305.41 457,-295 465.17,-290.54 474.43,-287.09 483.53,-284.42"/>
<polygon fill="midnightblue" stroke="midnightblue" points="484.51,-287.78 493.28,-281.84 482.72,-281.02 484.51,-287.78"/>
</g>
<!-- Node37 -->
<g id="node37" class="node">
<title>Node37</title>
<g id="a_node37"><a xlink:href="lst__env__two_8c.html#aafcce0b2f2958645e84ae23b14116680" target="_top" xlink:title=" ">
<polygon fill="none" stroke="black" points="486,-304.5 486,-323.5 574,-323.5 574,-304.5 486,-304.5"/>
<text text-anchor="middle" x="530" y="-311.5" font-family="Helvetica,sans-Serif" font-size="10.00">lst_to_tab_env</text>
</a>
</g>
</g>
<!-- Node33&#45;&gt;Node37 -->
<g id="edge48" class="edge">
<title>Node33&#45;&gt;Node37</title>
<path fill="none" stroke="midnightblue" d="M400.78,-342.41C423.61,-337.35 451.82,-331.1 475.96,-325.75"/>
<polygon fill="midnightblue" stroke="midnightblue" points="477.03,-329.1 486.03,-323.52 475.51,-322.27 477.03,-329.1"/>
</g>
<!-- Node40 -->
<g id="node40" class="node">
<title>Node40</title>
<g id="a_node40"><a xlink:href="getenv_8c.html#a5d0cf05c2622983111dcfc0f179c5739" target="_top" xlink:title=" ">
<polygon fill="none" stroke="black" points="492,-228.5 492,-247.5 568,-247.5 568,-228.5 492,-228.5"/>
<text text-anchor="middle" x="530" y="-235.5" font-family="Helvetica,sans-Serif" font-size="10.00">search_path</text>
</a>
</g>
</g>
<!-- Node33&#45;&gt;Node40 -->
<g id="edge52" class="edge">
<title>Node33&#45;&gt;Node40</title>
<path fill="none" stroke="midnightblue" d="M396.32,-342.5C405.15,-339 413.98,-334.3 421,-328 447.33,-304.37 429.48,-279.24 457,-257 464.24,-251.15 473.09,-247.09 482.09,-244.27"/>
<polygon fill="midnightblue" stroke="midnightblue" points="483.07,-247.63 491.84,-241.68 481.27,-240.87 483.07,-247.63"/>
</g>
<!-- Node34&#45;&gt;Node35 -->
<g id="edge45" class="edge">
<title>Node34&#45;&gt;Node35</title>
<path fill="none" stroke="midnightblue" d="M580.94,-352C599.89,-352 621.54,-352 640.81,-352"/>
<polygon fill="midnightblue" stroke="midnightblue" points="640.95,-355.5 650.95,-352 640.95,-348.5 640.95,-355.5"/>
</g>
<!-- Node38 -->
<g id="node38" class="node">
<title>Node38</title>
<g id="a_node38"><a xlink:href="env__utils_8c.html#a7cc35c974bce053dbba1c1ec1028f36b" target="_top" xlink:title=" ">
<polygon fill="none" stroke="black" points="657,-304.5 657,-323.5 734,-323.5 734,-304.5 657,-304.5"/>
<text text-anchor="middle" x="695.5" y="-311.5" font-family="Helvetica,sans-Serif" font-size="10.00">env_lst_size</text>
</a>
</g>
</g>
<!-- Node37&#45;&gt;Node38 -->
<g id="edge49" class="edge">
<title>Node37&#45;&gt;Node38</title>
<path fill="none" stroke="midnightblue" d="M574.39,-314C596.62,-314 623.75,-314 646.59,-314"/>
<polygon fill="midnightblue" stroke="midnightblue" points="646.76,-317.5 656.76,-314 646.76,-310.5 646.76,-317.5"/>
</g>
<!-- Node39 -->
<g id="node39" class="node">
<title>Node39</title>
<g id="a_node39"><a xlink:href="getenv_8c.html#a0250cce1862c20e31d0c0ece960bc3a0" target="_top" xlink:title=" ">
<polygon fill="none" stroke="black" points="664.5,-266.5 664.5,-285.5 726.5,-285.5 726.5,-266.5 664.5,-266.5"/>
<text text-anchor="middle" x="695.5" y="-273.5" font-family="Helvetica,sans-Serif" font-size="10.00">join_path</text>
</a>
</g>
</g>
<!-- Node37&#45;&gt;Node39 -->
<g id="edge50" class="edge">
<title>Node37&#45;&gt;Node39</title>
<path fill="none" stroke="midnightblue" d="M572.26,-304.41C597.45,-298.56 629.51,-291.11 654.47,-285.3"/>
<polygon fill="midnightblue" stroke="midnightblue" points="655.4,-288.68 664.35,-283.01 653.82,-281.86 655.4,-288.68"/>
</g>
<!-- Node40&#45;&gt;Node18 -->
<g id="edge54" class="edge">
<title>Node40&#45;&gt;Node18</title>
<path fill="none" stroke="midnightblue" d="M568.26,-235.73C620.89,-232.52 717.61,-226.62 780.98,-222.75"/>
<polygon fill="midnightblue" stroke="midnightblue" points="781.47,-226.23 791.24,-222.13 781.05,-219.24 781.47,-226.23"/>
</g>
<!-- Node40&#45;&gt;Node39 -->
<g id="edge53" class="edge">
<title>Node40&#45;&gt;Node39</title>
<path fill="none" stroke="midnightblue" d="M568.1,-246.62C593.8,-252.6 628,-260.54 654.34,-266.67"/>
<polygon fill="midnightblue" stroke="midnightblue" points="653.84,-270.14 664.38,-269 655.43,-263.33 653.84,-270.14"/>
</g>
<!-- Node41&#45;&gt;Node3 -->
<g id="edge57" class="edge">
<title>Node41&#45;&gt;Node3</title>
<path fill="none" stroke="midnightblue" d="M421.1,-823.13C503.68,-815.41 649.36,-792.41 752,-724 787.04,-700.65 816.26,-660.06 831.38,-636.46"/>
<polygon fill="midnightblue" stroke="midnightblue" points="834.48,-638.1 836.81,-627.77 828.55,-634.4 834.48,-638.1"/>
</g>
<!-- Node42 -->
<g id="node42" class="node">
<title>Node42</title>
<g id="a_node42"><a xlink:href="redirection__verification_8c.html#a95641b4885e9c0b07b477846c96c0d2f" target="_top" xlink:title="we have to check if the file exist then if we are allowed to open it in any error case we write a mes...">
<polygon fill="none" stroke="black" points="481,-836.5 481,-855.5 579,-855.5 579,-836.5 481,-836.5"/>
<text text-anchor="middle" x="530" y="-843.5" font-family="Helvetica,sans-Serif" font-size="10.00">infile_redirection</text>
</a>
</g>
</g>
<!-- Node41&#45;&gt;Node42 -->
<g id="edge58" class="edge">
<title>Node41&#45;&gt;Node42</title>
<path fill="none" stroke="midnightblue" d="M421.36,-834.07C437.53,-835.87 454.82,-837.78 470.7,-839.54"/>
<polygon fill="midnightblue" stroke="midnightblue" points="470.58,-843.05 480.9,-840.67 471.35,-836.09 470.58,-843.05"/>
</g>
<!-- Node44 -->
<g id="node44" class="node">
<title>Node44</title>
<g id="a_node44"><a xlink:href="redirection__verification_8c.html#ac61790fa82f2a9b6b904cd92135b6acb" target="_top" xlink:title="outfile and append are open with the right flags in a case of an error we write a message with the na...">
<polygon fill="none" stroke="black" points="457,-874.5 457,-893.5 603,-893.5 603,-874.5 457,-874.5"/>
<text text-anchor="middle" x="530" y="-881.5" font-family="Helvetica,sans-Serif" font-size="10.00">outfile_append_redirection</text>
</a>
</g>
</g>
<!-- Node41&#45;&gt;Node44 -->
<g id="edge62" class="edge">
<title>Node41&#45;&gt;Node44</title>
<path fill="none" stroke="midnightblue" d="M380.57,-836.62C400.58,-844.76 430.42,-856.44 457,-865 464.44,-867.4 472.38,-869.72 480.18,-871.87"/>
<polygon fill="midnightblue" stroke="midnightblue" points="479.35,-875.27 489.92,-874.5 481.17,-868.52 479.35,-875.27"/>
</g>
<!-- Node42&#45;&gt;Node3 -->
<g id="edge61" class="edge">
<title>Node42&#45;&gt;Node3</title>
<path fill="none" stroke="midnightblue" d="M579.43,-853.72C627.81,-858.69 701.97,-858.53 752,-822 813.91,-776.79 834.18,-679.6 840.2,-637.79"/>
<polygon fill="midnightblue" stroke="midnightblue" points="843.68,-638.14 841.51,-627.77 836.74,-637.23 843.68,-638.14"/>
</g>
<!-- Node43 -->
<g id="node43" class="node">
<title>Node43</title>
<g id="a_node43"><a xlink:href="redirection__verification_8c.html#a5b79f4b52353f6558575b5da0dd28fd4" target="_top" xlink:title="we close the fd_in and fd_out in case of a fail this function is able to manage the error coming from...">
<polygon fill="none" stroke="black" points="652.5,-874.5 652.5,-893.5 738.5,-893.5 738.5,-874.5 652.5,-874.5"/>
<text text-anchor="middle" x="695.5" y="-881.5" font-family="Helvetica,sans-Serif" font-size="10.00">close_fd_error</text>
</a>
</g>
</g>
<!-- Node42&#45;&gt;Node43 -->
<g id="edge59" class="edge">
<title>Node42&#45;&gt;Node43</title>
<path fill="none" stroke="midnightblue" d="M572.26,-855.59C593.93,-860.63 620.68,-866.84 643.63,-872.18"/>
<polygon fill="midnightblue" stroke="midnightblue" points="643.01,-875.63 653.54,-874.48 644.59,-868.81 643.01,-875.63"/>
</g>
<!-- Node43&#45;&gt;Node3 -->
<g id="edge60" class="edge">
<title>Node43&#45;&gt;Node3</title>
<path fill="none" stroke="midnightblue" d="M730.34,-874.46C738.24,-870.94 746.07,-866.24 752,-860 814.12,-794.67 834.48,-682.78 840.36,-637.68"/>
<polygon fill="midnightblue" stroke="midnightblue" points="843.84,-638.08 841.56,-627.73 836.89,-637.24 843.84,-638.08"/>
</g>
<!-- Node44&#45;&gt;Node3 -->
<g id="edge64" class="edge">
<title>Node44&#45;&gt;Node3</title>
<path fill="none" stroke="midnightblue" d="M550.73,-893.56C592.41,-912.22 690.62,-947.91 752,-903 839.04,-839.31 844.41,-691.29 843.34,-637.76"/>
<polygon fill="midnightblue" stroke="midnightblue" points="846.84,-637.47 843.03,-627.58 839.84,-637.68 846.84,-637.47"/>
</g>
<!-- Node44&#45;&gt;Node43 -->
<g id="edge63" class="edge">
<title>Node44&#45;&gt;Node43</title>
<path fill="none" stroke="midnightblue" d="M603.19,-884C616.29,-884 629.72,-884 642.11,-884"/>
<polygon fill="midnightblue" stroke="midnightblue" points="642.25,-887.5 652.25,-884 642.25,-880.5 642.25,-887.5"/>
</g>
</g>
</svg>
