<?xml version="1.0" encoding="UTF-8" standalone="no"?>
<!DOCTYPE svg PUBLIC "-//W3C//DTD SVG 1.1//EN"
 "http://www.w3.org/Graphics/SVG/1.1/DTD/svg11.dtd">
<!-- Generated by graphviz version 2.43.0 (0)
 -->
<!-- Title: one_command_execve Pages: 1 -->
<!--zoomable 534 -->
<svg id="main" version="1.1" xmlns="http://www.w3.org/2000/svg" xmlns:xlink="http://www.w3.org/1999/xlink" xml:space="preserve" onload="init(evt)">
<style type="text/css"><![CDATA[
.edge:hover path { stroke: red; }
.edge:hover polygon { stroke: red; fill: red; }
]]></style>
<script type="text/javascript"><![CDATA[
var edges = document.getElementsByTagName('g');
if (edges && edges.length) {
  for (var i=0;i<edges.length;i++) {
    if (edges[i].id.substr(0,4)=='edge') {
      edges[i].setAttribute('class','edge');
    }
  }
}
]]></script>
        <defs>
                <circle id="rim" cx="0" cy="0" r="7"/>
                <circle id="rim2" cx="0" cy="0" r="3.5"/>
                <g id="zoomPlus">
                        <use xlink:href="#rim" fill="#404040">
                                <set attributeName="fill" to="#808080" begin="zoomplus.mouseover" end="zoomplus.mouseout"/>
                        </use>
                        <path d="M-4,0h8M0,-4v8" fill="none" stroke="white" stroke-width="1.5" pointer-events="none"/>
                </g>
                <g id="zoomMin">
                        <use xlink:href="#rim" fill="#404040">
                                <set attributeName="fill" to="#808080" begin="zoomminus.mouseover" end="zoomminus.mouseout"/>
                        </use>
                        <path d="M-4,0h8" fill="none" stroke="white" stroke-width="1.5" pointer-events="none"/>
                </g>
                <g id="dirArrow">
                        <path fill="none" stroke="white" stroke-width="1.5" d="M0,-3.0v7 M-2.5,-0.5L0,-3.0L2.5,-0.5"/>
                </g>
               <g id="resetDef">
                       <use xlink:href="#rim2" fill="#404040">
                               <set attributeName="fill" to="#808080" begin="reset.mouseover" end="reset.mouseout"/>
                       </use>
               </g>
        </defs>

<script type="text/javascript">
var viewWidth = 809;
var viewHeight = 534;
var sectionId = 'dynsection-9';
</script>
<script xlink:href="svgpan.js"/>
<svg id="graph" class="graph">
<g id="viewport">
<title>one_command_execve</title>
<!-- Node1 -->
<g id="node1" class="node">
<title>Node1</title>
<g id="a_node1"><a xlink:title="in this function we do the fork to create a child process we do the redirection if we need to">
<polygon fill="#bfbfbf" stroke="black" points="0,-354.86 0,-373.86 128,-373.86 128,-354.86 0,-354.86"/>
<text text-anchor="middle" x="64" y="-361.86" font-family="Helvetica,sans-Serif" font-size="10.00">one_command_execve</text>
</a>
</g>
</g>
<!-- Node2 -->
<g id="node2" class="node">
<title>Node2</title>
<g id="a_node2"><a xlink:href="redirection__multipipe_8c.html#a19e2c31eeb0eb25575df2277cbd7774e" target="_top" xlink:title=" ">
<polygon fill="none" stroke="black" points="164,-449.86 164,-468.86 272,-468.86 272,-449.86 164,-449.86"/>
<text text-anchor="middle" x="218" y="-456.86" font-family="Helvetica,sans-Serif" font-size="10.00">command_redirect</text>
</a>
</g>
</g>
<!-- Node1&#45;&gt;Node2 -->
<g id="edge1" class="edge">
<title>Node1&#45;&gt;Node2</title>
<path fill="none" stroke="midnightblue" d="M80.41,-373.99C106.93,-390.56 161.36,-424.59 192.92,-444.31"/>
<polygon fill="midnightblue" stroke="midnightblue" points="191.21,-447.37 201.55,-449.7 194.92,-441.43 191.21,-447.37"/>
</g>
<!-- Node4 -->
<g id="node4" class="node">
<title>Node4</title>
<g id="a_node4"><a xlink:href="redirection__multipipe_8c.html#a1bca6910c90a19d96b36506a2e2cebf6" target="_top" xlink:title="as fd are all setup to &#45;1 at the beginning we check if they are open before trying to close we avoid ...">
<polygon fill="none" stroke="black" points="457.5,-449.86 457.5,-468.86 526.5,-468.86 526.5,-449.86 457.5,-449.86"/>
<text text-anchor="middle" x="492" y="-456.86" font-family="Helvetica,sans-Serif" font-size="10.00">ft_close_fd</text>
</a>
</g>
</g>
<!-- Node1&#45;&gt;Node4 -->
<g id="edge36" class="edge">
<title>Node1&#45;&gt;Node4</title>
<path fill="none" stroke="midnightblue" d="M112.77,-373.88C129.01,-377.03 147.27,-380.46 164,-383.36 272.57,-402.19 303.53,-389.44 409,-421.36 428.4,-427.23 449.1,-436.85 464.85,-444.95"/>
<polygon fill="midnightblue" stroke="midnightblue" points="463.48,-448.18 473.96,-449.74 466.74,-441.99 463.48,-448.18"/>
</g>
<!-- Node6 -->
<g id="node6" class="node">
<title>Node6</title>
<g id="a_node6"><a xlink:href="lst__cmd2_8c.html#a132395876bb5a7cfe926b9e37571a1e3" target="_top" xlink:title=" ">
<polygon fill="none" stroke="black" points="172,-354.86 172,-373.86 264,-373.86 264,-354.86 172,-354.86"/>
<text text-anchor="middle" x="218" y="-361.86" font-family="Helvetica,sans-Serif" font-size="10.00">destructor_cmd</text>
</a>
</g>
</g>
<!-- Node1&#45;&gt;Node6 -->
<g id="edge7" class="edge">
<title>Node1&#45;&gt;Node6</title>
<path fill="none" stroke="midnightblue" d="M128.14,-364.36C139.27,-364.36 150.77,-364.36 161.66,-364.36"/>
<polygon fill="midnightblue" stroke="midnightblue" points="161.89,-367.86 171.89,-364.36 161.89,-360.86 161.89,-367.86"/>
</g>
<!-- Node10 -->
<g id="node10" class="node">
<title>Node10</title>
<g id="a_node10"><a xlink:href="lst__env_8c.html#a226ae0aa054e697998b2ecbc5d61d592" target="_top" xlink:title=" ">
<polygon fill="none" stroke="black" points="173.5,-316.86 173.5,-335.86 262.5,-335.86 262.5,-316.86 173.5,-316.86"/>
<text text-anchor="middle" x="218" y="-323.86" font-family="Helvetica,sans-Serif" font-size="10.00">destructor_env</text>
</a>
</g>
</g>
<!-- Node1&#45;&gt;Node10 -->
<g id="edge11" class="edge">
<title>Node1&#45;&gt;Node10</title>
<path fill="none" stroke="midnightblue" d="M103.36,-354.77C123.32,-349.78 147.93,-343.63 169.13,-338.32"/>
<polygon fill="midnightblue" stroke="midnightblue" points="170.07,-341.7 178.92,-335.88 168.37,-334.91 170.07,-341.7"/>
</g>
<!-- Node12 -->
<g id="node12" class="node">
<title>Node12</title>
<g id="a_node12"><a xlink:href="execution__node_8c.html#a6cfdc545c2222bbb0ca1dfc8431f72a3" target="_top" xlink:title="we are going to execute the command here we have a security about absolute path given =&gt; because it&#39;s...">
<polygon fill="none" stroke="black" points="171.5,-202.86 171.5,-221.86 264.5,-221.86 264.5,-202.86 171.5,-202.86"/>
<text text-anchor="middle" x="218" y="-209.86" font-family="Helvetica,sans-Serif" font-size="10.00">execution_node</text>
</a>
</g>
</g>
<!-- Node1&#45;&gt;Node12 -->
<g id="edge13" class="edge">
<title>Node1&#45;&gt;Node12</title>
<path fill="none" stroke="midnightblue" d="M74.51,-354.85C99.67,-329.69 168.26,-261.09 200.21,-229.15"/>
<polygon fill="midnightblue" stroke="midnightblue" points="202.9,-231.41 207.5,-221.86 197.95,-226.46 202.9,-231.41"/>
</g>
<!-- Node3 -->
<g id="node3" class="node">
<title>Node3</title>
<g id="a_node3"><a xlink:href="redirection__multipipe_8c.html#a3a0d7f695cf53df46301e14ffab77638" target="_top" xlink:title=" ">
<polygon fill="none" stroke="black" points="314,-506.86 314,-525.86 403,-525.86 403,-506.86 314,-506.86"/>
<text text-anchor="middle" x="358.5" y="-513.86" font-family="Helvetica,sans-Serif" font-size="10.00">close_previous</text>
</a>
</g>
</g>
<!-- Node2&#45;&gt;Node3 -->
<g id="edge2" class="edge">
<title>Node2&#45;&gt;Node3</title>
<path fill="none" stroke="midnightblue" d="M242.18,-468.9C264.75,-478.19 299.27,-492.39 324.66,-502.84"/>
<polygon fill="midnightblue" stroke="midnightblue" points="323.66,-506.22 334.24,-506.79 326.33,-499.74 323.66,-506.22"/>
</g>
<!-- Node2&#45;&gt;Node4 -->
<g id="edge6" class="edge">
<title>Node2&#45;&gt;Node4</title>
<path fill="none" stroke="midnightblue" d="M272.09,-459.36C323.22,-459.36 399.64,-459.36 447.34,-459.36"/>
<polygon fill="midnightblue" stroke="midnightblue" points="447.35,-462.86 457.35,-459.36 447.35,-455.86 447.35,-462.86"/>
</g>
<!-- Node5 -->
<g id="node5" class="node">
<title>Node5</title>
<g id="a_node5"><a xlink:href="redirection__multipipe_8c.html#a5b749bc2b4088984c0efe1c479ae6ec8" target="_top" xlink:title=" ">
<polygon fill="none" stroke="black" points="318.5,-430.86 318.5,-449.86 398.5,-449.86 398.5,-430.86 318.5,-430.86"/>
<text text-anchor="middle" x="358.5" y="-437.86" font-family="Helvetica,sans-Serif" font-size="10.00">fail_previous</text>
</a>
</g>
</g>
<!-- Node2&#45;&gt;Node5 -->
<g id="edge4" class="edge">
<title>Node2&#45;&gt;Node5</title>
<path fill="none" stroke="midnightblue" d="M272.15,-452.07C284.07,-450.43 296.66,-448.7 308.41,-447.09"/>
<polygon fill="midnightblue" stroke="midnightblue" points="309.04,-450.54 318.47,-445.71 308.09,-443.6 309.04,-450.54"/>
</g>
<!-- Node3&#45;&gt;Node4 -->
<g id="edge3" class="edge">
<title>Node3&#45;&gt;Node4</title>
<path fill="none" stroke="midnightblue" d="M381.51,-506.82C402.84,-497.57 435.42,-483.45 459.5,-473.01"/>
<polygon fill="midnightblue" stroke="midnightblue" points="461.13,-476.12 468.92,-468.93 458.35,-469.7 461.13,-476.12"/>
</g>
<!-- Node5&#45;&gt;Node4 -->
<g id="edge5" class="edge">
<title>Node5&#45;&gt;Node4</title>
<path fill="none" stroke="midnightblue" d="M398.6,-446.01C413.88,-448.21 431.46,-450.76 447.17,-453.03"/>
<polygon fill="midnightblue" stroke="midnightblue" points="446.78,-456.5 457.17,-454.47 447.78,-449.58 446.78,-456.5"/>
</g>
<!-- Node7 -->
<g id="node7" class="node">
<title>Node7</title>
<g id="a_node7"><a xlink:href="lst__cmd2_8c.html#a8e2b63759f149b547e0d07f210ede9b3" target="_top" xlink:title=" ">
<polygon fill="none" stroke="black" points="328,-354.86 328,-373.86 389,-373.86 389,-354.86 328,-354.86"/>
<text text-anchor="middle" x="358.5" y="-361.86" font-family="Helvetica,sans-Serif" font-size="10.00">pop_cmd</text>
</a>
</g>
</g>
<!-- Node6&#45;&gt;Node7 -->
<g id="edge8" class="edge">
<title>Node6&#45;&gt;Node7</title>
<path fill="none" stroke="midnightblue" d="M264.35,-364.36C281.44,-364.36 300.73,-364.36 317.31,-364.36"/>
<polygon fill="midnightblue" stroke="midnightblue" points="317.77,-367.86 327.77,-364.36 317.77,-360.86 317.77,-367.86"/>
</g>
<!-- Node8 -->
<g id="node8" class="node">
<title>Node8</title>
<g id="a_node8"><a xlink:href="lst__redir2_8c.html#a30ccaf401a4f897e48ead5fe54f4b307" target="_top" xlink:title=" ">
<polygon fill="none" stroke="black" points="445,-354.86 445,-373.86 539,-373.86 539,-354.86 445,-354.86"/>
<text text-anchor="middle" x="492" y="-361.86" font-family="Helvetica,sans-Serif" font-size="10.00">destructor_redir</text>
</a>
</g>
</g>
<!-- Node7&#45;&gt;Node8 -->
<g id="edge9" class="edge">
<title>Node7&#45;&gt;Node8</title>
<path fill="none" stroke="midnightblue" d="M389.01,-364.36C402.49,-364.36 418.93,-364.36 434.63,-364.36"/>
<polygon fill="midnightblue" stroke="midnightblue" points="434.81,-367.86 444.81,-364.36 434.81,-360.86 434.81,-367.86"/>
</g>
<!-- Node9 -->
<g id="node9" class="node">
<title>Node9</title>
<g id="a_node9"><a xlink:href="lst__redir2_8c.html#ade8f0bdda51d9bf348ebeb38fefba881" target="_top" xlink:title=" ">
<polygon fill="none" stroke="black" points="599.5,-354.86 599.5,-373.86 661.5,-373.86 661.5,-354.86 599.5,-354.86"/>
<text text-anchor="middle" x="630.5" y="-361.86" font-family="Helvetica,sans-Serif" font-size="10.00">pop_redir</text>
</a>
</g>
</g>
<!-- Node8&#45;&gt;Node9 -->
<g id="edge10" class="edge">
<title>Node8&#45;&gt;Node9</title>
<path fill="none" stroke="midnightblue" d="M539.21,-364.36C555.3,-364.36 573.22,-364.36 588.82,-364.36"/>
<polygon fill="midnightblue" stroke="midnightblue" points="589.21,-367.86 599.21,-364.36 589.21,-360.86 589.21,-367.86"/>
</g>
<!-- Node11 -->
<g id="node11" class="node">
<title>Node11</title>
<g id="a_node11"><a xlink:href="lst__env_8c.html#a058c245b5f2ef22f9d2659f90e4d3537" target="_top" xlink:title=" ">
<polygon fill="none" stroke="black" points="329.5,-316.86 329.5,-335.86 387.5,-335.86 387.5,-316.86 329.5,-316.86"/>
<text text-anchor="middle" x="358.5" y="-323.86" font-family="Helvetica,sans-Serif" font-size="10.00">pop_env</text>
</a>
</g>
</g>
<!-- Node10&#45;&gt;Node11 -->
<g id="edge12" class="edge">
<title>Node10&#45;&gt;Node11</title>
<path fill="none" stroke="midnightblue" d="M262.82,-326.36C280.8,-326.36 301.44,-326.36 318.85,-326.36"/>
<polygon fill="midnightblue" stroke="midnightblue" points="319.22,-329.86 329.22,-326.36 319.22,-322.86 319.22,-329.86"/>
</g>
<!-- Node13 -->
<g id="node13" class="node">
<title>Node13</title>
<g id="a_node13"><a xlink:href="execution__node_8c.html#a74f4c34ebdc38c1fb50db2aa13f97b66" target="_top" xlink:title=" ">
<polygon fill="none" stroke="black" points="308,-278.86 308,-297.86 409,-297.86 409,-278.86 308,-278.86"/>
<text text-anchor="middle" x="358.5" y="-285.86" font-family="Helvetica,sans-Serif" font-size="10.00">check_accessible</text>
</a>
</g>
</g>
<!-- Node12&#45;&gt;Node13 -->
<g id="edge14" class="edge">
<title>Node12&#45;&gt;Node13</title>
<path fill="none" stroke="midnightblue" d="M234.55,-221.94C252.15,-232.66 281.79,-250.37 308,-264.36 314.23,-267.68 320.98,-271.09 327.45,-274.25"/>
<polygon fill="midnightblue" stroke="midnightblue" points="326.08,-277.47 336.61,-278.67 329.12,-271.17 326.08,-277.47"/>
</g>
<!-- Node14 -->
<g id="node14" class="node">
<title>Node14</title>
<g id="a_node14"><a xlink:href="execution__node_8c.html#adc2c91230d4a0a1a1f98db2a888afcaa" target="_top" xlink:title="error message management for the specific case of execution">
<polygon fill="none" stroke="black" points="447.5,-278.86 447.5,-297.86 536.5,-297.86 536.5,-278.86 447.5,-278.86"/>
<text text-anchor="middle" x="492" y="-285.86" font-family="Helvetica,sans-Serif" font-size="10.00">message_error</text>
</a>
</g>
</g>
<!-- Node12&#45;&gt;Node14 -->
<g id="edge32" class="edge">
<title>Node12&#45;&gt;Node14</title>
<path fill="none" stroke="midnightblue" d="M253.17,-221.91C302.34,-235.64 393.03,-260.99 447.1,-276.09"/>
<polygon fill="midnightblue" stroke="midnightblue" points="446.18,-279.47 456.75,-278.79 448.06,-272.73 446.18,-279.47"/>
</g>
<!-- Node15 -->
<g id="node15" class="node">
<title>Node15</title>
<g id="a_node15"><a xlink:href="execution_8c.html#a3acc0bb56da881cc8609ca9e94ec8e93" target="_top" xlink:title="detect if it&#39;s a builtin with strncmp() but the real question is &quot;is it a builtin I have &#160;to launch i...">
<polygon fill="none" stroke="black" points="322,-202.86 322,-221.86 395,-221.86 395,-202.86 322,-202.86"/>
<text text-anchor="middle" x="358.5" y="-209.86" font-family="Helvetica,sans-Serif" font-size="10.00">is_it_builtin</text>
</a>
</g>
</g>
<!-- Node12&#45;&gt;Node15 -->
<g id="edge16" class="edge">
<title>Node12&#45;&gt;Node15</title>
<path fill="none" stroke="midnightblue" d="M264.73,-212.36C279.84,-212.36 296.65,-212.36 311.76,-212.36"/>
<polygon fill="midnightblue" stroke="midnightblue" points="311.9,-215.86 321.9,-212.36 311.9,-208.86 311.9,-215.86"/>
</g>
<!-- Node16 -->
<g id="node16" class="node">
<title>Node16</title>
<g id="a_node16"><a xlink:href="execution_8c.html#a8b2bd9dba90bfc9b2ead44af5e630315" target="_top" xlink:title="launch the builtin &#160;&#160;some of them are not present because we have to fork() them why ?...">
<polygon fill="none" stroke="black" points="316,-164.86 316,-183.86 401,-183.86 401,-164.86 316,-164.86"/>
<text text-anchor="middle" x="358.5" y="-171.86" font-family="Helvetica,sans-Serif" font-size="10.00">launch_builtin</text>
</a>
</g>
</g>
<!-- Node12&#45;&gt;Node16 -->
<g id="edge17" class="edge">
<title>Node12&#45;&gt;Node16</title>
<path fill="none" stroke="midnightblue" d="M253.95,-202.77C271.83,-197.86 293.79,-191.84 312.88,-186.6"/>
<polygon fill="midnightblue" stroke="midnightblue" points="313.84,-189.97 322.56,-183.94 311.99,-183.21 313.84,-189.97"/>
</g>
<!-- Node27 -->
<g id="node27" class="node">
<title>Node27</title>
<g id="a_node27"><a xlink:href="lst__env__two_8c.html#aafcce0b2f2958645e84ae23b14116680" target="_top" xlink:title=" ">
<polygon fill="none" stroke="black" points="314.5,-50.86 314.5,-69.86 402.5,-69.86 402.5,-50.86 314.5,-50.86"/>
<text text-anchor="middle" x="358.5" y="-57.86" font-family="Helvetica,sans-Serif" font-size="10.00">lst_to_tab_env</text>
</a>
</g>
</g>
<!-- Node12&#45;&gt;Node27 -->
<g id="edge29" class="edge">
<title>Node12&#45;&gt;Node27</title>
<path fill="none" stroke="midnightblue" d="M227.66,-202.85C250.5,-177.79 312.56,-109.67 341.83,-77.55"/>
<polygon fill="midnightblue" stroke="midnightblue" points="344.69,-79.61 348.84,-69.86 339.52,-74.9 344.69,-79.61"/>
</g>
<!-- Node30 -->
<g id="node30" class="node">
<title>Node30</title>
<g id="a_node30"><a xlink:href="getenv_8c.html#a5d0cf05c2622983111dcfc0f179c5739" target="_top" xlink:title=" ">
<polygon fill="none" stroke="black" points="320.5,-12.86 320.5,-31.86 396.5,-31.86 396.5,-12.86 320.5,-12.86"/>
<text text-anchor="middle" x="358.5" y="-19.86" font-family="Helvetica,sans-Serif" font-size="10.00">search_path</text>
</a>
</g>
</g>
<!-- Node12&#45;&gt;Node30 -->
<g id="edge33" class="edge">
<title>Node12&#45;&gt;Node30</title>
<path fill="none" stroke="midnightblue" d="M221.4,-202.72C229.02,-174.06 255.32,-88.38 308,-41.36 309.89,-39.67 311.95,-38.12 314.12,-36.71"/>
<polygon fill="midnightblue" stroke="midnightblue" points="315.82,-39.77 322.9,-31.89 312.45,-33.64 315.82,-39.77"/>
</g>
<!-- Node13&#45;&gt;Node14 -->
<g id="edge15" class="edge">
<title>Node13&#45;&gt;Node14</title>
<path fill="none" stroke="midnightblue" d="M409.21,-288.36C418.3,-288.36 427.83,-288.36 437.03,-288.36"/>
<polygon fill="midnightblue" stroke="midnightblue" points="437.25,-291.86 447.25,-288.36 437.25,-284.86 437.25,-291.86"/>
</g>
<!-- Node17 -->
<g id="node17" class="node">
<title>Node17</title>
<g id="a_node17"><a xlink:href="cd_8c.html#a68ca1d5a8272f17815cfd7394a24ad19" target="_top" xlink:title=" ">
<polygon fill="none" stroke="black" points="477.5,-126.86 477.5,-145.86 506.5,-145.86 506.5,-126.86 477.5,-126.86"/>
<text text-anchor="middle" x="492" y="-133.86" font-family="Helvetica,sans-Serif" font-size="10.00">cd</text>
</a>
</g>
</g>
<!-- Node16&#45;&gt;Node17 -->
<g id="edge18" class="edge">
<title>Node16&#45;&gt;Node17</title>
<path fill="none" stroke="midnightblue" d="M392.68,-164.77C416.11,-158 446.93,-149.09 467.77,-143.07"/>
<polygon fill="midnightblue" stroke="midnightblue" points="468.76,-146.43 477.39,-140.29 466.81,-139.7 468.76,-146.43"/>
</g>
<!-- Node19 -->
<g id="node19" class="node">
<title>Node19</title>
<g id="a_node19"><a xlink:href="env_8c.html#ad7678c59b5365c776294bdeefd3d7583" target="_top" xlink:title=" ">
<polygon fill="none" stroke="black" points="613,-202.86 613,-221.86 648,-221.86 648,-202.86 613,-202.86"/>
<text text-anchor="middle" x="630.5" y="-209.86" font-family="Helvetica,sans-Serif" font-size="10.00">env</text>
</a>
</g>
</g>
<!-- Node16&#45;&gt;Node19 -->
<g id="edge20" class="edge">
<title>Node16&#45;&gt;Node19</title>
<path fill="none" stroke="midnightblue" d="M398.05,-183.92C412.68,-187.29 429.54,-190.85 445,-193.36 500.74,-202.39 566.69,-207.96 602.7,-210.58"/>
<polygon fill="midnightblue" stroke="midnightblue" points="602.66,-214.08 612.88,-211.3 603.15,-207.1 602.66,-214.08"/>
</g>
<!-- Node20 -->
<g id="node20" class="node">
<title>Node20</title>
<g id="a_node20"><a xlink:href="export_8c.html#ab409cd8fcc654b7e32155051ded49ff5" target="_top" xlink:title=" ">
<polygon fill="none" stroke="black" points="468,-164.86 468,-183.86 516,-183.86 516,-164.86 468,-164.86"/>
<text text-anchor="middle" x="492" y="-171.86" font-family="Helvetica,sans-Serif" font-size="10.00">export</text>
</a>
</g>
</g>
<!-- Node16&#45;&gt;Node20 -->
<g id="edge21" class="edge">
<title>Node16&#45;&gt;Node20</title>
<path fill="none" stroke="midnightblue" d="M401.11,-174.36C419.3,-174.36 440.36,-174.36 457.52,-174.36"/>
<polygon fill="midnightblue" stroke="midnightblue" points="457.64,-177.86 467.64,-174.36 457.64,-170.86 457.64,-177.86"/>
</g>
<!-- Node25 -->
<g id="node25" class="node">
<title>Node25</title>
<g id="a_node25"><a xlink:href="my__echo_8c.html#a5522916069f77552d810e207670e3170" target="_top" xlink:title=" ">
<polygon fill="none" stroke="black" points="461.5,-88.86 461.5,-107.86 522.5,-107.86 522.5,-88.86 461.5,-88.86"/>
<text text-anchor="middle" x="492" y="-95.86" font-family="Helvetica,sans-Serif" font-size="10.00">my_echo</text>
</a>
</g>
</g>
<!-- Node16&#45;&gt;Node25 -->
<g id="edge27" class="edge">
<title>Node16&#45;&gt;Node25</title>
<path fill="none" stroke="midnightblue" d="M372.05,-164.85C388.29,-152.8 417.77,-131.88 445,-117.36 448.5,-115.49 452.23,-113.68 455.99,-111.97"/>
<polygon fill="midnightblue" stroke="midnightblue" points="457.5,-115.13 465.28,-107.94 454.71,-108.71 457.5,-115.13"/>
</g>
<!-- Node26 -->
<g id="node26" class="node">
<title>Node26</title>
<g id="a_node26"><a xlink:href="pwd_8c.html#ab62618359287b6604bd60852145b9726" target="_top" xlink:title=" ">
<polygon fill="none" stroke="black" points="473.5,-240.86 473.5,-259.86 510.5,-259.86 510.5,-240.86 473.5,-240.86"/>
<text text-anchor="middle" x="492" y="-247.86" font-family="Helvetica,sans-Serif" font-size="10.00">pwd</text>
</a>
</g>
</g>
<!-- Node16&#45;&gt;Node26 -->
<g id="edge28" class="edge">
<title>Node16&#45;&gt;Node26</title>
<path fill="none" stroke="midnightblue" d="M389.68,-183.87C396.27,-186.51 403.05,-189.68 409,-193.36 427.46,-204.78 427.23,-213.9 445,-226.36 450.95,-230.53 457.71,-234.45 464.19,-237.87"/>
<polygon fill="midnightblue" stroke="midnightblue" points="462.84,-241.11 473.34,-242.49 465.99,-234.86 462.84,-241.11"/>
</g>
<!-- Node18 -->
<g id="node18" class="node">
<title>Node18</title>
<g id="a_node18"><a xlink:href="lst__env__two_8c.html#a4d4a14327b2c3ff88099102b6bd77986" target="_top" xlink:title=" ">
<polygon fill="none" stroke="black" points="578.5,-12.86 578.5,-31.86 682.5,-31.86 682.5,-12.86 578.5,-12.86"/>
<text text-anchor="middle" x="630.5" y="-19.86" font-family="Helvetica,sans-Serif" font-size="10.00">research_key_env</text>
</a>
</g>
</g>
<!-- Node17&#45;&gt;Node18 -->
<g id="edge19" class="edge">
<title>Node17&#45;&gt;Node18</title>
<path fill="none" stroke="midnightblue" d="M506.63,-132.41C516.21,-129.25 529.03,-124.21 539,-117.36 558.17,-104.18 558.96,-96.21 575,-79.36 587.76,-65.95 602.24,-50.81 613.07,-39.5"/>
<polygon fill="midnightblue" stroke="midnightblue" points="615.84,-41.67 620.23,-32.03 610.78,-36.83 615.84,-41.67"/>
</g>
<!-- Node20&#45;&gt;Node19 -->
<g id="edge23" class="edge">
<title>Node20&#45;&gt;Node19</title>
<path fill="none" stroke="midnightblue" d="M516.16,-180.8C540.22,-187.5 577.83,-197.97 603.05,-204.99"/>
<polygon fill="midnightblue" stroke="midnightblue" points="602.13,-208.37 612.7,-207.68 604.01,-201.63 602.13,-208.37"/>
</g>
<!-- Node21 -->
<g id="node21" class="node">
<title>Node21</title>
<g id="a_node21"><a xlink:href="lst__env_8c.html#a9c375db3cbfe2e87b52bae7ee7472eae" target="_top" xlink:title=" ">
<polygon fill="none" stroke="black" points="580.5,-164.86 580.5,-183.86 680.5,-183.86 680.5,-164.86 580.5,-164.86"/>
<text text-anchor="middle" x="630.5" y="-171.86" font-family="Helvetica,sans-Serif" font-size="10.00">create_node_env</text>
</a>
</g>
</g>
<!-- Node20&#45;&gt;Node21 -->
<g id="edge22" class="edge">
<title>Node20&#45;&gt;Node21</title>
<path fill="none" stroke="midnightblue" d="M516.16,-174.36C531.05,-174.36 551.13,-174.36 570.25,-174.36"/>
<polygon fill="midnightblue" stroke="midnightblue" points="570.43,-177.86 580.43,-174.36 570.43,-170.86 570.43,-177.86"/>
</g>
<!-- Node22 -->
<g id="node22" class="node">
<title>Node22</title>
<g id="a_node22"><a xlink:href="lst__env_8c.html#a5976d1b2a8159220749fac94a83d5c95" target="_top" xlink:title=" ">
<polygon fill="none" stroke="black" points="584.5,-126.86 584.5,-145.86 676.5,-145.86 676.5,-126.86 584.5,-126.86"/>
<text text-anchor="middle" x="630.5" y="-133.86" font-family="Helvetica,sans-Serif" font-size="10.00">push_back_env</text>
</a>
</g>
</g>
<!-- Node20&#45;&gt;Node22 -->
<g id="edge24" class="edge">
<title>Node20&#45;&gt;Node22</title>
<path fill="none" stroke="midnightblue" d="M516.16,-167.91C535.04,-162.65 562.26,-155.08 585.29,-148.67"/>
<polygon fill="midnightblue" stroke="midnightblue" points="586.5,-151.96 595.2,-145.91 584.63,-145.22 586.5,-151.96"/>
</g>
<!-- Node24 -->
<g id="node24" class="node">
<title>Node24</title>
<g id="a_node24"><a xlink:href="export_8c.html#a2db1828ad3293b53b14b47a11c636e51" target="_top" xlink:title=" ">
<polygon fill="none" stroke="black" points="575,-88.86 575,-107.86 686,-107.86 686,-88.86 575,-88.86"/>
<text text-anchor="middle" x="630.5" y="-95.86" font-family="Helvetica,sans-Serif" font-size="10.00">research_node_env</text>
</a>
</g>
</g>
<!-- Node20&#45;&gt;Node24 -->
<g id="edge26" class="edge">
<title>Node20&#45;&gt;Node24</title>
<path fill="none" stroke="midnightblue" d="M516.43,-166.87C523.99,-163.9 532.16,-160.06 539,-155.36 558.17,-142.18 555.46,-129.99 575,-117.36 578.08,-115.36 581.4,-113.55 584.83,-111.91"/>
<polygon fill="midnightblue" stroke="midnightblue" points="586.23,-115.11 594.04,-107.95 583.47,-108.68 586.23,-115.11"/>
</g>
<!-- Node23 -->
<g id="node23" class="node">
<title>Node23</title>
<g id="a_node23"><a xlink:href="env__utils_8c.html#ac7b3f84bb622bdf477616c5b0022f035" target="_top" xlink:title=" ">
<polygon fill="none" stroke="black" points="722,-126.86 722,-145.86 801,-145.86 801,-126.86 722,-126.86"/>
<text text-anchor="middle" x="761.5" y="-133.86" font-family="Helvetica,sans-Serif" font-size="10.00">get_last_env</text>
</a>
</g>
</g>
<!-- Node22&#45;&gt;Node23 -->
<g id="edge25" class="edge">
<title>Node22&#45;&gt;Node23</title>
<path fill="none" stroke="midnightblue" d="M676.62,-136.36C687.85,-136.36 699.96,-136.36 711.38,-136.36"/>
<polygon fill="midnightblue" stroke="midnightblue" points="711.63,-139.86 721.63,-136.36 711.63,-132.86 711.63,-139.86"/>
</g>
<!-- Node28 -->
<g id="node28" class="node">
<title>Node28</title>
<g id="a_node28"><a xlink:href="env__utils_8c.html#a7cc35c974bce053dbba1c1ec1028f36b" target="_top" xlink:title=" ">
<polygon fill="none" stroke="black" points="453.5,-50.86 453.5,-69.86 530.5,-69.86 530.5,-50.86 453.5,-50.86"/>
<text text-anchor="middle" x="492" y="-57.86" font-family="Helvetica,sans-Serif" font-size="10.00">env_lst_size</text>
</a>
</g>
</g>
<!-- Node27&#45;&gt;Node28 -->
<g id="edge30" class="edge">
<title>Node27&#45;&gt;Node28</title>
<path fill="none" stroke="midnightblue" d="M402.56,-60.36C415.44,-60.36 429.65,-60.36 442.84,-60.36"/>
<polygon fill="midnightblue" stroke="midnightblue" points="443.16,-63.86 453.16,-60.36 443.16,-56.86 443.16,-63.86"/>
</g>
<!-- Node29 -->
<g id="node29" class="node">
<title>Node29</title>
<g id="a_node29"><a xlink:href="getenv_8c.html#a0250cce1862c20e31d0c0ece960bc3a0" target="_top" xlink:title=" ">
<polygon fill="none" stroke="black" points="461,-12.86 461,-31.86 523,-31.86 523,-12.86 461,-12.86"/>
<text text-anchor="middle" x="492" y="-19.86" font-family="Helvetica,sans-Serif" font-size="10.00">join_path</text>
</a>
</g>
</g>
<!-- Node27&#45;&gt;Node29 -->
<g id="edge31" class="edge">
<title>Node27&#45;&gt;Node29</title>
<path fill="none" stroke="midnightblue" d="M392.68,-50.77C410.48,-45.63 432.54,-39.25 451.26,-33.84"/>
<polygon fill="midnightblue" stroke="midnightblue" points="452.34,-37.17 460.98,-31.03 450.4,-30.45 452.34,-37.17"/>
</g>
<!-- Node30&#45;&gt;Node18 -->
<g id="edge35" class="edge">
<title>Node30&#45;&gt;Node18</title>
<path fill="none" stroke="midnightblue" d="M394.15,-12.85C409.59,-9.09 428.07,-5.22 445,-3.36 486.53,1.2 497.45,0.96 539,-3.36 553.39,-4.85 568.87,-7.65 582.88,-10.65"/>
<polygon fill="midnightblue" stroke="midnightblue" points="582.27,-14.1 592.79,-12.85 583.78,-7.26 582.27,-14.1"/>
</g>
<!-- Node30&#45;&gt;Node29 -->
<g id="edge34" class="edge">
<title>Node30&#45;&gt;Node29</title>
<path fill="none" stroke="midnightblue" d="M396.83,-22.36C413.56,-22.36 433.32,-22.36 450.41,-22.36"/>
<polygon fill="midnightblue" stroke="midnightblue" points="450.66,-25.86 460.66,-22.36 450.66,-18.86 450.66,-25.86"/>
</g>
</g>
</svg>
        <g id="navigator" transform="translate(0 0)" fill="#404254">
                <rect fill="#f2f5e9" fill-opacity="0.5" stroke="#606060" stroke-width=".5" x="0" y="0" width="60" height="60"/>
                <use id="zoomplus" xlink:href="#zoomPlus" x="17" y="9" onmousedown="handleZoom(evt,'in')"/>
                <use id="zoomminus" xlink:href="#zoomMin" x="42" y="9" onmousedown="handleZoom(evt,'out')"/>
                <use id="reset" xlink:href="#resetDef" x="30" y="36" onmousedown="handleReset()"/>
                <g id="arrowUp" xlink:href="#dirArrow" transform="translate(30 24)" onmousedown="handlePan(0,-1)">
                  <use xlink:href="#rim" fill="#404040">
                        <set attributeName="fill" to="#808080" begin="arrowUp.mouseover" end="arrowUp.mouseout"/>
                  </use>
                  <path fill="none" stroke="white" stroke-width="1.5" d="M0,-3.0v7 M-2.5,-0.5L0,-3.0L2.5,-0.5"/>
                </g>
                <g id="arrowRight" xlink:href="#dirArrow" transform="rotate(90) translate(36 -43)" onmousedown="handlePan(1,0)">
                  <use xlink:href="#rim" fill="#404040">
                        <set attributeName="fill" to="#808080" begin="arrowRight.mouseover" end="arrowRight.mouseout"/>
                  </use>
                  <path fill="none" stroke="white" stroke-width="1.5" d="M0,-3.0v7 M-2.5,-0.5L0,-3.0L2.5,-0.5"/>
                </g>
                <g id="arrowDown" xlink:href="#dirArrow" transform="rotate(180) translate(-30 -48)" onmousedown="handlePan(0,1)">
                  <use xlink:href="#rim" fill="#404040">
                        <set attributeName="fill" to="#808080" begin="arrowDown.mouseover" end="arrowDown.mouseout"/>
                  </use>
                  <path fill="none" stroke="white" stroke-width="1.5" d="M0,-3.0v7 M-2.5,-0.5L0,-3.0L2.5,-0.5"/>
                </g>
                <g id="arrowLeft" xlink:href="#dirArrow" transform="rotate(270) translate(-36 17)" onmousedown="handlePan(-1,0)">
                  <use xlink:href="#rim" fill="#404040">
                        <set attributeName="fill" to="#808080" begin="arrowLeft.mouseover" end="arrowLeft.mouseout"/>
                  </use>
                  <path fill="none" stroke="white" stroke-width="1.5" d="M0,-3.0v7 M-2.5,-0.5L0,-3.0L2.5,-0.5"/>
                </g>
        </g>
        <svg viewBox="0 0 15 15" width="100%" height="30px" preserveAspectRatio="xMaxYMin meet">
         <g id="arrow_out" transform="scale(0.3 0.3)">
          <a xlink:href="execution_8c_ac70faaedddc427b5051b808a8de40da4_cgraph_org.svg" target="_base">
           <rect id="button" ry="5" rx="5" y="6" x="6" height="38" width="38"
                fill="#f2f5e9" fill-opacity="0.5" stroke="#606060" stroke-width="1.0"/>
           <path id="arrow"
             d="M 11.500037,31.436501 C 11.940474,20.09759 22.043105,11.32322 32.158766,21.979434 L 37.068811,17.246167 C 37.068811,17.246167 37.088388,32 37.088388,32 L 22.160133,31.978069 C 22.160133,31.978069 26.997745,27.140456 26.997745,27.140456 C 18.528582,18.264221 13.291696,25.230495 11.500037,31.436501 z"
             style="fill:#404040;"/>
          </a>
         </g>
        </svg>
</svg>
