<?xml version="1.0" encoding="UTF-8" standalone="no"?>
<!DOCTYPE svg PUBLIC "-//W3C//DTD SVG 1.1//EN"
 "http://www.w3.org/Graphics/SVG/1.1/DTD/svg11.dtd">
<!-- Generated by graphviz version 2.43.0 (0)
 -->
<!-- Title: message_error Pages: 1 -->
<svg width="1018pt" height="66pt"
 viewBox="0.00 0.00 1018.00 66.00" xmlns="http://www.w3.org/2000/svg" xmlns:xlink="http://www.w3.org/1999/xlink">
<g id="graph0" class="graph" transform="scale(1 1) rotate(0) translate(4 62)">
<title>message_error</title>
<!-- Node1 -->
<g id="node1" class="node">
<title>Node1</title>
<g id="a_node1"><a xlink:title="error message management for the specific case of execution">
<polygon fill="#bfbfbf" stroke="black" points="921,-19.5 921,-38.5 1010,-38.5 1010,-19.5 921,-19.5"/>
<text text-anchor="middle" x="965.5" y="-26.5" font-family="Helvetica,sans-Serif" font-size="10.00">message_error</text>
</a>
</g>
</g>
<!-- Node2 -->
<g id="node2" class="node">
<title>Node2</title>
<g id="a_node2"><a xlink:href="execution__node_8c.html#a74f4c34ebdc38c1fb50db2aa13f97b66" target="_top" xlink:title=" ">
<polygon fill="none" stroke="black" points="784,-38.5 784,-57.5 885,-57.5 885,-38.5 784,-38.5"/>
<text text-anchor="middle" x="834.5" y="-45.5" font-family="Helvetica,sans-Serif" font-size="10.00">check_accessible</text>
</a>
</g>
</g>
<!-- Node1&#45;&gt;Node2 -->
<g id="edge1" class="edge">
<title>Node1&#45;&gt;Node2</title>
<path fill="none" stroke="midnightblue" d="M910.73,-36.92C902.33,-38.16 893.67,-39.43 885.35,-40.66"/>
<polygon fill="midnightblue" stroke="midnightblue" points="911.44,-40.35 920.83,-35.43 910.42,-33.43 911.44,-40.35"/>
</g>
<!-- Node3 -->
<g id="node3" class="node">
<title>Node3</title>
<g id="a_node3"><a xlink:href="execution__node_8c.html#adda76b40c34c18ec83b1d98700083f8a" target="_top" xlink:title="we are going to execute the command here we have a security about absolute path given =&gt; because it&#39;s...">
<polygon fill="none" stroke="black" points="655,-19.5 655,-38.5 748,-38.5 748,-19.5 655,-19.5"/>
<text text-anchor="middle" x="701.5" y="-26.5" font-family="Helvetica,sans-Serif" font-size="10.00">execution_node</text>
</a>
</g>
</g>
<!-- Node1&#45;&gt;Node3 -->
<g id="edge11" class="edge">
<title>Node1&#45;&gt;Node3</title>
<path fill="none" stroke="midnightblue" d="M910.77,-29C862.92,-29 793.67,-29 748.37,-29"/>
<polygon fill="midnightblue" stroke="midnightblue" points="910.94,-32.5 920.94,-29 910.94,-25.5 910.94,-32.5"/>
</g>
<!-- Node2&#45;&gt;Node3 -->
<g id="edge2" class="edge">
<title>Node2&#45;&gt;Node3</title>
<path fill="none" stroke="midnightblue" d="M773.93,-39.36C765.3,-38.11 756.52,-36.83 748.21,-35.63"/>
<polygon fill="midnightblue" stroke="midnightblue" points="773.58,-42.85 783.97,-40.82 774.58,-35.92 773.58,-42.85"/>
</g>
<!-- Node4 -->
<g id="node4" class="node">
<title>Node4</title>
<g id="a_node4"><a xlink:href="multipipe_8c.html#a461ae962ce9a1aee7221ac4b9c581f98" target="_top" xlink:title=" ">
<polygon fill="none" stroke="black" points="513.5,-38.5 513.5,-57.5 596.5,-57.5 596.5,-38.5 513.5,-38.5"/>
<text text-anchor="middle" x="555" y="-45.5" font-family="Helvetica,sans-Serif" font-size="10.00">execute_child</text>
</a>
</g>
</g>
<!-- Node3&#45;&gt;Node4 -->
<g id="edge3" class="edge">
<title>Node3&#45;&gt;Node4</title>
<path fill="none" stroke="midnightblue" d="M644.47,-36.37C628.5,-38.47 611.4,-40.72 596.54,-42.67"/>
<polygon fill="midnightblue" stroke="midnightblue" points="645.32,-39.79 654.78,-35.01 644.41,-32.85 645.32,-39.79"/>
</g>
<!-- Node9 -->
<g id="node9" class="node">
<title>Node9</title>
<g id="a_node9"><a xlink:href="execution_8c.html#aa6f3ac2f0c10538c125eafcb587fd021" target="_top" xlink:title="in this function we do the fork to create a child process we do the redirection if we need to">
<polygon fill="none" stroke="black" points="491,-0.5 491,-19.5 619,-19.5 619,-0.5 491,-0.5"/>
<text text-anchor="middle" x="555" y="-7.5" font-family="Helvetica,sans-Serif" font-size="10.00">one_command_execve</text>
</a>
</g>
</g>
<!-- Node3&#45;&gt;Node9 -->
<g id="edge8" class="edge">
<title>Node3&#45;&gt;Node9</title>
<path fill="none" stroke="midnightblue" d="M644.74,-21.67C636.35,-20.56 627.65,-19.42 619.12,-18.3"/>
<polygon fill="midnightblue" stroke="midnightblue" points="644.41,-25.15 654.78,-22.99 645.32,-18.21 644.41,-25.15"/>
</g>
<!-- Node5 -->
<g id="node5" class="node">
<title>Node5</title>
<g id="a_node5"><a xlink:href="multipipe_8c.html#af31c329200501f497cd102a470450103" target="_top" xlink:title="it&#39;s where the fork happen and sent to be execute">
<polygon fill="none" stroke="black" points="297,-38.5 297,-57.5 455,-57.5 455,-38.5 297,-38.5"/>
<text text-anchor="middle" x="376" y="-45.5" font-family="Helvetica,sans-Serif" font-size="10.00">multipipe_intermediary_cmd</text>
</a>
</g>
</g>
<!-- Node4&#45;&gt;Node5 -->
<g id="edge4" class="edge">
<title>Node4&#45;&gt;Node5</title>
<path fill="none" stroke="midnightblue" d="M503.29,-48C488.24,-48 471.4,-48 455.04,-48"/>
<polygon fill="midnightblue" stroke="midnightblue" points="503.39,-51.5 513.39,-48 503.39,-44.5 503.39,-51.5"/>
</g>
<!-- Node6 -->
<g id="node6" class="node">
<title>Node6</title>
<g id="a_node6"><a xlink:href="multipipe_8c.html#aa4f1c217eeb689ecbc622baecd2c5dec" target="_top" xlink:title="management of the multipipe (= name when we have at least one pipe) First step is to manage the hered...">
<polygon fill="none" stroke="black" points="172,-38.5 172,-57.5 261,-57.5 261,-38.5 172,-38.5"/>
<text text-anchor="middle" x="216.5" y="-45.5" font-family="Helvetica,sans-Serif" font-size="10.00">multipipe_cmd</text>
</a>
</g>
</g>
<!-- Node5&#45;&gt;Node6 -->
<g id="edge5" class="edge">
<title>Node5&#45;&gt;Node6</title>
<path fill="none" stroke="midnightblue" d="M286.44,-48C277.73,-48 269.19,-48 261.24,-48"/>
<polygon fill="midnightblue" stroke="midnightblue" points="286.71,-51.5 296.71,-48 286.71,-44.5 286.71,-51.5"/>
</g>
<!-- Node7 -->
<g id="node7" class="node">
<title>Node7</title>
<g id="a_node7"><a xlink:href="execution_8c.html#a9542b61daba3eb4d45c8887c5648b2f6" target="_top" xlink:title="first function of the execution part when we have something to do we have to deal with two cases ; if...">
<polygon fill="none" stroke="black" points="77,-19.5 77,-38.5 136,-38.5 136,-19.5 77,-19.5"/>
<text text-anchor="middle" x="106.5" y="-26.5" font-family="Helvetica,sans-Serif" font-size="10.00">executor</text>
</a>
</g>
</g>
<!-- Node6&#45;&gt;Node7 -->
<g id="edge6" class="edge">
<title>Node6&#45;&gt;Node7</title>
<path fill="none" stroke="midnightblue" d="M161.88,-38.57C152.97,-37 144.05,-35.43 136.08,-34.03"/>
<polygon fill="midnightblue" stroke="midnightblue" points="161.43,-42.04 171.88,-40.33 162.64,-35.15 161.43,-42.04"/>
</g>
<!-- Node8 -->
<g id="node8" class="node">
<title>Node8</title>
<g id="a_node8"><a xlink:href="main_8c.html#a647f21a28344e1d9c643f4115516d7c9" target="_top" xlink:title=" ">
<polygon fill="none" stroke="black" points="0,-19.5 0,-38.5 41,-38.5 41,-19.5 0,-19.5"/>
<text text-anchor="middle" x="20.5" y="-26.5" font-family="Helvetica,sans-Serif" font-size="10.00">main</text>
</a>
</g>
</g>
<!-- Node7&#45;&gt;Node8 -->
<g id="edge7" class="edge">
<title>Node7&#45;&gt;Node8</title>
<path fill="none" stroke="midnightblue" d="M66.48,-29C57.72,-29 48.78,-29 41.21,-29"/>
<polygon fill="midnightblue" stroke="midnightblue" points="66.59,-32.5 76.59,-29 66.59,-25.5 66.59,-32.5"/>
</g>
<!-- Node10 -->
<g id="node10" class="node">
<title>Node10</title>
<g id="a_node10"><a xlink:href="execution_8c.html#a38335028b2bc7aa436f8f79a3753ce5e" target="_top" xlink:title="here we check if it&#39;s a builtin where we have to fork or not we still need to do the redirection veri...">
<polygon fill="none" stroke="black" points="172,-0.5 172,-19.5 261,-19.5 261,-0.5 172,-0.5"/>
<text text-anchor="middle" x="216.5" y="-7.5" font-family="Helvetica,sans-Serif" font-size="10.00">one_command</text>
</a>
</g>
</g>
<!-- Node9&#45;&gt;Node10 -->
<g id="edge9" class="edge">
<title>Node9&#45;&gt;Node10</title>
<path fill="none" stroke="midnightblue" d="M480.64,-10C413.64,-10 316.84,-10 261.23,-10"/>
<polygon fill="midnightblue" stroke="midnightblue" points="480.71,-13.5 490.71,-10 480.71,-6.5 480.71,-13.5"/>
</g>
<!-- Node10&#45;&gt;Node7 -->
<g id="edge10" class="edge">
<title>Node10&#45;&gt;Node7</title>
<path fill="none" stroke="midnightblue" d="M161.88,-19.43C152.97,-21 144.05,-22.57 136.08,-23.97"/>
<polygon fill="midnightblue" stroke="midnightblue" points="162.64,-22.85 171.88,-17.67 161.43,-15.96 162.64,-22.85"/>
</g>
</g>
</svg>
