<?xml version="1.0" encoding="UTF-8" standalone="no"?>
<!DOCTYPE svg PUBLIC "-//W3C//DTD SVG 1.1//EN"
 "http://www.w3.org/Graphics/SVG/1.1/DTD/svg11.dtd">
<!-- Generated by graphviz version 2.43.0 (0)
 -->
<!-- Title: launch_builtin Pages: 1 -->
<svg width="452pt" height="180pt"
 viewBox="0.00 0.00 452.00 180.00" xmlns="http://www.w3.org/2000/svg" xmlns:xlink="http://www.w3.org/1999/xlink">
<g id="graph0" class="graph" transform="scale(1 1) rotate(0) translate(4 176)">
<title>launch_builtin</title>
<!-- Node1 -->
<g id="node1" class="node">
<title>Node1</title>
<g id="a_node1"><a xlink:title="launch the builtin &#160;&#160;some of them are not present because we have to fork() them why ?...">
<polygon fill="#bfbfbf" stroke="black" points="0,-76.5 0,-95.5 85,-95.5 85,-76.5 0,-76.5"/>
<text text-anchor="middle" x="42.5" y="-83.5" font-family="Helvetica,sans-Serif" font-size="10.00">launch_builtin</text>
</a>
</g>
</g>
<!-- Node2 -->
<g id="node2" class="node">
<title>Node2</title>
<g id="a_node2"><a xlink:href="cd_8c.html#a68ca1d5a8272f17815cfd7394a24ad19" target="_top" xlink:title=" ">
<polygon fill="none" stroke="black" points="137,-152.5 137,-171.5 166,-171.5 166,-152.5 137,-152.5"/>
<text text-anchor="middle" x="151.5" y="-159.5" font-family="Helvetica,sans-Serif" font-size="10.00">cd</text>
</a>
</g>
</g>
<!-- Node1&#45;&gt;Node2 -->
<g id="edge1" class="edge">
<title>Node1&#45;&gt;Node2</title>
<path fill="none" stroke="midnightblue" d="M57.05,-95.63C75.14,-108.47 107.39,-131.38 128.86,-146.63"/>
<polygon fill="midnightblue" stroke="midnightblue" points="126.88,-149.52 137.06,-152.45 130.93,-143.81 126.88,-149.52"/>
</g>
<!-- Node4 -->
<g id="node4" class="node">
<title>Node4</title>
<g id="a_node4"><a xlink:href="env_8c.html#ad7678c59b5365c776294bdeefd3d7583" target="_top" xlink:title=" ">
<polygon fill="none" stroke="black" points="256,-114.5 256,-133.5 291,-133.5 291,-114.5 256,-114.5"/>
<text text-anchor="middle" x="273.5" y="-121.5" font-family="Helvetica,sans-Serif" font-size="10.00">env</text>
</a>
</g>
</g>
<!-- Node1&#45;&gt;Node4 -->
<g id="edge3" class="edge">
<title>Node1&#45;&gt;Node4</title>
<path fill="none" stroke="midnightblue" d="M78.81,-95.57C91.98,-98.9 107.1,-102.43 121,-105 164.18,-112.97 214.92,-118.58 245.35,-121.55"/>
<polygon fill="midnightblue" stroke="midnightblue" points="245.3,-125.06 255.59,-122.52 245.96,-118.09 245.3,-125.06"/>
</g>
<!-- Node5 -->
<g id="node5" class="node">
<title>Node5</title>
<g id="a_node5"><a xlink:href="export_8c.html#ab409cd8fcc654b7e32155051ded49ff5" target="_top" xlink:title=" ">
<polygon fill="none" stroke="black" points="127.5,-76.5 127.5,-95.5 175.5,-95.5 175.5,-76.5 127.5,-76.5"/>
<text text-anchor="middle" x="151.5" y="-83.5" font-family="Helvetica,sans-Serif" font-size="10.00">export</text>
</a>
</g>
</g>
<!-- Node1&#45;&gt;Node5 -->
<g id="edge4" class="edge">
<title>Node1&#45;&gt;Node5</title>
<path fill="none" stroke="midnightblue" d="M85.18,-86C95.8,-86 107.08,-86 117.23,-86"/>
<polygon fill="midnightblue" stroke="midnightblue" points="117.31,-89.5 127.31,-86 117.31,-82.5 117.31,-89.5"/>
</g>
<!-- Node10 -->
<g id="node10" class="node">
<title>Node10</title>
<g id="a_node10"><a xlink:href="my__echo_8c.html#a5522916069f77552d810e207670e3170" target="_top" xlink:title=" ">
<polygon fill="none" stroke="black" points="121,-38.5 121,-57.5 182,-57.5 182,-38.5 121,-38.5"/>
<text text-anchor="middle" x="151.5" y="-45.5" font-family="Helvetica,sans-Serif" font-size="10.00">my_echo</text>
</a>
</g>
</g>
<!-- Node1&#45;&gt;Node10 -->
<g id="edge10" class="edge">
<title>Node1&#45;&gt;Node10</title>
<path fill="none" stroke="midnightblue" d="M70.5,-76.41C83.68,-71.73 99.73,-66.03 113.98,-60.97"/>
<polygon fill="midnightblue" stroke="midnightblue" points="115.26,-64.23 123.51,-57.59 112.91,-57.63 115.26,-64.23"/>
</g>
<!-- Node11 -->
<g id="node11" class="node">
<title>Node11</title>
<g id="a_node11"><a xlink:href="pwd_8c.html#ab62618359287b6604bd60852145b9726" target="_top" xlink:title=" ">
<polygon fill="none" stroke="black" points="133,-0.5 133,-19.5 170,-19.5 170,-0.5 133,-0.5"/>
<text text-anchor="middle" x="151.5" y="-7.5" font-family="Helvetica,sans-Serif" font-size="10.00">pwd</text>
</a>
</g>
</g>
<!-- Node1&#45;&gt;Node11 -->
<g id="edge11" class="edge">
<title>Node1&#45;&gt;Node11</title>
<path fill="none" stroke="midnightblue" d="M55.95,-76.48C71.11,-64.96 97.62,-45.11 121,-29 122.83,-27.74 124.75,-26.45 126.68,-25.16"/>
<polygon fill="midnightblue" stroke="midnightblue" points="128.61,-28.08 135.07,-19.68 124.78,-22.22 128.61,-28.08"/>
</g>
<!-- Node3 -->
<g id="node3" class="node">
<title>Node3</title>
<g id="a_node3"><a xlink:href="lst__env__two_8c.html#a4d4a14327b2c3ff88099102b6bd77986" target="_top" xlink:title=" ">
<polygon fill="none" stroke="black" points="221.5,-152.5 221.5,-171.5 325.5,-171.5 325.5,-152.5 221.5,-152.5"/>
<text text-anchor="middle" x="273.5" y="-159.5" font-family="Helvetica,sans-Serif" font-size="10.00">research_key_env</text>
</a>
</g>
</g>
<!-- Node2&#45;&gt;Node3 -->
<g id="edge2" class="edge">
<title>Node2&#45;&gt;Node3</title>
<path fill="none" stroke="midnightblue" d="M166.27,-162C177.48,-162 194.17,-162 211.01,-162"/>
<polygon fill="midnightblue" stroke="midnightblue" points="211.47,-165.5 221.47,-162 211.47,-158.5 211.47,-165.5"/>
</g>
<!-- Node5&#45;&gt;Node4 -->
<g id="edge6" class="edge">
<title>Node5&#45;&gt;Node4</title>
<path fill="none" stroke="midnightblue" d="M175.64,-93.33C195.89,-99.74 225.29,-109.05 246.38,-115.73"/>
<polygon fill="midnightblue" stroke="midnightblue" points="245.4,-119.09 255.99,-118.77 247.51,-112.42 245.4,-119.09"/>
</g>
<!-- Node6 -->
<g id="node6" class="node">
<title>Node6</title>
<g id="a_node6"><a xlink:href="lst__env_8c.html#a9c375db3cbfe2e87b52bae7ee7472eae" target="_top" xlink:title=" ">
<polygon fill="none" stroke="black" points="223.5,-76.5 223.5,-95.5 323.5,-95.5 323.5,-76.5 223.5,-76.5"/>
<text text-anchor="middle" x="273.5" y="-83.5" font-family="Helvetica,sans-Serif" font-size="10.00">create_node_env</text>
</a>
</g>
</g>
<!-- Node5&#45;&gt;Node6 -->
<g id="edge5" class="edge">
<title>Node5&#45;&gt;Node6</title>
<path fill="none" stroke="midnightblue" d="M175.64,-86C186.38,-86 199.7,-86 212.99,-86"/>
<polygon fill="midnightblue" stroke="midnightblue" points="213.11,-89.5 223.11,-86 213.11,-82.5 213.11,-89.5"/>
</g>
<!-- Node7 -->
<g id="node7" class="node">
<title>Node7</title>
<g id="a_node7"><a xlink:href="lst__env_8c.html#a5976d1b2a8159220749fac94a83d5c95" target="_top" xlink:title=" ">
<polygon fill="none" stroke="black" points="227.5,-38.5 227.5,-57.5 319.5,-57.5 319.5,-38.5 227.5,-38.5"/>
<text text-anchor="middle" x="273.5" y="-45.5" font-family="Helvetica,sans-Serif" font-size="10.00">push_back_env</text>
</a>
</g>
</g>
<!-- Node5&#45;&gt;Node7 -->
<g id="edge7" class="edge">
<title>Node5&#45;&gt;Node7</title>
<path fill="none" stroke="midnightblue" d="M175.64,-78.67C191.76,-73.57 213.68,-66.63 232.59,-60.64"/>
<polygon fill="midnightblue" stroke="midnightblue" points="233.68,-63.96 242.16,-57.61 231.57,-57.29 233.68,-63.96"/>
</g>
<!-- Node9 -->
<g id="node9" class="node">
<title>Node9</title>
<g id="a_node9"><a xlink:href="export_8c.html#a2db1828ad3293b53b14b47a11c636e51" target="_top" xlink:title=" ">
<polygon fill="none" stroke="black" points="218,-0.5 218,-19.5 329,-19.5 329,-0.5 218,-0.5"/>
<text text-anchor="middle" x="273.5" y="-7.5" font-family="Helvetica,sans-Serif" font-size="10.00">research_node_env</text>
</a>
</g>
</g>
<!-- Node5&#45;&gt;Node9 -->
<g id="edge9" class="edge">
<title>Node5&#45;&gt;Node9</title>
<path fill="none" stroke="midnightblue" d="M168.91,-76.42C173.31,-73.59 177.97,-70.34 182,-67 199.91,-52.15 198.46,-41.63 218,-29 221.08,-27.01 224.4,-25.19 227.83,-23.55"/>
<polygon fill="midnightblue" stroke="midnightblue" points="229.23,-26.76 237.04,-19.59 226.47,-20.32 229.23,-26.76"/>
</g>
<!-- Node8 -->
<g id="node8" class="node">
<title>Node8</title>
<g id="a_node8"><a xlink:href="env__utils_8c.html#ac7b3f84bb622bdf477616c5b0022f035" target="_top" xlink:title=" ">
<polygon fill="none" stroke="black" points="365,-38.5 365,-57.5 444,-57.5 444,-38.5 365,-38.5"/>
<text text-anchor="middle" x="404.5" y="-45.5" font-family="Helvetica,sans-Serif" font-size="10.00">get_last_env</text>
</a>
</g>
</g>
<!-- Node7&#45;&gt;Node8 -->
<g id="edge8" class="edge">
<title>Node7&#45;&gt;Node8</title>
<path fill="none" stroke="midnightblue" d="M319.62,-48C330.85,-48 342.96,-48 354.38,-48"/>
<polygon fill="midnightblue" stroke="midnightblue" points="354.63,-51.5 364.63,-48 354.63,-44.5 354.63,-51.5"/>
</g>
</g>
</svg>
