<?xml version="1.0" encoding="UTF-8" standalone="no"?>
<!DOCTYPE svg PUBLIC "-//W3C//DTD SVG 1.1//EN"
 "http://www.w3.org/Graphics/SVG/1.1/DTD/svg11.dtd">
<!-- Generated by graphviz version 2.43.0 (0)
 -->
<!-- Title: my_exit Pages: 1 -->
<svg width="622pt" height="142pt"
 viewBox="0.00 0.00 622.00 142.00" xmlns="http://www.w3.org/2000/svg" xmlns:xlink="http://www.w3.org/1999/xlink">
<g id="graph0" class="graph" transform="scale(1 1) rotate(0) translate(4 138)">
<title>my_exit</title>
<!-- Node1 -->
<g id="node1" class="node">
<title>Node1</title>
<g id="a_node1"><a xlink:title=" ">
<polygon fill="#bfbfbf" stroke="black" points="0,-57.5 0,-76.5 56,-76.5 56,-57.5 0,-57.5"/>
<text text-anchor="middle" x="28" y="-64.5" font-family="Helvetica,sans-Serif" font-size="10.00">my_exit</text>
</a>
</g>
</g>
<!-- Node2 -->
<g id="node2" class="node">
<title>Node2</title>
<g id="a_node2"><a xlink:href="exit_8c.html#a7e369b4894a31549c9b65f718e28823f" target="_top" xlink:title=" ">
<polygon fill="none" stroke="black" points="103.5,-114.5 103.5,-133.5 172.5,-133.5 172.5,-114.5 103.5,-114.5"/>
<text text-anchor="middle" x="138" y="-121.5" font-family="Helvetica,sans-Serif" font-size="10.00">check_exit</text>
</a>
</g>
</g>
<!-- Node1&#45;&gt;Node2 -->
<g id="edge1" class="edge">
<title>Node1&#45;&gt;Node2</title>
<path fill="none" stroke="midnightblue" d="M43.43,-76.52C55.98,-84.6 74.81,-96.25 92,-105 95.55,-106.81 99.32,-108.6 103.1,-110.31"/>
<polygon fill="midnightblue" stroke="midnightblue" points="101.86,-113.58 112.42,-114.37 104.65,-107.17 101.86,-113.58"/>
</g>
<!-- Node3 -->
<g id="node3" class="node">
<title>Node3</title>
<g id="a_node3"><a xlink:href="lst__cmd2_8c.html#a132395876bb5a7cfe926b9e37571a1e3" target="_top" xlink:title=" ">
<polygon fill="none" stroke="black" points="92,-76.5 92,-95.5 184,-95.5 184,-76.5 92,-76.5"/>
<text text-anchor="middle" x="138" y="-83.5" font-family="Helvetica,sans-Serif" font-size="10.00">destructor_cmd</text>
</a>
</g>
</g>
<!-- Node1&#45;&gt;Node3 -->
<g id="edge2" class="edge">
<title>Node1&#45;&gt;Node3</title>
<path fill="none" stroke="midnightblue" d="M56.25,-71.79C64.06,-73.17 72.87,-74.72 81.72,-76.28"/>
<polygon fill="midnightblue" stroke="midnightblue" points="81.23,-79.74 91.69,-78.03 82.44,-72.85 81.23,-79.74"/>
</g>
<!-- Node8 -->
<g id="node8" class="node">
<title>Node8</title>
<g id="a_node8"><a xlink:href="lst__env_8c.html#a226ae0aa054e697998b2ecbc5d61d592" target="_top" xlink:title=" ">
<polygon fill="none" stroke="black" points="93.5,-38.5 93.5,-57.5 182.5,-57.5 182.5,-38.5 93.5,-38.5"/>
<text text-anchor="middle" x="138" y="-45.5" font-family="Helvetica,sans-Serif" font-size="10.00">destructor_env</text>
</a>
</g>
</g>
<!-- Node1&#45;&gt;Node8 -->
<g id="edge8" class="edge">
<title>Node1&#45;&gt;Node8</title>
<path fill="none" stroke="midnightblue" d="M56.25,-62.21C64.51,-60.75 73.89,-59.1 83.26,-57.45"/>
<polygon fill="midnightblue" stroke="midnightblue" points="84.12,-60.86 93.36,-55.68 82.91,-53.96 84.12,-60.86"/>
</g>
<!-- Node10 -->
<g id="node10" class="node">
<title>Node10</title>
<g id="a_node10"><a xlink:href="cd_8c.html#a7593627e795ae769b5117673b60846c9" target="_top" xlink:title=" ">
<polygon fill="none" stroke="black" points="122,-0.5 122,-19.5 154,-19.5 154,-0.5 122,-0.5"/>
<text text-anchor="middle" x="138" y="-7.5" font-family="Helvetica,sans-Serif" font-size="10.00">len</text>
</a>
</g>
</g>
<!-- Node1&#45;&gt;Node10 -->
<g id="edge10" class="edge">
<title>Node1&#45;&gt;Node10</title>
<path fill="none" stroke="midnightblue" d="M43.43,-57.48C55.98,-49.4 74.81,-37.75 92,-29 98.5,-25.69 105.71,-22.46 112.42,-19.63"/>
<polygon fill="midnightblue" stroke="midnightblue" points="113.83,-22.83 121.75,-15.8 111.17,-16.36 113.83,-22.83"/>
</g>
<!-- Node4 -->
<g id="node4" class="node">
<title>Node4</title>
<g id="a_node4"><a xlink:href="lst__cmd2_8c.html#a8e2b63759f149b547e0d07f210ede9b3" target="_top" xlink:title=" ">
<polygon fill="none" stroke="black" points="220,-76.5 220,-95.5 281,-95.5 281,-76.5 220,-76.5"/>
<text text-anchor="middle" x="250.5" y="-83.5" font-family="Helvetica,sans-Serif" font-size="10.00">pop_cmd</text>
</a>
</g>
</g>
<!-- Node3&#45;&gt;Node4 -->
<g id="edge3" class="edge">
<title>Node3&#45;&gt;Node4</title>
<path fill="none" stroke="midnightblue" d="M184.26,-86C192.73,-86 201.52,-86 209.8,-86"/>
<polygon fill="midnightblue" stroke="midnightblue" points="209.95,-89.5 219.95,-86 209.95,-82.5 209.95,-89.5"/>
</g>
<!-- Node5 -->
<g id="node5" class="node">
<title>Node5</title>
<g id="a_node5"><a xlink:href="lst__redir2_8c.html#a30ccaf401a4f897e48ead5fe54f4b307" target="_top" xlink:title=" ">
<polygon fill="none" stroke="black" points="317,-95.5 317,-114.5 411,-114.5 411,-95.5 317,-95.5"/>
<text text-anchor="middle" x="364" y="-102.5" font-family="Helvetica,sans-Serif" font-size="10.00">destructor_redir</text>
</a>
</g>
</g>
<!-- Node4&#45;&gt;Node5 -->
<g id="edge4" class="edge">
<title>Node4&#45;&gt;Node5</title>
<path fill="none" stroke="midnightblue" d="M281.09,-91.04C289.06,-92.4 297.95,-93.91 306.85,-95.43"/>
<polygon fill="midnightblue" stroke="midnightblue" points="306.42,-98.91 316.86,-97.14 307.59,-92.01 306.42,-98.91"/>
</g>
<!-- Node7 -->
<g id="node7" class="node">
<title>Node7</title>
<g id="a_node7"><a xlink:href="redirection__multipipe_8c.html#a1bca6910c90a19d96b36506a2e2cebf6" target="_top" xlink:title="as fd are all setup to &#45;1 at the beginning we check if they are open before trying to close we avoid ...">
<polygon fill="none" stroke="black" points="545,-76.5 545,-95.5 614,-95.5 614,-76.5 545,-76.5"/>
<text text-anchor="middle" x="579.5" y="-83.5" font-family="Helvetica,sans-Serif" font-size="10.00">ft_close_fd</text>
</a>
</g>
</g>
<!-- Node4&#45;&gt;Node7 -->
<g id="edge7" class="edge">
<title>Node4&#45;&gt;Node7</title>
<path fill="none" stroke="midnightblue" d="M281.1,-86C338.85,-86 466.82,-86 534.53,-86"/>
<polygon fill="midnightblue" stroke="midnightblue" points="534.86,-89.5 544.86,-86 534.85,-82.5 534.86,-89.5"/>
</g>
<!-- Node6 -->
<g id="node6" class="node">
<title>Node6</title>
<g id="a_node6"><a xlink:href="lst__redir2_8c.html#ade8f0bdda51d9bf348ebeb38fefba881" target="_top" xlink:title=" ">
<polygon fill="none" stroke="black" points="447,-95.5 447,-114.5 509,-114.5 509,-95.5 447,-95.5"/>
<text text-anchor="middle" x="478" y="-102.5" font-family="Helvetica,sans-Serif" font-size="10.00">pop_redir</text>
</a>
</g>
</g>
<!-- Node5&#45;&gt;Node6 -->
<g id="edge5" class="edge">
<title>Node5&#45;&gt;Node6</title>
<path fill="none" stroke="midnightblue" d="M411.2,-105C419.67,-105 428.46,-105 436.74,-105"/>
<polygon fill="midnightblue" stroke="midnightblue" points="436.9,-108.5 446.9,-105 436.9,-101.5 436.9,-108.5"/>
</g>
<!-- Node6&#45;&gt;Node7 -->
<g id="edge6" class="edge">
<title>Node6&#45;&gt;Node7</title>
<path fill="none" stroke="midnightblue" d="M509.12,-99.25C517.18,-97.71 526.06,-96.01 534.69,-94.37"/>
<polygon fill="midnightblue" stroke="midnightblue" points="535.49,-97.78 544.65,-92.46 534.17,-90.9 535.49,-97.78"/>
</g>
<!-- Node9 -->
<g id="node9" class="node">
<title>Node9</title>
<g id="a_node9"><a xlink:href="lst__env_8c.html#a058c245b5f2ef22f9d2659f90e4d3537" target="_top" xlink:title=" ">
<polygon fill="none" stroke="black" points="221.5,-38.5 221.5,-57.5 279.5,-57.5 279.5,-38.5 221.5,-38.5"/>
<text text-anchor="middle" x="250.5" y="-45.5" font-family="Helvetica,sans-Serif" font-size="10.00">pop_env</text>
</a>
</g>
</g>
<!-- Node8&#45;&gt;Node9 -->
<g id="edge9" class="edge">
<title>Node8&#45;&gt;Node9</title>
<path fill="none" stroke="midnightblue" d="M182.67,-48C192.14,-48 202.08,-48 211.32,-48"/>
<polygon fill="midnightblue" stroke="midnightblue" points="211.38,-51.5 221.38,-48 211.38,-44.5 211.38,-51.5"/>
</g>
</g>
</svg>
