<?xml version="1.0" encoding="UTF-8" standalone="no"?>
<!DOCTYPE svg PUBLIC "-//W3C//DTD SVG 1.1//EN"
 "http://www.w3.org/Graphics/SVG/1.1/DTD/svg11.dtd">
<!-- Generated by graphviz version 2.43.0 (0)
 -->
<!-- Title: handle_dollar Pages: 1 -->
<!--zoomable 497 -->
<svg id="main" version="1.1" xmlns="http://www.w3.org/2000/svg" xmlns:xlink="http://www.w3.org/1999/xlink" xml:space="preserve" onload="init(evt)">
<style type="text/css"><![CDATA[
.edge:hover path { stroke: red; }
.edge:hover polygon { stroke: red; fill: red; }
]]></style>
<script type="text/javascript"><![CDATA[
var edges = document.getElementsByTagName('g');
if (edges && edges.length) {
  for (var i=0;i<edges.length;i++) {
    if (edges[i].id.substr(0,4)=='edge') {
      edges[i].setAttribute('class','edge');
    }
  }
}
]]></script>
        <defs>
                <circle id="rim" cx="0" cy="0" r="7"/>
                <circle id="rim2" cx="0" cy="0" r="3.5"/>
                <g id="zoomPlus">
                        <use xlink:href="#rim" fill="#404040">
                                <set attributeName="fill" to="#808080" begin="zoomplus.mouseover" end="zoomplus.mouseout"/>
                        </use>
                        <path d="M-4,0h8M0,-4v8" fill="none" stroke="white" stroke-width="1.5" pointer-events="none"/>
                </g>
                <g id="zoomMin">
                        <use xlink:href="#rim" fill="#404040">
                                <set attributeName="fill" to="#808080" begin="zoomminus.mouseover" end="zoomminus.mouseout"/>
                        </use>
                        <path d="M-4,0h8" fill="none" stroke="white" stroke-width="1.5" pointer-events="none"/>
                </g>
                <g id="dirArrow">
                        <path fill="none" stroke="white" stroke-width="1.5" d="M0,-3.0v7 M-2.5,-0.5L0,-3.0L2.5,-0.5"/>
                </g>
               <g id="resetDef">
                       <use xlink:href="#rim2" fill="#404040">
                               <set attributeName="fill" to="#808080" begin="reset.mouseover" end="reset.mouseout"/>
                       </use>
               </g>
        </defs>

<script type="text/javascript">
var viewWidth = 1210;
var viewHeight = 497;
var sectionId = 'dynsection-9';
</script>
<script xlink:href="svgpan.js"/>
<svg id="graph" class="graph">
<g id="viewport">
<title>handle_dollar</title>
<!-- Node1 -->
<g id="node1" class="node">
<title>Node1</title>
<g id="a_node1"><a xlink:title="Manages all possibilities with expand : $?, known and unknown env variable.">
<polygon fill="#bfbfbf" stroke="black" points="0,-228.5 0,-247.5 83,-247.5 83,-228.5 0,-228.5"/>
<text text-anchor="middle" x="41.5" y="-235.5" font-family="Helvetica,sans-Serif" font-size="10.00">handle_dollar</text>
</a>
</g>
</g>
<!-- Node2 -->
<g id="node2" class="node">
<title>Node2</title>
<g id="a_node2"><a xlink:href="lexer__utils_8c.html#a6b132516dacc9599762b1fe7341a0f04" target="_top" xlink:title="Advance one byte in the struct t_lexer to keep track of progress.">
<polygon fill="none" stroke="black" points="427.5,-285.5 427.5,-304.5 485.5,-304.5 485.5,-285.5 427.5,-285.5"/>
<text text-anchor="middle" x="456.5" y="-292.5" font-family="Helvetica,sans-Serif" font-size="10.00">advance</text>
</a>
</g>
</g>
<!-- Node1&#45;&gt;Node2 -->
<g id="edge1" class="edge">
<title>Node1&#45;&gt;Node2</title>
<path fill="none" stroke="midnightblue" d="M79.38,-247.53C91.93,-250.67 106.05,-254.1 119,-257 174.29,-269.39 187.82,-274.69 244,-282 304.2,-289.83 374.67,-292.97 417.16,-294.21"/>
<polygon fill="midnightblue" stroke="midnightblue" points="417.24,-297.71 427.33,-294.49 417.43,-290.72 417.24,-297.71"/>
</g>
<!-- Node3 -->
<g id="node3" class="node">
<title>Node3</title>
<g id="a_node3"><a xlink:href="expand__dollar_8c.html#ae2c40b201e71a1f59fb92ee39ac89d70" target="_top" xlink:title="Handle $? to expand on current error code.">
<polygon fill="none" stroke="black" points="119,-399.5 119,-418.5 208,-418.5 208,-399.5 119,-399.5"/>
<text text-anchor="middle" x="163.5" y="-406.5" font-family="Helvetica,sans-Serif" font-size="10.00">error_code_var</text>
</a>
</g>
</g>
<!-- Node1&#45;&gt;Node3 -->
<g id="edge2" class="edge">
<title>Node1&#45;&gt;Node3</title>
<path fill="none" stroke="midnightblue" d="M49.3,-247.68C68.68,-275.31 124.49,-354.84 149.78,-390.87"/>
<polygon fill="midnightblue" stroke="midnightblue" points="147.17,-393.25 155.78,-399.42 152.9,-389.23 147.17,-393.25"/>
</g>
<!-- Node4 -->
<g id="node4" class="node">
<title>Node4</title>
<g id="a_node4"><a xlink:href="string__builder_8c.html#a2630bac2d2575ee6ecee7ed88e5f8296" target="_top" xlink:title="Put char in the struct t_str_buf so we can build a string in the struct. The point is to create the s...">
<polygon fill="none" stroke="black" points="418,-380.5 418,-399.5 495,-399.5 495,-380.5 418,-380.5"/>
<text text-anchor="middle" x="456.5" y="-387.5" font-family="Helvetica,sans-Serif" font-size="10.00">str_buf_putc</text>
</a>
</g>
</g>
<!-- Node1&#45;&gt;Node4 -->
<g id="edge33" class="edge">
<title>Node1&#45;&gt;Node4</title>
<path fill="none" stroke="midnightblue" d="M43.39,-247.6C46.82,-278.71 61.94,-377.65 119,-428 204.35,-503.32 266.27,-500.6 373,-461 401.62,-450.38 426.98,-424.89 441.79,-407.52"/>
<polygon fill="midnightblue" stroke="midnightblue" points="444.53,-409.7 448.18,-399.75 439.12,-405.25 444.53,-409.7"/>
</g>
<!-- Node6 -->
<g id="node6" class="node">
<title>Node6</title>
<g id="a_node6"><a xlink:href="expand__dollar_8c.html#af17c527615f14d68b20a8edf80264943" target="_top" xlink:title=" ">
<polygon fill="none" stroke="black" points="422.5,-114.5 422.5,-133.5 490.5,-133.5 490.5,-114.5 422.5,-114.5"/>
<text text-anchor="middle" x="456.5" y="-121.5" font-family="Helvetica,sans-Serif" font-size="10.00">exit_dollar</text>
</a>
</g>
</g>
<!-- Node1&#45;&gt;Node6 -->
<g id="edge7" class="edge">
<title>Node1&#45;&gt;Node6</title>
<path fill="none" stroke="midnightblue" d="M47.77,-228.42C58.51,-209.9 84.82,-169.33 119,-150 212.44,-97.16 344.47,-106.63 412.01,-116.29"/>
<polygon fill="midnightblue" stroke="midnightblue" points="411.87,-119.81 422.28,-117.83 412.91,-112.89 411.87,-119.81"/>
</g>
<!-- Node16 -->
<g id="node16" class="node">
<title>Node16</title>
<g id="a_node16"><a xlink:href="expand__dollar_8c.html#a6d96e914be2d2db42405f61048e85370" target="_top" xlink:title=" ">
<polygon fill="none" stroke="black" points="122.5,-228.5 122.5,-247.5 204.5,-247.5 204.5,-228.5 122.5,-228.5"/>
<text text-anchor="middle" x="163.5" y="-235.5" font-family="Helvetica,sans-Serif" font-size="10.00">expand_valid</text>
</a>
</g>
</g>
<!-- Node1&#45;&gt;Node16 -->
<g id="edge18" class="edge">
<title>Node1&#45;&gt;Node16</title>
<path fill="none" stroke="midnightblue" d="M83.13,-238C92.41,-238 102.4,-238 112.04,-238"/>
<polygon fill="midnightblue" stroke="midnightblue" points="112.32,-241.5 122.32,-238 112.32,-234.5 112.32,-241.5"/>
</g>
<!-- Node18 -->
<g id="node18" class="node">
<title>Node18</title>
<g id="a_node18"><a xlink:href="expand_8c.html#a19e46ed1e16f9b3f3b1e8961163feedc" target="_top" xlink:title="Checks if a given char is a valid character for the key of an env variable.">
<polygon fill="none" stroke="black" points="409,-190.5 409,-209.5 504,-209.5 504,-190.5 409,-190.5"/>
<text text-anchor="middle" x="456.5" y="-197.5" font-family="Helvetica,sans-Serif" font-size="10.00">is_valid_for_key</text>
</a>
</g>
</g>
<!-- Node1&#45;&gt;Node18 -->
<g id="edge31" class="edge">
<title>Node1&#45;&gt;Node18</title>
<path fill="none" stroke="midnightblue" d="M56.85,-228.47C88.8,-207.89 168.9,-159.82 244,-143 299.95,-130.47 318.27,-125.93 373,-143 398.24,-150.87 422.57,-169.47 438.18,-183.29"/>
<polygon fill="midnightblue" stroke="midnightblue" points="436.18,-186.2 445.91,-190.38 440.91,-181.04 436.18,-186.2"/>
</g>
<!-- Node22 -->
<g id="node22" class="node">
<title>Node22</title>
<g id="a_node22"><a xlink:href="lexer__utils_8c.html#a855a36981b55d317a52d24560c0809bf" target="_top" xlink:title="&quot;Peek&quot;, Look at the next character in the input string">
<polygon fill="none" stroke="black" points="143,-0.5 143,-19.5 184,-19.5 184,-0.5 143,-0.5"/>
<text text-anchor="middle" x="163.5" y="-7.5" font-family="Helvetica,sans-Serif" font-size="10.00">peek</text>
</a>
</g>
</g>
<!-- Node1&#45;&gt;Node22 -->
<g id="edge32" class="edge">
<title>Node1&#45;&gt;Node22</title>
<path fill="none" stroke="midnightblue" d="M43.73,-228.27C48.18,-196.65 66.07,-95.24 119,-34 123.05,-29.32 128.24,-25.37 133.62,-22.12"/>
<polygon fill="midnightblue" stroke="midnightblue" points="135.51,-25.09 142.69,-17.3 132.22,-18.91 135.51,-25.09"/>
</g>
<!-- Node3&#45;&gt;Node2 -->
<g id="edge3" class="edge">
<title>Node3&#45;&gt;Node2</title>
<path fill="none" stroke="midnightblue" d="M201.11,-418.56C244.67,-427.86 318.36,-436.91 373,-409 393.23,-398.67 427.61,-343.18 444.9,-313.6"/>
<polygon fill="midnightblue" stroke="midnightblue" points="448.09,-315.08 450.06,-304.67 442.03,-311.57 448.09,-315.08"/>
</g>
<!-- Node3&#45;&gt;Node4 -->
<g id="edge4" class="edge">
<title>Node3&#45;&gt;Node4</title>
<path fill="none" stroke="midnightblue" d="M181.86,-418.56C197.56,-426.62 221.58,-437.53 244,-442 300.23,-453.21 317.92,-457.91 373,-442 397.15,-435.02 421.05,-418.64 436.85,-406.12"/>
<polygon fill="midnightblue" stroke="midnightblue" points="439.24,-408.69 444.75,-399.64 434.8,-403.27 439.24,-408.69"/>
</g>
<!-- Node5 -->
<g id="node5" class="node">
<title>Node5</title>
<g id="a_node5"><a xlink:href="string__builder_8c.html#ae2f6bd82646cd8367e2f42a0b737b556" target="_top" xlink:title="Put a null terminated string in the t_str_buf struct.">
<polygon fill="none" stroke="black" points="270,-380.5 270,-399.5 347,-399.5 347,-380.5 270,-380.5"/>
<text text-anchor="middle" x="308.5" y="-387.5" font-family="Helvetica,sans-Serif" font-size="10.00">str_buf_puts</text>
</a>
</g>
</g>
<!-- Node3&#45;&gt;Node5 -->
<g id="edge5" class="edge">
<title>Node3&#45;&gt;Node5</title>
<path fill="none" stroke="midnightblue" d="M208.18,-403.2C224.51,-401.03 243.12,-398.55 259.79,-396.34"/>
<polygon fill="midnightblue" stroke="midnightblue" points="260.43,-399.78 269.88,-395 259.51,-392.85 260.43,-399.78"/>
</g>
<!-- Node5&#45;&gt;Node4 -->
<g id="edge6" class="edge">
<title>Node5&#45;&gt;Node4</title>
<path fill="none" stroke="midnightblue" d="M347.1,-390C365.59,-390 388.08,-390 407.77,-390"/>
<polygon fill="midnightblue" stroke="midnightblue" points="407.78,-393.5 417.78,-390 407.78,-386.5 407.78,-393.5"/>
</g>
<!-- Node7 -->
<g id="node7" class="node">
<title>Node7</title>
<g id="a_node7"><a xlink:href="expand__word_8c.html#a435189c48cf5cbf3527b73c50ca8ee4b" target="_top" xlink:title=" ">
<polygon fill="none" stroke="black" points="540,-133.5 540,-152.5 644,-152.5 644,-133.5 540,-133.5"/>
<text text-anchor="middle" x="592" y="-140.5" font-family="Helvetica,sans-Serif" font-size="10.00">exit_expand_fatal</text>
</a>
</g>
</g>
<!-- Node6&#45;&gt;Node7 -->
<g id="edge8" class="edge">
<title>Node6&#45;&gt;Node7</title>
<path fill="none" stroke="midnightblue" d="M490.5,-128.7C502.38,-130.39 516.18,-132.35 529.69,-134.27"/>
<polygon fill="midnightblue" stroke="midnightblue" points="529.54,-137.79 539.93,-135.73 530.52,-130.86 529.54,-137.79"/>
</g>
<!-- Node15 -->
<g id="node15" class="node">
<title>Node15</title>
<g id="a_node15"><a xlink:href="string__builder_8c.html#a34739f65bf6f3e3e2b9e19dadf5fe217" target="_top" xlink:title=" ">
<polygon fill="none" stroke="black" points="554.5,-95.5 554.5,-114.5 629.5,-114.5 629.5,-95.5 554.5,-95.5"/>
<text text-anchor="middle" x="592" y="-102.5" font-family="Helvetica,sans-Serif" font-size="10.00">str_buf_free</text>
</a>
</g>
</g>
<!-- Node6&#45;&gt;Node15 -->
<g id="edge17" class="edge">
<title>Node6&#45;&gt;Node15</title>
<path fill="none" stroke="midnightblue" d="M490.5,-119.3C506.64,-117.01 526.34,-114.2 544.02,-111.69"/>
<polygon fill="midnightblue" stroke="midnightblue" points="544.74,-115.12 554.15,-110.24 543.75,-108.19 544.74,-115.12"/>
</g>
<!-- Node8 -->
<g id="node8" class="node">
<title>Node8</title>
<g id="a_node8"><a xlink:href="lst__cmd2_8c.html#a132395876bb5a7cfe926b9e37571a1e3" target="_top" xlink:title=" ">
<polygon fill="none" stroke="black" points="680,-152.5 680,-171.5 772,-171.5 772,-152.5 680,-152.5"/>
<text text-anchor="middle" x="726" y="-159.5" font-family="Helvetica,sans-Serif" font-size="10.00">destructor_cmd</text>
</a>
</g>
</g>
<!-- Node7&#45;&gt;Node8 -->
<g id="edge9" class="edge">
<title>Node7&#45;&gt;Node8</title>
<path fill="none" stroke="midnightblue" d="M644.03,-150.35C652.39,-151.55 661.08,-152.8 669.54,-154.02"/>
<polygon fill="midnightblue" stroke="midnightblue" points="669.3,-157.52 679.7,-155.48 670.3,-150.59 669.3,-157.52"/>
</g>
<!-- Node13 -->
<g id="node13" class="node">
<title>Node13</title>
<g id="a_node13"><a xlink:href="lst__env_8c.html#a226ae0aa054e697998b2ecbc5d61d592" target="_top" xlink:title=" ">
<polygon fill="none" stroke="black" points="681.5,-114.5 681.5,-133.5 770.5,-133.5 770.5,-114.5 681.5,-114.5"/>
<text text-anchor="middle" x="726" y="-121.5" font-family="Helvetica,sans-Serif" font-size="10.00">destructor_env</text>
</a>
</g>
</g>
<!-- Node7&#45;&gt;Node13 -->
<g id="edge15" class="edge">
<title>Node7&#45;&gt;Node13</title>
<path fill="none" stroke="midnightblue" d="M644.03,-135.65C653,-134.36 662.34,-133.02 671.37,-131.72"/>
<polygon fill="midnightblue" stroke="midnightblue" points="671.99,-135.17 681.39,-130.28 671,-128.24 671.99,-135.17"/>
</g>
<!-- Node9 -->
<g id="node9" class="node">
<title>Node9</title>
<g id="a_node9"><a xlink:href="lst__cmd2_8c.html#a8e2b63759f149b547e0d07f210ede9b3" target="_top" xlink:title=" ">
<polygon fill="none" stroke="black" points="808,-152.5 808,-171.5 869,-171.5 869,-152.5 808,-152.5"/>
<text text-anchor="middle" x="838.5" y="-159.5" font-family="Helvetica,sans-Serif" font-size="10.00">pop_cmd</text>
</a>
</g>
</g>
<!-- Node8&#45;&gt;Node9 -->
<g id="edge10" class="edge">
<title>Node8&#45;&gt;Node9</title>
<path fill="none" stroke="midnightblue" d="M772.26,-162C780.73,-162 789.52,-162 797.8,-162"/>
<polygon fill="midnightblue" stroke="midnightblue" points="797.95,-165.5 807.95,-162 797.95,-158.5 797.95,-165.5"/>
</g>
<!-- Node10 -->
<g id="node10" class="node">
<title>Node10</title>
<g id="a_node10"><a xlink:href="lst__redir2_8c.html#a30ccaf401a4f897e48ead5fe54f4b307" target="_top" xlink:title=" ">
<polygon fill="none" stroke="black" points="905,-133.5 905,-152.5 999,-152.5 999,-133.5 905,-133.5"/>
<text text-anchor="middle" x="952" y="-140.5" font-family="Helvetica,sans-Serif" font-size="10.00">destructor_redir</text>
</a>
</g>
</g>
<!-- Node9&#45;&gt;Node10 -->
<g id="edge11" class="edge">
<title>Node9&#45;&gt;Node10</title>
<path fill="none" stroke="midnightblue" d="M869.09,-156.96C877.06,-155.6 885.95,-154.09 894.85,-152.57"/>
<polygon fill="midnightblue" stroke="midnightblue" points="895.59,-155.99 904.86,-150.86 894.42,-149.09 895.59,-155.99"/>
</g>
<!-- Node12 -->
<g id="node12" class="node">
<title>Node12</title>
<g id="a_node12"><a xlink:href="utils_8c.html#a1bca6910c90a19d96b36506a2e2cebf6" target="_top" xlink:title="as fd are all setup to &#45;1 at the beginning we check if they are open before trying to close we avoid ...">
<polygon fill="none" stroke="black" points="1133,-152.5 1133,-171.5 1202,-171.5 1202,-152.5 1133,-152.5"/>
<text text-anchor="middle" x="1167.5" y="-159.5" font-family="Helvetica,sans-Serif" font-size="10.00">ft_close_fd</text>
</a>
</g>
</g>
<!-- Node9&#45;&gt;Node12 -->
<g id="edge14" class="edge">
<title>Node9&#45;&gt;Node12</title>
<path fill="none" stroke="midnightblue" d="M869.1,-162C926.85,-162 1054.82,-162 1122.53,-162"/>
<polygon fill="midnightblue" stroke="midnightblue" points="1122.86,-165.5 1132.86,-162 1122.85,-158.5 1122.86,-165.5"/>
</g>
<!-- Node11 -->
<g id="node11" class="node">
<title>Node11</title>
<g id="a_node11"><a xlink:href="lst__redir2_8c.html#ade8f0bdda51d9bf348ebeb38fefba881" target="_top" xlink:title=" ">
<polygon fill="none" stroke="black" points="1035,-133.5 1035,-152.5 1097,-152.5 1097,-133.5 1035,-133.5"/>
<text text-anchor="middle" x="1066" y="-140.5" font-family="Helvetica,sans-Serif" font-size="10.00">pop_redir</text>
</a>
</g>
</g>
<!-- Node10&#45;&gt;Node11 -->
<g id="edge12" class="edge">
<title>Node10&#45;&gt;Node11</title>
<path fill="none" stroke="midnightblue" d="M999.2,-143C1007.67,-143 1016.46,-143 1024.74,-143"/>
<polygon fill="midnightblue" stroke="midnightblue" points="1024.9,-146.5 1034.9,-143 1024.9,-139.5 1024.9,-146.5"/>
</g>
<!-- Node11&#45;&gt;Node12 -->
<g id="edge13" class="edge">
<title>Node11&#45;&gt;Node12</title>
<path fill="none" stroke="midnightblue" d="M1097.12,-148.75C1105.18,-150.29 1114.06,-151.99 1122.69,-153.63"/>
<polygon fill="midnightblue" stroke="midnightblue" points="1122.17,-157.1 1132.65,-155.54 1123.49,-150.22 1122.17,-157.1"/>
</g>
<!-- Node14 -->
<g id="node14" class="node">
<title>Node14</title>
<g id="a_node14"><a xlink:href="lst__env_8c.html#a058c245b5f2ef22f9d2659f90e4d3537" target="_top" xlink:title=" ">
<polygon fill="none" stroke="black" points="809.5,-114.5 809.5,-133.5 867.5,-133.5 867.5,-114.5 809.5,-114.5"/>
<text text-anchor="middle" x="838.5" y="-121.5" font-family="Helvetica,sans-Serif" font-size="10.00">pop_env</text>
</a>
</g>
</g>
<!-- Node13&#45;&gt;Node14 -->
<g id="edge16" class="edge">
<title>Node13&#45;&gt;Node14</title>
<path fill="none" stroke="midnightblue" d="M770.67,-124C780.14,-124 790.08,-124 799.32,-124"/>
<polygon fill="midnightblue" stroke="midnightblue" points="799.38,-127.5 809.38,-124 799.38,-120.5 799.38,-127.5"/>
</g>
<!-- Node16&#45;&gt;Node2 -->
<g id="edge19" class="edge">
<title>Node16&#45;&gt;Node2</title>
<path fill="none" stroke="midnightblue" d="M202.41,-247.53C215.55,-250.7 230.39,-254.15 244,-257 304.39,-269.63 375.01,-281.8 417.45,-288.83"/>
<polygon fill="midnightblue" stroke="midnightblue" points="416.91,-292.29 427.35,-290.47 418.05,-285.38 416.91,-292.29"/>
</g>
<!-- Node16&#45;&gt;Node5 -->
<g id="edge30" class="edge">
<title>Node16&#45;&gt;Node5</title>
<path fill="none" stroke="midnightblue" d="M167.53,-247.7C175.68,-272.22 200.48,-337.13 244,-371 248.77,-374.71 254.26,-377.7 259.96,-380.11"/>
<polygon fill="midnightblue" stroke="midnightblue" points="259.1,-383.52 269.69,-383.63 261.48,-376.94 259.1,-383.52"/>
</g>
<!-- Node16&#45;&gt;Node6 -->
<g id="edge20" class="edge">
<title>Node16&#45;&gt;Node6</title>
<path fill="none" stroke="midnightblue" d="M169.24,-228.32C179.62,-208.31 206.46,-162.63 244,-143 296.89,-115.34 367.47,-115.07 412.21,-118.6"/>
<polygon fill="midnightblue" stroke="midnightblue" points="411.9,-122.09 422.17,-119.49 412.52,-115.12 411.9,-122.09"/>
</g>
<!-- Node17 -->
<g id="node17" class="node">
<title>Node17</title>
<g id="a_node17"><a xlink:href="expand__dollar_8c.html#a288ca34d78433c242163338d2e877550" target="_top" xlink:title=" ">
<polygon fill="none" stroke="black" points="244,-228.5 244,-247.5 373,-247.5 373,-228.5 244,-228.5"/>
<text text-anchor="middle" x="308.5" y="-235.5" font-family="Helvetica,sans-Serif" font-size="10.00">expand_valid_build_str</text>
</a>
</g>
</g>
<!-- Node16&#45;&gt;Node17 -->
<g id="edge21" class="edge">
<title>Node16&#45;&gt;Node17</title>
<path fill="none" stroke="midnightblue" d="M204.71,-238C213.73,-238 223.57,-238 233.47,-238"/>
<polygon fill="midnightblue" stroke="midnightblue" points="233.78,-241.5 243.78,-238 233.78,-234.5 233.78,-241.5"/>
</g>
<!-- Node19 -->
<g id="node19" class="node">
<title>Node19</title>
<g id="a_node19"><a xlink:href="lst__env__two_8c.html#a4d4a14327b2c3ff88099102b6bd77986" target="_top" xlink:title=" ">
<polygon fill="none" stroke="black" points="256.5,-190.5 256.5,-209.5 360.5,-209.5 360.5,-190.5 256.5,-190.5"/>
<text text-anchor="middle" x="308.5" y="-197.5" font-family="Helvetica,sans-Serif" font-size="10.00">research_key_env</text>
</a>
</g>
</g>
<!-- Node16&#45;&gt;Node19 -->
<g id="edge26" class="edge">
<title>Node16&#45;&gt;Node19</title>
<path fill="none" stroke="midnightblue" d="M200.58,-228.41C219.13,-223.48 241.93,-217.43 261.7,-212.17"/>
<polygon fill="midnightblue" stroke="midnightblue" points="262.66,-215.54 271.43,-209.59 260.86,-208.77 262.66,-215.54"/>
</g>
<!-- Node20 -->
<g id="node20" class="node">
<title>Node20</title>
<g id="a_node20"><a xlink:href="string__builder_8c.html#a1bfdfae2d27c541b15b526d7d67b7577" target="_top" xlink:title="End and null terminate the string created in t_str_buf, reset the struct so it can be reused and retu...">
<polygon fill="none" stroke="black" points="271.5,-342.5 271.5,-361.5 345.5,-361.5 345.5,-342.5 271.5,-342.5"/>
<text text-anchor="middle" x="308.5" y="-349.5" font-family="Helvetica,sans-Serif" font-size="10.00">str_buf_end</text>
</a>
</g>
</g>
<!-- Node16&#45;&gt;Node20 -->
<g id="edge27" class="edge">
<title>Node16&#45;&gt;Node20</title>
<path fill="none" stroke="midnightblue" d="M176.69,-247.72C201.28,-267.32 257.04,-311.77 287.21,-335.82"/>
<polygon fill="midnightblue" stroke="midnightblue" points="285.34,-338.81 295.34,-342.31 289.7,-333.33 285.34,-338.81"/>
</g>
<!-- Node21 -->
<g id="node21" class="node">
<title>Node21</title>
<g id="a_node21"><a xlink:href="string__builder_8c.html#a2ff0766da574e4904598f3119c7d3749" target="_top" xlink:title=" ">
<polygon fill="none" stroke="black" points="273,-152.5 273,-171.5 344,-171.5 344,-152.5 273,-152.5"/>
<text text-anchor="middle" x="308.5" y="-159.5" font-family="Helvetica,sans-Serif" font-size="10.00">str_buf_init</text>
</a>
</g>
</g>
<!-- Node16&#45;&gt;Node21 -->
<g id="edge29" class="edge">
<title>Node16&#45;&gt;Node21</title>
<path fill="none" stroke="midnightblue" d="M175.33,-228.43C189.97,-215.92 217.32,-194.1 244,-181 250.04,-178.04 256.63,-175.43 263.21,-173.19"/>
<polygon fill="midnightblue" stroke="midnightblue" points="264.3,-176.51 272.77,-170.14 262.18,-169.84 264.3,-176.51"/>
</g>
<!-- Node17&#45;&gt;Node2 -->
<g id="edge22" class="edge">
<title>Node17&#45;&gt;Node2</title>
<path fill="none" stroke="midnightblue" d="M335.19,-247.58C346.76,-251.93 360.59,-257.17 373,-262 389.39,-268.38 407.55,-275.62 422.65,-281.69"/>
<polygon fill="midnightblue" stroke="midnightblue" points="421.49,-285 432.08,-285.49 424.11,-278.51 421.49,-285"/>
</g>
<!-- Node17&#45;&gt;Node4 -->
<g id="edge25" class="edge">
<title>Node17&#45;&gt;Node4</title>
<path fill="none" stroke="midnightblue" d="M318.63,-247.51C342.8,-272.67 408.69,-341.26 439.37,-373.21"/>
<polygon fill="midnightblue" stroke="midnightblue" points="436.92,-375.71 446.37,-380.5 441.97,-370.86 436.92,-375.71"/>
</g>
<!-- Node17&#45;&gt;Node6 -->
<g id="edge23" class="edge">
<title>Node17&#45;&gt;Node6</title>
<path fill="none" stroke="midnightblue" d="M353.3,-228.47C360.19,-225.98 367.01,-222.87 373,-219 381.37,-213.6 419.69,-167.68 441.03,-141.71"/>
<polygon fill="midnightblue" stroke="midnightblue" points="443.92,-143.71 447.55,-133.76 438.51,-139.27 443.92,-143.71"/>
</g>
<!-- Node17&#45;&gt;Node18 -->
<g id="edge24" class="edge">
<title>Node17&#45;&gt;Node18</title>
<path fill="none" stroke="midnightblue" d="M346.34,-228.41C365.35,-223.46 388.73,-217.38 408.97,-212.11"/>
<polygon fill="midnightblue" stroke="midnightblue" points="410.13,-215.43 418.92,-209.52 408.36,-208.65 410.13,-215.43"/>
</g>
<!-- Node20&#45;&gt;Node4 -->
<g id="edge28" class="edge">
<title>Node20&#45;&gt;Node4</title>
<path fill="none" stroke="midnightblue" d="M345.59,-361.39C364.75,-366.38 388.51,-372.56 409.03,-377.91"/>
<polygon fill="midnightblue" stroke="midnightblue" points="408.25,-381.32 418.81,-380.45 410.02,-374.54 408.25,-381.32"/>
</g>
</g>
</svg>
        <g id="navigator" transform="translate(0 0)" fill="#404254">
                <rect fill="#f2f5e9" fill-opacity="0.5" stroke="#606060" stroke-width=".5" x="0" y="0" width="60" height="60"/>
                <use id="zoomplus" xlink:href="#zoomPlus" x="17" y="9" onmousedown="handleZoom(evt,'in')"/>
                <use id="zoomminus" xlink:href="#zoomMin" x="42" y="9" onmousedown="handleZoom(evt,'out')"/>
                <use id="reset" xlink:href="#resetDef" x="30" y="36" onmousedown="handleReset()"/>
                <g id="arrowUp" xlink:href="#dirArrow" transform="translate(30 24)" onmousedown="handlePan(0,-1)">
                  <use xlink:href="#rim" fill="#404040">
                        <set attributeName="fill" to="#808080" begin="arrowUp.mouseover" end="arrowUp.mouseout"/>
                  </use>
                  <path fill="none" stroke="white" stroke-width="1.5" d="M0,-3.0v7 M-2.5,-0.5L0,-3.0L2.5,-0.5"/>
                </g>
                <g id="arrowRight" xlink:href="#dirArrow" transform="rotate(90) translate(36 -43)" onmousedown="handlePan(1,0)">
                  <use xlink:href="#rim" fill="#404040">
                        <set attributeName="fill" to="#808080" begin="arrowRight.mouseover" end="arrowRight.mouseout"/>
                  </use>
                  <path fill="none" stroke="white" stroke-width="1.5" d="M0,-3.0v7 M-2.5,-0.5L0,-3.0L2.5,-0.5"/>
                </g>
                <g id="arrowDown" xlink:href="#dirArrow" transform="rotate(180) translate(-30 -48)" onmousedown="handlePan(0,1)">
                  <use xlink:href="#rim" fill="#404040">
                        <set attributeName="fill" to="#808080" begin="arrowDown.mouseover" end="arrowDown.mouseout"/>
                  </use>
                  <path fill="none" stroke="white" stroke-width="1.5" d="M0,-3.0v7 M-2.5,-0.5L0,-3.0L2.5,-0.5"/>
                </g>
                <g id="arrowLeft" xlink:href="#dirArrow" transform="rotate(270) translate(-36 17)" onmousedown="handlePan(-1,0)">
                  <use xlink:href="#rim" fill="#404040">
                        <set attributeName="fill" to="#808080" begin="arrowLeft.mouseover" end="arrowLeft.mouseout"/>
                  </use>
                  <path fill="none" stroke="white" stroke-width="1.5" d="M0,-3.0v7 M-2.5,-0.5L0,-3.0L2.5,-0.5"/>
                </g>
        </g>
        <svg viewBox="0 0 15 15" width="100%" height="30px" preserveAspectRatio="xMaxYMin meet">
         <g id="arrow_out" transform="scale(0.3 0.3)">
          <a xlink:href="expand__dollar_8c_ac3e15865744ed2c1300a5cb96f24e33d_cgraph_org.svg" target="_base">
           <rect id="button" ry="5" rx="5" y="6" x="6" height="38" width="38"
                fill="#f2f5e9" fill-opacity="0.5" stroke="#606060" stroke-width="1.0"/>
           <path id="arrow"
             d="M 11.500037,31.436501 C 11.940474,20.09759 22.043105,11.32322 32.158766,21.979434 L 37.068811,17.246167 C 37.068811,17.246167 37.088388,32 37.088388,32 L 22.160133,31.978069 C 22.160133,31.978069 26.997745,27.140456 26.997745,27.140456 C 18.528582,18.264221 13.291696,25.230495 11.500037,31.436501 z"
             style="fill:#404040;"/>
          </a>
         </g>
        </svg>
</svg>
