<?xml version="1.0" encoding="UTF-8" standalone="no"?>
<!DOCTYPE svg PUBLIC "-//W3C//DTD SVG 1.1//EN"
 "http://www.w3.org/Graphics/SVG/1.1/DTD/svg11.dtd">
<!-- Generated by graphviz version 2.43.0 (0)
 -->
<!-- Title: expand_valid_build_str Pages: 1 -->
<svg width="966pt" height="161pt"
 viewBox="0.00 0.00 966.00 161.00" xmlns="http://www.w3.org/2000/svg" xmlns:xlink="http://www.w3.org/1999/xlink">
<g id="graph0" class="graph" transform="scale(1 1) rotate(0) translate(4 157)">
<title>expand_valid_build_str</title>
<!-- Node1 -->
<g id="node1" class="node">
<title>Node1</title>
<g id="a_node1"><a xlink:title=" ">
<polygon fill="#bfbfbf" stroke="black" points="0,-57.5 0,-76.5 129,-76.5 129,-57.5 0,-57.5"/>
<text text-anchor="middle" x="64.5" y="-64.5" font-family="Helvetica,sans-Serif" font-size="10.00">expand_valid_build_str</text>
</a>
</g>
</g>
<!-- Node2 -->
<g id="node2" class="node">
<title>Node2</title>
<g id="a_node2"><a xlink:href="lexer__utils_8c.html#a6b132516dacc9599762b1fe7341a0f04" target="_top" xlink:title="Advance one byte in the struct t_lexer to keep track of progress.">
<polygon fill="none" stroke="black" points="183.5,-114.5 183.5,-133.5 241.5,-133.5 241.5,-114.5 183.5,-114.5"/>
<text text-anchor="middle" x="212.5" y="-121.5" font-family="Helvetica,sans-Serif" font-size="10.00">advance</text>
</a>
</g>
</g>
<!-- Node1&#45;&gt;Node2 -->
<g id="edge1" class="edge">
<title>Node1&#45;&gt;Node2</title>
<path fill="none" stroke="midnightblue" d="M89.94,-76.54C113.94,-85.91 150.76,-100.29 177.59,-110.76"/>
<polygon fill="midnightblue" stroke="midnightblue" points="176.4,-114.05 186.98,-114.43 178.94,-107.53 176.4,-114.05"/>
</g>
<!-- Node3 -->
<g id="node3" class="node">
<title>Node3</title>
<g id="a_node3"><a xlink:href="expand__dollar_8c.html#af17c527615f14d68b20a8edf80264943" target="_top" xlink:title=" ">
<polygon fill="none" stroke="black" points="178.5,-76.5 178.5,-95.5 246.5,-95.5 246.5,-76.5 178.5,-76.5"/>
<text text-anchor="middle" x="212.5" y="-83.5" font-family="Helvetica,sans-Serif" font-size="10.00">exit_dollar</text>
</a>
</g>
</g>
<!-- Node1&#45;&gt;Node3 -->
<g id="edge2" class="edge">
<title>Node1&#45;&gt;Node3</title>
<path fill="none" stroke="midnightblue" d="M129.11,-75.28C142.32,-77 155.94,-78.77 168.22,-80.37"/>
<polygon fill="midnightblue" stroke="midnightblue" points="167.8,-83.84 178.17,-81.66 168.71,-76.9 167.8,-83.84"/>
</g>
<!-- Node13 -->
<g id="node13" class="node">
<title>Node13</title>
<g id="a_node13"><a xlink:href="expand_8c.html#a19e46ed1e16f9b3f3b1e8961163feedc" target="_top" xlink:title="Checks if a given char is a valid character for the key of an env variable.">
<polygon fill="none" stroke="black" points="165,-38.5 165,-57.5 260,-57.5 260,-38.5 165,-38.5"/>
<text text-anchor="middle" x="212.5" y="-45.5" font-family="Helvetica,sans-Serif" font-size="10.00">is_valid_for_key</text>
</a>
</g>
</g>
<!-- Node1&#45;&gt;Node13 -->
<g id="edge13" class="edge">
<title>Node1&#45;&gt;Node13</title>
<path fill="none" stroke="midnightblue" d="M129.11,-58.72C137.64,-57.61 146.33,-56.48 154.73,-55.39"/>
<polygon fill="midnightblue" stroke="midnightblue" points="155.32,-58.84 164.78,-54.08 154.42,-51.9 155.32,-58.84"/>
</g>
<!-- Node14 -->
<g id="node14" class="node">
<title>Node14</title>
<g id="a_node14"><a xlink:href="string__builder_8c.html#a2630bac2d2575ee6ecee7ed88e5f8296" target="_top" xlink:title="Put char in the struct t_str_buf so we can build a string in the struct. The point is to create the s...">
<polygon fill="none" stroke="black" points="174,-0.5 174,-19.5 251,-19.5 251,-0.5 174,-0.5"/>
<text text-anchor="middle" x="212.5" y="-7.5" font-family="Helvetica,sans-Serif" font-size="10.00">str_buf_putc</text>
</a>
</g>
</g>
<!-- Node1&#45;&gt;Node14 -->
<g id="edge14" class="edge">
<title>Node1&#45;&gt;Node14</title>
<path fill="none" stroke="midnightblue" d="M89.94,-57.46C113.94,-48.09 150.76,-33.71 177.59,-23.24"/>
<polygon fill="midnightblue" stroke="midnightblue" points="178.94,-26.47 186.98,-19.57 176.4,-19.95 178.94,-26.47"/>
</g>
<!-- Node4 -->
<g id="node4" class="node">
<title>Node4</title>
<g id="a_node4"><a xlink:href="expand__word_8c.html#a435189c48cf5cbf3527b73c50ca8ee4b" target="_top" xlink:title=" ">
<polygon fill="none" stroke="black" points="296,-95.5 296,-114.5 400,-114.5 400,-95.5 296,-95.5"/>
<text text-anchor="middle" x="348" y="-102.5" font-family="Helvetica,sans-Serif" font-size="10.00">exit_expand_fatal</text>
</a>
</g>
</g>
<!-- Node3&#45;&gt;Node4 -->
<g id="edge3" class="edge">
<title>Node3&#45;&gt;Node4</title>
<path fill="none" stroke="midnightblue" d="M246.5,-90.7C258.38,-92.39 272.18,-94.35 285.69,-96.27"/>
<polygon fill="midnightblue" stroke="midnightblue" points="285.54,-99.79 295.93,-97.73 286.52,-92.86 285.54,-99.79"/>
</g>
<!-- Node12 -->
<g id="node12" class="node">
<title>Node12</title>
<g id="a_node12"><a xlink:href="string__builder_8c.html#a34739f65bf6f3e3e2b9e19dadf5fe217" target="_top" xlink:title=" ">
<polygon fill="none" stroke="black" points="310.5,-57.5 310.5,-76.5 385.5,-76.5 385.5,-57.5 310.5,-57.5"/>
<text text-anchor="middle" x="348" y="-64.5" font-family="Helvetica,sans-Serif" font-size="10.00">str_buf_free</text>
</a>
</g>
</g>
<!-- Node3&#45;&gt;Node12 -->
<g id="edge12" class="edge">
<title>Node3&#45;&gt;Node12</title>
<path fill="none" stroke="midnightblue" d="M246.5,-81.3C262.64,-79.01 282.34,-76.2 300.02,-73.69"/>
<polygon fill="midnightblue" stroke="midnightblue" points="300.74,-77.12 310.15,-72.24 299.75,-70.19 300.74,-77.12"/>
</g>
<!-- Node5 -->
<g id="node5" class="node">
<title>Node5</title>
<g id="a_node5"><a xlink:href="lst__cmd2_8c.html#a132395876bb5a7cfe926b9e37571a1e3" target="_top" xlink:title=" ">
<polygon fill="none" stroke="black" points="436,-114.5 436,-133.5 528,-133.5 528,-114.5 436,-114.5"/>
<text text-anchor="middle" x="482" y="-121.5" font-family="Helvetica,sans-Serif" font-size="10.00">destructor_cmd</text>
</a>
</g>
</g>
<!-- Node4&#45;&gt;Node5 -->
<g id="edge4" class="edge">
<title>Node4&#45;&gt;Node5</title>
<path fill="none" stroke="midnightblue" d="M400.03,-112.35C408.39,-113.55 417.08,-114.8 425.54,-116.02"/>
<polygon fill="midnightblue" stroke="midnightblue" points="425.3,-119.52 435.7,-117.48 426.3,-112.59 425.3,-119.52"/>
</g>
<!-- Node10 -->
<g id="node10" class="node">
<title>Node10</title>
<g id="a_node10"><a xlink:href="lst__env_8c.html#a226ae0aa054e697998b2ecbc5d61d592" target="_top" xlink:title=" ">
<polygon fill="none" stroke="black" points="437.5,-76.5 437.5,-95.5 526.5,-95.5 526.5,-76.5 437.5,-76.5"/>
<text text-anchor="middle" x="482" y="-83.5" font-family="Helvetica,sans-Serif" font-size="10.00">destructor_env</text>
</a>
</g>
</g>
<!-- Node4&#45;&gt;Node10 -->
<g id="edge10" class="edge">
<title>Node4&#45;&gt;Node10</title>
<path fill="none" stroke="midnightblue" d="M400.03,-97.65C409,-96.36 418.34,-95.02 427.37,-93.72"/>
<polygon fill="midnightblue" stroke="midnightblue" points="427.99,-97.17 437.39,-92.28 427,-90.24 427.99,-97.17"/>
</g>
<!-- Node6 -->
<g id="node6" class="node">
<title>Node6</title>
<g id="a_node6"><a xlink:href="lst__cmd2_8c.html#a8e2b63759f149b547e0d07f210ede9b3" target="_top" xlink:title=" ">
<polygon fill="none" stroke="black" points="564,-114.5 564,-133.5 625,-133.5 625,-114.5 564,-114.5"/>
<text text-anchor="middle" x="594.5" y="-121.5" font-family="Helvetica,sans-Serif" font-size="10.00">pop_cmd</text>
</a>
</g>
</g>
<!-- Node5&#45;&gt;Node6 -->
<g id="edge5" class="edge">
<title>Node5&#45;&gt;Node6</title>
<path fill="none" stroke="midnightblue" d="M528.26,-124C536.73,-124 545.52,-124 553.8,-124"/>
<polygon fill="midnightblue" stroke="midnightblue" points="553.95,-127.5 563.95,-124 553.95,-120.5 553.95,-127.5"/>
</g>
<!-- Node7 -->
<g id="node7" class="node">
<title>Node7</title>
<g id="a_node7"><a xlink:href="lst__redir2_8c.html#a30ccaf401a4f897e48ead5fe54f4b307" target="_top" xlink:title=" ">
<polygon fill="none" stroke="black" points="661,-133.5 661,-152.5 755,-152.5 755,-133.5 661,-133.5"/>
<text text-anchor="middle" x="708" y="-140.5" font-family="Helvetica,sans-Serif" font-size="10.00">destructor_redir</text>
</a>
</g>
</g>
<!-- Node6&#45;&gt;Node7 -->
<g id="edge6" class="edge">
<title>Node6&#45;&gt;Node7</title>
<path fill="none" stroke="midnightblue" d="M625.09,-129.04C633.06,-130.4 641.95,-131.91 650.85,-133.43"/>
<polygon fill="midnightblue" stroke="midnightblue" points="650.42,-136.91 660.86,-135.14 651.59,-130.01 650.42,-136.91"/>
</g>
<!-- Node9 -->
<g id="node9" class="node">
<title>Node9</title>
<g id="a_node9"><a xlink:href="utils_8c.html#a1bca6910c90a19d96b36506a2e2cebf6" target="_top" xlink:title="as fd are all setup to &#45;1 at the beginning we check if they are open before trying to close we avoid ...">
<polygon fill="none" stroke="black" points="889,-114.5 889,-133.5 958,-133.5 958,-114.5 889,-114.5"/>
<text text-anchor="middle" x="923.5" y="-121.5" font-family="Helvetica,sans-Serif" font-size="10.00">ft_close_fd</text>
</a>
</g>
</g>
<!-- Node6&#45;&gt;Node9 -->
<g id="edge9" class="edge">
<title>Node6&#45;&gt;Node9</title>
<path fill="none" stroke="midnightblue" d="M625.1,-124C682.85,-124 810.82,-124 878.53,-124"/>
<polygon fill="midnightblue" stroke="midnightblue" points="878.86,-127.5 888.86,-124 878.85,-120.5 878.86,-127.5"/>
</g>
<!-- Node8 -->
<g id="node8" class="node">
<title>Node8</title>
<g id="a_node8"><a xlink:href="lst__redir2_8c.html#ade8f0bdda51d9bf348ebeb38fefba881" target="_top" xlink:title=" ">
<polygon fill="none" stroke="black" points="791,-133.5 791,-152.5 853,-152.5 853,-133.5 791,-133.5"/>
<text text-anchor="middle" x="822" y="-140.5" font-family="Helvetica,sans-Serif" font-size="10.00">pop_redir</text>
</a>
</g>
</g>
<!-- Node7&#45;&gt;Node8 -->
<g id="edge7" class="edge">
<title>Node7&#45;&gt;Node8</title>
<path fill="none" stroke="midnightblue" d="M755.2,-143C763.67,-143 772.46,-143 780.74,-143"/>
<polygon fill="midnightblue" stroke="midnightblue" points="780.9,-146.5 790.9,-143 780.9,-139.5 780.9,-146.5"/>
</g>
<!-- Node8&#45;&gt;Node9 -->
<g id="edge8" class="edge">
<title>Node8&#45;&gt;Node9</title>
<path fill="none" stroke="midnightblue" d="M853.12,-137.25C861.18,-135.71 870.06,-134.01 878.69,-132.37"/>
<polygon fill="midnightblue" stroke="midnightblue" points="879.49,-135.78 888.65,-130.46 878.17,-128.9 879.49,-135.78"/>
</g>
<!-- Node11 -->
<g id="node11" class="node">
<title>Node11</title>
<g id="a_node11"><a xlink:href="lst__env_8c.html#a058c245b5f2ef22f9d2659f90e4d3537" target="_top" xlink:title=" ">
<polygon fill="none" stroke="black" points="565.5,-76.5 565.5,-95.5 623.5,-95.5 623.5,-76.5 565.5,-76.5"/>
<text text-anchor="middle" x="594.5" y="-83.5" font-family="Helvetica,sans-Serif" font-size="10.00">pop_env</text>
</a>
</g>
</g>
<!-- Node10&#45;&gt;Node11 -->
<g id="edge11" class="edge">
<title>Node10&#45;&gt;Node11</title>
<path fill="none" stroke="midnightblue" d="M526.67,-86C536.14,-86 546.08,-86 555.32,-86"/>
<polygon fill="midnightblue" stroke="midnightblue" points="555.38,-89.5 565.38,-86 555.38,-82.5 555.38,-89.5"/>
</g>
</g>
</svg>
