<?xml version="1.0" encoding="UTF-8" standalone="no"?>
<!DOCTYPE svg PUBLIC "-//W3C//DTD SVG 1.1//EN"
 "http://www.w3.org/Graphics/SVG/1.1/DTD/svg11.dtd">
<!-- Generated by graphviz version 2.43.0 (0)
 -->
<!-- Title: expand_manager Pages: 1 -->
<!--zoomable 427 -->
<svg id="main" version="1.1" xmlns="http://www.w3.org/2000/svg" xmlns:xlink="http://www.w3.org/1999/xlink" xml:space="preserve" onload="init(evt)">
<style type="text/css"><![CDATA[
.edge:hover path { stroke: red; }
.edge:hover polygon { stroke: red; fill: red; }
]]></style>
<script type="text/javascript"><![CDATA[
var edges = document.getElementsByTagName('g');
if (edges && edges.length) {
  for (var i=0;i<edges.length;i++) {
    if (edges[i].id.substr(0,4)=='edge') {
      edges[i].setAttribute('class','edge');
    }
  }
}
]]></script>
        <defs>
                <circle id="rim" cx="0" cy="0" r="7"/>
                <circle id="rim2" cx="0" cy="0" r="3.5"/>
                <g id="zoomPlus">
                        <use xlink:href="#rim" fill="#404040">
                                <set attributeName="fill" to="#808080" begin="zoomplus.mouseover" end="zoomplus.mouseout"/>
                        </use>
                        <path d="M-4,0h8M0,-4v8" fill="none" stroke="white" stroke-width="1.5" pointer-events="none"/>
                </g>
                <g id="zoomMin">
                        <use xlink:href="#rim" fill="#404040">
                                <set attributeName="fill" to="#808080" begin="zoomminus.mouseover" end="zoomminus.mouseout"/>
                        </use>
                        <path d="M-4,0h8" fill="none" stroke="white" stroke-width="1.5" pointer-events="none"/>
                </g>
                <g id="dirArrow">
                        <path fill="none" stroke="white" stroke-width="1.5" d="M0,-3.0v7 M-2.5,-0.5L0,-3.0L2.5,-0.5"/>
                </g>
               <g id="resetDef">
                       <use xlink:href="#rim2" fill="#404040">
                               <set attributeName="fill" to="#808080" begin="reset.mouseover" end="reset.mouseout"/>
                       </use>
               </g>
        </defs>

<script type="text/javascript">
var viewWidth = 743;
var viewHeight = 427;
var sectionId = 'dynsection-2';
</script>
<script xlink:href="svgpan.js"/>
<svg id="graph" class="graph">
<g id="viewport">
<title>expand_manager</title>
<!-- Node1 -->
<g id="node1" class="node">
<title>Node1</title>
<g id="a_node1"><a xlink:title="Iterate over every args and redir of each command to expand and dequote what needs to be.">
<polygon fill="#bfbfbf" stroke="black" points="0,-190.5 0,-209.5 101,-209.5 101,-190.5 0,-190.5"/>
<text text-anchor="middle" x="50.5" y="-197.5" font-family="Helvetica,sans-Serif" font-size="10.00">expand_manager</text>
</a>
</g>
</g>
<!-- Node2 -->
<g id="node2" class="node">
<title>Node2</title>
<g id="a_node2"><a xlink:href="expand_8c.html#a7ebf77f962efcddaed1e2913bb8b799a" target="_top" xlink:title="Removes a given index of an argv in case of env variable not found.">
<polygon fill="none" stroke="black" points="137,-228.5 137,-247.5 250,-247.5 250,-228.5 137,-228.5"/>
<text text-anchor="middle" x="193.5" y="-235.5" font-family="Helvetica,sans-Serif" font-size="10.00">argv_remove_index</text>
</a>
</g>
</g>
<!-- Node1&#45;&gt;Node2 -->
<g id="edge1" class="edge">
<title>Node1&#45;&gt;Node2</title>
<path fill="none" stroke="midnightblue" d="M87.08,-209.59C105.28,-214.49 127.64,-220.52 147.07,-225.76"/>
<polygon fill="midnightblue" stroke="midnightblue" points="146.36,-229.19 156.93,-228.41 148.19,-222.43 146.36,-229.19"/>
</g>
<!-- Node3 -->
<g id="node3" class="node">
<title>Node3</title>
<g id="a_node3"><a xlink:href="error_8c.html#a6cbc08f00af3f516acb081d28b384238" target="_top" xlink:title=" ">
<polygon fill="none" stroke="black" points="148,-190.5 148,-209.5 239,-209.5 239,-190.5 148,-190.5"/>
<text text-anchor="middle" x="193.5" y="-197.5" font-family="Helvetica,sans-Serif" font-size="10.00">exp_redir_error</text>
</a>
</g>
</g>
<!-- Node1&#45;&gt;Node3 -->
<g id="edge2" class="edge">
<title>Node1&#45;&gt;Node3</title>
<path fill="none" stroke="midnightblue" d="M101.21,-200C112.99,-200 125.61,-200 137.6,-200"/>
<polygon fill="midnightblue" stroke="midnightblue" points="137.94,-203.5 147.94,-200 137.94,-196.5 137.94,-203.5"/>
</g>
<!-- Node4 -->
<g id="node4" class="node">
<title>Node4</title>
<g id="a_node4"><a xlink:href="expand__word_8c.html#a0ec378990f411456436a9bb6a71babfc" target="_top" xlink:title="Scans the word to dequote/expand and build correct output.">
<polygon fill="none" stroke="black" points="152.5,-152.5 152.5,-171.5 234.5,-171.5 234.5,-152.5 152.5,-152.5"/>
<text text-anchor="middle" x="193.5" y="-159.5" font-family="Helvetica,sans-Serif" font-size="10.00">expand_word</text>
</a>
</g>
</g>
<!-- Node1&#45;&gt;Node4 -->
<g id="edge3" class="edge">
<title>Node1&#45;&gt;Node4</title>
<path fill="none" stroke="midnightblue" d="M87.08,-190.41C105.28,-185.51 127.64,-179.48 147.07,-174.24"/>
<polygon fill="midnightblue" stroke="midnightblue" points="148.19,-177.57 156.93,-171.59 146.36,-170.81 148.19,-177.57"/>
</g>
<!-- Node5 -->
<g id="node5" class="node">
<title>Node5</title>
<g id="a_node5"><a xlink:href="lexer__utils_8c.html#a6b132516dacc9599762b1fe7341a0f04" target="_top" xlink:title="Advance one byte in the struct t_lexer to keep track of progress.">
<polygon fill="none" stroke="black" points="554.5,-314.5 554.5,-333.5 612.5,-333.5 612.5,-314.5 554.5,-314.5"/>
<text text-anchor="middle" x="583.5" y="-321.5" font-family="Helvetica,sans-Serif" font-size="10.00">advance</text>
</a>
</g>
</g>
<!-- Node4&#45;&gt;Node5 -->
<g id="edge4" class="edge">
<title>Node4&#45;&gt;Node5</title>
<path fill="none" stroke="midnightblue" d="M229.53,-171.54C236.55,-174.12 243.69,-177.26 250,-181 330.34,-228.69 318.02,-288.9 405,-323 450.17,-340.71 506.93,-337.01 543.93,-331.54"/>
<polygon fill="midnightblue" stroke="midnightblue" points="544.95,-334.92 554.28,-329.89 543.85,-328.01 544.95,-334.92"/>
</g>
<!-- Node6 -->
<g id="node6" class="node">
<title>Node6</title>
<g id="a_node6"><a xlink:href="expand__dollar_8c.html#ac3e15865744ed2c1300a5cb96f24e33d" target="_top" xlink:title="Manages all possibilities with expand : $?, known and unknown env variable.">
<polygon fill="none" stroke="black" points="286,-171.5 286,-190.5 369,-190.5 369,-171.5 286,-171.5"/>
<text text-anchor="middle" x="327.5" y="-178.5" font-family="Helvetica,sans-Serif" font-size="10.00">handle_dollar</text>
</a>
</g>
</g>
<!-- Node4&#45;&gt;Node6 -->
<g id="edge5" class="edge">
<title>Node4&#45;&gt;Node6</title>
<path fill="none" stroke="midnightblue" d="M234.82,-167.8C247.75,-169.66 262.24,-171.75 275.81,-173.7"/>
<polygon fill="midnightblue" stroke="midnightblue" points="275.57,-177.21 285.97,-175.17 276.57,-170.28 275.57,-177.21"/>
</g>
<!-- Node8 -->
<g id="node8" class="node">
<title>Node8</title>
<g id="a_node8"><a xlink:href="string__builder_8c.html#a54e602a5da87bd89687c69c2d86f34d2" target="_top" xlink:title="Put char in the struct t_str_buf so we can build a string in the struct. The point is to create the s...">
<polygon fill="none" stroke="black" points="658,-171.5 658,-190.5 735,-190.5 735,-171.5 658,-171.5"/>
<text text-anchor="middle" x="696.5" y="-178.5" font-family="Helvetica,sans-Serif" font-size="10.00">str_buf_putc</text>
</a>
</g>
</g>
<!-- Node4&#45;&gt;Node8 -->
<g id="edge27" class="edge">
<title>Node4&#45;&gt;Node8</title>
<path fill="none" stroke="midnightblue" d="M234.77,-169.9C240.55,-172.59 245.91,-176.19 250,-181 312.41,-254.53 216.13,-328.51 286,-395 324.58,-431.71 351.84,-405.88 405,-409 502.52,-414.72 550.76,-440.85 622,-374 672.92,-326.21 688.91,-239.42 693.64,-200.64"/>
<polygon fill="midnightblue" stroke="midnightblue" points="697.12,-200.96 694.73,-190.64 690.16,-200.2 697.12,-200.96"/>
</g>
<!-- Node13 -->
<g id="node13" class="node">
<title>Node13</title>
<g id="a_node13"><a xlink:href="string__builder_8c.html#a1bfdfae2d27c541b15b526d7d67b7577" target="_top" xlink:title="End and null terminate the string created in t_str_buf, reset the struct so it can be reused and retu...">
<polygon fill="none" stroke="black" points="420,-0.5 420,-19.5 494,-19.5 494,-0.5 420,-0.5"/>
<text text-anchor="middle" x="457" y="-7.5" font-family="Helvetica,sans-Serif" font-size="10.00">str_buf_end</text>
</a>
</g>
</g>
<!-- Node4&#45;&gt;Node13 -->
<g id="edge25" class="edge">
<title>Node4&#45;&gt;Node13</title>
<path fill="none" stroke="midnightblue" d="M213.98,-152.43C232.39,-143.47 260.88,-129.89 286,-119 322.43,-103.22 338.46,-111.36 369,-86 392.05,-66.86 381.74,-47.89 405,-29 407.05,-27.33 409.27,-25.8 411.58,-24.4"/>
<polygon fill="midnightblue" stroke="midnightblue" points="413.61,-27.29 420.89,-19.6 410.4,-21.07 413.61,-27.29"/>
</g>
<!-- Node14 -->
<g id="node14" class="node">
<title>Node14</title>
<g id="a_node14"><a xlink:href="string__builder_8c.html#a2ff0766da574e4904598f3119c7d3749" target="_top" xlink:title=" ">
<polygon fill="none" stroke="black" points="421.5,-38.5 421.5,-57.5 492.5,-57.5 492.5,-38.5 421.5,-38.5"/>
<text text-anchor="middle" x="457" y="-45.5" font-family="Helvetica,sans-Serif" font-size="10.00">str_buf_init</text>
</a>
</g>
</g>
<!-- Node4&#45;&gt;Node14 -->
<g id="edge26" class="edge">
<title>Node4&#45;&gt;Node14</title>
<path fill="none" stroke="midnightblue" d="M234.84,-157.5C271.47,-152.19 326.16,-141.1 369,-119 387.76,-109.32 388.69,-101.41 405,-88 414.85,-79.9 425.97,-71.14 435.31,-63.88"/>
<polygon fill="midnightblue" stroke="midnightblue" points="437.53,-66.59 443.3,-57.7 433.25,-61.05 437.53,-66.59"/>
</g>
<!-- Node15 -->
<g id="node15" class="node">
<title>Node15</title>
<g id="a_node15"><a xlink:href="expand__word_8c.html#ae5fd7fdfce4171a392a4f6c781f4e813" target="_top" xlink:title="Dequotes and manage quote state to expand correctly.">
<polygon fill="none" stroke="black" points="413,-380.5 413,-399.5 501,-399.5 501,-380.5 413,-380.5"/>
<text text-anchor="middle" x="457" y="-387.5" font-family="Helvetica,sans-Serif" font-size="10.00">handle_quotes</text>
</a>
</g>
</g>
<!-- Node4&#45;&gt;Node15 -->
<g id="edge20" class="edge">
<title>Node4&#45;&gt;Node15</title>
<path fill="none" stroke="midnightblue" d="M234.67,-169.99C240.46,-172.67 245.85,-176.24 250,-181 305.02,-244.16 225.25,-308.33 286,-366 316.53,-394.98 365.11,-399.29 402.53,-397.33"/>
<polygon fill="midnightblue" stroke="midnightblue" points="403.03,-400.8 412.77,-396.63 402.55,-393.82 403.03,-400.8"/>
</g>
<!-- Node16 -->
<g id="node16" class="node">
<title>Node16</title>
<g id="a_node16"><a xlink:href="expand__word_8c.html#af8312a725cf021e108e011dfa4d60f73" target="_top" xlink:title="Initialise expand struct.">
<polygon fill="none" stroke="black" points="290.5,-57.5 290.5,-76.5 364.5,-76.5 364.5,-57.5 290.5,-57.5"/>
<text text-anchor="middle" x="327.5" y="-64.5" font-family="Helvetica,sans-Serif" font-size="10.00">init_expand</text>
</a>
</g>
</g>
<!-- Node4&#45;&gt;Node16 -->
<g id="edge23" class="edge">
<title>Node4&#45;&gt;Node16</title>
<path fill="none" stroke="midnightblue" d="M205.99,-152.33C223,-138.19 256.08,-111.36 286,-91 290.53,-87.92 295.46,-84.8 300.28,-81.89"/>
<polygon fill="midnightblue" stroke="midnightblue" points="302.43,-84.68 309.26,-76.58 298.87,-78.66 302.43,-84.68"/>
</g>
<!-- Node17 -->
<g id="node17" class="node">
<title>Node17</title>
<g id="a_node17"><a xlink:href="lexer__utils_8c.html#a5226e7cc8fd04bded427425b8bee4439" target="_top" xlink:title="Initialize t_lexer.">
<polygon fill="none" stroke="black" points="301,-19.5 301,-38.5 354,-38.5 354,-19.5 301,-19.5"/>
<text text-anchor="middle" x="327.5" y="-26.5" font-family="Helvetica,sans-Serif" font-size="10.00">lex_init</text>
</a>
</g>
</g>
<!-- Node4&#45;&gt;Node17 -->
<g id="edge24" class="edge">
<title>Node4&#45;&gt;Node17</title>
<path fill="none" stroke="midnightblue" d="M200.19,-152.21C213.03,-130.79 246.31,-79.22 286,-48 288.03,-46.4 290.22,-44.9 292.48,-43.5"/>
<polygon fill="midnightblue" stroke="midnightblue" points="294.39,-46.44 301.47,-38.56 291.02,-40.31 294.39,-46.44"/>
</g>
<!-- Node6&#45;&gt;Node5 -->
<g id="edge6" class="edge">
<title>Node6&#45;&gt;Node5</title>
<path fill="none" stroke="midnightblue" d="M331.87,-190.6C340.28,-213.05 364.49,-268.98 405,-295 447.03,-321.99 505.84,-326.57 544.04,-326.21"/>
<polygon fill="midnightblue" stroke="midnightblue" points="544.32,-329.71 554.24,-326 544.17,-322.71 544.32,-329.71"/>
</g>
<!-- Node7 -->
<g id="node7" class="node">
<title>Node7</title>
<g id="a_node7"><a xlink:href="expand__dollar_8c.html#a1cf0ce389e469994b9ddb06a944e531e" target="_top" xlink:title="Handle $? to expand on current error code.">
<polygon fill="none" stroke="black" points="412.5,-152.5 412.5,-171.5 501.5,-171.5 501.5,-152.5 412.5,-152.5"/>
<text text-anchor="middle" x="457" y="-159.5" font-family="Helvetica,sans-Serif" font-size="10.00">error_code_var</text>
</a>
</g>
</g>
<!-- Node6&#45;&gt;Node7 -->
<g id="edge7" class="edge">
<title>Node6&#45;&gt;Node7</title>
<path fill="none" stroke="midnightblue" d="M369.19,-174.94C379.68,-173.37 391.13,-171.67 402.18,-170.02"/>
<polygon fill="midnightblue" stroke="midnightblue" points="402.79,-173.47 412.17,-168.53 401.76,-166.54 402.79,-173.47"/>
</g>
<!-- Node6&#45;&gt;Node8 -->
<g id="edge18" class="edge">
<title>Node6&#45;&gt;Node8</title>
<path fill="none" stroke="midnightblue" d="M369.34,-183.01C426.05,-185.5 531.85,-189.06 622,-186 630.27,-185.72 639.05,-185.26 647.56,-184.73"/>
<polygon fill="midnightblue" stroke="midnightblue" points="648.01,-188.21 657.76,-184.06 647.55,-181.23 648.01,-188.21"/>
</g>
<!-- Node9 -->
<g id="node9" class="node">
<title>Node9</title>
<g id="a_node9"><a xlink:href="string__builder_8c.html#a4bb0bb42cbf7ca9f7feff204d3059306" target="_top" xlink:title="Put a null terminated string in the t_str_buf struct.">
<polygon fill="none" stroke="black" points="545,-114.5 545,-133.5 622,-133.5 622,-114.5 545,-114.5"/>
<text text-anchor="middle" x="583.5" y="-121.5" font-family="Helvetica,sans-Serif" font-size="10.00">str_buf_puts</text>
</a>
</g>
</g>
<!-- Node6&#45;&gt;Node9 -->
<g id="edge19" class="edge">
<title>Node6&#45;&gt;Node9</title>
<path fill="none" stroke="midnightblue" d="M348.63,-171.33C355.53,-167.45 363.02,-162.57 369,-157 389.57,-137.84 380.1,-118.05 405,-105 451.55,-80.61 514.3,-96.86 551.38,-110.62"/>
<polygon fill="midnightblue" stroke="midnightblue" points="550.53,-114.05 561.12,-114.4 553.06,-107.52 550.53,-114.05"/>
</g>
<!-- Node10 -->
<g id="node10" class="node">
<title>Node10</title>
<g id="a_node10"><a xlink:href="expand_8c.html#a19e46ed1e16f9b3f3b1e8961163feedc" target="_top" xlink:title="Checks if a given char is a valid character for the key of an env variable.">
<polygon fill="none" stroke="black" points="409.5,-114.5 409.5,-133.5 504.5,-133.5 504.5,-114.5 409.5,-114.5"/>
<text text-anchor="middle" x="457" y="-121.5" font-family="Helvetica,sans-Serif" font-size="10.00">is_valid_for_key</text>
</a>
</g>
</g>
<!-- Node6&#45;&gt;Node10 -->
<g id="edge12" class="edge">
<title>Node6&#45;&gt;Node10</title>
<path fill="none" stroke="midnightblue" d="M346.49,-171.4C361.83,-163.37 384.59,-151.84 405,-143 409.53,-141.04 414.34,-139.08 419.12,-137.22"/>
<polygon fill="midnightblue" stroke="midnightblue" points="420.69,-140.36 428.79,-133.54 418.2,-133.82 420.69,-140.36"/>
</g>
<!-- Node11 -->
<g id="node11" class="node">
<title>Node11</title>
<g id="a_node11"><a xlink:href="lexer__utils_8c.html#a855a36981b55d317a52d24560c0809bf" target="_top" xlink:title="&quot;Peek&quot;, Look at the next character in the input string">
<polygon fill="none" stroke="black" points="436.5,-266.5 436.5,-285.5 477.5,-285.5 477.5,-266.5 436.5,-266.5"/>
<text text-anchor="middle" x="457" y="-273.5" font-family="Helvetica,sans-Serif" font-size="10.00">peek</text>
</a>
</g>
</g>
<!-- Node6&#45;&gt;Node11 -->
<g id="edge13" class="edge">
<title>Node6&#45;&gt;Node11</title>
<path fill="none" stroke="midnightblue" d="M335.95,-190.73C348.58,-206.61 375.67,-238.23 405,-257 411.57,-261.2 419.2,-264.67 426.52,-267.44"/>
<polygon fill="midnightblue" stroke="midnightblue" points="425.6,-270.82 436.2,-270.79 427.89,-264.21 425.6,-270.82"/>
</g>
<!-- Node12 -->
<g id="node12" class="node">
<title>Node12</title>
<g id="a_node12"><a xlink:href="lst__env__two_8c.html#a4d4a14327b2c3ff88099102b6bd77986" target="_top" xlink:title=" ">
<polygon fill="none" stroke="black" points="405,-228.5 405,-247.5 509,-247.5 509,-228.5 405,-228.5"/>
<text text-anchor="middle" x="457" y="-235.5" font-family="Helvetica,sans-Serif" font-size="10.00">research_key_env</text>
</a>
</g>
</g>
<!-- Node6&#45;&gt;Node12 -->
<g id="edge14" class="edge">
<title>Node6&#45;&gt;Node12</title>
<path fill="none" stroke="midnightblue" d="M349.84,-190.54C370.53,-199.79 402.11,-213.91 425.46,-224.35"/>
<polygon fill="midnightblue" stroke="midnightblue" points="424.03,-227.54 434.59,-228.43 426.89,-221.15 424.03,-227.54"/>
</g>
<!-- Node6&#45;&gt;Node13 -->
<g id="edge15" class="edge">
<title>Node6&#45;&gt;Node13</title>
<path fill="none" stroke="midnightblue" d="M335.73,-171.28C344.36,-159.37 358.92,-138.39 369,-119 388.88,-80.78 374.18,-59.1 405,-29 406.83,-27.21 408.85,-25.59 410.99,-24.11"/>
<polygon fill="midnightblue" stroke="midnightblue" points="412.78,-27.12 419.75,-19.15 409.32,-21.04 412.78,-27.12"/>
</g>
<!-- Node6&#45;&gt;Node14 -->
<g id="edge17" class="edge">
<title>Node6&#45;&gt;Node14</title>
<path fill="none" stroke="midnightblue" d="M350.55,-171.28C357.14,-167.56 363.94,-162.78 369,-157 396,-126.11 376.56,-101.57 405,-72 408.6,-68.26 412.89,-65.04 417.44,-62.29"/>
<polygon fill="midnightblue" stroke="midnightblue" points="419.18,-65.32 426.38,-57.55 415.91,-59.14 419.18,-65.32"/>
</g>
<!-- Node7&#45;&gt;Node5 -->
<g id="edge8" class="edge">
<title>Node7&#45;&gt;Node5</title>
<path fill="none" stroke="midnightblue" d="M467.4,-171.78C477.93,-182.89 495.31,-201.73 509,-219 532.36,-248.47 556.91,-284.79 570.9,-306.07"/>
<polygon fill="midnightblue" stroke="midnightblue" points="567.98,-308 576.37,-314.46 573.84,-304.17 567.98,-308"/>
</g>
<!-- Node7&#45;&gt;Node8 -->
<g id="edge9" class="edge">
<title>Node7&#45;&gt;Node8</title>
<path fill="none" stroke="midnightblue" d="M501.56,-165.48C542.88,-168.79 604.84,-173.75 647.55,-177.16"/>
<polygon fill="midnightblue" stroke="midnightblue" points="647.45,-180.67 657.7,-177.98 648.01,-173.69 647.45,-180.67"/>
</g>
<!-- Node7&#45;&gt;Node9 -->
<g id="edge10" class="edge">
<title>Node7&#45;&gt;Node9</title>
<path fill="none" stroke="midnightblue" d="M489.42,-152.41C505.19,-147.6 524.51,-141.7 541.44,-136.53"/>
<polygon fill="midnightblue" stroke="midnightblue" points="542.55,-139.85 551.09,-133.59 540.51,-133.16 542.55,-139.85"/>
</g>
<!-- Node9&#45;&gt;Node8 -->
<g id="edge11" class="edge">
<title>Node9&#45;&gt;Node8</title>
<path fill="none" stroke="midnightblue" d="M603.08,-133.54C620.77,-142.62 647.61,-156.41 667.82,-166.79"/>
<polygon fill="midnightblue" stroke="midnightblue" points="666.37,-169.97 676.86,-171.43 669.56,-163.75 666.37,-169.97"/>
</g>
<!-- Node13&#45;&gt;Node8 -->
<g id="edge16" class="edge">
<title>Node13&#45;&gt;Node8</title>
<path fill="none" stroke="midnightblue" d="M487.37,-19.6C494.59,-22.32 502.19,-25.5 509,-29 562.84,-56.65 575.6,-66.14 622,-105 644.05,-123.46 666.64,-147.8 680.85,-163.9"/>
<polygon fill="midnightblue" stroke="midnightblue" points="678.26,-166.25 687.47,-171.49 683.54,-161.65 678.26,-166.25"/>
</g>
<!-- Node15&#45;&gt;Node5 -->
<g id="edge21" class="edge">
<title>Node15&#45;&gt;Node5</title>
<path fill="none" stroke="midnightblue" d="M479.28,-380.45C488.49,-376.19 499.36,-371.01 509,-366 525.58,-357.38 543.82,-346.96 557.98,-338.66"/>
<polygon fill="midnightblue" stroke="midnightblue" points="559.81,-341.64 566.64,-333.55 556.25,-335.62 559.81,-341.64"/>
</g>
<!-- Node15&#45;&gt;Node8 -->
<g id="edge22" class="edge">
<title>Node15&#45;&gt;Node8</title>
<path fill="none" stroke="midnightblue" d="M501.05,-387.51C537.17,-383.32 588.14,-372.22 622,-343 666.11,-304.93 685.13,-234.98 692.08,-200.82"/>
<polygon fill="midnightblue" stroke="midnightblue" points="695.57,-201.18 693.99,-190.71 688.69,-199.88 695.57,-201.18"/>
</g>
</g>
</svg>
        <g id="navigator" transform="translate(0 0)" fill="#404254">
                <rect fill="#f2f5e9" fill-opacity="0.5" stroke="#606060" stroke-width=".5" x="0" y="0" width="60" height="60"/>
                <use id="zoomplus" xlink:href="#zoomPlus" x="17" y="9" onmousedown="handleZoom(evt,'in')"/>
                <use id="zoomminus" xlink:href="#zoomMin" x="42" y="9" onmousedown="handleZoom(evt,'out')"/>
                <use id="reset" xlink:href="#resetDef" x="30" y="36" onmousedown="handleReset()"/>
                <g id="arrowUp" xlink:href="#dirArrow" transform="translate(30 24)" onmousedown="handlePan(0,-1)">
                  <use xlink:href="#rim" fill="#404040">
                        <set attributeName="fill" to="#808080" begin="arrowUp.mouseover" end="arrowUp.mouseout"/>
                  </use>
                  <path fill="none" stroke="white" stroke-width="1.5" d="M0,-3.0v7 M-2.5,-0.5L0,-3.0L2.5,-0.5"/>
                </g>
                <g id="arrowRight" xlink:href="#dirArrow" transform="rotate(90) translate(36 -43)" onmousedown="handlePan(1,0)">
                  <use xlink:href="#rim" fill="#404040">
                        <set attributeName="fill" to="#808080" begin="arrowRight.mouseover" end="arrowRight.mouseout"/>
                  </use>
                  <path fill="none" stroke="white" stroke-width="1.5" d="M0,-3.0v7 M-2.5,-0.5L0,-3.0L2.5,-0.5"/>
                </g>
                <g id="arrowDown" xlink:href="#dirArrow" transform="rotate(180) translate(-30 -48)" onmousedown="handlePan(0,1)">
                  <use xlink:href="#rim" fill="#404040">
                        <set attributeName="fill" to="#808080" begin="arrowDown.mouseover" end="arrowDown.mouseout"/>
                  </use>
                  <path fill="none" stroke="white" stroke-width="1.5" d="M0,-3.0v7 M-2.5,-0.5L0,-3.0L2.5,-0.5"/>
                </g>
                <g id="arrowLeft" xlink:href="#dirArrow" transform="rotate(270) translate(-36 17)" onmousedown="handlePan(-1,0)">
                  <use xlink:href="#rim" fill="#404040">
                        <set attributeName="fill" to="#808080" begin="arrowLeft.mouseover" end="arrowLeft.mouseout"/>
                  </use>
                  <path fill="none" stroke="white" stroke-width="1.5" d="M0,-3.0v7 M-2.5,-0.5L0,-3.0L2.5,-0.5"/>
                </g>
        </g>
        <svg viewBox="0 0 15 15" width="100%" height="30px" preserveAspectRatio="xMaxYMin meet">
         <g id="arrow_out" transform="scale(0.3 0.3)">
          <a xlink:href="expand_8c_a53c53e75b0ad8c8888217cd918304b8b_cgraph_org.svg" target="_base">
           <rect id="button" ry="5" rx="5" y="6" x="6" height="38" width="38"
                fill="#f2f5e9" fill-opacity="0.5" stroke="#606060" stroke-width="1.0"/>
           <path id="arrow"
             d="M 11.500037,31.436501 C 11.940474,20.09759 22.043105,11.32322 32.158766,21.979434 L 37.068811,17.246167 C 37.068811,17.246167 37.088388,32 37.088388,32 L 22.160133,31.978069 C 22.160133,31.978069 26.997745,27.140456 26.997745,27.140456 C 18.528582,18.264221 13.291696,25.230495 11.500037,31.436501 z"
             style="fill:#404040;"/>
          </a>
         </g>
        </svg>
</svg>
