<?xml version="1.0" encoding="UTF-8" standalone="no"?>
<!DOCTYPE svg PUBLIC "-//W3C//DTD SVG 1.1//EN"
 "http://www.w3.org/Graphics/SVG/1.1/DTD/svg11.dtd">
<!-- Generated by graphviz version 2.43.0 (0)
 -->
<!-- Title: expand_manager Pages: 1 -->
<!--zoomable 778 -->
<svg id="main" version="1.1" xmlns="http://www.w3.org/2000/svg" xmlns:xlink="http://www.w3.org/1999/xlink" xml:space="preserve" onload="init(evt)">
<style type="text/css"><![CDATA[
.edge:hover path { stroke: red; }
.edge:hover polygon { stroke: red; fill: red; }
]]></style>
<script type="text/javascript"><![CDATA[
var edges = document.getElementsByTagName('g');
if (edges && edges.length) {
  for (var i=0;i<edges.length;i++) {
    if (edges[i].id.substr(0,4)=='edge') {
      edges[i].setAttribute('class','edge');
    }
  }
}
]]></script>
        <defs>
                <circle id="rim" cx="0" cy="0" r="7"/>
                <circle id="rim2" cx="0" cy="0" r="3.5"/>
                <g id="zoomPlus">
                        <use xlink:href="#rim" fill="#404040">
                                <set attributeName="fill" to="#808080" begin="zoomplus.mouseover" end="zoomplus.mouseout"/>
                        </use>
                        <path d="M-4,0h8M0,-4v8" fill="none" stroke="white" stroke-width="1.5" pointer-events="none"/>
                </g>
                <g id="zoomMin">
                        <use xlink:href="#rim" fill="#404040">
                                <set attributeName="fill" to="#808080" begin="zoomminus.mouseover" end="zoomminus.mouseout"/>
                        </use>
                        <path d="M-4,0h8" fill="none" stroke="white" stroke-width="1.5" pointer-events="none"/>
                </g>
                <g id="dirArrow">
                        <path fill="none" stroke="white" stroke-width="1.5" d="M0,-3.0v7 M-2.5,-0.5L0,-3.0L2.5,-0.5"/>
                </g>
               <g id="resetDef">
                       <use xlink:href="#rim2" fill="#404040">
                               <set attributeName="fill" to="#808080" begin="reset.mouseover" end="reset.mouseout"/>
                       </use>
               </g>
        </defs>

<script type="text/javascript">
var viewWidth = 1648;
var viewHeight = 778;
var sectionId = 'dynsection-4';
</script>
<script xlink:href="svgpan.js"/>
<svg id="graph" class="graph">
<g id="viewport">
<title>expand_manager</title>
<!-- Node1 -->
<g id="node1" class="node">
<title>Node1</title>
<g id="a_node1"><a xlink:title="Iterate over every args and redir of each command to expand and dequote what needs to be.">
<polygon fill="#bfbfbf" stroke="black" points="0,-712.5 0,-731.5 101,-731.5 101,-712.5 0,-712.5"/>
<text text-anchor="middle" x="50.5" y="-719.5" font-family="Helvetica,sans-Serif" font-size="10.00">expand_manager</text>
</a>
</g>
</g>
<!-- Node2 -->
<g id="node2" class="node">
<title>Node2</title>
<g id="a_node2"><a xlink:href="expand_8c.html#a7ebf77f962efcddaed1e2913bb8b799a" target="_top" xlink:title="Removes a given index of an argv in case of env variable not found.">
<polygon fill="none" stroke="black" points="137,-750.5 137,-769.5 250,-769.5 250,-750.5 137,-750.5"/>
<text text-anchor="middle" x="193.5" y="-757.5" font-family="Helvetica,sans-Serif" font-size="10.00">argv_remove_index</text>
</a>
</g>
</g>
<!-- Node1&#45;&gt;Node2 -->
<g id="edge1" class="edge">
<title>Node1&#45;&gt;Node2</title>
<path fill="none" stroke="midnightblue" d="M87.08,-731.59C105.28,-736.49 127.64,-742.52 147.07,-747.76"/>
<polygon fill="midnightblue" stroke="midnightblue" points="146.36,-751.19 156.93,-750.41 148.19,-744.43 146.36,-751.19"/>
</g>
<!-- Node3 -->
<g id="node3" class="node">
<title>Node3</title>
<g id="a_node3"><a xlink:href="expand_8c.html#aa18c8661b304a521d512b7acc7d7a1cb" target="_top" xlink:title=" ">
<polygon fill="none" stroke="black" points="430,-712.5 430,-731.5 521,-731.5 521,-712.5 430,-712.5"/>
<text text-anchor="middle" x="475.5" y="-719.5" font-family="Helvetica,sans-Serif" font-size="10.00">exp_redir_error</text>
</a>
</g>
</g>
<!-- Node1&#45;&gt;Node3 -->
<g id="edge2" class="edge">
<title>Node1&#45;&gt;Node3</title>
<path fill="none" stroke="midnightblue" d="M101.27,-722C180.96,-722 336.63,-722 419.51,-722"/>
<polygon fill="midnightblue" stroke="midnightblue" points="419.73,-725.5 429.73,-722 419.73,-718.5 419.73,-725.5"/>
</g>
<!-- Node9 -->
<g id="node9" class="node">
<title>Node9</title>
<g id="a_node9"><a xlink:href="expand__word_8c.html#a0ec378990f411456436a9bb6a71babfc" target="_top" xlink:title="Scans the word to dequote/expand and build correct output.">
<polygon fill="none" stroke="black" points="152.5,-598.5 152.5,-617.5 234.5,-617.5 234.5,-598.5 152.5,-598.5"/>
<text text-anchor="middle" x="193.5" y="-605.5" font-family="Helvetica,sans-Serif" font-size="10.00">expand_word</text>
</a>
</g>
</g>
<!-- Node1&#45;&gt;Node9 -->
<g id="edge9" class="edge">
<title>Node1&#45;&gt;Node9</title>
<path fill="none" stroke="midnightblue" d="M63.52,-712.28C87.77,-692.68 142.74,-648.23 172.49,-624.18"/>
<polygon fill="midnightblue" stroke="midnightblue" points="174.93,-626.7 180.51,-617.69 170.53,-621.26 174.93,-626.7"/>
</g>
<!-- Node4 -->
<g id="node4" class="node">
<title>Node4</title>
<g id="a_node4"><a xlink:href="lst__cmd2_8c.html#a132395876bb5a7cfe926b9e37571a1e3" target="_top" xlink:title=" ">
<polygon fill="none" stroke="black" points="1118,-693.5 1118,-712.5 1210,-712.5 1210,-693.5 1118,-693.5"/>
<text text-anchor="middle" x="1164" y="-700.5" font-family="Helvetica,sans-Serif" font-size="10.00">destructor_cmd</text>
</a>
</g>
</g>
<!-- Node3&#45;&gt;Node4 -->
<g id="edge3" class="edge">
<title>Node3&#45;&gt;Node4</title>
<path fill="none" stroke="midnightblue" d="M521.24,-722C574.62,-722 666.57,-722 745.5,-722 745.5,-722 745.5,-722 895.5,-722 968.98,-722 1053.53,-714.78 1107.57,-709.24"/>
<polygon fill="midnightblue" stroke="midnightblue" points="1108.05,-712.71 1117.63,-708.19 1107.32,-705.75 1108.05,-712.71"/>
</g>
<!-- Node5 -->
<g id="node5" class="node">
<title>Node5</title>
<g id="a_node5"><a xlink:href="lst__cmd2_8c.html#a8e2b63759f149b547e0d07f210ede9b3" target="_top" xlink:title=" ">
<polygon fill="none" stroke="black" points="1246,-693.5 1246,-712.5 1307,-712.5 1307,-693.5 1246,-693.5"/>
<text text-anchor="middle" x="1276.5" y="-700.5" font-family="Helvetica,sans-Serif" font-size="10.00">pop_cmd</text>
</a>
</g>
</g>
<!-- Node4&#45;&gt;Node5 -->
<g id="edge4" class="edge">
<title>Node4&#45;&gt;Node5</title>
<path fill="none" stroke="midnightblue" d="M1210.26,-703C1218.73,-703 1227.52,-703 1235.8,-703"/>
<polygon fill="midnightblue" stroke="midnightblue" points="1235.95,-706.5 1245.95,-703 1235.95,-699.5 1235.95,-706.5"/>
</g>
<!-- Node6 -->
<g id="node6" class="node">
<title>Node6</title>
<g id="a_node6"><a xlink:href="lst__redir2_8c.html#a30ccaf401a4f897e48ead5fe54f4b307" target="_top" xlink:title=" ">
<polygon fill="none" stroke="black" points="1343,-712.5 1343,-731.5 1437,-731.5 1437,-712.5 1343,-712.5"/>
<text text-anchor="middle" x="1390" y="-719.5" font-family="Helvetica,sans-Serif" font-size="10.00">destructor_redir</text>
</a>
</g>
</g>
<!-- Node5&#45;&gt;Node6 -->
<g id="edge5" class="edge">
<title>Node5&#45;&gt;Node6</title>
<path fill="none" stroke="midnightblue" d="M1307.09,-708.04C1315.06,-709.4 1323.95,-710.91 1332.85,-712.43"/>
<polygon fill="midnightblue" stroke="midnightblue" points="1332.42,-715.91 1342.86,-714.14 1333.59,-709.01 1332.42,-715.91"/>
</g>
<!-- Node8 -->
<g id="node8" class="node">
<title>Node8</title>
<g id="a_node8"><a xlink:href="utils_8c.html#a1bca6910c90a19d96b36506a2e2cebf6" target="_top" xlink:title="as fd are all setup to &#45;1 at the beginning we check if they are open before trying to close we avoid ...">
<polygon fill="none" stroke="black" points="1571,-693.5 1571,-712.5 1640,-712.5 1640,-693.5 1571,-693.5"/>
<text text-anchor="middle" x="1605.5" y="-700.5" font-family="Helvetica,sans-Serif" font-size="10.00">ft_close_fd</text>
</a>
</g>
</g>
<!-- Node5&#45;&gt;Node8 -->
<g id="edge8" class="edge">
<title>Node5&#45;&gt;Node8</title>
<path fill="none" stroke="midnightblue" d="M1307.1,-703C1364.85,-703 1492.82,-703 1560.53,-703"/>
<polygon fill="midnightblue" stroke="midnightblue" points="1560.86,-706.5 1570.86,-703 1560.85,-699.5 1560.86,-706.5"/>
</g>
<!-- Node7 -->
<g id="node7" class="node">
<title>Node7</title>
<g id="a_node7"><a xlink:href="lst__redir2_8c.html#ade8f0bdda51d9bf348ebeb38fefba881" target="_top" xlink:title=" ">
<polygon fill="none" stroke="black" points="1473,-712.5 1473,-731.5 1535,-731.5 1535,-712.5 1473,-712.5"/>
<text text-anchor="middle" x="1504" y="-719.5" font-family="Helvetica,sans-Serif" font-size="10.00">pop_redir</text>
</a>
</g>
</g>
<!-- Node6&#45;&gt;Node7 -->
<g id="edge6" class="edge">
<title>Node6&#45;&gt;Node7</title>
<path fill="none" stroke="midnightblue" d="M1437.2,-722C1445.67,-722 1454.46,-722 1462.74,-722"/>
<polygon fill="midnightblue" stroke="midnightblue" points="1462.9,-725.5 1472.9,-722 1462.9,-718.5 1462.9,-725.5"/>
</g>
<!-- Node7&#45;&gt;Node8 -->
<g id="edge7" class="edge">
<title>Node7&#45;&gt;Node8</title>
<path fill="none" stroke="midnightblue" d="M1535.12,-716.25C1543.18,-714.71 1552.06,-713.01 1560.69,-711.37"/>
<polygon fill="midnightblue" stroke="midnightblue" points="1561.49,-714.78 1570.65,-709.46 1560.17,-707.9 1561.49,-714.78"/>
</g>
<!-- Node10 -->
<g id="node10" class="node">
<title>Node10</title>
<g id="a_node10"><a xlink:href="expand__word_8c.html#a435189c48cf5cbf3527b73c50ca8ee4b" target="_top" xlink:title=" ">
<polygon fill="none" stroke="black" points="978,-655.5 978,-674.5 1082,-674.5 1082,-655.5 978,-655.5"/>
<text text-anchor="middle" x="1030" y="-662.5" font-family="Helvetica,sans-Serif" font-size="10.00">exit_expand_fatal</text>
</a>
</g>
</g>
<!-- Node9&#45;&gt;Node10 -->
<g id="edge10" class="edge">
<title>Node9&#45;&gt;Node10</title>
<path fill="none" stroke="midnightblue" d="M206.03,-617.65C222.55,-630.89 254.47,-654.24 286,-665 365.69,-692.19 390.3,-684 474.5,-684 474.5,-684 474.5,-684 747.5,-684 823.47,-684 910.71,-677.03 967.68,-671.53"/>
<polygon fill="midnightblue" stroke="midnightblue" points="968.35,-674.98 977.96,-670.52 967.67,-668.01 968.35,-674.98"/>
</g>
<!-- Node13 -->
<g id="node13" class="node">
<title>Node13</title>
<g id="a_node13"><a xlink:href="expand__word_8c.html#a051bcabe3f6edf5f6d234199cea49f48" target="_top" xlink:title=" ">
<polygon fill="none" stroke="black" points="286,-142.5 286,-161.5 394,-161.5 394,-142.5 286,-142.5"/>
<text text-anchor="middle" x="340" y="-149.5" font-family="Helvetica,sans-Serif" font-size="10.00">expand_word_loop</text>
</a>
</g>
</g>
<!-- Node9&#45;&gt;Node13 -->
<g id="edge14" class="edge">
<title>Node9&#45;&gt;Node13</title>
<path fill="none" stroke="midnightblue" d="M197.52,-598.48C215.44,-541.92 307.94,-250.01 332.83,-171.48"/>
<polygon fill="midnightblue" stroke="midnightblue" points="336.19,-172.45 335.88,-161.86 329.52,-170.33 336.19,-172.45"/>
</g>
<!-- Node25 -->
<g id="node25" class="node">
<title>Node25</title>
<g id="a_node25"><a xlink:href="string__builder_8c.html#a1bfdfae2d27c541b15b526d7d67b7577" target="_top" xlink:title="End and null terminate the string created in t_str_buf, reset the struct so it can be reused and retu...">
<polygon fill="none" stroke="black" points="709.5,-522.5 709.5,-541.5 783.5,-541.5 783.5,-522.5 709.5,-522.5"/>
<text text-anchor="middle" x="746.5" y="-529.5" font-family="Helvetica,sans-Serif" font-size="10.00">str_buf_end</text>
</a>
</g>
</g>
<!-- Node9&#45;&gt;Node25 -->
<g id="edge50" class="edge">
<title>Node9&#45;&gt;Node25</title>
<path fill="none" stroke="midnightblue" d="M215.46,-598.39C233.7,-590.48 261.05,-579.67 286,-574 434.32,-540.29 615.41,-533.48 699.06,-532.21"/>
<polygon fill="midnightblue" stroke="midnightblue" points="699.29,-535.71 709.25,-532.08 699.2,-528.71 699.29,-535.71"/>
</g>
<!-- Node26 -->
<g id="node26" class="node">
<title>Node26</title>
<g id="a_node26"><a xlink:href="string__builder_8c.html#a2ff0766da574e4904598f3119c7d3749" target="_top" xlink:title=" ">
<polygon fill="none" stroke="black" points="711,-560.5 711,-579.5 782,-579.5 782,-560.5 711,-560.5"/>
<text text-anchor="middle" x="746.5" y="-567.5" font-family="Helvetica,sans-Serif" font-size="10.00">str_buf_init</text>
</a>
</g>
</g>
<!-- Node9&#45;&gt;Node26 -->
<g id="edge51" class="edge">
<title>Node9&#45;&gt;Node26</title>
<path fill="none" stroke="midnightblue" d="M233.45,-598.45C249.61,-594.87 268.61,-591.15 286,-589 437.22,-570.3 618.33,-568.92 700.73,-569.43"/>
<polygon fill="midnightblue" stroke="midnightblue" points="700.73,-572.93 710.76,-569.51 700.78,-565.93 700.73,-572.93"/>
</g>
<!-- Node29 -->
<g id="node29" class="node">
<title>Node29</title>
<g id="a_node29"><a xlink:href="expand__word_8c.html#af8312a725cf021e108e011dfa4d60f73" target="_top" xlink:title="Initialise expand struct.">
<polygon fill="none" stroke="black" points="303,-636.5 303,-655.5 377,-655.5 377,-636.5 303,-636.5"/>
<text text-anchor="middle" x="340" y="-643.5" font-family="Helvetica,sans-Serif" font-size="10.00">init_expand</text>
</a>
</g>
</g>
<!-- Node9&#45;&gt;Node29 -->
<g id="edge48" class="edge">
<title>Node9&#45;&gt;Node29</title>
<path fill="none" stroke="midnightblue" d="M230.96,-617.59C249.77,-622.54 272.91,-628.62 292.95,-633.89"/>
<polygon fill="midnightblue" stroke="midnightblue" points="292.24,-637.32 302.8,-636.48 294.02,-630.55 292.24,-637.32"/>
</g>
<!-- Node30 -->
<g id="node30" class="node">
<title>Node30</title>
<g id="a_node30"><a xlink:href="lexer__utils_8c.html#a5226e7cc8fd04bded427425b8bee4439" target="_top" xlink:title="Initialize t_lexer.">
<polygon fill="none" stroke="black" points="313.5,-598.5 313.5,-617.5 366.5,-617.5 366.5,-598.5 313.5,-598.5"/>
<text text-anchor="middle" x="340" y="-605.5" font-family="Helvetica,sans-Serif" font-size="10.00">lex_init</text>
</a>
</g>
</g>
<!-- Node9&#45;&gt;Node30 -->
<g id="edge49" class="edge">
<title>Node9&#45;&gt;Node30</title>
<path fill="none" stroke="midnightblue" d="M234.75,-608C256.18,-608 282.32,-608 303.06,-608"/>
<polygon fill="midnightblue" stroke="midnightblue" points="303.07,-611.5 313.07,-608 303.07,-604.5 303.07,-611.5"/>
</g>
<!-- Node10&#45;&gt;Node4 -->
<g id="edge11" class="edge">
<title>Node10&#45;&gt;Node4</title>
<path fill="none" stroke="midnightblue" d="M1064.31,-674.59C1081.19,-679.45 1101.89,-685.41 1119.97,-690.61"/>
<polygon fill="midnightblue" stroke="midnightblue" points="1119.12,-694.01 1129.7,-693.41 1121.06,-687.28 1119.12,-694.01"/>
</g>
<!-- Node11 -->
<g id="node11" class="node">
<title>Node11</title>
<g id="a_node11"><a xlink:href="lst__env_8c.html#a226ae0aa054e697998b2ecbc5d61d592" target="_top" xlink:title=" ">
<polygon fill="none" stroke="black" points="1119.5,-655.5 1119.5,-674.5 1208.5,-674.5 1208.5,-655.5 1119.5,-655.5"/>
<text text-anchor="middle" x="1164" y="-662.5" font-family="Helvetica,sans-Serif" font-size="10.00">destructor_env</text>
</a>
</g>
</g>
<!-- Node10&#45;&gt;Node11 -->
<g id="edge12" class="edge">
<title>Node10&#45;&gt;Node11</title>
<path fill="none" stroke="midnightblue" d="M1082.03,-665C1091,-665 1100.34,-665 1109.37,-665"/>
<polygon fill="midnightblue" stroke="midnightblue" points="1109.39,-668.5 1119.39,-665 1109.39,-661.5 1109.39,-668.5"/>
</g>
<!-- Node12 -->
<g id="node12" class="node">
<title>Node12</title>
<g id="a_node12"><a xlink:href="lst__env_8c.html#a058c245b5f2ef22f9d2659f90e4d3537" target="_top" xlink:title=" ">
<polygon fill="none" stroke="black" points="1247.5,-655.5 1247.5,-674.5 1305.5,-674.5 1305.5,-655.5 1247.5,-655.5"/>
<text text-anchor="middle" x="1276.5" y="-662.5" font-family="Helvetica,sans-Serif" font-size="10.00">pop_env</text>
</a>
</g>
</g>
<!-- Node11&#45;&gt;Node12 -->
<g id="edge13" class="edge">
<title>Node11&#45;&gt;Node12</title>
<path fill="none" stroke="midnightblue" d="M1208.67,-665C1218.14,-665 1228.08,-665 1237.32,-665"/>
<polygon fill="midnightblue" stroke="midnightblue" points="1237.38,-668.5 1247.38,-665 1237.38,-661.5 1237.38,-668.5"/>
</g>
<!-- Node13&#45;&gt;Node10 -->
<g id="edge16" class="edge">
<title>Node13&#45;&gt;Node10</title>
<path fill="none" stroke="midnightblue" d="M344.37,-161.75C360.88,-208.35 437.29,-411.3 557,-535 667.15,-648.82 867.04,-665.82 967.66,-666.64"/>
<polygon fill="midnightblue" stroke="midnightblue" points="967.65,-670.14 977.66,-666.67 967.67,-663.14 967.65,-670.14"/>
</g>
<!-- Node14 -->
<g id="node14" class="node">
<title>Node14</title>
<g id="a_node14"><a xlink:href="lexer__utils_8c.html#a6b132516dacc9599762b1fe7341a0f04" target="_top" xlink:title="Advance one byte in the struct t_lexer to keep track of progress.">
<polygon fill="none" stroke="black" points="865.5,-123.5 865.5,-142.5 923.5,-142.5 923.5,-123.5 865.5,-123.5"/>
<text text-anchor="middle" x="894.5" y="-130.5" font-family="Helvetica,sans-Serif" font-size="10.00">advance</text>
</a>
</g>
</g>
<!-- Node13&#45;&gt;Node14 -->
<g id="edge15" class="edge">
<title>Node13&#45;&gt;Node14</title>
<path fill="none" stroke="midnightblue" d="M366.05,-142.44C436.83,-116.77 643.98,-50.93 811,-91 832.69,-96.2 855.1,-108.11 871.09,-117.92"/>
<polygon fill="midnightblue" stroke="midnightblue" points="869.38,-120.98 879.7,-123.38 873.13,-115.07 869.38,-120.98"/>
</g>
<!-- Node15 -->
<g id="node15" class="node">
<title>Node15</title>
<g id="a_node15"><a xlink:href="expand__dollar_8c.html#ac3e15865744ed2c1300a5cb96f24e33d" target="_top" xlink:title="Manages all possibilities with expand : $?, known and unknown env variable.">
<polygon fill="none" stroke="black" points="434,-275.5 434,-294.5 517,-294.5 517,-275.5 434,-275.5"/>
<text text-anchor="middle" x="475.5" y="-282.5" font-family="Helvetica,sans-Serif" font-size="10.00">handle_dollar</text>
</a>
</g>
</g>
<!-- Node13&#45;&gt;Node15 -->
<g id="edge17" class="edge">
<title>Node13&#45;&gt;Node15</title>
<path fill="none" stroke="midnightblue" d="M350.6,-161.57C373.01,-183.89 428.99,-239.66 457.4,-267.96"/>
<polygon fill="midnightblue" stroke="midnightblue" points="455.07,-270.58 464.63,-275.16 460.01,-265.63 455.07,-270.58"/>
</g>
<!-- Node17 -->
<g id="node17" class="node">
<title>Node17</title>
<g id="a_node17"><a xlink:href="string__builder_8c.html#a2630bac2d2575ee6ecee7ed88e5f8296" target="_top" xlink:title="Put char in the struct t_str_buf so we can build a string in the struct. The point is to create the s...">
<polygon fill="none" stroke="black" points="856,-332.5 856,-351.5 933,-351.5 933,-332.5 856,-332.5"/>
<text text-anchor="middle" x="894.5" y="-339.5" font-family="Helvetica,sans-Serif" font-size="10.00">str_buf_putc</text>
</a>
</g>
</g>
<!-- Node13&#45;&gt;Node17 -->
<g id="edge47" class="edge">
<title>Node13&#45;&gt;Node17</title>
<path fill="none" stroke="midnightblue" d="M376.08,-161.54C455,-183.39 652.05,-240.12 811,-304 829.18,-311.3 849.14,-320.47 864.87,-327.97"/>
<polygon fill="midnightblue" stroke="midnightblue" points="863.54,-331.21 874.07,-332.39 866.57,-324.9 863.54,-331.21"/>
</g>
<!-- Node20 -->
<g id="node20" class="node">
<title>Node20</title>
<g id="a_node20"><a xlink:href="string__builder_8c.html#a34739f65bf6f3e3e2b9e19dadf5fe217" target="_top" xlink:title=" ">
<polygon fill="none" stroke="black" points="992.5,-237.5 992.5,-256.5 1067.5,-256.5 1067.5,-237.5 992.5,-237.5"/>
<text text-anchor="middle" x="1030" y="-244.5" font-family="Helvetica,sans-Serif" font-size="10.00">str_buf_free</text>
</a>
</g>
</g>
<!-- Node13&#45;&gt;Node20 -->
<g id="edge46" class="edge">
<title>Node13&#45;&gt;Node20</title>
<path fill="none" stroke="midnightblue" d="M349.34,-142.49C379.52,-109.22 487.2,0 600.5,0 600.5,0 600.5,0 747.5,0 885.81,0 988.64,-170.55 1019.45,-228.21"/>
<polygon fill="midnightblue" stroke="midnightblue" points="1016.47,-230.08 1024.21,-237.32 1022.67,-226.83 1016.47,-230.08"/>
</g>
<!-- Node28 -->
<g id="node28" class="node">
<title>Node28</title>
<g id="a_node28"><a xlink:href="expand__word_8c.html#add0124b30c1b263c28a7881e90685366" target="_top" xlink:title="Dequotes and manage quote state to expand correctly.">
<polygon fill="none" stroke="black" points="702.5,-180.5 702.5,-199.5 790.5,-199.5 790.5,-180.5 702.5,-180.5"/>
<text text-anchor="middle" x="746.5" y="-187.5" font-family="Helvetica,sans-Serif" font-size="10.00">handle_quotes</text>
</a>
</g>
</g>
<!-- Node13&#45;&gt;Node28 -->
<g id="edge43" class="edge">
<title>Node13&#45;&gt;Node28</title>
<path fill="none" stroke="midnightblue" d="M383.93,-142.48C443.65,-130.93 554.76,-115.59 646,-138 674.76,-145.06 704.43,-162.06 723.8,-174.71"/>
<polygon fill="midnightblue" stroke="midnightblue" points="721.93,-177.67 732.18,-180.34 725.83,-171.86 721.93,-177.67"/>
</g>
<!-- Node15&#45;&gt;Node14 -->
<g id="edge18" class="edge">
<title>Node15&#45;&gt;Node14</title>
<path fill="none" stroke="midnightblue" d="M483.29,-275.44C506.54,-243.68 586.74,-141.67 682,-106 742.66,-83.29 819.2,-104.24 861.58,-119.77"/>
<polygon fill="midnightblue" stroke="midnightblue" points="860.49,-123.1 871.09,-123.38 862.98,-116.56 860.49,-123.1"/>
</g>
<!-- Node16 -->
<g id="node16" class="node">
<title>Node16</title>
<g id="a_node16"><a xlink:href="expand__dollar_8c.html#ae2c40b201e71a1f59fb92ee39ac89d70" target="_top" xlink:title="Handle $? to expand on current error code.">
<polygon fill="none" stroke="black" points="557,-294.5 557,-313.5 646,-313.5 646,-294.5 557,-294.5"/>
<text text-anchor="middle" x="601.5" y="-301.5" font-family="Helvetica,sans-Serif" font-size="10.00">error_code_var</text>
</a>
</g>
</g>
<!-- Node15&#45;&gt;Node16 -->
<g id="edge19" class="edge">
<title>Node15&#45;&gt;Node16</title>
<path fill="none" stroke="midnightblue" d="M517.1,-291.22C526.54,-292.67 536.73,-294.23 546.64,-295.75"/>
<polygon fill="midnightblue" stroke="midnightblue" points="546.4,-299.25 556.81,-297.31 547.46,-292.33 546.4,-299.25"/>
</g>
<!-- Node15&#45;&gt;Node17 -->
<g id="edge42" class="edge">
<title>Node15&#45;&gt;Node17</title>
<path fill="none" stroke="midnightblue" d="M479.22,-294.71C486.81,-319.82 510.76,-387.13 557,-418 603.73,-449.2 625.97,-432.77 682,-437 739.17,-441.32 758.83,-460.79 811,-437 845.28,-421.37 870.82,-383.68 883.83,-360.75"/>
<polygon fill="midnightblue" stroke="midnightblue" points="887.07,-362.11 888.77,-351.66 880.92,-358.77 887.07,-362.11"/>
</g>
<!-- Node19 -->
<g id="node19" class="node">
<title>Node19</title>
<g id="a_node19"><a xlink:href="expand__dollar_8c.html#af17c527615f14d68b20a8edf80264943" target="_top" xlink:title=" ">
<polygon fill="none" stroke="black" points="860.5,-484.5 860.5,-503.5 928.5,-503.5 928.5,-484.5 860.5,-484.5"/>
<text text-anchor="middle" x="894.5" y="-491.5" font-family="Helvetica,sans-Serif" font-size="10.00">exit_dollar</text>
</a>
</g>
</g>
<!-- Node15&#45;&gt;Node19 -->
<g id="edge24" class="edge">
<title>Node15&#45;&gt;Node19</title>
<path fill="none" stroke="midnightblue" d="M479.09,-294.64C491.77,-339.55 552,-528.63 682,-589 734,-613.15 758.83,-612.79 811,-589 845.28,-573.37 870.82,-535.68 883.83,-512.75"/>
<polygon fill="midnightblue" stroke="midnightblue" points="887.07,-514.11 888.77,-503.66 880.92,-510.77 887.07,-514.11"/>
</g>
<!-- Node21 -->
<g id="node21" class="node">
<title>Node21</title>
<g id="a_node21"><a xlink:href="expand__dollar_8c.html#a6d96e914be2d2db42405f61048e85370" target="_top" xlink:title=" ">
<polygon fill="none" stroke="black" points="560.5,-389.5 560.5,-408.5 642.5,-408.5 642.5,-389.5 560.5,-389.5"/>
<text text-anchor="middle" x="601.5" y="-396.5" font-family="Helvetica,sans-Serif" font-size="10.00">expand_valid</text>
</a>
</g>
</g>
<!-- Node15&#45;&gt;Node21 -->
<g id="edge27" class="edge">
<title>Node15&#45;&gt;Node21</title>
<path fill="none" stroke="midnightblue" d="M487.07,-294.72C508.3,-314.24 556.33,-358.39 582.57,-382.51"/>
<polygon fill="midnightblue" stroke="midnightblue" points="580.22,-385.11 589.95,-389.31 584.96,-379.96 580.22,-385.11"/>
</g>
<!-- Node23 -->
<g id="node23" class="node">
<title>Node23</title>
<g id="a_node23"><a xlink:href="expand_8c.html#a19e46ed1e16f9b3f3b1e8961163feedc" target="_top" xlink:title="Checks if a given char is a valid character for the key of an env variable.">
<polygon fill="none" stroke="black" points="847,-256.5 847,-275.5 942,-275.5 942,-256.5 847,-256.5"/>
<text text-anchor="middle" x="894.5" y="-263.5" font-family="Helvetica,sans-Serif" font-size="10.00">is_valid_for_key</text>
</a>
</g>
</g>
<!-- Node15&#45;&gt;Node23 -->
<g id="edge40" class="edge">
<title>Node15&#45;&gt;Node23</title>
<path fill="none" stroke="midnightblue" d="M491.5,-275.43C507.14,-266.07 532.72,-252.44 557,-247 656.25,-224.75 775.86,-241.48 842.42,-254.51"/>
<polygon fill="midnightblue" stroke="midnightblue" points="841.75,-257.94 852.24,-256.48 843.13,-251.08 841.75,-257.94"/>
</g>
<!-- Node27 -->
<g id="node27" class="node">
<title>Node27</title>
<g id="a_node27"><a xlink:href="lexer__utils_8c.html#a855a36981b55d317a52d24560c0809bf" target="_top" xlink:title="&quot;Peek&quot;, Look at the next character in the input string">
<polygon fill="none" stroke="black" points="581,-256.5 581,-275.5 622,-275.5 622,-256.5 581,-256.5"/>
<text text-anchor="middle" x="601.5" y="-263.5" font-family="Helvetica,sans-Serif" font-size="10.00">peek</text>
</a>
</g>
</g>
<!-- Node15&#45;&gt;Node27 -->
<g id="edge41" class="edge">
<title>Node15&#45;&gt;Node27</title>
<path fill="none" stroke="midnightblue" d="M517.1,-278.78C534.6,-276.1 554.69,-273.02 570.77,-270.56"/>
<polygon fill="midnightblue" stroke="midnightblue" points="571.33,-274.01 580.68,-269.04 570.27,-267.09 571.33,-274.01"/>
</g>
<!-- Node16&#45;&gt;Node14 -->
<g id="edge20" class="edge">
<title>Node16&#45;&gt;Node14</title>
<path fill="none" stroke="midnightblue" d="M634.35,-294.29C638.74,-291.84 642.82,-288.78 646,-285 689.31,-233.54 629.58,-180.14 682,-138 730.97,-98.63 808.93,-109.64 855.27,-121.29"/>
<polygon fill="midnightblue" stroke="midnightblue" points="854.66,-124.74 865.22,-123.92 856.45,-117.98 854.66,-124.74"/>
</g>
<!-- Node16&#45;&gt;Node17 -->
<g id="edge21" class="edge">
<title>Node16&#45;&gt;Node17</title>
<path fill="none" stroke="midnightblue" d="M646.24,-306.26C688.58,-308.85 754.47,-313.96 811,-323 822.67,-324.87 835.16,-327.44 846.79,-330.08"/>
<polygon fill="midnightblue" stroke="midnightblue" points="846.21,-333.54 856.75,-332.41 847.81,-326.73 846.21,-333.54"/>
</g>
<!-- Node18 -->
<g id="node18" class="node">
<title>Node18</title>
<g id="a_node18"><a xlink:href="string__builder_8c.html#ae2f6bd82646cd8367e2f42a0b737b556" target="_top" xlink:title="Put a null terminated string in the t_str_buf struct.">
<polygon fill="none" stroke="black" points="708,-332.5 708,-351.5 785,-351.5 785,-332.5 708,-332.5"/>
<text text-anchor="middle" x="746.5" y="-339.5" font-family="Helvetica,sans-Serif" font-size="10.00">str_buf_puts</text>
</a>
</g>
</g>
<!-- Node16&#45;&gt;Node18 -->
<g id="edge22" class="edge">
<title>Node16&#45;&gt;Node18</title>
<path fill="none" stroke="midnightblue" d="M638.58,-313.59C657.13,-318.52 679.93,-324.57 699.7,-329.83"/>
<polygon fill="midnightblue" stroke="midnightblue" points="698.86,-333.23 709.43,-332.41 700.66,-326.46 698.86,-333.23"/>
</g>
<!-- Node18&#45;&gt;Node17 -->
<g id="edge23" class="edge">
<title>Node18&#45;&gt;Node17</title>
<path fill="none" stroke="midnightblue" d="M785.1,-342C803.59,-342 826.08,-342 845.77,-342"/>
<polygon fill="midnightblue" stroke="midnightblue" points="845.78,-345.5 855.78,-342 845.78,-338.5 845.78,-345.5"/>
</g>
<!-- Node19&#45;&gt;Node10 -->
<g id="edge25" class="edge">
<title>Node19&#45;&gt;Node10</title>
<path fill="none" stroke="midnightblue" d="M903.06,-503.68C924.72,-531.43 987.25,-611.52 1015.21,-647.33"/>
<polygon fill="midnightblue" stroke="midnightblue" points="1012.61,-649.69 1021.52,-655.42 1018.13,-645.39 1012.61,-649.69"/>
</g>
<!-- Node19&#45;&gt;Node20 -->
<g id="edge26" class="edge">
<title>Node19&#45;&gt;Node20</title>
<path fill="none" stroke="midnightblue" d="M900.73,-484.32C920.71,-447.35 992.39,-314.73 1018.98,-265.54"/>
<polygon fill="midnightblue" stroke="midnightblue" points="1022.13,-267.08 1023.8,-256.62 1015.97,-263.75 1022.13,-267.08"/>
</g>
<!-- Node21&#45;&gt;Node14 -->
<g id="edge28" class="edge">
<title>Node21&#45;&gt;Node14</title>
<path fill="none" stroke="midnightblue" d="M609.39,-389.14C618.91,-375.08 636.06,-348.17 646,-323 671.51,-258.43 631.58,-218.73 682,-171 706.38,-147.92 801.04,-138.51 855.09,-134.96"/>
<polygon fill="midnightblue" stroke="midnightblue" points="855.57,-138.43 865.33,-134.32 855.13,-131.45 855.57,-138.43"/>
</g>
<!-- Node21&#45;&gt;Node18 -->
<g id="edge39" class="edge">
<title>Node21&#45;&gt;Node18</title>
<path fill="none" stroke="midnightblue" d="M620.46,-389.43C636.35,-381.2 660.31,-369.37 682,-361 687.85,-358.74 694.08,-356.59 700.27,-354.59"/>
<polygon fill="midnightblue" stroke="midnightblue" points="701.4,-357.91 709.9,-351.59 699.32,-351.22 701.4,-357.91"/>
</g>
<!-- Node21&#45;&gt;Node19 -->
<g id="edge29" class="edge">
<title>Node21&#45;&gt;Node19</title>
<path fill="none" stroke="midnightblue" d="M620.09,-408.56C635.94,-416.89 660.05,-428.87 682,-437 738.95,-458.08 807.15,-475.04 850.41,-484.82"/>
<polygon fill="midnightblue" stroke="midnightblue" points="849.79,-488.27 860.31,-487.03 851.31,-481.44 849.79,-488.27"/>
</g>
<!-- Node22 -->
<g id="node22" class="node">
<title>Node22</title>
<g id="a_node22"><a xlink:href="expand__dollar_8c.html#a288ca34d78433c242163338d2e877550" target="_top" xlink:title=" ">
<polygon fill="none" stroke="black" points="682,-408.5 682,-427.5 811,-427.5 811,-408.5 682,-408.5"/>
<text text-anchor="middle" x="746.5" y="-415.5" font-family="Helvetica,sans-Serif" font-size="10.00">expand_valid_build_str</text>
</a>
</g>
</g>
<!-- Node21&#45;&gt;Node22 -->
<g id="edge30" class="edge">
<title>Node21&#45;&gt;Node22</title>
<path fill="none" stroke="midnightblue" d="M642.71,-404.34C651.82,-405.55 661.77,-406.88 671.78,-408.21"/>
<polygon fill="midnightblue" stroke="midnightblue" points="671.41,-411.69 681.78,-409.53 672.33,-404.75 671.41,-411.69"/>
</g>
<!-- Node24 -->
<g id="node24" class="node">
<title>Node24</title>
<g id="a_node24"><a xlink:href="lst__env__two_8c.html#a4d4a14327b2c3ff88099102b6bd77986" target="_top" xlink:title=" ">
<polygon fill="none" stroke="black" points="694.5,-370.5 694.5,-389.5 798.5,-389.5 798.5,-370.5 694.5,-370.5"/>
<text text-anchor="middle" x="746.5" y="-377.5" font-family="Helvetica,sans-Serif" font-size="10.00">research_key_env</text>
</a>
</g>
</g>
<!-- Node21&#45;&gt;Node24 -->
<g id="edge35" class="edge">
<title>Node21&#45;&gt;Node24</title>
<path fill="none" stroke="midnightblue" d="M642.71,-393.66C655.61,-391.94 670.2,-390.01 684.25,-388.14"/>
<polygon fill="midnightblue" stroke="midnightblue" points="684.9,-391.58 694.35,-386.8 683.97,-384.64 684.9,-391.58"/>
</g>
<!-- Node21&#45;&gt;Node25 -->
<g id="edge36" class="edge">
<title>Node21&#45;&gt;Node25</title>
<path fill="none" stroke="midnightblue" d="M607.05,-408.6C617.45,-429.56 644.92,-479.76 682,-508 687.42,-512.13 693.62,-515.61 699.99,-518.54"/>
<polygon fill="midnightblue" stroke="midnightblue" points="698.77,-521.82 709.35,-522.43 701.46,-515.36 698.77,-521.82"/>
</g>
<!-- Node21&#45;&gt;Node26 -->
<g id="edge38" class="edge">
<title>Node21&#45;&gt;Node26</title>
<path fill="none" stroke="midnightblue" d="M604.8,-408.87C611.6,-435.87 634.22,-511.58 682,-551 687.49,-555.53 694.03,-558.97 700.79,-561.6"/>
<polygon fill="midnightblue" stroke="midnightblue" points="700.17,-565.08 710.76,-564.89 702.36,-558.44 700.17,-565.08"/>
</g>
<!-- Node22&#45;&gt;Node14 -->
<g id="edge31" class="edge">
<title>Node22&#45;&gt;Node14</title>
<path fill="none" stroke="midnightblue" d="M798.25,-408.39C802.99,-405.93 807.37,-402.85 811,-399 858.64,-348.5 825.83,-313.12 847,-247 857.97,-212.73 874.62,-174.24 884.74,-151.89"/>
<polygon fill="midnightblue" stroke="midnightblue" points="888.02,-153.12 889,-142.57 881.66,-150.21 888.02,-153.12"/>
</g>
<!-- Node22&#45;&gt;Node17 -->
<g id="edge34" class="edge">
<title>Node22&#45;&gt;Node17</title>
<path fill="none" stroke="midnightblue" d="M786.51,-408.43C794.78,-405.83 803.32,-402.69 811,-399 834.17,-387.87 858.06,-370.62 874.13,-358.01"/>
<polygon fill="midnightblue" stroke="midnightblue" points="876.58,-360.53 882.2,-351.55 872.2,-355.07 876.58,-360.53"/>
</g>
<!-- Node22&#45;&gt;Node19 -->
<g id="edge32" class="edge">
<title>Node22&#45;&gt;Node19</title>
<path fill="none" stroke="midnightblue" d="M765.99,-427.63C791.33,-440.82 837.03,-464.61 866.29,-479.83"/>
<polygon fill="midnightblue" stroke="midnightblue" points="864.67,-482.94 875.16,-484.45 867.91,-476.73 864.67,-482.94"/>
</g>
<!-- Node22&#45;&gt;Node23 -->
<g id="edge33" class="edge">
<title>Node22&#45;&gt;Node23</title>
<path fill="none" stroke="midnightblue" d="M795.56,-408.46C801.15,-406 806.46,-402.9 811,-399 839.35,-374.65 827.04,-354.6 847,-323 856.02,-308.72 868.14,-293.98 877.74,-283.06"/>
<polygon fill="midnightblue" stroke="midnightblue" points="880.42,-285.31 884.5,-275.54 875.21,-280.64 880.42,-285.31"/>
</g>
<!-- Node25&#45;&gt;Node17 -->
<g id="edge37" class="edge">
<title>Node25&#45;&gt;Node17</title>
<path fill="none" stroke="midnightblue" d="M759.05,-522.16C772.39,-510.48 794.62,-490.05 811,-470 840.53,-433.85 868.57,-386.68 883.13,-360.88"/>
<polygon fill="midnightblue" stroke="midnightblue" points="886.37,-362.25 888.19,-351.82 880.26,-358.85 886.37,-362.25"/>
</g>
<!-- Node28&#45;&gt;Node14 -->
<g id="edge44" class="edge">
<title>Node28&#45;&gt;Node14</title>
<path fill="none" stroke="midnightblue" d="M773.19,-180.42C784.76,-176.07 798.59,-170.83 811,-166 827.39,-159.62 845.55,-152.38 860.65,-146.31"/>
<polygon fill="midnightblue" stroke="midnightblue" points="862.11,-149.49 870.08,-142.51 859.49,-143 862.11,-149.49"/>
</g>
<!-- Node28&#45;&gt;Node17 -->
<g id="edge45" class="edge">
<title>Node28&#45;&gt;Node17</title>
<path fill="none" stroke="midnightblue" d="M758.01,-199.92C770.75,-212.02 792.77,-233.19 811,-252 835.05,-276.82 861.93,-306.53 878.28,-324.83"/>
<polygon fill="midnightblue" stroke="midnightblue" points="875.73,-327.24 885,-332.38 880.96,-322.59 875.73,-327.24"/>
</g>
</g>
</svg>
        <g id="navigator" transform="translate(0 0)" fill="#404254">
                <rect fill="#f2f5e9" fill-opacity="0.5" stroke="#606060" stroke-width=".5" x="0" y="0" width="60" height="60"/>
                <use id="zoomplus" xlink:href="#zoomPlus" x="17" y="9" onmousedown="handleZoom(evt,'in')"/>
                <use id="zoomminus" xlink:href="#zoomMin" x="42" y="9" onmousedown="handleZoom(evt,'out')"/>
                <use id="reset" xlink:href="#resetDef" x="30" y="36" onmousedown="handleReset()"/>
                <g id="arrowUp" xlink:href="#dirArrow" transform="translate(30 24)" onmousedown="handlePan(0,-1)">
                  <use xlink:href="#rim" fill="#404040">
                        <set attributeName="fill" to="#808080" begin="arrowUp.mouseover" end="arrowUp.mouseout"/>
                  </use>
                  <path fill="none" stroke="white" stroke-width="1.5" d="M0,-3.0v7 M-2.5,-0.5L0,-3.0L2.5,-0.5"/>
                </g>
                <g id="arrowRight" xlink:href="#dirArrow" transform="rotate(90) translate(36 -43)" onmousedown="handlePan(1,0)">
                  <use xlink:href="#rim" fill="#404040">
                        <set attributeName="fill" to="#808080" begin="arrowRight.mouseover" end="arrowRight.mouseout"/>
                  </use>
                  <path fill="none" stroke="white" stroke-width="1.5" d="M0,-3.0v7 M-2.5,-0.5L0,-3.0L2.5,-0.5"/>
                </g>
                <g id="arrowDown" xlink:href="#dirArrow" transform="rotate(180) translate(-30 -48)" onmousedown="handlePan(0,1)">
                  <use xlink:href="#rim" fill="#404040">
                        <set attributeName="fill" to="#808080" begin="arrowDown.mouseover" end="arrowDown.mouseout"/>
                  </use>
                  <path fill="none" stroke="white" stroke-width="1.5" d="M0,-3.0v7 M-2.5,-0.5L0,-3.0L2.5,-0.5"/>
                </g>
                <g id="arrowLeft" xlink:href="#dirArrow" transform="rotate(270) translate(-36 17)" onmousedown="handlePan(-1,0)">
                  <use xlink:href="#rim" fill="#404040">
                        <set attributeName="fill" to="#808080" begin="arrowLeft.mouseover" end="arrowLeft.mouseout"/>
                  </use>
                  <path fill="none" stroke="white" stroke-width="1.5" d="M0,-3.0v7 M-2.5,-0.5L0,-3.0L2.5,-0.5"/>
                </g>
        </g>
        <svg viewBox="0 0 15 15" width="100%" height="30px" preserveAspectRatio="xMaxYMin meet">
         <g id="arrow_out" transform="scale(0.3 0.3)">
          <a xlink:href="expand_8c_a53c53e75b0ad8c8888217cd918304b8b_cgraph_org.svg" target="_base">
           <rect id="button" ry="5" rx="5" y="6" x="6" height="38" width="38"
                fill="#f2f5e9" fill-opacity="0.5" stroke="#606060" stroke-width="1.0"/>
           <path id="arrow"
             d="M 11.500037,31.436501 C 11.940474,20.09759 22.043105,11.32322 32.158766,21.979434 L 37.068811,17.246167 C 37.068811,17.246167 37.088388,32 37.088388,32 L 22.160133,31.978069 C 22.160133,31.978069 26.997745,27.140456 26.997745,27.140456 C 18.528582,18.264221 13.291696,25.230495 11.500037,31.436501 z"
             style="fill:#404040;"/>
          </a>
         </g>
        </svg>
</svg>
