<?xml version="1.0" encoding="UTF-8" standalone="no"?>
<!DOCTYPE svg PUBLIC "-//W3C//DTD SVG 1.1//EN"
 "http://www.w3.org/Graphics/SVG/1.1/DTD/svg11.dtd">
<!-- Generated by graphviz version 2.43.0 (0)
 -->
<!-- Title: exit_expand_fatal Pages: 1 -->
<svg width="670pt" height="85pt"
 viewBox="0.00 0.00 670.00 85.00" xmlns="http://www.w3.org/2000/svg" xmlns:xlink="http://www.w3.org/1999/xlink">
<g id="graph0" class="graph" transform="scale(1 1) rotate(0) translate(4 81)">
<title>exit_expand_fatal</title>
<!-- Node1 -->
<g id="node1" class="node">
<title>Node1</title>
<g id="a_node1"><a xlink:title=" ">
<polygon fill="#bfbfbf" stroke="black" points="0,-19.5 0,-38.5 104,-38.5 104,-19.5 0,-19.5"/>
<text text-anchor="middle" x="52" y="-26.5" font-family="Helvetica,sans-Serif" font-size="10.00">exit_expand_fatal</text>
</a>
</g>
</g>
<!-- Node2 -->
<g id="node2" class="node">
<title>Node2</title>
<g id="a_node2"><a xlink:href="lst__cmd2_8c.html#a132395876bb5a7cfe926b9e37571a1e3" target="_top" xlink:title=" ">
<polygon fill="none" stroke="black" points="140,-38.5 140,-57.5 232,-57.5 232,-38.5 140,-38.5"/>
<text text-anchor="middle" x="186" y="-45.5" font-family="Helvetica,sans-Serif" font-size="10.00">destructor_cmd</text>
</a>
</g>
</g>
<!-- Node1&#45;&gt;Node2 -->
<g id="edge1" class="edge">
<title>Node1&#45;&gt;Node2</title>
<path fill="none" stroke="midnightblue" d="M104.03,-36.35C112.39,-37.55 121.08,-38.8 129.54,-40.02"/>
<polygon fill="midnightblue" stroke="midnightblue" points="129.3,-43.52 139.7,-41.48 130.3,-36.59 129.3,-43.52"/>
</g>
<!-- Node7 -->
<g id="node7" class="node">
<title>Node7</title>
<g id="a_node7"><a xlink:href="lst__env_8c.html#a226ae0aa054e697998b2ecbc5d61d592" target="_top" xlink:title=" ">
<polygon fill="none" stroke="black" points="141.5,-0.5 141.5,-19.5 230.5,-19.5 230.5,-0.5 141.5,-0.5"/>
<text text-anchor="middle" x="186" y="-7.5" font-family="Helvetica,sans-Serif" font-size="10.00">destructor_env</text>
</a>
</g>
</g>
<!-- Node1&#45;&gt;Node7 -->
<g id="edge7" class="edge">
<title>Node1&#45;&gt;Node7</title>
<path fill="none" stroke="midnightblue" d="M104.03,-21.65C113,-20.36 122.34,-19.02 131.37,-17.72"/>
<polygon fill="midnightblue" stroke="midnightblue" points="131.99,-21.17 141.39,-16.28 131,-14.24 131.99,-21.17"/>
</g>
<!-- Node3 -->
<g id="node3" class="node">
<title>Node3</title>
<g id="a_node3"><a xlink:href="lst__cmd2_8c.html#a8e2b63759f149b547e0d07f210ede9b3" target="_top" xlink:title=" ">
<polygon fill="none" stroke="black" points="268,-38.5 268,-57.5 329,-57.5 329,-38.5 268,-38.5"/>
<text text-anchor="middle" x="298.5" y="-45.5" font-family="Helvetica,sans-Serif" font-size="10.00">pop_cmd</text>
</a>
</g>
</g>
<!-- Node2&#45;&gt;Node3 -->
<g id="edge2" class="edge">
<title>Node2&#45;&gt;Node3</title>
<path fill="none" stroke="midnightblue" d="M232.26,-48C240.73,-48 249.52,-48 257.8,-48"/>
<polygon fill="midnightblue" stroke="midnightblue" points="257.95,-51.5 267.95,-48 257.95,-44.5 257.95,-51.5"/>
</g>
<!-- Node4 -->
<g id="node4" class="node">
<title>Node4</title>
<g id="a_node4"><a xlink:href="lst__redir2_8c.html#a30ccaf401a4f897e48ead5fe54f4b307" target="_top" xlink:title=" ">
<polygon fill="none" stroke="black" points="365,-57.5 365,-76.5 459,-76.5 459,-57.5 365,-57.5"/>
<text text-anchor="middle" x="412" y="-64.5" font-family="Helvetica,sans-Serif" font-size="10.00">destructor_redir</text>
</a>
</g>
</g>
<!-- Node3&#45;&gt;Node4 -->
<g id="edge3" class="edge">
<title>Node3&#45;&gt;Node4</title>
<path fill="none" stroke="midnightblue" d="M329.09,-53.04C337.06,-54.4 345.95,-55.91 354.85,-57.43"/>
<polygon fill="midnightblue" stroke="midnightblue" points="354.42,-60.91 364.86,-59.14 355.59,-54.01 354.42,-60.91"/>
</g>
<!-- Node6 -->
<g id="node6" class="node">
<title>Node6</title>
<g id="a_node6"><a xlink:href="utils_8c.html#a1bca6910c90a19d96b36506a2e2cebf6" target="_top" xlink:title="as fd are all setup to &#45;1 at the beginning we check if they are open before trying to close we avoid ...">
<polygon fill="none" stroke="black" points="593,-38.5 593,-57.5 662,-57.5 662,-38.5 593,-38.5"/>
<text text-anchor="middle" x="627.5" y="-45.5" font-family="Helvetica,sans-Serif" font-size="10.00">ft_close_fd</text>
</a>
</g>
</g>
<!-- Node3&#45;&gt;Node6 -->
<g id="edge6" class="edge">
<title>Node3&#45;&gt;Node6</title>
<path fill="none" stroke="midnightblue" d="M329.1,-48C386.85,-48 514.82,-48 582.53,-48"/>
<polygon fill="midnightblue" stroke="midnightblue" points="582.86,-51.5 592.86,-48 582.85,-44.5 582.86,-51.5"/>
</g>
<!-- Node5 -->
<g id="node5" class="node">
<title>Node5</title>
<g id="a_node5"><a xlink:href="lst__redir2_8c.html#ade8f0bdda51d9bf348ebeb38fefba881" target="_top" xlink:title=" ">
<polygon fill="none" stroke="black" points="495,-57.5 495,-76.5 557,-76.5 557,-57.5 495,-57.5"/>
<text text-anchor="middle" x="526" y="-64.5" font-family="Helvetica,sans-Serif" font-size="10.00">pop_redir</text>
</a>
</g>
</g>
<!-- Node4&#45;&gt;Node5 -->
<g id="edge4" class="edge">
<title>Node4&#45;&gt;Node5</title>
<path fill="none" stroke="midnightblue" d="M459.2,-67C467.67,-67 476.46,-67 484.74,-67"/>
<polygon fill="midnightblue" stroke="midnightblue" points="484.9,-70.5 494.9,-67 484.9,-63.5 484.9,-70.5"/>
</g>
<!-- Node5&#45;&gt;Node6 -->
<g id="edge5" class="edge">
<title>Node5&#45;&gt;Node6</title>
<path fill="none" stroke="midnightblue" d="M557.12,-61.25C565.18,-59.71 574.06,-58.01 582.69,-56.37"/>
<polygon fill="midnightblue" stroke="midnightblue" points="583.49,-59.78 592.65,-54.46 582.17,-52.9 583.49,-59.78"/>
</g>
<!-- Node8 -->
<g id="node8" class="node">
<title>Node8</title>
<g id="a_node8"><a xlink:href="lst__env_8c.html#a058c245b5f2ef22f9d2659f90e4d3537" target="_top" xlink:title=" ">
<polygon fill="none" stroke="black" points="269.5,-0.5 269.5,-19.5 327.5,-19.5 327.5,-0.5 269.5,-0.5"/>
<text text-anchor="middle" x="298.5" y="-7.5" font-family="Helvetica,sans-Serif" font-size="10.00">pop_env</text>
</a>
</g>
</g>
<!-- Node7&#45;&gt;Node8 -->
<g id="edge8" class="edge">
<title>Node7&#45;&gt;Node8</title>
<path fill="none" stroke="midnightblue" d="M230.67,-10C240.14,-10 250.08,-10 259.32,-10"/>
<polygon fill="midnightblue" stroke="midnightblue" points="259.38,-13.5 269.38,-10 259.38,-6.5 259.38,-13.5"/>
</g>
</g>
</svg>
