<?xml version="1.0" encoding="UTF-8" standalone="no"?>
<!DOCTYPE svg PUBLIC "-//W3C//DTD SVG 1.1//EN"
 "http://www.w3.org/Graphics/SVG/1.1/DTD/svg11.dtd">
<!-- Generated by graphviz version 2.43.0 (0)
 -->
<!-- Title: exit_dollar Pages: 1 -->
<svg width="774pt" height="104pt"
 viewBox="0.00 0.00 774.00 104.00" xmlns="http://www.w3.org/2000/svg" xmlns:xlink="http://www.w3.org/1999/xlink">
<g id="graph0" class="graph" transform="scale(1 1) rotate(0) translate(4 100)">
<title>exit_dollar</title>
<!-- Node1 -->
<g id="node1" class="node">
<title>Node1</title>
<g id="a_node1"><a xlink:title=" ">
<polygon fill="#bfbfbf" stroke="black" points="0,-19.5 0,-38.5 68,-38.5 68,-19.5 0,-19.5"/>
<text text-anchor="middle" x="34" y="-26.5" font-family="Helvetica,sans-Serif" font-size="10.00">exit_dollar</text>
</a>
</g>
</g>
<!-- Node2 -->
<g id="node2" class="node">
<title>Node2</title>
<g id="a_node2"><a xlink:href="expand__word_8c.html#a435189c48cf5cbf3527b73c50ca8ee4b" target="_top" xlink:title=" ">
<polygon fill="none" stroke="black" points="104,-38.5 104,-57.5 208,-57.5 208,-38.5 104,-38.5"/>
<text text-anchor="middle" x="156" y="-45.5" font-family="Helvetica,sans-Serif" font-size="10.00">exit_expand_fatal</text>
</a>
</g>
</g>
<!-- Node1&#45;&gt;Node2 -->
<g id="edge1" class="edge">
<title>Node1&#45;&gt;Node2</title>
<path fill="none" stroke="midnightblue" d="M68.11,-34.24C76.07,-35.5 84.83,-36.89 93.63,-38.28"/>
<polygon fill="midnightblue" stroke="midnightblue" points="93.12,-41.75 103.54,-39.85 94.22,-34.83 93.12,-41.75"/>
</g>
<!-- Node10 -->
<g id="node10" class="node">
<title>Node10</title>
<g id="a_node10"><a xlink:href="string__builder_8c.html#a34739f65bf6f3e3e2b9e19dadf5fe217" target="_top" xlink:title=" ">
<polygon fill="none" stroke="black" points="118.5,-0.5 118.5,-19.5 193.5,-19.5 193.5,-0.5 118.5,-0.5"/>
<text text-anchor="middle" x="156" y="-7.5" font-family="Helvetica,sans-Serif" font-size="10.00">str_buf_free</text>
</a>
</g>
</g>
<!-- Node1&#45;&gt;Node10 -->
<g id="edge10" class="edge">
<title>Node1&#45;&gt;Node10</title>
<path fill="none" stroke="midnightblue" d="M68.11,-23.76C80.49,-21.8 94.8,-19.53 108.19,-17.41"/>
<polygon fill="midnightblue" stroke="midnightblue" points="108.87,-20.85 118.2,-15.83 107.78,-13.93 108.87,-20.85"/>
</g>
<!-- Node3 -->
<g id="node3" class="node">
<title>Node3</title>
<g id="a_node3"><a xlink:href="lst__cmd2_8c.html#a132395876bb5a7cfe926b9e37571a1e3" target="_top" xlink:title=" ">
<polygon fill="none" stroke="black" points="244,-57.5 244,-76.5 336,-76.5 336,-57.5 244,-57.5"/>
<text text-anchor="middle" x="290" y="-64.5" font-family="Helvetica,sans-Serif" font-size="10.00">destructor_cmd</text>
</a>
</g>
</g>
<!-- Node2&#45;&gt;Node3 -->
<g id="edge2" class="edge">
<title>Node2&#45;&gt;Node3</title>
<path fill="none" stroke="midnightblue" d="M208.03,-55.35C216.39,-56.55 225.08,-57.8 233.54,-59.02"/>
<polygon fill="midnightblue" stroke="midnightblue" points="233.3,-62.52 243.7,-60.48 234.3,-55.59 233.3,-62.52"/>
</g>
<!-- Node8 -->
<g id="node8" class="node">
<title>Node8</title>
<g id="a_node8"><a xlink:href="lst__env_8c.html#a226ae0aa054e697998b2ecbc5d61d592" target="_top" xlink:title=" ">
<polygon fill="none" stroke="black" points="245.5,-19.5 245.5,-38.5 334.5,-38.5 334.5,-19.5 245.5,-19.5"/>
<text text-anchor="middle" x="290" y="-26.5" font-family="Helvetica,sans-Serif" font-size="10.00">destructor_env</text>
</a>
</g>
</g>
<!-- Node2&#45;&gt;Node8 -->
<g id="edge8" class="edge">
<title>Node2&#45;&gt;Node8</title>
<path fill="none" stroke="midnightblue" d="M208.03,-40.65C217,-39.36 226.34,-38.02 235.37,-36.72"/>
<polygon fill="midnightblue" stroke="midnightblue" points="235.99,-40.17 245.39,-35.28 235,-33.24 235.99,-40.17"/>
</g>
<!-- Node4 -->
<g id="node4" class="node">
<title>Node4</title>
<g id="a_node4"><a xlink:href="lst__cmd2_8c.html#a8e2b63759f149b547e0d07f210ede9b3" target="_top" xlink:title=" ">
<polygon fill="none" stroke="black" points="372,-57.5 372,-76.5 433,-76.5 433,-57.5 372,-57.5"/>
<text text-anchor="middle" x="402.5" y="-64.5" font-family="Helvetica,sans-Serif" font-size="10.00">pop_cmd</text>
</a>
</g>
</g>
<!-- Node3&#45;&gt;Node4 -->
<g id="edge3" class="edge">
<title>Node3&#45;&gt;Node4</title>
<path fill="none" stroke="midnightblue" d="M336.26,-67C344.73,-67 353.52,-67 361.8,-67"/>
<polygon fill="midnightblue" stroke="midnightblue" points="361.95,-70.5 371.95,-67 361.95,-63.5 361.95,-70.5"/>
</g>
<!-- Node5 -->
<g id="node5" class="node">
<title>Node5</title>
<g id="a_node5"><a xlink:href="lst__redir2_8c.html#a30ccaf401a4f897e48ead5fe54f4b307" target="_top" xlink:title=" ">
<polygon fill="none" stroke="black" points="469,-76.5 469,-95.5 563,-95.5 563,-76.5 469,-76.5"/>
<text text-anchor="middle" x="516" y="-83.5" font-family="Helvetica,sans-Serif" font-size="10.00">destructor_redir</text>
</a>
</g>
</g>
<!-- Node4&#45;&gt;Node5 -->
<g id="edge4" class="edge">
<title>Node4&#45;&gt;Node5</title>
<path fill="none" stroke="midnightblue" d="M433.09,-72.04C441.06,-73.4 449.95,-74.91 458.85,-76.43"/>
<polygon fill="midnightblue" stroke="midnightblue" points="458.42,-79.91 468.86,-78.14 459.59,-73.01 458.42,-79.91"/>
</g>
<!-- Node7 -->
<g id="node7" class="node">
<title>Node7</title>
<g id="a_node7"><a xlink:href="utils_8c.html#a1bca6910c90a19d96b36506a2e2cebf6" target="_top" xlink:title="as fd are all setup to &#45;1 at the beginning we check if they are open before trying to close we avoid ...">
<polygon fill="none" stroke="black" points="697,-57.5 697,-76.5 766,-76.5 766,-57.5 697,-57.5"/>
<text text-anchor="middle" x="731.5" y="-64.5" font-family="Helvetica,sans-Serif" font-size="10.00">ft_close_fd</text>
</a>
</g>
</g>
<!-- Node4&#45;&gt;Node7 -->
<g id="edge7" class="edge">
<title>Node4&#45;&gt;Node7</title>
<path fill="none" stroke="midnightblue" d="M433.1,-67C490.85,-67 618.82,-67 686.53,-67"/>
<polygon fill="midnightblue" stroke="midnightblue" points="686.86,-70.5 696.86,-67 686.85,-63.5 686.86,-70.5"/>
</g>
<!-- Node6 -->
<g id="node6" class="node">
<title>Node6</title>
<g id="a_node6"><a xlink:href="lst__redir2_8c.html#ade8f0bdda51d9bf348ebeb38fefba881" target="_top" xlink:title=" ">
<polygon fill="none" stroke="black" points="599,-76.5 599,-95.5 661,-95.5 661,-76.5 599,-76.5"/>
<text text-anchor="middle" x="630" y="-83.5" font-family="Helvetica,sans-Serif" font-size="10.00">pop_redir</text>
</a>
</g>
</g>
<!-- Node5&#45;&gt;Node6 -->
<g id="edge5" class="edge">
<title>Node5&#45;&gt;Node6</title>
<path fill="none" stroke="midnightblue" d="M563.2,-86C571.67,-86 580.46,-86 588.74,-86"/>
<polygon fill="midnightblue" stroke="midnightblue" points="588.9,-89.5 598.9,-86 588.9,-82.5 588.9,-89.5"/>
</g>
<!-- Node6&#45;&gt;Node7 -->
<g id="edge6" class="edge">
<title>Node6&#45;&gt;Node7</title>
<path fill="none" stroke="midnightblue" d="M661.12,-80.25C669.18,-78.71 678.06,-77.01 686.69,-75.37"/>
<polygon fill="midnightblue" stroke="midnightblue" points="687.49,-78.78 696.65,-73.46 686.17,-71.9 687.49,-78.78"/>
</g>
<!-- Node9 -->
<g id="node9" class="node">
<title>Node9</title>
<g id="a_node9"><a xlink:href="lst__env_8c.html#a058c245b5f2ef22f9d2659f90e4d3537" target="_top" xlink:title=" ">
<polygon fill="none" stroke="black" points="373.5,-19.5 373.5,-38.5 431.5,-38.5 431.5,-19.5 373.5,-19.5"/>
<text text-anchor="middle" x="402.5" y="-26.5" font-family="Helvetica,sans-Serif" font-size="10.00">pop_env</text>
</a>
</g>
</g>
<!-- Node8&#45;&gt;Node9 -->
<g id="edge9" class="edge">
<title>Node8&#45;&gt;Node9</title>
<path fill="none" stroke="midnightblue" d="M334.67,-29C344.14,-29 354.08,-29 363.32,-29"/>
<polygon fill="midnightblue" stroke="midnightblue" points="363.38,-32.5 373.38,-29 363.38,-25.5 363.38,-32.5"/>
</g>
</g>
</svg>
