<?xml version="1.0" encoding="UTF-8" standalone="no"?>
<!DOCTYPE svg PUBLIC "-//W3C//DTD SVG 1.1//EN"
 "http://www.w3.org/Graphics/SVG/1.1/DTD/svg11.dtd">
<!-- Generated by graphviz version 2.43.0 (0)
 -->
<!-- Title: handle_quotes Pages: 1 -->
<svg width="209pt" height="66pt"
 viewBox="0.00 0.00 209.00 66.00" xmlns="http://www.w3.org/2000/svg" xmlns:xlink="http://www.w3.org/1999/xlink">
<g id="graph0" class="graph" transform="scale(1 1) rotate(0) translate(4 62)">
<title>handle_quotes</title>
<!-- Node1 -->
<g id="node1" class="node">
<title>Node1</title>
<g id="a_node1"><a xlink:title="Dequotes and manage quote state to expand correctly.">
<polygon fill="#bfbfbf" stroke="black" points="0,-19.5 0,-38.5 88,-38.5 88,-19.5 0,-19.5"/>
<text text-anchor="middle" x="44" y="-26.5" font-family="Helvetica,sans-Serif" font-size="10.00">handle_quotes</text>
</a>
</g>
</g>
<!-- Node2 -->
<g id="node2" class="node">
<title>Node2</title>
<g id="a_node2"><a xlink:href="lexer__utils_8c.html#a6b132516dacc9599762b1fe7341a0f04" target="_top" xlink:title="Advance one byte in the struct t_lexer to keep track of progress.">
<polygon fill="none" stroke="black" points="133.5,-38.5 133.5,-57.5 191.5,-57.5 191.5,-38.5 133.5,-38.5"/>
<text text-anchor="middle" x="162.5" y="-45.5" font-family="Helvetica,sans-Serif" font-size="10.00">advance</text>
</a>
</g>
</g>
<!-- Node1&#45;&gt;Node2 -->
<g id="edge1" class="edge">
<title>Node1&#45;&gt;Node2</title>
<path fill="none" stroke="midnightblue" d="M88.05,-36.02C99.66,-37.91 112.14,-39.95 123.46,-41.8"/>
<polygon fill="midnightblue" stroke="midnightblue" points="123.03,-45.27 133.47,-43.43 124.16,-38.36 123.03,-45.27"/>
</g>
<!-- Node3 -->
<g id="node3" class="node">
<title>Node3</title>
<g id="a_node3"><a xlink:href="string__builder_8c.html#a2630bac2d2575ee6ecee7ed88e5f8296" target="_top" xlink:title="Put char in the struct t_str_buf so we can build a string in the struct. The point is to create the s...">
<polygon fill="none" stroke="black" points="124,-0.5 124,-19.5 201,-19.5 201,-0.5 124,-0.5"/>
<text text-anchor="middle" x="162.5" y="-7.5" font-family="Helvetica,sans-Serif" font-size="10.00">str_buf_putc</text>
</a>
</g>
</g>
<!-- Node1&#45;&gt;Node3 -->
<g id="edge2" class="edge">
<title>Node1&#45;&gt;Node3</title>
<path fill="none" stroke="midnightblue" d="M88.05,-21.98C96.53,-20.6 105.47,-19.14 114.08,-17.73"/>
<polygon fill="midnightblue" stroke="midnightblue" points="114.69,-21.18 124,-16.12 113.56,-14.27 114.69,-21.18"/>
</g>
</g>
</svg>
