<?xml version="1.0" encoding="UTF-8" standalone="no"?>
<!DOCTYPE svg PUBLIC "-//W3C//DTD SVG 1.1//EN"
 "http://www.w3.org/Graphics/SVG/1.1/DTD/svg11.dtd">
<!-- Generated by graphviz version 2.43.0 (0)
 -->
<!-- Title: expand_valid Pages: 1 -->
<!--zoomable 256 -->
<svg id="main" version="1.1" xmlns="http://www.w3.org/2000/svg" xmlns:xlink="http://www.w3.org/1999/xlink" xml:space="preserve" onload="init(evt)">
<style type="text/css"><![CDATA[
.edge:hover path { stroke: red; }
.edge:hover polygon { stroke: red; fill: red; }
]]></style>
<script type="text/javascript"><![CDATA[
var edges = document.getElementsByTagName('g');
if (edges && edges.length) {
  for (var i=0;i<edges.length;i++) {
    if (edges[i].id.substr(0,4)=='edge') {
      edges[i].setAttribute('class','edge');
    }
  }
}
]]></script>
        <defs>
                <circle id="rim" cx="0" cy="0" r="7"/>
                <circle id="rim2" cx="0" cy="0" r="3.5"/>
                <g id="zoomPlus">
                        <use xlink:href="#rim" fill="#404040">
                                <set attributeName="fill" to="#808080" begin="zoomplus.mouseover" end="zoomplus.mouseout"/>
                        </use>
                        <path d="M-4,0h8M0,-4v8" fill="none" stroke="white" stroke-width="1.5" pointer-events="none"/>
                </g>
                <g id="zoomMin">
                        <use xlink:href="#rim" fill="#404040">
                                <set attributeName="fill" to="#808080" begin="zoomminus.mouseover" end="zoomminus.mouseout"/>
                        </use>
                        <path d="M-4,0h8" fill="none" stroke="white" stroke-width="1.5" pointer-events="none"/>
                </g>
                <g id="dirArrow">
                        <path fill="none" stroke="white" stroke-width="1.5" d="M0,-3.0v7 M-2.5,-0.5L0,-3.0L2.5,-0.5"/>
                </g>
               <g id="resetDef">
                       <use xlink:href="#rim2" fill="#404040">
                               <set attributeName="fill" to="#808080" begin="reset.mouseover" end="reset.mouseout"/>
                       </use>
               </g>
        </defs>

<script type="text/javascript">
var viewWidth = 1084;
var viewHeight = 256;
var sectionId = 'dynsection-5';
</script>
<script xlink:href="svgpan.js"/>
<svg id="graph" class="graph">
<g id="viewport">
<title>expand_valid</title>
<!-- Node1 -->
<g id="node1" class="node">
<title>Node1</title>
<g id="a_node1"><a xlink:title=" ">
<polygon fill="#bfbfbf" stroke="black" points="0,-114.5 0,-133.5 82,-133.5 82,-114.5 0,-114.5"/>
<text text-anchor="middle" x="41" y="-121.5" font-family="Helvetica,sans-Serif" font-size="10.00">expand_valid</text>
</a>
</g>
</g>
<!-- Node2 -->
<g id="node2" class="node">
<title>Node2</title>
<g id="a_node2"><a xlink:href="lexer__utils_8c.html#a6b132516dacc9599762b1fe7341a0f04" target="_top" xlink:title="Advance one byte in the struct t_lexer to keep track of progress.">
<polygon fill="none" stroke="black" points="301.5,-228.5 301.5,-247.5 359.5,-247.5 359.5,-228.5 301.5,-228.5"/>
<text text-anchor="middle" x="330.5" y="-235.5" font-family="Helvetica,sans-Serif" font-size="10.00">advance</text>
</a>
</g>
</g>
<!-- Node1&#45;&gt;Node2 -->
<g id="edge1" class="edge">
<title>Node1&#45;&gt;Node2</title>
<path fill="none" stroke="midnightblue" d="M47.91,-133.69C59.16,-151.17 85.43,-187.8 118,-205 173.21,-234.17 247.06,-239.26 291.3,-239.32"/>
<polygon fill="midnightblue" stroke="midnightblue" points="291.37,-242.82 301.34,-239.25 291.32,-235.82 291.37,-242.82"/>
</g>
<!-- Node3 -->
<g id="node3" class="node">
<title>Node3</title>
<g id="a_node3"><a xlink:href="expand__dollar_8c.html#af17c527615f14d68b20a8edf80264943" target="_top" xlink:title=" ">
<polygon fill="none" stroke="black" points="296.5,-190.5 296.5,-209.5 364.5,-209.5 364.5,-190.5 296.5,-190.5"/>
<text text-anchor="middle" x="330.5" y="-197.5" font-family="Helvetica,sans-Serif" font-size="10.00">exit_dollar</text>
</a>
</g>
</g>
<!-- Node1&#45;&gt;Node3 -->
<g id="edge2" class="edge">
<title>Node1&#45;&gt;Node3</title>
<path fill="none" stroke="midnightblue" d="M51.23,-133.72C64.56,-147.03 90.59,-170.48 118,-181 173.28,-202.22 242.45,-204.29 286.32,-202.89"/>
<polygon fill="midnightblue" stroke="midnightblue" points="286.51,-206.39 296.37,-202.49 286.24,-199.39 286.51,-206.39"/>
</g>
<!-- Node13 -->
<g id="node13" class="node">
<title>Node13</title>
<g id="a_node13"><a xlink:href="expand__dollar_8c.html#a288ca34d78433c242163338d2e877550" target="_top" xlink:title=" ">
<polygon fill="none" stroke="black" points="118,-152.5 118,-171.5 247,-171.5 247,-152.5 118,-152.5"/>
<text text-anchor="middle" x="182.5" y="-159.5" font-family="Helvetica,sans-Serif" font-size="10.00">expand_valid_build_str</text>
</a>
</g>
</g>
<!-- Node1&#45;&gt;Node13 -->
<g id="edge13" class="edge">
<title>Node1&#45;&gt;Node13</title>
<path fill="none" stroke="midnightblue" d="M77.2,-133.59C95.21,-138.49 117.33,-144.52 136.56,-149.76"/>
<polygon fill="midnightblue" stroke="midnightblue" points="135.74,-153.16 146.31,-152.41 137.58,-146.41 135.74,-153.16"/>
</g>
<!-- Node16 -->
<g id="node16" class="node">
<title>Node16</title>
<g id="a_node16"><a xlink:href="lst__env__two_8c.html#a4d4a14327b2c3ff88099102b6bd77986" target="_top" xlink:title=" ">
<polygon fill="none" stroke="black" points="130.5,-38.5 130.5,-57.5 234.5,-57.5 234.5,-38.5 130.5,-38.5"/>
<text text-anchor="middle" x="182.5" y="-45.5" font-family="Helvetica,sans-Serif" font-size="10.00">research_key_env</text>
</a>
</g>
</g>
<!-- Node1&#45;&gt;Node16 -->
<g id="edge18" class="edge">
<title>Node1&#45;&gt;Node16</title>
<path fill="none" stroke="midnightblue" d="M52.51,-114.18C66.47,-101.61 92.38,-79.92 118,-67 122.51,-64.73 127.34,-62.67 132.24,-60.83"/>
<polygon fill="midnightblue" stroke="midnightblue" points="133.41,-64.14 141.71,-57.55 131.11,-57.52 133.41,-64.14"/>
</g>
<!-- Node17 -->
<g id="node17" class="node">
<title>Node17</title>
<g id="a_node17"><a xlink:href="string__builder_8c.html#a1bfdfae2d27c541b15b526d7d67b7577" target="_top" xlink:title="End and null terminate the string created in t_str_buf, reset the struct so it can be reused and retu...">
<polygon fill="none" stroke="black" points="145.5,-76.5 145.5,-95.5 219.5,-95.5 219.5,-76.5 145.5,-76.5"/>
<text text-anchor="middle" x="182.5" y="-83.5" font-family="Helvetica,sans-Serif" font-size="10.00">str_buf_end</text>
</a>
</g>
</g>
<!-- Node1&#45;&gt;Node17 -->
<g id="edge19" class="edge">
<title>Node1&#45;&gt;Node17</title>
<path fill="none" stroke="midnightblue" d="M77.2,-114.41C95.21,-109.51 117.33,-103.48 136.56,-98.24"/>
<polygon fill="midnightblue" stroke="midnightblue" points="137.58,-101.59 146.31,-95.59 135.74,-94.84 137.58,-101.59"/>
</g>
<!-- Node18 -->
<g id="node18" class="node">
<title>Node18</title>
<g id="a_node18"><a xlink:href="string__builder_8c.html#a2ff0766da574e4904598f3119c7d3749" target="_top" xlink:title=" ">
<polygon fill="none" stroke="black" points="147,-0.5 147,-19.5 218,-19.5 218,-0.5 147,-0.5"/>
<text text-anchor="middle" x="182.5" y="-7.5" font-family="Helvetica,sans-Serif" font-size="10.00">str_buf_init</text>
</a>
</g>
</g>
<!-- Node1&#45;&gt;Node18 -->
<g id="edge21" class="edge">
<title>Node1&#45;&gt;Node18</title>
<path fill="none" stroke="midnightblue" d="M47.07,-114.31C57.63,-95.1 83.85,-52.03 118,-29 123.77,-25.11 130.36,-22 137.05,-19.51"/>
<polygon fill="midnightblue" stroke="midnightblue" points="138.44,-22.74 146.86,-16.3 136.26,-16.09 138.44,-22.74"/>
</g>
<!-- Node19 -->
<g id="node19" class="node">
<title>Node19</title>
<g id="a_node19"><a xlink:href="string__builder_8c.html#ae2f6bd82646cd8367e2f42a0b737b556" target="_top" xlink:title="Put a null terminated string in the t_str_buf struct.">
<polygon fill="none" stroke="black" points="144,-114.5 144,-133.5 221,-133.5 221,-114.5 144,-114.5"/>
<text text-anchor="middle" x="182.5" y="-121.5" font-family="Helvetica,sans-Serif" font-size="10.00">str_buf_puts</text>
</a>
</g>
</g>
<!-- Node1&#45;&gt;Node19 -->
<g id="edge22" class="edge">
<title>Node1&#45;&gt;Node19</title>
<path fill="none" stroke="midnightblue" d="M82.35,-124C98.34,-124 116.86,-124 133.53,-124"/>
<polygon fill="midnightblue" stroke="midnightblue" points="133.63,-127.5 143.63,-124 133.63,-120.5 133.63,-127.5"/>
</g>
<!-- Node4 -->
<g id="node4" class="node">
<title>Node4</title>
<g id="a_node4"><a xlink:href="expand__word_8c.html#a435189c48cf5cbf3527b73c50ca8ee4b" target="_top" xlink:title=" ">
<polygon fill="none" stroke="black" points="414,-209.5 414,-228.5 518,-228.5 518,-209.5 414,-209.5"/>
<text text-anchor="middle" x="466" y="-216.5" font-family="Helvetica,sans-Serif" font-size="10.00">exit_expand_fatal</text>
</a>
</g>
</g>
<!-- Node3&#45;&gt;Node4 -->
<g id="edge3" class="edge">
<title>Node3&#45;&gt;Node4</title>
<path fill="none" stroke="midnightblue" d="M364.5,-204.7C376.38,-206.39 390.18,-208.35 403.69,-210.27"/>
<polygon fill="midnightblue" stroke="midnightblue" points="403.54,-213.79 413.93,-211.73 404.52,-206.86 403.54,-213.79"/>
</g>
<!-- Node12 -->
<g id="node12" class="node">
<title>Node12</title>
<g id="a_node12"><a xlink:href="string__builder_8c.html#a34739f65bf6f3e3e2b9e19dadf5fe217" target="_top" xlink:title=" ">
<polygon fill="none" stroke="black" points="428.5,-171.5 428.5,-190.5 503.5,-190.5 503.5,-171.5 428.5,-171.5"/>
<text text-anchor="middle" x="466" y="-178.5" font-family="Helvetica,sans-Serif" font-size="10.00">str_buf_free</text>
</a>
</g>
</g>
<!-- Node3&#45;&gt;Node12 -->
<g id="edge12" class="edge">
<title>Node3&#45;&gt;Node12</title>
<path fill="none" stroke="midnightblue" d="M364.5,-195.3C380.64,-193.01 400.34,-190.2 418.02,-187.69"/>
<polygon fill="midnightblue" stroke="midnightblue" points="418.74,-191.12 428.15,-186.24 417.75,-184.19 418.74,-191.12"/>
</g>
<!-- Node5 -->
<g id="node5" class="node">
<title>Node5</title>
<g id="a_node5"><a xlink:href="lst__cmd2_8c.html#a132395876bb5a7cfe926b9e37571a1e3" target="_top" xlink:title=" ">
<polygon fill="none" stroke="black" points="554,-228.5 554,-247.5 646,-247.5 646,-228.5 554,-228.5"/>
<text text-anchor="middle" x="600" y="-235.5" font-family="Helvetica,sans-Serif" font-size="10.00">destructor_cmd</text>
</a>
</g>
</g>
<!-- Node4&#45;&gt;Node5 -->
<g id="edge4" class="edge">
<title>Node4&#45;&gt;Node5</title>
<path fill="none" stroke="midnightblue" d="M518.03,-226.35C526.39,-227.55 535.08,-228.8 543.54,-230.02"/>
<polygon fill="midnightblue" stroke="midnightblue" points="543.3,-233.52 553.7,-231.48 544.3,-226.59 543.3,-233.52"/>
</g>
<!-- Node10 -->
<g id="node10" class="node">
<title>Node10</title>
<g id="a_node10"><a xlink:href="lst__env_8c.html#a226ae0aa054e697998b2ecbc5d61d592" target="_top" xlink:title=" ">
<polygon fill="none" stroke="black" points="555.5,-190.5 555.5,-209.5 644.5,-209.5 644.5,-190.5 555.5,-190.5"/>
<text text-anchor="middle" x="600" y="-197.5" font-family="Helvetica,sans-Serif" font-size="10.00">destructor_env</text>
</a>
</g>
</g>
<!-- Node4&#45;&gt;Node10 -->
<g id="edge10" class="edge">
<title>Node4&#45;&gt;Node10</title>
<path fill="none" stroke="midnightblue" d="M518.03,-211.65C527,-210.36 536.34,-209.02 545.37,-207.72"/>
<polygon fill="midnightblue" stroke="midnightblue" points="545.99,-211.17 555.39,-206.28 545,-204.24 545.99,-211.17"/>
</g>
<!-- Node6 -->
<g id="node6" class="node">
<title>Node6</title>
<g id="a_node6"><a xlink:href="lst__cmd2_8c.html#a8e2b63759f149b547e0d07f210ede9b3" target="_top" xlink:title=" ">
<polygon fill="none" stroke="black" points="682,-228.5 682,-247.5 743,-247.5 743,-228.5 682,-228.5"/>
<text text-anchor="middle" x="712.5" y="-235.5" font-family="Helvetica,sans-Serif" font-size="10.00">pop_cmd</text>
</a>
</g>
</g>
<!-- Node5&#45;&gt;Node6 -->
<g id="edge5" class="edge">
<title>Node5&#45;&gt;Node6</title>
<path fill="none" stroke="midnightblue" d="M646.26,-238C654.73,-238 663.52,-238 671.8,-238"/>
<polygon fill="midnightblue" stroke="midnightblue" points="671.95,-241.5 681.95,-238 671.95,-234.5 671.95,-241.5"/>
</g>
<!-- Node7 -->
<g id="node7" class="node">
<title>Node7</title>
<g id="a_node7"><a xlink:href="lst__redir2_8c.html#a30ccaf401a4f897e48ead5fe54f4b307" target="_top" xlink:title=" ">
<polygon fill="none" stroke="black" points="779,-209.5 779,-228.5 873,-228.5 873,-209.5 779,-209.5"/>
<text text-anchor="middle" x="826" y="-216.5" font-family="Helvetica,sans-Serif" font-size="10.00">destructor_redir</text>
</a>
</g>
</g>
<!-- Node6&#45;&gt;Node7 -->
<g id="edge6" class="edge">
<title>Node6&#45;&gt;Node7</title>
<path fill="none" stroke="midnightblue" d="M743.09,-232.96C751.06,-231.6 759.95,-230.09 768.85,-228.57"/>
<polygon fill="midnightblue" stroke="midnightblue" points="769.59,-231.99 778.86,-226.86 768.42,-225.09 769.59,-231.99"/>
</g>
<!-- Node9 -->
<g id="node9" class="node">
<title>Node9</title>
<g id="a_node9"><a xlink:href="utils_8c.html#a1bca6910c90a19d96b36506a2e2cebf6" target="_top" xlink:title="as fd are all setup to &#45;1 at the beginning we check if they are open before trying to close we avoid ...">
<polygon fill="none" stroke="black" points="1007,-228.5 1007,-247.5 1076,-247.5 1076,-228.5 1007,-228.5"/>
<text text-anchor="middle" x="1041.5" y="-235.5" font-family="Helvetica,sans-Serif" font-size="10.00">ft_close_fd</text>
</a>
</g>
</g>
<!-- Node6&#45;&gt;Node9 -->
<g id="edge9" class="edge">
<title>Node6&#45;&gt;Node9</title>
<path fill="none" stroke="midnightblue" d="M743.1,-238C800.85,-238 928.82,-238 996.53,-238"/>
<polygon fill="midnightblue" stroke="midnightblue" points="996.86,-241.5 1006.86,-238 996.85,-234.5 996.86,-241.5"/>
</g>
<!-- Node8 -->
<g id="node8" class="node">
<title>Node8</title>
<g id="a_node8"><a xlink:href="lst__redir2_8c.html#ade8f0bdda51d9bf348ebeb38fefba881" target="_top" xlink:title=" ">
<polygon fill="none" stroke="black" points="909,-209.5 909,-228.5 971,-228.5 971,-209.5 909,-209.5"/>
<text text-anchor="middle" x="940" y="-216.5" font-family="Helvetica,sans-Serif" font-size="10.00">pop_redir</text>
</a>
</g>
</g>
<!-- Node7&#45;&gt;Node8 -->
<g id="edge7" class="edge">
<title>Node7&#45;&gt;Node8</title>
<path fill="none" stroke="midnightblue" d="M873.2,-219C881.67,-219 890.46,-219 898.74,-219"/>
<polygon fill="midnightblue" stroke="midnightblue" points="898.9,-222.5 908.9,-219 898.9,-215.5 898.9,-222.5"/>
</g>
<!-- Node8&#45;&gt;Node9 -->
<g id="edge8" class="edge">
<title>Node8&#45;&gt;Node9</title>
<path fill="none" stroke="midnightblue" d="M971.12,-224.75C979.18,-226.29 988.06,-227.99 996.69,-229.63"/>
<polygon fill="midnightblue" stroke="midnightblue" points="996.17,-233.1 1006.65,-231.54 997.49,-226.22 996.17,-233.1"/>
</g>
<!-- Node11 -->
<g id="node11" class="node">
<title>Node11</title>
<g id="a_node11"><a xlink:href="lst__env_8c.html#a058c245b5f2ef22f9d2659f90e4d3537" target="_top" xlink:title=" ">
<polygon fill="none" stroke="black" points="683.5,-190.5 683.5,-209.5 741.5,-209.5 741.5,-190.5 683.5,-190.5"/>
<text text-anchor="middle" x="712.5" y="-197.5" font-family="Helvetica,sans-Serif" font-size="10.00">pop_env</text>
</a>
</g>
</g>
<!-- Node10&#45;&gt;Node11 -->
<g id="edge11" class="edge">
<title>Node10&#45;&gt;Node11</title>
<path fill="none" stroke="midnightblue" d="M644.67,-200C654.14,-200 664.08,-200 673.32,-200"/>
<polygon fill="midnightblue" stroke="midnightblue" points="673.38,-203.5 683.38,-200 673.38,-196.5 673.38,-203.5"/>
</g>
<!-- Node13&#45;&gt;Node2 -->
<g id="edge14" class="edge">
<title>Node13&#45;&gt;Node2</title>
<path fill="none" stroke="midnightblue" d="M198.67,-171.53C217.89,-183.41 252.23,-203.98 283,-219 286.79,-220.85 290.81,-222.68 294.84,-224.43"/>
<polygon fill="midnightblue" stroke="midnightblue" points="293.56,-227.69 304.13,-228.34 296.27,-221.24 293.56,-227.69"/>
</g>
<!-- Node13&#45;&gt;Node3 -->
<g id="edge15" class="edge">
<title>Node13&#45;&gt;Node3</title>
<path fill="none" stroke="midnightblue" d="M220.34,-171.59C240.38,-176.8 265.28,-183.28 286.23,-188.74"/>
<polygon fill="midnightblue" stroke="midnightblue" points="285.61,-192.19 296.16,-191.32 287.37,-185.42 285.61,-192.19"/>
</g>
<!-- Node14 -->
<g id="node14" class="node">
<title>Node14</title>
<g id="a_node14"><a xlink:href="expand_8c.html#a19e46ed1e16f9b3f3b1e8961163feedc" target="_top" xlink:title="Checks if a given char is a valid character for the key of an env variable.">
<polygon fill="none" stroke="black" points="283,-152.5 283,-171.5 378,-171.5 378,-152.5 283,-152.5"/>
<text text-anchor="middle" x="330.5" y="-159.5" font-family="Helvetica,sans-Serif" font-size="10.00">is_valid_for_key</text>
</a>
</g>
</g>
<!-- Node13&#45;&gt;Node14 -->
<g id="edge16" class="edge">
<title>Node13&#45;&gt;Node14</title>
<path fill="none" stroke="midnightblue" d="M247.11,-162C255.64,-162 264.33,-162 272.73,-162"/>
<polygon fill="midnightblue" stroke="midnightblue" points="272.78,-165.5 282.78,-162 272.78,-158.5 272.78,-165.5"/>
</g>
<!-- Node15 -->
<g id="node15" class="node">
<title>Node15</title>
<g id="a_node15"><a xlink:href="string__builder_8c.html#a2630bac2d2575ee6ecee7ed88e5f8296" target="_top" xlink:title="Put char in the struct t_str_buf so we can build a string in the struct. The point is to create the s...">
<polygon fill="none" stroke="black" points="292,-114.5 292,-133.5 369,-133.5 369,-114.5 292,-114.5"/>
<text text-anchor="middle" x="330.5" y="-121.5" font-family="Helvetica,sans-Serif" font-size="10.00">str_buf_putc</text>
</a>
</g>
</g>
<!-- Node13&#45;&gt;Node15 -->
<g id="edge17" class="edge">
<title>Node13&#45;&gt;Node15</title>
<path fill="none" stroke="midnightblue" d="M220.34,-152.41C239.35,-147.46 262.73,-141.38 282.97,-136.11"/>
<polygon fill="midnightblue" stroke="midnightblue" points="284.13,-139.43 292.92,-133.52 282.36,-132.65 284.13,-139.43"/>
</g>
<!-- Node17&#45;&gt;Node15 -->
<g id="edge20" class="edge">
<title>Node17&#45;&gt;Node15</title>
<path fill="none" stroke="midnightblue" d="M219.59,-95.39C238.75,-100.38 262.51,-106.56 283.03,-111.91"/>
<polygon fill="midnightblue" stroke="midnightblue" points="282.25,-115.32 292.81,-114.45 284.02,-108.54 282.25,-115.32"/>
</g>
<!-- Node19&#45;&gt;Node15 -->
<g id="edge23" class="edge">
<title>Node19&#45;&gt;Node15</title>
<path fill="none" stroke="midnightblue" d="M221.1,-124C239.59,-124 262.08,-124 281.77,-124"/>
<polygon fill="midnightblue" stroke="midnightblue" points="281.78,-127.5 291.78,-124 281.78,-120.5 281.78,-127.5"/>
</g>
</g>
</svg>
        <g id="navigator" transform="translate(0 0)" fill="#404254">
                <rect fill="#f2f5e9" fill-opacity="0.5" stroke="#606060" stroke-width=".5" x="0" y="0" width="60" height="60"/>
                <use id="zoomplus" xlink:href="#zoomPlus" x="17" y="9" onmousedown="handleZoom(evt,'in')"/>
                <use id="zoomminus" xlink:href="#zoomMin" x="42" y="9" onmousedown="handleZoom(evt,'out')"/>
                <use id="reset" xlink:href="#resetDef" x="30" y="36" onmousedown="handleReset()"/>
                <g id="arrowUp" xlink:href="#dirArrow" transform="translate(30 24)" onmousedown="handlePan(0,-1)">
                  <use xlink:href="#rim" fill="#404040">
                        <set attributeName="fill" to="#808080" begin="arrowUp.mouseover" end="arrowUp.mouseout"/>
                  </use>
                  <path fill="none" stroke="white" stroke-width="1.5" d="M0,-3.0v7 M-2.5,-0.5L0,-3.0L2.5,-0.5"/>
                </g>
                <g id="arrowRight" xlink:href="#dirArrow" transform="rotate(90) translate(36 -43)" onmousedown="handlePan(1,0)">
                  <use xlink:href="#rim" fill="#404040">
                        <set attributeName="fill" to="#808080" begin="arrowRight.mouseover" end="arrowRight.mouseout"/>
                  </use>
                  <path fill="none" stroke="white" stroke-width="1.5" d="M0,-3.0v7 M-2.5,-0.5L0,-3.0L2.5,-0.5"/>
                </g>
                <g id="arrowDown" xlink:href="#dirArrow" transform="rotate(180) translate(-30 -48)" onmousedown="handlePan(0,1)">
                  <use xlink:href="#rim" fill="#404040">
                        <set attributeName="fill" to="#808080" begin="arrowDown.mouseover" end="arrowDown.mouseout"/>
                  </use>
                  <path fill="none" stroke="white" stroke-width="1.5" d="M0,-3.0v7 M-2.5,-0.5L0,-3.0L2.5,-0.5"/>
                </g>
                <g id="arrowLeft" xlink:href="#dirArrow" transform="rotate(270) translate(-36 17)" onmousedown="handlePan(-1,0)">
                  <use xlink:href="#rim" fill="#404040">
                        <set attributeName="fill" to="#808080" begin="arrowLeft.mouseover" end="arrowLeft.mouseout"/>
                  </use>
                  <path fill="none" stroke="white" stroke-width="1.5" d="M0,-3.0v7 M-2.5,-0.5L0,-3.0L2.5,-0.5"/>
                </g>
        </g>
        <svg viewBox="0 0 15 15" width="100%" height="30px" preserveAspectRatio="xMaxYMin meet">
         <g id="arrow_out" transform="scale(0.3 0.3)">
          <a xlink:href="expand__dollar_8c_a6d96e914be2d2db42405f61048e85370_cgraph_org.svg" target="_base">
           <rect id="button" ry="5" rx="5" y="6" x="6" height="38" width="38"
                fill="#f2f5e9" fill-opacity="0.5" stroke="#606060" stroke-width="1.0"/>
           <path id="arrow"
             d="M 11.500037,31.436501 C 11.940474,20.09759 22.043105,11.32322 32.158766,21.979434 L 37.068811,17.246167 C 37.068811,17.246167 37.088388,32 37.088388,32 L 22.160133,31.978069 C 22.160133,31.978069 26.997745,27.140456 26.997745,27.140456 C 18.528582,18.264221 13.291696,25.230495 11.500037,31.436501 z"
             style="fill:#404040;"/>
          </a>
         </g>
        </svg>
</svg>
