<?xml version="1.0" encoding="UTF-8" standalone="no"?>
<!DOCTYPE svg PUBLIC "-//W3C//DTD SVG 1.1//EN"
 "http://www.w3.org/Graphics/SVG/1.1/DTD/svg11.dtd">
<!-- Generated by graphviz version 2.43.0 (0)
 -->
<!-- Title: expand_word_loop Pages: 1 -->
<svg width="1354pt" height="654pt"
 viewBox="0.00 0.00 1354.00 654.00" xmlns="http://www.w3.org/2000/svg" xmlns:xlink="http://www.w3.org/1999/xlink">
<g id="graph0" class="graph" transform="scale(1 1) rotate(0) translate(4 650)">
<title>expand_word_loop</title>
<!-- Node1 -->
<g id="node1" class="node">
<title>Node1</title>
<g id="a_node1"><a xlink:title=" ">
<polygon fill="#bfbfbf" stroke="black" points="0,-275.5 0,-294.5 108,-294.5 108,-275.5 0,-275.5"/>
<text text-anchor="middle" x="54" y="-282.5" font-family="Helvetica,sans-Serif" font-size="10.00">expand_word_loop</text>
</a>
</g>
</g>
<!-- Node2 -->
<g id="node2" class="node">
<title>Node2</title>
<g id="a_node2"><a xlink:href="lexer__utils_8c.html#a6b132516dacc9599762b1fe7341a0f04" target="_top" xlink:title="Advance one byte in the struct t_lexer to keep track of progress.">
<polygon fill="none" stroke="black" points="571.5,-351.5 571.5,-370.5 629.5,-370.5 629.5,-351.5 571.5,-351.5"/>
<text text-anchor="middle" x="600.5" y="-358.5" font-family="Helvetica,sans-Serif" font-size="10.00">advance</text>
</a>
</g>
</g>
<!-- Node1&#45;&gt;Node2 -->
<g id="edge1" class="edge">
<title>Node1&#45;&gt;Node2</title>
<path fill="none" stroke="midnightblue" d="M66.69,-294.62C107.59,-327.46 249.29,-434.32 388,-457 444.58,-466.25 464.9,-480.92 517,-457 551.6,-441.11 577.15,-402.76 590.06,-379.63"/>
<polygon fill="midnightblue" stroke="midnightblue" points="593.17,-381.22 594.8,-370.75 587,-377.92 593.17,-381.22"/>
</g>
<!-- Node3 -->
<g id="node3" class="node">
<title>Node3</title>
<g id="a_node3"><a xlink:href="expand__word_8c.html#a435189c48cf5cbf3527b73c50ca8ee4b" target="_top" xlink:title=" ">
<polygon fill="none" stroke="black" points="684,-560.5 684,-579.5 788,-579.5 788,-560.5 684,-560.5"/>
<text text-anchor="middle" x="736" y="-567.5" font-family="Helvetica,sans-Serif" font-size="10.00">exit_expand_fatal</text>
</a>
</g>
</g>
<!-- Node1&#45;&gt;Node3 -->
<g id="edge2" class="edge">
<title>Node1&#45;&gt;Node3</title>
<path fill="none" stroke="midnightblue" d="M56.68,-294.66C67.26,-352.07 130.05,-646 306.5,-646 306.5,-646 306.5,-646 453.5,-646 547.94,-646 654.23,-605.64 704.95,-583.74"/>
<polygon fill="midnightblue" stroke="midnightblue" points="706.58,-586.85 714.33,-579.63 703.77,-580.44 706.58,-586.85"/>
</g>
<!-- Node11 -->
<g id="node11" class="node">
<title>Node11</title>
<g id="a_node11"><a xlink:href="expand__dollar_8c.html#ac3e15865744ed2c1300a5cb96f24e33d" target="_top" xlink:title="Manages all possibilities with expand : $?, known and unknown env variable.">
<polygon fill="none" stroke="black" points="144,-313.5 144,-332.5 227,-332.5 227,-313.5 144,-313.5"/>
<text text-anchor="middle" x="185.5" y="-320.5" font-family="Helvetica,sans-Serif" font-size="10.00">handle_dollar</text>
</a>
</g>
</g>
<!-- Node1&#45;&gt;Node11 -->
<g id="edge11" class="edge">
<title>Node1&#45;&gt;Node11</title>
<path fill="none" stroke="midnightblue" d="M87.68,-294.59C104.09,-299.4 124.18,-305.3 141.79,-310.47"/>
<polygon fill="midnightblue" stroke="midnightblue" points="141.25,-313.96 151.83,-313.41 143.22,-307.24 141.25,-313.96"/>
</g>
<!-- Node13 -->
<g id="node13" class="node">
<title>Node13</title>
<g id="a_node13"><a xlink:href="string__builder_8c.html#a2630bac2d2575ee6ecee7ed88e5f8296" target="_top" xlink:title="Put char in the struct t_str_buf so we can build a string in the struct. The point is to create the s...">
<polygon fill="none" stroke="black" points="562,-142.5 562,-161.5 639,-161.5 639,-142.5 562,-142.5"/>
<text text-anchor="middle" x="600.5" y="-149.5" font-family="Helvetica,sans-Serif" font-size="10.00">str_buf_putc</text>
</a>
</g>
</g>
<!-- Node1&#45;&gt;Node13 -->
<g id="edge41" class="edge">
<title>Node1&#45;&gt;Node13</title>
<path fill="none" stroke="midnightblue" d="M63.42,-275.27C89.72,-245.51 173.88,-154.99 263,-109 364.11,-56.82 410.87,-35.97 517,-77 546.48,-88.4 571.92,-115.77 586.47,-134.1"/>
<polygon fill="midnightblue" stroke="midnightblue" points="583.86,-136.44 592.72,-142.26 589.42,-132.19 583.86,-136.44"/>
</g>
<!-- Node16 -->
<g id="node16" class="node">
<title>Node16</title>
<g id="a_node16"><a xlink:href="string__builder_8c.html#a34739f65bf6f3e3e2b9e19dadf5fe217" target="_top" xlink:title=" ">
<polygon fill="none" stroke="black" points="698.5,-294.5 698.5,-313.5 773.5,-313.5 773.5,-294.5 698.5,-294.5"/>
<text text-anchor="middle" x="736" y="-301.5" font-family="Helvetica,sans-Serif" font-size="10.00">str_buf_free</text>
</a>
</g>
</g>
<!-- Node1&#45;&gt;Node16 -->
<g id="edge40" class="edge">
<title>Node1&#45;&gt;Node16</title>
<path fill="none" stroke="midnightblue" d="M58.08,-275.19C74.45,-225.08 156.37,0 306.5,0 306.5,0 306.5,0 453.5,0 609.19,0 702.85,-217.32 728.07,-284.47"/>
<polygon fill="midnightblue" stroke="midnightblue" points="724.92,-286.04 731.64,-294.23 731.49,-283.64 724.92,-286.04"/>
</g>
<!-- Node24 -->
<g id="node24" class="node">
<title>Node24</title>
<g id="a_node24"><a xlink:href="expand__word_8c.html#add0124b30c1b263c28a7881e90685366" target="_top" xlink:title="Dequotes and manage quote state to expand correctly.">
<polygon fill="none" stroke="black" points="408.5,-104.5 408.5,-123.5 496.5,-123.5 496.5,-104.5 408.5,-104.5"/>
<text text-anchor="middle" x="452.5" y="-111.5" font-family="Helvetica,sans-Serif" font-size="10.00">handle_quotes</text>
</a>
</g>
</g>
<!-- Node1&#45;&gt;Node24 -->
<g id="edge37" class="edge">
<title>Node1&#45;&gt;Node24</title>
<path fill="none" stroke="midnightblue" d="M77.17,-275.44C143.79,-246.71 342.42,-161.04 419.98,-127.6"/>
<polygon fill="midnightblue" stroke="midnightblue" points="421.45,-130.77 429.24,-123.6 418.68,-124.34 421.45,-130.77"/>
</g>
<!-- Node4 -->
<g id="node4" class="node">
<title>Node4</title>
<g id="a_node4"><a xlink:href="lst__cmd2_8c.html#a132395876bb5a7cfe926b9e37571a1e3" target="_top" xlink:title=" ">
<polygon fill="none" stroke="black" points="824,-579.5 824,-598.5 916,-598.5 916,-579.5 824,-579.5"/>
<text text-anchor="middle" x="870" y="-586.5" font-family="Helvetica,sans-Serif" font-size="10.00">destructor_cmd</text>
</a>
</g>
</g>
<!-- Node3&#45;&gt;Node4 -->
<g id="edge3" class="edge">
<title>Node3&#45;&gt;Node4</title>
<path fill="none" stroke="midnightblue" d="M788.03,-577.35C796.39,-578.55 805.08,-579.8 813.54,-581.02"/>
<polygon fill="midnightblue" stroke="midnightblue" points="813.3,-584.52 823.7,-582.48 814.3,-577.59 813.3,-584.52"/>
</g>
<!-- Node9 -->
<g id="node9" class="node">
<title>Node9</title>
<g id="a_node9"><a xlink:href="lst__env_8c.html#a226ae0aa054e697998b2ecbc5d61d592" target="_top" xlink:title=" ">
<polygon fill="none" stroke="black" points="825.5,-541.5 825.5,-560.5 914.5,-560.5 914.5,-541.5 825.5,-541.5"/>
<text text-anchor="middle" x="870" y="-548.5" font-family="Helvetica,sans-Serif" font-size="10.00">destructor_env</text>
</a>
</g>
</g>
<!-- Node3&#45;&gt;Node9 -->
<g id="edge9" class="edge">
<title>Node3&#45;&gt;Node9</title>
<path fill="none" stroke="midnightblue" d="M788.03,-562.65C797,-561.36 806.34,-560.02 815.37,-558.72"/>
<polygon fill="midnightblue" stroke="midnightblue" points="815.99,-562.17 825.39,-557.28 815,-555.24 815.99,-562.17"/>
</g>
<!-- Node5 -->
<g id="node5" class="node">
<title>Node5</title>
<g id="a_node5"><a xlink:href="lst__cmd2_8c.html#a8e2b63759f149b547e0d07f210ede9b3" target="_top" xlink:title=" ">
<polygon fill="none" stroke="black" points="952,-579.5 952,-598.5 1013,-598.5 1013,-579.5 952,-579.5"/>
<text text-anchor="middle" x="982.5" y="-586.5" font-family="Helvetica,sans-Serif" font-size="10.00">pop_cmd</text>
</a>
</g>
</g>
<!-- Node4&#45;&gt;Node5 -->
<g id="edge4" class="edge">
<title>Node4&#45;&gt;Node5</title>
<path fill="none" stroke="midnightblue" d="M916.26,-589C924.73,-589 933.52,-589 941.8,-589"/>
<polygon fill="midnightblue" stroke="midnightblue" points="941.95,-592.5 951.95,-589 941.95,-585.5 941.95,-592.5"/>
</g>
<!-- Node6 -->
<g id="node6" class="node">
<title>Node6</title>
<g id="a_node6"><a xlink:href="lst__redir2_8c.html#a30ccaf401a4f897e48ead5fe54f4b307" target="_top" xlink:title=" ">
<polygon fill="none" stroke="black" points="1049,-598.5 1049,-617.5 1143,-617.5 1143,-598.5 1049,-598.5"/>
<text text-anchor="middle" x="1096" y="-605.5" font-family="Helvetica,sans-Serif" font-size="10.00">destructor_redir</text>
</a>
</g>
</g>
<!-- Node5&#45;&gt;Node6 -->
<g id="edge5" class="edge">
<title>Node5&#45;&gt;Node6</title>
<path fill="none" stroke="midnightblue" d="M1013.09,-594.04C1021.06,-595.4 1029.95,-596.91 1038.85,-598.43"/>
<polygon fill="midnightblue" stroke="midnightblue" points="1038.42,-601.91 1048.86,-600.14 1039.59,-595.01 1038.42,-601.91"/>
</g>
<!-- Node8 -->
<g id="node8" class="node">
<title>Node8</title>
<g id="a_node8"><a xlink:href="utils_8c.html#a1bca6910c90a19d96b36506a2e2cebf6" target="_top" xlink:title="as fd are all setup to &#45;1 at the beginning we check if they are open before trying to close we avoid ...">
<polygon fill="none" stroke="black" points="1277,-579.5 1277,-598.5 1346,-598.5 1346,-579.5 1277,-579.5"/>
<text text-anchor="middle" x="1311.5" y="-586.5" font-family="Helvetica,sans-Serif" font-size="10.00">ft_close_fd</text>
</a>
</g>
</g>
<!-- Node5&#45;&gt;Node8 -->
<g id="edge8" class="edge">
<title>Node5&#45;&gt;Node8</title>
<path fill="none" stroke="midnightblue" d="M1013.1,-589C1070.85,-589 1198.82,-589 1266.53,-589"/>
<polygon fill="midnightblue" stroke="midnightblue" points="1266.86,-592.5 1276.86,-589 1266.85,-585.5 1266.86,-592.5"/>
</g>
<!-- Node7 -->
<g id="node7" class="node">
<title>Node7</title>
<g id="a_node7"><a xlink:href="lst__redir2_8c.html#ade8f0bdda51d9bf348ebeb38fefba881" target="_top" xlink:title=" ">
<polygon fill="none" stroke="black" points="1179,-598.5 1179,-617.5 1241,-617.5 1241,-598.5 1179,-598.5"/>
<text text-anchor="middle" x="1210" y="-605.5" font-family="Helvetica,sans-Serif" font-size="10.00">pop_redir</text>
</a>
</g>
</g>
<!-- Node6&#45;&gt;Node7 -->
<g id="edge6" class="edge">
<title>Node6&#45;&gt;Node7</title>
<path fill="none" stroke="midnightblue" d="M1143.2,-608C1151.67,-608 1160.46,-608 1168.74,-608"/>
<polygon fill="midnightblue" stroke="midnightblue" points="1168.9,-611.5 1178.9,-608 1168.9,-604.5 1168.9,-611.5"/>
</g>
<!-- Node7&#45;&gt;Node8 -->
<g id="edge7" class="edge">
<title>Node7&#45;&gt;Node8</title>
<path fill="none" stroke="midnightblue" d="M1241.12,-602.25C1249.18,-600.71 1258.06,-599.01 1266.69,-597.37"/>
<polygon fill="midnightblue" stroke="midnightblue" points="1267.49,-600.78 1276.65,-595.46 1266.17,-593.9 1267.49,-600.78"/>
</g>
<!-- Node10 -->
<g id="node10" class="node">
<title>Node10</title>
<g id="a_node10"><a xlink:href="lst__env_8c.html#a058c245b5f2ef22f9d2659f90e4d3537" target="_top" xlink:title=" ">
<polygon fill="none" stroke="black" points="953.5,-541.5 953.5,-560.5 1011.5,-560.5 1011.5,-541.5 953.5,-541.5"/>
<text text-anchor="middle" x="982.5" y="-548.5" font-family="Helvetica,sans-Serif" font-size="10.00">pop_env</text>
</a>
</g>
</g>
<!-- Node9&#45;&gt;Node10 -->
<g id="edge10" class="edge">
<title>Node9&#45;&gt;Node10</title>
<path fill="none" stroke="midnightblue" d="M914.67,-551C924.14,-551 934.08,-551 943.32,-551"/>
<polygon fill="midnightblue" stroke="midnightblue" points="943.38,-554.5 953.38,-551 943.38,-547.5 943.38,-554.5"/>
</g>
<!-- Node11&#45;&gt;Node2 -->
<g id="edge12" class="edge">
<title>Node11&#45;&gt;Node2</title>
<path fill="none" stroke="midnightblue" d="M198.25,-332.62C227.83,-356.13 308.71,-416.12 388,-437 443.44,-451.6 463.59,-457.85 517,-437 546.78,-425.38 572.29,-397.41 586.76,-378.84"/>
<polygon fill="midnightblue" stroke="midnightblue" points="589.74,-380.69 592.95,-370.59 584.15,-376.49 589.74,-380.69"/>
</g>
<!-- Node12 -->
<g id="node12" class="node">
<title>Node12</title>
<g id="a_node12"><a xlink:href="expand__dollar_8c.html#ae2c40b201e71a1f59fb92ee39ac89d70" target="_top" xlink:title="Handle $? to expand on current error code.">
<polygon fill="none" stroke="black" points="263,-228.5 263,-247.5 352,-247.5 352,-228.5 263,-228.5"/>
<text text-anchor="middle" x="307.5" y="-235.5" font-family="Helvetica,sans-Serif" font-size="10.00">error_code_var</text>
</a>
</g>
</g>
<!-- Node11&#45;&gt;Node12 -->
<g id="edge13" class="edge">
<title>Node11&#45;&gt;Node12</title>
<path fill="none" stroke="midnightblue" d="M200.27,-313.25C220.88,-298.65 259.98,-270.96 284.56,-253.54"/>
<polygon fill="midnightblue" stroke="midnightblue" points="286.76,-256.27 292.9,-247.64 282.71,-250.56 286.76,-256.27"/>
</g>
<!-- Node11&#45;&gt;Node13 -->
<g id="edge36" class="edge">
<title>Node11&#45;&gt;Node13</title>
<path fill="none" stroke="midnightblue" d="M190.96,-313.37C208.96,-275.83 280.54,-139.26 388,-95 441.01,-73.17 462.27,-77.93 517,-95 542.24,-102.87 566.57,-121.47 582.18,-135.29"/>
<polygon fill="midnightblue" stroke="midnightblue" points="580.18,-138.2 589.91,-142.38 584.91,-133.04 580.18,-138.2"/>
</g>
<!-- Node15 -->
<g id="node15" class="node">
<title>Node15</title>
<g id="a_node15"><a xlink:href="expand__dollar_8c.html#af17c527615f14d68b20a8edf80264943" target="_top" xlink:title=" ">
<polygon fill="none" stroke="black" points="566.5,-484.5 566.5,-503.5 634.5,-503.5 634.5,-484.5 566.5,-484.5"/>
<text text-anchor="middle" x="600.5" y="-491.5" font-family="Helvetica,sans-Serif" font-size="10.00">exit_dollar</text>
</a>
</g>
</g>
<!-- Node11&#45;&gt;Node15 -->
<g id="edge18" class="edge">
<title>Node11&#45;&gt;Node15</title>
<path fill="none" stroke="midnightblue" d="M192.36,-332.51C203.92,-350.63 231.31,-390.45 263,-415 311.57,-452.62 328.75,-457.75 388,-474 444.68,-489.54 512.75,-493.49 556.07,-494.25"/>
<polygon fill="midnightblue" stroke="midnightblue" points="556.22,-497.75 566.26,-494.37 556.3,-490.75 556.22,-497.75"/>
</g>
<!-- Node17 -->
<g id="node17" class="node">
<title>Node17</title>
<g id="a_node17"><a xlink:href="expand__dollar_8c.html#a6d96e914be2d2db42405f61048e85370" target="_top" xlink:title=" ">
<polygon fill="none" stroke="black" points="266.5,-332.5 266.5,-351.5 348.5,-351.5 348.5,-332.5 266.5,-332.5"/>
<text text-anchor="middle" x="307.5" y="-339.5" font-family="Helvetica,sans-Serif" font-size="10.00">expand_valid</text>
</a>
</g>
</g>
<!-- Node11&#45;&gt;Node17 -->
<g id="edge21" class="edge">
<title>Node11&#45;&gt;Node17</title>
<path fill="none" stroke="midnightblue" d="M227.13,-329.43C236.51,-330.92 246.61,-332.52 256.35,-334.06"/>
<polygon fill="midnightblue" stroke="midnightblue" points="255.9,-337.53 266.32,-335.64 256.99,-330.62 255.9,-337.53"/>
</g>
<!-- Node19 -->
<g id="node19" class="node">
<title>Node19</title>
<g id="a_node19"><a xlink:href="expand_8c.html#a19e46ed1e16f9b3f3b1e8961163feedc" target="_top" xlink:title="Checks if a given char is a valid character for the key of an env variable.">
<polygon fill="none" stroke="black" points="553,-560.5 553,-579.5 648,-579.5 648,-560.5 553,-560.5"/>
<text text-anchor="middle" x="600.5" y="-567.5" font-family="Helvetica,sans-Serif" font-size="10.00">is_valid_for_key</text>
</a>
</g>
</g>
<!-- Node11&#45;&gt;Node19 -->
<g id="edge34" class="edge">
<title>Node11&#45;&gt;Node19</title>
<path fill="none" stroke="midnightblue" d="M189.58,-332.71C197.67,-356.66 221.75,-419.05 263,-453 345.72,-521.09 470.58,-550.6 542.66,-562.57"/>
<polygon fill="midnightblue" stroke="midnightblue" points="542.47,-566.09 552.9,-564.21 543.58,-559.17 542.47,-566.09"/>
</g>
<!-- Node23 -->
<g id="node23" class="node">
<title>Node23</title>
<g id="a_node23"><a xlink:href="lexer__utils_8c.html#a855a36981b55d317a52d24560c0809bf" target="_top" xlink:title="&quot;Peek&quot;, Look at the next character in the input string">
<polygon fill="none" stroke="black" points="287,-294.5 287,-313.5 328,-313.5 328,-294.5 287,-294.5"/>
<text text-anchor="middle" x="307.5" y="-301.5" font-family="Helvetica,sans-Serif" font-size="10.00">peek</text>
</a>
</g>
</g>
<!-- Node11&#45;&gt;Node23 -->
<g id="edge35" class="edge">
<title>Node11&#45;&gt;Node23</title>
<path fill="none" stroke="midnightblue" d="M227.13,-316.57C243.32,-314 261.63,-311.1 276.57,-308.74"/>
<polygon fill="midnightblue" stroke="midnightblue" points="277.46,-312.14 286.79,-307.12 276.36,-305.23 277.46,-312.14"/>
</g>
<!-- Node12&#45;&gt;Node2 -->
<g id="edge14" class="edge">
<title>Node12&#45;&gt;Node2</title>
<path fill="none" stroke="midnightblue" d="M342.58,-247.54C384.58,-259.85 457.69,-283.02 517,-311 538.15,-320.98 560.76,-334.94 576.96,-345.58"/>
<polygon fill="midnightblue" stroke="midnightblue" points="575.43,-348.76 585.69,-351.4 579.31,-342.94 575.43,-348.76"/>
</g>
<!-- Node12&#45;&gt;Node13 -->
<g id="edge15" class="edge">
<title>Node12&#45;&gt;Node13</title>
<path fill="none" stroke="midnightblue" d="M316.55,-228.11C329.69,-212.8 357.34,-183.78 388,-171 440.93,-148.94 507.61,-146.67 551.8,-148.29"/>
<polygon fill="midnightblue" stroke="midnightblue" points="551.83,-151.79 561.97,-148.74 552.14,-144.8 551.83,-151.79"/>
</g>
<!-- Node14 -->
<g id="node14" class="node">
<title>Node14</title>
<g id="a_node14"><a xlink:href="string__builder_8c.html#ae2f6bd82646cd8367e2f42a0b737b556" target="_top" xlink:title="Put a null terminated string in the t_str_buf struct.">
<polygon fill="none" stroke="black" points="414,-180.5 414,-199.5 491,-199.5 491,-180.5 414,-180.5"/>
<text text-anchor="middle" x="452.5" y="-187.5" font-family="Helvetica,sans-Serif" font-size="10.00">str_buf_puts</text>
</a>
</g>
</g>
<!-- Node12&#45;&gt;Node14 -->
<g id="edge16" class="edge">
<title>Node12&#45;&gt;Node14</title>
<path fill="none" stroke="midnightblue" d="M333.43,-228.48C349.03,-222.62 369.59,-215.11 388,-209 394.53,-206.83 401.48,-204.64 408.28,-202.56"/>
<polygon fill="midnightblue" stroke="midnightblue" points="409.54,-205.83 418.1,-199.59 407.51,-199.13 409.54,-205.83"/>
</g>
<!-- Node14&#45;&gt;Node13 -->
<g id="edge17" class="edge">
<title>Node14&#45;&gt;Node13</title>
<path fill="none" stroke="midnightblue" d="M490.34,-180.41C509.35,-175.46 532.73,-169.38 552.97,-164.11"/>
<polygon fill="midnightblue" stroke="midnightblue" points="554.13,-167.43 562.92,-161.52 552.36,-160.65 554.13,-167.43"/>
</g>
<!-- Node15&#45;&gt;Node3 -->
<g id="edge19" class="edge">
<title>Node15&#45;&gt;Node3</title>
<path fill="none" stroke="midnightblue" d="M618.41,-503.63C641.38,-516.7 682.65,-540.2 709.42,-555.44"/>
<polygon fill="midnightblue" stroke="midnightblue" points="707.81,-558.55 718.23,-560.45 711.27,-552.46 707.81,-558.55"/>
</g>
<!-- Node15&#45;&gt;Node16 -->
<g id="edge20" class="edge">
<title>Node15&#45;&gt;Node16</title>
<path fill="none" stroke="midnightblue" d="M608.3,-484.32C629.46,-454.21 694.31,-361.92 722.12,-322.34"/>
<polygon fill="midnightblue" stroke="midnightblue" points="725.16,-324.09 728.05,-313.89 719.44,-320.06 725.16,-324.09"/>
</g>
<!-- Node17&#45;&gt;Node2 -->
<g id="edge22" class="edge">
<title>Node17&#45;&gt;Node2</title>
<path fill="none" stroke="midnightblue" d="M340.68,-332.49C355.03,-328.73 372.22,-324.86 388,-323 444.94,-316.29 461,-310.72 517,-323 537.54,-327.5 559.06,-337.62 574.97,-346.29"/>
<polygon fill="midnightblue" stroke="midnightblue" points="573.66,-349.57 584.09,-351.43 577.1,-343.47 573.66,-349.57"/>
</g>
<!-- Node17&#45;&gt;Node14 -->
<g id="edge33" class="edge">
<title>Node17&#45;&gt;Node14</title>
<path fill="none" stroke="midnightblue" d="M339.7,-332.35C344.27,-329.87 348.58,-326.8 352,-323 387.53,-283.49 350.15,-246.29 388,-209 392.57,-204.5 398.17,-201.05 404.12,-198.42"/>
<polygon fill="midnightblue" stroke="midnightblue" points="405.49,-201.65 413.68,-194.92 403.09,-195.07 405.49,-201.65"/>
</g>
<!-- Node17&#45;&gt;Node15 -->
<g id="edge23" class="edge">
<title>Node17&#45;&gt;Node15</title>
<path fill="none" stroke="midnightblue" d="M313.87,-351.76C325.03,-371.12 352.66,-414.42 388,-437 440.03,-470.25 511.13,-484.25 556.19,-490.04"/>
<polygon fill="midnightblue" stroke="midnightblue" points="555.87,-493.53 566.22,-491.25 556.71,-486.58 555.87,-493.53"/>
</g>
<!-- Node18 -->
<g id="node18" class="node">
<title>Node18</title>
<g id="a_node18"><a xlink:href="expand__dollar_8c.html#a288ca34d78433c242163338d2e877550" target="_top" xlink:title=" ">
<polygon fill="none" stroke="black" points="388,-408.5 388,-427.5 517,-427.5 517,-408.5 388,-408.5"/>
<text text-anchor="middle" x="452.5" y="-415.5" font-family="Helvetica,sans-Serif" font-size="10.00">expand_valid_build_str</text>
</a>
</g>
</g>
<!-- Node17&#45;&gt;Node18 -->
<g id="edge24" class="edge">
<title>Node17&#45;&gt;Node18</title>
<path fill="none" stroke="midnightblue" d="M319.33,-351.57C333.97,-364.08 361.32,-385.9 388,-399 392.6,-401.26 397.51,-403.3 402.5,-405.14"/>
<polygon fill="midnightblue" stroke="midnightblue" points="401.51,-408.5 412.11,-408.43 403.78,-401.88 401.51,-408.5"/>
</g>
<!-- Node20 -->
<g id="node20" class="node">
<title>Node20</title>
<g id="a_node20"><a xlink:href="lst__env__two_8c.html#a4d4a14327b2c3ff88099102b6bd77986" target="_top" xlink:title=" ">
<polygon fill="none" stroke="black" points="400.5,-370.5 400.5,-389.5 504.5,-389.5 504.5,-370.5 400.5,-370.5"/>
<text text-anchor="middle" x="452.5" y="-377.5" font-family="Helvetica,sans-Serif" font-size="10.00">research_key_env</text>
</a>
</g>
</g>
<!-- Node17&#45;&gt;Node20 -->
<g id="edge29" class="edge">
<title>Node17&#45;&gt;Node20</title>
<path fill="none" stroke="midnightblue" d="M344.58,-351.59C363.13,-356.52 385.93,-362.57 405.7,-367.83"/>
<polygon fill="midnightblue" stroke="midnightblue" points="404.86,-371.23 415.43,-370.41 406.66,-364.46 404.86,-371.23"/>
</g>
<!-- Node21 -->
<g id="node21" class="node">
<title>Node21</title>
<g id="a_node21"><a xlink:href="string__builder_8c.html#a1bfdfae2d27c541b15b526d7d67b7577" target="_top" xlink:title="End and null terminate the string created in t_str_buf, reset the struct so it can be reused and retu...">
<polygon fill="none" stroke="black" points="415.5,-218.5 415.5,-237.5 489.5,-237.5 489.5,-218.5 415.5,-218.5"/>
<text text-anchor="middle" x="452.5" y="-225.5" font-family="Helvetica,sans-Serif" font-size="10.00">str_buf_end</text>
</a>
</g>
</g>
<!-- Node17&#45;&gt;Node21 -->
<g id="edge30" class="edge">
<title>Node17&#45;&gt;Node21</title>
<path fill="none" stroke="midnightblue" d="M334.58,-332.38C340.52,-329.72 346.65,-326.56 352,-323 356.62,-319.93 406.88,-271.34 434.14,-244.87"/>
<polygon fill="midnightblue" stroke="midnightblue" points="436.74,-247.23 441.48,-237.75 431.87,-242.21 436.74,-247.23"/>
</g>
<!-- Node22 -->
<g id="node22" class="node">
<title>Node22</title>
<g id="a_node22"><a xlink:href="string__builder_8c.html#a2ff0766da574e4904598f3119c7d3749" target="_top" xlink:title=" ">
<polygon fill="none" stroke="black" points="417,-332.5 417,-351.5 488,-351.5 488,-332.5 417,-332.5"/>
<text text-anchor="middle" x="452.5" y="-339.5" font-family="Helvetica,sans-Serif" font-size="10.00">str_buf_init</text>
</a>
</g>
</g>
<!-- Node17&#45;&gt;Node22 -->
<g id="edge32" class="edge">
<title>Node17&#45;&gt;Node22</title>
<path fill="none" stroke="midnightblue" d="M348.71,-342C366.84,-342 388.3,-342 406.91,-342"/>
<polygon fill="midnightblue" stroke="midnightblue" points="406.92,-345.5 416.92,-342 406.92,-338.5 406.92,-345.5"/>
</g>
<!-- Node18&#45;&gt;Node2 -->
<g id="edge25" class="edge">
<title>Node18&#45;&gt;Node2</title>
<path fill="none" stroke="midnightblue" d="M488.73,-408.42C498.01,-405.64 507.96,-402.42 517,-399 535.57,-391.99 555.82,-382.68 571.62,-375.04"/>
<polygon fill="midnightblue" stroke="midnightblue" points="573.38,-378.07 580.82,-370.53 570.3,-371.78 573.38,-378.07"/>
</g>
<!-- Node18&#45;&gt;Node13 -->
<g id="edge28" class="edge">
<title>Node18&#45;&gt;Node13</title>
<path fill="none" stroke="midnightblue" d="M503.28,-408.37C508.32,-405.91 513.03,-402.84 517,-399 550.73,-366.32 584.05,-224.01 595.41,-171.53"/>
<polygon fill="midnightblue" stroke="midnightblue" points="598.88,-172.02 597.55,-161.51 592.04,-170.56 598.88,-172.02"/>
</g>
<!-- Node18&#45;&gt;Node15 -->
<g id="edge26" class="edge">
<title>Node18&#45;&gt;Node15</title>
<path fill="none" stroke="midnightblue" d="M471.99,-427.63C497.33,-440.82 543.03,-464.61 572.29,-479.83"/>
<polygon fill="midnightblue" stroke="midnightblue" points="570.67,-482.94 581.16,-484.45 573.91,-476.73 570.67,-482.94"/>
</g>
<!-- Node18&#45;&gt;Node19 -->
<g id="edge27" class="edge">
<title>Node18&#45;&gt;Node19</title>
<path fill="none" stroke="midnightblue" d="M462.63,-427.51C486.8,-452.67 552.69,-521.26 583.37,-553.21"/>
<polygon fill="midnightblue" stroke="midnightblue" points="580.92,-555.71 590.37,-560.5 585.97,-550.86 580.92,-555.71"/>
</g>
<!-- Node21&#45;&gt;Node13 -->
<g id="edge31" class="edge">
<title>Node21&#45;&gt;Node13</title>
<path fill="none" stroke="midnightblue" d="M489.51,-219.36C498.69,-216.58 508.39,-213.13 517,-209 540.17,-197.87 564.06,-180.62 580.13,-168.01"/>
<polygon fill="midnightblue" stroke="midnightblue" points="582.58,-170.53 588.2,-161.55 578.2,-165.07 582.58,-170.53"/>
</g>
<!-- Node24&#45;&gt;Node2 -->
<g id="edge38" class="edge">
<title>Node24&#45;&gt;Node2</title>
<path fill="none" stroke="midnightblue" d="M467.22,-123.54C481.27,-133.88 502.97,-151.53 517,-171 557.2,-226.79 583.38,-305.24 594.05,-341.37"/>
<polygon fill="midnightblue" stroke="midnightblue" points="590.73,-342.51 596.86,-351.16 597.46,-340.58 590.73,-342.51"/>
</g>
<!-- Node24&#45;&gt;Node13 -->
<g id="edge39" class="edge">
<title>Node24&#45;&gt;Node13</title>
<path fill="none" stroke="midnightblue" d="M490.34,-123.59C509.35,-128.54 532.73,-134.62 552.97,-139.89"/>
<polygon fill="midnightblue" stroke="midnightblue" points="552.36,-143.35 562.92,-142.48 554.13,-136.57 552.36,-143.35"/>
</g>
</g>
</svg>
