<?xml version="1.0" encoding="UTF-8" standalone="no"?>
<!DOCTYPE svg PUBLIC "-//W3C//DTD SVG 1.1//EN"
 "http://www.w3.org/Graphics/SVG/1.1/DTD/svg11.dtd">
<!-- Generated by graphviz version 2.43.0 (0)
 -->
<!-- Title: expand_word Pages: 1 -->
<!--zoomable 712 -->
<svg id="main" version="1.1" xmlns="http://www.w3.org/2000/svg" xmlns:xlink="http://www.w3.org/1999/xlink" xml:space="preserve" onload="init(evt)">
<style type="text/css"><![CDATA[
.edge:hover path { stroke: red; }
.edge:hover polygon { stroke: red; fill: red; }
]]></style>
<script type="text/javascript"><![CDATA[
var edges = document.getElementsByTagName('g');
if (edges && edges.length) {
  for (var i=0;i<edges.length;i++) {
    if (edges[i].id.substr(0,4)=='edge') {
      edges[i].setAttribute('class','edge');
    }
  }
}
]]></script>
        <defs>
                <circle id="rim" cx="0" cy="0" r="7"/>
                <circle id="rim2" cx="0" cy="0" r="3.5"/>
                <g id="zoomPlus">
                        <use xlink:href="#rim" fill="#404040">
                                <set attributeName="fill" to="#808080" begin="zoomplus.mouseover" end="zoomplus.mouseout"/>
                        </use>
                        <path d="M-4,0h8M0,-4v8" fill="none" stroke="white" stroke-width="1.5" pointer-events="none"/>
                </g>
                <g id="zoomMin">
                        <use xlink:href="#rim" fill="#404040">
                                <set attributeName="fill" to="#808080" begin="zoomminus.mouseover" end="zoomminus.mouseout"/>
                        </use>
                        <path d="M-4,0h8" fill="none" stroke="white" stroke-width="1.5" pointer-events="none"/>
                </g>
                <g id="dirArrow">
                        <path fill="none" stroke="white" stroke-width="1.5" d="M0,-3.0v7 M-2.5,-0.5L0,-3.0L2.5,-0.5"/>
                </g>
               <g id="resetDef">
                       <use xlink:href="#rim2" fill="#404040">
                               <set attributeName="fill" to="#808080" begin="reset.mouseover" end="reset.mouseout"/>
                       </use>
               </g>
        </defs>

<script type="text/javascript">
var viewWidth = 1472;
var viewHeight = 712;
var sectionId = 'dynsection-3';
</script>
<script xlink:href="svgpan.js"/>
<svg id="graph" class="graph">
<g id="viewport">
<title>expand_word</title>
<!-- Node1 -->
<g id="node1" class="node">
<title>Node1</title>
<g id="a_node1"><a xlink:title="Scans the word to dequote/expand and build correct output.">
<polygon fill="#bfbfbf" stroke="black" points="0,-152.5 0,-171.5 82,-171.5 82,-152.5 0,-152.5"/>
<text text-anchor="middle" x="41" y="-159.5" font-family="Helvetica,sans-Serif" font-size="10.00">expand_word</text>
</a>
</g>
</g>
<!-- Node2 -->
<g id="node2" class="node">
<title>Node2</title>
<g id="a_node2"><a xlink:href="expand__word_8c.html#a435189c48cf5cbf3527b73c50ca8ee4b" target="_top" xlink:title=" ">
<polygon fill="none" stroke="black" points="802,-646.5 802,-665.5 906,-665.5 906,-646.5 802,-646.5"/>
<text text-anchor="middle" x="854" y="-653.5" font-family="Helvetica,sans-Serif" font-size="10.00">exit_expand_fatal</text>
</a>
</g>
</g>
<!-- Node1&#45;&gt;Node2 -->
<g id="edge1" class="edge">
<title>Node1&#45;&gt;Node2</title>
<path fill="none" stroke="midnightblue" d="M42.08,-171.69C43.26,-243.79 60.31,-694 302.5,-694 302.5,-694 302.5,-694 571.5,-694 651.35,-694 742.81,-678.8 799.24,-667.62"/>
<polygon fill="midnightblue" stroke="midnightblue" points="800.25,-670.99 809.36,-665.59 798.87,-664.13 800.25,-670.99"/>
</g>
<!-- Node10 -->
<g id="node10" class="node">
<title>Node10</title>
<g id="a_node10"><a xlink:href="expand__word_8c.html#a051bcabe3f6edf5f6d234199cea49f48" target="_top" xlink:title=" ">
<polygon fill="none" stroke="black" points="118,-228.5 118,-247.5 226,-247.5 226,-228.5 118,-228.5"/>
<text text-anchor="middle" x="172" y="-235.5" font-family="Helvetica,sans-Serif" font-size="10.00">expand_word_loop</text>
</a>
</g>
</g>
<!-- Node1&#45;&gt;Node10 -->
<g id="edge10" class="edge">
<title>Node1&#45;&gt;Node10</title>
<path fill="none" stroke="midnightblue" d="M58.34,-171.63C80.44,-184.65 120.06,-207.99 145.94,-223.24"/>
<polygon fill="midnightblue" stroke="midnightblue" points="144.4,-226.39 154.79,-228.45 147.96,-220.36 144.4,-226.39"/>
</g>
<!-- Node22 -->
<g id="node22" class="node">
<title>Node22</title>
<g id="a_node22"><a xlink:href="string__builder_8c.html#a1bfdfae2d27c541b15b526d7d67b7577" target="_top" xlink:title="End and null terminate the string created in t_str_buf, reset the struct so it can be reused and retu...">
<polygon fill="none" stroke="black" points="533.5,-570.5 533.5,-589.5 607.5,-589.5 607.5,-570.5 533.5,-570.5"/>
<text text-anchor="middle" x="570.5" y="-577.5" font-family="Helvetica,sans-Serif" font-size="10.00">str_buf_end</text>
</a>
</g>
</g>
<!-- Node1&#45;&gt;Node22 -->
<g id="edge46" class="edge">
<title>Node1&#45;&gt;Node22</title>
<path fill="none" stroke="midnightblue" d="M48.32,-171.63C78.95,-217.57 217.28,-416.37 381,-517 425.62,-544.42 483.6,-561.48 523.4,-570.81"/>
<polygon fill="midnightblue" stroke="midnightblue" points="522.84,-574.27 533.36,-573.08 524.39,-567.45 522.84,-574.27"/>
</g>
<!-- Node23 -->
<g id="node23" class="node">
<title>Node23</title>
<g id="a_node23"><a xlink:href="string__builder_8c.html#a2ff0766da574e4904598f3119c7d3749" target="_top" xlink:title=" ">
<polygon fill="none" stroke="black" points="535,-76.5 535,-95.5 606,-95.5 606,-76.5 535,-76.5"/>
<text text-anchor="middle" x="570.5" y="-83.5" font-family="Helvetica,sans-Serif" font-size="10.00">str_buf_init</text>
</a>
</g>
</g>
<!-- Node1&#45;&gt;Node23 -->
<g id="edge47" class="edge">
<title>Node1&#45;&gt;Node23</title>
<path fill="none" stroke="midnightblue" d="M82.08,-156.23C178.57,-142.32 423.23,-107.07 524.53,-92.48"/>
<polygon fill="midnightblue" stroke="midnightblue" points="525.33,-95.9 534.73,-91.01 524.33,-88.97 525.33,-95.9"/>
</g>
<!-- Node26 -->
<g id="node26" class="node">
<title>Node26</title>
<g id="a_node26"><a xlink:href="expand__word_8c.html#af8312a725cf021e108e011dfa4d60f73" target="_top" xlink:title="Initialise expand struct.">
<polygon fill="none" stroke="black" points="135,-38.5 135,-57.5 209,-57.5 209,-38.5 135,-38.5"/>
<text text-anchor="middle" x="172" y="-45.5" font-family="Helvetica,sans-Serif" font-size="10.00">init_expand</text>
</a>
</g>
</g>
<!-- Node1&#45;&gt;Node26 -->
<g id="edge44" class="edge">
<title>Node1&#45;&gt;Node26</title>
<path fill="none" stroke="midnightblue" d="M48,-152.38C59.59,-134.47 86.68,-95.68 118,-72 123.08,-68.16 128.86,-64.76 134.7,-61.81"/>
<polygon fill="midnightblue" stroke="midnightblue" points="136.25,-64.95 143.83,-57.55 133.29,-58.61 136.25,-64.95"/>
</g>
<!-- Node27 -->
<g id="node27" class="node">
<title>Node27</title>
<g id="a_node27"><a xlink:href="lexer__utils_8c.html#a5226e7cc8fd04bded427425b8bee4439" target="_top" xlink:title="Initialize t_lexer.">
<polygon fill="none" stroke="black" points="145.5,-0.5 145.5,-19.5 198.5,-19.5 198.5,-0.5 145.5,-0.5"/>
<text text-anchor="middle" x="172" y="-7.5" font-family="Helvetica,sans-Serif" font-size="10.00">lex_init</text>
</a>
</g>
</g>
<!-- Node1&#45;&gt;Node27 -->
<g id="edge45" class="edge">
<title>Node1&#45;&gt;Node27</title>
<path fill="none" stroke="midnightblue" d="M44.87,-152.44C52.62,-128.25 76.23,-64.04 118,-29 123.11,-24.71 129.26,-21.36 135.54,-18.75"/>
<polygon fill="midnightblue" stroke="midnightblue" points="137.14,-21.9 145.37,-15.23 134.78,-15.31 137.14,-21.9"/>
</g>
<!-- Node3 -->
<g id="node3" class="node">
<title>Node3</title>
<g id="a_node3"><a xlink:href="lst__cmd2_8c.html#a132395876bb5a7cfe926b9e37571a1e3" target="_top" xlink:title=" ">
<polygon fill="none" stroke="black" points="942,-665.5 942,-684.5 1034,-684.5 1034,-665.5 942,-665.5"/>
<text text-anchor="middle" x="988" y="-672.5" font-family="Helvetica,sans-Serif" font-size="10.00">destructor_cmd</text>
</a>
</g>
</g>
<!-- Node2&#45;&gt;Node3 -->
<g id="edge2" class="edge">
<title>Node2&#45;&gt;Node3</title>
<path fill="none" stroke="midnightblue" d="M906.03,-663.35C914.39,-664.55 923.08,-665.8 931.54,-667.02"/>
<polygon fill="midnightblue" stroke="midnightblue" points="931.3,-670.52 941.7,-668.48 932.3,-663.59 931.3,-670.52"/>
</g>
<!-- Node8 -->
<g id="node8" class="node">
<title>Node8</title>
<g id="a_node8"><a xlink:href="lst__env_8c.html#a226ae0aa054e697998b2ecbc5d61d592" target="_top" xlink:title=" ">
<polygon fill="none" stroke="black" points="943.5,-627.5 943.5,-646.5 1032.5,-646.5 1032.5,-627.5 943.5,-627.5"/>
<text text-anchor="middle" x="988" y="-634.5" font-family="Helvetica,sans-Serif" font-size="10.00">destructor_env</text>
</a>
</g>
</g>
<!-- Node2&#45;&gt;Node8 -->
<g id="edge8" class="edge">
<title>Node2&#45;&gt;Node8</title>
<path fill="none" stroke="midnightblue" d="M906.03,-648.65C915,-647.36 924.34,-646.02 933.37,-644.72"/>
<polygon fill="midnightblue" stroke="midnightblue" points="933.99,-648.17 943.39,-643.28 933,-641.24 933.99,-648.17"/>
</g>
<!-- Node4 -->
<g id="node4" class="node">
<title>Node4</title>
<g id="a_node4"><a xlink:href="lst__cmd2_8c.html#a8e2b63759f149b547e0d07f210ede9b3" target="_top" xlink:title=" ">
<polygon fill="none" stroke="black" points="1070,-665.5 1070,-684.5 1131,-684.5 1131,-665.5 1070,-665.5"/>
<text text-anchor="middle" x="1100.5" y="-672.5" font-family="Helvetica,sans-Serif" font-size="10.00">pop_cmd</text>
</a>
</g>
</g>
<!-- Node3&#45;&gt;Node4 -->
<g id="edge3" class="edge">
<title>Node3&#45;&gt;Node4</title>
<path fill="none" stroke="midnightblue" d="M1034.26,-675C1042.73,-675 1051.52,-675 1059.8,-675"/>
<polygon fill="midnightblue" stroke="midnightblue" points="1059.95,-678.5 1069.95,-675 1059.95,-671.5 1059.95,-678.5"/>
</g>
<!-- Node5 -->
<g id="node5" class="node">
<title>Node5</title>
<g id="a_node5"><a xlink:href="lst__redir2_8c.html#a30ccaf401a4f897e48ead5fe54f4b307" target="_top" xlink:title=" ">
<polygon fill="none" stroke="black" points="1167,-684.5 1167,-703.5 1261,-703.5 1261,-684.5 1167,-684.5"/>
<text text-anchor="middle" x="1214" y="-691.5" font-family="Helvetica,sans-Serif" font-size="10.00">destructor_redir</text>
</a>
</g>
</g>
<!-- Node4&#45;&gt;Node5 -->
<g id="edge4" class="edge">
<title>Node4&#45;&gt;Node5</title>
<path fill="none" stroke="midnightblue" d="M1131.09,-680.04C1139.06,-681.4 1147.95,-682.91 1156.85,-684.43"/>
<polygon fill="midnightblue" stroke="midnightblue" points="1156.42,-687.91 1166.86,-686.14 1157.59,-681.01 1156.42,-687.91"/>
</g>
<!-- Node7 -->
<g id="node7" class="node">
<title>Node7</title>
<g id="a_node7"><a xlink:href="utils_8c.html#a1bca6910c90a19d96b36506a2e2cebf6" target="_top" xlink:title="as fd are all setup to &#45;1 at the beginning we check if they are open before trying to close we avoid ...">
<polygon fill="none" stroke="black" points="1395,-665.5 1395,-684.5 1464,-684.5 1464,-665.5 1395,-665.5"/>
<text text-anchor="middle" x="1429.5" y="-672.5" font-family="Helvetica,sans-Serif" font-size="10.00">ft_close_fd</text>
</a>
</g>
</g>
<!-- Node4&#45;&gt;Node7 -->
<g id="edge7" class="edge">
<title>Node4&#45;&gt;Node7</title>
<path fill="none" stroke="midnightblue" d="M1131.1,-675C1188.85,-675 1316.82,-675 1384.53,-675"/>
<polygon fill="midnightblue" stroke="midnightblue" points="1384.86,-678.5 1394.86,-675 1384.85,-671.5 1384.86,-678.5"/>
</g>
<!-- Node6 -->
<g id="node6" class="node">
<title>Node6</title>
<g id="a_node6"><a xlink:href="lst__redir2_8c.html#ade8f0bdda51d9bf348ebeb38fefba881" target="_top" xlink:title=" ">
<polygon fill="none" stroke="black" points="1297,-684.5 1297,-703.5 1359,-703.5 1359,-684.5 1297,-684.5"/>
<text text-anchor="middle" x="1328" y="-691.5" font-family="Helvetica,sans-Serif" font-size="10.00">pop_redir</text>
</a>
</g>
</g>
<!-- Node5&#45;&gt;Node6 -->
<g id="edge5" class="edge">
<title>Node5&#45;&gt;Node6</title>
<path fill="none" stroke="midnightblue" d="M1261.2,-694C1269.67,-694 1278.46,-694 1286.74,-694"/>
<polygon fill="midnightblue" stroke="midnightblue" points="1286.9,-697.5 1296.9,-694 1286.9,-690.5 1286.9,-697.5"/>
</g>
<!-- Node6&#45;&gt;Node7 -->
<g id="edge6" class="edge">
<title>Node6&#45;&gt;Node7</title>
<path fill="none" stroke="midnightblue" d="M1359.12,-688.25C1367.18,-686.71 1376.06,-685.01 1384.69,-683.37"/>
<polygon fill="midnightblue" stroke="midnightblue" points="1385.49,-686.78 1394.65,-681.46 1384.17,-679.9 1385.49,-686.78"/>
</g>
<!-- Node9 -->
<g id="node9" class="node">
<title>Node9</title>
<g id="a_node9"><a xlink:href="lst__env_8c.html#a058c245b5f2ef22f9d2659f90e4d3537" target="_top" xlink:title=" ">
<polygon fill="none" stroke="black" points="1071.5,-627.5 1071.5,-646.5 1129.5,-646.5 1129.5,-627.5 1071.5,-627.5"/>
<text text-anchor="middle" x="1100.5" y="-634.5" font-family="Helvetica,sans-Serif" font-size="10.00">pop_env</text>
</a>
</g>
</g>
<!-- Node8&#45;&gt;Node9 -->
<g id="edge9" class="edge">
<title>Node8&#45;&gt;Node9</title>
<path fill="none" stroke="midnightblue" d="M1032.67,-637C1042.14,-637 1052.08,-637 1061.32,-637"/>
<polygon fill="midnightblue" stroke="midnightblue" points="1061.38,-640.5 1071.38,-637 1061.38,-633.5 1061.38,-640.5"/>
</g>
<!-- Node10&#45;&gt;Node2 -->
<g id="edge12" class="edge">
<title>Node10&#45;&gt;Node2</title>
<path fill="none" stroke="midnightblue" d="M173.95,-247.52C180.7,-309.74 227.17,-656 424.5,-656 424.5,-656 424.5,-656 571.5,-656 647.3,-656 734.58,-656 791.6,-656"/>
<polygon fill="midnightblue" stroke="midnightblue" points="791.89,-659.5 801.89,-656 791.89,-652.5 791.89,-659.5"/>
</g>
<!-- Node11 -->
<g id="node11" class="node">
<title>Node11</title>
<g id="a_node11"><a xlink:href="lexer__utils_8c.html#a6b132516dacc9599762b1fe7341a0f04" target="_top" xlink:title="Advance one byte in the struct t_lexer to keep track of progress.">
<polygon fill="none" stroke="black" points="689.5,-190.5 689.5,-209.5 747.5,-209.5 747.5,-190.5 689.5,-190.5"/>
<text text-anchor="middle" x="718.5" y="-197.5" font-family="Helvetica,sans-Serif" font-size="10.00">advance</text>
</a>
</g>
</g>
<!-- Node10&#45;&gt;Node11 -->
<g id="edge11" class="edge">
<title>Node10&#45;&gt;Node11</title>
<path fill="none" stroke="midnightblue" d="M186.03,-228.34C228.95,-197.22 370.82,-99.68 506,-67 561.73,-53.53 584.9,-39.12 635,-67 678.77,-91.36 702.29,-149.61 712.02,-180.31"/>
<polygon fill="midnightblue" stroke="midnightblue" points="708.77,-181.67 714.99,-190.25 715.48,-179.67 708.77,-181.67"/>
</g>
<!-- Node12 -->
<g id="node12" class="node">
<title>Node12</title>
<g id="a_node12"><a xlink:href="expand__dollar_8c.html#ac3e15865744ed2c1300a5cb96f24e33d" target="_top" xlink:title="Manages all possibilities with expand : $?, known and unknown env variable.">
<polygon fill="none" stroke="black" points="262,-323.5 262,-342.5 345,-342.5 345,-323.5 262,-323.5"/>
<text text-anchor="middle" x="303.5" y="-330.5" font-family="Helvetica,sans-Serif" font-size="10.00">handle_dollar</text>
</a>
</g>
</g>
<!-- Node10&#45;&gt;Node12 -->
<g id="edge13" class="edge">
<title>Node10&#45;&gt;Node12</title>
<path fill="none" stroke="midnightblue" d="M186.37,-247.81C208.78,-264.25 254.11,-297.5 281.03,-317.25"/>
<polygon fill="midnightblue" stroke="midnightblue" points="279.26,-320.29 289.39,-323.39 283.4,-314.65 279.26,-320.29"/>
</g>
<!-- Node14 -->
<g id="node14" class="node">
<title>Node14</title>
<g id="a_node14"><a xlink:href="string__builder_8c.html#a2630bac2d2575ee6ecee7ed88e5f8296" target="_top" xlink:title="Put char in the struct t_str_buf so we can build a string in the struct. The point is to create the s...">
<polygon fill="none" stroke="black" points="680,-494.5 680,-513.5 757,-513.5 757,-494.5 680,-494.5"/>
<text text-anchor="middle" x="718.5" y="-501.5" font-family="Helvetica,sans-Serif" font-size="10.00">str_buf_putc</text>
</a>
</g>
</g>
<!-- Node10&#45;&gt;Node14 -->
<g id="edge43" class="edge">
<title>Node10&#45;&gt;Node14</title>
<path fill="none" stroke="midnightblue" d="M177.24,-247.67C200.59,-299.41 319.32,-543.23 506,-599 560.93,-615.41 582.83,-622.79 635,-599 669.28,-583.37 694.82,-545.68 707.83,-522.75"/>
<polygon fill="midnightblue" stroke="midnightblue" points="711.07,-524.11 712.77,-513.66 704.92,-520.77 711.07,-524.11"/>
</g>
<!-- Node17 -->
<g id="node17" class="node">
<title>Node17</title>
<g id="a_node17"><a xlink:href="string__builder_8c.html#a34739f65bf6f3e3e2b9e19dadf5fe217" target="_top" xlink:title=" ">
<polygon fill="none" stroke="black" points="816.5,-190.5 816.5,-209.5 891.5,-209.5 891.5,-190.5 816.5,-190.5"/>
<text text-anchor="middle" x="854" y="-197.5" font-family="Helvetica,sans-Serif" font-size="10.00">str_buf_free</text>
</a>
</g>
</g>
<!-- Node10&#45;&gt;Node17 -->
<g id="edge42" class="edge">
<title>Node10&#45;&gt;Node17</title>
<path fill="none" stroke="midnightblue" d="M177.48,-228.49C198.52,-185.34 292.19,-10 424.5,-10 424.5,-10 424.5,-10 571.5,-10 693.92,-10 802.92,-134.97 839.75,-182.21"/>
<polygon fill="midnightblue" stroke="midnightblue" points="837.1,-184.5 845.96,-190.32 842.66,-180.25 837.1,-184.5"/>
</g>
<!-- Node25 -->
<g id="node25" class="node">
<title>Node25</title>
<g id="a_node25"><a xlink:href="expand__word_8c.html#add0124b30c1b263c28a7881e90685366" target="_top" xlink:title="Dequotes and manage quote state to expand correctly.">
<polygon fill="none" stroke="black" points="526.5,-228.5 526.5,-247.5 614.5,-247.5 614.5,-228.5 526.5,-228.5"/>
<text text-anchor="middle" x="570.5" y="-235.5" font-family="Helvetica,sans-Serif" font-size="10.00">handle_quotes</text>
</a>
</g>
</g>
<!-- Node10&#45;&gt;Node25 -->
<g id="edge39" class="edge">
<title>Node10&#45;&gt;Node25</title>
<path fill="none" stroke="midnightblue" d="M226.06,-238C301.84,-238 440.27,-238 516.19,-238"/>
<polygon fill="midnightblue" stroke="midnightblue" points="516.47,-241.5 526.47,-238 516.47,-234.5 516.47,-241.5"/>
</g>
<!-- Node12&#45;&gt;Node11 -->
<g id="edge14" class="edge">
<title>Node12&#45;&gt;Node11</title>
<path fill="none" stroke="midnightblue" d="M308.97,-323.31C318.97,-302.66 345.11,-254.04 381,-227 428.16,-191.47 447.83,-192.15 506,-182 562.48,-172.14 578,-175.85 635,-182 649.78,-183.59 665.79,-186.75 679.74,-189.98"/>
<polygon fill="midnightblue" stroke="midnightblue" points="678.95,-193.39 689.49,-192.32 680.59,-186.58 678.95,-193.39"/>
</g>
<!-- Node13 -->
<g id="node13" class="node">
<title>Node13</title>
<g id="a_node13"><a xlink:href="expand__dollar_8c.html#ae2c40b201e71a1f59fb92ee39ac89d70" target="_top" xlink:title="Handle $? to expand on current error code.">
<polygon fill="none" stroke="black" points="381,-456.5 381,-475.5 470,-475.5 470,-456.5 381,-456.5"/>
<text text-anchor="middle" x="425.5" y="-463.5" font-family="Helvetica,sans-Serif" font-size="10.00">error_code_var</text>
</a>
</g>
</g>
<!-- Node12&#45;&gt;Node13 -->
<g id="edge15" class="edge">
<title>Node12&#45;&gt;Node13</title>
<path fill="none" stroke="midnightblue" d="M309.26,-342.54C319.8,-362.94 346.93,-411.42 381,-442 384.73,-445.35 389.02,-448.42 393.41,-451.16"/>
<polygon fill="midnightblue" stroke="midnightblue" points="392.01,-454.39 402.43,-456.31 395.48,-448.31 392.01,-454.39"/>
</g>
<!-- Node12&#45;&gt;Node14 -->
<g id="edge38" class="edge">
<title>Node12&#45;&gt;Node14</title>
<path fill="none" stroke="midnightblue" d="M306.26,-342.78C311.77,-370.23 331.31,-448.35 381,-485 467.18,-548.56 602.1,-530.96 672.04,-515.75"/>
<polygon fill="midnightblue" stroke="midnightblue" points="672.89,-519.15 681.87,-513.53 671.35,-512.32 672.89,-519.15"/>
</g>
<!-- Node16 -->
<g id="node16" class="node">
<title>Node16</title>
<g id="a_node16"><a xlink:href="expand__dollar_8c.html#af17c527615f14d68b20a8edf80264943" target="_top" xlink:title=" ">
<polygon fill="none" stroke="black" points="684.5,-380.5 684.5,-399.5 752.5,-399.5 752.5,-380.5 684.5,-380.5"/>
<text text-anchor="middle" x="718.5" y="-387.5" font-family="Helvetica,sans-Serif" font-size="10.00">exit_dollar</text>
</a>
</g>
</g>
<!-- Node12&#45;&gt;Node16 -->
<g id="edge20" class="edge">
<title>Node12&#45;&gt;Node16</title>
<path fill="none" stroke="midnightblue" d="M320.33,-342.6C335.4,-351.31 359,-363.86 381,-371 481.96,-403.76 608.8,-399.63 674.15,-394.44"/>
<polygon fill="midnightblue" stroke="midnightblue" points="674.81,-397.9 684.48,-393.58 674.22,-390.93 674.81,-397.9"/>
</g>
<!-- Node18 -->
<g id="node18" class="node">
<title>Node18</title>
<g id="a_node18"><a xlink:href="expand__dollar_8c.html#a6d96e914be2d2db42405f61048e85370" target="_top" xlink:title=" ">
<polygon fill="none" stroke="black" points="384.5,-342.5 384.5,-361.5 466.5,-361.5 466.5,-342.5 384.5,-342.5"/>
<text text-anchor="middle" x="425.5" y="-349.5" font-family="Helvetica,sans-Serif" font-size="10.00">expand_valid</text>
</a>
</g>
</g>
<!-- Node12&#45;&gt;Node18 -->
<g id="edge23" class="edge">
<title>Node12&#45;&gt;Node18</title>
<path fill="none" stroke="midnightblue" d="M345.13,-339.43C354.51,-340.92 364.61,-342.52 374.35,-344.06"/>
<polygon fill="midnightblue" stroke="midnightblue" points="373.9,-347.53 384.32,-345.64 374.99,-340.62 373.9,-347.53"/>
</g>
<!-- Node20 -->
<g id="node20" class="node">
<title>Node20</title>
<g id="a_node20"><a xlink:href="expand_8c.html#a19e46ed1e16f9b3f3b1e8961163feedc" target="_top" xlink:title="Checks if a given char is a valid character for the key of an env variable.">
<polygon fill="none" stroke="black" points="671,-304.5 671,-323.5 766,-323.5 766,-304.5 671,-304.5"/>
<text text-anchor="middle" x="718.5" y="-311.5" font-family="Helvetica,sans-Serif" font-size="10.00">is_valid_for_key</text>
</a>
</g>
</g>
<!-- Node12&#45;&gt;Node20 -->
<g id="edge36" class="edge">
<title>Node12&#45;&gt;Node20</title>
<path fill="none" stroke="midnightblue" d="M316.25,-323.38C345.83,-299.87 426.71,-239.88 506,-219 561.44,-204.4 582.83,-195.21 635,-219 669.28,-234.63 694.82,-272.32 707.83,-295.25"/>
<polygon fill="midnightblue" stroke="midnightblue" points="704.92,-297.23 712.77,-304.34 711.07,-293.89 704.92,-297.23"/>
</g>
<!-- Node24 -->
<g id="node24" class="node">
<title>Node24</title>
<g id="a_node24"><a xlink:href="lexer__utils_8c.html#a855a36981b55d317a52d24560c0809bf" target="_top" xlink:title="&quot;Peek&quot;, Look at the next character in the input string">
<polygon fill="none" stroke="black" points="405,-304.5 405,-323.5 446,-323.5 446,-304.5 405,-304.5"/>
<text text-anchor="middle" x="425.5" y="-311.5" font-family="Helvetica,sans-Serif" font-size="10.00">peek</text>
</a>
</g>
</g>
<!-- Node12&#45;&gt;Node24 -->
<g id="edge37" class="edge">
<title>Node12&#45;&gt;Node24</title>
<path fill="none" stroke="midnightblue" d="M345.13,-326.57C361.32,-324 379.63,-321.1 394.57,-318.74"/>
<polygon fill="midnightblue" stroke="midnightblue" points="395.46,-322.14 404.79,-317.12 394.36,-315.23 395.46,-322.14"/>
</g>
<!-- Node13&#45;&gt;Node11 -->
<g id="edge16" class="edge">
<title>Node13&#45;&gt;Node11</title>
<path fill="none" stroke="midnightblue" d="M429.52,-456.29C437.65,-431.75 462.41,-366.78 506,-333 553.24,-296.39 584.72,-327.31 635,-295 666.22,-274.94 692.33,-239.68 706.37,-218.22"/>
<polygon fill="midnightblue" stroke="midnightblue" points="709.38,-220.01 711.78,-209.69 703.47,-216.25 709.38,-220.01"/>
</g>
<!-- Node13&#45;&gt;Node14 -->
<g id="edge17" class="edge">
<title>Node13&#45;&gt;Node14</title>
<path fill="none" stroke="midnightblue" d="M461.5,-475.52C475.28,-478.97 491.29,-482.6 506,-485 561.8,-494.12 626.64,-499.14 669.67,-501.69"/>
<polygon fill="midnightblue" stroke="midnightblue" points="669.67,-505.19 679.85,-502.27 670.07,-498.2 669.67,-505.19"/>
</g>
<!-- Node15 -->
<g id="node15" class="node">
<title>Node15</title>
<g id="a_node15"><a xlink:href="string__builder_8c.html#ae2f6bd82646cd8367e2f42a0b737b556" target="_top" xlink:title="Put a null terminated string in the t_str_buf struct.">
<polygon fill="none" stroke="black" points="532,-456.5 532,-475.5 609,-475.5 609,-456.5 532,-456.5"/>
<text text-anchor="middle" x="570.5" y="-463.5" font-family="Helvetica,sans-Serif" font-size="10.00">str_buf_puts</text>
</a>
</g>
</g>
<!-- Node13&#45;&gt;Node15 -->
<g id="edge18" class="edge">
<title>Node13&#45;&gt;Node15</title>
<path fill="none" stroke="midnightblue" d="M470.18,-466C486.51,-466 505.12,-466 521.79,-466"/>
<polygon fill="midnightblue" stroke="midnightblue" points="521.88,-469.5 531.88,-466 521.88,-462.5 521.88,-469.5"/>
</g>
<!-- Node15&#45;&gt;Node14 -->
<g id="edge19" class="edge">
<title>Node15&#45;&gt;Node14</title>
<path fill="none" stroke="midnightblue" d="M608.34,-475.59C627.35,-480.54 650.73,-486.62 670.97,-491.89"/>
<polygon fill="midnightblue" stroke="midnightblue" points="670.36,-495.35 680.92,-494.48 672.13,-488.57 670.36,-495.35"/>
</g>
<!-- Node16&#45;&gt;Node2 -->
<g id="edge21" class="edge">
<title>Node16&#45;&gt;Node2</title>
<path fill="none" stroke="midnightblue" d="M724.41,-399.78C744.08,-438.97 817.38,-585.03 843.6,-637.27"/>
<polygon fill="midnightblue" stroke="midnightblue" points="840.57,-639.04 848.19,-646.41 846.83,-635.9 840.57,-639.04"/>
</g>
<!-- Node16&#45;&gt;Node17 -->
<g id="edge22" class="edge">
<title>Node16&#45;&gt;Node17</title>
<path fill="none" stroke="midnightblue" d="M728.06,-380.16C737.64,-369 753.48,-350.11 766,-333 795.04,-293.32 825.82,-244.42 841.83,-218.38"/>
<polygon fill="midnightblue" stroke="midnightblue" points="844.98,-219.94 847.21,-209.58 839.01,-216.29 844.98,-219.94"/>
</g>
<!-- Node18&#45;&gt;Node11 -->
<g id="edge24" class="edge">
<title>Node18&#45;&gt;Node11</title>
<path fill="none" stroke="midnightblue" d="M457.7,-342.35C462.27,-339.87 466.58,-336.8 470,-333 505.53,-293.49 464.59,-252.3 506,-219 555.15,-179.48 633.05,-184.29 679.33,-191.84"/>
<polygon fill="midnightblue" stroke="midnightblue" points="678.81,-195.3 689.27,-193.58 680.02,-188.4 678.81,-195.3"/>
</g>
<!-- Node18&#45;&gt;Node15 -->
<g id="edge35" class="edge">
<title>Node18&#45;&gt;Node15</title>
<path fill="none" stroke="midnightblue" d="M438.69,-361.72C463.28,-381.32 519.04,-425.77 549.21,-449.82"/>
<polygon fill="midnightblue" stroke="midnightblue" points="547.34,-452.81 557.34,-456.31 551.7,-447.33 547.34,-452.81"/>
</g>
<!-- Node18&#45;&gt;Node16 -->
<g id="edge25" class="edge">
<title>Node18&#45;&gt;Node16</title>
<path fill="none" stroke="midnightblue" d="M461.5,-361.52C475.28,-364.97 491.29,-368.6 506,-371 563.81,-380.45 631.34,-385.49 674.25,-387.95"/>
<polygon fill="midnightblue" stroke="midnightblue" points="674.16,-391.45 684.34,-388.51 674.55,-384.46 674.16,-391.45"/>
</g>
<!-- Node19 -->
<g id="node19" class="node">
<title>Node19</title>
<g id="a_node19"><a xlink:href="expand__dollar_8c.html#a288ca34d78433c242163338d2e877550" target="_top" xlink:title=" ">
<polygon fill="none" stroke="black" points="506,-342.5 506,-361.5 635,-361.5 635,-342.5 506,-342.5"/>
<text text-anchor="middle" x="570.5" y="-349.5" font-family="Helvetica,sans-Serif" font-size="10.00">expand_valid_build_str</text>
</a>
</g>
</g>
<!-- Node18&#45;&gt;Node19 -->
<g id="edge26" class="edge">
<title>Node18&#45;&gt;Node19</title>
<path fill="none" stroke="midnightblue" d="M466.71,-352C475.73,-352 485.57,-352 495.47,-352"/>
<polygon fill="midnightblue" stroke="midnightblue" points="495.78,-355.5 505.78,-352 495.78,-348.5 495.78,-355.5"/>
</g>
<!-- Node21 -->
<g id="node21" class="node">
<title>Node21</title>
<g id="a_node21"><a xlink:href="lst__env__two_8c.html#a4d4a14327b2c3ff88099102b6bd77986" target="_top" xlink:title=" ">
<polygon fill="none" stroke="black" points="518.5,-266.5 518.5,-285.5 622.5,-285.5 622.5,-266.5 518.5,-266.5"/>
<text text-anchor="middle" x="570.5" y="-273.5" font-family="Helvetica,sans-Serif" font-size="10.00">research_key_env</text>
</a>
</g>
</g>
<!-- Node18&#45;&gt;Node21 -->
<g id="edge31" class="edge">
<title>Node18&#45;&gt;Node21</title>
<path fill="none" stroke="midnightblue" d="M452.53,-342.3C458.47,-339.64 464.61,-336.51 470,-333 488.19,-321.16 487.51,-311.38 506,-300 512.7,-295.87 520.23,-292.27 527.7,-289.19"/>
<polygon fill="midnightblue" stroke="midnightblue" points="528.99,-292.44 537.06,-285.58 526.47,-285.91 528.99,-292.44"/>
</g>
<!-- Node18&#45;&gt;Node22 -->
<g id="edge32" class="edge">
<title>Node18&#45;&gt;Node22</title>
<path fill="none" stroke="midnightblue" d="M432.12,-361.78C444.89,-383.93 477.24,-439.53 506,-485 523.22,-512.23 544.15,-543.15 557.15,-562.11"/>
<polygon fill="midnightblue" stroke="midnightblue" points="554.3,-564.14 562.85,-570.4 560.07,-560.17 554.3,-564.14"/>
</g>
<!-- Node18&#45;&gt;Node23 -->
<g id="edge34" class="edge">
<title>Node18&#45;&gt;Node23</title>
<path fill="none" stroke="midnightblue" d="M458.51,-342.43C462.88,-339.95 466.91,-336.86 470,-333 522.38,-267.64 466.23,-221.72 506,-148 515.94,-129.58 533.2,-113.26 547.22,-101.99"/>
<polygon fill="midnightblue" stroke="midnightblue" points="549.66,-104.53 555.44,-95.65 545.38,-98.99 549.66,-104.53"/>
</g>
<!-- Node19&#45;&gt;Node11 -->
<g id="edge27" class="edge">
<title>Node19&#45;&gt;Node11</title>
<path fill="none" stroke="midnightblue" d="M608.55,-342.48C617.82,-338.95 627.3,-334.22 635,-328 672.19,-297.94 698.02,-246.45 709.97,-218.83"/>
<polygon fill="midnightblue" stroke="midnightblue" points="713.24,-220.08 713.86,-209.5 706.78,-217.38 713.24,-220.08"/>
</g>
<!-- Node19&#45;&gt;Node14 -->
<g id="edge30" class="edge">
<title>Node19&#45;&gt;Node14</title>
<path fill="none" stroke="midnightblue" d="M580.63,-361.51C604.8,-386.67 670.69,-455.26 701.37,-487.21"/>
<polygon fill="midnightblue" stroke="midnightblue" points="698.92,-489.71 708.37,-494.5 703.97,-484.86 698.92,-489.71"/>
</g>
<!-- Node19&#45;&gt;Node16 -->
<g id="edge28" class="edge">
<title>Node19&#45;&gt;Node16</title>
<path fill="none" stroke="midnightblue" d="M608.34,-361.59C628.38,-366.8 653.28,-373.28 674.23,-378.74"/>
<polygon fill="midnightblue" stroke="midnightblue" points="673.61,-382.19 684.16,-381.32 675.37,-375.42 673.61,-382.19"/>
</g>
<!-- Node19&#45;&gt;Node20 -->
<g id="edge29" class="edge">
<title>Node19&#45;&gt;Node20</title>
<path fill="none" stroke="midnightblue" d="M608.34,-342.41C627.35,-337.46 650.73,-331.38 670.97,-326.11"/>
<polygon fill="midnightblue" stroke="midnightblue" points="672.13,-329.43 680.92,-323.52 670.36,-322.65 672.13,-329.43"/>
</g>
<!-- Node22&#45;&gt;Node14 -->
<g id="edge33" class="edge">
<title>Node22&#45;&gt;Node14</title>
<path fill="none" stroke="midnightblue" d="M600.47,-570.44C611.49,-566.45 624.03,-561.46 635,-556 656.61,-545.24 679.74,-530.33 696,-519.24"/>
<polygon fill="midnightblue" stroke="midnightblue" points="698.03,-522.09 704.27,-513.52 694.05,-516.33 698.03,-522.09"/>
</g>
<!-- Node25&#45;&gt;Node11 -->
<g id="edge40" class="edge">
<title>Node25&#45;&gt;Node11</title>
<path fill="none" stroke="midnightblue" d="M608.34,-228.41C630.07,-222.75 657.53,-215.61 679.46,-209.9"/>
<polygon fill="midnightblue" stroke="midnightblue" points="680.63,-213.21 689.43,-207.31 678.87,-206.44 680.63,-213.21"/>
</g>
<!-- Node25&#45;&gt;Node14 -->
<g id="edge41" class="edge">
<title>Node25&#45;&gt;Node14</title>
<path fill="none" stroke="midnightblue" d="M614.6,-244.24C622.22,-247.07 629.47,-251.14 635,-257 682.64,-307.5 647.59,-343.64 671,-409 680.87,-436.55 696.47,-466.61 706.84,-485.38"/>
<polygon fill="midnightblue" stroke="midnightblue" points="703.92,-487.33 711.86,-494.33 710.02,-483.9 703.92,-487.33"/>
</g>
</g>
</svg>
        <g id="navigator" transform="translate(0 0)" fill="#404254">
                <rect fill="#f2f5e9" fill-opacity="0.5" stroke="#606060" stroke-width=".5" x="0" y="0" width="60" height="60"/>
                <use id="zoomplus" xlink:href="#zoomPlus" x="17" y="9" onmousedown="handleZoom(evt,'in')"/>
                <use id="zoomminus" xlink:href="#zoomMin" x="42" y="9" onmousedown="handleZoom(evt,'out')"/>
                <use id="reset" xlink:href="#resetDef" x="30" y="36" onmousedown="handleReset()"/>
                <g id="arrowUp" xlink:href="#dirArrow" transform="translate(30 24)" onmousedown="handlePan(0,-1)">
                  <use xlink:href="#rim" fill="#404040">
                        <set attributeName="fill" to="#808080" begin="arrowUp.mouseover" end="arrowUp.mouseout"/>
                  </use>
                  <path fill="none" stroke="white" stroke-width="1.5" d="M0,-3.0v7 M-2.5,-0.5L0,-3.0L2.5,-0.5"/>
                </g>
                <g id="arrowRight" xlink:href="#dirArrow" transform="rotate(90) translate(36 -43)" onmousedown="handlePan(1,0)">
                  <use xlink:href="#rim" fill="#404040">
                        <set attributeName="fill" to="#808080" begin="arrowRight.mouseover" end="arrowRight.mouseout"/>
                  </use>
                  <path fill="none" stroke="white" stroke-width="1.5" d="M0,-3.0v7 M-2.5,-0.5L0,-3.0L2.5,-0.5"/>
                </g>
                <g id="arrowDown" xlink:href="#dirArrow" transform="rotate(180) translate(-30 -48)" onmousedown="handlePan(0,1)">
                  <use xlink:href="#rim" fill="#404040">
                        <set attributeName="fill" to="#808080" begin="arrowDown.mouseover" end="arrowDown.mouseout"/>
                  </use>
                  <path fill="none" stroke="white" stroke-width="1.5" d="M0,-3.0v7 M-2.5,-0.5L0,-3.0L2.5,-0.5"/>
                </g>
                <g id="arrowLeft" xlink:href="#dirArrow" transform="rotate(270) translate(-36 17)" onmousedown="handlePan(-1,0)">
                  <use xlink:href="#rim" fill="#404040">
                        <set attributeName="fill" to="#808080" begin="arrowLeft.mouseover" end="arrowLeft.mouseout"/>
                  </use>
                  <path fill="none" stroke="white" stroke-width="1.5" d="M0,-3.0v7 M-2.5,-0.5L0,-3.0L2.5,-0.5"/>
                </g>
        </g>
        <svg viewBox="0 0 15 15" width="100%" height="30px" preserveAspectRatio="xMaxYMin meet">
         <g id="arrow_out" transform="scale(0.3 0.3)">
          <a xlink:href="expand__word_8c_a0ec378990f411456436a9bb6a71babfc_cgraph_org.svg" target="_base">
           <rect id="button" ry="5" rx="5" y="6" x="6" height="38" width="38"
                fill="#f2f5e9" fill-opacity="0.5" stroke="#606060" stroke-width="1.0"/>
           <path id="arrow"
             d="M 11.500037,31.436501 C 11.940474,20.09759 22.043105,11.32322 32.158766,21.979434 L 37.068811,17.246167 C 37.068811,17.246167 37.088388,32 37.088388,32 L 22.160133,31.978069 C 22.160133,31.978069 26.997745,27.140456 26.997745,27.140456 C 18.528582,18.264221 13.291696,25.230495 11.500037,31.436501 z"
             style="fill:#404040;"/>
          </a>
         </g>
        </svg>
</svg>
