<?xml version="1.0" encoding="UTF-8" standalone="no"?>
<!DOCTYPE svg PUBLIC "-//W3C//DTD SVG 1.1//EN"
 "http://www.w3.org/Graphics/SVG/1.1/DTD/svg11.dtd">
<!-- Generated by graphviz version 2.43.0 (0)
 -->
<!-- Title: error_code_var Pages: 1 -->
<svg width="323pt" height="104pt"
 viewBox="0.00 0.00 323.00 104.00" xmlns="http://www.w3.org/2000/svg" xmlns:xlink="http://www.w3.org/1999/xlink">
<g id="graph0" class="graph" transform="scale(1 1) rotate(0) translate(4 100)">
<title>error_code_var</title>
<!-- Node1 -->
<g id="node1" class="node">
<title>Node1</title>
<g id="a_node1"><a xlink:title="Handle $? to expand on current error code.">
<polygon fill="#bfbfbf" stroke="black" points="0,-38.5 0,-57.5 89,-57.5 89,-38.5 0,-38.5"/>
<text text-anchor="middle" x="44.5" y="-45.5" font-family="Helvetica,sans-Serif" font-size="10.00">error_code_var</text>
</a>
</g>
</g>
<!-- Node2 -->
<g id="node2" class="node">
<title>Node2</title>
<g id="a_node2"><a xlink:href="lexer__utils_8c.html#a6b132516dacc9599762b1fe7341a0f04" target="_top" xlink:title="Advance one byte in the struct t_lexer to keep track of progress.">
<polygon fill="none" stroke="black" points="134.5,-76.5 134.5,-95.5 192.5,-95.5 192.5,-76.5 134.5,-76.5"/>
<text text-anchor="middle" x="163.5" y="-83.5" font-family="Helvetica,sans-Serif" font-size="10.00">advance</text>
</a>
</g>
</g>
<!-- Node1&#45;&gt;Node2 -->
<g id="edge1" class="edge">
<title>Node1&#45;&gt;Node2</title>
<path fill="none" stroke="midnightblue" d="M75.02,-57.59C90.05,-62.47 108.48,-68.46 124.55,-73.67"/>
<polygon fill="midnightblue" stroke="midnightblue" points="123.6,-77.05 134.2,-76.81 125.77,-70.39 123.6,-77.05"/>
</g>
<!-- Node3 -->
<g id="node3" class="node">
<title>Node3</title>
<g id="a_node3"><a xlink:href="string__builder_8c.html#a2630bac2d2575ee6ecee7ed88e5f8296" target="_top" xlink:title="Put char in the struct t_str_buf so we can build a string in the struct. The point is to create the s...">
<polygon fill="none" stroke="black" points="238,-19.5 238,-38.5 315,-38.5 315,-19.5 238,-19.5"/>
<text text-anchor="middle" x="276.5" y="-26.5" font-family="Helvetica,sans-Serif" font-size="10.00">str_buf_putc</text>
</a>
</g>
</g>
<!-- Node1&#45;&gt;Node3 -->
<g id="edge2" class="edge">
<title>Node1&#45;&gt;Node3</title>
<path fill="none" stroke="midnightblue" d="M89.03,-44.4C128.65,-41.13 187.02,-36.31 227.87,-32.93"/>
<polygon fill="midnightblue" stroke="midnightblue" points="228.18,-36.42 237.86,-32.11 227.6,-29.44 228.18,-36.42"/>
</g>
<!-- Node4 -->
<g id="node4" class="node">
<title>Node4</title>
<g id="a_node4"><a xlink:href="string__builder_8c.html#ae2f6bd82646cd8367e2f42a0b737b556" target="_top" xlink:title="Put a null terminated string in the t_str_buf struct.">
<polygon fill="none" stroke="black" points="125,-0.5 125,-19.5 202,-19.5 202,-0.5 125,-0.5"/>
<text text-anchor="middle" x="163.5" y="-7.5" font-family="Helvetica,sans-Serif" font-size="10.00">str_buf_puts</text>
</a>
</g>
</g>
<!-- Node1&#45;&gt;Node4 -->
<g id="edge3" class="edge">
<title>Node1&#45;&gt;Node4</title>
<path fill="none" stroke="midnightblue" d="M75.02,-38.41C89.71,-33.64 107.66,-27.81 123.47,-22.68"/>
<polygon fill="midnightblue" stroke="midnightblue" points="124.56,-26 132.99,-19.59 122.39,-19.35 124.56,-26"/>
</g>
<!-- Node4&#45;&gt;Node3 -->
<g id="edge4" class="edge">
<title>Node4&#45;&gt;Node3</title>
<path fill="none" stroke="midnightblue" d="M202.08,-16.43C210.4,-17.86 219.32,-19.38 227.97,-20.86"/>
<polygon fill="midnightblue" stroke="midnightblue" points="227.51,-24.34 237.96,-22.57 228.69,-17.44 227.51,-24.34"/>
</g>
</g>
</svg>
