<?xml version="1.0" encoding="UTF-8" standalone="no"?>
<!DOCTYPE svg PUBLIC "-//W3C//DTD SVG 1.1//EN"
 "http://www.w3.org/Graphics/SVG/1.1/DTD/svg11.dtd">
<!-- Generated by graphviz version 2.43.0 (0)
 -->
<!-- Title: export Pages: 1 -->
<svg width="464pt" height="104pt"
 viewBox="0.00 0.00 464.00 104.00" xmlns="http://www.w3.org/2000/svg" xmlns:xlink="http://www.w3.org/1999/xlink">
<g id="graph0" class="graph" transform="scale(1 1) rotate(0) translate(4 100)">
<title>export</title>
<!-- Node1 -->
<g id="node1" class="node">
<title>Node1</title>
<g id="a_node1"><a xlink:title=" ">
<polygon fill="#bfbfbf" stroke="black" points="0,-57.5 0,-76.5 48,-76.5 48,-57.5 0,-57.5"/>
<text text-anchor="middle" x="24" y="-64.5" font-family="Helvetica,sans-Serif" font-size="10.00">export</text>
</a>
</g>
</g>
<!-- Node2 -->
<g id="node2" class="node">
<title>Node2</title>
<g id="a_node2"><a xlink:href="export_8c.html#a077edb8749298d8320620813ff84519c" target="_top" xlink:title=" ">
<polygon fill="none" stroke="black" points="84,-76.5 84,-95.5 194,-95.5 194,-76.5 84,-76.5"/>
<text text-anchor="middle" x="139" y="-83.5" font-family="Helvetica,sans-Serif" font-size="10.00">check_validity_key</text>
</a>
</g>
</g>
<!-- Node1&#45;&gt;Node2 -->
<g id="edge1" class="edge">
<title>Node1&#45;&gt;Node2</title>
<path fill="none" stroke="midnightblue" d="M48.14,-70.89C55.73,-72.17 64.56,-73.65 73.68,-75.18"/>
<polygon fill="midnightblue" stroke="midnightblue" points="73.19,-78.65 83.63,-76.86 74.35,-71.75 73.19,-78.65"/>
</g>
<!-- Node3 -->
<g id="node3" class="node">
<title>Node3</title>
<g id="a_node3"><a xlink:href="export_8c.html#a90ff129fee9412bd5c6d74be5970b99f" target="_top" xlink:title=" ">
<polygon fill="none" stroke="black" points="84,-38.5 84,-57.5 194,-57.5 194,-38.5 84,-38.5"/>
<text text-anchor="middle" x="139" y="-45.5" font-family="Helvetica,sans-Serif" font-size="10.00">export_env_update</text>
</a>
</g>
</g>
<!-- Node1&#45;&gt;Node3 -->
<g id="edge2" class="edge">
<title>Node1&#45;&gt;Node3</title>
<path fill="none" stroke="midnightblue" d="M48.14,-63.11C55.73,-61.83 64.56,-60.35 73.68,-58.82"/>
<polygon fill="midnightblue" stroke="midnightblue" points="74.35,-62.25 83.63,-57.14 73.19,-55.35 74.35,-62.25"/>
</g>
<!-- Node4 -->
<g id="node4" class="node">
<title>Node4</title>
<g id="a_node4"><a xlink:href="lst__env_8c.html#a9c375db3cbfe2e87b52bae7ee7472eae" target="_top" xlink:title=" ">
<polygon fill="none" stroke="black" points="235.5,-76.5 235.5,-95.5 335.5,-95.5 335.5,-76.5 235.5,-76.5"/>
<text text-anchor="middle" x="285.5" y="-83.5" font-family="Helvetica,sans-Serif" font-size="10.00">create_node_env</text>
</a>
</g>
</g>
<!-- Node3&#45;&gt;Node4 -->
<g id="edge3" class="edge">
<title>Node3&#45;&gt;Node4</title>
<path fill="none" stroke="midnightblue" d="M176.46,-57.59C195.27,-62.54 218.41,-68.62 238.45,-73.89"/>
<polygon fill="midnightblue" stroke="midnightblue" points="237.74,-77.32 248.3,-76.48 239.52,-70.55 237.74,-77.32"/>
</g>
<!-- Node5 -->
<g id="node5" class="node">
<title>Node5</title>
<g id="a_node5"><a xlink:href="lst__env_8c.html#a5976d1b2a8159220749fac94a83d5c95" target="_top" xlink:title=" ">
<polygon fill="none" stroke="black" points="239.5,-38.5 239.5,-57.5 331.5,-57.5 331.5,-38.5 239.5,-38.5"/>
<text text-anchor="middle" x="285.5" y="-45.5" font-family="Helvetica,sans-Serif" font-size="10.00">push_back_env</text>
</a>
</g>
</g>
<!-- Node3&#45;&gt;Node5 -->
<g id="edge4" class="edge">
<title>Node3&#45;&gt;Node5</title>
<path fill="none" stroke="midnightblue" d="M194.22,-48C205.62,-48 217.67,-48 229.11,-48"/>
<polygon fill="midnightblue" stroke="midnightblue" points="229.42,-51.5 239.42,-48 229.42,-44.5 229.42,-51.5"/>
</g>
<!-- Node7 -->
<g id="node7" class="node">
<title>Node7</title>
<g id="a_node7"><a xlink:href="export_8c.html#a8cd6579fc3858072521e55ef235a2637" target="_top" xlink:title=" ">
<polygon fill="none" stroke="black" points="230,-0.5 230,-19.5 341,-19.5 341,-0.5 230,-0.5"/>
<text text-anchor="middle" x="285.5" y="-7.5" font-family="Helvetica,sans-Serif" font-size="10.00">research_node_env</text>
</a>
</g>
</g>
<!-- Node3&#45;&gt;Node7 -->
<g id="edge6" class="edge">
<title>Node3&#45;&gt;Node7</title>
<path fill="none" stroke="midnightblue" d="M176.46,-38.41C195.27,-33.46 218.41,-27.38 238.45,-22.11"/>
<polygon fill="midnightblue" stroke="midnightblue" points="239.52,-25.45 248.3,-19.52 237.74,-18.68 239.52,-25.45"/>
</g>
<!-- Node6 -->
<g id="node6" class="node">
<title>Node6</title>
<g id="a_node6"><a xlink:href="env__utils_8c.html#ac7b3f84bb622bdf477616c5b0022f035" target="_top" xlink:title=" ">
<polygon fill="none" stroke="black" points="377,-38.5 377,-57.5 456,-57.5 456,-38.5 377,-38.5"/>
<text text-anchor="middle" x="416.5" y="-45.5" font-family="Helvetica,sans-Serif" font-size="10.00">get_last_env</text>
</a>
</g>
</g>
<!-- Node5&#45;&gt;Node6 -->
<g id="edge5" class="edge">
<title>Node5&#45;&gt;Node6</title>
<path fill="none" stroke="midnightblue" d="M331.62,-48C342.85,-48 354.96,-48 366.38,-48"/>
<polygon fill="midnightblue" stroke="midnightblue" points="366.63,-51.5 376.63,-48 366.63,-44.5 366.63,-51.5"/>
</g>
</g>
</svg>
