<?xml version="1.0" encoding="UTF-8" standalone="no"?>
<!DOCTYPE svg PUBLIC "-//W3C//DTD SVG 1.1//EN"
 "http://www.w3.org/Graphics/SVG/1.1/DTD/svg11.dtd">
<!-- Generated by graphviz version 2.43.0 (0)
 -->
<!-- Title: export Pages: 1 -->
<!--zoomable 85 -->
<svg id="main" version="1.1" xmlns="http://www.w3.org/2000/svg" xmlns:xlink="http://www.w3.org/1999/xlink" xml:space="preserve" onload="init(evt)">
<style type="text/css"><![CDATA[
.edge:hover path { stroke: red; }
.edge:hover polygon { stroke: red; fill: red; }
]]></style>
<script type="text/javascript"><![CDATA[
var edges = document.getElementsByTagName('g');
if (edges && edges.length) {
  for (var i=0;i<edges.length;i++) {
    if (edges[i].id.substr(0,4)=='edge') {
      edges[i].setAttribute('class','edge');
    }
  }
}
]]></script>
        <defs>
                <circle id="rim" cx="0" cy="0" r="7"/>
                <circle id="rim2" cx="0" cy="0" r="3.5"/>
                <g id="zoomPlus">
                        <use xlink:href="#rim" fill="#404040">
                                <set attributeName="fill" to="#808080" begin="zoomplus.mouseover" end="zoomplus.mouseout"/>
                        </use>
                        <path d="M-4,0h8M0,-4v8" fill="none" stroke="white" stroke-width="1.5" pointer-events="none"/>
                </g>
                <g id="zoomMin">
                        <use xlink:href="#rim" fill="#404040">
                                <set attributeName="fill" to="#808080" begin="zoomminus.mouseover" end="zoomminus.mouseout"/>
                        </use>
                        <path d="M-4,0h8" fill="none" stroke="white" stroke-width="1.5" pointer-events="none"/>
                </g>
                <g id="dirArrow">
                        <path fill="none" stroke="white" stroke-width="1.5" d="M0,-3.0v7 M-2.5,-0.5L0,-3.0L2.5,-0.5"/>
                </g>
               <g id="resetDef">
                       <use xlink:href="#rim2" fill="#404040">
                               <set attributeName="fill" to="#808080" begin="reset.mouseover" end="reset.mouseout"/>
                       </use>
               </g>
        </defs>

<script type="text/javascript">
var viewWidth = 600;
var viewHeight = 85;
var sectionId = 'dynsection-4';
</script>
<script xlink:href="svgpan.js"/>
<svg id="graph" class="graph">
<g id="viewport">
<title>export</title>
<!-- Node1 -->
<g id="node1" class="node">
<title>Node1</title>
<g id="a_node1"><a xlink:title=" ">
<polygon fill="#bfbfbf" stroke="black" points="0,-38.5 0,-57.5 48,-57.5 48,-38.5 0,-38.5"/>
<text text-anchor="middle" x="24" y="-45.5" font-family="Helvetica,sans-Serif" font-size="10.00">export</text>
</a>
</g>
</g>
<!-- Node2 -->
<g id="node2" class="node">
<title>Node2</title>
<g id="a_node2"><a xlink:href="export_8c.html#a077edb8749298d8320620813ff84519c" target="_top" xlink:title=" ">
<polygon fill="none" stroke="black" points="84,-57.5 84,-76.5 194,-76.5 194,-57.5 84,-57.5"/>
<text text-anchor="middle" x="139" y="-64.5" font-family="Helvetica,sans-Serif" font-size="10.00">check_validity_key</text>
</a>
</g>
</g>
<!-- Node1&#45;&gt;Node2 -->
<g id="edge1" class="edge">
<title>Node1&#45;&gt;Node2</title>
<path fill="none" stroke="midnightblue" d="M48.14,-51.89C55.73,-53.17 64.56,-54.65 73.68,-56.18"/>
<polygon fill="midnightblue" stroke="midnightblue" points="73.19,-59.65 83.63,-57.86 74.35,-52.75 73.19,-59.65"/>
</g>
<!-- Node3 -->
<g id="node3" class="node">
<title>Node3</title>
<g id="a_node3"><a xlink:href="export_8c.html#a90ff129fee9412bd5c6d74be5970b99f" target="_top" xlink:title=" ">
<polygon fill="none" stroke="black" points="84,-19.5 84,-38.5 194,-38.5 194,-19.5 84,-19.5"/>
<text text-anchor="middle" x="139" y="-26.5" font-family="Helvetica,sans-Serif" font-size="10.00">export_env_update</text>
</a>
</g>
</g>
<!-- Node1&#45;&gt;Node3 -->
<g id="edge2" class="edge">
<title>Node1&#45;&gt;Node3</title>
<path fill="none" stroke="midnightblue" d="M48.14,-44.11C55.73,-42.83 64.56,-41.35 73.68,-39.82"/>
<polygon fill="midnightblue" stroke="midnightblue" points="74.35,-43.25 83.63,-38.14 73.19,-36.35 74.35,-43.25"/>
</g>
<!-- Node4 -->
<g id="node4" class="node">
<title>Node4</title>
<g id="a_node4"><a xlink:href="export_8c.html#a56cdba320963b2a94cb193c22ca238b7" target="_top" xlink:title=" ">
<polygon fill="none" stroke="black" points="256.5,-38.5 256.5,-57.5 314.5,-57.5 314.5,-38.5 256.5,-38.5"/>
<text text-anchor="middle" x="285.5" y="-45.5" font-family="Helvetica,sans-Serif" font-size="10.00">add_env</text>
</a>
</g>
</g>
<!-- Node3&#45;&gt;Node4 -->
<g id="edge3" class="edge">
<title>Node3&#45;&gt;Node4</title>
<path fill="none" stroke="midnightblue" d="M194.22,-36.13C211.56,-38.41 230.38,-40.88 246.33,-42.98"/>
<polygon fill="midnightblue" stroke="midnightblue" points="245.98,-46.47 256.35,-44.3 246.9,-39.53 245.98,-46.47"/>
</g>
<!-- Node8 -->
<g id="node8" class="node">
<title>Node8</title>
<g id="a_node8"><a xlink:href="lst__env__two_8c.html#a8cd6579fc3858072521e55ef235a2637" target="_top" xlink:title=" ">
<polygon fill="none" stroke="black" points="230,-0.5 230,-19.5 341,-19.5 341,-0.5 230,-0.5"/>
<text text-anchor="middle" x="285.5" y="-7.5" font-family="Helvetica,sans-Serif" font-size="10.00">research_node_env</text>
</a>
</g>
</g>
<!-- Node3&#45;&gt;Node8 -->
<g id="edge7" class="edge">
<title>Node3&#45;&gt;Node8</title>
<path fill="none" stroke="midnightblue" d="M194.22,-21.87C202.62,-20.77 211.37,-19.62 219.98,-18.48"/>
<polygon fill="midnightblue" stroke="midnightblue" points="220.52,-21.94 229.98,-17.17 219.61,-15 220.52,-21.94"/>
</g>
<!-- Node5 -->
<g id="node5" class="node">
<title>Node5</title>
<g id="a_node5"><a xlink:href="lst__env_8c.html#a9c375db3cbfe2e87b52bae7ee7472eae" target="_top" xlink:title=" ">
<polygon fill="none" stroke="black" points="377,-57.5 377,-76.5 477,-76.5 477,-57.5 377,-57.5"/>
<text text-anchor="middle" x="427" y="-64.5" font-family="Helvetica,sans-Serif" font-size="10.00">create_node_env</text>
</a>
</g>
</g>
<!-- Node4&#45;&gt;Node5 -->
<g id="edge4" class="edge">
<title>Node4&#45;&gt;Node5</title>
<path fill="none" stroke="midnightblue" d="M314.73,-51.84C329.78,-53.89 348.88,-56.5 366.99,-58.96"/>
<polygon fill="midnightblue" stroke="midnightblue" points="366.53,-62.43 376.92,-60.31 367.48,-55.5 366.53,-62.43"/>
</g>
<!-- Node6 -->
<g id="node6" class="node">
<title>Node6</title>
<g id="a_node6"><a xlink:href="lst__env_8c.html#a5976d1b2a8159220749fac94a83d5c95" target="_top" xlink:title=" ">
<polygon fill="none" stroke="black" points="381,-19.5 381,-38.5 473,-38.5 473,-19.5 381,-19.5"/>
<text text-anchor="middle" x="427" y="-26.5" font-family="Helvetica,sans-Serif" font-size="10.00">push_back_env</text>
</a>
</g>
</g>
<!-- Node4&#45;&gt;Node6 -->
<g id="edge5" class="edge">
<title>Node4&#45;&gt;Node6</title>
<path fill="none" stroke="midnightblue" d="M314.73,-44.16C330.79,-41.97 351.47,-39.15 370.64,-36.54"/>
<polygon fill="midnightblue" stroke="midnightblue" points="371.35,-39.98 380.79,-35.16 370.41,-33.04 371.35,-39.98"/>
</g>
<!-- Node7 -->
<g id="node7" class="node">
<title>Node7</title>
<g id="a_node7"><a xlink:href="env__utils_8c.html#ac7b3f84bb622bdf477616c5b0022f035" target="_top" xlink:title=" ">
<polygon fill="none" stroke="black" points="513,-19.5 513,-38.5 592,-38.5 592,-19.5 513,-19.5"/>
<text text-anchor="middle" x="552.5" y="-26.5" font-family="Helvetica,sans-Serif" font-size="10.00">get_last_env</text>
</a>
</g>
</g>
<!-- Node6&#45;&gt;Node7 -->
<g id="edge6" class="edge">
<title>Node6&#45;&gt;Node7</title>
<path fill="none" stroke="midnightblue" d="M473.29,-29C482.79,-29 492.86,-29 502.49,-29"/>
<polygon fill="midnightblue" stroke="midnightblue" points="502.73,-32.5 512.73,-29 502.73,-25.5 502.73,-32.5"/>
</g>
</g>
</svg>
        <g id="navigator" transform="translate(0 0)" fill="#404254">
                <rect fill="#f2f5e9" fill-opacity="0.5" stroke="#606060" stroke-width=".5" x="0" y="0" width="60" height="60"/>
                <use id="zoomplus" xlink:href="#zoomPlus" x="17" y="9" onmousedown="handleZoom(evt,'in')"/>
                <use id="zoomminus" xlink:href="#zoomMin" x="42" y="9" onmousedown="handleZoom(evt,'out')"/>
                <use id="reset" xlink:href="#resetDef" x="30" y="36" onmousedown="handleReset()"/>
                <g id="arrowUp" xlink:href="#dirArrow" transform="translate(30 24)" onmousedown="handlePan(0,-1)">
                  <use xlink:href="#rim" fill="#404040">
                        <set attributeName="fill" to="#808080" begin="arrowUp.mouseover" end="arrowUp.mouseout"/>
                  </use>
                  <path fill="none" stroke="white" stroke-width="1.5" d="M0,-3.0v7 M-2.5,-0.5L0,-3.0L2.5,-0.5"/>
                </g>
                <g id="arrowRight" xlink:href="#dirArrow" transform="rotate(90) translate(36 -43)" onmousedown="handlePan(1,0)">
                  <use xlink:href="#rim" fill="#404040">
                        <set attributeName="fill" to="#808080" begin="arrowRight.mouseover" end="arrowRight.mouseout"/>
                  </use>
                  <path fill="none" stroke="white" stroke-width="1.5" d="M0,-3.0v7 M-2.5,-0.5L0,-3.0L2.5,-0.5"/>
                </g>
                <g id="arrowDown" xlink:href="#dirArrow" transform="rotate(180) translate(-30 -48)" onmousedown="handlePan(0,1)">
                  <use xlink:href="#rim" fill="#404040">
                        <set attributeName="fill" to="#808080" begin="arrowDown.mouseover" end="arrowDown.mouseout"/>
                  </use>
                  <path fill="none" stroke="white" stroke-width="1.5" d="M0,-3.0v7 M-2.5,-0.5L0,-3.0L2.5,-0.5"/>
                </g>
                <g id="arrowLeft" xlink:href="#dirArrow" transform="rotate(270) translate(-36 17)" onmousedown="handlePan(-1,0)">
                  <use xlink:href="#rim" fill="#404040">
                        <set attributeName="fill" to="#808080" begin="arrowLeft.mouseover" end="arrowLeft.mouseout"/>
                  </use>
                  <path fill="none" stroke="white" stroke-width="1.5" d="M0,-3.0v7 M-2.5,-0.5L0,-3.0L2.5,-0.5"/>
                </g>
        </g>
        <svg viewBox="0 0 15 15" width="100%" height="30px" preserveAspectRatio="xMaxYMin meet">
         <g id="arrow_out" transform="scale(0.3 0.3)">
          <a xlink:href="export_8c_a63ef72e778f2b52c924bf77ae989dc80_cgraph_org.svg" target="_base">
           <rect id="button" ry="5" rx="5" y="6" x="6" height="38" width="38"
                fill="#f2f5e9" fill-opacity="0.5" stroke="#606060" stroke-width="1.0"/>
           <path id="arrow"
             d="M 11.500037,31.436501 C 11.940474,20.09759 22.043105,11.32322 32.158766,21.979434 L 37.068811,17.246167 C 37.068811,17.246167 37.088388,32 37.088388,32 L 22.160133,31.978069 C 22.160133,31.978069 26.997745,27.140456 26.997745,27.140456 C 18.528582,18.264221 13.291696,25.230495 11.500037,31.436501 z"
             style="fill:#404040;"/>
          </a>
         </g>
        </svg>
</svg>
