<?xml version="1.0" encoding="UTF-8" standalone="no"?>
<!DOCTYPE svg PUBLIC "-//W3C//DTD SVG 1.1//EN"
 "http://www.w3.org/Graphics/SVG/1.1/DTD/svg11.dtd">
<!-- Generated by graphviz version 2.43.0 (0)
 -->
<!-- Title: export_env_update Pages: 1 -->
<svg width="380pt" height="104pt"
 viewBox="0.00 0.00 380.00 104.00" xmlns="http://www.w3.org/2000/svg" xmlns:xlink="http://www.w3.org/1999/xlink">
<g id="graph0" class="graph" transform="scale(1 1) rotate(0) translate(4 100)">
<title>export_env_update</title>
<!-- Node1 -->
<g id="node1" class="node">
<title>Node1</title>
<g id="a_node1"><a xlink:title=" ">
<polygon fill="#bfbfbf" stroke="black" points="0,-38.5 0,-57.5 110,-57.5 110,-38.5 0,-38.5"/>
<text text-anchor="middle" x="55" y="-45.5" font-family="Helvetica,sans-Serif" font-size="10.00">export_env_update</text>
</a>
</g>
</g>
<!-- Node2 -->
<g id="node2" class="node">
<title>Node2</title>
<g id="a_node2"><a xlink:href="lst__env_8c.html#a9c375db3cbfe2e87b52bae7ee7472eae" target="_top" xlink:title=" ">
<polygon fill="none" stroke="black" points="151.5,-76.5 151.5,-95.5 251.5,-95.5 251.5,-76.5 151.5,-76.5"/>
<text text-anchor="middle" x="201.5" y="-83.5" font-family="Helvetica,sans-Serif" font-size="10.00">create_node_env</text>
</a>
</g>
</g>
<!-- Node1&#45;&gt;Node2 -->
<g id="edge1" class="edge">
<title>Node1&#45;&gt;Node2</title>
<path fill="none" stroke="midnightblue" d="M92.46,-57.59C111.27,-62.54 134.41,-68.62 154.45,-73.89"/>
<polygon fill="midnightblue" stroke="midnightblue" points="153.74,-77.32 164.3,-76.48 155.52,-70.55 153.74,-77.32"/>
</g>
<!-- Node3 -->
<g id="node3" class="node">
<title>Node3</title>
<g id="a_node3"><a xlink:href="lst__env_8c.html#a5976d1b2a8159220749fac94a83d5c95" target="_top" xlink:title=" ">
<polygon fill="none" stroke="black" points="155.5,-38.5 155.5,-57.5 247.5,-57.5 247.5,-38.5 155.5,-38.5"/>
<text text-anchor="middle" x="201.5" y="-45.5" font-family="Helvetica,sans-Serif" font-size="10.00">push_back_env</text>
</a>
</g>
</g>
<!-- Node1&#45;&gt;Node3 -->
<g id="edge2" class="edge">
<title>Node1&#45;&gt;Node3</title>
<path fill="none" stroke="midnightblue" d="M110.22,-48C121.62,-48 133.67,-48 145.11,-48"/>
<polygon fill="midnightblue" stroke="midnightblue" points="145.42,-51.5 155.42,-48 145.42,-44.5 145.42,-51.5"/>
</g>
<!-- Node5 -->
<g id="node5" class="node">
<title>Node5</title>
<g id="a_node5"><a xlink:href="export_8c.html#a8cd6579fc3858072521e55ef235a2637" target="_top" xlink:title=" ">
<polygon fill="none" stroke="black" points="146,-0.5 146,-19.5 257,-19.5 257,-0.5 146,-0.5"/>
<text text-anchor="middle" x="201.5" y="-7.5" font-family="Helvetica,sans-Serif" font-size="10.00">research_node_env</text>
</a>
</g>
</g>
<!-- Node1&#45;&gt;Node5 -->
<g id="edge4" class="edge">
<title>Node1&#45;&gt;Node5</title>
<path fill="none" stroke="midnightblue" d="M92.46,-38.41C111.27,-33.46 134.41,-27.38 154.45,-22.11"/>
<polygon fill="midnightblue" stroke="midnightblue" points="155.52,-25.45 164.3,-19.52 153.74,-18.68 155.52,-25.45"/>
</g>
<!-- Node4 -->
<g id="node4" class="node">
<title>Node4</title>
<g id="a_node4"><a xlink:href="env__utils_8c.html#ac7b3f84bb622bdf477616c5b0022f035" target="_top" xlink:title=" ">
<polygon fill="none" stroke="black" points="293,-38.5 293,-57.5 372,-57.5 372,-38.5 293,-38.5"/>
<text text-anchor="middle" x="332.5" y="-45.5" font-family="Helvetica,sans-Serif" font-size="10.00">get_last_env</text>
</a>
</g>
</g>
<!-- Node3&#45;&gt;Node4 -->
<g id="edge3" class="edge">
<title>Node3&#45;&gt;Node4</title>
<path fill="none" stroke="midnightblue" d="M247.62,-48C258.85,-48 270.96,-48 282.38,-48"/>
<polygon fill="midnightblue" stroke="midnightblue" points="282.63,-51.5 292.63,-48 282.63,-44.5 282.63,-51.5"/>
</g>
</g>
</svg>
