<?xml version="1.0" encoding="UTF-8" standalone="no"?>
<!DOCTYPE svg PUBLIC "-//W3C//DTD SVG 1.1//EN"
 "http://www.w3.org/Graphics/SVG/1.1/DTD/svg11.dtd">
<!-- Generated by graphviz version 2.43.0 (0)
 -->
<!-- Title: ft_printf_char Pages: 1 -->
<svg width="1461pt" height="233pt"
 viewBox="0.00 0.00 1461.00 232.75" xmlns="http://www.w3.org/2000/svg" xmlns:xlink="http://www.w3.org/1999/xlink">
<g id="graph0" class="graph" transform="scale(1 1) rotate(0) translate(4 228.75)">
<title>ft_printf_char</title>
<!-- Node1 -->
<g id="node1" class="node">
<title>Node1</title>
<g id="a_node1"><a xlink:title=" ">
<polygon fill="#bfbfbf" stroke="black" points="1372,-107 1372,-126 1453,-126 1453,-107 1372,-107"/>
<text text-anchor="middle" x="1412.5" y="-114" font-family="Helvetica,sans-Serif" font-size="10.00">ft_printf_char</text>
</a>
</g>
</g>
<!-- Node2 -->
<g id="node2" class="node">
<title>Node2</title>
<g id="a_node2"><a xlink:href="ft__printf_8c.html#afd374d693dd18da657053dbc77229828" target="_top" xlink:title=" ">
<polygon fill="none" stroke="black" points="992,-107 992,-126 1057,-126 1057,-107 992,-107"/>
<text text-anchor="middle" x="1024.5" y="-114" font-family="Helvetica,sans-Serif" font-size="10.00">ft_convert</text>
</a>
</g>
</g>
<!-- Node1&#45;&gt;Node2 -->
<g id="edge1" class="edge">
<title>Node1&#45;&gt;Node2</title>
<path fill="none" stroke="midnightblue" d="M1400.02,-134.56C1387.06,-153.09 1364.06,-180.82 1336,-192.5 1236.29,-233.99 1191.51,-236.76 1093,-192.5 1062.25,-178.69 1039.81,-143.18 1030.4,-126.04"/>
<polygon fill="midnightblue" stroke="midnightblue" points="1403.05,-136.33 1405.71,-126.07 1397.24,-132.43 1403.05,-136.33"/>
</g>
<!-- Node14 -->
<g id="node14" class="node">
<title>Node14</title>
<g id="a_node14"><a xlink:href="ft__printf__utils_8c.html#a35c61f40b8c860fab15b36f75334e619" target="_top" xlink:title=" ">
<polygon fill="none" stroke="black" points="1235,-164 1235,-183 1333,-183 1333,-164 1235,-164"/>
<text text-anchor="middle" x="1284" y="-171" font-family="Helvetica,sans-Serif" font-size="10.00">ft_printf_address</text>
</a>
</g>
</g>
<!-- Node1&#45;&gt;Node14 -->
<g id="edge17" class="edge">
<title>Node1&#45;&gt;Node14</title>
<path fill="none" stroke="midnightblue" d="M1380.97,-130.26C1357.86,-140.67 1326.7,-154.71 1306.24,-163.93"/>
<polygon fill="midnightblue" stroke="midnightblue" points="1382.65,-133.34 1390.33,-126.04 1379.77,-126.96 1382.65,-133.34"/>
</g>
<!-- Node16 -->
<g id="node16" class="node">
<title>Node16</title>
<g id="a_node16"><a xlink:href="ft__printf__utils_8c.html#a16bac9a6336719688a85c2939b833d7f" target="_top" xlink:title=" ">
<polygon fill="none" stroke="black" points="1105.5,-126 1105.5,-145 1183.5,-145 1183.5,-126 1105.5,-126"/>
<text text-anchor="middle" x="1144.5" y="-133" font-family="Helvetica,sans-Serif" font-size="10.00">ft_printf_hex</text>
</a>
</g>
</g>
<!-- Node1&#45;&gt;Node16 -->
<g id="edge20" class="edge">
<title>Node1&#45;&gt;Node16</title>
<path fill="none" stroke="midnightblue" d="M1361.7,-120.06C1310.03,-123.75 1230.36,-129.44 1183.53,-132.78"/>
<polygon fill="midnightblue" stroke="midnightblue" points="1362.24,-123.53 1371.96,-119.32 1361.74,-116.55 1362.24,-123.53"/>
</g>
<!-- Node17 -->
<g id="node17" class="node">
<title>Node17</title>
<g id="a_node17"><a xlink:href="ft__printf__utils_8c.html#a2d77d52ca67555dea62a8fdab36a78ed" target="_top" xlink:title=" ">
<polygon fill="none" stroke="black" points="1093,-88 1093,-107 1196,-107 1196,-88 1093,-88"/>
<text text-anchor="middle" x="1144.5" y="-95" font-family="Helvetica,sans-Serif" font-size="10.00">ft_printf_numbers</text>
</a>
</g>
</g>
<!-- Node1&#45;&gt;Node17 -->
<g id="edge22" class="edge">
<title>Node1&#45;&gt;Node17</title>
<path fill="none" stroke="midnightblue" d="M1361.96,-112.96C1314.69,-109.59 1243.83,-104.52 1196.19,-101.12"/>
<polygon fill="midnightblue" stroke="midnightblue" points="1361.74,-116.45 1371.96,-113.68 1362.24,-109.47 1361.74,-116.45"/>
</g>
<!-- Node18 -->
<g id="node18" class="node">
<title>Node18</title>
<g id="a_node18"><a xlink:href="ft__printf_8c.html#a6f196c1c438363973a4b649e86ce0d17" target="_top" xlink:title=" ">
<polygon fill="none" stroke="black" points="1247.5,-50 1247.5,-69 1320.5,-69 1320.5,-50 1247.5,-50"/>
<text text-anchor="middle" x="1284" y="-57" font-family="Helvetica,sans-Serif" font-size="10.00">ft_printf_str</text>
</a>
</g>
</g>
<!-- Node1&#45;&gt;Node18 -->
<g id="edge24" class="edge">
<title>Node1&#45;&gt;Node18</title>
<path fill="none" stroke="midnightblue" d="M1380.97,-102.74C1357.86,-92.33 1326.7,-78.29 1306.24,-69.07"/>
<polygon fill="midnightblue" stroke="midnightblue" points="1379.77,-106.04 1390.33,-106.96 1382.65,-99.66 1379.77,-106.04"/>
</g>
<!-- Node19 -->
<g id="node19" class="node">
<title>Node19</title>
<g id="a_node19"><a xlink:href="ft__printf__utils_8c.html#a6111b0290c61676c28ad6df27a8ed60f" target="_top" xlink:title=" ">
<polygon fill="none" stroke="black" points="1232,-0.5 1232,-30.5 1336,-30.5 1336,-0.5 1232,-0.5"/>
<text text-anchor="start" x="1240" y="-18.5" font-family="Helvetica,sans-Serif" font-size="10.00">ft_printf_unsigned</text>
<text text-anchor="middle" x="1284" y="-7.5" font-family="Helvetica,sans-Serif" font-size="10.00">_numbers</text>
</a>
</g>
</g>
<!-- Node1&#45;&gt;Node19 -->
<g id="edge26" class="edge">
<title>Node1&#45;&gt;Node19</title>
<path fill="none" stroke="midnightblue" d="M1396.92,-98.73C1382.66,-82.15 1359.68,-57.49 1336,-40.5 1330.95,-36.88 1325.3,-33.53 1319.65,-30.53"/>
<polygon fill="midnightblue" stroke="midnightblue" points="1394.42,-101.19 1403.54,-106.58 1399.77,-96.68 1394.42,-101.19"/>
</g>
<!-- Node3 -->
<g id="node3" class="node">
<title>Node3</title>
<g id="a_node3"><a xlink:href="ft__printf_8c.html#a1ee8ae8a80a7d9141ea5339af8565f2e" target="_top" xlink:title=" ">
<polygon fill="none" stroke="black" points="901,-107 901,-126 956,-126 956,-107 901,-107"/>
<text text-anchor="middle" x="928.5" y="-114" font-family="Helvetica,sans-Serif" font-size="10.00">ft_printf</text>
</a>
</g>
</g>
<!-- Node2&#45;&gt;Node3 -->
<g id="edge2" class="edge">
<title>Node2&#45;&gt;Node3</title>
<path fill="none" stroke="midnightblue" d="M981.86,-116.5C973.12,-116.5 964.13,-116.5 956.12,-116.5"/>
<polygon fill="midnightblue" stroke="midnightblue" points="981.94,-120 991.94,-116.5 981.94,-113 981.94,-120"/>
</g>
<!-- Node4 -->
<g id="node4" class="node">
<title>Node4</title>
<g id="a_node4"><a xlink:href="env_8c.html#ad7678c59b5365c776294bdeefd3d7583" target="_top" xlink:title=" ">
<polygon fill="none" stroke="black" points="829,-145 829,-164 864,-164 864,-145 829,-145"/>
<text text-anchor="middle" x="846.5" y="-152" font-family="Helvetica,sans-Serif" font-size="10.00">env</text>
</a>
</g>
</g>
<!-- Node3&#45;&gt;Node4 -->
<g id="edge3" class="edge">
<title>Node3&#45;&gt;Node4</title>
<path fill="none" stroke="midnightblue" d="M898.09,-130.47C886.66,-135.9 873.98,-141.92 864.17,-146.58"/>
<polygon fill="midnightblue" stroke="midnightblue" points="899.78,-133.54 907.31,-126.09 896.78,-127.22 899.78,-133.54"/>
</g>
<!-- Node5 -->
<g id="node5" class="node">
<title>Node5</title>
<g id="a_node5"><a xlink:href="execution_8c.html#a8b2bd9dba90bfc9b2ead44af5e630315" target="_top" xlink:title="launch the builtin">
<polygon fill="none" stroke="black" points="707,-107 707,-126 792,-126 792,-107 707,-107"/>
<text text-anchor="middle" x="749.5" y="-114" font-family="Helvetica,sans-Serif" font-size="10.00">launch_builtin</text>
</a>
</g>
</g>
<!-- Node3&#45;&gt;Node5 -->
<g id="edge14" class="edge">
<title>Node3&#45;&gt;Node5</title>
<path fill="none" stroke="midnightblue" d="M890.58,-116.5C861.86,-116.5 822.01,-116.5 792.15,-116.5"/>
<polygon fill="midnightblue" stroke="midnightblue" points="890.62,-120 900.62,-116.5 890.62,-113 890.62,-120"/>
</g>
<!-- Node13 -->
<g id="node13" class="node">
<title>Node13</title>
<g id="a_node13"><a xlink:href="pwd_8c.html#ab62618359287b6604bd60852145b9726" target="_top" xlink:title=" ">
<polygon fill="none" stroke="black" points="828,-69 828,-88 865,-88 865,-69 828,-69"/>
<text text-anchor="middle" x="846.5" y="-76" font-family="Helvetica,sans-Serif" font-size="10.00">pwd</text>
</a>
</g>
</g>
<!-- Node3&#45;&gt;Node13 -->
<g id="edge15" class="edge">
<title>Node3&#45;&gt;Node13</title>
<path fill="none" stroke="midnightblue" d="M898.02,-102.5C887.01,-97.27 874.86,-91.5 865.23,-86.92"/>
<polygon fill="midnightblue" stroke="midnightblue" points="896.78,-105.78 907.31,-106.91 899.78,-99.46 896.78,-105.78"/>
</g>
<!-- Node4&#45;&gt;Node5 -->
<g id="edge4" class="edge">
<title>Node4&#45;&gt;Node5</title>
<path fill="none" stroke="midnightblue" d="M819.36,-144.04C805.28,-138.41 788.04,-131.52 774.33,-126.03"/>
<polygon fill="midnightblue" stroke="midnightblue" points="818.37,-147.42 828.95,-147.88 820.97,-140.92 818.37,-147.42"/>
</g>
<!-- Node6 -->
<g id="node6" class="node">
<title>Node6</title>
<g id="a_node6"><a xlink:href="execution__node_8c.html#a6cfdc545c2222bbb0ca1dfc8431f72a3" target="_top" xlink:title=" ">
<polygon fill="none" stroke="black" points="578,-126 578,-145 671,-145 671,-126 578,-126"/>
<text text-anchor="middle" x="624.5" y="-133" font-family="Helvetica,sans-Serif" font-size="10.00">execution_node</text>
</a>
</g>
</g>
<!-- Node5&#45;&gt;Node6 -->
<g id="edge5" class="edge">
<title>Node5&#45;&gt;Node6</title>
<path fill="none" stroke="midnightblue" d="M696.73,-124.5C688.29,-125.8 679.61,-127.14 671.32,-128.42"/>
<polygon fill="midnightblue" stroke="midnightblue" points="697.51,-127.92 706.86,-122.93 696.44,-121 697.51,-127.92"/>
</g>
<!-- Node12 -->
<g id="node12" class="node">
<title>Node12</title>
<g id="a_node12"><a xlink:href="execution_8c.html#a4ef7db02a474eb1b198b2a25e1303118" target="_top" xlink:title=" ">
<polygon fill="none" stroke="black" points="254.5,-126 254.5,-145 343.5,-145 343.5,-126 254.5,-126"/>
<text text-anchor="middle" x="299" y="-133" font-family="Helvetica,sans-Serif" font-size="10.00">one_command</text>
</a>
</g>
</g>
<!-- Node5&#45;&gt;Node12 -->
<g id="edge13" class="edge">
<title>Node5&#45;&gt;Node12</title>
<path fill="none" stroke="midnightblue" d="M696.84,-113.86C631.03,-111.11 513.85,-108.24 414,-116.5 390.6,-118.44 364.78,-122.57 343.64,-126.49"/>
<polygon fill="midnightblue" stroke="midnightblue" points="696.81,-117.37 706.95,-114.3 697.11,-110.37 696.81,-117.37"/>
</g>
<!-- Node7 -->
<g id="node7" class="node">
<title>Node7</title>
<g id="a_node7"><a xlink:href="multipipe_8c.html#a43baea25481fdd02ce42e4d249f12353" target="_top" xlink:title=" ">
<polygon fill="none" stroke="black" points="436.5,-164 436.5,-183 519.5,-183 519.5,-164 436.5,-164"/>
<text text-anchor="middle" x="478" y="-171" font-family="Helvetica,sans-Serif" font-size="10.00">execute_child</text>
</a>
</g>
</g>
<!-- Node6&#45;&gt;Node7 -->
<g id="edge6" class="edge">
<title>Node6&#45;&gt;Node7</title>
<path fill="none" stroke="midnightblue" d="M577.17,-147.68C557.11,-152.96 533.97,-159.04 515.2,-163.98"/>
<polygon fill="midnightblue" stroke="midnightblue" points="578.26,-151.02 587.04,-145.09 576.48,-144.25 578.26,-151.02"/>
</g>
<!-- Node11 -->
<g id="node11" class="node">
<title>Node11</title>
<g id="a_node11"><a xlink:href="execution_8c.html#ac70faaedddc427b5051b808a8de40da4" target="_top" xlink:title=" ">
<polygon fill="none" stroke="black" points="414,-126 414,-145 542,-145 542,-126 414,-126"/>
<text text-anchor="middle" x="478" y="-133" font-family="Helvetica,sans-Serif" font-size="10.00">one_command_execve</text>
</a>
</g>
</g>
<!-- Node6&#45;&gt;Node11 -->
<g id="edge10" class="edge">
<title>Node6&#45;&gt;Node11</title>
<path fill="none" stroke="midnightblue" d="M567.74,-135.5C559.35,-135.5 550.65,-135.5 542.12,-135.5"/>
<polygon fill="midnightblue" stroke="midnightblue" points="567.78,-139 577.78,-135.5 567.78,-132 567.78,-139"/>
</g>
<!-- Node8 -->
<g id="node8" class="node">
<title>Node8</title>
<g id="a_node8"><a xlink:href="multipipe_8c.html#af32b88ab44b94650a0bb6f805f70a805" target="_top" xlink:title=" ">
<polygon fill="none" stroke="black" points="220,-164 220,-183 378,-183 378,-164 220,-164"/>
<text text-anchor="middle" x="299" y="-171" font-family="Helvetica,sans-Serif" font-size="10.00">multipipe_intermediary_cmd</text>
</a>
</g>
</g>
<!-- Node7&#45;&gt;Node8 -->
<g id="edge7" class="edge">
<title>Node7&#45;&gt;Node8</title>
<path fill="none" stroke="midnightblue" d="M426.29,-173.5C411.24,-173.5 394.4,-173.5 378.04,-173.5"/>
<polygon fill="midnightblue" stroke="midnightblue" points="426.39,-177 436.39,-173.5 426.39,-170 426.39,-177"/>
</g>
<!-- Node9 -->
<g id="node9" class="node">
<title>Node9</title>
<g id="a_node9"><a xlink:href="multipipe_8c.html#a3f78d597d08aaca5580b2c89f956a3a2" target="_top" xlink:title=" ">
<polygon fill="none" stroke="black" points="95,-164 95,-183 184,-183 184,-164 95,-164"/>
<text text-anchor="middle" x="139.5" y="-171" font-family="Helvetica,sans-Serif" font-size="10.00">multipipe_cmd</text>
</a>
</g>
</g>
<!-- Node8&#45;&gt;Node9 -->
<g id="edge8" class="edge">
<title>Node8&#45;&gt;Node9</title>
<path fill="none" stroke="midnightblue" d="M209.44,-173.5C200.73,-173.5 192.19,-173.5 184.24,-173.5"/>
<polygon fill="midnightblue" stroke="midnightblue" points="209.71,-177 219.71,-173.5 209.71,-170 209.71,-177"/>
</g>
<!-- Node10 -->
<g id="node10" class="node">
<title>Node10</title>
<g id="a_node10"><a xlink:href="execution_8c.html#a9dffeca3c2ff474e24c3e98ab856df76" target="_top" xlink:title=" ">
<polygon fill="none" stroke="black" points="0,-145 0,-164 59,-164 59,-145 0,-145"/>
<text text-anchor="middle" x="29.5" y="-152" font-family="Helvetica,sans-Serif" font-size="10.00">executor</text>
</a>
</g>
</g>
<!-- Node9&#45;&gt;Node10 -->
<g id="edge9" class="edge">
<title>Node9&#45;&gt;Node10</title>
<path fill="none" stroke="midnightblue" d="M84.88,-164.07C75.97,-162.5 67.05,-160.93 59.08,-159.53"/>
<polygon fill="midnightblue" stroke="midnightblue" points="84.43,-167.54 94.88,-165.83 85.64,-160.65 84.43,-167.54"/>
</g>
<!-- Node11&#45;&gt;Node12 -->
<g id="edge11" class="edge">
<title>Node11&#45;&gt;Node12</title>
<path fill="none" stroke="midnightblue" d="M403.4,-135.5C383.05,-135.5 361.62,-135.5 343.57,-135.5"/>
<polygon fill="midnightblue" stroke="midnightblue" points="403.6,-139 413.6,-135.5 403.6,-132 403.6,-139"/>
</g>
<!-- Node12&#45;&gt;Node10 -->
<g id="edge12" class="edge">
<title>Node12&#45;&gt;Node10</title>
<path fill="none" stroke="midnightblue" d="M244.37,-139.31C188.58,-143.27 103.35,-149.33 59.22,-152.46"/>
<polygon fill="midnightblue" stroke="midnightblue" points="244.7,-142.79 254.43,-138.59 244.2,-135.81 244.7,-142.79"/>
</g>
<!-- Node13&#45;&gt;Node5 -->
<g id="edge16" class="edge">
<title>Node13&#45;&gt;Node5</title>
<path fill="none" stroke="midnightblue" d="M818.14,-89.44C804.32,-94.97 787.69,-101.62 774.39,-106.94"/>
<polygon fill="midnightblue" stroke="midnightblue" points="819.65,-92.61 827.63,-85.65 817.05,-86.11 819.65,-92.61"/>
</g>
<!-- Node15 -->
<g id="node15" class="node">
<title>Node15</title>
<g id="a_node15"><a xlink:href="ft__printf__utils_8c.html#acad9757b0e67c243fd29ba1689b5ec3c" target="_top" xlink:title=" ">
<polygon fill="none" stroke="black" points="1107.5,-164 1107.5,-183 1181.5,-183 1181.5,-164 1107.5,-164"/>
<text text-anchor="middle" x="1144.5" y="-171" font-family="Helvetica,sans-Serif" font-size="10.00">ft_printf_ptr</text>
</a>
</g>
</g>
<!-- Node14&#45;&gt;Node15 -->
<g id="edge18" class="edge">
<title>Node14&#45;&gt;Node15</title>
<path fill="none" stroke="midnightblue" d="M1224.89,-173.5C1210.22,-173.5 1194.88,-173.5 1181.64,-173.5"/>
<polygon fill="midnightblue" stroke="midnightblue" points="1224.91,-177 1234.91,-173.5 1224.91,-170 1224.91,-177"/>
</g>
<!-- Node15&#45;&gt;Node2 -->
<g id="edge19" class="edge">
<title>Node15&#45;&gt;Node2</title>
<path fill="none" stroke="midnightblue" d="M1106.56,-160.35C1101.95,-158.49 1097.34,-156.52 1093,-154.5 1074.6,-145.92 1054.42,-134.24 1040.96,-126.1"/>
<polygon fill="midnightblue" stroke="midnightblue" points="1105.34,-163.63 1115.93,-164 1107.88,-157.11 1105.34,-163.63"/>
</g>
<!-- Node16&#45;&gt;Node2 -->
<g id="edge21" class="edge">
<title>Node16&#45;&gt;Node2</title>
<path fill="none" stroke="midnightblue" d="M1095.15,-127.72C1082.39,-125.66 1068.95,-123.5 1057.31,-121.62"/>
<polygon fill="midnightblue" stroke="midnightblue" points="1094.76,-131.2 1105.19,-129.33 1095.87,-124.29 1094.76,-131.2"/>
</g>
<!-- Node17&#45;&gt;Node2 -->
<g id="edge23" class="edge">
<title>Node17&#45;&gt;Node2</title>
<path fill="none" stroke="midnightblue" d="M1082.77,-107.28C1073.89,-108.71 1065.06,-110.13 1057.09,-111.41"/>
<polygon fill="midnightblue" stroke="midnightblue" points="1083.46,-110.71 1092.77,-105.67 1082.34,-103.8 1083.46,-110.71"/>
</g>
<!-- Node18&#45;&gt;Node2 -->
<g id="edge25" class="edge">
<title>Node18&#45;&gt;Node2</title>
<path fill="none" stroke="midnightblue" d="M1237.42,-58.85C1198.26,-59.51 1140.73,-63.41 1093,-78.5 1072.74,-84.91 1051.78,-97.88 1038.7,-106.87"/>
<polygon fill="midnightblue" stroke="midnightblue" points="1237.5,-62.35 1247.46,-58.75 1237.42,-55.35 1237.5,-62.35"/>
</g>
<!-- Node19&#45;&gt;Node2 -->
<g id="edge27" class="edge">
<title>Node19&#45;&gt;Node2</title>
<path fill="none" stroke="midnightblue" d="M1221.77,-20.67C1183.17,-25.83 1133.19,-36.1 1093,-56.5 1068.11,-69.13 1045.2,-93.2 1033.55,-106.7"/>
<polygon fill="midnightblue" stroke="midnightblue" points="1222.35,-24.12 1231.83,-19.4 1221.48,-17.18 1222.35,-24.12"/>
</g>
</g>
</svg>
