<?xml version="1.0" encoding="UTF-8" standalone="no"?>
<!DOCTYPE svg PUBLIC "-//W3C//DTD SVG 1.1//EN"
 "http://www.w3.org/Graphics/SVG/1.1/DTD/svg11.dtd">
<!-- Generated by graphviz version 2.43.0 (0)
 -->
<!-- Title: ft_putstr_fd Pages: 1 -->
<svg width="1005pt" height="151pt"
 viewBox="0.00 0.00 1005.00 151.00" xmlns="http://www.w3.org/2000/svg" xmlns:xlink="http://www.w3.org/1999/xlink">
<g id="graph0" class="graph" transform="scale(1 1) rotate(0) translate(4 147)">
<title>ft_putstr_fd</title>
<!-- Node1 -->
<g id="node1" class="node">
<title>Node1</title>
<g id="a_node1"><a xlink:title=" ">
<polygon fill="#bfbfbf" stroke="black" points="925,-66.5 925,-85.5 997,-85.5 997,-66.5 925,-66.5"/>
<text text-anchor="middle" x="961" y="-73.5" font-family="Helvetica,sans-Serif" font-size="10.00">ft_putstr_fd</text>
</a>
</g>
</g>
<!-- Node2 -->
<g id="node2" class="node">
<title>Node2</title>
<g id="a_node2"><a xlink:href="ft__putnbr__fd_8c.html#a63cc0aec12256d125d3f85e472280972" target="_top" xlink:title=" ">
<polygon fill="none" stroke="black" points="778.5,-123.5 778.5,-142.5 853.5,-142.5 853.5,-123.5 778.5,-123.5"/>
<text text-anchor="middle" x="816" y="-130.5" font-family="Helvetica,sans-Serif" font-size="10.00">ft_putnbr_fd</text>
</a>
</g>
</g>
<!-- Node1&#45;&gt;Node2 -->
<g id="edge1" class="edge">
<title>Node1&#45;&gt;Node2</title>
<path fill="none" stroke="midnightblue" d="M936.07,-90.62C922.61,-98.38 905.28,-107.6 889,-114 877.81,-118.4 865.25,-122.11 853.79,-125.05"/>
<polygon fill="midnightblue" stroke="midnightblue" points="937.86,-93.62 944.71,-85.54 934.32,-87.59 937.86,-93.62"/>
</g>
<!-- Node3 -->
<g id="node3" class="node">
<title>Node3</title>
<g id="a_node3"><a xlink:href="redirection__verification_8c.html#a95641b4885e9c0b07b477846c96c0d2f" target="_top" xlink:title=" ">
<polygon fill="none" stroke="black" points="767,-47.5 767,-66.5 865,-66.5 865,-47.5 767,-47.5"/>
<text text-anchor="middle" x="816" y="-54.5" font-family="Helvetica,sans-Serif" font-size="10.00">infile_redirection</text>
</a>
</g>
</g>
<!-- Node1&#45;&gt;Node3 -->
<g id="edge2" class="edge">
<title>Node1&#45;&gt;Node3</title>
<path fill="none" stroke="midnightblue" d="M914.62,-69.97C898.86,-67.88 881.13,-65.52 865.16,-63.4"/>
<polygon fill="midnightblue" stroke="midnightblue" points="914.28,-73.46 924.65,-71.3 915.2,-66.52 914.28,-73.46"/>
</g>
<!-- Node8 -->
<g id="node8" class="node">
<title>Node8</title>
<g id="a_node8"><a xlink:href="execution__node_8c.html#ac540c0b8810c3284e24fc47c3b4fab3b" target="_top" xlink:title=" ">
<polygon fill="none" stroke="black" points="771.5,-85.5 771.5,-104.5 860.5,-104.5 860.5,-85.5 771.5,-85.5"/>
<text text-anchor="middle" x="816" y="-92.5" font-family="Helvetica,sans-Serif" font-size="10.00">message_error</text>
</a>
</g>
</g>
<!-- Node1&#45;&gt;Node8 -->
<g id="edge8" class="edge">
<title>Node1&#45;&gt;Node8</title>
<path fill="none" stroke="midnightblue" d="M914.29,-82.07C897.1,-84.36 877.62,-86.95 860.63,-89.2"/>
<polygon fill="midnightblue" stroke="midnightblue" points="915.2,-85.48 924.65,-80.7 914.28,-78.54 915.2,-85.48"/>
</g>
<!-- Node13 -->
<g id="node13" class="node">
<title>Node13</title>
<g id="a_node13"><a xlink:href="redirection__verification_8c.html#ac61790fa82f2a9b6b904cd92135b6acb" target="_top" xlink:title=" ">
<polygon fill="none" stroke="black" points="743,-9.5 743,-28.5 889,-28.5 889,-9.5 743,-9.5"/>
<text text-anchor="middle" x="816" y="-16.5" font-family="Helvetica,sans-Serif" font-size="10.00">outfile_append_redirection</text>
</a>
</g>
</g>
<!-- Node1&#45;&gt;Node13 -->
<g id="edge15" class="edge">
<title>Node1&#45;&gt;Node13</title>
<path fill="none" stroke="midnightblue" d="M936.07,-61.38C922.61,-53.62 905.28,-44.4 889,-38 879.74,-34.36 869.53,-31.19 859.79,-28.53"/>
<polygon fill="midnightblue" stroke="midnightblue" points="934.32,-64.41 944.71,-66.46 937.86,-58.38 934.32,-64.41"/>
</g>
<!-- Node4 -->
<g id="node4" class="node">
<title>Node4</title>
<g id="a_node4"><a xlink:href="redirection__verification_8c.html#af9b05287627b76434ceb0070c5cb2c8a" target="_top" xlink:title=" ">
<polygon fill="none" stroke="black" points="578,-19.5 578,-38.5 707,-38.5 707,-19.5 578,-19.5"/>
<text text-anchor="middle" x="642.5" y="-26.5" font-family="Helvetica,sans-Serif" font-size="10.00">redirection_verification</text>
</a>
</g>
</g>
<!-- Node3&#45;&gt;Node4 -->
<g id="edge3" class="edge">
<title>Node3&#45;&gt;Node4</title>
<path fill="none" stroke="midnightblue" d="M756.57,-47.46C738.86,-44.57 719.41,-41.39 701.72,-38.5"/>
<polygon fill="midnightblue" stroke="midnightblue" points="756.34,-50.97 766.77,-49.13 757.47,-44.06 756.34,-50.97"/>
</g>
<!-- Node5 -->
<g id="node5" class="node">
<title>Node5</title>
<g id="a_node5"><a xlink:href="multipipe_8c.html#a3f78d597d08aaca5580b2c89f956a3a2" target="_top" xlink:title=" ">
<polygon fill="none" stroke="black" points="95,-38.5 95,-57.5 184,-57.5 184,-38.5 95,-38.5"/>
<text text-anchor="middle" x="139.5" y="-45.5" font-family="Helvetica,sans-Serif" font-size="10.00">multipipe_cmd</text>
</a>
</g>
</g>
<!-- Node4&#45;&gt;Node5 -->
<g id="edge4" class="edge">
<title>Node4&#45;&gt;Node5</title>
<path fill="none" stroke="midnightblue" d="M567.69,-32.84C559.03,-33.25 550.32,-33.65 542,-34 411.86,-39.54 257.93,-44.45 184.18,-46.7"/>
<polygon fill="midnightblue" stroke="midnightblue" points="567.99,-36.33 577.81,-32.35 567.65,-29.33 567.99,-36.33"/>
</g>
<!-- Node7 -->
<g id="node7" class="node">
<title>Node7</title>
<g id="a_node7"><a xlink:href="execution_8c.html#a4ef7db02a474eb1b198b2a25e1303118" target="_top" xlink:title=" ">
<polygon fill="none" stroke="black" points="254.5,-0.5 254.5,-19.5 343.5,-19.5 343.5,-0.5 254.5,-0.5"/>
<text text-anchor="middle" x="299" y="-7.5" font-family="Helvetica,sans-Serif" font-size="10.00">one_command</text>
</a>
</g>
</g>
<!-- Node4&#45;&gt;Node7 -->
<g id="edge6" class="edge">
<title>Node4&#45;&gt;Node7</title>
<path fill="none" stroke="midnightblue" d="M567.41,-24.88C499.15,-21.08 400.16,-15.57 343.73,-12.43"/>
<polygon fill="midnightblue" stroke="midnightblue" points="567.49,-28.39 577.67,-25.45 567.88,-21.4 567.49,-28.39"/>
</g>
<!-- Node6 -->
<g id="node6" class="node">
<title>Node6</title>
<g id="a_node6"><a xlink:href="execution_8c.html#a9dffeca3c2ff474e24c3e98ab856df76" target="_top" xlink:title=" ">
<polygon fill="none" stroke="black" points="0,-19.5 0,-38.5 59,-38.5 59,-19.5 0,-19.5"/>
<text text-anchor="middle" x="29.5" y="-26.5" font-family="Helvetica,sans-Serif" font-size="10.00">executor</text>
</a>
</g>
</g>
<!-- Node5&#45;&gt;Node6 -->
<g id="edge5" class="edge">
<title>Node5&#45;&gt;Node6</title>
<path fill="none" stroke="midnightblue" d="M84.88,-38.57C75.97,-37 67.05,-35.43 59.08,-34.03"/>
<polygon fill="midnightblue" stroke="midnightblue" points="84.43,-42.04 94.88,-40.33 85.64,-35.15 84.43,-42.04"/>
</g>
<!-- Node7&#45;&gt;Node6 -->
<g id="edge7" class="edge">
<title>Node7&#45;&gt;Node6</title>
<path fill="none" stroke="midnightblue" d="M244.37,-13.81C188.58,-17.77 103.35,-23.83 59.22,-26.96"/>
<polygon fill="midnightblue" stroke="midnightblue" points="244.7,-17.29 254.43,-13.09 244.2,-10.31 244.7,-17.29"/>
</g>
<!-- Node9 -->
<g id="node9" class="node">
<title>Node9</title>
<g id="a_node9"><a xlink:href="execution__node_8c.html#a6cfdc545c2222bbb0ca1dfc8431f72a3" target="_top" xlink:title=" ">
<polygon fill="none" stroke="black" points="596,-85.5 596,-104.5 689,-104.5 689,-85.5 596,-85.5"/>
<text text-anchor="middle" x="642.5" y="-92.5" font-family="Helvetica,sans-Serif" font-size="10.00">execution_node</text>
</a>
</g>
</g>
<!-- Node8&#45;&gt;Node9 -->
<g id="edge9" class="edge">
<title>Node8&#45;&gt;Node9</title>
<path fill="none" stroke="midnightblue" d="M761.28,-95C738.15,-95 711.4,-95 689.24,-95"/>
<polygon fill="midnightblue" stroke="midnightblue" points="761.28,-98.5 771.28,-95 761.28,-91.5 761.28,-98.5"/>
</g>
<!-- Node10 -->
<g id="node10" class="node">
<title>Node10</title>
<g id="a_node10"><a xlink:href="multipipe_8c.html#a43baea25481fdd02ce42e4d249f12353" target="_top" xlink:title=" ">
<polygon fill="none" stroke="black" points="436.5,-114.5 436.5,-133.5 519.5,-133.5 519.5,-114.5 436.5,-114.5"/>
<text text-anchor="middle" x="478" y="-121.5" font-family="Helvetica,sans-Serif" font-size="10.00">execute_child</text>
</a>
</g>
</g>
<!-- Node9&#45;&gt;Node10 -->
<g id="edge10" class="edge">
<title>Node9&#45;&gt;Node10</title>
<path fill="none" stroke="midnightblue" d="M585.72,-104.95C564.03,-108.83 539.63,-113.18 519.65,-116.75"/>
<polygon fill="midnightblue" stroke="midnightblue" points="586.57,-108.36 595.8,-103.16 585.34,-101.47 586.57,-108.36"/>
</g>
<!-- Node12 -->
<g id="node12" class="node">
<title>Node12</title>
<g id="a_node12"><a xlink:href="execution_8c.html#ac70faaedddc427b5051b808a8de40da4" target="_top" xlink:title=" ">
<polygon fill="none" stroke="black" points="414,-76.5 414,-95.5 542,-95.5 542,-76.5 414,-76.5"/>
<text text-anchor="middle" x="478" y="-83.5" font-family="Helvetica,sans-Serif" font-size="10.00">one_command_execve</text>
</a>
</g>
</g>
<!-- Node9&#45;&gt;Node12 -->
<g id="edge13" class="edge">
<title>Node9&#45;&gt;Node12</title>
<path fill="none" stroke="midnightblue" d="M585.81,-91.92C571.78,-91.14 556.61,-90.3 542.24,-89.5"/>
<polygon fill="midnightblue" stroke="midnightblue" points="585.62,-95.41 595.8,-92.47 586.01,-88.42 585.62,-95.41"/>
</g>
<!-- Node11 -->
<g id="node11" class="node">
<title>Node11</title>
<g id="a_node11"><a xlink:href="multipipe_8c.html#af32b88ab44b94650a0bb6f805f70a805" target="_top" xlink:title=" ">
<polygon fill="none" stroke="black" points="220,-95.5 220,-114.5 378,-114.5 378,-95.5 220,-95.5"/>
<text text-anchor="middle" x="299" y="-102.5" font-family="Helvetica,sans-Serif" font-size="10.00">multipipe_intermediary_cmd</text>
</a>
</g>
</g>
<!-- Node10&#45;&gt;Node11 -->
<g id="edge11" class="edge">
<title>Node10&#45;&gt;Node11</title>
<path fill="none" stroke="midnightblue" d="M426.29,-118.56C411.24,-116.94 394.4,-115.13 378.04,-113.38"/>
<polygon fill="midnightblue" stroke="midnightblue" points="426.08,-122.05 436.39,-119.64 426.82,-115.09 426.08,-122.05"/>
</g>
<!-- Node11&#45;&gt;Node5 -->
<g id="edge12" class="edge">
<title>Node11&#45;&gt;Node5</title>
<path fill="none" stroke="midnightblue" d="M261.9,-91.93C232.95,-81.46 192.99,-66.99 166.95,-57.57"/>
<polygon fill="midnightblue" stroke="midnightblue" points="261.04,-95.35 271.64,-95.46 263.43,-88.77 261.04,-95.35"/>
</g>
<!-- Node12&#45;&gt;Node7 -->
<g id="edge14" class="edge">
<title>Node12&#45;&gt;Node7</title>
<path fill="none" stroke="midnightblue" d="M445.17,-72.33C409.7,-57.1 353.26,-32.87 322.24,-19.55"/>
<polygon fill="midnightblue" stroke="midnightblue" points="444.01,-75.65 454.58,-76.37 446.77,-69.21 444.01,-75.65"/>
</g>
<!-- Node13&#45;&gt;Node4 -->
<g id="edge16" class="edge">
<title>Node13&#45;&gt;Node4</title>
<path fill="none" stroke="midnightblue" d="M732.74,-23.8C724.16,-24.3 715.54,-24.8 707.21,-25.28"/>
<polygon fill="midnightblue" stroke="midnightblue" points="732.99,-27.29 742.77,-23.21 732.58,-20.3 732.99,-27.29"/>
</g>
</g>
</svg>
