<?xml version="1.0" encoding="UTF-8" standalone="no"?>
<!DOCTYPE svg PUBLIC "-//W3C//DTD SVG 1.1//EN"
 "http://www.w3.org/Graphics/SVG/1.1/DTD/svg11.dtd">
<!-- Generated by graphviz version 2.43.0 (0)
 -->
<!-- Title: ft_putchar_fd Pages: 1 -->
<!--zoomable 199 -->
<svg id="main" version="1.1" xmlns="http://www.w3.org/2000/svg" xmlns:xlink="http://www.w3.org/1999/xlink" xml:space="preserve" onload="init(evt)">
<style type="text/css"><![CDATA[
.edge:hover path { stroke: red; }
.edge:hover polygon { stroke: red; fill: red; }
]]></style>
<script type="text/javascript"><![CDATA[
var edges = document.getElementsByTagName('g');
if (edges && edges.length) {
  for (var i=0;i<edges.length;i++) {
    if (edges[i].id.substr(0,4)=='edge') {
      edges[i].setAttribute('class','edge');
    }
  }
}
]]></script>
        <defs>
                <circle id="rim" cx="0" cy="0" r="7"/>
                <circle id="rim2" cx="0" cy="0" r="3.5"/>
                <g id="zoomPlus">
                        <use xlink:href="#rim" fill="#404040">
                                <set attributeName="fill" to="#808080" begin="zoomplus.mouseover" end="zoomplus.mouseout"/>
                        </use>
                        <path d="M-4,0h8M0,-4v8" fill="none" stroke="white" stroke-width="1.5" pointer-events="none"/>
                </g>
                <g id="zoomMin">
                        <use xlink:href="#rim" fill="#404040">
                                <set attributeName="fill" to="#808080" begin="zoomminus.mouseover" end="zoomminus.mouseout"/>
                        </use>
                        <path d="M-4,0h8" fill="none" stroke="white" stroke-width="1.5" pointer-events="none"/>
                </g>
                <g id="dirArrow">
                        <path fill="none" stroke="white" stroke-width="1.5" d="M0,-3.0v7 M-2.5,-0.5L0,-3.0L2.5,-0.5"/>
                </g>
               <g id="resetDef">
                       <use xlink:href="#rim2" fill="#404040">
                               <set attributeName="fill" to="#808080" begin="reset.mouseover" end="reset.mouseout"/>
                       </use>
               </g>
        </defs>

<script type="text/javascript">
var viewWidth = 1129;
var viewHeight = 199;
var sectionId = 'dynsection-1';
</script>
<script xlink:href="svgpan.js"/>
<svg id="graph" class="graph">
<g id="viewport">
<title>ft_putchar_fd</title>
<!-- Node1 -->
<g id="node1" class="node">
<title>Node1</title>
<g id="a_node1"><a xlink:title=" ">
<polygon fill="#bfbfbf" stroke="black" points="1041,-133.5 1041,-152.5 1121,-152.5 1121,-133.5 1041,-133.5"/>
<text text-anchor="middle" x="1081" y="-140.5" font-family="Helvetica,sans-Serif" font-size="10.00">ft_putchar_fd</text>
</a>
</g>
</g>
<!-- Node2 -->
<g id="node2" class="node">
<title>Node2</title>
<g id="a_node2"><a xlink:href="ft__putendl__fd_8c.html#aeb112152acfc553d58d61a5df38afcde" target="_top" xlink:title=" ">
<polygon fill="none" stroke="black" points="925,-171.5 925,-190.5 1005,-190.5 1005,-171.5 925,-171.5"/>
<text text-anchor="middle" x="965" y="-178.5" font-family="Helvetica,sans-Serif" font-size="10.00">ft_putendl_fd</text>
</a>
</g>
</g>
<!-- Node1&#45;&gt;Node2 -->
<g id="edge1" class="edge">
<title>Node1&#45;&gt;Node2</title>
<path fill="none" stroke="midnightblue" d="M1041.52,-155.83C1026.23,-160.92 1008.93,-166.69 994.76,-171.41"/>
<polygon fill="midnightblue" stroke="midnightblue" points="1042.85,-159.07 1051.23,-152.59 1040.64,-152.43 1042.85,-159.07"/>
</g>
<!-- Node3 -->
<g id="node3" class="node">
<title>Node3</title>
<g id="a_node3"><a xlink:href="ft__putnbr__fd_8c.html#a63cc0aec12256d125d3f85e472280972" target="_top" xlink:title=" ">
<polygon fill="none" stroke="black" points="778.5,-133.5 778.5,-152.5 853.5,-152.5 853.5,-133.5 778.5,-133.5"/>
<text text-anchor="middle" x="816" y="-140.5" font-family="Helvetica,sans-Serif" font-size="10.00">ft_putnbr_fd</text>
</a>
</g>
</g>
<!-- Node1&#45;&gt;Node3 -->
<g id="edge2" class="edge">
<title>Node1&#45;&gt;Node3</title>
<path fill="none" stroke="midnightblue" d="M1030.7,-143C979.3,-143 899.92,-143 853.76,-143"/>
<polygon fill="midnightblue" stroke="midnightblue" points="1030.91,-146.5 1040.91,-143 1030.91,-139.5 1030.91,-146.5"/>
</g>
<!-- Node4 -->
<g id="node4" class="node">
<title>Node4</title>
<g id="a_node4"><a xlink:href="ft__putstr__fd_8c.html#acefce9ac519f8f8b7d3fde33dbafe469" target="_top" xlink:title=" ">
<polygon fill="none" stroke="black" points="929,-95.5 929,-114.5 1001,-114.5 1001,-95.5 929,-95.5"/>
<text text-anchor="middle" x="965" y="-102.5" font-family="Helvetica,sans-Serif" font-size="10.00">ft_putstr_fd</text>
</a>
</g>
</g>
<!-- Node1&#45;&gt;Node4 -->
<g id="edge3" class="edge">
<title>Node1&#45;&gt;Node4</title>
<path fill="none" stroke="midnightblue" d="M1041.52,-130.17C1026.23,-125.08 1008.93,-119.31 994.76,-114.59"/>
<polygon fill="midnightblue" stroke="midnightblue" points="1040.64,-133.57 1051.23,-133.41 1042.85,-126.93 1040.64,-133.57"/>
</g>
<!-- Node4&#45;&gt;Node3 -->
<g id="edge4" class="edge">
<title>Node4&#45;&gt;Node3</title>
<path fill="none" stroke="midnightblue" d="M918.86,-116.67C897.96,-122.07 873.45,-128.41 853.72,-133.51"/>
<polygon fill="midnightblue" stroke="midnightblue" points="919.98,-119.99 928.79,-114.1 918.23,-113.22 919.98,-119.99"/>
</g>
<!-- Node5 -->
<g id="node5" class="node">
<title>Node5</title>
<g id="a_node5"><a xlink:href="redirection__verification_8c.html#a95641b4885e9c0b07b477846c96c0d2f" target="_top" xlink:title=" ">
<polygon fill="none" stroke="black" points="767,-95.5 767,-114.5 865,-114.5 865,-95.5 767,-95.5"/>
<text text-anchor="middle" x="816" y="-102.5" font-family="Helvetica,sans-Serif" font-size="10.00">infile_redirection</text>
</a>
</g>
</g>
<!-- Node4&#45;&gt;Node5 -->
<g id="edge5" class="edge">
<title>Node4&#45;&gt;Node5</title>
<path fill="none" stroke="midnightblue" d="M918.6,-105C901.68,-105 882.43,-105 865.26,-105"/>
<polygon fill="midnightblue" stroke="midnightblue" points="918.79,-108.5 928.79,-105 918.79,-101.5 918.79,-108.5"/>
</g>
<!-- Node10 -->
<g id="node10" class="node">
<title>Node10</title>
<g id="a_node10"><a xlink:href="execution__node_8c.html#ac540c0b8810c3284e24fc47c3b4fab3b" target="_top" xlink:title=" ">
<polygon fill="none" stroke="black" points="771.5,-19.5 771.5,-38.5 860.5,-38.5 860.5,-19.5 771.5,-19.5"/>
<text text-anchor="middle" x="816" y="-26.5" font-family="Helvetica,sans-Serif" font-size="10.00">message_error</text>
</a>
</g>
</g>
<!-- Node4&#45;&gt;Node10 -->
<g id="edge11" class="edge">
<title>Node4&#45;&gt;Node10</title>
<path fill="none" stroke="midnightblue" d="M946.58,-88.57C932.17,-75.8 910.62,-58.55 889,-48 880.17,-43.69 870.24,-40.27 860.63,-37.58"/>
<polygon fill="midnightblue" stroke="midnightblue" points="944.43,-91.34 954.18,-95.48 949.14,-86.16 944.43,-91.34"/>
</g>
<!-- Node15 -->
<g id="node15" class="node">
<title>Node15</title>
<g id="a_node15"><a xlink:href="redirection__verification_8c.html#ac61790fa82f2a9b6b904cd92135b6acb" target="_top" xlink:title=" ">
<polygon fill="none" stroke="black" points="743,-57.5 743,-76.5 889,-76.5 889,-57.5 743,-57.5"/>
<text text-anchor="middle" x="816" y="-64.5" font-family="Helvetica,sans-Serif" font-size="10.00">outfile_append_redirection</text>
</a>
</g>
</g>
<!-- Node4&#45;&gt;Node15 -->
<g id="edge18" class="edge">
<title>Node4&#45;&gt;Node15</title>
<path fill="none" stroke="midnightblue" d="M918.9,-93.34C898.08,-87.96 873.68,-81.65 853.97,-76.56"/>
<polygon fill="midnightblue" stroke="midnightblue" points="918.23,-96.78 928.79,-95.9 919.98,-90.01 918.23,-96.78"/>
</g>
<!-- Node6 -->
<g id="node6" class="node">
<title>Node6</title>
<g id="a_node6"><a xlink:href="redirection__verification_8c.html#af9b05287627b76434ceb0070c5cb2c8a" target="_top" xlink:title=" ">
<polygon fill="none" stroke="black" points="578,-85.5 578,-104.5 707,-104.5 707,-85.5 578,-85.5"/>
<text text-anchor="middle" x="642.5" y="-92.5" font-family="Helvetica,sans-Serif" font-size="10.00">redirection_verification</text>
</a>
</g>
</g>
<!-- Node5&#45;&gt;Node6 -->
<g id="edge6" class="edge">
<title>Node5&#45;&gt;Node6</title>
<path fill="none" stroke="midnightblue" d="M756.53,-101.59C740.6,-100.66 723.26,-99.65 707.06,-98.71"/>
<polygon fill="midnightblue" stroke="midnightblue" points="756.58,-105.1 766.77,-102.19 756.99,-98.11 756.58,-105.1"/>
</g>
<!-- Node7 -->
<g id="node7" class="node">
<title>Node7</title>
<g id="a_node7"><a xlink:href="multipipe_8c.html#a3f78d597d08aaca5580b2c89f956a3a2" target="_top" xlink:title=" ">
<polygon fill="none" stroke="black" points="95,-57.5 95,-76.5 184,-76.5 184,-57.5 95,-57.5"/>
<text text-anchor="middle" x="139.5" y="-64.5" font-family="Helvetica,sans-Serif" font-size="10.00">multipipe_cmd</text>
</a>
</g>
</g>
<!-- Node6&#45;&gt;Node7 -->
<g id="edge7" class="edge">
<title>Node6&#45;&gt;Node7</title>
<path fill="none" stroke="midnightblue" d="M567.96,-98.36C483.55,-101.08 341.13,-102.18 220,-86 204.67,-83.95 187.98,-80.2 173.87,-76.57"/>
<polygon fill="midnightblue" stroke="midnightblue" points="568.09,-101.86 577.97,-98.02 567.85,-94.86 568.09,-101.86"/>
</g>
<!-- Node9 -->
<g id="node9" class="node">
<title>Node9</title>
<g id="a_node9"><a xlink:href="execution_8c.html#a4ef7db02a474eb1b198b2a25e1303118" target="_top" xlink:title=" ">
<polygon fill="none" stroke="black" points="254.5,-19.5 254.5,-38.5 343.5,-38.5 343.5,-19.5 254.5,-19.5"/>
<text text-anchor="middle" x="299" y="-26.5" font-family="Helvetica,sans-Serif" font-size="10.00">one_command</text>
</a>
</g>
</g>
<!-- Node6&#45;&gt;Node9 -->
<g id="edge9" class="edge">
<title>Node6&#45;&gt;Node9</title>
<path fill="none" stroke="midnightblue" d="M567.89,-92.69C522.64,-89.63 463.95,-82.67 414,-67 396.74,-61.58 394.92,-54.41 378,-48 367.18,-43.9 355.18,-40.46 343.9,-37.69"/>
<polygon fill="midnightblue" stroke="midnightblue" points="567.72,-96.19 577.92,-93.32 568.16,-89.2 567.72,-96.19"/>
</g>
<!-- Node8 -->
<g id="node8" class="node">
<title>Node8</title>
<g id="a_node8"><a xlink:href="execution_8c.html#a9dffeca3c2ff474e24c3e98ab856df76" target="_top" xlink:title=" ">
<polygon fill="none" stroke="black" points="0,-38.5 0,-57.5 59,-57.5 59,-38.5 0,-38.5"/>
<text text-anchor="middle" x="29.5" y="-45.5" font-family="Helvetica,sans-Serif" font-size="10.00">executor</text>
</a>
</g>
</g>
<!-- Node7&#45;&gt;Node8 -->
<g id="edge8" class="edge">
<title>Node7&#45;&gt;Node8</title>
<path fill="none" stroke="midnightblue" d="M84.88,-57.57C75.97,-56 67.05,-54.43 59.08,-53.03"/>
<polygon fill="midnightblue" stroke="midnightblue" points="84.43,-61.04 94.88,-59.33 85.64,-54.15 84.43,-61.04"/>
</g>
<!-- Node9&#45;&gt;Node8 -->
<g id="edge10" class="edge">
<title>Node9&#45;&gt;Node8</title>
<path fill="none" stroke="midnightblue" d="M244.37,-32.81C188.58,-36.77 103.35,-42.83 59.22,-45.96"/>
<polygon fill="midnightblue" stroke="midnightblue" points="244.7,-36.29 254.43,-32.09 244.2,-29.31 244.7,-36.29"/>
</g>
<!-- Node11 -->
<g id="node11" class="node">
<title>Node11</title>
<g id="a_node11"><a xlink:href="execution__node_8c.html#a6cfdc545c2222bbb0ca1dfc8431f72a3" target="_top" xlink:title=" ">
<polygon fill="none" stroke="black" points="596,-19.5 596,-38.5 689,-38.5 689,-19.5 596,-19.5"/>
<text text-anchor="middle" x="642.5" y="-26.5" font-family="Helvetica,sans-Serif" font-size="10.00">execution_node</text>
</a>
</g>
</g>
<!-- Node10&#45;&gt;Node11 -->
<g id="edge12" class="edge">
<title>Node10&#45;&gt;Node11</title>
<path fill="none" stroke="midnightblue" d="M761.28,-29C738.15,-29 711.4,-29 689.24,-29"/>
<polygon fill="midnightblue" stroke="midnightblue" points="761.28,-32.5 771.28,-29 761.28,-25.5 761.28,-32.5"/>
</g>
<!-- Node12 -->
<g id="node12" class="node">
<title>Node12</title>
<g id="a_node12"><a xlink:href="multipipe_8c.html#a43baea25481fdd02ce42e4d249f12353" target="_top" xlink:title=" ">
<polygon fill="none" stroke="black" points="436.5,-38.5 436.5,-57.5 519.5,-57.5 519.5,-38.5 436.5,-38.5"/>
<text text-anchor="middle" x="478" y="-45.5" font-family="Helvetica,sans-Serif" font-size="10.00">execute_child</text>
</a>
</g>
</g>
<!-- Node11&#45;&gt;Node12 -->
<g id="edge13" class="edge">
<title>Node11&#45;&gt;Node12</title>
<path fill="none" stroke="midnightblue" d="M585.72,-35.52C564.03,-38.06 539.63,-40.91 519.65,-43.25"/>
<polygon fill="midnightblue" stroke="midnightblue" points="586.28,-38.98 595.8,-34.34 585.46,-32.03 586.28,-38.98"/>
</g>
<!-- Node14 -->
<g id="node14" class="node">
<title>Node14</title>
<g id="a_node14"><a xlink:href="execution_8c.html#ac70faaedddc427b5051b808a8de40da4" target="_top" xlink:title=" ">
<polygon fill="none" stroke="black" points="414,-0.5 414,-19.5 542,-19.5 542,-0.5 414,-0.5"/>
<text text-anchor="middle" x="478" y="-7.5" font-family="Helvetica,sans-Serif" font-size="10.00">one_command_execve</text>
</a>
</g>
</g>
<!-- Node11&#45;&gt;Node14 -->
<g id="edge16" class="edge">
<title>Node11&#45;&gt;Node14</title>
<path fill="none" stroke="midnightblue" d="M585.81,-22.49C571.78,-20.85 556.61,-19.07 542.24,-17.39"/>
<polygon fill="midnightblue" stroke="midnightblue" points="585.46,-25.97 595.8,-23.66 586.28,-19.02 585.46,-25.97"/>
</g>
<!-- Node13 -->
<g id="node13" class="node">
<title>Node13</title>
<g id="a_node13"><a xlink:href="multipipe_8c.html#af32b88ab44b94650a0bb6f805f70a805" target="_top" xlink:title=" ">
<polygon fill="none" stroke="black" points="220,-57.5 220,-76.5 378,-76.5 378,-57.5 220,-57.5"/>
<text text-anchor="middle" x="299" y="-64.5" font-family="Helvetica,sans-Serif" font-size="10.00">multipipe_intermediary_cmd</text>
</a>
</g>
</g>
<!-- Node12&#45;&gt;Node13 -->
<g id="edge14" class="edge">
<title>Node12&#45;&gt;Node13</title>
<path fill="none" stroke="midnightblue" d="M426.29,-53.44C411.24,-55.06 394.4,-56.87 378.04,-58.62"/>
<polygon fill="midnightblue" stroke="midnightblue" points="426.82,-56.91 436.39,-52.36 426.08,-49.95 426.82,-56.91"/>
</g>
<!-- Node13&#45;&gt;Node7 -->
<g id="edge15" class="edge">
<title>Node13&#45;&gt;Node7</title>
<path fill="none" stroke="midnightblue" d="M209.44,-67C200.73,-67 192.19,-67 184.24,-67"/>
<polygon fill="midnightblue" stroke="midnightblue" points="209.71,-70.5 219.71,-67 209.71,-63.5 209.71,-70.5"/>
</g>
<!-- Node14&#45;&gt;Node9 -->
<g id="edge17" class="edge">
<title>Node14&#45;&gt;Node9</title>
<path fill="none" stroke="midnightblue" d="M403.4,-17.9C383.05,-20.09 361.62,-22.39 343.57,-24.32"/>
<polygon fill="midnightblue" stroke="midnightblue" points="404.03,-21.35 413.6,-16.81 403.28,-14.39 404.03,-21.35"/>
</g>
<!-- Node15&#45;&gt;Node6 -->
<g id="edge19" class="edge">
<title>Node15&#45;&gt;Node6</title>
<path fill="none" stroke="midnightblue" d="M746.37,-78.21C731.59,-80.62 716.11,-83.14 701.78,-85.49"/>
<polygon fill="midnightblue" stroke="midnightblue" points="747.15,-81.62 756.46,-76.56 746.03,-74.71 747.15,-81.62"/>
</g>
</g>
</svg>
        <g id="navigator" transform="translate(0 0)" fill="#404254">
                <rect fill="#f2f5e9" fill-opacity="0.5" stroke="#606060" stroke-width=".5" x="0" y="0" width="60" height="60"/>
                <use id="zoomplus" xlink:href="#zoomPlus" x="17" y="9" onmousedown="handleZoom(evt,'in')"/>
                <use id="zoomminus" xlink:href="#zoomMin" x="42" y="9" onmousedown="handleZoom(evt,'out')"/>
                <use id="reset" xlink:href="#resetDef" x="30" y="36" onmousedown="handleReset()"/>
                <g id="arrowUp" xlink:href="#dirArrow" transform="translate(30 24)" onmousedown="handlePan(0,-1)">
                  <use xlink:href="#rim" fill="#404040">
                        <set attributeName="fill" to="#808080" begin="arrowUp.mouseover" end="arrowUp.mouseout"/>
                  </use>
                  <path fill="none" stroke="white" stroke-width="1.5" d="M0,-3.0v7 M-2.5,-0.5L0,-3.0L2.5,-0.5"/>
                </g>
                <g id="arrowRight" xlink:href="#dirArrow" transform="rotate(90) translate(36 -43)" onmousedown="handlePan(1,0)">
                  <use xlink:href="#rim" fill="#404040">
                        <set attributeName="fill" to="#808080" begin="arrowRight.mouseover" end="arrowRight.mouseout"/>
                  </use>
                  <path fill="none" stroke="white" stroke-width="1.5" d="M0,-3.0v7 M-2.5,-0.5L0,-3.0L2.5,-0.5"/>
                </g>
                <g id="arrowDown" xlink:href="#dirArrow" transform="rotate(180) translate(-30 -48)" onmousedown="handlePan(0,1)">
                  <use xlink:href="#rim" fill="#404040">
                        <set attributeName="fill" to="#808080" begin="arrowDown.mouseover" end="arrowDown.mouseout"/>
                  </use>
                  <path fill="none" stroke="white" stroke-width="1.5" d="M0,-3.0v7 M-2.5,-0.5L0,-3.0L2.5,-0.5"/>
                </g>
                <g id="arrowLeft" xlink:href="#dirArrow" transform="rotate(270) translate(-36 17)" onmousedown="handlePan(-1,0)">
                  <use xlink:href="#rim" fill="#404040">
                        <set attributeName="fill" to="#808080" begin="arrowLeft.mouseover" end="arrowLeft.mouseout"/>
                  </use>
                  <path fill="none" stroke="white" stroke-width="1.5" d="M0,-3.0v7 M-2.5,-0.5L0,-3.0L2.5,-0.5"/>
                </g>
        </g>
        <svg viewBox="0 0 15 15" width="100%" height="30px" preserveAspectRatio="xMaxYMin meet">
         <g id="arrow_out" transform="scale(0.3 0.3)">
          <a xlink:href="ft__putchar__fd_8c_a8ee15a511946c1397bd2bdea4aed6aee_icgraph_org.svg" target="_base">
           <rect id="button" ry="5" rx="5" y="6" x="6" height="38" width="38"
                fill="#f2f5e9" fill-opacity="0.5" stroke="#606060" stroke-width="1.0"/>
           <path id="arrow"
             d="M 11.500037,31.436501 C 11.940474,20.09759 22.043105,11.32322 32.158766,21.979434 L 37.068811,17.246167 C 37.068811,17.246167 37.088388,32 37.088388,32 L 22.160133,31.978069 C 22.160133,31.978069 26.997745,27.140456 26.997745,27.140456 C 18.528582,18.264221 13.291696,25.230495 11.500037,31.436501 z"
             style="fill:#404040;"/>
          </a>
         </g>
        </svg>
</svg>
