<?xml version="1.0" encoding="UTF-8" standalone="no"?>
<!DOCTYPE svg PUBLIC "-//W3C//DTD SVG 1.1//EN"
 "http://www.w3.org/Graphics/SVG/1.1/DTD/svg11.dtd">
<!-- Generated by graphviz version 2.43.0 (0)
 -->
<!-- Title: ft_isdigit Pages: 1 -->
<svg width="171pt" height="66pt"
 viewBox="0.00 0.00 171.00 66.00" xmlns="http://www.w3.org/2000/svg" xmlns:xlink="http://www.w3.org/1999/xlink">
<g id="graph0" class="graph" transform="scale(1 1) rotate(0) translate(4 62)">
<title>ft_isdigit</title>
<!-- Node1 -->
<g id="node1" class="node">
<title>Node1</title>
<g id="a_node1"><a xlink:title=" ">
<polygon fill="#bfbfbf" stroke="black" points="104,-19.5 104,-38.5 163,-38.5 163,-19.5 104,-19.5"/>
<text text-anchor="middle" x="133.5" y="-26.5" font-family="Helvetica,sans-Serif" font-size="10.00">ft_isdigit</text>
</a>
</g>
</g>
<!-- Node2 -->
<g id="node2" class="node">
<title>Node2</title>
<g id="a_node2"><a xlink:href="ft__atoi_8c.html#add42b4526258474611c3a359785f84eb" target="_top" xlink:title=" ">
<polygon fill="none" stroke="black" points="10.5,-38.5 10.5,-57.5 57.5,-57.5 57.5,-38.5 10.5,-38.5"/>
<text text-anchor="middle" x="34" y="-45.5" font-family="Helvetica,sans-Serif" font-size="10.00">ft_atoi</text>
</a>
</g>
</g>
<!-- Node1&#45;&gt;Node2 -->
<g id="edge1" class="edge">
<title>Node1&#45;&gt;Node2</title>
<path fill="none" stroke="midnightblue" d="M93.76,-36.55C81.52,-38.94 68.39,-41.49 57.65,-43.59"/>
<polygon fill="midnightblue" stroke="midnightblue" points="94.63,-39.95 103.77,-34.6 93.29,-33.08 94.63,-39.95"/>
</g>
<!-- Node3 -->
<g id="node3" class="node">
<title>Node3</title>
<g id="a_node3"><a xlink:href="ft__isalnum_8c.html#a9c2c3821ea43ebdf97de07b123503f8b" target="_top" xlink:title=" ">
<polygon fill="none" stroke="black" points="0,-0.5 0,-19.5 68,-19.5 68,-0.5 0,-0.5"/>
<text text-anchor="middle" x="34" y="-7.5" font-family="Helvetica,sans-Serif" font-size="10.00">ft_isalnum</text>
</a>
</g>
</g>
<!-- Node1&#45;&gt;Node3 -->
<g id="edge2" class="edge">
<title>Node1&#45;&gt;Node3</title>
<path fill="none" stroke="midnightblue" d="M93.78,-21.45C85.36,-19.81 76.52,-18.09 68.32,-16.49"/>
<polygon fill="midnightblue" stroke="midnightblue" points="93.29,-24.92 103.77,-23.4 94.63,-18.05 93.29,-24.92"/>
</g>
</g>
</svg>
