<?xml version="1.0" encoding="UTF-8" standalone="no"?>
<!DOCTYPE svg PUBLIC "-//W3C//DTD SVG 1.1//EN"
 "http://www.w3.org/Graphics/SVG/1.1/DTD/svg11.dtd">
<!-- Generated by graphviz version 2.43.0 (0)
 -->
<!-- Title: ft_convert Pages: 1 -->
<svg width="469pt" height="221pt"
 viewBox="0.00 0.00 469.00 221.09" xmlns="http://www.w3.org/2000/svg" xmlns:xlink="http://www.w3.org/1999/xlink">
<g id="graph0" class="graph" transform="scale(1 1) rotate(0) translate(4 217.09)">
<title>ft_convert</title>
<!-- Node1 -->
<g id="node1" class="node">
<title>Node1</title>
<g id="a_node1"><a xlink:title=" ">
<polygon fill="#bfbfbf" stroke="black" points="0,-107 0,-126 65,-126 65,-107 0,-107"/>
<text text-anchor="middle" x="32.5" y="-114" font-family="Helvetica,sans-Serif" font-size="10.00">ft_convert</text>
</a>
</g>
</g>
<!-- Node2 -->
<g id="node2" class="node">
<title>Node2</title>
<g id="a_node2"><a xlink:href="ft__printf_8c.html#a39d98b19c2583fcd34e4df5eb8ae467f" target="_top" xlink:title=" ">
<polygon fill="none" stroke="black" points="380,-107 380,-126 461,-126 461,-107 380,-107"/>
<text text-anchor="middle" x="420.5" y="-114" font-family="Helvetica,sans-Serif" font-size="10.00">ft_printf_char</text>
</a>
</g>
</g>
<!-- Node1&#45;&gt;Node2 -->
<g id="edge1" class="edge">
<title>Node1&#45;&gt;Node2</title>
<path fill="none" stroke="midnightblue" d="M44.64,-126.12C57.4,-136.64 79.36,-153.23 101,-162.5 201.03,-205.34 243.53,-234.31 344,-192.5 372.06,-180.82 395.06,-153.09 408.02,-134.56"/>
<polygon fill="midnightblue" stroke="midnightblue" points="411.05,-136.33 413.71,-126.07 405.24,-132.43 411.05,-136.33"/>
</g>
<!-- Node3 -->
<g id="node3" class="node">
<title>Node3</title>
<g id="a_node3"><a xlink:href="ft__printf__utils_8c.html#a16bac9a6336719688a85c2939b833d7f" target="_top" xlink:title=" ">
<polygon fill="none" stroke="black" points="253.5,-164 253.5,-183 331.5,-183 331.5,-164 253.5,-164"/>
<text text-anchor="middle" x="292.5" y="-171" font-family="Helvetica,sans-Serif" font-size="10.00">ft_printf_hex</text>
</a>
</g>
</g>
<!-- Node1&#45;&gt;Node3 -->
<g id="edge2" class="edge">
<title>Node1&#45;&gt;Node3</title>
<path fill="none" stroke="midnightblue" d="M60.19,-126.11C72.51,-130.31 87.38,-135.05 101,-138.5 148.87,-150.64 204.52,-160.37 243.26,-166.46"/>
<polygon fill="midnightblue" stroke="midnightblue" points="242.81,-169.93 253.23,-168.01 243.88,-163.02 242.81,-169.93"/>
</g>
<!-- Node4 -->
<g id="node4" class="node">
<title>Node4</title>
<g id="a_node4"><a xlink:href="ft__printf__utils_8c.html#a2d77d52ca67555dea62a8fdab36a78ed" target="_top" xlink:title=" ">
<polygon fill="none" stroke="black" points="241,-126 241,-145 344,-145 344,-126 241,-126"/>
<text text-anchor="middle" x="292.5" y="-133" font-family="Helvetica,sans-Serif" font-size="10.00">ft_printf_numbers</text>
</a>
</g>
</g>
<!-- Node1&#45;&gt;Node4 -->
<g id="edge4" class="edge">
<title>Node1&#45;&gt;Node4</title>
<path fill="none" stroke="midnightblue" d="M65.14,-118.83C106.26,-121.86 178.95,-127.21 230.86,-131.03"/>
<polygon fill="midnightblue" stroke="midnightblue" points="230.72,-134.53 240.95,-131.78 231.23,-127.55 230.72,-134.53"/>
</g>
<!-- Node5 -->
<g id="node5" class="node">
<title>Node5</title>
<g id="a_node5"><a xlink:href="ft__printf__utils_8c.html#acad9757b0e67c243fd29ba1689b5ec3c" target="_top" xlink:title=" ">
<polygon fill="none" stroke="black" points="116,-88 116,-107 190,-107 190,-88 116,-88"/>
<text text-anchor="middle" x="153" y="-95" font-family="Helvetica,sans-Serif" font-size="10.00">ft_printf_ptr</text>
</a>
</g>
</g>
<!-- Node1&#45;&gt;Node5 -->
<g id="edge6" class="edge">
<title>Node1&#45;&gt;Node5</title>
<path fill="none" stroke="midnightblue" d="M65.26,-111.41C77.71,-109.41 92.25,-107.08 105.83,-104.9"/>
<polygon fill="midnightblue" stroke="midnightblue" points="106.65,-108.32 115.97,-103.28 105.54,-101.4 106.65,-108.32"/>
</g>
<!-- Node7 -->
<g id="node7" class="node">
<title>Node7</title>
<g id="a_node7"><a xlink:href="ft__printf_8c.html#a6f196c1c438363973a4b649e86ce0d17" target="_top" xlink:title=" ">
<polygon fill="none" stroke="black" points="116.5,-50 116.5,-69 189.5,-69 189.5,-50 116.5,-50"/>
<text text-anchor="middle" x="153" y="-57" font-family="Helvetica,sans-Serif" font-size="10.00">ft_printf_str</text>
</a>
</g>
</g>
<!-- Node1&#45;&gt;Node7 -->
<g id="edge9" class="edge">
<title>Node1&#45;&gt;Node7</title>
<path fill="none" stroke="midnightblue" d="M48.96,-106.88C62.41,-98.74 82.58,-87.05 101,-78.5 105.33,-76.49 109.93,-74.54 114.53,-72.69"/>
<polygon fill="midnightblue" stroke="midnightblue" points="115.82,-75.95 123.88,-69.08 113.29,-69.42 115.82,-75.95"/>
</g>
<!-- Node8 -->
<g id="node8" class="node">
<title>Node8</title>
<g id="a_node8"><a xlink:href="ft__printf__utils_8c.html#a6111b0290c61676c28ad6df27a8ed60f" target="_top" xlink:title=" ">
<polygon fill="none" stroke="black" points="101,-0.5 101,-30.5 205,-30.5 205,-0.5 101,-0.5"/>
<text text-anchor="start" x="109" y="-18.5" font-family="Helvetica,sans-Serif" font-size="10.00">ft_printf_unsigned</text>
<text text-anchor="middle" x="153" y="-7.5" font-family="Helvetica,sans-Serif" font-size="10.00">_numbers</text>
</a>
</g>
</g>
<!-- Node1&#45;&gt;Node8 -->
<g id="edge11" class="edge">
<title>Node1&#45;&gt;Node8</title>
<path fill="none" stroke="midnightblue" d="M40.38,-106.51C51.59,-90.82 75.15,-60.16 101,-40.5 103.09,-38.91 105.31,-37.37 107.59,-35.91"/>
<polygon fill="midnightblue" stroke="midnightblue" points="109.8,-38.67 116.64,-30.58 106.25,-32.64 109.8,-38.67"/>
</g>
<!-- Node3&#45;&gt;Node2 -->
<g id="edge3" class="edge">
<title>Node3&#45;&gt;Node2</title>
<path fill="none" stroke="midnightblue" d="M320.45,-163.97C328.12,-161.09 336.45,-157.81 344,-154.5 360.38,-147.32 378.28,-138.36 392.53,-130.95"/>
<polygon fill="midnightblue" stroke="midnightblue" points="394.53,-133.85 401.76,-126.11 391.28,-127.66 394.53,-133.85"/>
</g>
<!-- Node4&#45;&gt;Node2 -->
<g id="edge5" class="edge">
<title>Node4&#45;&gt;Node2</title>
<path fill="none" stroke="midnightblue" d="M344.02,-127.88C352.49,-126.6 361.28,-125.28 369.73,-124.01"/>
<polygon fill="midnightblue" stroke="midnightblue" points="370.46,-127.43 379.82,-122.48 369.41,-120.51 370.46,-127.43"/>
</g>
<!-- Node6 -->
<g id="node6" class="node">
<title>Node6</title>
<g id="a_node6"><a xlink:href="ft__printf__utils_8c.html#a35c61f40b8c860fab15b36f75334e619" target="_top" xlink:title=" ">
<polygon fill="none" stroke="black" points="243.5,-88 243.5,-107 341.5,-107 341.5,-88 243.5,-88"/>
<text text-anchor="middle" x="292.5" y="-95" font-family="Helvetica,sans-Serif" font-size="10.00">ft_printf_address</text>
</a>
</g>
</g>
<!-- Node5&#45;&gt;Node6 -->
<g id="edge7" class="edge">
<title>Node5&#45;&gt;Node6</title>
<path fill="none" stroke="midnightblue" d="M190.13,-97.5C203.38,-97.5 218.74,-97.5 233.43,-97.5"/>
<polygon fill="midnightblue" stroke="midnightblue" points="233.46,-101 243.46,-97.5 233.46,-94 233.46,-101"/>
</g>
<!-- Node6&#45;&gt;Node2 -->
<g id="edge8" class="edge">
<title>Node6&#45;&gt;Node2</title>
<path fill="none" stroke="midnightblue" d="M341.85,-104.79C350.93,-106.16 360.44,-107.59 369.56,-108.97"/>
<polygon fill="midnightblue" stroke="midnightblue" points="369.24,-112.46 379.65,-110.49 370.29,-105.54 369.24,-112.46"/>
</g>
<!-- Node7&#45;&gt;Node2 -->
<g id="edge10" class="edge">
<title>Node7&#45;&gt;Node2</title>
<path fill="none" stroke="midnightblue" d="M189.75,-59.22C228.5,-59.79 291.8,-63.32 344,-78.5 362.26,-83.81 381.39,-93.48 395.82,-101.74"/>
<polygon fill="midnightblue" stroke="midnightblue" points="394.17,-104.84 404.57,-106.9 397.73,-98.81 394.17,-104.84"/>
</g>
<!-- Node8&#45;&gt;Node2 -->
<g id="edge12" class="edge">
<title>Node8&#45;&gt;Node2</title>
<path fill="none" stroke="midnightblue" d="M205.19,-20.56C244.62,-25.92 299.69,-36.62 344,-57.5 366.39,-68.05 388.26,-86.27 402.65,-99.68"/>
<polygon fill="midnightblue" stroke="midnightblue" points="400.56,-102.53 410.2,-106.92 405.41,-97.47 400.56,-102.53"/>
</g>
</g>
</svg>
