<?xml version="1.0" encoding="UTF-8" standalone="no"?>
<!DOCTYPE svg PUBLIC "-//W3C//DTD SVG 1.1//EN"
 "http://www.w3.org/Graphics/SVG/1.1/DTD/svg11.dtd">
<!-- Generated by graphviz version 2.43.0 (0)
 -->
<!-- Title: ft_putnbr_fd Pages: 1 -->
<svg width="307pt" height="47pt"
 viewBox="0.00 0.00 307.00 47.00" xmlns="http://www.w3.org/2000/svg" xmlns:xlink="http://www.w3.org/1999/xlink">
<g id="graph0" class="graph" transform="scale(1 1) rotate(0) translate(4 43)">
<title>ft_putnbr_fd</title>
<!-- Node1 -->
<g id="node1" class="node">
<title>Node1</title>
<g id="a_node1"><a xlink:title=" ">
<polygon fill="#bfbfbf" stroke="black" points="0,-19.5 0,-38.5 75,-38.5 75,-19.5 0,-19.5"/>
<text text-anchor="middle" x="37.5" y="-26.5" font-family="Helvetica,sans-Serif" font-size="10.00">ft_putnbr_fd</text>
</a>
</g>
</g>
<!-- Node2 -->
<g id="node2" class="node">
<title>Node2</title>
<g id="a_node2"><a xlink:href="ft__putchar__fd_8c.html#a8ee15a511946c1397bd2bdea4aed6aee" target="_top" xlink:title=" ">
<polygon fill="none" stroke="black" points="219,-19.5 219,-38.5 299,-38.5 299,-19.5 219,-19.5"/>
<text text-anchor="middle" x="259" y="-26.5" font-family="Helvetica,sans-Serif" font-size="10.00">ft_putchar_fd</text>
</a>
</g>
</g>
<!-- Node1&#45;&gt;Node2 -->
<g id="edge1" class="edge">
<title>Node1&#45;&gt;Node2</title>
<path fill="none" stroke="midnightblue" d="M75.24,-29C111.84,-29 168.27,-29 208.74,-29"/>
<polygon fill="midnightblue" stroke="midnightblue" points="208.92,-32.5 218.92,-29 208.92,-25.5 208.92,-32.5"/>
</g>
<!-- Node3 -->
<g id="node3" class="node">
<title>Node3</title>
<g id="a_node3"><a xlink:href="ft__putstr__fd_8c.html#acefce9ac519f8f8b7d3fde33dbafe469" target="_top" xlink:title=" ">
<polygon fill="none" stroke="black" points="111,-0.5 111,-19.5 183,-19.5 183,-0.5 111,-0.5"/>
<text text-anchor="middle" x="147" y="-7.5" font-family="Helvetica,sans-Serif" font-size="10.00">ft_putstr_fd</text>
</a>
</g>
</g>
<!-- Node1&#45;&gt;Node3 -->
<g id="edge2" class="edge">
<title>Node1&#45;&gt;Node3</title>
<path fill="none" stroke="midnightblue" d="M75.19,-22.51C83.5,-21.05 92.41,-19.47 101.02,-17.95"/>
<polygon fill="midnightblue" stroke="midnightblue" points="101.68,-21.39 110.92,-16.2 100.47,-14.49 101.68,-21.39"/>
</g>
<!-- Node3&#45;&gt;Node2 -->
<g id="edge3" class="edge">
<title>Node3&#45;&gt;Node2</title>
<path fill="none" stroke="midnightblue" d="M183.11,-16.06C191.24,-17.47 200.05,-18.99 208.67,-20.48"/>
<polygon fill="midnightblue" stroke="midnightblue" points="208.19,-23.95 218.64,-22.2 209.39,-17.05 208.19,-23.95"/>
</g>
</g>
</svg>
