<?xml version="1.0" encoding="UTF-8" standalone="no"?>
<!DOCTYPE svg PUBLIC "-//W3C//DTD SVG 1.1//EN"
 "http://www.w3.org/Graphics/SVG/1.1/DTD/svg11.dtd">
<!-- Generated by graphviz version 2.43.0 (0)
 -->
<!-- Title: get_next_line Pages: 1 -->
<svg width="750pt" height="218pt"
 viewBox="0.00 0.00 750.00 218.00" xmlns="http://www.w3.org/2000/svg" xmlns:xlink="http://www.w3.org/1999/xlink">
<g id="graph0" class="graph" transform="scale(1 1) rotate(0) translate(4 214)">
<title>get_next_line</title>
<!-- Node1 -->
<g id="node1" class="node">
<title>Node1</title>
<g id="a_node1"><a xlink:title=" ">
<polygon fill="#bfbfbf" stroke="black" points="0,-133.5 0,-152.5 83,-152.5 83,-133.5 0,-133.5"/>
<text text-anchor="middle" x="41.5" y="-140.5" font-family="Helvetica,sans-Serif" font-size="10.00">get_next_line</text>
</a>
</g>
</g>
<!-- Node2 -->
<g id="node2" class="node">
<title>Node2</title>
<g id="a_node2"><a xlink:href="get__next__line_8c.html#ab779f9a2944d5f2077a4afb74a927b8b" target="_top" xlink:title=" ">
<polygon fill="none" stroke="black" points="135.5,-190.5 135.5,-209.5 209.5,-209.5 209.5,-190.5 135.5,-190.5"/>
<text text-anchor="middle" x="172.5" y="-197.5" font-family="Helvetica,sans-Serif" font-size="10.00">extract_line</text>
</a>
</g>
</g>
<!-- Node1&#45;&gt;Node2 -->
<g id="edge1" class="edge">
<title>Node1&#45;&gt;Node2</title>
<path fill="none" stroke="midnightblue" d="M60.47,-152.65C75.8,-160.71 98.55,-172.25 119,-181 123.72,-183.02 128.74,-185.02 133.73,-186.92"/>
<polygon fill="midnightblue" stroke="midnightblue" points="132.61,-190.24 143.21,-190.43 135.04,-183.67 132.61,-190.24"/>
</g>
<!-- Node3 -->
<g id="node3" class="node">
<title>Node3</title>
<g id="a_node3"><a xlink:href="get__next__line_8c.html#a55922d5102313ef291b6e4e845463b2a" target="_top" xlink:title=" ">
<polygon fill="none" stroke="black" points="119,-152.5 119,-171.5 226,-171.5 226,-152.5 119,-152.5"/>
<text text-anchor="middle" x="172.5" y="-159.5" font-family="Helvetica,sans-Serif" font-size="10.00">extract_remainder</text>
</a>
</g>
</g>
<!-- Node1&#45;&gt;Node3 -->
<g id="edge2" class="edge">
<title>Node1&#45;&gt;Node3</title>
<path fill="none" stroke="midnightblue" d="M83.32,-149.01C91.38,-150.2 100.02,-151.47 108.62,-152.74"/>
<polygon fill="midnightblue" stroke="midnightblue" points="108.26,-156.22 118.66,-154.22 109.28,-149.3 108.26,-156.22"/>
</g>
<!-- Node4 -->
<g id="node4" class="node">
<title>Node4</title>
<g id="a_node4"><a xlink:href="ft__is__n_8c.html#a9f740b8177921c4d42960f26397031fb" target="_top" xlink:title=" ">
<polygon fill="none" stroke="black" points="404.5,-95.5 404.5,-114.5 440.5,-114.5 440.5,-95.5 404.5,-95.5"/>
<text text-anchor="middle" x="422.5" y="-102.5" font-family="Helvetica,sans-Serif" font-size="10.00">is_n</text>
</a>
</g>
</g>
<!-- Node1&#45;&gt;Node4 -->
<g id="edge3" class="edge">
<title>Node1&#45;&gt;Node4</title>
<path fill="none" stroke="midnightblue" d="M83.06,-138.93C160.66,-131.15 328.28,-114.35 394.14,-107.74"/>
<polygon fill="midnightblue" stroke="midnightblue" points="394.56,-111.22 404.16,-106.74 393.86,-104.25 394.56,-111.22"/>
</g>
<!-- Node5 -->
<g id="node5" class="node">
<title>Node5</title>
<g id="a_node5"><a xlink:href="get__next__line_8c.html#ae6d543ff06d0f78ff197de5e94f22200" target="_top" xlink:title=" ">
<polygon fill="none" stroke="black" points="146,-57.5 146,-76.5 199,-76.5 199,-57.5 146,-57.5"/>
<text text-anchor="middle" x="172.5" y="-64.5" font-family="Helvetica,sans-Serif" font-size="10.00">reading</text>
</a>
</g>
</g>
<!-- Node1&#45;&gt;Node5 -->
<g id="edge4" class="edge">
<title>Node1&#45;&gt;Node5</title>
<path fill="none" stroke="midnightblue" d="M58.84,-133.37C80.94,-120.35 120.56,-97.01 146.44,-81.76"/>
<polygon fill="midnightblue" stroke="midnightblue" points="148.46,-84.64 155.29,-76.55 144.9,-78.61 148.46,-84.64"/>
</g>
<!-- Node6 -->
<g id="node6" class="node">
<title>Node6</title>
<g id="a_node6"><a xlink:href="ft__strdup_8c.html#aeab425f44e9a04e54160d60d3c9e870c" target="_top" xlink:title=" ">
<polygon fill="none" stroke="black" points="280,-0.5 280,-19.5 339,-19.5 339,-0.5 280,-0.5"/>
<text text-anchor="middle" x="309.5" y="-7.5" font-family="Helvetica,sans-Serif" font-size="10.00">ft_strdup</text>
</a>
</g>
</g>
<!-- Node5&#45;&gt;Node6 -->
<g id="edge5" class="edge">
<title>Node5&#45;&gt;Node6</title>
<path fill="none" stroke="midnightblue" d="M196.1,-57.46C218.1,-48.17 251.74,-33.96 276.49,-23.51"/>
<polygon fill="midnightblue" stroke="midnightblue" points="277.98,-26.69 285.83,-19.57 275.26,-20.24 277.98,-26.69"/>
</g>
<!-- Node8 -->
<g id="node8" class="node">
<title>Node8</title>
<g id="a_node8"><a xlink:href="ft__strjoin_8c.html#a5c1c26f8be9bc527cfe69a3555124795" target="_top" xlink:title=" ">
<polygon fill="none" stroke="black" points="393,-38.5 393,-57.5 452,-57.5 452,-38.5 393,-38.5"/>
<text text-anchor="middle" x="422.5" y="-45.5" font-family="Helvetica,sans-Serif" font-size="10.00">ft_strjoin</text>
</a>
</g>
</g>
<!-- Node5&#45;&gt;Node8 -->
<g id="edge7" class="edge">
<title>Node5&#45;&gt;Node8</title>
<path fill="none" stroke="midnightblue" d="M199.11,-65.04C242.64,-61.7 331.33,-54.91 382.58,-50.98"/>
<polygon fill="midnightblue" stroke="midnightblue" points="382.91,-54.47 392.61,-50.21 382.37,-47.49 382.91,-54.47"/>
</g>
<!-- Node12 -->
<g id="node12" class="node">
<title>Node12</title>
<g id="a_node12"><a xlink:href="get__next__line_8c.html#a34333af6d816f260f7680fcfbc81a2fd" target="_top" xlink:title=" ">
<polygon fill="none" stroke="black" points="262,-76.5 262,-95.5 357,-95.5 357,-76.5 262,-76.5"/>
<text text-anchor="middle" x="309.5" y="-83.5" font-family="Helvetica,sans-Serif" font-size="10.00">looping_reading</text>
</a>
</g>
</g>
<!-- Node5&#45;&gt;Node12 -->
<g id="edge12" class="edge">
<title>Node5&#45;&gt;Node12</title>
<path fill="none" stroke="midnightblue" d="M199.21,-70.62C214.12,-72.72 233.52,-75.45 251.82,-78.02"/>
<polygon fill="midnightblue" stroke="midnightblue" points="251.45,-81.51 261.84,-79.43 252.43,-74.57 251.45,-81.51"/>
</g>
<!-- Node7 -->
<g id="node7" class="node">
<title>Node7</title>
<g id="a_node7"><a xlink:href="ft__strlen_8c.html#a828402378653640f545a4be2e00e92f9" target="_top" xlink:title=" ">
<polygon fill="none" stroke="black" points="488.5,-0.5 488.5,-19.5 544.5,-19.5 544.5,-0.5 488.5,-0.5"/>
<text text-anchor="middle" x="516.5" y="-7.5" font-family="Helvetica,sans-Serif" font-size="10.00">ft_strlen</text>
</a>
</g>
</g>
<!-- Node6&#45;&gt;Node7 -->
<g id="edge6" class="edge">
<title>Node6&#45;&gt;Node7</title>
<path fill="none" stroke="midnightblue" d="M339,-10C375.26,-10 437.96,-10 478.05,-10"/>
<polygon fill="midnightblue" stroke="midnightblue" points="478.22,-13.5 488.22,-10 478.22,-6.5 478.22,-13.5"/>
</g>
<!-- Node8&#45;&gt;Node7 -->
<g id="edge11" class="edge">
<title>Node8&#45;&gt;Node7</title>
<path fill="none" stroke="midnightblue" d="M446.72,-38.41C457.72,-33.87 471.05,-28.36 483.04,-23.41"/>
<polygon fill="midnightblue" stroke="midnightblue" points="484.39,-26.64 492.29,-19.59 481.71,-20.17 484.39,-26.64"/>
</g>
<!-- Node9 -->
<g id="node9" class="node">
<title>Node9</title>
<g id="a_node9"><a xlink:href="ft__calloc_8c.html#ab927e999982a91970c6e43b403d66167" target="_top" xlink:title=" ">
<polygon fill="none" stroke="black" points="488,-38.5 488,-57.5 545,-57.5 545,-38.5 488,-38.5"/>
<text text-anchor="middle" x="516.5" y="-45.5" font-family="Helvetica,sans-Serif" font-size="10.00">ft_calloc</text>
</a>
</g>
</g>
<!-- Node8&#45;&gt;Node9 -->
<g id="edge8" class="edge">
<title>Node8&#45;&gt;Node9</title>
<path fill="none" stroke="midnightblue" d="M452.11,-48C460.21,-48 469.15,-48 477.7,-48"/>
<polygon fill="midnightblue" stroke="midnightblue" points="477.86,-51.5 487.86,-48 477.86,-44.5 477.86,-51.5"/>
</g>
<!-- Node10 -->
<g id="node10" class="node">
<title>Node10</title>
<g id="a_node10"><a xlink:href="ft__bzero_8c.html#a5937ab0d08e31d0e3e4a16ec71e293a1" target="_top" xlink:title=" ">
<polygon fill="none" stroke="black" points="581,-38.5 581,-57.5 637,-57.5 637,-38.5 581,-38.5"/>
<text text-anchor="middle" x="609" y="-45.5" font-family="Helvetica,sans-Serif" font-size="10.00">ft_bzero</text>
</a>
</g>
</g>
<!-- Node9&#45;&gt;Node10 -->
<g id="edge9" class="edge">
<title>Node9&#45;&gt;Node10</title>
<path fill="none" stroke="midnightblue" d="M545.14,-48C553.2,-48 562.14,-48 570.69,-48"/>
<polygon fill="midnightblue" stroke="midnightblue" points="570.84,-51.5 580.84,-48 570.84,-44.5 570.84,-51.5"/>
</g>
<!-- Node11 -->
<g id="node11" class="node">
<title>Node11</title>
<g id="a_node11"><a xlink:href="ft__memset_8c.html#aa32eb193f310275c04ccacf3504b95b9" target="_top" xlink:title=" ">
<polygon fill="none" stroke="black" points="673,-38.5 673,-57.5 742,-57.5 742,-38.5 673,-38.5"/>
<text text-anchor="middle" x="707.5" y="-45.5" font-family="Helvetica,sans-Serif" font-size="10.00">ft_memset</text>
</a>
</g>
</g>
<!-- Node10&#45;&gt;Node11 -->
<g id="edge10" class="edge">
<title>Node10&#45;&gt;Node11</title>
<path fill="none" stroke="midnightblue" d="M637.14,-48C645.07,-48 653.95,-48 662.64,-48"/>
<polygon fill="midnightblue" stroke="midnightblue" points="662.69,-51.5 672.69,-48 662.69,-44.5 662.69,-51.5"/>
</g>
<!-- Node12&#45;&gt;Node4 -->
<g id="edge14" class="edge">
<title>Node12&#45;&gt;Node4</title>
<path fill="none" stroke="midnightblue" d="M357.25,-94C369.91,-96.17 383.2,-98.44 394.38,-100.36"/>
<polygon fill="midnightblue" stroke="midnightblue" points="393.92,-103.83 404.37,-102.07 395.1,-96.93 393.92,-103.83"/>
</g>
<!-- Node12&#45;&gt;Node8 -->
<g id="edge13" class="edge">
<title>Node12&#45;&gt;Node8</title>
<path fill="none" stroke="midnightblue" d="M338.51,-76.41C352.18,-71.73 368.83,-66.03 383.62,-60.97"/>
<polygon fill="midnightblue" stroke="midnightblue" points="385.17,-64.14 393.5,-57.59 382.9,-57.51 385.17,-64.14"/>
</g>
</g>
</svg>
