<?xml version="1.0" encoding="UTF-8" standalone="no"?>
<!DOCTYPE svg PUBLIC "-//W3C//DTD SVG 1.1//EN"
 "http://www.w3.org/Graphics/SVG/1.1/DTD/svg11.dtd">
<!-- Generated by graphviz version 2.43.0 (0)
 -->
<!-- Title: here_doc_management Pages: 1 -->
<svg width="515pt" height="218pt"
 viewBox="0.00 0.00 515.00 218.00" xmlns="http://www.w3.org/2000/svg" xmlns:xlink="http://www.w3.org/1999/xlink">
<g id="graph0" class="graph" transform="scale(1 1) rotate(0) translate(4 214)">
<title>here_doc_management</title>
<!-- Node1 -->
<g id="node1" class="node">
<title>Node1</title>
<g id="a_node1"><a xlink:title="the function will go through all the commands and check the redirection if we encounter a heredoc we ...">
<polygon fill="#bfbfbf" stroke="black" points="0,-95.5 0,-114.5 131,-114.5 131,-95.5 0,-95.5"/>
<text text-anchor="middle" x="65.5" y="-102.5" font-family="Helvetica,sans-Serif" font-size="10.00">here_doc_management</text>
</a>
</g>
</g>
<!-- Node2 -->
<g id="node2" class="node">
<title>Node2</title>
<g id="a_node2"><a xlink:href="heredoc_8c.html#ab68377acf2c8adf39f991dc425297c09" target="_top" xlink:title="it&#39;s where we open the heredoc and start writing inside our pipe each time we check if it&#39;s the word ...">
<polygon fill="none" stroke="black" points="167,-95.5 167,-114.5 253,-114.5 253,-95.5 167,-95.5"/>
<text text-anchor="middle" x="210" y="-102.5" font-family="Helvetica,sans-Serif" font-size="10.00">heredoc_input</text>
</a>
</g>
</g>
<!-- Node1&#45;&gt;Node2 -->
<g id="edge1" class="edge">
<title>Node1&#45;&gt;Node2</title>
<path fill="none" stroke="midnightblue" d="M131.08,-105C139.57,-105 148.19,-105 156.45,-105"/>
<polygon fill="midnightblue" stroke="midnightblue" points="156.68,-108.5 166.68,-105 156.68,-101.5 156.68,-108.5"/>
</g>
<!-- Node3 -->
<g id="node3" class="node">
<title>Node3</title>
<g id="a_node3"><a xlink:href="heredoc_8c.html#ab64ee253d325f2d25cf6d2e51bd00396" target="_top" xlink:title="we have to activate back the echoctl to appear again when we are not inside an heredoc">
<polygon fill="none" stroke="black" points="302,-190.5 302,-209.5 389,-209.5 389,-190.5 302,-190.5"/>
<text text-anchor="middle" x="345.5" y="-197.5" font-family="Helvetica,sans-Serif" font-size="10.00">active_echoctl</text>
</a>
</g>
</g>
<!-- Node2&#45;&gt;Node3 -->
<g id="edge2" class="edge">
<title>Node2&#45;&gt;Node3</title>
<path fill="none" stroke="midnightblue" d="M218.38,-114.55C231.14,-130.47 258.88,-162.49 289,-181 292.23,-182.98 295.69,-184.79 299.24,-186.43"/>
<polygon fill="midnightblue" stroke="midnightblue" points="298.22,-189.8 308.8,-190.4 300.9,-183.33 298.22,-189.8"/>
</g>
<!-- Node4 -->
<g id="node4" class="node">
<title>Node4</title>
<g id="a_node4"><a xlink:href="heredoc_8c.html#a3e1410633d8c1ad5b1441509a020b0d4" target="_top" xlink:title="allow us to close the file descriptors when we have fork() again the process">
<polygon fill="none" stroke="black" points="289,-152.5 289,-171.5 402,-171.5 402,-152.5 289,-152.5"/>
<text text-anchor="middle" x="345.5" y="-159.5" font-family="Helvetica,sans-Serif" font-size="10.00">close_fd_heredocs2</text>
</a>
</g>
</g>
<!-- Node2&#45;&gt;Node4 -->
<g id="edge3" class="edge">
<title>Node2&#45;&gt;Node4</title>
<path fill="none" stroke="midnightblue" d="M233.34,-114.54C255.1,-123.83 288.37,-138.04 312.85,-148.49"/>
<polygon fill="midnightblue" stroke="midnightblue" points="311.51,-151.72 322.08,-152.43 314.26,-145.28 311.51,-151.72"/>
</g>
<!-- Node5 -->
<g id="node5" class="node">
<title>Node5</title>
<g id="a_node5"><a xlink:href="redirection__multipipe_8c.html#a1bca6910c90a19d96b36506a2e2cebf6" target="_top" xlink:title="as fd are all setup to &#45;1 at the beginning we check if they are open before trying to close we avoid ...">
<polygon fill="none" stroke="black" points="438,-133.5 438,-152.5 507,-152.5 507,-133.5 438,-133.5"/>
<text text-anchor="middle" x="472.5" y="-140.5" font-family="Helvetica,sans-Serif" font-size="10.00">ft_close_fd</text>
</a>
</g>
</g>
<!-- Node2&#45;&gt;Node5 -->
<g id="edge5" class="edge">
<title>Node2&#45;&gt;Node5</title>
<path fill="none" stroke="midnightblue" d="M253.14,-111.15C301.14,-118.15 379.18,-129.53 427.81,-136.63"/>
<polygon fill="midnightblue" stroke="midnightblue" points="427.31,-140.09 437.71,-138.07 428.32,-133.16 427.31,-140.09"/>
</g>
<!-- Node6 -->
<g id="node6" class="node">
<title>Node6</title>
<g id="a_node6"><a xlink:href="heredoc_8c.html#a4fd8e3642e456e9a2f7fe4dc8f44ad43" target="_top" xlink:title="remove the echoctl which are the symbol which appears when you press CTRL+C or CTRL+\ it&#39;s different ...">
<polygon fill="none" stroke="black" points="298,-76.5 298,-95.5 393,-95.5 393,-76.5 298,-76.5"/>
<text text-anchor="middle" x="345.5" y="-83.5" font-family="Helvetica,sans-Serif" font-size="10.00">remove_echoctl</text>
</a>
</g>
</g>
<!-- Node2&#45;&gt;Node6 -->
<g id="edge6" class="edge">
<title>Node2&#45;&gt;Node6</title>
<path fill="none" stroke="midnightblue" d="M253.24,-98.99C264.23,-97.42 276.25,-95.71 287.85,-94.06"/>
<polygon fill="midnightblue" stroke="midnightblue" points="288.49,-97.51 297.9,-92.63 287.51,-90.58 288.49,-97.51"/>
</g>
<!-- Node7 -->
<g id="node7" class="node">
<title>Node7</title>
<g id="a_node7"><a xlink:href="minishell_8h.html#a258e3b580e688a0cf46e4258525aeaf1" target="_top" xlink:title=" ">
<polygon fill="none" stroke="black" points="302.5,-38.5 302.5,-57.5 388.5,-57.5 388.5,-38.5 302.5,-38.5"/>
<text text-anchor="middle" x="345.5" y="-45.5" font-family="Helvetica,sans-Serif" font-size="10.00">sigint_handler</text>
</a>
</g>
</g>
<!-- Node2&#45;&gt;Node7 -->
<g id="edge7" class="edge">
<title>Node2&#45;&gt;Node7</title>
<path fill="none" stroke="midnightblue" d="M228.99,-95.45C244.62,-87.34 267.98,-75.68 289,-67 294.06,-64.91 299.44,-62.86 304.79,-60.93"/>
<polygon fill="midnightblue" stroke="midnightblue" points="306.02,-64.2 314.29,-57.59 303.7,-57.6 306.02,-64.2"/>
</g>
<!-- Node8 -->
<g id="node8" class="node">
<title>Node8</title>
<g id="a_node8"><a xlink:href="heredoc_8c.html#a7ea78f2f2215fe1ed765af80a1b2893d" target="_top" xlink:title="allow us to warn the process child heredoc it&#39;s time to stop and close the file descriptor">
<polygon fill="none" stroke="black" points="301.5,-0.5 301.5,-19.5 389.5,-19.5 389.5,-0.5 301.5,-0.5"/>
<text text-anchor="middle" x="345.5" y="-7.5" font-family="Helvetica,sans-Serif" font-size="10.00">sigint_heredoc</text>
</a>
</g>
</g>
<!-- Node2&#45;&gt;Node8 -->
<g id="edge8" class="edge">
<title>Node2&#45;&gt;Node8</title>
<path fill="none" stroke="midnightblue" d="M218.38,-95.45C231.14,-79.53 258.88,-47.51 289,-29 292.23,-27.02 295.69,-25.21 299.24,-23.57"/>
<polygon fill="midnightblue" stroke="midnightblue" points="300.9,-26.67 308.8,-19.6 298.22,-20.2 300.9,-26.67"/>
</g>
<!-- Node4&#45;&gt;Node5 -->
<g id="edge4" class="edge">
<title>Node4&#45;&gt;Node5</title>
<path fill="none" stroke="midnightblue" d="M402.05,-153.56C410.77,-152.23 419.67,-150.88 428.06,-149.6"/>
<polygon fill="midnightblue" stroke="midnightblue" points="428.63,-153.06 437.99,-148.09 427.58,-146.14 428.63,-153.06"/>
</g>
</g>
</svg>
