<?xml version="1.0" encoding="UTF-8" standalone="no"?>
<!DOCTYPE svg PUBLIC "-//W3C//DTD SVG 1.1//EN"
 "http://www.w3.org/Graphics/SVG/1.1/DTD/svg11.dtd">
<!-- Generated by graphviz version 2.43.0 (0)
 -->
<!-- Title: heredoc_input Pages: 1 -->
<!--zoomable 330 -->
<svg id="main" version="1.1" xmlns="http://www.w3.org/2000/svg" xmlns:xlink="http://www.w3.org/1999/xlink" xml:space="preserve" onload="init(evt)">
<style type="text/css"><![CDATA[
.edge:hover path { stroke: red; }
.edge:hover polygon { stroke: red; fill: red; }
]]></style>
<script type="text/javascript"><![CDATA[
var edges = document.getElementsByTagName('g');
if (edges && edges.length) {
  for (var i=0;i<edges.length;i++) {
    if (edges[i].id.substr(0,4)=='edge') {
      edges[i].setAttribute('class','edge');
    }
  }
}
]]></script>
        <defs>
                <circle id="rim" cx="0" cy="0" r="7"/>
                <circle id="rim2" cx="0" cy="0" r="3.5"/>
                <g id="zoomPlus">
                        <use xlink:href="#rim" fill="#404040">
                                <set attributeName="fill" to="#808080" begin="zoomplus.mouseover" end="zoomplus.mouseout"/>
                        </use>
                        <path d="M-4,0h8M0,-4v8" fill="none" stroke="white" stroke-width="1.5" pointer-events="none"/>
                </g>
                <g id="zoomMin">
                        <use xlink:href="#rim" fill="#404040">
                                <set attributeName="fill" to="#808080" begin="zoomminus.mouseover" end="zoomminus.mouseout"/>
                        </use>
                        <path d="M-4,0h8" fill="none" stroke="white" stroke-width="1.5" pointer-events="none"/>
                </g>
                <g id="dirArrow">
                        <path fill="none" stroke="white" stroke-width="1.5" d="M0,-3.0v7 M-2.5,-0.5L0,-3.0L2.5,-0.5"/>
                </g>
               <g id="resetDef">
                       <use xlink:href="#rim2" fill="#404040">
                               <set attributeName="fill" to="#808080" begin="reset.mouseover" end="reset.mouseout"/>
                       </use>
               </g>
        </defs>

<script type="text/javascript">
var viewWidth = 1044;
var viewHeight = 330;
var sectionId = 'dynsection-7';
</script>
<script xlink:href="svgpan.js"/>
<svg id="graph" class="graph">
<g id="viewport">
<title>heredoc_input</title>
<!-- Node1 -->
<g id="node1" class="node">
<title>Node1</title>
<g id="a_node1"><a xlink:title="it&#39;s where we open the heredoc and start writing inside our pipe each time we check if it&#39;s the word ...">
<polygon fill="#bfbfbf" stroke="black" points="0,-161.5 0,-180.5 86,-180.5 86,-161.5 0,-161.5"/>
<text text-anchor="middle" x="43" y="-168.5" font-family="Helvetica,sans-Serif" font-size="10.00">heredoc_input</text>
</a>
</g>
</g>
<!-- Node2 -->
<g id="node2" class="node">
<title>Node2</title>
<g id="a_node2"><a xlink:href="heredoc_8c.html#a98f0cdaa70ea9d777053df568b66e32a" target="_top" xlink:title="the function to call what the child has to do main reason for this function =&gt; the norm">
<polygon fill="none" stroke="black" points="122,-161.5 122,-180.5 235,-180.5 235,-161.5 122,-161.5"/>
<text text-anchor="middle" x="178.5" y="-168.5" font-family="Helvetica,sans-Serif" font-size="10.00">child_work_heredoc</text>
</a>
</g>
</g>
<!-- Node1&#45;&gt;Node2 -->
<g id="edge1" class="edge">
<title>Node1&#45;&gt;Node2</title>
<path fill="none" stroke="midnightblue" d="M86.24,-171C94.37,-171 103.05,-171 111.72,-171"/>
<polygon fill="midnightblue" stroke="midnightblue" points="111.85,-174.5 121.85,-171 111.85,-167.5 111.85,-174.5"/>
</g>
<!-- Node4 -->
<g id="node4" class="node">
<title>Node4</title>
<g id="a_node4"><a xlink:href="utils_8c.html#a1bca6910c90a19d96b36506a2e2cebf6" target="_top" xlink:title="as fd are all setup to &#45;1 at the beginning we check if they are open before trying to close we avoid ...">
<polygon fill="none" stroke="black" points="967,-151.5 967,-170.5 1036,-170.5 1036,-151.5 967,-151.5"/>
<text text-anchor="middle" x="1001.5" y="-158.5" font-family="Helvetica,sans-Serif" font-size="10.00">ft_close_fd</text>
</a>
</g>
</g>
<!-- Node1&#45;&gt;Node4 -->
<g id="edge24" class="edge">
<title>Node1&#45;&gt;Node4</title>
<path fill="none" stroke="midnightblue" d="M51.95,-161.32C82.59,-125.14 197.57,0 321.5,0 321.5,0 321.5,0 778.5,0 851.01,0 874.18,-12.95 931,-58 959.88,-80.89 981.16,-119.1 992.13,-141.99"/>
<polygon fill="midnightblue" stroke="midnightblue" points="989.07,-143.7 996.43,-151.32 995.42,-140.77 989.07,-143.7"/>
</g>
<!-- Node18 -->
<g id="node18" class="node">
<title>Node18</title>
<g id="a_node18"><a xlink:href="heredoc2_8c.html#ac2c940d294494f86fcc389ffeedfd752" target="_top" xlink:title="origin of creation ; the norm what it is doing ? juste close the fd the right way if we encounter the...">
<polygon fill="none" stroke="black" points="135.5,-275.5 135.5,-294.5 221.5,-294.5 221.5,-275.5 135.5,-275.5"/>
<text text-anchor="middle" x="178.5" y="-282.5" font-family="Helvetica,sans-Serif" font-size="10.00">update_status</text>
</a>
</g>
</g>
<!-- Node1&#45;&gt;Node18 -->
<g id="edge25" class="edge">
<title>Node1&#45;&gt;Node18</title>
<path fill="none" stroke="midnightblue" d="M55.38,-180.72C78.24,-200.24 129.95,-244.39 158.19,-268.51"/>
<polygon fill="midnightblue" stroke="midnightblue" points="156.27,-271.47 166.15,-275.31 160.81,-266.15 156.27,-271.47"/>
</g>
<!-- Node3 -->
<g id="node3" class="node">
<title>Node3</title>
<g id="a_node3"><a xlink:href="heredoc_8c.html#a3e1410633d8c1ad5b1441509a020b0d4" target="_top" xlink:title="allow us to close the file descriptors when we have fork() again the process">
<polygon fill="none" stroke="black" points="410,-294.5 410,-313.5 523,-313.5 523,-294.5 410,-294.5"/>
<text text-anchor="middle" x="466.5" y="-301.5" font-family="Helvetica,sans-Serif" font-size="10.00">close_fd_heredocs2</text>
</a>
</g>
</g>
<!-- Node2&#45;&gt;Node3 -->
<g id="edge2" class="edge">
<title>Node2&#45;&gt;Node3</title>
<path fill="none" stroke="midnightblue" d="M183.98,-180.82C195.01,-203.73 225.91,-260.61 271,-285 310.12,-306.16 360.17,-310.63 399.71,-309.96"/>
<polygon fill="midnightblue" stroke="midnightblue" points="399.88,-313.46 409.78,-309.67 399.69,-306.46 399.88,-313.46"/>
</g>
<!-- Node2&#45;&gt;Node4 -->
<g id="edge12" class="edge">
<title>Node2&#45;&gt;Node4</title>
<path fill="none" stroke="midnightblue" d="M190.61,-161.43C227.19,-130.94 348.32,-38 465.5,-38 465.5,-38 465.5,-38 778.5,-38 864.98,-38 949.34,-110.3 984,-144.03"/>
<polygon fill="midnightblue" stroke="midnightblue" points="981.8,-146.78 991.36,-151.35 986.74,-141.81 981.8,-146.78"/>
</g>
<!-- Node5 -->
<g id="node5" class="node">
<title>Node5</title>
<g id="a_node5"><a xlink:href="lst__cmd2_8c.html#a132395876bb5a7cfe926b9e37571a1e3" target="_top" xlink:title=" ">
<polygon fill="none" stroke="black" points="420.5,-161.5 420.5,-180.5 512.5,-180.5 512.5,-161.5 420.5,-161.5"/>
<text text-anchor="middle" x="466.5" y="-168.5" font-family="Helvetica,sans-Serif" font-size="10.00">destructor_cmd</text>
</a>
</g>
</g>
<!-- Node2&#45;&gt;Node5 -->
<g id="edge4" class="edge">
<title>Node2&#45;&gt;Node5</title>
<path fill="none" stroke="midnightblue" d="M196.73,-161.42C214.65,-152.05 243.84,-138.42 271,-133 315.89,-124.05 329.11,-124.05 374,-133 396.92,-137.57 421.28,-147.99 439.09,-156.76"/>
<polygon fill="midnightblue" stroke="midnightblue" points="437.77,-160.02 448.27,-161.42 440.94,-153.77 437.77,-160.02"/>
</g>
<!-- Node9 -->
<g id="node9" class="node">
<title>Node9</title>
<g id="a_node9"><a xlink:href="lst__env_8c.html#a226ae0aa054e697998b2ecbc5d61d592" target="_top" xlink:title=" ">
<polygon fill="none" stroke="black" points="422,-104.5 422,-123.5 511,-123.5 511,-104.5 422,-104.5"/>
<text text-anchor="middle" x="466.5" y="-111.5" font-family="Helvetica,sans-Serif" font-size="10.00">destructor_env</text>
</a>
</g>
</g>
<!-- Node2&#45;&gt;Node9 -->
<g id="edge10" class="edge">
<title>Node2&#45;&gt;Node9</title>
<path fill="none" stroke="midnightblue" d="M192.97,-161.49C210.15,-149.96 241.22,-131.07 271,-123 317.27,-110.46 371.97,-109.05 411.56,-110.29"/>
<polygon fill="midnightblue" stroke="midnightblue" points="411.67,-113.8 421.79,-110.68 411.93,-106.8 411.67,-113.8"/>
</g>
<!-- Node11 -->
<g id="node11" class="node">
<title>Node11</title>
<g id="a_node11"><a xlink:href="heredoc_8c.html#aa11261ffe1d93fd87488514776e2df34" target="_top" xlink:title=" ">
<polygon fill="none" stroke="black" points="271,-256.5 271,-275.5 374,-275.5 374,-256.5 271,-256.5"/>
<text text-anchor="middle" x="322.5" y="-263.5" font-family="Helvetica,sans-Serif" font-size="10.00">read_gnl_heredoc</text>
</a>
</g>
</g>
<!-- Node2&#45;&gt;Node11 -->
<g id="edge13" class="edge">
<title>Node2&#45;&gt;Node11</title>
<path fill="none" stroke="midnightblue" d="M188.83,-180.61C204.54,-196.32 237.79,-227.7 271,-247 274.41,-248.98 278.07,-250.83 281.79,-252.52"/>
<polygon fill="midnightblue" stroke="midnightblue" points="280.53,-255.79 291.1,-256.44 283.24,-249.34 280.53,-255.79"/>
</g>
<!-- Node15 -->
<g id="node15" class="node">
<title>Node15</title>
<g id="a_node15"><a xlink:href="ctl_8c.html#a4fd8e3642e456e9a2f7fe4dc8f44ad43" target="_top" xlink:title="remove the echoctl which are the symbol which appears when you press CTRL+C or CTRL+\ it&#39;s different ...">
<polygon fill="none" stroke="black" points="275,-218.5 275,-237.5 370,-237.5 370,-218.5 275,-218.5"/>
<text text-anchor="middle" x="322.5" y="-225.5" font-family="Helvetica,sans-Serif" font-size="10.00">remove_echoctl</text>
</a>
</g>
</g>
<!-- Node2&#45;&gt;Node15 -->
<g id="edge21" class="edge">
<title>Node2&#45;&gt;Node15</title>
<path fill="none" stroke="midnightblue" d="M201.98,-180.58C220.44,-188.4 247.33,-199.63 271,-209 275.83,-210.91 280.94,-212.89 285.97,-214.81"/>
<polygon fill="midnightblue" stroke="midnightblue" points="284.89,-218.14 295.49,-218.4 287.37,-211.59 284.89,-218.14"/>
</g>
<!-- Node16 -->
<g id="node16" class="node">
<title>Node16</title>
<g id="a_node16"><a xlink:href="signals_8c.html#a7ea78f2f2215fe1ed765af80a1b2893d" target="_top" xlink:title="allow us to warn the process child heredoc it&#39;s time to stop and close the file descriptor">
<polygon fill="none" stroke="black" points="278.5,-180.5 278.5,-199.5 366.5,-199.5 366.5,-180.5 278.5,-180.5"/>
<text text-anchor="middle" x="322.5" y="-187.5" font-family="Helvetica,sans-Serif" font-size="10.00">sigint_heredoc</text>
</a>
</g>
</g>
<!-- Node2&#45;&gt;Node16 -->
<g id="edge22" class="edge">
<title>Node2&#45;&gt;Node16</title>
<path fill="none" stroke="midnightblue" d="M235.21,-178.45C246.05,-179.9 257.38,-181.42 268.14,-182.86"/>
<polygon fill="midnightblue" stroke="midnightblue" points="267.86,-186.35 278.24,-184.21 268.79,-179.42 267.86,-186.35"/>
</g>
<!-- Node17 -->
<g id="node17" class="node">
<title>Node17</title>
<g id="a_node17"><a xlink:href="signals_8c.html#a368a774e2b304a3de55f58168563967d" target="_top" xlink:title=" ">
<polygon fill="none" stroke="black" points="276.5,-142.5 276.5,-161.5 368.5,-161.5 368.5,-142.5 276.5,-142.5"/>
<text text-anchor="middle" x="322.5" y="-149.5" font-family="Helvetica,sans-Serif" font-size="10.00">sigquit_handler</text>
</a>
</g>
</g>
<!-- Node2&#45;&gt;Node17 -->
<g id="edge23" class="edge">
<title>Node2&#45;&gt;Node17</title>
<path fill="none" stroke="midnightblue" d="M235.21,-163.55C245.47,-162.17 256.17,-160.74 266.41,-159.37"/>
<polygon fill="midnightblue" stroke="midnightblue" points="267.01,-162.82 276.46,-158.03 266.08,-155.88 267.01,-162.82"/>
</g>
<!-- Node3&#45;&gt;Node4 -->
<g id="edge3" class="edge">
<title>Node3&#45;&gt;Node4</title>
<path fill="none" stroke="midnightblue" d="M523.04,-307.94C595.59,-311.55 725.98,-312.75 833,-285 879.95,-272.83 892.18,-266.07 931,-237 953.22,-220.36 974.05,-195.95 987,-179.32"/>
<polygon fill="midnightblue" stroke="midnightblue" points="990.08,-181.05 993.35,-170.97 984.51,-176.82 990.08,-181.05"/>
</g>
<!-- Node6 -->
<g id="node6" class="node">
<title>Node6</title>
<g id="a_node6"><a xlink:href="lst__cmd2_8c.html#a8e2b63759f149b547e0d07f210ede9b3" target="_top" xlink:title=" ">
<polygon fill="none" stroke="black" points="592,-161.5 592,-180.5 653,-180.5 653,-161.5 592,-161.5"/>
<text text-anchor="middle" x="622.5" y="-168.5" font-family="Helvetica,sans-Serif" font-size="10.00">pop_cmd</text>
</a>
</g>
</g>
<!-- Node5&#45;&gt;Node6 -->
<g id="edge5" class="edge">
<title>Node5&#45;&gt;Node6</title>
<path fill="none" stroke="midnightblue" d="M512.87,-171C534.73,-171 560.71,-171 581.77,-171"/>
<polygon fill="midnightblue" stroke="midnightblue" points="581.99,-174.5 591.99,-171 581.99,-167.5 581.99,-174.5"/>
</g>
<!-- Node6&#45;&gt;Node4 -->
<g id="edge9" class="edge">
<title>Node6&#45;&gt;Node4</title>
<path fill="none" stroke="midnightblue" d="M653.08,-170.22C719.06,-168.47 878.57,-164.23 956.36,-162.17"/>
<polygon fill="midnightblue" stroke="midnightblue" points="956.87,-165.66 966.77,-161.89 956.68,-158.66 956.87,-165.66"/>
</g>
<!-- Node7 -->
<g id="node7" class="node">
<title>Node7</title>
<g id="a_node7"><a xlink:href="lst__redir2_8c.html#a30ccaf401a4f897e48ead5fe54f4b307" target="_top" xlink:title=" ">
<polygon fill="none" stroke="black" points="730.5,-132.5 730.5,-151.5 824.5,-151.5 824.5,-132.5 730.5,-132.5"/>
<text text-anchor="middle" x="777.5" y="-139.5" font-family="Helvetica,sans-Serif" font-size="10.00">destructor_redir</text>
</a>
</g>
</g>
<!-- Node6&#45;&gt;Node7 -->
<g id="edge6" class="edge">
<title>Node6&#45;&gt;Node7</title>
<path fill="none" stroke="midnightblue" d="M653.36,-165.34C672.45,-161.72 697.81,-156.92 720.55,-152.61"/>
<polygon fill="midnightblue" stroke="midnightblue" points="721.27,-156.03 730.44,-150.73 719.97,-149.15 721.27,-156.03"/>
</g>
<!-- Node8 -->
<g id="node8" class="node">
<title>Node8</title>
<g id="a_node8"><a xlink:href="lst__redir2_8c.html#ade8f0bdda51d9bf348ebeb38fefba881" target="_top" xlink:title=" ">
<polygon fill="none" stroke="black" points="869,-132.5 869,-151.5 931,-151.5 931,-132.5 869,-132.5"/>
<text text-anchor="middle" x="900" y="-139.5" font-family="Helvetica,sans-Serif" font-size="10.00">pop_redir</text>
</a>
</g>
</g>
<!-- Node7&#45;&gt;Node8 -->
<g id="edge7" class="edge">
<title>Node7&#45;&gt;Node8</title>
<path fill="none" stroke="midnightblue" d="M824.74,-142C835.91,-142 847.75,-142 858.63,-142"/>
<polygon fill="midnightblue" stroke="midnightblue" points="858.7,-145.5 868.7,-142 858.7,-138.5 858.7,-145.5"/>
</g>
<!-- Node8&#45;&gt;Node4 -->
<g id="edge8" class="edge">
<title>Node8&#45;&gt;Node4</title>
<path fill="none" stroke="midnightblue" d="M931.12,-147.75C939.18,-149.29 948.06,-150.99 956.69,-152.63"/>
<polygon fill="midnightblue" stroke="midnightblue" points="956.17,-156.1 966.65,-154.54 957.49,-149.22 956.17,-156.1"/>
</g>
<!-- Node10 -->
<g id="node10" class="node">
<title>Node10</title>
<g id="a_node10"><a xlink:href="lst__env_8c.html#a058c245b5f2ef22f9d2659f90e4d3537" target="_top" xlink:title=" ">
<polygon fill="none" stroke="black" points="593.5,-104.5 593.5,-123.5 651.5,-123.5 651.5,-104.5 593.5,-104.5"/>
<text text-anchor="middle" x="622.5" y="-111.5" font-family="Helvetica,sans-Serif" font-size="10.00">pop_env</text>
</a>
</g>
</g>
<!-- Node9&#45;&gt;Node10 -->
<g id="edge11" class="edge">
<title>Node9&#45;&gt;Node10</title>
<path fill="none" stroke="midnightblue" d="M511.22,-114C533.84,-114 561.2,-114 583.02,-114"/>
<polygon fill="midnightblue" stroke="midnightblue" points="583.23,-117.5 593.23,-114 583.23,-110.5 583.23,-117.5"/>
</g>
<!-- Node11&#45;&gt;Node3 -->
<g id="edge14" class="edge">
<title>Node11&#45;&gt;Node3</title>
<path fill="none" stroke="midnightblue" d="M359.33,-275.59C377.66,-280.49 400.18,-286.52 419.75,-291.76"/>
<polygon fill="midnightblue" stroke="midnightblue" points="419.11,-295.21 429.68,-294.41 420.92,-288.45 419.11,-295.21"/>
</g>
<!-- Node11&#45;&gt;Node4 -->
<g id="edge17" class="edge">
<title>Node11&#45;&gt;Node4</title>
<path fill="none" stroke="midnightblue" d="M363.72,-256.46C420.73,-243.79 528.46,-223 621.5,-223 621.5,-223 621.5,-223 778.5,-223 849.81,-223 929.42,-192.95 971.22,-174.69"/>
<polygon fill="midnightblue" stroke="midnightblue" points="972.81,-177.82 980.52,-170.55 969.96,-171.42 972.81,-177.82"/>
</g>
<!-- Node11&#45;&gt;Node5 -->
<g id="edge15" class="edge">
<title>Node11&#45;&gt;Node5</title>
<path fill="none" stroke="midnightblue" d="M355.56,-256.45C361.93,-253.87 368.38,-250.73 374,-247 393.38,-234.13 392.3,-224.1 410,-209 419.52,-200.88 430.8,-192.89 440.69,-186.36"/>
<polygon fill="midnightblue" stroke="midnightblue" points="442.8,-189.16 449.3,-180.8 439,-183.28 442.8,-189.16"/>
</g>
<!-- Node11&#45;&gt;Node9 -->
<g id="edge16" class="edge">
<title>Node11&#45;&gt;Node9</title>
<path fill="none" stroke="midnightblue" d="M360.24,-256.5C365.3,-254.02 370.09,-250.9 374,-247 405.97,-215.11 382.09,-187.49 410,-152 417.29,-142.72 427.48,-134.85 437.14,-128.71"/>
<polygon fill="midnightblue" stroke="midnightblue" points="438.96,-131.7 445.76,-123.58 435.37,-125.69 438.96,-131.7"/>
</g>
<!-- Node12 -->
<g id="node12" class="node">
<title>Node12</title>
<g id="a_node12"><a xlink:href="heredoc2_8c.html#a62cf028a22b96be266416a01e88726f0" target="_top" xlink:title="function to write on the heredoc file depending if we have a $ sign or not we write or we expand">
<polygon fill="none" stroke="black" points="416,-256.5 416,-275.5 517,-275.5 517,-256.5 416,-256.5"/>
<text text-anchor="middle" x="466.5" y="-263.5" font-family="Helvetica,sans-Serif" font-size="10.00">write_to_heredoc</text>
</a>
</g>
</g>
<!-- Node11&#45;&gt;Node12 -->
<g id="edge18" class="edge">
<title>Node11&#45;&gt;Node12</title>
<path fill="none" stroke="midnightblue" d="M374.36,-266C384.51,-266 395.26,-266 405.67,-266"/>
<polygon fill="midnightblue" stroke="midnightblue" points="405.94,-269.5 415.94,-266 405.94,-262.5 405.94,-269.5"/>
</g>
<!-- Node13 -->
<g id="node13" class="node">
<title>Node13</title>
<g id="a_node13"><a xlink:href="heredoc2_8c.html#a2a5c565389701ca49d867d3746245106" target="_top" xlink:title=" ">
<polygon fill="none" stroke="black" points="559,-256.5 559,-275.5 686,-275.5 686,-256.5 559,-256.5"/>
<text text-anchor="middle" x="622.5" y="-263.5" font-family="Helvetica,sans-Serif" font-size="10.00">write_heredoc_expand</text>
</a>
</g>
</g>
<!-- Node12&#45;&gt;Node13 -->
<g id="edge19" class="edge">
<title>Node12&#45;&gt;Node13</title>
<path fill="none" stroke="midnightblue" d="M517.07,-266C527.14,-266 537.92,-266 548.59,-266"/>
<polygon fill="midnightblue" stroke="midnightblue" points="548.77,-269.5 558.77,-266 548.77,-262.5 548.77,-269.5"/>
</g>
<!-- Node14 -->
<g id="node14" class="node">
<title>Node14</title>
<g id="a_node14"><a xlink:href="lst__env__two_8c.html#a8cd6579fc3858072521e55ef235a2637" target="_top" xlink:title=" ">
<polygon fill="none" stroke="black" points="722,-256.5 722,-275.5 833,-275.5 833,-256.5 722,-256.5"/>
<text text-anchor="middle" x="777.5" y="-263.5" font-family="Helvetica,sans-Serif" font-size="10.00">research_node_env</text>
</a>
</g>
</g>
<!-- Node13&#45;&gt;Node14 -->
<g id="edge20" class="edge">
<title>Node13&#45;&gt;Node14</title>
<path fill="none" stroke="midnightblue" d="M686.17,-266C694.5,-266 703.06,-266 711.43,-266"/>
<polygon fill="midnightblue" stroke="midnightblue" points="711.52,-269.5 721.52,-266 711.52,-262.5 711.52,-269.5"/>
</g>
<!-- Node18&#45;&gt;Node3 -->
<g id="edge26" class="edge">
<title>Node18&#45;&gt;Node3</title>
<path fill="none" stroke="midnightblue" d="M199.66,-294.57C217.84,-302.63 245.55,-313.55 271,-318 317.38,-326.11 370.77,-321.27 409.86,-315.17"/>
<polygon fill="midnightblue" stroke="midnightblue" points="410.68,-318.58 419.99,-313.51 409.55,-311.67 410.68,-318.58"/>
</g>
</g>
</svg>
        <g id="navigator" transform="translate(0 0)" fill="#404254">
                <rect fill="#f2f5e9" fill-opacity="0.5" stroke="#606060" stroke-width=".5" x="0" y="0" width="60" height="60"/>
                <use id="zoomplus" xlink:href="#zoomPlus" x="17" y="9" onmousedown="handleZoom(evt,'in')"/>
                <use id="zoomminus" xlink:href="#zoomMin" x="42" y="9" onmousedown="handleZoom(evt,'out')"/>
                <use id="reset" xlink:href="#resetDef" x="30" y="36" onmousedown="handleReset()"/>
                <g id="arrowUp" xlink:href="#dirArrow" transform="translate(30 24)" onmousedown="handlePan(0,-1)">
                  <use xlink:href="#rim" fill="#404040">
                        <set attributeName="fill" to="#808080" begin="arrowUp.mouseover" end="arrowUp.mouseout"/>
                  </use>
                  <path fill="none" stroke="white" stroke-width="1.5" d="M0,-3.0v7 M-2.5,-0.5L0,-3.0L2.5,-0.5"/>
                </g>
                <g id="arrowRight" xlink:href="#dirArrow" transform="rotate(90) translate(36 -43)" onmousedown="handlePan(1,0)">
                  <use xlink:href="#rim" fill="#404040">
                        <set attributeName="fill" to="#808080" begin="arrowRight.mouseover" end="arrowRight.mouseout"/>
                  </use>
                  <path fill="none" stroke="white" stroke-width="1.5" d="M0,-3.0v7 M-2.5,-0.5L0,-3.0L2.5,-0.5"/>
                </g>
                <g id="arrowDown" xlink:href="#dirArrow" transform="rotate(180) translate(-30 -48)" onmousedown="handlePan(0,1)">
                  <use xlink:href="#rim" fill="#404040">
                        <set attributeName="fill" to="#808080" begin="arrowDown.mouseover" end="arrowDown.mouseout"/>
                  </use>
                  <path fill="none" stroke="white" stroke-width="1.5" d="M0,-3.0v7 M-2.5,-0.5L0,-3.0L2.5,-0.5"/>
                </g>
                <g id="arrowLeft" xlink:href="#dirArrow" transform="rotate(270) translate(-36 17)" onmousedown="handlePan(-1,0)">
                  <use xlink:href="#rim" fill="#404040">
                        <set attributeName="fill" to="#808080" begin="arrowLeft.mouseover" end="arrowLeft.mouseout"/>
                  </use>
                  <path fill="none" stroke="white" stroke-width="1.5" d="M0,-3.0v7 M-2.5,-0.5L0,-3.0L2.5,-0.5"/>
                </g>
        </g>
        <svg viewBox="0 0 15 15" width="100%" height="30px" preserveAspectRatio="xMaxYMin meet">
         <g id="arrow_out" transform="scale(0.3 0.3)">
          <a xlink:href="heredoc_8c_a0b4a5d07e8877b06b8977b47a6d51930_cgraph_org.svg" target="_base">
           <rect id="button" ry="5" rx="5" y="6" x="6" height="38" width="38"
                fill="#f2f5e9" fill-opacity="0.5" stroke="#606060" stroke-width="1.0"/>
           <path id="arrow"
             d="M 11.500037,31.436501 C 11.940474,20.09759 22.043105,11.32322 32.158766,21.979434 L 37.068811,17.246167 C 37.068811,17.246167 37.088388,32 37.088388,32 L 22.160133,31.978069 C 22.160133,31.978069 26.997745,27.140456 26.997745,27.140456 C 18.528582,18.264221 13.291696,25.230495 11.500037,31.436501 z"
             style="fill:#404040;"/>
          </a>
         </g>
        </svg>
</svg>
