<?xml version="1.0" encoding="UTF-8" standalone="no"?>
<!DOCTYPE svg PUBLIC "-//W3C//DTD SVG 1.1//EN"
 "http://www.w3.org/Graphics/SVG/1.1/DTD/svg11.dtd">
<!-- Generated by graphviz version 2.43.0 (0)
 -->
<!-- Title: close_fd_heredocs2 Pages: 1 -->
<svg width="846pt" height="85pt"
 viewBox="0.00 0.00 846.00 85.00" xmlns="http://www.w3.org/2000/svg" xmlns:xlink="http://www.w3.org/1999/xlink">
<g id="graph0" class="graph" transform="scale(1 1) rotate(0) translate(4 81)">
<title>close_fd_heredocs2</title>
<!-- Node1 -->
<g id="node1" class="node">
<title>Node1</title>
<g id="a_node1"><a xlink:title="allow us to close the file descriptors when we have fork() again the process">
<polygon fill="#bfbfbf" stroke="black" points="725,-38.5 725,-57.5 838,-57.5 838,-38.5 725,-38.5"/>
<text text-anchor="middle" x="781.5" y="-45.5" font-family="Helvetica,sans-Serif" font-size="10.00">close_fd_heredocs2</text>
</a>
</g>
</g>
<!-- Node2 -->
<g id="node2" class="node">
<title>Node2</title>
<g id="a_node2"><a xlink:href="heredoc_8c.html#a0b4a5d07e8877b06b8977b47a6d51930" target="_top" xlink:title="it&#39;s where we open the heredoc and start writing inside our pipe each time we check if it&#39;s the word ...">
<polygon fill="none" stroke="black" points="464,-38.5 464,-57.5 550,-57.5 550,-38.5 464,-38.5"/>
<text text-anchor="middle" x="507" y="-45.5" font-family="Helvetica,sans-Serif" font-size="10.00">heredoc_input</text>
</a>
</g>
</g>
<!-- Node1&#45;&gt;Node2 -->
<g id="edge1" class="edge">
<title>Node1&#45;&gt;Node2</title>
<path fill="none" stroke="midnightblue" d="M733.36,-59.71C719.19,-62.71 703.55,-65.51 689,-67 643.46,-71.68 631.45,-72.46 586,-67 570.5,-65.14 553.63,-61.27 539.56,-57.51"/>
<polygon fill="midnightblue" stroke="midnightblue" points="734.36,-63.07 743.37,-57.51 732.86,-56.24 734.36,-63.07"/>
</g>
<!-- Node8 -->
<g id="node8" class="node">
<title>Node8</title>
<g id="a_node8"><a xlink:href="heredoc_8c.html#aa11261ffe1d93fd87488514776e2df34" target="_top" xlink:title="function which allow me to do the loop to call GNL =&gt; there is also the management to leave with the ...">
<polygon fill="none" stroke="black" points="586,-38.5 586,-57.5 689,-57.5 689,-38.5 586,-38.5"/>
<text text-anchor="middle" x="637.5" y="-45.5" font-family="Helvetica,sans-Serif" font-size="10.00">read_gnl_heredoc</text>
</a>
</g>
</g>
<!-- Node1&#45;&gt;Node8 -->
<g id="edge8" class="edge">
<title>Node1&#45;&gt;Node8</title>
<path fill="none" stroke="midnightblue" d="M714.57,-48C706.12,-48 697.58,-48 689.43,-48"/>
<polygon fill="midnightblue" stroke="midnightblue" points="714.79,-51.5 724.79,-48 714.79,-44.5 714.79,-51.5"/>
</g>
<!-- Node9 -->
<g id="node9" class="node">
<title>Node9</title>
<g id="a_node9"><a xlink:href="heredoc_8c.html#a62f285b689f1045264be19c5467c1781" target="_top" xlink:title="origin of creation ; the norm what it is doing ? juste close the fd the right way if we encounter the...">
<polygon fill="none" stroke="black" points="594.5,-0.5 594.5,-19.5 680.5,-19.5 680.5,-0.5 594.5,-0.5"/>
<text text-anchor="middle" x="637.5" y="-7.5" font-family="Helvetica,sans-Serif" font-size="10.00">update_status</text>
</a>
</g>
</g>
<!-- Node1&#45;&gt;Node9 -->
<g id="edge10" class="edge">
<title>Node1&#45;&gt;Node9</title>
<path fill="none" stroke="midnightblue" d="M735.01,-35.83C715.37,-30.57 692.73,-24.51 674.32,-19.59"/>
<polygon fill="midnightblue" stroke="midnightblue" points="734.1,-39.21 744.67,-38.41 735.91,-32.44 734.1,-39.21"/>
</g>
<!-- Node3 -->
<g id="node3" class="node">
<title>Node3</title>
<g id="a_node3"><a xlink:href="heredoc_8c.html#a17337782f10170a6f2f9188bf557de0f" target="_top" xlink:title="the function will go through all the commands and check the redirection if we encounter a heredoc we ...">
<polygon fill="none" stroke="black" points="297,-38.5 297,-57.5 428,-57.5 428,-38.5 297,-38.5"/>
<text text-anchor="middle" x="362.5" y="-45.5" font-family="Helvetica,sans-Serif" font-size="10.00">here_doc_management</text>
</a>
</g>
</g>
<!-- Node2&#45;&gt;Node3 -->
<g id="edge2" class="edge">
<title>Node2&#45;&gt;Node3</title>
<path fill="none" stroke="midnightblue" d="M453.43,-48C445.2,-48 436.6,-48 428.14,-48"/>
<polygon fill="midnightblue" stroke="midnightblue" points="453.63,-51.5 463.63,-48 453.63,-44.5 453.63,-51.5"/>
</g>
<!-- Node4 -->
<g id="node4" class="node">
<title>Node4</title>
<g id="a_node4"><a xlink:href="multipipe_8c.html#aa4f1c217eeb689ecbc622baecd2c5dec" target="_top" xlink:title="management of the multipipe (= name when we have at least one pipe) First step is to manage the hered...">
<polygon fill="none" stroke="black" points="172,-57.5 172,-76.5 261,-76.5 261,-57.5 172,-57.5"/>
<text text-anchor="middle" x="216.5" y="-64.5" font-family="Helvetica,sans-Serif" font-size="10.00">multipipe_cmd</text>
</a>
</g>
</g>
<!-- Node3&#45;&gt;Node4 -->
<g id="edge3" class="edge">
<title>Node3&#45;&gt;Node4</title>
<path fill="none" stroke="midnightblue" d="M286.55,-57.89C277.93,-59.03 269.37,-60.16 261.36,-61.21"/>
<polygon fill="midnightblue" stroke="midnightblue" points="287.21,-61.33 296.66,-56.56 286.29,-54.39 287.21,-61.33"/>
</g>
<!-- Node7 -->
<g id="node7" class="node">
<title>Node7</title>
<g id="a_node7"><a xlink:href="execution_8c.html#a38335028b2bc7aa436f8f79a3753ce5e" target="_top" xlink:title="here we check if it&#39;s a builtin where we have to fork or not we still need to do the redirection veri...">
<polygon fill="none" stroke="black" points="172,-19.5 172,-38.5 261,-38.5 261,-19.5 172,-19.5"/>
<text text-anchor="middle" x="216.5" y="-26.5" font-family="Helvetica,sans-Serif" font-size="10.00">one_command</text>
</a>
</g>
</g>
<!-- Node3&#45;&gt;Node7 -->
<g id="edge6" class="edge">
<title>Node3&#45;&gt;Node7</title>
<path fill="none" stroke="midnightblue" d="M286.55,-38.11C277.93,-36.97 269.37,-35.84 261.36,-34.79"/>
<polygon fill="midnightblue" stroke="midnightblue" points="286.29,-41.61 296.66,-39.44 287.21,-34.67 286.29,-41.61"/>
</g>
<!-- Node5 -->
<g id="node5" class="node">
<title>Node5</title>
<g id="a_node5"><a xlink:href="execution_8c.html#a9542b61daba3eb4d45c8887c5648b2f6" target="_top" xlink:title="first function of the execution part when we have something to do we have to deal with two cases ; if...">
<polygon fill="none" stroke="black" points="77,-38.5 77,-57.5 136,-57.5 136,-38.5 77,-38.5"/>
<text text-anchor="middle" x="106.5" y="-45.5" font-family="Helvetica,sans-Serif" font-size="10.00">executor</text>
</a>
</g>
</g>
<!-- Node4&#45;&gt;Node5 -->
<g id="edge4" class="edge">
<title>Node4&#45;&gt;Node5</title>
<path fill="none" stroke="midnightblue" d="M161.88,-57.57C152.97,-56 144.05,-54.43 136.08,-53.03"/>
<polygon fill="midnightblue" stroke="midnightblue" points="161.43,-61.04 171.88,-59.33 162.64,-54.15 161.43,-61.04"/>
</g>
<!-- Node6 -->
<g id="node6" class="node">
<title>Node6</title>
<g id="a_node6"><a xlink:href="main_8c.html#a647f21a28344e1d9c643f4115516d7c9" target="_top" xlink:title=" ">
<polygon fill="none" stroke="black" points="0,-38.5 0,-57.5 41,-57.5 41,-38.5 0,-38.5"/>
<text text-anchor="middle" x="20.5" y="-45.5" font-family="Helvetica,sans-Serif" font-size="10.00">main</text>
</a>
</g>
</g>
<!-- Node5&#45;&gt;Node6 -->
<g id="edge5" class="edge">
<title>Node5&#45;&gt;Node6</title>
<path fill="none" stroke="midnightblue" d="M66.48,-48C57.72,-48 48.78,-48 41.21,-48"/>
<polygon fill="midnightblue" stroke="midnightblue" points="66.59,-51.5 76.59,-48 66.59,-44.5 66.59,-51.5"/>
</g>
<!-- Node7&#45;&gt;Node5 -->
<g id="edge7" class="edge">
<title>Node7&#45;&gt;Node5</title>
<path fill="none" stroke="midnightblue" d="M161.88,-38.43C152.97,-40 144.05,-41.57 136.08,-42.97"/>
<polygon fill="midnightblue" stroke="midnightblue" points="162.64,-41.85 171.88,-36.67 161.43,-34.96 162.64,-41.85"/>
</g>
<!-- Node8&#45;&gt;Node2 -->
<g id="edge9" class="edge">
<title>Node8&#45;&gt;Node2</title>
<path fill="none" stroke="midnightblue" d="M575.66,-48C567.03,-48 558.31,-48 550.14,-48"/>
<polygon fill="midnightblue" stroke="midnightblue" points="575.71,-51.5 585.71,-48 575.71,-44.5 575.71,-51.5"/>
</g>
<!-- Node9&#45;&gt;Node2 -->
<g id="edge11" class="edge">
<title>Node9&#45;&gt;Node2</title>
<path fill="none" stroke="midnightblue" d="M594.11,-22.54C576.63,-27.7 556.7,-33.6 540.42,-38.41"/>
<polygon fill="midnightblue" stroke="midnightblue" points="595.48,-25.78 604.07,-19.59 593.49,-19.07 595.48,-25.78"/>
</g>
</g>
</svg>
