<?xml version="1.0" encoding="UTF-8" standalone="no"?>
<!DOCTYPE svg PUBLIC "-//W3C//DTD SVG 1.1//EN"
 "http://www.w3.org/Graphics/SVG/1.1/DTD/svg11.dtd">
<!-- Generated by graphviz version 2.43.0 (0)
 -->
<!-- Title: child_work_heredoc Pages: 1 -->
<svg width="922pt" height="322pt"
 viewBox="0.00 0.00 922.00 322.00" xmlns="http://www.w3.org/2000/svg" xmlns:xlink="http://www.w3.org/1999/xlink">
<g id="graph0" class="graph" transform="scale(1 1) rotate(0) translate(4 318)">
<title>child_work_heredoc</title>
<!-- Node1 -->
<g id="node1" class="node">
<title>Node1</title>
<g id="a_node1"><a xlink:title="origin of creation ; the norm what it is doing ? juste close the fd the right way if we encounter the...">
<polygon fill="#bfbfbf" stroke="black" points="0,-133.5 0,-152.5 113,-152.5 113,-133.5 0,-133.5"/>
<text text-anchor="middle" x="56.5" y="-140.5" font-family="Helvetica,sans-Serif" font-size="10.00">child_work_heredoc</text>
</a>
</g>
</g>
<!-- Node2 -->
<g id="node2" class="node">
<title>Node2</title>
<g id="a_node2"><a xlink:href="heredoc_8c.html#a3e1410633d8c1ad5b1441509a020b0d4" target="_top" xlink:title="allow us to close the file descriptors when we have fork() again the process">
<polygon fill="none" stroke="black" points="288,-228.5 288,-247.5 401,-247.5 401,-228.5 288,-228.5"/>
<text text-anchor="middle" x="344.5" y="-235.5" font-family="Helvetica,sans-Serif" font-size="10.00">close_fd_heredocs2</text>
</a>
</g>
</g>
<!-- Node1&#45;&gt;Node2 -->
<g id="edge1" class="edge">
<title>Node1&#45;&gt;Node2</title>
<path fill="none" stroke="midnightblue" d="M69.1,-152.64C85.71,-165.91 117.73,-189.59 149,-202 190.17,-218.34 239.22,-227.35 277.77,-232.28"/>
<polygon fill="midnightblue" stroke="midnightblue" points="277.49,-235.77 287.84,-233.5 278.33,-228.82 277.49,-235.77"/>
</g>
<!-- Node3 -->
<g id="node3" class="node">
<title>Node3</title>
<g id="a_node3"><a xlink:href="utils_8c.html#a1bca6910c90a19d96b36506a2e2cebf6" target="_top" xlink:title="as fd are all setup to &#45;1 at the beginning we check if they are open before trying to close we avoid ...">
<polygon fill="none" stroke="black" points="845,-228.5 845,-247.5 914,-247.5 914,-228.5 845,-228.5"/>
<text text-anchor="middle" x="879.5" y="-235.5" font-family="Helvetica,sans-Serif" font-size="10.00">ft_close_fd</text>
</a>
</g>
</g>
<!-- Node1&#45;&gt;Node3 -->
<g id="edge11" class="edge">
<title>Node1&#45;&gt;Node3</title>
<path fill="none" stroke="midnightblue" d="M65.76,-152.68C97.58,-188.86 216.81,-314 343.5,-314 343.5,-314 343.5,-314 656.5,-314 731.55,-314 813.55,-274.64 853.63,-252.57"/>
<polygon fill="midnightblue" stroke="midnightblue" points="855.44,-255.57 862.44,-247.63 852.01,-249.47 855.44,-255.57"/>
</g>
<!-- Node4 -->
<g id="node4" class="node">
<title>Node4</title>
<g id="a_node4"><a xlink:href="lst__cmd2_8c.html#a132395876bb5a7cfe926b9e37571a1e3" target="_top" xlink:title=" ">
<polygon fill="none" stroke="black" points="298.5,-190.5 298.5,-209.5 390.5,-209.5 390.5,-190.5 298.5,-190.5"/>
<text text-anchor="middle" x="344.5" y="-197.5" font-family="Helvetica,sans-Serif" font-size="10.00">destructor_cmd</text>
</a>
</g>
</g>
<!-- Node1&#45;&gt;Node4 -->
<g id="edge3" class="edge">
<title>Node1&#45;&gt;Node4</title>
<path fill="none" stroke="midnightblue" d="M75.87,-152.54C93.96,-161.47 122.64,-174.39 149,-181 195.07,-192.54 248.92,-197.14 288.26,-198.94"/>
<polygon fill="midnightblue" stroke="midnightblue" points="288.31,-202.45 298.44,-199.36 288.59,-195.45 288.31,-202.45"/>
</g>
<!-- Node8 -->
<g id="node8" class="node">
<title>Node8</title>
<g id="a_node8"><a xlink:href="lst__env_8c.html#a226ae0aa054e697998b2ecbc5d61d592" target="_top" xlink:title=" ">
<polygon fill="none" stroke="black" points="300,-76.5 300,-95.5 389,-95.5 389,-76.5 300,-76.5"/>
<text text-anchor="middle" x="344.5" y="-83.5" font-family="Helvetica,sans-Serif" font-size="10.00">destructor_env</text>
</a>
</g>
</g>
<!-- Node1&#45;&gt;Node8 -->
<g id="edge9" class="edge">
<title>Node1&#45;&gt;Node8</title>
<path fill="none" stroke="midnightblue" d="M107.1,-133.48C146.42,-125.89 202.76,-114.92 252,-105 264.3,-102.52 277.52,-99.81 289.98,-97.22"/>
<polygon fill="midnightblue" stroke="midnightblue" points="290.69,-100.65 299.77,-95.19 289.27,-93.8 290.69,-100.65"/>
</g>
<!-- Node10 -->
<g id="node10" class="node">
<title>Node10</title>
<g id="a_node10"><a xlink:href="heredoc_8c.html#aa11261ffe1d93fd87488514776e2df34" target="_top" xlink:title=" ">
<polygon fill="none" stroke="black" points="149,-152.5 149,-171.5 252,-171.5 252,-152.5 149,-152.5"/>
<text text-anchor="middle" x="200.5" y="-159.5" font-family="Helvetica,sans-Serif" font-size="10.00">read_gnl_heredoc</text>
</a>
</g>
</g>
<!-- Node1&#45;&gt;Node10 -->
<g id="edge12" class="edge">
<title>Node1&#45;&gt;Node10</title>
<path fill="none" stroke="midnightblue" d="M113.21,-150.45C121.5,-151.56 130.08,-152.71 138.47,-153.83"/>
<polygon fill="midnightblue" stroke="midnightblue" points="138.2,-157.33 148.57,-155.19 139.12,-150.39 138.2,-157.33"/>
</g>
<!-- Node14 -->
<g id="node14" class="node">
<title>Node14</title>
<g id="a_node14"><a xlink:href="ctl_8c.html#a4fd8e3642e456e9a2f7fe4dc8f44ad43" target="_top" xlink:title="remove the echoctl which are the symbol which appears when you press CTRL+C or CTRL+\ it&#39;s different ...">
<polygon fill="none" stroke="black" points="153,-76.5 153,-95.5 248,-95.5 248,-76.5 153,-76.5"/>
<text text-anchor="middle" x="200.5" y="-83.5" font-family="Helvetica,sans-Serif" font-size="10.00">remove_echoctl</text>
</a>
</g>
</g>
<!-- Node1&#45;&gt;Node14 -->
<g id="edge20" class="edge">
<title>Node1&#45;&gt;Node14</title>
<path fill="none" stroke="midnightblue" d="M81.27,-133.46C104.51,-124.13 140.11,-109.84 166.18,-99.38"/>
<polygon fill="midnightblue" stroke="midnightblue" points="167.68,-102.54 175.65,-95.57 165.07,-96.05 167.68,-102.54"/>
</g>
<!-- Node15 -->
<g id="node15" class="node">
<title>Node15</title>
<g id="a_node15"><a xlink:href="signals_8c.html#a7ea78f2f2215fe1ed765af80a1b2893d" target="_top" xlink:title="allow us to warn the process child heredoc it&#39;s time to stop and close the file descriptor">
<polygon fill="none" stroke="black" points="156.5,-38.5 156.5,-57.5 244.5,-57.5 244.5,-38.5 156.5,-38.5"/>
<text text-anchor="middle" x="200.5" y="-45.5" font-family="Helvetica,sans-Serif" font-size="10.00">sigint_heredoc</text>
</a>
</g>
</g>
<!-- Node1&#45;&gt;Node15 -->
<g id="edge21" class="edge">
<title>Node1&#45;&gt;Node15</title>
<path fill="none" stroke="midnightblue" d="M66.83,-133.39C82.54,-117.68 115.79,-86.3 149,-67 152.41,-65.02 156.07,-63.17 159.79,-61.48"/>
<polygon fill="midnightblue" stroke="midnightblue" points="161.24,-64.66 169.1,-57.56 158.53,-58.21 161.24,-64.66"/>
</g>
<!-- Node16 -->
<g id="node16" class="node">
<title>Node16</title>
<g id="a_node16"><a xlink:href="signals_8c.html#a368a774e2b304a3de55f58168563967d" target="_top" xlink:title=" ">
<polygon fill="none" stroke="black" points="154.5,-0.5 154.5,-19.5 246.5,-19.5 246.5,-0.5 154.5,-0.5"/>
<text text-anchor="middle" x="200.5" y="-7.5" font-family="Helvetica,sans-Serif" font-size="10.00">sigquit_handler</text>
</a>
</g>
</g>
<!-- Node1&#45;&gt;Node16 -->
<g id="edge22" class="edge">
<title>Node1&#45;&gt;Node16</title>
<path fill="none" stroke="midnightblue" d="M62.82,-133.3C75.17,-111.61 107.9,-58.79 149,-29 151.53,-27.16 154.27,-25.48 157.11,-23.95"/>
<polygon fill="midnightblue" stroke="midnightblue" points="158.87,-26.98 166.41,-19.53 155.87,-20.66 158.87,-26.98"/>
</g>
<!-- Node2&#45;&gt;Node3 -->
<g id="edge2" class="edge">
<title>Node2&#45;&gt;Node3</title>
<path fill="none" stroke="midnightblue" d="M401.02,-239.82C478.49,-242.26 623.42,-246.46 747,-248 774.55,-248.34 781.51,-249.97 809,-248 817.3,-247.41 826.11,-246.42 834.58,-245.29"/>
<polygon fill="midnightblue" stroke="midnightblue" points="835.26,-248.73 844.67,-243.86 834.28,-241.8 835.26,-248.73"/>
</g>
<!-- Node5 -->
<g id="node5" class="node">
<title>Node5</title>
<g id="a_node5"><a xlink:href="lst__cmd2_8c.html#a8e2b63759f149b547e0d07f210ede9b3" target="_top" xlink:title=" ">
<polygon fill="none" stroke="black" points="470,-190.5 470,-209.5 531,-209.5 531,-190.5 470,-190.5"/>
<text text-anchor="middle" x="500.5" y="-197.5" font-family="Helvetica,sans-Serif" font-size="10.00">pop_cmd</text>
</a>
</g>
</g>
<!-- Node4&#45;&gt;Node5 -->
<g id="edge4" class="edge">
<title>Node4&#45;&gt;Node5</title>
<path fill="none" stroke="midnightblue" d="M390.87,-200C412.73,-200 438.71,-200 459.77,-200"/>
<polygon fill="midnightblue" stroke="midnightblue" points="459.99,-203.5 469.99,-200 459.99,-196.5 459.99,-203.5"/>
</g>
<!-- Node5&#45;&gt;Node3 -->
<g id="edge8" class="edge">
<title>Node5&#45;&gt;Node3</title>
<path fill="none" stroke="midnightblue" d="M531.09,-206.69C550.57,-210.85 576.68,-215.97 600,-219 682.62,-229.75 779.87,-234.63 834.85,-236.68"/>
<polygon fill="midnightblue" stroke="midnightblue" points="834.81,-240.18 844.93,-237.04 835.06,-233.18 834.81,-240.18"/>
</g>
<!-- Node6 -->
<g id="node6" class="node">
<title>Node6</title>
<g id="a_node6"><a xlink:href="lst__redir2_8c.html#a30ccaf401a4f897e48ead5fe54f4b307" target="_top" xlink:title=" ">
<polygon fill="none" stroke="black" points="608.5,-190.5 608.5,-209.5 702.5,-209.5 702.5,-190.5 608.5,-190.5"/>
<text text-anchor="middle" x="655.5" y="-197.5" font-family="Helvetica,sans-Serif" font-size="10.00">destructor_redir</text>
</a>
</g>
</g>
<!-- Node5&#45;&gt;Node6 -->
<g id="edge5" class="edge">
<title>Node5&#45;&gt;Node6</title>
<path fill="none" stroke="midnightblue" d="M531.36,-200C550.37,-200 575.58,-200 598.24,-200"/>
<polygon fill="midnightblue" stroke="midnightblue" points="598.44,-203.5 608.44,-200 598.44,-196.5 598.44,-203.5"/>
</g>
<!-- Node7 -->
<g id="node7" class="node">
<title>Node7</title>
<g id="a_node7"><a xlink:href="lst__redir2_8c.html#ade8f0bdda51d9bf348ebeb38fefba881" target="_top" xlink:title=" ">
<polygon fill="none" stroke="black" points="747,-190.5 747,-209.5 809,-209.5 809,-190.5 747,-190.5"/>
<text text-anchor="middle" x="778" y="-197.5" font-family="Helvetica,sans-Serif" font-size="10.00">pop_redir</text>
</a>
</g>
</g>
<!-- Node6&#45;&gt;Node7 -->
<g id="edge6" class="edge">
<title>Node6&#45;&gt;Node7</title>
<path fill="none" stroke="midnightblue" d="M702.74,-200C713.91,-200 725.75,-200 736.63,-200"/>
<polygon fill="midnightblue" stroke="midnightblue" points="736.7,-203.5 746.7,-200 736.7,-196.5 736.7,-203.5"/>
</g>
<!-- Node7&#45;&gt;Node3 -->
<g id="edge7" class="edge">
<title>Node7&#45;&gt;Node3</title>
<path fill="none" stroke="midnightblue" d="M804.11,-209.59C816.13,-214.18 830.71,-219.75 843.78,-224.74"/>
<polygon fill="midnightblue" stroke="midnightblue" points="842.81,-228.12 853.4,-228.41 845.31,-221.58 842.81,-228.12"/>
</g>
<!-- Node9 -->
<g id="node9" class="node">
<title>Node9</title>
<g id="a_node9"><a xlink:href="lst__env_8c.html#a058c245b5f2ef22f9d2659f90e4d3537" target="_top" xlink:title=" ">
<polygon fill="none" stroke="black" points="471.5,-76.5 471.5,-95.5 529.5,-95.5 529.5,-76.5 471.5,-76.5"/>
<text text-anchor="middle" x="500.5" y="-83.5" font-family="Helvetica,sans-Serif" font-size="10.00">pop_env</text>
</a>
</g>
</g>
<!-- Node8&#45;&gt;Node9 -->
<g id="edge10" class="edge">
<title>Node8&#45;&gt;Node9</title>
<path fill="none" stroke="midnightblue" d="M389.22,-86C411.84,-86 439.2,-86 461.02,-86"/>
<polygon fill="midnightblue" stroke="midnightblue" points="461.23,-89.5 471.23,-86 461.23,-82.5 461.23,-89.5"/>
</g>
<!-- Node10&#45;&gt;Node2 -->
<g id="edge13" class="edge">
<title>Node10&#45;&gt;Node2</title>
<path fill="none" stroke="midnightblue" d="M213.79,-171.55C230.04,-183.84 259.91,-205.21 288,-219 292.34,-221.13 296.98,-223.13 301.67,-224.96"/>
<polygon fill="midnightblue" stroke="midnightblue" points="300.65,-228.32 311.24,-228.5 303.07,-221.75 300.65,-228.32"/>
</g>
<!-- Node10&#45;&gt;Node3 -->
<g id="edge16" class="edge">
<title>Node10&#45;&gt;Node3</title>
<path fill="none" stroke="midnightblue" d="M252.12,-162C311.41,-162 412.58,-162 499.5,-162 499.5,-162 499.5,-162 656.5,-162 724.8,-162 746.24,-154.06 809,-181 830.14,-190.07 849.98,-207.6 863,-220.83"/>
<polygon fill="midnightblue" stroke="midnightblue" points="860.76,-223.55 870.18,-228.4 865.84,-218.74 860.76,-223.55"/>
</g>
<!-- Node10&#45;&gt;Node4 -->
<g id="edge14" class="edge">
<title>Node10&#45;&gt;Node4</title>
<path fill="none" stroke="midnightblue" d="M237.33,-171.59C255.66,-176.49 278.18,-182.52 297.75,-187.76"/>
<polygon fill="midnightblue" stroke="midnightblue" points="297.11,-191.21 307.68,-190.41 298.92,-184.45 297.11,-191.21"/>
</g>
<!-- Node10&#45;&gt;Node8 -->
<g id="edge15" class="edge">
<title>Node10&#45;&gt;Node8</title>
<path fill="none" stroke="midnightblue" d="M225.42,-152.4C234.1,-148.47 243.79,-143.53 252,-138 270,-125.87 269.34,-116.08 288,-105 291.45,-102.95 295.15,-101.09 298.94,-99.39"/>
<polygon fill="midnightblue" stroke="midnightblue" points="300.52,-102.53 308.47,-95.53 297.89,-96.04 300.52,-102.53"/>
</g>
<!-- Node11 -->
<g id="node11" class="node">
<title>Node11</title>
<g id="a_node11"><a xlink:href="heredoc2_8c.html#a62cf028a22b96be266416a01e88726f0" target="_top" xlink:title="function to write on the heredoc file depending if we have a $ sign or not we write or we expand">
<polygon fill="none" stroke="black" points="294,-114.5 294,-133.5 395,-133.5 395,-114.5 294,-114.5"/>
<text text-anchor="middle" x="344.5" y="-121.5" font-family="Helvetica,sans-Serif" font-size="10.00">write_to_heredoc</text>
</a>
</g>
</g>
<!-- Node10&#45;&gt;Node11 -->
<g id="edge17" class="edge">
<title>Node10&#45;&gt;Node11</title>
<path fill="none" stroke="midnightblue" d="M237.33,-152.41C255.66,-147.51 278.18,-141.48 297.75,-136.24"/>
<polygon fill="midnightblue" stroke="midnightblue" points="298.92,-139.55 307.68,-133.59 297.11,-132.79 298.92,-139.55"/>
</g>
<!-- Node12 -->
<g id="node12" class="node">
<title>Node12</title>
<g id="a_node12"><a xlink:href="heredoc2_8c.html#a2a5c565389701ca49d867d3746245106" target="_top" xlink:title=" ">
<polygon fill="none" stroke="black" points="437,-114.5 437,-133.5 564,-133.5 564,-114.5 437,-114.5"/>
<text text-anchor="middle" x="500.5" y="-121.5" font-family="Helvetica,sans-Serif" font-size="10.00">write_heredoc_expand</text>
</a>
</g>
</g>
<!-- Node11&#45;&gt;Node12 -->
<g id="edge18" class="edge">
<title>Node11&#45;&gt;Node12</title>
<path fill="none" stroke="midnightblue" d="M395.07,-124C405.14,-124 415.92,-124 426.59,-124"/>
<polygon fill="midnightblue" stroke="midnightblue" points="426.77,-127.5 436.77,-124 426.77,-120.5 426.77,-127.5"/>
</g>
<!-- Node13 -->
<g id="node13" class="node">
<title>Node13</title>
<g id="a_node13"><a xlink:href="lst__env__two_8c.html#a8cd6579fc3858072521e55ef235a2637" target="_top" xlink:title=" ">
<polygon fill="none" stroke="black" points="600,-114.5 600,-133.5 711,-133.5 711,-114.5 600,-114.5"/>
<text text-anchor="middle" x="655.5" y="-121.5" font-family="Helvetica,sans-Serif" font-size="10.00">research_node_env</text>
</a>
</g>
</g>
<!-- Node12&#45;&gt;Node13 -->
<g id="edge19" class="edge">
<title>Node12&#45;&gt;Node13</title>
<path fill="none" stroke="midnightblue" d="M564.17,-124C572.5,-124 581.06,-124 589.43,-124"/>
<polygon fill="midnightblue" stroke="midnightblue" points="589.52,-127.5 599.52,-124 589.52,-120.5 589.52,-127.5"/>
</g>
</g>
</svg>
