<?xml version="1.0" encoding="UTF-8" standalone="no"?>
<!DOCTYPE svg PUBLIC "-//W3C//DTD SVG 1.1//EN"
 "http://www.w3.org/Graphics/SVG/1.1/DTD/svg11.dtd">
<!-- Generated by graphviz version 2.43.0 (0)
 -->
<!-- Title: update_status Pages: 1 -->
<svg width="348pt" height="47pt"
 viewBox="0.00 0.00 348.00 47.00" xmlns="http://www.w3.org/2000/svg" xmlns:xlink="http://www.w3.org/1999/xlink">
<g id="graph0" class="graph" transform="scale(1 1) rotate(0) translate(4 43)">
<title>update_status</title>
<!-- Node1 -->
<g id="node1" class="node">
<title>Node1</title>
<g id="a_node1"><a xlink:title="origin of creation ; the norm what it is doing ? juste close the fd the right way if we encounter the...">
<polygon fill="#bfbfbf" stroke="black" points="0,-0.5 0,-19.5 86,-19.5 86,-0.5 0,-0.5"/>
<text text-anchor="middle" x="43" y="-7.5" font-family="Helvetica,sans-Serif" font-size="10.00">update_status</text>
</a>
</g>
</g>
<!-- Node2 -->
<g id="node2" class="node">
<title>Node2</title>
<g id="a_node2"><a xlink:href="heredoc_8c.html#a3e1410633d8c1ad5b1441509a020b0d4" target="_top" xlink:title="allow us to close the file descriptors when we have fork() again the process">
<polygon fill="none" stroke="black" points="122,-19.5 122,-38.5 235,-38.5 235,-19.5 122,-19.5"/>
<text text-anchor="middle" x="178.5" y="-26.5" font-family="Helvetica,sans-Serif" font-size="10.00">close_fd_heredocs2</text>
</a>
</g>
</g>
<!-- Node1&#45;&gt;Node2 -->
<g id="edge1" class="edge">
<title>Node1&#45;&gt;Node2</title>
<path fill="none" stroke="midnightblue" d="M86.24,-16.01C94.37,-17.17 103.05,-18.4 111.72,-19.64"/>
<polygon fill="midnightblue" stroke="midnightblue" points="111.46,-23.14 121.85,-21.08 112.44,-16.21 111.46,-23.14"/>
</g>
<!-- Node3 -->
<g id="node3" class="node">
<title>Node3</title>
<g id="a_node3"><a xlink:href="redirection__multipipe_8c.html#a1bca6910c90a19d96b36506a2e2cebf6" target="_top" xlink:title="as fd are all setup to &#45;1 at the beginning we check if they are open before trying to close we avoid ...">
<polygon fill="none" stroke="black" points="271,-0.5 271,-19.5 340,-19.5 340,-0.5 271,-0.5"/>
<text text-anchor="middle" x="305.5" y="-7.5" font-family="Helvetica,sans-Serif" font-size="10.00">ft_close_fd</text>
</a>
</g>
</g>
<!-- Node1&#45;&gt;Node3 -->
<g id="edge3" class="edge">
<title>Node1&#45;&gt;Node3</title>
<path fill="none" stroke="midnightblue" d="M86.14,-10C134.04,-10 211.85,-10 260.5,-10"/>
<polygon fill="midnightblue" stroke="midnightblue" points="260.71,-13.5 270.71,-10 260.71,-6.5 260.71,-13.5"/>
</g>
<!-- Node2&#45;&gt;Node3 -->
<g id="edge2" class="edge">
<title>Node2&#45;&gt;Node3</title>
<path fill="none" stroke="midnightblue" d="M235.05,-20.56C243.77,-19.23 252.67,-17.88 261.06,-16.6"/>
<polygon fill="midnightblue" stroke="midnightblue" points="261.63,-20.06 270.99,-15.09 260.58,-13.14 261.63,-20.06"/>
</g>
</g>
</svg>
