<?xml version="1.0" encoding="UTF-8" standalone="no"?>
<!DOCTYPE svg PUBLIC "-//W3C//DTD SVG 1.1//EN"
 "http://www.w3.org/Graphics/SVG/1.1/DTD/svg11.dtd">
<!-- Generated by graphviz version 2.43.0 (0)
 -->
<!-- Title: lexer Pages: 1 -->
<!--zoomable 465 -->
<svg id="main" version="1.1" xmlns="http://www.w3.org/2000/svg" xmlns:xlink="http://www.w3.org/1999/xlink" xml:space="preserve" onload="init(evt)">
<style type="text/css"><![CDATA[
.edge:hover path { stroke: red; }
.edge:hover polygon { stroke: red; fill: red; }
]]></style>
<script type="text/javascript"><![CDATA[
var edges = document.getElementsByTagName('g');
if (edges && edges.length) {
  for (var i=0;i<edges.length;i++) {
    if (edges[i].id.substr(0,4)=='edge') {
      edges[i].setAttribute('class','edge');
    }
  }
}
]]></script>
        <defs>
                <circle id="rim" cx="0" cy="0" r="7"/>
                <circle id="rim2" cx="0" cy="0" r="3.5"/>
                <g id="zoomPlus">
                        <use xlink:href="#rim" fill="#404040">
                                <set attributeName="fill" to="#808080" begin="zoomplus.mouseover" end="zoomplus.mouseout"/>
                        </use>
                        <path d="M-4,0h8M0,-4v8" fill="none" stroke="white" stroke-width="1.5" pointer-events="none"/>
                </g>
                <g id="zoomMin">
                        <use xlink:href="#rim" fill="#404040">
                                <set attributeName="fill" to="#808080" begin="zoomminus.mouseover" end="zoomminus.mouseout"/>
                        </use>
                        <path d="M-4,0h8" fill="none" stroke="white" stroke-width="1.5" pointer-events="none"/>
                </g>
                <g id="dirArrow">
                        <path fill="none" stroke="white" stroke-width="1.5" d="M0,-3.0v7 M-2.5,-0.5L0,-3.0L2.5,-0.5"/>
                </g>
               <g id="resetDef">
                       <use xlink:href="#rim2" fill="#404040">
                               <set attributeName="fill" to="#808080" begin="reset.mouseover" end="reset.mouseout"/>
                       </use>
               </g>
        </defs>

<script type="text/javascript">
var viewWidth = 503;
var viewHeight = 465;
var sectionId = 'dynsection-4';
</script>
<script xlink:href="svgpan.js"/>
<svg id="graph" class="graph">
<g id="viewport">
<title>lexer</title>
<!-- Node1 -->
<g id="node1" class="node">
<title>Node1</title>
<g id="a_node1"><a xlink:title="Global lexing function, that traverses readline&#39;s string and separate in tokens.">
<polygon fill="#bfbfbf" stroke="black" points="0,-114.5 0,-133.5 41,-133.5 41,-114.5 0,-114.5"/>
<text text-anchor="middle" x="20.5" y="-121.5" font-family="Helvetica,sans-Serif" font-size="10.00">lexer</text>
</a>
</g>
</g>
<!-- Node2 -->
<g id="node2" class="node">
<title>Node2</title>
<g id="a_node2"><a xlink:href="token__utils_8c.html#abe4c47d3831fc3c644e4b78391dfa502" target="_top" xlink:title="Method of append is a linked list with pointers.">
<polygon fill="none" stroke="black" points="77,-304.5 77,-323.5 162,-323.5 162,-304.5 77,-304.5"/>
<text text-anchor="middle" x="119.5" y="-311.5" font-family="Helvetica,sans-Serif" font-size="10.00">append_token</text>
</a>
</g>
</g>
<!-- Node1&#45;&gt;Node2 -->
<g id="edge1" class="edge">
<title>Node1&#45;&gt;Node2</title>
<path fill="none" stroke="midnightblue" d="M22.36,-133.76C25.26,-161.29 36.84,-240.8 77,-290 79.72,-293.34 83.04,-296.31 86.6,-298.92"/>
<polygon fill="midnightblue" stroke="midnightblue" points="84.87,-301.96 95.19,-304.37 88.63,-296.06 84.87,-301.96"/>
</g>
<!-- Node3 -->
<g id="node3" class="node">
<title>Node3</title>
<g id="a_node3"><a xlink:href="lexer_8c.html#a36667927c23670d83624ca9049adfc2d" target="_top" xlink:title="Check if the char is one of the possible operator, currently &#39;&lt;&#39;, &#39;&gt;&#39; or &#39;|&#39;.">
<polygon fill="none" stroke="black" points="217.5,-437.5 217.5,-456.5 315.5,-456.5 315.5,-437.5 217.5,-437.5"/>
<text text-anchor="middle" x="266.5" y="-444.5" font-family="Helvetica,sans-Serif" font-size="10.00">is_char_operator</text>
</a>
</g>
</g>
<!-- Node1&#45;&gt;Node3 -->
<g id="edge2" class="edge">
<title>Node1&#45;&gt;Node3</title>
<path fill="none" stroke="midnightblue" d="M23.03,-133.71C27.28,-157.7 41.36,-220.46 77,-257 105.89,-286.63 135.11,-263.55 162,-295 201.79,-341.55 154.92,-384.48 198,-428 201.04,-431.07 204.52,-433.65 208.28,-435.82"/>
<polygon fill="midnightblue" stroke="midnightblue" points="206.92,-439.05 217.45,-440.18 209.92,-432.72 206.92,-439.05"/>
</g>
<!-- Node4 -->
<g id="node4" class="node">
<title>Node4</title>
<g id="a_node4"><a xlink:href="lexer__utils_8c.html#a5226e7cc8fd04bded427425b8bee4439" target="_top" xlink:title="Initialize t_lexer.">
<polygon fill="none" stroke="black" points="93,-0.5 93,-19.5 146,-19.5 146,-0.5 93,-0.5"/>
<text text-anchor="middle" x="119.5" y="-7.5" font-family="Helvetica,sans-Serif" font-size="10.00">lex_init</text>
</a>
</g>
</g>
<!-- Node1&#45;&gt;Node4 -->
<g id="edge3" class="edge">
<title>Node1&#45;&gt;Node4</title>
<path fill="none" stroke="midnightblue" d="M24.86,-114.36C31.82,-95.6 49.53,-53.87 77,-29 79.15,-27.06 81.53,-25.28 84.03,-23.66"/>
<polygon fill="midnightblue" stroke="midnightblue" points="85.81,-26.68 92.86,-18.77 82.41,-20.56 85.81,-26.68"/>
</g>
<!-- Node5 -->
<g id="node5" class="node">
<title>Node5</title>
<g id="a_node5"><a xlink:href="lexer_8c.html#a4224de0ac9d722a19a477ae2880f54da" target="_top" xlink:title="Make the operator in the global string a token.">
<polygon fill="none" stroke="black" points="80.5,-76.5 80.5,-95.5 158.5,-95.5 158.5,-76.5 80.5,-76.5"/>
<text text-anchor="middle" x="119.5" y="-83.5" font-family="Helvetica,sans-Serif" font-size="10.00">lex_operator</text>
</a>
</g>
</g>
<!-- Node1&#45;&gt;Node5 -->
<g id="edge4" class="edge">
<title>Node1&#45;&gt;Node5</title>
<path fill="none" stroke="midnightblue" d="M41.13,-116.31C53.54,-111.45 69.93,-105.03 84.42,-99.35"/>
<polygon fill="midnightblue" stroke="midnightblue" points="86.04,-102.47 94.08,-95.57 83.49,-95.96 86.04,-102.47"/>
</g>
<!-- Node7 -->
<g id="node7" class="node">
<title>Node7</title>
<g id="a_node7"><a xlink:href="token__utils_8c.html#a583251578e050c27ff17b5c7b40c8eef" target="_top" xlink:title="Build a token.">
<polygon fill="none" stroke="black" points="228.5,-95.5 228.5,-114.5 304.5,-114.5 304.5,-95.5 228.5,-95.5"/>
<text text-anchor="middle" x="266.5" y="-102.5" font-family="Helvetica,sans-Serif" font-size="10.00">make_token</text>
</a>
</g>
</g>
<!-- Node1&#45;&gt;Node7 -->
<g id="edge29" class="edge">
<title>Node1&#45;&gt;Node7</title>
<path fill="none" stroke="midnightblue" d="M41.06,-122.48C79.2,-119.51 164.48,-112.87 218.24,-108.68"/>
<polygon fill="midnightblue" stroke="midnightblue" points="218.53,-112.17 228.23,-107.9 217.99,-105.19 218.53,-112.17"/>
</g>
<!-- Node9 -->
<g id="node9" class="node">
<title>Node9</title>
<g id="a_node9"><a xlink:href="lexer__word_8c.html#a4093905b7d1dfe02710752ee5da8fe01" target="_top" xlink:title="Lexes the string to create a WORD token.">
<polygon fill="none" stroke="black" points="89,-228.5 89,-247.5 150,-247.5 150,-228.5 89,-228.5"/>
<text text-anchor="middle" x="119.5" y="-235.5" font-family="Helvetica,sans-Serif" font-size="10.00">lex_word</text>
</a>
</g>
</g>
<!-- Node1&#45;&gt;Node9 -->
<g id="edge8" class="edge">
<title>Node1&#45;&gt;Node9</title>
<path fill="none" stroke="midnightblue" d="M29.77,-133.72C46.16,-152.99 82.98,-196.25 103.67,-220.57"/>
<polygon fill="midnightblue" stroke="midnightblue" points="101.1,-222.96 110.25,-228.31 106.44,-218.42 101.1,-222.96"/>
</g>
<!-- Node18 -->
<g id="node18" class="node">
<title>Node18</title>
<g id="a_node18"><a xlink:href="lexer__utils_8c.html#a0665b31ffb5665ad2a085f2b1a5e0e25" target="_top" xlink:title="Skip whitespaces in the t_lexer struct.">
<polygon fill="none" stroke="black" points="77.5,-38.5 77.5,-57.5 161.5,-57.5 161.5,-38.5 77.5,-38.5"/>
<text text-anchor="middle" x="119.5" y="-45.5" font-family="Helvetica,sans-Serif" font-size="10.00">skip_wspaces</text>
</a>
</g>
</g>
<!-- Node1&#45;&gt;Node18 -->
<g id="edge30" class="edge">
<title>Node1&#45;&gt;Node18</title>
<path fill="none" stroke="midnightblue" d="M28.89,-114.46C38.78,-102.2 57.36,-80.85 77,-67 79.37,-65.33 81.91,-63.75 84.52,-62.27"/>
<polygon fill="midnightblue" stroke="midnightblue" points="86.25,-65.31 93.54,-57.62 83.04,-59.09 86.25,-65.31"/>
</g>
<!-- Node6 -->
<g id="node6" class="node">
<title>Node6</title>
<g id="a_node6"><a xlink:href="lexer__utils_8c.html#a6b132516dacc9599762b1fe7341a0f04" target="_top" xlink:title="Advance one byte in the struct t_lexer to keep track of progress.">
<polygon fill="none" stroke="black" points="404,-171.5 404,-190.5 462,-190.5 462,-171.5 404,-171.5"/>
<text text-anchor="middle" x="433" y="-178.5" font-family="Helvetica,sans-Serif" font-size="10.00">advance</text>
</a>
</g>
</g>
<!-- Node5&#45;&gt;Node6 -->
<g id="edge5" class="edge">
<title>Node5&#45;&gt;Node6</title>
<path fill="none" stroke="midnightblue" d="M141.83,-76.4C162.7,-67.08 192.2,-54.18 198,-53 257.66,-40.83 280.47,-25.91 335,-53 381.01,-75.86 411.04,-132.13 424.26,-161.87"/>
<polygon fill="midnightblue" stroke="midnightblue" points="421.09,-163.36 428.23,-171.18 427.53,-160.61 421.09,-163.36"/>
</g>
<!-- Node5&#45;&gt;Node7 -->
<g id="edge6" class="edge">
<title>Node5&#45;&gt;Node7</title>
<path fill="none" stroke="midnightblue" d="M158.6,-90.99C176.81,-93.38 198.78,-96.26 218.06,-98.78"/>
<polygon fill="midnightblue" stroke="midnightblue" points="217.79,-102.28 228.16,-100.11 218.7,-95.34 217.79,-102.28"/>
</g>
<!-- Node8 -->
<g id="node8" class="node">
<title>Node8</title>
<g id="a_node8"><a xlink:href="lexer__utils_8c.html#a855a36981b55d317a52d24560c0809bf" target="_top" xlink:title="&quot;Peek&quot;, Look at the next character in the input string">
<polygon fill="none" stroke="black" points="412.5,-247.5 412.5,-266.5 453.5,-266.5 453.5,-247.5 412.5,-247.5"/>
<text text-anchor="middle" x="433" y="-254.5" font-family="Helvetica,sans-Serif" font-size="10.00">peek</text>
</a>
</g>
</g>
<!-- Node5&#45;&gt;Node8 -->
<g id="edge7" class="edge">
<title>Node5&#45;&gt;Node8</title>
<path fill="none" stroke="midnightblue" d="M148.38,-76.5C192.63,-63.31 279.58,-45.39 335,-86 377.86,-117.41 342.66,-155.06 371,-200 381.21,-216.19 397.12,-230.85 410.13,-241.24"/>
<polygon fill="midnightblue" stroke="midnightblue" points="408.12,-244.11 418.18,-247.43 412.38,-238.56 408.12,-244.11"/>
</g>
<!-- Node9&#45;&gt;Node3 -->
<g id="edge19" class="edge">
<title>Node9&#45;&gt;Node3</title>
<path fill="none" stroke="midnightblue" d="M144.65,-247.55C151.15,-251.18 157.59,-255.95 162,-262 206.48,-323 146.27,-373.02 198,-428 200.96,-431.14 204.39,-433.78 208.11,-435.99"/>
<polygon fill="midnightblue" stroke="midnightblue" points="206.69,-439.19 217.21,-440.41 209.75,-432.89 206.69,-439.19"/>
</g>
<!-- Node9&#45;&gt;Node6 -->
<g id="edge9" class="edge">
<title>Node9&#45;&gt;Node6</title>
<path fill="none" stroke="midnightblue" d="M126.51,-228.42C137.94,-211.22 164.68,-175.61 198,-162 263.91,-135.08 348.82,-153.74 396.12,-168.32"/>
<polygon fill="midnightblue" stroke="midnightblue" points="395.31,-171.73 405.9,-171.44 397.44,-165.06 395.31,-171.73"/>
</g>
<!-- Node9&#45;&gt;Node7 -->
<g id="edge20" class="edge">
<title>Node9&#45;&gt;Node7</title>
<path fill="none" stroke="midnightblue" d="M124.83,-228.34C134.75,-207.27 161.14,-156.86 198,-129 204.28,-124.25 211.58,-120.39 219.01,-117.26"/>
<polygon fill="midnightblue" stroke="midnightblue" points="220.33,-120.5 228.43,-113.67 217.84,-113.96 220.33,-120.5"/>
</g>
<!-- Node10 -->
<g id="node10" class="node">
<title>Node10</title>
<g id="a_node10"><a xlink:href="lexer__word_8c.html#a088ba907ca2f9f7d89809627a5ef8313" target="_top" xlink:title="Lexes a segment delimited by double quotes.">
<polygon fill="none" stroke="black" points="198,-285.5 198,-304.5 335,-304.5 335,-285.5 198,-285.5"/>
<text text-anchor="middle" x="266.5" y="-292.5" font-family="Helvetica,sans-Serif" font-size="10.00">double_quoted_segment</text>
</a>
</g>
</g>
<!-- Node9&#45;&gt;Node10 -->
<g id="edge10" class="edge">
<title>Node9&#45;&gt;Node10</title>
<path fill="none" stroke="midnightblue" d="M137.64,-247.53C153.08,-255.84 176.58,-267.81 198,-276 204.04,-278.31 210.49,-280.48 216.91,-282.47"/>
<polygon fill="midnightblue" stroke="midnightblue" points="216.33,-285.95 226.91,-285.44 218.32,-279.24 216.33,-285.95"/>
</g>
<!-- Node12 -->
<g id="node12" class="node">
<title>Node12</title>
<g id="a_node12"><a xlink:href="string__builder_8c.html#a54e602a5da87bd89687c69c2d86f34d2" target="_top" xlink:title="Put char in the struct t_str_buf so we can build a string in the struct. The point is to create the s...">
<polygon fill="none" stroke="black" points="394.5,-323.5 394.5,-342.5 471.5,-342.5 471.5,-323.5 394.5,-323.5"/>
<text text-anchor="middle" x="433" y="-330.5" font-family="Helvetica,sans-Serif" font-size="10.00">str_buf_putc</text>
</a>
</g>
</g>
<!-- Node9&#45;&gt;Node12 -->
<g id="edge28" class="edge">
<title>Node9&#45;&gt;Node12</title>
<path fill="none" stroke="midnightblue" d="M143.17,-247.56C149.92,-251.28 156.88,-256.08 162,-262 190.2,-294.57 162.33,-327.85 198,-352 260.23,-394.13 354.21,-365.72 401.92,-346.52"/>
<polygon fill="midnightblue" stroke="midnightblue" points="403.48,-349.66 411.37,-342.59 400.79,-343.2 403.48,-349.66"/>
</g>
<!-- Node13 -->
<g id="node13" class="node">
<title>Node13</title>
<g id="a_node13"><a xlink:href="lexer__word_8c.html#ad7d5fd37a954794c29d8d8b4807c233e" target="_top" xlink:title="Handle backslash to escape next char correctly.">
<polygon fill="none" stroke="black" points="217,-247.5 217,-266.5 316,-266.5 316,-247.5 217,-247.5"/>
<text text-anchor="middle" x="266.5" y="-254.5" font-family="Helvetica,sans-Serif" font-size="10.00">escape_segment</text>
</a>
</g>
</g>
<!-- Node9&#45;&gt;Node13 -->
<g id="edge15" class="edge">
<title>Node9&#45;&gt;Node13</title>
<path fill="none" stroke="midnightblue" d="M150.19,-241.89C166.49,-244.03 187.29,-246.75 206.72,-249.3"/>
<polygon fill="midnightblue" stroke="midnightblue" points="206.35,-252.78 216.72,-250.61 207.26,-245.84 206.35,-252.78"/>
</g>
<!-- Node14 -->
<g id="node14" class="node">
<title>Node14</title>
<g id="a_node14"><a xlink:href="lexer__word_8c.html#ad9e7809fee584699717eb691257a6ded" target="_top" xlink:title="Lexes a segment delimited by single quotes.">
<polygon fill="none" stroke="black" points="200,-323.5 200,-342.5 333,-342.5 333,-323.5 200,-323.5"/>
<text text-anchor="middle" x="266.5" y="-330.5" font-family="Helvetica,sans-Serif" font-size="10.00">single_quoted_segment</text>
</a>
</g>
</g>
<!-- Node9&#45;&gt;Node14 -->
<g id="edge21" class="edge">
<title>Node9&#45;&gt;Node14</title>
<path fill="none" stroke="midnightblue" d="M141.13,-247.59C148.21,-251.46 155.88,-256.36 162,-262 182.67,-281.05 175.12,-297.67 198,-314 200.73,-315.94 203.64,-317.69 206.68,-319.26"/>
<polygon fill="midnightblue" stroke="midnightblue" points="205.53,-322.58 216.09,-323.45 208.38,-316.18 205.53,-322.58"/>
</g>
<!-- Node15 -->
<g id="node15" class="node">
<title>Node15</title>
<g id="a_node15"><a xlink:href="string__builder_8c.html#a1bfdfae2d27c541b15b526d7d67b7577" target="_top" xlink:title="End and null terminate the string created in t_str_buf, reset the struct so it can be reused and retu...">
<polygon fill="none" stroke="black" points="229.5,-399.5 229.5,-418.5 303.5,-418.5 303.5,-399.5 229.5,-399.5"/>
<text text-anchor="middle" x="266.5" y="-406.5" font-family="Helvetica,sans-Serif" font-size="10.00">str_buf_end</text>
</a>
</g>
</g>
<!-- Node9&#45;&gt;Node15 -->
<g id="edge24" class="edge">
<title>Node9&#45;&gt;Node15</title>
<path fill="none" stroke="midnightblue" d="M143.95,-247.51C150.58,-251.18 157.27,-255.98 162,-262 197.17,-306.8 158.88,-343.59 198,-385 203.95,-391.3 211.67,-395.95 219.75,-399.38"/>
<polygon fill="midnightblue" stroke="midnightblue" points="218.72,-402.73 229.32,-402.88 221.12,-396.16 218.72,-402.73"/>
</g>
<!-- Node16 -->
<g id="node16" class="node">
<title>Node16</title>
<g id="a_node16"><a xlink:href="string__builder_8c.html#a34739f65bf6f3e3e2b9e19dadf5fe217" target="_top" xlink:title=" ">
<polygon fill="none" stroke="black" points="229,-209.5 229,-228.5 304,-228.5 304,-209.5 229,-209.5"/>
<text text-anchor="middle" x="266.5" y="-216.5" font-family="Helvetica,sans-Serif" font-size="10.00">str_buf_free</text>
</a>
</g>
</g>
<!-- Node9&#45;&gt;Node16 -->
<g id="edge26" class="edge">
<title>Node9&#45;&gt;Node16</title>
<path fill="none" stroke="midnightblue" d="M150.19,-234.11C169.95,-231.52 196.32,-228.07 218.85,-225.11"/>
<polygon fill="midnightblue" stroke="midnightblue" points="219.44,-228.57 228.9,-223.8 218.53,-221.62 219.44,-228.57"/>
</g>
<!-- Node17 -->
<g id="node17" class="node">
<title>Node17</title>
<g id="a_node17"><a xlink:href="string__builder_8c.html#a2ff0766da574e4904598f3119c7d3749" target="_top" xlink:title=" ">
<polygon fill="none" stroke="black" points="231,-171.5 231,-190.5 302,-190.5 302,-171.5 231,-171.5"/>
<text text-anchor="middle" x="266.5" y="-178.5" font-family="Helvetica,sans-Serif" font-size="10.00">str_buf_init</text>
</a>
</g>
</g>
<!-- Node9&#45;&gt;Node17 -->
<g id="edge27" class="edge">
<title>Node9&#45;&gt;Node17</title>
<path fill="none" stroke="midnightblue" d="M137.64,-228.47C153.08,-220.16 176.58,-208.19 198,-200 205.36,-197.19 213.3,-194.58 221.08,-192.26"/>
<polygon fill="midnightblue" stroke="midnightblue" points="222.12,-195.6 230.77,-189.48 220.19,-188.88 222.12,-195.6"/>
</g>
<!-- Node10&#45;&gt;Node6 -->
<g id="edge11" class="edge">
<title>Node10&#45;&gt;Node6</title>
<path fill="none" stroke="midnightblue" d="M314.26,-285.41C321.48,-282.93 328.64,-279.84 335,-276 354.91,-263.97 354.49,-254.39 371,-238 385,-224.09 401.37,-208.85 413.62,-197.63"/>
<polygon fill="midnightblue" stroke="midnightblue" points="415.98,-200.22 421.01,-190.89 411.26,-195.05 415.98,-200.22"/>
</g>
<!-- Node10&#45;&gt;Node8 -->
<g id="edge13" class="edge">
<title>Node10&#45;&gt;Node8</title>
<path fill="none" stroke="midnightblue" d="M309.01,-285.41C338.12,-278.69 376.34,-269.86 402.4,-263.84"/>
<polygon fill="midnightblue" stroke="midnightblue" points="403.47,-267.18 412.42,-261.52 401.89,-260.36 403.47,-267.18"/>
</g>
<!-- Node11 -->
<g id="node11" class="node">
<title>Node11</title>
<g id="a_node11"><a xlink:href="lexer__word_8c.html#a31c5ee7f4519eba6de3c2a29c59fe26c" target="_top" xlink:title=" ">
<polygon fill="none" stroke="black" points="371,-285.5 371,-304.5 495,-304.5 495,-285.5 371,-285.5"/>
<text text-anchor="middle" x="433" y="-292.5" font-family="Helvetica,sans-Serif" font-size="10.00">is_dquotes_escapable</text>
</a>
</g>
</g>
<!-- Node10&#45;&gt;Node11 -->
<g id="edge12" class="edge">
<title>Node10&#45;&gt;Node11</title>
<path fill="none" stroke="midnightblue" d="M335.36,-295C343.73,-295 352.3,-295 360.72,-295"/>
<polygon fill="midnightblue" stroke="midnightblue" points="360.88,-298.5 370.88,-295 360.88,-291.5 360.88,-298.5"/>
</g>
<!-- Node10&#45;&gt;Node12 -->
<g id="edge14" class="edge">
<title>Node10&#45;&gt;Node12</title>
<path fill="none" stroke="midnightblue" d="M309.01,-304.59C332,-309.9 360.66,-316.52 384.53,-322.04"/>
<polygon fill="midnightblue" stroke="midnightblue" points="383.91,-325.48 394.44,-324.32 385.49,-318.66 383.91,-325.48"/>
</g>
<!-- Node13&#45;&gt;Node6 -->
<g id="edge16" class="edge">
<title>Node13&#45;&gt;Node6</title>
<path fill="none" stroke="midnightblue" d="M308.06,-247.41C317.08,-244.78 326.49,-241.63 335,-238 361.99,-226.5 390.7,-208.87 409.82,-196.26"/>
<polygon fill="midnightblue" stroke="midnightblue" points="411.78,-199.17 418.14,-190.7 407.89,-193.35 411.78,-199.17"/>
</g>
<!-- Node13&#45;&gt;Node8 -->
<g id="edge17" class="edge">
<title>Node13&#45;&gt;Node8</title>
<path fill="none" stroke="midnightblue" d="M316.41,-257C344.17,-257 378.03,-257 401.91,-257"/>
<polygon fill="midnightblue" stroke="midnightblue" points="402.12,-260.5 412.12,-257 402.12,-253.5 402.12,-260.5"/>
</g>
<!-- Node13&#45;&gt;Node12 -->
<g id="edge18" class="edge">
<title>Node13&#45;&gt;Node12</title>
<path fill="none" stroke="midnightblue" d="M314.26,-266.59C321.48,-269.07 328.64,-272.16 335,-276 354.91,-288.03 351.25,-301.7 371,-314 375.3,-316.68 380.01,-319.01 384.85,-321.03"/>
<polygon fill="midnightblue" stroke="midnightblue" points="383.64,-324.31 394.23,-324.53 386.09,-317.75 383.64,-324.31"/>
</g>
<!-- Node14&#45;&gt;Node6 -->
<g id="edge22" class="edge">
<title>Node14&#45;&gt;Node6</title>
<path fill="none" stroke="midnightblue" d="M319.59,-323.37C325.16,-320.92 330.44,-317.85 335,-314 363.55,-289.88 348.96,-268.18 371,-238 382.36,-222.45 398.36,-207.68 411.13,-197.08"/>
<polygon fill="midnightblue" stroke="midnightblue" points="413.39,-199.75 418.97,-190.74 408.99,-194.3 413.39,-199.75"/>
</g>
<!-- Node14&#45;&gt;Node12 -->
<g id="edge23" class="edge">
<title>Node14&#45;&gt;Node12</title>
<path fill="none" stroke="midnightblue" d="M333.46,-333C350.47,-333 368.45,-333 384.33,-333"/>
<polygon fill="midnightblue" stroke="midnightblue" points="384.43,-336.5 394.43,-333 384.43,-329.5 384.43,-336.5"/>
</g>
<!-- Node15&#45;&gt;Node12 -->
<g id="edge25" class="edge">
<title>Node15&#45;&gt;Node12</title>
<path fill="none" stroke="midnightblue" d="M297.45,-399.43C309.3,-395.37 322.95,-390.34 335,-385 360.22,-373.83 387.85,-358.72 407.14,-347.67"/>
<polygon fill="midnightblue" stroke="midnightblue" points="409,-350.64 415.9,-342.6 405.49,-344.58 409,-350.64"/>
</g>
<!-- Node18&#45;&gt;Node6 -->
<g id="edge31" class="edge">
<title>Node18&#45;&gt;Node6</title>
<path fill="none" stroke="midnightblue" d="M144.46,-38.45C186.05,-23.49 273.09,0.45 335,-33 386.22,-60.67 414.76,-128.47 426.13,-161.83"/>
<polygon fill="midnightblue" stroke="midnightblue" points="422.81,-162.92 429.23,-171.35 429.47,-160.76 422.81,-162.92"/>
</g>
</g>
</svg>
        <g id="navigator" transform="translate(0 0)" fill="#404254">
                <rect fill="#f2f5e9" fill-opacity="0.5" stroke="#606060" stroke-width=".5" x="0" y="0" width="60" height="60"/>
                <use id="zoomplus" xlink:href="#zoomPlus" x="17" y="9" onmousedown="handleZoom(evt,'in')"/>
                <use id="zoomminus" xlink:href="#zoomMin" x="42" y="9" onmousedown="handleZoom(evt,'out')"/>
                <use id="reset" xlink:href="#resetDef" x="30" y="36" onmousedown="handleReset()"/>
                <g id="arrowUp" xlink:href="#dirArrow" transform="translate(30 24)" onmousedown="handlePan(0,-1)">
                  <use xlink:href="#rim" fill="#404040">
                        <set attributeName="fill" to="#808080" begin="arrowUp.mouseover" end="arrowUp.mouseout"/>
                  </use>
                  <path fill="none" stroke="white" stroke-width="1.5" d="M0,-3.0v7 M-2.5,-0.5L0,-3.0L2.5,-0.5"/>
                </g>
                <g id="arrowRight" xlink:href="#dirArrow" transform="rotate(90) translate(36 -43)" onmousedown="handlePan(1,0)">
                  <use xlink:href="#rim" fill="#404040">
                        <set attributeName="fill" to="#808080" begin="arrowRight.mouseover" end="arrowRight.mouseout"/>
                  </use>
                  <path fill="none" stroke="white" stroke-width="1.5" d="M0,-3.0v7 M-2.5,-0.5L0,-3.0L2.5,-0.5"/>
                </g>
                <g id="arrowDown" xlink:href="#dirArrow" transform="rotate(180) translate(-30 -48)" onmousedown="handlePan(0,1)">
                  <use xlink:href="#rim" fill="#404040">
                        <set attributeName="fill" to="#808080" begin="arrowDown.mouseover" end="arrowDown.mouseout"/>
                  </use>
                  <path fill="none" stroke="white" stroke-width="1.5" d="M0,-3.0v7 M-2.5,-0.5L0,-3.0L2.5,-0.5"/>
                </g>
                <g id="arrowLeft" xlink:href="#dirArrow" transform="rotate(270) translate(-36 17)" onmousedown="handlePan(-1,0)">
                  <use xlink:href="#rim" fill="#404040">
                        <set attributeName="fill" to="#808080" begin="arrowLeft.mouseover" end="arrowLeft.mouseout"/>
                  </use>
                  <path fill="none" stroke="white" stroke-width="1.5" d="M0,-3.0v7 M-2.5,-0.5L0,-3.0L2.5,-0.5"/>
                </g>
        </g>
        <svg viewBox="0 0 15 15" width="100%" height="30px" preserveAspectRatio="xMaxYMin meet">
         <g id="arrow_out" transform="scale(0.3 0.3)">
          <a xlink:href="lexer_8c_aced469451204cf536fd18b4cf94f6b91_cgraph_org.svg" target="_base">
           <rect id="button" ry="5" rx="5" y="6" x="6" height="38" width="38"
                fill="#f2f5e9" fill-opacity="0.5" stroke="#606060" stroke-width="1.0"/>
           <path id="arrow"
             d="M 11.500037,31.436501 C 11.940474,20.09759 22.043105,11.32322 32.158766,21.979434 L 37.068811,17.246167 C 37.068811,17.246167 37.088388,32 37.088388,32 L 22.160133,31.978069 C 22.160133,31.978069 26.997745,27.140456 26.997745,27.140456 C 18.528582,18.264221 13.291696,25.230495 11.500037,31.436501 z"
             style="fill:#404040;"/>
          </a>
         </g>
        </svg>
</svg>
