<?xml version="1.0" encoding="UTF-8" standalone="no"?>
<!DOCTYPE svg PUBLIC "-//W3C//DTD SVG 1.1//EN"
 "http://www.w3.org/Graphics/SVG/1.1/DTD/svg11.dtd">
<!-- Generated by graphviz version 2.43.0 (0)
 -->
<!-- Title: is_char_operator Pages: 1 -->
<svg width="480pt" height="47pt"
 viewBox="0.00 0.00 480.00 47.00" xmlns="http://www.w3.org/2000/svg" xmlns:xlink="http://www.w3.org/1999/xlink">
<g id="graph0" class="graph" transform="scale(1 1) rotate(0) translate(4 43)">
<title>is_char_operator</title>
<!-- Node1 -->
<g id="node1" class="node">
<title>Node1</title>
<g id="a_node1"><a xlink:title="Check if the char is one of the possible operator, currently &#39;&lt;&#39;, &#39;&gt;&#39; or &#39;|&#39;.">
<polygon fill="#bfbfbf" stroke="black" points="374,-0.5 374,-19.5 472,-19.5 472,-0.5 374,-0.5"/>
<text text-anchor="middle" x="423" y="-7.5" font-family="Helvetica,sans-Serif" font-size="10.00">is_char_operator</text>
</a>
</g>
</g>
<!-- Node2 -->
<g id="node2" class="node">
<title>Node2</title>
<g id="a_node2"><a xlink:href="lexer__word_8c.html#a8c3afe25ab140f0d5490ae1a8389e162" target="_top" xlink:title=" ">
<polygon fill="none" stroke="black" points="251,-19.5 251,-38.5 338,-38.5 338,-19.5 251,-19.5"/>
<text text-anchor="middle" x="294.5" y="-26.5" font-family="Helvetica,sans-Serif" font-size="10.00">lex_word_loop</text>
</a>
</g>
</g>
<!-- Node1&#45;&gt;Node2 -->
<g id="edge1" class="edge">
<title>Node1&#45;&gt;Node2</title>
<path fill="none" stroke="midnightblue" d="M363.78,-18.74C355.15,-20.04 346.4,-21.36 338.17,-22.59"/>
<polygon fill="midnightblue" stroke="midnightblue" points="364.45,-22.18 373.81,-17.24 363.41,-15.26 364.45,-22.18"/>
</g>
<!-- Node4 -->
<g id="node4" class="node">
<title>Node4</title>
<g id="a_node4"><a xlink:href="lexer_8c.html#aced469451204cf536fd18b4cf94f6b91" target="_top" xlink:title="Global lexing function, that traverses readline&#39;s string and separate in tokens.">
<polygon fill="none" stroke="black" points="77,-0.5 77,-19.5 118,-19.5 118,-0.5 77,-0.5"/>
<text text-anchor="middle" x="97.5" y="-7.5" font-family="Helvetica,sans-Serif" font-size="10.00">lexer</text>
</a>
</g>
</g>
<!-- Node1&#45;&gt;Node4 -->
<g id="edge5" class="edge">
<title>Node1&#45;&gt;Node4</title>
<path fill="none" stroke="midnightblue" d="M363.84,-10C289.95,-10 166.3,-10 118.35,-10"/>
<polygon fill="midnightblue" stroke="midnightblue" points="363.92,-13.5 373.92,-10 363.92,-6.5 363.92,-13.5"/>
</g>
<!-- Node3 -->
<g id="node3" class="node">
<title>Node3</title>
<g id="a_node3"><a xlink:href="lexer__word_8c.html#a4093905b7d1dfe02710752ee5da8fe01" target="_top" xlink:title="Lexes the string to create a WORD token.">
<polygon fill="none" stroke="black" points="154,-19.5 154,-38.5 215,-38.5 215,-19.5 154,-19.5"/>
<text text-anchor="middle" x="184.5" y="-26.5" font-family="Helvetica,sans-Serif" font-size="10.00">lex_word</text>
</a>
</g>
</g>
<!-- Node2&#45;&gt;Node3 -->
<g id="edge2" class="edge">
<title>Node2&#45;&gt;Node3</title>
<path fill="none" stroke="midnightblue" d="M240.64,-29C231.91,-29 223.14,-29 215.24,-29"/>
<polygon fill="midnightblue" stroke="midnightblue" points="240.82,-32.5 250.82,-29 240.82,-25.5 240.82,-32.5"/>
</g>
<!-- Node3&#45;&gt;Node4 -->
<g id="edge3" class="edge">
<title>Node3&#45;&gt;Node4</title>
<path fill="none" stroke="midnightblue" d="M143.87,-20.14C134.96,-18.15 125.89,-16.12 118.22,-14.41"/>
<polygon fill="midnightblue" stroke="midnightblue" points="143.25,-23.59 153.77,-22.35 144.78,-16.76 143.25,-23.59"/>
</g>
<!-- Node5 -->
<g id="node5" class="node">
<title>Node5</title>
<g id="a_node5"><a xlink:href="main_8c.html#a647f21a28344e1d9c643f4115516d7c9" target="_top" xlink:title=" ">
<polygon fill="none" stroke="black" points="0,-0.5 0,-19.5 41,-19.5 41,-0.5 0,-0.5"/>
<text text-anchor="middle" x="20.5" y="-7.5" font-family="Helvetica,sans-Serif" font-size="10.00">main</text>
</a>
</g>
</g>
<!-- Node4&#45;&gt;Node5 -->
<g id="edge4" class="edge">
<title>Node4&#45;&gt;Node5</title>
<path fill="none" stroke="midnightblue" d="M66.69,-10C58.08,-10 48.9,-10 41.07,-10"/>
<polygon fill="midnightblue" stroke="midnightblue" points="66.79,-13.5 76.79,-10 66.79,-6.5 66.79,-13.5"/>
</g>
</g>
</svg>
