<?xml version="1.0" encoding="UTF-8" standalone="no"?>
<!DOCTYPE svg PUBLIC "-//W3C//DTD SVG 1.1//EN"
 "http://www.w3.org/Graphics/SVG/1.1/DTD/svg11.dtd">
<!-- Generated by graphviz version 2.43.0 (0)
 -->
<!-- Title: advance Pages: 1 -->
<!--zoomable 360 -->
<svg id="main" version="1.1" xmlns="http://www.w3.org/2000/svg" xmlns:xlink="http://www.w3.org/1999/xlink" xml:space="preserve" onload="init(evt)">
<style type="text/css"><![CDATA[
.edge:hover path { stroke: red; }
.edge:hover polygon { stroke: red; fill: red; }
]]></style>
<script type="text/javascript"><![CDATA[
var edges = document.getElementsByTagName('g');
if (edges && edges.length) {
  for (var i=0;i<edges.length;i++) {
    if (edges[i].id.substr(0,4)=='edge') {
      edges[i].setAttribute('class','edge');
    }
  }
}
]]></script>
        <defs>
                <circle id="rim" cx="0" cy="0" r="7"/>
                <circle id="rim2" cx="0" cy="0" r="3.5"/>
                <g id="zoomPlus">
                        <use xlink:href="#rim" fill="#404040">
                                <set attributeName="fill" to="#808080" begin="zoomplus.mouseover" end="zoomplus.mouseout"/>
                        </use>
                        <path d="M-4,0h8M0,-4v8" fill="none" stroke="white" stroke-width="1.5" pointer-events="none"/>
                </g>
                <g id="zoomMin">
                        <use xlink:href="#rim" fill="#404040">
                                <set attributeName="fill" to="#808080" begin="zoomminus.mouseover" end="zoomminus.mouseout"/>
                        </use>
                        <path d="M-4,0h8" fill="none" stroke="white" stroke-width="1.5" pointer-events="none"/>
                </g>
                <g id="dirArrow">
                        <path fill="none" stroke="white" stroke-width="1.5" d="M0,-3.0v7 M-2.5,-0.5L0,-3.0L2.5,-0.5"/>
                </g>
               <g id="resetDef">
                       <use xlink:href="#rim2" fill="#404040">
                               <set attributeName="fill" to="#808080" begin="reset.mouseover" end="reset.mouseout"/>
                       </use>
               </g>
        </defs>

<script type="text/javascript">
var viewWidth = 695;
var viewHeight = 360;
var sectionId = 'dynsection-1';
</script>
<script xlink:href="svgpan.js"/>
<svg id="graph" class="graph">
<g id="viewport">
<title>advance</title>
<!-- Node1 -->
<g id="node1" class="node">
<title>Node1</title>
<g id="a_node1"><a xlink:title="Advance one byte in the struct t_lexer to keep track of progress.">
<polygon fill="#bfbfbf" stroke="black" points="629,-161.5 629,-180.5 687,-180.5 687,-161.5 629,-161.5"/>
<text text-anchor="middle" x="658" y="-168.5" font-family="Helvetica,sans-Serif" font-size="10.00">advance</text>
</a>
</g>
</g>
<!-- Node2 -->
<g id="node2" class="node">
<title>Node2</title>
<g id="a_node2"><a xlink:href="lexer__word_8c.html#a088ba907ca2f9f7d89809627a5ef8313" target="_top" xlink:title="Lexes a segment delimited by double quotes.">
<polygon fill="none" stroke="black" points="456,-104.5 456,-123.5 593,-123.5 593,-104.5 456,-104.5"/>
<text text-anchor="middle" x="524.5" y="-111.5" font-family="Helvetica,sans-Serif" font-size="10.00">double_quoted_segment</text>
</a>
</g>
</g>
<!-- Node1&#45;&gt;Node2 -->
<g id="edge1" class="edge">
<title>Node1&#45;&gt;Node2</title>
<path fill="none" stroke="midnightblue" d="M634.87,-155.91C622.88,-148.24 607.57,-139.25 593,-133 584.5,-129.35 575.09,-126.2 566.07,-123.56"/>
<polygon fill="midnightblue" stroke="midnightblue" points="633.04,-158.89 643.33,-161.44 636.88,-153.04 633.04,-158.89"/>
</g>
<!-- Node3 -->
<g id="node3" class="node">
<title>Node3</title>
<g id="a_node3"><a xlink:href="lexer__word_8c.html#a4093905b7d1dfe02710752ee5da8fe01" target="_top" xlink:title="Lexes the string to create a WORD token.">
<polygon fill="none" stroke="black" points="345.5,-104.5 345.5,-123.5 406.5,-123.5 406.5,-104.5 345.5,-104.5"/>
<text text-anchor="middle" x="376" y="-111.5" font-family="Helvetica,sans-Serif" font-size="10.00">lex_word</text>
</a>
</g>
</g>
<!-- Node1&#45;&gt;Node3 -->
<g id="edge18" class="edge">
<title>Node1&#45;&gt;Node3</title>
<path fill="none" stroke="midnightblue" d="M647.68,-152.52C637.21,-134.06 618.32,-106.78 593,-95 528.66,-65.07 441.96,-89.52 400.71,-104.49"/>
<polygon fill="midnightblue" stroke="midnightblue" points="644.68,-154.33 652.49,-161.48 650.84,-151.01 644.68,-154.33"/>
</g>
<!-- Node6 -->
<g id="node6" class="node">
<title>Node6</title>
<g id="a_node6"><a xlink:href="expand__dollar_8c.html#a1cf0ce389e469994b9ddb06a944e531e" target="_top" xlink:title="Handle $? to expand on current error code.">
<polygon fill="none" stroke="black" points="480,-332.5 480,-351.5 569,-351.5 569,-332.5 480,-332.5"/>
<text text-anchor="middle" x="524.5" y="-339.5" font-family="Helvetica,sans-Serif" font-size="10.00">error_code_var</text>
</a>
</g>
</g>
<!-- Node1&#45;&gt;Node6 -->
<g id="edge5" class="edge">
<title>Node1&#45;&gt;Node6</title>
<path fill="none" stroke="midnightblue" d="M653.58,-190.87C647.19,-222.17 630.52,-282.99 593,-318 586.27,-324.28 577.79,-328.93 569.14,-332.38"/>
<polygon fill="midnightblue" stroke="midnightblue" points="657.07,-191.25 655.49,-180.77 650.19,-189.95 657.07,-191.25"/>
</g>
<!-- Node7 -->
<g id="node7" class="node">
<title>Node7</title>
<g id="a_node7"><a xlink:href="expand__dollar_8c.html#ac3e15865744ed2c1300a5cb96f24e33d" target="_top" xlink:title="Manages all possibilities with expand : $?, known and unknown env variable.">
<polygon fill="none" stroke="black" points="334.5,-294.5 334.5,-313.5 417.5,-313.5 417.5,-294.5 334.5,-294.5"/>
<text text-anchor="middle" x="376" y="-301.5" font-family="Helvetica,sans-Serif" font-size="10.00">handle_dollar</text>
</a>
</g>
</g>
<!-- Node1&#45;&gt;Node7 -->
<g id="edge13" class="edge">
<title>Node1&#45;&gt;Node7</title>
<path fill="none" stroke="midnightblue" d="M651.52,-190.52C643.32,-215.8 625.24,-259.1 593,-280 539.97,-314.38 463.87,-314.05 417.58,-309.71"/>
<polygon fill="midnightblue" stroke="midnightblue" points="654.98,-191.19 654.53,-180.61 648.28,-189.16 654.98,-191.19"/>
</g>
<!-- Node8 -->
<g id="node8" class="node">
<title>Node8</title>
<g id="a_node8"><a xlink:href="expand__word_8c.html#a0ec378990f411456436a9bb6a71babfc" target="_top" xlink:title="Scans the word to dequote/expand and build correct output.">
<polygon fill="none" stroke="black" points="214,-237.5 214,-256.5 296,-256.5 296,-237.5 214,-237.5"/>
<text text-anchor="middle" x="255" y="-244.5" font-family="Helvetica,sans-Serif" font-size="10.00">expand_word</text>
</a>
</g>
</g>
<!-- Node1&#45;&gt;Node8 -->
<g id="edge12" class="edge">
<title>Node1&#45;&gt;Node8</title>
<path fill="none" stroke="midnightblue" d="M644.21,-188.95C632.65,-203.6 614.24,-223.38 593,-233 494.05,-277.8 361.55,-265.03 296.08,-254.59"/>
<polygon fill="midnightblue" stroke="midnightblue" points="647.25,-190.73 650.48,-180.64 641.66,-186.51 647.25,-190.73"/>
</g>
<!-- Node10 -->
<g id="node10" class="node">
<title>Node10</title>
<g id="a_node10"><a xlink:href="lexer__word_8c.html#ad7d5fd37a954794c29d8d8b4807c233e" target="_top" xlink:title="Handle backslash to escape next char correctly.">
<polygon fill="none" stroke="black" points="475,-180.5 475,-199.5 574,-199.5 574,-180.5 475,-180.5"/>
<text text-anchor="middle" x="524.5" y="-187.5" font-family="Helvetica,sans-Serif" font-size="10.00">escape_segment</text>
</a>
</g>
</g>
<!-- Node1&#45;&gt;Node10 -->
<g id="edge10" class="edge">
<title>Node1&#45;&gt;Node10</title>
<path fill="none" stroke="midnightblue" d="M618.59,-176.55C604.68,-178.56 588.79,-180.86 574.11,-182.98"/>
<polygon fill="midnightblue" stroke="midnightblue" points="619.39,-179.97 628.79,-175.08 618.39,-173.04 619.39,-179.97"/>
</g>
<!-- Node11 -->
<g id="node11" class="node">
<title>Node11</title>
<g id="a_node11"><a xlink:href="expand__word_8c.html#ae5fd7fdfce4171a392a4f6c781f4e813" target="_top" xlink:title="Dequotes and manage quote state to expand correctly.">
<polygon fill="none" stroke="black" points="332,-218.5 332,-237.5 420,-237.5 420,-218.5 332,-218.5"/>
<text text-anchor="middle" x="376" y="-225.5" font-family="Helvetica,sans-Serif" font-size="10.00">handle_quotes</text>
</a>
</g>
</g>
<!-- Node1&#45;&gt;Node11 -->
<g id="edge14" class="edge">
<title>Node1&#45;&gt;Node11</title>
<path fill="none" stroke="midnightblue" d="M636.21,-186.6C624.22,-194.74 608.49,-204.01 593,-209 535.31,-227.59 464.75,-230.31 420.33,-229.77"/>
<polygon fill="midnightblue" stroke="midnightblue" points="638.43,-189.31 644.59,-180.69 634.4,-183.6 638.43,-189.31"/>
</g>
<!-- Node12 -->
<g id="node12" class="node">
<title>Node12</title>
<g id="a_node12"><a xlink:href="lexer_8c.html#a4224de0ac9d722a19a477ae2880f54da" target="_top" xlink:title="Make the operator in the global string a token.">
<polygon fill="none" stroke="black" points="337,-0.5 337,-19.5 415,-19.5 415,-0.5 337,-0.5"/>
<text text-anchor="middle" x="376" y="-7.5" font-family="Helvetica,sans-Serif" font-size="10.00">lex_operator</text>
</a>
</g>
</g>
<!-- Node1&#45;&gt;Node12 -->
<g id="edge16" class="edge">
<title>Node1&#45;&gt;Node12</title>
<path fill="none" stroke="midnightblue" d="M653.1,-151.28C646.29,-122.48 629.35,-69.47 593,-43 540.56,-4.82 461.8,-2.92 415.28,-5.87"/>
<polygon fill="midnightblue" stroke="midnightblue" points="649.74,-152.33 655.29,-161.35 656.58,-150.84 649.74,-152.33"/>
</g>
<!-- Node13 -->
<g id="node13" class="node">
<title>Node13</title>
<g id="a_node13"><a xlink:href="lexer__word_8c.html#ad9e7809fee584699717eb691257a6ded" target="_top" xlink:title="Lexes a segment delimited by single quotes.">
<polygon fill="none" stroke="black" points="458,-142.5 458,-161.5 591,-161.5 591,-142.5 458,-142.5"/>
<text text-anchor="middle" x="524.5" y="-149.5" font-family="Helvetica,sans-Serif" font-size="10.00">single_quoted_segment</text>
</a>
</g>
</g>
<!-- Node1&#45;&gt;Node13 -->
<g id="edge19" class="edge">
<title>Node1&#45;&gt;Node13</title>
<path fill="none" stroke="midnightblue" d="M618.68,-165.46C610.04,-164.22 600.63,-162.86 591.22,-161.5"/>
<polygon fill="midnightblue" stroke="midnightblue" points="618.39,-168.96 628.79,-166.92 619.39,-162.03 618.39,-168.96"/>
</g>
<!-- Node14 -->
<g id="node14" class="node">
<title>Node14</title>
<g id="a_node14"><a xlink:href="lexer__utils_8c.html#a0665b31ffb5665ad2a085f2b1a5e0e25" target="_top" xlink:title="Skip whitespaces in the t_lexer struct.">
<polygon fill="none" stroke="black" points="334,-47.5 334,-66.5 418,-66.5 418,-47.5 334,-47.5"/>
<text text-anchor="middle" x="376" y="-54.5" font-family="Helvetica,sans-Serif" font-size="10.00">skip_wspaces</text>
</a>
</g>
</g>
<!-- Node1&#45;&gt;Node14 -->
<g id="edge21" class="edge">
<title>Node1&#45;&gt;Node14</title>
<path fill="none" stroke="midnightblue" d="M650.05,-151.88C640.8,-129.46 622.13,-93.18 593,-76 539.17,-44.26 464.33,-45.69 418.36,-50.62"/>
<polygon fill="midnightblue" stroke="midnightblue" points="646.86,-153.31 653.75,-161.36 653.38,-150.77 646.86,-153.31"/>
</g>
<!-- Node2&#45;&gt;Node3 -->
<g id="edge2" class="edge">
<title>Node2&#45;&gt;Node3</title>
<path fill="none" stroke="midnightblue" d="M445.7,-114C431.81,-114 418.15,-114 406.7,-114"/>
<polygon fill="midnightblue" stroke="midnightblue" points="445.82,-117.5 455.82,-114 445.82,-110.5 445.82,-117.5"/>
</g>
<!-- Node4 -->
<g id="node4" class="node">
<title>Node4</title>
<g id="a_node4"><a xlink:href="lexer_8c.html#aced469451204cf536fd18b4cf94f6b91" target="_top" xlink:title="Global lexing function, that traverses readline&#39;s string and separate in tokens.">
<polygon fill="none" stroke="black" points="234.5,-73.5 234.5,-92.5 275.5,-92.5 275.5,-73.5 234.5,-73.5"/>
<text text-anchor="middle" x="255" y="-80.5" font-family="Helvetica,sans-Serif" font-size="10.00">lexer</text>
</a>
</g>
</g>
<!-- Node3&#45;&gt;Node4 -->
<g id="edge3" class="edge">
<title>Node3&#45;&gt;Node4</title>
<path fill="none" stroke="midnightblue" d="M335.45,-103.7C315.38,-98.47 291.88,-92.35 275.67,-88.12"/>
<polygon fill="midnightblue" stroke="midnightblue" points="334.72,-107.12 345.28,-106.26 336.48,-100.35 334.72,-107.12"/>
</g>
<!-- Node5 -->
<g id="node5" class="node">
<title>Node5</title>
<g id="a_node5"><a xlink:href="main_8c.html#a647f21a28344e1d9c643f4115516d7c9" target="_top" xlink:title=" ">
<polygon fill="none" stroke="black" points="0,-119.5 0,-138.5 41,-138.5 41,-119.5 0,-119.5"/>
<text text-anchor="middle" x="20.5" y="-126.5" font-family="Helvetica,sans-Serif" font-size="10.00">main</text>
</a>
</g>
</g>
<!-- Node4&#45;&gt;Node5 -->
<g id="edge4" class="edge">
<title>Node4&#45;&gt;Node5</title>
<path fill="none" stroke="midnightblue" d="M224.35,-88.87C176.17,-98.4 82.15,-117 41.27,-125.09"/>
<polygon fill="midnightblue" stroke="midnightblue" points="225.05,-92.3 234.18,-86.92 223.69,-85.43 225.05,-92.3"/>
</g>
<!-- Node6&#45;&gt;Node7 -->
<g id="edge6" class="edge">
<title>Node6&#45;&gt;Node7</title>
<path fill="none" stroke="midnightblue" d="M476.8,-329.89C456.4,-324.6 432.82,-318.48 413.7,-313.52"/>
<polygon fill="midnightblue" stroke="midnightblue" points="475.97,-333.29 486.53,-332.41 477.73,-326.51 475.97,-333.29"/>
</g>
<!-- Node7&#45;&gt;Node8 -->
<g id="edge7" class="edge">
<title>Node7&#45;&gt;Node8</title>
<path fill="none" stroke="midnightblue" d="M345.99,-290.1C324.27,-279.7 295.14,-265.75 275.98,-256.57"/>
<polygon fill="midnightblue" stroke="midnightblue" points="344.55,-293.3 355.08,-294.46 347.58,-286.98 344.55,-293.3"/>
</g>
<!-- Node9 -->
<g id="node9" class="node">
<title>Node9</title>
<g id="a_node9"><a xlink:href="expand_8c.html#a53c53e75b0ad8c8888217cd918304b8b" target="_top" xlink:title="Iterate over every args and redir of each command to expand and dequote what needs to be.">
<polygon fill="none" stroke="black" points="77,-204.5 77,-223.5 178,-223.5 178,-204.5 77,-204.5"/>
<text text-anchor="middle" x="127.5" y="-211.5" font-family="Helvetica,sans-Serif" font-size="10.00">expand_manager</text>
</a>
</g>
</g>
<!-- Node8&#45;&gt;Node9 -->
<g id="edge8" class="edge">
<title>Node8&#45;&gt;Node9</title>
<path fill="none" stroke="midnightblue" d="M207.64,-234.81C193.47,-231.08 178.11,-227.04 164.72,-223.52"/>
<polygon fill="midnightblue" stroke="midnightblue" points="207.14,-238.3 217.7,-237.46 208.92,-231.53 207.14,-238.3"/>
</g>
<!-- Node9&#45;&gt;Node5 -->
<g id="edge9" class="edge">
<title>Node9&#45;&gt;Node5</title>
<path fill="none" stroke="midnightblue" d="M106.56,-197.86C84.96,-180.37 51.2,-153.04 33.4,-138.64"/>
<polygon fill="midnightblue" stroke="midnightblue" points="104.48,-200.68 114.46,-204.25 108.88,-195.24 104.48,-200.68"/>
</g>
<!-- Node10&#45;&gt;Node3 -->
<g id="edge11" class="edge">
<title>Node10&#45;&gt;Node3</title>
<path fill="none" stroke="midnightblue" d="M471.36,-177.33C466.07,-175.45 460.87,-173.35 456,-171 429.35,-158.13 402.22,-136.22 387.72,-123.64"/>
<polygon fill="midnightblue" stroke="midnightblue" points="470.3,-180.67 480.89,-180.46 472.48,-174.02 470.3,-180.67"/>
</g>
<!-- Node11&#45;&gt;Node8 -->
<g id="edge15" class="edge">
<title>Node11&#45;&gt;Node8</title>
<path fill="none" stroke="midnightblue" d="M321.78,-236.5C313.22,-237.86 304.49,-239.26 296.3,-240.57"/>
<polygon fill="midnightblue" stroke="midnightblue" points="322.38,-239.95 331.7,-234.91 321.27,-233.03 322.38,-239.95"/>
</g>
<!-- Node12&#45;&gt;Node4 -->
<g id="edge17" class="edge">
<title>Node12&#45;&gt;Node4</title>
<path fill="none" stroke="midnightblue" d="M350.69,-24.92C327,-39.45 291.7,-61.1 271.56,-73.45"/>
<polygon fill="midnightblue" stroke="midnightblue" points="352.75,-27.76 359.44,-19.54 349.09,-21.79 352.75,-27.76"/>
</g>
<!-- Node13&#45;&gt;Node3 -->
<g id="edge20" class="edge">
<title>Node13&#45;&gt;Node3</title>
<path fill="none" stroke="midnightblue" d="M476.63,-139.84C453.64,-133.88 426.66,-126.88 406.58,-121.67"/>
<polygon fill="midnightblue" stroke="midnightblue" points="475.97,-143.29 486.53,-142.41 477.73,-136.51 475.97,-143.29"/>
</g>
<!-- Node14&#45;&gt;Node4 -->
<g id="edge22" class="edge">
<title>Node14&#45;&gt;Node4</title>
<path fill="none" stroke="midnightblue" d="M323.8,-68.19C306.72,-71.92 288.7,-75.86 275.53,-78.73"/>
<polygon fill="midnightblue" stroke="midnightblue" points="324.69,-71.57 333.71,-66.02 323.2,-64.74 324.69,-71.57"/>
</g>
</g>
</svg>
        <g id="navigator" transform="translate(0 0)" fill="#404254">
                <rect fill="#f2f5e9" fill-opacity="0.5" stroke="#606060" stroke-width=".5" x="0" y="0" width="60" height="60"/>
                <use id="zoomplus" xlink:href="#zoomPlus" x="17" y="9" onmousedown="handleZoom(evt,'in')"/>
                <use id="zoomminus" xlink:href="#zoomMin" x="42" y="9" onmousedown="handleZoom(evt,'out')"/>
                <use id="reset" xlink:href="#resetDef" x="30" y="36" onmousedown="handleReset()"/>
                <g id="arrowUp" xlink:href="#dirArrow" transform="translate(30 24)" onmousedown="handlePan(0,-1)">
                  <use xlink:href="#rim" fill="#404040">
                        <set attributeName="fill" to="#808080" begin="arrowUp.mouseover" end="arrowUp.mouseout"/>
                  </use>
                  <path fill="none" stroke="white" stroke-width="1.5" d="M0,-3.0v7 M-2.5,-0.5L0,-3.0L2.5,-0.5"/>
                </g>
                <g id="arrowRight" xlink:href="#dirArrow" transform="rotate(90) translate(36 -43)" onmousedown="handlePan(1,0)">
                  <use xlink:href="#rim" fill="#404040">
                        <set attributeName="fill" to="#808080" begin="arrowRight.mouseover" end="arrowRight.mouseout"/>
                  </use>
                  <path fill="none" stroke="white" stroke-width="1.5" d="M0,-3.0v7 M-2.5,-0.5L0,-3.0L2.5,-0.5"/>
                </g>
                <g id="arrowDown" xlink:href="#dirArrow" transform="rotate(180) translate(-30 -48)" onmousedown="handlePan(0,1)">
                  <use xlink:href="#rim" fill="#404040">
                        <set attributeName="fill" to="#808080" begin="arrowDown.mouseover" end="arrowDown.mouseout"/>
                  </use>
                  <path fill="none" stroke="white" stroke-width="1.5" d="M0,-3.0v7 M-2.5,-0.5L0,-3.0L2.5,-0.5"/>
                </g>
                <g id="arrowLeft" xlink:href="#dirArrow" transform="rotate(270) translate(-36 17)" onmousedown="handlePan(-1,0)">
                  <use xlink:href="#rim" fill="#404040">
                        <set attributeName="fill" to="#808080" begin="arrowLeft.mouseover" end="arrowLeft.mouseout"/>
                  </use>
                  <path fill="none" stroke="white" stroke-width="1.5" d="M0,-3.0v7 M-2.5,-0.5L0,-3.0L2.5,-0.5"/>
                </g>
        </g>
        <svg viewBox="0 0 15 15" width="100%" height="30px" preserveAspectRatio="xMaxYMin meet">
         <g id="arrow_out" transform="scale(0.3 0.3)">
          <a xlink:href="lexer__utils_8c_a6b132516dacc9599762b1fe7341a0f04_icgraph_org.svg" target="_base">
           <rect id="button" ry="5" rx="5" y="6" x="6" height="38" width="38"
                fill="#f2f5e9" fill-opacity="0.5" stroke="#606060" stroke-width="1.0"/>
           <path id="arrow"
             d="M 11.500037,31.436501 C 11.940474,20.09759 22.043105,11.32322 32.158766,21.979434 L 37.068811,17.246167 C 37.068811,17.246167 37.088388,32 37.088388,32 L 22.160133,31.978069 C 22.160133,31.978069 26.997745,27.140456 26.997745,27.140456 C 18.528582,18.264221 13.291696,25.230495 11.500037,31.436501 z"
             style="fill:#404040;"/>
          </a>
         </g>
        </svg>
</svg>
