<?xml version="1.0" encoding="UTF-8" standalone="no"?>
<!DOCTYPE svg PUBLIC "-//W3C//DTD SVG 1.1//EN"
 "http://www.w3.org/Graphics/SVG/1.1/DTD/svg11.dtd">
<!-- Generated by graphviz version 2.43.0 (0)
 -->
<!-- Title: lex_operator Pages: 1 -->
<svg width="198pt" height="104pt"
 viewBox="0.00 0.00 198.00 104.00" xmlns="http://www.w3.org/2000/svg" xmlns:xlink="http://www.w3.org/1999/xlink">
<g id="graph0" class="graph" transform="scale(1 1) rotate(0) translate(4 100)">
<title>lex_operator</title>
<!-- Node1 -->
<g id="node1" class="node">
<title>Node1</title>
<g id="a_node1"><a xlink:title="Make the operator in the global string a token.">
<polygon fill="#bfbfbf" stroke="black" points="0,-38.5 0,-57.5 78,-57.5 78,-38.5 0,-38.5"/>
<text text-anchor="middle" x="39" y="-45.5" font-family="Helvetica,sans-Serif" font-size="10.00">lex_operator</text>
</a>
</g>
</g>
<!-- Node2 -->
<g id="node2" class="node">
<title>Node2</title>
<g id="a_node2"><a xlink:href="lexer__utils_8c.html#a6b132516dacc9599762b1fe7341a0f04" target="_top" xlink:title="Advance one byte in the struct t_lexer to keep track of progress.">
<polygon fill="none" stroke="black" points="123,-76.5 123,-95.5 181,-95.5 181,-76.5 123,-76.5"/>
<text text-anchor="middle" x="152" y="-83.5" font-family="Helvetica,sans-Serif" font-size="10.00">advance</text>
</a>
</g>
</g>
<!-- Node1&#45;&gt;Node2 -->
<g id="edge1" class="edge">
<title>Node1&#45;&gt;Node2</title>
<path fill="none" stroke="midnightblue" d="M68.01,-57.59C81.68,-62.27 98.33,-67.97 113.12,-73.03"/>
<polygon fill="midnightblue" stroke="midnightblue" points="112.4,-76.49 123,-76.41 114.67,-69.86 112.4,-76.49"/>
</g>
<!-- Node3 -->
<g id="node3" class="node">
<title>Node3</title>
<g id="a_node3"><a xlink:href="token__utils_8c.html#a9fd4752dfeaa8c87b63c2c53710b28f5" target="_top" xlink:title="Build a token.">
<polygon fill="none" stroke="black" points="114,-38.5 114,-57.5 190,-57.5 190,-38.5 114,-38.5"/>
<text text-anchor="middle" x="152" y="-45.5" font-family="Helvetica,sans-Serif" font-size="10.00">make_token</text>
</a>
</g>
</g>
<!-- Node1&#45;&gt;Node3 -->
<g id="edge2" class="edge">
<title>Node1&#45;&gt;Node3</title>
<path fill="none" stroke="midnightblue" d="M78.2,-48C86.4,-48 95.17,-48 103.67,-48"/>
<polygon fill="midnightblue" stroke="midnightblue" points="103.86,-51.5 113.86,-48 103.86,-44.5 103.86,-51.5"/>
</g>
<!-- Node4 -->
<g id="node4" class="node">
<title>Node4</title>
<g id="a_node4"><a xlink:href="lexer__utils_8c.html#a855a36981b55d317a52d24560c0809bf" target="_top" xlink:title="&quot;Peek&quot;, Look at the next character in the input string">
<polygon fill="none" stroke="black" points="131.5,-0.5 131.5,-19.5 172.5,-19.5 172.5,-0.5 131.5,-0.5"/>
<text text-anchor="middle" x="152" y="-7.5" font-family="Helvetica,sans-Serif" font-size="10.00">peek</text>
</a>
</g>
</g>
<!-- Node1&#45;&gt;Node4 -->
<g id="edge3" class="edge">
<title>Node1&#45;&gt;Node4</title>
<path fill="none" stroke="midnightblue" d="M68.01,-38.41C84.39,-32.8 105.05,-25.73 121.65,-20.05"/>
<polygon fill="midnightblue" stroke="midnightblue" points="123.07,-23.26 131.4,-16.71 120.8,-16.64 123.07,-23.26"/>
</g>
</g>
</svg>
