<?xml version="1.0" encoding="UTF-8" standalone="no"?>
<!DOCTYPE svg PUBLIC "-//W3C//DTD SVG 1.1//EN"
 "http://www.w3.org/Graphics/SVG/1.1/DTD/svg11.dtd">
<!-- Generated by graphviz version 2.43.0 (0)
 -->
<!-- Title: lexer Pages: 1 -->
<!--zoomable 480 -->
<svg id="main" version="1.1" xmlns="http://www.w3.org/2000/svg" xmlns:xlink="http://www.w3.org/1999/xlink" xml:space="preserve" onload="init(evt)">
<style type="text/css"><![CDATA[
.edge:hover path { stroke: red; }
.edge:hover polygon { stroke: red; fill: red; }
]]></style>
<script type="text/javascript"><![CDATA[
var edges = document.getElementsByTagName('g');
if (edges && edges.length) {
  for (var i=0;i<edges.length;i++) {
    if (edges[i].id.substr(0,4)=='edge') {
      edges[i].setAttribute('class','edge');
    }
  }
}
]]></script>
        <defs>
                <circle id="rim" cx="0" cy="0" r="7"/>
                <circle id="rim2" cx="0" cy="0" r="3.5"/>
                <g id="zoomPlus">
                        <use xlink:href="#rim" fill="#404040">
                                <set attributeName="fill" to="#808080" begin="zoomplus.mouseover" end="zoomplus.mouseout"/>
                        </use>
                        <path d="M-4,0h8M0,-4v8" fill="none" stroke="white" stroke-width="1.5" pointer-events="none"/>
                </g>
                <g id="zoomMin">
                        <use xlink:href="#rim" fill="#404040">
                                <set attributeName="fill" to="#808080" begin="zoomminus.mouseover" end="zoomminus.mouseout"/>
                        </use>
                        <path d="M-4,0h8" fill="none" stroke="white" stroke-width="1.5" pointer-events="none"/>
                </g>
                <g id="dirArrow">
                        <path fill="none" stroke="white" stroke-width="1.5" d="M0,-3.0v7 M-2.5,-0.5L0,-3.0L2.5,-0.5"/>
                </g>
               <g id="resetDef">
                       <use xlink:href="#rim2" fill="#404040">
                               <set attributeName="fill" to="#808080" begin="reset.mouseover" end="reset.mouseout"/>
                       </use>
               </g>
        </defs>

<script type="text/javascript">
var viewWidth = 456;
var viewHeight = 480;
var sectionId = 'dynsection-4';
</script>
<script xlink:href="svgpan.js"/>
<svg id="graph" class="graph">
<g id="viewport">
<title>lexer</title>
<!-- Node1 -->
<g id="node1" class="node">
<title>Node1</title>
<g id="a_node1"><a xlink:title="Global lexing function, that traverses readline&#39;s string and separate in tokens.">
<polygon fill="#bfbfbf" stroke="black" points="0,-319.86 0,-338.86 41,-338.86 41,-319.86 0,-319.86"/>
<text text-anchor="middle" x="20.5" y="-326.86" font-family="Helvetica,sans-Serif" font-size="10.00">lexer</text>
</a>
</g>
</g>
<!-- Node2 -->
<g id="node2" class="node">
<title>Node2</title>
<g id="a_node2"><a xlink:href="token__utils_8c.html#abe4c47d3831fc3c644e4b78391dfa502" target="_top" xlink:title="Method of append is a linked list with pointers.">
<polygon fill="none" stroke="black" points="77,-452.86 77,-471.86 162,-471.86 162,-452.86 77,-452.86"/>
<text text-anchor="middle" x="119.5" y="-459.86" font-family="Helvetica,sans-Serif" font-size="10.00">append_token</text>
</a>
</g>
</g>
<!-- Node1&#45;&gt;Node2 -->
<g id="edge1" class="edge">
<title>Node1&#45;&gt;Node2</title>
<path fill="none" stroke="midnightblue" d="M23.78,-338.92C29.35,-360.32 45.5,-412.6 77,-443.36 78.45,-444.77 80.02,-446.09 81.67,-447.32"/>
<polygon fill="midnightblue" stroke="midnightblue" points="80.12,-450.48 90.47,-452.76 83.8,-444.53 80.12,-450.48"/>
</g>
<!-- Node3 -->
<g id="node3" class="node">
<title>Node3</title>
<g id="a_node3"><a xlink:href="token__utils_8c.html#ab3d9f0b7ddaf8661f8a3b3243d33bce7" target="_top" xlink:title="Free t_token entire linked list.">
<polygon fill="none" stroke="black" points="82.5,-414.86 82.5,-433.86 156.5,-433.86 156.5,-414.86 82.5,-414.86"/>
<text text-anchor="middle" x="119.5" y="-421.86" font-family="Helvetica,sans-Serif" font-size="10.00">free_tokens</text>
</a>
</g>
</g>
<!-- Node1&#45;&gt;Node3 -->
<g id="edge2" class="edge">
<title>Node1&#45;&gt;Node3</title>
<path fill="none" stroke="midnightblue" d="M26.4,-338.99C34.83,-354.73 53.46,-386.14 77,-405.36 78.99,-406.98 81.14,-408.5 83.37,-409.91"/>
<polygon fill="midnightblue" stroke="midnightblue" points="81.84,-413.06 92.29,-414.83 85.22,-406.93 81.84,-413.06"/>
</g>
<!-- Node4 -->
<g id="node4" class="node">
<title>Node4</title>
<g id="a_node4"><a xlink:href="lexer_8c.html#a36667927c23670d83624ca9049adfc2d" target="_top" xlink:title="Check if the char is one of the possible operator, currently &#39;&lt;&#39;, &#39;&gt;&#39; or &#39;|&#39;.">
<polygon fill="none" stroke="black" points="217.5,-262.86 217.5,-281.86 315.5,-281.86 315.5,-262.86 217.5,-262.86"/>
<text text-anchor="middle" x="266.5" y="-269.86" font-family="Helvetica,sans-Serif" font-size="10.00">is_char_operator</text>
</a>
</g>
</g>
<!-- Node1&#45;&gt;Node4 -->
<g id="edge3" class="edge">
<title>Node1&#45;&gt;Node4</title>
<path fill="none" stroke="midnightblue" d="M41.22,-323.8C51.8,-320.88 65.08,-317.3 77,-314.36 121.49,-303.4 172.19,-292.17 209.8,-284.09"/>
<polygon fill="midnightblue" stroke="midnightblue" points="211,-287.41 220.04,-281.89 209.53,-280.57 211,-287.41"/>
</g>
<!-- Node5 -->
<g id="node5" class="node">
<title>Node5</title>
<g id="a_node5"><a xlink:href="lexer__utils_8c.html#a5226e7cc8fd04bded427425b8bee4439" target="_top" xlink:title="Initialize t_lexer.">
<polygon fill="none" stroke="black" points="93,-148.86 93,-167.86 146,-167.86 146,-148.86 93,-148.86"/>
<text text-anchor="middle" x="119.5" y="-155.86" font-family="Helvetica,sans-Serif" font-size="10.00">lex_init</text>
</a>
</g>
</g>
<!-- Node1&#45;&gt;Node5 -->
<g id="edge4" class="edge">
<title>Node1&#45;&gt;Node5</title>
<path fill="none" stroke="midnightblue" d="M22.44,-319.86C25.49,-293.8 37.35,-220.28 77,-177.36 79.02,-175.18 81.33,-173.23 83.82,-171.49"/>
<polygon fill="midnightblue" stroke="midnightblue" points="85.81,-174.38 92.72,-166.35 82.31,-168.31 85.81,-174.38"/>
</g>
<!-- Node6 -->
<g id="node6" class="node">
<title>Node6</title>
<g id="a_node6"><a xlink:href="lexer_8c.html#a4224de0ac9d722a19a477ae2880f54da" target="_top" xlink:title="Make the operator in the global string a token.">
<polygon fill="none" stroke="black" points="80.5,-338.86 80.5,-357.86 158.5,-357.86 158.5,-338.86 80.5,-338.86"/>
<text text-anchor="middle" x="119.5" y="-345.86" font-family="Helvetica,sans-Serif" font-size="10.00">lex_operator</text>
</a>
</g>
</g>
<!-- Node1&#45;&gt;Node6 -->
<g id="edge5" class="edge">
<title>Node1&#45;&gt;Node6</title>
<path fill="none" stroke="midnightblue" d="M41.13,-333.21C49.69,-334.88 60.13,-336.93 70.54,-338.97"/>
<polygon fill="midnightblue" stroke="midnightblue" points="69.96,-342.42 80.45,-340.91 71.31,-335.55 69.96,-342.42"/>
</g>
<!-- Node8 -->
<g id="node8" class="node">
<title>Node8</title>
<g id="a_node8"><a xlink:href="token__utils_8c.html#a9fd4752dfeaa8c87b63c2c53710b28f5" target="_top" xlink:title="Build a token.">
<polygon fill="none" stroke="black" points="228.5,-300.86 228.5,-319.86 304.5,-319.86 304.5,-300.86 228.5,-300.86"/>
<text text-anchor="middle" x="266.5" y="-307.86" font-family="Helvetica,sans-Serif" font-size="10.00">make_token</text>
</a>
</g>
</g>
<!-- Node1&#45;&gt;Node8 -->
<g id="edge24" class="edge">
<title>Node1&#45;&gt;Node8</title>
<path fill="none" stroke="midnightblue" d="M41.06,-327.84C79.2,-324.87 164.48,-318.23 218.24,-314.04"/>
<polygon fill="midnightblue" stroke="midnightblue" points="218.53,-317.53 228.23,-313.26 217.99,-310.55 218.53,-317.53"/>
</g>
<!-- Node10 -->
<g id="node10" class="node">
<title>Node10</title>
<g id="a_node10"><a xlink:href="lexer__word_8c.html#a4093905b7d1dfe02710752ee5da8fe01" target="_top" xlink:title="Lexes the string to create a WORD token.">
<polygon fill="none" stroke="black" points="89,-186.86 89,-205.86 150,-205.86 150,-186.86 89,-186.86"/>
<text text-anchor="middle" x="119.5" y="-193.86" font-family="Helvetica,sans-Serif" font-size="10.00">lex_word</text>
</a>
</g>
</g>
<!-- Node1&#45;&gt;Node10 -->
<g id="edge9" class="edge">
<title>Node1&#45;&gt;Node10</title>
<path fill="none" stroke="midnightblue" d="M28.48,-319.8C44.55,-297.76 84.4,-243.12 105.27,-214.5"/>
<polygon fill="midnightblue" stroke="midnightblue" points="108.26,-216.34 111.33,-206.2 102.61,-212.22 108.26,-216.34"/>
</g>
<!-- Node17 -->
<g id="node17" class="node">
<title>Node17</title>
<g id="a_node17"><a xlink:href="lexer__utils_8c.html#a0665b31ffb5665ad2a085f2b1a5e0e25" target="_top" xlink:title="Skip whitespaces in the t_lexer struct.">
<polygon fill="none" stroke="black" points="77.5,-376.86 77.5,-395.86 161.5,-395.86 161.5,-376.86 77.5,-376.86"/>
<text text-anchor="middle" x="119.5" y="-383.86" font-family="Helvetica,sans-Serif" font-size="10.00">skip_wspaces</text>
</a>
</g>
</g>
<!-- Node1&#45;&gt;Node17 -->
<g id="edge25" class="edge">
<title>Node1&#45;&gt;Node17</title>
<path fill="none" stroke="midnightblue" d="M34.32,-339.07C45.32,-347.17 61.75,-358.74 77,-367.36 80.06,-369.09 83.3,-370.79 86.58,-372.42"/>
<polygon fill="midnightblue" stroke="midnightblue" points="85.22,-375.65 95.75,-376.79 88.23,-369.33 85.22,-375.65"/>
</g>
<!-- Node7 -->
<g id="node7" class="node">
<title>Node7</title>
<g id="a_node7"><a xlink:href="lexer__utils_8c.html#a6b132516dacc9599762b1fe7341a0f04" target="_top" xlink:title="Advance one byte in the struct t_lexer to keep track of progress.">
<polygon fill="none" stroke="black" points="380.5,-224.86 380.5,-243.86 438.5,-243.86 438.5,-224.86 380.5,-224.86"/>
<text text-anchor="middle" x="409.5" y="-231.86" font-family="Helvetica,sans-Serif" font-size="10.00">advance</text>
</a>
</g>
</g>
<!-- Node6&#45;&gt;Node7 -->
<g id="edge6" class="edge">
<title>Node6&#45;&gt;Node7</title>
<path fill="none" stroke="midnightblue" d="M141.79,-357.91C182.5,-374.61 272.85,-404.02 335,-367.36 376.89,-342.65 396.56,-284.55 404.3,-253.97"/>
<polygon fill="midnightblue" stroke="midnightblue" points="407.74,-254.6 406.62,-244.06 400.93,-253 407.74,-254.6"/>
</g>
<!-- Node6&#45;&gt;Node8 -->
<g id="edge7" class="edge">
<title>Node6&#45;&gt;Node8</title>
<path fill="none" stroke="midnightblue" d="M157.09,-338.77C175.97,-333.83 199.19,-327.74 219.29,-322.47"/>
<polygon fill="midnightblue" stroke="midnightblue" points="220.39,-325.8 229.17,-319.88 218.61,-319.03 220.39,-325.8"/>
</g>
<!-- Node9 -->
<g id="node9" class="node">
<title>Node9</title>
<g id="a_node9"><a xlink:href="lexer__utils_8c.html#a855a36981b55d317a52d24560c0809bf" target="_top" xlink:title="&quot;Peek&quot;, Look at the next character in the input string">
<polygon fill="none" stroke="black" points="246,-338.86 246,-357.86 287,-357.86 287,-338.86 246,-338.86"/>
<text text-anchor="middle" x="266.5" y="-345.86" font-family="Helvetica,sans-Serif" font-size="10.00">peek</text>
</a>
</g>
</g>
<!-- Node6&#45;&gt;Node9 -->
<g id="edge8" class="edge">
<title>Node6&#45;&gt;Node9</title>
<path fill="none" stroke="midnightblue" d="M158.6,-348.36C182.68,-348.36 213.36,-348.36 235.67,-348.36"/>
<polygon fill="midnightblue" stroke="midnightblue" points="235.88,-351.86 245.88,-348.36 235.88,-344.86 235.88,-351.86"/>
</g>
<!-- Node10&#45;&gt;Node4 -->
<g id="edge14" class="edge">
<title>Node10&#45;&gt;Node4</title>
<path fill="none" stroke="midnightblue" d="M132.79,-206.03C147.6,-217.33 173.54,-236.05 198,-248.36 206.15,-252.46 215.18,-256.19 223.91,-259.41"/>
<polygon fill="midnightblue" stroke="midnightblue" points="222.98,-262.79 233.57,-262.83 225.31,-256.2 222.98,-262.79"/>
</g>
<!-- Node10&#45;&gt;Node7 -->
<g id="edge10" class="edge">
<title>Node10&#45;&gt;Node7</title>
<path fill="none" stroke="midnightblue" d="M150.09,-204.73C164.45,-208.5 182.01,-212.7 198,-215.36 257.73,-225.32 327.92,-230.33 370.27,-232.64"/>
<polygon fill="midnightblue" stroke="midnightblue" points="370.24,-236.14 380.41,-233.17 370.6,-229.15 370.24,-236.14"/>
</g>
<!-- Node10&#45;&gt;Node8 -->
<g id="edge15" class="edge">
<title>Node10&#45;&gt;Node8</title>
<path fill="none" stroke="midnightblue" d="M125.69,-206.1C136.49,-225.39 163.29,-268.6 198,-291.36 204.23,-295.45 211.34,-298.66 218.55,-301.2"/>
<polygon fill="midnightblue" stroke="midnightblue" points="217.78,-304.62 228.37,-304.24 219.85,-297.94 217.78,-304.62"/>
</g>
<!-- Node11 -->
<g id="node11" class="node">
<title>Node11</title>
<g id="a_node11"><a xlink:href="lexer__word_8c.html#a088ba907ca2f9f7d89809627a5ef8313" target="_top" xlink:title="Lexes a segment delimited by double quotes.">
<polygon fill="none" stroke="black" points="198,-148.86 198,-167.86 335,-167.86 335,-148.86 198,-148.86"/>
<text text-anchor="middle" x="266.5" y="-155.86" font-family="Helvetica,sans-Serif" font-size="10.00">double_quoted_segment</text>
</a>
</g>
</g>
<!-- Node10&#45;&gt;Node11 -->
<g id="edge11" class="edge">
<title>Node10&#45;&gt;Node11</title>
<path fill="none" stroke="midnightblue" d="M150.19,-188.58C170.11,-183.36 196.75,-176.38 219.4,-170.44"/>
<polygon fill="midnightblue" stroke="midnightblue" points="220.38,-173.8 229.16,-167.88 218.6,-167.03 220.38,-173.8"/>
</g>
<!-- Node12 -->
<g id="node12" class="node">
<title>Node12</title>
<g id="a_node12"><a xlink:href="string__builder_8c.html#a54e602a5da87bd89687c69c2d86f34d2" target="_top" xlink:title="Put char in the struct t_str_buf so we can build a string in the struct. The point is to create the s...">
<polygon fill="none" stroke="black" points="371,-129.86 371,-148.86 448,-148.86 448,-129.86 371,-129.86"/>
<text text-anchor="middle" x="409.5" y="-136.86" font-family="Helvetica,sans-Serif" font-size="10.00">str_buf_putc</text>
</a>
</g>
</g>
<!-- Node10&#45;&gt;Node12 -->
<g id="edge23" class="edge">
<title>Node10&#45;&gt;Node12</title>
<path fill="none" stroke="midnightblue" d="M150.09,-186.95C154.58,-184.43 158.78,-181.28 162,-177.36 206.03,-123.69 143.55,-68.42 198,-25.36 245.76,12.41 281.54,3.78 335,-25.36 371.89,-45.47 393.06,-92.92 402.5,-119.84"/>
<polygon fill="midnightblue" stroke="midnightblue" points="399.29,-121.27 405.75,-129.67 405.94,-119.07 399.29,-121.27"/>
</g>
<!-- Node13 -->
<g id="node13" class="node">
<title>Node13</title>
<g id="a_node13"><a xlink:href="lexer__word_8c.html#ad9e7809fee584699717eb691257a6ded" target="_top" xlink:title="Lexes a segment delimited by single quotes.">
<polygon fill="none" stroke="black" points="200,-186.86 200,-205.86 333,-205.86 333,-186.86 200,-186.86"/>
<text text-anchor="middle" x="266.5" y="-193.86" font-family="Helvetica,sans-Serif" font-size="10.00">single_quoted_segment</text>
</a>
</g>
</g>
<!-- Node10&#45;&gt;Node13 -->
<g id="edge16" class="edge">
<title>Node10&#45;&gt;Node13</title>
<path fill="none" stroke="midnightblue" d="M150.19,-196.36C161.79,-196.36 175.67,-196.36 189.72,-196.36"/>
<polygon fill="midnightblue" stroke="midnightblue" points="189.94,-199.86 199.94,-196.36 189.94,-192.86 189.94,-199.86"/>
</g>
<!-- Node14 -->
<g id="node14" class="node">
<title>Node14</title>
<g id="a_node14"><a xlink:href="string__builder_8c.html#a1bfdfae2d27c541b15b526d7d67b7577" target="_top" xlink:title="End and null terminate the string created in t_str_buf, reset the struct so it can be reused and retu...">
<polygon fill="none" stroke="black" points="229.5,-110.86 229.5,-129.86 303.5,-129.86 303.5,-110.86 229.5,-110.86"/>
<text text-anchor="middle" x="266.5" y="-117.86" font-family="Helvetica,sans-Serif" font-size="10.00">str_buf_end</text>
</a>
</g>
</g>
<!-- Node10&#45;&gt;Node14 -->
<g id="edge19" class="edge">
<title>Node10&#45;&gt;Node14</title>
<path fill="none" stroke="midnightblue" d="M145.5,-186.79C151.16,-184.13 156.97,-180.96 162,-177.36 180.92,-163.83 178.09,-151.39 198,-139.36 204.59,-135.38 212.05,-132.2 219.54,-129.68"/>
<polygon fill="midnightblue" stroke="midnightblue" points="220.78,-132.96 229.34,-126.73 218.76,-126.26 220.78,-132.96"/>
</g>
<!-- Node15 -->
<g id="node15" class="node">
<title>Node15</title>
<g id="a_node15"><a xlink:href="string__builder_8c.html#a34739f65bf6f3e3e2b9e19dadf5fe217" target="_top" xlink:title=" ">
<polygon fill="none" stroke="black" points="229,-72.86 229,-91.86 304,-91.86 304,-72.86 229,-72.86"/>
<text text-anchor="middle" x="266.5" y="-79.86" font-family="Helvetica,sans-Serif" font-size="10.00">str_buf_free</text>
</a>
</g>
</g>
<!-- Node10&#45;&gt;Node15 -->
<g id="edge21" class="edge">
<title>Node10&#45;&gt;Node15</title>
<path fill="none" stroke="midnightblue" d="M148.57,-186.79C153.44,-184.26 158.17,-181.15 162,-177.36 188.6,-151.11 169.45,-125.48 198,-101.36 204.08,-96.22 211.46,-92.47 219.08,-89.73"/>
<polygon fill="midnightblue" stroke="midnightblue" points="220.23,-93.04 228.77,-86.77 218.19,-86.34 220.23,-93.04"/>
</g>
<!-- Node16 -->
<g id="node16" class="node">
<title>Node16</title>
<g id="a_node16"><a xlink:href="string__builder_8c.html#a2ff0766da574e4904598f3119c7d3749" target="_top" xlink:title=" ">
<polygon fill="none" stroke="black" points="231,-34.86 231,-53.86 302,-53.86 302,-34.86 231,-34.86"/>
<text text-anchor="middle" x="266.5" y="-41.86" font-family="Helvetica,sans-Serif" font-size="10.00">str_buf_init</text>
</a>
</g>
</g>
<!-- Node10&#45;&gt;Node16 -->
<g id="edge22" class="edge">
<title>Node10&#45;&gt;Node16</title>
<path fill="none" stroke="midnightblue" d="M149.85,-186.74C154.37,-184.25 158.64,-181.16 162,-177.36 197.18,-137.54 159.84,-100.34 198,-63.36 204.42,-57.14 212.7,-52.93 221.25,-50.08"/>
<polygon fill="midnightblue" stroke="midnightblue" points="222.23,-53.44 230.94,-47.41 220.37,-46.69 222.23,-53.44"/>
</g>
<!-- Node11&#45;&gt;Node7 -->
<g id="edge12" class="edge">
<title>Node11&#45;&gt;Node7</title>
<path fill="none" stroke="midnightblue" d="M310.93,-167.91C319.14,-170.46 327.5,-173.58 335,-177.36 355.97,-187.94 376.84,-204.89 390.95,-217.57"/>
<polygon fill="midnightblue" stroke="midnightblue" points="388.7,-220.26 398.43,-224.46 393.45,-215.11 388.7,-220.26"/>
</g>
<!-- Node11&#45;&gt;Node12 -->
<g id="edge13" class="edge">
<title>Node11&#45;&gt;Node12</title>
<path fill="none" stroke="midnightblue" d="M335.11,-149.25C343.76,-148.09 352.46,-146.91 360.7,-145.8"/>
<polygon fill="midnightblue" stroke="midnightblue" points="361.41,-149.24 370.85,-144.43 360.48,-142.3 361.41,-149.24"/>
</g>
<!-- Node13&#45;&gt;Node7 -->
<g id="edge17" class="edge">
<title>Node13&#45;&gt;Node7</title>
<path fill="none" stroke="midnightblue" d="M303.08,-205.95C323.69,-211.51 349.63,-218.5 370.62,-224.15"/>
<polygon fill="midnightblue" stroke="midnightblue" points="369.92,-227.59 380.48,-226.81 371.74,-220.83 369.92,-227.59"/>
</g>
<!-- Node13&#45;&gt;Node12 -->
<g id="edge18" class="edge">
<title>Node13&#45;&gt;Node12</title>
<path fill="none" stroke="midnightblue" d="M306.5,-186.84C315.95,-184.13 325.94,-180.94 335,-177.36 351.61,-170.81 369.42,-161.66 383.35,-153.98"/>
<polygon fill="midnightblue" stroke="midnightblue" points="385.3,-156.9 392.31,-148.95 381.88,-150.79 385.3,-156.9"/>
</g>
<!-- Node14&#45;&gt;Node12 -->
<g id="edge20" class="edge">
<title>Node14&#45;&gt;Node12</title>
<path fill="none" stroke="midnightblue" d="M303.81,-125.25C321.16,-127.59 342.15,-130.42 360.77,-132.93"/>
<polygon fill="midnightblue" stroke="midnightblue" points="360.46,-136.42 370.84,-134.29 361.39,-129.48 360.46,-136.42"/>
</g>
<!-- Node17&#45;&gt;Node7 -->
<g id="edge26" class="edge">
<title>Node17&#45;&gt;Node7</title>
<path fill="none" stroke="midnightblue" d="M149.19,-395.95C193,-408.7 277.56,-425.7 335,-389.36 382.71,-359.18 400.07,-288.7 405.86,-254.16"/>
<polygon fill="midnightblue" stroke="midnightblue" points="409.37,-254.34 407.41,-243.93 402.45,-253.29 409.37,-254.34"/>
</g>
</g>
</svg>
        <g id="navigator" transform="translate(0 0)" fill="#404254">
                <rect fill="#f2f5e9" fill-opacity="0.5" stroke="#606060" stroke-width=".5" x="0" y="0" width="60" height="60"/>
                <use id="zoomplus" xlink:href="#zoomPlus" x="17" y="9" onmousedown="handleZoom(evt,'in')"/>
                <use id="zoomminus" xlink:href="#zoomMin" x="42" y="9" onmousedown="handleZoom(evt,'out')"/>
                <use id="reset" xlink:href="#resetDef" x="30" y="36" onmousedown="handleReset()"/>
                <g id="arrowUp" xlink:href="#dirArrow" transform="translate(30 24)" onmousedown="handlePan(0,-1)">
                  <use xlink:href="#rim" fill="#404040">
                        <set attributeName="fill" to="#808080" begin="arrowUp.mouseover" end="arrowUp.mouseout"/>
                  </use>
                  <path fill="none" stroke="white" stroke-width="1.5" d="M0,-3.0v7 M-2.5,-0.5L0,-3.0L2.5,-0.5"/>
                </g>
                <g id="arrowRight" xlink:href="#dirArrow" transform="rotate(90) translate(36 -43)" onmousedown="handlePan(1,0)">
                  <use xlink:href="#rim" fill="#404040">
                        <set attributeName="fill" to="#808080" begin="arrowRight.mouseover" end="arrowRight.mouseout"/>
                  </use>
                  <path fill="none" stroke="white" stroke-width="1.5" d="M0,-3.0v7 M-2.5,-0.5L0,-3.0L2.5,-0.5"/>
                </g>
                <g id="arrowDown" xlink:href="#dirArrow" transform="rotate(180) translate(-30 -48)" onmousedown="handlePan(0,1)">
                  <use xlink:href="#rim" fill="#404040">
                        <set attributeName="fill" to="#808080" begin="arrowDown.mouseover" end="arrowDown.mouseout"/>
                  </use>
                  <path fill="none" stroke="white" stroke-width="1.5" d="M0,-3.0v7 M-2.5,-0.5L0,-3.0L2.5,-0.5"/>
                </g>
                <g id="arrowLeft" xlink:href="#dirArrow" transform="rotate(270) translate(-36 17)" onmousedown="handlePan(-1,0)">
                  <use xlink:href="#rim" fill="#404040">
                        <set attributeName="fill" to="#808080" begin="arrowLeft.mouseover" end="arrowLeft.mouseout"/>
                  </use>
                  <path fill="none" stroke="white" stroke-width="1.5" d="M0,-3.0v7 M-2.5,-0.5L0,-3.0L2.5,-0.5"/>
                </g>
        </g>
        <svg viewBox="0 0 15 15" width="100%" height="30px" preserveAspectRatio="xMaxYMin meet">
         <g id="arrow_out" transform="scale(0.3 0.3)">
          <a xlink:href="lexer_8c_aced469451204cf536fd18b4cf94f6b91_cgraph_org.svg" target="_base">
           <rect id="button" ry="5" rx="5" y="6" x="6" height="38" width="38"
                fill="#f2f5e9" fill-opacity="0.5" stroke="#606060" stroke-width="1.0"/>
           <path id="arrow"
             d="M 11.500037,31.436501 C 11.940474,20.09759 22.043105,11.32322 32.158766,21.979434 L 37.068811,17.246167 C 37.068811,17.246167 37.088388,32 37.088388,32 L 22.160133,31.978069 C 22.160133,31.978069 26.997745,27.140456 26.997745,27.140456 C 18.528582,18.264221 13.291696,25.230495 11.500037,31.436501 z"
             style="fill:#404040;"/>
          </a>
         </g>
        </svg>
</svg>
