<?xml version="1.0" encoding="UTF-8" standalone="no"?>
<!DOCTYPE svg PUBLIC "-//W3C//DTD SVG 1.1//EN"
 "http://www.w3.org/Graphics/SVG/1.1/DTD/svg11.dtd">
<!-- Generated by graphviz version 2.43.0 (0)
 -->
<!-- Title: double_quoted_segment Pages: 1 -->
<svg width="258pt" height="66pt"
 viewBox="0.00 0.00 258.00 66.00" xmlns="http://www.w3.org/2000/svg" xmlns:xlink="http://www.w3.org/1999/xlink">
<g id="graph0" class="graph" transform="scale(1 1) rotate(0) translate(4 62)">
<title>double_quoted_segment</title>
<!-- Node1 -->
<g id="node1" class="node">
<title>Node1</title>
<g id="a_node1"><a xlink:title="Lexes a segment delimited by double quotes.">
<polygon fill="#bfbfbf" stroke="black" points="0,-19.5 0,-38.5 137,-38.5 137,-19.5 0,-19.5"/>
<text text-anchor="middle" x="68.5" y="-26.5" font-family="Helvetica,sans-Serif" font-size="10.00">double_quoted_segment</text>
</a>
</g>
</g>
<!-- Node2 -->
<g id="node2" class="node">
<title>Node2</title>
<g id="a_node2"><a xlink:href="lexer__utils_8c.html#a6b132516dacc9599762b1fe7341a0f04" target="_top" xlink:title="Advance one byte in the struct t_lexer to keep track of progress.">
<polygon fill="none" stroke="black" points="182.5,-38.5 182.5,-57.5 240.5,-57.5 240.5,-38.5 182.5,-38.5"/>
<text text-anchor="middle" x="211.5" y="-45.5" font-family="Helvetica,sans-Serif" font-size="10.00">advance</text>
</a>
</g>
</g>
<!-- Node1&#45;&gt;Node2 -->
<g id="edge1" class="edge">
<title>Node1&#45;&gt;Node2</title>
<path fill="none" stroke="midnightblue" d="M137.11,-38.11C149.21,-39.74 161.43,-41.39 172.33,-42.86"/>
<polygon fill="midnightblue" stroke="midnightblue" points="171.96,-46.34 182.34,-44.2 172.89,-39.4 171.96,-46.34"/>
</g>
<!-- Node3 -->
<g id="node3" class="node">
<title>Node3</title>
<g id="a_node3"><a xlink:href="string__builder_8c.html#a54e602a5da87bd89687c69c2d86f34d2" target="_top" xlink:title="Put char in the struct t_str_buf so we can build a string in the struct. The point is to create the s...">
<polygon fill="none" stroke="black" points="173,-0.5 173,-19.5 250,-19.5 250,-0.5 173,-0.5"/>
<text text-anchor="middle" x="211.5" y="-7.5" font-family="Helvetica,sans-Serif" font-size="10.00">str_buf_putc</text>
</a>
</g>
</g>
<!-- Node1&#45;&gt;Node3 -->
<g id="edge2" class="edge">
<title>Node1&#45;&gt;Node3</title>
<path fill="none" stroke="midnightblue" d="M137.11,-19.89C145.76,-18.72 154.46,-17.55 162.7,-16.44"/>
<polygon fill="midnightblue" stroke="midnightblue" points="163.41,-19.88 172.85,-15.07 162.48,-12.94 163.41,-19.88"/>
</g>
</g>
</svg>
