<?xml version="1.0" encoding="UTF-8" standalone="no"?>
<!DOCTYPE svg PUBLIC "-//W3C//DTD SVG 1.1//EN"
 "http://www.w3.org/Graphics/SVG/1.1/DTD/svg11.dtd">
<!-- Generated by graphviz version 2.43.0 (0)
 -->
<!-- Title: peek Pages: 1 -->
<svg width="554pt" height="137pt"
 viewBox="0.00 0.00 554.00 137.00" xmlns="http://www.w3.org/2000/svg" xmlns:xlink="http://www.w3.org/1999/xlink">
<g id="graph0" class="graph" transform="scale(1 1) rotate(0) translate(4 133)">
<title>peek</title>
<!-- Node1 -->
<g id="node1" class="node">
<title>Node1</title>
<g id="a_node1"><a xlink:title="&quot;Peek&quot;, Look at the next character in the input string">
<polygon fill="#bfbfbf" stroke="black" points="505,-57.5 505,-76.5 546,-76.5 546,-57.5 505,-57.5"/>
<text text-anchor="middle" x="525.5" y="-64.5" font-family="Helvetica,sans-Serif" font-size="10.00">peek</text>
</a>
</g>
</g>
<!-- Node2 -->
<g id="node2" class="node">
<title>Node2</title>
<g id="a_node2"><a xlink:href="lexer__word_8c.html#a088ba907ca2f9f7d89809627a5ef8313" target="_top" xlink:title="Lexes a segment delimited by double quotes.">
<polygon fill="none" stroke="black" points="332,-38.5 332,-57.5 469,-57.5 469,-38.5 332,-38.5"/>
<text text-anchor="middle" x="400.5" y="-45.5" font-family="Helvetica,sans-Serif" font-size="10.00">double_quoted_segment</text>
</a>
</g>
</g>
<!-- Node1&#45;&gt;Node2 -->
<g id="edge1" class="edge">
<title>Node1&#45;&gt;Node2</title>
<path fill="none" stroke="midnightblue" d="M494.64,-62.39C485.1,-60.91 474.18,-59.23 463.24,-57.54"/>
<polygon fill="midnightblue" stroke="midnightblue" points="494.32,-65.88 504.74,-63.95 495.39,-58.96 494.32,-65.88"/>
</g>
<!-- Node6 -->
<g id="node6" class="node">
<title>Node6</title>
<g id="a_node6"><a xlink:href="lexer__word_8c.html#ad7d5fd37a954794c29d8d8b4807c233e" target="_top" xlink:title="Handle backslash to escape next char correctly.">
<polygon fill="none" stroke="black" points="351,-76.5 351,-95.5 450,-95.5 450,-76.5 351,-76.5"/>
<text text-anchor="middle" x="400.5" y="-83.5" font-family="Helvetica,sans-Serif" font-size="10.00">escape_segment</text>
</a>
</g>
</g>
<!-- Node1&#45;&gt;Node6 -->
<g id="edge5" class="edge">
<title>Node1&#45;&gt;Node6</title>
<path fill="none" stroke="midnightblue" d="M494.68,-71.61C481.31,-73.67 465.19,-76.16 450.15,-78.49"/>
<polygon fill="midnightblue" stroke="midnightblue" points="495.39,-75.04 504.74,-70.05 494.32,-68.12 495.39,-75.04"/>
</g>
<!-- Node7 -->
<g id="node7" class="node">
<title>Node7</title>
<g id="a_node7"><a xlink:href="expand__dollar_8c.html#ac3e15865744ed2c1300a5cb96f24e33d" target="_top" xlink:title="Manages all possibilities with expand : $?, known and unknown env variable.">
<polygon fill="none" stroke="black" points="359,-0.5 359,-19.5 442,-19.5 442,-0.5 359,-0.5"/>
<text text-anchor="middle" x="400.5" y="-7.5" font-family="Helvetica,sans-Serif" font-size="10.00">handle_dollar</text>
</a>
</g>
</g>
<!-- Node1&#45;&gt;Node7 -->
<g id="edge7" class="edge">
<title>Node1&#45;&gt;Node7</title>
<path fill="none" stroke="midnightblue" d="M504.67,-51.08C494.49,-43.53 481.6,-34.89 469,-29 460.62,-25.08 451.26,-21.81 442.25,-19.16"/>
<polygon fill="midnightblue" stroke="midnightblue" points="502.78,-54.04 512.85,-57.34 507.04,-48.48 502.78,-54.04"/>
</g>
<!-- Node10 -->
<g id="node10" class="node">
<title>Node10</title>
<g id="a_node10"><a xlink:href="lexer_8c.html#a4224de0ac9d722a19a477ae2880f54da" target="_top" xlink:title="Make the operator in the global string a token.">
<polygon fill="none" stroke="black" points="216,-109.5 216,-128.5 294,-128.5 294,-109.5 216,-109.5"/>
<text text-anchor="middle" x="255" y="-116.5" font-family="Helvetica,sans-Serif" font-size="10.00">lex_operator</text>
</a>
</g>
</g>
<!-- Node1&#45;&gt;Node10 -->
<g id="edge11" class="edge">
<title>Node1&#45;&gt;Node10</title>
<path fill="none" stroke="midnightblue" d="M506.23,-83.23C496.01,-91.29 482.62,-100.29 469,-105 410.51,-125.23 337.69,-125.02 294.12,-122.44"/>
<polygon fill="midnightblue" stroke="midnightblue" points="508.52,-85.87 513.99,-76.79 504.06,-80.47 508.52,-85.87"/>
</g>
<!-- Node3 -->
<g id="node3" class="node">
<title>Node3</title>
<g id="a_node3"><a xlink:href="lexer__word_8c.html#a4093905b7d1dfe02710752ee5da8fe01" target="_top" xlink:title="Lexes the string to create a WORD token.">
<polygon fill="none" stroke="black" points="224.5,-66.5 224.5,-85.5 285.5,-85.5 285.5,-66.5 224.5,-66.5"/>
<text text-anchor="middle" x="255" y="-73.5" font-family="Helvetica,sans-Serif" font-size="10.00">lex_word</text>
</a>
</g>
</g>
<!-- Node2&#45;&gt;Node3 -->
<g id="edge2" class="edge">
<title>Node2&#45;&gt;Node3</title>
<path fill="none" stroke="midnightblue" d="M340.46,-59.52C321.54,-63.21 301.4,-67.14 285.53,-70.24"/>
<polygon fill="midnightblue" stroke="midnightblue" points="341.37,-62.91 350.52,-57.56 340.03,-56.04 341.37,-62.91"/>
</g>
<!-- Node4 -->
<g id="node4" class="node">
<title>Node4</title>
<g id="a_node4"><a xlink:href="lexer_8c.html#aced469451204cf536fd18b4cf94f6b91" target="_top" xlink:title="Global lexing function, that traverses readline&#39;s string and separate in tokens.">
<polygon fill="none" stroke="black" points="107,-66.5 107,-85.5 148,-85.5 148,-66.5 107,-66.5"/>
<text text-anchor="middle" x="127.5" y="-73.5" font-family="Helvetica,sans-Serif" font-size="10.00">lexer</text>
</a>
</g>
</g>
<!-- Node3&#45;&gt;Node4 -->
<g id="edge3" class="edge">
<title>Node3&#45;&gt;Node4</title>
<path fill="none" stroke="midnightblue" d="M214.19,-76C192.21,-76 165.87,-76 148.25,-76"/>
<polygon fill="midnightblue" stroke="midnightblue" points="214.26,-79.5 224.26,-76 214.26,-72.5 214.26,-79.5"/>
</g>
<!-- Node5 -->
<g id="node5" class="node">
<title>Node5</title>
<g id="a_node5"><a xlink:href="main_8c.html#a647f21a28344e1d9c643f4115516d7c9" target="_top" xlink:title=" ">
<polygon fill="none" stroke="black" points="0,-38.5 0,-57.5 41,-57.5 41,-38.5 0,-38.5"/>
<text text-anchor="middle" x="20.5" y="-45.5" font-family="Helvetica,sans-Serif" font-size="10.00">main</text>
</a>
</g>
</g>
<!-- Node4&#45;&gt;Node5 -->
<g id="edge4" class="edge">
<title>Node4&#45;&gt;Node5</title>
<path fill="none" stroke="midnightblue" d="M96.84,-68.09C79.02,-63.34 56.83,-57.42 41.16,-53.24"/>
<polygon fill="midnightblue" stroke="midnightblue" points="96.19,-71.54 106.75,-70.73 97.99,-64.77 96.19,-71.54"/>
</g>
<!-- Node6&#45;&gt;Node3 -->
<g id="edge6" class="edge">
<title>Node6&#45;&gt;Node3</title>
<path fill="none" stroke="midnightblue" d="M340.85,-81.91C321.88,-80.59 301.65,-79.18 285.7,-78.07"/>
<polygon fill="midnightblue" stroke="midnightblue" points="340.7,-85.41 350.92,-82.61 341.18,-78.43 340.7,-85.41"/>
</g>
<!-- Node8 -->
<g id="node8" class="node">
<title>Node8</title>
<g id="a_node8"><a xlink:href="expand__word_8c.html#a0ec378990f411456436a9bb6a71babfc" target="_top" xlink:title="Scans the word to dequote/expand and build correct output.">
<polygon fill="none" stroke="black" points="214,-9.5 214,-28.5 296,-28.5 296,-9.5 214,-9.5"/>
<text text-anchor="middle" x="255" y="-16.5" font-family="Helvetica,sans-Serif" font-size="10.00">expand_word</text>
</a>
</g>
</g>
<!-- Node7&#45;&gt;Node8 -->
<g id="edge8" class="edge">
<title>Node7&#45;&gt;Node8</title>
<path fill="none" stroke="midnightblue" d="M348.38,-13.21C331.29,-14.28 312.49,-15.46 296.34,-16.47"/>
<polygon fill="midnightblue" stroke="midnightblue" points="349,-16.67 358.76,-12.55 348.56,-9.69 349,-16.67"/>
</g>
<!-- Node9 -->
<g id="node9" class="node">
<title>Node9</title>
<g id="a_node9"><a xlink:href="expand_8c.html#a53c53e75b0ad8c8888217cd918304b8b" target="_top" xlink:title="Iterate over every args and redir of each command to expand and dequote what needs to be.">
<polygon fill="none" stroke="black" points="77,-19.5 77,-38.5 178,-38.5 178,-19.5 77,-19.5"/>
<text text-anchor="middle" x="127.5" y="-26.5" font-family="Helvetica,sans-Serif" font-size="10.00">expand_manager</text>
</a>
</g>
</g>
<!-- Node8&#45;&gt;Node9 -->
<g id="edge9" class="edge">
<title>Node8&#45;&gt;Node9</title>
<path fill="none" stroke="midnightblue" d="M203.87,-22.99C195.45,-23.67 186.72,-24.36 178.3,-25.03"/>
<polygon fill="midnightblue" stroke="midnightblue" points="204.26,-26.47 213.95,-22.19 203.7,-19.5 204.26,-26.47"/>
</g>
<!-- Node9&#45;&gt;Node5 -->
<g id="edge10" class="edge">
<title>Node9&#45;&gt;Node5</title>
<path fill="none" stroke="midnightblue" d="M66.72,-39.82C57.53,-41.48 48.64,-43.09 41.2,-44.43"/>
<polygon fill="midnightblue" stroke="midnightblue" points="67.55,-43.22 76.77,-38 66.3,-36.34 67.55,-43.22"/>
</g>
<!-- Node10&#45;&gt;Node4 -->
<g id="edge12" class="edge">
<title>Node10&#45;&gt;Node4</title>
<path fill="none" stroke="midnightblue" d="M216.55,-106.17C194.05,-98.46 166.35,-88.97 148.09,-82.71"/>
<polygon fill="midnightblue" stroke="midnightblue" points="215.55,-109.53 226.15,-109.46 217.82,-102.9 215.55,-109.53"/>
</g>
</g>
</svg>
