<?xml version="1.0" encoding="UTF-8" standalone="no"?>
<!DOCTYPE svg PUBLIC "-//W3C//DTD SVG 1.1//EN"
 "http://www.w3.org/Graphics/SVG/1.1/DTD/svg11.dtd">
<!-- Generated by graphviz version 2.43.0 (0)
 -->
<!-- Title: single_quoted_segment Pages: 1 -->
<svg width="254pt" height="66pt"
 viewBox="0.00 0.00 254.00 66.00" xmlns="http://www.w3.org/2000/svg" xmlns:xlink="http://www.w3.org/1999/xlink">
<g id="graph0" class="graph" transform="scale(1 1) rotate(0) translate(4 62)">
<title>single_quoted_segment</title>
<!-- Node1 -->
<g id="node1" class="node">
<title>Node1</title>
<g id="a_node1"><a xlink:title="Lexes a segment delimited by single quotes.">
<polygon fill="#bfbfbf" stroke="black" points="0,-19.5 0,-38.5 133,-38.5 133,-19.5 0,-19.5"/>
<text text-anchor="middle" x="66.5" y="-26.5" font-family="Helvetica,sans-Serif" font-size="10.00">single_quoted_segment</text>
</a>
</g>
</g>
<!-- Node2 -->
<g id="node2" class="node">
<title>Node2</title>
<g id="a_node2"><a xlink:href="lexer__utils_8c.html#a6b132516dacc9599762b1fe7341a0f04" target="_top" xlink:title="Advance one byte in the struct t_lexer to keep track of progress.">
<polygon fill="none" stroke="black" points="178.5,-38.5 178.5,-57.5 236.5,-57.5 236.5,-38.5 178.5,-38.5"/>
<text text-anchor="middle" x="207.5" y="-45.5" font-family="Helvetica,sans-Serif" font-size="10.00">advance</text>
</a>
</g>
</g>
<!-- Node1&#45;&gt;Node2 -->
<g id="edge1" class="edge">
<title>Node1&#45;&gt;Node2</title>
<path fill="none" stroke="midnightblue" d="M133.34,-38C145.35,-39.64 157.52,-41.3 168.39,-42.79"/>
<polygon fill="midnightblue" stroke="midnightblue" points="167.98,-46.27 178.36,-44.15 168.93,-39.33 167.98,-46.27"/>
</g>
<!-- Node3 -->
<g id="node3" class="node">
<title>Node3</title>
<g id="a_node3"><a xlink:href="string__builder_8c.html#a54e602a5da87bd89687c69c2d86f34d2" target="_top" xlink:title="Put char in the struct t_str_buf so we can build a string in the struct. The point is to create the s...">
<polygon fill="none" stroke="black" points="169,-0.5 169,-19.5 246,-19.5 246,-0.5 169,-0.5"/>
<text text-anchor="middle" x="207.5" y="-7.5" font-family="Helvetica,sans-Serif" font-size="10.00">str_buf_putc</text>
</a>
</g>
</g>
<!-- Node1&#45;&gt;Node3 -->
<g id="edge2" class="edge">
<title>Node1&#45;&gt;Node3</title>
<path fill="none" stroke="midnightblue" d="M133.34,-20C141.92,-18.83 150.58,-17.64 158.79,-16.52"/>
<polygon fill="midnightblue" stroke="midnightblue" points="159.47,-19.96 168.91,-15.14 158.52,-13.03 159.47,-19.96"/>
</g>
</g>
</svg>
