<?xml version="1.0" encoding="UTF-8" standalone="no"?>
<!DOCTYPE svg PUBLIC "-//W3C//DTD SVG 1.1//EN"
 "http://www.w3.org/Graphics/SVG/1.1/DTD/svg11.dtd">
<!-- Generated by graphviz version 2.43.0 (0)
 -->
<!-- Title: ft_strlen Pages: 1 -->
<svg width="1105pt" height="588pt"
 viewBox="0.00 0.00 1105.00 588.00" xmlns="http://www.w3.org/2000/svg" xmlns:xlink="http://www.w3.org/1999/xlink">
<g id="graph0" class="graph" transform="scale(1 1) rotate(0) translate(4 584)">
<title>ft_strlen</title>
<!-- Node1 -->
<g id="node1" class="node">
<title>Node1</title>
<g id="a_node1"><a xlink:title=" ">
<polygon fill="#bfbfbf" stroke="black" points="1041,-294.5 1041,-313.5 1097,-313.5 1097,-294.5 1041,-294.5"/>
<text text-anchor="middle" x="1069" y="-301.5" font-family="Helvetica,sans-Serif" font-size="10.00">ft_strlen</text>
</a>
</g>
</g>
<!-- Node2 -->
<g id="node2" class="node">
<title>Node2</title>
<g id="a_node2"><a xlink:href="ft__atoi__base_8c.html#ad883dfa45a75f76a30681a982a19799d" target="_top" xlink:title=" ">
<polygon fill="none" stroke="black" points="929,-560.5 929,-579.5 1005,-579.5 1005,-560.5 929,-560.5"/>
<text text-anchor="middle" x="967" y="-567.5" font-family="Helvetica,sans-Serif" font-size="10.00">ft_atoi_base</text>
</a>
</g>
</g>
<!-- Node1&#45;&gt;Node2 -->
<g id="edge1" class="edge">
<title>Node1&#45;&gt;Node2</title>
<path fill="none" stroke="midnightblue" d="M1067.56,-323.81C1065.64,-367.9 1055.71,-475.72 1005,-546 1000.79,-551.84 994.68,-556.62 988.64,-560.34"/>
<polygon fill="midnightblue" stroke="midnightblue" points="1071.06,-323.93 1067.9,-313.82 1064.06,-323.69 1071.06,-323.93"/>
</g>
<!-- Node3 -->
<g id="node3" class="node">
<title>Node3</title>
<g id="a_node3"><a xlink:href="ft__split_8c.html#a1b7b6087722961261b63eebafc2e2ed2" target="_top" xlink:title=" ">
<polygon fill="none" stroke="black" points="816,-408.5 816,-427.5 866,-427.5 866,-408.5 816,-408.5"/>
<text text-anchor="middle" x="841" y="-415.5" font-family="Helvetica,sans-Serif" font-size="10.00">ft_split</text>
</a>
</g>
</g>
<!-- Node1&#45;&gt;Node3 -->
<g id="edge2" class="edge">
<title>Node1&#45;&gt;Node3</title>
<path fill="none" stroke="midnightblue" d="M1058.42,-322.66C1047.89,-341.21 1029.2,-369 1005,-384 961.38,-411.02 899.89,-416.92 866.28,-417.99"/>
<polygon fill="midnightblue" stroke="midnightblue" points="1061.6,-324.14 1063.29,-313.68 1055.44,-320.8 1061.6,-324.14"/>
</g>
<!-- Node12 -->
<g id="node12" class="node">
<title>Node12</title>
<g id="a_node12"><a xlink:href="ft__strdup_8c.html#aeab425f44e9a04e54160d60d3c9e870c" target="_top" xlink:title=" ">
<polygon fill="none" stroke="black" points="937.5,-294.5 937.5,-313.5 996.5,-313.5 996.5,-294.5 937.5,-294.5"/>
<text text-anchor="middle" x="967" y="-301.5" font-family="Helvetica,sans-Serif" font-size="10.00">ft_strdup</text>
</a>
</g>
</g>
<!-- Node1&#45;&gt;Node12 -->
<g id="edge12" class="edge">
<title>Node1&#45;&gt;Node12</title>
<path fill="none" stroke="midnightblue" d="M1030.93,-304C1019.67,-304 1007.47,-304 996.83,-304"/>
<polygon fill="midnightblue" stroke="midnightblue" points="1030.94,-307.5 1040.94,-304 1030.94,-300.5 1030.94,-307.5"/>
</g>
<!-- Node14 -->
<g id="node14" class="node">
<title>Node14</title>
<g id="a_node14"><a xlink:href="ft__substr_8c.html#a953557fcaa67b7fca7be72552898c691" target="_top" xlink:title=" ">
<polygon fill="none" stroke="black" points="811.5,-218.5 811.5,-237.5 870.5,-237.5 870.5,-218.5 811.5,-218.5"/>
<text text-anchor="middle" x="841" y="-225.5" font-family="Helvetica,sans-Serif" font-size="10.00">ft_substr</text>
</a>
</g>
</g>
<!-- Node1&#45;&gt;Node14 -->
<g id="edge34" class="edge">
<title>Node1&#45;&gt;Node14</title>
<path fill="none" stroke="midnightblue" d="M1031.08,-291.58C986.12,-276.46 911.14,-251.25 870.42,-237.56"/>
<polygon fill="midnightblue" stroke="midnightblue" points="1030.15,-294.96 1040.74,-294.83 1032.38,-288.33 1030.15,-294.96"/>
</g>
<!-- Node17 -->
<g id="node17" class="node">
<title>Node17</title>
<g id="a_node17"><a xlink:href="heredoc_8c.html#a4d547031558cbd91bd72a017eb6bd1fd" target="_top" xlink:title=" ">
<polygon fill="none" stroke="black" points="414,-180.5 414,-199.5 500,-199.5 500,-180.5 414,-180.5"/>
<text text-anchor="middle" x="457" y="-187.5" font-family="Helvetica,sans-Serif" font-size="10.00">heredoc_input</text>
</a>
</g>
</g>
<!-- Node1&#45;&gt;Node17 -->
<g id="edge35" class="edge">
<title>Node1&#45;&gt;Node17</title>
<path fill="none" stroke="midnightblue" d="M1062.65,-284.61C1054.38,-257.98 1036.13,-210.07 1005,-181 985.21,-162.52 919.53,-138.44 893,-133 740.05,-101.61 553.11,-157.04 484.7,-180.38"/>
<polygon fill="midnightblue" stroke="midnightblue" points="1059.32,-285.7 1065.5,-294.31 1066.03,-283.72 1059.32,-285.7"/>
</g>
<!-- Node19 -->
<g id="node19" class="node">
<title>Node19</title>
<g id="a_node19"><a xlink:href="lst__env__two_8c.html#a4d4a14327b2c3ff88099102b6bd77986" target="_top" xlink:title=" ">
<polygon fill="none" stroke="black" points="789,-370.5 789,-389.5 893,-389.5 893,-370.5 789,-370.5"/>
<text text-anchor="middle" x="841" y="-377.5" font-family="Helvetica,sans-Serif" font-size="10.00">research_key_env</text>
</a>
</g>
</g>
<!-- Node1&#45;&gt;Node19 -->
<g id="edge46" class="edge">
<title>Node1&#45;&gt;Node19</title>
<path fill="none" stroke="midnightblue" d="M1053.97,-321.6C1042.35,-334.81 1024.61,-352.11 1005,-361 969.97,-376.88 926.56,-381.3 893.34,-381.92"/>
<polygon fill="midnightblue" stroke="midnightblue" points="1056.91,-323.53 1060.68,-313.63 1051.56,-319.02 1056.91,-323.53"/>
</g>
<!-- Node22 -->
<g id="node22" class="node">
<title>Node22</title>
<g id="a_node22"><a xlink:href="ft__strjoin_8c.html#a5c1c26f8be9bc527cfe69a3555124795" target="_top" xlink:title=" ">
<polygon fill="none" stroke="black" points="937.5,-190.5 937.5,-209.5 996.5,-209.5 996.5,-190.5 937.5,-190.5"/>
<text text-anchor="middle" x="967" y="-197.5" font-family="Helvetica,sans-Serif" font-size="10.00">ft_strjoin</text>
</a>
</g>
</g>
<!-- Node1&#45;&gt;Node22 -->
<g id="edge25" class="edge">
<title>Node1&#45;&gt;Node22</title>
<path fill="none" stroke="midnightblue" d="M1053.64,-286.7C1041.2,-272 1022.51,-250.56 1005,-233 996.85,-224.83 987.1,-216.18 979.65,-209.78"/>
<polygon fill="midnightblue" stroke="midnightblue" points="1051.07,-289.09 1060.18,-294.5 1056.43,-284.59 1051.07,-289.09"/>
</g>
<!-- Node24 -->
<g id="node24" class="node">
<title>Node24</title>
<g id="a_node24"><a xlink:href="ft__strlcat_8c.html#a5ec5cb64412b189edcc4c4bd56183f54" target="_top" xlink:title=" ">
<polygon fill="none" stroke="black" points="937.5,-114.5 937.5,-133.5 996.5,-133.5 996.5,-114.5 937.5,-114.5"/>
<text text-anchor="middle" x="967" y="-121.5" font-family="Helvetica,sans-Serif" font-size="10.00">ft_strlcat</text>
</a>
</g>
</g>
<!-- Node1&#45;&gt;Node24 -->
<g id="edge29" class="edge">
<title>Node1&#45;&gt;Node24</title>
<path fill="none" stroke="midnightblue" d="M1064.1,-284.36C1057,-252.71 1039.41,-189.73 1005,-148 1000.23,-142.21 993.69,-137.34 987.43,-133.53"/>
<polygon fill="midnightblue" stroke="midnightblue" points="1060.68,-285.12 1066.19,-294.17 1067.53,-283.66 1060.68,-285.12"/>
</g>
<!-- Node25 -->
<g id="node25" class="node">
<title>Node25</title>
<g id="a_node25"><a xlink:href="ft__strlcpy_8c.html#aef258789688b53016c82da9e1546b47e" target="_top" xlink:title=" ">
<polygon fill="none" stroke="black" points="936,-76.5 936,-95.5 998,-95.5 998,-76.5 936,-76.5"/>
<text text-anchor="middle" x="967" y="-83.5" font-family="Helvetica,sans-Serif" font-size="10.00">ft_strlcpy</text>
</a>
</g>
</g>
<!-- Node1&#45;&gt;Node25 -->
<g id="edge30" class="edge">
<title>Node1&#45;&gt;Node25</title>
<path fill="none" stroke="midnightblue" d="M1066.68,-284.05C1063.15,-245.24 1050.36,-158.69 1005,-105 1001.83,-101.25 997.74,-98.15 993.43,-95.62"/>
<polygon fill="midnightblue" stroke="midnightblue" points="1063.23,-284.78 1067.51,-294.47 1070.21,-284.23 1063.23,-284.78"/>
</g>
<!-- Node26 -->
<g id="node26" class="node">
<title>Node26</title>
<g id="a_node26"><a xlink:href="ft__strmapi_8c.html#ad9c0488c57afc864b87fbb0bc604db82" target="_top" xlink:title=" ">
<polygon fill="none" stroke="black" points="934,-38.5 934,-57.5 1000,-57.5 1000,-38.5 934,-38.5"/>
<text text-anchor="middle" x="967" y="-45.5" font-family="Helvetica,sans-Serif" font-size="10.00">ft_strmapi</text>
</a>
</g>
</g>
<!-- Node1&#45;&gt;Node26 -->
<g id="edge31" class="edge">
<title>Node1&#45;&gt;Node26</title>
<path fill="none" stroke="midnightblue" d="M1067.93,-283.93C1066.75,-239.81 1058.2,-133.05 1005,-67 1001.92,-63.18 997.87,-60.04 993.57,-57.5"/>
<polygon fill="midnightblue" stroke="midnightblue" points="1064.43,-284.24 1068.09,-294.18 1071.43,-284.13 1064.43,-284.24"/>
</g>
<!-- Node27 -->
<g id="node27" class="node">
<title>Node27</title>
<g id="a_node27"><a xlink:href="ft__strndup_8c.html#ac9e538eeb817a41c22d7d3b3a5f8a36e" target="_top" xlink:title=" ">
<polygon fill="none" stroke="black" points="934.5,-332.5 934.5,-351.5 999.5,-351.5 999.5,-332.5 934.5,-332.5"/>
<text text-anchor="middle" x="967" y="-339.5" font-family="Helvetica,sans-Serif" font-size="10.00">ft_strndup</text>
</a>
</g>
</g>
<!-- Node1&#45;&gt;Node27 -->
<g id="edge32" class="edge">
<title>Node1&#45;&gt;Node27</title>
<path fill="none" stroke="midnightblue" d="M1033.09,-317.26C1019.97,-322.25 1005.31,-327.82 993.23,-332.41"/>
<polygon fill="midnightblue" stroke="midnightblue" points="1034.66,-320.41 1042.77,-313.59 1032.17,-313.87 1034.66,-320.41"/>
</g>
<!-- Node28 -->
<g id="node28" class="node">
<title>Node28</title>
<g id="a_node28"><a xlink:href="execution_8c.html#a3acc0bb56da881cc8609ca9e94ec8e93" target="_top" xlink:title=" ">
<polygon fill="none" stroke="black" points="672.5,-484.5 672.5,-503.5 745.5,-503.5 745.5,-484.5 672.5,-484.5"/>
<text text-anchor="middle" x="709" y="-491.5" font-family="Helvetica,sans-Serif" font-size="10.00">is_it_builtin</text>
</a>
</g>
</g>
<!-- Node1&#45;&gt;Node28 -->
<g id="edge36" class="edge">
<title>Node1&#45;&gt;Node28</title>
<path fill="none" stroke="midnightblue" d="M1064.32,-323.55C1057.72,-353.24 1041.04,-409.57 1005,-441 931.28,-505.3 806.74,-503.74 745.78,-498.38"/>
<polygon fill="midnightblue" stroke="midnightblue" points="1067.79,-324.08 1066.38,-313.58 1060.93,-322.67 1067.79,-324.08"/>
</g>
<!-- Node29 -->
<g id="node29" class="node">
<title>Node29</title>
<g id="a_node29"><a xlink:href="getenv_8c.html#a0250cce1862c20e31d0c0ece960bc3a0" target="_top" xlink:title=" ">
<polygon fill="none" stroke="black" points="810,-446.5 810,-465.5 872,-465.5 872,-446.5 810,-446.5"/>
<text text-anchor="middle" x="841" y="-453.5" font-family="Helvetica,sans-Serif" font-size="10.00">join_path</text>
</a>
</g>
</g>
<!-- Node1&#45;&gt;Node29 -->
<g id="edge39" class="edge">
<title>Node1&#45;&gt;Node29</title>
<path fill="none" stroke="midnightblue" d="M1061.81,-323.15C1053.04,-347.26 1034.66,-388.27 1005,-411 965.62,-441.18 907.2,-451.13 872.04,-454.4"/>
<polygon fill="midnightblue" stroke="midnightblue" points="1065.13,-324.26 1065.08,-313.67 1058.51,-321.98 1065.13,-324.26"/>
</g>
<!-- Node31 -->
<g id="node31" class="node">
<title>Node31</title>
<g id="a_node31"><a xlink:href="execution_8c.html#a8b2bd9dba90bfc9b2ead44af5e630315" target="_top" xlink:title="launch the builtin">
<polygon fill="none" stroke="black" points="666.5,-522.5 666.5,-541.5 751.5,-541.5 751.5,-522.5 666.5,-522.5"/>
<text text-anchor="middle" x="709" y="-529.5" font-family="Helvetica,sans-Serif" font-size="10.00">launch_builtin</text>
</a>
</g>
</g>
<!-- Node1&#45;&gt;Node31 -->
<g id="edge43" class="edge">
<title>Node1&#45;&gt;Node31</title>
<path fill="none" stroke="midnightblue" d="M1066.31,-323.76C1062.22,-359.14 1048.65,-433.49 1005,-475 935.93,-540.7 815.14,-541.64 751.67,-536.81"/>
<polygon fill="midnightblue" stroke="midnightblue" points="1069.8,-324.03 1067.33,-313.73 1062.83,-323.32 1069.8,-324.03"/>
</g>
<!-- Node32 -->
<g id="node32" class="node">
<title>Node32</title>
<g id="a_node32"><a xlink:href="unset_8c.html#a9f3a931b6e1e798b91f27ec7493e17fe" target="_top" xlink:title=" ">
<polygon fill="none" stroke="black" points="945,-0.5 945,-19.5 989,-19.5 989,-0.5 945,-0.5"/>
<text text-anchor="middle" x="967" y="-7.5" font-family="Helvetica,sans-Serif" font-size="10.00">unset</text>
</a>
</g>
</g>
<!-- Node1&#45;&gt;Node32 -->
<g id="edge47" class="edge">
<title>Node1&#45;&gt;Node32</title>
<path fill="none" stroke="midnightblue" d="M1068.85,-284.1C1069.91,-235.26 1066.23,-107.76 1005,-29 1000.92,-23.76 995,-19.83 989.08,-16.94"/>
<polygon fill="midnightblue" stroke="midnightblue" points="1065.35,-284.16 1068.54,-294.26 1072.35,-284.38 1065.35,-284.16"/>
</g>
<!-- Node4 -->
<g id="node4" class="node">
<title>Node4</title>
<g id="a_node4"><a xlink:href="getenv_8c.html#a5d0cf05c2622983111dcfc0f179c5739" target="_top" xlink:title=" ">
<polygon fill="none" stroke="black" points="671,-408.5 671,-427.5 747,-427.5 747,-408.5 671,-408.5"/>
<text text-anchor="middle" x="709" y="-415.5" font-family="Helvetica,sans-Serif" font-size="10.00">search_path</text>
</a>
</g>
</g>
<!-- Node3&#45;&gt;Node4 -->
<g id="edge3" class="edge">
<title>Node3&#45;&gt;Node4</title>
<path fill="none" stroke="midnightblue" d="M805.75,-418C787.69,-418 765.52,-418 747.05,-418"/>
<polygon fill="midnightblue" stroke="midnightblue" points="805.85,-421.5 815.85,-418 805.85,-414.5 805.85,-421.5"/>
</g>
<!-- Node5 -->
<g id="node5" class="node">
<title>Node5</title>
<g id="a_node5"><a xlink:href="execution__node_8c.html#a6cfdc545c2222bbb0ca1dfc8431f72a3" target="_top" xlink:title=" ">
<polygon fill="none" stroke="black" points="536,-446.5 536,-465.5 629,-465.5 629,-446.5 536,-446.5"/>
<text text-anchor="middle" x="582.5" y="-453.5" font-family="Helvetica,sans-Serif" font-size="10.00">execution_node</text>
</a>
</g>
</g>
<!-- Node4&#45;&gt;Node5 -->
<g id="edge4" class="edge">
<title>Node4&#45;&gt;Node5</title>
<path fill="none" stroke="midnightblue" d="M666.93,-430.54C649.99,-435.7 630.68,-441.6 614.91,-446.41"/>
<polygon fill="midnightblue" stroke="midnightblue" points="668.04,-433.86 676.58,-427.59 666,-427.16 668.04,-433.86"/>
</g>
<!-- Node6 -->
<g id="node6" class="node">
<title>Node6</title>
<g id="a_node6"><a xlink:href="multipipe_8c.html#a43baea25481fdd02ce42e4d249f12353" target="_top" xlink:title=" ">
<polygon fill="none" stroke="black" points="415.5,-389.5 415.5,-408.5 498.5,-408.5 498.5,-389.5 415.5,-389.5"/>
<text text-anchor="middle" x="457" y="-396.5" font-family="Helvetica,sans-Serif" font-size="10.00">execute_child</text>
</a>
</g>
</g>
<!-- Node5&#45;&gt;Node6 -->
<g id="edge5" class="edge">
<title>Node5&#45;&gt;Node6</title>
<path fill="none" stroke="midnightblue" d="M551.69,-442.24C529.13,-431.83 498.71,-417.79 478.74,-408.57"/>
<polygon fill="midnightblue" stroke="midnightblue" points="550.28,-445.45 560.83,-446.46 553.22,-439.09 550.28,-445.45"/>
</g>
<!-- Node10 -->
<g id="node10" class="node">
<title>Node10</title>
<g id="a_node10"><a xlink:href="execution_8c.html#ac70faaedddc427b5051b808a8de40da4" target="_top" xlink:title=" ">
<polygon fill="none" stroke="black" points="235,-446.5 235,-465.5 363,-465.5 363,-446.5 235,-446.5"/>
<text text-anchor="middle" x="299" y="-453.5" font-family="Helvetica,sans-Serif" font-size="10.00">one_command_execve</text>
</a>
</g>
</g>
<!-- Node5&#45;&gt;Node10 -->
<g id="edge9" class="edge">
<title>Node5&#45;&gt;Node10</title>
<path fill="none" stroke="midnightblue" d="M525.69,-456C478.81,-456 411.87,-456 363.07,-456"/>
<polygon fill="midnightblue" stroke="midnightblue" points="525.96,-459.5 535.96,-456 525.96,-452.5 525.96,-459.5"/>
</g>
<!-- Node7 -->
<g id="node7" class="node">
<title>Node7</title>
<g id="a_node7"><a xlink:href="multipipe_8c.html#af32b88ab44b94650a0bb6f805f70a805" target="_top" xlink:title=" ">
<polygon fill="none" stroke="black" points="220,-370.5 220,-389.5 378,-389.5 378,-370.5 220,-370.5"/>
<text text-anchor="middle" x="299" y="-377.5" font-family="Helvetica,sans-Serif" font-size="10.00">multipipe_intermediary_cmd</text>
</a>
</g>
</g>
<!-- Node6&#45;&gt;Node7 -->
<g id="edge6" class="edge">
<title>Node6&#45;&gt;Node7</title>
<path fill="none" stroke="midnightblue" d="M405.44,-392.84C396.71,-391.78 387.45,-390.65 378.19,-389.52"/>
<polygon fill="midnightblue" stroke="midnightblue" points="405.07,-396.32 415.42,-394.06 405.92,-389.37 405.07,-396.32"/>
</g>
<!-- Node8 -->
<g id="node8" class="node">
<title>Node8</title>
<g id="a_node8"><a xlink:href="multipipe_8c.html#a3f78d597d08aaca5580b2c89f956a3a2" target="_top" xlink:title=" ">
<polygon fill="none" stroke="black" points="95,-408.5 95,-427.5 184,-427.5 184,-408.5 95,-408.5"/>
<text text-anchor="middle" x="139.5" y="-415.5" font-family="Helvetica,sans-Serif" font-size="10.00">multipipe_cmd</text>
</a>
</g>
</g>
<!-- Node7&#45;&gt;Node8 -->
<g id="edge7" class="edge">
<title>Node7&#45;&gt;Node8</title>
<path fill="none" stroke="midnightblue" d="M248.4,-391.97C226.32,-397.29 200.7,-403.48 179.96,-408.48"/>
<polygon fill="midnightblue" stroke="midnightblue" points="249.36,-395.34 258.26,-389.59 247.71,-388.53 249.36,-395.34"/>
</g>
<!-- Node9 -->
<g id="node9" class="node">
<title>Node9</title>
<g id="a_node9"><a xlink:href="execution_8c.html#a9dffeca3c2ff474e24c3e98ab856df76" target="_top" xlink:title=" ">
<polygon fill="none" stroke="black" points="0,-427.5 0,-446.5 59,-446.5 59,-427.5 0,-427.5"/>
<text text-anchor="middle" x="29.5" y="-434.5" font-family="Helvetica,sans-Serif" font-size="10.00">executor</text>
</a>
</g>
</g>
<!-- Node8&#45;&gt;Node9 -->
<g id="edge8" class="edge">
<title>Node8&#45;&gt;Node9</title>
<path fill="none" stroke="midnightblue" d="M84.88,-427.43C75.97,-429 67.05,-430.57 59.08,-431.97"/>
<polygon fill="midnightblue" stroke="midnightblue" points="85.64,-430.85 94.88,-425.67 84.43,-423.96 85.64,-430.85"/>
</g>
<!-- Node11 -->
<g id="node11" class="node">
<title>Node11</title>
<g id="a_node11"><a xlink:href="execution_8c.html#a4ef7db02a474eb1b198b2a25e1303118" target="_top" xlink:title=" ">
<polygon fill="none" stroke="black" points="95,-446.5 95,-465.5 184,-465.5 184,-446.5 95,-446.5"/>
<text text-anchor="middle" x="139.5" y="-453.5" font-family="Helvetica,sans-Serif" font-size="10.00">one_command</text>
</a>
</g>
</g>
<!-- Node10&#45;&gt;Node11 -->
<g id="edge10" class="edge">
<title>Node10&#45;&gt;Node11</title>
<path fill="none" stroke="midnightblue" d="M224.83,-456C210.98,-456 196.9,-456 184.31,-456"/>
<polygon fill="midnightblue" stroke="midnightblue" points="224.85,-459.5 234.85,-456 224.85,-452.5 224.85,-459.5"/>
</g>
<!-- Node11&#45;&gt;Node9 -->
<g id="edge11" class="edge">
<title>Node11&#45;&gt;Node9</title>
<path fill="none" stroke="midnightblue" d="M84.88,-446.57C75.97,-445 67.05,-443.43 59.08,-442.03"/>
<polygon fill="midnightblue" stroke="midnightblue" points="84.43,-450.04 94.88,-448.33 85.64,-443.15 84.43,-450.04"/>
</g>
<!-- Node13 -->
<g id="node13" class="node">
<title>Node13</title>
<g id="a_node13"><a xlink:href="ft__strtrim_8c.html#adc992044de001512918b7ad017f06cb1" target="_top" xlink:title=" ">
<polygon fill="none" stroke="black" points="810,-294.5 810,-313.5 872,-313.5 872,-294.5 810,-294.5"/>
<text text-anchor="middle" x="841" y="-301.5" font-family="Helvetica,sans-Serif" font-size="10.00">ft_strtrim</text>
</a>
</g>
</g>
<!-- Node12&#45;&gt;Node13 -->
<g id="edge13" class="edge">
<title>Node12&#45;&gt;Node13</title>
<path fill="none" stroke="midnightblue" d="M927.21,-304C909.52,-304 888.87,-304 872.33,-304"/>
<polygon fill="midnightblue" stroke="midnightblue" points="927.24,-307.5 937.24,-304 927.24,-300.5 927.24,-307.5"/>
</g>
<!-- Node12&#45;&gt;Node14 -->
<g id="edge14" class="edge">
<title>Node12&#45;&gt;Node14</title>
<path fill="none" stroke="midnightblue" d="M945.93,-288.22C931.62,-277.34 911.68,-262.93 893,-252 883.96,-246.71 873.57,-241.65 864.53,-237.55"/>
<polygon fill="midnightblue" stroke="midnightblue" points="943.99,-291.14 954.05,-294.47 948.26,-285.6 943.99,-291.14"/>
</g>
<!-- Node15 -->
<g id="node15" class="node">
<title>Node15</title>
<g id="a_node15"><a xlink:href="get__next__line_8c.html#ae6d543ff06d0f78ff197de5e94f22200" target="_top" xlink:title=" ">
<polygon fill="none" stroke="black" points="682.5,-180.5 682.5,-199.5 735.5,-199.5 735.5,-180.5 682.5,-180.5"/>
<text text-anchor="middle" x="709" y="-187.5" font-family="Helvetica,sans-Serif" font-size="10.00">reading</text>
</a>
</g>
</g>
<!-- Node12&#45;&gt;Node15 -->
<g id="edge15" class="edge">
<title>Node12&#45;&gt;Node15</title>
<path fill="none" stroke="midnightblue" d="M927.61,-293.17C883.32,-280.4 813.45,-259.37 789,-247 762.74,-233.72 735.68,-212.16 721.04,-199.71"/>
<polygon fill="midnightblue" stroke="midnightblue" points="926.88,-296.6 937.46,-295.99 928.81,-289.87 926.88,-296.6"/>
</g>
<!-- Node12&#45;&gt;Node19 -->
<g id="edge21" class="edge">
<title>Node12&#45;&gt;Node19</title>
<path fill="none" stroke="midnightblue" d="M935.41,-318.64C933.18,-320.03 931.02,-321.48 929,-323 910.39,-336.96 912.4,-348.16 893,-361 887.33,-364.75 880.81,-367.9 874.37,-370.48"/>
<polygon fill="midnightblue" stroke="midnightblue" points="937.17,-321.66 944.14,-313.68 933.71,-315.58 937.17,-321.66"/>
</g>
<!-- Node20 -->
<g id="node20" class="node">
<title>Node20</title>
<g id="a_node20"><a xlink:href="lst__env__two_8c.html#a4f46edb8da10e7a19d572dd91d8ac21b" target="_top" xlink:title=" ">
<polygon fill="none" stroke="black" points="810.5,-332.5 810.5,-351.5 871.5,-351.5 871.5,-332.5 810.5,-332.5"/>
<text text-anchor="middle" x="841" y="-339.5" font-family="Helvetica,sans-Serif" font-size="10.00">split_env</text>
</a>
</g>
</g>
<!-- Node12&#45;&gt;Node20 -->
<g id="edge23" class="edge">
<title>Node12&#45;&gt;Node20</title>
<path fill="none" stroke="midnightblue" d="M927.64,-315.76C909.69,-321.26 888.64,-327.71 871.9,-332.84"/>
<polygon fill="midnightblue" stroke="midnightblue" points="928.7,-319.09 937.24,-312.81 926.65,-312.4 928.7,-319.09"/>
</g>
<!-- Node16 -->
<g id="node16" class="node">
<title>Node16</title>
<g id="a_node16"><a xlink:href="get__next__line_8c.html#aed7a5e18848da190b01eb9e791c51824" target="_top" xlink:title=" ">
<polygon fill="none" stroke="black" points="541,-180.5 541,-199.5 624,-199.5 624,-180.5 541,-180.5"/>
<text text-anchor="middle" x="582.5" y="-187.5" font-family="Helvetica,sans-Serif" font-size="10.00">get_next_line</text>
</a>
</g>
</g>
<!-- Node15&#45;&gt;Node16 -->
<g id="edge16" class="edge">
<title>Node15&#45;&gt;Node16</title>
<path fill="none" stroke="midnightblue" d="M671.88,-190C657.04,-190 639.77,-190 624.46,-190"/>
<polygon fill="midnightblue" stroke="midnightblue" points="672.2,-193.5 682.2,-190 672.2,-186.5 672.2,-193.5"/>
</g>
<!-- Node16&#45;&gt;Node17 -->
<g id="edge17" class="edge">
<title>Node16&#45;&gt;Node17</title>
<path fill="none" stroke="midnightblue" d="M530.69,-190C520.49,-190 509.87,-190 500.01,-190"/>
<polygon fill="midnightblue" stroke="midnightblue" points="530.72,-193.5 540.72,-190 530.72,-186.5 530.72,-193.5"/>
</g>
<!-- Node18 -->
<g id="node18" class="node">
<title>Node18</title>
<g id="a_node18"><a xlink:href="heredoc_8c.html#aa5260679719a4e1f862a6efd1f12cf85" target="_top" xlink:title=" ">
<polygon fill="none" stroke="black" points="233.5,-408.5 233.5,-427.5 364.5,-427.5 364.5,-408.5 233.5,-408.5"/>
<text text-anchor="middle" x="299" y="-415.5" font-family="Helvetica,sans-Serif" font-size="10.00">here_doc_management</text>
</a>
</g>
</g>
<!-- Node17&#45;&gt;Node18 -->
<g id="edge18" class="edge">
<title>Node17&#45;&gt;Node18</title>
<path fill="none" stroke="midnightblue" d="M454.6,-209.84C450.55,-251.45 435.17,-348.22 378,-399 373.73,-402.79 368.82,-405.86 363.6,-408.34"/>
<polygon fill="midnightblue" stroke="midnightblue" points="458.1,-209.9 455.46,-199.64 451.13,-209.31 458.1,-209.9"/>
</g>
<!-- Node18&#45;&gt;Node8 -->
<g id="edge19" class="edge">
<title>Node18&#45;&gt;Node8</title>
<path fill="none" stroke="midnightblue" d="M223.26,-418C209.8,-418 196.2,-418 184.01,-418"/>
<polygon fill="midnightblue" stroke="midnightblue" points="223.48,-421.5 233.48,-418 223.48,-414.5 223.48,-421.5"/>
</g>
<!-- Node18&#45;&gt;Node11 -->
<g id="edge20" class="edge">
<title>Node18&#45;&gt;Node11</title>
<path fill="none" stroke="midnightblue" d="M248.4,-429.97C226.32,-435.29 200.7,-441.48 179.96,-446.48"/>
<polygon fill="midnightblue" stroke="midnightblue" points="249.36,-433.34 258.26,-427.59 247.71,-426.53 249.36,-433.34"/>
</g>
<!-- Node19&#45;&gt;Node4 -->
<g id="edge22" class="edge">
<title>Node19&#45;&gt;Node4</title>
<path fill="none" stroke="midnightblue" d="M797.12,-392.54C779.43,-397.7 759.27,-403.6 742.79,-408.41"/>
<polygon fill="midnightblue" stroke="midnightblue" points="798.58,-395.75 807.2,-389.59 796.62,-389.04 798.58,-395.75"/>
</g>
<!-- Node21 -->
<g id="node21" class="node">
<title>Node21</title>
<g id="a_node21"><a xlink:href="lst__env__two_8c.html#ac1233f225cd25a82eded5e81135528cd" target="_top" xlink:title=" ">
<polygon fill="none" stroke="black" points="673,-332.5 673,-351.5 745,-351.5 745,-332.5 673,-332.5"/>
<text text-anchor="middle" x="709" y="-339.5" font-family="Helvetica,sans-Serif" font-size="10.00">set_up_env</text>
</a>
</g>
</g>
<!-- Node20&#45;&gt;Node21 -->
<g id="edge24" class="edge">
<title>Node20&#45;&gt;Node21</title>
<path fill="none" stroke="midnightblue" d="M799.73,-342C782.29,-342 762.06,-342 745.22,-342"/>
<polygon fill="midnightblue" stroke="midnightblue" points="800.18,-345.5 810.18,-342 800.18,-338.5 800.18,-345.5"/>
</g>
<!-- Node22&#45;&gt;Node15 -->
<g id="edge28" class="edge">
<title>Node22&#45;&gt;Node15</title>
<path fill="none" stroke="midnightblue" d="M927.1,-198.48C874.12,-196.41 780.73,-192.76 735.7,-191"/>
<polygon fill="midnightblue" stroke="midnightblue" points="927,-201.98 937.13,-198.87 927.28,-194.98 927,-201.98"/>
</g>
<!-- Node23 -->
<g id="node23" class="node">
<title>Node23</title>
<g id="a_node23"><a xlink:href="get__next__line_8c.html#a34333af6d816f260f7680fcfbc81a2fd" target="_top" xlink:title=" ">
<polygon fill="none" stroke="black" points="793.5,-142.5 793.5,-161.5 888.5,-161.5 888.5,-142.5 793.5,-142.5"/>
<text text-anchor="middle" x="841" y="-149.5" font-family="Helvetica,sans-Serif" font-size="10.00">looping_reading</text>
</a>
</g>
</g>
<!-- Node22&#45;&gt;Node23 -->
<g id="edge26" class="edge">
<title>Node22&#45;&gt;Node23</title>
<path fill="none" stroke="midnightblue" d="M931.85,-186.78C911.22,-178.8 885.41,-168.8 866.75,-161.58"/>
<polygon fill="midnightblue" stroke="midnightblue" points="930.62,-190.06 941.2,-190.4 933.14,-183.53 930.62,-190.06"/>
</g>
<!-- Node23&#45;&gt;Node15 -->
<g id="edge27" class="edge">
<title>Node23&#45;&gt;Node15</title>
<path fill="none" stroke="midnightblue" d="M797.51,-164.42C777.15,-170.37 753.44,-177.3 735.83,-182.45"/>
<polygon fill="midnightblue" stroke="midnightblue" points="798.58,-167.75 807.2,-161.59 796.62,-161.04 798.58,-167.75"/>
</g>
<!-- Node27&#45;&gt;Node20 -->
<g id="edge33" class="edge">
<title>Node27&#45;&gt;Node20</title>
<path fill="none" stroke="midnightblue" d="M924.07,-342C906.93,-342 887.5,-342 871.85,-342"/>
<polygon fill="midnightblue" stroke="midnightblue" points="924.39,-345.5 934.39,-342 924.39,-338.5 924.39,-345.5"/>
</g>
<!-- Node28&#45;&gt;Node5 -->
<g id="edge37" class="edge">
<title>Node28&#45;&gt;Node5</title>
<path fill="none" stroke="midnightblue" d="M666.93,-481.46C649.99,-476.3 630.68,-470.4 614.91,-465.59"/>
<polygon fill="midnightblue" stroke="midnightblue" points="666,-484.84 676.58,-484.41 668.04,-478.14 666,-484.84"/>
</g>
<!-- Node28&#45;&gt;Node11 -->
<g id="edge38" class="edge">
<title>Node28&#45;&gt;Node11</title>
<path fill="none" stroke="midnightblue" d="M662.24,-495.19C575.51,-496.78 381.43,-497.21 220,-475 204.68,-472.89 187.99,-469.13 173.88,-465.51"/>
<polygon fill="midnightblue" stroke="midnightblue" points="662.35,-498.69 672.28,-494.99 662.21,-491.69 662.35,-498.69"/>
</g>
<!-- Node29&#45;&gt;Node4 -->
<g id="edge42" class="edge">
<title>Node29&#45;&gt;Node4</title>
<path fill="none" stroke="midnightblue" d="M800.01,-444.31C781.63,-438.94 760.11,-432.65 742.72,-427.56"/>
<polygon fill="midnightblue" stroke="midnightblue" points="799.27,-447.74 809.85,-447.19 801.23,-441.02 799.27,-447.74"/>
</g>
<!-- Node30 -->
<g id="node30" class="node">
<title>Node30</title>
<g id="a_node30"><a xlink:href="lst__env__two_8c.html#aafcce0b2f2958645e84ae23b14116680" target="_top" xlink:title=" ">
<polygon fill="none" stroke="black" points="665,-446.5 665,-465.5 753,-465.5 753,-446.5 665,-446.5"/>
<text text-anchor="middle" x="709" y="-453.5" font-family="Helvetica,sans-Serif" font-size="10.00">lst_to_tab_env</text>
</a>
</g>
</g>
<!-- Node29&#45;&gt;Node30 -->
<g id="edge40" class="edge">
<title>Node29&#45;&gt;Node30</title>
<path fill="none" stroke="midnightblue" d="M799.55,-456C784.86,-456 768.21,-456 753.29,-456"/>
<polygon fill="midnightblue" stroke="midnightblue" points="799.85,-459.5 809.85,-456 799.85,-452.5 799.85,-459.5"/>
</g>
<!-- Node30&#45;&gt;Node5 -->
<g id="edge41" class="edge">
<title>Node30&#45;&gt;Node5</title>
<path fill="none" stroke="midnightblue" d="M654.62,-456C646.14,-456 637.44,-456 629.16,-456"/>
<polygon fill="midnightblue" stroke="midnightblue" points="654.81,-459.5 664.81,-456 654.81,-452.5 654.81,-459.5"/>
</g>
<!-- Node31&#45;&gt;Node5 -->
<g id="edge44" class="edge">
<title>Node31&#45;&gt;Node5</title>
<path fill="none" stroke="midnightblue" d="M674.65,-518.04C671.35,-516.43 668.08,-514.74 665,-513 639.13,-498.42 611.23,-477.7 595.71,-465.67"/>
<polygon fill="midnightblue" stroke="midnightblue" points="673.4,-521.32 683.94,-522.35 676.34,-514.97 673.4,-521.32"/>
</g>
<!-- Node31&#45;&gt;Node11 -->
<g id="edge45" class="edge">
<title>Node31&#45;&gt;Node11</title>
<path fill="none" stroke="midnightblue" d="M656,-534.73C565.56,-538.04 374.17,-538.65 220,-496 195.88,-489.33 170.45,-475.08 155.03,-465.52"/>
<polygon fill="midnightblue" stroke="midnightblue" points="656.41,-538.21 666.26,-534.32 656.14,-531.22 656.41,-538.21"/>
</g>
</g>
</svg>
