<?xml version="1.0" encoding="UTF-8" standalone="no"?>
<!DOCTYPE svg PUBLIC "-//W3C//DTD SVG 1.1//EN"
 "http://www.w3.org/Graphics/SVG/1.1/DTD/svg11.dtd">
<!-- Generated by graphviz version 2.43.0 (0)
 -->
<!-- Title: get_next_line Pages: 1 -->
<svg width="600pt" height="66pt"
 viewBox="0.00 0.00 600.00 66.00" xmlns="http://www.w3.org/2000/svg" xmlns:xlink="http://www.w3.org/1999/xlink">
<g id="graph0" class="graph" transform="scale(1 1) rotate(0) translate(4 62)">
<title>get_next_line</title>
<!-- Node1 -->
<g id="node1" class="node">
<title>Node1</title>
<g id="a_node1"><a xlink:title=" ">
<polygon fill="#bfbfbf" stroke="black" points="509,-19.5 509,-38.5 592,-38.5 592,-19.5 509,-19.5"/>
<text text-anchor="middle" x="550.5" y="-26.5" font-family="Helvetica,sans-Serif" font-size="10.00">get_next_line</text>
</a>
</g>
</g>
<!-- Node2 -->
<g id="node2" class="node">
<title>Node2</title>
<g id="a_node2"><a xlink:href="heredoc_8c.html#a4d547031558cbd91bd72a017eb6bd1fd" target="_top" xlink:title=" ">
<polygon fill="none" stroke="black" points="387,-19.5 387,-38.5 473,-38.5 473,-19.5 387,-19.5"/>
<text text-anchor="middle" x="430" y="-26.5" font-family="Helvetica,sans-Serif" font-size="10.00">heredoc_input</text>
</a>
</g>
</g>
<!-- Node1&#45;&gt;Node2 -->
<g id="edge1" class="edge">
<title>Node1&#45;&gt;Node2</title>
<path fill="none" stroke="midnightblue" d="M498.52,-29C490.03,-29 481.3,-29 473.07,-29"/>
<polygon fill="midnightblue" stroke="midnightblue" points="498.72,-32.5 508.72,-29 498.72,-25.5 498.72,-32.5"/>
</g>
<!-- Node3 -->
<g id="node3" class="node">
<title>Node3</title>
<g id="a_node3"><a xlink:href="heredoc_8c.html#aa5260679719a4e1f862a6efd1f12cf85" target="_top" xlink:title=" ">
<polygon fill="none" stroke="black" points="220,-19.5 220,-38.5 351,-38.5 351,-19.5 220,-19.5"/>
<text text-anchor="middle" x="285.5" y="-26.5" font-family="Helvetica,sans-Serif" font-size="10.00">here_doc_management</text>
</a>
</g>
</g>
<!-- Node2&#45;&gt;Node3 -->
<g id="edge2" class="edge">
<title>Node2&#45;&gt;Node3</title>
<path fill="none" stroke="midnightblue" d="M376.43,-29C368.2,-29 359.6,-29 351.14,-29"/>
<polygon fill="midnightblue" stroke="midnightblue" points="376.63,-32.5 386.63,-29 376.63,-25.5 376.63,-32.5"/>
</g>
<!-- Node4 -->
<g id="node4" class="node">
<title>Node4</title>
<g id="a_node4"><a xlink:href="multipipe_8c.html#a3f78d597d08aaca5580b2c89f956a3a2" target="_top" xlink:title=" ">
<polygon fill="none" stroke="black" points="95,-38.5 95,-57.5 184,-57.5 184,-38.5 95,-38.5"/>
<text text-anchor="middle" x="139.5" y="-45.5" font-family="Helvetica,sans-Serif" font-size="10.00">multipipe_cmd</text>
</a>
</g>
</g>
<!-- Node3&#45;&gt;Node4 -->
<g id="edge3" class="edge">
<title>Node3&#45;&gt;Node4</title>
<path fill="none" stroke="midnightblue" d="M209.55,-38.89C200.93,-40.03 192.37,-41.16 184.36,-42.21"/>
<polygon fill="midnightblue" stroke="midnightblue" points="210.21,-42.33 219.66,-37.56 209.29,-35.39 210.21,-42.33"/>
</g>
<!-- Node6 -->
<g id="node6" class="node">
<title>Node6</title>
<g id="a_node6"><a xlink:href="execution_8c.html#a4ef7db02a474eb1b198b2a25e1303118" target="_top" xlink:title=" ">
<polygon fill="none" stroke="black" points="95,-0.5 95,-19.5 184,-19.5 184,-0.5 95,-0.5"/>
<text text-anchor="middle" x="139.5" y="-7.5" font-family="Helvetica,sans-Serif" font-size="10.00">one_command</text>
</a>
</g>
</g>
<!-- Node3&#45;&gt;Node6 -->
<g id="edge5" class="edge">
<title>Node3&#45;&gt;Node6</title>
<path fill="none" stroke="midnightblue" d="M209.55,-19.11C200.93,-17.97 192.37,-16.84 184.36,-15.79"/>
<polygon fill="midnightblue" stroke="midnightblue" points="209.29,-22.61 219.66,-20.44 210.21,-15.67 209.29,-22.61"/>
</g>
<!-- Node5 -->
<g id="node5" class="node">
<title>Node5</title>
<g id="a_node5"><a xlink:href="execution_8c.html#a9dffeca3c2ff474e24c3e98ab856df76" target="_top" xlink:title=" ">
<polygon fill="none" stroke="black" points="0,-19.5 0,-38.5 59,-38.5 59,-19.5 0,-19.5"/>
<text text-anchor="middle" x="29.5" y="-26.5" font-family="Helvetica,sans-Serif" font-size="10.00">executor</text>
</a>
</g>
</g>
<!-- Node4&#45;&gt;Node5 -->
<g id="edge4" class="edge">
<title>Node4&#45;&gt;Node5</title>
<path fill="none" stroke="midnightblue" d="M84.88,-38.57C75.97,-37 67.05,-35.43 59.08,-34.03"/>
<polygon fill="midnightblue" stroke="midnightblue" points="84.43,-42.04 94.88,-40.33 85.64,-35.15 84.43,-42.04"/>
</g>
<!-- Node6&#45;&gt;Node5 -->
<g id="edge6" class="edge">
<title>Node6&#45;&gt;Node5</title>
<path fill="none" stroke="midnightblue" d="M84.88,-19.43C75.97,-21 67.05,-22.57 59.08,-23.97"/>
<polygon fill="midnightblue" stroke="midnightblue" points="85.64,-22.85 94.88,-17.67 84.43,-15.96 85.64,-22.85"/>
</g>
</g>
</svg>
