<?xml version="1.0" encoding="UTF-8" standalone="no"?>
<!DOCTYPE svg PUBLIC "-//W3C//DTD SVG 1.1//EN"
 "http://www.w3.org/Graphics/SVG/1.1/DTD/svg11.dtd">
<!-- Generated by graphviz version 2.43.0 (0)
 -->
<!-- Title: ft_lstmap Pages: 1 -->
<svg width="303pt" height="104pt"
 viewBox="0.00 0.00 303.00 104.00" xmlns="http://www.w3.org/2000/svg" xmlns:xlink="http://www.w3.org/1999/xlink">
<g id="graph0" class="graph" transform="scale(1 1) rotate(0) translate(4 100)">
<title>ft_lstmap</title>
<!-- Node1 -->
<g id="node1" class="node">
<title>Node1</title>
<g id="a_node1"><a xlink:title=" ">
<polygon fill="#bfbfbf" stroke="black" points="0,-38.5 0,-57.5 62,-57.5 62,-38.5 0,-38.5"/>
<text text-anchor="middle" x="31" y="-45.5" font-family="Helvetica,sans-Serif" font-size="10.00">ft_lstmap</text>
</a>
</g>
</g>
<!-- Node2 -->
<g id="node2" class="node">
<title>Node2</title>
<g id="a_node2"><a xlink:href="ft__lstadd__back__bonus_8c.html#a4c10e88fffc3c9467eb16e6debd227a4" target="_top" xlink:title=" ">
<polygon fill="none" stroke="black" points="98,-76.5 98,-95.5 185,-95.5 185,-76.5 98,-76.5"/>
<text text-anchor="middle" x="141.5" y="-83.5" font-family="Helvetica,sans-Serif" font-size="10.00">ft_lstadd_back</text>
</a>
</g>
</g>
<!-- Node1&#45;&gt;Node2 -->
<g id="edge1" class="edge">
<title>Node1&#45;&gt;Node2</title>
<path fill="none" stroke="midnightblue" d="M59.38,-57.59C72.74,-62.27 89.02,-67.97 103.47,-73.03"/>
<polygon fill="midnightblue" stroke="midnightblue" points="102.53,-76.41 113.13,-76.41 104.85,-69.81 102.53,-76.41"/>
</g>
<!-- Node4 -->
<g id="node4" class="node">
<title>Node4</title>
<g id="a_node4"><a xlink:href="ft__lstclear__bonus_8c.html#a6e900cfaea2857bbf490f3105e38da93" target="_top" xlink:title=" ">
<polygon fill="none" stroke="black" points="109,-38.5 109,-57.5 174,-57.5 174,-38.5 109,-38.5"/>
<text text-anchor="middle" x="141.5" y="-45.5" font-family="Helvetica,sans-Serif" font-size="10.00">ft_lstclear</text>
</a>
</g>
</g>
<!-- Node1&#45;&gt;Node4 -->
<g id="edge3" class="edge">
<title>Node1&#45;&gt;Node4</title>
<path fill="none" stroke="midnightblue" d="M62.22,-48C73.47,-48 86.45,-48 98.57,-48"/>
<polygon fill="midnightblue" stroke="midnightblue" points="98.93,-51.5 108.93,-48 98.93,-44.5 98.93,-51.5"/>
</g>
<!-- Node6 -->
<g id="node6" class="node">
<title>Node6</title>
<g id="a_node6"><a xlink:href="ft__lstnew__bonus_8c.html#a743cc39883396bbd22b0e14c44b9baa5" target="_top" xlink:title=" ">
<polygon fill="none" stroke="black" points="111,-0.5 111,-19.5 172,-19.5 172,-0.5 111,-0.5"/>
<text text-anchor="middle" x="141.5" y="-7.5" font-family="Helvetica,sans-Serif" font-size="10.00">ft_lstnew</text>
</a>
</g>
</g>
<!-- Node1&#45;&gt;Node6 -->
<g id="edge5" class="edge">
<title>Node1&#45;&gt;Node6</title>
<path fill="none" stroke="midnightblue" d="M59.38,-38.41C72.74,-33.73 89.02,-28.03 103.47,-22.97"/>
<polygon fill="midnightblue" stroke="midnightblue" points="104.85,-26.19 113.13,-19.59 102.53,-19.59 104.85,-26.19"/>
</g>
<!-- Node3 -->
<g id="node3" class="node">
<title>Node3</title>
<g id="a_node3"><a xlink:href="ft__lstlast__bonus_8c.html#aa79e167d6ec8f17866085697fff01b13" target="_top" xlink:title=" ">
<polygon fill="none" stroke="black" points="228.5,-76.5 228.5,-95.5 287.5,-95.5 287.5,-76.5 228.5,-76.5"/>
<text text-anchor="middle" x="258" y="-83.5" font-family="Helvetica,sans-Serif" font-size="10.00">ft_lstlast</text>
</a>
</g>
</g>
<!-- Node2&#45;&gt;Node3 -->
<g id="edge2" class="edge">
<title>Node2&#45;&gt;Node3</title>
<path fill="none" stroke="midnightblue" d="M185.14,-86C195.91,-86 207.43,-86 218.02,-86"/>
<polygon fill="midnightblue" stroke="midnightblue" points="218.23,-89.5 228.23,-86 218.23,-82.5 218.23,-89.5"/>
</g>
<!-- Node5 -->
<g id="node5" class="node">
<title>Node5</title>
<g id="a_node5"><a xlink:href="ft__lstdelone__bonus_8c.html#ac2b881501f9ee2f3ed5718f6d9ebee7c" target="_top" xlink:title=" ">
<polygon fill="none" stroke="black" points="221,-38.5 221,-57.5 295,-57.5 295,-38.5 221,-38.5"/>
<text text-anchor="middle" x="258" y="-45.5" font-family="Helvetica,sans-Serif" font-size="10.00">ft_lstdelone</text>
</a>
</g>
</g>
<!-- Node4&#45;&gt;Node5 -->
<g id="edge4" class="edge">
<title>Node4&#45;&gt;Node5</title>
<path fill="none" stroke="midnightblue" d="M174.09,-48C185.36,-48 198.31,-48 210.57,-48"/>
<polygon fill="midnightblue" stroke="midnightblue" points="210.66,-51.5 220.66,-48 210.66,-44.5 210.66,-51.5"/>
</g>
</g>
</svg>
