<?xml version="1.0" encoding="UTF-8" standalone="no"?>
<!DOCTYPE svg PUBLIC "-//W3C//DTD SVG 1.1//EN"
 "http://www.w3.org/Graphics/SVG/1.1/DTD/svg11.dtd">
<!-- Generated by graphviz version 2.43.0 (0)
 -->
<!-- Title: ft_printf_numbers Pages: 1 -->
<svg width="1204pt" height="123pt"
 viewBox="0.00 0.00 1204.00 123.00" xmlns="http://www.w3.org/2000/svg" xmlns:xlink="http://www.w3.org/1999/xlink">
<g id="graph0" class="graph" transform="scale(1 1) rotate(0) translate(4 119)">
<title>ft_printf_numbers</title>
<!-- Node1 -->
<g id="node1" class="node">
<title>Node1</title>
<g id="a_node1"><a xlink:title=" ">
<polygon fill="#bfbfbf" stroke="black" points="1093,-38.5 1093,-57.5 1196,-57.5 1196,-38.5 1093,-38.5"/>
<text text-anchor="middle" x="1144.5" y="-45.5" font-family="Helvetica,sans-Serif" font-size="10.00">ft_printf_numbers</text>
</a>
</g>
</g>
<!-- Node2 -->
<g id="node2" class="node">
<title>Node2</title>
<g id="a_node2"><a xlink:href="ft__printf_8c.html#afd374d693dd18da657053dbc77229828" target="_top" xlink:title=" ">
<polygon fill="none" stroke="black" points="992,-38.5 992,-57.5 1057,-57.5 1057,-38.5 992,-38.5"/>
<text text-anchor="middle" x="1024.5" y="-45.5" font-family="Helvetica,sans-Serif" font-size="10.00">ft_convert</text>
</a>
</g>
</g>
<!-- Node1&#45;&gt;Node2 -->
<g id="edge1" class="edge">
<title>Node1&#45;&gt;Node2</title>
<path fill="none" stroke="midnightblue" d="M1082.77,-48C1073.89,-48 1065.06,-48 1057.09,-48"/>
<polygon fill="midnightblue" stroke="midnightblue" points="1082.77,-51.5 1092.77,-48 1082.77,-44.5 1082.77,-51.5"/>
</g>
<!-- Node3 -->
<g id="node3" class="node">
<title>Node3</title>
<g id="a_node3"><a xlink:href="ft__printf_8c.html#a1ee8ae8a80a7d9141ea5339af8565f2e" target="_top" xlink:title=" ">
<polygon fill="none" stroke="black" points="901,-38.5 901,-57.5 956,-57.5 956,-38.5 901,-38.5"/>
<text text-anchor="middle" x="928.5" y="-45.5" font-family="Helvetica,sans-Serif" font-size="10.00">ft_printf</text>
</a>
</g>
</g>
<!-- Node2&#45;&gt;Node3 -->
<g id="edge2" class="edge">
<title>Node2&#45;&gt;Node3</title>
<path fill="none" stroke="midnightblue" d="M981.86,-48C973.12,-48 964.13,-48 956.12,-48"/>
<polygon fill="midnightblue" stroke="midnightblue" points="981.94,-51.5 991.94,-48 981.94,-44.5 981.94,-51.5"/>
</g>
<!-- Node4 -->
<g id="node4" class="node">
<title>Node4</title>
<g id="a_node4"><a xlink:href="env_8c.html#ad7678c59b5365c776294bdeefd3d7583" target="_top" xlink:title=" ">
<polygon fill="none" stroke="black" points="829,-76.5 829,-95.5 864,-95.5 864,-76.5 829,-76.5"/>
<text text-anchor="middle" x="846.5" y="-83.5" font-family="Helvetica,sans-Serif" font-size="10.00">env</text>
</a>
</g>
</g>
<!-- Node3&#45;&gt;Node4 -->
<g id="edge3" class="edge">
<title>Node3&#45;&gt;Node4</title>
<path fill="none" stroke="midnightblue" d="M898.09,-61.97C886.66,-67.4 873.98,-73.42 864.17,-78.08"/>
<polygon fill="midnightblue" stroke="midnightblue" points="899.78,-65.04 907.31,-57.59 896.78,-58.72 899.78,-65.04"/>
</g>
<!-- Node5 -->
<g id="node5" class="node">
<title>Node5</title>
<g id="a_node5"><a xlink:href="execution_8c.html#a8b2bd9dba90bfc9b2ead44af5e630315" target="_top" xlink:title="launch the builtin">
<polygon fill="none" stroke="black" points="707,-38.5 707,-57.5 792,-57.5 792,-38.5 707,-38.5"/>
<text text-anchor="middle" x="749.5" y="-45.5" font-family="Helvetica,sans-Serif" font-size="10.00">launch_builtin</text>
</a>
</g>
</g>
<!-- Node3&#45;&gt;Node5 -->
<g id="edge14" class="edge">
<title>Node3&#45;&gt;Node5</title>
<path fill="none" stroke="midnightblue" d="M890.58,-48C861.86,-48 822.01,-48 792.15,-48"/>
<polygon fill="midnightblue" stroke="midnightblue" points="890.62,-51.5 900.62,-48 890.62,-44.5 890.62,-51.5"/>
</g>
<!-- Node13 -->
<g id="node13" class="node">
<title>Node13</title>
<g id="a_node13"><a xlink:href="pwd_8c.html#ab62618359287b6604bd60852145b9726" target="_top" xlink:title=" ">
<polygon fill="none" stroke="black" points="828,-0.5 828,-19.5 865,-19.5 865,-0.5 828,-0.5"/>
<text text-anchor="middle" x="846.5" y="-7.5" font-family="Helvetica,sans-Serif" font-size="10.00">pwd</text>
</a>
</g>
</g>
<!-- Node3&#45;&gt;Node13 -->
<g id="edge15" class="edge">
<title>Node3&#45;&gt;Node13</title>
<path fill="none" stroke="midnightblue" d="M898.02,-34C887.01,-28.77 874.86,-23 865.23,-18.42"/>
<polygon fill="midnightblue" stroke="midnightblue" points="896.78,-37.28 907.31,-38.41 899.78,-30.96 896.78,-37.28"/>
</g>
<!-- Node4&#45;&gt;Node5 -->
<g id="edge4" class="edge">
<title>Node4&#45;&gt;Node5</title>
<path fill="none" stroke="midnightblue" d="M819.36,-75.54C805.28,-69.91 788.04,-63.02 774.33,-57.53"/>
<polygon fill="midnightblue" stroke="midnightblue" points="818.37,-78.92 828.95,-79.38 820.97,-72.42 818.37,-78.92"/>
</g>
<!-- Node6 -->
<g id="node6" class="node">
<title>Node6</title>
<g id="a_node6"><a xlink:href="execution__node_8c.html#a6cfdc545c2222bbb0ca1dfc8431f72a3" target="_top" xlink:title=" ">
<polygon fill="none" stroke="black" points="578,-57.5 578,-76.5 671,-76.5 671,-57.5 578,-57.5"/>
<text text-anchor="middle" x="624.5" y="-64.5" font-family="Helvetica,sans-Serif" font-size="10.00">execution_node</text>
</a>
</g>
</g>
<!-- Node5&#45;&gt;Node6 -->
<g id="edge5" class="edge">
<title>Node5&#45;&gt;Node6</title>
<path fill="none" stroke="midnightblue" d="M696.73,-56C688.29,-57.3 679.61,-58.64 671.32,-59.92"/>
<polygon fill="midnightblue" stroke="midnightblue" points="697.51,-59.42 706.86,-54.43 696.44,-52.5 697.51,-59.42"/>
</g>
<!-- Node12 -->
<g id="node12" class="node">
<title>Node12</title>
<g id="a_node12"><a xlink:href="execution_8c.html#a4ef7db02a474eb1b198b2a25e1303118" target="_top" xlink:title=" ">
<polygon fill="none" stroke="black" points="254.5,-57.5 254.5,-76.5 343.5,-76.5 343.5,-57.5 254.5,-57.5"/>
<text text-anchor="middle" x="299" y="-64.5" font-family="Helvetica,sans-Serif" font-size="10.00">one_command</text>
</a>
</g>
</g>
<!-- Node5&#45;&gt;Node12 -->
<g id="edge13" class="edge">
<title>Node5&#45;&gt;Node12</title>
<path fill="none" stroke="midnightblue" d="M696.84,-45.36C631.03,-42.61 513.85,-39.74 414,-48 390.6,-49.94 364.78,-54.07 343.64,-57.99"/>
<polygon fill="midnightblue" stroke="midnightblue" points="696.81,-48.87 706.95,-45.8 697.11,-41.87 696.81,-48.87"/>
</g>
<!-- Node7 -->
<g id="node7" class="node">
<title>Node7</title>
<g id="a_node7"><a xlink:href="multipipe_8c.html#a43baea25481fdd02ce42e4d249f12353" target="_top" xlink:title=" ">
<polygon fill="none" stroke="black" points="436.5,-95.5 436.5,-114.5 519.5,-114.5 519.5,-95.5 436.5,-95.5"/>
<text text-anchor="middle" x="478" y="-102.5" font-family="Helvetica,sans-Serif" font-size="10.00">execute_child</text>
</a>
</g>
</g>
<!-- Node6&#45;&gt;Node7 -->
<g id="edge6" class="edge">
<title>Node6&#45;&gt;Node7</title>
<path fill="none" stroke="midnightblue" d="M577.17,-79.18C557.11,-84.46 533.97,-90.54 515.2,-95.48"/>
<polygon fill="midnightblue" stroke="midnightblue" points="578.26,-82.52 587.04,-76.59 576.48,-75.75 578.26,-82.52"/>
</g>
<!-- Node11 -->
<g id="node11" class="node">
<title>Node11</title>
<g id="a_node11"><a xlink:href="execution_8c.html#ac70faaedddc427b5051b808a8de40da4" target="_top" xlink:title=" ">
<polygon fill="none" stroke="black" points="414,-57.5 414,-76.5 542,-76.5 542,-57.5 414,-57.5"/>
<text text-anchor="middle" x="478" y="-64.5" font-family="Helvetica,sans-Serif" font-size="10.00">one_command_execve</text>
</a>
</g>
</g>
<!-- Node6&#45;&gt;Node11 -->
<g id="edge10" class="edge">
<title>Node6&#45;&gt;Node11</title>
<path fill="none" stroke="midnightblue" d="M567.74,-67C559.35,-67 550.65,-67 542.12,-67"/>
<polygon fill="midnightblue" stroke="midnightblue" points="567.78,-70.5 577.78,-67 567.78,-63.5 567.78,-70.5"/>
</g>
<!-- Node8 -->
<g id="node8" class="node">
<title>Node8</title>
<g id="a_node8"><a xlink:href="multipipe_8c.html#af32b88ab44b94650a0bb6f805f70a805" target="_top" xlink:title=" ">
<polygon fill="none" stroke="black" points="220,-95.5 220,-114.5 378,-114.5 378,-95.5 220,-95.5"/>
<text text-anchor="middle" x="299" y="-102.5" font-family="Helvetica,sans-Serif" font-size="10.00">multipipe_intermediary_cmd</text>
</a>
</g>
</g>
<!-- Node7&#45;&gt;Node8 -->
<g id="edge7" class="edge">
<title>Node7&#45;&gt;Node8</title>
<path fill="none" stroke="midnightblue" d="M426.29,-105C411.24,-105 394.4,-105 378.04,-105"/>
<polygon fill="midnightblue" stroke="midnightblue" points="426.39,-108.5 436.39,-105 426.39,-101.5 426.39,-108.5"/>
</g>
<!-- Node9 -->
<g id="node9" class="node">
<title>Node9</title>
<g id="a_node9"><a xlink:href="multipipe_8c.html#a3f78d597d08aaca5580b2c89f956a3a2" target="_top" xlink:title=" ">
<polygon fill="none" stroke="black" points="95,-95.5 95,-114.5 184,-114.5 184,-95.5 95,-95.5"/>
<text text-anchor="middle" x="139.5" y="-102.5" font-family="Helvetica,sans-Serif" font-size="10.00">multipipe_cmd</text>
</a>
</g>
</g>
<!-- Node8&#45;&gt;Node9 -->
<g id="edge8" class="edge">
<title>Node8&#45;&gt;Node9</title>
<path fill="none" stroke="midnightblue" d="M209.44,-105C200.73,-105 192.19,-105 184.24,-105"/>
<polygon fill="midnightblue" stroke="midnightblue" points="209.71,-108.5 219.71,-105 209.71,-101.5 209.71,-108.5"/>
</g>
<!-- Node10 -->
<g id="node10" class="node">
<title>Node10</title>
<g id="a_node10"><a xlink:href="execution_8c.html#a9dffeca3c2ff474e24c3e98ab856df76" target="_top" xlink:title=" ">
<polygon fill="none" stroke="black" points="0,-76.5 0,-95.5 59,-95.5 59,-76.5 0,-76.5"/>
<text text-anchor="middle" x="29.5" y="-83.5" font-family="Helvetica,sans-Serif" font-size="10.00">executor</text>
</a>
</g>
</g>
<!-- Node9&#45;&gt;Node10 -->
<g id="edge9" class="edge">
<title>Node9&#45;&gt;Node10</title>
<path fill="none" stroke="midnightblue" d="M84.88,-95.57C75.97,-94 67.05,-92.43 59.08,-91.03"/>
<polygon fill="midnightblue" stroke="midnightblue" points="84.43,-99.04 94.88,-97.33 85.64,-92.15 84.43,-99.04"/>
</g>
<!-- Node11&#45;&gt;Node12 -->
<g id="edge11" class="edge">
<title>Node11&#45;&gt;Node12</title>
<path fill="none" stroke="midnightblue" d="M403.4,-67C383.05,-67 361.62,-67 343.57,-67"/>
<polygon fill="midnightblue" stroke="midnightblue" points="403.6,-70.5 413.6,-67 403.6,-63.5 403.6,-70.5"/>
</g>
<!-- Node12&#45;&gt;Node10 -->
<g id="edge12" class="edge">
<title>Node12&#45;&gt;Node10</title>
<path fill="none" stroke="midnightblue" d="M244.37,-70.81C188.58,-74.77 103.35,-80.83 59.22,-83.96"/>
<polygon fill="midnightblue" stroke="midnightblue" points="244.7,-74.29 254.43,-70.09 244.2,-67.31 244.7,-74.29"/>
</g>
<!-- Node13&#45;&gt;Node5 -->
<g id="edge16" class="edge">
<title>Node13&#45;&gt;Node5</title>
<path fill="none" stroke="midnightblue" d="M818.14,-20.94C804.32,-26.47 787.69,-33.12 774.39,-38.44"/>
<polygon fill="midnightblue" stroke="midnightblue" points="819.65,-24.11 827.63,-17.15 817.05,-17.61 819.65,-24.11"/>
</g>
</g>
</svg>
