<?xml version="1.0" encoding="UTF-8" standalone="no"?>
<!DOCTYPE svg PUBLIC "-//W3C//DTD SVG 1.1//EN"
 "http://www.w3.org/Graphics/SVG/1.1/DTD/svg11.dtd">
<!-- Generated by graphviz version 2.43.0 (0)
 -->
<!-- Title: ft_memset Pages: 1 -->
<!--zoomable 66 -->
<svg id="main" version="1.1" xmlns="http://www.w3.org/2000/svg" xmlns:xlink="http://www.w3.org/1999/xlink" xml:space="preserve" onload="init(evt)">
<style type="text/css"><![CDATA[
.edge:hover path { stroke: red; }
.edge:hover polygon { stroke: red; fill: red; }
]]></style>
<script type="text/javascript"><![CDATA[
var edges = document.getElementsByTagName('g');
if (edges && edges.length) {
  for (var i=0;i<edges.length;i++) {
    if (edges[i].id.substr(0,4)=='edge') {
      edges[i].setAttribute('class','edge');
    }
  }
}
]]></script>
        <defs>
                <circle id="rim" cx="0" cy="0" r="7"/>
                <circle id="rim2" cx="0" cy="0" r="3.5"/>
                <g id="zoomPlus">
                        <use xlink:href="#rim" fill="#404040">
                                <set attributeName="fill" to="#808080" begin="zoomplus.mouseover" end="zoomplus.mouseout"/>
                        </use>
                        <path d="M-4,0h8M0,-4v8" fill="none" stroke="white" stroke-width="1.5" pointer-events="none"/>
                </g>
                <g id="zoomMin">
                        <use xlink:href="#rim" fill="#404040">
                                <set attributeName="fill" to="#808080" begin="zoomminus.mouseover" end="zoomminus.mouseout"/>
                        </use>
                        <path d="M-4,0h8" fill="none" stroke="white" stroke-width="1.5" pointer-events="none"/>
                </g>
                <g id="dirArrow">
                        <path fill="none" stroke="white" stroke-width="1.5" d="M0,-3.0v7 M-2.5,-0.5L0,-3.0L2.5,-0.5"/>
                </g>
               <g id="resetDef">
                       <use xlink:href="#rim2" fill="#404040">
                               <set attributeName="fill" to="#808080" begin="reset.mouseover" end="reset.mouseout"/>
                       </use>
               </g>
        </defs>

<script type="text/javascript">
var viewWidth = 1205;
var viewHeight = 66;
var sectionId = 'dynsection-27';
</script>
<script xlink:href="svgpan.js"/>
<svg id="graph" class="graph">
<g id="viewport">
<title>ft_memset</title>
<!-- Node1 -->
<g id="node1" class="node">
<title>Node1</title>
<g id="a_node1"><a xlink:title=" ">
<polygon fill="#bfbfbf" stroke="black" points="1128,-19.5 1128,-38.5 1197,-38.5 1197,-19.5 1128,-19.5"/>
<text text-anchor="middle" x="1162.5" y="-26.5" font-family="Helvetica,sans-Serif" font-size="10.00">ft_memset</text>
</a>
</g>
</g>
<!-- Node2 -->
<g id="node2" class="node">
<title>Node2</title>
<g id="a_node2"><a xlink:href="ft__bzero_8c.html#a5937ab0d08e31d0e3e4a16ec71e293a1" target="_top" xlink:title=" ">
<polygon fill="none" stroke="black" points="1036,-19.5 1036,-38.5 1092,-38.5 1092,-19.5 1036,-19.5"/>
<text text-anchor="middle" x="1064" y="-26.5" font-family="Helvetica,sans-Serif" font-size="10.00">ft_bzero</text>
</a>
</g>
</g>
<!-- Node1&#45;&gt;Node2 -->
<g id="edge1" class="edge">
<title>Node1&#45;&gt;Node2</title>
<path fill="none" stroke="midnightblue" d="M1117.71,-29C1109.02,-29 1100.14,-29 1092.21,-29"/>
<polygon fill="midnightblue" stroke="midnightblue" points="1117.75,-32.5 1127.75,-29 1117.75,-25.5 1117.75,-32.5"/>
</g>
<!-- Node3 -->
<g id="node3" class="node">
<title>Node3</title>
<g id="a_node3"><a xlink:href="ft__calloc_8c.html#ab927e999982a91970c6e43b403d66167" target="_top" xlink:title=" ">
<polygon fill="none" stroke="black" points="943,-19.5 943,-38.5 1000,-38.5 1000,-19.5 943,-19.5"/>
<text text-anchor="middle" x="971.5" y="-26.5" font-family="Helvetica,sans-Serif" font-size="10.00">ft_calloc</text>
</a>
</g>
</g>
<!-- Node2&#45;&gt;Node3 -->
<g id="edge2" class="edge">
<title>Node2&#45;&gt;Node3</title>
<path fill="none" stroke="midnightblue" d="M1025.73,-29C1017.21,-29 1008.3,-29 1000.26,-29"/>
<polygon fill="midnightblue" stroke="midnightblue" points="1025.85,-32.5 1035.85,-29 1025.85,-25.5 1025.85,-32.5"/>
</g>
<!-- Node4 -->
<g id="node4" class="node">
<title>Node4</title>
<g id="a_node4"><a xlink:href="ft__strjoin_8c.html#a5c1c26f8be9bc527cfe69a3555124795" target="_top" xlink:title=" ">
<polygon fill="none" stroke="black" points="848,-19.5 848,-38.5 907,-38.5 907,-19.5 848,-19.5"/>
<text text-anchor="middle" x="877.5" y="-26.5" font-family="Helvetica,sans-Serif" font-size="10.00">ft_strjoin</text>
</a>
</g>
</g>
<!-- Node3&#45;&gt;Node4 -->
<g id="edge3" class="edge">
<title>Node3&#45;&gt;Node4</title>
<path fill="none" stroke="midnightblue" d="M932.71,-29C924.13,-29 915.16,-29 907.04,-29"/>
<polygon fill="midnightblue" stroke="midnightblue" points="932.9,-32.5 942.9,-29 932.9,-25.5 932.9,-32.5"/>
</g>
<!-- Node5 -->
<g id="node5" class="node">
<title>Node5</title>
<g id="a_node5"><a xlink:href="get__next__line_8c.html#a34333af6d816f260f7680fcfbc81a2fd" target="_top" xlink:title=" ">
<polygon fill="none" stroke="black" points="717,-38.5 717,-57.5 812,-57.5 812,-38.5 717,-38.5"/>
<text text-anchor="middle" x="764.5" y="-45.5" font-family="Helvetica,sans-Serif" font-size="10.00">looping_reading</text>
</a>
</g>
</g>
<!-- Node4&#45;&gt;Node5 -->
<g id="edge4" class="edge">
<title>Node4&#45;&gt;Node5</title>
<path fill="none" stroke="midnightblue" d="M838.04,-35.58C829.67,-37.02 820.72,-38.55 812.07,-40.03"/>
<polygon fill="midnightblue" stroke="midnightblue" points="838.65,-39.03 847.91,-33.89 837.47,-32.13 838.65,-39.03"/>
</g>
<!-- Node6 -->
<g id="node6" class="node">
<title>Node6</title>
<g id="a_node6"><a xlink:href="get__next__line_8c.html#ae6d543ff06d0f78ff197de5e94f22200" target="_top" xlink:title=" ">
<polygon fill="none" stroke="black" points="628,-19.5 628,-38.5 681,-38.5 681,-19.5 628,-19.5"/>
<text text-anchor="middle" x="654.5" y="-26.5" font-family="Helvetica,sans-Serif" font-size="10.00">reading</text>
</a>
</g>
</g>
<!-- Node4&#45;&gt;Node6 -->
<g id="edge13" class="edge">
<title>Node4&#45;&gt;Node6</title>
<path fill="none" stroke="midnightblue" d="M837.35,-29C792.34,-29 719.75,-29 681.31,-29"/>
<polygon fill="midnightblue" stroke="midnightblue" points="837.61,-32.5 847.61,-29 837.61,-25.5 837.61,-32.5"/>
</g>
<!-- Node5&#45;&gt;Node6 -->
<g id="edge5" class="edge">
<title>Node5&#45;&gt;Node6</title>
<path fill="none" stroke="midnightblue" d="M706.69,-38.01C697.76,-36.44 688.94,-34.88 681.2,-33.52"/>
<polygon fill="midnightblue" stroke="midnightblue" points="706.3,-41.49 716.76,-39.78 707.52,-34.6 706.3,-41.49"/>
</g>
<!-- Node7 -->
<g id="node7" class="node">
<title>Node7</title>
<g id="a_node7"><a xlink:href="get__next__line_8c.html#aed7a5e18848da190b01eb9e791c51824" target="_top" xlink:title=" ">
<polygon fill="none" stroke="black" points="509,-19.5 509,-38.5 592,-38.5 592,-19.5 509,-19.5"/>
<text text-anchor="middle" x="550.5" y="-26.5" font-family="Helvetica,sans-Serif" font-size="10.00">get_next_line</text>
</a>
</g>
</g>
<!-- Node6&#45;&gt;Node7 -->
<g id="edge6" class="edge">
<title>Node6&#45;&gt;Node7</title>
<path fill="none" stroke="midnightblue" d="M617.74,-29C609.52,-29 600.73,-29 592.32,-29"/>
<polygon fill="midnightblue" stroke="midnightblue" points="617.76,-32.5 627.76,-29 617.76,-25.5 617.76,-32.5"/>
</g>
<!-- Node8 -->
<g id="node8" class="node">
<title>Node8</title>
<g id="a_node8"><a xlink:href="heredoc_8c.html#a4d547031558cbd91bd72a017eb6bd1fd" target="_top" xlink:title=" ">
<polygon fill="none" stroke="black" points="387,-19.5 387,-38.5 473,-38.5 473,-19.5 387,-19.5"/>
<text text-anchor="middle" x="430" y="-26.5" font-family="Helvetica,sans-Serif" font-size="10.00">heredoc_input</text>
</a>
</g>
</g>
<!-- Node7&#45;&gt;Node8 -->
<g id="edge7" class="edge">
<title>Node7&#45;&gt;Node8</title>
<path fill="none" stroke="midnightblue" d="M498.52,-29C490.03,-29 481.3,-29 473.07,-29"/>
<polygon fill="midnightblue" stroke="midnightblue" points="498.72,-32.5 508.72,-29 498.72,-25.5 498.72,-32.5"/>
</g>
<!-- Node9 -->
<g id="node9" class="node">
<title>Node9</title>
<g id="a_node9"><a xlink:href="heredoc_8c.html#aa5260679719a4e1f862a6efd1f12cf85" target="_top" xlink:title=" ">
<polygon fill="none" stroke="black" points="220,-19.5 220,-38.5 351,-38.5 351,-19.5 220,-19.5"/>
<text text-anchor="middle" x="285.5" y="-26.5" font-family="Helvetica,sans-Serif" font-size="10.00">here_doc_management</text>
</a>
</g>
</g>
<!-- Node8&#45;&gt;Node9 -->
<g id="edge8" class="edge">
<title>Node8&#45;&gt;Node9</title>
<path fill="none" stroke="midnightblue" d="M376.43,-29C368.2,-29 359.6,-29 351.14,-29"/>
<polygon fill="midnightblue" stroke="midnightblue" points="376.63,-32.5 386.63,-29 376.63,-25.5 376.63,-32.5"/>
</g>
<!-- Node10 -->
<g id="node10" class="node">
<title>Node10</title>
<g id="a_node10"><a xlink:href="multipipe_8c.html#a3f78d597d08aaca5580b2c89f956a3a2" target="_top" xlink:title=" ">
<polygon fill="none" stroke="black" points="95,-38.5 95,-57.5 184,-57.5 184,-38.5 95,-38.5"/>
<text text-anchor="middle" x="139.5" y="-45.5" font-family="Helvetica,sans-Serif" font-size="10.00">multipipe_cmd</text>
</a>
</g>
</g>
<!-- Node9&#45;&gt;Node10 -->
<g id="edge9" class="edge">
<title>Node9&#45;&gt;Node10</title>
<path fill="none" stroke="midnightblue" d="M209.55,-38.89C200.93,-40.03 192.37,-41.16 184.36,-42.21"/>
<polygon fill="midnightblue" stroke="midnightblue" points="210.21,-42.33 219.66,-37.56 209.29,-35.39 210.21,-42.33"/>
</g>
<!-- Node12 -->
<g id="node12" class="node">
<title>Node12</title>
<g id="a_node12"><a xlink:href="execution_8c.html#a4ef7db02a474eb1b198b2a25e1303118" target="_top" xlink:title=" ">
<polygon fill="none" stroke="black" points="95,-0.5 95,-19.5 184,-19.5 184,-0.5 95,-0.5"/>
<text text-anchor="middle" x="139.5" y="-7.5" font-family="Helvetica,sans-Serif" font-size="10.00">one_command</text>
</a>
</g>
</g>
<!-- Node9&#45;&gt;Node12 -->
<g id="edge11" class="edge">
<title>Node9&#45;&gt;Node12</title>
<path fill="none" stroke="midnightblue" d="M209.55,-19.11C200.93,-17.97 192.37,-16.84 184.36,-15.79"/>
<polygon fill="midnightblue" stroke="midnightblue" points="209.29,-22.61 219.66,-20.44 210.21,-15.67 209.29,-22.61"/>
</g>
<!-- Node11 -->
<g id="node11" class="node">
<title>Node11</title>
<g id="a_node11"><a xlink:href="execution_8c.html#a9dffeca3c2ff474e24c3e98ab856df76" target="_top" xlink:title=" ">
<polygon fill="none" stroke="black" points="0,-19.5 0,-38.5 59,-38.5 59,-19.5 0,-19.5"/>
<text text-anchor="middle" x="29.5" y="-26.5" font-family="Helvetica,sans-Serif" font-size="10.00">executor</text>
</a>
</g>
</g>
<!-- Node10&#45;&gt;Node11 -->
<g id="edge10" class="edge">
<title>Node10&#45;&gt;Node11</title>
<path fill="none" stroke="midnightblue" d="M84.88,-38.57C75.97,-37 67.05,-35.43 59.08,-34.03"/>
<polygon fill="midnightblue" stroke="midnightblue" points="84.43,-42.04 94.88,-40.33 85.64,-35.15 84.43,-42.04"/>
</g>
<!-- Node12&#45;&gt;Node11 -->
<g id="edge12" class="edge">
<title>Node12&#45;&gt;Node11</title>
<path fill="none" stroke="midnightblue" d="M84.88,-19.43C75.97,-21 67.05,-22.57 59.08,-23.97"/>
<polygon fill="midnightblue" stroke="midnightblue" points="85.64,-22.85 94.88,-17.67 84.43,-15.96 85.64,-22.85"/>
</g>
</g>
</svg>
        <g id="navigator" transform="translate(0 0)" fill="#404254">
                <rect fill="#f2f5e9" fill-opacity="0.5" stroke="#606060" stroke-width=".5" x="0" y="0" width="60" height="60"/>
                <use id="zoomplus" xlink:href="#zoomPlus" x="17" y="9" onmousedown="handleZoom(evt,'in')"/>
                <use id="zoomminus" xlink:href="#zoomMin" x="42" y="9" onmousedown="handleZoom(evt,'out')"/>
                <use id="reset" xlink:href="#resetDef" x="30" y="36" onmousedown="handleReset()"/>
                <g id="arrowUp" xlink:href="#dirArrow" transform="translate(30 24)" onmousedown="handlePan(0,-1)">
                  <use xlink:href="#rim" fill="#404040">
                        <set attributeName="fill" to="#808080" begin="arrowUp.mouseover" end="arrowUp.mouseout"/>
                  </use>
                  <path fill="none" stroke="white" stroke-width="1.5" d="M0,-3.0v7 M-2.5,-0.5L0,-3.0L2.5,-0.5"/>
                </g>
                <g id="arrowRight" xlink:href="#dirArrow" transform="rotate(90) translate(36 -43)" onmousedown="handlePan(1,0)">
                  <use xlink:href="#rim" fill="#404040">
                        <set attributeName="fill" to="#808080" begin="arrowRight.mouseover" end="arrowRight.mouseout"/>
                  </use>
                  <path fill="none" stroke="white" stroke-width="1.5" d="M0,-3.0v7 M-2.5,-0.5L0,-3.0L2.5,-0.5"/>
                </g>
                <g id="arrowDown" xlink:href="#dirArrow" transform="rotate(180) translate(-30 -48)" onmousedown="handlePan(0,1)">
                  <use xlink:href="#rim" fill="#404040">
                        <set attributeName="fill" to="#808080" begin="arrowDown.mouseover" end="arrowDown.mouseout"/>
                  </use>
                  <path fill="none" stroke="white" stroke-width="1.5" d="M0,-3.0v7 M-2.5,-0.5L0,-3.0L2.5,-0.5"/>
                </g>
                <g id="arrowLeft" xlink:href="#dirArrow" transform="rotate(270) translate(-36 17)" onmousedown="handlePan(-1,0)">
                  <use xlink:href="#rim" fill="#404040">
                        <set attributeName="fill" to="#808080" begin="arrowLeft.mouseover" end="arrowLeft.mouseout"/>
                  </use>
                  <path fill="none" stroke="white" stroke-width="1.5" d="M0,-3.0v7 M-2.5,-0.5L0,-3.0L2.5,-0.5"/>
                </g>
        </g>
        <svg viewBox="0 0 15 15" width="100%" height="30px" preserveAspectRatio="xMaxYMin meet">
         <g id="arrow_out" transform="scale(0.3 0.3)">
          <a xlink:href="libft_8h_aa32eb193f310275c04ccacf3504b95b9_icgraph_org.svg" target="_base">
           <rect id="button" ry="5" rx="5" y="6" x="6" height="38" width="38"
                fill="#f2f5e9" fill-opacity="0.5" stroke="#606060" stroke-width="1.0"/>
           <path id="arrow"
             d="M 11.500037,31.436501 C 11.940474,20.09759 22.043105,11.32322 32.158766,21.979434 L 37.068811,17.246167 C 37.068811,17.246167 37.088388,32 37.088388,32 L 22.160133,31.978069 C 22.160133,31.978069 26.997745,27.140456 26.997745,27.140456 C 18.528582,18.264221 13.291696,25.230495 11.500037,31.436501 z"
             style="fill:#404040;"/>
          </a>
         </g>
        </svg>
</svg>
