<?xml version="1.0" encoding="UTF-8" standalone="no"?>
<!DOCTYPE svg PUBLIC "-//W3C//DTD SVG 1.1//EN"
 "http://www.w3.org/Graphics/SVG/1.1/DTD/svg11.dtd">
<!-- Generated by graphviz version 2.43.0 (0)
 -->
<!-- Title: ft_strdup Pages: 1 -->
<!--zoomable 180 -->
<svg id="main" version="1.1" xmlns="http://www.w3.org/2000/svg" xmlns:xlink="http://www.w3.org/1999/xlink" xml:space="preserve" onload="init(evt)">
<style type="text/css"><![CDATA[
.edge:hover path { stroke: red; }
.edge:hover polygon { stroke: red; fill: red; }
]]></style>
<script type="text/javascript"><![CDATA[
var edges = document.getElementsByTagName('g');
if (edges && edges.length) {
  for (var i=0;i<edges.length;i++) {
    if (edges[i].id.substr(0,4)=='edge') {
      edges[i].setAttribute('class','edge');
    }
  }
}
]]></script>
        <defs>
                <circle id="rim" cx="0" cy="0" r="7"/>
                <circle id="rim2" cx="0" cy="0" r="3.5"/>
                <g id="zoomPlus">
                        <use xlink:href="#rim" fill="#404040">
                                <set attributeName="fill" to="#808080" begin="zoomplus.mouseover" end="zoomplus.mouseout"/>
                        </use>
                        <path d="M-4,0h8M0,-4v8" fill="none" stroke="white" stroke-width="1.5" pointer-events="none"/>
                </g>
                <g id="zoomMin">
                        <use xlink:href="#rim" fill="#404040">
                                <set attributeName="fill" to="#808080" begin="zoomminus.mouseover" end="zoomminus.mouseout"/>
                        </use>
                        <path d="M-4,0h8" fill="none" stroke="white" stroke-width="1.5" pointer-events="none"/>
                </g>
                <g id="dirArrow">
                        <path fill="none" stroke="white" stroke-width="1.5" d="M0,-3.0v7 M-2.5,-0.5L0,-3.0L2.5,-0.5"/>
                </g>
               <g id="resetDef">
                       <use xlink:href="#rim2" fill="#404040">
                               <set attributeName="fill" to="#808080" begin="reset.mouseover" end="reset.mouseout"/>
                       </use>
               </g>
        </defs>

<script type="text/javascript">
var viewWidth = 1036;
var viewHeight = 180;
var sectionId = 'dynsection-52';
</script>
<script xlink:href="svgpan.js"/>
<svg id="graph" class="graph">
<g id="viewport">
<title>ft_strdup</title>
<!-- Node1 -->
<g id="node1" class="node">
<title>Node1</title>
<g id="a_node1"><a xlink:title=" ">
<polygon fill="#bfbfbf" stroke="black" points="969,-76.5 969,-95.5 1028,-95.5 1028,-76.5 969,-76.5"/>
<text text-anchor="middle" x="998.5" y="-83.5" font-family="Helvetica,sans-Serif" font-size="10.00">ft_strdup</text>
</a>
</g>
</g>
<!-- Node2 -->
<g id="node2" class="node">
<title>Node2</title>
<g id="a_node2"><a xlink:href="ft__strtrim_8c.html#adc992044de001512918b7ad017f06cb1" target="_top" xlink:title=" ">
<polygon fill="none" stroke="black" points="850,-152.5 850,-171.5 912,-171.5 912,-152.5 850,-152.5"/>
<text text-anchor="middle" x="881" y="-159.5" font-family="Helvetica,sans-Serif" font-size="10.00">ft_strtrim</text>
</a>
</g>
</g>
<!-- Node1&#45;&gt;Node2 -->
<g id="edge1" class="edge">
<title>Node1&#45;&gt;Node2</title>
<path fill="none" stroke="midnightblue" d="M981.54,-103.16C969.24,-115.57 951.29,-132.03 933,-143 926.6,-146.84 919.29,-150.12 912.25,-152.82"/>
<polygon fill="midnightblue" stroke="midnightblue" points="984.33,-105.31 988.75,-95.68 979.29,-100.45 984.33,-105.31"/>
</g>
<!-- Node3 -->
<g id="node3" class="node">
<title>Node3</title>
<g id="a_node3"><a xlink:href="ft__substr_8c.html#a953557fcaa67b7fca7be72552898c691" target="_top" xlink:title=" ">
<polygon fill="none" stroke="black" points="851.5,-114.5 851.5,-133.5 910.5,-133.5 910.5,-114.5 851.5,-114.5"/>
<text text-anchor="middle" x="881" y="-121.5" font-family="Helvetica,sans-Serif" font-size="10.00">ft_substr</text>
</a>
</g>
</g>
<!-- Node1&#45;&gt;Node3 -->
<g id="edge2" class="edge">
<title>Node1&#45;&gt;Node3</title>
<path fill="none" stroke="midnightblue" d="M959.39,-98.54C943.5,-103.77 925.35,-109.74 910.62,-114.58"/>
<polygon fill="midnightblue" stroke="midnightblue" points="960.54,-101.84 968.95,-95.39 958.36,-95.19 960.54,-101.84"/>
</g>
<!-- Node4 -->
<g id="node4" class="node">
<title>Node4</title>
<g id="a_node4"><a xlink:href="get__next__line_8c.html#ae6d543ff06d0f78ff197de5e94f22200" target="_top" xlink:title=" ">
<polygon fill="none" stroke="black" points="854.5,-76.5 854.5,-95.5 907.5,-95.5 907.5,-76.5 854.5,-76.5"/>
<text text-anchor="middle" x="881" y="-83.5" font-family="Helvetica,sans-Serif" font-size="10.00">reading</text>
</a>
</g>
</g>
<!-- Node1&#45;&gt;Node4 -->
<g id="edge3" class="edge">
<title>Node1&#45;&gt;Node4</title>
<path fill="none" stroke="midnightblue" d="M958.87,-86C942.09,-86 922.88,-86 907.86,-86"/>
<polygon fill="midnightblue" stroke="midnightblue" points="958.95,-89.5 968.95,-86 958.95,-82.5 958.95,-89.5"/>
</g>
<!-- Node11 -->
<g id="node11" class="node">
<title>Node11</title>
<g id="a_node11"><a xlink:href="lst__env__two_8c.html#a4d4a14327b2c3ff88099102b6bd77986" target="_top" xlink:title=" ">
<polygon fill="none" stroke="black" points="829,-38.5 829,-57.5 933,-57.5 933,-38.5 829,-38.5"/>
<text text-anchor="middle" x="881" y="-45.5" font-family="Helvetica,sans-Serif" font-size="10.00">research_key_env</text>
</a>
</g>
</g>
<!-- Node1&#45;&gt;Node11 -->
<g id="edge11" class="edge">
<title>Node1&#45;&gt;Node11</title>
<path fill="none" stroke="midnightblue" d="M959.02,-73.34C943.36,-68.19 925.56,-62.33 911.02,-57.55"/>
<polygon fill="midnightblue" stroke="midnightblue" points="958.36,-76.81 968.95,-76.61 960.54,-70.16 958.36,-76.81"/>
</g>
<!-- Node17 -->
<g id="node17" class="node">
<title>Node17</title>
<g id="a_node17"><a xlink:href="lst__env__two_8c.html#a4f46edb8da10e7a19d572dd91d8ac21b" target="_top" xlink:title=" ">
<polygon fill="none" stroke="black" points="850.5,-0.5 850.5,-19.5 911.5,-19.5 911.5,-0.5 850.5,-0.5"/>
<text text-anchor="middle" x="881" y="-7.5" font-family="Helvetica,sans-Serif" font-size="10.00">split_env</text>
</a>
</g>
</g>
<!-- Node1&#45;&gt;Node17 -->
<g id="edge19" class="edge">
<title>Node1&#45;&gt;Node17</title>
<path fill="none" stroke="midnightblue" d="M981.54,-68.84C969.24,-56.43 951.29,-39.97 933,-29 926.44,-25.06 918.92,-21.72 911.71,-18.98"/>
<polygon fill="midnightblue" stroke="midnightblue" points="979.29,-71.55 988.75,-76.32 984.33,-66.69 979.29,-71.55"/>
</g>
<!-- Node5 -->
<g id="node5" class="node">
<title>Node5</title>
<g id="a_node5"><a xlink:href="get__next__line_8c.html#aed7a5e18848da190b01eb9e791c51824" target="_top" xlink:title=" ">
<polygon fill="none" stroke="black" points="710,-76.5 710,-95.5 793,-95.5 793,-76.5 710,-76.5"/>
<text text-anchor="middle" x="751.5" y="-83.5" font-family="Helvetica,sans-Serif" font-size="10.00">get_next_line</text>
</a>
</g>
</g>
<!-- Node4&#45;&gt;Node5 -->
<g id="edge4" class="edge">
<title>Node4&#45;&gt;Node5</title>
<path fill="none" stroke="midnightblue" d="M843.81,-86C828.07,-86 809.55,-86 793.32,-86"/>
<polygon fill="midnightblue" stroke="midnightblue" points="844.2,-89.5 854.2,-86 844.2,-82.5 844.2,-89.5"/>
</g>
<!-- Node6 -->
<g id="node6" class="node">
<title>Node6</title>
<g id="a_node6"><a xlink:href="heredoc_8c.html#a4d547031558cbd91bd72a017eb6bd1fd" target="_top" xlink:title=" ">
<polygon fill="none" stroke="black" points="584.5,-76.5 584.5,-95.5 670.5,-95.5 670.5,-76.5 584.5,-76.5"/>
<text text-anchor="middle" x="627.5" y="-83.5" font-family="Helvetica,sans-Serif" font-size="10.00">heredoc_input</text>
</a>
</g>
</g>
<!-- Node5&#45;&gt;Node6 -->
<g id="edge5" class="edge">
<title>Node5&#45;&gt;Node6</title>
<path fill="none" stroke="midnightblue" d="M699.59,-86C689.95,-86 679.95,-86 670.62,-86"/>
<polygon fill="midnightblue" stroke="midnightblue" points="699.88,-89.5 709.88,-86 699.88,-82.5 699.88,-89.5"/>
</g>
<!-- Node7 -->
<g id="node7" class="node">
<title>Node7</title>
<g id="a_node7"><a xlink:href="heredoc_8c.html#aa5260679719a4e1f862a6efd1f12cf85" target="_top" xlink:title=" ">
<polygon fill="none" stroke="black" points="414,-76.5 414,-95.5 545,-95.5 545,-76.5 414,-76.5"/>
<text text-anchor="middle" x="479.5" y="-83.5" font-family="Helvetica,sans-Serif" font-size="10.00">here_doc_management</text>
</a>
</g>
</g>
<!-- Node6&#45;&gt;Node7 -->
<g id="edge6" class="edge">
<title>Node6&#45;&gt;Node7</title>
<path fill="none" stroke="midnightblue" d="M573.97,-86C564.64,-86 554.82,-86 545.19,-86"/>
<polygon fill="midnightblue" stroke="midnightblue" points="574.27,-89.5 584.27,-86 574.27,-82.5 574.27,-89.5"/>
</g>
<!-- Node8 -->
<g id="node8" class="node">
<title>Node8</title>
<g id="a_node8"><a xlink:href="multipipe_8c.html#a3f78d597d08aaca5580b2c89f956a3a2" target="_top" xlink:title=" ">
<polygon fill="none" stroke="black" points="95,-38.5 95,-57.5 184,-57.5 184,-38.5 95,-38.5"/>
<text text-anchor="middle" x="139.5" y="-45.5" font-family="Helvetica,sans-Serif" font-size="10.00">multipipe_cmd</text>
</a>
</g>
</g>
<!-- Node7&#45;&gt;Node8 -->
<g id="edge7" class="edge">
<title>Node7&#45;&gt;Node8</title>
<path fill="none" stroke="midnightblue" d="M403.8,-83.7C351.97,-81.32 281.49,-76.54 220,-67 205.14,-64.69 188.95,-61.04 175.09,-57.55"/>
<polygon fill="midnightblue" stroke="midnightblue" points="403.76,-87.2 413.9,-84.14 404.07,-80.2 403.76,-87.2"/>
</g>
<!-- Node10 -->
<g id="node10" class="node">
<title>Node10</title>
<g id="a_node10"><a xlink:href="execution_8c.html#a4ef7db02a474eb1b198b2a25e1303118" target="_top" xlink:title=" ">
<polygon fill="none" stroke="black" points="254.5,-0.5 254.5,-19.5 343.5,-19.5 343.5,-0.5 254.5,-0.5"/>
<text text-anchor="middle" x="299" y="-7.5" font-family="Helvetica,sans-Serif" font-size="10.00">one_command</text>
</a>
</g>
</g>
<!-- Node7&#45;&gt;Node10 -->
<g id="edge9" class="edge">
<title>Node7&#45;&gt;Node10</title>
<path fill="none" stroke="midnightblue" d="M424.9,-72.66C421.1,-70.98 417.43,-69.1 414,-67 394.16,-54.85 398.12,-40.67 378,-29 367.63,-22.99 355.43,-18.87 343.79,-16.05"/>
<polygon fill="midnightblue" stroke="midnightblue" points="423.9,-76.03 434.49,-76.43 426.47,-69.52 423.9,-76.03"/>
</g>
<!-- Node9 -->
<g id="node9" class="node">
<title>Node9</title>
<g id="a_node9"><a xlink:href="execution_8c.html#a9dffeca3c2ff474e24c3e98ab856df76" target="_top" xlink:title=" ">
<polygon fill="none" stroke="black" points="0,-19.5 0,-38.5 59,-38.5 59,-19.5 0,-19.5"/>
<text text-anchor="middle" x="29.5" y="-26.5" font-family="Helvetica,sans-Serif" font-size="10.00">executor</text>
</a>
</g>
</g>
<!-- Node8&#45;&gt;Node9 -->
<g id="edge8" class="edge">
<title>Node8&#45;&gt;Node9</title>
<path fill="none" stroke="midnightblue" d="M84.88,-38.57C75.97,-37 67.05,-35.43 59.08,-34.03"/>
<polygon fill="midnightblue" stroke="midnightblue" points="84.43,-42.04 94.88,-40.33 85.64,-35.15 84.43,-42.04"/>
</g>
<!-- Node10&#45;&gt;Node9 -->
<g id="edge10" class="edge">
<title>Node10&#45;&gt;Node9</title>
<path fill="none" stroke="midnightblue" d="M244.37,-13.81C188.58,-17.77 103.35,-23.83 59.22,-26.96"/>
<polygon fill="midnightblue" stroke="midnightblue" points="244.7,-17.29 254.43,-13.09 244.2,-10.31 244.7,-17.29"/>
</g>
<!-- Node12 -->
<g id="node12" class="node">
<title>Node12</title>
<g id="a_node12"><a xlink:href="getenv_8c.html#a5d0cf05c2622983111dcfc0f179c5739" target="_top" xlink:title=" ">
<polygon fill="none" stroke="black" points="713.5,-38.5 713.5,-57.5 789.5,-57.5 789.5,-38.5 713.5,-38.5"/>
<text text-anchor="middle" x="751.5" y="-45.5" font-family="Helvetica,sans-Serif" font-size="10.00">search_path</text>
</a>
</g>
</g>
<!-- Node11&#45;&gt;Node12 -->
<g id="edge12" class="edge">
<title>Node11&#45;&gt;Node12</title>
<path fill="none" stroke="midnightblue" d="M818.59,-48C808.65,-48 798.63,-48 789.51,-48"/>
<polygon fill="midnightblue" stroke="midnightblue" points="818.88,-51.5 828.88,-48 818.88,-44.5 818.88,-51.5"/>
</g>
<!-- Node13 -->
<g id="node13" class="node">
<title>Node13</title>
<g id="a_node13"><a xlink:href="execution__node_8c.html#a6cfdc545c2222bbb0ca1dfc8431f72a3" target="_top" xlink:title=" ">
<polygon fill="none" stroke="black" points="581,-38.5 581,-57.5 674,-57.5 674,-38.5 581,-38.5"/>
<text text-anchor="middle" x="627.5" y="-45.5" font-family="Helvetica,sans-Serif" font-size="10.00">execution_node</text>
</a>
</g>
</g>
<!-- Node12&#45;&gt;Node13 -->
<g id="edge13" class="edge">
<title>Node12&#45;&gt;Node13</title>
<path fill="none" stroke="midnightblue" d="M703.13,-48C693.6,-48 683.61,-48 674.15,-48"/>
<polygon fill="midnightblue" stroke="midnightblue" points="703.23,-51.5 713.23,-48 703.23,-44.5 703.23,-51.5"/>
</g>
<!-- Node14 -->
<g id="node14" class="node">
<title>Node14</title>
<g id="a_node14"><a xlink:href="multipipe_8c.html#a43baea25481fdd02ce42e4d249f12353" target="_top" xlink:title=" ">
<polygon fill="none" stroke="black" points="438,-38.5 438,-57.5 521,-57.5 521,-38.5 438,-38.5"/>
<text text-anchor="middle" x="479.5" y="-45.5" font-family="Helvetica,sans-Serif" font-size="10.00">execute_child</text>
</a>
</g>
</g>
<!-- Node13&#45;&gt;Node14 -->
<g id="edge14" class="edge">
<title>Node13&#45;&gt;Node14</title>
<path fill="none" stroke="midnightblue" d="M570.65,-48C554.19,-48 536.5,-48 521.19,-48"/>
<polygon fill="midnightblue" stroke="midnightblue" points="570.71,-51.5 580.71,-48 570.71,-44.5 570.71,-51.5"/>
</g>
<!-- Node16 -->
<g id="node16" class="node">
<title>Node16</title>
<g id="a_node16"><a xlink:href="execution_8c.html#ac70faaedddc427b5051b808a8de40da4" target="_top" xlink:title=" ">
<polygon fill="none" stroke="black" points="415.5,-0.5 415.5,-19.5 543.5,-19.5 543.5,-0.5 415.5,-0.5"/>
<text text-anchor="middle" x="479.5" y="-7.5" font-family="Helvetica,sans-Serif" font-size="10.00">one_command_execve</text>
</a>
</g>
</g>
<!-- Node13&#45;&gt;Node16 -->
<g id="edge17" class="edge">
<title>Node13&#45;&gt;Node16</title>
<path fill="none" stroke="midnightblue" d="M579.96,-35.89C559.63,-30.6 536.13,-24.48 517.08,-19.52"/>
<polygon fill="midnightblue" stroke="midnightblue" points="579.1,-39.28 589.66,-38.41 580.86,-32.5 579.1,-39.28"/>
</g>
<!-- Node15 -->
<g id="node15" class="node">
<title>Node15</title>
<g id="a_node15"><a xlink:href="multipipe_8c.html#af32b88ab44b94650a0bb6f805f70a805" target="_top" xlink:title=" ">
<polygon fill="none" stroke="black" points="220,-38.5 220,-57.5 378,-57.5 378,-38.5 220,-38.5"/>
<text text-anchor="middle" x="299" y="-45.5" font-family="Helvetica,sans-Serif" font-size="10.00">multipipe_intermediary_cmd</text>
</a>
</g>
</g>
<!-- Node14&#45;&gt;Node15 -->
<g id="edge15" class="edge">
<title>Node14&#45;&gt;Node15</title>
<path fill="none" stroke="midnightblue" d="M427.68,-48C412.31,-48 395.06,-48 378.33,-48"/>
<polygon fill="midnightblue" stroke="midnightblue" points="428,-51.5 438,-48 428,-44.5 428,-51.5"/>
</g>
<!-- Node15&#45;&gt;Node8 -->
<g id="edge16" class="edge">
<title>Node15&#45;&gt;Node8</title>
<path fill="none" stroke="midnightblue" d="M209.44,-48C200.73,-48 192.19,-48 184.24,-48"/>
<polygon fill="midnightblue" stroke="midnightblue" points="209.71,-51.5 219.71,-48 209.71,-44.5 209.71,-51.5"/>
</g>
<!-- Node16&#45;&gt;Node10 -->
<g id="edge18" class="edge">
<title>Node16&#45;&gt;Node10</title>
<path fill="none" stroke="midnightblue" d="M405.19,-10C384.33,-10 362.27,-10 343.77,-10"/>
<polygon fill="midnightblue" stroke="midnightblue" points="405.32,-13.5 415.32,-10 405.32,-6.5 405.32,-13.5"/>
</g>
<!-- Node18 -->
<g id="node18" class="node">
<title>Node18</title>
<g id="a_node18"><a xlink:href="lst__env__two_8c.html#ac1233f225cd25a82eded5e81135528cd" target="_top" xlink:title=" ">
<polygon fill="none" stroke="black" points="715.5,-0.5 715.5,-19.5 787.5,-19.5 787.5,-0.5 715.5,-0.5"/>
<text text-anchor="middle" x="751.5" y="-7.5" font-family="Helvetica,sans-Serif" font-size="10.00">set_up_env</text>
</a>
</g>
</g>
<!-- Node17&#45;&gt;Node18 -->
<g id="edge20" class="edge">
<title>Node17&#45;&gt;Node18</title>
<path fill="none" stroke="midnightblue" d="M840.35,-10C823.54,-10 804.11,-10 787.8,-10"/>
<polygon fill="midnightblue" stroke="midnightblue" points="840.43,-13.5 850.43,-10 840.43,-6.5 840.43,-13.5"/>
</g>
</g>
</svg>
        <g id="navigator" transform="translate(0 0)" fill="#404254">
                <rect fill="#f2f5e9" fill-opacity="0.5" stroke="#606060" stroke-width=".5" x="0" y="0" width="60" height="60"/>
                <use id="zoomplus" xlink:href="#zoomPlus" x="17" y="9" onmousedown="handleZoom(evt,'in')"/>
                <use id="zoomminus" xlink:href="#zoomMin" x="42" y="9" onmousedown="handleZoom(evt,'out')"/>
                <use id="reset" xlink:href="#resetDef" x="30" y="36" onmousedown="handleReset()"/>
                <g id="arrowUp" xlink:href="#dirArrow" transform="translate(30 24)" onmousedown="handlePan(0,-1)">
                  <use xlink:href="#rim" fill="#404040">
                        <set attributeName="fill" to="#808080" begin="arrowUp.mouseover" end="arrowUp.mouseout"/>
                  </use>
                  <path fill="none" stroke="white" stroke-width="1.5" d="M0,-3.0v7 M-2.5,-0.5L0,-3.0L2.5,-0.5"/>
                </g>
                <g id="arrowRight" xlink:href="#dirArrow" transform="rotate(90) translate(36 -43)" onmousedown="handlePan(1,0)">
                  <use xlink:href="#rim" fill="#404040">
                        <set attributeName="fill" to="#808080" begin="arrowRight.mouseover" end="arrowRight.mouseout"/>
                  </use>
                  <path fill="none" stroke="white" stroke-width="1.5" d="M0,-3.0v7 M-2.5,-0.5L0,-3.0L2.5,-0.5"/>
                </g>
                <g id="arrowDown" xlink:href="#dirArrow" transform="rotate(180) translate(-30 -48)" onmousedown="handlePan(0,1)">
                  <use xlink:href="#rim" fill="#404040">
                        <set attributeName="fill" to="#808080" begin="arrowDown.mouseover" end="arrowDown.mouseout"/>
                  </use>
                  <path fill="none" stroke="white" stroke-width="1.5" d="M0,-3.0v7 M-2.5,-0.5L0,-3.0L2.5,-0.5"/>
                </g>
                <g id="arrowLeft" xlink:href="#dirArrow" transform="rotate(270) translate(-36 17)" onmousedown="handlePan(-1,0)">
                  <use xlink:href="#rim" fill="#404040">
                        <set attributeName="fill" to="#808080" begin="arrowLeft.mouseover" end="arrowLeft.mouseout"/>
                  </use>
                  <path fill="none" stroke="white" stroke-width="1.5" d="M0,-3.0v7 M-2.5,-0.5L0,-3.0L2.5,-0.5"/>
                </g>
        </g>
        <svg viewBox="0 0 15 15" width="100%" height="30px" preserveAspectRatio="xMaxYMin meet">
         <g id="arrow_out" transform="scale(0.3 0.3)">
          <a xlink:href="libft_8h_aeab425f44e9a04e54160d60d3c9e870c_icgraph_org.svg" target="_base">
           <rect id="button" ry="5" rx="5" y="6" x="6" height="38" width="38"
                fill="#f2f5e9" fill-opacity="0.5" stroke="#606060" stroke-width="1.0"/>
           <path id="arrow"
             d="M 11.500037,31.436501 C 11.940474,20.09759 22.043105,11.32322 32.158766,21.979434 L 37.068811,17.246167 C 37.068811,17.246167 37.088388,32 37.088388,32 L 22.160133,31.978069 C 22.160133,31.978069 26.997745,27.140456 26.997745,27.140456 C 18.528582,18.264221 13.291696,25.230495 11.500037,31.436501 z"
             style="fill:#404040;"/>
          </a>
         </g>
        </svg>
</svg>
