<?xml version="1.0" encoding="UTF-8" standalone="no"?>
<!DOCTYPE svg PUBLIC "-//W3C//DTD SVG 1.1//EN"
 "http://www.w3.org/Graphics/SVG/1.1/DTD/svg11.dtd">
<!-- Generated by graphviz version 2.43.0 (0)
 -->
<!-- Title: ft_atoi_base Pages: 1 -->
<svg width="188pt" height="142pt"
 viewBox="0.00 0.00 188.00 142.00" xmlns="http://www.w3.org/2000/svg" xmlns:xlink="http://www.w3.org/1999/xlink">
<g id="graph0" class="graph" transform="scale(1 1) rotate(0) translate(4 138)">
<title>ft_atoi_base</title>
<!-- Node1 -->
<g id="node1" class="node">
<title>Node1</title>
<g id="a_node1"><a xlink:title=" ">
<polygon fill="#bfbfbf" stroke="black" points="0,-57.5 0,-76.5 76,-76.5 76,-57.5 0,-57.5"/>
<text text-anchor="middle" x="38" y="-64.5" font-family="Helvetica,sans-Serif" font-size="10.00">ft_atoi_base</text>
</a>
</g>
</g>
<!-- Node2 -->
<g id="node2" class="node">
<title>Node2</title>
<g id="a_node2"><a xlink:href="ft__atoi__base_8c.html#acf9a6908f7b1a5c652567d6cc6fce864" target="_top" xlink:title=" ">
<polygon fill="none" stroke="black" points="112,-114.5 112,-133.5 180,-133.5 180,-114.5 112,-114.5"/>
<text text-anchor="middle" x="146" y="-121.5" font-family="Helvetica,sans-Serif" font-size="10.00">checkbase</text>
</a>
</g>
</g>
<!-- Node1&#45;&gt;Node2 -->
<g id="edge1" class="edge">
<title>Node1&#45;&gt;Node2</title>
<path fill="none" stroke="midnightblue" d="M56.98,-76.67C73.83,-85.73 99.24,-99.39 118.43,-109.71"/>
<polygon fill="midnightblue" stroke="midnightblue" points="116.82,-112.82 127.28,-114.47 120.13,-106.65 116.82,-112.82"/>
</g>
<!-- Node3 -->
<g id="node3" class="node">
<title>Node3</title>
<g id="a_node3"><a xlink:href="ft__strlen_8c.html#a828402378653640f545a4be2e00e92f9" target="_top" xlink:title=" ">
<polygon fill="none" stroke="black" points="118,-76.5 118,-95.5 174,-95.5 174,-76.5 118,-76.5"/>
<text text-anchor="middle" x="146" y="-83.5" font-family="Helvetica,sans-Serif" font-size="10.00">ft_strlen</text>
</a>
</g>
</g>
<!-- Node1&#45;&gt;Node3 -->
<g id="edge2" class="edge">
<title>Node1&#45;&gt;Node3</title>
<path fill="none" stroke="midnightblue" d="M76.07,-73.65C86.37,-75.49 97.56,-77.5 107.86,-79.34"/>
<polygon fill="midnightblue" stroke="midnightblue" points="107.34,-82.81 117.8,-81.12 108.58,-75.92 107.34,-82.81"/>
</g>
<!-- Node4 -->
<g id="node4" class="node">
<title>Node4</title>
<g id="a_node4"><a xlink:href="ft__atoi__base_8c.html#a234f19e75f5245293b831d67e3f8d9ae" target="_top" xlink:title=" ">
<polygon fill="none" stroke="black" points="115,-38.5 115,-57.5 177,-57.5 177,-38.5 115,-38.5"/>
<text text-anchor="middle" x="146" y="-45.5" font-family="Helvetica,sans-Serif" font-size="10.00">is_inbase</text>
</a>
</g>
</g>
<!-- Node1&#45;&gt;Node4 -->
<g id="edge3" class="edge">
<title>Node1&#45;&gt;Node4</title>
<path fill="none" stroke="midnightblue" d="M76.07,-60.35C85.37,-58.69 95.38,-56.89 104.82,-55.2"/>
<polygon fill="midnightblue" stroke="midnightblue" points="105.55,-58.63 114.78,-53.42 104.31,-51.74 105.55,-58.63"/>
</g>
<!-- Node5 -->
<g id="node5" class="node">
<title>Node5</title>
<g id="a_node5"><a xlink:href="ft__atoi__base_8c.html#a9da03c7a22aee949b66d9a1982008e66" target="_top" xlink:title=" ">
<polygon fill="none" stroke="black" points="118,-0.5 118,-19.5 174,-19.5 174,-0.5 118,-0.5"/>
<text text-anchor="middle" x="146" y="-7.5" font-family="Helvetica,sans-Serif" font-size="10.00">position</text>
</a>
</g>
</g>
<!-- Node1&#45;&gt;Node5 -->
<g id="edge4" class="edge">
<title>Node1&#45;&gt;Node5</title>
<path fill="none" stroke="midnightblue" d="M56.98,-57.33C73.83,-48.27 99.24,-34.61 118.43,-24.29"/>
<polygon fill="midnightblue" stroke="midnightblue" points="120.13,-27.35 127.28,-19.53 116.82,-21.18 120.13,-27.35"/>
</g>
</g>
</svg>
