<?xml version="1.0" encoding="UTF-8" standalone="no"?>
<!DOCTYPE svg PUBLIC "-//W3C//DTD SVG 1.1//EN"
 "http://www.w3.org/Graphics/SVG/1.1/DTD/svg11.dtd">
<!-- Generated by graphviz version 2.43.0 (0)
 -->
<!-- Title: looping_reading Pages: 1 -->
<svg width="488pt" height="85pt"
 viewBox="0.00 0.00 488.00 85.00" xmlns="http://www.w3.org/2000/svg" xmlns:xlink="http://www.w3.org/1999/xlink">
<g id="graph0" class="graph" transform="scale(1 1) rotate(0) translate(4 81)">
<title>looping_reading</title>
<!-- Node1 -->
<g id="node1" class="node">
<title>Node1</title>
<g id="a_node1"><a xlink:title=" ">
<polygon fill="#bfbfbf" stroke="black" points="0,-19.5 0,-38.5 95,-38.5 95,-19.5 0,-19.5"/>
<text text-anchor="middle" x="47.5" y="-26.5" font-family="Helvetica,sans-Serif" font-size="10.00">looping_reading</text>
</a>
</g>
</g>
<!-- Node2 -->
<g id="node2" class="node">
<title>Node2</title>
<g id="a_node2"><a xlink:href="ft__strjoin_8c.html#a5c1c26f8be9bc527cfe69a3555124795" target="_top" xlink:title=" ">
<polygon fill="none" stroke="black" points="131,-38.5 131,-57.5 190,-57.5 190,-38.5 131,-38.5"/>
<text text-anchor="middle" x="160.5" y="-45.5" font-family="Helvetica,sans-Serif" font-size="10.00">ft_strjoin</text>
</a>
</g>
</g>
<!-- Node1&#45;&gt;Node2 -->
<g id="edge1" class="edge">
<title>Node1&#45;&gt;Node2</title>
<path fill="none" stroke="midnightblue" d="M95.25,-37C103.75,-38.46 112.53,-39.96 120.77,-41.37"/>
<polygon fill="midnightblue" stroke="midnightblue" points="120.4,-44.86 130.84,-43.1 121.58,-37.96 120.4,-44.86"/>
</g>
<!-- Node7 -->
<g id="node7" class="node">
<title>Node7</title>
<g id="a_node7"><a xlink:href="ft__is__n_8c.html#a9f740b8177921c4d42960f26397031fb" target="_top" xlink:title=" ">
<polygon fill="none" stroke="black" points="142.5,-0.5 142.5,-19.5 178.5,-19.5 178.5,-0.5 142.5,-0.5"/>
<text text-anchor="middle" x="160.5" y="-7.5" font-family="Helvetica,sans-Serif" font-size="10.00">is_n</text>
</a>
</g>
</g>
<!-- Node1&#45;&gt;Node7 -->
<g id="edge6" class="edge">
<title>Node1&#45;&gt;Node7</title>
<path fill="none" stroke="midnightblue" d="M95.25,-21C107.91,-18.83 121.2,-16.56 132.38,-14.64"/>
<polygon fill="midnightblue" stroke="midnightblue" points="133.1,-18.07 142.37,-12.93 131.92,-11.17 133.1,-18.07"/>
</g>
<!-- Node3 -->
<g id="node3" class="node">
<title>Node3</title>
<g id="a_node3"><a xlink:href="ft__calloc_8c.html#ab927e999982a91970c6e43b403d66167" target="_top" xlink:title=" ">
<polygon fill="none" stroke="black" points="226,-57.5 226,-76.5 283,-76.5 283,-57.5 226,-57.5"/>
<text text-anchor="middle" x="254.5" y="-64.5" font-family="Helvetica,sans-Serif" font-size="10.00">ft_calloc</text>
</a>
</g>
</g>
<!-- Node2&#45;&gt;Node3 -->
<g id="edge2" class="edge">
<title>Node2&#45;&gt;Node3</title>
<path fill="none" stroke="midnightblue" d="M190.11,-53.91C198.29,-55.6 207.35,-57.47 215.98,-59.25"/>
<polygon fill="midnightblue" stroke="midnightblue" points="215.36,-62.7 225.86,-61.29 216.77,-55.84 215.36,-62.7"/>
</g>
<!-- Node6 -->
<g id="node6" class="node">
<title>Node6</title>
<g id="a_node6"><a xlink:href="ft__strlen_8c.html#a828402378653640f545a4be2e00e92f9" target="_top" xlink:title=" ">
<polygon fill="none" stroke="black" points="226.5,-19.5 226.5,-38.5 282.5,-38.5 282.5,-19.5 226.5,-19.5"/>
<text text-anchor="middle" x="254.5" y="-26.5" font-family="Helvetica,sans-Serif" font-size="10.00">ft_strlen</text>
</a>
</g>
</g>
<!-- Node2&#45;&gt;Node6 -->
<g id="edge5" class="edge">
<title>Node2&#45;&gt;Node6</title>
<path fill="none" stroke="midnightblue" d="M190.11,-42.09C198.45,-40.37 207.68,-38.46 216.46,-36.65"/>
<polygon fill="midnightblue" stroke="midnightblue" points="217.4,-40.03 226.48,-34.58 215.98,-33.17 217.4,-40.03"/>
</g>
<!-- Node4 -->
<g id="node4" class="node">
<title>Node4</title>
<g id="a_node4"><a xlink:href="ft__bzero_8c.html#a5937ab0d08e31d0e3e4a16ec71e293a1" target="_top" xlink:title=" ">
<polygon fill="none" stroke="black" points="319,-57.5 319,-76.5 375,-76.5 375,-57.5 319,-57.5"/>
<text text-anchor="middle" x="347" y="-64.5" font-family="Helvetica,sans-Serif" font-size="10.00">ft_bzero</text>
</a>
</g>
</g>
<!-- Node3&#45;&gt;Node4 -->
<g id="edge3" class="edge">
<title>Node3&#45;&gt;Node4</title>
<path fill="none" stroke="midnightblue" d="M283.14,-67C291.2,-67 300.14,-67 308.69,-67"/>
<polygon fill="midnightblue" stroke="midnightblue" points="308.84,-70.5 318.84,-67 308.84,-63.5 308.84,-70.5"/>
</g>
<!-- Node5 -->
<g id="node5" class="node">
<title>Node5</title>
<g id="a_node5"><a xlink:href="ft__memset_8c.html#aa32eb193f310275c04ccacf3504b95b9" target="_top" xlink:title=" ">
<polygon fill="none" stroke="black" points="411,-57.5 411,-76.5 480,-76.5 480,-57.5 411,-57.5"/>
<text text-anchor="middle" x="445.5" y="-64.5" font-family="Helvetica,sans-Serif" font-size="10.00">ft_memset</text>
</a>
</g>
</g>
<!-- Node4&#45;&gt;Node5 -->
<g id="edge4" class="edge">
<title>Node4&#45;&gt;Node5</title>
<path fill="none" stroke="midnightblue" d="M375.14,-67C383.07,-67 391.95,-67 400.64,-67"/>
<polygon fill="midnightblue" stroke="midnightblue" points="400.69,-70.5 410.69,-67 400.69,-63.5 400.69,-70.5"/>
</g>
</g>
</svg>
