<?xml version="1.0" encoding="UTF-8" standalone="no"?>
<!DOCTYPE svg PUBLIC "-//W3C//DTD SVG 1.1//EN"
 "http://www.w3.org/Graphics/SVG/1.1/DTD/svg11.dtd">
<!-- Generated by graphviz version 2.43.0 (0)
 -->
<!-- Title: ft_printf Pages: 1 -->
<svg width="560pt" height="221pt"
 viewBox="0.00 0.00 560.00 221.09" xmlns="http://www.w3.org/2000/svg" xmlns:xlink="http://www.w3.org/1999/xlink">
<g id="graph0" class="graph" transform="scale(1 1) rotate(0) translate(4 217.09)">
<title>ft_printf</title>
<!-- Node1 -->
<g id="node1" class="node">
<title>Node1</title>
<g id="a_node1"><a xlink:title=" ">
<polygon fill="#bfbfbf" stroke="black" points="0,-107 0,-126 55,-126 55,-107 0,-107"/>
<text text-anchor="middle" x="27.5" y="-114" font-family="Helvetica,sans-Serif" font-size="10.00">ft_printf</text>
</a>
</g>
</g>
<!-- Node2 -->
<g id="node2" class="node">
<title>Node2</title>
<g id="a_node2"><a xlink:href="ft__printf_8c.html#afd374d693dd18da657053dbc77229828" target="_top" xlink:title=" ">
<polygon fill="none" stroke="black" points="91,-107 91,-126 156,-126 156,-107 91,-107"/>
<text text-anchor="middle" x="123.5" y="-114" font-family="Helvetica,sans-Serif" font-size="10.00">ft_convert</text>
</a>
</g>
</g>
<!-- Node1&#45;&gt;Node2 -->
<g id="edge1" class="edge">
<title>Node1&#45;&gt;Node2</title>
<path fill="none" stroke="midnightblue" d="M55.19,-116.5C63.14,-116.5 72.06,-116.5 80.74,-116.5"/>
<polygon fill="midnightblue" stroke="midnightblue" points="80.75,-120 90.75,-116.5 80.75,-113 80.75,-120"/>
</g>
<!-- Node3 -->
<g id="node3" class="node">
<title>Node3</title>
<g id="a_node3"><a xlink:href="ft__printf_8c.html#a39d98b19c2583fcd34e4df5eb8ae467f" target="_top" xlink:title=" ">
<polygon fill="none" stroke="black" points="471,-107 471,-126 552,-126 552,-107 471,-107"/>
<text text-anchor="middle" x="511.5" y="-114" font-family="Helvetica,sans-Serif" font-size="10.00">ft_printf_char</text>
</a>
</g>
</g>
<!-- Node2&#45;&gt;Node3 -->
<g id="edge2" class="edge">
<title>Node2&#45;&gt;Node3</title>
<path fill="none" stroke="midnightblue" d="M135.64,-126.12C148.4,-136.64 170.36,-153.23 192,-162.5 292.03,-205.34 334.53,-234.31 435,-192.5 463.06,-180.82 486.06,-153.09 499.02,-134.56"/>
<polygon fill="midnightblue" stroke="midnightblue" points="502.05,-136.33 504.71,-126.07 496.24,-132.43 502.05,-136.33"/>
</g>
<!-- Node4 -->
<g id="node4" class="node">
<title>Node4</title>
<g id="a_node4"><a xlink:href="ft__printf__utils_8c.html#a16bac9a6336719688a85c2939b833d7f" target="_top" xlink:title=" ">
<polygon fill="none" stroke="black" points="344.5,-164 344.5,-183 422.5,-183 422.5,-164 344.5,-164"/>
<text text-anchor="middle" x="383.5" y="-171" font-family="Helvetica,sans-Serif" font-size="10.00">ft_printf_hex</text>
</a>
</g>
</g>
<!-- Node2&#45;&gt;Node4 -->
<g id="edge3" class="edge">
<title>Node2&#45;&gt;Node4</title>
<path fill="none" stroke="midnightblue" d="M151.19,-126.11C163.51,-130.31 178.38,-135.05 192,-138.5 239.87,-150.64 295.52,-160.37 334.26,-166.46"/>
<polygon fill="midnightblue" stroke="midnightblue" points="333.81,-169.93 344.23,-168.01 334.88,-163.02 333.81,-169.93"/>
</g>
<!-- Node5 -->
<g id="node5" class="node">
<title>Node5</title>
<g id="a_node5"><a xlink:href="ft__printf__utils_8c.html#a2d77d52ca67555dea62a8fdab36a78ed" target="_top" xlink:title=" ">
<polygon fill="none" stroke="black" points="332,-126 332,-145 435,-145 435,-126 332,-126"/>
<text text-anchor="middle" x="383.5" y="-133" font-family="Helvetica,sans-Serif" font-size="10.00">ft_printf_numbers</text>
</a>
</g>
</g>
<!-- Node2&#45;&gt;Node5 -->
<g id="edge5" class="edge">
<title>Node2&#45;&gt;Node5</title>
<path fill="none" stroke="midnightblue" d="M156.14,-118.83C197.26,-121.86 269.95,-127.21 321.86,-131.03"/>
<polygon fill="midnightblue" stroke="midnightblue" points="321.72,-134.53 331.95,-131.78 322.23,-127.55 321.72,-134.53"/>
</g>
<!-- Node6 -->
<g id="node6" class="node">
<title>Node6</title>
<g id="a_node6"><a xlink:href="ft__printf__utils_8c.html#acad9757b0e67c243fd29ba1689b5ec3c" target="_top" xlink:title=" ">
<polygon fill="none" stroke="black" points="207,-88 207,-107 281,-107 281,-88 207,-88"/>
<text text-anchor="middle" x="244" y="-95" font-family="Helvetica,sans-Serif" font-size="10.00">ft_printf_ptr</text>
</a>
</g>
</g>
<!-- Node2&#45;&gt;Node6 -->
<g id="edge7" class="edge">
<title>Node2&#45;&gt;Node6</title>
<path fill="none" stroke="midnightblue" d="M156.26,-111.41C168.71,-109.41 183.25,-107.08 196.83,-104.9"/>
<polygon fill="midnightblue" stroke="midnightblue" points="197.65,-108.32 206.97,-103.28 196.54,-101.4 197.65,-108.32"/>
</g>
<!-- Node8 -->
<g id="node8" class="node">
<title>Node8</title>
<g id="a_node8"><a xlink:href="ft__printf_8c.html#a6f196c1c438363973a4b649e86ce0d17" target="_top" xlink:title=" ">
<polygon fill="none" stroke="black" points="207.5,-50 207.5,-69 280.5,-69 280.5,-50 207.5,-50"/>
<text text-anchor="middle" x="244" y="-57" font-family="Helvetica,sans-Serif" font-size="10.00">ft_printf_str</text>
</a>
</g>
</g>
<!-- Node2&#45;&gt;Node8 -->
<g id="edge10" class="edge">
<title>Node2&#45;&gt;Node8</title>
<path fill="none" stroke="midnightblue" d="M139.96,-106.88C153.41,-98.74 173.58,-87.05 192,-78.5 196.33,-76.49 200.93,-74.54 205.53,-72.69"/>
<polygon fill="midnightblue" stroke="midnightblue" points="206.82,-75.95 214.88,-69.08 204.29,-69.42 206.82,-75.95"/>
</g>
<!-- Node9 -->
<g id="node9" class="node">
<title>Node9</title>
<g id="a_node9"><a xlink:href="ft__printf__utils_8c.html#a6111b0290c61676c28ad6df27a8ed60f" target="_top" xlink:title=" ">
<polygon fill="none" stroke="black" points="192,-0.5 192,-30.5 296,-30.5 296,-0.5 192,-0.5"/>
<text text-anchor="start" x="200" y="-18.5" font-family="Helvetica,sans-Serif" font-size="10.00">ft_printf_unsigned</text>
<text text-anchor="middle" x="244" y="-7.5" font-family="Helvetica,sans-Serif" font-size="10.00">_numbers</text>
</a>
</g>
</g>
<!-- Node2&#45;&gt;Node9 -->
<g id="edge12" class="edge">
<title>Node2&#45;&gt;Node9</title>
<path fill="none" stroke="midnightblue" d="M131.38,-106.51C142.59,-90.82 166.15,-60.16 192,-40.5 194.09,-38.91 196.31,-37.37 198.59,-35.91"/>
<polygon fill="midnightblue" stroke="midnightblue" points="200.8,-38.67 207.64,-30.58 197.25,-32.64 200.8,-38.67"/>
</g>
<!-- Node4&#45;&gt;Node3 -->
<g id="edge4" class="edge">
<title>Node4&#45;&gt;Node3</title>
<path fill="none" stroke="midnightblue" d="M411.45,-163.97C419.12,-161.09 427.45,-157.81 435,-154.5 451.38,-147.32 469.28,-138.36 483.53,-130.95"/>
<polygon fill="midnightblue" stroke="midnightblue" points="485.53,-133.85 492.76,-126.11 482.28,-127.66 485.53,-133.85"/>
</g>
<!-- Node5&#45;&gt;Node3 -->
<g id="edge6" class="edge">
<title>Node5&#45;&gt;Node3</title>
<path fill="none" stroke="midnightblue" d="M435.02,-127.88C443.49,-126.6 452.28,-125.28 460.73,-124.01"/>
<polygon fill="midnightblue" stroke="midnightblue" points="461.46,-127.43 470.82,-122.48 460.41,-120.51 461.46,-127.43"/>
</g>
<!-- Node7 -->
<g id="node7" class="node">
<title>Node7</title>
<g id="a_node7"><a xlink:href="ft__printf__utils_8c.html#a35c61f40b8c860fab15b36f75334e619" target="_top" xlink:title=" ">
<polygon fill="none" stroke="black" points="334.5,-88 334.5,-107 432.5,-107 432.5,-88 334.5,-88"/>
<text text-anchor="middle" x="383.5" y="-95" font-family="Helvetica,sans-Serif" font-size="10.00">ft_printf_address</text>
</a>
</g>
</g>
<!-- Node6&#45;&gt;Node7 -->
<g id="edge8" class="edge">
<title>Node6&#45;&gt;Node7</title>
<path fill="none" stroke="midnightblue" d="M281.13,-97.5C294.38,-97.5 309.74,-97.5 324.43,-97.5"/>
<polygon fill="midnightblue" stroke="midnightblue" points="324.46,-101 334.46,-97.5 324.46,-94 324.46,-101"/>
</g>
<!-- Node7&#45;&gt;Node3 -->
<g id="edge9" class="edge">
<title>Node7&#45;&gt;Node3</title>
<path fill="none" stroke="midnightblue" d="M432.85,-104.79C441.93,-106.16 451.44,-107.59 460.56,-108.97"/>
<polygon fill="midnightblue" stroke="midnightblue" points="460.24,-112.46 470.65,-110.49 461.29,-105.54 460.24,-112.46"/>
</g>
<!-- Node8&#45;&gt;Node3 -->
<g id="edge11" class="edge">
<title>Node8&#45;&gt;Node3</title>
<path fill="none" stroke="midnightblue" d="M280.75,-59.22C319.5,-59.79 382.8,-63.32 435,-78.5 453.26,-83.81 472.39,-93.48 486.82,-101.74"/>
<polygon fill="midnightblue" stroke="midnightblue" points="485.17,-104.84 495.57,-106.9 488.73,-98.81 485.17,-104.84"/>
</g>
<!-- Node9&#45;&gt;Node3 -->
<g id="edge13" class="edge">
<title>Node9&#45;&gt;Node3</title>
<path fill="none" stroke="midnightblue" d="M296.19,-20.56C335.62,-25.92 390.69,-36.62 435,-57.5 457.39,-68.05 479.26,-86.27 493.65,-99.68"/>
<polygon fill="midnightblue" stroke="midnightblue" points="491.56,-102.53 501.2,-106.92 496.41,-97.47 491.56,-102.53"/>
</g>
</g>
</svg>
