<?xml version="1.0" encoding="UTF-8" standalone="no"?>
<!DOCTYPE svg PUBLIC "-//W3C//DTD SVG 1.1//EN"
 "http://www.w3.org/Graphics/SVG/1.1/DTD/svg11.dtd">
<!-- Generated by graphviz version 2.43.0 (0)
 -->
<!-- Title: ft_split Pages: 1 -->
<svg width="172pt" height="142pt"
 viewBox="0.00 0.00 172.00 142.00" xmlns="http://www.w3.org/2000/svg" xmlns:xlink="http://www.w3.org/1999/xlink">
<g id="graph0" class="graph" transform="scale(1 1) rotate(0) translate(4 138)">
<title>ft_split</title>
<!-- Node1 -->
<g id="node1" class="node">
<title>Node1</title>
<g id="a_node1"><a xlink:title=" ">
<polygon fill="#bfbfbf" stroke="black" points="0,-57.5 0,-76.5 50,-76.5 50,-57.5 0,-57.5"/>
<text text-anchor="middle" x="25" y="-64.5" font-family="Helvetica,sans-Serif" font-size="10.00">ft_split</text>
</a>
</g>
</g>
<!-- Node2 -->
<g id="node2" class="node">
<title>Node2</title>
<g id="a_node2"><a xlink:href="ft__split_8c.html#a1d06247602e5b4d7f5a632508babb52b" target="_top" xlink:title=" ">
<polygon fill="none" stroke="black" points="86,-114.5 86,-133.5 164,-133.5 164,-114.5 86,-114.5"/>
<text text-anchor="middle" x="125" y="-121.5" font-family="Helvetica,sans-Serif" font-size="10.00">count_words</text>
</a>
</g>
</g>
<!-- Node1&#45;&gt;Node2 -->
<g id="edge1" class="edge">
<title>Node1&#45;&gt;Node2</title>
<path fill="none" stroke="midnightblue" d="M40.54,-76.79C52.54,-84.73 70.11,-96.03 86,-105 88.74,-106.55 91.62,-108.1 94.52,-109.63"/>
<polygon fill="midnightblue" stroke="midnightblue" points="93.19,-112.88 103.69,-114.32 96.38,-106.65 93.19,-112.88"/>
</g>
<!-- Node3 -->
<g id="node3" class="node">
<title>Node3</title>
<g id="a_node3"><a xlink:href="ft__split_8c.html#ae259f0462674db38fedf9b60f994cd2d" target="_top" xlink:title=" ">
<polygon fill="none" stroke="black" points="110.5,-76.5 110.5,-95.5 139.5,-95.5 139.5,-76.5 110.5,-76.5"/>
<text text-anchor="middle" x="125" y="-83.5" font-family="Helvetica,sans-Serif" font-size="10.00">fill</text>
</a>
</g>
</g>
<!-- Node1&#45;&gt;Node3 -->
<g id="edge2" class="edge">
<title>Node1&#45;&gt;Node3</title>
<path fill="none" stroke="midnightblue" d="M50.22,-71.7C65.46,-74.65 85.03,-78.44 100.18,-81.38"/>
<polygon fill="midnightblue" stroke="midnightblue" points="99.83,-84.88 110.31,-83.35 101.16,-78.01 99.83,-84.88"/>
</g>
<!-- Node4 -->
<g id="node4" class="node">
<title>Node4</title>
<g id="a_node4"><a xlink:href="ft__split_8c.html#af520e560e2f385584c8d51d438b6c4cd" target="_top" xlink:title=" ">
<polygon fill="none" stroke="black" points="92.5,-38.5 92.5,-57.5 157.5,-57.5 157.5,-38.5 92.5,-38.5"/>
<text text-anchor="middle" x="125" y="-45.5" font-family="Helvetica,sans-Serif" font-size="10.00">ft_free_all</text>
</a>
</g>
</g>
<!-- Node1&#45;&gt;Node4 -->
<g id="edge3" class="edge">
<title>Node1&#45;&gt;Node4</title>
<path fill="none" stroke="midnightblue" d="M50.22,-62.3C59.95,-60.42 71.43,-58.19 82.41,-56.06"/>
<polygon fill="midnightblue" stroke="midnightblue" points="83.13,-59.49 92.28,-54.15 81.8,-52.62 83.13,-59.49"/>
</g>
<!-- Node5 -->
<g id="node5" class="node">
<title>Node5</title>
<g id="a_node5"><a xlink:href="ft__strlen_8c.html#a828402378653640f545a4be2e00e92f9" target="_top" xlink:title=" ">
<polygon fill="none" stroke="black" points="97,-0.5 97,-19.5 153,-19.5 153,-0.5 97,-0.5"/>
<text text-anchor="middle" x="125" y="-7.5" font-family="Helvetica,sans-Serif" font-size="10.00">ft_strlen</text>
</a>
</g>
</g>
<!-- Node1&#45;&gt;Node5 -->
<g id="edge4" class="edge">
<title>Node1&#45;&gt;Node5</title>
<path fill="none" stroke="midnightblue" d="M40.54,-57.21C52.54,-49.27 70.11,-37.97 86,-29 88.74,-27.45 91.62,-25.9 94.52,-24.37"/>
<polygon fill="midnightblue" stroke="midnightblue" points="96.38,-27.35 103.69,-19.68 93.19,-21.12 96.38,-27.35"/>
</g>
</g>
</svg>
