<?xml version="1.0" encoding="UTF-8" standalone="no"?>
<!DOCTYPE svg PUBLIC "-//W3C//DTD SVG 1.1//EN"
 "http://www.w3.org/Graphics/SVG/1.1/DTD/svg11.dtd">
<!-- Generated by graphviz version 2.43.0 (0)
 -->
<!-- Title: ft_strncmp Pages: 1 -->
<svg width="1047pt" height="199pt"
 viewBox="0.00 0.00 1047.00 199.00" xmlns="http://www.w3.org/2000/svg" xmlns:xlink="http://www.w3.org/1999/xlink">
<g id="graph0" class="graph" transform="scale(1 1) rotate(0) translate(4 195)">
<title>ft_strncmp</title>
<!-- Node1 -->
<g id="node1" class="node">
<title>Node1</title>
<g id="a_node1"><a xlink:title=" ">
<polygon fill="#bfbfbf" stroke="black" points="971,-76.5 971,-95.5 1039,-95.5 1039,-76.5 971,-76.5"/>
<text text-anchor="middle" x="1005" y="-83.5" font-family="Helvetica,sans-Serif" font-size="10.00">ft_strncmp</text>
</a>
</g>
</g>
<!-- Node2 -->
<g id="node2" class="node">
<title>Node2</title>
<g id="a_node2"><a xlink:href="heredoc_8c.html#a4d547031558cbd91bd72a017eb6bd1fd" target="_top" xlink:title=" ">
<polygon fill="none" stroke="black" points="840,-156.5 840,-175.5 926,-175.5 926,-156.5 840,-156.5"/>
<text text-anchor="middle" x="883" y="-163.5" font-family="Helvetica,sans-Serif" font-size="10.00">heredoc_input</text>
</a>
</g>
</g>
<!-- Node1&#45;&gt;Node2 -->
<g id="edge1" class="edge">
<title>Node1&#45;&gt;Node2</title>
<path fill="none" stroke="midnightblue" d="M986.4,-102.79C973.03,-114.97 953.79,-131.3 935,-143 926.84,-148.08 917.36,-152.68 908.81,-156.39"/>
<polygon fill="midnightblue" stroke="midnightblue" points="988.97,-105.19 993.92,-95.82 984.2,-100.06 988.97,-105.19"/>
</g>
<!-- Node7 -->
<g id="node7" class="node">
<title>Node7</title>
<g id="a_node7"><a xlink:href="execution_8c.html#a3acc0bb56da881cc8609ca9e94ec8e93" target="_top" xlink:title=" ">
<polygon fill="none" stroke="black" points="716,-38.5 716,-57.5 789,-57.5 789,-38.5 716,-38.5"/>
<text text-anchor="middle" x="752.5" y="-45.5" font-family="Helvetica,sans-Serif" font-size="10.00">is_it_builtin</text>
</a>
</g>
</g>
<!-- Node1&#45;&gt;Node7 -->
<g id="edge7" class="edge">
<title>Node1&#45;&gt;Node7</title>
<path fill="none" stroke="midnightblue" d="M961.1,-79.49C912.53,-72.12 834.29,-60.26 789.01,-53.39"/>
<polygon fill="midnightblue" stroke="midnightblue" points="960.58,-82.95 970.99,-80.99 961.63,-76.03 960.58,-82.95"/>
</g>
<!-- Node12 -->
<g id="node12" class="node">
<title>Node12</title>
<g id="a_node12"><a xlink:href="execution_8c.html#a8b2bd9dba90bfc9b2ead44af5e630315" target="_top" xlink:title="launch the builtin">
<polygon fill="none" stroke="black" points="710,-76.5 710,-95.5 795,-95.5 795,-76.5 710,-76.5"/>
<text text-anchor="middle" x="752.5" y="-83.5" font-family="Helvetica,sans-Serif" font-size="10.00">launch_builtin</text>
</a>
</g>
</g>
<!-- Node1&#45;&gt;Node12 -->
<g id="edge15" class="edge">
<title>Node1&#45;&gt;Node12</title>
<path fill="none" stroke="midnightblue" d="M960.96,-86C914.58,-86 841.26,-86 795.35,-86"/>
<polygon fill="midnightblue" stroke="midnightblue" points="960.99,-89.5 970.99,-86 960.99,-82.5 960.99,-89.5"/>
</g>
<!-- Node13 -->
<g id="node13" class="node">
<title>Node13</title>
<g id="a_node13"><a xlink:href="lst__env__two_8c.html#a4d4a14327b2c3ff88099102b6bd77986" target="_top" xlink:title=" ">
<polygon fill="none" stroke="black" points="831,-114.5 831,-133.5 935,-133.5 935,-114.5 831,-114.5"/>
<text text-anchor="middle" x="883" y="-121.5" font-family="Helvetica,sans-Serif" font-size="10.00">research_key_env</text>
</a>
</g>
</g>
<!-- Node1&#45;&gt;Node13 -->
<g id="edge18" class="edge">
<title>Node1&#45;&gt;Node13</title>
<path fill="none" stroke="midnightblue" d="M963.96,-98.68C947.74,-103.81 929.33,-109.64 914.27,-114.41"/>
<polygon fill="midnightblue" stroke="midnightblue" points="965.24,-101.94 973.72,-95.59 963.13,-95.27 965.24,-101.94"/>
</g>
<!-- Node15 -->
<g id="node15" class="node">
<title>Node15</title>
<g id="a_node15"><a xlink:href="unset_8c.html#a9f3a931b6e1e798b91f27ec7493e17fe" target="_top" xlink:title=" ">
<polygon fill="none" stroke="black" points="861,-0.5 861,-19.5 905,-19.5 905,-0.5 861,-0.5"/>
<text text-anchor="middle" x="883" y="-7.5" font-family="Helvetica,sans-Serif" font-size="10.00">unset</text>
</a>
</g>
</g>
<!-- Node1&#45;&gt;Node15 -->
<g id="edge21" class="edge">
<title>Node1&#45;&gt;Node15</title>
<path fill="none" stroke="midnightblue" d="M984.78,-69.81C971.34,-58.93 952.7,-44.68 935,-34 925.62,-28.34 914.68,-23.04 905.35,-18.86"/>
<polygon fill="midnightblue" stroke="midnightblue" points="982.85,-72.76 992.79,-76.41 987.29,-67.35 982.85,-72.76"/>
</g>
<!-- Node3 -->
<g id="node3" class="node">
<title>Node3</title>
<g id="a_node3"><a xlink:href="heredoc_8c.html#aa5260679719a4e1f862a6efd1f12cf85" target="_top" xlink:title=" ">
<polygon fill="none" stroke="black" points="414,-171.5 414,-190.5 545,-190.5 545,-171.5 414,-171.5"/>
<text text-anchor="middle" x="479.5" y="-178.5" font-family="Helvetica,sans-Serif" font-size="10.00">here_doc_management</text>
</a>
</g>
</g>
<!-- Node2&#45;&gt;Node3 -->
<g id="edge2" class="edge">
<title>Node2&#45;&gt;Node3</title>
<path fill="none" stroke="midnightblue" d="M829.45,-167.96C756.4,-170.69 624.23,-175.63 545.19,-178.58"/>
<polygon fill="midnightblue" stroke="midnightblue" points="829.93,-171.45 839.79,-167.58 829.67,-164.45 829.93,-171.45"/>
</g>
<!-- Node4 -->
<g id="node4" class="node">
<title>Node4</title>
<g id="a_node4"><a xlink:href="multipipe_8c.html#a3f78d597d08aaca5580b2c89f956a3a2" target="_top" xlink:title=" ">
<polygon fill="none" stroke="black" points="95,-133.5 95,-152.5 184,-152.5 184,-133.5 95,-133.5"/>
<text text-anchor="middle" x="139.5" y="-140.5" font-family="Helvetica,sans-Serif" font-size="10.00">multipipe_cmd</text>
</a>
</g>
</g>
<!-- Node3&#45;&gt;Node4 -->
<g id="edge3" class="edge">
<title>Node3&#45;&gt;Node4</title>
<path fill="none" stroke="midnightblue" d="M403.8,-178.7C351.97,-176.32 281.49,-171.54 220,-162 205.14,-159.69 188.95,-156.04 175.09,-152.55"/>
<polygon fill="midnightblue" stroke="midnightblue" points="403.76,-182.2 413.9,-179.14 404.07,-175.2 403.76,-182.2"/>
</g>
<!-- Node6 -->
<g id="node6" class="node">
<title>Node6</title>
<g id="a_node6"><a xlink:href="execution_8c.html#a4ef7db02a474eb1b198b2a25e1303118" target="_top" xlink:title=" ">
<polygon fill="none" stroke="black" points="254.5,-95.5 254.5,-114.5 343.5,-114.5 343.5,-95.5 254.5,-95.5"/>
<text text-anchor="middle" x="299" y="-102.5" font-family="Helvetica,sans-Serif" font-size="10.00">one_command</text>
</a>
</g>
</g>
<!-- Node3&#45;&gt;Node6 -->
<g id="edge5" class="edge">
<title>Node3&#45;&gt;Node6</title>
<path fill="none" stroke="midnightblue" d="M424.9,-167.66C421.1,-165.98 417.43,-164.1 414,-162 394.16,-149.85 398.12,-135.67 378,-124 367.63,-117.99 355.43,-113.87 343.79,-111.05"/>
<polygon fill="midnightblue" stroke="midnightblue" points="423.9,-171.03 434.49,-171.43 426.47,-164.52 423.9,-171.03"/>
</g>
<!-- Node5 -->
<g id="node5" class="node">
<title>Node5</title>
<g id="a_node5"><a xlink:href="execution_8c.html#a9dffeca3c2ff474e24c3e98ab856df76" target="_top" xlink:title=" ">
<polygon fill="none" stroke="black" points="0,-114.5 0,-133.5 59,-133.5 59,-114.5 0,-114.5"/>
<text text-anchor="middle" x="29.5" y="-121.5" font-family="Helvetica,sans-Serif" font-size="10.00">executor</text>
</a>
</g>
</g>
<!-- Node4&#45;&gt;Node5 -->
<g id="edge4" class="edge">
<title>Node4&#45;&gt;Node5</title>
<path fill="none" stroke="midnightblue" d="M84.88,-133.57C75.97,-132 67.05,-130.43 59.08,-129.03"/>
<polygon fill="midnightblue" stroke="midnightblue" points="84.43,-137.04 94.88,-135.33 85.64,-130.15 84.43,-137.04"/>
</g>
<!-- Node6&#45;&gt;Node5 -->
<g id="edge6" class="edge">
<title>Node6&#45;&gt;Node5</title>
<path fill="none" stroke="midnightblue" d="M244.37,-108.81C188.58,-112.77 103.35,-118.83 59.22,-121.96"/>
<polygon fill="midnightblue" stroke="midnightblue" points="244.7,-112.29 254.43,-108.09 244.2,-105.31 244.7,-112.29"/>
</g>
<!-- Node7&#45;&gt;Node6 -->
<g id="edge14" class="edge">
<title>Node7&#45;&gt;Node6</title>
<path fill="none" stroke="midnightblue" d="M705.44,-49.4C640.18,-51.92 517.27,-58.7 414,-76 385.8,-80.72 354.35,-88.95 331.64,-95.44"/>
<polygon fill="midnightblue" stroke="midnightblue" points="705.92,-52.88 715.79,-49.01 705.66,-45.89 705.92,-52.88"/>
</g>
<!-- Node8 -->
<g id="node8" class="node">
<title>Node8</title>
<g id="a_node8"><a xlink:href="execution__node_8c.html#a6cfdc545c2222bbb0ca1dfc8431f72a3" target="_top" xlink:title=" ">
<polygon fill="none" stroke="black" points="581,-95.5 581,-114.5 674,-114.5 674,-95.5 581,-95.5"/>
<text text-anchor="middle" x="627.5" y="-102.5" font-family="Helvetica,sans-Serif" font-size="10.00">execution_node</text>
</a>
</g>
</g>
<!-- Node7&#45;&gt;Node8 -->
<g id="edge8" class="edge">
<title>Node7&#45;&gt;Node8</title>
<path fill="none" stroke="midnightblue" d="M721.19,-61.85C717.42,-63.58 713.62,-65.33 710,-67 689.17,-76.63 665.39,-87.73 648.91,-95.43"/>
<polygon fill="midnightblue" stroke="midnightblue" points="722.74,-64.99 730.37,-57.64 719.83,-58.62 722.74,-64.99"/>
</g>
<!-- Node9 -->
<g id="node9" class="node">
<title>Node9</title>
<g id="a_node9"><a xlink:href="multipipe_8c.html#a43baea25481fdd02ce42e4d249f12353" target="_top" xlink:title=" ">
<polygon fill="none" stroke="black" points="438,-133.5 438,-152.5 521,-152.5 521,-133.5 438,-133.5"/>
<text text-anchor="middle" x="479.5" y="-140.5" font-family="Helvetica,sans-Serif" font-size="10.00">execute_child</text>
</a>
</g>
</g>
<!-- Node8&#45;&gt;Node9 -->
<g id="edge9" class="edge">
<title>Node8&#45;&gt;Node9</title>
<path fill="none" stroke="midnightblue" d="M579.96,-117.11C559.63,-122.4 536.13,-128.52 517.08,-133.48"/>
<polygon fill="midnightblue" stroke="midnightblue" points="580.86,-120.5 589.66,-114.59 579.1,-113.72 580.86,-120.5"/>
</g>
<!-- Node11 -->
<g id="node11" class="node">
<title>Node11</title>
<g id="a_node11"><a xlink:href="execution_8c.html#ac70faaedddc427b5051b808a8de40da4" target="_top" xlink:title=" ">
<polygon fill="none" stroke="black" points="415.5,-95.5 415.5,-114.5 543.5,-114.5 543.5,-95.5 415.5,-95.5"/>
<text text-anchor="middle" x="479.5" y="-102.5" font-family="Helvetica,sans-Serif" font-size="10.00">one_command_execve</text>
</a>
</g>
</g>
<!-- Node8&#45;&gt;Node11 -->
<g id="edge12" class="edge">
<title>Node8&#45;&gt;Node11</title>
<path fill="none" stroke="midnightblue" d="M570.53,-105C561.69,-105 552.5,-105 543.52,-105"/>
<polygon fill="midnightblue" stroke="midnightblue" points="570.71,-108.5 580.71,-105 570.71,-101.5 570.71,-108.5"/>
</g>
<!-- Node10 -->
<g id="node10" class="node">
<title>Node10</title>
<g id="a_node10"><a xlink:href="multipipe_8c.html#af32b88ab44b94650a0bb6f805f70a805" target="_top" xlink:title=" ">
<polygon fill="none" stroke="black" points="220,-133.5 220,-152.5 378,-152.5 378,-133.5 220,-133.5"/>
<text text-anchor="middle" x="299" y="-140.5" font-family="Helvetica,sans-Serif" font-size="10.00">multipipe_intermediary_cmd</text>
</a>
</g>
</g>
<!-- Node9&#45;&gt;Node10 -->
<g id="edge10" class="edge">
<title>Node9&#45;&gt;Node10</title>
<path fill="none" stroke="midnightblue" d="M427.68,-143C412.31,-143 395.06,-143 378.33,-143"/>
<polygon fill="midnightblue" stroke="midnightblue" points="428,-146.5 438,-143 428,-139.5 428,-146.5"/>
</g>
<!-- Node10&#45;&gt;Node4 -->
<g id="edge11" class="edge">
<title>Node10&#45;&gt;Node4</title>
<path fill="none" stroke="midnightblue" d="M209.44,-143C200.73,-143 192.19,-143 184.24,-143"/>
<polygon fill="midnightblue" stroke="midnightblue" points="209.71,-146.5 219.71,-143 209.71,-139.5 209.71,-146.5"/>
</g>
<!-- Node11&#45;&gt;Node6 -->
<g id="edge13" class="edge">
<title>Node11&#45;&gt;Node6</title>
<path fill="none" stroke="midnightblue" d="M405.19,-105C384.33,-105 362.27,-105 343.77,-105"/>
<polygon fill="midnightblue" stroke="midnightblue" points="405.32,-108.5 415.32,-105 405.32,-101.5 405.32,-108.5"/>
</g>
<!-- Node12&#45;&gt;Node6 -->
<g id="edge17" class="edge">
<title>Node12&#45;&gt;Node6</title>
<path fill="none" stroke="midnightblue" d="M699.65,-83.35C633.3,-80.57 514.88,-77.65 414,-86 390.6,-87.94 364.78,-92.07 343.64,-95.99"/>
<polygon fill="midnightblue" stroke="midnightblue" points="699.7,-86.86 709.84,-83.8 700,-79.86 699.7,-86.86"/>
</g>
<!-- Node12&#45;&gt;Node8 -->
<g id="edge16" class="edge">
<title>Node12&#45;&gt;Node8</title>
<path fill="none" stroke="midnightblue" d="M699.73,-94C691.29,-95.3 682.61,-96.64 674.32,-97.92"/>
<polygon fill="midnightblue" stroke="midnightblue" points="700.51,-97.42 709.86,-92.43 699.44,-90.5 700.51,-97.42"/>
</g>
<!-- Node14 -->
<g id="node14" class="node">
<title>Node14</title>
<g id="a_node14"><a xlink:href="getenv_8c.html#a5d0cf05c2622983111dcfc0f179c5739" target="_top" xlink:title=" ">
<polygon fill="none" stroke="black" points="714.5,-114.5 714.5,-133.5 790.5,-133.5 790.5,-114.5 714.5,-114.5"/>
<text text-anchor="middle" x="752.5" y="-121.5" font-family="Helvetica,sans-Serif" font-size="10.00">search_path</text>
</a>
</g>
</g>
<!-- Node13&#45;&gt;Node14 -->
<g id="edge19" class="edge">
<title>Node13&#45;&gt;Node14</title>
<path fill="none" stroke="midnightblue" d="M820.65,-124C810.39,-124 800.03,-124 790.62,-124"/>
<polygon fill="midnightblue" stroke="midnightblue" points="820.84,-127.5 830.84,-124 820.84,-120.5 820.84,-127.5"/>
</g>
<!-- Node14&#45;&gt;Node8 -->
<g id="edge20" class="edge">
<title>Node14&#45;&gt;Node8</title>
<path fill="none" stroke="midnightblue" d="M704.25,-116.7C694.42,-115.18 684.08,-113.59 674.3,-112.08"/>
<polygon fill="midnightblue" stroke="midnightblue" points="703.85,-120.18 714.26,-118.25 704.91,-113.26 703.85,-120.18"/>
</g>
</g>
</svg>
