<?xml version="1.0" encoding="UTF-8" standalone="no"?>
<!DOCTYPE svg PUBLIC "-//W3C//DTD SVG 1.1//EN"
 "http://www.w3.org/Graphics/SVG/1.1/DTD/svg11.dtd">
<!-- Generated by graphviz version 2.43.0 (0)
 -->
<!-- Title: research_node_env Pages: 1 -->
<!--zoomable 171 -->
<svg id="main" version="1.1" xmlns="http://www.w3.org/2000/svg" xmlns:xlink="http://www.w3.org/1999/xlink" xml:space="preserve" onload="init(evt)">
<style type="text/css"><![CDATA[
.edge:hover path { stroke: red; }
.edge:hover polygon { stroke: red; fill: red; }
]]></style>
<script type="text/javascript"><![CDATA[
var edges = document.getElementsByTagName('g');
if (edges && edges.length) {
  for (var i=0;i<edges.length;i++) {
    if (edges[i].id.substr(0,4)=='edge') {
      edges[i].setAttribute('class','edge');
    }
  }
}
]]></script>
        <defs>
                <circle id="rim" cx="0" cy="0" r="7"/>
                <circle id="rim2" cx="0" cy="0" r="3.5"/>
                <g id="zoomPlus">
                        <use xlink:href="#rim" fill="#404040">
                                <set attributeName="fill" to="#808080" begin="zoomplus.mouseover" end="zoomplus.mouseout"/>
                        </use>
                        <path d="M-4,0h8M0,-4v8" fill="none" stroke="white" stroke-width="1.5" pointer-events="none"/>
                </g>
                <g id="zoomMin">
                        <use xlink:href="#rim" fill="#404040">
                                <set attributeName="fill" to="#808080" begin="zoomminus.mouseover" end="zoomminus.mouseout"/>
                        </use>
                        <path d="M-4,0h8" fill="none" stroke="white" stroke-width="1.5" pointer-events="none"/>
                </g>
                <g id="dirArrow">
                        <path fill="none" stroke="white" stroke-width="1.5" d="M0,-3.0v7 M-2.5,-0.5L0,-3.0L2.5,-0.5"/>
                </g>
               <g id="resetDef">
                       <use xlink:href="#rim2" fill="#404040">
                               <set attributeName="fill" to="#808080" begin="reset.mouseover" end="reset.mouseout"/>
                       </use>
               </g>
        </defs>

<script type="text/javascript">
var viewWidth = 1515;
var viewHeight = 171;
var sectionId = 'dynsection-4';
</script>
<script xlink:href="svgpan.js"/>
<svg id="graph" class="graph">
<g id="viewport">
<title>research_node_env</title>
<!-- Node1 -->
<g id="node1" class="node">
<title>Node1</title>
<g id="a_node1"><a xlink:title=" ">
<polygon fill="#bfbfbf" stroke="black" points="1396,-48.46 1396,-67.46 1507,-67.46 1507,-48.46 1396,-48.46"/>
<text text-anchor="middle" x="1451.5" y="-55.46" font-family="Helvetica,sans-Serif" font-size="10.00">research_node_env</text>
</a>
</g>
</g>
<!-- Node2 -->
<g id="node2" class="node">
<title>Node2</title>
<g id="a_node2"><a xlink:href="export_8c.html#a90ff129fee9412bd5c6d74be5970b99f" target="_top" xlink:title=" ">
<polygon fill="none" stroke="black" points="1241.5,-67.46 1241.5,-86.46 1351.5,-86.46 1351.5,-67.46 1241.5,-67.46"/>
<text text-anchor="middle" x="1296.5" y="-74.46" font-family="Helvetica,sans-Serif" font-size="10.00">export_env_update</text>
</a>
</g>
</g>
<!-- Node1&#45;&gt;Node2 -->
<g id="edge1" class="edge">
<title>Node1&#45;&gt;Node2</title>
<path fill="none" stroke="midnightblue" d="M1385.47,-66.04C1374.21,-67.44 1362.6,-68.88 1351.66,-70.24"/>
<polygon fill="midnightblue" stroke="midnightblue" points="1386.2,-69.47 1395.7,-64.77 1385.34,-62.53 1386.2,-69.47"/>
</g>
<!-- Node14 -->
<g id="node14" class="node">
<title>Node14</title>
<g id="a_node14"><a xlink:href="cd_8c.html#a68bb8beb2cf13bb992af8322f31f94e7" target="_top" xlink:title=" ">
<polygon fill="none" stroke="black" points="1258.5,-29.46 1258.5,-48.46 1334.5,-48.46 1334.5,-29.46 1258.5,-29.46"/>
<text text-anchor="middle" x="1296.5" y="-36.46" font-family="Helvetica,sans-Serif" font-size="10.00">update_pwd</text>
</a>
</g>
</g>
<!-- Node1&#45;&gt;Node14 -->
<g id="edge15" class="edge">
<title>Node1&#45;&gt;Node14</title>
<path fill="none" stroke="midnightblue" d="M1385.59,-49.9C1368.21,-47.74 1350.01,-45.48 1334.7,-43.58"/>
<polygon fill="midnightblue" stroke="midnightblue" points="1385.34,-53.4 1395.7,-51.16 1386.2,-46.45 1385.34,-53.4"/>
</g>
<!-- Node16 -->
<g id="node16" class="node">
<title>Node16</title>
<g id="a_node16"><a xlink:href="utils_8c.html#af1c2063cb0d6822097c6e8d18d808745" target="_top" xlink:title="just a function to update the _ (underscore env variable) not really necessary in minishell but in do...">
<polygon fill="none" stroke="black" points="172,-10.46 172,-29.46 282,-29.46 282,-10.46 172,-10.46"/>
<text text-anchor="middle" x="227" y="-17.46" font-family="Helvetica,sans-Serif" font-size="10.00">update_underscore</text>
</a>
</g>
</g>
<!-- Node1&#45;&gt;Node16 -->
<g id="edge18" class="edge">
<title>Node1&#45;&gt;Node16</title>
<path fill="none" stroke="midnightblue" d="M1423.26,-43.92C1405.67,-35.51 1382.05,-25.44 1360,-19.96 1267.97,2.89 1242.32,-0.96 1147.5,-0.96 1147.5,-0.96 1147.5,-0.96 576.5,-0.96 472.28,-0.96 350.79,-9.54 282.28,-15.17"/>
<polygon fill="midnightblue" stroke="midnightblue" points="1421.83,-47.12 1432.36,-48.37 1424.91,-40.83 1421.83,-47.12"/>
</g>
<!-- Node17 -->
<g id="node17" class="node">
<title>Node17</title>
<g id="a_node17"><a xlink:href="heredoc2_8c.html#a2a5c565389701ca49d867d3746245106" target="_top" xlink:title=" ">
<polygon fill="none" stroke="black" points="1233,-105.46 1233,-124.46 1360,-124.46 1360,-105.46 1233,-105.46"/>
<text text-anchor="middle" x="1296.5" y="-112.46" font-family="Helvetica,sans-Serif" font-size="10.00">write_heredoc_expand</text>
</a>
</g>
</g>
<!-- Node1&#45;&gt;Node17 -->
<g id="edge20" class="edge">
<title>Node1&#45;&gt;Node17</title>
<path fill="none" stroke="midnightblue" d="M1419.91,-71.73C1402.52,-79.32 1380.23,-88.66 1360,-95.96 1350.72,-99.31 1340.53,-102.58 1331.12,-105.43"/>
<polygon fill="midnightblue" stroke="midnightblue" points="1421.79,-74.72 1429.53,-67.49 1418.97,-68.32 1421.79,-74.72"/>
</g>
<!-- Node3 -->
<g id="node3" class="node">
<title>Node3</title>
<g id="a_node3"><a xlink:href="export_8c.html#a63ef72e778f2b52c924bf77ae989dc80" target="_top" xlink:title=" ">
<polygon fill="none" stroke="black" points="1122.5,-67.46 1122.5,-86.46 1170.5,-86.46 1170.5,-67.46 1122.5,-67.46"/>
<text text-anchor="middle" x="1146.5" y="-74.46" font-family="Helvetica,sans-Serif" font-size="10.00">export</text>
</a>
</g>
</g>
<!-- Node2&#45;&gt;Node3 -->
<g id="edge2" class="edge">
<title>Node2&#45;&gt;Node3</title>
<path fill="none" stroke="midnightblue" d="M1231.14,-76.96C1209.67,-76.96 1187.09,-76.96 1170.82,-76.96"/>
<polygon fill="midnightblue" stroke="midnightblue" points="1231.23,-80.46 1241.23,-76.96 1231.23,-73.46 1231.23,-80.46"/>
</g>
<!-- Node4 -->
<g id="node4" class="node">
<title>Node4</title>
<g id="a_node4"><a xlink:href="export_8c.html#a1bb2544b6254ee4ddb592a4cfa61734f" target="_top" xlink:title=" ">
<polygon fill="none" stroke="black" points="973,-67.46 973,-86.46 1044,-86.46 1044,-67.46 973,-67.46"/>
<text text-anchor="middle" x="1008.5" y="-74.46" font-family="Helvetica,sans-Serif" font-size="10.00">export_call</text>
</a>
</g>
</g>
<!-- Node3&#45;&gt;Node4 -->
<g id="edge3" class="edge">
<title>Node3&#45;&gt;Node4</title>
<path fill="none" stroke="midnightblue" d="M1112.23,-76.96C1091.58,-76.96 1065.1,-76.96 1044.19,-76.96"/>
<polygon fill="midnightblue" stroke="midnightblue" points="1112.43,-80.46 1122.43,-76.96 1112.43,-73.46 1112.43,-80.46"/>
</g>
<!-- Node5 -->
<g id="node5" class="node">
<title>Node5</title>
<g id="a_node5"><a xlink:href="launcher_8c.html#a7bee4f6fbfd70ef7ec1f52856538ac71" target="_top" xlink:title="launch the builtin &#160;&#160;some of them are not present because we have to fork() them why ?...">
<polygon fill="none" stroke="black" points="822,-48.46 822,-67.46 907,-67.46 907,-48.46 822,-48.46"/>
<text text-anchor="middle" x="864.5" y="-55.46" font-family="Helvetica,sans-Serif" font-size="10.00">launch_builtin</text>
</a>
</g>
</g>
<!-- Node4&#45;&gt;Node5 -->
<g id="edge4" class="edge">
<title>Node4&#45;&gt;Node5</title>
<path fill="none" stroke="midnightblue" d="M962.65,-70.96C944.91,-68.59 924.63,-65.87 907.21,-63.54"/>
<polygon fill="midnightblue" stroke="midnightblue" points="962.39,-74.46 972.76,-72.31 963.32,-67.52 962.39,-74.46"/>
</g>
<!-- Node6 -->
<g id="node6" class="node">
<title>Node6</title>
<g id="a_node6"><a xlink:href="execution__node_8c.html#adda76b40c34c18ec83b1d98700083f8a" target="_top" xlink:title="we are going to execute the command here we have a security about absolute path given =&gt; because it&#39;s...">
<polygon fill="none" stroke="black" points="679,-67.46 679,-86.46 772,-86.46 772,-67.46 679,-67.46"/>
<text text-anchor="middle" x="725.5" y="-74.46" font-family="Helvetica,sans-Serif" font-size="10.00">execution_node</text>
</a>
</g>
</g>
<!-- Node5&#45;&gt;Node6 -->
<g id="edge5" class="edge">
<title>Node5&#45;&gt;Node6</title>
<path fill="none" stroke="midnightblue" d="M811.54,-65.17C798.66,-66.95 784.95,-68.86 772.39,-70.6"/>
<polygon fill="midnightblue" stroke="midnightblue" points="812.23,-68.61 821.65,-63.77 811.27,-61.67 812.23,-68.61"/>
</g>
<!-- Node13 -->
<g id="node13" class="node">
<title>Node13</title>
<g id="a_node13"><a xlink:href="execution_8c.html#a38335028b2bc7aa436f8f79a3753ce5e" target="_top" xlink:title="here we check if it&#39;s a builtin where we have to fork or not we still need to do the redirection veri...">
<polygon fill="none" stroke="black" points="352.5,-67.46 352.5,-86.46 441.5,-86.46 441.5,-67.46 352.5,-67.46"/>
<text text-anchor="middle" x="397" y="-74.46" font-family="Helvetica,sans-Serif" font-size="10.00">one_command</text>
</a>
</g>
</g>
<!-- Node5&#45;&gt;Node13 -->
<g id="edge14" class="edge">
<title>Node5&#45;&gt;Node13</title>
<path fill="none" stroke="midnightblue" d="M811.62,-55.29C742.95,-52.37 618.15,-49.18 512,-57.96 488.6,-59.9 462.78,-64.03 441.64,-67.95"/>
<polygon fill="midnightblue" stroke="midnightblue" points="811.6,-58.8 821.74,-55.74 811.91,-51.8 811.6,-58.8"/>
</g>
<!-- Node7 -->
<g id="node7" class="node">
<title>Node7</title>
<g id="a_node7"><a xlink:href="multipipe_8c.html#a461ae962ce9a1aee7221ac4b9c581f98" target="_top" xlink:title=" ">
<polygon fill="none" stroke="black" points="536,-105.46 536,-124.46 619,-124.46 619,-105.46 536,-105.46"/>
<text text-anchor="middle" x="577.5" y="-112.46" font-family="Helvetica,sans-Serif" font-size="10.00">execute_child</text>
</a>
</g>
</g>
<!-- Node6&#45;&gt;Node7 -->
<g id="edge6" class="edge">
<title>Node6&#45;&gt;Node7</title>
<path fill="none" stroke="midnightblue" d="M677.96,-89.07C657.63,-94.37 634.13,-100.48 615.08,-105.44"/>
<polygon fill="midnightblue" stroke="midnightblue" points="678.86,-92.46 687.66,-86.55 677.1,-85.68 678.86,-92.46"/>
</g>
<!-- Node12 -->
<g id="node12" class="node">
<title>Node12</title>
<g id="a_node12"><a xlink:href="execution_8c.html#aa6f3ac2f0c10538c125eafcb587fd021" target="_top" xlink:title="in this function we do the fork to create a child process we do the redirection if we need to">
<polygon fill="none" stroke="black" points="513.5,-67.46 513.5,-86.46 641.5,-86.46 641.5,-67.46 513.5,-67.46"/>
<text text-anchor="middle" x="577.5" y="-74.46" font-family="Helvetica,sans-Serif" font-size="10.00">one_command_execve</text>
</a>
</g>
</g>
<!-- Node6&#45;&gt;Node12 -->
<g id="edge11" class="edge">
<title>Node6&#45;&gt;Node12</title>
<path fill="none" stroke="midnightblue" d="M668.53,-76.96C659.69,-76.96 650.5,-76.96 641.52,-76.96"/>
<polygon fill="midnightblue" stroke="midnightblue" points="668.71,-80.46 678.71,-76.96 668.71,-73.46 668.71,-80.46"/>
</g>
<!-- Node8 -->
<g id="node8" class="node">
<title>Node8</title>
<g id="a_node8"><a xlink:href="multipipe_8c.html#af31c329200501f497cd102a470450103" target="_top" xlink:title="it&#39;s where the fork happen and sent to be execute">
<polygon fill="none" stroke="black" points="318,-105.46 318,-124.46 476,-124.46 476,-105.46 318,-105.46"/>
<text text-anchor="middle" x="397" y="-112.46" font-family="Helvetica,sans-Serif" font-size="10.00">multipipe_intermediary_cmd</text>
</a>
</g>
</g>
<!-- Node7&#45;&gt;Node8 -->
<g id="edge7" class="edge">
<title>Node7&#45;&gt;Node8</title>
<path fill="none" stroke="midnightblue" d="M525.68,-114.96C510.31,-114.96 493.06,-114.96 476.33,-114.96"/>
<polygon fill="midnightblue" stroke="midnightblue" points="526,-118.46 536,-114.96 526,-111.46 526,-118.46"/>
</g>
<!-- Node9 -->
<g id="node9" class="node">
<title>Node9</title>
<g id="a_node9"><a xlink:href="multipipe_8c.html#aa4f1c217eeb689ecbc622baecd2c5dec" target="_top" xlink:title="management of the multipipe (= name when we have at least one pipe) First step is to manage the hered...">
<polygon fill="none" stroke="black" points="182.5,-105.46 182.5,-124.46 271.5,-124.46 271.5,-105.46 182.5,-105.46"/>
<text text-anchor="middle" x="227" y="-112.46" font-family="Helvetica,sans-Serif" font-size="10.00">multipipe_cmd</text>
</a>
</g>
</g>
<!-- Node8&#45;&gt;Node9 -->
<g id="edge8" class="edge">
<title>Node8&#45;&gt;Node9</title>
<path fill="none" stroke="midnightblue" d="M307.8,-114.96C295.21,-114.96 282.75,-114.96 271.54,-114.96"/>
<polygon fill="midnightblue" stroke="midnightblue" points="307.9,-118.46 317.9,-114.96 307.9,-111.46 307.9,-118.46"/>
</g>
<!-- Node10 -->
<g id="node10" class="node">
<title>Node10</title>
<g id="a_node10"><a xlink:href="execution_8c.html#a9542b61daba3eb4d45c8887c5648b2f6" target="_top" xlink:title="first function of the execution part when we have something to do we have to deal with two cases ; if...">
<polygon fill="none" stroke="black" points="77,-67.46 77,-86.46 136,-86.46 136,-67.46 77,-67.46"/>
<text text-anchor="middle" x="106.5" y="-74.46" font-family="Helvetica,sans-Serif" font-size="10.00">executor</text>
</a>
</g>
</g>
<!-- Node9&#45;&gt;Node10 -->
<g id="edge9" class="edge">
<title>Node9&#45;&gt;Node10</title>
<path fill="none" stroke="midnightblue" d="M186.23,-102.21C169.83,-96.95 151.19,-90.97 136.17,-86.15"/>
<polygon fill="midnightblue" stroke="midnightblue" points="185.51,-105.65 196.1,-105.37 187.64,-98.99 185.51,-105.65"/>
</g>
<!-- Node11 -->
<g id="node11" class="node">
<title>Node11</title>
<g id="a_node11"><a xlink:href="main_8c.html#a647f21a28344e1d9c643f4115516d7c9" target="_top" xlink:title=" ">
<polygon fill="none" stroke="black" points="0,-67.46 0,-86.46 41,-86.46 41,-67.46 0,-67.46"/>
<text text-anchor="middle" x="20.5" y="-74.46" font-family="Helvetica,sans-Serif" font-size="10.00">main</text>
</a>
</g>
</g>
<!-- Node10&#45;&gt;Node11 -->
<g id="edge10" class="edge">
<title>Node10&#45;&gt;Node11</title>
<path fill="none" stroke="midnightblue" d="M66.48,-76.96C57.72,-76.96 48.78,-76.96 41.21,-76.96"/>
<polygon fill="midnightblue" stroke="midnightblue" points="66.59,-80.46 76.59,-76.96 66.59,-73.46 66.59,-80.46"/>
</g>
<!-- Node12&#45;&gt;Node13 -->
<g id="edge12" class="edge">
<title>Node12&#45;&gt;Node13</title>
<path fill="none" stroke="midnightblue" d="M503.19,-76.96C482.33,-76.96 460.27,-76.96 441.77,-76.96"/>
<polygon fill="midnightblue" stroke="midnightblue" points="503.32,-80.46 513.32,-76.96 503.32,-73.46 503.32,-80.46"/>
</g>
<!-- Node13&#45;&gt;Node10 -->
<g id="edge13" class="edge">
<title>Node13&#45;&gt;Node10</title>
<path fill="none" stroke="midnightblue" d="M342.29,-76.96C281.25,-76.96 183.93,-76.96 136.03,-76.96"/>
<polygon fill="midnightblue" stroke="midnightblue" points="342.5,-80.46 352.5,-76.96 342.5,-73.46 342.5,-80.46"/>
</g>
<!-- Node15 -->
<g id="node15" class="node">
<title>Node15</title>
<g id="a_node15"><a xlink:href="cd_8c.html#afa3cf8a1d55856208b8d44453d4cf9b4" target="_top" xlink:title=" ">
<polygon fill="none" stroke="black" points="994,-29.46 994,-48.46 1023,-48.46 1023,-29.46 994,-29.46"/>
<text text-anchor="middle" x="1008.5" y="-36.46" font-family="Helvetica,sans-Serif" font-size="10.00">cd</text>
</a>
</g>
</g>
<!-- Node14&#45;&gt;Node15 -->
<g id="edge16" class="edge">
<title>Node14&#45;&gt;Node15</title>
<path fill="none" stroke="midnightblue" d="M1248.14,-38.96C1181.28,-38.96 1062.94,-38.96 1023.05,-38.96"/>
<polygon fill="midnightblue" stroke="midnightblue" points="1248.4,-42.46 1258.4,-38.96 1248.4,-35.46 1248.4,-42.46"/>
</g>
<!-- Node15&#45;&gt;Node5 -->
<g id="edge17" class="edge">
<title>Node15&#45;&gt;Node5</title>
<path fill="none" stroke="midnightblue" d="M983.7,-42.15C962.85,-44.94 932.08,-49.05 907.16,-52.39"/>
<polygon fill="midnightblue" stroke="midnightblue" points="984.44,-45.58 993.88,-40.78 983.51,-38.64 984.44,-45.58"/>
</g>
<!-- Node16&#45;&gt;Node10 -->
<g id="edge19" class="edge">
<title>Node16&#45;&gt;Node10</title>
<path fill="none" stroke="midnightblue" d="M197.11,-33.86C175.49,-44.26 146.48,-58.21 127.4,-67.39"/>
<polygon fill="midnightblue" stroke="midnightblue" points="198.67,-36.99 206.17,-29.5 195.64,-30.68 198.67,-36.99"/>
</g>
<!-- Node18 -->
<g id="node18" class="node">
<title>Node18</title>
<g id="a_node18"><a xlink:href="heredoc2_8c.html#a62cf028a22b96be266416a01e88726f0" target="_top" xlink:title="function to write on the heredoc file depending if we have a $ sign or not we write or we expand">
<polygon fill="none" stroke="black" points="1096,-105.46 1096,-124.46 1197,-124.46 1197,-105.46 1096,-105.46"/>
<text text-anchor="middle" x="1146.5" y="-112.46" font-family="Helvetica,sans-Serif" font-size="10.00">write_to_heredoc</text>
</a>
</g>
</g>
<!-- Node17&#45;&gt;Node18 -->
<g id="edge21" class="edge">
<title>Node17&#45;&gt;Node18</title>
<path fill="none" stroke="midnightblue" d="M1222.7,-114.96C1214.12,-114.96 1205.51,-114.96 1197.35,-114.96"/>
<polygon fill="midnightblue" stroke="midnightblue" points="1222.73,-118.46 1232.73,-114.96 1222.73,-111.46 1222.73,-118.46"/>
</g>
<!-- Node19 -->
<g id="node19" class="node">
<title>Node19</title>
<g id="a_node19"><a xlink:href="heredoc_8c.html#aa11261ffe1d93fd87488514776e2df34" target="_top" xlink:title=" ">
<polygon fill="none" stroke="black" points="957,-105.46 957,-124.46 1060,-124.46 1060,-105.46 957,-105.46"/>
<text text-anchor="middle" x="1008.5" y="-112.46" font-family="Helvetica,sans-Serif" font-size="10.00">read_gnl_heredoc</text>
</a>
</g>
</g>
<!-- Node18&#45;&gt;Node19 -->
<g id="edge22" class="edge">
<title>Node18&#45;&gt;Node19</title>
<path fill="none" stroke="midnightblue" d="M1085.49,-114.96C1077.07,-114.96 1068.49,-114.96 1060.27,-114.96"/>
<polygon fill="midnightblue" stroke="midnightblue" points="1085.63,-118.46 1095.63,-114.96 1085.63,-111.46 1085.63,-118.46"/>
</g>
<!-- Node20 -->
<g id="node20" class="node">
<title>Node20</title>
<g id="a_node20"><a xlink:href="heredoc_8c.html#a98f0cdaa70ea9d777053df568b66e32a" target="_top" xlink:title="origin of creation ; the norm what it is doing ? juste close the fd the right way if we encounter the...">
<polygon fill="none" stroke="black" points="808,-114.46 808,-133.46 921,-133.46 921,-114.46 808,-114.46"/>
<text text-anchor="middle" x="864.5" y="-121.46" font-family="Helvetica,sans-Serif" font-size="10.00">child_work_heredoc</text>
</a>
</g>
</g>
<!-- Node19&#45;&gt;Node20 -->
<g id="edge23" class="edge">
<title>Node19&#45;&gt;Node20</title>
<path fill="none" stroke="midnightblue" d="M946.54,-118.83C938.16,-119.36 929.59,-119.9 921.3,-120.43"/>
<polygon fill="midnightblue" stroke="midnightblue" points="946.88,-122.31 956.64,-118.19 946.43,-115.33 946.88,-122.31"/>
</g>
<!-- Node21 -->
<g id="node21" class="node">
<title>Node21</title>
<g id="a_node21"><a xlink:href="heredoc_8c.html#a0b4a5d07e8877b06b8977b47a6d51930" target="_top" xlink:title="it&#39;s where we open the heredoc and start writing inside our pipe each time we check if it&#39;s the word ...">
<polygon fill="none" stroke="black" points="682.5,-133.46 682.5,-152.46 768.5,-152.46 768.5,-133.46 682.5,-133.46"/>
<text text-anchor="middle" x="725.5" y="-140.46" font-family="Helvetica,sans-Serif" font-size="10.00">heredoc_input</text>
</a>
</g>
</g>
<!-- Node20&#45;&gt;Node21 -->
<g id="edge24" class="edge">
<title>Node20&#45;&gt;Node21</title>
<path fill="none" stroke="midnightblue" d="M797.6,-133.1C787.77,-134.46 777.88,-135.84 768.72,-137.11"/>
<polygon fill="midnightblue" stroke="midnightblue" points="798.35,-136.53 807.78,-131.69 797.39,-129.6 798.35,-136.53"/>
</g>
<!-- Node22 -->
<g id="node22" class="node">
<title>Node22</title>
<g id="a_node22"><a xlink:href="heredoc_8c.html#a17337782f10170a6f2f9188bf557de0f" target="_top" xlink:title="the function will go through all the commands and check the redirection if we encounter a heredoc we ...">
<polygon fill="none" stroke="black" points="512,-143.46 512,-162.46 643,-162.46 643,-143.46 512,-143.46"/>
<text text-anchor="middle" x="577.5" y="-150.46" font-family="Helvetica,sans-Serif" font-size="10.00">here_doc_management</text>
</a>
</g>
</g>
<!-- Node21&#45;&gt;Node22 -->
<g id="edge25" class="edge">
<title>Node21&#45;&gt;Node22</title>
<path fill="none" stroke="midnightblue" d="M672.28,-146.54C662.85,-147.18 652.92,-147.86 643.19,-148.53"/>
<polygon fill="midnightblue" stroke="midnightblue" points="672.53,-150.03 682.27,-145.85 672.05,-143.05 672.53,-150.03"/>
</g>
<!-- Node22&#45;&gt;Node9 -->
<g id="edge26" class="edge">
<title>Node22&#45;&gt;Node9</title>
<path fill="none" stroke="midnightblue" d="M501.87,-150.14C450.09,-147.53 379.61,-142.69 318,-133.96 301.4,-131.61 283.27,-127.99 267.67,-124.54"/>
<polygon fill="midnightblue" stroke="midnightblue" points="501.81,-153.64 511.97,-150.63 502.15,-146.65 501.81,-153.64"/>
</g>
<!-- Node22&#45;&gt;Node13 -->
<g id="edge27" class="edge">
<title>Node22&#45;&gt;Node13</title>
<path fill="none" stroke="midnightblue" d="M522.9,-139.62C519.1,-137.94 515.43,-136.06 512,-133.96 492.16,-121.81 496.12,-107.64 476,-95.96 465.63,-89.95 453.43,-85.83 441.79,-83.01"/>
<polygon fill="midnightblue" stroke="midnightblue" points="521.9,-142.99 532.49,-143.4 524.47,-136.48 521.9,-142.99"/>
</g>
</g>
</svg>
        <g id="navigator" transform="translate(0 0)" fill="#404254">
                <rect fill="#f2f5e9" fill-opacity="0.5" stroke="#606060" stroke-width=".5" x="0" y="0" width="60" height="60"/>
                <use id="zoomplus" xlink:href="#zoomPlus" x="17" y="9" onmousedown="handleZoom(evt,'in')"/>
                <use id="zoomminus" xlink:href="#zoomMin" x="42" y="9" onmousedown="handleZoom(evt,'out')"/>
                <use id="reset" xlink:href="#resetDef" x="30" y="36" onmousedown="handleReset()"/>
                <g id="arrowUp" xlink:href="#dirArrow" transform="translate(30 24)" onmousedown="handlePan(0,-1)">
                  <use xlink:href="#rim" fill="#404040">
                        <set attributeName="fill" to="#808080" begin="arrowUp.mouseover" end="arrowUp.mouseout"/>
                  </use>
                  <path fill="none" stroke="white" stroke-width="1.5" d="M0,-3.0v7 M-2.5,-0.5L0,-3.0L2.5,-0.5"/>
                </g>
                <g id="arrowRight" xlink:href="#dirArrow" transform="rotate(90) translate(36 -43)" onmousedown="handlePan(1,0)">
                  <use xlink:href="#rim" fill="#404040">
                        <set attributeName="fill" to="#808080" begin="arrowRight.mouseover" end="arrowRight.mouseout"/>
                  </use>
                  <path fill="none" stroke="white" stroke-width="1.5" d="M0,-3.0v7 M-2.5,-0.5L0,-3.0L2.5,-0.5"/>
                </g>
                <g id="arrowDown" xlink:href="#dirArrow" transform="rotate(180) translate(-30 -48)" onmousedown="handlePan(0,1)">
                  <use xlink:href="#rim" fill="#404040">
                        <set attributeName="fill" to="#808080" begin="arrowDown.mouseover" end="arrowDown.mouseout"/>
                  </use>
                  <path fill="none" stroke="white" stroke-width="1.5" d="M0,-3.0v7 M-2.5,-0.5L0,-3.0L2.5,-0.5"/>
                </g>
                <g id="arrowLeft" xlink:href="#dirArrow" transform="rotate(270) translate(-36 17)" onmousedown="handlePan(-1,0)">
                  <use xlink:href="#rim" fill="#404040">
                        <set attributeName="fill" to="#808080" begin="arrowLeft.mouseover" end="arrowLeft.mouseout"/>
                  </use>
                  <path fill="none" stroke="white" stroke-width="1.5" d="M0,-3.0v7 M-2.5,-0.5L0,-3.0L2.5,-0.5"/>
                </g>
        </g>
        <svg viewBox="0 0 15 15" width="100%" height="30px" preserveAspectRatio="xMaxYMin meet">
         <g id="arrow_out" transform="scale(0.3 0.3)">
          <a xlink:href="lst__env__two_8c_a8cd6579fc3858072521e55ef235a2637_icgraph_org.svg" target="_base">
           <rect id="button" ry="5" rx="5" y="6" x="6" height="38" width="38"
                fill="#f2f5e9" fill-opacity="0.5" stroke="#606060" stroke-width="1.0"/>
           <path id="arrow"
             d="M 11.500037,31.436501 C 11.940474,20.09759 22.043105,11.32322 32.158766,21.979434 L 37.068811,17.246167 C 37.068811,17.246167 37.088388,32 37.088388,32 L 22.160133,31.978069 C 22.160133,31.978069 26.997745,27.140456 26.997745,27.140456 C 18.528582,18.264221 13.291696,25.230495 11.500037,31.436501 z"
             style="fill:#404040;"/>
          </a>
         </g>
        </svg>
</svg>
