<?xml version="1.0" encoding="UTF-8" standalone="no"?>
<!DOCTYPE svg PUBLIC "-//W3C//DTD SVG 1.1//EN"
 "http://www.w3.org/Graphics/SVG/1.1/DTD/svg11.dtd">
<!-- Generated by graphviz version 2.43.0 (0)
 -->
<!-- Title: research_key_env Pages: 1 -->
<svg width="308pt" height="104pt"
 viewBox="0.00 0.00 308.00 104.00" xmlns="http://www.w3.org/2000/svg" xmlns:xlink="http://www.w3.org/1999/xlink">
<g id="graph0" class="graph" transform="scale(1 1) rotate(0) translate(4 100)">
<title>research_key_env</title>
<!-- Node1 -->
<g id="node1" class="node">
<title>Node1</title>
<g id="a_node1"><a xlink:title=" ">
<polygon fill="#bfbfbf" stroke="black" points="0,-38.5 0,-57.5 104,-57.5 104,-38.5 0,-38.5"/>
<text text-anchor="middle" x="52" y="-45.5" font-family="Helvetica,sans-Serif" font-size="10.00">research_key_env</text>
</a>
</g>
</g>
<!-- Node2 -->
<g id="node2" class="node">
<title>Node2</title>
<g id="a_node2"><a xlink:href="ft__strdup_8c.html#aeab425f44e9a04e54160d60d3c9e870c" target="_top" xlink:title=" ">
<polygon fill="none" stroke="black" points="144.5,-76.5 144.5,-95.5 203.5,-95.5 203.5,-76.5 144.5,-76.5"/>
<text text-anchor="middle" x="174" y="-83.5" font-family="Helvetica,sans-Serif" font-size="10.00">ft_strdup</text>
</a>
</g>
</g>
<!-- Node1&#45;&gt;Node2 -->
<g id="edge1" class="edge">
<title>Node1&#45;&gt;Node2</title>
<path fill="none" stroke="midnightblue" d="M83.28,-57.59C98.81,-62.51 117.88,-68.55 134.45,-73.79"/>
<polygon fill="midnightblue" stroke="midnightblue" points="133.79,-77.26 144.38,-76.94 135.9,-70.58 133.79,-77.26"/>
</g>
<!-- Node3 -->
<g id="node3" class="node">
<title>Node3</title>
<g id="a_node3"><a xlink:href="ft__strlen_8c.html#a828402378653640f545a4be2e00e92f9" target="_top" xlink:title=" ">
<polygon fill="none" stroke="black" points="244,-57.5 244,-76.5 300,-76.5 300,-57.5 244,-57.5"/>
<text text-anchor="middle" x="272" y="-64.5" font-family="Helvetica,sans-Serif" font-size="10.00">ft_strlen</text>
</a>
</g>
</g>
<!-- Node1&#45;&gt;Node3 -->
<g id="edge3" class="edge">
<title>Node1&#45;&gt;Node3</title>
<path fill="none" stroke="midnightblue" d="M104.11,-52.45C143.86,-55.92 198.07,-60.64 233.78,-63.76"/>
<polygon fill="midnightblue" stroke="midnightblue" points="233.51,-67.25 243.78,-64.63 234.12,-60.27 233.51,-67.25"/>
</g>
<!-- Node4 -->
<g id="node4" class="node">
<title>Node4</title>
<g id="a_node4"><a xlink:href="ft__strncmp_8c.html#a9d2fe792187aa4ed08e5864fb2c4d6dc" target="_top" xlink:title=" ">
<polygon fill="none" stroke="black" points="140,-0.5 140,-19.5 208,-19.5 208,-0.5 140,-0.5"/>
<text text-anchor="middle" x="174" y="-7.5" font-family="Helvetica,sans-Serif" font-size="10.00">ft_strncmp</text>
</a>
</g>
</g>
<!-- Node1&#45;&gt;Node4 -->
<g id="edge4" class="edge">
<title>Node1&#45;&gt;Node4</title>
<path fill="none" stroke="midnightblue" d="M83.28,-38.41C98.35,-33.64 116.75,-27.81 132.97,-22.68"/>
<polygon fill="midnightblue" stroke="midnightblue" points="134.25,-25.94 142.73,-19.59 132.14,-19.27 134.25,-25.94"/>
</g>
<!-- Node2&#45;&gt;Node3 -->
<g id="edge2" class="edge">
<title>Node2&#45;&gt;Node3</title>
<path fill="none" stroke="midnightblue" d="M203.54,-80.35C212.98,-78.48 223.62,-76.38 233.62,-74.4"/>
<polygon fill="midnightblue" stroke="midnightblue" points="234.59,-77.77 243.72,-72.4 233.23,-70.91 234.59,-77.77"/>
</g>
</g>
</svg>
