<?xml version="1.0" encoding="UTF-8" standalone="no"?>
<!DOCTYPE svg PUBLIC "-//W3C//DTD SVG 1.1//EN"
 "http://www.w3.org/Graphics/SVG/1.1/DTD/svg11.dtd">
<!-- Generated by graphviz version 2.43.0 (0)
 -->
<!-- Title: pop_redir Pages: 1 -->
<svg width="1719pt" height="635pt"
 viewBox="0.00 0.00 1719.00 635.29" xmlns="http://www.w3.org/2000/svg" xmlns:xlink="http://www.w3.org/1999/xlink">
<g id="graph0" class="graph" transform="scale(1 1) rotate(0) translate(4 631.29)">
<title>pop_redir</title>
<!-- Node1 -->
<g id="node1" class="node">
<title>Node1</title>
<g id="a_node1"><a xlink:title=" ">
<polygon fill="#bfbfbf" stroke="black" points="1649,-437.5 1649,-456.5 1711,-456.5 1711,-437.5 1649,-437.5"/>
<text text-anchor="middle" x="1680" y="-444.5" font-family="Helvetica,sans-Serif" font-size="10.00">pop_redir</text>
</a>
</g>
</g>
<!-- Node2 -->
<g id="node2" class="node">
<title>Node2</title>
<g id="a_node2"><a xlink:href="lst__redir2_8c.html#a30ccaf401a4f897e48ead5fe54f4b307" target="_top" xlink:title=" ">
<polygon fill="none" stroke="black" points="1519,-437.5 1519,-456.5 1613,-456.5 1613,-437.5 1519,-437.5"/>
<text text-anchor="middle" x="1566" y="-444.5" font-family="Helvetica,sans-Serif" font-size="10.00">destructor_redir</text>
</a>
</g>
</g>
<!-- Node1&#45;&gt;Node2 -->
<g id="edge1" class="edge">
<title>Node1&#45;&gt;Node2</title>
<path fill="none" stroke="midnightblue" d="M1638.78,-447C1630.46,-447 1621.64,-447 1613.13,-447"/>
<polygon fill="midnightblue" stroke="midnightblue" points="1638.99,-450.5 1648.99,-447 1638.99,-443.5 1638.99,-450.5"/>
</g>
<!-- Node3 -->
<g id="node3" class="node">
<title>Node3</title>
<g id="a_node3"><a xlink:href="lst__cmd2_8c.html#a8e2b63759f149b547e0d07f210ede9b3" target="_top" xlink:title=" ">
<polygon fill="none" stroke="black" points="1422,-437.5 1422,-456.5 1483,-456.5 1483,-437.5 1422,-437.5"/>
<text text-anchor="middle" x="1452.5" y="-444.5" font-family="Helvetica,sans-Serif" font-size="10.00">pop_cmd</text>
</a>
</g>
</g>
<!-- Node2&#45;&gt;Node3 -->
<g id="edge2" class="edge">
<title>Node2&#45;&gt;Node3</title>
<path fill="none" stroke="midnightblue" d="M1508.5,-447C1499.78,-447 1491.1,-447 1483.28,-447"/>
<polygon fill="midnightblue" stroke="midnightblue" points="1508.68,-450.5 1518.68,-447 1508.68,-443.5 1508.68,-450.5"/>
</g>
<!-- Node4 -->
<g id="node4" class="node">
<title>Node4</title>
<g id="a_node4"><a xlink:href="lst__cmd2_8c.html#a132395876bb5a7cfe926b9e37571a1e3" target="_top" xlink:title=" ">
<polygon fill="none" stroke="black" points="1294,-437.5 1294,-456.5 1386,-456.5 1386,-437.5 1294,-437.5"/>
<text text-anchor="middle" x="1340" y="-444.5" font-family="Helvetica,sans-Serif" font-size="10.00">destructor_cmd</text>
</a>
</g>
</g>
<!-- Node3&#45;&gt;Node4 -->
<g id="edge3" class="edge">
<title>Node3&#45;&gt;Node4</title>
<path fill="none" stroke="midnightblue" d="M1411.7,-447C1403.39,-447 1394.57,-447 1386.09,-447"/>
<polygon fill="midnightblue" stroke="midnightblue" points="1411.89,-450.5 1421.89,-447 1411.89,-443.5 1411.89,-450.5"/>
</g>
<!-- Node5 -->
<g id="node5" class="node">
<title>Node5</title>
<g id="a_node5"><a xlink:href="heredoc_8c.html#a98f0cdaa70ea9d777053df568b66e32a" target="_top" xlink:title="the function to call what the child has to do main reason for this function =&gt; the norm">
<polygon fill="none" stroke="black" points="1002,-570.5 1002,-589.5 1115,-589.5 1115,-570.5 1002,-570.5"/>
<text text-anchor="middle" x="1058.5" y="-577.5" font-family="Helvetica,sans-Serif" font-size="10.00">child_work_heredoc</text>
</a>
</g>
</g>
<!-- Node4&#45;&gt;Node5 -->
<g id="edge4" class="edge">
<title>Node4&#45;&gt;Node5</title>
<path fill="none" stroke="midnightblue" d="M1323.43,-464.29C1308.17,-480.28 1283.55,-503.66 1258,-518 1210.93,-544.41 1151.14,-561.12 1109.54,-570.45"/>
<polygon fill="midnightblue" stroke="midnightblue" points="1326.25,-466.4 1330.5,-456.69 1321.13,-461.63 1326.25,-466.4"/>
</g>
<!-- Node10 -->
<g id="node10" class="node">
<title>Node10</title>
<g id="a_node10"><a xlink:href="main_8c.html#a647f21a28344e1d9c643f4115516d7c9" target="_top" xlink:title=" ">
<polygon fill="none" stroke="black" points="0,-418.5 0,-437.5 41,-437.5 41,-418.5 0,-418.5"/>
<text text-anchor="middle" x="20.5" y="-425.5" font-family="Helvetica,sans-Serif" font-size="10.00">main</text>
</a>
</g>
</g>
<!-- Node4&#45;&gt;Node10 -->
<g id="edge30" class="edge">
<title>Node4&#45;&gt;Node10</title>
<path fill="none" stroke="midnightblue" d="M1334.88,-466.51C1326.68,-499.97 1304.93,-567.69 1258,-599 1184.27,-648.18 1148.13,-618 1059.5,-618 1059.5,-618 1059.5,-618 254,-618 138.8,-618 49.23,-476.4 26.89,-437.68"/>
<polygon fill="midnightblue" stroke="midnightblue" points="1338.33,-467.11 1337.15,-456.58 1331.51,-465.55 1338.33,-467.11"/>
</g>
<!-- Node12 -->
<g id="node12" class="node">
<title>Node12</title>
<g id="a_node12"><a xlink:href="multipipe_8c.html#a461ae962ce9a1aee7221ac4b9c581f98" target="_top" xlink:title=" ">
<polygon fill="none" stroke="black" points="694,-494.5 694,-513.5 777,-513.5 777,-494.5 694,-494.5"/>
<text text-anchor="middle" x="735.5" y="-501.5" font-family="Helvetica,sans-Serif" font-size="10.00">execute_child</text>
</a>
</g>
</g>
<!-- Node4&#45;&gt;Node12 -->
<g id="edge12" class="edge">
<title>Node4&#45;&gt;Node12</title>
<path fill="none" stroke="midnightblue" d="M1313.54,-461.44C1297.97,-469.63 1277.39,-479.34 1258,-485 1077.66,-537.65 1024.05,-540.53 837,-523 817.2,-521.14 795.49,-517.28 777.33,-513.51"/>
<polygon fill="midnightblue" stroke="midnightblue" points="1315.39,-464.42 1322.53,-456.59 1312.07,-458.26 1315.39,-464.42"/>
</g>
<!-- Node14 -->
<g id="node14" class="node">
<title>Node14</title>
<g id="a_node14"><a xlink:href="expand__word_8c.html#a435189c48cf5cbf3527b73c50ca8ee4b" target="_top" xlink:title=" ">
<polygon fill="none" stroke="black" points="1152.5,-323.5 1152.5,-342.5 1256.5,-342.5 1256.5,-323.5 1152.5,-323.5"/>
<text text-anchor="middle" x="1204.5" y="-330.5" font-family="Helvetica,sans-Serif" font-size="10.00">exit_expand_fatal</text>
</a>
</g>
</g>
<!-- Node4&#45;&gt;Node14 -->
<g id="edge15" class="edge">
<title>Node4&#45;&gt;Node14</title>
<path fill="none" stroke="midnightblue" d="M1320.63,-430.59C1304.31,-416.08 1279.75,-394.43 1258,-376 1244.34,-364.42 1228.39,-351.43 1217.69,-342.79"/>
<polygon fill="midnightblue" stroke="midnightblue" points="1318.56,-433.43 1328.36,-437.47 1323.22,-428.2 1318.56,-433.43"/>
</g>
<!-- Node22 -->
<g id="node22" class="node">
<title>Node22</title>
<g id="a_node22"><a xlink:href="expand_8c.html#aa18c8661b304a521d512b7acc7d7a1cb" target="_top" xlink:title=" ">
<polygon fill="none" stroke="black" points="340.5,-380.5 340.5,-399.5 431.5,-399.5 431.5,-380.5 340.5,-380.5"/>
<text text-anchor="middle" x="386" y="-387.5" font-family="Helvetica,sans-Serif" font-size="10.00">exp_redir_error</text>
</a>
</g>
</g>
<!-- Node4&#45;&gt;Node22 -->
<g id="edge28" class="edge">
<title>Node4&#45;&gt;Node22</title>
<path fill="none" stroke="midnightblue" d="M1301.54,-434.36C1248.37,-417.57 1147.66,-390 1059.5,-390 1059.5,-390 1059.5,-390 734.5,-390 625.76,-390 497.87,-390 431.71,-390"/>
<polygon fill="midnightblue" stroke="midnightblue" points="1300.62,-437.74 1311.22,-437.46 1302.76,-431.07 1300.62,-437.74"/>
</g>
<!-- Node23 -->
<g id="node23" class="node">
<title>Node23</title>
<g id="a_node23"><a xlink:href="exit_8c.html#adcbec3416f97b2d0b8d53cf4c2b2a436" target="_top" xlink:title=" ">
<polygon fill="none" stroke="black" points="1176.5,-456.5 1176.5,-475.5 1232.5,-475.5 1232.5,-456.5 1176.5,-456.5"/>
<text text-anchor="middle" x="1204.5" y="-463.5" font-family="Helvetica,sans-Serif" font-size="10.00">my_exit</text>
</a>
</g>
</g>
<!-- Node4&#45;&gt;Node23 -->
<g id="edge31" class="edge">
<title>Node4&#45;&gt;Node23</title>
<path fill="none" stroke="midnightblue" d="M1283.62,-454.88C1266.06,-457.38 1247.41,-460.04 1232.74,-462.12"/>
<polygon fill="midnightblue" stroke="midnightblue" points="1284.4,-458.31 1293.8,-453.43 1283.41,-451.38 1284.4,-458.31"/>
</g>
<!-- Node26 -->
<g id="node26" class="node">
<title>Node26</title>
<g id="a_node26"><a xlink:href="execution_8c.html#aa6f3ac2f0c10538c125eafcb587fd021" target="_top" xlink:title="in this function we do the fork to create a child process we do the redirection if we need to">
<polygon fill="none" stroke="black" points="671.5,-418.5 671.5,-437.5 799.5,-437.5 799.5,-418.5 671.5,-418.5"/>
<text text-anchor="middle" x="735.5" y="-425.5" font-family="Helvetica,sans-Serif" font-size="10.00">one_command_execve</text>
</a>
</g>
</g>
<!-- Node4&#45;&gt;Node26 -->
<g id="edge38" class="edge">
<title>Node4&#45;&gt;Node26</title>
<path fill="none" stroke="midnightblue" d="M1283.63,-445.25C1171.43,-441.72 917.91,-433.72 799.56,-429.99"/>
<polygon fill="midnightblue" stroke="midnightblue" points="1283.61,-448.75 1293.71,-445.57 1283.83,-441.76 1283.61,-448.75"/>
</g>
<!-- Node27 -->
<g id="node27" class="node">
<title>Node27</title>
<g id="a_node27"><a xlink:href="parser_8c.html#a3902c1c0f51a35acf377da51345103b7" target="_top" xlink:title=" ">
<polygon fill="none" stroke="black" points="1155,-76.5 1155,-95.5 1254,-95.5 1254,-76.5 1155,-76.5"/>
<text text-anchor="middle" x="1204.5" y="-83.5" font-family="Helvetica,sans-Serif" font-size="10.00">parser_exit_fatal</text>
</a>
</g>
</g>
<!-- Node4&#45;&gt;Node27 -->
<g id="edge39" class="edge">
<title>Node4&#45;&gt;Node27</title>
<path fill="none" stroke="midnightblue" d="M1331.87,-427.72C1307.33,-361.35 1226.85,-143.74 1209.02,-95.52"/>
<polygon fill="midnightblue" stroke="midnightblue" points="1328.68,-429.18 1335.43,-437.34 1335.24,-426.75 1328.68,-429.18"/>
</g>
<!-- Node32 -->
<g id="node32" class="node">
<title>Node32</title>
<g id="a_node32"><a xlink:href="parsing__error_8c.html#a6507bf5fc88fbdbe6bf5be24ec314bd8" target="_top" xlink:title=" ">
<polygon fill="none" stroke="black" points="1151,-237.5 1151,-256.5 1258,-256.5 1258,-237.5 1151,-237.5"/>
<text text-anchor="middle" x="1204.5" y="-244.5" font-family="Helvetica,sans-Serif" font-size="10.00">parsing_destructor</text>
</a>
</g>
</g>
<!-- Node4&#45;&gt;Node32 -->
<g id="edge49" class="edge">
<title>Node4&#45;&gt;Node32</title>
<path fill="none" stroke="midnightblue" d="M1328.71,-428.6C1313.93,-402.53 1285.44,-353.61 1258,-314 1243.36,-292.86 1224.37,-269.51 1213.7,-256.71"/>
<polygon fill="midnightblue" stroke="midnightblue" points="1325.72,-430.41 1333.68,-437.41 1331.81,-426.98 1325.72,-430.41"/>
</g>
<!-- Node34 -->
<g id="node34" class="node">
<title>Node34</title>
<g id="a_node34"><a xlink:href="heredoc_8c.html#aa11261ffe1d93fd87488514776e2df34" target="_top" xlink:title=" ">
<polygon fill="none" stroke="black" points="1153,-570.5 1153,-589.5 1256,-589.5 1256,-570.5 1153,-570.5"/>
<text text-anchor="middle" x="1204.5" y="-577.5" font-family="Helvetica,sans-Serif" font-size="10.00">read_gnl_heredoc</text>
</a>
</g>
</g>
<!-- Node4&#45;&gt;Node34 -->
<g id="edge52" class="edge">
<title>Node4&#45;&gt;Node34</title>
<path fill="none" stroke="midnightblue" d="M1329.04,-465.75C1315.63,-489.47 1289.75,-530.31 1258,-556 1250.68,-561.93 1241.65,-566.74 1233.16,-570.45"/>
<polygon fill="midnightblue" stroke="midnightblue" points="1332.25,-467.18 1334,-456.73 1326.11,-463.8 1332.25,-467.18"/>
</g>
<!-- Node6 -->
<g id="node6" class="node">
<title>Node6</title>
<g id="a_node6"><a xlink:href="heredoc_8c.html#a0b4a5d07e8877b06b8977b47a6d51930" target="_top" xlink:title="it&#39;s where we open the heredoc and start writing inside our pipe each time we check if it&#39;s the word ...">
<polygon fill="none" stroke="black" points="858.5,-570.5 858.5,-589.5 944.5,-589.5 944.5,-570.5 858.5,-570.5"/>
<text text-anchor="middle" x="901.5" y="-577.5" font-family="Helvetica,sans-Serif" font-size="10.00">heredoc_input</text>
</a>
</g>
</g>
<!-- Node5&#45;&gt;Node6 -->
<g id="edge5" class="edge">
<title>Node5&#45;&gt;Node6</title>
<path fill="none" stroke="midnightblue" d="M991.62,-580C975.65,-580 959.02,-580 944.5,-580"/>
<polygon fill="midnightblue" stroke="midnightblue" points="991.98,-583.5 1001.98,-580 991.98,-576.5 991.98,-583.5"/>
</g>
<!-- Node7 -->
<g id="node7" class="node">
<title>Node7</title>
<g id="a_node7"><a xlink:href="heredoc_8c.html#a17337782f10170a6f2f9188bf557de0f" target="_top" xlink:title="the function will go through all the commands and check the redirection if we encounter a heredoc we ...">
<polygon fill="none" stroke="black" points="670,-532.5 670,-551.5 801,-551.5 801,-532.5 670,-532.5"/>
<text text-anchor="middle" x="735.5" y="-539.5" font-family="Helvetica,sans-Serif" font-size="10.00">here_doc_management</text>
</a>
</g>
</g>
<!-- Node6&#45;&gt;Node7 -->
<g id="edge6" class="edge">
<title>Node6&#45;&gt;Node7</title>
<path fill="none" stroke="midnightblue" d="M849.16,-568.1C826.11,-562.76 799.28,-556.55 777.59,-551.52"/>
<polygon fill="midnightblue" stroke="midnightblue" points="848.58,-571.56 859.12,-570.41 850.16,-564.74 848.58,-571.56"/>
</g>
<!-- Node8 -->
<g id="node8" class="node">
<title>Node8</title>
<g id="a_node8"><a xlink:href="multipipe_8c.html#aa4f1c217eeb689ecbc622baecd2c5dec" target="_top" xlink:title="management of the multipipe (= name when we have at least one pipe) First step is to manage the hered...">
<polygon fill="none" stroke="black" points="341.5,-494.5 341.5,-513.5 430.5,-513.5 430.5,-494.5 341.5,-494.5"/>
<text text-anchor="middle" x="386" y="-501.5" font-family="Helvetica,sans-Serif" font-size="10.00">multipipe_cmd</text>
</a>
</g>
</g>
<!-- Node7&#45;&gt;Node8 -->
<g id="edge7" class="edge">
<title>Node7&#45;&gt;Node8</title>
<path fill="none" stroke="midnightblue" d="M659.87,-539.22C608.08,-536.63 537.6,-531.8 476,-523 459.58,-520.65 441.65,-517.04 426.22,-513.59"/>
<polygon fill="midnightblue" stroke="midnightblue" points="659.81,-542.72 669.97,-539.71 660.15,-535.73 659.81,-542.72"/>
</g>
<!-- Node11 -->
<g id="node11" class="node">
<title>Node11</title>
<g id="a_node11"><a xlink:href="execution_8c.html#a38335028b2bc7aa436f8f79a3753ce5e" target="_top" xlink:title="here we check if it&#39;s a builtin where we have to fork or not we still need to do the redirection veri...">
<polygon fill="none" stroke="black" points="510.5,-456.5 510.5,-475.5 599.5,-475.5 599.5,-456.5 510.5,-456.5"/>
<text text-anchor="middle" x="555" y="-463.5" font-family="Helvetica,sans-Serif" font-size="10.00">one_command</text>
</a>
</g>
</g>
<!-- Node7&#45;&gt;Node11 -->
<g id="edge10" class="edge">
<title>Node7&#45;&gt;Node11</title>
<path fill="none" stroke="midnightblue" d="M680.9,-528.66C677.1,-526.98 673.43,-525.1 670,-523 650.16,-510.85 654.12,-496.67 634,-485 623.63,-478.99 611.43,-474.87 599.79,-472.05"/>
<polygon fill="midnightblue" stroke="midnightblue" points="679.9,-532.03 690.49,-532.43 682.47,-525.52 679.9,-532.03"/>
</g>
<!-- Node9 -->
<g id="node9" class="node">
<title>Node9</title>
<g id="a_node9"><a xlink:href="execution_8c.html#a9542b61daba3eb4d45c8887c5648b2f6" target="_top" xlink:title="first function of the execution part when we have something to do we have to deal with two cases ; if...">
<polygon fill="none" stroke="black" points="225.5,-456.5 225.5,-475.5 284.5,-475.5 284.5,-456.5 225.5,-456.5"/>
<text text-anchor="middle" x="255" y="-463.5" font-family="Helvetica,sans-Serif" font-size="10.00">executor</text>
</a>
</g>
</g>
<!-- Node8&#45;&gt;Node9 -->
<g id="edge8" class="edge">
<title>Node8&#45;&gt;Node9</title>
<path fill="none" stroke="midnightblue" d="M342.79,-491.57C323.72,-485.95 301.68,-479.46 284.59,-474.42"/>
<polygon fill="midnightblue" stroke="midnightblue" points="341.87,-494.94 352.45,-494.41 343.84,-488.23 341.87,-494.94"/>
</g>
<!-- Node9&#45;&gt;Node10 -->
<g id="edge9" class="edge">
<title>Node9&#45;&gt;Node10</title>
<path fill="none" stroke="midnightblue" d="M215.35,-459.68C165.16,-451.48 79.46,-437.47 41.08,-431.2"/>
<polygon fill="midnightblue" stroke="midnightblue" points="215.06,-463.18 225.49,-461.34 216.19,-456.27 215.06,-463.18"/>
</g>
<!-- Node11&#45;&gt;Node9 -->
<g id="edge11" class="edge">
<title>Node11&#45;&gt;Node9</title>
<path fill="none" stroke="midnightblue" d="M500.15,-466C436.83,-466 334.06,-466 284.51,-466"/>
<polygon fill="midnightblue" stroke="midnightblue" points="500.35,-469.5 510.35,-466 500.35,-462.5 500.35,-469.5"/>
</g>
<!-- Node13 -->
<g id="node13" class="node">
<title>Node13</title>
<g id="a_node13"><a xlink:href="multipipe_8c.html#af31c329200501f497cd102a470450103" target="_top" xlink:title="it&#39;s where the fork happen and sent to be execute">
<polygon fill="none" stroke="black" points="476,-494.5 476,-513.5 634,-513.5 634,-494.5 476,-494.5"/>
<text text-anchor="middle" x="555" y="-501.5" font-family="Helvetica,sans-Serif" font-size="10.00">multipipe_intermediary_cmd</text>
</a>
</g>
</g>
<!-- Node12&#45;&gt;Node13 -->
<g id="edge13" class="edge">
<title>Node12&#45;&gt;Node13</title>
<path fill="none" stroke="midnightblue" d="M683.68,-504C668.31,-504 651.06,-504 634.33,-504"/>
<polygon fill="midnightblue" stroke="midnightblue" points="684,-507.5 694,-504 684,-500.5 684,-507.5"/>
</g>
<!-- Node13&#45;&gt;Node8 -->
<g id="edge14" class="edge">
<title>Node13&#45;&gt;Node8</title>
<path fill="none" stroke="midnightblue" d="M465.73,-504C453.65,-504 441.71,-504 430.92,-504"/>
<polygon fill="midnightblue" stroke="midnightblue" points="465.88,-507.5 475.88,-504 465.88,-500.5 465.88,-507.5"/>
</g>
<!-- Node15 -->
<g id="node15" class="node">
<title>Node15</title>
<g id="a_node15"><a xlink:href="expand__dollar_8c.html#af17c527615f14d68b20a8edf80264943" target="_top" xlink:title=" ">
<polygon fill="none" stroke="black" points="1024.5,-247.5 1024.5,-266.5 1092.5,-266.5 1092.5,-247.5 1024.5,-247.5"/>
<text text-anchor="middle" x="1058.5" y="-254.5" font-family="Helvetica,sans-Serif" font-size="10.00">exit_dollar</text>
</a>
</g>
</g>
<!-- Node14&#45;&gt;Node15 -->
<g id="edge16" class="edge">
<title>Node14&#45;&gt;Node15</title>
<path fill="none" stroke="midnightblue" d="M1176.11,-318.54C1147.18,-303.28 1102.4,-279.64 1077.59,-266.55"/>
<polygon fill="midnightblue" stroke="midnightblue" points="1174.78,-321.8 1185.26,-323.37 1178.05,-315.61 1174.78,-321.8"/>
</g>
<!-- Node18 -->
<g id="node18" class="node">
<title>Node18</title>
<g id="a_node18"><a xlink:href="expand__word_8c.html#a051bcabe3f6edf5f6d234199cea49f48" target="_top" xlink:title=" ">
<polygon fill="none" stroke="black" points="332,-304.5 332,-323.5 440,-323.5 440,-304.5 332,-304.5"/>
<text text-anchor="middle" x="386" y="-311.5" font-family="Helvetica,sans-Serif" font-size="10.00">expand_word_loop</text>
</a>
</g>
</g>
<!-- Node14&#45;&gt;Node18 -->
<g id="edge27" class="edge">
<title>Node14&#45;&gt;Node18</title>
<path fill="none" stroke="midnightblue" d="M1142.25,-326.86C1081.48,-321.31 985.66,-314 902.5,-314 902.5,-314 902.5,-314 734.5,-314 630.28,-314 508.48,-314 440.28,-314"/>
<polygon fill="midnightblue" stroke="midnightblue" points="1142.15,-330.37 1152.43,-327.81 1142.8,-323.4 1142.15,-330.37"/>
</g>
<!-- Node19 -->
<g id="node19" class="node">
<title>Node19</title>
<g id="a_node19"><a xlink:href="expand__word_8c.html#a0ec378990f411456436a9bb6a71babfc" target="_top" xlink:title="Scans the word to dequote/expand and build correct output.">
<polygon fill="none" stroke="black" points="214,-342.5 214,-361.5 296,-361.5 296,-342.5 214,-342.5"/>
<text text-anchor="middle" x="255" y="-349.5" font-family="Helvetica,sans-Serif" font-size="10.00">expand_word</text>
</a>
</g>
</g>
<!-- Node14&#45;&gt;Node19 -->
<g id="edge26" class="edge">
<title>Node14&#45;&gt;Node19</title>
<path fill="none" stroke="midnightblue" d="M1142.25,-339.14C1081.48,-344.69 985.66,-352 902.5,-352 902.5,-352 902.5,-352 554,-352 461.65,-352 353.2,-352 296.01,-352"/>
<polygon fill="midnightblue" stroke="midnightblue" points="1142.8,-342.6 1152.43,-338.19 1142.15,-335.63 1142.8,-342.6"/>
</g>
<!-- Node16 -->
<g id="node16" class="node">
<title>Node16</title>
<g id="a_node16"><a xlink:href="expand__dollar_8c.html#a6d96e914be2d2db42405f61048e85370" target="_top" xlink:title=" ">
<polygon fill="none" stroke="black" points="694.5,-247.5 694.5,-266.5 776.5,-266.5 776.5,-247.5 694.5,-247.5"/>
<text text-anchor="middle" x="735.5" y="-254.5" font-family="Helvetica,sans-Serif" font-size="10.00">expand_valid</text>
</a>
</g>
</g>
<!-- Node15&#45;&gt;Node16 -->
<g id="edge17" class="edge">
<title>Node15&#45;&gt;Node16</title>
<path fill="none" stroke="midnightblue" d="M1014.06,-257C951.6,-257 837.31,-257 776.71,-257"/>
<polygon fill="midnightblue" stroke="midnightblue" points="1014.36,-260.5 1024.36,-257 1014.36,-253.5 1014.36,-260.5"/>
</g>
<!-- Node17 -->
<g id="node17" class="node">
<title>Node17</title>
<g id="a_node17"><a xlink:href="expand__dollar_8c.html#ac3e15865744ed2c1300a5cb96f24e33d" target="_top" xlink:title="Manages all possibilities with expand : $?, known and unknown env variable.">
<polygon fill="none" stroke="black" points="513.5,-247.5 513.5,-266.5 596.5,-266.5 596.5,-247.5 513.5,-247.5"/>
<text text-anchor="middle" x="555" y="-254.5" font-family="Helvetica,sans-Serif" font-size="10.00">handle_dollar</text>
</a>
</g>
</g>
<!-- Node15&#45;&gt;Node17 -->
<g id="edge25" class="edge">
<title>Node15&#45;&gt;Node17</title>
<path fill="none" stroke="midnightblue" d="M1014.27,-251.18C942.61,-242.36 794.76,-227.67 670,-238 645.5,-240.03 618.35,-244.46 596.69,-248.54"/>
<polygon fill="midnightblue" stroke="midnightblue" points="1013.92,-254.66 1024.28,-252.43 1014.79,-247.72 1013.92,-254.66"/>
</g>
<!-- Node21 -->
<g id="node21" class="node">
<title>Node21</title>
<g id="a_node21"><a xlink:href="expand__dollar_8c.html#a288ca34d78433c242163338d2e877550" target="_top" xlink:title=" ">
<polygon fill="none" stroke="black" points="837,-266.5 837,-285.5 966,-285.5 966,-266.5 837,-266.5"/>
<text text-anchor="middle" x="901.5" y="-273.5" font-family="Helvetica,sans-Serif" font-size="10.00">expand_valid_build_str</text>
</a>
</g>
</g>
<!-- Node15&#45;&gt;Node21 -->
<g id="edge23" class="edge">
<title>Node15&#45;&gt;Node21</title>
<path fill="none" stroke="midnightblue" d="M1014.28,-262.3C999.33,-264.13 982.26,-266.22 966.03,-268.21"/>
<polygon fill="midnightblue" stroke="midnightblue" points="1014.75,-265.77 1024.25,-261.08 1013.9,-258.82 1014.75,-265.77"/>
</g>
<!-- Node16&#45;&gt;Node17 -->
<g id="edge18" class="edge">
<title>Node16&#45;&gt;Node17</title>
<path fill="none" stroke="midnightblue" d="M684.16,-257C656.45,-257 622.53,-257 596.54,-257"/>
<polygon fill="midnightblue" stroke="midnightblue" points="684.44,-260.5 694.44,-257 684.44,-253.5 684.44,-260.5"/>
</g>
<!-- Node17&#45;&gt;Node18 -->
<g id="edge19" class="edge">
<title>Node17&#45;&gt;Node18</title>
<path fill="none" stroke="midnightblue" d="M516.52,-269.79C485.77,-280.29 442.89,-294.92 415.04,-304.43"/>
<polygon fill="midnightblue" stroke="midnightblue" points="517.71,-273.08 526.05,-266.54 515.45,-266.46 517.71,-273.08"/>
</g>
<!-- Node18&#45;&gt;Node19 -->
<g id="edge20" class="edge">
<title>Node18&#45;&gt;Node19</title>
<path fill="none" stroke="midnightblue" d="M342.45,-326.54C324.9,-331.7 304.89,-337.6 288.54,-342.41"/>
<polygon fill="midnightblue" stroke="midnightblue" points="343.84,-329.77 352.45,-323.59 341.87,-323.06 343.84,-329.77"/>
</g>
<!-- Node20 -->
<g id="node20" class="node">
<title>Node20</title>
<g id="a_node20"><a xlink:href="expand_8c.html#a53c53e75b0ad8c8888217cd918304b8b" target="_top" xlink:title="Iterate over every args and redir of each command to expand and dequote what needs to be.">
<polygon fill="none" stroke="black" points="77,-380.5 77,-399.5 178,-399.5 178,-380.5 77,-380.5"/>
<text text-anchor="middle" x="127.5" y="-387.5" font-family="Helvetica,sans-Serif" font-size="10.00">expand_manager</text>
</a>
</g>
</g>
<!-- Node19&#45;&gt;Node20 -->
<g id="edge21" class="edge">
<title>Node19&#45;&gt;Node20</title>
<path fill="none" stroke="midnightblue" d="M212.6,-364.54C195.53,-369.7 176.06,-375.6 160.16,-380.41"/>
<polygon fill="midnightblue" stroke="midnightblue" points="213.77,-367.84 222.33,-361.59 211.75,-361.14 213.77,-367.84"/>
</g>
<!-- Node20&#45;&gt;Node10 -->
<g id="edge22" class="edge">
<title>Node20&#45;&gt;Node10</title>
<path fill="none" stroke="midnightblue" d="M90.57,-403C73.98,-409.01 54.91,-415.91 41.03,-420.93"/>
<polygon fill="midnightblue" stroke="midnightblue" points="91.79,-406.28 100,-399.59 89.41,-399.7 91.79,-406.28"/>
</g>
<!-- Node21&#45;&gt;Node16 -->
<g id="edge24" class="edge">
<title>Node21&#45;&gt;Node16</title>
<path fill="none" stroke="midnightblue" d="M826.61,-267.44C809.46,-265.45 791.84,-263.41 776.78,-261.67"/>
<polygon fill="midnightblue" stroke="midnightblue" points="826.29,-270.93 836.62,-268.6 827.09,-263.97 826.29,-270.93"/>
</g>
<!-- Node22&#45;&gt;Node20 -->
<g id="edge29" class="edge">
<title>Node22&#45;&gt;Node20</title>
<path fill="none" stroke="midnightblue" d="M330.15,-390C285.15,-390 221.96,-390 178.36,-390"/>
<polygon fill="midnightblue" stroke="midnightblue" points="330.32,-393.5 340.32,-390 330.32,-386.5 330.32,-393.5"/>
</g>
<!-- Node24 -->
<g id="node24" class="node">
<title>Node24</title>
<g id="a_node24"><a xlink:href="launcher_8c.html#a7bee4f6fbfd70ef7ec1f52856538ac71" target="_top" xlink:title="launch the builtin &#160;&#160;some of them are not present because we have to fork() them why ?...">
<polygon fill="none" stroke="black" points="1016,-456.5 1016,-475.5 1101,-475.5 1101,-456.5 1016,-456.5"/>
<text text-anchor="middle" x="1058.5" y="-463.5" font-family="Helvetica,sans-Serif" font-size="10.00">launch_builtin</text>
</a>
</g>
</g>
<!-- Node23&#45;&gt;Node24 -->
<g id="edge32" class="edge">
<title>Node23&#45;&gt;Node24</title>
<path fill="none" stroke="midnightblue" d="M1166.18,-466C1146.28,-466 1121.72,-466 1101.19,-466"/>
<polygon fill="midnightblue" stroke="midnightblue" points="1166.41,-469.5 1176.41,-466 1166.41,-462.5 1166.41,-469.5"/>
</g>
<!-- Node24&#45;&gt;Node11 -->
<g id="edge37" class="edge">
<title>Node24&#45;&gt;Node11</title>
<path fill="none" stroke="midnightblue" d="M1005.52,-466C906.34,-466 691.76,-466 599.55,-466"/>
<polygon fill="midnightblue" stroke="midnightblue" points="1005.61,-469.5 1015.6,-466 1005.6,-462.5 1005.61,-469.5"/>
</g>
<!-- Node25 -->
<g id="node25" class="node">
<title>Node25</title>
<g id="a_node25"><a xlink:href="execution__node_8c.html#adda76b40c34c18ec83b1d98700083f8a" target="_top" xlink:title="we are going to execute the command here we have a security about absolute path given =&gt; because it&#39;s...">
<polygon fill="none" stroke="black" points="855,-494.5 855,-513.5 948,-513.5 948,-494.5 855,-494.5"/>
<text text-anchor="middle" x="901.5" y="-501.5" font-family="Helvetica,sans-Serif" font-size="10.00">execution_node</text>
</a>
</g>
</g>
<!-- Node24&#45;&gt;Node25 -->
<g id="edge33" class="edge">
<title>Node24&#45;&gt;Node25</title>
<path fill="none" stroke="midnightblue" d="M1008.39,-478.04C986.74,-483.35 961.65,-489.5 941.33,-494.48"/>
<polygon fill="midnightblue" stroke="midnightblue" points="1009.51,-481.37 1018.39,-475.59 1007.84,-474.57 1009.51,-481.37"/>
</g>
<!-- Node25&#45;&gt;Node12 -->
<g id="edge34" class="edge">
<title>Node25&#45;&gt;Node12</title>
<path fill="none" stroke="midnightblue" d="M844.56,-504C822.45,-504 797.52,-504 777.19,-504"/>
<polygon fill="midnightblue" stroke="midnightblue" points="844.82,-507.5 854.82,-504 844.82,-500.5 844.82,-507.5"/>
</g>
<!-- Node25&#45;&gt;Node26 -->
<g id="edge35" class="edge">
<title>Node25&#45;&gt;Node26</title>
<path fill="none" stroke="midnightblue" d="M870.59,-490.14C837.69,-474.9 785.72,-450.81 757.1,-437.55"/>
<polygon fill="midnightblue" stroke="midnightblue" points="869.18,-493.35 879.73,-494.37 872.13,-486.99 869.18,-493.35"/>
</g>
<!-- Node26&#45;&gt;Node11 -->
<g id="edge36" class="edge">
<title>Node26&#45;&gt;Node11</title>
<path fill="none" stroke="midnightblue" d="M679.52,-439.71C653.9,-445.16 623.84,-451.56 599.79,-456.68"/>
<polygon fill="midnightblue" stroke="midnightblue" points="680.4,-443.09 689.46,-437.59 678.95,-436.25 680.4,-443.09"/>
</g>
<!-- Node28 -->
<g id="node28" class="node">
<title>Node28</title>
<g id="a_node28"><a xlink:href="parser_8c.html#ad8a725eb1fe38bc14d96924df6878b56" target="_top" xlink:title=" ">
<polygon fill="none" stroke="black" points="866.5,-0.5 866.5,-19.5 936.5,-19.5 936.5,-0.5 866.5,-0.5"/>
<text text-anchor="middle" x="901.5" y="-7.5" font-family="Helvetica,sans-Serif" font-size="10.00">parse_cmd</text>
</a>
</g>
</g>
<!-- Node27&#45;&gt;Node28 -->
<g id="edge40" class="edge">
<title>Node27&#45;&gt;Node28</title>
<path fill="none" stroke="midnightblue" d="M1184.42,-69.78C1167.4,-56.32 1141.2,-37.99 1115,-29 1054.74,-8.31 979.53,-6.85 936.66,-8.11"/>
<polygon fill="midnightblue" stroke="midnightblue" points="1182.46,-72.7 1192.43,-76.29 1186.88,-67.27 1182.46,-72.7"/>
</g>
<!-- Node29 -->
<g id="node29" class="node">
<title>Node29</title>
<g id="a_node29"><a xlink:href="parser_8c.html#a7e8d15749e17fe4ed49f75c3c6998719" target="_top" xlink:title=" ">
<polygon fill="none" stroke="black" points="698.5,-57.5 698.5,-76.5 772.5,-76.5 772.5,-57.5 698.5,-57.5"/>
<text text-anchor="middle" x="735.5" y="-64.5" font-family="Helvetica,sans-Serif" font-size="10.00">parser_loop</text>
</a>
</g>
</g>
<!-- Node27&#45;&gt;Node29 -->
<g id="edge48" class="edge">
<title>Node27&#45;&gt;Node29</title>
<path fill="none" stroke="midnightblue" d="M1144.6,-83.96C1072.18,-81.4 945.53,-76.77 837,-72 815.71,-71.06 791.88,-69.88 772.78,-68.91"/>
<polygon fill="midnightblue" stroke="midnightblue" points="1144.76,-87.47 1154.88,-84.32 1145.01,-80.47 1144.76,-87.47"/>
</g>
<!-- Node30 -->
<g id="node30" class="node">
<title>Node30</title>
<g id="a_node30"><a xlink:href="parser_8c.html#ae22079ec4dbb24c0eb15425a8dd785bd" target="_top" xlink:title=" ">
<polygon fill="none" stroke="black" points="531.5,-133.5 531.5,-152.5 578.5,-152.5 578.5,-133.5 531.5,-133.5"/>
<text text-anchor="middle" x="555" y="-140.5" font-family="Helvetica,sans-Serif" font-size="10.00">parser</text>
</a>
</g>
</g>
<!-- Node27&#45;&gt;Node30 -->
<g id="edge47" class="edge">
<title>Node27&#45;&gt;Node30</title>
<path fill="none" stroke="midnightblue" d="M1144.65,-92.12C1134.75,-93.11 1124.59,-94.1 1115,-95 906.73,-114.53 654.52,-135.07 578.64,-141.18"/>
<polygon fill="midnightblue" stroke="midnightblue" points="1145.23,-95.57 1154.82,-91.09 1144.52,-88.61 1145.23,-95.57"/>
</g>
<!-- Node31 -->
<g id="node31" class="node">
<title>Node31</title>
<g id="a_node31"><a xlink:href="parser_8c.html#a3fb162f9c645f99a8764a678b4768f38" target="_top" xlink:title=" ">
<polygon fill="none" stroke="black" points="1023,-38.5 1023,-57.5 1094,-57.5 1094,-38.5 1023,-38.5"/>
<text text-anchor="middle" x="1058.5" y="-45.5" font-family="Helvetica,sans-Serif" font-size="10.00">parse_redir</text>
</a>
</g>
</g>
<!-- Node27&#45;&gt;Node31 -->
<g id="edge44" class="edge">
<title>Node27&#45;&gt;Node31</title>
<path fill="none" stroke="midnightblue" d="M1157.41,-73.84C1136.96,-68.44 1113.28,-62.19 1094.34,-57.19"/>
<polygon fill="midnightblue" stroke="midnightblue" points="1156.6,-77.24 1167.16,-76.41 1158.39,-70.48 1156.6,-77.24"/>
</g>
<!-- Node28&#45;&gt;Node29 -->
<g id="edge41" class="edge">
<title>Node28&#45;&gt;Node29</title>
<path fill="none" stroke="midnightblue" d="M863.3,-22.93C833.13,-33.42 791.27,-47.96 764.04,-57.43"/>
<polygon fill="midnightblue" stroke="midnightblue" points="864.75,-26.13 873.05,-19.54 862.46,-19.52 864.75,-26.13"/>
</g>
<!-- Node29&#45;&gt;Node30 -->
<g id="edge42" class="edge">
<title>Node29&#45;&gt;Node30</title>
<path fill="none" stroke="midnightblue" d="M702.4,-80.67C666.63,-95.9 609.71,-120.13 578.42,-133.45"/>
<polygon fill="midnightblue" stroke="midnightblue" points="704.06,-83.76 711.89,-76.63 701.32,-77.32 704.06,-83.76"/>
</g>
<!-- Node30&#45;&gt;Node10 -->
<g id="edge43" class="edge">
<title>Node30&#45;&gt;Node10</title>
<path fill="none" stroke="midnightblue" d="M521.81,-153.88C441.76,-181.86 229.16,-261.84 77,-371 57.7,-384.85 39.28,-405.82 29.27,-418.09"/>
<polygon fill="midnightblue" stroke="midnightblue" points="523.04,-157.16 531.34,-150.58 520.75,-150.55 523.04,-157.16"/>
</g>
<!-- Node31&#45;&gt;Node28 -->
<g id="edge45" class="edge">
<title>Node31&#45;&gt;Node28</title>
<path fill="none" stroke="midnightblue" d="M1012.68,-37.01C988.45,-31.07 958.99,-23.85 936.64,-18.37"/>
<polygon fill="midnightblue" stroke="midnightblue" points="1012.17,-40.49 1022.71,-39.47 1013.84,-33.69 1012.17,-40.49"/>
</g>
<!-- Node31&#45;&gt;Node29 -->
<g id="edge46" class="edge">
<title>Node31&#45;&gt;Node29</title>
<path fill="none" stroke="midnightblue" d="M1012.65,-50.65C948.58,-54.45 832.07,-61.34 772.98,-64.84"/>
<polygon fill="midnightblue" stroke="midnightblue" points="1013.07,-54.14 1022.84,-50.05 1012.65,-47.15 1013.07,-54.14"/>
</g>
<!-- Node33 -->
<g id="node33" class="node">
<title>Node33</title>
<g id="a_node33"><a xlink:href="parsing__error_8c.html#a858393a79410c7eb4d9a6f615396f426" target="_top" xlink:title=" ">
<polygon fill="none" stroke="black" points="862.5,-152.5 862.5,-171.5 940.5,-171.5 940.5,-152.5 862.5,-152.5"/>
<text text-anchor="middle" x="901.5" y="-159.5" font-family="Helvetica,sans-Serif" font-size="10.00">syntax_error</text>
</a>
</g>
</g>
<!-- Node32&#45;&gt;Node33 -->
<g id="edge50" class="edge">
<title>Node32&#45;&gt;Node33</title>
<path fill="none" stroke="midnightblue" d="M1160.22,-234.78C1099.77,-217.71 991.34,-187.09 936.4,-171.57"/>
<polygon fill="midnightblue" stroke="midnightblue" points="1159.27,-238.15 1169.85,-237.5 1161.18,-231.41 1159.27,-238.15"/>
</g>
<!-- Node33&#45;&gt;Node30 -->
<g id="edge51" class="edge">
<title>Node33&#45;&gt;Node30</title>
<path fill="none" stroke="midnightblue" d="M852.13,-159.33C776.69,-155.17 633.92,-147.3 578.65,-144.25"/>
<polygon fill="midnightblue" stroke="midnightblue" points="852.14,-162.84 862.32,-159.89 852.52,-155.85 852.14,-162.84"/>
</g>
<!-- Node34&#45;&gt;Node5 -->
<g id="edge53" class="edge">
<title>Node34&#45;&gt;Node5</title>
<path fill="none" stroke="midnightblue" d="M1142.6,-580C1133.51,-580 1124.18,-580 1115.2,-580"/>
<polygon fill="midnightblue" stroke="midnightblue" points="1142.73,-583.5 1152.73,-580 1142.73,-576.5 1142.73,-583.5"/>
</g>
</g>
</svg>
