<?xml version="1.0" encoding="UTF-8" standalone="no"?>
<!DOCTYPE svg PUBLIC "-//W3C//DTD SVG 1.1//EN"
 "http://www.w3.org/Graphics/SVG/1.1/DTD/svg11.dtd">
<!-- Generated by graphviz version 2.43.0 (0)
 -->
<!-- Title: research_key_env Pages: 1 -->
<!--zoomable 104 -->
<svg id="main" version="1.1" xmlns="http://www.w3.org/2000/svg" xmlns:xlink="http://www.w3.org/1999/xlink" xml:space="preserve" onload="init(evt)">
<style type="text/css"><![CDATA[
.edge:hover path { stroke: red; }
.edge:hover polygon { stroke: red; fill: red; }
]]></style>
<script type="text/javascript"><![CDATA[
var edges = document.getElementsByTagName('g');
if (edges && edges.length) {
  for (var i=0;i<edges.length;i++) {
    if (edges[i].id.substr(0,4)=='edge') {
      edges[i].setAttribute('class','edge');
    }
  }
}
]]></script>
        <defs>
                <circle id="rim" cx="0" cy="0" r="7"/>
                <circle id="rim2" cx="0" cy="0" r="3.5"/>
                <g id="zoomPlus">
                        <use xlink:href="#rim" fill="#404040">
                                <set attributeName="fill" to="#808080" begin="zoomplus.mouseover" end="zoomplus.mouseout"/>
                        </use>
                        <path d="M-4,0h8M0,-4v8" fill="none" stroke="white" stroke-width="1.5" pointer-events="none"/>
                </g>
                <g id="zoomMin">
                        <use xlink:href="#rim" fill="#404040">
                                <set attributeName="fill" to="#808080" begin="zoomminus.mouseover" end="zoomminus.mouseout"/>
                        </use>
                        <path d="M-4,0h8" fill="none" stroke="white" stroke-width="1.5" pointer-events="none"/>
                </g>
                <g id="dirArrow">
                        <path fill="none" stroke="white" stroke-width="1.5" d="M0,-3.0v7 M-2.5,-0.5L0,-3.0L2.5,-0.5"/>
                </g>
               <g id="resetDef">
                       <use xlink:href="#rim2" fill="#404040">
                               <set attributeName="fill" to="#808080" begin="reset.mouseover" end="reset.mouseout"/>
                       </use>
               </g>
        </defs>

<script type="text/javascript">
var viewWidth = 1082;
var viewHeight = 104;
var sectionId = 'dynsection-3';
</script>
<script xlink:href="svgpan.js"/>
<svg id="graph" class="graph">
<g id="viewport">
<title>research_key_env</title>
<!-- Node1 -->
<g id="node1" class="node">
<title>Node1</title>
<g id="a_node1"><a xlink:title=" ">
<polygon fill="#bfbfbf" stroke="black" points="970,-57.5 970,-76.5 1074,-76.5 1074,-57.5 970,-57.5"/>
<text text-anchor="middle" x="1022" y="-64.5" font-family="Helvetica,sans-Serif" font-size="10.00">research_key_env</text>
</a>
</g>
</g>
<!-- Node2 -->
<g id="node2" class="node">
<title>Node2</title>
<g id="a_node2"><a xlink:href="cd_8c.html#a68ca1d5a8272f17815cfd7394a24ad19" target="_top" xlink:title=" ">
<polygon fill="none" stroke="black" points="905,-76.5 905,-95.5 934,-95.5 934,-76.5 905,-76.5"/>
<text text-anchor="middle" x="919.5" y="-83.5" font-family="Helvetica,sans-Serif" font-size="10.00">cd</text>
</a>
</g>
</g>
<!-- Node1&#45;&gt;Node2 -->
<g id="edge1" class="edge">
<title>Node1&#45;&gt;Node2</title>
<path fill="none" stroke="midnightblue" d="M960.55,-78.43C950.76,-80.28 941.51,-82.03 934.38,-83.38"/>
<polygon fill="midnightblue" stroke="midnightblue" points="961.28,-81.85 970.46,-76.56 959.98,-74.97 961.28,-81.85"/>
</g>
<!-- Node12 -->
<g id="node12" class="node">
<title>Node12</title>
<g id="a_node12"><a xlink:href="getenv_8c.html#a5d0cf05c2622983111dcfc0f179c5739" target="_top" xlink:title=" ">
<polygon fill="none" stroke="black" points="788.5,-38.5 788.5,-57.5 864.5,-57.5 864.5,-38.5 788.5,-38.5"/>
<text text-anchor="middle" x="826.5" y="-45.5" font-family="Helvetica,sans-Serif" font-size="10.00">search_path</text>
</a>
</g>
</g>
<!-- Node1&#45;&gt;Node12 -->
<g id="edge13" class="edge">
<title>Node1&#45;&gt;Node12</title>
<path fill="none" stroke="midnightblue" d="M959.58,-60.97C928.42,-57.91 891.6,-54.29 864.76,-51.66"/>
<polygon fill="midnightblue" stroke="midnightblue" points="959.61,-64.49 969.91,-61.98 960.3,-57.52 959.61,-64.49"/>
</g>
<!-- Node3 -->
<g id="node3" class="node">
<title>Node3</title>
<g id="a_node3"><a xlink:href="execution_8c.html#a8b2bd9dba90bfc9b2ead44af5e630315" target="_top" xlink:title="launch the builtin &#160;&#160;some of them are not present because we have to fork() them why ?...">
<polygon fill="none" stroke="black" points="784,-76.5 784,-95.5 869,-95.5 869,-76.5 784,-76.5"/>
<text text-anchor="middle" x="826.5" y="-83.5" font-family="Helvetica,sans-Serif" font-size="10.00">launch_builtin</text>
</a>
</g>
</g>
<!-- Node2&#45;&gt;Node3 -->
<g id="edge2" class="edge">
<title>Node2&#45;&gt;Node3</title>
<path fill="none" stroke="midnightblue" d="M894.5,-86C886.69,-86 877.79,-86 869.07,-86"/>
<polygon fill="midnightblue" stroke="midnightblue" points="894.68,-89.5 904.68,-86 894.68,-82.5 894.68,-89.5"/>
</g>
<!-- Node4 -->
<g id="node4" class="node">
<title>Node4</title>
<g id="a_node4"><a xlink:href="execution__node_8c.html#a6cfdc545c2222bbb0ca1dfc8431f72a3" target="_top" xlink:title="we are going to execute the command here we have a security about absolute path given =&gt; because it&#39;s...">
<polygon fill="none" stroke="black" points="655,-38.5 655,-57.5 748,-57.5 748,-38.5 655,-38.5"/>
<text text-anchor="middle" x="701.5" y="-45.5" font-family="Helvetica,sans-Serif" font-size="10.00">execution_node</text>
</a>
</g>
</g>
<!-- Node3&#45;&gt;Node4 -->
<g id="edge3" class="edge">
<title>Node3&#45;&gt;Node4</title>
<path fill="none" stroke="midnightblue" d="M784.46,-73.32C767.84,-68.19 748.97,-62.36 733.53,-57.59"/>
<polygon fill="midnightblue" stroke="midnightblue" points="783.87,-76.8 794.46,-76.41 785.94,-70.12 783.87,-76.8"/>
</g>
<!-- Node11 -->
<g id="node11" class="node">
<title>Node11</title>
<g id="a_node11"><a xlink:href="execution_8c.html#a4ef7db02a474eb1b198b2a25e1303118" target="_top" xlink:title="here we check if it&#39;s a builtin where we have to fork or not we still need to do the redirection veri...">
<polygon fill="none" stroke="black" points="331.5,-38.5 331.5,-57.5 420.5,-57.5 420.5,-38.5 331.5,-38.5"/>
<text text-anchor="middle" x="376" y="-45.5" font-family="Helvetica,sans-Serif" font-size="10.00">one_command</text>
</a>
</g>
</g>
<!-- Node3&#45;&gt;Node11 -->
<g id="edge12" class="edge">
<title>Node3&#45;&gt;Node11</title>
<path fill="none" stroke="midnightblue" d="M773.81,-84.8C707.96,-82.87 590.73,-78.11 491,-67 467.67,-64.4 441.85,-60.21 420.69,-56.42"/>
<polygon fill="midnightblue" stroke="midnightblue" points="773.83,-88.3 783.92,-85.09 774.02,-81.31 773.83,-88.3"/>
</g>
<!-- Node5 -->
<g id="node5" class="node">
<title>Node5</title>
<g id="a_node5"><a xlink:href="multipipe_8c.html#a43baea25481fdd02ce42e4d249f12353" target="_top" xlink:title=" ">
<polygon fill="none" stroke="black" points="513.5,-0.5 513.5,-19.5 596.5,-19.5 596.5,-0.5 513.5,-0.5"/>
<text text-anchor="middle" x="555" y="-7.5" font-family="Helvetica,sans-Serif" font-size="10.00">execute_child</text>
</a>
</g>
</g>
<!-- Node4&#45;&gt;Node5 -->
<g id="edge4" class="edge">
<title>Node4&#45;&gt;Node5</title>
<path fill="none" stroke="midnightblue" d="M654.17,-35.82C634.11,-30.54 610.97,-24.46 592.2,-19.52"/>
<polygon fill="midnightblue" stroke="midnightblue" points="653.48,-39.25 664.04,-38.41 655.26,-32.48 653.48,-39.25"/>
</g>
<!-- Node10 -->
<g id="node10" class="node">
<title>Node10</title>
<g id="a_node10"><a xlink:href="execution_8c.html#ac70faaedddc427b5051b808a8de40da4" target="_top" xlink:title="in this function we do the fork to create a child process we do the redirection if we need to">
<polygon fill="none" stroke="black" points="491,-38.5 491,-57.5 619,-57.5 619,-38.5 491,-38.5"/>
<text text-anchor="middle" x="555" y="-45.5" font-family="Helvetica,sans-Serif" font-size="10.00">one_command_execve</text>
</a>
</g>
</g>
<!-- Node4&#45;&gt;Node10 -->
<g id="edge9" class="edge">
<title>Node4&#45;&gt;Node10</title>
<path fill="none" stroke="midnightblue" d="M644.74,-48C636.35,-48 627.65,-48 619.12,-48"/>
<polygon fill="midnightblue" stroke="midnightblue" points="644.78,-51.5 654.78,-48 644.78,-44.5 644.78,-51.5"/>
</g>
<!-- Node6 -->
<g id="node6" class="node">
<title>Node6</title>
<g id="a_node6"><a xlink:href="multipipe_8c.html#af32b88ab44b94650a0bb6f805f70a805" target="_top" xlink:title="it&#39;s where the fork happen and sent to be execute">
<polygon fill="none" stroke="black" points="297,-0.5 297,-19.5 455,-19.5 455,-0.5 297,-0.5"/>
<text text-anchor="middle" x="376" y="-7.5" font-family="Helvetica,sans-Serif" font-size="10.00">multipipe_intermediary_cmd</text>
</a>
</g>
</g>
<!-- Node5&#45;&gt;Node6 -->
<g id="edge5" class="edge">
<title>Node5&#45;&gt;Node6</title>
<path fill="none" stroke="midnightblue" d="M503.29,-10C488.24,-10 471.4,-10 455.04,-10"/>
<polygon fill="midnightblue" stroke="midnightblue" points="503.39,-13.5 513.39,-10 503.39,-6.5 503.39,-13.5"/>
</g>
<!-- Node7 -->
<g id="node7" class="node">
<title>Node7</title>
<g id="a_node7"><a xlink:href="multipipe_8c.html#a3f78d597d08aaca5580b2c89f956a3a2" target="_top" xlink:title="management of the multipipe (= name when we have at least one pipe) First step is to manage the hered...">
<polygon fill="none" stroke="black" points="172,-0.5 172,-19.5 261,-19.5 261,-0.5 172,-0.5"/>
<text text-anchor="middle" x="216.5" y="-7.5" font-family="Helvetica,sans-Serif" font-size="10.00">multipipe_cmd</text>
</a>
</g>
</g>
<!-- Node6&#45;&gt;Node7 -->
<g id="edge6" class="edge">
<title>Node6&#45;&gt;Node7</title>
<path fill="none" stroke="midnightblue" d="M286.44,-10C277.73,-10 269.19,-10 261.24,-10"/>
<polygon fill="midnightblue" stroke="midnightblue" points="286.71,-13.5 296.71,-10 286.71,-6.5 286.71,-13.5"/>
</g>
<!-- Node8 -->
<g id="node8" class="node">
<title>Node8</title>
<g id="a_node8"><a xlink:href="execution_8c.html#a9dffeca3c2ff474e24c3e98ab856df76" target="_top" xlink:title="first function of the execution part when we have something to do we have to deal with two cases ; if...">
<polygon fill="none" stroke="black" points="77,-19.5 77,-38.5 136,-38.5 136,-19.5 77,-19.5"/>
<text text-anchor="middle" x="106.5" y="-26.5" font-family="Helvetica,sans-Serif" font-size="10.00">executor</text>
</a>
</g>
</g>
<!-- Node7&#45;&gt;Node8 -->
<g id="edge7" class="edge">
<title>Node7&#45;&gt;Node8</title>
<path fill="none" stroke="midnightblue" d="M161.88,-19.43C152.97,-21 144.05,-22.57 136.08,-23.97"/>
<polygon fill="midnightblue" stroke="midnightblue" points="162.64,-22.85 171.88,-17.67 161.43,-15.96 162.64,-22.85"/>
</g>
<!-- Node9 -->
<g id="node9" class="node">
<title>Node9</title>
<g id="a_node9"><a xlink:href="main_8c.html#a647f21a28344e1d9c643f4115516d7c9" target="_top" xlink:title=" ">
<polygon fill="none" stroke="black" points="0,-19.5 0,-38.5 41,-38.5 41,-19.5 0,-19.5"/>
<text text-anchor="middle" x="20.5" y="-26.5" font-family="Helvetica,sans-Serif" font-size="10.00">main</text>
</a>
</g>
</g>
<!-- Node8&#45;&gt;Node9 -->
<g id="edge8" class="edge">
<title>Node8&#45;&gt;Node9</title>
<path fill="none" stroke="midnightblue" d="M66.48,-29C57.72,-29 48.78,-29 41.21,-29"/>
<polygon fill="midnightblue" stroke="midnightblue" points="66.59,-32.5 76.59,-29 66.59,-25.5 66.59,-32.5"/>
</g>
<!-- Node10&#45;&gt;Node11 -->
<g id="edge10" class="edge">
<title>Node10&#45;&gt;Node11</title>
<path fill="none" stroke="midnightblue" d="M480.4,-48C460.05,-48 438.62,-48 420.57,-48"/>
<polygon fill="midnightblue" stroke="midnightblue" points="480.6,-51.5 490.6,-48 480.6,-44.5 480.6,-51.5"/>
</g>
<!-- Node11&#45;&gt;Node8 -->
<g id="edge11" class="edge">
<title>Node11&#45;&gt;Node8</title>
<path fill="none" stroke="midnightblue" d="M321.37,-44.19C265.58,-40.23 180.35,-34.17 136.22,-31.04"/>
<polygon fill="midnightblue" stroke="midnightblue" points="321.2,-47.69 331.43,-44.91 321.7,-40.71 321.2,-47.69"/>
</g>
<!-- Node12&#45;&gt;Node4 -->
<g id="edge14" class="edge">
<title>Node12&#45;&gt;Node4</title>
<path fill="none" stroke="midnightblue" d="M778.25,-48C768.42,-48 758.08,-48 748.3,-48"/>
<polygon fill="midnightblue" stroke="midnightblue" points="778.26,-51.5 788.26,-48 778.26,-44.5 778.26,-51.5"/>
</g>
</g>
</svg>
        <g id="navigator" transform="translate(0 0)" fill="#404254">
                <rect fill="#f2f5e9" fill-opacity="0.5" stroke="#606060" stroke-width=".5" x="0" y="0" width="60" height="60"/>
                <use id="zoomplus" xlink:href="#zoomPlus" x="17" y="9" onmousedown="handleZoom(evt,'in')"/>
                <use id="zoomminus" xlink:href="#zoomMin" x="42" y="9" onmousedown="handleZoom(evt,'out')"/>
                <use id="reset" xlink:href="#resetDef" x="30" y="36" onmousedown="handleReset()"/>
                <g id="arrowUp" xlink:href="#dirArrow" transform="translate(30 24)" onmousedown="handlePan(0,-1)">
                  <use xlink:href="#rim" fill="#404040">
                        <set attributeName="fill" to="#808080" begin="arrowUp.mouseover" end="arrowUp.mouseout"/>
                  </use>
                  <path fill="none" stroke="white" stroke-width="1.5" d="M0,-3.0v7 M-2.5,-0.5L0,-3.0L2.5,-0.5"/>
                </g>
                <g id="arrowRight" xlink:href="#dirArrow" transform="rotate(90) translate(36 -43)" onmousedown="handlePan(1,0)">
                  <use xlink:href="#rim" fill="#404040">
                        <set attributeName="fill" to="#808080" begin="arrowRight.mouseover" end="arrowRight.mouseout"/>
                  </use>
                  <path fill="none" stroke="white" stroke-width="1.5" d="M0,-3.0v7 M-2.5,-0.5L0,-3.0L2.5,-0.5"/>
                </g>
                <g id="arrowDown" xlink:href="#dirArrow" transform="rotate(180) translate(-30 -48)" onmousedown="handlePan(0,1)">
                  <use xlink:href="#rim" fill="#404040">
                        <set attributeName="fill" to="#808080" begin="arrowDown.mouseover" end="arrowDown.mouseout"/>
                  </use>
                  <path fill="none" stroke="white" stroke-width="1.5" d="M0,-3.0v7 M-2.5,-0.5L0,-3.0L2.5,-0.5"/>
                </g>
                <g id="arrowLeft" xlink:href="#dirArrow" transform="rotate(270) translate(-36 17)" onmousedown="handlePan(-1,0)">
                  <use xlink:href="#rim" fill="#404040">
                        <set attributeName="fill" to="#808080" begin="arrowLeft.mouseover" end="arrowLeft.mouseout"/>
                  </use>
                  <path fill="none" stroke="white" stroke-width="1.5" d="M0,-3.0v7 M-2.5,-0.5L0,-3.0L2.5,-0.5"/>
                </g>
        </g>
        <svg viewBox="0 0 15 15" width="100%" height="30px" preserveAspectRatio="xMaxYMin meet">
         <g id="arrow_out" transform="scale(0.3 0.3)">
          <a xlink:href="lst__env__two_8c_a4d4a14327b2c3ff88099102b6bd77986_icgraph_org.svg" target="_base">
           <rect id="button" ry="5" rx="5" y="6" x="6" height="38" width="38"
                fill="#f2f5e9" fill-opacity="0.5" stroke="#606060" stroke-width="1.0"/>
           <path id="arrow"
             d="M 11.500037,31.436501 C 11.940474,20.09759 22.043105,11.32322 32.158766,21.979434 L 37.068811,17.246167 C 37.068811,17.246167 37.088388,32 37.088388,32 L 22.160133,31.978069 C 22.160133,31.978069 26.997745,27.140456 26.997745,27.140456 C 18.528582,18.264221 13.291696,25.230495 11.500037,31.436501 z"
             style="fill:#404040;"/>
          </a>
         </g>
        </svg>
</svg>
