<?xml version="1.0" encoding="UTF-8" standalone="no"?>
<!DOCTYPE svg PUBLIC "-//W3C//DTD SVG 1.1//EN"
 "http://www.w3.org/Graphics/SVG/1.1/DTD/svg11.dtd">
<!-- Generated by graphviz version 2.43.0 (0)
 -->
<!-- Title: create_node_env Pages: 1 -->
<svg width="1121pt" height="142pt"
 viewBox="0.00 0.00 1121.00 142.00" xmlns="http://www.w3.org/2000/svg" xmlns:xlink="http://www.w3.org/1999/xlink">
<g id="graph0" class="graph" transform="scale(1 1) rotate(0) translate(4 138)">
<title>create_node_env</title>
<!-- Node1 -->
<g id="node1" class="node">
<title>Node1</title>
<g id="a_node1"><a xlink:title=" ">
<polygon fill="#bfbfbf" stroke="black" points="1013,-19.5 1013,-38.5 1113,-38.5 1113,-19.5 1013,-19.5"/>
<text text-anchor="middle" x="1063" y="-26.5" font-family="Helvetica,sans-Serif" font-size="10.00">create_node_env</text>
</a>
</g>
</g>
<!-- Node2 -->
<g id="node2" class="node">
<title>Node2</title>
<g id="a_node2"><a xlink:href="export_8c.html#ab409cd8fcc654b7e32155051ded49ff5" target="_top" xlink:title=" ">
<polygon fill="none" stroke="black" points="917,-38.5 917,-57.5 965,-57.5 965,-38.5 917,-38.5"/>
<text text-anchor="middle" x="941" y="-45.5" font-family="Helvetica,sans-Serif" font-size="10.00">export</text>
</a>
</g>
</g>
<!-- Node1&#45;&gt;Node2 -->
<g id="edge1" class="edge">
<title>Node1&#45;&gt;Node2</title>
<path fill="none" stroke="midnightblue" d="M1002.73,-38.38C989.44,-40.49 976.09,-42.6 965.31,-44.31"/>
<polygon fill="midnightblue" stroke="midnightblue" points="1003.52,-41.8 1012.85,-36.78 1002.42,-34.89 1003.52,-41.8"/>
</g>
<!-- Node12 -->
<g id="node12" class="node">
<title>Node12</title>
<g id="a_node12"><a xlink:href="lst__env__two_8c.html#ac1233f225cd25a82eded5e81135528cd" target="_top" xlink:title=" ">
<polygon fill="none" stroke="black" points="905,-0.5 905,-19.5 977,-19.5 977,-0.5 905,-0.5"/>
<text text-anchor="middle" x="941" y="-7.5" font-family="Helvetica,sans-Serif" font-size="10.00">set_up_env</text>
</a>
</g>
</g>
<!-- Node1&#45;&gt;Node12 -->
<g id="edge13" class="edge">
<title>Node1&#45;&gt;Node12</title>
<path fill="none" stroke="midnightblue" d="M1002.7,-19.61C994.01,-18.24 985.31,-16.86 977.31,-15.59"/>
<polygon fill="midnightblue" stroke="midnightblue" points="1002.42,-23.11 1012.85,-21.22 1003.52,-16.2 1002.42,-23.11"/>
</g>
<!-- Node3 -->
<g id="node3" class="node">
<title>Node3</title>
<g id="a_node3"><a xlink:href="execution_8c.html#a8b2bd9dba90bfc9b2ead44af5e630315" target="_top" xlink:title="launch the builtin &#160;&#160;some of them are not present because we have to fork() them why ?...">
<polygon fill="none" stroke="black" points="784,-38.5 784,-57.5 869,-57.5 869,-38.5 784,-38.5"/>
<text text-anchor="middle" x="826.5" y="-45.5" font-family="Helvetica,sans-Serif" font-size="10.00">launch_builtin</text>
</a>
</g>
</g>
<!-- Node2&#45;&gt;Node3 -->
<g id="edge2" class="edge">
<title>Node2&#45;&gt;Node3</title>
<path fill="none" stroke="midnightblue" d="M906.68,-48C894.92,-48 881.53,-48 869.16,-48"/>
<polygon fill="midnightblue" stroke="midnightblue" points="906.96,-51.5 916.96,-48 906.96,-44.5 906.96,-51.5"/>
</g>
<!-- Node4 -->
<g id="node4" class="node">
<title>Node4</title>
<g id="a_node4"><a xlink:href="execution__node_8c.html#a6cfdc545c2222bbb0ca1dfc8431f72a3" target="_top" xlink:title="we are going to execute the command here we have a security about absolute path given =&gt; because it&#39;s...">
<polygon fill="none" stroke="black" points="655,-76.5 655,-95.5 748,-95.5 748,-76.5 655,-76.5"/>
<text text-anchor="middle" x="701.5" y="-83.5" font-family="Helvetica,sans-Serif" font-size="10.00">execution_node</text>
</a>
</g>
</g>
<!-- Node3&#45;&gt;Node4 -->
<g id="edge3" class="edge">
<title>Node3&#45;&gt;Node4</title>
<path fill="none" stroke="midnightblue" d="M784.46,-60.68C767.84,-65.81 748.97,-71.64 733.53,-76.41"/>
<polygon fill="midnightblue" stroke="midnightblue" points="785.94,-63.88 794.46,-57.59 783.87,-57.2 785.94,-63.88"/>
</g>
<!-- Node11 -->
<g id="node11" class="node">
<title>Node11</title>
<g id="a_node11"><a xlink:href="execution_8c.html#a4ef7db02a474eb1b198b2a25e1303118" target="_top" xlink:title="here we check if it&#39;s a builtin where we have to fork or not we still need to do the redirection veri...">
<polygon fill="none" stroke="black" points="331.5,-57.5 331.5,-76.5 420.5,-76.5 420.5,-57.5 331.5,-57.5"/>
<text text-anchor="middle" x="376" y="-64.5" font-family="Helvetica,sans-Serif" font-size="10.00">one_command</text>
</a>
</g>
</g>
<!-- Node3&#45;&gt;Node11 -->
<g id="edge12" class="edge">
<title>Node3&#45;&gt;Node11</title>
<path fill="none" stroke="midnightblue" d="M773.57,-50.2C684.46,-53.98 504.02,-61.62 420.83,-65.14"/>
<polygon fill="midnightblue" stroke="midnightblue" points="773.87,-53.69 783.71,-49.77 773.57,-46.7 773.87,-53.69"/>
</g>
<!-- Node5 -->
<g id="node5" class="node">
<title>Node5</title>
<g id="a_node5"><a xlink:href="multipipe_8c.html#a43baea25481fdd02ce42e4d249f12353" target="_top" xlink:title=" ">
<polygon fill="none" stroke="black" points="513.5,-114.5 513.5,-133.5 596.5,-133.5 596.5,-114.5 513.5,-114.5"/>
<text text-anchor="middle" x="555" y="-121.5" font-family="Helvetica,sans-Serif" font-size="10.00">execute_child</text>
</a>
</g>
</g>
<!-- Node4&#45;&gt;Node5 -->
<g id="edge4" class="edge">
<title>Node4&#45;&gt;Node5</title>
<path fill="none" stroke="midnightblue" d="M654.17,-98.18C634.11,-103.46 610.97,-109.54 592.2,-114.48"/>
<polygon fill="midnightblue" stroke="midnightblue" points="655.26,-101.52 664.04,-95.59 653.48,-94.75 655.26,-101.52"/>
</g>
<!-- Node10 -->
<g id="node10" class="node">
<title>Node10</title>
<g id="a_node10"><a xlink:href="execution_8c.html#ac70faaedddc427b5051b808a8de40da4" target="_top" xlink:title="in this function we do the fork to create a child process we do the redirection if we need to">
<polygon fill="none" stroke="black" points="491,-76.5 491,-95.5 619,-95.5 619,-76.5 491,-76.5"/>
<text text-anchor="middle" x="555" y="-83.5" font-family="Helvetica,sans-Serif" font-size="10.00">one_command_execve</text>
</a>
</g>
</g>
<!-- Node4&#45;&gt;Node10 -->
<g id="edge9" class="edge">
<title>Node4&#45;&gt;Node10</title>
<path fill="none" stroke="midnightblue" d="M644.74,-86C636.35,-86 627.65,-86 619.12,-86"/>
<polygon fill="midnightblue" stroke="midnightblue" points="644.78,-89.5 654.78,-86 644.78,-82.5 644.78,-89.5"/>
</g>
<!-- Node6 -->
<g id="node6" class="node">
<title>Node6</title>
<g id="a_node6"><a xlink:href="multipipe_8c.html#af32b88ab44b94650a0bb6f805f70a805" target="_top" xlink:title="it&#39;s where the fork happen and sent to be execute">
<polygon fill="none" stroke="black" points="297,-109.5 297,-128.5 455,-128.5 455,-109.5 297,-109.5"/>
<text text-anchor="middle" x="376" y="-116.5" font-family="Helvetica,sans-Serif" font-size="10.00">multipipe_intermediary_cmd</text>
</a>
</g>
</g>
<!-- Node5&#45;&gt;Node6 -->
<g id="edge5" class="edge">
<title>Node5&#45;&gt;Node6</title>
<path fill="none" stroke="midnightblue" d="M503.29,-122.57C488.24,-122.14 471.4,-121.67 455.04,-121.2"/>
<polygon fill="midnightblue" stroke="midnightblue" points="503.3,-126.07 513.39,-122.85 503.5,-119.07 503.3,-126.07"/>
</g>
<!-- Node7 -->
<g id="node7" class="node">
<title>Node7</title>
<g id="a_node7"><a xlink:href="multipipe_8c.html#a3f78d597d08aaca5580b2c89f956a3a2" target="_top" xlink:title="management of the multipipe (= name when we have at least one pipe) First step is to manage the hered...">
<polygon fill="none" stroke="black" points="172,-104.5 172,-123.5 261,-123.5 261,-104.5 172,-104.5"/>
<text text-anchor="middle" x="216.5" y="-111.5" font-family="Helvetica,sans-Serif" font-size="10.00">multipipe_cmd</text>
</a>
</g>
</g>
<!-- Node6&#45;&gt;Node7 -->
<g id="edge6" class="edge">
<title>Node6&#45;&gt;Node7</title>
<path fill="none" stroke="midnightblue" d="M286.44,-116.19C277.73,-115.91 269.19,-115.64 261.24,-115.39"/>
<polygon fill="midnightblue" stroke="midnightblue" points="286.61,-119.7 296.71,-116.51 286.83,-112.7 286.61,-119.7"/>
</g>
<!-- Node8 -->
<g id="node8" class="node">
<title>Node8</title>
<g id="a_node8"><a xlink:href="execution_8c.html#a9dffeca3c2ff474e24c3e98ab856df76" target="_top" xlink:title="first function of the execution part when we have something to do we have to deal with two cases ; if...">
<polygon fill="none" stroke="black" points="77,-57.5 77,-76.5 136,-76.5 136,-57.5 77,-57.5"/>
<text text-anchor="middle" x="106.5" y="-64.5" font-family="Helvetica,sans-Serif" font-size="10.00">executor</text>
</a>
</g>
</g>
<!-- Node7&#45;&gt;Node8 -->
<g id="edge7" class="edge">
<title>Node7&#45;&gt;Node8</title>
<path fill="none" stroke="midnightblue" d="M184.39,-100.46C166.9,-92.85 145.48,-83.53 129.69,-76.66"/>
<polygon fill="midnightblue" stroke="midnightblue" points="183.08,-103.71 193.64,-104.49 185.87,-97.29 183.08,-103.71"/>
</g>
<!-- Node9 -->
<g id="node9" class="node">
<title>Node9</title>
<g id="a_node9"><a xlink:href="main_8c.html#a647f21a28344e1d9c643f4115516d7c9" target="_top" xlink:title=" ">
<polygon fill="none" stroke="black" points="0,-28.5 0,-47.5 41,-47.5 41,-28.5 0,-28.5"/>
<text text-anchor="middle" x="20.5" y="-35.5" font-family="Helvetica,sans-Serif" font-size="10.00">main</text>
</a>
</g>
</g>
<!-- Node8&#45;&gt;Node9 -->
<g id="edge8" class="edge">
<title>Node8&#45;&gt;Node9</title>
<path fill="none" stroke="midnightblue" d="M68.04,-54.07C58.75,-50.86 49.17,-47.55 41.13,-44.78"/>
<polygon fill="midnightblue" stroke="midnightblue" points="66.93,-57.39 77.53,-57.34 69.22,-50.77 66.93,-57.39"/>
</g>
<!-- Node10&#45;&gt;Node11 -->
<g id="edge10" class="edge">
<title>Node10&#45;&gt;Node11</title>
<path fill="none" stroke="midnightblue" d="M480.4,-78.1C460.05,-75.91 438.62,-73.61 420.57,-71.68"/>
<polygon fill="midnightblue" stroke="midnightblue" points="480.28,-81.61 490.6,-79.19 481.03,-74.65 480.28,-81.61"/>
</g>
<!-- Node11&#45;&gt;Node8 -->
<g id="edge11" class="edge">
<title>Node11&#45;&gt;Node8</title>
<path fill="none" stroke="midnightblue" d="M321.37,-67C265.58,-67 180.35,-67 136.22,-67"/>
<polygon fill="midnightblue" stroke="midnightblue" points="321.43,-70.5 331.43,-67 321.43,-63.5 321.43,-70.5"/>
</g>
<!-- Node13 -->
<g id="node13" class="node">
<title>Node13</title>
<g id="a_node13"><a xlink:href="main_8c.html#a05f37ff7d5d7321754ff82ac71618d63" target="_top" xlink:title=" ">
<polygon fill="none" stroke="black" points="660,-0.5 660,-19.5 743,-19.5 743,-0.5 660,-0.5"/>
<text text-anchor="middle" x="701.5" y="-7.5" font-family="Helvetica,sans-Serif" font-size="10.00">init_minishell</text>
</a>
</g>
</g>
<!-- Node12&#45;&gt;Node13 -->
<g id="edge14" class="edge">
<title>Node12&#45;&gt;Node13</title>
<path fill="none" stroke="midnightblue" d="M894.89,-10C851.17,-10 785.45,-10 743.27,-10"/>
<polygon fill="midnightblue" stroke="midnightblue" points="894.96,-13.5 904.96,-10 894.96,-6.5 894.96,-13.5"/>
</g>
<!-- Node13&#45;&gt;Node9 -->
<g id="edge15" class="edge">
<title>Node13&#45;&gt;Node9</title>
<path fill="none" stroke="midnightblue" d="M649.73,-10C586.02,-10 473.43,-10 377,-10 377,-10 377,-10 215.5,-10 151.18,-10 76.09,-25.26 41.19,-33.25"/>
<polygon fill="midnightblue" stroke="midnightblue" points="649.9,-13.5 659.9,-10 649.9,-6.5 649.9,-13.5"/>
</g>
</g>
</svg>
