<?xml version="1.0" encoding="UTF-8" standalone="no"?>
<!DOCTYPE svg PUBLIC "-//W3C//DTD SVG 1.1//EN"
 "http://www.w3.org/Graphics/SVG/1.1/DTD/svg11.dtd">
<!-- Generated by graphviz version 2.43.0 (0)
 -->
<!-- Title: pop_cmd Pages: 1 -->
<!--zoomable 300 -->
<svg id="main" version="1.1" xmlns="http://www.w3.org/2000/svg" xmlns:xlink="http://www.w3.org/1999/xlink" xml:space="preserve" onload="init(evt)">
<style type="text/css"><![CDATA[
.edge:hover path { stroke: red; }
.edge:hover polygon { stroke: red; fill: red; }
]]></style>
<script type="text/javascript"><![CDATA[
var edges = document.getElementsByTagName('g');
if (edges && edges.length) {
  for (var i=0;i<edges.length;i++) {
    if (edges[i].id.substr(0,4)=='edge') {
      edges[i].setAttribute('class','edge');
    }
  }
}
]]></script>
        <defs>
                <circle id="rim" cx="0" cy="0" r="7"/>
                <circle id="rim2" cx="0" cy="0" r="3.5"/>
                <g id="zoomPlus">
                        <use xlink:href="#rim" fill="#404040">
                                <set attributeName="fill" to="#808080" begin="zoomplus.mouseover" end="zoomplus.mouseout"/>
                        </use>
                        <path d="M-4,0h8M0,-4v8" fill="none" stroke="white" stroke-width="1.5" pointer-events="none"/>
                </g>
                <g id="zoomMin">
                        <use xlink:href="#rim" fill="#404040">
                                <set attributeName="fill" to="#808080" begin="zoomminus.mouseover" end="zoomminus.mouseout"/>
                        </use>
                        <path d="M-4,0h8" fill="none" stroke="white" stroke-width="1.5" pointer-events="none"/>
                </g>
                <g id="dirArrow">
                        <path fill="none" stroke="white" stroke-width="1.5" d="M0,-3.0v7 M-2.5,-0.5L0,-3.0L2.5,-0.5"/>
                </g>
               <g id="resetDef">
                       <use xlink:href="#rim2" fill="#404040">
                               <set attributeName="fill" to="#808080" begin="reset.mouseover" end="reset.mouseout"/>
                       </use>
               </g>
        </defs>

<script type="text/javascript">
var viewWidth = 1288;
var viewHeight = 300;
var sectionId = 'dynsection-4';
</script>
<script xlink:href="svgpan.js"/>
<svg id="graph" class="graph">
<g id="viewport">
<title>pop_cmd</title>
<!-- Node1 -->
<g id="node1" class="node">
<title>Node1</title>
<g id="a_node1"><a xlink:title=" ">
<polygon fill="#bfbfbf" stroke="black" points="1219,-133.5 1219,-152.5 1280,-152.5 1280,-133.5 1219,-133.5"/>
<text text-anchor="middle" x="1249.5" y="-140.5" font-family="Helvetica,sans-Serif" font-size="10.00">pop_cmd</text>
</a>
</g>
</g>
<!-- Node2 -->
<g id="node2" class="node">
<title>Node2</title>
<g id="a_node2"><a xlink:href="lst__cmd2_8c.html#a132395876bb5a7cfe926b9e37571a1e3" target="_top" xlink:title=" ">
<polygon fill="none" stroke="black" points="1091,-133.5 1091,-152.5 1183,-152.5 1183,-133.5 1091,-133.5"/>
<text text-anchor="middle" x="1137" y="-140.5" font-family="Helvetica,sans-Serif" font-size="10.00">destructor_cmd</text>
</a>
</g>
</g>
<!-- Node1&#45;&gt;Node2 -->
<g id="edge1" class="edge">
<title>Node1&#45;&gt;Node2</title>
<path fill="none" stroke="midnightblue" d="M1208.7,-143C1200.39,-143 1191.57,-143 1183.09,-143"/>
<polygon fill="midnightblue" stroke="midnightblue" points="1208.89,-146.5 1218.89,-143 1208.89,-139.5 1208.89,-146.5"/>
</g>
<!-- Node3 -->
<g id="node3" class="node">
<title>Node3</title>
<g id="a_node3"><a xlink:href="heredoc_8c.html#a98f0cdaa70ea9d777053df568b66e32a" target="_top" xlink:title="origin of creation ; the norm what it is doing ? juste close the fd the right way if we encounter the...">
<polygon fill="none" stroke="black" points="799,-92.5 799,-111.5 912,-111.5 912,-92.5 799,-92.5"/>
<text text-anchor="middle" x="855.5" y="-99.5" font-family="Helvetica,sans-Serif" font-size="10.00">child_work_heredoc</text>
</a>
</g>
</g>
<!-- Node2&#45;&gt;Node3 -->
<g id="edge2" class="edge">
<title>Node2&#45;&gt;Node3</title>
<path fill="none" stroke="midnightblue" d="M1111.64,-128.23C1096.05,-119.65 1075.05,-109.63 1055,-105 1007.65,-94.07 952.24,-94.27 912.02,-96.65"/>
<polygon fill="midnightblue" stroke="midnightblue" points="1110.17,-131.42 1120.59,-133.34 1113.63,-125.34 1110.17,-131.42"/>
</g>
<!-- Node8 -->
<g id="node8" class="node">
<title>Node8</title>
<g id="a_node8"><a xlink:href="main_8c.html#a647f21a28344e1d9c643f4115516d7c9" target="_top" xlink:title=" ">
<polygon fill="none" stroke="black" points="0,-102.5 0,-121.5 41,-121.5 41,-102.5 0,-102.5"/>
<text text-anchor="middle" x="20.5" y="-109.5" font-family="Helvetica,sans-Serif" font-size="10.00">main</text>
</a>
</g>
</g>
<!-- Node2&#45;&gt;Node8 -->
<g id="edge16" class="edge">
<title>Node2&#45;&gt;Node8</title>
<path fill="none" stroke="midnightblue" d="M1126.89,-161.96C1114.25,-186.13 1089.04,-227.38 1055,-249 978.8,-297.39 946.77,-292 856.5,-292 856.5,-292 856.5,-292 221.5,-292 118.73,-292 44.89,-159.07 26.16,-121.68"/>
<polygon fill="midnightblue" stroke="midnightblue" points="1130.16,-163.26 1131.53,-152.75 1123.9,-160.11 1130.16,-163.26"/>
</g>
<!-- Node10 -->
<g id="node10" class="node">
<title>Node10</title>
<g id="a_node10"><a xlink:href="multipipe_8c.html#a461ae962ce9a1aee7221ac4b9c581f98" target="_top" xlink:title=" ">
<polygon fill="none" stroke="black" points="527,-149.5 527,-168.5 610,-168.5 610,-149.5 527,-149.5"/>
<text text-anchor="middle" x="568.5" y="-156.5" font-family="Helvetica,sans-Serif" font-size="10.00">execute_child</text>
</a>
</g>
</g>
<!-- Node2&#45;&gt;Node10 -->
<g id="edge10" class="edge">
<title>Node2&#45;&gt;Node10</title>
<path fill="none" stroke="midnightblue" d="M1080.37,-144.57C966.63,-147.78 709.78,-155.04 610.11,-157.85"/>
<polygon fill="midnightblue" stroke="midnightblue" points="1080.7,-148.06 1090.6,-144.28 1080.5,-141.07 1080.7,-148.06"/>
</g>
<!-- Node12 -->
<g id="node12" class="node">
<title>Node12</title>
<g id="a_node12"><a xlink:href="expand_8c.html#aa18c8661b304a521d512b7acc7d7a1cb" target="_top" xlink:title=" ">
<polygon fill="none" stroke="black" points="956,-38.5 956,-57.5 1047,-57.5 1047,-38.5 956,-38.5"/>
<text text-anchor="middle" x="1001.5" y="-45.5" font-family="Helvetica,sans-Serif" font-size="10.00">exp_redir_error</text>
</a>
</g>
</g>
<!-- Node2&#45;&gt;Node12 -->
<g id="edge13" class="edge">
<title>Node2&#45;&gt;Node12</title>
<path fill="none" stroke="midnightblue" d="M1119.48,-125.91C1103.89,-110.45 1079.33,-87.74 1055,-72 1046.42,-66.45 1036.34,-61.51 1027.32,-57.58"/>
<polygon fill="midnightblue" stroke="midnightblue" points="1117.25,-128.63 1126.77,-133.27 1122.22,-123.7 1117.25,-128.63"/>
</g>
<!-- Node14 -->
<g id="node14" class="node">
<title>Node14</title>
<g id="a_node14"><a xlink:href="exit_8c.html#adcbec3416f97b2d0b8d53cf4c2b2a436" target="_top" xlink:title=" ">
<polygon fill="none" stroke="black" points="973.5,-190.5 973.5,-209.5 1029.5,-209.5 1029.5,-190.5 973.5,-190.5"/>
<text text-anchor="middle" x="1001.5" y="-197.5" font-family="Helvetica,sans-Serif" font-size="10.00">my_exit</text>
</a>
</g>
</g>
<!-- Node2&#45;&gt;Node14 -->
<g id="edge17" class="edge">
<title>Node2&#45;&gt;Node14</title>
<path fill="none" stroke="midnightblue" d="M1104.43,-156.48C1079.97,-166.92 1046.7,-181.13 1024.92,-190.43"/>
<polygon fill="midnightblue" stroke="midnightblue" points="1105.83,-159.69 1113.66,-152.54 1103.08,-153.25 1105.83,-159.69"/>
</g>
<!-- Node17 -->
<g id="node17" class="node">
<title>Node17</title>
<g id="a_node17"><a xlink:href="execution_8c.html#aa6f3ac2f0c10538c125eafcb587fd021" target="_top" xlink:title="in this function we do the fork to create a child process we do the redirection if we need to">
<polygon fill="none" stroke="black" points="504.5,-244.5 504.5,-263.5 632.5,-263.5 632.5,-244.5 504.5,-244.5"/>
<text text-anchor="middle" x="568.5" y="-251.5" font-family="Helvetica,sans-Serif" font-size="10.00">one_command_execve</text>
</a>
</g>
</g>
<!-- Node2&#45;&gt;Node17 -->
<g id="edge24" class="edge">
<title>Node2&#45;&gt;Node17</title>
<path fill="none" stroke="midnightblue" d="M1123.17,-160.72C1108.84,-178.93 1083.84,-206.37 1055,-219 914.31,-280.61 728.67,-272.38 632.83,-262.42"/>
<polygon fill="midnightblue" stroke="midnightblue" points="1126.06,-162.7 1129.32,-152.62 1120.48,-158.47 1126.06,-162.7"/>
</g>
<!-- Node18 -->
<g id="node18" class="node">
<title>Node18</title>
<g id="a_node18"><a xlink:href="parsing__error_8c.html#a193034f887c71fdb2486835d8cbd9dd3" target="_top" xlink:title=" ">
<polygon fill="none" stroke="black" points="948,-0.5 948,-19.5 1055,-19.5 1055,-0.5 948,-0.5"/>
<text text-anchor="middle" x="1001.5" y="-7.5" font-family="Helvetica,sans-Serif" font-size="10.00">parsing_destructor</text>
</a>
</g>
</g>
<!-- Node2&#45;&gt;Node18 -->
<g id="edge25" class="edge">
<title>Node2&#45;&gt;Node18</title>
<path fill="none" stroke="midnightblue" d="M1127.13,-124.04C1114.48,-98.94 1088.97,-54.83 1055,-29 1049.98,-25.19 1044.13,-22.08 1038.19,-19.58"/>
<polygon fill="midnightblue" stroke="midnightblue" points="1124.09,-125.79 1131.62,-133.24 1130.38,-122.72 1124.09,-125.79"/>
</g>
<!-- Node21 -->
<g id="node21" class="node">
<title>Node21</title>
<g id="a_node21"><a xlink:href="heredoc_8c.html#aa11261ffe1d93fd87488514776e2df34" target="_top" xlink:title=" ">
<polygon fill="none" stroke="black" points="950,-114.5 950,-133.5 1053,-133.5 1053,-114.5 950,-114.5"/>
<text text-anchor="middle" x="1001.5" y="-121.5" font-family="Helvetica,sans-Serif" font-size="10.00">read_gnl_heredoc</text>
</a>
</g>
</g>
<!-- Node2&#45;&gt;Node21 -->
<g id="edge29" class="edge">
<title>Node2&#45;&gt;Node21</title>
<path fill="none" stroke="midnightblue" d="M1080.67,-135.13C1071.56,-133.83 1062.15,-132.49 1053.16,-131.21"/>
<polygon fill="midnightblue" stroke="midnightblue" points="1080.41,-138.62 1090.8,-136.57 1081.4,-131.69 1080.41,-138.62"/>
</g>
<!-- Node4 -->
<g id="node4" class="node">
<title>Node4</title>
<g id="a_node4"><a xlink:href="heredoc_8c.html#a0b4a5d07e8877b06b8977b47a6d51930" target="_top" xlink:title="it&#39;s where we open the heredoc and start writing inside our pipe each time we check if it&#39;s the word ...">
<polygon fill="none" stroke="black" points="673.5,-92.5 673.5,-111.5 759.5,-111.5 759.5,-92.5 673.5,-92.5"/>
<text text-anchor="middle" x="716.5" y="-99.5" font-family="Helvetica,sans-Serif" font-size="10.00">heredoc_input</text>
</a>
</g>
</g>
<!-- Node3&#45;&gt;Node4 -->
<g id="edge3" class="edge">
<title>Node3&#45;&gt;Node4</title>
<path fill="none" stroke="midnightblue" d="M788.6,-102C778.77,-102 768.88,-102 759.72,-102"/>
<polygon fill="midnightblue" stroke="midnightblue" points="788.78,-105.5 798.78,-102 788.78,-98.5 788.78,-105.5"/>
</g>
<!-- Node5 -->
<g id="node5" class="node">
<title>Node5</title>
<g id="a_node5"><a xlink:href="heredoc_8c.html#a17337782f10170a6f2f9188bf557de0f" target="_top" xlink:title="the function will go through all the commands and check the redirection if we encounter a heredoc we ...">
<polygon fill="none" stroke="black" points="503,-111.5 503,-130.5 634,-130.5 634,-111.5 503,-111.5"/>
<text text-anchor="middle" x="568.5" y="-118.5" font-family="Helvetica,sans-Serif" font-size="10.00">here_doc_management</text>
</a>
</g>
</g>
<!-- Node4&#45;&gt;Node5 -->
<g id="edge4" class="edge">
<title>Node4&#45;&gt;Node5</title>
<path fill="none" stroke="midnightblue" d="M663.28,-108.8C653.85,-110.02 643.92,-111.31 634.19,-112.58"/>
<polygon fill="midnightblue" stroke="midnightblue" points="663.81,-112.26 673.27,-107.5 662.9,-105.32 663.81,-112.26"/>
</g>
<!-- Node6 -->
<g id="node6" class="node">
<title>Node6</title>
<g id="a_node6"><a xlink:href="multipipe_8c.html#aa4f1c217eeb689ecbc622baecd2c5dec" target="_top" xlink:title="management of the multipipe (= name when we have at least one pipe) First step is to manage the hered...">
<polygon fill="none" stroke="black" points="178,-130.5 178,-149.5 267,-149.5 267,-130.5 178,-130.5"/>
<text text-anchor="middle" x="222.5" y="-137.5" font-family="Helvetica,sans-Serif" font-size="10.00">multipipe_cmd</text>
</a>
</g>
</g>
<!-- Node5&#45;&gt;Node6 -->
<g id="edge5" class="edge">
<title>Node5&#45;&gt;Node6</title>
<path fill="none" stroke="midnightblue" d="M492.44,-125.15C423.55,-128.95 323.85,-134.46 267.19,-137.59"/>
<polygon fill="midnightblue" stroke="midnightblue" points="493,-128.62 502.8,-124.57 492.62,-121.63 493,-128.62"/>
</g>
<!-- Node9 -->
<g id="node9" class="node">
<title>Node9</title>
<g id="a_node9"><a xlink:href="execution_8c.html#a38335028b2bc7aa436f8f79a3753ce5e" target="_top" xlink:title="here we check if it&#39;s a builtin where we have to fork or not we still need to do the redirection veri...">
<polygon fill="none" stroke="black" points="343.5,-197.5 343.5,-216.5 432.5,-216.5 432.5,-197.5 343.5,-197.5"/>
<text text-anchor="middle" x="388" y="-204.5" font-family="Helvetica,sans-Serif" font-size="10.00">one_command</text>
</a>
</g>
</g>
<!-- Node5&#45;&gt;Node9 -->
<g id="edge8" class="edge">
<title>Node5&#45;&gt;Node9</title>
<path fill="none" stroke="midnightblue" d="M513.9,-134.34C510.1,-136.02 506.43,-137.9 503,-140 483.16,-152.15 486.41,-165.17 467,-178 454.23,-186.45 438.66,-192.87 424.8,-197.5"/>
<polygon fill="midnightblue" stroke="midnightblue" points="515.47,-137.48 523.49,-130.57 512.9,-130.97 515.47,-137.48"/>
</g>
<!-- Node7 -->
<g id="node7" class="node">
<title>Node7</title>
<g id="a_node7"><a xlink:href="execution_8c.html#a9542b61daba3eb4d45c8887c5648b2f6" target="_top" xlink:title="first function of the execution part when we have something to do we have to deal with two cases ; if...">
<polygon fill="none" stroke="black" points="77,-130.5 77,-149.5 136,-149.5 136,-130.5 77,-130.5"/>
<text text-anchor="middle" x="106.5" y="-137.5" font-family="Helvetica,sans-Serif" font-size="10.00">executor</text>
</a>
</g>
</g>
<!-- Node6&#45;&gt;Node7 -->
<g id="edge6" class="edge">
<title>Node6&#45;&gt;Node7</title>
<path fill="none" stroke="midnightblue" d="M167.48,-140C156.66,-140 145.7,-140 136.17,-140"/>
<polygon fill="midnightblue" stroke="midnightblue" points="167.75,-143.5 177.75,-140 167.75,-136.5 167.75,-143.5"/>
</g>
<!-- Node7&#45;&gt;Node8 -->
<g id="edge7" class="edge">
<title>Node7&#45;&gt;Node8</title>
<path fill="none" stroke="midnightblue" d="M67.05,-127.18C58.1,-124.2 48.94,-121.15 41.21,-118.57"/>
<polygon fill="midnightblue" stroke="midnightblue" points="66,-130.52 76.59,-130.36 68.21,-123.88 66,-130.52"/>
</g>
<!-- Node9&#45;&gt;Node7 -->
<g id="edge9" class="edge">
<title>Node9&#45;&gt;Node7</title>
<path fill="none" stroke="midnightblue" d="M333.32,-196.05C289.68,-186.91 226.62,-173.12 172,-159 160.25,-155.96 147.4,-152.25 136.28,-148.93"/>
<polygon fill="midnightblue" stroke="midnightblue" points="332.64,-199.49 343.15,-198.11 334.07,-192.64 332.64,-199.49"/>
</g>
<!-- Node11 -->
<g id="node11" class="node">
<title>Node11</title>
<g id="a_node11"><a xlink:href="multipipe_8c.html#af31c329200501f497cd102a470450103" target="_top" xlink:title="it&#39;s where the fork happen and sent to be execute">
<polygon fill="none" stroke="black" points="309,-149.5 309,-168.5 467,-168.5 467,-149.5 309,-149.5"/>
<text text-anchor="middle" x="388" y="-156.5" font-family="Helvetica,sans-Serif" font-size="10.00">multipipe_intermediary_cmd</text>
</a>
</g>
</g>
<!-- Node10&#45;&gt;Node11 -->
<g id="edge11" class="edge">
<title>Node10&#45;&gt;Node11</title>
<path fill="none" stroke="midnightblue" d="M516.68,-159C501.31,-159 484.06,-159 467.33,-159"/>
<polygon fill="midnightblue" stroke="midnightblue" points="517,-162.5 527,-159 517,-155.5 517,-162.5"/>
</g>
<!-- Node11&#45;&gt;Node6 -->
<g id="edge12" class="edge">
<title>Node11&#45;&gt;Node6</title>
<path fill="none" stroke="midnightblue" d="M298.58,-148.72C287.68,-147.46 276.95,-146.21 267.15,-145.07"/>
<polygon fill="midnightblue" stroke="midnightblue" points="298.26,-152.21 308.6,-149.89 299.07,-145.26 298.26,-152.21"/>
</g>
<!-- Node13 -->
<g id="node13" class="node">
<title>Node13</title>
<g id="a_node13"><a xlink:href="expand_8c.html#a53c53e75b0ad8c8888217cd918304b8b" target="_top" xlink:title="Iterate over every args and redir of each command to expand and dequote what needs to be.">
<polygon fill="none" stroke="black" points="172,-45.5 172,-64.5 273,-64.5 273,-45.5 172,-45.5"/>
<text text-anchor="middle" x="222.5" y="-52.5" font-family="Helvetica,sans-Serif" font-size="10.00">expand_manager</text>
</a>
</g>
</g>
<!-- Node12&#45;&gt;Node13 -->
<g id="edge14" class="edge">
<title>Node12&#45;&gt;Node13</title>
<path fill="none" stroke="midnightblue" d="M945.68,-50.16C888.67,-52.22 796.85,-55 717.5,-55 717.5,-55 717.5,-55 567.5,-55 462.69,-55 339.91,-55 273.06,-55"/>
<polygon fill="midnightblue" stroke="midnightblue" points="946.04,-53.65 955.9,-49.78 945.78,-46.65 946.04,-53.65"/>
</g>
<!-- Node13&#45;&gt;Node8 -->
<g id="edge15" class="edge">
<title>Node13&#45;&gt;Node8</title>
<path fill="none" stroke="midnightblue" d="M178.22,-67.34C135.69,-79.46 72.72,-97.4 41.11,-106.41"/>
<polygon fill="midnightblue" stroke="midnightblue" points="179.37,-70.65 188.02,-64.54 177.45,-63.92 179.37,-70.65"/>
</g>
<!-- Node15 -->
<g id="node15" class="node">
<title>Node15</title>
<g id="a_node15"><a xlink:href="launcher_8c.html#a7bee4f6fbfd70ef7ec1f52856538ac71" target="_top" xlink:title="launch the builtin &#160;&#160;some of them are not present because we have to fork() them why ?...">
<polygon fill="none" stroke="black" points="813,-190.5 813,-209.5 898,-209.5 898,-190.5 813,-190.5"/>
<text text-anchor="middle" x="855.5" y="-197.5" font-family="Helvetica,sans-Serif" font-size="10.00">launch_builtin</text>
</a>
</g>
</g>
<!-- Node14&#45;&gt;Node15 -->
<g id="edge18" class="edge">
<title>Node14&#45;&gt;Node15</title>
<path fill="none" stroke="midnightblue" d="M963.18,-200C943.28,-200 918.72,-200 898.19,-200"/>
<polygon fill="midnightblue" stroke="midnightblue" points="963.41,-203.5 973.41,-200 963.41,-196.5 963.41,-203.5"/>
</g>
<!-- Node15&#45;&gt;Node9 -->
<g id="edge23" class="edge">
<title>Node15&#45;&gt;Node9</title>
<path fill="none" stroke="midnightblue" d="M802.55,-200.78C710.19,-202.17 519.01,-205.04 432.82,-206.34"/>
<polygon fill="midnightblue" stroke="midnightblue" points="802.83,-204.28 812.78,-200.63 802.73,-197.28 802.83,-204.28"/>
</g>
<!-- Node16 -->
<g id="node16" class="node">
<title>Node16</title>
<g id="a_node16"><a xlink:href="execution__node_8c.html#adda76b40c34c18ec83b1d98700083f8a" target="_top" xlink:title="we are going to execute the command here we have a security about absolute path given =&gt; because it&#39;s...">
<polygon fill="none" stroke="black" points="670,-168.5 670,-187.5 763,-187.5 763,-168.5 670,-168.5"/>
<text text-anchor="middle" x="716.5" y="-175.5" font-family="Helvetica,sans-Serif" font-size="10.00">execution_node</text>
</a>
</g>
</g>
<!-- Node15&#45;&gt;Node16 -->
<g id="edge19" class="edge">
<title>Node15&#45;&gt;Node16</title>
<path fill="none" stroke="midnightblue" d="M802.54,-191.66C789.66,-189.59 775.95,-187.39 763.39,-185.37"/>
<polygon fill="midnightblue" stroke="midnightblue" points="802.22,-195.15 812.65,-193.28 803.33,-188.24 802.22,-195.15"/>
</g>
<!-- Node16&#45;&gt;Node10 -->
<g id="edge20" class="edge">
<title>Node16&#45;&gt;Node10</title>
<path fill="none" stroke="midnightblue" d="M659.65,-170.73C643.19,-168.59 625.5,-166.29 610.19,-164.3"/>
<polygon fill="midnightblue" stroke="midnightblue" points="659.34,-174.22 669.71,-172.04 660.24,-167.28 659.34,-174.22"/>
</g>
<!-- Node16&#45;&gt;Node17 -->
<g id="edge21" class="edge">
<title>Node16&#45;&gt;Node17</title>
<path fill="none" stroke="midnightblue" d="M688.11,-192.26C658.8,-207.52 613.1,-231.3 587.84,-244.45"/>
<polygon fill="midnightblue" stroke="midnightblue" points="689.75,-195.35 697.01,-187.63 686.52,-189.14 689.75,-195.35"/>
</g>
<!-- Node17&#45;&gt;Node9 -->
<g id="edge22" class="edge">
<title>Node17&#45;&gt;Node9</title>
<path fill="none" stroke="midnightblue" d="M521.59,-241.91C491.67,-234.03 453.17,-223.9 425.37,-216.58"/>
<polygon fill="midnightblue" stroke="midnightblue" points="520.82,-245.33 531.38,-244.49 522.6,-238.56 520.82,-245.33"/>
</g>
<!-- Node19 -->
<g id="node19" class="node">
<title>Node19</title>
<g id="a_node19"><a xlink:href="parsing__error_8c.html#a8f5f1cfa591c395b88733e1134d8de3d" target="_top" xlink:title=" ">
<polygon fill="none" stroke="black" points="816.5,-2.5 816.5,-21.5 894.5,-21.5 894.5,-2.5 816.5,-2.5"/>
<text text-anchor="middle" x="855.5" y="-9.5" font-family="Helvetica,sans-Serif" font-size="10.00">syntax_error</text>
</a>
</g>
</g>
<!-- Node18&#45;&gt;Node19 -->
<g id="edge26" class="edge">
<title>Node18&#45;&gt;Node19</title>
<path fill="none" stroke="midnightblue" d="M937.29,-10.88C922.84,-11.08 907.9,-11.29 894.87,-11.47"/>
<polygon fill="midnightblue" stroke="midnightblue" points="937.75,-14.37 947.7,-10.73 937.65,-7.37 937.75,-14.37"/>
</g>
<!-- Node20 -->
<g id="node20" class="node">
<title>Node20</title>
<g id="a_node20"><a xlink:href="parser_8c.html#a302af903b3f87eaaff83762f60c2d8cb" target="_top" xlink:title=" ">
<polygon fill="none" stroke="black" points="83,-7.5 83,-26.5 130,-26.5 130,-7.5 83,-7.5"/>
<text text-anchor="middle" x="106.5" y="-14.5" font-family="Helvetica,sans-Serif" font-size="10.00">parser</text>
</a>
</g>
</g>
<!-- Node19&#45;&gt;Node20 -->
<g id="edge27" class="edge">
<title>Node19&#45;&gt;Node20</title>
<path fill="none" stroke="midnightblue" d="M806.14,-13.37C749.44,-14.85 652.66,-17 569.5,-17 569.5,-17 569.5,-17 387,-17 291.65,-17 178,-17 130.32,-17"/>
<polygon fill="midnightblue" stroke="midnightblue" points="806.34,-16.86 816.24,-13.1 806.15,-9.86 806.34,-16.86"/>
</g>
<!-- Node20&#45;&gt;Node8 -->
<g id="edge28" class="edge">
<title>Node20&#45;&gt;Node8</title>
<path fill="none" stroke="midnightblue" d="M85.21,-33.19C82.36,-35.71 79.55,-38.36 77,-41 57.45,-61.27 37.96,-88.14 28.1,-102.3"/>
<polygon fill="midnightblue" stroke="midnightblue" points="87.71,-35.65 93.08,-26.52 83.19,-30.31 87.71,-35.65"/>
</g>
<!-- Node21&#45;&gt;Node3 -->
<g id="edge30" class="edge">
<title>Node21&#45;&gt;Node3</title>
<path fill="none" stroke="midnightblue" d="M939.6,-114.7C930.51,-113.31 921.18,-111.88 912.2,-110.51"/>
<polygon fill="midnightblue" stroke="midnightblue" points="939.32,-118.19 949.73,-116.24 940.37,-111.27 939.32,-118.19"/>
</g>
</g>
</svg>
        <g id="navigator" transform="translate(0 0)" fill="#404254">
                <rect fill="#f2f5e9" fill-opacity="0.5" stroke="#606060" stroke-width=".5" x="0" y="0" width="60" height="60"/>
                <use id="zoomplus" xlink:href="#zoomPlus" x="17" y="9" onmousedown="handleZoom(evt,'in')"/>
                <use id="zoomminus" xlink:href="#zoomMin" x="42" y="9" onmousedown="handleZoom(evt,'out')"/>
                <use id="reset" xlink:href="#resetDef" x="30" y="36" onmousedown="handleReset()"/>
                <g id="arrowUp" xlink:href="#dirArrow" transform="translate(30 24)" onmousedown="handlePan(0,-1)">
                  <use xlink:href="#rim" fill="#404040">
                        <set attributeName="fill" to="#808080" begin="arrowUp.mouseover" end="arrowUp.mouseout"/>
                  </use>
                  <path fill="none" stroke="white" stroke-width="1.5" d="M0,-3.0v7 M-2.5,-0.5L0,-3.0L2.5,-0.5"/>
                </g>
                <g id="arrowRight" xlink:href="#dirArrow" transform="rotate(90) translate(36 -43)" onmousedown="handlePan(1,0)">
                  <use xlink:href="#rim" fill="#404040">
                        <set attributeName="fill" to="#808080" begin="arrowRight.mouseover" end="arrowRight.mouseout"/>
                  </use>
                  <path fill="none" stroke="white" stroke-width="1.5" d="M0,-3.0v7 M-2.5,-0.5L0,-3.0L2.5,-0.5"/>
                </g>
                <g id="arrowDown" xlink:href="#dirArrow" transform="rotate(180) translate(-30 -48)" onmousedown="handlePan(0,1)">
                  <use xlink:href="#rim" fill="#404040">
                        <set attributeName="fill" to="#808080" begin="arrowDown.mouseover" end="arrowDown.mouseout"/>
                  </use>
                  <path fill="none" stroke="white" stroke-width="1.5" d="M0,-3.0v7 M-2.5,-0.5L0,-3.0L2.5,-0.5"/>
                </g>
                <g id="arrowLeft" xlink:href="#dirArrow" transform="rotate(270) translate(-36 17)" onmousedown="handlePan(-1,0)">
                  <use xlink:href="#rim" fill="#404040">
                        <set attributeName="fill" to="#808080" begin="arrowLeft.mouseover" end="arrowLeft.mouseout"/>
                  </use>
                  <path fill="none" stroke="white" stroke-width="1.5" d="M0,-3.0v7 M-2.5,-0.5L0,-3.0L2.5,-0.5"/>
                </g>
        </g>
        <svg viewBox="0 0 15 15" width="100%" height="30px" preserveAspectRatio="xMaxYMin meet">
         <g id="arrow_out" transform="scale(0.3 0.3)">
          <a xlink:href="lst__cmd2_8c_a8e2b63759f149b547e0d07f210ede9b3_icgraph_org.svg" target="_base">
           <rect id="button" ry="5" rx="5" y="6" x="6" height="38" width="38"
                fill="#f2f5e9" fill-opacity="0.5" stroke="#606060" stroke-width="1.0"/>
           <path id="arrow"
             d="M 11.500037,31.436501 C 11.940474,20.09759 22.043105,11.32322 32.158766,21.979434 L 37.068811,17.246167 C 37.068811,17.246167 37.088388,32 37.088388,32 L 22.160133,31.978069 C 22.160133,31.978069 26.997745,27.140456 26.997745,27.140456 C 18.528582,18.264221 13.291696,25.230495 11.500037,31.436501 z"
             style="fill:#404040;"/>
          </a>
         </g>
        </svg>
</svg>
