<?xml version="1.0" encoding="UTF-8" standalone="no"?>
<!DOCTYPE svg PUBLIC "-//W3C//DTD SVG 1.1//EN"
 "http://www.w3.org/Graphics/SVG/1.1/DTD/svg11.dtd">
<!-- Generated by graphviz version 2.43.0 (0)
 -->
<!-- Title: get_last_cmd Pages: 1 -->
<svg width="491pt" height="47pt"
 viewBox="0.00 0.00 491.00 47.00" xmlns="http://www.w3.org/2000/svg" xmlns:xlink="http://www.w3.org/1999/xlink">
<g id="graph0" class="graph" transform="scale(1 1) rotate(0) translate(4 43)">
<title>get_last_cmd</title>
<!-- Node1 -->
<g id="node1" class="node">
<title>Node1</title>
<g id="a_node1"><a xlink:title=" ">
<polygon fill="#bfbfbf" stroke="black" points="401,-19.5 401,-38.5 483,-38.5 483,-19.5 401,-19.5"/>
<text text-anchor="middle" x="442" y="-26.5" font-family="Helvetica,sans-Serif" font-size="10.00">get_last_cmd</text>
</a>
</g>
</g>
<!-- Node2 -->
<g id="node2" class="node">
<title>Node2</title>
<g id="a_node2"><a xlink:href="lst__cmd_8c.html#aed036fcdab112b64cbd705f26aee31e0" target="_top" xlink:title=" ">
<polygon fill="none" stroke="black" points="270,-19.5 270,-38.5 365,-38.5 365,-19.5 270,-19.5"/>
<text text-anchor="middle" x="317.5" y="-26.5" font-family="Helvetica,sans-Serif" font-size="10.00">push_back_cmd</text>
</a>
</g>
</g>
<!-- Node1&#45;&gt;Node2 -->
<g id="edge1" class="edge">
<title>Node1&#45;&gt;Node2</title>
<path fill="none" stroke="midnightblue" d="M390.73,-29C382.25,-29 373.47,-29 365.08,-29"/>
<polygon fill="midnightblue" stroke="midnightblue" points="390.89,-32.5 400.89,-29 390.89,-25.5 390.89,-32.5"/>
</g>
<!-- Node3 -->
<g id="node3" class="node">
<title>Node3</title>
<g id="a_node3"><a xlink:href="parser_8c.html#ae22079ec4dbb24c0eb15425a8dd785bd" target="_top" xlink:title=" ">
<polygon fill="none" stroke="black" points="77,-19.5 77,-38.5 124,-38.5 124,-19.5 77,-19.5"/>
<text text-anchor="middle" x="100.5" y="-26.5" font-family="Helvetica,sans-Serif" font-size="10.00">parser</text>
</a>
</g>
</g>
<!-- Node2&#45;&gt;Node3 -->
<g id="edge2" class="edge">
<title>Node2&#45;&gt;Node3</title>
<path fill="none" stroke="midnightblue" d="M259.76,-29C215.35,-29 155.92,-29 124.02,-29"/>
<polygon fill="midnightblue" stroke="midnightblue" points="259.85,-32.5 269.85,-29 259.85,-25.5 259.85,-32.5"/>
</g>
<!-- Node5 -->
<g id="node5" class="node">
<title>Node5</title>
<g id="a_node5"><a xlink:href="parser_8c.html#a7e8d15749e17fe4ed49f75c3c6998719" target="_top" xlink:title=" ">
<polygon fill="none" stroke="black" points="160,-0.5 160,-19.5 234,-19.5 234,-0.5 160,-0.5"/>
<text text-anchor="middle" x="197" y="-7.5" font-family="Helvetica,sans-Serif" font-size="10.00">parser_loop</text>
</a>
</g>
</g>
<!-- Node2&#45;&gt;Node5 -->
<g id="edge4" class="edge">
<title>Node2&#45;&gt;Node5</title>
<path fill="none" stroke="midnightblue" d="M259.61,-19.88C250.99,-18.5 242.29,-17.1 234.26,-15.81"/>
<polygon fill="midnightblue" stroke="midnightblue" points="259.24,-23.36 269.67,-21.49 260.35,-16.45 259.24,-23.36"/>
</g>
<!-- Node4 -->
<g id="node4" class="node">
<title>Node4</title>
<g id="a_node4"><a xlink:href="main_8c.html#a647f21a28344e1d9c643f4115516d7c9" target="_top" xlink:title=" ">
<polygon fill="none" stroke="black" points="0,-19.5 0,-38.5 41,-38.5 41,-19.5 0,-19.5"/>
<text text-anchor="middle" x="20.5" y="-26.5" font-family="Helvetica,sans-Serif" font-size="10.00">main</text>
</a>
</g>
</g>
<!-- Node3&#45;&gt;Node4 -->
<g id="edge3" class="edge">
<title>Node3&#45;&gt;Node4</title>
<path fill="none" stroke="midnightblue" d="M66.66,-29C57.96,-29 48.84,-29 41.1,-29"/>
<polygon fill="midnightblue" stroke="midnightblue" points="66.94,-32.5 76.94,-29 66.94,-25.5 66.94,-32.5"/>
</g>
<!-- Node5&#45;&gt;Node3 -->
<g id="edge5" class="edge">
<title>Node5&#45;&gt;Node3</title>
<path fill="none" stroke="midnightblue" d="M149.76,-19.3C140.84,-21.09 131.88,-22.89 124.14,-24.45"/>
<polygon fill="midnightblue" stroke="midnightblue" points="150.62,-22.69 159.73,-17.29 149.24,-15.83 150.62,-22.69"/>
</g>
</g>
</svg>
