<?xml version="1.0" encoding="UTF-8" standalone="no"?>
<!DOCTYPE svg PUBLIC "-//W3C//DTD SVG 1.1//EN"
 "http://www.w3.org/Graphics/SVG/1.1/DTD/svg11.dtd">
<!-- Generated by graphviz version 2.43.0 (0)
 -->
<!-- Title: research_node_env Pages: 1 -->
<!--zoomable 121 -->
<svg id="main" version="1.1" xmlns="http://www.w3.org/2000/svg" xmlns:xlink="http://www.w3.org/1999/xlink" xml:space="preserve" onload="init(evt)">
<style type="text/css"><![CDATA[
.edge:hover path { stroke: red; }
.edge:hover polygon { stroke: red; fill: red; }
]]></style>
<script type="text/javascript"><![CDATA[
var edges = document.getElementsByTagName('g');
if (edges && edges.length) {
  for (var i=0;i<edges.length;i++) {
    if (edges[i].id.substr(0,4)=='edge') {
      edges[i].setAttribute('class','edge');
    }
  }
}
]]></script>
        <defs>
                <circle id="rim" cx="0" cy="0" r="7"/>
                <circle id="rim2" cx="0" cy="0" r="3.5"/>
                <g id="zoomPlus">
                        <use xlink:href="#rim" fill="#404040">
                                <set attributeName="fill" to="#808080" begin="zoomplus.mouseover" end="zoomplus.mouseout"/>
                        </use>
                        <path d="M-4,0h8M0,-4v8" fill="none" stroke="white" stroke-width="1.5" pointer-events="none"/>
                </g>
                <g id="zoomMin">
                        <use xlink:href="#rim" fill="#404040">
                                <set attributeName="fill" to="#808080" begin="zoomminus.mouseover" end="zoomminus.mouseout"/>
                        </use>
                        <path d="M-4,0h8" fill="none" stroke="white" stroke-width="1.5" pointer-events="none"/>
                </g>
                <g id="dirArrow">
                        <path fill="none" stroke="white" stroke-width="1.5" d="M0,-3.0v7 M-2.5,-0.5L0,-3.0L2.5,-0.5"/>
                </g>
               <g id="resetDef">
                       <use xlink:href="#rim2" fill="#404040">
                               <set attributeName="fill" to="#808080" begin="reset.mouseover" end="reset.mouseout"/>
                       </use>
               </g>
        </defs>

<script type="text/javascript">
var viewWidth = 1494;
var viewHeight = 121;
var sectionId = 'dynsection-4';
</script>
<script xlink:href="svgpan.js"/>
<svg id="graph" class="graph">
<g id="viewport">
<title>research_node_env</title>
<!-- Node1 -->
<g id="node1" class="node">
<title>Node1</title>
<g id="a_node1"><a xlink:title=" ">
<polygon fill="#bfbfbf" stroke="black" points="1375,-38.5 1375,-57.5 1486,-57.5 1486,-38.5 1375,-38.5"/>
<text text-anchor="middle" x="1430.5" y="-45.5" font-family="Helvetica,sans-Serif" font-size="10.00">research_node_env</text>
</a>
</g>
</g>
<!-- Node2 -->
<g id="node2" class="node">
<title>Node2</title>
<g id="a_node2"><a xlink:href="export_8c.html#a90ff129fee9412bd5c6d74be5970b99f" target="_top" xlink:title=" ">
<polygon fill="none" stroke="black" points="1220.5,-38.5 1220.5,-57.5 1330.5,-57.5 1330.5,-38.5 1220.5,-38.5"/>
<text text-anchor="middle" x="1275.5" y="-45.5" font-family="Helvetica,sans-Serif" font-size="10.00">export_env_update</text>
</a>
</g>
</g>
<!-- Node1&#45;&gt;Node2 -->
<g id="edge1" class="edge">
<title>Node1&#45;&gt;Node2</title>
<path fill="none" stroke="midnightblue" d="M1364.47,-48C1353.21,-48 1341.6,-48 1330.66,-48"/>
<polygon fill="midnightblue" stroke="midnightblue" points="1364.7,-51.5 1374.7,-48 1364.7,-44.5 1364.7,-51.5"/>
</g>
<!-- Node14 -->
<g id="node14" class="node">
<title>Node14</title>
<g id="a_node14"><a xlink:href="cd_8c.html#a68bb8beb2cf13bb992af8322f31f94e7" target="_top" xlink:title=" ">
<polygon fill="none" stroke="black" points="1237.5,-76.5 1237.5,-95.5 1313.5,-95.5 1313.5,-76.5 1237.5,-76.5"/>
<text text-anchor="middle" x="1275.5" y="-83.5" font-family="Helvetica,sans-Serif" font-size="10.00">update_pwd</text>
</a>
</g>
</g>
<!-- Node1&#45;&gt;Node14 -->
<g id="edge15" class="edge">
<title>Node1&#45;&gt;Node14</title>
<path fill="none" stroke="midnightblue" d="M1381.13,-60.01C1359.26,-65.45 1333.83,-71.76 1313.51,-76.81"/>
<polygon fill="midnightblue" stroke="midnightblue" points="1382.03,-63.4 1390.89,-57.59 1380.34,-56.6 1382.03,-63.4"/>
</g>
<!-- Node16 -->
<g id="node16" class="node">
<title>Node16</title>
<g id="a_node16"><a xlink:href="heredoc2_8c.html#a2a5c565389701ca49d867d3746245106" target="_top" xlink:title=" ">
<polygon fill="none" stroke="black" points="1212,-0.5 1212,-19.5 1339,-19.5 1339,-0.5 1212,-0.5"/>
<text text-anchor="middle" x="1275.5" y="-7.5" font-family="Helvetica,sans-Serif" font-size="10.00">write_heredoc_expand</text>
</a>
</g>
</g>
<!-- Node1&#45;&gt;Node16 -->
<g id="edge18" class="edge">
<title>Node1&#45;&gt;Node16</title>
<path fill="none" stroke="midnightblue" d="M1381.02,-35.96C1359.65,-30.65 1334.89,-24.5 1314.83,-19.52"/>
<polygon fill="midnightblue" stroke="midnightblue" points="1380.34,-39.4 1390.89,-38.41 1382.03,-32.6 1380.34,-39.4"/>
</g>
<!-- Node3 -->
<g id="node3" class="node">
<title>Node3</title>
<g id="a_node3"><a xlink:href="export_8c.html#a63ef72e778f2b52c924bf77ae989dc80" target="_top" xlink:title=" ">
<polygon fill="none" stroke="black" points="1101.5,-38.5 1101.5,-57.5 1149.5,-57.5 1149.5,-38.5 1101.5,-38.5"/>
<text text-anchor="middle" x="1125.5" y="-45.5" font-family="Helvetica,sans-Serif" font-size="10.00">export</text>
</a>
</g>
</g>
<!-- Node2&#45;&gt;Node3 -->
<g id="edge2" class="edge">
<title>Node2&#45;&gt;Node3</title>
<path fill="none" stroke="midnightblue" d="M1210.14,-48C1188.67,-48 1166.09,-48 1149.82,-48"/>
<polygon fill="midnightblue" stroke="midnightblue" points="1210.23,-51.5 1220.23,-48 1210.23,-44.5 1210.23,-51.5"/>
</g>
<!-- Node4 -->
<g id="node4" class="node">
<title>Node4</title>
<g id="a_node4"><a xlink:href="export_8c.html#a1bb2544b6254ee4ddb592a4cfa61734f" target="_top" xlink:title=" ">
<polygon fill="none" stroke="black" points="952,-38.5 952,-57.5 1023,-57.5 1023,-38.5 952,-38.5"/>
<text text-anchor="middle" x="987.5" y="-45.5" font-family="Helvetica,sans-Serif" font-size="10.00">export_call</text>
</a>
</g>
</g>
<!-- Node3&#45;&gt;Node4 -->
<g id="edge3" class="edge">
<title>Node3&#45;&gt;Node4</title>
<path fill="none" stroke="midnightblue" d="M1091.23,-48C1070.58,-48 1044.1,-48 1023.19,-48"/>
<polygon fill="midnightblue" stroke="midnightblue" points="1091.43,-51.5 1101.43,-48 1091.43,-44.5 1091.43,-51.5"/>
</g>
<!-- Node5 -->
<g id="node5" class="node">
<title>Node5</title>
<g id="a_node5"><a xlink:href="launcher_8c.html#a7bee4f6fbfd70ef7ec1f52856538ac71" target="_top" xlink:title="launch the builtin &#160;&#160;some of them are not present because we have to fork() them why ?...">
<polygon fill="none" stroke="black" points="801,-76.5 801,-95.5 886,-95.5 886,-76.5 801,-76.5"/>
<text text-anchor="middle" x="843.5" y="-83.5" font-family="Helvetica,sans-Serif" font-size="10.00">launch_builtin</text>
</a>
</g>
</g>
<!-- Node4&#45;&gt;Node5 -->
<g id="edge4" class="edge">
<title>Node4&#45;&gt;Node5</title>
<path fill="none" stroke="midnightblue" d="M942.01,-59.9C922.16,-65.22 899.08,-71.39 880.36,-76.4"/>
<polygon fill="midnightblue" stroke="midnightblue" points="943.01,-63.26 951.76,-57.3 941.2,-56.5 943.01,-63.26"/>
</g>
<!-- Node6 -->
<g id="node6" class="node">
<title>Node6</title>
<g id="a_node6"><a xlink:href="execution__node_8c.html#adda76b40c34c18ec83b1d98700083f8a" target="_top" xlink:title="we are going to execute the command here we have a security about absolute path given =&gt; because it&#39;s...">
<polygon fill="none" stroke="black" points="658,-76.5 658,-95.5 751,-95.5 751,-76.5 658,-76.5"/>
<text text-anchor="middle" x="704.5" y="-83.5" font-family="Helvetica,sans-Serif" font-size="10.00">execution_node</text>
</a>
</g>
</g>
<!-- Node5&#45;&gt;Node6 -->
<g id="edge5" class="edge">
<title>Node5&#45;&gt;Node6</title>
<path fill="none" stroke="midnightblue" d="M790.54,-86C777.66,-86 763.95,-86 751.39,-86"/>
<polygon fill="midnightblue" stroke="midnightblue" points="790.65,-89.5 800.65,-86 790.65,-82.5 790.65,-89.5"/>
</g>
<!-- Node13 -->
<g id="node13" class="node">
<title>Node13</title>
<g id="a_node13"><a xlink:href="execution_8c.html#a38335028b2bc7aa436f8f79a3753ce5e" target="_top" xlink:title="here we check if it&#39;s a builtin where we have to fork or not we still need to do the redirection veri...">
<polygon fill="none" stroke="black" points="331.5,-76.5 331.5,-95.5 420.5,-95.5 420.5,-76.5 331.5,-76.5"/>
<text text-anchor="middle" x="376" y="-83.5" font-family="Helvetica,sans-Serif" font-size="10.00">one_command</text>
</a>
</g>
</g>
<!-- Node5&#45;&gt;Node13 -->
<g id="edge14" class="edge">
<title>Node5&#45;&gt;Node13</title>
<path fill="none" stroke="midnightblue" d="M795.36,-97.71C781.19,-100.71 765.55,-103.51 751,-105 636.05,-116.81 606.16,-114.53 491,-105 467.6,-103.06 441.78,-98.93 420.64,-95.01"/>
<polygon fill="midnightblue" stroke="midnightblue" points="796.36,-101.07 805.37,-95.51 794.86,-94.24 796.36,-101.07"/>
</g>
<!-- Node7 -->
<g id="node7" class="node">
<title>Node7</title>
<g id="a_node7"><a xlink:href="multipipe_8c.html#a461ae962ce9a1aee7221ac4b9c581f98" target="_top" xlink:title=" ">
<polygon fill="none" stroke="black" points="515,-38.5 515,-57.5 598,-57.5 598,-38.5 515,-38.5"/>
<text text-anchor="middle" x="556.5" y="-45.5" font-family="Helvetica,sans-Serif" font-size="10.00">execute_child</text>
</a>
</g>
</g>
<!-- Node6&#45;&gt;Node7 -->
<g id="edge6" class="edge">
<title>Node6&#45;&gt;Node7</title>
<path fill="none" stroke="midnightblue" d="M656.96,-73.89C636.63,-68.6 613.13,-62.48 594.08,-57.52"/>
<polygon fill="midnightblue" stroke="midnightblue" points="656.1,-77.28 666.66,-76.41 657.86,-70.5 656.1,-77.28"/>
</g>
<!-- Node12 -->
<g id="node12" class="node">
<title>Node12</title>
<g id="a_node12"><a xlink:href="execution_8c.html#aa6f3ac2f0c10538c125eafcb587fd021" target="_top" xlink:title="in this function we do the fork to create a child process we do the redirection if we need to">
<polygon fill="none" stroke="black" points="492.5,-76.5 492.5,-95.5 620.5,-95.5 620.5,-76.5 492.5,-76.5"/>
<text text-anchor="middle" x="556.5" y="-83.5" font-family="Helvetica,sans-Serif" font-size="10.00">one_command_execve</text>
</a>
</g>
</g>
<!-- Node6&#45;&gt;Node12 -->
<g id="edge11" class="edge">
<title>Node6&#45;&gt;Node12</title>
<path fill="none" stroke="midnightblue" d="M647.53,-86C638.69,-86 629.5,-86 620.52,-86"/>
<polygon fill="midnightblue" stroke="midnightblue" points="647.71,-89.5 657.71,-86 647.71,-82.5 647.71,-89.5"/>
</g>
<!-- Node8 -->
<g id="node8" class="node">
<title>Node8</title>
<g id="a_node8"><a xlink:href="multipipe_8c.html#af31c329200501f497cd102a470450103" target="_top" xlink:title="it&#39;s where the fork happen and sent to be execute">
<polygon fill="none" stroke="black" points="297,-38.5 297,-57.5 455,-57.5 455,-38.5 297,-38.5"/>
<text text-anchor="middle" x="376" y="-45.5" font-family="Helvetica,sans-Serif" font-size="10.00">multipipe_intermediary_cmd</text>
</a>
</g>
</g>
<!-- Node7&#45;&gt;Node8 -->
<g id="edge7" class="edge">
<title>Node7&#45;&gt;Node8</title>
<path fill="none" stroke="midnightblue" d="M504.68,-48C489.31,-48 472.06,-48 455.33,-48"/>
<polygon fill="midnightblue" stroke="midnightblue" points="505,-51.5 515,-48 505,-44.5 505,-51.5"/>
</g>
<!-- Node9 -->
<g id="node9" class="node">
<title>Node9</title>
<g id="a_node9"><a xlink:href="multipipe_8c.html#aa4f1c217eeb689ecbc622baecd2c5dec" target="_top" xlink:title="management of the multipipe (= name when we have at least one pipe) First step is to manage the hered...">
<polygon fill="none" stroke="black" points="172,-38.5 172,-57.5 261,-57.5 261,-38.5 172,-38.5"/>
<text text-anchor="middle" x="216.5" y="-45.5" font-family="Helvetica,sans-Serif" font-size="10.00">multipipe_cmd</text>
</a>
</g>
</g>
<!-- Node8&#45;&gt;Node9 -->
<g id="edge8" class="edge">
<title>Node8&#45;&gt;Node9</title>
<path fill="none" stroke="midnightblue" d="M286.44,-48C277.73,-48 269.19,-48 261.24,-48"/>
<polygon fill="midnightblue" stroke="midnightblue" points="286.71,-51.5 296.71,-48 286.71,-44.5 286.71,-51.5"/>
</g>
<!-- Node10 -->
<g id="node10" class="node">
<title>Node10</title>
<g id="a_node10"><a xlink:href="execution_8c.html#a9542b61daba3eb4d45c8887c5648b2f6" target="_top" xlink:title="first function of the execution part when we have something to do we have to deal with two cases ; if...">
<polygon fill="none" stroke="black" points="77,-57.5 77,-76.5 136,-76.5 136,-57.5 77,-57.5"/>
<text text-anchor="middle" x="106.5" y="-64.5" font-family="Helvetica,sans-Serif" font-size="10.00">executor</text>
</a>
</g>
</g>
<!-- Node9&#45;&gt;Node10 -->
<g id="edge9" class="edge">
<title>Node9&#45;&gt;Node10</title>
<path fill="none" stroke="midnightblue" d="M161.88,-57.43C152.97,-59 144.05,-60.57 136.08,-61.97"/>
<polygon fill="midnightblue" stroke="midnightblue" points="162.64,-60.85 171.88,-55.67 161.43,-53.96 162.64,-60.85"/>
</g>
<!-- Node11 -->
<g id="node11" class="node">
<title>Node11</title>
<g id="a_node11"><a xlink:href="main_8c.html#a647f21a28344e1d9c643f4115516d7c9" target="_top" xlink:title=" ">
<polygon fill="none" stroke="black" points="0,-57.5 0,-76.5 41,-76.5 41,-57.5 0,-57.5"/>
<text text-anchor="middle" x="20.5" y="-64.5" font-family="Helvetica,sans-Serif" font-size="10.00">main</text>
</a>
</g>
</g>
<!-- Node10&#45;&gt;Node11 -->
<g id="edge10" class="edge">
<title>Node10&#45;&gt;Node11</title>
<path fill="none" stroke="midnightblue" d="M66.48,-67C57.72,-67 48.78,-67 41.21,-67"/>
<polygon fill="midnightblue" stroke="midnightblue" points="66.59,-70.5 76.59,-67 66.59,-63.5 66.59,-70.5"/>
</g>
<!-- Node12&#45;&gt;Node13 -->
<g id="edge12" class="edge">
<title>Node12&#45;&gt;Node13</title>
<path fill="none" stroke="midnightblue" d="M482.19,-86C461.33,-86 439.27,-86 420.77,-86"/>
<polygon fill="midnightblue" stroke="midnightblue" points="482.32,-89.5 492.32,-86 482.32,-82.5 482.32,-89.5"/>
</g>
<!-- Node13&#45;&gt;Node10 -->
<g id="edge13" class="edge">
<title>Node13&#45;&gt;Node10</title>
<path fill="none" stroke="midnightblue" d="M321.37,-82.19C265.58,-78.23 180.35,-72.17 136.22,-69.04"/>
<polygon fill="midnightblue" stroke="midnightblue" points="321.2,-85.69 331.43,-82.91 321.7,-78.71 321.2,-85.69"/>
</g>
<!-- Node15 -->
<g id="node15" class="node">
<title>Node15</title>
<g id="a_node15"><a xlink:href="cd_8c.html#afa3cf8a1d55856208b8d44453d4cf9b4" target="_top" xlink:title=" ">
<polygon fill="none" stroke="black" points="973,-76.5 973,-95.5 1002,-95.5 1002,-76.5 973,-76.5"/>
<text text-anchor="middle" x="987.5" y="-83.5" font-family="Helvetica,sans-Serif" font-size="10.00">cd</text>
</a>
</g>
</g>
<!-- Node14&#45;&gt;Node15 -->
<g id="edge16" class="edge">
<title>Node14&#45;&gt;Node15</title>
<path fill="none" stroke="midnightblue" d="M1227.14,-86C1160.28,-86 1041.94,-86 1002.05,-86"/>
<polygon fill="midnightblue" stroke="midnightblue" points="1227.4,-89.5 1237.4,-86 1227.4,-82.5 1227.4,-89.5"/>
</g>
<!-- Node15&#45;&gt;Node5 -->
<g id="edge17" class="edge">
<title>Node15&#45;&gt;Node5</title>
<path fill="none" stroke="midnightblue" d="M962.7,-86C941.85,-86 911.08,-86 886.16,-86"/>
<polygon fill="midnightblue" stroke="midnightblue" points="962.88,-89.5 972.88,-86 962.88,-82.5 962.88,-89.5"/>
</g>
<!-- Node17 -->
<g id="node17" class="node">
<title>Node17</title>
<g id="a_node17"><a xlink:href="heredoc2_8c.html#a62cf028a22b96be266416a01e88726f0" target="_top" xlink:title="function to write on the heredoc file depending if we have a $ sign or not we write or we expand">
<polygon fill="none" stroke="black" points="1075,-0.5 1075,-19.5 1176,-19.5 1176,-0.5 1075,-0.5"/>
<text text-anchor="middle" x="1125.5" y="-7.5" font-family="Helvetica,sans-Serif" font-size="10.00">write_to_heredoc</text>
</a>
</g>
</g>
<!-- Node16&#45;&gt;Node17 -->
<g id="edge19" class="edge">
<title>Node16&#45;&gt;Node17</title>
<path fill="none" stroke="midnightblue" d="M1201.7,-10C1193.12,-10 1184.51,-10 1176.35,-10"/>
<polygon fill="midnightblue" stroke="midnightblue" points="1201.73,-13.5 1211.73,-10 1201.73,-6.5 1201.73,-13.5"/>
</g>
<!-- Node18 -->
<g id="node18" class="node">
<title>Node18</title>
<g id="a_node18"><a xlink:href="heredoc_8c.html#aa11261ffe1d93fd87488514776e2df34" target="_top" xlink:title=" ">
<polygon fill="none" stroke="black" points="936,-0.5 936,-19.5 1039,-19.5 1039,-0.5 936,-0.5"/>
<text text-anchor="middle" x="987.5" y="-7.5" font-family="Helvetica,sans-Serif" font-size="10.00">read_gnl_heredoc</text>
</a>
</g>
</g>
<!-- Node17&#45;&gt;Node18 -->
<g id="edge20" class="edge">
<title>Node17&#45;&gt;Node18</title>
<path fill="none" stroke="midnightblue" d="M1064.49,-10C1056.07,-10 1047.49,-10 1039.27,-10"/>
<polygon fill="midnightblue" stroke="midnightblue" points="1064.63,-13.5 1074.63,-10 1064.63,-6.5 1064.63,-13.5"/>
</g>
<!-- Node19 -->
<g id="node19" class="node">
<title>Node19</title>
<g id="a_node19"><a xlink:href="heredoc_8c.html#a98f0cdaa70ea9d777053df568b66e32a" target="_top" xlink:title="the function to call what the child has to do main reason for this function =&gt; the norm">
<polygon fill="none" stroke="black" points="787,-0.5 787,-19.5 900,-19.5 900,-0.5 787,-0.5"/>
<text text-anchor="middle" x="843.5" y="-7.5" font-family="Helvetica,sans-Serif" font-size="10.00">child_work_heredoc</text>
</a>
</g>
</g>
<!-- Node18&#45;&gt;Node19 -->
<g id="edge21" class="edge">
<title>Node18&#45;&gt;Node19</title>
<path fill="none" stroke="midnightblue" d="M925.54,-10C917.16,-10 908.59,-10 900.3,-10"/>
<polygon fill="midnightblue" stroke="midnightblue" points="925.64,-13.5 935.64,-10 925.64,-6.5 925.64,-13.5"/>
</g>
<!-- Node20 -->
<g id="node20" class="node">
<title>Node20</title>
<g id="a_node20"><a xlink:href="heredoc_8c.html#a0b4a5d07e8877b06b8977b47a6d51930" target="_top" xlink:title="it&#39;s where we open the heredoc and start writing inside our pipe each time we check if it&#39;s the word ...">
<polygon fill="none" stroke="black" points="661.5,-0.5 661.5,-19.5 747.5,-19.5 747.5,-0.5 661.5,-0.5"/>
<text text-anchor="middle" x="704.5" y="-7.5" font-family="Helvetica,sans-Serif" font-size="10.00">heredoc_input</text>
</a>
</g>
</g>
<!-- Node19&#45;&gt;Node20 -->
<g id="edge22" class="edge">
<title>Node19&#45;&gt;Node20</title>
<path fill="none" stroke="midnightblue" d="M776.6,-10C766.77,-10 756.88,-10 747.72,-10"/>
<polygon fill="midnightblue" stroke="midnightblue" points="776.78,-13.5 786.78,-10 776.78,-6.5 776.78,-13.5"/>
</g>
<!-- Node21 -->
<g id="node21" class="node">
<title>Node21</title>
<g id="a_node21"><a xlink:href="heredoc_8c.html#a17337782f10170a6f2f9188bf557de0f" target="_top" xlink:title="the function will go through all the commands and check the redirection if we encounter a heredoc we ...">
<polygon fill="none" stroke="black" points="491,-0.5 491,-19.5 622,-19.5 622,-0.5 491,-0.5"/>
<text text-anchor="middle" x="556.5" y="-7.5" font-family="Helvetica,sans-Serif" font-size="10.00">here_doc_management</text>
</a>
</g>
</g>
<!-- Node20&#45;&gt;Node21 -->
<g id="edge23" class="edge">
<title>Node20&#45;&gt;Node21</title>
<path fill="none" stroke="midnightblue" d="M650.97,-10C641.64,-10 631.82,-10 622.19,-10"/>
<polygon fill="midnightblue" stroke="midnightblue" points="651.27,-13.5 661.27,-10 651.27,-6.5 651.27,-13.5"/>
</g>
<!-- Node21&#45;&gt;Node9 -->
<g id="edge24" class="edge">
<title>Node21&#45;&gt;Node9</title>
<path fill="none" stroke="midnightblue" d="M480.8,-12.3C428.97,-14.68 358.49,-19.46 297,-29 282.14,-31.31 265.95,-34.96 252.09,-38.45"/>
<polygon fill="midnightblue" stroke="midnightblue" points="481.07,-15.8 490.9,-11.86 480.76,-8.8 481.07,-15.8"/>
</g>
<!-- Node21&#45;&gt;Node13 -->
<g id="edge25" class="edge">
<title>Node21&#45;&gt;Node13</title>
<path fill="none" stroke="midnightblue" d="M501.9,-23.34C498.1,-25.02 494.43,-26.9 491,-29 471.16,-41.15 475.12,-55.33 455,-67 444.63,-73.01 432.43,-77.13 420.79,-79.95"/>
<polygon fill="midnightblue" stroke="midnightblue" points="503.47,-26.48 511.49,-19.57 500.9,-19.97 503.47,-26.48"/>
</g>
</g>
</svg>
        <g id="navigator" transform="translate(0 0)" fill="#404254">
                <rect fill="#f2f5e9" fill-opacity="0.5" stroke="#606060" stroke-width=".5" x="0" y="0" width="60" height="60"/>
                <use id="zoomplus" xlink:href="#zoomPlus" x="17" y="9" onmousedown="handleZoom(evt,'in')"/>
                <use id="zoomminus" xlink:href="#zoomMin" x="42" y="9" onmousedown="handleZoom(evt,'out')"/>
                <use id="reset" xlink:href="#resetDef" x="30" y="36" onmousedown="handleReset()"/>
                <g id="arrowUp" xlink:href="#dirArrow" transform="translate(30 24)" onmousedown="handlePan(0,-1)">
                  <use xlink:href="#rim" fill="#404040">
                        <set attributeName="fill" to="#808080" begin="arrowUp.mouseover" end="arrowUp.mouseout"/>
                  </use>
                  <path fill="none" stroke="white" stroke-width="1.5" d="M0,-3.0v7 M-2.5,-0.5L0,-3.0L2.5,-0.5"/>
                </g>
                <g id="arrowRight" xlink:href="#dirArrow" transform="rotate(90) translate(36 -43)" onmousedown="handlePan(1,0)">
                  <use xlink:href="#rim" fill="#404040">
                        <set attributeName="fill" to="#808080" begin="arrowRight.mouseover" end="arrowRight.mouseout"/>
                  </use>
                  <path fill="none" stroke="white" stroke-width="1.5" d="M0,-3.0v7 M-2.5,-0.5L0,-3.0L2.5,-0.5"/>
                </g>
                <g id="arrowDown" xlink:href="#dirArrow" transform="rotate(180) translate(-30 -48)" onmousedown="handlePan(0,1)">
                  <use xlink:href="#rim" fill="#404040">
                        <set attributeName="fill" to="#808080" begin="arrowDown.mouseover" end="arrowDown.mouseout"/>
                  </use>
                  <path fill="none" stroke="white" stroke-width="1.5" d="M0,-3.0v7 M-2.5,-0.5L0,-3.0L2.5,-0.5"/>
                </g>
                <g id="arrowLeft" xlink:href="#dirArrow" transform="rotate(270) translate(-36 17)" onmousedown="handlePan(-1,0)">
                  <use xlink:href="#rim" fill="#404040">
                        <set attributeName="fill" to="#808080" begin="arrowLeft.mouseover" end="arrowLeft.mouseout"/>
                  </use>
                  <path fill="none" stroke="white" stroke-width="1.5" d="M0,-3.0v7 M-2.5,-0.5L0,-3.0L2.5,-0.5"/>
                </g>
        </g>
        <svg viewBox="0 0 15 15" width="100%" height="30px" preserveAspectRatio="xMaxYMin meet">
         <g id="arrow_out" transform="scale(0.3 0.3)">
          <a xlink:href="lst__env__two_8c_a8cd6579fc3858072521e55ef235a2637_icgraph_org.svg" target="_base">
           <rect id="button" ry="5" rx="5" y="6" x="6" height="38" width="38"
                fill="#f2f5e9" fill-opacity="0.5" stroke="#606060" stroke-width="1.0"/>
           <path id="arrow"
             d="M 11.500037,31.436501 C 11.940474,20.09759 22.043105,11.32322 32.158766,21.979434 L 37.068811,17.246167 C 37.068811,17.246167 37.088388,32 37.088388,32 L 22.160133,31.978069 C 22.160133,31.978069 26.997745,27.140456 26.997745,27.140456 C 18.528582,18.264221 13.291696,25.230495 11.500037,31.436501 z"
             style="fill:#404040;"/>
          </a>
         </g>
        </svg>
</svg>
