<?xml version="1.0" encoding="UTF-8" standalone="no"?>
<!DOCTYPE svg PUBLIC "-//W3C//DTD SVG 1.1//EN"
 "http://www.w3.org/Graphics/SVG/1.1/DTD/svg11.dtd">
<!-- Generated by graphviz version 2.43.0 (0)
 -->
<!-- Title: lst_to_tab_env Pages: 1 -->
<svg width="209pt" height="66pt"
 viewBox="0.00 0.00 209.00 66.00" xmlns="http://www.w3.org/2000/svg" xmlns:xlink="http://www.w3.org/1999/xlink">
<g id="graph0" class="graph" transform="scale(1 1) rotate(0) translate(4 62)">
<title>lst_to_tab_env</title>
<!-- Node1 -->
<g id="node1" class="node">
<title>Node1</title>
<g id="a_node1"><a xlink:title=" ">
<polygon fill="#bfbfbf" stroke="black" points="0,-19.5 0,-38.5 88,-38.5 88,-19.5 0,-19.5"/>
<text text-anchor="middle" x="44" y="-26.5" font-family="Helvetica,sans-Serif" font-size="10.00">lst_to_tab_env</text>
</a>
</g>
</g>
<!-- Node2 -->
<g id="node2" class="node">
<title>Node2</title>
<g id="a_node2"><a xlink:href="env__utils_8c.html#a7cc35c974bce053dbba1c1ec1028f36b" target="_top" xlink:title=" ">
<polygon fill="none" stroke="black" points="124,-38.5 124,-57.5 201,-57.5 201,-38.5 124,-38.5"/>
<text text-anchor="middle" x="162.5" y="-45.5" font-family="Helvetica,sans-Serif" font-size="10.00">env_lst_size</text>
</a>
</g>
</g>
<!-- Node1&#45;&gt;Node2 -->
<g id="edge1" class="edge">
<title>Node1&#45;&gt;Node2</title>
<path fill="none" stroke="midnightblue" d="M88.05,-36.02C96.53,-37.4 105.47,-38.86 114.08,-40.27"/>
<polygon fill="midnightblue" stroke="midnightblue" points="113.56,-43.73 124,-41.88 114.69,-36.82 113.56,-43.73"/>
</g>
<!-- Node3 -->
<g id="node3" class="node">
<title>Node3</title>
<g id="a_node3"><a xlink:href="getenv_8c.html#a0250cce1862c20e31d0c0ece960bc3a0" target="_top" xlink:title=" ">
<polygon fill="none" stroke="black" points="131.5,-0.5 131.5,-19.5 193.5,-19.5 193.5,-0.5 131.5,-0.5"/>
<text text-anchor="middle" x="162.5" y="-7.5" font-family="Helvetica,sans-Serif" font-size="10.00">join_path</text>
</a>
</g>
</g>
<!-- Node1&#45;&gt;Node3 -->
<g id="edge2" class="edge">
<title>Node1&#45;&gt;Node3</title>
<path fill="none" stroke="midnightblue" d="M88.05,-21.98C98.95,-20.2 110.62,-18.3 121.38,-16.54"/>
<polygon fill="midnightblue" stroke="midnightblue" points="122.04,-19.98 131.35,-14.92 120.92,-13.07 122.04,-19.98"/>
</g>
</g>
</svg>
