<?xml version="1.0" encoding="UTF-8" standalone="no"?>
<!DOCTYPE svg PUBLIC "-//W3C//DTD SVG 1.1//EN"
 "http://www.w3.org/Graphics/SVG/1.1/DTD/svg11.dtd">
<!-- Generated by graphviz version 2.43.0 (0)
 -->
<!-- Title: destructor_redir Pages: 1 -->
<svg width="982pt" height="208pt"
 viewBox="0.00 0.00 982.00 208.03" xmlns="http://www.w3.org/2000/svg" xmlns:xlink="http://www.w3.org/1999/xlink">
<g id="graph0" class="graph" transform="scale(1 1) rotate(0) translate(4 204.03)">
<title>destructor_redir</title>
<!-- Node1 -->
<g id="node1" class="node">
<title>Node1</title>
<g id="a_node1"><a xlink:title=" ">
<polygon fill="#bfbfbf" stroke="black" points="880,-95.5 880,-114.5 974,-114.5 974,-95.5 880,-95.5"/>
<text text-anchor="middle" x="927" y="-102.5" font-family="Helvetica,sans-Serif" font-size="10.00">destructor_redir</text>
</a>
</g>
</g>
<!-- Node2 -->
<g id="node2" class="node">
<title>Node2</title>
<g id="a_node2"><a xlink:href="lst__cmd2_8c.html#a8e2b63759f149b547e0d07f210ede9b3" target="_top" xlink:title=" ">
<polygon fill="none" stroke="black" points="783,-95.5 783,-114.5 844,-114.5 844,-95.5 783,-95.5"/>
<text text-anchor="middle" x="813.5" y="-102.5" font-family="Helvetica,sans-Serif" font-size="10.00">pop_cmd</text>
</a>
</g>
</g>
<!-- Node1&#45;&gt;Node2 -->
<g id="edge1" class="edge">
<title>Node1&#45;&gt;Node2</title>
<path fill="none" stroke="midnightblue" d="M869.5,-105C860.78,-105 852.1,-105 844.28,-105"/>
<polygon fill="midnightblue" stroke="midnightblue" points="869.68,-108.5 879.68,-105 869.68,-101.5 869.68,-108.5"/>
</g>
<!-- Node3 -->
<g id="node3" class="node">
<title>Node3</title>
<g id="a_node3"><a xlink:href="lst__cmd2_8c.html#a132395876bb5a7cfe926b9e37571a1e3" target="_top" xlink:title=" ">
<polygon fill="none" stroke="black" points="655,-95.5 655,-114.5 747,-114.5 747,-95.5 655,-95.5"/>
<text text-anchor="middle" x="701" y="-102.5" font-family="Helvetica,sans-Serif" font-size="10.00">destructor_cmd</text>
</a>
</g>
</g>
<!-- Node2&#45;&gt;Node3 -->
<g id="edge2" class="edge">
<title>Node2&#45;&gt;Node3</title>
<path fill="none" stroke="midnightblue" d="M772.7,-105C764.39,-105 755.57,-105 747.09,-105"/>
<polygon fill="midnightblue" stroke="midnightblue" points="772.89,-108.5 782.89,-105 772.89,-101.5 772.89,-108.5"/>
</g>
<!-- Node4 -->
<g id="node4" class="node">
<title>Node4</title>
<g id="a_node4"><a xlink:href="multipipe_8c.html#a43baea25481fdd02ce42e4d249f12353" target="_top" xlink:title=" ">
<polygon fill="none" stroke="black" points="513.5,-38.5 513.5,-57.5 596.5,-57.5 596.5,-38.5 513.5,-38.5"/>
<text text-anchor="middle" x="555" y="-45.5" font-family="Helvetica,sans-Serif" font-size="10.00">execute_child</text>
</a>
</g>
</g>
<!-- Node3&#45;&gt;Node4 -->
<g id="edge3" class="edge">
<title>Node3&#45;&gt;Node4</title>
<path fill="none" stroke="midnightblue" d="M667.76,-91.67C652.94,-85.59 635.11,-78.35 619,-72 606.7,-67.15 592.98,-61.91 581.49,-57.56"/>
<polygon fill="midnightblue" stroke="midnightblue" points="666.43,-94.91 677.01,-95.47 669.09,-88.43 666.43,-94.91"/>
</g>
<!-- Node6 -->
<g id="node6" class="node">
<title>Node6</title>
<g id="a_node6"><a xlink:href="multipipe_8c.html#a3f78d597d08aaca5580b2c89f956a3a2" target="_top" xlink:title="management of the multipipe (= name when we have at least one pipe) First step is to manage the hered...">
<polygon fill="none" stroke="black" points="172,-76.5 172,-95.5 261,-95.5 261,-76.5 172,-76.5"/>
<text text-anchor="middle" x="216.5" y="-83.5" font-family="Helvetica,sans-Serif" font-size="10.00">multipipe_cmd</text>
</a>
</g>
</g>
<!-- Node3&#45;&gt;Node6 -->
<g id="edge9" class="edge">
<title>Node3&#45;&gt;Node6</title>
<path fill="none" stroke="midnightblue" d="M644.41,-102.81C547.34,-98.99 348.89,-91.17 261.03,-87.71"/>
<polygon fill="midnightblue" stroke="midnightblue" points="644.48,-106.32 654.61,-103.21 644.75,-99.32 644.48,-106.32"/>
</g>
<!-- Node8 -->
<g id="node8" class="node">
<title>Node8</title>
<g id="a_node8"><a xlink:href="main_8c.html#a647f21a28344e1d9c643f4115516d7c9" target="_top" xlink:title=" ">
<polygon fill="none" stroke="black" points="0,-95.5 0,-114.5 41,-114.5 41,-95.5 0,-95.5"/>
<text text-anchor="middle" x="20.5" y="-102.5" font-family="Helvetica,sans-Serif" font-size="10.00">main</text>
</a>
</g>
</g>
<!-- Node3&#45;&gt;Node8 -->
<g id="edge8" class="edge">
<title>Node3&#45;&gt;Node8</title>
<path fill="none" stroke="midnightblue" d="M681.55,-121C665.94,-133.63 642.44,-150.63 619,-160 517.77,-200.45 486.01,-200 377,-200 377,-200 377,-200 215.5,-200 138.62,-200 60.47,-139.08 32.38,-114.81"/>
<polygon fill="midnightblue" stroke="midnightblue" points="683.9,-123.59 689.35,-114.5 679.43,-118.21 683.9,-123.59"/>
</g>
<!-- Node9 -->
<g id="node9" class="node">
<title>Node9</title>
<g id="a_node9"><a xlink:href="execution_8c.html#a4ef7db02a474eb1b198b2a25e1303118" target="_top" xlink:title="here we check if it&#39;s a builtin where we have to fork or not we still need to do the redirection veri...">
<polygon fill="none" stroke="black" points="331.5,-114.5 331.5,-133.5 420.5,-133.5 420.5,-114.5 331.5,-114.5"/>
<text text-anchor="middle" x="376" y="-121.5" font-family="Helvetica,sans-Serif" font-size="10.00">one_command</text>
</a>
</g>
</g>
<!-- Node3&#45;&gt;Node9 -->
<g id="edge10" class="edge">
<title>Node3&#45;&gt;Node9</title>
<path fill="none" stroke="midnightblue" d="M675.95,-119.71C660.34,-128.37 639.21,-138.49 619,-143 547.43,-158.95 461.35,-144.44 413.55,-133.51"/>
<polygon fill="midnightblue" stroke="midnightblue" points="677.97,-122.59 684.9,-114.57 674.49,-116.52 677.97,-122.59"/>
</g>
<!-- Node10 -->
<g id="node10" class="node">
<title>Node10</title>
<g id="a_node10"><a xlink:href="execution_8c.html#ac70faaedddc427b5051b808a8de40da4" target="_top" xlink:title="in this function we do the fork to create a child process we do the redirection if we need to">
<polygon fill="none" stroke="black" points="491,-114.5 491,-133.5 619,-133.5 619,-114.5 491,-114.5"/>
<text text-anchor="middle" x="555" y="-121.5" font-family="Helvetica,sans-Serif" font-size="10.00">one_command_execve</text>
</a>
</g>
</g>
<!-- Node3&#45;&gt;Node10 -->
<g id="edge12" class="edge">
<title>Node3&#45;&gt;Node10</title>
<path fill="none" stroke="midnightblue" d="M644.81,-112.28C636.43,-113.39 627.74,-114.53 619.21,-115.66"/>
<polygon fill="midnightblue" stroke="midnightblue" points="645.38,-115.74 654.83,-110.96 644.46,-108.8 645.38,-115.74"/>
</g>
<!-- Node11 -->
<g id="node11" class="node">
<title>Node11</title>
<g id="a_node11"><a xlink:href="error_8c.html#a193034f887c71fdb2486835d8cbd9dd3" target="_top" xlink:title=" ">
<polygon fill="none" stroke="black" points="501.5,-0.5 501.5,-19.5 608.5,-19.5 608.5,-0.5 501.5,-0.5"/>
<text text-anchor="middle" x="555" y="-7.5" font-family="Helvetica,sans-Serif" font-size="10.00">parsing_destructor</text>
</a>
</g>
</g>
<!-- Node3&#45;&gt;Node11 -->
<g id="edge14" class="edge">
<title>Node3&#45;&gt;Node11</title>
<path fill="none" stroke="midnightblue" d="M685.84,-87.68C670.9,-70.48 645.84,-44.48 619,-29 612.37,-25.18 604.9,-22.05 597.47,-19.52"/>
<polygon fill="midnightblue" stroke="midnightblue" points="683.19,-89.97 692.33,-95.34 688.53,-85.45 683.19,-89.97"/>
</g>
<!-- Node5 -->
<g id="node5" class="node">
<title>Node5</title>
<g id="a_node5"><a xlink:href="multipipe_8c.html#af32b88ab44b94650a0bb6f805f70a805" target="_top" xlink:title="it&#39;s where the fork happen and sent to be execute">
<polygon fill="none" stroke="black" points="297,-38.5 297,-57.5 455,-57.5 455,-38.5 297,-38.5"/>
<text text-anchor="middle" x="376" y="-45.5" font-family="Helvetica,sans-Serif" font-size="10.00">multipipe_intermediary_cmd</text>
</a>
</g>
</g>
<!-- Node4&#45;&gt;Node5 -->
<g id="edge4" class="edge">
<title>Node4&#45;&gt;Node5</title>
<path fill="none" stroke="midnightblue" d="M503.29,-48C488.24,-48 471.4,-48 455.04,-48"/>
<polygon fill="midnightblue" stroke="midnightblue" points="503.39,-51.5 513.39,-48 503.39,-44.5 503.39,-51.5"/>
</g>
<!-- Node5&#45;&gt;Node6 -->
<g id="edge5" class="edge">
<title>Node5&#45;&gt;Node6</title>
<path fill="none" stroke="midnightblue" d="M325.4,-59.97C303.32,-65.29 277.7,-71.48 256.96,-76.48"/>
<polygon fill="midnightblue" stroke="midnightblue" points="326.36,-63.34 335.26,-57.59 324.71,-56.53 326.36,-63.34"/>
</g>
<!-- Node7 -->
<g id="node7" class="node">
<title>Node7</title>
<g id="a_node7"><a xlink:href="execution_8c.html#a9dffeca3c2ff474e24c3e98ab856df76" target="_top" xlink:title="first function of the execution part when we have something to do we have to deal with two cases ; if...">
<polygon fill="none" stroke="black" points="77,-95.5 77,-114.5 136,-114.5 136,-95.5 77,-95.5"/>
<text text-anchor="middle" x="106.5" y="-102.5" font-family="Helvetica,sans-Serif" font-size="10.00">executor</text>
</a>
</g>
</g>
<!-- Node6&#45;&gt;Node7 -->
<g id="edge6" class="edge">
<title>Node6&#45;&gt;Node7</title>
<path fill="none" stroke="midnightblue" d="M161.88,-95.43C152.97,-97 144.05,-98.57 136.08,-99.97"/>
<polygon fill="midnightblue" stroke="midnightblue" points="162.64,-98.85 171.88,-93.67 161.43,-91.96 162.64,-98.85"/>
</g>
<!-- Node7&#45;&gt;Node8 -->
<g id="edge7" class="edge">
<title>Node7&#45;&gt;Node8</title>
<path fill="none" stroke="midnightblue" d="M66.48,-105C57.72,-105 48.78,-105 41.21,-105"/>
<polygon fill="midnightblue" stroke="midnightblue" points="66.59,-108.5 76.59,-105 66.59,-101.5 66.59,-108.5"/>
</g>
<!-- Node9&#45;&gt;Node7 -->
<g id="edge11" class="edge">
<title>Node9&#45;&gt;Node7</title>
<path fill="none" stroke="midnightblue" d="M321.37,-120.19C265.58,-116.23 180.35,-110.17 136.22,-107.04"/>
<polygon fill="midnightblue" stroke="midnightblue" points="321.2,-123.69 331.43,-120.91 321.7,-116.71 321.2,-123.69"/>
</g>
<!-- Node10&#45;&gt;Node9 -->
<g id="edge13" class="edge">
<title>Node10&#45;&gt;Node9</title>
<path fill="none" stroke="midnightblue" d="M480.4,-124C460.05,-124 438.62,-124 420.57,-124"/>
<polygon fill="midnightblue" stroke="midnightblue" points="480.6,-127.5 490.6,-124 480.6,-120.5 480.6,-127.5"/>
</g>
<!-- Node12 -->
<g id="node12" class="node">
<title>Node12</title>
<g id="a_node12"><a xlink:href="error_8c.html#a8f5f1cfa591c395b88733e1134d8de3d" target="_top" xlink:title=" ">
<polygon fill="none" stroke="black" points="337,-0.5 337,-19.5 415,-19.5 415,-0.5 337,-0.5"/>
<text text-anchor="middle" x="376" y="-7.5" font-family="Helvetica,sans-Serif" font-size="10.00">syntax_error</text>
</a>
</g>
</g>
<!-- Node11&#45;&gt;Node12 -->
<g id="edge15" class="edge">
<title>Node11&#45;&gt;Node12</title>
<path fill="none" stroke="midnightblue" d="M491.08,-10C465.69,-10 437.24,-10 415.09,-10"/>
<polygon fill="midnightblue" stroke="midnightblue" points="491.37,-13.5 501.37,-10 491.37,-6.5 491.37,-13.5"/>
</g>
<!-- Node13 -->
<g id="node13" class="node">
<title>Node13</title>
<g id="a_node13"><a xlink:href="parser_8c.html#a302af903b3f87eaaff83762f60c2d8cb" target="_top" xlink:title=" ">
<polygon fill="none" stroke="black" points="83,-38.5 83,-57.5 130,-57.5 130,-38.5 83,-38.5"/>
<text text-anchor="middle" x="106.5" y="-45.5" font-family="Helvetica,sans-Serif" font-size="10.00">parser</text>
</a>
</g>
</g>
<!-- Node12&#45;&gt;Node13 -->
<g id="edge16" class="edge">
<title>Node12&#45;&gt;Node13</title>
<path fill="none" stroke="midnightblue" d="M326.91,-16.83C268.77,-25.09 173.35,-38.65 130.09,-44.79"/>
<polygon fill="midnightblue" stroke="midnightblue" points="327.55,-20.28 336.96,-15.4 326.56,-13.35 327.55,-20.28"/>
</g>
<!-- Node13&#45;&gt;Node8 -->
<g id="edge17" class="edge">
<title>Node13&#45;&gt;Node8</title>
<path fill="none" stroke="midnightblue" d="M82.94,-63.31C67.85,-73.55 48.46,-86.71 35.54,-95.47"/>
<polygon fill="midnightblue" stroke="midnightblue" points="84.94,-66.18 91.25,-57.67 81.01,-60.39 84.94,-66.18"/>
</g>
</g>
</svg>
