<?xml version="1.0" encoding="UTF-8" standalone="no"?>
<!DOCTYPE svg PUBLIC "-//W3C//DTD SVG 1.1//EN"
 "http://www.w3.org/Graphics/SVG/1.1/DTD/svg11.dtd">
<!-- Generated by graphviz version 2.43.0 (0)
 -->
<!-- Title: destructor_redir Pages: 1 -->
<svg width="905pt" height="142pt"
 viewBox="0.00 0.00 905.00 142.00" xmlns="http://www.w3.org/2000/svg" xmlns:xlink="http://www.w3.org/1999/xlink">
<g id="graph0" class="graph" transform="scale(1 1) rotate(0) translate(4 138)">
<title>destructor_redir</title>
<!-- Node1 -->
<g id="node1" class="node">
<title>Node1</title>
<g id="a_node1"><a xlink:title=" ">
<polygon fill="#bfbfbf" stroke="black" points="803,-57.5 803,-76.5 897,-76.5 897,-57.5 803,-57.5"/>
<text text-anchor="middle" x="850" y="-64.5" font-family="Helvetica,sans-Serif" font-size="10.00">destructor_redir</text>
</a>
</g>
</g>
<!-- Node2 -->
<g id="node2" class="node">
<title>Node2</title>
<g id="a_node2"><a xlink:href="lst__cmd2_8c.html#a8e2b63759f149b547e0d07f210ede9b3" target="_top" xlink:title=" ">
<polygon fill="none" stroke="black" points="706,-57.5 706,-76.5 767,-76.5 767,-57.5 706,-57.5"/>
<text text-anchor="middle" x="736.5" y="-64.5" font-family="Helvetica,sans-Serif" font-size="10.00">pop_cmd</text>
</a>
</g>
</g>
<!-- Node1&#45;&gt;Node2 -->
<g id="edge1" class="edge">
<title>Node1&#45;&gt;Node2</title>
<path fill="none" stroke="midnightblue" d="M792.5,-67C783.78,-67 775.1,-67 767.28,-67"/>
<polygon fill="midnightblue" stroke="midnightblue" points="792.68,-70.5 802.68,-67 792.68,-63.5 792.68,-70.5"/>
</g>
<!-- Node3 -->
<g id="node3" class="node">
<title>Node3</title>
<g id="a_node3"><a xlink:href="lst__cmd2_8c.html#a132395876bb5a7cfe926b9e37571a1e3" target="_top" xlink:title=" ">
<polygon fill="none" stroke="black" points="578,-57.5 578,-76.5 670,-76.5 670,-57.5 578,-57.5"/>
<text text-anchor="middle" x="624" y="-64.5" font-family="Helvetica,sans-Serif" font-size="10.00">destructor_cmd</text>
</a>
</g>
</g>
<!-- Node2&#45;&gt;Node3 -->
<g id="edge2" class="edge">
<title>Node2&#45;&gt;Node3</title>
<path fill="none" stroke="midnightblue" d="M695.7,-67C687.39,-67 678.57,-67 670.09,-67"/>
<polygon fill="midnightblue" stroke="midnightblue" points="695.89,-70.5 705.89,-67 695.89,-63.5 695.89,-70.5"/>
</g>
<!-- Node4 -->
<g id="node4" class="node">
<title>Node4</title>
<g id="a_node4"><a xlink:href="multipipe_8c.html#a43baea25481fdd02ce42e4d249f12353" target="_top" xlink:title=" ">
<polygon fill="none" stroke="black" points="436.5,-114.5 436.5,-133.5 519.5,-133.5 519.5,-114.5 436.5,-114.5"/>
<text text-anchor="middle" x="478" y="-121.5" font-family="Helvetica,sans-Serif" font-size="10.00">execute_child</text>
</a>
</g>
</g>
<!-- Node3&#45;&gt;Node4 -->
<g id="edge3" class="edge">
<title>Node3&#45;&gt;Node4</title>
<path fill="none" stroke="midnightblue" d="M590.76,-80.33C575.94,-86.41 558.11,-93.65 542,-100 529.7,-104.85 515.98,-110.09 504.49,-114.44"/>
<polygon fill="midnightblue" stroke="midnightblue" points="592.09,-83.57 600.01,-76.53 589.43,-77.09 592.09,-83.57"/>
</g>
<!-- Node6 -->
<g id="node6" class="node">
<title>Node6</title>
<g id="a_node6"><a xlink:href="multipipe_8c.html#a3f78d597d08aaca5580b2c89f956a3a2" target="_top" xlink:title="management of the multipipe (= name when we have at least one pipe) First step is to manage the hered...">
<polygon fill="none" stroke="black" points="95,-76.5 95,-95.5 184,-95.5 184,-76.5 95,-76.5"/>
<text text-anchor="middle" x="139.5" y="-83.5" font-family="Helvetica,sans-Serif" font-size="10.00">multipipe_cmd</text>
</a>
</g>
</g>
<!-- Node3&#45;&gt;Node6 -->
<g id="edge7" class="edge">
<title>Node3&#45;&gt;Node6</title>
<path fill="none" stroke="midnightblue" d="M567.37,-70.63C558.87,-71.13 550.2,-71.6 542,-72 411.9,-78.28 257.95,-82.85 184.18,-84.86"/>
<polygon fill="midnightblue" stroke="midnightblue" points="567.83,-74.11 577.6,-70.02 567.41,-67.12 567.83,-74.11"/>
</g>
<!-- Node8 -->
<g id="node8" class="node">
<title>Node8</title>
<g id="a_node8"><a xlink:href="execution_8c.html#a4ef7db02a474eb1b198b2a25e1303118" target="_top" xlink:title="here we check if it&#39;s a builtin where we have to fork or not we still need to do the redirection veri...">
<polygon fill="none" stroke="black" points="254.5,-38.5 254.5,-57.5 343.5,-57.5 343.5,-38.5 254.5,-38.5"/>
<text text-anchor="middle" x="299" y="-45.5" font-family="Helvetica,sans-Serif" font-size="10.00">one_command</text>
</a>
</g>
</g>
<!-- Node3&#45;&gt;Node8 -->
<g id="edge8" class="edge">
<title>Node3&#45;&gt;Node8</title>
<path fill="none" stroke="midnightblue" d="M567.54,-63.74C504.13,-60.01 401.65,-53.98 343.65,-50.57"/>
<polygon fill="midnightblue" stroke="midnightblue" points="567.56,-67.24 577.75,-64.34 567.97,-60.26 567.56,-67.24"/>
</g>
<!-- Node9 -->
<g id="node9" class="node">
<title>Node9</title>
<g id="a_node9"><a xlink:href="execution_8c.html#ac70faaedddc427b5051b808a8de40da4" target="_top" xlink:title="in this function we do the fork to create a child process we do the redirection if we need to">
<polygon fill="none" stroke="black" points="414,-0.5 414,-19.5 542,-19.5 542,-0.5 414,-0.5"/>
<text text-anchor="middle" x="478" y="-7.5" font-family="Helvetica,sans-Serif" font-size="10.00">one_command_execve</text>
</a>
</g>
</g>
<!-- Node3&#45;&gt;Node9 -->
<g id="edge10" class="edge">
<title>Node3&#45;&gt;Node9</title>
<path fill="none" stroke="midnightblue" d="M590.76,-53.67C575.94,-47.59 558.11,-40.35 542,-34 529.7,-29.15 515.98,-23.91 504.49,-19.56"/>
<polygon fill="midnightblue" stroke="midnightblue" points="589.43,-56.91 600.01,-57.47 592.09,-50.43 589.43,-56.91"/>
</g>
<!-- Node5 -->
<g id="node5" class="node">
<title>Node5</title>
<g id="a_node5"><a xlink:href="multipipe_8c.html#af32b88ab44b94650a0bb6f805f70a805" target="_top" xlink:title="it&#39;s where the fork happen and sent to be execute">
<polygon fill="none" stroke="black" points="220,-114.5 220,-133.5 378,-133.5 378,-114.5 220,-114.5"/>
<text text-anchor="middle" x="299" y="-121.5" font-family="Helvetica,sans-Serif" font-size="10.00">multipipe_intermediary_cmd</text>
</a>
</g>
</g>
<!-- Node4&#45;&gt;Node5 -->
<g id="edge4" class="edge">
<title>Node4&#45;&gt;Node5</title>
<path fill="none" stroke="midnightblue" d="M426.29,-124C411.24,-124 394.4,-124 378.04,-124"/>
<polygon fill="midnightblue" stroke="midnightblue" points="426.39,-127.5 436.39,-124 426.39,-120.5 426.39,-127.5"/>
</g>
<!-- Node5&#45;&gt;Node6 -->
<g id="edge5" class="edge">
<title>Node5&#45;&gt;Node6</title>
<path fill="none" stroke="midnightblue" d="M248.4,-112.03C226.32,-106.71 200.7,-100.52 179.96,-95.52"/>
<polygon fill="midnightblue" stroke="midnightblue" points="247.71,-115.47 258.26,-114.41 249.36,-108.66 247.71,-115.47"/>
</g>
<!-- Node7 -->
<g id="node7" class="node">
<title>Node7</title>
<g id="a_node7"><a xlink:href="execution_8c.html#a9dffeca3c2ff474e24c3e98ab856df76" target="_top" xlink:title="first function of the execution part when we have something to do we have to deal with two cases ; if...">
<polygon fill="none" stroke="black" points="0,-57.5 0,-76.5 59,-76.5 59,-57.5 0,-57.5"/>
<text text-anchor="middle" x="29.5" y="-64.5" font-family="Helvetica,sans-Serif" font-size="10.00">executor</text>
</a>
</g>
</g>
<!-- Node6&#45;&gt;Node7 -->
<g id="edge6" class="edge">
<title>Node6&#45;&gt;Node7</title>
<path fill="none" stroke="midnightblue" d="M84.88,-76.57C75.97,-75 67.05,-73.43 59.08,-72.03"/>
<polygon fill="midnightblue" stroke="midnightblue" points="84.43,-80.04 94.88,-78.33 85.64,-73.15 84.43,-80.04"/>
</g>
<!-- Node8&#45;&gt;Node7 -->
<g id="edge9" class="edge">
<title>Node8&#45;&gt;Node7</title>
<path fill="none" stroke="midnightblue" d="M244.37,-51.81C188.58,-55.77 103.35,-61.83 59.22,-64.96"/>
<polygon fill="midnightblue" stroke="midnightblue" points="244.7,-55.29 254.43,-51.09 244.2,-48.31 244.7,-55.29"/>
</g>
<!-- Node9&#45;&gt;Node8 -->
<g id="edge11" class="edge">
<title>Node9&#45;&gt;Node8</title>
<path fill="none" stroke="midnightblue" d="M422.52,-21.7C397.21,-27.13 367.54,-33.5 343.73,-38.61"/>
<polygon fill="midnightblue" stroke="midnightblue" points="423.29,-25.11 432.34,-19.59 421.82,-18.27 423.29,-25.11"/>
</g>
</g>
</svg>
