<?xml version="1.0" encoding="UTF-8" standalone="no"?>
<!DOCTYPE svg PUBLIC "-//W3C//DTD SVG 1.1//EN"
 "http://www.w3.org/Graphics/SVG/1.1/DTD/svg11.dtd">
<!-- Generated by graphviz version 2.43.0 (0)
 -->
<!-- Title: init_minishell Pages: 1 -->
<svg width="450pt" height="142pt"
 viewBox="0.00 0.00 450.00 142.00" xmlns="http://www.w3.org/2000/svg" xmlns:xlink="http://www.w3.org/1999/xlink">
<g id="graph0" class="graph" transform="scale(1 1) rotate(0) translate(4 138)">
<title>init_minishell</title>
<!-- Node1 -->
<g id="node1" class="node">
<title>Node1</title>
<g id="a_node1"><a xlink:title=" ">
<polygon fill="#bfbfbf" stroke="black" points="0,-57.5 0,-76.5 83,-76.5 83,-57.5 0,-57.5"/>
<text text-anchor="middle" x="41.5" y="-64.5" font-family="Helvetica,sans-Serif" font-size="10.00">init_minishell</text>
</a>
</g>
</g>
<!-- Node2 -->
<g id="node2" class="node">
<title>Node2</title>
<g id="a_node2"><a xlink:href="lst__env__two_8c.html#ac1233f225cd25a82eded5e81135528cd" target="_top" xlink:title=" ">
<polygon fill="none" stroke="black" points="119,-57.5 119,-76.5 191,-76.5 191,-57.5 119,-57.5"/>
<text text-anchor="middle" x="155" y="-64.5" font-family="Helvetica,sans-Serif" font-size="10.00">set_up_env</text>
</a>
</g>
</g>
<!-- Node1&#45;&gt;Node2 -->
<g id="edge1" class="edge">
<title>Node1&#45;&gt;Node2</title>
<path fill="none" stroke="midnightblue" d="M83.07,-67C91.39,-67 100.2,-67 108.68,-67"/>
<polygon fill="midnightblue" stroke="midnightblue" points="108.8,-70.5 118.8,-67 108.8,-63.5 108.8,-70.5"/>
</g>
<!-- Node3 -->
<g id="node3" class="node">
<title>Node3</title>
<g id="a_node3"><a xlink:href="lst__env_8c.html#a9c375db3cbfe2e87b52bae7ee7472eae" target="_top" xlink:title=" ">
<polygon fill="none" stroke="black" points="227,-114.5 227,-133.5 327,-133.5 327,-114.5 227,-114.5"/>
<text text-anchor="middle" x="277" y="-121.5" font-family="Helvetica,sans-Serif" font-size="10.00">create_node_env</text>
</a>
</g>
</g>
<!-- Node2&#45;&gt;Node3 -->
<g id="edge2" class="edge">
<title>Node2&#45;&gt;Node3</title>
<path fill="none" stroke="midnightblue" d="M172.64,-76.65C186.84,-84.7 207.94,-96.25 227,-105 231.17,-106.92 235.59,-108.81 240.01,-110.62"/>
<polygon fill="midnightblue" stroke="midnightblue" points="238.98,-113.98 249.56,-114.42 241.56,-107.48 238.98,-113.98"/>
</g>
<!-- Node4 -->
<g id="node4" class="node">
<title>Node4</title>
<g id="a_node4"><a xlink:href="lst__env_8c.html#a226ae0aa054e697998b2ecbc5d61d592" target="_top" xlink:title=" ">
<polygon fill="none" stroke="black" points="232.5,-76.5 232.5,-95.5 321.5,-95.5 321.5,-76.5 232.5,-76.5"/>
<text text-anchor="middle" x="277" y="-83.5" font-family="Helvetica,sans-Serif" font-size="10.00">destructor_env</text>
</a>
</g>
</g>
<!-- Node2&#45;&gt;Node4 -->
<g id="edge3" class="edge">
<title>Node2&#45;&gt;Node4</title>
<path fill="none" stroke="midnightblue" d="M191.03,-72.55C200.78,-74.09 211.6,-75.8 222.17,-77.48"/>
<polygon fill="midnightblue" stroke="midnightblue" points="221.75,-80.95 232.17,-79.06 222.84,-74.04 221.75,-80.95"/>
</g>
<!-- Node6 -->
<g id="node6" class="node">
<title>Node6</title>
<g id="a_node6"><a xlink:href="lst__env_8c.html#a5976d1b2a8159220749fac94a83d5c95" target="_top" xlink:title=" ">
<polygon fill="none" stroke="black" points="231,-38.5 231,-57.5 323,-57.5 323,-38.5 231,-38.5"/>
<text text-anchor="middle" x="277" y="-45.5" font-family="Helvetica,sans-Serif" font-size="10.00">push_back_env</text>
</a>
</g>
</g>
<!-- Node2&#45;&gt;Node6 -->
<g id="edge5" class="edge">
<title>Node2&#45;&gt;Node6</title>
<path fill="none" stroke="midnightblue" d="M191.03,-61.45C200.37,-59.97 210.69,-58.34 220.83,-56.74"/>
<polygon fill="midnightblue" stroke="midnightblue" points="221.53,-60.17 230.86,-55.15 220.44,-53.25 221.53,-60.17"/>
</g>
<!-- Node8 -->
<g id="node8" class="node">
<title>Node8</title>
<g id="a_node8"><a xlink:href="lst__env__two_8c.html#a4f46edb8da10e7a19d572dd91d8ac21b" target="_top" xlink:title=" ">
<polygon fill="none" stroke="black" points="246.5,-0.5 246.5,-19.5 307.5,-19.5 307.5,-0.5 246.5,-0.5"/>
<text text-anchor="middle" x="277" y="-7.5" font-family="Helvetica,sans-Serif" font-size="10.00">split_env</text>
</a>
</g>
</g>
<!-- Node2&#45;&gt;Node8 -->
<g id="edge7" class="edge">
<title>Node2&#45;&gt;Node8</title>
<path fill="none" stroke="midnightblue" d="M172.64,-57.35C186.84,-49.3 207.94,-37.75 227,-29 231.17,-27.08 235.59,-25.19 240.01,-23.38"/>
<polygon fill="midnightblue" stroke="midnightblue" points="241.56,-26.52 249.56,-19.58 238.98,-20.02 241.56,-26.52"/>
</g>
<!-- Node5 -->
<g id="node5" class="node">
<title>Node5</title>
<g id="a_node5"><a xlink:href="lst__env_8c.html#a058c245b5f2ef22f9d2659f90e4d3537" target="_top" xlink:title=" ">
<polygon fill="none" stroke="black" points="373.5,-76.5 373.5,-95.5 431.5,-95.5 431.5,-76.5 373.5,-76.5"/>
<text text-anchor="middle" x="402.5" y="-83.5" font-family="Helvetica,sans-Serif" font-size="10.00">pop_env</text>
</a>
</g>
</g>
<!-- Node4&#45;&gt;Node5 -->
<g id="edge4" class="edge">
<title>Node4&#45;&gt;Node5</title>
<path fill="none" stroke="midnightblue" d="M321.54,-86C335.13,-86 350.01,-86 363.21,-86"/>
<polygon fill="midnightblue" stroke="midnightblue" points="363.38,-89.5 373.38,-86 363.38,-82.5 363.38,-89.5"/>
</g>
<!-- Node7 -->
<g id="node7" class="node">
<title>Node7</title>
<g id="a_node7"><a xlink:href="env__utils_8c.html#ac7b3f84bb622bdf477616c5b0022f035" target="_top" xlink:title=" ">
<polygon fill="none" stroke="black" points="363,-38.5 363,-57.5 442,-57.5 442,-38.5 363,-38.5"/>
<text text-anchor="middle" x="402.5" y="-45.5" font-family="Helvetica,sans-Serif" font-size="10.00">get_last_env</text>
</a>
</g>
</g>
<!-- Node6&#45;&gt;Node7 -->
<g id="edge6" class="edge">
<title>Node6&#45;&gt;Node7</title>
<path fill="none" stroke="midnightblue" d="M323.29,-48C332.79,-48 342.86,-48 352.49,-48"/>
<polygon fill="midnightblue" stroke="midnightblue" points="352.73,-51.5 362.73,-48 352.73,-44.5 352.73,-51.5"/>
</g>
</g>
</svg>
