<?xml version="1.0" encoding="UTF-8" standalone="no"?>
<!DOCTYPE svg PUBLIC "-//W3C//DTD SVG 1.1//EN"
 "http://www.w3.org/Graphics/SVG/1.1/DTD/svg11.dtd">
<!-- Generated by graphviz version 2.43.0 (0)
 -->
<!-- Title: main Pages: 1 -->
<svg width="890pt" height="1168pt"
 viewBox="0.00 0.00 890.00 1168.00" xmlns="http://www.w3.org/2000/svg" xmlns:xlink="http://www.w3.org/1999/xlink">
<g id="graph0" class="graph" transform="scale(1 1) rotate(0) translate(4 1164)">
<title>main</title>
<!-- Node1 -->
<g id="node1" class="node">
<title>Node1</title>
<g id="a_node1"><a xlink:title=" ">
<polygon fill="#bfbfbf" stroke="black" points="0,-646.5 0,-665.5 41,-665.5 41,-646.5 0,-646.5"/>
<text text-anchor="middle" x="20.5" y="-653.5" font-family="Helvetica,sans-Serif" font-size="10.00">main</text>
</a>
</g>
</g>
<!-- Node2 -->
<g id="node2" class="node">
<title>Node2</title>
<g id="a_node2"><a xlink:href="banner_8c.html#aa497366ed7c88c6e5b6d70a4cb398ae9" target="_top" xlink:title=" ">
<polygon fill="none" stroke="black" points="102.5,-1140.5 102.5,-1159.5 152.5,-1159.5 152.5,-1140.5 102.5,-1140.5"/>
<text text-anchor="middle" x="127.5" y="-1147.5" font-family="Helvetica,sans-Serif" font-size="10.00">banner</text>
</a>
</g>
</g>
<!-- Node1&#45;&gt;Node2 -->
<g id="edge1" class="edge">
<title>Node1&#45;&gt;Node2</title>
<path fill="none" stroke="midnightblue" d="M21.41,-665.57C21.06,-725.43 21.74,-1048.34 77,-1126 81.06,-1131.7 86.84,-1136.1 93.04,-1139.48"/>
<polygon fill="midnightblue" stroke="midnightblue" points="91.7,-1142.72 102.25,-1143.74 94.64,-1136.37 91.7,-1142.72"/>
</g>
<!-- Node3 -->
<g id="node3" class="node">
<title>Node3</title>
<g id="a_node3"><a xlink:href="lst__cmd2_8c.html#a132395876bb5a7cfe926b9e37571a1e3" target="_top" xlink:title=" ">
<polygon fill="none" stroke="black" points="560,-1016.5 560,-1035.5 652,-1035.5 652,-1016.5 560,-1016.5"/>
<text text-anchor="middle" x="606" y="-1023.5" font-family="Helvetica,sans-Serif" font-size="10.00">destructor_cmd</text>
</a>
</g>
</g>
<!-- Node1&#45;&gt;Node3 -->
<g id="edge2" class="edge">
<title>Node1&#45;&gt;Node3</title>
<path fill="none" stroke="midnightblue" d="M23.87,-665.72C30.15,-690.53 48.75,-757.82 77,-808 165.04,-964.37 193.03,-1035.44 363,-1093 429.51,-1115.53 454.72,-1116.2 521,-1093 548.89,-1083.24 574.42,-1059.91 589.84,-1043.54"/>
<polygon fill="midnightblue" stroke="midnightblue" points="592.81,-1045.47 596.94,-1035.72 587.63,-1040.77 592.81,-1045.47"/>
</g>
<!-- Node8 -->
<g id="node7" class="node">
<title>Node8</title>
<g id="a_node7"><a xlink:href="lst__env_8c.html#a226ae0aa054e697998b2ecbc5d61d592" target="_top" xlink:title=" ">
<polygon fill="none" stroke="black" points="561.5,-684.5 561.5,-703.5 650.5,-703.5 650.5,-684.5 561.5,-684.5"/>
<text text-anchor="middle" x="606" y="-691.5" font-family="Helvetica,sans-Serif" font-size="10.00">destructor_env</text>
</a>
</g>
</g>
<!-- Node1&#45;&gt;Node8 -->
<g id="edge6" class="edge">
<title>Node1&#45;&gt;Node8</title>
<path fill="none" stroke="midnightblue" d="M41.16,-664.31C51.6,-668.32 64.78,-672.74 77,-675 248,-706.63 455.32,-701.83 551.36,-697.21"/>
<polygon fill="midnightblue" stroke="midnightblue" points="551.6,-700.71 561.41,-696.71 551.25,-693.71 551.6,-700.71"/>
</g>
<!-- Node10 -->
<g id="node9" class="node">
<title>Node10</title>
<g id="a_node9"><a xlink:href="execution_8c.html#a9542b61daba3eb4d45c8887c5648b2f6" target="_top" xlink:title="first function of the execution part when we have something to do we have to deal with two cases ; if...">
<polygon fill="none" stroke="black" points="98,-779.5 98,-798.5 157,-798.5 157,-779.5 98,-779.5"/>
<text text-anchor="middle" x="127.5" y="-786.5" font-family="Helvetica,sans-Serif" font-size="10.00">executor</text>
</a>
</g>
</g>
<!-- Node1&#45;&gt;Node10 -->
<g id="edge8" class="edge">
<title>Node1&#45;&gt;Node10</title>
<path fill="none" stroke="midnightblue" d="M29.05,-665.57C46.52,-687.7 89.96,-742.71 112.47,-771.23"/>
<polygon fill="midnightblue" stroke="midnightblue" points="109.79,-773.48 118.73,-779.16 115.28,-769.15 109.79,-773.48"/>
</g>
<!-- Node73 -->
<g id="node23" class="node">
<title>Node73</title>
<g id="a_node23"><a xlink:href="expand_8c.html#a53c53e75b0ad8c8888217cd918304b8b" target="_top" xlink:title="Iterate over every args and redir of each command to expand and dequote what needs to be.">
<polygon fill="none" stroke="black" points="77,-589.5 77,-608.5 178,-608.5 178,-589.5 77,-589.5"/>
<text text-anchor="middle" x="127.5" y="-596.5" font-family="Helvetica,sans-Serif" font-size="10.00">expand_manager</text>
</a>
</g>
</g>
<!-- Node1&#45;&gt;Node73 -->
<g id="edge31" class="edge">
<title>Node1&#45;&gt;Node73</title>
<path fill="none" stroke="midnightblue" d="M39.31,-646.33C55.93,-637.31 80.94,-623.73 99.92,-613.43"/>
<polygon fill="midnightblue" stroke="midnightblue" points="101.83,-616.37 108.95,-608.53 98.49,-610.22 101.83,-616.37"/>
</g>
<!-- Node89 -->
<g id="node32" class="node">
<title>Node89</title>
<g id="a_node32"><a xlink:href="main_8c.html#a05f37ff7d5d7321754ff82ac71618d63" target="_top" xlink:title=" ">
<polygon fill="none" stroke="black" points="86,-646.5 86,-665.5 169,-665.5 169,-646.5 86,-646.5"/>
<text text-anchor="middle" x="127.5" y="-653.5" font-family="Helvetica,sans-Serif" font-size="10.00">init_minishell</text>
</a>
</g>
</g>
<!-- Node1&#45;&gt;Node89 -->
<g id="edge42" class="edge">
<title>Node1&#45;&gt;Node89</title>
<path fill="none" stroke="midnightblue" d="M41.25,-656C51.09,-656 63.48,-656 75.75,-656"/>
<polygon fill="midnightblue" stroke="midnightblue" points="75.97,-659.5 85.97,-656 75.97,-652.5 75.97,-659.5"/>
</g>
<!-- Node92 -->
<g id="node34" class="node">
<title>Node92</title>
<g id="a_node34"><a xlink:href="lexer_8c.html#aced469451204cf536fd18b4cf94f6b91" target="_top" xlink:title="Global lexing function, that traverses readline&#39;s string and separate in tokens.">
<polygon fill="none" stroke="black" points="250,-361.5 250,-380.5 291,-380.5 291,-361.5 250,-361.5"/>
<text text-anchor="middle" x="270.5" y="-368.5" font-family="Helvetica,sans-Serif" font-size="10.00">lexer</text>
</a>
</g>
</g>
<!-- Node1&#45;&gt;Node92 -->
<g id="edge45" class="edge">
<title>Node1&#45;&gt;Node92</title>
<path fill="none" stroke="midnightblue" d="M28,-646.38C38.04,-631.7 58.13,-602.98 77,-580 138.15,-505.53 218.06,-423.02 252.5,-388.1"/>
<polygon fill="midnightblue" stroke="midnightblue" points="255.33,-390.22 259.87,-380.65 250.35,-385.29 255.33,-390.22"/>
</g>
<!-- Node104 -->
<g id="node41" class="node">
<title>Node104</title>
<g id="a_node41"><a xlink:href="parser_8c.html#a302af903b3f87eaaff83762f60c2d8cb" target="_top" xlink:title=" ">
<polygon fill="none" stroke="black" points="104,-171.5 104,-190.5 151,-190.5 151,-171.5 104,-171.5"/>
<text text-anchor="middle" x="127.5" y="-178.5" font-family="Helvetica,sans-Serif" font-size="10.00">parser</text>
</a>
</g>
</g>
<!-- Node1&#45;&gt;Node104 -->
<g id="edge59" class="edge">
<title>Node1&#45;&gt;Node104</title>
<path fill="none" stroke="midnightblue" d="M23.69,-646.08C36.74,-587.04 104.22,-281.78 122.13,-200.76"/>
<polygon fill="midnightblue" stroke="midnightblue" points="125.58,-201.39 124.32,-190.87 118.74,-199.88 125.58,-201.39"/>
</g>
<!-- Node120 -->
<g id="node50" class="node">
<title>Node120</title>
<g id="a_node50"><a xlink:href="signals_8c.html#a258e3b580e688a0cf46e4258525aeaf1" target="_top" xlink:title=" ">
<polygon fill="none" stroke="black" points="84.5,-133.5 84.5,-152.5 170.5,-152.5 170.5,-133.5 84.5,-133.5"/>
<text text-anchor="middle" x="127.5" y="-140.5" font-family="Helvetica,sans-Serif" font-size="10.00">sigint_handler</text>
</a>
</g>
</g>
<!-- Node1&#45;&gt;Node120 -->
<g id="edge72" class="edge">
<title>Node1&#45;&gt;Node120</title>
<path fill="none" stroke="midnightblue" d="M21.27,-646.28C19.96,-584.04 15.64,-241.38 77,-162 77.82,-160.93 78.71,-159.93 79.66,-158.98"/>
<polygon fill="midnightblue" stroke="midnightblue" points="82.02,-161.58 87.87,-152.75 77.79,-156.01 82.02,-161.58"/>
</g>
<!-- Node4 -->
<g id="node4" class="node">
<title>Node4</title>
<g id="a_node4"><a xlink:href="lst__cmd2_8c.html#a8e2b63759f149b547e0d07f210ede9b3" target="_top" xlink:title=" ">
<polygon fill="none" stroke="black" points="691,-1016.5 691,-1035.5 752,-1035.5 752,-1016.5 691,-1016.5"/>
<text text-anchor="middle" x="721.5" y="-1023.5" font-family="Helvetica,sans-Serif" font-size="10.00">pop_cmd</text>
</a>
</g>
</g>
<!-- Node3&#45;&gt;Node4 -->
<g id="edge3" class="edge">
<title>Node3&#45;&gt;Node4</title>
<path fill="none" stroke="midnightblue" d="M652.18,-1026C661.62,-1026 671.49,-1026 680.71,-1026"/>
<polygon fill="midnightblue" stroke="midnightblue" points="680.78,-1029.5 690.78,-1026 680.78,-1022.5 680.78,-1029.5"/>
</g>
<!-- Node5 -->
<g id="node5" class="node">
<title>Node5</title>
<g id="a_node5"><a xlink:href="lst__redir2_8c.html#a30ccaf401a4f897e48ead5fe54f4b307" target="_top" xlink:title=" ">
<polygon fill="none" stroke="red" points="788,-1016.5 788,-1035.5 882,-1035.5 882,-1016.5 788,-1016.5"/>
<text text-anchor="middle" x="835" y="-1023.5" font-family="Helvetica,sans-Serif" font-size="10.00">destructor_redir</text>
</a>
</g>
</g>
<!-- Node4&#45;&gt;Node5 -->
<g id="edge4" class="edge">
<title>Node4&#45;&gt;Node5</title>
<path fill="none" stroke="midnightblue" d="M752.09,-1026C760.06,-1026 768.95,-1026 777.85,-1026"/>
<polygon fill="midnightblue" stroke="midnightblue" points="777.86,-1029.5 787.86,-1026 777.86,-1022.5 777.86,-1029.5"/>
</g>
<!-- Node7 -->
<g id="node6" class="node">
<title>Node7</title>
<g id="a_node6"><a xlink:href="utils_8c.html#a1bca6910c90a19d96b36506a2e2cebf6" target="_top" xlink:title="as fd are all setup to &#45;1 at the beginning we check if they are open before trying to close we avoid ...">
<polygon fill="none" stroke="black" points="800.5,-940.5 800.5,-959.5 869.5,-959.5 869.5,-940.5 800.5,-940.5"/>
<text text-anchor="middle" x="835" y="-947.5" font-family="Helvetica,sans-Serif" font-size="10.00">ft_close_fd</text>
</a>
</g>
</g>
<!-- Node4&#45;&gt;Node7 -->
<g id="edge5" class="edge">
<title>Node4&#45;&gt;Node7</title>
<path fill="none" stroke="midnightblue" d="M736.62,-1016.37C755.47,-1003.53 789.07,-980.62 811.45,-965.37"/>
<polygon fill="midnightblue" stroke="midnightblue" points="813.7,-968.07 819.99,-959.55 809.76,-962.29 813.7,-968.07"/>
</g>
<!-- Node9 -->
<g id="node8" class="node">
<title>Node9</title>
<g id="a_node8"><a xlink:href="lst__env_8c.html#a058c245b5f2ef22f9d2659f90e4d3537" target="_top" xlink:title=" ">
<polygon fill="none" stroke="black" points="692.5,-684.5 692.5,-703.5 750.5,-703.5 750.5,-684.5 692.5,-684.5"/>
<text text-anchor="middle" x="721.5" y="-691.5" font-family="Helvetica,sans-Serif" font-size="10.00">pop_env</text>
</a>
</g>
</g>
<!-- Node8&#45;&gt;Node9 -->
<g id="edge7" class="edge">
<title>Node8&#45;&gt;Node9</title>
<path fill="none" stroke="midnightblue" d="M650.56,-694C660.95,-694 671.97,-694 682.11,-694"/>
<polygon fill="midnightblue" stroke="midnightblue" points="682.3,-697.5 692.3,-694 682.3,-690.5 682.3,-697.5"/>
</g>
<!-- Node11 -->
<g id="node10" class="node">
<title>Node11</title>
<g id="a_node10"><a xlink:href="lst__cmd_8c.html#a63d671132be802a34817bb9d887b7e9f" target="_top" xlink:title=" ">
<polygon fill="none" stroke="black" points="230.5,-741.5 230.5,-760.5 310.5,-760.5 310.5,-741.5 230.5,-741.5"/>
<text text-anchor="middle" x="270.5" y="-748.5" font-family="Helvetica,sans-Serif" font-size="10.00">cmd_lst_size</text>
</a>
</g>
</g>
<!-- Node10&#45;&gt;Node11 -->
<g id="edge9" class="edge">
<title>Node10&#45;&gt;Node11</title>
<path fill="none" stroke="midnightblue" d="M157.03,-781.31C176.29,-776.12 202.12,-769.16 224.17,-763.22"/>
<polygon fill="midnightblue" stroke="midnightblue" points="225.25,-766.55 234,-760.57 223.43,-759.79 225.25,-766.55"/>
</g>
<!-- Node12 -->
<g id="node11" class="node">
<title>Node12</title>
<g id="a_node11"><a xlink:href="multipipe_8c.html#aa4f1c217eeb689ecbc622baecd2c5dec" target="_top" xlink:title="management of the multipipe (= name when we have at least one pipe) First step is to manage the hered...">
<polygon fill="none" stroke="black" points="226,-836.5 226,-855.5 315,-855.5 315,-836.5 226,-836.5"/>
<text text-anchor="middle" x="270.5" y="-843.5" font-family="Helvetica,sans-Serif" font-size="10.00">multipipe_cmd</text>
</a>
</g>
</g>
<!-- Node10&#45;&gt;Node12 -->
<g id="edge10" class="edge">
<title>Node10&#45;&gt;Node12</title>
<path fill="none" stroke="midnightblue" d="M152.1,-798.54C175.18,-807.87 210.53,-822.16 236.41,-832.62"/>
<polygon fill="midnightblue" stroke="midnightblue" points="235.24,-835.93 245.82,-836.43 237.86,-829.44 235.24,-835.93"/>
</g>
<!-- Node69 -->
<g id="node17" class="node">
<title>Node69</title>
<g id="a_node17"><a xlink:href="execution_8c.html#a38335028b2bc7aa436f8f79a3753ce5e" target="_top" xlink:title="here we check if it&#39;s a builtin where we have to fork or not we still need to do the redirection veri...">
<polygon fill="none" stroke="black" points="226,-950.5 226,-969.5 315,-969.5 315,-950.5 226,-950.5"/>
<text text-anchor="middle" x="270.5" y="-957.5" font-family="Helvetica,sans-Serif" font-size="10.00">one_command</text>
</a>
</g>
</g>
<!-- Node10&#45;&gt;Node69 -->
<g id="edge19" class="edge">
<title>Node10&#45;&gt;Node69</title>
<path fill="none" stroke="midnightblue" d="M136.48,-798.68C159.36,-826.43 225.4,-906.52 254.93,-942.33"/>
<polygon fill="midnightblue" stroke="midnightblue" points="252.54,-944.93 261.6,-950.42 257.94,-940.48 252.54,-944.93"/>
</g>
<!-- Node72 -->
<g id="node21" class="node">
<title>Node72</title>
<g id="a_node21"><a xlink:href="utils_8c.html#af1c2063cb0d6822097c6e8d18d808745" target="_top" xlink:title="just a function to update the _ (underscore env variable) not really necessary in minishell but in do...">
<polygon fill="none" stroke="black" points="215.5,-779.5 215.5,-798.5 325.5,-798.5 325.5,-779.5 215.5,-779.5"/>
<text text-anchor="middle" x="270.5" y="-786.5" font-family="Helvetica,sans-Serif" font-size="10.00">update_underscore</text>
</a>
</g>
</g>
<!-- Node10&#45;&gt;Node72 -->
<g id="edge29" class="edge">
<title>Node10&#45;&gt;Node72</title>
<path fill="none" stroke="midnightblue" d="M157.03,-789C170.89,-789 188.16,-789 204.97,-789"/>
<polygon fill="midnightblue" stroke="midnightblue" points="205.34,-792.5 215.34,-789 205.34,-785.5 205.34,-792.5"/>
</g>
<!-- Node12&#45;&gt;Node7 -->
<g id="edge13" class="edge">
<title>Node12&#45;&gt;Node7</title>
<path fill="none" stroke="midnightblue" d="M315.03,-847.13C365.02,-848.93 449.37,-853.52 521,-865 625.41,-881.74 650.53,-892.22 752,-922 767.36,-926.51 784.13,-932.11 798.47,-937.11"/>
<polygon fill="midnightblue" stroke="midnightblue" points="797.37,-940.44 807.97,-940.46 799.7,-933.84 797.37,-940.44"/>
</g>
<!-- Node13 -->
<g id="node12" class="node">
<title>Node13</title>
<g id="a_node12"><a xlink:href="multipipe_8c.html#a9b21b82386f20636501d279a66b7260d" target="_top" xlink:title="in the case of an error in the redirection, we have a case where the here_doc opened in a previous si...">
<polygon fill="none" stroke="black" points="391.5,-950.5 391.5,-969.5 492.5,-969.5 492.5,-950.5 391.5,-950.5"/>
<text text-anchor="middle" x="442" y="-957.5" font-family="Helvetica,sans-Serif" font-size="10.00">close_redir_temp</text>
</a>
</g>
</g>
<!-- Node12&#45;&gt;Node13 -->
<g id="edge11" class="edge">
<title>Node12&#45;&gt;Node13</title>
<path fill="none" stroke="midnightblue" d="M277.81,-855.52C291.12,-874.83 324.08,-918.64 363,-941 368.76,-944.31 375.09,-947.05 381.57,-949.31"/>
<polygon fill="midnightblue" stroke="midnightblue" points="380.52,-952.65 391.11,-952.3 382.61,-945.97 380.52,-952.65"/>
</g>
<!-- Node14 -->
<g id="node13" class="node">
<title>Node14</title>
<g id="a_node13"><a xlink:href="heredoc_8c.html#a17337782f10170a6f2f9188bf557de0f" target="_top" xlink:title="the function will go through all the commands and check the redirection if we encounter a heredoc we ...">
<polygon fill="none" stroke="red" points="376.5,-912.5 376.5,-931.5 507.5,-931.5 507.5,-912.5 376.5,-912.5"/>
<text text-anchor="middle" x="442" y="-919.5" font-family="Helvetica,sans-Serif" font-size="10.00">here_doc_management</text>
</a>
</g>
</g>
<!-- Node12&#45;&gt;Node14 -->
<g id="edge14" class="edge">
<title>Node12&#45;&gt;Node14</title>
<path fill="none" stroke="midnightblue" d="M284.12,-855.7C301.14,-868.33 332.81,-890.31 363,-903 368.9,-905.48 375.2,-907.68 381.56,-909.63"/>
<polygon fill="midnightblue" stroke="midnightblue" points="380.97,-913.1 391.55,-912.47 382.89,-906.37 380.97,-913.1"/>
</g>
<!-- Node26 -->
<g id="node14" class="node">
<title>Node26</title>
<g id="a_node14"><a xlink:href="multipipe_8c.html#af31c329200501f497cd102a470450103" target="_top" xlink:title="it&#39;s where the fork happen and sent to be execute">
<polygon fill="none" stroke="red" points="363,-798.5 363,-817.5 521,-817.5 521,-798.5 363,-798.5"/>
<text text-anchor="middle" x="442" y="-805.5" font-family="Helvetica,sans-Serif" font-size="10.00">multipipe_intermediary_cmd</text>
</a>
</g>
</g>
<!-- Node12&#45;&gt;Node26 -->
<g id="edge15" class="edge">
<title>Node12&#45;&gt;Node26</title>
<path fill="none" stroke="midnightblue" d="M314.27,-836.41C336.84,-831.35 364.72,-825.1 388.58,-819.75"/>
<polygon fill="midnightblue" stroke="midnightblue" points="389.54,-823.12 398.54,-817.52 388.01,-816.29 389.54,-823.12"/>
</g>
<!-- Node64 -->
<g id="node15" class="node">
<title>Node64</title>
<g id="a_node15"><a xlink:href="redirection__verification_8c.html#af9b05287627b76434ceb0070c5cb2c8a" target="_top" xlink:title="we go through each node of the redirection and we have special treatment depending of the following c...">
<polygon fill="none" stroke="red" points="377.5,-874.5 377.5,-893.5 506.5,-893.5 506.5,-874.5 377.5,-874.5"/>
<text text-anchor="middle" x="442" y="-881.5" font-family="Helvetica,sans-Serif" font-size="10.00">redirection_verification</text>
</a>
</g>
</g>
<!-- Node12&#45;&gt;Node64 -->
<g id="edge16" class="edge">
<title>Node12&#45;&gt;Node64</title>
<path fill="none" stroke="midnightblue" d="M314.27,-855.59C336.84,-860.65 364.72,-866.9 388.58,-872.25"/>
<polygon fill="midnightblue" stroke="midnightblue" points="388.01,-875.71 398.54,-874.48 389.54,-868.88 388.01,-875.71"/>
</g>
<!-- Node68 -->
<g id="node16" class="node">
<title>Node68</title>
<g id="a_node16"><a xlink:href="utils_8c.html#ad690126177796598c4d5d7842b7a47de" target="_top" xlink:title="function to update g_exit_code to be the last exit code of the function">
<polygon fill="none" stroke="black" points="417,-760.5 417,-779.5 467,-779.5 467,-760.5 417,-760.5"/>
<text text-anchor="middle" x="442" y="-767.5" font-family="Helvetica,sans-Serif" font-size="10.00">update</text>
</a>
</g>
</g>
<!-- Node12&#45;&gt;Node68 -->
<g id="edge18" class="edge">
<title>Node12&#45;&gt;Node68</title>
<path fill="none" stroke="midnightblue" d="M285.73,-836.36C307.24,-821.91 347.21,-795.64 363,-789 376.82,-783.19 392.8,-778.91 406.68,-775.89"/>
<polygon fill="midnightblue" stroke="midnightblue" points="407.72,-779.26 416.82,-773.83 406.32,-772.4 407.72,-779.26"/>
</g>
<!-- Node13&#45;&gt;Node7 -->
<g id="edge12" class="edge">
<title>Node13&#45;&gt;Node7</title>
<path fill="none" stroke="midnightblue" d="M492.52,-958.73C569.49,-956.76 716.61,-953 790.04,-951.12"/>
<polygon fill="midnightblue" stroke="midnightblue" points="790.42,-954.62 800.32,-950.86 790.24,-947.62 790.42,-954.62"/>
</g>
<!-- Node64&#45;&gt;Node7 -->
<g id="edge17" class="edge">
<title>Node64&#45;&gt;Node7</title>
<path fill="none" stroke="midnightblue" d="M499.44,-893.53C578.15,-906.81 719.22,-930.63 790.39,-942.64"/>
<polygon fill="midnightblue" stroke="midnightblue" points="789.93,-946.11 800.37,-944.32 791.09,-939.21 789.93,-946.11"/>
</g>
<!-- Node69&#45;&gt;Node13 -->
<g id="edge20" class="edge">
<title>Node69&#45;&gt;Node13</title>
<path fill="none" stroke="midnightblue" d="M315.15,-960C335.22,-960 359.35,-960 381.08,-960"/>
<polygon fill="midnightblue" stroke="midnightblue" points="381.2,-963.5 391.2,-960 381.2,-956.5 381.2,-963.5"/>
</g>
<!-- Node69&#45;&gt;Node14 -->
<g id="edge21" class="edge">
<title>Node69&#45;&gt;Node14</title>
<path fill="none" stroke="midnightblue" d="M314.27,-950.41C336.84,-945.35 364.72,-939.1 388.58,-933.75"/>
<polygon fill="midnightblue" stroke="midnightblue" points="389.54,-937.12 398.54,-931.52 388.01,-930.29 389.54,-937.12"/>
</g>
<!-- Node69&#45;&gt;Node64 -->
<g id="edge28" class="edge">
<title>Node69&#45;&gt;Node64</title>
<path fill="none" stroke="midnightblue" d="M284.12,-950.3C301.14,-937.67 332.81,-915.69 363,-903 368.9,-900.52 375.2,-898.32 381.56,-896.37"/>
<polygon fill="midnightblue" stroke="midnightblue" points="382.89,-899.63 391.55,-893.53 380.97,-892.9 382.89,-899.63"/>
</g>
<!-- Node70 -->
<g id="node18" class="node">
<title>Node70</title>
<g id="a_node18"><a xlink:href="launcher_8c.html#a30cac5c7712d6462192a55849ea237f2" target="_top" xlink:title="ici ce sont les builtin qu&#39;on doit pas fork dans le cas d&#39;un one_command">
<polygon fill="none" stroke="black" points="384,-1026.5 384,-1045.5 500,-1045.5 500,-1026.5 384,-1026.5"/>
<text text-anchor="middle" x="442" y="-1033.5" font-family="Helvetica,sans-Serif" font-size="10.00">is_it_builtin_nonfork</text>
</a>
</g>
</g>
<!-- Node69&#45;&gt;Node70 -->
<g id="edge22" class="edge">
<title>Node69&#45;&gt;Node70</title>
<path fill="none" stroke="midnightblue" d="M284.12,-969.7C301.14,-982.33 332.81,-1004.31 363,-1017 368.9,-1019.48 375.2,-1021.68 381.56,-1023.63"/>
<polygon fill="midnightblue" stroke="midnightblue" points="380.97,-1027.1 391.55,-1026.47 382.89,-1020.37 380.97,-1027.1"/>
</g>
<!-- Node38 -->
<g id="node19" class="node">
<title>Node38</title>
<g id="a_node19"><a xlink:href="launcher_8c.html#a7bee4f6fbfd70ef7ec1f52856538ac71" target="_top" xlink:title="launch the builtin &#160;&#160;some of them are not present because we have to fork() them why ?...">
<polygon fill="none" stroke="red" points="399.5,-1064.5 399.5,-1083.5 484.5,-1083.5 484.5,-1064.5 399.5,-1064.5"/>
<text text-anchor="middle" x="442" y="-1071.5" font-family="Helvetica,sans-Serif" font-size="10.00">launch_builtin</text>
</a>
</g>
</g>
<!-- Node69&#45;&gt;Node38 -->
<g id="edge23" class="edge">
<title>Node69&#45;&gt;Node38</title>
<path fill="none" stroke="midnightblue" d="M277.81,-969.52C291.12,-988.83 324.08,-1032.64 363,-1055 371.08,-1059.64 380.25,-1063.15 389.4,-1065.81"/>
<polygon fill="midnightblue" stroke="midnightblue" points="388.71,-1069.25 399.27,-1068.37 390.47,-1062.47 388.71,-1069.25"/>
</g>
<!-- Node71 -->
<g id="node20" class="node">
<title>Node71</title>
<g id="a_node20"><a xlink:href="execution_8c.html#aa6f3ac2f0c10538c125eafcb587fd021" target="_top" xlink:title="in this function we do the fork to create a child process we do the redirection if we need to">
<polygon fill="none" stroke="red" points="378,-988.5 378,-1007.5 506,-1007.5 506,-988.5 378,-988.5"/>
<text text-anchor="middle" x="442" y="-995.5" font-family="Helvetica,sans-Serif" font-size="10.00">one_command_execve</text>
</a>
</g>
</g>
<!-- Node69&#45;&gt;Node71 -->
<g id="edge24" class="edge">
<title>Node69&#45;&gt;Node71</title>
<path fill="none" stroke="midnightblue" d="M314.27,-969.59C336.84,-974.65 364.72,-980.9 388.58,-986.25"/>
<polygon fill="midnightblue" stroke="midnightblue" points="388.01,-989.71 398.54,-988.48 389.54,-982.88 388.01,-989.71"/>
</g>
<!-- Node71&#45;&gt;Node3 -->
<g id="edge25" class="edge">
<title>Node71&#45;&gt;Node3</title>
<path fill="none" stroke="midnightblue" d="M498.3,-1007.56C514.92,-1010.43 533.16,-1013.58 549.78,-1016.45"/>
<polygon fill="midnightblue" stroke="midnightblue" points="549.43,-1019.95 559.88,-1018.2 550.63,-1013.05 549.43,-1019.95"/>
</g>
<!-- Node71&#45;&gt;Node7 -->
<g id="edge27" class="edge">
<title>Node71&#45;&gt;Node7</title>
<path fill="none" stroke="midnightblue" d="M506.23,-993.12C568.84,-987.89 667.32,-978.62 752,-966 764.44,-964.15 777.86,-961.71 790.17,-959.3"/>
<polygon fill="midnightblue" stroke="midnightblue" points="791.09,-962.69 800.21,-957.3 789.71,-955.83 791.09,-962.69"/>
</g>
<!-- Node71&#45;&gt;Node8 -->
<g id="edge26" class="edge">
<title>Node71&#45;&gt;Node8</title>
<path fill="none" stroke="midnightblue" d="M506.13,-989.02C511.58,-986.42 516.66,-983.14 521,-979 598.05,-905.53 605.46,-765.28 605.44,-713.68"/>
<polygon fill="midnightblue" stroke="midnightblue" points="608.94,-713.53 605.33,-703.56 601.94,-713.6 608.94,-713.53"/>
</g>
<!-- Node21 -->
<g id="node22" class="node">
<title>Node21</title>
<g id="a_node22"><a xlink:href="lst__env__two_8c.html#a8cd6579fc3858072521e55ef235a2637" target="_top" xlink:title=" ">
<polygon fill="none" stroke="black" points="386.5,-722.5 386.5,-741.5 497.5,-741.5 497.5,-722.5 386.5,-722.5"/>
<text text-anchor="middle" x="442" y="-729.5" font-family="Helvetica,sans-Serif" font-size="10.00">research_node_env</text>
</a>
</g>
</g>
<!-- Node72&#45;&gt;Node21 -->
<g id="edge30" class="edge">
<title>Node72&#45;&gt;Node21</title>
<path fill="none" stroke="midnightblue" d="M302.07,-779.49C310.26,-776.68 319.05,-773.43 327,-770 343.61,-762.83 346.08,-757.41 363,-751 369.72,-748.45 376.9,-746.16 384.08,-744.13"/>
<polygon fill="midnightblue" stroke="midnightblue" points="385.07,-747.48 393.82,-741.51 383.25,-740.72 385.07,-747.48"/>
</g>
<!-- Node74 -->
<g id="node24" class="node">
<title>Node74</title>
<g id="a_node24"><a xlink:href="expand_8c.html#a7ebf77f962efcddaed1e2913bb8b799a" target="_top" xlink:title="Removes a given index of an argv in case of env variable not found.">
<polygon fill="none" stroke="black" points="214,-608.5 214,-627.5 327,-627.5 327,-608.5 214,-608.5"/>
<text text-anchor="middle" x="270.5" y="-615.5" font-family="Helvetica,sans-Serif" font-size="10.00">argv_remove_index</text>
</a>
</g>
</g>
<!-- Node73&#45;&gt;Node74 -->
<g id="edge32" class="edge">
<title>Node73&#45;&gt;Node74</title>
<path fill="none" stroke="midnightblue" d="M178.21,-605.7C186.53,-606.82 195.28,-608 203.92,-609.16"/>
<polygon fill="midnightblue" stroke="midnightblue" points="203.61,-612.65 213.99,-610.52 204.55,-605.72 203.61,-612.65"/>
</g>
<!-- Node75 -->
<g id="node25" class="node">
<title>Node75</title>
<g id="a_node25"><a xlink:href="error_8c.html#a6cbc08f00af3f516acb081d28b384238" target="_top" xlink:title=" ">
<polygon fill="none" stroke="black" points="225,-570.5 225,-589.5 316,-589.5 316,-570.5 225,-570.5"/>
<text text-anchor="middle" x="270.5" y="-577.5" font-family="Helvetica,sans-Serif" font-size="10.00">exp_redir_error</text>
</a>
</g>
</g>
<!-- Node73&#45;&gt;Node75 -->
<g id="edge33" class="edge">
<title>Node73&#45;&gt;Node75</title>
<path fill="none" stroke="midnightblue" d="M178.21,-592.3C190.1,-590.7 202.86,-588.98 214.96,-587.35"/>
<polygon fill="midnightblue" stroke="midnightblue" points="215.49,-590.81 224.94,-586.01 214.56,-583.87 215.49,-590.81"/>
</g>
<!-- Node76 -->
<g id="node26" class="node">
<title>Node76</title>
<g id="a_node26"><a xlink:href="expand__word_8c.html#a0ec378990f411456436a9bb6a71babfc" target="_top" xlink:title="Scans the word to dequote/expand and build correct output.">
<polygon fill="none" stroke="red" points="229.5,-532.5 229.5,-551.5 311.5,-551.5 311.5,-532.5 229.5,-532.5"/>
<text text-anchor="middle" x="270.5" y="-539.5" font-family="Helvetica,sans-Serif" font-size="10.00">expand_word</text>
</a>
</g>
</g>
<!-- Node73&#45;&gt;Node76 -->
<g id="edge34" class="edge">
<title>Node73&#45;&gt;Node76</title>
<path fill="none" stroke="midnightblue" d="M148.67,-589.43C165.86,-581.42 191.32,-569.9 214,-561 219.21,-558.95 224.75,-556.91 230.23,-554.96"/>
<polygon fill="midnightblue" stroke="midnightblue" points="231.65,-558.17 239.94,-551.58 229.35,-551.56 231.65,-558.17"/>
</g>
<!-- Node77 -->
<g id="node27" class="node">
<title>Node77</title>
<g id="a_node27"><a xlink:href="lexer__utils_8c.html#a6b132516dacc9599762b1fe7341a0f04" target="_top" xlink:title="Advance one byte in the struct t_lexer to keep track of progress.">
<polygon fill="none" stroke="black" points="577,-475.5 577,-494.5 635,-494.5 635,-475.5 577,-475.5"/>
<text text-anchor="middle" x="606" y="-482.5" font-family="Helvetica,sans-Serif" font-size="10.00">advance</text>
</a>
</g>
</g>
<!-- Node76&#45;&gt;Node77 -->
<g id="edge35" class="edge">
<title>Node76&#45;&gt;Node77</title>
<path fill="none" stroke="midnightblue" d="M307.61,-551.52C314.33,-554.07 321.09,-557.2 327,-561 346.57,-573.58 341.63,-589.81 363,-599 427.51,-626.75 458.32,-630.67 521,-599 560.32,-579.13 585.76,-531.21 597.47,-504.25"/>
<polygon fill="midnightblue" stroke="midnightblue" points="600.82,-505.32 601.42,-494.74 594.36,-502.64 600.82,-505.32"/>
</g>
<!-- Node78 -->
<g id="node28" class="node">
<title>Node78</title>
<g id="a_node28"><a xlink:href="expand__dollar_8c.html#ac3e15865744ed2c1300a5cb96f24e33d" target="_top" xlink:title="Manages all possibilities with expand : $?, known and unknown env variable.">
<polygon fill="none" stroke="red" points="400.5,-570.5 400.5,-589.5 483.5,-589.5 483.5,-570.5 400.5,-570.5"/>
<text text-anchor="middle" x="442" y="-577.5" font-family="Helvetica,sans-Serif" font-size="10.00">handle_dollar</text>
</a>
</g>
</g>
<!-- Node76&#45;&gt;Node78 -->
<g id="edge36" class="edge">
<title>Node76&#45;&gt;Node78</title>
<path fill="none" stroke="midnightblue" d="M311.67,-551.01C335.16,-556.27 365.04,-562.97 390.15,-568.6"/>
<polygon fill="midnightblue" stroke="midnightblue" points="389.71,-572.09 400.24,-570.86 391.24,-565.26 389.71,-572.09"/>
</g>
<!-- Node86 -->
<g id="node29" class="node">
<title>Node86</title>
<g id="a_node29"><a xlink:href="expand__word_8c.html#ae5fd7fdfce4171a392a4f6c781f4e813" target="_top" xlink:title="Dequotes and manage quote state to expand correctly.">
<polygon fill="none" stroke="red" points="398,-532.5 398,-551.5 486,-551.5 486,-532.5 398,-532.5"/>
<text text-anchor="middle" x="442" y="-539.5" font-family="Helvetica,sans-Serif" font-size="10.00">handle_quotes</text>
</a>
</g>
</g>
<!-- Node76&#45;&gt;Node86 -->
<g id="edge38" class="edge">
<title>Node76&#45;&gt;Node86</title>
<path fill="none" stroke="midnightblue" d="M311.67,-542C334.37,-542 363.03,-542 387.61,-542"/>
<polygon fill="midnightblue" stroke="midnightblue" points="387.86,-545.5 397.86,-542 387.86,-538.5 387.86,-545.5"/>
</g>
<!-- Node87 -->
<g id="node30" class="node">
<title>Node87</title>
<g id="a_node30"><a xlink:href="expand__word_8c.html#af8312a725cf021e108e011dfa4d60f73" target="_top" xlink:title="Initialise expand struct.">
<polygon fill="none" stroke="black" points="405,-494.5 405,-513.5 479,-513.5 479,-494.5 405,-494.5"/>
<text text-anchor="middle" x="442" y="-501.5" font-family="Helvetica,sans-Serif" font-size="10.00">init_expand</text>
</a>
</g>
</g>
<!-- Node76&#45;&gt;Node87 -->
<g id="edge40" class="edge">
<title>Node76&#45;&gt;Node87</title>
<path fill="none" stroke="midnightblue" d="M311.67,-532.99C336.65,-527.4 368.84,-520.18 394.87,-514.34"/>
<polygon fill="midnightblue" stroke="midnightblue" points="395.88,-517.7 404.87,-512.1 394.35,-510.87 395.88,-517.7"/>
</g>
<!-- Node88 -->
<g id="node31" class="node">
<title>Node88</title>
<g id="a_node31"><a xlink:href="lexer__utils_8c.html#a5226e7cc8fd04bded427425b8bee4439" target="_top" xlink:title="Initialize t_lexer.">
<polygon fill="none" stroke="black" points="415.5,-456.5 415.5,-475.5 468.5,-475.5 468.5,-456.5 415.5,-456.5"/>
<text text-anchor="middle" x="442" y="-463.5" font-family="Helvetica,sans-Serif" font-size="10.00">lex_init</text>
</a>
</g>
</g>
<!-- Node76&#45;&gt;Node88 -->
<g id="edge41" class="edge">
<title>Node76&#45;&gt;Node88</title>
<path fill="none" stroke="midnightblue" d="M284.12,-532.3C301.14,-519.67 332.81,-497.69 363,-485 376.41,-479.36 391.86,-475.16 405.44,-472.16"/>
<polygon fill="midnightblue" stroke="midnightblue" points="406.33,-475.56 415.41,-470.1 404.91,-468.7 406.33,-475.56"/>
</g>
<!-- Node78&#45;&gt;Node77 -->
<g id="edge37" class="edge">
<title>Node78&#45;&gt;Node77</title>
<path fill="none" stroke="midnightblue" d="M483.67,-574.08C496.12,-571.23 509.55,-567.07 521,-561 549.08,-546.13 575.17,-519.76 590.6,-502.32"/>
<polygon fill="midnightblue" stroke="midnightblue" points="593.41,-504.43 597.28,-494.57 588.1,-499.86 593.41,-504.43"/>
</g>
<!-- Node86&#45;&gt;Node77 -->
<g id="edge39" class="edge">
<title>Node86&#45;&gt;Node77</title>
<path fill="none" stroke="midnightblue" d="M486.33,-532.96C497.73,-530.17 509.93,-526.81 521,-523 540.17,-516.39 560.94,-507.02 577.03,-499.23"/>
<polygon fill="midnightblue" stroke="midnightblue" points="578.96,-502.18 586.39,-494.63 575.87,-495.9 578.96,-502.18"/>
</g>
<!-- Node90 -->
<g id="node33" class="node">
<title>Node90</title>
<g id="a_node33"><a xlink:href="lst__env__two_8c.html#ac1233f225cd25a82eded5e81135528cd" target="_top" xlink:title=" ">
<polygon fill="none" stroke="red" points="234.5,-646.5 234.5,-665.5 306.5,-665.5 306.5,-646.5 234.5,-646.5"/>
<text text-anchor="middle" x="270.5" y="-653.5" font-family="Helvetica,sans-Serif" font-size="10.00">set_up_env</text>
</a>
</g>
</g>
<!-- Node89&#45;&gt;Node90 -->
<g id="edge43" class="edge">
<title>Node89&#45;&gt;Node90</title>
<path fill="none" stroke="midnightblue" d="M169.28,-656C186.42,-656 206.42,-656 224.02,-656"/>
<polygon fill="midnightblue" stroke="midnightblue" points="224.07,-659.5 234.07,-656 224.07,-652.5 224.07,-659.5"/>
</g>
<!-- Node90&#45;&gt;Node8 -->
<g id="edge44" class="edge">
<title>Node90&#45;&gt;Node8</title>
<path fill="none" stroke="midnightblue" d="M306.71,-658.61C355.1,-662.38 444.85,-670 521,-680 530.89,-681.3 541.41,-682.89 551.53,-684.52"/>
<polygon fill="midnightblue" stroke="midnightblue" points="551.05,-687.99 561.49,-686.16 552.19,-681.08 551.05,-687.99"/>
</g>
<!-- Node92&#45;&gt;Node88 -->
<g id="edge48" class="edge">
<title>Node92&#45;&gt;Node88</title>
<path fill="none" stroke="midnightblue" d="M280.1,-380.55C295.23,-396.75 328.32,-429.56 363,-447 376.1,-453.59 391.6,-457.97 405.32,-460.85"/>
<polygon fill="midnightblue" stroke="midnightblue" points="404.92,-464.33 415.4,-462.76 406.23,-457.46 404.92,-464.33"/>
</g>
<!-- Node93 -->
<g id="node35" class="node">
<title>Node93</title>
<g id="a_node35"><a xlink:href="token__utils_8c.html#abe4c47d3831fc3c644e4b78391dfa502" target="_top" xlink:title="Method of append is a linked list with pointers.">
<polygon fill="none" stroke="black" points="399.5,-266.5 399.5,-285.5 484.5,-285.5 484.5,-266.5 399.5,-266.5"/>
<text text-anchor="middle" x="442" y="-273.5" font-family="Helvetica,sans-Serif" font-size="10.00">append_token</text>
</a>
</g>
</g>
<!-- Node92&#45;&gt;Node93 -->
<g id="edge46" class="edge">
<title>Node92&#45;&gt;Node93</title>
<path fill="none" stroke="midnightblue" d="M281.35,-361.36C297.26,-346.27 330.17,-317.06 363,-300 371.58,-295.54 381.14,-291.75 390.53,-288.59"/>
<polygon fill="midnightblue" stroke="midnightblue" points="391.74,-291.88 400.22,-285.53 389.63,-285.21 391.74,-291.88"/>
</g>
<!-- Node94 -->
<g id="node36" class="node">
<title>Node94</title>
<g id="a_node36"><a xlink:href="lexer_8c.html#a36667927c23670d83624ca9049adfc2d" target="_top" xlink:title="Check if the char is one of the possible operator, currently &#39;&lt;&#39;, &#39;&gt;&#39; or &#39;|&#39;.">
<polygon fill="none" stroke="black" points="557,-266.5 557,-285.5 655,-285.5 655,-266.5 557,-266.5"/>
<text text-anchor="middle" x="606" y="-273.5" font-family="Helvetica,sans-Serif" font-size="10.00">is_char_operator</text>
</a>
</g>
</g>
<!-- Node92&#45;&gt;Node94 -->
<g id="edge47" class="edge">
<title>Node92&#45;&gt;Node94</title>
<path fill="none" stroke="midnightblue" d="M278.41,-361.46C297.62,-335.09 351.04,-262.73 363,-257 431.11,-224.33 522.49,-246.73 571.15,-263.09"/>
<polygon fill="midnightblue" stroke="midnightblue" points="570.27,-266.49 580.87,-266.47 572.57,-259.88 570.27,-266.49"/>
</g>
<!-- Node95 -->
<g id="node37" class="node">
<title>Node95</title>
<g id="a_node37"><a xlink:href="lexer_8c.html#a4224de0ac9d722a19a477ae2880f54da" target="_top" xlink:title="Make the operator in the global string a token.">
<polygon fill="none" stroke="red" points="403,-380.5 403,-399.5 481,-399.5 481,-380.5 403,-380.5"/>
<text text-anchor="middle" x="442" y="-387.5" font-family="Helvetica,sans-Serif" font-size="10.00">lex_operator</text>
</a>
</g>
</g>
<!-- Node92&#45;&gt;Node95 -->
<g id="edge49" class="edge">
<title>Node92&#45;&gt;Node95</title>
<path fill="none" stroke="midnightblue" d="M291.28,-373.22C315.97,-375.98 359.05,-380.81 392.68,-384.58"/>
<polygon fill="midnightblue" stroke="midnightblue" points="392.45,-388.08 402.78,-385.72 393.23,-381.12 392.45,-388.08"/>
</g>
<!-- Node96 -->
<g id="node38" class="node">
<title>Node96</title>
<g id="a_node38"><a xlink:href="token__utils_8c.html#a583251578e050c27ff17b5c7b40c8eef" target="_top" xlink:title="Build a token.">
<polygon fill="none" stroke="black" points="568,-342.5 568,-361.5 644,-361.5 644,-342.5 568,-342.5"/>
<text text-anchor="middle" x="606" y="-349.5" font-family="Helvetica,sans-Serif" font-size="10.00">make_token</text>
</a>
</g>
</g>
<!-- Node92&#45;&gt;Node96 -->
<g id="edge56" class="edge">
<title>Node92&#45;&gt;Node96</title>
<path fill="none" stroke="midnightblue" d="M288.73,-361.42C306.65,-352.05 335.84,-338.42 363,-333 431.87,-319.27 451.21,-325.21 521,-333 534.13,-334.47 548.21,-337.18 561.01,-340.12"/>
<polygon fill="midnightblue" stroke="midnightblue" points="560.42,-343.57 570.96,-342.49 562.05,-336.77 560.42,-343.57"/>
</g>
<!-- Node97 -->
<g id="node39" class="node">
<title>Node97</title>
<g id="a_node39"><a xlink:href="lexer__word_8c.html#a4093905b7d1dfe02710752ee5da8fe01" target="_top" xlink:title="Lexes the string to create a WORD token.">
<polygon fill="none" stroke="red" points="411.5,-342.5 411.5,-361.5 472.5,-361.5 472.5,-342.5 411.5,-342.5"/>
<text text-anchor="middle" x="442" y="-349.5" font-family="Helvetica,sans-Serif" font-size="10.00">lex_word</text>
</a>
</g>
</g>
<!-- Node92&#45;&gt;Node97 -->
<g id="edge52" class="edge">
<title>Node92&#45;&gt;Node97</title>
<path fill="none" stroke="midnightblue" d="M291.28,-368.78C318.1,-365.78 366.64,-360.33 401.18,-356.46"/>
<polygon fill="midnightblue" stroke="midnightblue" points="401.86,-359.91 411.41,-355.32 401.08,-352.95 401.86,-359.91"/>
</g>
<!-- Node103 -->
<g id="node40" class="node">
<title>Node103</title>
<g id="a_node40"><a xlink:href="lexer__utils_8c.html#a0665b31ffb5665ad2a085f2b1a5e0e25" target="_top" xlink:title="Skip whitespaces in the t_lexer struct.">
<polygon fill="none" stroke="black" points="400,-418.5 400,-437.5 484,-437.5 484,-418.5 400,-418.5"/>
<text text-anchor="middle" x="442" y="-425.5" font-family="Helvetica,sans-Serif" font-size="10.00">skip_wspaces</text>
</a>
</g>
</g>
<!-- Node92&#45;&gt;Node103 -->
<g id="edge57" class="edge">
<title>Node92&#45;&gt;Node103</title>
<path fill="none" stroke="midnightblue" d="M291.16,-380.21C309.46,-388.53 337.66,-400.71 363,-409 371.66,-411.83 380.98,-414.46 390.06,-416.8"/>
<polygon fill="midnightblue" stroke="midnightblue" points="389.23,-420.2 399.78,-419.22 390.92,-413.4 389.23,-420.2"/>
</g>
<!-- Node95&#45;&gt;Node77 -->
<g id="edge50" class="edge">
<title>Node95&#45;&gt;Node77</title>
<path fill="none" stroke="midnightblue" d="M481.27,-395.38C494.38,-398.24 508.81,-402.54 521,-409 549.08,-423.87 575.17,-450.24 590.6,-467.68"/>
<polygon fill="midnightblue" stroke="midnightblue" points="588.1,-470.14 597.28,-475.43 593.41,-465.57 588.1,-470.14"/>
</g>
<!-- Node95&#45;&gt;Node96 -->
<g id="edge51" class="edge">
<title>Node95&#45;&gt;Node96</title>
<path fill="none" stroke="midnightblue" d="M481.39,-380.99C504.42,-375.59 533.87,-368.69 558.24,-362.97"/>
<polygon fill="midnightblue" stroke="midnightblue" points="559.06,-366.37 568,-360.68 557.46,-359.56 559.06,-366.37"/>
</g>
<!-- Node97&#45;&gt;Node77 -->
<g id="edge53" class="edge">
<title>Node97&#45;&gt;Node77</title>
<path fill="none" stroke="midnightblue" d="M472.73,-354.36C488.17,-356.74 506.73,-361.5 521,-371 557.31,-395.17 583.64,-440.61 596.38,-466.21"/>
<polygon fill="midnightblue" stroke="midnightblue" points="593.25,-467.77 600.73,-475.27 599.56,-464.74 593.25,-467.77"/>
</g>
<!-- Node97&#45;&gt;Node94 -->
<g id="edge54" class="edge">
<title>Node97&#45;&gt;Node94</title>
<path fill="none" stroke="midnightblue" d="M463.52,-342.37C491.76,-329.13 542.79,-305.19 575.22,-289.97"/>
<polygon fill="midnightblue" stroke="midnightblue" points="577.08,-292.96 584.65,-285.55 574.11,-286.63 577.08,-292.96"/>
</g>
<!-- Node97&#45;&gt;Node96 -->
<g id="edge55" class="edge">
<title>Node97&#45;&gt;Node96</title>
<path fill="none" stroke="midnightblue" d="M472.71,-352C496.45,-352 530.16,-352 557.61,-352"/>
<polygon fill="midnightblue" stroke="midnightblue" points="557.79,-355.5 567.79,-352 557.79,-348.5 557.79,-355.5"/>
</g>
<!-- Node103&#45;&gt;Node77 -->
<g id="edge58" class="edge">
<title>Node103&#45;&gt;Node77</title>
<path fill="none" stroke="midnightblue" d="M484.3,-436.55C496.27,-439.43 509.27,-442.96 521,-447 540.17,-453.61 560.94,-462.98 577.03,-470.77"/>
<polygon fill="midnightblue" stroke="midnightblue" points="575.87,-474.1 586.39,-475.37 578.96,-467.82 575.87,-474.1"/>
</g>
<!-- Node105 -->
<g id="node42" class="node">
<title>Node105</title>
<g id="a_node42"><a xlink:href="lst__cmd_8c.html#a8dd9c58ef8144c1956483eb089e5080f" target="_top" xlink:title=" ">
<polygon fill="none" stroke="black" points="219,-228.5 219,-247.5 322,-247.5 322,-228.5 219,-228.5"/>
<text text-anchor="middle" x="270.5" y="-235.5" font-family="Helvetica,sans-Serif" font-size="10.00">create_node_cmd</text>
</a>
</g>
</g>
<!-- Node104&#45;&gt;Node105 -->
<g id="edge60" class="edge">
<title>Node104&#45;&gt;Node105</title>
<path fill="none" stroke="midnightblue" d="M151.15,-190.16C174.21,-199.48 210.19,-214.02 236.43,-224.63"/>
<polygon fill="midnightblue" stroke="midnightblue" points="235.38,-227.98 245.96,-228.48 238,-221.49 235.38,-227.98"/>
</g>
<!-- Node106 -->
<g id="node43" class="node">
<title>Node106</title>
<g id="a_node43"><a xlink:href="parser_8c.html#a2e2699d47ad80d706e124c654b57b375" target="_top" xlink:title=" ">
<polygon fill="none" stroke="black" points="576.5,-114.5 576.5,-133.5 635.5,-133.5 635.5,-114.5 576.5,-114.5"/>
<text text-anchor="middle" x="606" y="-121.5" font-family="Helvetica,sans-Serif" font-size="10.00">cur_next</text>
</a>
</g>
</g>
<!-- Node104&#45;&gt;Node106 -->
<g id="edge61" class="edge">
<title>Node104&#45;&gt;Node106</title>
<path fill="none" stroke="midnightblue" d="M151.32,-174.82C160.13,-171.79 169.99,-167.58 178,-162 197.9,-148.14 192.48,-132.17 214,-121 330.25,-60.68 493.35,-92.98 566.66,-112.56"/>
<polygon fill="midnightblue" stroke="midnightblue" points="565.83,-115.96 576.39,-115.23 567.67,-109.21 565.83,-115.96"/>
</g>
<!-- Node107 -->
<g id="node44" class="node">
<title>Node107</title>
<g id="a_node44"><a xlink:href="token__utils_8c.html#ab3d9f0b7ddaf8661f8a3b3243d33bce7" target="_top" xlink:title="Free t_token entire linked list.">
<polygon fill="none" stroke="black" points="233.5,-38.5 233.5,-57.5 307.5,-57.5 307.5,-38.5 233.5,-38.5"/>
<text text-anchor="middle" x="270.5" y="-45.5" font-family="Helvetica,sans-Serif" font-size="10.00">free_tokens</text>
</a>
</g>
</g>
<!-- Node104&#45;&gt;Node107 -->
<g id="edge62" class="edge">
<title>Node104&#45;&gt;Node107</title>
<path fill="none" stroke="midnightblue" d="M151.15,-176.52C160.45,-173.7 170.72,-169.17 178,-162 208.68,-131.75 183.96,-102.88 214,-72 217.7,-68.19 222.11,-64.96 226.79,-62.21"/>
<polygon fill="midnightblue" stroke="midnightblue" points="228.71,-65.16 236.04,-57.51 225.54,-58.92 228.71,-65.16"/>
</g>
<!-- Node108 -->
<g id="node45" class="node">
<title>Node108</title>
<g id="a_node45"><a xlink:href="parser_8c.html#a504166f8c7680aafbdfdb58ab412d498" target="_top" xlink:title=" ">
<polygon fill="none" stroke="black" points="399.5,-190.5 399.5,-209.5 484.5,-209.5 484.5,-190.5 399.5,-190.5"/>
<text text-anchor="middle" x="442" y="-197.5" font-family="Helvetica,sans-Serif" font-size="10.00">is_token_redir</text>
</a>
</g>
</g>
<!-- Node104&#45;&gt;Node108 -->
<g id="edge63" class="edge">
<title>Node104&#45;&gt;Node108</title>
<path fill="none" stroke="midnightblue" d="M151.23,-182.38C200.86,-185.4 320.01,-192.64 389.08,-196.84"/>
<polygon fill="midnightblue" stroke="midnightblue" points="389.11,-200.35 399.3,-197.46 389.53,-193.36 389.11,-200.35"/>
</g>
<!-- Node109 -->
<g id="node46" class="node">
<title>Node109</title>
<g id="a_node46"><a xlink:href="parser_8c.html#a53cd1de291e3e0bab0192a7880cd6449" target="_top" xlink:title=" ">
<polygon fill="none" stroke="red" points="235.5,-152.5 235.5,-171.5 305.5,-171.5 305.5,-152.5 235.5,-152.5"/>
<text text-anchor="middle" x="270.5" y="-159.5" font-family="Helvetica,sans-Serif" font-size="10.00">parse_cmd</text>
</a>
</g>
</g>
<!-- Node104&#45;&gt;Node109 -->
<g id="edge64" class="edge">
<title>Node104&#45;&gt;Node109</title>
<path fill="none" stroke="midnightblue" d="M151.15,-177.95C171.04,-175.27 200.55,-171.29 225.13,-167.98"/>
<polygon fill="midnightblue" stroke="midnightblue" points="225.87,-171.41 235.32,-166.61 224.94,-164.47 225.87,-171.41"/>
</g>
<!-- Node114 -->
<g id="node47" class="node">
<title>Node114</title>
<g id="a_node47"><a xlink:href="parser_8c.html#a196c06f986a99e4ad591e374a4bb6339" target="_top" xlink:title=" ">
<polygon fill="none" stroke="red" points="406.5,-114.5 406.5,-133.5 477.5,-133.5 477.5,-114.5 406.5,-114.5"/>
<text text-anchor="middle" x="442" y="-121.5" font-family="Helvetica,sans-Serif" font-size="10.00">parse_redir</text>
</a>
</g>
</g>
<!-- Node104&#45;&gt;Node114 -->
<g id="edge69" class="edge">
<title>Node104&#45;&gt;Node114</title>
<path fill="none" stroke="midnightblue" d="M151.41,-172.86C159.86,-169.68 169.45,-165.88 178,-162 194.47,-154.52 196.64,-148.08 214,-143 275.4,-125.04 349.84,-122.19 396.33,-122.53"/>
<polygon fill="midnightblue" stroke="midnightblue" points="396.34,-126.03 406.38,-122.65 396.42,-119.03 396.34,-126.03"/>
</g>
<!-- Node116 -->
<g id="node48" class="node">
<title>Node116</title>
<g id="a_node48"><a xlink:href="lst__cmd_8c.html#aed036fcdab112b64cbd705f26aee31e0" target="_top" xlink:title=" ">
<polygon fill="none" stroke="red" points="223,-0.5 223,-19.5 318,-19.5 318,-0.5 223,-0.5"/>
<text text-anchor="middle" x="270.5" y="-7.5" font-family="Helvetica,sans-Serif" font-size="10.00">push_back_cmd</text>
</a>
</g>
</g>
<!-- Node104&#45;&gt;Node116 -->
<g id="edge70" class="edge">
<title>Node104&#45;&gt;Node116</title>
<path fill="none" stroke="midnightblue" d="M151.06,-177.07C160.57,-174.33 171.03,-169.72 178,-162 219.03,-116.54 172.14,-73.7 214,-29 215.36,-27.55 216.83,-26.21 218.39,-24.97"/>
<polygon fill="midnightblue" stroke="midnightblue" points="220.28,-27.92 226.84,-19.6 216.52,-22.02 220.28,-27.92"/>
</g>
<!-- Node118 -->
<g id="node49" class="node">
<title>Node118</title>
<g id="a_node49"><a xlink:href="error_8c.html#a8f5f1cfa591c395b88733e1134d8de3d" target="_top" xlink:title=" ">
<polygon fill="none" stroke="red" points="231.5,-266.5 231.5,-285.5 309.5,-285.5 309.5,-266.5 231.5,-266.5"/>
<text text-anchor="middle" x="270.5" y="-273.5" font-family="Helvetica,sans-Serif" font-size="10.00">syntax_error</text>
</a>
</g>
</g>
<!-- Node104&#45;&gt;Node118 -->
<g id="edge71" class="edge">
<title>Node104&#45;&gt;Node118</title>
<path fill="none" stroke="midnightblue" d="M136.79,-190.51C151.09,-206.36 181.92,-238.28 214,-257 217.61,-259.11 221.49,-261.03 225.46,-262.77"/>
<polygon fill="midnightblue" stroke="midnightblue" points="224.22,-266.04 234.81,-266.5 226.82,-259.54 224.22,-266.04"/>
</g>
<!-- Node109&#45;&gt;Node106 -->
<g id="edge65" class="edge">
<title>Node109&#45;&gt;Node106</title>
<path fill="none" stroke="midnightblue" d="M305.58,-160.99C353.78,-159.19 444.53,-154.5 521,-143 535.99,-140.75 552.28,-137.3 566.5,-133.95"/>
<polygon fill="midnightblue" stroke="midnightblue" points="567.53,-137.3 576.43,-131.56 565.89,-130.5 567.53,-137.3"/>
</g>
<!-- Node109&#45;&gt;Node108 -->
<g id="edge66" class="edge">
<title>Node109&#45;&gt;Node108</title>
<path fill="none" stroke="midnightblue" d="M305.8,-169.69C329.73,-175.06 362.1,-182.31 389.17,-188.38"/>
<polygon fill="midnightblue" stroke="midnightblue" points="388.73,-191.87 399.25,-190.64 390.26,-185.04 388.73,-191.87"/>
</g>
<!-- Node109&#45;&gt;Node114 -->
<g id="edge67" class="edge">
<title>Node109&#45;&gt;Node114</title>
<path fill="none" stroke="midnightblue" d="M305.8,-154.31C331.91,-148.46 368.05,-140.35 396.4,-134"/>
<polygon fill="midnightblue" stroke="midnightblue" points="397.47,-137.35 406.46,-131.74 395.94,-130.52 397.47,-137.35"/>
</g>
<!-- Node114&#45;&gt;Node106 -->
<g id="edge68" class="edge">
<title>Node114&#45;&gt;Node106</title>
<path fill="none" stroke="midnightblue" d="M477.75,-124C503.69,-124 539.14,-124 566.03,-124"/>
<polygon fill="midnightblue" stroke="midnightblue" points="566.25,-127.5 576.25,-124 566.25,-120.5 566.25,-127.5"/>
</g>
</g>
</svg>
