<?xml version="1.0" encoding="UTF-8" standalone="no"?>
<!DOCTYPE svg PUBLIC "-//W3C//DTD SVG 1.1//EN"
 "http://www.w3.org/Graphics/SVG/1.1/DTD/svg11.dtd">
<!-- Generated by graphviz version 2.43.0 (0)
 -->
<!-- Title: heredoc_input Pages: 1 -->
<svg width="487pt" height="206pt"
 viewBox="0.00 0.00 487.00 206.34" xmlns="http://www.w3.org/2000/svg" xmlns:xlink="http://www.w3.org/1999/xlink">
<g id="graph0" class="graph" transform="scale(1 1) rotate(0) translate(4 202.34)">
<title>heredoc_input</title>
<!-- Node1 -->
<g id="node1" class="node">
<title>Node1</title>
<g id="a_node1"><a xlink:title="it&#39;s where we open the heredoc and start writing inside our pipe each time we check if it&#39;s the word ...">
<polygon fill="#bfbfbf" stroke="black" points="0,-95.5 0,-114.5 86,-114.5 86,-95.5 0,-95.5"/>
<text text-anchor="middle" x="43" y="-102.5" font-family="Helvetica,sans-Serif" font-size="10.00">heredoc_input</text>
</a>
</g>
</g>
<!-- Node2 -->
<g id="node2" class="node">
<title>Node2</title>
<g id="a_node2"><a xlink:href="heredoc_8c.html#a3e1410633d8c1ad5b1441509a020b0d4" target="_top" xlink:title="allow us to close the file descriptors when we have fork() again the process">
<polygon fill="none" stroke="black" points="261,-114.5 261,-133.5 374,-133.5 374,-114.5 261,-114.5"/>
<text text-anchor="middle" x="317.5" y="-121.5" font-family="Helvetica,sans-Serif" font-size="10.00">close_fd_heredocs2</text>
</a>
</g>
</g>
<!-- Node1&#45;&gt;Node2 -->
<g id="edge1" class="edge">
<title>Node1&#45;&gt;Node2</title>
<path fill="none" stroke="midnightblue" d="M86.28,-107.95C130.19,-111.01 199.5,-115.84 250.61,-119.41"/>
<polygon fill="midnightblue" stroke="midnightblue" points="250.68,-122.92 260.9,-120.12 251.17,-115.94 250.68,-122.92"/>
</g>
<!-- Node3 -->
<g id="node3" class="node">
<title>Node3</title>
<g id="a_node3"><a xlink:href="redirection__multipipe_8c.html#a1bca6910c90a19d96b36506a2e2cebf6" target="_top" xlink:title="as fd are all setup to &#45;1 at the beginning we check if they are open before trying to close we avoid ...">
<polygon fill="none" stroke="black" points="410,-133.5 410,-152.5 479,-152.5 479,-133.5 410,-133.5"/>
<text text-anchor="middle" x="444.5" y="-140.5" font-family="Helvetica,sans-Serif" font-size="10.00">ft_close_fd</text>
</a>
</g>
</g>
<!-- Node1&#45;&gt;Node3 -->
<g id="edge3" class="edge">
<title>Node1&#45;&gt;Node3</title>
<path fill="none" stroke="midnightblue" d="M50.06,-114.58C61.59,-131.79 88.55,-167.4 122,-181 222.16,-221.73 353.33,-179.79 412.35,-156.42"/>
<polygon fill="midnightblue" stroke="midnightblue" points="413.9,-159.57 421.85,-152.57 411.27,-153.09 413.9,-159.57"/>
</g>
<!-- Node4 -->
<g id="node4" class="node">
<title>Node4</title>
<g id="a_node4"><a xlink:href="heredoc_8c.html#ae1fac908d63c4fd12485122128c0c0fd" target="_top" xlink:title="function which allow me to do the loop to call GNL =&gt; there is also the management to leave with the ...">
<polygon fill="none" stroke="black" points="122,-152.5 122,-171.5 225,-171.5 225,-152.5 122,-152.5"/>
<text text-anchor="middle" x="173.5" y="-159.5" font-family="Helvetica,sans-Serif" font-size="10.00">read_gnl_heredoc</text>
</a>
</g>
</g>
<!-- Node1&#45;&gt;Node4 -->
<g id="edge4" class="edge">
<title>Node1&#45;&gt;Node4</title>
<path fill="none" stroke="midnightblue" d="M65.51,-114.54C86.36,-123.79 118.19,-137.91 141.72,-148.35"/>
<polygon fill="midnightblue" stroke="midnightblue" points="140.36,-151.57 150.92,-152.43 143.2,-145.17 140.36,-151.57"/>
</g>
<!-- Node5 -->
<g id="node5" class="node">
<title>Node5</title>
<g id="a_node5"><a xlink:href="ctl_8c.html#a4fd8e3642e456e9a2f7fe4dc8f44ad43" target="_top" xlink:title="remove the echoctl which are the symbol which appears when you press CTRL+C or CTRL+\ it&#39;s different ...">
<polygon fill="none" stroke="black" points="126,-76.5 126,-95.5 221,-95.5 221,-76.5 126,-76.5"/>
<text text-anchor="middle" x="173.5" y="-83.5" font-family="Helvetica,sans-Serif" font-size="10.00">remove_echoctl</text>
</a>
</g>
</g>
<!-- Node1&#45;&gt;Node5 -->
<g id="edge7" class="edge">
<title>Node1&#45;&gt;Node5</title>
<path fill="none" stroke="midnightblue" d="M86.08,-98.78C95.63,-97.37 105.92,-95.84 115.97,-94.36"/>
<polygon fill="midnightblue" stroke="midnightblue" points="116.51,-97.82 125.89,-92.89 115.48,-90.89 116.51,-97.82"/>
</g>
<!-- Node6 -->
<g id="node6" class="node">
<title>Node6</title>
<g id="a_node6"><a xlink:href="signals_8c.html#a7ea78f2f2215fe1ed765af80a1b2893d" target="_top" xlink:title="allow us to warn the process child heredoc it&#39;s time to stop and close the file descriptor">
<polygon fill="none" stroke="black" points="129.5,-38.5 129.5,-57.5 217.5,-57.5 217.5,-38.5 129.5,-38.5"/>
<text text-anchor="middle" x="173.5" y="-45.5" font-family="Helvetica,sans-Serif" font-size="10.00">sigint_heredoc</text>
</a>
</g>
</g>
<!-- Node1&#45;&gt;Node6 -->
<g id="edge8" class="edge">
<title>Node1&#45;&gt;Node6</title>
<path fill="none" stroke="midnightblue" d="M62.37,-95.45C78.03,-87.45 101.25,-75.94 122,-67 126.5,-65.06 131.26,-63.13 136,-61.27"/>
<polygon fill="midnightblue" stroke="midnightblue" points="137.5,-64.44 145.58,-57.6 134.99,-57.91 137.5,-64.44"/>
</g>
<!-- Node7 -->
<g id="node7" class="node">
<title>Node7</title>
<g id="a_node7"><a xlink:href="heredoc_8c.html#a1e49e3a472f4fd4b4c38a3e393868e67" target="_top" xlink:title="origin of creation ; the norm what it is doing ? juste close the fd the right way if we encounter the...">
<polygon fill="none" stroke="black" points="130.5,-0.5 130.5,-19.5 216.5,-19.5 216.5,-0.5 130.5,-0.5"/>
<text text-anchor="middle" x="173.5" y="-7.5" font-family="Helvetica,sans-Serif" font-size="10.00">update_status</text>
</a>
</g>
</g>
<!-- Node1&#45;&gt;Node7 -->
<g id="edge9" class="edge">
<title>Node1&#45;&gt;Node7</title>
<path fill="none" stroke="midnightblue" d="M51.65,-95.29C64.59,-79.44 92.32,-47.86 122,-29 125.11,-27.02 128.45,-25.21 131.89,-23.55"/>
<polygon fill="midnightblue" stroke="midnightblue" points="133.33,-26.74 141.09,-19.52 130.53,-20.32 133.33,-26.74"/>
</g>
<!-- Node2&#45;&gt;Node3 -->
<g id="edge2" class="edge">
<title>Node2&#45;&gt;Node3</title>
<path fill="none" stroke="midnightblue" d="M374.05,-132.44C382.77,-133.77 391.67,-135.12 400.06,-136.4"/>
<polygon fill="midnightblue" stroke="midnightblue" points="399.58,-139.86 409.99,-137.91 400.63,-132.94 399.58,-139.86"/>
</g>
<!-- Node4&#45;&gt;Node2 -->
<g id="edge5" class="edge">
<title>Node4&#45;&gt;Node2</title>
<path fill="none" stroke="midnightblue" d="M210.33,-152.41C228.66,-147.51 251.18,-141.48 270.75,-136.24"/>
<polygon fill="midnightblue" stroke="midnightblue" points="271.92,-139.55 280.68,-133.59 270.11,-132.79 271.92,-139.55"/>
</g>
<!-- Node4&#45;&gt;Node3 -->
<g id="edge6" class="edge">
<title>Node4&#45;&gt;Node3</title>
<path fill="none" stroke="midnightblue" d="M225.1,-158.43C275.43,-154.87 351.87,-149.47 399.69,-146.09"/>
<polygon fill="midnightblue" stroke="midnightblue" points="400,-149.58 409.73,-145.39 399.5,-142.6 400,-149.58"/>
</g>
<!-- Node7&#45;&gt;Node2 -->
<g id="edge10" class="edge">
<title>Node7&#45;&gt;Node2</title>
<path fill="none" stroke="midnightblue" d="M206.53,-19.59C212.91,-22.17 219.37,-25.29 225,-29 242.2,-40.32 280.37,-82.6 301.58,-106.77"/>
<polygon fill="midnightblue" stroke="midnightblue" points="299.09,-109.25 308.31,-114.48 304.37,-104.64 299.09,-109.25"/>
</g>
<!-- Node7&#45;&gt;Node3 -->
<g id="edge11" class="edge">
<title>Node7&#45;&gt;Node3</title>
<path fill="none" stroke="midnightblue" d="M201.46,-19.51C209.14,-22.39 217.46,-25.67 225,-29 296.75,-60.68 377.77,-105.44 418.01,-128.31"/>
<polygon fill="midnightblue" stroke="midnightblue" points="416.45,-131.45 426.87,-133.37 419.92,-125.37 416.45,-131.45"/>
</g>
</g>
</svg>
