<?xml version="1.0" encoding="UTF-8" standalone="no"?>
<!DOCTYPE svg PUBLIC "-//W3C//DTD SVG 1.1//EN"
 "http://www.w3.org/Graphics/SVG/1.1/DTD/svg11.dtd">
<!-- Generated by graphviz version 2.43.0 (0)
 -->
<!-- Title: one_command_execve Pages: 1 -->
<svg width="1245pt" height="671pt"
 viewBox="0.00 0.00 1245.00 671.26" xmlns="http://www.w3.org/2000/svg" xmlns:xlink="http://www.w3.org/1999/xlink">
<g id="graph0" class="graph" transform="scale(1 1) rotate(0) translate(4 667.26)">
<title>one_command_execve</title>
<!-- Node1 -->
<g id="node1" class="node">
<title>Node1</title>
<g id="a_node1"><a xlink:title="in this function we do the fork to create a child process we do the redirection if we need to">
<polygon fill="#bfbfbf" stroke="black" points="0,-420.21 0,-439.21 128,-439.21 128,-420.21 0,-420.21"/>
<text text-anchor="middle" x="64" y="-427.21" font-family="Helvetica,sans-Serif" font-size="10.00">one_command_execve</text>
</a>
</g>
</g>
<!-- Node2 -->
<g id="node2" class="node">
<title>Node2</title>
<g id="a_node2"><a xlink:href="redirection__multipipe_8c.html#a26c96266f1645047a9bdd9af22de94a7" target="_top" xlink:title=" ">
<polygon fill="none" stroke="black" points="702,-591.21 702,-610.21 810,-610.21 810,-591.21 702,-591.21"/>
<text text-anchor="middle" x="756" y="-598.21" font-family="Helvetica,sans-Serif" font-size="10.00">command_redirect</text>
</a>
</g>
</g>
<!-- Node1&#45;&gt;Node2 -->
<g id="edge1" class="edge">
<title>Node1&#45;&gt;Node2</title>
<path fill="none" stroke="midnightblue" d="M72.94,-439.38C88.51,-457.72 124.95,-497.69 164,-519.71 236.09,-560.34 259.74,-572.71 342.5,-572.71 342.5,-572.71 342.5,-572.71 475.5,-572.71 549.99,-572.71 635.09,-582.67 691.62,-590.71"/>
<polygon fill="midnightblue" stroke="midnightblue" points="691.44,-594.22 701.84,-592.19 692.44,-587.3 691.44,-594.22"/>
</g>
<!-- Node5 -->
<g id="node5" class="node">
<title>Node5</title>
<g id="a_node5"><a xlink:href="utils_8c.html#a1bca6910c90a19d96b36506a2e2cebf6" target="_top" xlink:title="as fd are all setup to &#45;1 at the beginning we check if they are open before trying to close we avoid ...">
<polygon fill="none" stroke="black" points="1163,-534.21 1163,-553.21 1232,-553.21 1232,-534.21 1163,-534.21"/>
<text text-anchor="middle" x="1197.5" y="-541.21" font-family="Helvetica,sans-Serif" font-size="10.00">ft_close_fd</text>
</a>
</g>
</g>
<!-- Node1&#45;&gt;Node5 -->
<g id="edge55" class="edge">
<title>Node1&#45;&gt;Node5</title>
<path fill="none" stroke="midnightblue" d="M85.36,-439.33C130.55,-459.78 243.1,-505.71 342.5,-505.71 342.5,-505.71 342.5,-505.71 917.5,-505.71 1008.78,-505.71 1032.05,-509.16 1122,-524.71 1132.47,-526.51 1143.62,-529.03 1154.03,-531.65"/>
<polygon fill="midnightblue" stroke="midnightblue" points="1153.17,-535.04 1163.73,-534.16 1154.93,-528.27 1153.17,-535.04"/>
</g>
<!-- Node7 -->
<g id="node7" class="node">
<title>Node7</title>
<g id="a_node7"><a xlink:href="lst__cmd2_8c.html#a132395876bb5a7cfe926b9e37571a1e3" target="_top" xlink:title=" ">
<polygon fill="none" stroke="black" points="564,-458.21 564,-477.21 656,-477.21 656,-458.21 564,-458.21"/>
<text text-anchor="middle" x="610" y="-465.21" font-family="Helvetica,sans-Serif" font-size="10.00">destructor_cmd</text>
</a>
</g>
</g>
<!-- Node1&#45;&gt;Node7 -->
<g id="edge9" class="edge">
<title>Node1&#45;&gt;Node7</title>
<path fill="none" stroke="midnightblue" d="M126.43,-439.23C138.84,-440.92 151.82,-442.52 164,-443.71 303.9,-457.34 469.34,-463.71 553.62,-466.26"/>
<polygon fill="midnightblue" stroke="midnightblue" points="553.64,-469.76 563.74,-466.56 553.85,-462.76 553.64,-469.76"/>
</g>
<!-- Node11 -->
<g id="node11" class="node">
<title>Node11</title>
<g id="a_node11"><a xlink:href="lst__env_8c.html#a226ae0aa054e697998b2ecbc5d61d592" target="_top" xlink:title=" ">
<polygon fill="none" stroke="black" points="565.5,-420.21 565.5,-439.21 654.5,-439.21 654.5,-420.21 565.5,-420.21"/>
<text text-anchor="middle" x="610" y="-427.21" font-family="Helvetica,sans-Serif" font-size="10.00">destructor_env</text>
</a>
</g>
</g>
<!-- Node1&#45;&gt;Node11 -->
<g id="edge15" class="edge">
<title>Node1&#45;&gt;Node11</title>
<path fill="none" stroke="midnightblue" d="M128.2,-429.71C236.1,-429.71 453.95,-429.71 555.11,-429.71"/>
<polygon fill="midnightblue" stroke="midnightblue" points="555.4,-433.21 565.4,-429.71 555.4,-426.21 555.4,-433.21"/>
</g>
<!-- Node13 -->
<g id="node13" class="node">
<title>Node13</title>
<g id="a_node13"><a xlink:href="execution__node_8c.html#adda76b40c34c18ec83b1d98700083f8a" target="_top" xlink:title="we are going to execute the command here we have a security about absolute path given =&gt; because it&#39;s...">
<polygon fill="none" stroke="black" points="164,-249.21 164,-268.21 257,-268.21 257,-249.21 164,-249.21"/>
<text text-anchor="middle" x="210.5" y="-256.21" font-family="Helvetica,sans-Serif" font-size="10.00">execution_node</text>
</a>
</g>
</g>
<!-- Node1&#45;&gt;Node13 -->
<g id="edge17" class="edge">
<title>Node1&#45;&gt;Node13</title>
<path fill="none" stroke="midnightblue" d="M73.18,-420.02C96.73,-392.16 164.88,-311.51 194.95,-275.92"/>
<polygon fill="midnightblue" stroke="midnightblue" points="197.63,-278.18 201.41,-268.28 192.28,-273.66 197.63,-278.18"/>
</g>
<!-- Node43 -->
<g id="node43" class="node">
<title>Node43</title>
<g id="a_node43"><a xlink:href="signals_8c.html#aa06f925baa9a6f549b31de64d4faac32" target="_top" xlink:title="allow us to don&#39;t create issue when a child process with readline">
<polygon fill="none" stroke="black" points="164.5,-211.21 164.5,-230.21 256.5,-230.21 256.5,-211.21 164.5,-211.21"/>
<text text-anchor="middle" x="210.5" y="-218.21" font-family="Helvetica,sans-Serif" font-size="10.00">sigint_handler2</text>
</a>
</g>
</g>
<!-- Node1&#45;&gt;Node43 -->
<g id="edge56" class="edge">
<title>Node1&#45;&gt;Node43</title>
<path fill="none" stroke="midnightblue" d="M67.5,-419.96C75.86,-389.24 105.66,-293.3 164,-239.71 165.69,-238.15 167.53,-236.72 169.46,-235.39"/>
<polygon fill="midnightblue" stroke="midnightblue" points="171.47,-238.27 178.39,-230.25 167.98,-232.2 171.47,-238.27"/>
</g>
<!-- Node44 -->
<g id="node44" class="node">
<title>Node44</title>
<g id="a_node44"><a xlink:href="signals_8c.html#a368a774e2b304a3de55f58168563967d" target="_top" xlink:title=" ">
<polygon fill="none" stroke="black" points="164.5,-173.21 164.5,-192.21 256.5,-192.21 256.5,-173.21 164.5,-173.21"/>
<text text-anchor="middle" x="210.5" y="-180.21" font-family="Helvetica,sans-Serif" font-size="10.00">sigquit_handler</text>
</a>
</g>
</g>
<!-- Node1&#45;&gt;Node44 -->
<g id="edge57" class="edge">
<title>Node1&#45;&gt;Node44</title>
<path fill="none" stroke="midnightblue" d="M66.55,-420.02C72.55,-385.56 97.32,-267.45 164,-201.71 165.46,-200.26 167.05,-198.92 168.73,-197.68"/>
<polygon fill="midnightblue" stroke="midnightblue" points="170.96,-200.42 177.69,-192.25 167.33,-194.44 170.96,-200.42"/>
</g>
<!-- Node3 -->
<g id="node3" class="node">
<title>Node3</title>
<g id="a_node3"><a xlink:href="redirection__multipipe_8c.html#a221f4b2814fe6c3ab1b3ad1fd7f24fb2" target="_top" xlink:title=" ">
<polygon fill="none" stroke="black" points="847,-572.21 847,-591.21 986,-591.21 986,-572.21 847,-572.21"/>
<text text-anchor="middle" x="916.5" y="-579.21" font-family="Helvetica,sans-Serif" font-size="10.00">command_redirect_part2</text>
</a>
</g>
</g>
<!-- Node2&#45;&gt;Node3 -->
<g id="edge2" class="edge">
<title>Node2&#45;&gt;Node3</title>
<path fill="none" stroke="midnightblue" d="M810.22,-594.33C818.78,-593.3 827.79,-592.22 836.8,-591.14"/>
<polygon fill="midnightblue" stroke="midnightblue" points="837.43,-594.59 846.94,-589.92 836.59,-587.64 837.43,-594.59"/>
</g>
<!-- Node2&#45;&gt;Node5 -->
<g id="edge8" class="edge">
<title>Node2&#45;&gt;Node5</title>
<path fill="none" stroke="midnightblue" d="M778.12,-610.33C836.36,-635.36 1002.84,-696.69 1122,-638.71 1154.51,-622.89 1177.03,-585.26 1188.26,-562.39"/>
<polygon fill="midnightblue" stroke="midnightblue" points="1191.44,-563.87 1192.51,-553.33 1185.1,-560.9 1191.44,-563.87"/>
</g>
<!-- Node6 -->
<g id="node6" class="node">
<title>Node6</title>
<g id="a_node6"><a xlink:href="redirection__multipipe_8c.html#a5b749bc2b4088984c0efe1c479ae6ec8" target="_top" xlink:title=" ">
<polygon fill="none" stroke="black" points="1032,-610.21 1032,-629.21 1112,-629.21 1112,-610.21 1032,-610.21"/>
<text text-anchor="middle" x="1072" y="-617.21" font-family="Helvetica,sans-Serif" font-size="10.00">fail_previous</text>
</a>
</g>
</g>
<!-- Node2&#45;&gt;Node6 -->
<g id="edge6" class="edge">
<title>Node2&#45;&gt;Node6</title>
<path fill="none" stroke="midnightblue" d="M810.27,-603.93C869.4,-607.51 964.07,-613.24 1021.6,-616.72"/>
<polygon fill="midnightblue" stroke="midnightblue" points="1021.7,-620.23 1031.89,-617.34 1022.12,-613.24 1021.7,-620.23"/>
</g>
<!-- Node4 -->
<g id="node4" class="node">
<title>Node4</title>
<g id="a_node4"><a xlink:href="redirection__multipipe_8c.html#a3a0d7f695cf53df46301e14ffab77638" target="_top" xlink:title=" ">
<polygon fill="none" stroke="black" points="1027.5,-534.21 1027.5,-553.21 1116.5,-553.21 1116.5,-534.21 1027.5,-534.21"/>
<text text-anchor="middle" x="1072" y="-541.21" font-family="Helvetica,sans-Serif" font-size="10.00">close_previous</text>
</a>
</g>
</g>
<!-- Node3&#45;&gt;Node4 -->
<g id="edge3" class="edge">
<title>Node3&#45;&gt;Node4</title>
<path fill="none" stroke="midnightblue" d="M956.23,-572.12C976.4,-567.12 1001.25,-560.97 1022.66,-555.67"/>
<polygon fill="midnightblue" stroke="midnightblue" points="1023.68,-559.03 1032.54,-553.23 1022,-552.23 1023.68,-559.03"/>
</g>
<!-- Node3&#45;&gt;Node5 -->
<g id="edge5" class="edge">
<title>Node3&#45;&gt;Node5</title>
<path fill="none" stroke="midnightblue" d="M986.02,-578.04C1025.9,-575.23 1077.03,-570.48 1122,-562.71 1132.47,-560.9 1143.62,-558.38 1154.03,-555.76"/>
<polygon fill="midnightblue" stroke="midnightblue" points="1154.93,-559.14 1163.73,-553.25 1153.17,-552.37 1154.93,-559.14"/>
</g>
<!-- Node4&#45;&gt;Node5 -->
<g id="edge4" class="edge">
<title>Node4&#45;&gt;Node5</title>
<path fill="none" stroke="midnightblue" d="M1116.54,-543.71C1128.25,-543.71 1140.92,-543.71 1152.65,-543.71"/>
<polygon fill="midnightblue" stroke="midnightblue" points="1152.66,-547.21 1162.66,-543.71 1152.66,-540.21 1152.66,-547.21"/>
</g>
<!-- Node6&#45;&gt;Node5 -->
<g id="edge7" class="edge">
<title>Node6&#45;&gt;Node5</title>
<path fill="none" stroke="midnightblue" d="M1094.36,-610.12C1103.09,-605.98 1113.19,-600.9 1122,-595.71 1140.79,-584.63 1161.02,-570.35 1175.65,-559.55"/>
<polygon fill="midnightblue" stroke="midnightblue" points="1178.06,-562.13 1183.98,-553.34 1173.87,-556.52 1178.06,-562.13"/>
</g>
<!-- Node8 -->
<g id="node8" class="node">
<title>Node8</title>
<g id="a_node8"><a xlink:href="lst__cmd2_8c.html#a8e2b63759f149b547e0d07f210ede9b3" target="_top" xlink:title=" ">
<polygon fill="none" stroke="black" points="725.5,-458.21 725.5,-477.21 786.5,-477.21 786.5,-458.21 725.5,-458.21"/>
<text text-anchor="middle" x="756" y="-465.21" font-family="Helvetica,sans-Serif" font-size="10.00">pop_cmd</text>
</a>
</g>
</g>
<!-- Node7&#45;&gt;Node8 -->
<g id="edge10" class="edge">
<title>Node7&#45;&gt;Node8</title>
<path fill="none" stroke="midnightblue" d="M656.17,-467.71C675.15,-467.71 697.03,-467.71 715.37,-467.71"/>
<polygon fill="midnightblue" stroke="midnightblue" points="715.44,-471.21 725.44,-467.71 715.44,-464.21 715.44,-471.21"/>
</g>
<!-- Node8&#45;&gt;Node5 -->
<g id="edge14" class="edge">
<title>Node8&#45;&gt;Node5</title>
<path fill="none" stroke="midnightblue" d="M786.93,-464.39C850.67,-458.44 1003.65,-450.17 1122,-491.71 1143.65,-499.3 1164.75,-515.05 1178.93,-527.24"/>
<polygon fill="midnightblue" stroke="midnightblue" points="1176.64,-529.88 1186.44,-533.92 1181.29,-524.65 1176.64,-529.88"/>
</g>
<!-- Node9 -->
<g id="node9" class="node">
<title>Node9</title>
<g id="a_node9"><a xlink:href="lst__redir2_8c.html#a30ccaf401a4f897e48ead5fe54f4b307" target="_top" xlink:title=" ">
<polygon fill="none" stroke="black" points="869.5,-420.21 869.5,-439.21 963.5,-439.21 963.5,-420.21 869.5,-420.21"/>
<text text-anchor="middle" x="916.5" y="-427.21" font-family="Helvetica,sans-Serif" font-size="10.00">destructor_redir</text>
</a>
</g>
</g>
<!-- Node8&#45;&gt;Node9 -->
<g id="edge11" class="edge">
<title>Node8&#45;&gt;Node9</title>
<path fill="none" stroke="midnightblue" d="M786.81,-460.56C808.98,-455.24 839.74,-447.87 865.62,-441.66"/>
<polygon fill="midnightblue" stroke="midnightblue" points="866.74,-445 875.64,-439.26 865.1,-438.19 866.74,-445"/>
</g>
<!-- Node10 -->
<g id="node10" class="node">
<title>Node10</title>
<g id="a_node10"><a xlink:href="lst__redir2_8c.html#ade8f0bdda51d9bf348ebeb38fefba881" target="_top" xlink:title=" ">
<polygon fill="none" stroke="black" points="1041,-420.21 1041,-439.21 1103,-439.21 1103,-420.21 1041,-420.21"/>
<text text-anchor="middle" x="1072" y="-427.21" font-family="Helvetica,sans-Serif" font-size="10.00">pop_redir</text>
</a>
</g>
</g>
<!-- Node9&#45;&gt;Node10 -->
<g id="edge12" class="edge">
<title>Node9&#45;&gt;Node10</title>
<path fill="none" stroke="midnightblue" d="M963.56,-429.71C985.01,-429.71 1010.3,-429.71 1030.95,-429.71"/>
<polygon fill="midnightblue" stroke="midnightblue" points="1030.98,-433.21 1040.98,-429.71 1030.98,-426.21 1030.98,-433.21"/>
</g>
<!-- Node10&#45;&gt;Node5 -->
<g id="edge13" class="edge">
<title>Node10&#45;&gt;Node5</title>
<path fill="none" stroke="midnightblue" d="M1097.62,-439.28C1105.82,-443.1 1114.71,-447.96 1122,-453.71 1148.41,-474.51 1171.85,-506.11 1185.1,-525.79"/>
<polygon fill="midnightblue" stroke="midnightblue" points="1182.18,-527.73 1190.59,-534.16 1188.03,-523.88 1182.18,-527.73"/>
</g>
<!-- Node12 -->
<g id="node12" class="node">
<title>Node12</title>
<g id="a_node12"><a xlink:href="lst__env_8c.html#a058c245b5f2ef22f9d2659f90e4d3537" target="_top" xlink:title=" ">
<polygon fill="none" stroke="black" points="727,-420.21 727,-439.21 785,-439.21 785,-420.21 727,-420.21"/>
<text text-anchor="middle" x="756" y="-427.21" font-family="Helvetica,sans-Serif" font-size="10.00">pop_env</text>
</a>
</g>
</g>
<!-- Node11&#45;&gt;Node12 -->
<g id="edge16" class="edge">
<title>Node11&#45;&gt;Node12</title>
<path fill="none" stroke="midnightblue" d="M654.6,-429.71C674.43,-429.71 697.69,-429.71 716.83,-429.71"/>
<polygon fill="midnightblue" stroke="midnightblue" points="716.99,-433.21 726.99,-429.71 716.99,-426.21 716.99,-433.21"/>
</g>
<!-- Node14 -->
<g id="node14" class="node">
<title>Node14</title>
<g id="a_node14"><a xlink:href="execution__node_8c.html#a74f4c34ebdc38c1fb50db2aa13f97b66" target="_top" xlink:title=" ">
<polygon fill="none" stroke="black" points="293,-40.21 293,-59.21 394,-59.21 394,-40.21 293,-40.21"/>
<text text-anchor="middle" x="343.5" y="-47.21" font-family="Helvetica,sans-Serif" font-size="10.00">check_accessible</text>
</a>
</g>
</g>
<!-- Node13&#45;&gt;Node14 -->
<g id="edge18" class="edge">
<title>Node13&#45;&gt;Node14</title>
<path fill="none" stroke="midnightblue" d="M245.37,-249.05C249.77,-246.6 253.83,-243.53 257,-239.71 306.52,-179.87 242.62,-127.81 293,-68.71 294.01,-67.52 295.1,-66.41 296.25,-65.37"/>
<polygon fill="midnightblue" stroke="midnightblue" points="298.52,-68.06 304.7,-59.46 294.5,-62.33 298.52,-68.06"/>
</g>
<!-- Node15 -->
<g id="node15" class="node">
<title>Node15</title>
<g id="a_node15"><a xlink:href="execution__node_8c.html#adc2c91230d4a0a1a1f98db2a888afcaa" target="_top" xlink:title="error message management for the specific case of execution">
<polygon fill="none" stroke="black" points="430,-2.21 430,-21.21 519,-21.21 519,-2.21 430,-2.21"/>
<text text-anchor="middle" x="474.5" y="-9.21" font-family="Helvetica,sans-Serif" font-size="10.00">message_error</text>
</a>
</g>
</g>
<!-- Node13&#45;&gt;Node15 -->
<g id="edge51" class="edge">
<title>Node13&#45;&gt;Node15</title>
<path fill="none" stroke="midnightblue" d="M245.5,-249.16C249.88,-246.69 253.91,-243.59 257,-239.71 315.75,-165.99 224.2,-95.13 293,-30.71 326.33,0.5 379.75,2.47 419.84,-1.7"/>
<polygon fill="midnightblue" stroke="midnightblue" points="419.64,-5.2 429.99,-2.91 420.47,1.75 419.64,-5.2"/>
</g>
<!-- Node16 -->
<g id="node16" class="node">
<title>Node16</title>
<g id="a_node16"><a xlink:href="launcher_8c.html#a3acc0bb56da881cc8609ca9e94ec8e93" target="_top" xlink:title="detect if it&#39;s a builtin with strncmp() but the real question is &quot;is it a builtin I have &#160;to launch i...">
<polygon fill="none" stroke="black" points="307,-287.21 307,-306.21 380,-306.21 380,-287.21 307,-287.21"/>
<text text-anchor="middle" x="343.5" y="-294.21" font-family="Helvetica,sans-Serif" font-size="10.00">is_it_builtin</text>
</a>
</g>
</g>
<!-- Node13&#45;&gt;Node16 -->
<g id="edge20" class="edge">
<title>Node13&#45;&gt;Node16</title>
<path fill="none" stroke="midnightblue" d="M244.56,-268.29C261.31,-273.15 281.86,-279.11 299.8,-284.32"/>
<polygon fill="midnightblue" stroke="midnightblue" points="298.87,-287.69 309.45,-287.12 300.82,-280.97 298.87,-287.69"/>
</g>
<!-- Node17 -->
<g id="node17" class="node">
<title>Node17</title>
<g id="a_node17"><a xlink:href="launcher_8c.html#a7bee4f6fbfd70ef7ec1f52856538ac71" target="_top" xlink:title="launch the builtin &#160;&#160;some of them are not present because we have to fork() them why ?...">
<polygon fill="none" stroke="black" points="301,-249.21 301,-268.21 386,-268.21 386,-249.21 301,-249.21"/>
<text text-anchor="middle" x="343.5" y="-256.21" font-family="Helvetica,sans-Serif" font-size="10.00">launch_builtin</text>
</a>
</g>
</g>
<!-- Node13&#45;&gt;Node17 -->
<g id="edge21" class="edge">
<title>Node13&#45;&gt;Node17</title>
<path fill="none" stroke="midnightblue" d="M257.32,-258.71C268.05,-258.71 279.57,-258.71 290.55,-258.71"/>
<polygon fill="midnightblue" stroke="midnightblue" points="290.87,-262.21 300.87,-258.71 290.87,-255.21 290.87,-262.21"/>
</g>
<!-- Node39 -->
<g id="node39" class="node">
<title>Node39</title>
<g id="a_node39"><a xlink:href="lst__env__two_8c.html#aafcce0b2f2958645e84ae23b14116680" target="_top" xlink:title=" ">
<polygon fill="none" stroke="black" points="299.5,-78.21 299.5,-97.21 387.5,-97.21 387.5,-78.21 299.5,-78.21"/>
<text text-anchor="middle" x="343.5" y="-85.21" font-family="Helvetica,sans-Serif" font-size="10.00">lst_to_tab_env</text>
</a>
</g>
</g>
<!-- Node13&#45;&gt;Node39 -->
<g id="edge48" class="edge">
<title>Node13&#45;&gt;Node39</title>
<path fill="none" stroke="midnightblue" d="M243.93,-249.08C248.74,-246.6 253.31,-243.52 257,-239.71 288.39,-207.25 269.84,-183.46 293,-144.71 301.79,-130 314.5,-115.46 324.85,-104.74"/>
<polygon fill="midnightblue" stroke="midnightblue" points="327.62,-106.91 332.19,-97.35 322.66,-101.98 327.62,-106.91"/>
</g>
<!-- Node42 -->
<g id="node42" class="node">
<title>Node42</title>
<g id="a_node42"><a xlink:href="getenv_8c.html#a5d0cf05c2622983111dcfc0f179c5739" target="_top" xlink:title=" ">
<polygon fill="none" stroke="black" points="305.5,-154.21 305.5,-173.21 381.5,-173.21 381.5,-154.21 305.5,-154.21"/>
<text text-anchor="middle" x="343.5" y="-161.21" font-family="Helvetica,sans-Serif" font-size="10.00">search_path</text>
</a>
</g>
</g>
<!-- Node13&#45;&gt;Node42 -->
<g id="edge52" class="edge">
<title>Node13&#45;&gt;Node42</title>
<path fill="none" stroke="midnightblue" d="M238.7,-249.08C244.91,-246.41 251.35,-243.26 257,-239.71 283.88,-222.81 310.52,-197.39 326.75,-180.67"/>
<polygon fill="midnightblue" stroke="midnightblue" points="329.47,-182.89 333.83,-173.24 324.4,-178.06 329.47,-182.89"/>
</g>
<!-- Node14&#45;&gt;Node15 -->
<g id="edge19" class="edge">
<title>Node14&#45;&gt;Node15</title>
<path fill="none" stroke="midnightblue" d="M377.05,-40.12C393.4,-35.3 413.41,-29.41 430.96,-24.24"/>
<polygon fill="midnightblue" stroke="midnightblue" points="432.35,-27.47 440.96,-21.29 430.38,-20.76 432.35,-27.47"/>
</g>
<!-- Node18 -->
<g id="node18" class="node">
<title>Node18</title>
<g id="a_node18"><a xlink:href="cd_8c.html#afa3cf8a1d55856208b8d44453d4cf9b4" target="_top" xlink:title=" ">
<polygon fill="none" stroke="black" points="460,-230.21 460,-249.21 489,-249.21 489,-230.21 460,-230.21"/>
<text text-anchor="middle" x="474.5" y="-237.21" font-family="Helvetica,sans-Serif" font-size="10.00">cd</text>
</a>
</g>
</g>
<!-- Node17&#45;&gt;Node18 -->
<g id="edge22" class="edge">
<title>Node17&#45;&gt;Node18</title>
<path fill="none" stroke="midnightblue" d="M386.03,-252.59C407.13,-249.48 432.01,-245.82 449.83,-243.19"/>
<polygon fill="midnightblue" stroke="midnightblue" points="450.53,-246.63 459.91,-241.71 449.51,-239.7 450.53,-246.63"/>
</g>
<!-- Node23 -->
<g id="node23" class="node">
<title>Node23</title>
<g id="a_node23"><a xlink:href="env_8c.html#a08aa1a32a4d2f6bcca10f6424195d4ef" target="_top" xlink:title=" ">
<polygon fill="none" stroke="black" points="457,-306.21 457,-325.21 492,-325.21 492,-306.21 457,-306.21"/>
<text text-anchor="middle" x="474.5" y="-313.21" font-family="Helvetica,sans-Serif" font-size="10.00">env</text>
</a>
</g>
</g>
<!-- Node17&#45;&gt;Node23 -->
<g id="edge27" class="edge">
<title>Node17&#45;&gt;Node23</title>
<path fill="none" stroke="midnightblue" d="M371.2,-268.29C378.65,-271.14 386.71,-274.4 394,-277.71 410.47,-285.18 413.7,-288.86 430,-296.71 435.61,-299.41 441.7,-302.17 447.5,-304.72"/>
<polygon fill="midnightblue" stroke="midnightblue" points="446.28,-308.01 456.84,-308.77 449.06,-301.58 446.28,-308.01"/>
</g>
<!-- Node24 -->
<g id="node24" class="node">
<title>Node24</title>
<g id="a_node24"><a xlink:href="export_8c.html#a1bb2544b6254ee4ddb592a4cfa61734f" target="_top" xlink:title=" ">
<polygon fill="none" stroke="black" points="439,-116.21 439,-135.21 510,-135.21 510,-116.21 439,-116.21"/>
<text text-anchor="middle" x="474.5" y="-123.21" font-family="Helvetica,sans-Serif" font-size="10.00">export_call</text>
</a>
</g>
</g>
<!-- Node17&#45;&gt;Node24 -->
<g id="edge28" class="edge">
<title>Node17&#45;&gt;Node24</title>
<path fill="none" stroke="midnightblue" d="M353.78,-249.14C375.43,-226.82 429.53,-171.04 456.97,-142.74"/>
<polygon fill="midnightblue" stroke="midnightblue" points="459.51,-145.16 463.96,-135.54 454.48,-140.28 459.51,-145.16"/>
</g>
<!-- Node32 -->
<g id="node32" class="node">
<title>Node32</title>
<g id="a_node32"><a xlink:href="my__echo_8c.html#a5522916069f77552d810e207670e3170" target="_top" xlink:title=" ">
<polygon fill="none" stroke="black" points="444,-268.21 444,-287.21 505,-287.21 505,-268.21 444,-268.21"/>
<text text-anchor="middle" x="474.5" y="-275.21" font-family="Helvetica,sans-Serif" font-size="10.00">my_echo</text>
</a>
</g>
</g>
<!-- Node17&#45;&gt;Node32 -->
<g id="edge37" class="edge">
<title>Node17&#45;&gt;Node32</title>
<path fill="none" stroke="midnightblue" d="M386.03,-264.82C401.35,-267.08 418.66,-269.63 433.81,-271.86"/>
<polygon fill="midnightblue" stroke="midnightblue" points="433.5,-275.35 443.9,-273.35 434.52,-268.43 433.5,-275.35"/>
</g>
<!-- Node34 -->
<g id="node34" class="node">
<title>Node34</title>
<g id="a_node34"><a xlink:href="exit_8c.html#adcbec3416f97b2d0b8d53cf4c2b2a436" target="_top" xlink:title=" ">
<polygon fill="none" stroke="black" points="446.5,-382.21 446.5,-401.21 502.5,-401.21 502.5,-382.21 446.5,-382.21"/>
<text text-anchor="middle" x="474.5" y="-389.21" font-family="Helvetica,sans-Serif" font-size="10.00">my_exit</text>
</a>
</g>
</g>
<!-- Node17&#45;&gt;Node34 -->
<g id="edge40" class="edge">
<title>Node17&#45;&gt;Node34</title>
<path fill="none" stroke="midnightblue" d="M380.52,-268.31C385.47,-270.77 390.17,-273.86 394,-277.71 425.86,-309.7 398.87,-340 430,-372.71 432.15,-374.96 434.61,-376.96 437.24,-378.74"/>
<polygon fill="midnightblue" stroke="midnightblue" points="435.64,-381.86 446.08,-383.68 439.06,-375.75 435.64,-381.86"/>
</g>
<!-- Node36 -->
<g id="node36" class="node">
<title>Node36</title>
<g id="a_node36"><a xlink:href="pwd_8c.html#ac6977235be2514ba716ef89aad796063" target="_top" xlink:title=" ">
<polygon fill="none" stroke="black" points="456,-192.21 456,-211.21 493,-211.21 493,-192.21 456,-192.21"/>
<text text-anchor="middle" x="474.5" y="-199.21" font-family="Helvetica,sans-Serif" font-size="10.00">pwd</text>
</a>
</g>
</g>
<!-- Node17&#45;&gt;Node36 -->
<g id="edge45" class="edge">
<title>Node17&#45;&gt;Node36</title>
<path fill="none" stroke="midnightblue" d="M365.92,-249.14C383.2,-241.43 408.15,-230.33 430,-220.71 435.28,-218.38 440.92,-215.9 446.34,-213.54"/>
<polygon fill="midnightblue" stroke="midnightblue" points="447.95,-216.65 455.71,-209.44 445.15,-210.24 447.95,-216.65"/>
</g>
<!-- Node37 -->
<g id="node37" class="node">
<title>Node37</title>
<g id="a_node37"><a xlink:href="unset_8c.html#abcfd4d5a4f0408bdc748ce044e5ce08c" target="_top" xlink:title=" ">
<polygon fill="none" stroke="black" points="441.5,-344.21 441.5,-363.21 507.5,-363.21 507.5,-344.21 441.5,-344.21"/>
<text text-anchor="middle" x="474.5" y="-351.21" font-family="Helvetica,sans-Serif" font-size="10.00">unset_call</text>
</a>
</g>
</g>
<!-- Node17&#45;&gt;Node37 -->
<g id="edge46" class="edge">
<title>Node17&#45;&gt;Node37</title>
<path fill="none" stroke="midnightblue" d="M378.32,-268.32C383.91,-270.82 389.37,-273.91 394,-277.71 417.17,-296.71 407.27,-315.18 430,-334.71 431.91,-336.35 433.99,-337.87 436.17,-339.28"/>
<polygon fill="midnightblue" stroke="midnightblue" points="434.47,-342.34 444.91,-344.14 437.87,-336.22 434.47,-342.34"/>
</g>
<!-- Node19 -->
<g id="node19" class="node">
<title>Node19</title>
<g id="a_node19"><a xlink:href="cd_8c.html#a7593627e795ae769b5117673b60846c9" target="_top" xlink:title=" ">
<polygon fill="none" stroke="black" points="594,-306.21 594,-325.21 626,-325.21 626,-306.21 594,-306.21"/>
<text text-anchor="middle" x="610" y="-313.21" font-family="Helvetica,sans-Serif" font-size="10.00">len</text>
</a>
</g>
</g>
<!-- Node18&#45;&gt;Node19 -->
<g id="edge23" class="edge">
<title>Node18&#45;&gt;Node19</title>
<path fill="none" stroke="midnightblue" d="M489.17,-244.07C498.12,-247.31 509.83,-252.27 519,-258.71 538.04,-272.07 535.48,-284.05 555,-296.71 563.82,-302.42 574.56,-306.66 584.14,-309.66"/>
<polygon fill="midnightblue" stroke="midnightblue" points="583.35,-313.08 593.93,-312.45 585.27,-306.35 583.35,-313.08"/>
</g>
<!-- Node20 -->
<g id="node20" class="node">
<title>Node20</title>
<g id="a_node20"><a xlink:href="lst__env__two_8c.html#a4d4a14327b2c3ff88099102b6bd77986" target="_top" xlink:title=" ">
<polygon fill="none" stroke="black" points="558,-156.21 558,-175.21 662,-175.21 662,-156.21 558,-156.21"/>
<text text-anchor="middle" x="610" y="-163.21" font-family="Helvetica,sans-Serif" font-size="10.00">research_key_env</text>
</a>
</g>
</g>
<!-- Node18&#45;&gt;Node20 -->
<g id="edge24" class="edge">
<title>Node18&#45;&gt;Node20</title>
<path fill="none" stroke="midnightblue" d="M489.05,-234.35C497.75,-230.77 509.21,-225.81 519,-220.71 542.51,-208.46 568.21,-192.48 586.11,-180.9"/>
<polygon fill="midnightblue" stroke="midnightblue" points="588.24,-183.68 594.7,-175.29 584.41,-177.82 588.24,-183.68"/>
</g>
<!-- Node21 -->
<g id="node21" class="node">
<title>Node21</title>
<g id="a_node21"><a xlink:href="cd_8c.html#a68bb8beb2cf13bb992af8322f31f94e7" target="_top" xlink:title=" ">
<polygon fill="none" stroke="black" points="718,-220.21 718,-239.21 794,-239.21 794,-220.21 718,-220.21"/>
<text text-anchor="middle" x="756" y="-227.21" font-family="Helvetica,sans-Serif" font-size="10.00">update_pwd</text>
</a>
</g>
</g>
<!-- Node18&#45;&gt;Node21 -->
<g id="edge25" class="edge">
<title>Node18&#45;&gt;Node21</title>
<path fill="none" stroke="midnightblue" d="M489.36,-239.21C528.78,-237.8 642.86,-233.72 707.98,-231.39"/>
<polygon fill="midnightblue" stroke="midnightblue" points="708.13,-234.88 718,-231.03 707.88,-227.89 708.13,-234.88"/>
</g>
<!-- Node22 -->
<g id="node22" class="node">
<title>Node22</title>
<g id="a_node22"><a xlink:href="lst__env__two_8c.html#a8cd6579fc3858072521e55ef235a2637" target="_top" xlink:title=" ">
<polygon fill="none" stroke="black" points="861,-218.21 861,-237.21 972,-237.21 972,-218.21 861,-218.21"/>
<text text-anchor="middle" x="916.5" y="-225.21" font-family="Helvetica,sans-Serif" font-size="10.00">research_node_env</text>
</a>
</g>
</g>
<!-- Node21&#45;&gt;Node22 -->
<g id="edge26" class="edge">
<title>Node21&#45;&gt;Node22</title>
<path fill="none" stroke="midnightblue" d="M794.16,-229.24C810.99,-229.02 831.39,-228.77 850.62,-228.52"/>
<polygon fill="midnightblue" stroke="midnightblue" points="850.89,-232.02 860.85,-228.4 850.81,-225.02 850.89,-232.02"/>
</g>
<!-- Node25 -->
<g id="node25" class="node">
<title>Node25</title>
<g id="a_node25"><a xlink:href="export_8c.html#a63ef72e778f2b52c924bf77ae989dc80" target="_top" xlink:title=" ">
<polygon fill="none" stroke="black" points="586,-118.21 586,-137.21 634,-137.21 634,-118.21 586,-118.21"/>
<text text-anchor="middle" x="610" y="-125.21" font-family="Helvetica,sans-Serif" font-size="10.00">export</text>
</a>
</g>
</g>
<!-- Node24&#45;&gt;Node25 -->
<g id="edge29" class="edge">
<title>Node24&#45;&gt;Node25</title>
<path fill="none" stroke="midnightblue" d="M510.23,-126.23C530.4,-126.53 555.68,-126.91 575.62,-127.21"/>
<polygon fill="midnightblue" stroke="midnightblue" points="575.74,-130.71 585.79,-127.36 575.84,-123.71 575.74,-130.71"/>
</g>
<!-- Node26 -->
<g id="node26" class="node">
<title>Node26</title>
<g id="a_node26"><a xlink:href="export_8c.html#a077edb8749298d8320620813ff84519c" target="_top" xlink:title=" ">
<polygon fill="none" stroke="black" points="701,-118.21 701,-137.21 811,-137.21 811,-118.21 701,-118.21"/>
<text text-anchor="middle" x="756" y="-125.21" font-family="Helvetica,sans-Serif" font-size="10.00">check_validity_key</text>
</a>
</g>
</g>
<!-- Node25&#45;&gt;Node26 -->
<g id="edge30" class="edge">
<title>Node25&#45;&gt;Node26</title>
<path fill="none" stroke="midnightblue" d="M634.14,-127.71C649.51,-127.71 670.5,-127.71 690.68,-127.71"/>
<polygon fill="midnightblue" stroke="midnightblue" points="690.81,-131.21 700.81,-127.71 690.81,-124.21 690.81,-131.21"/>
</g>
<!-- Node27 -->
<g id="node27" class="node">
<title>Node27</title>
<g id="a_node27"><a xlink:href="export_8c.html#a90ff129fee9412bd5c6d74be5970b99f" target="_top" xlink:title=" ">
<polygon fill="none" stroke="black" points="701,-175.21 701,-194.21 811,-194.21 811,-175.21 701,-175.21"/>
<text text-anchor="middle" x="756" y="-182.21" font-family="Helvetica,sans-Serif" font-size="10.00">export_env_update</text>
</a>
</g>
</g>
<!-- Node25&#45;&gt;Node27 -->
<g id="edge31" class="edge">
<title>Node25&#45;&gt;Node27</title>
<path fill="none" stroke="midnightblue" d="M634.24,-135.53C643.81,-138.85 654.99,-142.83 665,-146.71 684.7,-154.32 706.54,-163.52 723.77,-170.96"/>
<polygon fill="midnightblue" stroke="midnightblue" points="722.76,-174.34 733.33,-175.12 725.55,-167.92 722.76,-174.34"/>
</g>
<!-- Node27&#45;&gt;Node22 -->
<g id="edge36" class="edge">
<title>Node27&#45;&gt;Node22</title>
<path fill="none" stroke="midnightblue" d="M792.18,-194.25C815.26,-200.51 845.66,-208.76 870.5,-215.5"/>
<polygon fill="midnightblue" stroke="midnightblue" points="869.85,-218.95 880.42,-218.19 871.69,-212.19 869.85,-218.95"/>
</g>
<!-- Node28 -->
<g id="node28" class="node">
<title>Node28</title>
<g id="a_node28"><a xlink:href="export_8c.html#a56cdba320963b2a94cb193c22ca238b7" target="_top" xlink:title=" ">
<polygon fill="none" stroke="black" points="887.5,-175.21 887.5,-194.21 945.5,-194.21 945.5,-175.21 887.5,-175.21"/>
<text text-anchor="middle" x="916.5" y="-182.21" font-family="Helvetica,sans-Serif" font-size="10.00">add_env</text>
</a>
</g>
</g>
<!-- Node27&#45;&gt;Node28 -->
<g id="edge32" class="edge">
<title>Node27&#45;&gt;Node28</title>
<path fill="none" stroke="midnightblue" d="M811.1,-184.71C832.84,-184.71 857.4,-184.71 877.24,-184.71"/>
<polygon fill="midnightblue" stroke="midnightblue" points="877.43,-188.21 887.43,-184.71 877.43,-181.21 877.43,-188.21"/>
</g>
<!-- Node29 -->
<g id="node29" class="node">
<title>Node29</title>
<g id="a_node29"><a xlink:href="lst__env_8c.html#a9c375db3cbfe2e87b52bae7ee7472eae" target="_top" xlink:title=" ">
<polygon fill="none" stroke="black" points="1022,-156.21 1022,-175.21 1122,-175.21 1122,-156.21 1022,-156.21"/>
<text text-anchor="middle" x="1072" y="-163.21" font-family="Helvetica,sans-Serif" font-size="10.00">create_node_env</text>
</a>
</g>
</g>
<!-- Node28&#45;&gt;Node29 -->
<g id="edge33" class="edge">
<title>Node28&#45;&gt;Node29</title>
<path fill="none" stroke="midnightblue" d="M945.65,-181.22C964.2,-178.92 989.18,-175.83 1011.96,-173.01"/>
<polygon fill="midnightblue" stroke="midnightblue" points="1012.4,-176.49 1021.9,-171.78 1011.54,-169.54 1012.4,-176.49"/>
</g>
<!-- Node30 -->
<g id="node30" class="node">
<title>Node30</title>
<g id="a_node30"><a xlink:href="lst__env_8c.html#a5976d1b2a8159220749fac94a83d5c95" target="_top" xlink:title=" ">
<polygon fill="none" stroke="black" points="1026,-194.21 1026,-213.21 1118,-213.21 1118,-194.21 1026,-194.21"/>
<text text-anchor="middle" x="1072" y="-201.21" font-family="Helvetica,sans-Serif" font-size="10.00">push_back_env</text>
</a>
</g>
</g>
<!-- Node28&#45;&gt;Node30 -->
<g id="edge34" class="edge">
<title>Node28&#45;&gt;Node30</title>
<path fill="none" stroke="midnightblue" d="M945.65,-188.19C965.27,-190.62 992.08,-193.94 1015.87,-196.88"/>
<polygon fill="midnightblue" stroke="midnightblue" points="1015.5,-200.36 1025.85,-198.12 1016.36,-193.41 1015.5,-200.36"/>
</g>
<!-- Node31 -->
<g id="node31" class="node">
<title>Node31</title>
<g id="a_node31"><a xlink:href="env__utils_8c.html#ac7b3f84bb622bdf477616c5b0022f035" target="_top" xlink:title=" ">
<polygon fill="none" stroke="black" points="1158,-194.21 1158,-213.21 1237,-213.21 1237,-194.21 1158,-194.21"/>
<text text-anchor="middle" x="1197.5" y="-201.21" font-family="Helvetica,sans-Serif" font-size="10.00">get_last_env</text>
</a>
</g>
</g>
<!-- Node30&#45;&gt;Node31 -->
<g id="edge35" class="edge">
<title>Node30&#45;&gt;Node31</title>
<path fill="none" stroke="midnightblue" d="M1118.29,-203.71C1127.79,-203.71 1137.86,-203.71 1147.49,-203.71"/>
<polygon fill="midnightblue" stroke="midnightblue" points="1147.73,-207.21 1157.73,-203.71 1147.73,-200.21 1147.73,-207.21"/>
</g>
<!-- Node32&#45;&gt;Node19 -->
<g id="edge39" class="edge">
<title>Node32&#45;&gt;Node19</title>
<path fill="none" stroke="midnightblue" d="M505.13,-286.14C528.87,-292.9 561.8,-302.27 584.17,-308.64"/>
<polygon fill="midnightblue" stroke="midnightblue" points="583.35,-312.04 593.93,-311.41 585.27,-305.31 583.35,-312.04"/>
</g>
<!-- Node33 -->
<g id="node33" class="node">
<title>Node33</title>
<g id="a_node33"><a xlink:href="my__echo_8c.html#a7c657de7306d33ae5cdab2bf43f35ae1" target="_top" xlink:title=" ">
<polygon fill="none" stroke="black" points="555,-268.21 555,-287.21 665,-287.21 665,-268.21 555,-268.21"/>
<text text-anchor="middle" x="610" y="-275.21" font-family="Helvetica,sans-Serif" font-size="10.00">check_option_echo</text>
</a>
</g>
</g>
<!-- Node32&#45;&gt;Node33 -->
<g id="edge38" class="edge">
<title>Node32&#45;&gt;Node33</title>
<path fill="none" stroke="midnightblue" d="M505.13,-277.71C516.87,-277.71 530.87,-277.71 544.72,-277.71"/>
<polygon fill="midnightblue" stroke="midnightblue" points="544.74,-281.21 554.74,-277.71 544.74,-274.21 544.74,-281.21"/>
</g>
<!-- Node34&#45;&gt;Node7 -->
<g id="edge42" class="edge">
<title>Node34&#45;&gt;Node7</title>
<path fill="none" stroke="midnightblue" d="M486.68,-401.3C501.48,-413.63 528.79,-435.05 555,-448.71 558.97,-450.78 563.22,-452.71 567.53,-454.48"/>
<polygon fill="midnightblue" stroke="midnightblue" points="566.37,-457.78 576.96,-458.12 568.88,-451.25 566.37,-457.78"/>
</g>
<!-- Node34&#45;&gt;Node11 -->
<g id="edge43" class="edge">
<title>Node34&#45;&gt;Node11</title>
<path fill="none" stroke="midnightblue" d="M502.52,-399.4C520.59,-404.54 544.77,-411.42 565.52,-417.33"/>
<polygon fill="midnightblue" stroke="midnightblue" points="564.81,-420.77 575.39,-420.14 566.73,-414.03 564.81,-420.77"/>
</g>
<!-- Node34&#45;&gt;Node19 -->
<g id="edge44" class="edge">
<title>Node34&#45;&gt;Node19</title>
<path fill="none" stroke="midnightblue" d="M502.17,-382.07C507.96,-379.44 513.87,-376.3 519,-372.71 538.04,-359.34 535.48,-347.36 555,-334.71 563.82,-328.99 574.56,-324.75 584.14,-321.75"/>
<polygon fill="midnightblue" stroke="midnightblue" points="585.27,-325.07 593.93,-318.96 583.35,-318.33 585.27,-325.07"/>
</g>
<!-- Node35 -->
<g id="node35" class="node">
<title>Node35</title>
<g id="a_node35"><a xlink:href="exit_8c.html#a7e369b4894a31549c9b65f718e28823f" target="_top" xlink:title=" ">
<polygon fill="none" stroke="black" points="575.5,-382.21 575.5,-401.21 644.5,-401.21 644.5,-382.21 575.5,-382.21"/>
<text text-anchor="middle" x="610" y="-389.21" font-family="Helvetica,sans-Serif" font-size="10.00">check_exit</text>
</a>
</g>
</g>
<!-- Node34&#45;&gt;Node35 -->
<g id="edge41" class="edge">
<title>Node34&#45;&gt;Node35</title>
<path fill="none" stroke="midnightblue" d="M502.52,-391.71C520.5,-391.71 544.55,-391.71 565.23,-391.71"/>
<polygon fill="midnightblue" stroke="midnightblue" points="565.39,-395.21 575.39,-391.71 565.39,-388.21 565.39,-395.21"/>
</g>
<!-- Node38 -->
<g id="node38" class="node">
<title>Node38</title>
<g id="a_node38"><a xlink:href="unset_8c.html#a4b3bbc6cfa6ff293119825a11324fb9f" target="_top" xlink:title=" ">
<polygon fill="none" stroke="black" points="588,-344.21 588,-363.21 632,-363.21 632,-344.21 588,-344.21"/>
<text text-anchor="middle" x="610" y="-351.21" font-family="Helvetica,sans-Serif" font-size="10.00">unset</text>
</a>
</g>
</g>
<!-- Node37&#45;&gt;Node38 -->
<g id="edge47" class="edge">
<title>Node37&#45;&gt;Node38</title>
<path fill="none" stroke="midnightblue" d="M507.82,-353.71C529.07,-353.71 556.75,-353.71 577.78,-353.71"/>
<polygon fill="midnightblue" stroke="midnightblue" points="577.81,-357.21 587.81,-353.71 577.81,-350.21 577.81,-357.21"/>
</g>
<!-- Node40 -->
<g id="node40" class="node">
<title>Node40</title>
<g id="a_node40"><a xlink:href="env__utils_8c.html#a7cc35c974bce053dbba1c1ec1028f36b" target="_top" xlink:title=" ">
<polygon fill="none" stroke="black" points="436,-40.21 436,-59.21 513,-59.21 513,-40.21 436,-40.21"/>
<text text-anchor="middle" x="474.5" y="-47.21" font-family="Helvetica,sans-Serif" font-size="10.00">env_lst_size</text>
</a>
</g>
</g>
<!-- Node39&#45;&gt;Node40 -->
<g id="edge49" class="edge">
<title>Node39&#45;&gt;Node40</title>
<path fill="none" stroke="midnightblue" d="M377.05,-78.12C393.4,-73.3 413.41,-67.41 430.96,-62.24"/>
<polygon fill="midnightblue" stroke="midnightblue" points="432.35,-65.47 440.96,-59.29 430.38,-58.76 432.35,-65.47"/>
</g>
<!-- Node41 -->
<g id="node41" class="node">
<title>Node41</title>
<g id="a_node41"><a xlink:href="getenv_8c.html#a0250cce1862c20e31d0c0ece960bc3a0" target="_top" xlink:title=" ">
<polygon fill="none" stroke="black" points="443.5,-78.21 443.5,-97.21 505.5,-97.21 505.5,-78.21 443.5,-78.21"/>
<text text-anchor="middle" x="474.5" y="-85.21" font-family="Helvetica,sans-Serif" font-size="10.00">join_path</text>
</a>
</g>
</g>
<!-- Node39&#45;&gt;Node41 -->
<g id="edge50" class="edge">
<title>Node39&#45;&gt;Node41</title>
<path fill="none" stroke="midnightblue" d="M387.81,-87.71C402.42,-87.71 418.66,-87.71 433.04,-87.71"/>
<polygon fill="midnightblue" stroke="midnightblue" points="433.13,-91.21 443.13,-87.71 433.13,-84.21 433.13,-91.21"/>
</g>
<!-- Node42&#45;&gt;Node20 -->
<g id="edge54" class="edge">
<title>Node42&#45;&gt;Node20</title>
<path fill="none" stroke="midnightblue" d="M381.56,-163.99C424.52,-164.31 496,-164.85 547.36,-165.24"/>
<polygon fill="midnightblue" stroke="midnightblue" points="547.65,-168.74 557.68,-165.32 547.7,-161.74 547.65,-168.74"/>
</g>
<!-- Node42&#45;&gt;Node41 -->
<g id="edge53" class="edge">
<title>Node42&#45;&gt;Node41</title>
<path fill="none" stroke="midnightblue" d="M357.38,-154.07C373.73,-142.09 403.07,-121.41 430,-106.71 433.3,-104.9 436.81,-103.13 440.35,-101.45"/>
<polygon fill="midnightblue" stroke="midnightblue" points="442,-104.55 449.66,-97.22 439.11,-98.17 442,-104.55"/>
</g>
</g>
</svg>
