<?xml version="1.0" encoding="UTF-8" standalone="no"?>
<!DOCTYPE svg PUBLIC "-//W3C//DTD SVG 1.1//EN"
 "http://www.w3.org/Graphics/SVG/1.1/DTD/svg11.dtd">
<!-- Generated by graphviz version 2.43.0 (0)
 -->
<!-- Title: includes/minishell.h Pages: 1 -->
<!--zoomable 207 -->
<svg id="main" version="1.1" xmlns="http://www.w3.org/2000/svg" xmlns:xlink="http://www.w3.org/1999/xlink" xml:space="preserve" onload="init(evt)">
<style type="text/css"><![CDATA[
.edge:hover path { stroke: red; }
.edge:hover polygon { stroke: red; fill: red; }
]]></style>
<script type="text/javascript"><![CDATA[
var edges = document.getElementsByTagName('g');
if (edges && edges.length) {
  for (var i=0;i<edges.length;i++) {
    if (edges[i].id.substr(0,4)=='edge') {
      edges[i].setAttribute('class','edge');
    }
  }
}
]]></script>
        <defs>
                <circle id="rim" cx="0" cy="0" r="7"/>
                <circle id="rim2" cx="0" cy="0" r="3.5"/>
                <g id="zoomPlus">
                        <use xlink:href="#rim" fill="#404040">
                                <set attributeName="fill" to="#808080" begin="zoomplus.mouseover" end="zoomplus.mouseout"/>
                        </use>
                        <path d="M-4,0h8M0,-4v8" fill="none" stroke="white" stroke-width="1.5" pointer-events="none"/>
                </g>
                <g id="zoomMin">
                        <use xlink:href="#rim" fill="#404040">
                                <set attributeName="fill" to="#808080" begin="zoomminus.mouseover" end="zoomminus.mouseout"/>
                        </use>
                        <path d="M-4,0h8" fill="none" stroke="white" stroke-width="1.5" pointer-events="none"/>
                </g>
                <g id="dirArrow">
                        <path fill="none" stroke="white" stroke-width="1.5" d="M0,-3.0v7 M-2.5,-0.5L0,-3.0L2.5,-0.5"/>
                </g>
               <g id="resetDef">
                       <use xlink:href="#rim2" fill="#404040">
                               <set attributeName="fill" to="#808080" begin="reset.mouseover" end="reset.mouseout"/>
                       </use>
               </g>
        </defs>

<script type="text/javascript">
var viewWidth = 4510;
var viewHeight = 207;
var sectionId = 'dynsection-1';
</script>
<script xlink:href="svgpan.js"/>
<svg id="graph" class="graph">
<g id="viewport">
<title>includes/minishell.h</title>
<!-- Node1 -->
<g id="node1" class="node">
<title>Node1</title>
<g id="a_node1"><a xlink:title=" ">
<polygon fill="#bfbfbf" stroke="black" points="1566.5,-179.5 1566.5,-198.5 1680.5,-198.5 1680.5,-179.5 1566.5,-179.5"/>
<text text-anchor="middle" x="1623.5" y="-186.5" font-family="Helvetica,sans-Serif" font-size="10.00">includes/minishell.h</text>
</a>
</g>
</g>
<!-- Node2 -->
<g id="node2" class="node">
<title>Node2</title>
<g id="a_node2"><a xlink:href="cd_8c.html" target="_top" xlink:title=" ">
<polygon fill="none" stroke="black" points="0,-118 0,-137 87,-137 87,-118 0,-118"/>
<text text-anchor="middle" x="43.5" y="-125" font-family="Helvetica,sans-Serif" font-size="10.00">src/builtin/cd.c</text>
</a>
</g>
</g>
<!-- Node1&#45;&gt;Node2 -->
<g id="edge1" class="edge">
<title>Node1&#45;&gt;Node2</title>
<path fill="none" stroke="midnightblue" d="M1556.15,-188.18C1299.58,-188.55 383.25,-186.69 95.5,-143 86.88,-141.69 77.66,-139.42 69.42,-137.06"/>
<polygon fill="midnightblue" stroke="midnightblue" points="1556.45,-191.68 1566.44,-188.17 1556.43,-184.68 1556.45,-191.68"/>
</g>
<!-- Node3 -->
<g id="node3" class="node">
<title>Node3</title>
<g id="a_node3"><a xlink:href="env_8c.html" target="_top" xlink:title=" ">
<polygon fill="none" stroke="black" points="105,-118 105,-137 198,-137 198,-118 105,-118"/>
<text text-anchor="middle" x="151.5" y="-125" font-family="Helvetica,sans-Serif" font-size="10.00">src/builtin/env.c</text>
</a>
</g>
</g>
<!-- Node1&#45;&gt;Node3 -->
<g id="edge2" class="edge">
<title>Node1&#45;&gt;Node3</title>
<path fill="none" stroke="midnightblue" d="M1556.22,-187.88C1311.87,-187.11 471.82,-181.68 206.5,-143 197.41,-141.68 187.67,-139.4 178.95,-137.04"/>
<polygon fill="midnightblue" stroke="midnightblue" points="1556.36,-191.38 1566.37,-187.91 1556.38,-184.38 1556.36,-191.38"/>
</g>
<!-- Node4 -->
<g id="node4" class="node">
<title>Node4</title>
<g id="a_node4"><a xlink:href="export_8c.html" target="_top" xlink:title=" ">
<polygon fill="none" stroke="black" points="216,-118 216,-137 323,-137 323,-118 216,-118"/>
<text text-anchor="middle" x="269.5" y="-125" font-family="Helvetica,sans-Serif" font-size="10.00">src/builtin/export.c</text>
</a>
</g>
</g>
<!-- Node1&#45;&gt;Node4 -->
<g id="edge3" class="edge">
<title>Node1&#45;&gt;Node4</title>
<path fill="none" stroke="midnightblue" d="M1556.16,-187.35C1326.15,-184.88 572.57,-174.52 332.5,-143 322.26,-141.66 311.25,-139.41 301.33,-137.07"/>
<polygon fill="midnightblue" stroke="midnightblue" points="1556.36,-190.86 1566.39,-187.46 1556.43,-183.86 1556.36,-190.86"/>
</g>
<!-- Node5 -->
<g id="node5" class="node">
<title>Node5</title>
<g id="a_node5"><a xlink:href="my__echo_8c.html" target="_top" xlink:title=" ">
<polygon fill="none" stroke="black" points="341.5,-118 341.5,-137 461.5,-137 461.5,-118 341.5,-118"/>
<text text-anchor="middle" x="401.5" y="-125" font-family="Helvetica,sans-Serif" font-size="10.00">src/builtin/my_echo.c</text>
</a>
</g>
</g>
<!-- Node1&#45;&gt;Node5 -->
<g id="edge4" class="edge">
<title>Node1&#45;&gt;Node5</title>
<path fill="none" stroke="midnightblue" d="M1556.28,-186.86C1342.93,-183.02 682.73,-169.25 470.5,-143 459.32,-141.62 447.27,-139.36 436.41,-137.03"/>
<polygon fill="midnightblue" stroke="midnightblue" points="1556.33,-190.36 1566.39,-187.04 1556.46,-183.36 1556.33,-190.36"/>
</g>
<!-- Node6 -->
<g id="node6" class="node">
<title>Node6</title>
<g id="a_node6"><a xlink:href="pwd_8c.html" target="_top" xlink:title=" ">
<polygon fill="none" stroke="black" points="479.5,-118 479.5,-137 575.5,-137 575.5,-118 479.5,-118"/>
<text text-anchor="middle" x="527.5" y="-125" font-family="Helvetica,sans-Serif" font-size="10.00">src/builtin/pwd.c</text>
</a>
</g>
</g>
<!-- Node1&#45;&gt;Node6 -->
<g id="edge5" class="edge">
<title>Node1&#45;&gt;Node6</title>
<path fill="none" stroke="midnightblue" d="M1556.17,-186.89C1357.02,-183.33 773.02,-170.76 584.5,-143 575.21,-141.63 565.23,-139.37 556.26,-137.04"/>
<polygon fill="midnightblue" stroke="midnightblue" points="1556.14,-190.39 1566.2,-187.07 1556.27,-183.39 1556.14,-190.39"/>
</g>
<!-- Node7 -->
<g id="node7" class="node">
<title>Node7</title>
<g id="a_node7"><a xlink:href="unset_8c.html" target="_top" xlink:title=" ">
<polygon fill="none" stroke="black" points="594,-118 594,-137 697,-137 697,-118 594,-118"/>
<text text-anchor="middle" x="645.5" y="-125" font-family="Helvetica,sans-Serif" font-size="10.00">src/builtin/unset.c</text>
</a>
</g>
</g>
<!-- Node1&#45;&gt;Node7 -->
<g id="edge6" class="edge">
<title>Node1&#45;&gt;Node7</title>
<path fill="none" stroke="midnightblue" d="M1556.28,-186.35C1373.44,-181.59 869.81,-166.67 705.5,-143 695.85,-141.61 685.48,-139.38 676.12,-137.07"/>
<polygon fill="midnightblue" stroke="midnightblue" points="1556.22,-189.85 1566.3,-186.61 1556.4,-182.85 1556.22,-189.85"/>
</g>
<!-- Node8 -->
<g id="node8" class="node">
<title>Node8</title>
<g id="a_node8"><a xlink:href="env__utils_8c.html" target="_top" xlink:title=" ">
<polygon fill="none" stroke="black" points="715,-118 715,-137 822,-137 822,-118 715,-118"/>
<text text-anchor="middle" x="768.5" y="-125" font-family="Helvetica,sans-Serif" font-size="10.00">src/env/env_utils.c</text>
</a>
</g>
</g>
<!-- Node1&#45;&gt;Node8 -->
<g id="edge7" class="edge">
<title>Node1&#45;&gt;Node8</title>
<path fill="none" stroke="midnightblue" d="M1555.66,-188.01C1418.28,-187.17 1097.6,-180.9 831.5,-143 821.39,-141.56 810.51,-139.31 800.68,-137.01"/>
<polygon fill="midnightblue" stroke="midnightblue" points="1556,-191.51 1566.02,-188.06 1556.04,-184.51 1556,-191.51"/>
</g>
<!-- Node9 -->
<g id="node9" class="node">
<title>Node9</title>
<g id="a_node9"><a xlink:href="getenv_8c.html" target="_top" xlink:title=" ">
<polygon fill="none" stroke="black" points="840.5,-118 840.5,-137 936.5,-137 936.5,-118 840.5,-118"/>
<text text-anchor="middle" x="888.5" y="-125" font-family="Helvetica,sans-Serif" font-size="10.00">src/env/getenv.c</text>
</a>
</g>
</g>
<!-- Node1&#45;&gt;Node9 -->
<g id="edge8" class="edge">
<title>Node1&#45;&gt;Node9</title>
<path fill="none" stroke="midnightblue" d="M1556.08,-187.59C1433.69,-185.95 1167.1,-178.24 945.5,-143 936.42,-141.56 926.68,-139.34 917.87,-137.06"/>
<polygon fill="midnightblue" stroke="midnightblue" points="1556.37,-191.1 1566.41,-187.72 1556.45,-184.1 1556.37,-191.1"/>
</g>
<!-- Node10 -->
<g id="node10" class="node">
<title>Node10</title>
<g id="a_node10"><a xlink:href="lst__env_8c.html" target="_top" xlink:title=" ">
<polygon fill="none" stroke="black" points="954.5,-118 954.5,-137 1052.5,-137 1052.5,-118 954.5,-118"/>
<text text-anchor="middle" x="1003.5" y="-125" font-family="Helvetica,sans-Serif" font-size="10.00">src/env/lst_env.c</text>
</a>
</g>
</g>
<!-- Node1&#45;&gt;Node10 -->
<g id="edge9" class="edge">
<title>Node1&#45;&gt;Node10</title>
<path fill="none" stroke="midnightblue" d="M1556.27,-186.2C1450.4,-182.56 1238.65,-172.03 1061.5,-143 1052.38,-141.51 1042.6,-139.3 1033.71,-137.05"/>
<polygon fill="midnightblue" stroke="midnightblue" points="1556.38,-189.71 1566.49,-186.54 1556.61,-182.71 1556.38,-189.71"/>
</g>
<!-- Node11 -->
<g id="node11" class="node">
<title>Node11</title>
<g id="a_node11"><a xlink:href="lst__env__two_8c.html" target="_top" xlink:title=" ">
<polygon fill="none" stroke="black" points="1070.5,-118 1070.5,-137 1192.5,-137 1192.5,-118 1070.5,-118"/>
<text text-anchor="middle" x="1131.5" y="-125" font-family="Helvetica,sans-Serif" font-size="10.00">src/env/lst_env_two.c</text>
</a>
</g>
</g>
<!-- Node1&#45;&gt;Node11 -->
<g id="edge10" class="edge">
<title>Node1&#45;&gt;Node11</title>
<path fill="none" stroke="midnightblue" d="M1556.16,-182.87C1472.64,-176.03 1326.06,-162.49 1201.5,-143 1190.96,-141.35 1179.6,-139.17 1169.16,-137.01"/>
<polygon fill="midnightblue" stroke="midnightblue" points="1556.02,-186.37 1566.27,-183.69 1556.59,-179.39 1556.02,-186.37"/>
</g>
<!-- Node12 -->
<g id="node12" class="node">
<title>Node12</title>
<g id="a_node12"><a xlink:href="banner_8c.html" target="_top" xlink:title=" ">
<polygon fill="none" stroke="black" points="1211,-118 1211,-137 1336,-137 1336,-118 1211,-118"/>
<text text-anchor="middle" x="1273.5" y="-125" font-family="Helvetica,sans-Serif" font-size="10.00">src/execution/banner.c</text>
</a>
</g>
</g>
<!-- Node1&#45;&gt;Node12 -->
<g id="edge11" class="edge">
<title>Node1&#45;&gt;Node12</title>
<path fill="none" stroke="midnightblue" d="M1556.74,-177.93C1500.35,-169.24 1417.51,-156.07 1345.5,-143 1335.46,-141.18 1324.67,-139.08 1314.57,-137.05"/>
<polygon fill="midnightblue" stroke="midnightblue" points="1556.54,-181.44 1566.95,-179.5 1557.6,-174.52 1556.54,-181.44"/>
</g>
<!-- Node13 -->
<g id="node13" class="node">
<title>Node13</title>
<g id="a_node13"><a xlink:href="ctl_8c.html" target="_top" xlink:title=" ">
<polygon fill="none" stroke="black" points="1354.5,-118 1354.5,-137 1458.5,-137 1458.5,-118 1354.5,-118"/>
<text text-anchor="middle" x="1406.5" y="-125" font-family="Helvetica,sans-Serif" font-size="10.00">src/execution/ctl.c</text>
</a>
</g>
</g>
<!-- Node1&#45;&gt;Node13 -->
<g id="edge12" class="edge">
<title>Node1&#45;&gt;Node13</title>
<path fill="none" stroke="midnightblue" d="M1582.73,-176.82C1540.58,-165.26 1475.7,-147.47 1437.53,-137.01"/>
<polygon fill="midnightblue" stroke="midnightblue" points="1581.84,-180.21 1592.41,-179.48 1583.69,-173.46 1581.84,-180.21"/>
</g>
<!-- Node14 -->
<g id="node14" class="node">
<title>Node14</title>
<g id="a_node14"><a xlink:href="execution_8c.html" target="_top" xlink:title=" ">
<polygon fill="none" stroke="black" points="1476.5,-118 1476.5,-137 1616.5,-137 1616.5,-118 1476.5,-118"/>
<text text-anchor="middle" x="1546.5" y="-125" font-family="Helvetica,sans-Serif" font-size="10.00">src/execution/execution.c</text>
</a>
</g>
</g>
<!-- Node1&#45;&gt;Node14 -->
<g id="edge13" class="edge">
<title>Node1&#45;&gt;Node14</title>
<path fill="none" stroke="midnightblue" d="M1604.47,-173.29C1589.7,-161.88 1569.74,-146.46 1557.51,-137.01"/>
<polygon fill="midnightblue" stroke="midnightblue" points="1602.41,-176.13 1612.47,-179.48 1606.69,-170.59 1602.41,-176.13"/>
</g>
<!-- Node15 -->
<g id="node15" class="node">
<title>Node15</title>
<g id="a_node15"><a xlink:href="execution__node_8c.html" target="_top" xlink:title=" ">
<polygon fill="none" stroke="black" points="1635,-112.5 1635,-142.5 1766,-142.5 1766,-112.5 1635,-112.5"/>
<text text-anchor="start" x="1643" y="-130.5" font-family="Helvetica,sans-Serif" font-size="10.00">src/execution/execution</text>
<text text-anchor="middle" x="1700.5" y="-119.5" font-family="Helvetica,sans-Serif" font-size="10.00">_node.c</text>
</a>
</g>
</g>
<!-- Node1&#45;&gt;Node15 -->
<g id="edge14" class="edge">
<title>Node1&#45;&gt;Node15</title>
<path fill="none" stroke="midnightblue" d="M1642.66,-173.2C1654.8,-163.81 1670.41,-151.75 1682.35,-142.52"/>
<polygon fill="midnightblue" stroke="midnightblue" points="1640.31,-170.59 1634.53,-179.48 1644.59,-176.13 1640.31,-170.59"/>
</g>
<!-- Node16 -->
<g id="node16" class="node">
<title>Node16</title>
<g id="a_node16"><a xlink:href="heredoc_8c.html" target="_top" xlink:title=" ">
<polygon fill="none" stroke="black" points="1784,-118 1784,-137 1915,-137 1915,-118 1784,-118"/>
<text text-anchor="middle" x="1849.5" y="-125" font-family="Helvetica,sans-Serif" font-size="10.00">src/execution/heredoc.c</text>
</a>
</g>
</g>
<!-- Node1&#45;&gt;Node16 -->
<g id="edge15" class="edge">
<title>Node1&#45;&gt;Node16</title>
<path fill="none" stroke="midnightblue" d="M1665.68,-176.9C1709.57,-165.34 1777.35,-147.5 1817.18,-137.01"/>
<polygon fill="midnightblue" stroke="midnightblue" points="1664.66,-173.54 1655.88,-179.48 1666.44,-180.31 1664.66,-173.54"/>
</g>
<!-- Node17 -->
<g id="node17" class="node">
<title>Node17</title>
<g id="a_node17"><a xlink:href="lst__cmd_8c.html" target="_top" xlink:title=" ">
<polygon fill="none" stroke="black" points="1933,-118 1933,-137 2064,-137 2064,-118 1933,-118"/>
<text text-anchor="middle" x="1998.5" y="-125" font-family="Helvetica,sans-Serif" font-size="10.00">src/execution/lst_cmd.c</text>
</a>
</g>
</g>
<!-- Node1&#45;&gt;Node17 -->
<g id="edge16" class="edge">
<title>Node1&#45;&gt;Node17</title>
<path fill="none" stroke="midnightblue" d="M1690.81,-178.73C1751.7,-170.15 1843.76,-156.68 1923.5,-143 1934.09,-141.18 1945.48,-139.06 1956.12,-137.02"/>
<polygon fill="midnightblue" stroke="midnightblue" points="1689.98,-175.31 1680.57,-180.17 1690.96,-182.24 1689.98,-175.31"/>
</g>
<!-- Node18 -->
<g id="node18" class="node">
<title>Node18</title>
<g id="a_node18"><a xlink:href="lst__cmd2_8c.html" target="_top" xlink:title=" ">
<polygon fill="none" stroke="black" points="2082,-118 2082,-137 2219,-137 2219,-118 2082,-118"/>
<text text-anchor="middle" x="2150.5" y="-125" font-family="Helvetica,sans-Serif" font-size="10.00">src/execution/lst_cmd2.c</text>
</a>
</g>
</g>
<!-- Node1&#45;&gt;Node18 -->
<g id="edge17" class="edge">
<title>Node1&#45;&gt;Node18</title>
<path fill="none" stroke="midnightblue" d="M1690.86,-183.02C1778.87,-176.11 1937.66,-162.26 2072.5,-143 2084.09,-141.34 2096.58,-139.19 2108.1,-137.05"/>
<polygon fill="midnightblue" stroke="midnightblue" points="1690.44,-179.54 1680.74,-183.81 1690.98,-186.52 1690.44,-179.54"/>
</g>
<!-- Node19 -->
<g id="node19" class="node">
<title>Node19</title>
<g id="a_node19"><a xlink:href="lst__redir_8c.html" target="_top" xlink:title=" ">
<polygon fill="none" stroke="black" points="2237,-118 2237,-137 2368,-137 2368,-118 2237,-118"/>
<text text-anchor="middle" x="2302.5" y="-125" font-family="Helvetica,sans-Serif" font-size="10.00">src/execution/lst_redir.c</text>
</a>
</g>
</g>
<!-- Node1&#45;&gt;Node19 -->
<g id="edge18" class="edge">
<title>Node1&#45;&gt;Node19</title>
<path fill="none" stroke="midnightblue" d="M1690.9,-185.55C1802.77,-180.9 2033.69,-168.86 2227.5,-143 2239.07,-141.46 2251.55,-139.26 2262.94,-137.04"/>
<polygon fill="midnightblue" stroke="midnightblue" points="1690.62,-182.05 1680.77,-185.96 1690.91,-189.05 1690.62,-182.05"/>
</g>
<!-- Node20 -->
<g id="node20" class="node">
<title>Node20</title>
<g id="a_node20"><a xlink:href="lst__redir2_8c.html" target="_top" xlink:title=" ">
<polygon fill="none" stroke="black" points="2386.5,-118 2386.5,-137 2524.5,-137 2524.5,-118 2386.5,-118"/>
<text text-anchor="middle" x="2455.5" y="-125" font-family="Helvetica,sans-Serif" font-size="10.00">src/execution/lst_redir2.c</text>
</a>
</g>
</g>
<!-- Node1&#45;&gt;Node20 -->
<g id="edge19" class="edge">
<title>Node1&#45;&gt;Node20</title>
<path fill="none" stroke="midnightblue" d="M1691.23,-186.72C1823.43,-183.6 2124.92,-173.49 2376.5,-143 2388.82,-141.51 2402.12,-139.3 2414.23,-137.05"/>
<polygon fill="midnightblue" stroke="midnightblue" points="1690.78,-183.22 1680.86,-186.95 1690.94,-190.22 1690.78,-183.22"/>
</g>
<!-- Node21 -->
<g id="node21" class="node">
<title>Node21</title>
<g id="a_node21"><a xlink:href="multipipe_8c.html" target="_top" xlink:title=" ">
<polygon fill="none" stroke="black" points="2543,-118 2543,-137 2682,-137 2682,-118 2543,-118"/>
<text text-anchor="middle" x="2612.5" y="-125" font-family="Helvetica,sans-Serif" font-size="10.00">src/execution/multipipe.c</text>
</a>
</g>
</g>
<!-- Node1&#45;&gt;Node21 -->
<g id="edge20" class="edge">
<title>Node1&#45;&gt;Node21</title>
<path fill="none" stroke="midnightblue" d="M1690.74,-187.71C1841.87,-186.39 2219.78,-179.39 2533.5,-143 2545.97,-141.55 2559.43,-139.33 2571.65,-137.06"/>
<polygon fill="midnightblue" stroke="midnightblue" points="1690.65,-184.21 1680.68,-187.79 1690.71,-191.21 1690.65,-184.21"/>
</g>
<!-- Node22 -->
<g id="node22" class="node">
<title>Node22</title>
<g id="a_node22"><a xlink:href="redirection__multipipe_8c.html" target="_top" xlink:title=" ">
<polygon fill="none" stroke="black" points="2700,-112.5 2700,-142.5 2837,-142.5 2837,-112.5 2700,-112.5"/>
<text text-anchor="start" x="2708" y="-130.5" font-family="Helvetica,sans-Serif" font-size="10.00">src/execution/redirection</text>
<text text-anchor="middle" x="2768.5" y="-119.5" font-family="Helvetica,sans-Serif" font-size="10.00">_multipipe.c</text>
</a>
</g>
</g>
<!-- Node1&#45;&gt;Node22 -->
<g id="edge21" class="edge">
<title>Node1&#45;&gt;Node22</title>
<path fill="none" stroke="midnightblue" d="M1690.92,-188.46C1859.81,-188.9 2314.49,-185.66 2690.5,-143 2693.51,-142.66 2696.58,-142.27 2699.68,-141.84"/>
<polygon fill="midnightblue" stroke="midnightblue" points="1690.7,-184.96 1680.69,-188.43 1690.68,-191.96 1690.7,-184.96"/>
</g>
<!-- Node23 -->
<g id="node23" class="node">
<title>Node23</title>
<g id="a_node23"><a xlink:href="redirection__verification_8c.html" target="_top" xlink:title=" ">
<polygon fill="none" stroke="black" points="2855,-112.5 2855,-142.5 2992,-142.5 2992,-112.5 2855,-112.5"/>
<text text-anchor="start" x="2863" y="-130.5" font-family="Helvetica,sans-Serif" font-size="10.00">src/execution/redirection</text>
<text text-anchor="middle" x="2923.5" y="-119.5" font-family="Helvetica,sans-Serif" font-size="10.00">_verification.c</text>
</a>
</g>
</g>
<!-- Node1&#45;&gt;Node23 -->
<g id="edge22" class="edge">
<title>Node1&#45;&gt;Node23</title>
<path fill="none" stroke="midnightblue" d="M1690.91,-186.82C1912.78,-182.75 2618.97,-168.09 2845.5,-143 2848.51,-142.67 2851.58,-142.28 2854.68,-141.86"/>
<polygon fill="midnightblue" stroke="midnightblue" points="1690.65,-183.33 1680.72,-187.01 1690.78,-190.33 1690.65,-183.33"/>
</g>
<!-- Node24 -->
<g id="node24" class="node">
<title>Node24</title>
<g id="a_node24"><a xlink:href="signals_8c.html" target="_top" xlink:title=" ">
<polygon fill="none" stroke="black" points="3010,-118 3010,-137 3137,-137 3137,-118 3010,-118"/>
<text text-anchor="middle" x="3073.5" y="-125" font-family="Helvetica,sans-Serif" font-size="10.00">src/execution/signals.c</text>
</a>
</g>
</g>
<!-- Node1&#45;&gt;Node24 -->
<g id="edge23" class="edge">
<title>Node1&#45;&gt;Node24</title>
<path fill="none" stroke="midnightblue" d="M1690.84,-187.28C1930.76,-184.5 2743.21,-173.02 3001.5,-143 3013.15,-141.65 3025.73,-139.39 3037.06,-137.06"/>
<polygon fill="midnightblue" stroke="midnightblue" points="1690.48,-183.79 1680.52,-187.4 1690.56,-190.79 1690.48,-183.79"/>
</g>
<!-- Node25 -->
<g id="node25" class="node">
<title>Node25</title>
<g id="a_node25"><a xlink:href="main_8c.html" target="_top" xlink:title=" ">
<polygon fill="none" stroke="black" points="3170,-0.5 3170,-19.5 3237,-19.5 3237,-0.5 3170,-0.5"/>
<text text-anchor="middle" x="3203.5" y="-7.5" font-family="Helvetica,sans-Serif" font-size="10.00">src/main.c</text>
</a>
</g>
</g>
<!-- Node1&#45;&gt;Node25 -->
<g id="edge24" class="edge">
<title>Node1&#45;&gt;Node25</title>
<path fill="none" stroke="midnightblue" d="M1690.83,-188.01C1977.63,-187.82 3085.56,-184.37 3146.5,-143 3189.67,-113.7 3200.34,-44.26 3202.81,-19.75"/>
<polygon fill="midnightblue" stroke="midnightblue" points="1690.57,-184.51 1680.58,-188.02 1690.58,-191.51 1690.57,-184.51"/>
</g>
<!-- Node26 -->
<g id="node26" class="node">
<title>Node26</title>
<g id="a_node26"><a xlink:href="parsing_8h.html" target="_top" xlink:title=" ">
<polygon fill="none" stroke="black" points="3733,-118 3733,-137 3838,-137 3838,-118 3733,-118"/>
<text text-anchor="middle" x="3785.5" y="-125" font-family="Helvetica,sans-Serif" font-size="10.00">includes/parsing.h</text>
</a>
</g>
</g>
<!-- Node1&#45;&gt;Node26 -->
<g id="edge25" class="edge">
<title>Node1&#45;&gt;Node26</title>
<path fill="none" stroke="midnightblue" d="M1691.06,-186.14C2018.97,-177.12 3440.62,-137.99 3732.86,-129.95"/>
<polygon fill="midnightblue" stroke="midnightblue" points="1690.67,-182.65 1680.77,-186.42 1690.86,-189.65 1690.67,-182.65"/>
</g>
<!-- Node35 -->
<g id="node35" class="node">
<title>Node35</title>
<g id="a_node35"><a xlink:href="parsing__helpers_8h.html" target="_top" xlink:title=" ">
<polygon fill="none" stroke="black" points="4355.5,-56.5 4355.5,-75.5 4501.5,-75.5 4501.5,-56.5 4355.5,-56.5"/>
<text text-anchor="middle" x="4428.5" y="-63.5" font-family="Helvetica,sans-Serif" font-size="10.00">includes/parsing_helpers.h</text>
</a>
</g>
</g>
<!-- Node1&#45;&gt;Node35 -->
<g id="edge38" class="edge">
<title>Node1&#45;&gt;Node35</title>
<path fill="none" stroke="midnightblue" d="M1690.91,-187.64C2014.72,-185.73 3412.73,-175.74 3847.5,-143 4044.55,-128.16 4277.08,-92.08 4377.79,-75.54"/>
<polygon fill="midnightblue" stroke="midnightblue" points="1690.72,-184.14 1680.74,-187.69 1690.76,-191.14 1690.72,-184.14"/>
</g>
<!-- Node26&#45;&gt;Node25 -->
<g id="edge31" class="edge">
<title>Node26&#45;&gt;Node25</title>
<path fill="none" stroke="midnightblue" d="M3722.91,-124.81C3584.27,-120.52 3260.5,-107.23 3222.5,-76 3205.61,-62.12 3203.23,-34.09 3203.2,-19.81"/>
<polygon fill="midnightblue" stroke="midnightblue" points="3722.86,-128.31 3732.97,-125.12 3723.08,-121.31 3722.86,-128.31"/>
</g>
<!-- Node27 -->
<g id="node27" class="node">
<title>Node27</title>
<g id="a_node27"><a xlink:href="lexer_8c.html" target="_top" xlink:title=" ">
<polygon fill="none" stroke="black" points="3231.5,-56.5 3231.5,-75.5 3329.5,-75.5 3329.5,-56.5 3231.5,-56.5"/>
<text text-anchor="middle" x="3280.5" y="-63.5" font-family="Helvetica,sans-Serif" font-size="10.00">src/lexing/lexer.c</text>
</a>
</g>
</g>
<!-- Node26&#45;&gt;Node27 -->
<g id="edge26" class="edge">
<title>Node26&#45;&gt;Node27</title>
<path fill="none" stroke="midnightblue" d="M3722.73,-120.16C3636.32,-111.27 3475.9,-94.12 3339.5,-76 3336.32,-75.58 3333.04,-75.12 3329.74,-74.66"/>
<polygon fill="midnightblue" stroke="midnightblue" points="3722.59,-123.67 3732.9,-121.21 3723.31,-116.71 3722.59,-123.67"/>
</g>
<!-- Node28 -->
<g id="node28" class="node">
<title>Node28</title>
<g id="a_node28"><a xlink:href="lexer__utils_8c.html" target="_top" xlink:title=" ">
<polygon fill="none" stroke="black" points="3348,-56.5 3348,-75.5 3473,-75.5 3473,-56.5 3348,-56.5"/>
<text text-anchor="middle" x="3410.5" y="-63.5" font-family="Helvetica,sans-Serif" font-size="10.00">src/lexing/lexer_utils.c</text>
</a>
</g>
</g>
<!-- Node26&#45;&gt;Node28 -->
<g id="edge27" class="edge">
<title>Node26&#45;&gt;Node28</title>
<path fill="none" stroke="midnightblue" d="M3723.06,-116.59C3650.69,-105.11 3532.63,-86.38 3464.2,-75.52"/>
<polygon fill="midnightblue" stroke="midnightblue" points="3722.54,-120.05 3732.96,-118.16 3723.64,-113.14 3722.54,-120.05"/>
</g>
<!-- Node29 -->
<g id="node29" class="node">
<title>Node29</title>
<g id="a_node29"><a xlink:href="lexer__word_8c.html" target="_top" xlink:title=" ">
<polygon fill="none" stroke="black" points="3491.5,-56.5 3491.5,-75.5 3619.5,-75.5 3619.5,-56.5 3491.5,-56.5"/>
<text text-anchor="middle" x="3555.5" y="-63.5" font-family="Helvetica,sans-Serif" font-size="10.00">src/lexing/lexer_word.c</text>
</a>
</g>
</g>
<!-- Node26&#45;&gt;Node29 -->
<g id="edge28" class="edge">
<title>Node26&#45;&gt;Node29</title>
<path fill="none" stroke="midnightblue" d="M3742.86,-115.47C3698.2,-103.91 3629.01,-86.02 3588.39,-75.51"/>
<polygon fill="midnightblue" stroke="midnightblue" points="3741.99,-118.86 3752.55,-117.98 3743.74,-112.08 3741.99,-118.86"/>
</g>
<!-- Node30 -->
<g id="node30" class="node">
<title>Node30</title>
<g id="a_node30"><a xlink:href="string__builder_8c.html" target="_top" xlink:title=" ">
<polygon fill="none" stroke="black" points="3638,-56.5 3638,-75.5 3779,-75.5 3779,-56.5 3638,-56.5"/>
<text text-anchor="middle" x="3708.5" y="-63.5" font-family="Helvetica,sans-Serif" font-size="10.00">src/lexing/string_builder.c</text>
</a>
</g>
</g>
<!-- Node26&#45;&gt;Node30 -->
<g id="edge29" class="edge">
<title>Node26&#45;&gt;Node30</title>
<path fill="none" stroke="midnightblue" d="M3766.47,-111.79C3751.7,-100.38 3731.74,-84.96 3719.51,-75.51"/>
<polygon fill="midnightblue" stroke="midnightblue" points="3764.41,-114.63 3774.47,-117.98 3768.69,-109.09 3764.41,-114.63"/>
</g>
<!-- Node31 -->
<g id="node31" class="node">
<title>Node31</title>
<g id="a_node31"><a xlink:href="token__utils_8c.html" target="_top" xlink:title=" ">
<polygon fill="none" stroke="black" points="3797.5,-56.5 3797.5,-75.5 3925.5,-75.5 3925.5,-56.5 3797.5,-56.5"/>
<text text-anchor="middle" x="3861.5" y="-63.5" font-family="Helvetica,sans-Serif" font-size="10.00">src/lexing/token_utils.c</text>
</a>
</g>
</g>
<!-- Node26&#45;&gt;Node31 -->
<g id="edge30" class="edge">
<title>Node26&#45;&gt;Node31</title>
<path fill="none" stroke="midnightblue" d="M3804.28,-111.79C3818.86,-100.38 3838.56,-84.96 3850.63,-75.51"/>
<polygon fill="midnightblue" stroke="midnightblue" points="3802.11,-109.05 3796.39,-117.98 3806.42,-114.57 3802.11,-109.05"/>
</g>
<!-- Node32 -->
<g id="node32" class="node">
<title>Node32</title>
<g id="a_node32"><a xlink:href="argv__builder_8c.html" target="_top" xlink:title=" ">
<polygon fill="none" stroke="black" points="3944,-56.5 3944,-75.5 4085,-75.5 4085,-56.5 3944,-56.5"/>
<text text-anchor="middle" x="4014.5" y="-63.5" font-family="Helvetica,sans-Serif" font-size="10.00">src/parsing/argv_builder.c</text>
</a>
</g>
</g>
<!-- Node26&#45;&gt;Node32 -->
<g id="edge32" class="edge">
<title>Node26&#45;&gt;Node32</title>
<path fill="none" stroke="midnightblue" d="M3828.24,-115.4C3872.71,-103.84 3941.39,-86 3981.75,-75.51"/>
<polygon fill="midnightblue" stroke="midnightblue" points="3827.11,-112.07 3818.31,-117.98 3828.87,-118.85 3827.11,-112.07"/>
</g>
<!-- Node33 -->
<g id="node33" class="node">
<title>Node33</title>
<g id="a_node33"><a xlink:href="error_8c.html" target="_top" xlink:title=" ">
<polygon fill="none" stroke="black" points="4103.5,-56.5 4103.5,-75.5 4207.5,-75.5 4207.5,-56.5 4103.5,-56.5"/>
<text text-anchor="middle" x="4155.5" y="-63.5" font-family="Helvetica,sans-Serif" font-size="10.00">src/parsing/error.c</text>
</a>
</g>
</g>
<!-- Node26&#45;&gt;Node33 -->
<g id="edge33" class="edge">
<title>Node26&#45;&gt;Node33</title>
<path fill="none" stroke="midnightblue" d="M3848.38,-116.39C3920.19,-104.84 4036.37,-86.16 4103.36,-75.38"/>
<polygon fill="midnightblue" stroke="midnightblue" points="3847.44,-112.99 3838.12,-118.04 3848.55,-119.91 3847.44,-112.99"/>
</g>
<!-- Node34 -->
<g id="node34" class="node">
<title>Node34</title>
<g id="a_node34"><a xlink:href="parser_8c.html" target="_top" xlink:title=" ">
<polygon fill="none" stroke="black" points="4226,-56.5 4226,-75.5 4337,-75.5 4337,-56.5 4226,-56.5"/>
<text text-anchor="middle" x="4281.5" y="-63.5" font-family="Helvetica,sans-Serif" font-size="10.00">src/parsing/parser.c</text>
</a>
</g>
</g>
<!-- Node26&#45;&gt;Node34 -->
<g id="edge34" class="edge">
<title>Node26&#45;&gt;Node34</title>
<path fill="none" stroke="midnightblue" d="M3848.43,-119.54C3932.42,-110.17 4085.76,-92.71 4216.5,-76 4219.55,-75.61 4222.68,-75.2 4225.84,-74.78"/>
<polygon fill="midnightblue" stroke="midnightblue" points="3847.84,-116.09 3838.29,-120.68 3848.62,-123.05 3847.84,-116.09"/>
</g>
<!-- Node26&#45;&gt;Node35 -->
<g id="edge35" class="edge">
<title>Node26&#45;&gt;Node35</title>
<path fill="none" stroke="midnightblue" d="M3848.46,-120.75C3951.02,-111.8 4160.17,-93.71 4337.5,-76 4343.2,-75.43 4349.12,-74.82 4355.09,-74.19"/>
<polygon fill="midnightblue" stroke="midnightblue" points="3847.93,-117.28 3838.28,-121.64 3848.54,-124.26 3847.93,-117.28"/>
</g>
<!-- Node35&#45;&gt;Node25 -->
<g id="edge36" class="edge">
<title>Node35&#45;&gt;Node25</title>
<path fill="none" stroke="midnightblue" d="M4345.06,-55.95C3900.77,-23.26 3373.95,-13.54 3237.21,-11.47"/>
<polygon fill="midnightblue" stroke="midnightblue" points="4344.97,-59.45 4355.21,-56.7 4345.49,-52.47 4344.97,-59.45"/>
</g>
<!-- Node35&#45;&gt;Node26 -->
<g id="edge37" class="edge">
<title>Node35&#45;&gt;Node26</title>
<path fill="none" stroke="midnightblue" d="M4350.24,-76.52C4157.81,-95.64 3937.27,-114.52 3838.19,-122.52"/>
<polygon fill="midnightblue" stroke="midnightblue" points="4350.64,-80 4360.25,-75.52 4349.95,-73.03 4350.64,-80"/>
</g>
</g>
</svg>
        <g id="navigator" transform="translate(0 0)" fill="#404254">
                <rect fill="#f2f5e9" fill-opacity="0.5" stroke="#606060" stroke-width=".5" x="0" y="0" width="60" height="60"/>
                <use id="zoomplus" xlink:href="#zoomPlus" x="17" y="9" onmousedown="handleZoom(evt,'in')"/>
                <use id="zoomminus" xlink:href="#zoomMin" x="42" y="9" onmousedown="handleZoom(evt,'out')"/>
                <use id="reset" xlink:href="#resetDef" x="30" y="36" onmousedown="handleReset()"/>
                <g id="arrowUp" xlink:href="#dirArrow" transform="translate(30 24)" onmousedown="handlePan(0,-1)">
                  <use xlink:href="#rim" fill="#404040">
                        <set attributeName="fill" to="#808080" begin="arrowUp.mouseover" end="arrowUp.mouseout"/>
                  </use>
                  <path fill="none" stroke="white" stroke-width="1.5" d="M0,-3.0v7 M-2.5,-0.5L0,-3.0L2.5,-0.5"/>
                </g>
                <g id="arrowRight" xlink:href="#dirArrow" transform="rotate(90) translate(36 -43)" onmousedown="handlePan(1,0)">
                  <use xlink:href="#rim" fill="#404040">
                        <set attributeName="fill" to="#808080" begin="arrowRight.mouseover" end="arrowRight.mouseout"/>
                  </use>
                  <path fill="none" stroke="white" stroke-width="1.5" d="M0,-3.0v7 M-2.5,-0.5L0,-3.0L2.5,-0.5"/>
                </g>
                <g id="arrowDown" xlink:href="#dirArrow" transform="rotate(180) translate(-30 -48)" onmousedown="handlePan(0,1)">
                  <use xlink:href="#rim" fill="#404040">
                        <set attributeName="fill" to="#808080" begin="arrowDown.mouseover" end="arrowDown.mouseout"/>
                  </use>
                  <path fill="none" stroke="white" stroke-width="1.5" d="M0,-3.0v7 M-2.5,-0.5L0,-3.0L2.5,-0.5"/>
                </g>
                <g id="arrowLeft" xlink:href="#dirArrow" transform="rotate(270) translate(-36 17)" onmousedown="handlePan(-1,0)">
                  <use xlink:href="#rim" fill="#404040">
                        <set attributeName="fill" to="#808080" begin="arrowLeft.mouseover" end="arrowLeft.mouseout"/>
                  </use>
                  <path fill="none" stroke="white" stroke-width="1.5" d="M0,-3.0v7 M-2.5,-0.5L0,-3.0L2.5,-0.5"/>
                </g>
        </g>
        <svg viewBox="0 0 15 15" width="100%" height="30px" preserveAspectRatio="xMaxYMin meet">
         <g id="arrow_out" transform="scale(0.3 0.3)">
          <a xlink:href="minishell_8h__dep__incl_org.svg" target="_base">
           <rect id="button" ry="5" rx="5" y="6" x="6" height="38" width="38"
                fill="#f2f5e9" fill-opacity="0.5" stroke="#606060" stroke-width="1.0"/>
           <path id="arrow"
             d="M 11.500037,31.436501 C 11.940474,20.09759 22.043105,11.32322 32.158766,21.979434 L 37.068811,17.246167 C 37.068811,17.246167 37.088388,32 37.088388,32 L 22.160133,31.978069 C 22.160133,31.978069 26.997745,27.140456 26.997745,27.140456 C 18.528582,18.264221 13.291696,25.230495 11.500037,31.436501 z"
             style="fill:#404040;"/>
          </a>
         </g>
        </svg>
</svg>
