<?xml version="1.0" encoding="UTF-8" standalone="no"?>
<!DOCTYPE svg PUBLIC "-//W3C//DTD SVG 1.1//EN"
 "http://www.w3.org/Graphics/SVG/1.1/DTD/svg11.dtd">
<!-- Generated by graphviz version 2.43.0 (0)
 -->
<!-- Title: ft_close_fd Pages: 1 -->
<!--zoomable 861 -->
<svg id="main" version="1.1" xmlns="http://www.w3.org/2000/svg" xmlns:xlink="http://www.w3.org/1999/xlink" xml:space="preserve" onload="init(evt)">
<style type="text/css"><![CDATA[
.edge:hover path { stroke: red; }
.edge:hover polygon { stroke: red; fill: red; }
]]></style>
<script type="text/javascript"><![CDATA[
var edges = document.getElementsByTagName('g');
if (edges && edges.length) {
  for (var i=0;i<edges.length;i++) {
    if (edges[i].id.substr(0,4)=='edge') {
      edges[i].setAttribute('class','edge');
    }
  }
}
]]></script>
        <defs>
                <circle id="rim" cx="0" cy="0" r="7"/>
                <circle id="rim2" cx="0" cy="0" r="3.5"/>
                <g id="zoomPlus">
                        <use xlink:href="#rim" fill="#404040">
                                <set attributeName="fill" to="#808080" begin="zoomplus.mouseover" end="zoomplus.mouseout"/>
                        </use>
                        <path d="M-4,0h8M0,-4v8" fill="none" stroke="white" stroke-width="1.5" pointer-events="none"/>
                </g>
                <g id="zoomMin">
                        <use xlink:href="#rim" fill="#404040">
                                <set attributeName="fill" to="#808080" begin="zoomminus.mouseover" end="zoomminus.mouseout"/>
                        </use>
                        <path d="M-4,0h8" fill="none" stroke="white" stroke-width="1.5" pointer-events="none"/>
                </g>
                <g id="dirArrow">
                        <path fill="none" stroke="white" stroke-width="1.5" d="M0,-3.0v7 M-2.5,-0.5L0,-3.0L2.5,-0.5"/>
                </g>
               <g id="resetDef">
                       <use xlink:href="#rim2" fill="#404040">
                               <set attributeName="fill" to="#808080" begin="reset.mouseover" end="reset.mouseout"/>
                       </use>
               </g>
        </defs>

<script type="text/javascript">
var viewWidth = 1789;
var viewHeight = 861;
var sectionId = 'dynsection-39';
</script>
<script xlink:href="svgpan.js"/>
<svg id="graph" class="graph">
<g id="viewport">
<title>ft_close_fd</title>
<!-- Node1 -->
<g id="node1" class="node">
<title>Node1</title>
<g id="a_node1"><a xlink:title="as fd are all setup to &#45;1 at the beginning we check if they are open before trying to close we avoid ...">
<polygon fill="#bfbfbf" stroke="black" points="1712,-503.5 1712,-522.5 1781,-522.5 1781,-503.5 1712,-503.5"/>
<text text-anchor="middle" x="1746.5" y="-510.5" font-family="Helvetica,sans-Serif" font-size="10.00">ft_close_fd</text>
</a>
</g>
</g>
<!-- Node2 -->
<g id="node2" class="node">
<title>Node2</title>
<g id="a_node2"><a xlink:href="heredoc_8c.html#a98f0cdaa70ea9d777053df568b66e32a" target="_top" xlink:title="origin of creation ; the norm what it is doing ? juste close the fd the right way if we encounter the...">
<polygon fill="none" stroke="black" points="799,-446.5 799,-465.5 912,-465.5 912,-446.5 799,-446.5"/>
<text text-anchor="middle" x="855.5" y="-453.5" font-family="Helvetica,sans-Serif" font-size="10.00">child_work_heredoc</text>
</a>
</g>
</g>
<!-- Node1&#45;&gt;Node2 -->
<g id="edge1" class="edge">
<title>Node1&#45;&gt;Node2</title>
<path fill="none" stroke="midnightblue" d="M1735.13,-531.27C1723.46,-549.77 1702.61,-577.27 1676,-589 1639.8,-604.95 1626.5,-591.16 1587,-589 1432.09,-580.54 1392.75,-578.16 1240,-551 1172.04,-538.92 973.93,-487.12 892.3,-465.52"/>
<polygon fill="midnightblue" stroke="midnightblue" points="1738.22,-532.92 1740.38,-522.55 1732.22,-529.31 1738.22,-532.92"/>
</g>
<!-- Node3 -->
<g id="node3" class="node">
<title>Node3</title>
<g id="a_node3"><a xlink:href="heredoc_8c.html#a0b4a5d07e8877b06b8977b47a6d51930" target="_top" xlink:title="it&#39;s where we open the heredoc and start writing inside our pipe each time we check if it&#39;s the word ...">
<polygon fill="none" stroke="black" points="673.5,-503.5 673.5,-522.5 759.5,-522.5 759.5,-503.5 673.5,-503.5"/>
<text text-anchor="middle" x="716.5" y="-510.5" font-family="Helvetica,sans-Serif" font-size="10.00">heredoc_input</text>
</a>
</g>
</g>
<!-- Node1&#45;&gt;Node3 -->
<g id="edge39" class="edge">
<title>Node1&#45;&gt;Node3</title>
<path fill="none" stroke="midnightblue" d="M1737.76,-531.91C1727.43,-554.32 1706.79,-590.57 1676,-606 1640.64,-623.72 1626.55,-606.43 1587,-606 1236.72,-602.22 1123.53,-720.89 799,-589 781.53,-581.9 743.38,-541.52 726.2,-522.68"/>
<polygon fill="midnightblue" stroke="midnightblue" points="1740.99,-533.27 1741.78,-522.71 1734.57,-530.47 1740.99,-533.27"/>
</g>
<!-- Node5 -->
<g id="node5" class="node">
<title>Node5</title>
<g id="a_node5"><a xlink:href="multipipe_8c.html#aa4f1c217eeb689ecbc622baecd2c5dec" target="_top" xlink:title="management of the multipipe (= name when we have at least one pipe) First step is to manage the hered...">
<polygon fill="none" stroke="black" points="178,-332.5 178,-351.5 267,-351.5 267,-332.5 178,-332.5"/>
<text text-anchor="middle" x="222.5" y="-339.5" font-family="Helvetica,sans-Serif" font-size="10.00">multipipe_cmd</text>
</a>
</g>
</g>
<!-- Node1&#45;&gt;Node5 -->
<g id="edge41" class="edge">
<title>Node1&#45;&gt;Node5</title>
<path fill="none" stroke="midnightblue" d="M1744.7,-493C1739.74,-398.36 1705.41,0 1479,0 1479,0 1479,0 1000.5,0 668.09,0 593.66,-113.33 309,-285 283.03,-300.66 253.85,-320.66 237.17,-332.33"/>
<polygon fill="midnightblue" stroke="midnightblue" points="1741.21,-493.39 1745.18,-503.21 1748.2,-493.06 1741.21,-493.39"/>
</g>
<!-- Node9 -->
<g id="node9" class="node">
<title>Node9</title>
<g id="a_node9"><a xlink:href="redirection__verification_8c.html#a5b79f4b52353f6558575b5da0dd28fd4" target="_top" xlink:title="we close the fd_in and fd_out in case of a fail this function is able to manage the error coming from...">
<polygon fill="none" stroke="black" points="1588.5,-750.5 1588.5,-769.5 1674.5,-769.5 1674.5,-750.5 1588.5,-750.5"/>
<text text-anchor="middle" x="1631.5" y="-757.5" font-family="Helvetica,sans-Serif" font-size="10.00">close_fd_error</text>
</a>
</g>
</g>
<!-- Node1&#45;&gt;Node9 -->
<g id="edge9" class="edge">
<title>Node1&#45;&gt;Node9</title>
<path fill="none" stroke="midnightblue" d="M1744.22,-532.66C1740.56,-574.55 1726.72,-673.83 1676,-736 1671.09,-742.01 1664.26,-746.77 1657.46,-750.4"/>
<polygon fill="midnightblue" stroke="midnightblue" points="1747.71,-532.9 1745,-522.66 1740.74,-532.36 1747.71,-532.9"/>
</g>
<!-- Node10 -->
<g id="node10" class="node">
<title>Node10</title>
<g id="a_node10"><a xlink:href="redirection__verification_8c.html#a95641b4885e9c0b07b477846c96c0d2f" target="_top" xlink:title="we have to check if the file exist then if we are allowed to open it in any error case we write a mes...">
<polygon fill="none" stroke="black" points="1429,-750.5 1429,-769.5 1527,-769.5 1527,-750.5 1429,-750.5"/>
<text text-anchor="middle" x="1478" y="-757.5" font-family="Helvetica,sans-Serif" font-size="10.00">infile_redirection</text>
</a>
</g>
</g>
<!-- Node1&#45;&gt;Node10 -->
<g id="edge40" class="edge">
<title>Node1&#45;&gt;Node10</title>
<path fill="none" stroke="midnightblue" d="M1743.68,-532.81C1739.17,-570.41 1724.09,-652.46 1676,-698 1654.13,-718.71 1576.12,-738.94 1525.08,-750.4"/>
<polygon fill="midnightblue" stroke="midnightblue" points="1747.18,-532.97 1744.77,-522.65 1740.22,-532.22 1747.18,-532.97"/>
</g>
<!-- Node11 -->
<g id="node11" class="node">
<title>Node11</title>
<g id="a_node11"><a xlink:href="redirection__verification_8c.html#af9b05287627b76434ceb0070c5cb2c8a" target="_top" xlink:title="we go through each node of the redirection and we have special treatment depending of the following c...">
<polygon fill="none" stroke="black" points="1240,-788.5 1240,-807.5 1369,-807.5 1369,-788.5 1240,-788.5"/>
<text text-anchor="middle" x="1304.5" y="-795.5" font-family="Helvetica,sans-Serif" font-size="10.00">redirection_verification</text>
</a>
</g>
</g>
<!-- Node1&#45;&gt;Node11 -->
<g id="edge68" class="edge">
<title>Node1&#45;&gt;Node11</title>
<path fill="none" stroke="midnightblue" d="M1743.83,-532.67C1738.32,-592.72 1718.52,-771.77 1676,-808 1573.39,-895.43 1390.59,-833.06 1327.57,-807.52"/>
<polygon fill="midnightblue" stroke="midnightblue" points="1747.33,-532.89 1744.72,-522.62 1740.36,-532.27 1747.33,-532.89"/>
</g>
<!-- Node12 -->
<g id="node12" class="node">
<title>Node12</title>
<g id="a_node12"><a xlink:href="redirection__verification_8c.html#ac61790fa82f2a9b6b904cd92135b6acb" target="_top" xlink:title="outfile and append are open with the right flags in a case of an error we write a message with the na...">
<polygon fill="none" stroke="black" points="1405,-788.5 1405,-807.5 1551,-807.5 1551,-788.5 1405,-788.5"/>
<text text-anchor="middle" x="1478" y="-795.5" font-family="Helvetica,sans-Serif" font-size="10.00">outfile_append_redirection</text>
</a>
</g>
</g>
<!-- Node1&#45;&gt;Node12 -->
<g id="edge43" class="edge">
<title>Node1&#45;&gt;Node12</title>
<path fill="none" stroke="midnightblue" d="M1743.27,-532.51C1736.48,-588.28 1714.15,-746.49 1676,-779 1635.33,-813.65 1571.38,-813.22 1527.44,-807.54"/>
<polygon fill="midnightblue" stroke="midnightblue" points="1746.76,-532.85 1744.45,-522.51 1739.8,-532.03 1746.76,-532.85"/>
</g>
<!-- Node13 -->
<g id="node13" class="node">
<title>Node13</title>
<g id="a_node13"><a xlink:href="heredoc_8c.html#a3e1410633d8c1ad5b1441509a020b0d4" target="_top" xlink:title="allow us to close the file descriptors when we have fork() again the process">
<polygon fill="none" stroke="black" points="1091,-427.5 1091,-446.5 1204,-446.5 1204,-427.5 1091,-427.5"/>
<text text-anchor="middle" x="1147.5" y="-434.5" font-family="Helvetica,sans-Serif" font-size="10.00">close_fd_heredocs2</text>
</a>
</g>
</g>
<!-- Node1&#45;&gt;Node13 -->
<g id="edge16" class="edge">
<title>Node1&#45;&gt;Node13</title>
<path fill="none" stroke="midnightblue" d="M1727.37,-496.68C1714.15,-485.85 1695.25,-472.48 1676,-466 1511.71,-410.69 1302.49,-421.24 1204.22,-430.55"/>
<polygon fill="midnightblue" stroke="midnightblue" points="1725.3,-499.51 1735.18,-503.33 1729.84,-494.18 1725.3,-499.51"/>
</g>
<!-- Node14 -->
<g id="node14" class="node">
<title>Node14</title>
<g id="a_node14"><a xlink:href="heredoc_8c.html#aa11261ffe1d93fd87488514776e2df34" target="_top" xlink:title=" ">
<polygon fill="none" stroke="black" points="950,-408.5 950,-427.5 1053,-427.5 1053,-408.5 950,-408.5"/>
<text text-anchor="middle" x="1001.5" y="-415.5" font-family="Helvetica,sans-Serif" font-size="10.00">read_gnl_heredoc</text>
</a>
</g>
</g>
<!-- Node1&#45;&gt;Node14 -->
<g id="edge67" class="edge">
<title>Node1&#45;&gt;Node14</title>
<path fill="none" stroke="midnightblue" d="M1732.9,-494.87C1720.33,-478.07 1699.52,-453.55 1676,-439 1598.27,-390.93 1570.4,-380 1479,-380 1479,-380 1479,-380 1303.5,-380 1212.77,-380 1107.87,-397.2 1048.94,-408.46"/>
<polygon fill="midnightblue" stroke="midnightblue" points="1730.3,-497.25 1739.01,-503.29 1735.97,-493.14 1730.3,-497.25"/>
</g>
<!-- Node16 -->
<g id="node16" class="node">
<title>Node16</title>
<g id="a_node16"><a xlink:href="redirection__multipipe_8c.html#af7980d82e7ea7c0c84519ef3e3011b98" target="_top" xlink:title=" ">
<polygon fill="none" stroke="black" points="1100.5,-275.5 1100.5,-294.5 1194.5,-294.5 1194.5,-275.5 1100.5,-275.5"/>
<text text-anchor="middle" x="1147.5" y="-282.5" font-family="Helvetica,sans-Serif" font-size="10.00">close_fd_parent</text>
</a>
</g>
</g>
<!-- Node1&#45;&gt;Node16 -->
<g id="edge22" class="edge">
<title>Node1&#45;&gt;Node16</title>
<path fill="none" stroke="midnightblue" d="M1744.63,-493.22C1741.75,-454.34 1729.35,-368.25 1676,-328 1601,-271.41 1309.21,-277.79 1194.85,-282.65"/>
<polygon fill="midnightblue" stroke="midnightblue" points="1741.14,-493.49 1745.23,-503.27 1748.13,-493.07 1741.14,-493.49"/>
</g>
<!-- Node18 -->
<g id="node18" class="node">
<title>Node18</title>
<g id="a_node18"><a xlink:href="redirection__multipipe_8c.html#a3a0d7f695cf53df46301e14ffab77638" target="_top" xlink:title=" ">
<polygon fill="none" stroke="black" points="1587,-560.5 1587,-579.5 1676,-579.5 1676,-560.5 1587,-560.5"/>
<text text-anchor="middle" x="1631.5" y="-567.5" font-family="Helvetica,sans-Serif" font-size="10.00">close_previous</text>
</a>
</g>
</g>
<!-- Node1&#45;&gt;Node18 -->
<g id="edge25" class="edge">
<title>Node1&#45;&gt;Node18</title>
<path fill="none" stroke="midnightblue" d="M1717.39,-527.18C1696.84,-537.55 1669.5,-551.33 1651.48,-560.43"/>
<polygon fill="midnightblue" stroke="midnightblue" points="1719.23,-530.17 1726.59,-522.54 1716.08,-523.92 1719.23,-530.17"/>
</g>
<!-- Node19 -->
<g id="node19" class="node">
<title>Node19</title>
<g id="a_node19"><a xlink:href="redirection__multipipe_8c.html#a221f4b2814fe6c3ab1b3ad1fd7f24fb2" target="_top" xlink:title=" ">
<polygon fill="none" stroke="black" points="1408.5,-522.5 1408.5,-541.5 1547.5,-541.5 1547.5,-522.5 1408.5,-522.5"/>
<text text-anchor="middle" x="1478" y="-529.5" font-family="Helvetica,sans-Serif" font-size="10.00">command_redirect_part2</text>
</a>
</g>
</g>
<!-- Node1&#45;&gt;Node19 -->
<g id="edge36" class="edge">
<title>Node1&#45;&gt;Node19</title>
<path fill="none" stroke="midnightblue" d="M1701.6,-516.13C1659.74,-519.11 1596.07,-523.65 1547.53,-527.11"/>
<polygon fill="midnightblue" stroke="midnightblue" points="1702.02,-519.61 1711.75,-515.41 1701.52,-512.63 1702.02,-519.61"/>
</g>
<!-- Node20 -->
<g id="node20" class="node">
<title>Node20</title>
<g id="a_node20"><a xlink:href="redirection__multipipe_8c.html#a26c96266f1645047a9bdd9af22de94a7" target="_top" xlink:title=" ">
<polygon fill="none" stroke="black" points="1250.5,-522.5 1250.5,-541.5 1358.5,-541.5 1358.5,-522.5 1250.5,-522.5"/>
<text text-anchor="middle" x="1304.5" y="-529.5" font-family="Helvetica,sans-Serif" font-size="10.00">command_redirect</text>
</a>
</g>
</g>
<!-- Node1&#45;&gt;Node20 -->
<g id="edge35" class="edge">
<title>Node1&#45;&gt;Node20</title>
<path fill="none" stroke="midnightblue" d="M1724.15,-497.66C1710.97,-489.16 1693.32,-479.43 1676,-475 1616.68,-459.84 1412.23,-492.27 1405,-494 1376.76,-500.74 1345.74,-513.51 1325.96,-522.37"/>
<polygon fill="midnightblue" stroke="midnightblue" points="1722.25,-500.6 1732.5,-503.27 1726.16,-494.79 1722.25,-500.6"/>
</g>
<!-- Node22 -->
<g id="node22" class="node">
<title>Node22</title>
<g id="a_node22"><a xlink:href="execution_8c.html#aa6f3ac2f0c10538c125eafcb587fd021" target="_top" xlink:title="in this function we do the fork to create a child process we do the redirection if we need to">
<polygon fill="none" stroke="black" points="504.5,-446.5 504.5,-465.5 632.5,-465.5 632.5,-446.5 504.5,-446.5"/>
<text text-anchor="middle" x="568.5" y="-453.5" font-family="Helvetica,sans-Serif" font-size="10.00">one_command_execve</text>
</a>
</g>
</g>
<!-- Node1&#45;&gt;Node22 -->
<g id="edge42" class="edge">
<title>Node1&#45;&gt;Node22</title>
<path fill="none" stroke="midnightblue" d="M1738.45,-531.85C1728.33,-556.38 1707.38,-598.96 1676,-623 1603.24,-678.75 1570.66,-684 1479,-684 1479,-684 1479,-684 854.5,-684 765.98,-684 738.39,-665.2 670,-609 656.8,-598.15 594.89,-497.61 575.39,-465.68"/>
<polygon fill="midnightblue" stroke="midnightblue" points="1741.71,-533.13 1742.13,-522.54 1735.2,-530.56 1741.71,-533.13"/>
</g>
<!-- Node23 -->
<g id="node23" class="node">
<title>Node23</title>
<g id="a_node23"><a xlink:href="multipipe_8c.html#a9b21b82386f20636501d279a66b7260d" target="_top" xlink:title="in the case of an error in the redirection, we have a case where the here_doc opened in a previous si...">
<polygon fill="none" stroke="black" points="518,-332.5 518,-351.5 619,-351.5 619,-332.5 518,-332.5"/>
<text text-anchor="middle" x="568.5" y="-339.5" font-family="Helvetica,sans-Serif" font-size="10.00">close_redir_temp</text>
</a>
</g>
</g>
<!-- Node1&#45;&gt;Node23 -->
<g id="edge32" class="edge">
<title>Node1&#45;&gt;Node23</title>
<path fill="none" stroke="midnightblue" d="M1740.15,-493.83C1731.42,-466.26 1711.46,-415.79 1676,-389 1604.18,-334.74 1569.01,-342 1479,-342 1479,-342 1479,-342 1146.5,-342 951.41,-342 719.22,-342 619.28,-342"/>
<polygon fill="midnightblue" stroke="midnightblue" points="1736.82,-494.91 1743.03,-503.49 1743.52,-492.9 1736.82,-494.91"/>
</g>
<!-- Node24 -->
<g id="node24" class="node">
<title>Node24</title>
<g id="a_node24"><a xlink:href="redirection__multipipe_8c.html#a5b749bc2b4088984c0efe1c479ae6ec8" target="_top" xlink:title=" ">
<polygon fill="none" stroke="black" points="1591.5,-484.5 1591.5,-503.5 1671.5,-503.5 1671.5,-484.5 1591.5,-484.5"/>
<text text-anchor="middle" x="1631.5" y="-491.5" font-family="Helvetica,sans-Serif" font-size="10.00">fail_previous</text>
</a>
</g>
</g>
<!-- Node1&#45;&gt;Node24 -->
<g id="edge37" class="edge">
<title>Node1&#45;&gt;Node24</title>
<path fill="none" stroke="midnightblue" d="M1701.83,-505.66C1691.92,-503.99 1681.45,-502.23 1671.74,-500.6"/>
<polygon fill="midnightblue" stroke="midnightblue" points="1701.46,-509.14 1711.9,-507.35 1702.62,-502.24 1701.46,-509.14"/>
</g>
<!-- Node25 -->
<g id="node25" class="node">
<title>Node25</title>
<g id="a_node25"><a xlink:href="lst__cmd2_8c.html#a8e2b63759f149b547e0d07f210ede9b3" target="_top" xlink:title=" ">
<polygon fill="none" stroke="black" points="1274,-218.5 1274,-237.5 1335,-237.5 1335,-218.5 1274,-218.5"/>
<text text-anchor="middle" x="1304.5" y="-225.5" font-family="Helvetica,sans-Serif" font-size="10.00">pop_cmd</text>
</a>
</g>
</g>
<!-- Node1&#45;&gt;Node25 -->
<g id="edge44" class="edge">
<title>Node1&#45;&gt;Node25</title>
<path fill="none" stroke="midnightblue" d="M1745.78,-493.02C1745.23,-448.92 1737.23,-342.95 1676,-290 1629.88,-250.11 1465.07,-257.5 1405,-247 1381.44,-242.88 1354.83,-237.78 1335.06,-233.9"/>
<polygon fill="midnightblue" stroke="midnightblue" points="1742.28,-493.06 1745.79,-503.06 1749.28,-493.06 1742.28,-493.06"/>
</g>
<!-- Node35 -->
<g id="node35" class="node">
<title>Node35</title>
<g id="a_node35"><a xlink:href="lst__redir2_8c.html#ade8f0bdda51d9bf348ebeb38fefba881" target="_top" xlink:title=" ">
<polygon fill="none" stroke="black" points="1600.5,-218.5 1600.5,-237.5 1662.5,-237.5 1662.5,-218.5 1600.5,-218.5"/>
<text text-anchor="middle" x="1631.5" y="-225.5" font-family="Helvetica,sans-Serif" font-size="10.00">pop_redir</text>
</a>
</g>
</g>
<!-- Node1&#45;&gt;Node35 -->
<g id="edge64" class="edge">
<title>Node1&#45;&gt;Node35</title>
<path fill="none" stroke="midnightblue" d="M1745.32,-493.24C1743.91,-446.36 1734.42,-326.75 1676,-252 1671.33,-246.02 1664.72,-241.32 1658.07,-237.72"/>
<polygon fill="midnightblue" stroke="midnightblue" points="1741.82,-493.36 1745.53,-503.29 1748.82,-493.22 1741.82,-493.36"/>
</g>
<!-- Node2&#45;&gt;Node3 -->
<g id="edge2" class="edge">
<title>Node2&#45;&gt;Node3</title>
<path fill="none" stroke="midnightblue" d="M822.1,-469.48C797.01,-479.92 762.86,-494.13 740.51,-503.43"/>
<polygon fill="midnightblue" stroke="midnightblue" points="823.68,-472.61 831.57,-465.54 820.99,-466.15 823.68,-472.61"/>
</g>
<!-- Node4 -->
<g id="node4" class="node">
<title>Node4</title>
<g id="a_node4"><a xlink:href="heredoc_8c.html#a17337782f10170a6f2f9188bf557de0f" target="_top" xlink:title="the function will go through all the commands and check the redirection if we encounter a heredoc we ...">
<polygon fill="none" stroke="black" points="503,-370.5 503,-389.5 634,-389.5 634,-370.5 503,-370.5"/>
<text text-anchor="middle" x="568.5" y="-377.5" font-family="Helvetica,sans-Serif" font-size="10.00">here_doc_management</text>
</a>
</g>
</g>
<!-- Node3&#45;&gt;Node4 -->
<g id="edge3" class="edge">
<title>Node3&#45;&gt;Node4</title>
<path fill="none" stroke="midnightblue" d="M697.99,-496.42C681.57,-480.93 656.28,-457.23 634,-437 615.41,-420.12 593.44,-400.85 580.54,-389.59"/>
<polygon fill="midnightblue" stroke="midnightblue" points="695.62,-498.99 705.29,-503.31 700.42,-493.9 695.62,-498.99"/>
</g>
<!-- Node4&#45;&gt;Node5 -->
<g id="edge4" class="edge">
<title>Node4&#45;&gt;Node5</title>
<path fill="none" stroke="midnightblue" d="M492.74,-374.45C441.04,-370.27 370.72,-363.91 309,-356 295.42,-354.26 280.7,-351.99 267.35,-349.78"/>
<polygon fill="midnightblue" stroke="midnightblue" points="492.58,-377.94 502.83,-375.25 493.14,-370.97 492.58,-377.94"/>
</g>
<!-- Node8 -->
<g id="node8" class="node">
<title>Node8</title>
<g id="a_node8"><a xlink:href="execution_8c.html#a38335028b2bc7aa436f8f79a3753ce5e" target="_top" xlink:title="here we check if it&#39;s a builtin where we have to fork or not we still need to do the redirection veri...">
<polygon fill="none" stroke="black" points="343.5,-408.5 343.5,-427.5 432.5,-427.5 432.5,-408.5 343.5,-408.5"/>
<text text-anchor="middle" x="388" y="-415.5" font-family="Helvetica,sans-Serif" font-size="10.00">one_command</text>
</a>
</g>
</g>
<!-- Node4&#45;&gt;Node8 -->
<g id="edge7" class="edge">
<title>Node4&#45;&gt;Node8</title>
<path fill="none" stroke="midnightblue" d="M512.52,-391.71C486.9,-397.16 456.84,-403.56 432.79,-408.68"/>
<polygon fill="midnightblue" stroke="midnightblue" points="513.4,-395.09 522.46,-389.59 511.95,-388.25 513.4,-395.09"/>
</g>
<!-- Node6 -->
<g id="node6" class="node">
<title>Node6</title>
<g id="a_node6"><a xlink:href="execution_8c.html#a9542b61daba3eb4d45c8887c5648b2f6" target="_top" xlink:title="first function of the execution part when we have something to do we have to deal with two cases ; if...">
<polygon fill="none" stroke="black" points="77,-332.5 77,-351.5 136,-351.5 136,-332.5 77,-332.5"/>
<text text-anchor="middle" x="106.5" y="-339.5" font-family="Helvetica,sans-Serif" font-size="10.00">executor</text>
</a>
</g>
</g>
<!-- Node5&#45;&gt;Node6 -->
<g id="edge5" class="edge">
<title>Node5&#45;&gt;Node6</title>
<path fill="none" stroke="midnightblue" d="M167.48,-342C156.66,-342 145.7,-342 136.17,-342"/>
<polygon fill="midnightblue" stroke="midnightblue" points="167.75,-345.5 177.75,-342 167.75,-338.5 167.75,-345.5"/>
</g>
<!-- Node7 -->
<g id="node7" class="node">
<title>Node7</title>
<g id="a_node7"><a xlink:href="main_8c.html#a647f21a28344e1d9c643f4115516d7c9" target="_top" xlink:title=" ">
<polygon fill="none" stroke="black" points="0,-85.5 0,-104.5 41,-104.5 41,-85.5 0,-85.5"/>
<text text-anchor="middle" x="20.5" y="-92.5" font-family="Helvetica,sans-Serif" font-size="10.00">main</text>
</a>
</g>
</g>
<!-- Node6&#45;&gt;Node7 -->
<g id="edge6" class="edge">
<title>Node6&#45;&gt;Node7</title>
<path fill="none" stroke="midnightblue" d="M98.95,-322.75C82.03,-272.97 37.25,-141.31 24.77,-104.62"/>
<polygon fill="midnightblue" stroke="midnightblue" points="95.67,-323.98 102.21,-332.32 102.3,-321.72 95.67,-323.98"/>
</g>
<!-- Node8&#45;&gt;Node6 -->
<g id="edge8" class="edge">
<title>Node8&#45;&gt;Node6</title>
<path fill="none" stroke="midnightblue" d="M339.87,-405.9C296.24,-394.61 229.62,-377.12 172,-361 160.2,-357.7 147.22,-353.91 136.03,-350.59"/>
<polygon fill="midnightblue" stroke="midnightblue" points="339.07,-409.31 349.63,-408.42 340.82,-402.53 339.07,-409.31"/>
</g>
<!-- Node9&#45;&gt;Node10 -->
<g id="edge10" class="edge">
<title>Node9&#45;&gt;Node10</title>
<path fill="none" stroke="midnightblue" d="M1578.22,-760C1561.64,-760 1543.39,-760 1527.12,-760"/>
<polygon fill="midnightblue" stroke="midnightblue" points="1578.3,-763.5 1588.3,-760 1578.3,-756.5 1578.3,-763.5"/>
</g>
<!-- Node9&#45;&gt;Node12 -->
<g id="edge14" class="edge">
<title>Node9&#45;&gt;Node12</title>
<path fill="none" stroke="midnightblue" d="M1582.5,-772.04C1561.33,-777.35 1536.81,-783.5 1516.95,-788.48"/>
<polygon fill="midnightblue" stroke="midnightblue" points="1583.42,-775.42 1592.27,-769.59 1581.72,-768.63 1583.42,-775.42"/>
</g>
<!-- Node10&#45;&gt;Node11 -->
<g id="edge11" class="edge">
<title>Node10&#45;&gt;Node11</title>
<path fill="none" stroke="midnightblue" d="M1423.96,-771.75C1399.71,-777.13 1371.35,-783.41 1348.47,-788.48"/>
<polygon fill="midnightblue" stroke="midnightblue" points="1424.72,-775.17 1433.72,-769.59 1423.2,-768.34 1424.72,-775.17"/>
</g>
<!-- Node11&#45;&gt;Node5 -->
<g id="edge12" class="edge">
<title>Node11&#45;&gt;Node5</title>
<path fill="none" stroke="midnightblue" d="M1246.99,-786.56C1186.7,-775.37 1088.27,-760 1002.5,-760 1002.5,-760 1002.5,-760 567.5,-760 348.52,-760 243.19,-413.74 226.03,-351.52"/>
<polygon fill="midnightblue" stroke="midnightblue" points="1246.59,-790.05 1257.06,-788.46 1247.88,-783.17 1246.59,-790.05"/>
</g>
<!-- Node11&#45;&gt;Node8 -->
<g id="edge13" class="edge">
<title>Node11&#45;&gt;Node8</title>
<path fill="none" stroke="midnightblue" d="M1229.73,-800.69C1106.76,-802.15 855.14,-792.07 670,-698 533.39,-628.59 421.98,-468.32 395.16,-427.56"/>
<polygon fill="midnightblue" stroke="midnightblue" points="1229.84,-804.19 1239.79,-800.54 1229.74,-797.19 1229.84,-804.19"/>
</g>
<!-- Node12&#45;&gt;Node11 -->
<g id="edge15" class="edge">
<title>Node12&#45;&gt;Node11</title>
<path fill="none" stroke="midnightblue" d="M1394.74,-798C1386.16,-798 1377.54,-798 1369.21,-798"/>
<polygon fill="midnightblue" stroke="midnightblue" points="1394.77,-801.5 1404.77,-798 1394.77,-794.5 1394.77,-801.5"/>
</g>
<!-- Node13&#45;&gt;Node2 -->
<g id="edge17" class="edge">
<title>Node13&#45;&gt;Node2</title>
<path fill="none" stroke="midnightblue" d="M1080.71,-441.31C1029.94,-444.64 960.47,-449.19 912.38,-452.34"/>
<polygon fill="midnightblue" stroke="midnightblue" points="1081.18,-444.79 1090.93,-440.64 1080.72,-437.8 1081.18,-444.79"/>
</g>
<!-- Node13&#45;&gt;Node14 -->
<g id="edge18" class="edge">
<title>Node13&#45;&gt;Node14</title>
<path fill="none" stroke="midnightblue" d="M1080.87,-428.34C1071.62,-427.12 1062.23,-425.88 1053.32,-424.7"/>
<polygon fill="midnightblue" stroke="midnightblue" points="1080.45,-431.82 1090.83,-429.65 1081.37,-424.88 1080.45,-431.82"/>
</g>
<!-- Node15 -->
<g id="node15" class="node">
<title>Node15</title>
<g id="a_node15"><a xlink:href="heredoc2_8c.html#ac2c940d294494f86fcc389ffeedfd752" target="_top" xlink:title="origin of creation ; the norm what it is doing ? juste close the fd the right way if we encounter the...">
<polygon fill="none" stroke="black" points="812.5,-560.5 812.5,-579.5 898.5,-579.5 898.5,-560.5 812.5,-560.5"/>
<text text-anchor="middle" x="855.5" y="-567.5" font-family="Helvetica,sans-Serif" font-size="10.00">update_status</text>
</a>
</g>
</g>
<!-- Node13&#45;&gt;Node15 -->
<g id="edge20" class="edge">
<title>Node13&#45;&gt;Node15</title>
<path fill="none" stroke="midnightblue" d="M1116.49,-450.76C1057.63,-477.76 928.33,-537.06 877.56,-560.34"/>
<polygon fill="midnightblue" stroke="midnightblue" points="1118.01,-453.92 1125.64,-446.57 1115.1,-447.55 1118.01,-453.92"/>
</g>
<!-- Node14&#45;&gt;Node2 -->
<g id="edge19" class="edge">
<title>Node14&#45;&gt;Node2</title>
<path fill="none" stroke="midnightblue" d="M954.33,-430.18C934.34,-435.46 911.28,-441.54 892.58,-446.48"/>
<polygon fill="midnightblue" stroke="midnightblue" points="955.39,-433.52 964.16,-427.59 953.6,-426.76 955.39,-433.52"/>
</g>
<!-- Node15&#45;&gt;Node3 -->
<g id="edge21" class="edge">
<title>Node15&#45;&gt;Node3</title>
<path fill="none" stroke="midnightblue" d="M822.1,-556.52C797.01,-546.08 762.86,-531.87 740.51,-522.57"/>
<polygon fill="midnightblue" stroke="midnightblue" points="820.99,-559.85 831.57,-560.46 823.68,-553.39 820.99,-559.85"/>
</g>
<!-- Node17 -->
<g id="node17" class="node">
<title>Node17</title>
<g id="a_node17"><a xlink:href="multipipe_8c.html#af31c329200501f497cd102a470450103" target="_top" xlink:title="it&#39;s where the fork happen and sent to be execute">
<polygon fill="none" stroke="black" points="309,-294.5 309,-313.5 467,-313.5 467,-294.5 309,-294.5"/>
<text text-anchor="middle" x="388" y="-301.5" font-family="Helvetica,sans-Serif" font-size="10.00">multipipe_intermediary_cmd</text>
</a>
</g>
</g>
<!-- Node16&#45;&gt;Node17 -->
<g id="edge23" class="edge">
<title>Node16&#45;&gt;Node17</title>
<path fill="none" stroke="midnightblue" d="M1090.24,-286.41C956.69,-289.76 620.32,-298.2 467.15,-302.04"/>
<polygon fill="midnightblue" stroke="midnightblue" points="1090.35,-289.91 1100.26,-286.16 1090.17,-282.91 1090.35,-289.91"/>
</g>
<!-- Node17&#45;&gt;Node5 -->
<g id="edge24" class="edge">
<title>Node17&#45;&gt;Node5</title>
<path fill="none" stroke="midnightblue" d="M335.82,-315.9C312.83,-321.24 286.09,-327.45 264.46,-332.48"/>
<polygon fill="midnightblue" stroke="midnightblue" points="336.79,-319.26 345.74,-313.59 335.21,-312.44 336.79,-319.26"/>
</g>
<!-- Node18&#45;&gt;Node19 -->
<g id="edge26" class="edge">
<title>Node18&#45;&gt;Node19</title>
<path fill="none" stroke="midnightblue" d="M1582.5,-557.96C1561.33,-552.65 1536.81,-546.5 1516.95,-541.52"/>
<polygon fill="midnightblue" stroke="midnightblue" points="1581.72,-561.37 1592.27,-560.41 1583.42,-554.58 1581.72,-561.37"/>
</g>
<!-- Node19&#45;&gt;Node20 -->
<g id="edge27" class="edge">
<title>Node19&#45;&gt;Node20</title>
<path fill="none" stroke="midnightblue" d="M1398.09,-532C1384.75,-532 1371.19,-532 1358.7,-532"/>
<polygon fill="midnightblue" stroke="midnightblue" points="1398.23,-535.5 1408.23,-532 1398.23,-528.5 1398.23,-535.5"/>
</g>
<!-- Node21 -->
<g id="node21" class="node">
<title>Node21</title>
<g id="a_node21"><a xlink:href="multipipe_8c.html#a461ae962ce9a1aee7221ac4b9c581f98" target="_top" xlink:title=" ">
<polygon fill="none" stroke="black" points="527,-256.5 527,-275.5 610,-275.5 610,-256.5 527,-256.5"/>
<text text-anchor="middle" x="568.5" y="-263.5" font-family="Helvetica,sans-Serif" font-size="10.00">execute_child</text>
</a>
</g>
</g>
<!-- Node20&#45;&gt;Node21 -->
<g id="edge28" class="edge">
<title>Node20&#45;&gt;Node21</title>
<path fill="none" stroke="midnightblue" d="M1240.05,-537.06C1141.04,-542.35 945.93,-542.11 799,-475 708.31,-433.57 708.03,-389.79 634,-323 615.36,-306.18 593.41,-286.89 580.52,-275.61"/>
<polygon fill="midnightblue" stroke="midnightblue" points="1240.41,-540.55 1250.19,-536.48 1240.01,-533.56 1240.41,-540.55"/>
</g>
<!-- Node20&#45;&gt;Node22 -->
<g id="edge30" class="edge">
<title>Node20&#45;&gt;Node22</title>
<path fill="none" stroke="midnightblue" d="M1281.01,-547.02C1232.4,-577.97 1113,-646 1002.5,-646 1002.5,-646 1002.5,-646 854.5,-646 723.08,-646 606.17,-504.4 576.66,-465.68"/>
<polygon fill="midnightblue" stroke="midnightblue" points="1283.01,-549.89 1289.5,-541.52 1279.2,-544.02 1283.01,-549.89"/>
</g>
<!-- Node21&#45;&gt;Node17 -->
<g id="edge29" class="edge">
<title>Node21&#45;&gt;Node17</title>
<path fill="none" stroke="midnightblue" d="M516.89,-276.78C490.7,-282.35 459.01,-289.1 433.73,-294.48"/>
<polygon fill="midnightblue" stroke="midnightblue" points="517.94,-280.13 527,-274.62 516.49,-273.28 517.94,-280.13"/>
</g>
<!-- Node22&#45;&gt;Node8 -->
<g id="edge31" class="edge">
<title>Node22&#45;&gt;Node8</title>
<path fill="none" stroke="midnightblue" d="M512.52,-444.29C486.9,-438.84 456.84,-432.44 432.79,-427.32"/>
<polygon fill="midnightblue" stroke="midnightblue" points="511.95,-447.75 522.46,-446.41 513.4,-440.91 511.95,-447.75"/>
</g>
<!-- Node23&#45;&gt;Node5 -->
<g id="edge33" class="edge">
<title>Node23&#45;&gt;Node5</title>
<path fill="none" stroke="midnightblue" d="M507.62,-342C438.98,-342 328.11,-342 267.15,-342"/>
<polygon fill="midnightblue" stroke="midnightblue" points="507.85,-345.5 517.85,-342 507.85,-338.5 507.85,-345.5"/>
</g>
<!-- Node23&#45;&gt;Node8 -->
<g id="edge34" class="edge">
<title>Node23&#45;&gt;Node8</title>
<path fill="none" stroke="midnightblue" d="M521.29,-354.53C515.08,-356.53 508.85,-358.7 503,-361 467.38,-375.02 427.84,-396.12 405.95,-408.33"/>
<polygon fill="midnightblue" stroke="midnightblue" points="522.44,-357.84 530.96,-351.54 520.37,-351.15 522.44,-357.84"/>
</g>
<!-- Node24&#45;&gt;Node20 -->
<g id="edge38" class="edge">
<title>Node24&#45;&gt;Node20</title>
<path fill="none" stroke="midnightblue" d="M1581.01,-496.68C1535.21,-499.51 1465.3,-504.72 1405,-513 1386.88,-515.49 1367.06,-519.09 1349.91,-522.49"/>
<polygon fill="midnightblue" stroke="midnightblue" points="1581.48,-500.15 1591.26,-496.06 1581.06,-493.17 1581.48,-500.15"/>
</g>
<!-- Node26 -->
<g id="node26" class="node">
<title>Node26</title>
<g id="a_node26"><a xlink:href="lst__cmd2_8c.html#a132395876bb5a7cfe926b9e37571a1e3" target="_top" xlink:title=" ">
<polygon fill="none" stroke="black" points="1101.5,-218.5 1101.5,-237.5 1193.5,-237.5 1193.5,-218.5 1101.5,-218.5"/>
<text text-anchor="middle" x="1147.5" y="-225.5" font-family="Helvetica,sans-Serif" font-size="10.00">destructor_cmd</text>
</a>
</g>
</g>
<!-- Node25&#45;&gt;Node26 -->
<g id="edge45" class="edge">
<title>Node25&#45;&gt;Node26</title>
<path fill="none" stroke="midnightblue" d="M1263.93,-228C1242.52,-228 1216,-228 1193.77,-228"/>
<polygon fill="midnightblue" stroke="midnightblue" points="1263.98,-231.5 1273.98,-228 1263.98,-224.5 1263.98,-231.5"/>
</g>
<!-- Node26&#45;&gt;Node2 -->
<g id="edge46" class="edge">
<title>Node26&#45;&gt;Node2</title>
<path fill="none" stroke="midnightblue" d="M1120.61,-242.92C1110.73,-249.31 1099.75,-257.3 1091,-266 1071.07,-285.82 1074.86,-298.1 1055,-318 1024.24,-348.82 912.93,-420.34 871.86,-446.34"/>
<polygon fill="midnightblue" stroke="midnightblue" points="1122.63,-245.78 1129.28,-237.53 1118.94,-239.84 1122.63,-245.78"/>
</g>
<!-- Node26&#45;&gt;Node7 -->
<g id="edge51" class="edge">
<title>Node26&#45;&gt;Node7</title>
<path fill="none" stroke="midnightblue" d="M1124.62,-212.79C1077.75,-181.74 963.26,-114 856.5,-114 856.5,-114 856.5,-114 221.5,-114 155.06,-114 76.75,-103.48 41.03,-98.09"/>
<polygon fill="midnightblue" stroke="midnightblue" points="1122.82,-215.79 1133.07,-218.48 1126.73,-209.99 1122.82,-215.79"/>
</g>
<!-- Node26&#45;&gt;Node14 -->
<g id="edge63" class="edge">
<title>Node26&#45;&gt;Node14</title>
<path fill="none" stroke="midnightblue" d="M1116.94,-242.84C1107.47,-248.87 1097.71,-256.65 1091,-266 1056.55,-314.02 1093.44,-349.11 1055,-394 1049.66,-400.24 1042.35,-404.95 1034.88,-408.46"/>
<polygon fill="midnightblue" stroke="midnightblue" points="1119,-245.69 1125.83,-237.59 1115.44,-239.66 1119,-245.69"/>
</g>
<!-- Node26&#45;&gt;Node21 -->
<g id="edge47" class="edge">
<title>Node26&#45;&gt;Node21</title>
<path fill="none" stroke="midnightblue" d="M1099.36,-216.29C1085.19,-213.29 1069.55,-210.49 1055,-209 884.78,-191.51 835.45,-169.31 670,-213 636.43,-221.86 601.52,-243.59 582.98,-256.3"/>
<polygon fill="midnightblue" stroke="midnightblue" points="1098.86,-219.76 1109.37,-218.49 1100.36,-212.93 1098.86,-219.76"/>
</g>
<!-- Node26&#45;&gt;Node22 -->
<g id="edge58" class="edge">
<title>Node26&#45;&gt;Node22</title>
<path fill="none" stroke="midnightblue" d="M1112.99,-241.37C1031.22,-273.98 814.91,-360.11 634,-431 620.92,-436.13 606.32,-441.79 594.33,-446.43"/>
<polygon fill="midnightblue" stroke="midnightblue" points="1114.52,-244.53 1122.51,-237.58 1111.92,-238.03 1114.52,-244.53"/>
</g>
<!-- Node27 -->
<g id="node27" class="node">
<title>Node27</title>
<g id="a_node27"><a xlink:href="expand_8c.html#aa18c8661b304a521d512b7acc7d7a1cb" target="_top" xlink:title=" ">
<polygon fill="none" stroke="black" points="956,-66.5 956,-85.5 1047,-85.5 1047,-66.5 956,-66.5"/>
<text text-anchor="middle" x="1001.5" y="-73.5" font-family="Helvetica,sans-Serif" font-size="10.00">exp_redir_error</text>
</a>
</g>
</g>
<!-- Node26&#45;&gt;Node27 -->
<g id="edge48" class="edge">
<title>Node26&#45;&gt;Node27</title>
<path fill="none" stroke="midnightblue" d="M1137.13,-209.13C1122.76,-181.85 1092.94,-131.28 1055,-100 1047.81,-94.07 1038.91,-89.28 1030.5,-85.59"/>
<polygon fill="midnightblue" stroke="midnightblue" points="1134.18,-211.05 1141.86,-218.35 1140.41,-207.85 1134.18,-211.05"/>
</g>
<!-- Node29 -->
<g id="node29" class="node">
<title>Node29</title>
<g id="a_node29"><a xlink:href="exit_8c.html#adcbec3416f97b2d0b8d53cf4c2b2a436" target="_top" xlink:title=" ">
<polygon fill="none" stroke="black" points="973.5,-218.5 973.5,-237.5 1029.5,-237.5 1029.5,-218.5 973.5,-218.5"/>
<text text-anchor="middle" x="1001.5" y="-225.5" font-family="Helvetica,sans-Serif" font-size="10.00">my_exit</text>
</a>
</g>
</g>
<!-- Node26&#45;&gt;Node29 -->
<g id="edge52" class="edge">
<title>Node26&#45;&gt;Node29</title>
<path fill="none" stroke="midnightblue" d="M1091.22,-228C1070.23,-228 1047.23,-228 1029.91,-228"/>
<polygon fill="midnightblue" stroke="midnightblue" points="1091.33,-231.5 1101.33,-228 1091.33,-224.5 1091.33,-231.5"/>
</g>
<!-- Node32 -->
<g id="node32" class="node">
<title>Node32</title>
<g id="a_node32"><a xlink:href="parsing__error_8c.html#a193034f887c71fdb2486835d8cbd9dd3" target="_top" xlink:title=" ">
<polygon fill="none" stroke="black" points="948,-28.5 948,-47.5 1055,-47.5 1055,-28.5 948,-28.5"/>
<text text-anchor="middle" x="1001.5" y="-35.5" font-family="Helvetica,sans-Serif" font-size="10.00">parsing_destructor</text>
</a>
</g>
</g>
<!-- Node26&#45;&gt;Node32 -->
<g id="edge59" class="edge">
<title>Node26&#45;&gt;Node32</title>
<path fill="none" stroke="midnightblue" d="M1141.1,-208.33C1130.46,-173.09 1103.48,-98.95 1055,-57 1050.53,-53.13 1045.21,-50.03 1039.7,-47.54"/>
<polygon fill="midnightblue" stroke="midnightblue" points="1137.85,-209.68 1143.99,-218.32 1144.58,-207.74 1137.85,-209.68"/>
</g>
<!-- Node28 -->
<g id="node28" class="node">
<title>Node28</title>
<g id="a_node28"><a xlink:href="expand_8c.html#a53c53e75b0ad8c8888217cd918304b8b" target="_top" xlink:title="Iterate over every args and redir of each command to expand and dequote what needs to be.">
<polygon fill="none" stroke="black" points="172,-66.5 172,-85.5 273,-85.5 273,-66.5 172,-66.5"/>
<text text-anchor="middle" x="222.5" y="-73.5" font-family="Helvetica,sans-Serif" font-size="10.00">expand_manager</text>
</a>
</g>
</g>
<!-- Node27&#45;&gt;Node28 -->
<g id="edge49" class="edge">
<title>Node27&#45;&gt;Node28</title>
<path fill="none" stroke="midnightblue" d="M945.67,-76C888.66,-76 796.82,-76 717.5,-76 717.5,-76 717.5,-76 567.5,-76 462.69,-76 339.91,-76 273.06,-76"/>
<polygon fill="midnightblue" stroke="midnightblue" points="945.9,-79.5 955.9,-76 945.9,-72.5 945.9,-79.5"/>
</g>
<!-- Node28&#45;&gt;Node7 -->
<g id="edge50" class="edge">
<title>Node28&#45;&gt;Node7</title>
<path fill="none" stroke="midnightblue" d="M161.66,-81.68C120.77,-85.57 69.14,-90.47 41.36,-93.11"/>
<polygon fill="midnightblue" stroke="midnightblue" points="162.18,-85.15 171.8,-80.72 161.52,-78.18 162.18,-85.15"/>
</g>
<!-- Node30 -->
<g id="node30" class="node">
<title>Node30</title>
<g id="a_node30"><a xlink:href="launcher_8c.html#a7bee4f6fbfd70ef7ec1f52856538ac71" target="_top" xlink:title="launch the builtin &#160;&#160;some of them are not present because we have to fork() them why ?...">
<polygon fill="none" stroke="black" points="813,-218.5 813,-237.5 898,-237.5 898,-218.5 813,-218.5"/>
<text text-anchor="middle" x="855.5" y="-225.5" font-family="Helvetica,sans-Serif" font-size="10.00">launch_builtin</text>
</a>
</g>
</g>
<!-- Node29&#45;&gt;Node30 -->
<g id="edge53" class="edge">
<title>Node29&#45;&gt;Node30</title>
<path fill="none" stroke="midnightblue" d="M963.18,-228C943.28,-228 918.72,-228 898.19,-228"/>
<polygon fill="midnightblue" stroke="midnightblue" points="963.41,-231.5 973.41,-228 963.41,-224.5 963.41,-231.5"/>
</g>
<!-- Node30&#45;&gt;Node8 -->
<g id="edge57" class="edge">
<title>Node30&#45;&gt;Node8</title>
<path fill="none" stroke="midnightblue" d="M802.79,-218.5C761.85,-214.12 705.81,-215.57 670,-247 617.83,-292.8 686.75,-353.86 634,-399 576.3,-448.37 480.39,-438.27 427.3,-427.53"/>
<polygon fill="midnightblue" stroke="midnightblue" points="802.5,-221.99 812.84,-219.73 803.34,-215.04 802.5,-221.99"/>
</g>
<!-- Node31 -->
<g id="node31" class="node">
<title>Node31</title>
<g id="a_node31"><a xlink:href="execution__node_8c.html#adda76b40c34c18ec83b1d98700083f8a" target="_top" xlink:title="we are going to execute the command here we have a security about absolute path given =&gt; because it&#39;s...">
<polygon fill="none" stroke="black" points="670,-256.5 670,-275.5 763,-275.5 763,-256.5 670,-256.5"/>
<text text-anchor="middle" x="716.5" y="-263.5" font-family="Helvetica,sans-Serif" font-size="10.00">execution_node</text>
</a>
</g>
</g>
<!-- Node30&#45;&gt;Node31 -->
<g id="edge54" class="edge">
<title>Node30&#45;&gt;Node31</title>
<path fill="none" stroke="midnightblue" d="M810.09,-240.32C791.27,-245.54 769.66,-251.53 752.06,-256.41"/>
<polygon fill="midnightblue" stroke="midnightblue" points="811.23,-243.63 819.93,-237.59 809.36,-236.89 811.23,-243.63"/>
</g>
<!-- Node31&#45;&gt;Node21 -->
<g id="edge55" class="edge">
<title>Node31&#45;&gt;Node21</title>
<path fill="none" stroke="midnightblue" d="M659.65,-266C643.19,-266 625.5,-266 610.19,-266"/>
<polygon fill="midnightblue" stroke="midnightblue" points="659.71,-269.5 669.71,-266 659.71,-262.5 659.71,-269.5"/>
</g>
<!-- Node31&#45;&gt;Node22 -->
<g id="edge56" class="edge">
<title>Node31&#45;&gt;Node22</title>
<path fill="none" stroke="midnightblue" d="M706.5,-285.28C686.57,-327.86 639.97,-426.6 634,-432 627.09,-438.25 618.4,-442.92 609.66,-446.39"/>
<polygon fill="midnightblue" stroke="midnightblue" points="709.79,-286.52 710.85,-275.98 703.45,-283.55 709.79,-286.52"/>
</g>
<!-- Node33 -->
<g id="node33" class="node">
<title>Node33</title>
<g id="a_node33"><a xlink:href="parsing__error_8c.html#a8f5f1cfa591c395b88733e1134d8de3d" target="_top" xlink:title=" ">
<polygon fill="none" stroke="black" points="816.5,-28.5 816.5,-47.5 894.5,-47.5 894.5,-28.5 816.5,-28.5"/>
<text text-anchor="middle" x="855.5" y="-35.5" font-family="Helvetica,sans-Serif" font-size="10.00">syntax_error</text>
</a>
</g>
</g>
<!-- Node32&#45;&gt;Node33 -->
<g id="edge60" class="edge">
<title>Node32&#45;&gt;Node33</title>
<path fill="none" stroke="midnightblue" d="M937.29,-38C922.84,-38 907.9,-38 894.87,-38"/>
<polygon fill="midnightblue" stroke="midnightblue" points="937.7,-41.5 947.7,-38 937.7,-34.5 937.7,-41.5"/>
</g>
<!-- Node34 -->
<g id="node34" class="node">
<title>Node34</title>
<g id="a_node34"><a xlink:href="parser_8c.html#a302af903b3f87eaaff83762f60c2d8cb" target="_top" xlink:title=" ">
<polygon fill="none" stroke="black" points="83,-28.5 83,-47.5 130,-47.5 130,-28.5 83,-28.5"/>
<text text-anchor="middle" x="106.5" y="-35.5" font-family="Helvetica,sans-Serif" font-size="10.00">parser</text>
</a>
</g>
</g>
<!-- Node33&#45;&gt;Node34 -->
<g id="edge61" class="edge">
<title>Node33&#45;&gt;Node34</title>
<path fill="none" stroke="midnightblue" d="M806.13,-38C749.43,-38 652.65,-38 569.5,-38 569.5,-38 569.5,-38 387,-38 291.65,-38 178,-38 130.32,-38"/>
<polygon fill="midnightblue" stroke="midnightblue" points="806.24,-41.5 816.24,-38 806.24,-34.5 806.24,-41.5"/>
</g>
<!-- Node34&#45;&gt;Node7 -->
<g id="edge62" class="edge">
<title>Node34&#45;&gt;Node7</title>
<path fill="none" stroke="midnightblue" d="M82.94,-53.31C67.85,-63.55 48.46,-76.71 35.54,-85.47"/>
<polygon fill="midnightblue" stroke="midnightblue" points="84.94,-56.18 91.25,-47.67 81.01,-50.39 84.94,-56.18"/>
</g>
<!-- Node36 -->
<g id="node36" class="node">
<title>Node36</title>
<g id="a_node36"><a xlink:href="lst__redir2_8c.html#a30ccaf401a4f897e48ead5fe54f4b307" target="_top" xlink:title=" ">
<polygon fill="none" stroke="black" points="1431,-218.5 1431,-237.5 1525,-237.5 1525,-218.5 1431,-218.5"/>
<text text-anchor="middle" x="1478" y="-225.5" font-family="Helvetica,sans-Serif" font-size="10.00">destructor_redir</text>
</a>
</g>
</g>
<!-- Node35&#45;&gt;Node36 -->
<g id="edge65" class="edge">
<title>Node35&#45;&gt;Node36</title>
<path fill="none" stroke="midnightblue" d="M1590.16,-228C1570.13,-228 1545.83,-228 1525.07,-228"/>
<polygon fill="midnightblue" stroke="midnightblue" points="1590.21,-231.5 1600.21,-228 1590.21,-224.5 1590.21,-231.5"/>
</g>
<!-- Node36&#45;&gt;Node25 -->
<g id="edge66" class="edge">
<title>Node36&#45;&gt;Node25</title>
<path fill="none" stroke="midnightblue" d="M1420.36,-228C1391.91,-228 1358.61,-228 1335.21,-228"/>
<polygon fill="midnightblue" stroke="midnightblue" points="1420.59,-231.5 1430.59,-228 1420.59,-224.5 1420.59,-231.5"/>
</g>
</g>
</svg>
        <g id="navigator" transform="translate(0 0)" fill="#404254">
                <rect fill="#f2f5e9" fill-opacity="0.5" stroke="#606060" stroke-width=".5" x="0" y="0" width="60" height="60"/>
                <use id="zoomplus" xlink:href="#zoomPlus" x="17" y="9" onmousedown="handleZoom(evt,'in')"/>
                <use id="zoomminus" xlink:href="#zoomMin" x="42" y="9" onmousedown="handleZoom(evt,'out')"/>
                <use id="reset" xlink:href="#resetDef" x="30" y="36" onmousedown="handleReset()"/>
                <g id="arrowUp" xlink:href="#dirArrow" transform="translate(30 24)" onmousedown="handlePan(0,-1)">
                  <use xlink:href="#rim" fill="#404040">
                        <set attributeName="fill" to="#808080" begin="arrowUp.mouseover" end="arrowUp.mouseout"/>
                  </use>
                  <path fill="none" stroke="white" stroke-width="1.5" d="M0,-3.0v7 M-2.5,-0.5L0,-3.0L2.5,-0.5"/>
                </g>
                <g id="arrowRight" xlink:href="#dirArrow" transform="rotate(90) translate(36 -43)" onmousedown="handlePan(1,0)">
                  <use xlink:href="#rim" fill="#404040">
                        <set attributeName="fill" to="#808080" begin="arrowRight.mouseover" end="arrowRight.mouseout"/>
                  </use>
                  <path fill="none" stroke="white" stroke-width="1.5" d="M0,-3.0v7 M-2.5,-0.5L0,-3.0L2.5,-0.5"/>
                </g>
                <g id="arrowDown" xlink:href="#dirArrow" transform="rotate(180) translate(-30 -48)" onmousedown="handlePan(0,1)">
                  <use xlink:href="#rim" fill="#404040">
                        <set attributeName="fill" to="#808080" begin="arrowDown.mouseover" end="arrowDown.mouseout"/>
                  </use>
                  <path fill="none" stroke="white" stroke-width="1.5" d="M0,-3.0v7 M-2.5,-0.5L0,-3.0L2.5,-0.5"/>
                </g>
                <g id="arrowLeft" xlink:href="#dirArrow" transform="rotate(270) translate(-36 17)" onmousedown="handlePan(-1,0)">
                  <use xlink:href="#rim" fill="#404040">
                        <set attributeName="fill" to="#808080" begin="arrowLeft.mouseover" end="arrowLeft.mouseout"/>
                  </use>
                  <path fill="none" stroke="white" stroke-width="1.5" d="M0,-3.0v7 M-2.5,-0.5L0,-3.0L2.5,-0.5"/>
                </g>
        </g>
        <svg viewBox="0 0 15 15" width="100%" height="30px" preserveAspectRatio="xMaxYMin meet">
         <g id="arrow_out" transform="scale(0.3 0.3)">
          <a xlink:href="minishell_8h_a1bca6910c90a19d96b36506a2e2cebf6_icgraph_org.svg" target="_base">
           <rect id="button" ry="5" rx="5" y="6" x="6" height="38" width="38"
                fill="#f2f5e9" fill-opacity="0.5" stroke="#606060" stroke-width="1.0"/>
           <path id="arrow"
             d="M 11.500037,31.436501 C 11.940474,20.09759 22.043105,11.32322 32.158766,21.979434 L 37.068811,17.246167 C 37.068811,17.246167 37.088388,32 37.088388,32 L 22.160133,31.978069 C 22.160133,31.978069 26.997745,27.140456 26.997745,27.140456 C 18.528582,18.264221 13.291696,25.230495 11.500037,31.436501 z"
             style="fill:#404040;"/>
          </a>
         </g>
        </svg>
</svg>
