<?xml version="1.0" encoding="UTF-8" standalone="no"?>
<!DOCTYPE svg PUBLIC "-//W3C//DTD SVG 1.1//EN"
 "http://www.w3.org/Graphics/SVG/1.1/DTD/svg11.dtd">
<!-- Generated by graphviz version 2.43.0 (0)
 -->
<!-- Title: execute_child Pages: 1 -->
<!--zoomable 636 -->
<svg id="main" version="1.1" xmlns="http://www.w3.org/2000/svg" xmlns:xlink="http://www.w3.org/1999/xlink" xml:space="preserve" onload="init(evt)">
<style type="text/css"><![CDATA[
.edge:hover path { stroke: red; }
.edge:hover polygon { stroke: red; fill: red; }
]]></style>
<script type="text/javascript"><![CDATA[
var edges = document.getElementsByTagName('g');
if (edges && edges.length) {
  for (var i=0;i<edges.length;i++) {
    if (edges[i].id.substr(0,4)=='edge') {
      edges[i].setAttribute('class','edge');
    }
  }
}
]]></script>
        <defs>
                <circle id="rim" cx="0" cy="0" r="7"/>
                <circle id="rim2" cx="0" cy="0" r="3.5"/>
                <g id="zoomPlus">
                        <use xlink:href="#rim" fill="#404040">
                                <set attributeName="fill" to="#808080" begin="zoomplus.mouseover" end="zoomplus.mouseout"/>
                        </use>
                        <path d="M-4,0h8M0,-4v8" fill="none" stroke="white" stroke-width="1.5" pointer-events="none"/>
                </g>
                <g id="zoomMin">
                        <use xlink:href="#rim" fill="#404040">
                                <set attributeName="fill" to="#808080" begin="zoomminus.mouseover" end="zoomminus.mouseout"/>
                        </use>
                        <path d="M-4,0h8" fill="none" stroke="white" stroke-width="1.5" pointer-events="none"/>
                </g>
                <g id="dirArrow">
                        <path fill="none" stroke="white" stroke-width="1.5" d="M0,-3.0v7 M-2.5,-0.5L0,-3.0L2.5,-0.5"/>
                </g>
               <g id="resetDef">
                       <use xlink:href="#rim2" fill="#404040">
                               <set attributeName="fill" to="#808080" begin="reset.mouseover" end="reset.mouseout"/>
                       </use>
               </g>
        </defs>

<script type="text/javascript">
var viewWidth = 1165;
var viewHeight = 636;
var sectionId = 'dynsection-27';
</script>
<script xlink:href="svgpan.js"/>
<svg id="graph" class="graph">
<g id="viewport">
<title>execute_child</title>
<!-- Node1 -->
<g id="node1" class="node">
<title>Node1</title>
<g id="a_node1"><a xlink:title=" ">
<polygon fill="#bfbfbf" stroke="black" points="0,-513.5 0,-532.5 83,-532.5 83,-513.5 0,-513.5"/>
<text text-anchor="middle" x="41.5" y="-520.5" font-family="Helvetica,sans-Serif" font-size="10.00">execute_child</text>
</a>
</g>
</g>
<!-- Node2 -->
<g id="node2" class="node">
<title>Node2</title>
<g id="a_node2"><a xlink:href="multipipe_8c.html#ac70e2499b8aeb789658ff4596ded7221" target="_top" xlink:title="as we are going to fork and create process, the new process will have inherited of all the opened fd....">
<polygon fill="none" stroke="black" points="119,-608.5 119,-627.5 226,-627.5 226,-608.5 119,-608.5"/>
<text text-anchor="middle" x="172.5" y="-615.5" font-family="Helvetica,sans-Serif" font-size="10.00">close_fd_heredocs</text>
</a>
</g>
</g>
<!-- Node1&#45;&gt;Node2 -->
<g id="edge1" class="edge">
<title>Node1&#45;&gt;Node2</title>
<path fill="none" stroke="midnightblue" d="M51.1,-532.78C64.48,-547.53 91.57,-575.69 119,-594 124.53,-597.69 130.71,-601.07 136.84,-604.07"/>
<polygon fill="midnightblue" stroke="midnightblue" points="135.78,-607.43 146.33,-608.44 138.71,-601.08 135.78,-607.43"/>
</g>
<!-- Node3 -->
<g id="node3" class="node">
<title>Node3</title>
<g id="a_node3"><a xlink:href="redirection__multipipe_8c.html#a26c96266f1645047a9bdd9af22de94a7" target="_top" xlink:title=" ">
<polygon fill="none" stroke="black" points="817.5,-570.5 817.5,-589.5 925.5,-589.5 925.5,-570.5 817.5,-570.5"/>
<text text-anchor="middle" x="871.5" y="-577.5" font-family="Helvetica,sans-Serif" font-size="10.00">command_redirect</text>
</a>
</g>
</g>
<!-- Node1&#45;&gt;Node3 -->
<g id="edge2" class="edge">
<title>Node1&#45;&gt;Node3</title>
<path fill="none" stroke="midnightblue" d="M64.88,-532.55C79.94,-538.63 100.36,-546.24 119,-551 202.83,-572.42 224.98,-580 311.5,-580 311.5,-580 311.5,-580 580,-580 658.26,-580 748.39,-580 807.24,-580"/>
<polygon fill="midnightblue" stroke="midnightblue" points="807.49,-583.5 817.49,-580 807.49,-576.5 807.49,-583.5"/>
</g>
<!-- Node7 -->
<g id="node7" class="node">
<title>Node7</title>
<g id="a_node7"><a xlink:href="lst__cmd2_8c.html#a132395876bb5a7cfe926b9e37571a1e3" target="_top" xlink:title=" ">
<polygon fill="none" stroke="black" points="533,-418.5 533,-437.5 625,-437.5 625,-418.5 533,-418.5"/>
<text text-anchor="middle" x="579" y="-425.5" font-family="Helvetica,sans-Serif" font-size="10.00">destructor_cmd</text>
</a>
</g>
</g>
<!-- Node1&#45;&gt;Node7 -->
<g id="edge8" class="edge">
<title>Node1&#45;&gt;Node7</title>
<path fill="none" stroke="midnightblue" d="M83.19,-515.78C178.24,-498.92 414.97,-456.92 522.85,-437.78"/>
<polygon fill="midnightblue" stroke="midnightblue" points="523.65,-441.2 532.88,-436 522.42,-434.3 523.65,-441.2"/>
</g>
<!-- Node11 -->
<g id="node11" class="node">
<title>Node11</title>
<g id="a_node11"><a xlink:href="lst__env_8c.html#a226ae0aa054e697998b2ecbc5d61d592" target="_top" xlink:title=" ">
<polygon fill="none" stroke="black" points="534.5,-456.5 534.5,-475.5 623.5,-475.5 623.5,-456.5 534.5,-456.5"/>
<text text-anchor="middle" x="579" y="-463.5" font-family="Helvetica,sans-Serif" font-size="10.00">destructor_env</text>
</a>
</g>
</g>
<!-- Node1&#45;&gt;Node11 -->
<g id="edge14" class="edge">
<title>Node1&#45;&gt;Node11</title>
<path fill="none" stroke="midnightblue" d="M83.08,-529.29C162.53,-540.13 343.47,-557.62 488,-518 514.08,-510.85 540.47,-494.25 557.87,-481.71"/>
<polygon fill="midnightblue" stroke="midnightblue" points="560.16,-484.37 566.1,-475.6 555.98,-478.75 560.16,-484.37"/>
</g>
<!-- Node13 -->
<g id="node13" class="node">
<title>Node13</title>
<g id="a_node13"><a xlink:href="execution__node_8c.html#adda76b40c34c18ec83b1d98700083f8a" target="_top" xlink:title="we are going to execute the command here we have a security about absolute path given =&gt; because it&#39;s...">
<polygon fill="none" stroke="black" points="126,-361.5 126,-380.5 219,-380.5 219,-361.5 126,-361.5"/>
<text text-anchor="middle" x="172.5" y="-368.5" font-family="Helvetica,sans-Serif" font-size="10.00">execution_node</text>
</a>
</g>
</g>
<!-- Node1&#45;&gt;Node13 -->
<g id="edge16" class="edge">
<title>Node1&#45;&gt;Node13</title>
<path fill="none" stroke="midnightblue" d="M50.57,-513.49C71.84,-488.43 129.65,-420.32 156.91,-388.2"/>
<polygon fill="midnightblue" stroke="midnightblue" points="159.63,-390.39 163.43,-380.5 154.29,-385.86 159.63,-390.39"/>
</g>
<!-- Node42 -->
<g id="node42" class="node">
<title>Node42</title>
<g id="a_node42"><a xlink:href="signals_8c.html#a368a774e2b304a3de55f58168563967d" target="_top" xlink:title=" ">
<polygon fill="none" stroke="black" points="126.5,-323.5 126.5,-342.5 218.5,-342.5 218.5,-323.5 126.5,-323.5"/>
<text text-anchor="middle" x="172.5" y="-330.5" font-family="Helvetica,sans-Serif" font-size="10.00">sigquit_handler</text>
</a>
</g>
</g>
<!-- Node1&#45;&gt;Node42 -->
<g id="edge54" class="edge">
<title>Node1&#45;&gt;Node42</title>
<path fill="none" stroke="midnightblue" d="M44.1,-513.34C49.36,-484.59 68.73,-398.71 119,-352 120.7,-350.42 122.55,-348.97 124.49,-347.63"/>
<polygon fill="midnightblue" stroke="midnightblue" points="126.54,-350.49 133.52,-342.52 123.1,-344.4 126.54,-350.49"/>
</g>
<!-- Node4 -->
<g id="node4" class="node">
<title>Node4</title>
<g id="a_node4"><a xlink:href="redirection__multipipe_8c.html#a3a0d7f695cf53df46301e14ffab77638" target="_top" xlink:title=" ">
<polygon fill="none" stroke="black" points="963,-570.5 963,-589.5 1052,-589.5 1052,-570.5 963,-570.5"/>
<text text-anchor="middle" x="1007.5" y="-577.5" font-family="Helvetica,sans-Serif" font-size="10.00">close_previous</text>
</a>
</g>
</g>
<!-- Node3&#45;&gt;Node4 -->
<g id="edge3" class="edge">
<title>Node3&#45;&gt;Node4</title>
<path fill="none" stroke="midnightblue" d="M925.85,-580C934.66,-580 943.8,-580 952.63,-580"/>
<polygon fill="midnightblue" stroke="midnightblue" points="952.8,-583.5 962.8,-580 952.8,-576.5 952.8,-583.5"/>
</g>
<!-- Node5 -->
<g id="node5" class="node">
<title>Node5</title>
<g id="a_node5"><a xlink:href="redirection__multipipe_8c.html#a1bca6910c90a19d96b36506a2e2cebf6" target="_top" xlink:title="as fd are all setup to &#45;1 at the beginning we check if they are open before trying to close we avoid ...">
<polygon fill="none" stroke="black" points="1088,-494.5 1088,-513.5 1157,-513.5 1157,-494.5 1088,-494.5"/>
<text text-anchor="middle" x="1122.5" y="-501.5" font-family="Helvetica,sans-Serif" font-size="10.00">ft_close_fd</text>
</a>
</g>
</g>
<!-- Node3&#45;&gt;Node5 -->
<g id="edge7" class="edge">
<title>Node3&#45;&gt;Node5</title>
<path fill="none" stroke="midnightblue" d="M903.78,-570.45C948.51,-556.8 1030.79,-531.69 1080.39,-516.55"/>
<polygon fill="midnightblue" stroke="midnightblue" points="1081.61,-519.84 1090.15,-513.57 1079.56,-513.14 1081.61,-519.84"/>
</g>
<!-- Node6 -->
<g id="node6" class="node">
<title>Node6</title>
<g id="a_node6"><a xlink:href="redirection__multipipe_8c.html#a5b749bc2b4088984c0efe1c479ae6ec8" target="_top" xlink:title=" ">
<polygon fill="none" stroke="black" points="967.5,-494.5 967.5,-513.5 1047.5,-513.5 1047.5,-494.5 967.5,-494.5"/>
<text text-anchor="middle" x="1007.5" y="-501.5" font-family="Helvetica,sans-Serif" font-size="10.00">fail_previous</text>
</a>
</g>
</g>
<!-- Node3&#45;&gt;Node6 -->
<g id="edge5" class="edge">
<title>Node3&#45;&gt;Node6</title>
<path fill="none" stroke="midnightblue" d="M889.13,-570.33C907.25,-559.82 937.11,-542.58 963,-528 968.49,-524.91 974.39,-521.63 980.01,-518.52"/>
<polygon fill="midnightblue" stroke="midnightblue" points="982.04,-521.4 989.1,-513.51 978.66,-515.27 982.04,-521.4"/>
</g>
<!-- Node4&#45;&gt;Node5 -->
<g id="edge4" class="edge">
<title>Node4&#45;&gt;Node5</title>
<path fill="none" stroke="midnightblue" d="M1027.46,-570.28C1035.21,-566.11 1044.17,-561.05 1052,-556 1069.24,-544.87 1087.8,-530.87 1101.4,-520.2"/>
<polygon fill="midnightblue" stroke="midnightblue" points="1103.9,-522.69 1109.56,-513.73 1099.55,-517.2 1103.9,-522.69"/>
</g>
<!-- Node6&#45;&gt;Node5 -->
<g id="edge6" class="edge">
<title>Node6&#45;&gt;Node5</title>
<path fill="none" stroke="midnightblue" d="M1047.7,-504C1057.36,-504 1067.75,-504 1077.61,-504"/>
<polygon fill="midnightblue" stroke="midnightblue" points="1077.63,-507.5 1087.63,-504 1077.63,-500.5 1077.63,-507.5"/>
</g>
<!-- Node8 -->
<g id="node8" class="node">
<title>Node8</title>
<g id="a_node8"><a xlink:href="lst__cmd2_8c.html#a8e2b63759f149b547e0d07f210ede9b3" target="_top" xlink:title=" ">
<polygon fill="none" stroke="black" points="694.5,-418.5 694.5,-437.5 755.5,-437.5 755.5,-418.5 694.5,-418.5"/>
<text text-anchor="middle" x="725" y="-425.5" font-family="Helvetica,sans-Serif" font-size="10.00">pop_cmd</text>
</a>
</g>
</g>
<!-- Node7&#45;&gt;Node8 -->
<g id="edge9" class="edge">
<title>Node7&#45;&gt;Node8</title>
<path fill="none" stroke="midnightblue" d="M625.17,-428C644.15,-428 666.03,-428 684.37,-428"/>
<polygon fill="midnightblue" stroke="midnightblue" points="684.44,-431.5 694.44,-428 684.44,-424.5 684.44,-431.5"/>
</g>
<!-- Node8&#45;&gt;Node5 -->
<g id="edge13" class="edge">
<title>Node8&#45;&gt;Node5</title>
<path fill="none" stroke="midnightblue" d="M755.62,-423.81C814.47,-416.75 949.3,-406.86 1052,-447 1073.42,-455.37 1093.22,-473 1106.16,-486.45"/>
<polygon fill="midnightblue" stroke="midnightblue" points="1103.93,-489.19 1113.28,-494.17 1109.07,-484.44 1103.93,-489.19"/>
</g>
<!-- Node9 -->
<g id="node9" class="node">
<title>Node9</title>
<g id="a_node9"><a xlink:href="lst__redir2_8c.html#a30ccaf401a4f897e48ead5fe54f4b307" target="_top" xlink:title=" ">
<polygon fill="none" stroke="black" points="824.5,-456.5 824.5,-475.5 918.5,-475.5 918.5,-456.5 824.5,-456.5"/>
<text text-anchor="middle" x="871.5" y="-463.5" font-family="Helvetica,sans-Serif" font-size="10.00">destructor_redir</text>
</a>
</g>
</g>
<!-- Node8&#45;&gt;Node9 -->
<g id="edge10" class="edge">
<title>Node8&#45;&gt;Node9</title>
<path fill="none" stroke="midnightblue" d="M755.59,-435.78C775.44,-441 801.99,-447.98 824.56,-453.92"/>
<polygon fill="midnightblue" stroke="midnightblue" points="823.73,-457.32 834.29,-456.48 825.51,-450.55 823.73,-457.32"/>
</g>
<!-- Node10 -->
<g id="node10" class="node">
<title>Node10</title>
<g id="a_node10"><a xlink:href="lst__redir2_8c.html#ade8f0bdda51d9bf348ebeb38fefba881" target="_top" xlink:title=" ">
<polygon fill="none" stroke="black" points="976.5,-456.5 976.5,-475.5 1038.5,-475.5 1038.5,-456.5 976.5,-456.5"/>
<text text-anchor="middle" x="1007.5" y="-463.5" font-family="Helvetica,sans-Serif" font-size="10.00">pop_redir</text>
</a>
</g>
</g>
<!-- Node9&#45;&gt;Node10 -->
<g id="edge11" class="edge">
<title>Node9&#45;&gt;Node10</title>
<path fill="none" stroke="midnightblue" d="M918.62,-466C934.12,-466 951.27,-466 966.28,-466"/>
<polygon fill="midnightblue" stroke="midnightblue" points="966.29,-469.5 976.29,-466 966.29,-462.5 966.29,-469.5"/>
</g>
<!-- Node10&#45;&gt;Node5 -->
<g id="edge12" class="edge">
<title>Node10&#45;&gt;Node5</title>
<path fill="none" stroke="midnightblue" d="M1037.01,-475.59C1051.07,-480.31 1068.21,-486.08 1083.37,-491.18"/>
<polygon fill="midnightblue" stroke="midnightblue" points="1082.4,-494.54 1092.99,-494.41 1084.63,-487.91 1082.4,-494.54"/>
</g>
<!-- Node12 -->
<g id="node12" class="node">
<title>Node12</title>
<g id="a_node12"><a xlink:href="lst__env_8c.html#a058c245b5f2ef22f9d2659f90e4d3537" target="_top" xlink:title=" ">
<polygon fill="none" stroke="black" points="696,-456.5 696,-475.5 754,-475.5 754,-456.5 696,-456.5"/>
<text text-anchor="middle" x="725" y="-463.5" font-family="Helvetica,sans-Serif" font-size="10.00">pop_env</text>
</a>
</g>
</g>
<!-- Node11&#45;&gt;Node12 -->
<g id="edge15" class="edge">
<title>Node11&#45;&gt;Node12</title>
<path fill="none" stroke="midnightblue" d="M623.6,-466C643.43,-466 666.69,-466 685.83,-466"/>
<polygon fill="midnightblue" stroke="midnightblue" points="685.99,-469.5 695.99,-466 685.99,-462.5 685.99,-469.5"/>
</g>
<!-- Node13&#45;&gt;Node7 -->
<g id="edge19" class="edge">
<title>Node13&#45;&gt;Node7</title>
<path fill="none" stroke="midnightblue" d="M190.85,-380.59C208.26,-389.69 236.13,-402.87 262,-409 351.41,-430.2 458.82,-431.81 522.58,-430.38"/>
<polygon fill="midnightblue" stroke="midnightblue" points="522.91,-433.87 532.81,-430.12 522.72,-426.88 522.91,-433.87"/>
</g>
<!-- Node13&#45;&gt;Node11 -->
<g id="edge20" class="edge">
<title>Node13&#45;&gt;Node11</title>
<path fill="none" stroke="midnightblue" d="M184.28,-380.72C200.06,-394.32 230.96,-418.64 262,-430 349.8,-462.12 459.7,-467.5 524.05,-467.46"/>
<polygon fill="midnightblue" stroke="midnightblue" points="524.38,-470.96 534.36,-467.41 524.35,-463.96 524.38,-470.96"/>
</g>
<!-- Node14 -->
<g id="node14" class="node">
<title>Node14</title>
<g id="a_node14"><a xlink:href="execution__node_8c.html#a74f4c34ebdc38c1fb50db2aa13f97b66" target="_top" xlink:title=" ">
<polygon fill="none" stroke="black" points="262,-304.5 262,-323.5 363,-323.5 363,-304.5 262,-304.5"/>
<text text-anchor="middle" x="312.5" y="-311.5" font-family="Helvetica,sans-Serif" font-size="10.00">check_accessible</text>
</a>
</g>
</g>
<!-- Node13&#45;&gt;Node14 -->
<g id="edge17" class="edge">
<title>Node13&#45;&gt;Node14</title>
<path fill="none" stroke="midnightblue" d="M202.12,-361.45C209.95,-358.62 218.38,-355.37 226,-352 242.55,-344.68 245.53,-340.48 262,-333 266.22,-331.09 270.69,-329.19 275.15,-327.38"/>
<polygon fill="midnightblue" stroke="midnightblue" points="276.78,-330.5 284.8,-323.58 274.21,-323.99 276.78,-330.5"/>
</g>
<!-- Node15 -->
<g id="node15" class="node">
<title>Node15</title>
<g id="a_node15"><a xlink:href="execution__node_8c.html#adc2c91230d4a0a1a1f98db2a888afcaa" target="_top" xlink:title="error message management for the specific case of execution">
<polygon fill="none" stroke="black" points="399,-266.5 399,-285.5 488,-285.5 488,-266.5 399,-266.5"/>
<text text-anchor="middle" x="443.5" y="-273.5" font-family="Helvetica,sans-Serif" font-size="10.00">message_error</text>
</a>
</g>
</g>
<!-- Node13&#45;&gt;Node15 -->
<g id="edge50" class="edge">
<title>Node13&#45;&gt;Node15</title>
<path fill="none" stroke="midnightblue" d="M209.91,-361.41C215.65,-358.92 221.24,-355.83 226,-352 249.35,-333.22 236.55,-310.82 262,-295 299.67,-271.58 350.49,-268.17 388.6,-269.85"/>
<polygon fill="midnightblue" stroke="midnightblue" points="388.81,-273.37 399,-270.44 389.21,-266.38 388.81,-273.37"/>
</g>
<!-- Node16 -->
<g id="node16" class="node">
<title>Node16</title>
<g id="a_node16"><a xlink:href="execution_8c.html#a3acc0bb56da881cc8609ca9e94ec8e93" target="_top" xlink:title="detect if it&#39;s a builtin with strncmp() but the real question is &quot;is it a builtin I have &#160;to launch i...">
<polygon fill="none" stroke="black" points="276,-228.5 276,-247.5 349,-247.5 349,-228.5 276,-228.5"/>
<text text-anchor="middle" x="312.5" y="-235.5" font-family="Helvetica,sans-Serif" font-size="10.00">is_it_builtin</text>
</a>
</g>
</g>
<!-- Node13&#45;&gt;Node16 -->
<g id="edge21" class="edge">
<title>Node13&#45;&gt;Node16</title>
<path fill="none" stroke="midnightblue" d="M211.88,-361.5C217.05,-359.02 221.96,-355.91 226,-352 256.97,-322.05 232.64,-293.52 262,-262 265.36,-258.39 269.38,-255.26 273.66,-252.56"/>
<polygon fill="midnightblue" stroke="midnightblue" points="275.59,-255.5 282.67,-247.62 272.22,-249.36 275.59,-255.5"/>
</g>
<!-- Node17 -->
<g id="node17" class="node">
<title>Node17</title>
<g id="a_node17"><a xlink:href="execution_8c.html#a7bee4f6fbfd70ef7ec1f52856538ac71" target="_top" xlink:title="launch the builtin &#160;&#160;some of them are not present because we have to fork() them why ?...">
<polygon fill="none" stroke="black" points="270,-133.5 270,-152.5 355,-152.5 355,-133.5 270,-133.5"/>
<text text-anchor="middle" x="312.5" y="-140.5" font-family="Helvetica,sans-Serif" font-size="10.00">launch_builtin</text>
</a>
</g>
</g>
<!-- Node13&#45;&gt;Node17 -->
<g id="edge22" class="edge">
<title>Node13&#45;&gt;Node17</title>
<path fill="none" stroke="midnightblue" d="M213.36,-361.37C218.07,-358.92 222.46,-355.85 226,-352 267.47,-306.94 236.98,-274.9 262,-219 271.48,-197.81 286.46,-175.83 297.45,-160.99"/>
<polygon fill="midnightblue" stroke="midnightblue" points="300.45,-162.83 303.7,-152.74 294.87,-158.6 300.45,-162.83"/>
</g>
<!-- Node38 -->
<g id="node38" class="node">
<title>Node38</title>
<g id="a_node38"><a xlink:href="lst__env__two_8c.html#aafcce0b2f2958645e84ae23b14116680" target="_top" xlink:title=" ">
<polygon fill="none" stroke="black" points="268.5,-380.5 268.5,-399.5 356.5,-399.5 356.5,-380.5 268.5,-380.5"/>
<text text-anchor="middle" x="312.5" y="-387.5" font-family="Helvetica,sans-Serif" font-size="10.00">lst_to_tab_env</text>
</a>
</g>
</g>
<!-- Node13&#45;&gt;Node38 -->
<g id="edge47" class="edge">
<title>Node13&#45;&gt;Node38</title>
<path fill="none" stroke="midnightblue" d="M219.07,-377.27C231.58,-379 245.26,-380.88 258.17,-382.66"/>
<polygon fill="midnightblue" stroke="midnightblue" points="257.94,-386.16 268.32,-384.05 258.89,-379.22 257.94,-386.16"/>
</g>
<!-- Node41 -->
<g id="node41" class="node">
<title>Node41</title>
<g id="a_node41"><a xlink:href="getenv_8c.html#a5d0cf05c2622983111dcfc0f179c5739" target="_top" xlink:title=" ">
<polygon fill="none" stroke="black" points="274.5,-342.5 274.5,-361.5 350.5,-361.5 350.5,-342.5 274.5,-342.5"/>
<text text-anchor="middle" x="312.5" y="-349.5" font-family="Helvetica,sans-Serif" font-size="10.00">search_path</text>
</a>
</g>
</g>
<!-- Node13&#45;&gt;Node41 -->
<g id="edge51" class="edge">
<title>Node13&#45;&gt;Node41</title>
<path fill="none" stroke="midnightblue" d="M219.07,-364.73C233.47,-362.74 249.42,-360.55 263.96,-358.55"/>
<polygon fill="midnightblue" stroke="midnightblue" points="264.83,-361.96 274.25,-357.13 263.87,-355.02 264.83,-361.96"/>
</g>
<!-- Node14&#45;&gt;Node15 -->
<g id="edge18" class="edge">
<title>Node14&#45;&gt;Node15</title>
<path fill="none" stroke="midnightblue" d="M346.05,-304.41C362.4,-299.6 382.41,-293.7 399.96,-288.53"/>
<polygon fill="midnightblue" stroke="midnightblue" points="401.35,-291.77 409.96,-285.59 399.38,-285.05 401.35,-291.77"/>
</g>
<!-- Node18 -->
<g id="node18" class="node">
<title>Node18</title>
<g id="a_node18"><a xlink:href="cd_8c.html#afa3cf8a1d55856208b8d44453d4cf9b4" target="_top" xlink:title=" ">
<polygon fill="none" stroke="black" points="429,-114.5 429,-133.5 458,-133.5 458,-114.5 429,-114.5"/>
<text text-anchor="middle" x="443.5" y="-121.5" font-family="Helvetica,sans-Serif" font-size="10.00">cd</text>
</a>
</g>
</g>
<!-- Node17&#45;&gt;Node18 -->
<g id="edge23" class="edge">
<title>Node17&#45;&gt;Node18</title>
<path fill="none" stroke="midnightblue" d="M355.03,-136.88C376.13,-133.78 401.01,-130.11 418.83,-127.49"/>
<polygon fill="midnightblue" stroke="midnightblue" points="419.53,-130.92 428.91,-126 418.51,-124 419.53,-130.92"/>
</g>
<!-- Node23 -->
<g id="node23" class="node">
<title>Node23</title>
<g id="a_node23"><a xlink:href="env_8c.html#a08aa1a32a4d2f6bcca10f6424195d4ef" target="_top" xlink:title=" ">
<polygon fill="none" stroke="black" points="426,-152.5 426,-171.5 461,-171.5 461,-152.5 426,-152.5"/>
<text text-anchor="middle" x="443.5" y="-159.5" font-family="Helvetica,sans-Serif" font-size="10.00">env</text>
</a>
</g>
</g>
<!-- Node17&#45;&gt;Node23 -->
<g id="edge28" class="edge">
<title>Node17&#45;&gt;Node23</title>
<path fill="none" stroke="midnightblue" d="M355.03,-149.12C374.91,-152.04 398.15,-155.47 415.67,-158.05"/>
<polygon fill="midnightblue" stroke="midnightblue" points="415.36,-161.54 425.76,-159.53 416.38,-154.61 415.36,-161.54"/>
</g>
<!-- Node24 -->
<g id="node24" class="node">
<title>Node24</title>
<g id="a_node24"><a xlink:href="export_8c.html#a1bb2544b6254ee4ddb592a4cfa61734f" target="_top" xlink:title=" ">
<polygon fill="none" stroke="black" points="408,-76.5 408,-95.5 479,-95.5 479,-76.5 408,-76.5"/>
<text text-anchor="middle" x="443.5" y="-83.5" font-family="Helvetica,sans-Serif" font-size="10.00">export_call</text>
</a>
</g>
</g>
<!-- Node17&#45;&gt;Node24 -->
<g id="edge29" class="edge">
<title>Node17&#45;&gt;Node24</title>
<path fill="none" stroke="midnightblue" d="M334.92,-133.44C352.2,-125.73 377.15,-114.63 399,-105 402.9,-103.28 407.01,-101.48 411.07,-99.7"/>
<polygon fill="midnightblue" stroke="midnightblue" points="412.6,-102.85 420.36,-95.64 409.79,-96.44 412.6,-102.85"/>
</g>
<!-- Node31 -->
<g id="node31" class="node">
<title>Node31</title>
<g id="a_node31"><a xlink:href="my__echo_8c.html#a5522916069f77552d810e207670e3170" target="_top" xlink:title=" ">
<polygon fill="none" stroke="black" points="413,-0.5 413,-19.5 474,-19.5 474,-0.5 413,-0.5"/>
<text text-anchor="middle" x="443.5" y="-7.5" font-family="Helvetica,sans-Serif" font-size="10.00">my_echo</text>
</a>
</g>
</g>
<!-- Node17&#45;&gt;Node31 -->
<g id="edge37" class="edge">
<title>Node17&#45;&gt;Node31</title>
<path fill="none" stroke="midnightblue" d="M318.41,-133.43C329.84,-112.02 360.2,-59.71 399,-29 401.04,-27.39 403.23,-25.89 405.51,-24.49"/>
<polygon fill="midnightblue" stroke="midnightblue" points="407.43,-27.43 414.6,-19.63 404.13,-21.26 407.43,-27.43"/>
</g>
<!-- Node33 -->
<g id="node33" class="node">
<title>Node33</title>
<g id="a_node33"><a xlink:href="exit_8c.html#adcbec3416f97b2d0b8d53cf4c2b2a436" target="_top" xlink:title=" ">
<polygon fill="none" stroke="black" points="415.5,-228.5 415.5,-247.5 471.5,-247.5 471.5,-228.5 415.5,-228.5"/>
<text text-anchor="middle" x="443.5" y="-235.5" font-family="Helvetica,sans-Serif" font-size="10.00">my_exit</text>
</a>
</g>
</g>
<!-- Node17&#45;&gt;Node33 -->
<g id="edge39" class="edge">
<title>Node17&#45;&gt;Node33</title>
<path fill="none" stroke="midnightblue" d="M322.68,-152.98C337.52,-168.66 368.22,-199.3 399,-219 401.78,-220.78 404.75,-222.46 407.78,-224.04"/>
<polygon fill="midnightblue" stroke="midnightblue" points="406.43,-227.28 416.96,-228.45 409.46,-220.96 406.43,-227.28"/>
</g>
<!-- Node35 -->
<g id="node35" class="node">
<title>Node35</title>
<g id="a_node35"><a xlink:href="pwd_8c.html#ac6977235be2514ba716ef89aad796063" target="_top" xlink:title=" ">
<polygon fill="none" stroke="black" points="425,-190.5 425,-209.5 462,-209.5 462,-190.5 425,-190.5"/>
<text text-anchor="middle" x="443.5" y="-197.5" font-family="Helvetica,sans-Serif" font-size="10.00">pwd</text>
</a>
</g>
</g>
<!-- Node17&#45;&gt;Node35 -->
<g id="edge44" class="edge">
<title>Node17&#45;&gt;Node35</title>
<path fill="none" stroke="midnightblue" d="M334.92,-152.56C352.2,-160.27 377.15,-171.37 399,-181 404.28,-183.33 409.92,-185.8 415.34,-188.17"/>
<polygon fill="midnightblue" stroke="midnightblue" points="414.15,-191.47 424.71,-192.26 416.95,-185.05 414.15,-191.47"/>
</g>
<!-- Node36 -->
<g id="node36" class="node">
<title>Node36</title>
<g id="a_node36"><a xlink:href="unset_8c.html#abcfd4d5a4f0408bdc748ce044e5ce08c" target="_top" xlink:title=" ">
<polygon fill="none" stroke="black" points="410.5,-38.5 410.5,-57.5 476.5,-57.5 476.5,-38.5 410.5,-38.5"/>
<text text-anchor="middle" x="443.5" y="-45.5" font-family="Helvetica,sans-Serif" font-size="10.00">unset_call</text>
</a>
</g>
</g>
<!-- Node17&#45;&gt;Node36 -->
<g id="edge45" class="edge">
<title>Node17&#45;&gt;Node36</title>
<path fill="none" stroke="midnightblue" d="M322.68,-133.02C337.52,-117.34 368.22,-86.7 399,-67 401.78,-65.22 404.75,-63.54 407.78,-61.96"/>
<polygon fill="midnightblue" stroke="midnightblue" points="409.46,-65.04 416.96,-57.55 406.43,-58.72 409.46,-65.04"/>
</g>
<!-- Node19 -->
<g id="node19" class="node">
<title>Node19</title>
<g id="a_node19"><a xlink:href="cd_8c.html#a7593627e795ae769b5117673b60846c9" target="_top" xlink:title=" ">
<polygon fill="none" stroke="black" points="563,-152.5 563,-171.5 595,-171.5 595,-152.5 563,-152.5"/>
<text text-anchor="middle" x="579" y="-159.5" font-family="Helvetica,sans-Serif" font-size="10.00">len</text>
</a>
</g>
</g>
<!-- Node18&#45;&gt;Node19 -->
<g id="edge24" class="edge">
<title>Node18&#45;&gt;Node19</title>
<path fill="none" stroke="midnightblue" d="M458.28,-127.92C480.61,-134.28 525.01,-146.92 553.02,-154.89"/>
<polygon fill="midnightblue" stroke="midnightblue" points="552.29,-158.32 562.87,-157.69 554.21,-151.59 552.29,-158.32"/>
</g>
<!-- Node20 -->
<g id="node20" class="node">
<title>Node20</title>
<g id="a_node20"><a xlink:href="lst__env__two_8c.html#a4d4a14327b2c3ff88099102b6bd77986" target="_top" xlink:title=" ">
<polygon fill="none" stroke="black" points="527,-190.5 527,-209.5 631,-209.5 631,-190.5 527,-190.5"/>
<text text-anchor="middle" x="579" y="-197.5" font-family="Helvetica,sans-Serif" font-size="10.00">research_key_env</text>
</a>
</g>
</g>
<!-- Node18&#45;&gt;Node20 -->
<g id="edge25" class="edge">
<title>Node18&#45;&gt;Node20</title>
<path fill="none" stroke="midnightblue" d="M458.17,-128.37C467.12,-131.6 478.83,-136.56 488,-143 507.04,-156.37 504.48,-168.34 524,-181 527.1,-183.01 530.44,-184.84 533.88,-186.49"/>
<polygon fill="midnightblue" stroke="midnightblue" points="532.58,-189.74 543.15,-190.48 535.35,-183.31 532.58,-189.74"/>
</g>
<!-- Node21 -->
<g id="node21" class="node">
<title>Node21</title>
<g id="a_node21"><a xlink:href="cd_8c.html#a68bb8beb2cf13bb992af8322f31f94e7" target="_top" xlink:title=" ">
<polygon fill="none" stroke="black" points="687,-114.5 687,-133.5 763,-133.5 763,-114.5 687,-114.5"/>
<text text-anchor="middle" x="725" y="-121.5" font-family="Helvetica,sans-Serif" font-size="10.00">update_pwd</text>
</a>
</g>
</g>
<!-- Node18&#45;&gt;Node21 -->
<g id="edge26" class="edge">
<title>Node18&#45;&gt;Node21</title>
<path fill="none" stroke="midnightblue" d="M458.36,-124C497.78,-124 611.86,-124 676.98,-124"/>
<polygon fill="midnightblue" stroke="midnightblue" points="677,-127.5 687,-124 677,-120.5 677,-127.5"/>
</g>
<!-- Node22 -->
<g id="node22" class="node">
<title>Node22</title>
<g id="a_node22"><a xlink:href="export_8c.html#a8cd6579fc3858072521e55ef235a2637" target="_top" xlink:title=" ">
<polygon fill="none" stroke="black" points="816,-105.5 816,-124.5 927,-124.5 927,-105.5 816,-105.5"/>
<text text-anchor="middle" x="871.5" y="-112.5" font-family="Helvetica,sans-Serif" font-size="10.00">research_node_env</text>
</a>
</g>
</g>
<!-- Node21&#45;&gt;Node22 -->
<g id="edge27" class="edge">
<title>Node21&#45;&gt;Node22</title>
<path fill="none" stroke="midnightblue" d="M763.21,-121.68C776.26,-120.87 791.31,-119.93 805.94,-119.02"/>
<polygon fill="midnightblue" stroke="midnightblue" points="806.21,-122.51 815.97,-118.4 805.78,-115.52 806.21,-122.51"/>
</g>
<!-- Node25 -->
<g id="node25" class="node">
<title>Node25</title>
<g id="a_node25"><a xlink:href="export_8c.html#a63ef72e778f2b52c924bf77ae989dc80" target="_top" xlink:title=" ">
<polygon fill="none" stroke="black" points="555,-76.5 555,-95.5 603,-95.5 603,-76.5 555,-76.5"/>
<text text-anchor="middle" x="579" y="-83.5" font-family="Helvetica,sans-Serif" font-size="10.00">export</text>
</a>
</g>
</g>
<!-- Node24&#45;&gt;Node25 -->
<g id="edge30" class="edge">
<title>Node24&#45;&gt;Node25</title>
<path fill="none" stroke="midnightblue" d="M479.23,-86C499.4,-86 524.68,-86 544.62,-86"/>
<polygon fill="midnightblue" stroke="midnightblue" points="544.79,-89.5 554.79,-86 544.79,-82.5 544.79,-89.5"/>
</g>
<!-- Node26 -->
<g id="node26" class="node">
<title>Node26</title>
<g id="a_node26"><a xlink:href="export_8c.html#a077edb8749298d8320620813ff84519c" target="_top" xlink:title=" ">
<polygon fill="none" stroke="black" points="670,-76.5 670,-95.5 780,-95.5 780,-76.5 670,-76.5"/>
<text text-anchor="middle" x="725" y="-83.5" font-family="Helvetica,sans-Serif" font-size="10.00">check_validity_key</text>
</a>
</g>
</g>
<!-- Node25&#45;&gt;Node26 -->
<g id="edge31" class="edge">
<title>Node25&#45;&gt;Node26</title>
<path fill="none" stroke="midnightblue" d="M603.14,-86C618.51,-86 639.5,-86 659.68,-86"/>
<polygon fill="midnightblue" stroke="midnightblue" points="659.81,-89.5 669.81,-86 659.81,-82.5 659.81,-89.5"/>
</g>
<!-- Node27 -->
<g id="node27" class="node">
<title>Node27</title>
<g id="a_node27"><a xlink:href="export_8c.html#a90ff129fee9412bd5c6d74be5970b99f" target="_top" xlink:title=" ">
<polygon fill="none" stroke="black" points="670,-38.5 670,-57.5 780,-57.5 780,-38.5 670,-38.5"/>
<text text-anchor="middle" x="725" y="-45.5" font-family="Helvetica,sans-Serif" font-size="10.00">export_env_update</text>
</a>
</g>
</g>
<!-- Node25&#45;&gt;Node27 -->
<g id="edge32" class="edge">
<title>Node25&#45;&gt;Node27</title>
<path fill="none" stroke="midnightblue" d="M603.14,-79.89C623.35,-74.56 653.29,-66.66 678.32,-60.06"/>
<polygon fill="midnightblue" stroke="midnightblue" points="679.21,-63.44 687.99,-57.5 677.43,-56.67 679.21,-63.44"/>
</g>
<!-- Node27&#45;&gt;Node22 -->
<g id="edge36" class="edge">
<title>Node27&#45;&gt;Node22</title>
<path fill="none" stroke="midnightblue" d="M755.74,-57.57C763.71,-60.38 772.26,-63.61 780,-67 802.54,-76.88 827.16,-90.1 845.02,-100.17"/>
<polygon fill="midnightblue" stroke="midnightblue" points="843.77,-103.48 854.19,-105.39 847.23,-97.4 843.77,-103.48"/>
</g>
<!-- Node28 -->
<g id="node28" class="node">
<title>Node28</title>
<g id="a_node28"><a xlink:href="lst__env_8c.html#a9c375db3cbfe2e87b52bae7ee7472eae" target="_top" xlink:title=" ">
<polygon fill="none" stroke="black" points="821.5,-48.5 821.5,-67.5 921.5,-67.5 921.5,-48.5 821.5,-48.5"/>
<text text-anchor="middle" x="871.5" y="-55.5" font-family="Helvetica,sans-Serif" font-size="10.00">create_node_env</text>
</a>
</g>
</g>
<!-- Node27&#45;&gt;Node28 -->
<g id="edge33" class="edge">
<title>Node27&#45;&gt;Node28</title>
<path fill="none" stroke="midnightblue" d="M780.22,-51.75C790.31,-52.45 800.9,-53.18 811.14,-53.89"/>
<polygon fill="midnightblue" stroke="midnightblue" points="811,-57.39 821.22,-54.59 811.49,-50.41 811,-57.39"/>
</g>
<!-- Node29 -->
<g id="node29" class="node">
<title>Node29</title>
<g id="a_node29"><a xlink:href="lst__env_8c.html#a5976d1b2a8159220749fac94a83d5c95" target="_top" xlink:title=" ">
<polygon fill="none" stroke="black" points="825.5,-10.5 825.5,-29.5 917.5,-29.5 917.5,-10.5 825.5,-10.5"/>
<text text-anchor="middle" x="871.5" y="-17.5" font-family="Helvetica,sans-Serif" font-size="10.00">push_back_env</text>
</a>
</g>
</g>
<!-- Node27&#45;&gt;Node29 -->
<g id="edge34" class="edge">
<title>Node27&#45;&gt;Node29</title>
<path fill="none" stroke="midnightblue" d="M775.32,-38.44C788.22,-35.94 802.21,-33.23 815.39,-30.68"/>
<polygon fill="midnightblue" stroke="midnightblue" points="816.13,-34.1 825.28,-28.76 814.8,-27.23 816.13,-34.1"/>
</g>
<!-- Node30 -->
<g id="node30" class="node">
<title>Node30</title>
<g id="a_node30"><a xlink:href="env__utils_8c.html#ac7b3f84bb622bdf477616c5b0022f035" target="_top" xlink:title=" ">
<polygon fill="none" stroke="black" points="968,-10.5 968,-29.5 1047,-29.5 1047,-10.5 968,-10.5"/>
<text text-anchor="middle" x="1007.5" y="-17.5" font-family="Helvetica,sans-Serif" font-size="10.00">get_last_env</text>
</a>
</g>
</g>
<!-- Node29&#45;&gt;Node30 -->
<g id="edge35" class="edge">
<title>Node29&#45;&gt;Node30</title>
<path fill="none" stroke="midnightblue" d="M917.87,-20C930.69,-20 944.69,-20 957.71,-20"/>
<polygon fill="midnightblue" stroke="midnightblue" points="957.89,-23.5 967.89,-20 957.89,-16.5 957.89,-23.5"/>
</g>
<!-- Node32 -->
<g id="node32" class="node">
<title>Node32</title>
<g id="a_node32"><a xlink:href="my__echo_8c.html#a7c657de7306d33ae5cdab2bf43f35ae1" target="_top" xlink:title=" ">
<polygon fill="none" stroke="black" points="524,-0.5 524,-19.5 634,-19.5 634,-0.5 524,-0.5"/>
<text text-anchor="middle" x="579" y="-7.5" font-family="Helvetica,sans-Serif" font-size="10.00">check_option_echo</text>
</a>
</g>
</g>
<!-- Node31&#45;&gt;Node32 -->
<g id="edge38" class="edge">
<title>Node31&#45;&gt;Node32</title>
<path fill="none" stroke="midnightblue" d="M474.13,-10C485.87,-10 499.87,-10 513.72,-10"/>
<polygon fill="midnightblue" stroke="midnightblue" points="513.74,-13.5 523.74,-10 513.74,-6.5 513.74,-13.5"/>
</g>
<!-- Node33&#45;&gt;Node7 -->
<g id="edge41" class="edge">
<title>Node33&#45;&gt;Node7</title>
<path fill="none" stroke="midnightblue" d="M471.52,-246.43C477.42,-249.15 483.29,-252.62 488,-257 534.78,-300.5 561.76,-373.88 572.51,-408.63"/>
<polygon fill="midnightblue" stroke="midnightblue" points="569.23,-409.89 575.44,-418.47 575.94,-407.89 569.23,-409.89"/>
</g>
<!-- Node33&#45;&gt;Node11 -->
<g id="edge42" class="edge">
<title>Node33&#45;&gt;Node11</title>
<path fill="none" stroke="midnightblue" d="M471.63,-245.08C477.81,-247.87 483.79,-251.72 488,-257 541.58,-324.2 467.99,-381.81 524,-447 525.14,-448.32 526.37,-449.55 527.68,-450.7"/>
<polygon fill="midnightblue" stroke="midnightblue" points="525.7,-453.58 535.93,-456.36 529.67,-447.81 525.7,-453.58"/>
</g>
<!-- Node33&#45;&gt;Node19 -->
<g id="edge43" class="edge">
<title>Node33&#45;&gt;Node19</title>
<path fill="none" stroke="midnightblue" d="M471.17,-228.37C476.96,-225.74 482.87,-222.6 488,-219 507.04,-205.63 504.48,-193.66 524,-181 532.82,-175.28 543.56,-171.04 553.14,-168.04"/>
<polygon fill="midnightblue" stroke="midnightblue" points="554.27,-171.36 562.93,-165.26 552.35,-164.63 554.27,-171.36"/>
</g>
<!-- Node34 -->
<g id="node34" class="node">
<title>Node34</title>
<g id="a_node34"><a xlink:href="exit_8c.html#a7e369b4894a31549c9b65f718e28823f" target="_top" xlink:title=" ">
<polygon fill="none" stroke="black" points="544.5,-228.5 544.5,-247.5 613.5,-247.5 613.5,-228.5 544.5,-228.5"/>
<text text-anchor="middle" x="579" y="-235.5" font-family="Helvetica,sans-Serif" font-size="10.00">check_exit</text>
</a>
</g>
</g>
<!-- Node33&#45;&gt;Node34 -->
<g id="edge40" class="edge">
<title>Node33&#45;&gt;Node34</title>
<path fill="none" stroke="midnightblue" d="M471.52,-238C489.5,-238 513.55,-238 534.23,-238"/>
<polygon fill="midnightblue" stroke="midnightblue" points="534.39,-241.5 544.39,-238 534.39,-234.5 534.39,-241.5"/>
</g>
<!-- Node37 -->
<g id="node37" class="node">
<title>Node37</title>
<g id="a_node37"><a xlink:href="unset_8c.html#a4b3bbc6cfa6ff293119825a11324fb9f" target="_top" xlink:title=" ">
<polygon fill="none" stroke="black" points="557,-38.5 557,-57.5 601,-57.5 601,-38.5 557,-38.5"/>
<text text-anchor="middle" x="579" y="-45.5" font-family="Helvetica,sans-Serif" font-size="10.00">unset</text>
</a>
</g>
</g>
<!-- Node36&#45;&gt;Node37 -->
<g id="edge46" class="edge">
<title>Node36&#45;&gt;Node37</title>
<path fill="none" stroke="midnightblue" d="M476.82,-48C498.07,-48 525.75,-48 546.78,-48"/>
<polygon fill="midnightblue" stroke="midnightblue" points="546.81,-51.5 556.81,-48 546.81,-44.5 546.81,-51.5"/>
</g>
<!-- Node39 -->
<g id="node39" class="node">
<title>Node39</title>
<g id="a_node39"><a xlink:href="env__utils_8c.html#a7cc35c974bce053dbba1c1ec1028f36b" target="_top" xlink:title=" ">
<polygon fill="none" stroke="black" points="405,-380.5 405,-399.5 482,-399.5 482,-380.5 405,-380.5"/>
<text text-anchor="middle" x="443.5" y="-387.5" font-family="Helvetica,sans-Serif" font-size="10.00">env_lst_size</text>
</a>
</g>
</g>
<!-- Node38&#45;&gt;Node39 -->
<g id="edge48" class="edge">
<title>Node38&#45;&gt;Node39</title>
<path fill="none" stroke="midnightblue" d="M356.81,-390C368.94,-390 382.18,-390 394.56,-390"/>
<polygon fill="midnightblue" stroke="midnightblue" points="394.7,-393.5 404.7,-390 394.7,-386.5 394.7,-393.5"/>
</g>
<!-- Node40 -->
<g id="node40" class="node">
<title>Node40</title>
<g id="a_node40"><a xlink:href="getenv_8c.html#a0250cce1862c20e31d0c0ece960bc3a0" target="_top" xlink:title=" ">
<polygon fill="none" stroke="black" points="412.5,-342.5 412.5,-361.5 474.5,-361.5 474.5,-342.5 412.5,-342.5"/>
<text text-anchor="middle" x="443.5" y="-349.5" font-family="Helvetica,sans-Serif" font-size="10.00">join_path</text>
</a>
</g>
</g>
<!-- Node38&#45;&gt;Node40 -->
<g id="edge49" class="edge">
<title>Node38&#45;&gt;Node40</title>
<path fill="none" stroke="midnightblue" d="M346.05,-380.41C363.18,-375.37 384.33,-369.13 402.46,-363.79"/>
<polygon fill="midnightblue" stroke="midnightblue" points="403.57,-367.12 412.17,-360.93 401.59,-360.4 403.57,-367.12"/>
</g>
<!-- Node41&#45;&gt;Node20 -->
<g id="edge53" class="edge">
<title>Node41&#45;&gt;Node20</title>
<path fill="none" stroke="midnightblue" d="M350.89,-343.47C395.73,-332.62 467.43,-313.12 488,-295 516.05,-270.3 496.23,-244.02 524,-219 525.74,-217.43 527.62,-215.99 529.59,-214.67"/>
<polygon fill="midnightblue" stroke="midnightblue" points="531.7,-217.5 538.74,-209.59 528.3,-211.38 531.7,-217.5"/>
</g>
<!-- Node41&#45;&gt;Node40 -->
<g id="edge52" class="edge">
<title>Node41&#45;&gt;Node40</title>
<path fill="none" stroke="midnightblue" d="M350.81,-352C366.8,-352 385.53,-352 401.87,-352"/>
<polygon fill="midnightblue" stroke="midnightblue" points="402.21,-355.5 412.21,-352 402.21,-348.5 402.21,-355.5"/>
</g>
</g>
</svg>
        <g id="navigator" transform="translate(0 0)" fill="#404254">
                <rect fill="#f2f5e9" fill-opacity="0.5" stroke="#606060" stroke-width=".5" x="0" y="0" width="60" height="60"/>
                <use id="zoomplus" xlink:href="#zoomPlus" x="17" y="9" onmousedown="handleZoom(evt,'in')"/>
                <use id="zoomminus" xlink:href="#zoomMin" x="42" y="9" onmousedown="handleZoom(evt,'out')"/>
                <use id="reset" xlink:href="#resetDef" x="30" y="36" onmousedown="handleReset()"/>
                <g id="arrowUp" xlink:href="#dirArrow" transform="translate(30 24)" onmousedown="handlePan(0,-1)">
                  <use xlink:href="#rim" fill="#404040">
                        <set attributeName="fill" to="#808080" begin="arrowUp.mouseover" end="arrowUp.mouseout"/>
                  </use>
                  <path fill="none" stroke="white" stroke-width="1.5" d="M0,-3.0v7 M-2.5,-0.5L0,-3.0L2.5,-0.5"/>
                </g>
                <g id="arrowRight" xlink:href="#dirArrow" transform="rotate(90) translate(36 -43)" onmousedown="handlePan(1,0)">
                  <use xlink:href="#rim" fill="#404040">
                        <set attributeName="fill" to="#808080" begin="arrowRight.mouseover" end="arrowRight.mouseout"/>
                  </use>
                  <path fill="none" stroke="white" stroke-width="1.5" d="M0,-3.0v7 M-2.5,-0.5L0,-3.0L2.5,-0.5"/>
                </g>
                <g id="arrowDown" xlink:href="#dirArrow" transform="rotate(180) translate(-30 -48)" onmousedown="handlePan(0,1)">
                  <use xlink:href="#rim" fill="#404040">
                        <set attributeName="fill" to="#808080" begin="arrowDown.mouseover" end="arrowDown.mouseout"/>
                  </use>
                  <path fill="none" stroke="white" stroke-width="1.5" d="M0,-3.0v7 M-2.5,-0.5L0,-3.0L2.5,-0.5"/>
                </g>
                <g id="arrowLeft" xlink:href="#dirArrow" transform="rotate(270) translate(-36 17)" onmousedown="handlePan(-1,0)">
                  <use xlink:href="#rim" fill="#404040">
                        <set attributeName="fill" to="#808080" begin="arrowLeft.mouseover" end="arrowLeft.mouseout"/>
                  </use>
                  <path fill="none" stroke="white" stroke-width="1.5" d="M0,-3.0v7 M-2.5,-0.5L0,-3.0L2.5,-0.5"/>
                </g>
        </g>
        <svg viewBox="0 0 15 15" width="100%" height="30px" preserveAspectRatio="xMaxYMin meet">
         <g id="arrow_out" transform="scale(0.3 0.3)">
          <a xlink:href="minishell_8h_a626a34649e53cefe0d224c9ae5ccb5b6_cgraph_org.svg" target="_base">
           <rect id="button" ry="5" rx="5" y="6" x="6" height="38" width="38"
                fill="#f2f5e9" fill-opacity="0.5" stroke="#606060" stroke-width="1.0"/>
           <path id="arrow"
             d="M 11.500037,31.436501 C 11.940474,20.09759 22.043105,11.32322 32.158766,21.979434 L 37.068811,17.246167 C 37.068811,17.246167 37.088388,32 37.088388,32 L 22.160133,31.978069 C 22.160133,31.978069 26.997745,27.140456 26.997745,27.140456 C 18.528582,18.264221 13.291696,25.230495 11.500037,31.436501 z"
             style="fill:#404040;"/>
          </a>
         </g>
        </svg>
</svg>
