<?xml version="1.0" encoding="UTF-8" standalone="no"?>
<!DOCTYPE svg PUBLIC "-//W3C//DTD SVG 1.1//EN"
 "http://www.w3.org/Graphics/SVG/1.1/DTD/svg11.dtd">
<!-- Generated by graphviz version 2.43.0 (0)
 -->
<!-- Title: search_path Pages: 1 -->
<svg width="224pt" height="66pt"
 viewBox="0.00 0.00 224.00 66.00" xmlns="http://www.w3.org/2000/svg" xmlns:xlink="http://www.w3.org/1999/xlink">
<g id="graph0" class="graph" transform="scale(1 1) rotate(0) translate(4 62)">
<title>search_path</title>
<!-- Node1 -->
<g id="node1" class="node">
<title>Node1</title>
<g id="a_node1"><a xlink:title=" ">
<polygon fill="#bfbfbf" stroke="black" points="0,-19.5 0,-38.5 76,-38.5 76,-19.5 0,-19.5"/>
<text text-anchor="middle" x="38" y="-26.5" font-family="Helvetica,sans-Serif" font-size="10.00">search_path</text>
</a>
</g>
</g>
<!-- Node2 -->
<g id="node2" class="node">
<title>Node2</title>
<g id="a_node2"><a xlink:href="getenv_8c.html#a0250cce1862c20e31d0c0ece960bc3a0" target="_top" xlink:title=" ">
<polygon fill="none" stroke="black" points="133,-38.5 133,-57.5 195,-57.5 195,-38.5 133,-38.5"/>
<text text-anchor="middle" x="164" y="-45.5" font-family="Helvetica,sans-Serif" font-size="10.00">join_path</text>
</a>
</g>
</g>
<!-- Node1&#45;&gt;Node2 -->
<g id="edge1" class="edge">
<title>Node1&#45;&gt;Node2</title>
<path fill="none" stroke="midnightblue" d="M76.2,-34.7C90.93,-36.96 107.88,-39.55 122.88,-41.85"/>
<polygon fill="midnightblue" stroke="midnightblue" points="122.48,-45.33 132.9,-43.39 123.54,-38.41 122.48,-45.33"/>
</g>
<!-- Node3 -->
<g id="node3" class="node">
<title>Node3</title>
<g id="a_node3"><a xlink:href="lst__env__two_8c.html#a4d4a14327b2c3ff88099102b6bd77986" target="_top" xlink:title=" ">
<polygon fill="none" stroke="black" points="112,-0.5 112,-19.5 216,-19.5 216,-0.5 112,-0.5"/>
<text text-anchor="middle" x="164" y="-7.5" font-family="Helvetica,sans-Serif" font-size="10.00">research_key_env</text>
</a>
</g>
</g>
<!-- Node1&#45;&gt;Node3 -->
<g id="edge2" class="edge">
<title>Node1&#45;&gt;Node3</title>
<path fill="none" stroke="midnightblue" d="M76.2,-23.3C84.2,-22.07 92.86,-20.75 101.51,-19.42"/>
<polygon fill="midnightblue" stroke="midnightblue" points="102.25,-22.85 111.61,-17.87 101.19,-15.93 102.25,-22.85"/>
</g>
</g>
</svg>
