<?xml version="1.0" encoding="UTF-8" standalone="no"?>
<!DOCTYPE svg PUBLIC "-//W3C//DTD SVG 1.1//EN"
 "http://www.w3.org/Graphics/SVG/1.1/DTD/svg11.dtd">
<!-- Generated by graphviz version 2.43.0 (0)
 -->
<!-- Title: pop_cmd Pages: 1 -->
<svg width="1276pt" height="246pt"
 viewBox="0.00 0.00 1276.00 246.00" xmlns="http://www.w3.org/2000/svg" xmlns:xlink="http://www.w3.org/1999/xlink">
<g id="graph0" class="graph" transform="scale(1 1) rotate(0) translate(4 242)">
<title>pop_cmd</title>
<!-- Node1 -->
<g id="node1" class="node">
<title>Node1</title>
<g id="a_node1"><a xlink:title=" ">
<polygon fill="#bfbfbf" stroke="black" points="1207,-114.5 1207,-133.5 1268,-133.5 1268,-114.5 1207,-114.5"/>
<text text-anchor="middle" x="1237.5" y="-121.5" font-family="Helvetica,sans-Serif" font-size="10.00">pop_cmd</text>
</a>
</g>
</g>
<!-- Node2 -->
<g id="node2" class="node">
<title>Node2</title>
<g id="a_node2"><a xlink:href="lst__cmd2_8c.html#a132395876bb5a7cfe926b9e37571a1e3" target="_top" xlink:title=" ">
<polygon fill="none" stroke="black" points="1079,-114.5 1079,-133.5 1171,-133.5 1171,-114.5 1079,-114.5"/>
<text text-anchor="middle" x="1125" y="-121.5" font-family="Helvetica,sans-Serif" font-size="10.00">destructor_cmd</text>
</a>
</g>
</g>
<!-- Node1&#45;&gt;Node2 -->
<g id="edge1" class="edge">
<title>Node1&#45;&gt;Node2</title>
<path fill="none" stroke="midnightblue" d="M1196.7,-124C1188.39,-124 1179.57,-124 1171.09,-124"/>
<polygon fill="midnightblue" stroke="midnightblue" points="1196.89,-127.5 1206.89,-124 1196.89,-120.5 1196.89,-127.5"/>
</g>
<!-- Node3 -->
<g id="node3" class="node">
<title>Node3</title>
<g id="a_node3"><a xlink:href="heredoc_8c.html#a98f0cdaa70ea9d777053df568b66e32a" target="_top" xlink:title="origin of creation ; the norm what it is doing ? juste close the fd the right way if we encounter the...">
<polygon fill="none" stroke="black" points="787,-152.5 787,-171.5 900,-171.5 900,-152.5 787,-152.5"/>
<text text-anchor="middle" x="843.5" y="-159.5" font-family="Helvetica,sans-Serif" font-size="10.00">child_work_heredoc</text>
</a>
</g>
</g>
<!-- Node2&#45;&gt;Node3 -->
<g id="edge2" class="edge">
<title>Node2&#45;&gt;Node3</title>
<path fill="none" stroke="midnightblue" d="M1078.14,-135.89C1066.72,-138.54 1054.46,-141.12 1043,-143 995.17,-150.86 940.29,-155.81 900.38,-158.67"/>
<polygon fill="midnightblue" stroke="midnightblue" points="1079,-139.29 1087.92,-133.56 1077.38,-132.48 1079,-139.29"/>
</g>
<!-- Node8 -->
<g id="node8" class="node">
<title>Node8</title>
<g id="a_node8"><a xlink:href="main_8c.html#a647f21a28344e1d9c643f4115516d7c9" target="_top" xlink:title=" ">
<polygon fill="none" stroke="black" points="0,-133.5 0,-152.5 41,-152.5 41,-133.5 0,-133.5"/>
<text text-anchor="middle" x="20.5" y="-140.5" font-family="Helvetica,sans-Serif" font-size="10.00">main</text>
</a>
</g>
</g>
<!-- Node2&#45;&gt;Node8 -->
<g id="edge13" class="edge">
<title>Node2&#45;&gt;Node8</title>
<path fill="none" stroke="midnightblue" d="M1107.25,-140.78C1091.82,-155.31 1067.64,-175.86 1043,-188 961.39,-228.2 935.48,-238 844.5,-238 844.5,-238 844.5,-238 215.5,-238 138.62,-238 60.47,-177.08 32.38,-152.81"/>
<polygon fill="midnightblue" stroke="midnightblue" points="1109.71,-143.27 1114.47,-133.8 1104.85,-138.23 1109.71,-143.27"/>
</g>
<!-- Node10 -->
<g id="node10" class="node">
<title>Node10</title>
<g id="a_node10"><a xlink:href="multipipe_8c.html#a461ae962ce9a1aee7221ac4b9c581f98" target="_top" xlink:title=" ">
<polygon fill="none" stroke="black" points="515,-190.5 515,-209.5 598,-209.5 598,-190.5 515,-190.5"/>
<text text-anchor="middle" x="556.5" y="-197.5" font-family="Helvetica,sans-Serif" font-size="10.00">execute_child</text>
</a>
</g>
</g>
<!-- Node2&#45;&gt;Node10 -->
<g id="edge10" class="edge">
<title>Node2&#45;&gt;Node10</title>
<path fill="none" stroke="midnightblue" d="M1099.19,-138.55C1083.57,-147.03 1062.71,-157.18 1043,-163 883.69,-210.02 682.9,-206.65 598.17,-202.55"/>
<polygon fill="midnightblue" stroke="midnightblue" points="1101.15,-141.46 1108.18,-133.53 1097.74,-135.35 1101.15,-141.46"/>
</g>
<!-- Node12 -->
<g id="node12" class="node">
<title>Node12</title>
<g id="a_node12"><a xlink:href="exit_8c.html#adcbec3416f97b2d0b8d53cf4c2b2a436" target="_top" xlink:title=" ">
<polygon fill="none" stroke="black" points="961.5,-76.5 961.5,-95.5 1017.5,-95.5 1017.5,-76.5 961.5,-76.5"/>
<text text-anchor="middle" x="989.5" y="-83.5" font-family="Helvetica,sans-Serif" font-size="10.00">my_exit</text>
</a>
</g>
</g>
<!-- Node2&#45;&gt;Node12 -->
<g id="edge14" class="edge">
<title>Node2&#45;&gt;Node12</title>
<path fill="none" stroke="midnightblue" d="M1080.51,-111.62C1059.9,-105.75 1035.92,-98.93 1017.89,-93.8"/>
<polygon fill="midnightblue" stroke="midnightblue" points="1079.74,-115.04 1090.31,-114.41 1081.65,-108.31 1079.74,-115.04"/>
</g>
<!-- Node15 -->
<g id="node15" class="node">
<title>Node15</title>
<g id="a_node15"><a xlink:href="execution_8c.html#aa6f3ac2f0c10538c125eafcb587fd021" target="_top" xlink:title="in this function we do the fork to create a child process we do the redirection if we need to">
<polygon fill="none" stroke="black" points="492.5,-76.5 492.5,-95.5 620.5,-95.5 620.5,-76.5 492.5,-76.5"/>
<text text-anchor="middle" x="556.5" y="-83.5" font-family="Helvetica,sans-Serif" font-size="10.00">one_command_execve</text>
</a>
</g>
</g>
<!-- Node2&#45;&gt;Node15 -->
<g id="edge21" class="edge">
<title>Node2&#45;&gt;Node15</title>
<path fill="none" stroke="midnightblue" d="M1107.06,-107.29C1091.76,-93.47 1067.9,-74.88 1043,-67 881.96,-16.02 675.79,-56.42 593.63,-76.44"/>
<polygon fill="midnightblue" stroke="midnightblue" points="1104.93,-110.1 1114.62,-114.38 1109.72,-104.99 1104.93,-110.1"/>
</g>
<!-- Node16 -->
<g id="node16" class="node">
<title>Node16</title>
<g id="a_node16"><a xlink:href="error_8c.html#a193034f887c71fdb2486835d8cbd9dd3" target="_top" xlink:title=" ">
<polygon fill="none" stroke="black" points="936,-0.5 936,-19.5 1043,-19.5 1043,-0.5 936,-0.5"/>
<text text-anchor="middle" x="989.5" y="-7.5" font-family="Helvetica,sans-Serif" font-size="10.00">parsing_destructor</text>
</a>
</g>
</g>
<!-- Node2&#45;&gt;Node16 -->
<g id="edge22" class="edge">
<title>Node2&#45;&gt;Node16</title>
<path fill="none" stroke="midnightblue" d="M1111.57,-106.29C1096.99,-86.56 1071.21,-54.72 1043,-34 1035.16,-28.25 1025.73,-23.41 1017.03,-19.62"/>
<polygon fill="midnightblue" stroke="midnightblue" points="1108.75,-108.36 1117.44,-114.42 1114.42,-104.26 1108.75,-108.36"/>
</g>
<!-- Node19 -->
<g id="node19" class="node">
<title>Node19</title>
<g id="a_node19"><a xlink:href="heredoc_8c.html#aa11261ffe1d93fd87488514776e2df34" target="_top" xlink:title=" ">
<polygon fill="none" stroke="black" points="938,-114.5 938,-133.5 1041,-133.5 1041,-114.5 938,-114.5"/>
<text text-anchor="middle" x="989.5" y="-121.5" font-family="Helvetica,sans-Serif" font-size="10.00">read_gnl_heredoc</text>
</a>
</g>
</g>
<!-- Node2&#45;&gt;Node19 -->
<g id="edge26" class="edge">
<title>Node2&#45;&gt;Node19</title>
<path fill="none" stroke="midnightblue" d="M1068.67,-124C1059.56,-124 1050.15,-124 1041.16,-124"/>
<polygon fill="midnightblue" stroke="midnightblue" points="1068.8,-127.5 1078.8,-124 1068.8,-120.5 1068.8,-127.5"/>
</g>
<!-- Node4 -->
<g id="node4" class="node">
<title>Node4</title>
<g id="a_node4"><a xlink:href="heredoc_8c.html#a0b4a5d07e8877b06b8977b47a6d51930" target="_top" xlink:title="it&#39;s where we open the heredoc and start writing inside our pipe each time we check if it&#39;s the word ...">
<polygon fill="none" stroke="black" points="661.5,-152.5 661.5,-171.5 747.5,-171.5 747.5,-152.5 661.5,-152.5"/>
<text text-anchor="middle" x="704.5" y="-159.5" font-family="Helvetica,sans-Serif" font-size="10.00">heredoc_input</text>
</a>
</g>
</g>
<!-- Node3&#45;&gt;Node4 -->
<g id="edge3" class="edge">
<title>Node3&#45;&gt;Node4</title>
<path fill="none" stroke="midnightblue" d="M776.6,-162C766.77,-162 756.88,-162 747.72,-162"/>
<polygon fill="midnightblue" stroke="midnightblue" points="776.78,-165.5 786.78,-162 776.78,-158.5 776.78,-165.5"/>
</g>
<!-- Node5 -->
<g id="node5" class="node">
<title>Node5</title>
<g id="a_node5"><a xlink:href="heredoc_8c.html#a17337782f10170a6f2f9188bf557de0f" target="_top" xlink:title="the function will go through all the commands and check the redirection if we encounter a heredoc we ...">
<polygon fill="none" stroke="black" points="491,-152.5 491,-171.5 622,-171.5 622,-152.5 491,-152.5"/>
<text text-anchor="middle" x="556.5" y="-159.5" font-family="Helvetica,sans-Serif" font-size="10.00">here_doc_management</text>
</a>
</g>
</g>
<!-- Node4&#45;&gt;Node5 -->
<g id="edge4" class="edge">
<title>Node4&#45;&gt;Node5</title>
<path fill="none" stroke="midnightblue" d="M650.97,-162C641.64,-162 631.82,-162 622.19,-162"/>
<polygon fill="midnightblue" stroke="midnightblue" points="651.27,-165.5 661.27,-162 651.27,-158.5 651.27,-165.5"/>
</g>
<!-- Node6 -->
<g id="node6" class="node">
<title>Node6</title>
<g id="a_node6"><a xlink:href="multipipe_8c.html#aa4f1c217eeb689ecbc622baecd2c5dec" target="_top" xlink:title="management of the multipipe (= name when we have at least one pipe) First step is to manage the hered...">
<polygon fill="none" stroke="black" points="172,-152.5 172,-171.5 261,-171.5 261,-152.5 172,-152.5"/>
<text text-anchor="middle" x="216.5" y="-159.5" font-family="Helvetica,sans-Serif" font-size="10.00">multipipe_cmd</text>
</a>
</g>
</g>
<!-- Node5&#45;&gt;Node6 -->
<g id="edge5" class="edge">
<title>Node5&#45;&gt;Node6</title>
<path fill="none" stroke="midnightblue" d="M480.6,-162C413.22,-162 316.57,-162 261.1,-162"/>
<polygon fill="midnightblue" stroke="midnightblue" points="480.73,-165.5 490.73,-162 480.73,-158.5 480.73,-165.5"/>
</g>
<!-- Node9 -->
<g id="node9" class="node">
<title>Node9</title>
<g id="a_node9"><a xlink:href="execution_8c.html#a38335028b2bc7aa436f8f79a3753ce5e" target="_top" xlink:title="here we check if it&#39;s a builtin where we have to fork or not we still need to do the redirection veri...">
<polygon fill="none" stroke="black" points="331.5,-114.5 331.5,-133.5 420.5,-133.5 420.5,-114.5 331.5,-114.5"/>
<text text-anchor="middle" x="376" y="-121.5" font-family="Helvetica,sans-Serif" font-size="10.00">one_command</text>
</a>
</g>
</g>
<!-- Node5&#45;&gt;Node9 -->
<g id="edge8" class="edge">
<title>Node5&#45;&gt;Node9</title>
<path fill="none" stroke="midnightblue" d="M500.52,-150.29C474.9,-144.84 444.84,-138.44 420.79,-133.32"/>
<polygon fill="midnightblue" stroke="midnightblue" points="499.95,-153.75 510.46,-152.41 501.4,-146.91 499.95,-153.75"/>
</g>
<!-- Node7 -->
<g id="node7" class="node">
<title>Node7</title>
<g id="a_node7"><a xlink:href="execution_8c.html#a9542b61daba3eb4d45c8887c5648b2f6" target="_top" xlink:title="first function of the execution part when we have something to do we have to deal with two cases ; if...">
<polygon fill="none" stroke="black" points="77,-133.5 77,-152.5 136,-152.5 136,-133.5 77,-133.5"/>
<text text-anchor="middle" x="106.5" y="-140.5" font-family="Helvetica,sans-Serif" font-size="10.00">executor</text>
</a>
</g>
</g>
<!-- Node6&#45;&gt;Node7 -->
<g id="edge6" class="edge">
<title>Node6&#45;&gt;Node7</title>
<path fill="none" stroke="midnightblue" d="M161.88,-152.57C152.97,-151 144.05,-149.43 136.08,-148.03"/>
<polygon fill="midnightblue" stroke="midnightblue" points="161.43,-156.04 171.88,-154.33 162.64,-149.15 161.43,-156.04"/>
</g>
<!-- Node7&#45;&gt;Node8 -->
<g id="edge7" class="edge">
<title>Node7&#45;&gt;Node8</title>
<path fill="none" stroke="midnightblue" d="M66.48,-143C57.72,-143 48.78,-143 41.21,-143"/>
<polygon fill="midnightblue" stroke="midnightblue" points="66.59,-146.5 76.59,-143 66.59,-139.5 66.59,-146.5"/>
</g>
<!-- Node9&#45;&gt;Node7 -->
<g id="edge9" class="edge">
<title>Node9&#45;&gt;Node7</title>
<path fill="none" stroke="midnightblue" d="M321.37,-127.81C265.58,-131.77 180.35,-137.83 136.22,-140.96"/>
<polygon fill="midnightblue" stroke="midnightblue" points="321.7,-131.29 331.43,-127.09 321.2,-124.31 321.7,-131.29"/>
</g>
<!-- Node11 -->
<g id="node11" class="node">
<title>Node11</title>
<g id="a_node11"><a xlink:href="multipipe_8c.html#af31c329200501f497cd102a470450103" target="_top" xlink:title="it&#39;s where the fork happen and sent to be execute">
<polygon fill="none" stroke="black" points="297,-190.5 297,-209.5 455,-209.5 455,-190.5 297,-190.5"/>
<text text-anchor="middle" x="376" y="-197.5" font-family="Helvetica,sans-Serif" font-size="10.00">multipipe_intermediary_cmd</text>
</a>
</g>
</g>
<!-- Node10&#45;&gt;Node11 -->
<g id="edge11" class="edge">
<title>Node10&#45;&gt;Node11</title>
<path fill="none" stroke="midnightblue" d="M504.68,-200C489.31,-200 472.06,-200 455.33,-200"/>
<polygon fill="midnightblue" stroke="midnightblue" points="505,-203.5 515,-200 505,-196.5 505,-203.5"/>
</g>
<!-- Node11&#45;&gt;Node6 -->
<g id="edge12" class="edge">
<title>Node11&#45;&gt;Node6</title>
<path fill="none" stroke="midnightblue" d="M325.4,-188.03C303.32,-182.71 277.7,-176.52 256.96,-171.52"/>
<polygon fill="midnightblue" stroke="midnightblue" points="324.71,-191.47 335.26,-190.41 326.36,-184.66 324.71,-191.47"/>
</g>
<!-- Node13 -->
<g id="node13" class="node">
<title>Node13</title>
<g id="a_node13"><a xlink:href="launcher_8c.html#a7bee4f6fbfd70ef7ec1f52856538ac71" target="_top" xlink:title="launch the builtin &#160;&#160;some of them are not present because we have to fork() them why ?...">
<polygon fill="none" stroke="black" points="801,-76.5 801,-95.5 886,-95.5 886,-76.5 801,-76.5"/>
<text text-anchor="middle" x="843.5" y="-83.5" font-family="Helvetica,sans-Serif" font-size="10.00">launch_builtin</text>
</a>
</g>
</g>
<!-- Node12&#45;&gt;Node13 -->
<g id="edge15" class="edge">
<title>Node12&#45;&gt;Node13</title>
<path fill="none" stroke="midnightblue" d="M951.18,-86C931.28,-86 906.72,-86 886.19,-86"/>
<polygon fill="midnightblue" stroke="midnightblue" points="951.41,-89.5 961.41,-86 951.41,-82.5 951.41,-89.5"/>
</g>
<!-- Node13&#45;&gt;Node9 -->
<g id="edge20" class="edge">
<title>Node13&#45;&gt;Node9</title>
<path fill="none" stroke="midnightblue" d="M793,-97.73C779.45,-100.54 764.72,-103.24 751,-105 632.19,-120.26 490.67,-123.4 420.67,-123.96"/>
<polygon fill="midnightblue" stroke="midnightblue" points="794.04,-101.08 803.09,-95.57 792.58,-94.24 794.04,-101.08"/>
</g>
<!-- Node14 -->
<g id="node14" class="node">
<title>Node14</title>
<g id="a_node14"><a xlink:href="execution__node_8c.html#adda76b40c34c18ec83b1d98700083f8a" target="_top" xlink:title="we are going to execute the command here we have a security about absolute path given =&gt; because it&#39;s...">
<polygon fill="none" stroke="black" points="658,-76.5 658,-95.5 751,-95.5 751,-76.5 658,-76.5"/>
<text text-anchor="middle" x="704.5" y="-83.5" font-family="Helvetica,sans-Serif" font-size="10.00">execution_node</text>
</a>
</g>
</g>
<!-- Node13&#45;&gt;Node14 -->
<g id="edge16" class="edge">
<title>Node13&#45;&gt;Node14</title>
<path fill="none" stroke="midnightblue" d="M790.54,-86C777.66,-86 763.95,-86 751.39,-86"/>
<polygon fill="midnightblue" stroke="midnightblue" points="790.65,-89.5 800.65,-86 790.65,-82.5 790.65,-89.5"/>
</g>
<!-- Node14&#45;&gt;Node10 -->
<g id="edge17" class="edge">
<title>Node14&#45;&gt;Node10</title>
<path fill="none" stroke="midnightblue" d="M689.22,-103.71C668.15,-129.69 630.32,-175.62 622,-181 614.84,-185.63 606.53,-189.16 598.29,-191.85"/>
<polygon fill="midnightblue" stroke="midnightblue" points="692.09,-105.74 695.66,-95.76 686.65,-101.33 692.09,-105.74"/>
</g>
<!-- Node14&#45;&gt;Node15 -->
<g id="edge18" class="edge">
<title>Node14&#45;&gt;Node15</title>
<path fill="none" stroke="midnightblue" d="M647.53,-86C638.69,-86 629.5,-86 620.52,-86"/>
<polygon fill="midnightblue" stroke="midnightblue" points="647.71,-89.5 657.71,-86 647.71,-82.5 647.71,-89.5"/>
</g>
<!-- Node15&#45;&gt;Node9 -->
<g id="edge19" class="edge">
<title>Node15&#45;&gt;Node9</title>
<path fill="none" stroke="midnightblue" d="M500.52,-97.71C474.9,-103.16 444.84,-109.56 420.79,-114.68"/>
<polygon fill="midnightblue" stroke="midnightblue" points="501.4,-101.09 510.46,-95.59 499.95,-94.25 501.4,-101.09"/>
</g>
<!-- Node17 -->
<g id="node17" class="node">
<title>Node17</title>
<g id="a_node17"><a xlink:href="error_8c.html#a8f5f1cfa591c395b88733e1134d8de3d" target="_top" xlink:title=" ">
<polygon fill="none" stroke="black" points="804.5,-0.5 804.5,-19.5 882.5,-19.5 882.5,-0.5 804.5,-0.5"/>
<text text-anchor="middle" x="843.5" y="-7.5" font-family="Helvetica,sans-Serif" font-size="10.00">syntax_error</text>
</a>
</g>
</g>
<!-- Node16&#45;&gt;Node17 -->
<g id="edge23" class="edge">
<title>Node16&#45;&gt;Node17</title>
<path fill="none" stroke="midnightblue" d="M925.29,-10C910.84,-10 895.9,-10 882.87,-10"/>
<polygon fill="midnightblue" stroke="midnightblue" points="925.7,-13.5 935.7,-10 925.7,-6.5 925.7,-13.5"/>
</g>
<!-- Node18 -->
<g id="node18" class="node">
<title>Node18</title>
<g id="a_node18"><a xlink:href="parser_8c.html#a302af903b3f87eaaff83762f60c2d8cb" target="_top" xlink:title=" ">
<polygon fill="none" stroke="black" points="193,-38.5 193,-57.5 240,-57.5 240,-38.5 193,-38.5"/>
<text text-anchor="middle" x="216.5" y="-45.5" font-family="Helvetica,sans-Serif" font-size="10.00">parser</text>
</a>
</g>
</g>
<!-- Node17&#45;&gt;Node18 -->
<g id="edge24" class="edge">
<title>Node17&#45;&gt;Node18</title>
<path fill="none" stroke="midnightblue" d="M794.19,-12.94C667.79,-20.62 330.82,-41.11 240.2,-46.62"/>
<polygon fill="midnightblue" stroke="midnightblue" points="794.58,-16.42 804.34,-12.32 794.15,-9.43 794.58,-16.42"/>
</g>
<!-- Node18&#45;&gt;Node8 -->
<g id="edge25" class="edge">
<title>Node18&#45;&gt;Node8</title>
<path fill="none" stroke="midnightblue" d="M186.6,-62.15C146.54,-81.77 75.2,-116.7 40.93,-133.48"/>
<polygon fill="midnightblue" stroke="midnightblue" points="188.39,-65.17 195.83,-57.63 185.31,-58.89 188.39,-65.17"/>
</g>
<!-- Node19&#45;&gt;Node3 -->
<g id="edge27" class="edge">
<title>Node19&#45;&gt;Node3</title>
<path fill="none" stroke="midnightblue" d="M942.33,-136.18C922.34,-141.46 899.28,-147.54 880.58,-152.48"/>
<polygon fill="midnightblue" stroke="midnightblue" points="943.39,-139.52 952.16,-133.59 941.6,-132.76 943.39,-139.52"/>
</g>
</g>
</svg>
