<?xml version="1.0" encoding="UTF-8" standalone="no"?>
<!DOCTYPE svg PUBLIC "-//W3C//DTD SVG 1.1//EN"
 "http://www.w3.org/Graphics/SVG/1.1/DTD/svg11.dtd">
<!-- Generated by graphviz version 2.43.0 (0)
 -->
<!-- Title: heredoc_input Pages: 1 -->
<svg width="348pt" height="218pt"
 viewBox="0.00 0.00 348.00 218.00" xmlns="http://www.w3.org/2000/svg" xmlns:xlink="http://www.w3.org/1999/xlink">
<g id="graph0" class="graph" transform="scale(1 1) rotate(0) translate(4 214)">
<title>heredoc_input</title>
<!-- Node1 -->
<g id="node1" class="node">
<title>Node1</title>
<g id="a_node1"><a xlink:title="it&#39;s where we open the heredoc and start writing inside our pipe each time we check if it&#39;s the word ...">
<polygon fill="#bfbfbf" stroke="black" points="0,-95.5 0,-114.5 86,-114.5 86,-95.5 0,-95.5"/>
<text text-anchor="middle" x="43" y="-102.5" font-family="Helvetica,sans-Serif" font-size="10.00">heredoc_input</text>
</a>
</g>
</g>
<!-- Node2 -->
<g id="node2" class="node">
<title>Node2</title>
<g id="a_node2"><a xlink:href="heredoc_8c.html#ab64ee253d325f2d25cf6d2e51bd00396" target="_top" xlink:title="we have to activate back the echoctl to appear again when we are not inside an heredoc">
<polygon fill="none" stroke="black" points="135,-190.5 135,-209.5 222,-209.5 222,-190.5 135,-190.5"/>
<text text-anchor="middle" x="178.5" y="-197.5" font-family="Helvetica,sans-Serif" font-size="10.00">active_echoctl</text>
</a>
</g>
</g>
<!-- Node1&#45;&gt;Node2 -->
<g id="edge1" class="edge">
<title>Node1&#45;&gt;Node2</title>
<path fill="none" stroke="midnightblue" d="M51.38,-114.55C64.14,-130.47 91.88,-162.49 122,-181 125.23,-182.98 128.69,-184.79 132.24,-186.43"/>
<polygon fill="midnightblue" stroke="midnightblue" points="131.22,-189.8 141.8,-190.4 133.9,-183.33 131.22,-189.8"/>
</g>
<!-- Node3 -->
<g id="node3" class="node">
<title>Node3</title>
<g id="a_node3"><a xlink:href="heredoc_8c.html#a3e1410633d8c1ad5b1441509a020b0d4" target="_top" xlink:title="allow us to close the file descriptors when we have fork() again the process">
<polygon fill="none" stroke="black" points="122,-152.5 122,-171.5 235,-171.5 235,-152.5 122,-152.5"/>
<text text-anchor="middle" x="178.5" y="-159.5" font-family="Helvetica,sans-Serif" font-size="10.00">close_fd_heredocs2</text>
</a>
</g>
</g>
<!-- Node1&#45;&gt;Node3 -->
<g id="edge2" class="edge">
<title>Node1&#45;&gt;Node3</title>
<path fill="none" stroke="midnightblue" d="M66.34,-114.54C88.1,-123.83 121.37,-138.04 145.85,-148.49"/>
<polygon fill="midnightblue" stroke="midnightblue" points="144.51,-151.72 155.08,-152.43 147.26,-145.28 144.51,-151.72"/>
</g>
<!-- Node4 -->
<g id="node4" class="node">
<title>Node4</title>
<g id="a_node4"><a xlink:href="redirection__multipipe_8c.html#a1bca6910c90a19d96b36506a2e2cebf6" target="_top" xlink:title="as fd are all setup to &#45;1 at the beginning we check if they are open before trying to close we avoid ...">
<polygon fill="none" stroke="black" points="271,-133.5 271,-152.5 340,-152.5 340,-133.5 271,-133.5"/>
<text text-anchor="middle" x="305.5" y="-140.5" font-family="Helvetica,sans-Serif" font-size="10.00">ft_close_fd</text>
</a>
</g>
</g>
<!-- Node1&#45;&gt;Node4 -->
<g id="edge4" class="edge">
<title>Node1&#45;&gt;Node4</title>
<path fill="none" stroke="midnightblue" d="M86.14,-111.15C134.14,-118.15 212.18,-129.53 260.81,-136.63"/>
<polygon fill="midnightblue" stroke="midnightblue" points="260.31,-140.09 270.71,-138.07 261.32,-133.16 260.31,-140.09"/>
</g>
<!-- Node5 -->
<g id="node5" class="node">
<title>Node5</title>
<g id="a_node5"><a xlink:href="heredoc_8c.html#a4fd8e3642e456e9a2f7fe4dc8f44ad43" target="_top" xlink:title="remove the echoctl which are the symbol which appears when you press CTRL+C or CTRL+\ it&#39;s different ...">
<polygon fill="none" stroke="black" points="131,-76.5 131,-95.5 226,-95.5 226,-76.5 131,-76.5"/>
<text text-anchor="middle" x="178.5" y="-83.5" font-family="Helvetica,sans-Serif" font-size="10.00">remove_echoctl</text>
</a>
</g>
</g>
<!-- Node1&#45;&gt;Node5 -->
<g id="edge5" class="edge">
<title>Node1&#45;&gt;Node5</title>
<path fill="none" stroke="midnightblue" d="M86.24,-98.99C97.23,-97.42 109.25,-95.71 120.85,-94.06"/>
<polygon fill="midnightblue" stroke="midnightblue" points="121.49,-97.51 130.9,-92.63 120.51,-90.58 121.49,-97.51"/>
</g>
<!-- Node6 -->
<g id="node6" class="node">
<title>Node6</title>
<g id="a_node6"><a xlink:href="minishell_8h.html#a258e3b580e688a0cf46e4258525aeaf1" target="_top" xlink:title=" ">
<polygon fill="none" stroke="black" points="135.5,-38.5 135.5,-57.5 221.5,-57.5 221.5,-38.5 135.5,-38.5"/>
<text text-anchor="middle" x="178.5" y="-45.5" font-family="Helvetica,sans-Serif" font-size="10.00">sigint_handler</text>
</a>
</g>
</g>
<!-- Node1&#45;&gt;Node6 -->
<g id="edge6" class="edge">
<title>Node1&#45;&gt;Node6</title>
<path fill="none" stroke="midnightblue" d="M61.99,-95.45C77.62,-87.34 100.98,-75.68 122,-67 127.06,-64.91 132.44,-62.86 137.79,-60.93"/>
<polygon fill="midnightblue" stroke="midnightblue" points="139.02,-64.2 147.29,-57.59 136.7,-57.6 139.02,-64.2"/>
</g>
<!-- Node7 -->
<g id="node7" class="node">
<title>Node7</title>
<g id="a_node7"><a xlink:href="heredoc_8c.html#a7ea78f2f2215fe1ed765af80a1b2893d" target="_top" xlink:title="allow us to warn the process child heredoc it&#39;s time to stop and close the file descriptor">
<polygon fill="none" stroke="black" points="134.5,-0.5 134.5,-19.5 222.5,-19.5 222.5,-0.5 134.5,-0.5"/>
<text text-anchor="middle" x="178.5" y="-7.5" font-family="Helvetica,sans-Serif" font-size="10.00">sigint_heredoc</text>
</a>
</g>
</g>
<!-- Node1&#45;&gt;Node7 -->
<g id="edge7" class="edge">
<title>Node1&#45;&gt;Node7</title>
<path fill="none" stroke="midnightblue" d="M51.38,-95.45C64.14,-79.53 91.88,-47.51 122,-29 125.23,-27.02 128.69,-25.21 132.24,-23.57"/>
<polygon fill="midnightblue" stroke="midnightblue" points="133.9,-26.67 141.8,-19.6 131.22,-20.2 133.9,-26.67"/>
</g>
<!-- Node3&#45;&gt;Node4 -->
<g id="edge3" class="edge">
<title>Node3&#45;&gt;Node4</title>
<path fill="none" stroke="midnightblue" d="M235.05,-153.56C243.77,-152.23 252.67,-150.88 261.06,-149.6"/>
<polygon fill="midnightblue" stroke="midnightblue" points="261.63,-153.06 270.99,-148.09 260.58,-146.14 261.63,-153.06"/>
</g>
</g>
</svg>
