<?xml version="1.0" encoding="UTF-8" standalone="no"?>
<!DOCTYPE svg PUBLIC "-//W3C//DTD SVG 1.1//EN"
 "http://www.w3.org/Graphics/SVG/1.1/DTD/svg11.dtd">
<!-- Generated by graphviz version 2.43.0 (0)
 -->
<!-- Title: one_command_execve Pages: 1 -->
<!--zoomable 659 -->
<svg id="main" version="1.1" xmlns="http://www.w3.org/2000/svg" xmlns:xlink="http://www.w3.org/1999/xlink" xml:space="preserve" onload="init(evt)">
<style type="text/css"><![CDATA[
.edge:hover path { stroke: red; }
.edge:hover polygon { stroke: red; fill: red; }
]]></style>
<script type="text/javascript"><![CDATA[
var edges = document.getElementsByTagName('g');
if (edges && edges.length) {
  for (var i=0;i<edges.length;i++) {
    if (edges[i].id.substr(0,4)=='edge') {
      edges[i].setAttribute('class','edge');
    }
  }
}
]]></script>
        <defs>
                <circle id="rim" cx="0" cy="0" r="7"/>
                <circle id="rim2" cx="0" cy="0" r="3.5"/>
                <g id="zoomPlus">
                        <use xlink:href="#rim" fill="#404040">
                                <set attributeName="fill" to="#808080" begin="zoomplus.mouseover" end="zoomplus.mouseout"/>
                        </use>
                        <path d="M-4,0h8M0,-4v8" fill="none" stroke="white" stroke-width="1.5" pointer-events="none"/>
                </g>
                <g id="zoomMin">
                        <use xlink:href="#rim" fill="#404040">
                                <set attributeName="fill" to="#808080" begin="zoomminus.mouseover" end="zoomminus.mouseout"/>
                        </use>
                        <path d="M-4,0h8" fill="none" stroke="white" stroke-width="1.5" pointer-events="none"/>
                </g>
                <g id="dirArrow">
                        <path fill="none" stroke="white" stroke-width="1.5" d="M0,-3.0v7 M-2.5,-0.5L0,-3.0L2.5,-0.5"/>
                </g>
               <g id="resetDef">
                       <use xlink:href="#rim2" fill="#404040">
                               <set attributeName="fill" to="#808080" begin="reset.mouseover" end="reset.mouseout"/>
                       </use>
               </g>
        </defs>

<script type="text/javascript">
var viewWidth = 1245;
var viewHeight = 659;
var sectionId = 'dynsection-65';
</script>
<script xlink:href="svgpan.js"/>
<svg id="graph" class="graph">
<g id="viewport">
<title>one_command_execve</title>
<!-- Node1 -->
<g id="node1" class="node">
<title>Node1</title>
<g id="a_node1"><a xlink:title="in this function we do the fork to create a child process we do the redirection if we need to">
<polygon fill="#bfbfbf" stroke="black" points="0,-418.5 0,-437.5 128,-437.5 128,-418.5 0,-418.5"/>
<text text-anchor="middle" x="64" y="-425.5" font-family="Helvetica,sans-Serif" font-size="10.00">one_command_execve</text>
</a>
</g>
</g>
<!-- Node2 -->
<g id="node2" class="node">
<title>Node2</title>
<g id="a_node2"><a xlink:href="redirection__multipipe_8c.html#a26c96266f1645047a9bdd9af22de94a7" target="_top" xlink:title=" ">
<polygon fill="none" stroke="black" points="702,-561.5 702,-580.5 810,-580.5 810,-561.5 702,-561.5"/>
<text text-anchor="middle" x="756" y="-568.5" font-family="Helvetica,sans-Serif" font-size="10.00">command_redirect</text>
</a>
</g>
</g>
<!-- Node1&#45;&gt;Node2 -->
<g id="edge1" class="edge">
<title>Node1&#45;&gt;Node2</title>
<path fill="none" stroke="midnightblue" d="M72.51,-437.74C87.62,-456.57 123.68,-497.87 164,-518 236.26,-554.07 261.74,-552 342.5,-552 342.5,-552 342.5,-552 475.5,-552 549.79,-552 634.93,-558.76 691.52,-564.22"/>
<polygon fill="midnightblue" stroke="midnightblue" points="691.46,-567.73 701.75,-565.22 692.14,-560.76 691.46,-567.73"/>
</g>
<!-- Node5 -->
<g id="node5" class="node">
<title>Node5</title>
<g id="a_node5"><a xlink:href="utils_8c.html#a1bca6910c90a19d96b36506a2e2cebf6" target="_top" xlink:title="as fd are all setup to &#45;1 at the beginning we check if they are open before trying to close we avoid ...">
<polygon fill="none" stroke="black" points="1163,-532.5 1163,-551.5 1232,-551.5 1232,-532.5 1163,-532.5"/>
<text text-anchor="middle" x="1197.5" y="-539.5" font-family="Helvetica,sans-Serif" font-size="10.00">ft_close_fd</text>
</a>
</g>
</g>
<!-- Node1&#45;&gt;Node5 -->
<g id="edge54" class="edge">
<title>Node1&#45;&gt;Node5</title>
<path fill="none" stroke="midnightblue" d="M85.36,-437.63C130.55,-458.08 243.1,-504 342.5,-504 342.5,-504 342.5,-504 917.5,-504 1008.78,-504 1032.05,-507.45 1122,-523 1132.47,-524.81 1143.62,-527.33 1154.03,-529.94"/>
<polygon fill="midnightblue" stroke="midnightblue" points="1153.17,-533.34 1163.73,-532.46 1154.93,-526.56 1153.17,-533.34"/>
</g>
<!-- Node7 -->
<g id="node7" class="node">
<title>Node7</title>
<g id="a_node7"><a xlink:href="lst__cmd2_8c.html#a132395876bb5a7cfe926b9e37571a1e3" target="_top" xlink:title=" ">
<polygon fill="none" stroke="black" points="564,-437.5 564,-456.5 656,-456.5 656,-437.5 564,-437.5"/>
<text text-anchor="middle" x="610" y="-444.5" font-family="Helvetica,sans-Serif" font-size="10.00">destructor_cmd</text>
</a>
</g>
</g>
<!-- Node1&#45;&gt;Node7 -->
<g id="edge9" class="edge">
<title>Node1&#45;&gt;Node7</title>
<path fill="none" stroke="midnightblue" d="M123.23,-437.51C136.59,-439.34 150.76,-440.99 164,-442 303.96,-452.64 469.38,-450.7 553.64,-448.67"/>
<polygon fill="midnightblue" stroke="midnightblue" points="553.84,-452.17 563.75,-448.42 553.67,-445.17 553.84,-452.17"/>
</g>
<!-- Node11 -->
<g id="node11" class="node">
<title>Node11</title>
<g id="a_node11"><a xlink:href="lst__env_8c.html#a226ae0aa054e697998b2ecbc5d61d592" target="_top" xlink:title=" ">
<polygon fill="none" stroke="black" points="565.5,-361.5 565.5,-380.5 654.5,-380.5 654.5,-361.5 565.5,-361.5"/>
<text text-anchor="middle" x="610" y="-368.5" font-family="Helvetica,sans-Serif" font-size="10.00">destructor_env</text>
</a>
</g>
</g>
<!-- Node1&#45;&gt;Node11 -->
<g id="edge15" class="edge">
<title>Node1&#45;&gt;Node11</title>
<path fill="none" stroke="midnightblue" d="M128.34,-432.38C216.95,-436.93 382.37,-439.65 519,-409 541.34,-403.99 565.15,-393.69 582.66,-385.08"/>
<polygon fill="midnightblue" stroke="midnightblue" points="584.35,-388.15 591.69,-380.52 581.19,-381.91 584.35,-388.15"/>
</g>
<!-- Node13 -->
<g id="node13" class="node">
<title>Node13</title>
<g id="a_node13"><a xlink:href="execution__node_8c.html#adda76b40c34c18ec83b1d98700083f8a" target="_top" xlink:title="we are going to execute the command here we have a security about absolute path given =&gt; because it&#39;s...">
<polygon fill="none" stroke="black" points="164,-342.5 164,-361.5 257,-361.5 257,-342.5 164,-342.5"/>
<text text-anchor="middle" x="210.5" y="-349.5" font-family="Helvetica,sans-Serif" font-size="10.00">execution_node</text>
</a>
</g>
</g>
<!-- Node1&#45;&gt;Node13 -->
<g id="edge17" class="edge">
<title>Node1&#45;&gt;Node13</title>
<path fill="none" stroke="midnightblue" d="M83.3,-418.37C108.27,-405.24 153.22,-381.6 182.19,-366.36"/>
<polygon fill="midnightblue" stroke="midnightblue" points="184.13,-369.3 191.35,-361.55 180.87,-363.1 184.13,-369.3"/>
</g>
<!-- Node43 -->
<g id="node43" class="node">
<title>Node43</title>
<g id="a_node43"><a xlink:href="signals_8c.html#aa06f925baa9a6f549b31de64d4faac32" target="_top" xlink:title="allow us to don&#39;t create issue when a child process with readline">
<polygon fill="none" stroke="black" points="164.5,-304.5 164.5,-323.5 256.5,-323.5 256.5,-304.5 164.5,-304.5"/>
<text text-anchor="middle" x="210.5" y="-311.5" font-family="Helvetica,sans-Serif" font-size="10.00">sigint_handler2</text>
</a>
</g>
</g>
<!-- Node1&#45;&gt;Node43 -->
<g id="edge55" class="edge">
<title>Node1&#45;&gt;Node43</title>
<path fill="none" stroke="midnightblue" d="M72.81,-418.44C88.42,-399.83 125.35,-358.33 164,-333 166.72,-331.22 169.64,-329.54 172.63,-327.99"/>
<polygon fill="midnightblue" stroke="midnightblue" points="174.18,-331.13 181.72,-323.68 171.18,-324.8 174.18,-331.13"/>
</g>
<!-- Node44 -->
<g id="node44" class="node">
<title>Node44</title>
<g id="a_node44"><a xlink:href="signals_8c.html#a368a774e2b304a3de55f58168563967d" target="_top" xlink:title=" ">
<polygon fill="none" stroke="black" points="164.5,-266.5 164.5,-285.5 256.5,-285.5 256.5,-266.5 164.5,-266.5"/>
<text text-anchor="middle" x="210.5" y="-273.5" font-family="Helvetica,sans-Serif" font-size="10.00">sigquit_handler</text>
</a>
</g>
</g>
<!-- Node1&#45;&gt;Node44 -->
<g id="edge56" class="edge">
<title>Node1&#45;&gt;Node44</title>
<path fill="none" stroke="midnightblue" d="M69.87,-418.24C82.34,-394.14 117.73,-331.15 164,-295 166.07,-293.39 168.29,-291.89 170.6,-290.5"/>
<polygon fill="midnightblue" stroke="midnightblue" points="172.58,-293.41 179.82,-285.67 169.34,-287.21 172.58,-293.41"/>
</g>
<!-- Node3 -->
<g id="node3" class="node">
<title>Node3</title>
<g id="a_node3"><a xlink:href="redirection__multipipe_8c.html#a221f4b2814fe6c3ab1b3ad1fd7f24fb2" target="_top" xlink:title=" ">
<polygon fill="none" stroke="black" points="847,-608.5 847,-627.5 986,-627.5 986,-608.5 847,-608.5"/>
<text text-anchor="middle" x="916.5" y="-615.5" font-family="Helvetica,sans-Serif" font-size="10.00">command_redirect_part2</text>
</a>
</g>
</g>
<!-- Node2&#45;&gt;Node3 -->
<g id="edge2" class="edge">
<title>Node2&#45;&gt;Node3</title>
<path fill="none" stroke="midnightblue" d="M789.07,-580.51C813.38,-587.72 846.99,-597.68 873.45,-605.53"/>
<polygon fill="midnightblue" stroke="midnightblue" points="872.62,-608.94 883.2,-608.42 874.61,-602.22 872.62,-608.94"/>
</g>
<!-- Node2&#45;&gt;Node5 -->
<g id="edge8" class="edge">
<title>Node2&#45;&gt;Node5</title>
<path fill="none" stroke="midnightblue" d="M810.22,-573.38C881.58,-575.69 1012.04,-576.86 1122,-561 1132.91,-559.43 1144.54,-556.89 1155.28,-554.18"/>
<polygon fill="midnightblue" stroke="midnightblue" points="1156.48,-557.48 1165.26,-551.55 1154.7,-550.71 1156.48,-557.48"/>
</g>
<!-- Node6 -->
<g id="node6" class="node">
<title>Node6</title>
<g id="a_node6"><a xlink:href="redirection__multipipe_8c.html#a5b749bc2b4088984c0efe1c479ae6ec8" target="_top" xlink:title=" ">
<polygon fill="none" stroke="black" points="1032,-532.5 1032,-551.5 1112,-551.5 1112,-532.5 1032,-532.5"/>
<text text-anchor="middle" x="1072" y="-539.5" font-family="Helvetica,sans-Serif" font-size="10.00">fail_previous</text>
</a>
</g>
</g>
<!-- Node2&#45;&gt;Node6 -->
<g id="edge6" class="edge">
<title>Node2&#45;&gt;Node6</title>
<path fill="none" stroke="midnightblue" d="M810.27,-566.08C869.4,-560.62 964.07,-551.88 1021.6,-546.56"/>
<polygon fill="midnightblue" stroke="midnightblue" points="1022.26,-550.02 1031.89,-545.61 1021.61,-543.05 1022.26,-550.02"/>
</g>
<!-- Node4 -->
<g id="node4" class="node">
<title>Node4</title>
<g id="a_node4"><a xlink:href="redirection__multipipe_8c.html#a3a0d7f695cf53df46301e14ffab77638" target="_top" xlink:title=" ">
<polygon fill="none" stroke="black" points="1027.5,-608.5 1027.5,-627.5 1116.5,-627.5 1116.5,-608.5 1027.5,-608.5"/>
<text text-anchor="middle" x="1072" y="-615.5" font-family="Helvetica,sans-Serif" font-size="10.00">close_previous</text>
</a>
</g>
</g>
<!-- Node3&#45;&gt;Node4 -->
<g id="edge3" class="edge">
<title>Node3&#45;&gt;Node4</title>
<path fill="none" stroke="midnightblue" d="M986.17,-618C996.48,-618 1006.98,-618 1016.93,-618"/>
<polygon fill="midnightblue" stroke="midnightblue" points="1017.06,-621.5 1027.06,-618 1017.06,-614.5 1017.06,-621.5"/>
</g>
<!-- Node3&#45;&gt;Node5 -->
<g id="edge5" class="edge">
<title>Node3&#45;&gt;Node5</title>
<path fill="none" stroke="midnightblue" d="M940.36,-627.52C979.69,-642.34 1061.72,-666.33 1122,-637 1154.51,-621.18 1177.03,-583.56 1188.26,-560.69"/>
<polygon fill="midnightblue" stroke="midnightblue" points="1191.44,-562.16 1192.51,-551.62 1185.1,-559.2 1191.44,-562.16"/>
</g>
<!-- Node4&#45;&gt;Node5 -->
<g id="edge4" class="edge">
<title>Node4&#45;&gt;Node5</title>
<path fill="none" stroke="midnightblue" d="M1094.36,-608.42C1103.09,-604.28 1113.19,-599.19 1122,-594 1140.79,-582.93 1161.02,-568.64 1175.65,-557.85"/>
<polygon fill="midnightblue" stroke="midnightblue" points="1178.06,-560.42 1183.98,-551.64 1173.87,-554.81 1178.06,-560.42"/>
</g>
<!-- Node6&#45;&gt;Node5 -->
<g id="edge7" class="edge">
<title>Node6&#45;&gt;Node5</title>
<path fill="none" stroke="midnightblue" d="M1112.08,-542C1124.9,-542 1139.24,-542 1152.41,-542"/>
<polygon fill="midnightblue" stroke="midnightblue" points="1152.67,-545.5 1162.67,-542 1152.67,-538.5 1152.67,-545.5"/>
</g>
<!-- Node8 -->
<g id="node8" class="node">
<title>Node8</title>
<g id="a_node8"><a xlink:href="lst__cmd2_8c.html#a8e2b63759f149b547e0d07f210ede9b3" target="_top" xlink:title=" ">
<polygon fill="none" stroke="black" points="725.5,-437.5 725.5,-456.5 786.5,-456.5 786.5,-437.5 725.5,-437.5"/>
<text text-anchor="middle" x="756" y="-444.5" font-family="Helvetica,sans-Serif" font-size="10.00">pop_cmd</text>
</a>
</g>
</g>
<!-- Node7&#45;&gt;Node8 -->
<g id="edge10" class="edge">
<title>Node7&#45;&gt;Node8</title>
<path fill="none" stroke="midnightblue" d="M656.17,-447C675.15,-447 697.03,-447 715.37,-447"/>
<polygon fill="midnightblue" stroke="midnightblue" points="715.44,-450.5 725.44,-447 715.44,-443.5 715.44,-450.5"/>
</g>
<!-- Node8&#45;&gt;Node5 -->
<g id="edge14" class="edge">
<title>Node8&#45;&gt;Node5</title>
<path fill="none" stroke="midnightblue" d="M786.58,-448.62C862.14,-453.07 1060.64,-466.67 1122,-490 1143.44,-498.15 1164.57,-513.83 1178.82,-525.85"/>
<polygon fill="midnightblue" stroke="midnightblue" points="1176.52,-528.49 1186.36,-532.41 1181.12,-523.21 1176.52,-528.49"/>
</g>
<!-- Node9 -->
<g id="node9" class="node">
<title>Node9</title>
<g id="a_node9"><a xlink:href="lst__redir2_8c.html#a30ccaf401a4f897e48ead5fe54f4b307" target="_top" xlink:title=" ">
<polygon fill="none" stroke="black" points="869.5,-418.5 869.5,-437.5 963.5,-437.5 963.5,-418.5 869.5,-418.5"/>
<text text-anchor="middle" x="916.5" y="-425.5" font-family="Helvetica,sans-Serif" font-size="10.00">destructor_redir</text>
</a>
</g>
</g>
<!-- Node8&#45;&gt;Node9 -->
<g id="edge11" class="edge">
<title>Node8&#45;&gt;Node9</title>
<path fill="none" stroke="midnightblue" d="M786.81,-443.43C807.14,-440.99 834.68,-437.69 859.07,-434.76"/>
<polygon fill="midnightblue" stroke="midnightblue" points="859.79,-438.2 869.3,-433.54 858.96,-431.25 859.79,-438.2"/>
</g>
<!-- Node10 -->
<g id="node10" class="node">
<title>Node10</title>
<g id="a_node10"><a xlink:href="lst__redir2_8c.html#ade8f0bdda51d9bf348ebeb38fefba881" target="_top" xlink:title=" ">
<polygon fill="none" stroke="black" points="1041,-418.5 1041,-437.5 1103,-437.5 1103,-418.5 1041,-418.5"/>
<text text-anchor="middle" x="1072" y="-425.5" font-family="Helvetica,sans-Serif" font-size="10.00">pop_redir</text>
</a>
</g>
</g>
<!-- Node9&#45;&gt;Node10 -->
<g id="edge12" class="edge">
<title>Node9&#45;&gt;Node10</title>
<path fill="none" stroke="midnightblue" d="M963.56,-428C985.01,-428 1010.3,-428 1030.95,-428"/>
<polygon fill="midnightblue" stroke="midnightblue" points="1030.98,-431.5 1040.98,-428 1030.98,-424.5 1030.98,-431.5"/>
</g>
<!-- Node10&#45;&gt;Node5 -->
<g id="edge13" class="edge">
<title>Node10&#45;&gt;Node5</title>
<path fill="none" stroke="midnightblue" d="M1097.62,-437.58C1105.82,-441.39 1114.71,-446.25 1122,-452 1148.41,-472.81 1171.85,-504.4 1185.1,-524.09"/>
<polygon fill="midnightblue" stroke="midnightblue" points="1182.18,-526.02 1190.59,-532.46 1188.03,-522.18 1182.18,-526.02"/>
</g>
<!-- Node12 -->
<g id="node12" class="node">
<title>Node12</title>
<g id="a_node12"><a xlink:href="lst__env_8c.html#a058c245b5f2ef22f9d2659f90e4d3537" target="_top" xlink:title=" ">
<polygon fill="none" stroke="black" points="727,-361.5 727,-380.5 785,-380.5 785,-361.5 727,-361.5"/>
<text text-anchor="middle" x="756" y="-368.5" font-family="Helvetica,sans-Serif" font-size="10.00">pop_env</text>
</a>
</g>
</g>
<!-- Node11&#45;&gt;Node12 -->
<g id="edge16" class="edge">
<title>Node11&#45;&gt;Node12</title>
<path fill="none" stroke="midnightblue" d="M654.6,-371C674.43,-371 697.69,-371 716.83,-371"/>
<polygon fill="midnightblue" stroke="midnightblue" points="716.99,-374.5 726.99,-371 716.99,-367.5 716.99,-374.5"/>
</g>
<!-- Node14 -->
<g id="node14" class="node">
<title>Node14</title>
<g id="a_node14"><a xlink:href="execution__node_8c.html#a74f4c34ebdc38c1fb50db2aa13f97b66" target="_top" xlink:title=" ">
<polygon fill="none" stroke="black" points="293,-380.5 293,-399.5 394,-399.5 394,-380.5 293,-380.5"/>
<text text-anchor="middle" x="343.5" y="-387.5" font-family="Helvetica,sans-Serif" font-size="10.00">check_accessible</text>
</a>
</g>
</g>
<!-- Node13&#45;&gt;Node14 -->
<g id="edge18" class="edge">
<title>Node13&#45;&gt;Node14</title>
<path fill="none" stroke="midnightblue" d="M244.56,-361.59C261.31,-366.45 281.86,-372.41 299.8,-377.61"/>
<polygon fill="midnightblue" stroke="midnightblue" points="298.87,-380.99 309.45,-380.41 300.82,-374.27 298.87,-380.99"/>
</g>
<!-- Node15 -->
<g id="node15" class="node">
<title>Node15</title>
<g id="a_node15"><a xlink:href="execution__node_8c.html#adc2c91230d4a0a1a1f98db2a888afcaa" target="_top" xlink:title="error message management for the specific case of execution">
<polygon fill="none" stroke="black" points="430,-380.5 430,-399.5 519,-399.5 519,-380.5 430,-380.5"/>
<text text-anchor="middle" x="474.5" y="-387.5" font-family="Helvetica,sans-Serif" font-size="10.00">message_error</text>
</a>
</g>
</g>
<!-- Node13&#45;&gt;Node15 -->
<g id="edge50" class="edge">
<title>Node13&#45;&gt;Node15</title>
<path fill="none" stroke="midnightblue" d="M257.1,-355.08C294.15,-357.99 347.68,-363.09 394,-371 405.14,-372.9 417.04,-375.46 428.15,-378.08"/>
<polygon fill="midnightblue" stroke="midnightblue" points="427.54,-381.53 438.09,-380.49 429.19,-374.73 427.54,-381.53"/>
</g>
<!-- Node16 -->
<g id="node16" class="node">
<title>Node16</title>
<g id="a_node16"><a xlink:href="launcher_8c.html#a3acc0bb56da881cc8609ca9e94ec8e93" target="_top" xlink:title="detect if it&#39;s a builtin with strncmp() but the real question is &quot;is it a builtin I have &#160;to launch i...">
<polygon fill="none" stroke="black" points="307,-304.5 307,-323.5 380,-323.5 380,-304.5 307,-304.5"/>
<text text-anchor="middle" x="343.5" y="-311.5" font-family="Helvetica,sans-Serif" font-size="10.00">is_it_builtin</text>
</a>
</g>
</g>
<!-- Node13&#45;&gt;Node16 -->
<g id="edge20" class="edge">
<title>Node13&#45;&gt;Node16</title>
<path fill="none" stroke="midnightblue" d="M244.56,-342.41C261.31,-337.55 281.86,-331.59 299.8,-326.39"/>
<polygon fill="midnightblue" stroke="midnightblue" points="300.82,-329.73 309.45,-323.59 298.87,-323.01 300.82,-329.73"/>
</g>
<!-- Node17 -->
<g id="node17" class="node">
<title>Node17</title>
<g id="a_node17"><a xlink:href="launcher_8c.html#a7bee4f6fbfd70ef7ec1f52856538ac71" target="_top" xlink:title="launch the builtin &#160;&#160;some of them are not present because we have to fork() them why ?...">
<polygon fill="none" stroke="black" points="301,-247.5 301,-266.5 386,-266.5 386,-247.5 301,-247.5"/>
<text text-anchor="middle" x="343.5" y="-254.5" font-family="Helvetica,sans-Serif" font-size="10.00">launch_builtin</text>
</a>
</g>
</g>
<!-- Node13&#45;&gt;Node17 -->
<g id="edge21" class="edge">
<title>Node13&#45;&gt;Node17</title>
<path fill="none" stroke="midnightblue" d="M239.89,-342.3C245.78,-339.7 251.79,-336.6 257,-333 276.15,-319.79 275.72,-310.58 293,-295 301.57,-287.27 311.58,-279.4 320.34,-272.84"/>
<polygon fill="midnightblue" stroke="midnightblue" points="322.61,-275.51 328.59,-266.77 318.46,-269.87 322.61,-275.51"/>
</g>
<!-- Node39 -->
<g id="node39" class="node">
<title>Node39</title>
<g id="a_node39"><a xlink:href="lst__env__two_8c.html#aafcce0b2f2958645e84ae23b14116680" target="_top" xlink:title=" ">
<polygon fill="none" stroke="black" points="299.5,-38.5 299.5,-57.5 387.5,-57.5 387.5,-38.5 299.5,-38.5"/>
<text text-anchor="middle" x="343.5" y="-45.5" font-family="Helvetica,sans-Serif" font-size="10.00">lst_to_tab_env</text>
</a>
</g>
</g>
<!-- Node13&#45;&gt;Node39 -->
<g id="edge47" class="edge">
<title>Node13&#45;&gt;Node39</title>
<path fill="none" stroke="midnightblue" d="M245.44,-342.41C249.83,-339.94 253.87,-336.86 257,-333 311.13,-266.24 264.84,-224.2 293,-143 302.75,-114.87 319.67,-84.77 330.97,-66.17"/>
<polygon fill="midnightblue" stroke="midnightblue" points="334.01,-67.9 336.3,-57.56 328.06,-64.21 334.01,-67.9"/>
</g>
<!-- Node42 -->
<g id="node42" class="node">
<title>Node42</title>
<g id="a_node42"><a xlink:href="getenv_8c.html#a5d0cf05c2622983111dcfc0f179c5739" target="_top" xlink:title=" ">
<polygon fill="none" stroke="black" points="305.5,-152.5 305.5,-171.5 381.5,-171.5 381.5,-152.5 305.5,-152.5"/>
<text text-anchor="middle" x="343.5" y="-159.5" font-family="Helvetica,sans-Serif" font-size="10.00">search_path</text>
</a>
</g>
</g>
<!-- Node13&#45;&gt;Node42 -->
<g id="edge51" class="edge">
<title>Node13&#45;&gt;Node42</title>
<path fill="none" stroke="midnightblue" d="M243.93,-342.38C248.74,-339.9 253.31,-336.81 257,-333 288.39,-300.54 272.56,-278.26 293,-238 303.51,-217.3 318.33,-195.24 329.01,-180.25"/>
<polygon fill="midnightblue" stroke="midnightblue" points="332.02,-182.06 335.05,-171.91 326.35,-177.95 332.02,-182.06"/>
</g>
<!-- Node14&#45;&gt;Node15 -->
<g id="edge19" class="edge">
<title>Node14&#45;&gt;Node15</title>
<path fill="none" stroke="midnightblue" d="M394.01,-390C402.39,-390 411.13,-390 419.62,-390"/>
<polygon fill="midnightblue" stroke="midnightblue" points="419.82,-393.5 429.82,-390 419.82,-386.5 419.82,-393.5"/>
</g>
<!-- Node18 -->
<g id="node18" class="node">
<title>Node18</title>
<g id="a_node18"><a xlink:href="cd_8c.html#afa3cf8a1d55856208b8d44453d4cf9b4" target="_top" xlink:title=" ">
<polygon fill="none" stroke="black" points="460,-228.5 460,-247.5 489,-247.5 489,-228.5 460,-228.5"/>
<text text-anchor="middle" x="474.5" y="-235.5" font-family="Helvetica,sans-Serif" font-size="10.00">cd</text>
</a>
</g>
</g>
<!-- Node17&#45;&gt;Node18 -->
<g id="edge22" class="edge">
<title>Node17&#45;&gt;Node18</title>
<path fill="none" stroke="midnightblue" d="M386.03,-250.88C407.13,-247.78 432.01,-244.11 449.83,-241.49"/>
<polygon fill="midnightblue" stroke="midnightblue" points="450.53,-244.92 459.91,-240 449.51,-238 450.53,-244.92"/>
</g>
<!-- Node23 -->
<g id="node23" class="node">
<title>Node23</title>
<g id="a_node23"><a xlink:href="env_8c.html#a08aa1a32a4d2f6bcca10f6424195d4ef" target="_top" xlink:title=" ">
<polygon fill="none" stroke="black" points="457,-342.5 457,-361.5 492,-361.5 492,-342.5 457,-342.5"/>
<text text-anchor="middle" x="474.5" y="-349.5" font-family="Helvetica,sans-Serif" font-size="10.00">env</text>
</a>
</g>
</g>
<!-- Node17&#45;&gt;Node23 -->
<g id="edge27" class="edge">
<title>Node17&#45;&gt;Node23</title>
<path fill="none" stroke="midnightblue" d="M358.41,-266.77C368.59,-274.13 382.57,-284.7 394,-295 411.28,-310.58 410.96,-319.63 430,-333 435.27,-336.7 441.38,-339.91 447.32,-342.59"/>
<polygon fill="midnightblue" stroke="midnightblue" points="446.41,-346 456.99,-346.58 449.08,-339.53 446.41,-346"/>
</g>
<!-- Node24 -->
<g id="node24" class="node">
<title>Node24</title>
<g id="a_node24"><a xlink:href="export_8c.html#a1bb2544b6254ee4ddb592a4cfa61734f" target="_top" xlink:title=" ">
<polygon fill="none" stroke="black" points="439,-190.5 439,-209.5 510,-209.5 510,-190.5 439,-190.5"/>
<text text-anchor="middle" x="474.5" y="-197.5" font-family="Helvetica,sans-Serif" font-size="10.00">export_call</text>
</a>
</g>
</g>
<!-- Node17&#45;&gt;Node24 -->
<g id="edge28" class="edge">
<title>Node17&#45;&gt;Node24</title>
<path fill="none" stroke="midnightblue" d="M365.92,-247.44C383.2,-239.73 408.15,-228.63 430,-219 433.9,-217.28 438.01,-215.48 442.07,-213.7"/>
<polygon fill="midnightblue" stroke="midnightblue" points="443.6,-216.85 451.36,-209.64 440.79,-210.44 443.6,-216.85"/>
</g>
<!-- Node32 -->
<g id="node32" class="node">
<title>Node32</title>
<g id="a_node32"><a xlink:href="my__echo_8c.html#a5522916069f77552d810e207670e3170" target="_top" xlink:title=" ">
<polygon fill="none" stroke="black" points="444,-114.5 444,-133.5 505,-133.5 505,-114.5 444,-114.5"/>
<text text-anchor="middle" x="474.5" y="-121.5" font-family="Helvetica,sans-Serif" font-size="10.00">my_echo</text>
</a>
</g>
</g>
<!-- Node17&#45;&gt;Node32 -->
<g id="edge37" class="edge">
<title>Node17&#45;&gt;Node32</title>
<path fill="none" stroke="midnightblue" d="M353.78,-247.43C375.43,-225.11 429.53,-169.34 456.97,-141.04"/>
<polygon fill="midnightblue" stroke="midnightblue" points="459.51,-143.45 463.96,-133.84 454.48,-138.58 459.51,-143.45"/>
</g>
<!-- Node34 -->
<g id="node34" class="node">
<title>Node34</title>
<g id="a_node34"><a xlink:href="exit_8c.html#adcbec3416f97b2d0b8d53cf4c2b2a436" target="_top" xlink:title=" ">
<polygon fill="none" stroke="black" points="446.5,-304.5 446.5,-323.5 502.5,-323.5 502.5,-304.5 446.5,-304.5"/>
<text text-anchor="middle" x="474.5" y="-311.5" font-family="Helvetica,sans-Serif" font-size="10.00">my_exit</text>
</a>
</g>
</g>
<!-- Node17&#45;&gt;Node34 -->
<g id="edge39" class="edge">
<title>Node17&#45;&gt;Node34</title>
<path fill="none" stroke="midnightblue" d="M365.92,-266.56C383.2,-274.27 408.15,-285.37 430,-295 433.9,-296.72 438.01,-298.52 442.07,-300.3"/>
<polygon fill="midnightblue" stroke="midnightblue" points="440.79,-303.56 451.36,-304.36 443.6,-297.15 440.79,-303.56"/>
</g>
<!-- Node36 -->
<g id="node36" class="node">
<title>Node36</title>
<g id="a_node36"><a xlink:href="pwd_8c.html#ac6977235be2514ba716ef89aad796063" target="_top" xlink:title=" ">
<polygon fill="none" stroke="black" points="456,-266.5 456,-285.5 493,-285.5 493,-266.5 456,-266.5"/>
<text text-anchor="middle" x="474.5" y="-273.5" font-family="Helvetica,sans-Serif" font-size="10.00">pwd</text>
</a>
</g>
</g>
<!-- Node17&#45;&gt;Node36 -->
<g id="edge44" class="edge">
<title>Node17&#45;&gt;Node36</title>
<path fill="none" stroke="midnightblue" d="M386.03,-263.12C405.54,-265.99 428.29,-269.34 445.7,-271.9"/>
<polygon fill="midnightblue" stroke="midnightblue" points="445.36,-275.39 455.77,-273.39 446.38,-268.47 445.36,-275.39"/>
</g>
<!-- Node37 -->
<g id="node37" class="node">
<title>Node37</title>
<g id="a_node37"><a xlink:href="unset_8c.html#abcfd4d5a4f0408bdc748ce044e5ce08c" target="_top" xlink:title=" ">
<polygon fill="none" stroke="black" points="441.5,-76.5 441.5,-95.5 507.5,-95.5 507.5,-76.5 441.5,-76.5"/>
<text text-anchor="middle" x="474.5" y="-83.5" font-family="Helvetica,sans-Serif" font-size="10.00">unset_call</text>
</a>
</g>
</g>
<!-- Node17&#45;&gt;Node37 -->
<g id="edge45" class="edge">
<title>Node17&#45;&gt;Node37</title>
<path fill="none" stroke="midnightblue" d="M351.34,-247.42C361.31,-233.26 380.17,-205.74 394,-181 412.24,-148.38 403.17,-131.02 430,-105 431.46,-103.58 433.05,-102.26 434.73,-101.03"/>
<polygon fill="midnightblue" stroke="midnightblue" points="436.91,-103.79 443.64,-95.6 433.27,-97.81 436.91,-103.79"/>
</g>
<!-- Node19 -->
<g id="node19" class="node">
<title>Node19</title>
<g id="a_node19"><a xlink:href="cd_8c.html#a7593627e795ae769b5117673b60846c9" target="_top" xlink:title=" ">
<polygon fill="none" stroke="black" points="594,-266.5 594,-285.5 626,-285.5 626,-266.5 594,-266.5"/>
<text text-anchor="middle" x="610" y="-273.5" font-family="Helvetica,sans-Serif" font-size="10.00">len</text>
</a>
</g>
</g>
<!-- Node18&#45;&gt;Node19 -->
<g id="edge23" class="edge">
<title>Node18&#45;&gt;Node19</title>
<path fill="none" stroke="midnightblue" d="M489.28,-241.92C511.61,-248.28 556.01,-260.92 584.02,-268.89"/>
<polygon fill="midnightblue" stroke="midnightblue" points="583.29,-272.32 593.87,-271.69 585.21,-265.59 583.29,-272.32"/>
</g>
<!-- Node20 -->
<g id="node20" class="node">
<title>Node20</title>
<g id="a_node20"><a xlink:href="lst__env__two_8c.html#a4d4a14327b2c3ff88099102b6bd77986" target="_top" xlink:title=" ">
<polygon fill="none" stroke="black" points="558,-152.5 558,-171.5 662,-171.5 662,-152.5 558,-152.5"/>
<text text-anchor="middle" x="610" y="-159.5" font-family="Helvetica,sans-Serif" font-size="10.00">research_key_env</text>
</a>
</g>
</g>
<!-- Node18&#45;&gt;Node20 -->
<g id="edge24" class="edge">
<title>Node18&#45;&gt;Node20</title>
<path fill="none" stroke="midnightblue" d="M489.17,-233.63C498.12,-230.4 509.83,-225.44 519,-219 538.04,-205.63 535.48,-193.66 555,-181 558.1,-178.99 561.44,-177.16 564.88,-175.51"/>
<polygon fill="midnightblue" stroke="midnightblue" points="566.35,-178.69 574.15,-171.52 563.58,-172.26 566.35,-178.69"/>
</g>
<!-- Node21 -->
<g id="node21" class="node">
<title>Node21</title>
<g id="a_node21"><a xlink:href="cd_8c.html#a68bb8beb2cf13bb992af8322f31f94e7" target="_top" xlink:title=" ">
<polygon fill="none" stroke="black" points="718,-228.5 718,-247.5 794,-247.5 794,-228.5 718,-228.5"/>
<text text-anchor="middle" x="756" y="-235.5" font-family="Helvetica,sans-Serif" font-size="10.00">update_pwd</text>
</a>
</g>
</g>
<!-- Node18&#45;&gt;Node21 -->
<g id="edge25" class="edge">
<title>Node18&#45;&gt;Node21</title>
<path fill="none" stroke="midnightblue" d="M489.36,-238C528.78,-238 642.86,-238 707.98,-238"/>
<polygon fill="midnightblue" stroke="midnightblue" points="708,-241.5 718,-238 708,-234.5 708,-241.5"/>
</g>
<!-- Node22 -->
<g id="node22" class="node">
<title>Node22</title>
<g id="a_node22"><a xlink:href="lst__env__two_8c.html#a8cd6579fc3858072521e55ef235a2637" target="_top" xlink:title=" ">
<polygon fill="none" stroke="black" points="861,-228.5 861,-247.5 972,-247.5 972,-228.5 861,-228.5"/>
<text text-anchor="middle" x="916.5" y="-235.5" font-family="Helvetica,sans-Serif" font-size="10.00">research_node_env</text>
</a>
</g>
</g>
<!-- Node21&#45;&gt;Node22 -->
<g id="edge26" class="edge">
<title>Node21&#45;&gt;Node22</title>
<path fill="none" stroke="midnightblue" d="M794.16,-238C810.99,-238 831.39,-238 850.62,-238"/>
<polygon fill="midnightblue" stroke="midnightblue" points="850.85,-241.5 860.85,-238 850.85,-234.5 850.85,-241.5"/>
</g>
<!-- Node25 -->
<g id="node25" class="node">
<title>Node25</title>
<g id="a_node25"><a xlink:href="export_8c.html#a63ef72e778f2b52c924bf77ae989dc80" target="_top" xlink:title=" ">
<polygon fill="none" stroke="black" points="586,-190.5 586,-209.5 634,-209.5 634,-190.5 586,-190.5"/>
<text text-anchor="middle" x="610" y="-197.5" font-family="Helvetica,sans-Serif" font-size="10.00">export</text>
</a>
</g>
</g>
<!-- Node24&#45;&gt;Node25 -->
<g id="edge29" class="edge">
<title>Node24&#45;&gt;Node25</title>
<path fill="none" stroke="midnightblue" d="M510.23,-200C530.4,-200 555.68,-200 575.62,-200"/>
<polygon fill="midnightblue" stroke="midnightblue" points="575.79,-203.5 585.79,-200 575.79,-196.5 575.79,-203.5"/>
</g>
<!-- Node26 -->
<g id="node26" class="node">
<title>Node26</title>
<g id="a_node26"><a xlink:href="export_8c.html#a077edb8749298d8320620813ff84519c" target="_top" xlink:title=" ">
<polygon fill="none" stroke="black" points="701,-152.5 701,-171.5 811,-171.5 811,-152.5 701,-152.5"/>
<text text-anchor="middle" x="756" y="-159.5" font-family="Helvetica,sans-Serif" font-size="10.00">check_validity_key</text>
</a>
</g>
</g>
<!-- Node25&#45;&gt;Node26 -->
<g id="edge30" class="edge">
<title>Node25&#45;&gt;Node26</title>
<path fill="none" stroke="midnightblue" d="M634.14,-193.89C654.35,-188.56 684.29,-180.66 709.32,-174.06"/>
<polygon fill="midnightblue" stroke="midnightblue" points="710.21,-177.44 718.99,-171.5 708.43,-170.67 710.21,-177.44"/>
</g>
<!-- Node27 -->
<g id="node27" class="node">
<title>Node27</title>
<g id="a_node27"><a xlink:href="export_8c.html#a90ff129fee9412bd5c6d74be5970b99f" target="_top" xlink:title=" ">
<polygon fill="none" stroke="black" points="701,-190.5 701,-209.5 811,-209.5 811,-190.5 701,-190.5"/>
<text text-anchor="middle" x="756" y="-197.5" font-family="Helvetica,sans-Serif" font-size="10.00">export_env_update</text>
</a>
</g>
</g>
<!-- Node25&#45;&gt;Node27 -->
<g id="edge31" class="edge">
<title>Node25&#45;&gt;Node27</title>
<path fill="none" stroke="midnightblue" d="M634.14,-200C649.51,-200 670.5,-200 690.68,-200"/>
<polygon fill="midnightblue" stroke="midnightblue" points="690.81,-203.5 700.81,-200 690.81,-196.5 690.81,-203.5"/>
</g>
<!-- Node27&#45;&gt;Node22 -->
<g id="edge36" class="edge">
<title>Node27&#45;&gt;Node22</title>
<path fill="none" stroke="midnightblue" d="M797,-209.59C817.91,-214.6 843.71,-220.79 865.89,-226.11"/>
<polygon fill="midnightblue" stroke="midnightblue" points="865.25,-229.55 875.79,-228.48 866.88,-222.74 865.25,-229.55"/>
</g>
<!-- Node28 -->
<g id="node28" class="node">
<title>Node28</title>
<g id="a_node28"><a xlink:href="export_8c.html#a56cdba320963b2a94cb193c22ca238b7" target="_top" xlink:title=" ">
<polygon fill="none" stroke="black" points="887.5,-190.5 887.5,-209.5 945.5,-209.5 945.5,-190.5 887.5,-190.5"/>
<text text-anchor="middle" x="916.5" y="-197.5" font-family="Helvetica,sans-Serif" font-size="10.00">add_env</text>
</a>
</g>
</g>
<!-- Node27&#45;&gt;Node28 -->
<g id="edge32" class="edge">
<title>Node27&#45;&gt;Node28</title>
<path fill="none" stroke="midnightblue" d="M811.1,-200C832.84,-200 857.4,-200 877.24,-200"/>
<polygon fill="midnightblue" stroke="midnightblue" points="877.43,-203.5 887.43,-200 877.43,-196.5 877.43,-203.5"/>
</g>
<!-- Node29 -->
<g id="node29" class="node">
<title>Node29</title>
<g id="a_node29"><a xlink:href="lst__env_8c.html#a9c375db3cbfe2e87b52bae7ee7472eae" target="_top" xlink:title=" ">
<polygon fill="none" stroke="black" points="1022,-171.5 1022,-190.5 1122,-190.5 1122,-171.5 1022,-171.5"/>
<text text-anchor="middle" x="1072" y="-178.5" font-family="Helvetica,sans-Serif" font-size="10.00">create_node_env</text>
</a>
</g>
</g>
<!-- Node28&#45;&gt;Node29 -->
<g id="edge33" class="edge">
<title>Node28&#45;&gt;Node29</title>
<path fill="none" stroke="midnightblue" d="M945.65,-196.52C964.2,-194.22 989.18,-191.13 1011.96,-188.31"/>
<polygon fill="midnightblue" stroke="midnightblue" points="1012.4,-191.78 1021.9,-187.08 1011.54,-184.83 1012.4,-191.78"/>
</g>
<!-- Node30 -->
<g id="node30" class="node">
<title>Node30</title>
<g id="a_node30"><a xlink:href="lst__env_8c.html#a5976d1b2a8159220749fac94a83d5c95" target="_top" xlink:title=" ">
<polygon fill="none" stroke="black" points="1026,-209.5 1026,-228.5 1118,-228.5 1118,-209.5 1026,-209.5"/>
<text text-anchor="middle" x="1072" y="-216.5" font-family="Helvetica,sans-Serif" font-size="10.00">push_back_env</text>
</a>
</g>
</g>
<!-- Node28&#45;&gt;Node30 -->
<g id="edge34" class="edge">
<title>Node28&#45;&gt;Node30</title>
<path fill="none" stroke="midnightblue" d="M945.65,-203.48C965.27,-205.91 992.08,-209.23 1015.87,-212.18"/>
<polygon fill="midnightblue" stroke="midnightblue" points="1015.5,-215.66 1025.85,-213.41 1016.36,-208.71 1015.5,-215.66"/>
</g>
<!-- Node31 -->
<g id="node31" class="node">
<title>Node31</title>
<g id="a_node31"><a xlink:href="env__utils_8c.html#ac7b3f84bb622bdf477616c5b0022f035" target="_top" xlink:title=" ">
<polygon fill="none" stroke="black" points="1158,-209.5 1158,-228.5 1237,-228.5 1237,-209.5 1158,-209.5"/>
<text text-anchor="middle" x="1197.5" y="-216.5" font-family="Helvetica,sans-Serif" font-size="10.00">get_last_env</text>
</a>
</g>
</g>
<!-- Node30&#45;&gt;Node31 -->
<g id="edge35" class="edge">
<title>Node30&#45;&gt;Node31</title>
<path fill="none" stroke="midnightblue" d="M1118.29,-219C1127.79,-219 1137.86,-219 1147.49,-219"/>
<polygon fill="midnightblue" stroke="midnightblue" points="1147.73,-222.5 1157.73,-219 1147.73,-215.5 1147.73,-222.5"/>
</g>
<!-- Node33 -->
<g id="node33" class="node">
<title>Node33</title>
<g id="a_node33"><a xlink:href="my__echo_8c.html#a7c657de7306d33ae5cdab2bf43f35ae1" target="_top" xlink:title=" ">
<polygon fill="none" stroke="black" points="555,-114.5 555,-133.5 665,-133.5 665,-114.5 555,-114.5"/>
<text text-anchor="middle" x="610" y="-121.5" font-family="Helvetica,sans-Serif" font-size="10.00">check_option_echo</text>
</a>
</g>
</g>
<!-- Node32&#45;&gt;Node33 -->
<g id="edge38" class="edge">
<title>Node32&#45;&gt;Node33</title>
<path fill="none" stroke="midnightblue" d="M505.13,-124C516.87,-124 530.87,-124 544.72,-124"/>
<polygon fill="midnightblue" stroke="midnightblue" points="544.74,-127.5 554.74,-124 544.74,-120.5 544.74,-127.5"/>
</g>
<!-- Node34&#45;&gt;Node7 -->
<g id="edge41" class="edge">
<title>Node34&#45;&gt;Node7</title>
<path fill="none" stroke="midnightblue" d="M502.73,-322.92C508.48,-325.59 514.25,-328.92 519,-333 541.73,-352.52 536.61,-366.35 555,-390 566.18,-404.38 580.39,-419.27 591.43,-430.22"/>
<polygon fill="midnightblue" stroke="midnightblue" points="589.22,-432.96 598.82,-437.44 594.11,-427.95 589.22,-432.96"/>
</g>
<!-- Node34&#45;&gt;Node11 -->
<g id="edge42" class="edge">
<title>Node34&#45;&gt;Node11</title>
<path fill="none" stroke="midnightblue" d="M497.84,-323.54C519.6,-332.83 552.87,-347.04 577.35,-357.49"/>
<polygon fill="midnightblue" stroke="midnightblue" points="576.01,-360.72 586.58,-361.43 578.76,-354.28 576.01,-360.72"/>
</g>
<!-- Node34&#45;&gt;Node19 -->
<g id="edge43" class="edge">
<title>Node34&#45;&gt;Node19</title>
<path fill="none" stroke="midnightblue" d="M502.52,-306.31C526.3,-299.54 560.67,-289.76 583.87,-283.15"/>
<polygon fill="midnightblue" stroke="midnightblue" points="585.01,-286.47 593.67,-280.36 583.09,-279.74 585.01,-286.47"/>
</g>
<!-- Node35 -->
<g id="node35" class="node">
<title>Node35</title>
<g id="a_node35"><a xlink:href="exit_8c.html#a7e369b4894a31549c9b65f718e28823f" target="_top" xlink:title=" ">
<polygon fill="none" stroke="black" points="575.5,-304.5 575.5,-323.5 644.5,-323.5 644.5,-304.5 575.5,-304.5"/>
<text text-anchor="middle" x="610" y="-311.5" font-family="Helvetica,sans-Serif" font-size="10.00">check_exit</text>
</a>
</g>
</g>
<!-- Node34&#45;&gt;Node35 -->
<g id="edge40" class="edge">
<title>Node34&#45;&gt;Node35</title>
<path fill="none" stroke="midnightblue" d="M502.52,-314C520.5,-314 544.55,-314 565.23,-314"/>
<polygon fill="midnightblue" stroke="midnightblue" points="565.39,-317.5 575.39,-314 565.39,-310.5 565.39,-317.5"/>
</g>
<!-- Node38 -->
<g id="node38" class="node">
<title>Node38</title>
<g id="a_node38"><a xlink:href="unset_8c.html#a4b3bbc6cfa6ff293119825a11324fb9f" target="_top" xlink:title=" ">
<polygon fill="none" stroke="black" points="588,-76.5 588,-95.5 632,-95.5 632,-76.5 588,-76.5"/>
<text text-anchor="middle" x="610" y="-83.5" font-family="Helvetica,sans-Serif" font-size="10.00">unset</text>
</a>
</g>
</g>
<!-- Node37&#45;&gt;Node38 -->
<g id="edge46" class="edge">
<title>Node37&#45;&gt;Node38</title>
<path fill="none" stroke="midnightblue" d="M507.82,-86C529.07,-86 556.75,-86 577.78,-86"/>
<polygon fill="midnightblue" stroke="midnightblue" points="577.81,-89.5 587.81,-86 577.81,-82.5 577.81,-89.5"/>
</g>
<!-- Node40 -->
<g id="node40" class="node">
<title>Node40</title>
<g id="a_node40"><a xlink:href="env__utils_8c.html#a7cc35c974bce053dbba1c1ec1028f36b" target="_top" xlink:title=" ">
<polygon fill="none" stroke="black" points="436,-0.5 436,-19.5 513,-19.5 513,-0.5 436,-0.5"/>
<text text-anchor="middle" x="474.5" y="-7.5" font-family="Helvetica,sans-Serif" font-size="10.00">env_lst_size</text>
</a>
</g>
</g>
<!-- Node39&#45;&gt;Node40 -->
<g id="edge48" class="edge">
<title>Node39&#45;&gt;Node40</title>
<path fill="none" stroke="midnightblue" d="M377.05,-38.41C393.4,-33.6 413.41,-27.7 430.96,-22.53"/>
<polygon fill="midnightblue" stroke="midnightblue" points="432.35,-25.77 440.96,-19.59 430.38,-19.05 432.35,-25.77"/>
</g>
<!-- Node41 -->
<g id="node41" class="node">
<title>Node41</title>
<g id="a_node41"><a xlink:href="getenv_8c.html#a0250cce1862c20e31d0c0ece960bc3a0" target="_top" xlink:title=" ">
<polygon fill="none" stroke="black" points="443.5,-38.5 443.5,-57.5 505.5,-57.5 505.5,-38.5 443.5,-38.5"/>
<text text-anchor="middle" x="474.5" y="-45.5" font-family="Helvetica,sans-Serif" font-size="10.00">join_path</text>
</a>
</g>
</g>
<!-- Node39&#45;&gt;Node41 -->
<g id="edge49" class="edge">
<title>Node39&#45;&gt;Node41</title>
<path fill="none" stroke="midnightblue" d="M387.81,-48C402.42,-48 418.66,-48 433.04,-48"/>
<polygon fill="midnightblue" stroke="midnightblue" points="433.13,-51.5 443.13,-48 433.13,-44.5 433.13,-51.5"/>
</g>
<!-- Node42&#45;&gt;Node20 -->
<g id="edge53" class="edge">
<title>Node42&#45;&gt;Node20</title>
<path fill="none" stroke="midnightblue" d="M381.56,-162C424.52,-162 496,-162 547.36,-162"/>
<polygon fill="midnightblue" stroke="midnightblue" points="547.68,-165.5 557.68,-162 547.68,-158.5 547.68,-165.5"/>
</g>
<!-- Node42&#45;&gt;Node41 -->
<g id="edge52" class="edge">
<title>Node42&#45;&gt;Node41</title>
<path fill="none" stroke="midnightblue" d="M350.97,-152.41C363.99,-133.75 395.09,-92.18 430,-67 432.38,-65.28 434.94,-63.68 437.59,-62.18"/>
<polygon fill="midnightblue" stroke="midnightblue" points="439.42,-65.18 446.76,-57.54 436.26,-58.93 439.42,-65.18"/>
</g>
</g>
</svg>
        <g id="navigator" transform="translate(0 0)" fill="#404254">
                <rect fill="#f2f5e9" fill-opacity="0.5" stroke="#606060" stroke-width=".5" x="0" y="0" width="60" height="60"/>
                <use id="zoomplus" xlink:href="#zoomPlus" x="17" y="9" onmousedown="handleZoom(evt,'in')"/>
                <use id="zoomminus" xlink:href="#zoomMin" x="42" y="9" onmousedown="handleZoom(evt,'out')"/>
                <use id="reset" xlink:href="#resetDef" x="30" y="36" onmousedown="handleReset()"/>
                <g id="arrowUp" xlink:href="#dirArrow" transform="translate(30 24)" onmousedown="handlePan(0,-1)">
                  <use xlink:href="#rim" fill="#404040">
                        <set attributeName="fill" to="#808080" begin="arrowUp.mouseover" end="arrowUp.mouseout"/>
                  </use>
                  <path fill="none" stroke="white" stroke-width="1.5" d="M0,-3.0v7 M-2.5,-0.5L0,-3.0L2.5,-0.5"/>
                </g>
                <g id="arrowRight" xlink:href="#dirArrow" transform="rotate(90) translate(36 -43)" onmousedown="handlePan(1,0)">
                  <use xlink:href="#rim" fill="#404040">
                        <set attributeName="fill" to="#808080" begin="arrowRight.mouseover" end="arrowRight.mouseout"/>
                  </use>
                  <path fill="none" stroke="white" stroke-width="1.5" d="M0,-3.0v7 M-2.5,-0.5L0,-3.0L2.5,-0.5"/>
                </g>
                <g id="arrowDown" xlink:href="#dirArrow" transform="rotate(180) translate(-30 -48)" onmousedown="handlePan(0,1)">
                  <use xlink:href="#rim" fill="#404040">
                        <set attributeName="fill" to="#808080" begin="arrowDown.mouseover" end="arrowDown.mouseout"/>
                  </use>
                  <path fill="none" stroke="white" stroke-width="1.5" d="M0,-3.0v7 M-2.5,-0.5L0,-3.0L2.5,-0.5"/>
                </g>
                <g id="arrowLeft" xlink:href="#dirArrow" transform="rotate(270) translate(-36 17)" onmousedown="handlePan(-1,0)">
                  <use xlink:href="#rim" fill="#404040">
                        <set attributeName="fill" to="#808080" begin="arrowLeft.mouseover" end="arrowLeft.mouseout"/>
                  </use>
                  <path fill="none" stroke="white" stroke-width="1.5" d="M0,-3.0v7 M-2.5,-0.5L0,-3.0L2.5,-0.5"/>
                </g>
        </g>
        <svg viewBox="0 0 15 15" width="100%" height="30px" preserveAspectRatio="xMaxYMin meet">
         <g id="arrow_out" transform="scale(0.3 0.3)">
          <a xlink:href="minishell_8h_aa6f3ac2f0c10538c125eafcb587fd021_cgraph_org.svg" target="_base">
           <rect id="button" ry="5" rx="5" y="6" x="6" height="38" width="38"
                fill="#f2f5e9" fill-opacity="0.5" stroke="#606060" stroke-width="1.0"/>
           <path id="arrow"
             d="M 11.500037,31.436501 C 11.940474,20.09759 22.043105,11.32322 32.158766,21.979434 L 37.068811,17.246167 C 37.068811,17.246167 37.088388,32 37.088388,32 L 22.160133,31.978069 C 22.160133,31.978069 26.997745,27.140456 26.997745,27.140456 C 18.528582,18.264221 13.291696,25.230495 11.500037,31.436501 z"
             style="fill:#404040;"/>
          </a>
         </g>
        </svg>
</svg>
