<?xml version="1.0" encoding="UTF-8" standalone="no"?>
<!DOCTYPE svg PUBLIC "-//W3C//DTD SVG 1.1//EN"
 "http://www.w3.org/Graphics/SVG/1.1/DTD/svg11.dtd">
<!-- Generated by graphviz version 2.43.0 (0)
 -->
<!-- Title: execution_node Pages: 1 -->
<!--zoomable 408 -->
<svg id="main" version="1.1" xmlns="http://www.w3.org/2000/svg" xmlns:xlink="http://www.w3.org/1999/xlink" xml:space="preserve" onload="init(evt)">
<style type="text/css"><![CDATA[
.edge:hover path { stroke: red; }
.edge:hover polygon { stroke: red; fill: red; }
]]></style>
<script type="text/javascript"><![CDATA[
var edges = document.getElementsByTagName('g');
if (edges && edges.length) {
  for (var i=0;i<edges.length;i++) {
    if (edges[i].id.substr(0,4)=='edge') {
      edges[i].setAttribute('class','edge');
    }
  }
}
]]></script>
        <defs>
                <circle id="rim" cx="0" cy="0" r="7"/>
                <circle id="rim2" cx="0" cy="0" r="3.5"/>
                <g id="zoomPlus">
                        <use xlink:href="#rim" fill="#404040">
                                <set attributeName="fill" to="#808080" begin="zoomplus.mouseover" end="zoomplus.mouseout"/>
                        </use>
                        <path d="M-4,0h8M0,-4v8" fill="none" stroke="white" stroke-width="1.5" pointer-events="none"/>
                </g>
                <g id="zoomMin">
                        <use xlink:href="#rim" fill="#404040">
                                <set attributeName="fill" to="#808080" begin="zoomminus.mouseover" end="zoomminus.mouseout"/>
                        </use>
                        <path d="M-4,0h8" fill="none" stroke="white" stroke-width="1.5" pointer-events="none"/>
                </g>
                <g id="dirArrow">
                        <path fill="none" stroke="white" stroke-width="1.5" d="M0,-3.0v7 M-2.5,-0.5L0,-3.0L2.5,-0.5"/>
                </g>
               <g id="resetDef">
                       <use xlink:href="#rim2" fill="#404040">
                               <set attributeName="fill" to="#808080" begin="reset.mouseover" end="reset.mouseout"/>
                       </use>
               </g>
        </defs>

<script type="text/javascript">
var viewWidth = 1053;
var viewHeight = 408;
var sectionId = 'dynsection-31';
</script>
<script xlink:href="svgpan.js"/>
<svg id="graph" class="graph">
<g id="viewport">
<title>execution_node</title>
<!-- Node1 -->
<g id="node1" class="node">
<title>Node1</title>
<g id="a_node1"><a xlink:title="we are going to execute the command here we have a security about absolute path given =&gt; because it&#39;s...">
<polygon fill="#bfbfbf" stroke="black" points="0,-247.5 0,-266.5 93,-266.5 93,-247.5 0,-247.5"/>
<text text-anchor="middle" x="46.5" y="-254.5" font-family="Helvetica,sans-Serif" font-size="10.00">execution_node</text>
</a>
</g>
</g>
<!-- Node2 -->
<g id="node2" class="node">
<title>Node2</title>
<g id="a_node2"><a xlink:href="execution__node_8c.html#a74f4c34ebdc38c1fb50db2aa13f97b66" target="_top" xlink:title=" ">
<polygon fill="none" stroke="black" points="129,-370.5 129,-389.5 230,-389.5 230,-370.5 129,-370.5"/>
<text text-anchor="middle" x="179.5" y="-377.5" font-family="Helvetica,sans-Serif" font-size="10.00">check_accessible</text>
</a>
</g>
</g>
<!-- Node1&#45;&gt;Node2 -->
<g id="edge1" class="edge">
<title>Node1&#45;&gt;Node2</title>
<path fill="none" stroke="midnightblue" d="M54.91,-266.65C68.46,-283.94 98.67,-320.85 129,-347 136.39,-353.37 145.06,-359.53 153.07,-364.77"/>
<polygon fill="midnightblue" stroke="midnightblue" points="151.4,-367.86 161.72,-370.26 155.15,-361.95 151.4,-367.86"/>
</g>
<!-- Node3 -->
<g id="node3" class="node">
<title>Node3</title>
<g id="a_node3"><a xlink:href="execution__node_8c.html#adc2c91230d4a0a1a1f98db2a888afcaa" target="_top" xlink:title="error message management for the specific case of execution">
<polygon fill="none" stroke="black" points="266,-380.5 266,-399.5 355,-399.5 355,-380.5 266,-380.5"/>
<text text-anchor="middle" x="310.5" y="-387.5" font-family="Helvetica,sans-Serif" font-size="10.00">message_error</text>
</a>
</g>
</g>
<!-- Node1&#45;&gt;Node3 -->
<g id="edge39" class="edge">
<title>Node1&#45;&gt;Node3</title>
<path fill="none" stroke="midnightblue" d="M64.85,-266.58C101.56,-286.72 189.97,-334.61 266,-371 269.66,-372.75 273.52,-374.53 277.37,-376.26"/>
<polygon fill="midnightblue" stroke="midnightblue" points="276.23,-379.59 286.79,-380.43 279.06,-373.19 276.23,-379.59"/>
</g>
<!-- Node4 -->
<g id="node4" class="node">
<title>Node4</title>
<g id="a_node4"><a xlink:href="launcher_8c.html#a3acc0bb56da881cc8609ca9e94ec8e93" target="_top" xlink:title="detect if it&#39;s a builtin with strncmp() but the real question is &quot;is it a builtin I have &#160;to launch i...">
<polygon fill="none" stroke="black" points="143,-266.5 143,-285.5 216,-285.5 216,-266.5 143,-266.5"/>
<text text-anchor="middle" x="179.5" y="-273.5" font-family="Helvetica,sans-Serif" font-size="10.00">is_it_builtin</text>
</a>
</g>
</g>
<!-- Node1&#45;&gt;Node4 -->
<g id="edge3" class="edge">
<title>Node1&#45;&gt;Node4</title>
<path fill="none" stroke="midnightblue" d="M93.32,-263.65C106.13,-265.5 120.04,-267.52 132.84,-269.38"/>
<polygon fill="midnightblue" stroke="midnightblue" points="132.42,-272.85 142.82,-270.83 133.43,-265.93 132.42,-272.85"/>
</g>
<!-- Node5 -->
<g id="node5" class="node">
<title>Node5</title>
<g id="a_node5"><a xlink:href="launcher_8c.html#a7bee4f6fbfd70ef7ec1f52856538ac71" target="_top" xlink:title="launch the builtin &#160;&#160;some of them are not present because we have to fork() them why ?...">
<polygon fill="none" stroke="black" points="137,-228.5 137,-247.5 222,-247.5 222,-228.5 137,-228.5"/>
<text text-anchor="middle" x="179.5" y="-235.5" font-family="Helvetica,sans-Serif" font-size="10.00">launch_builtin</text>
</a>
</g>
</g>
<!-- Node1&#45;&gt;Node5 -->
<g id="edge4" class="edge">
<title>Node1&#45;&gt;Node5</title>
<path fill="none" stroke="midnightblue" d="M93.32,-250.35C104.16,-248.78 115.8,-247.09 126.89,-245.49"/>
<polygon fill="midnightblue" stroke="midnightblue" points="127.48,-248.94 136.87,-244.04 126.47,-242.01 127.48,-248.94"/>
</g>
<!-- Node34 -->
<g id="node34" class="node">
<title>Node34</title>
<g id="a_node34"><a xlink:href="lst__env__two_8c.html#aafcce0b2f2958645e84ae23b14116680" target="_top" xlink:title=" ">
<polygon fill="none" stroke="black" points="135.5,-38.5 135.5,-57.5 223.5,-57.5 223.5,-38.5 135.5,-38.5"/>
<text text-anchor="middle" x="179.5" y="-45.5" font-family="Helvetica,sans-Serif" font-size="10.00">lst_to_tab_env</text>
</a>
</g>
</g>
<!-- Node1&#45;&gt;Node34 -->
<g id="edge36" class="edge">
<title>Node1&#45;&gt;Node34</title>
<path fill="none" stroke="midnightblue" d="M51.77,-247.32C62.86,-222.61 94.16,-155.54 129,-105 138.84,-90.73 151.73,-75.98 161.89,-65.07"/>
<polygon fill="midnightblue" stroke="midnightblue" points="164.69,-67.2 169.03,-57.54 159.61,-62.39 164.69,-67.2"/>
</g>
<!-- Node37 -->
<g id="node37" class="node">
<title>Node37</title>
<g id="a_node37"><a xlink:href="getenv_8c.html#a5d0cf05c2622983111dcfc0f179c5739" target="_top" xlink:title=" ">
<polygon fill="none" stroke="black" points="141.5,-114.5 141.5,-133.5 217.5,-133.5 217.5,-114.5 141.5,-114.5"/>
<text text-anchor="middle" x="179.5" y="-121.5" font-family="Helvetica,sans-Serif" font-size="10.00">search_path</text>
</a>
</g>
</g>
<!-- Node1&#45;&gt;Node37 -->
<g id="edge40" class="edge">
<title>Node1&#45;&gt;Node37</title>
<path fill="none" stroke="midnightblue" d="M56.92,-247.43C78.91,-225.11 133.85,-169.34 161.72,-141.04"/>
<polygon fill="midnightblue" stroke="midnightblue" points="164.29,-143.42 168.81,-133.84 159.3,-138.51 164.29,-143.42"/>
</g>
<!-- Node2&#45;&gt;Node3 -->
<g id="edge2" class="edge">
<title>Node2&#45;&gt;Node3</title>
<path fill="none" stroke="midnightblue" d="M230.01,-383.84C238.39,-384.49 247.13,-385.17 255.62,-385.82"/>
<polygon fill="midnightblue" stroke="midnightblue" points="255.57,-389.33 265.82,-386.61 256.12,-382.35 255.57,-389.33"/>
</g>
<!-- Node6 -->
<g id="node6" class="node">
<title>Node6</title>
<g id="a_node6"><a xlink:href="cd_8c.html#afa3cf8a1d55856208b8d44453d4cf9b4" target="_top" xlink:title=" ">
<polygon fill="none" stroke="black" points="296,-228.5 296,-247.5 325,-247.5 325,-228.5 296,-228.5"/>
<text text-anchor="middle" x="310.5" y="-235.5" font-family="Helvetica,sans-Serif" font-size="10.00">cd</text>
</a>
</g>
</g>
<!-- Node5&#45;&gt;Node6 -->
<g id="edge5" class="edge">
<title>Node5&#45;&gt;Node6</title>
<path fill="none" stroke="midnightblue" d="M222.03,-238C243.13,-238 268.01,-238 285.83,-238"/>
<polygon fill="midnightblue" stroke="midnightblue" points="285.91,-241.5 295.91,-238 285.91,-234.5 285.91,-241.5"/>
</g>
<!-- Node11 -->
<g id="node11" class="node">
<title>Node11</title>
<g id="a_node11"><a xlink:href="env_8c.html#a08aa1a32a4d2f6bcca10f6424195d4ef" target="_top" xlink:title=" ">
<polygon fill="none" stroke="black" points="293,-190.5 293,-209.5 328,-209.5 328,-190.5 293,-190.5"/>
<text text-anchor="middle" x="310.5" y="-197.5" font-family="Helvetica,sans-Serif" font-size="10.00">env</text>
</a>
</g>
</g>
<!-- Node5&#45;&gt;Node11 -->
<g id="edge10" class="edge">
<title>Node5&#45;&gt;Node11</title>
<path fill="none" stroke="midnightblue" d="M213.05,-228.41C234.66,-222.05 262.67,-213.79 282.94,-207.82"/>
<polygon fill="midnightblue" stroke="midnightblue" points="284.15,-211.12 292.75,-204.93 282.17,-204.4 284.15,-211.12"/>
</g>
<!-- Node12 -->
<g id="node12" class="node">
<title>Node12</title>
<g id="a_node12"><a xlink:href="export_8c.html#a1bb2544b6254ee4ddb592a4cfa61734f" target="_top" xlink:title=" ">
<polygon fill="none" stroke="black" points="275,-76.5 275,-95.5 346,-95.5 346,-76.5 275,-76.5"/>
<text text-anchor="middle" x="310.5" y="-83.5" font-family="Helvetica,sans-Serif" font-size="10.00">export_call</text>
</a>
</g>
</g>
<!-- Node5&#45;&gt;Node12 -->
<g id="edge11" class="edge">
<title>Node5&#45;&gt;Node12</title>
<path fill="none" stroke="midnightblue" d="M188.57,-228.49C209.84,-203.43 267.65,-135.32 294.91,-103.2"/>
<polygon fill="midnightblue" stroke="midnightblue" points="297.63,-105.39 301.43,-95.5 292.29,-100.86 297.63,-105.39"/>
</g>
<!-- Node20 -->
<g id="node20" class="node">
<title>Node20</title>
<g id="a_node20"><a xlink:href="my__echo_8c.html#a5522916069f77552d810e207670e3170" target="_top" xlink:title=" ">
<polygon fill="none" stroke="black" points="280,-342.5 280,-361.5 341,-361.5 341,-342.5 280,-342.5"/>
<text text-anchor="middle" x="310.5" y="-349.5" font-family="Helvetica,sans-Serif" font-size="10.00">my_echo</text>
</a>
</g>
</g>
<!-- Node5&#45;&gt;Node20 -->
<g id="edge20" class="edge">
<title>Node5&#45;&gt;Node20</title>
<path fill="none" stroke="midnightblue" d="M215.48,-247.51C220.75,-250.01 225.81,-253.12 230,-257 257.41,-282.41 239.17,-306.98 266,-333 267.46,-334.42 269.05,-335.74 270.73,-336.97"/>
<polygon fill="midnightblue" stroke="midnightblue" points="269.27,-340.19 279.64,-342.4 272.91,-334.21 269.27,-340.19"/>
</g>
<!-- Node22 -->
<g id="node22" class="node">
<title>Node22</title>
<g id="a_node22"><a xlink:href="exit_8c.html#adcbec3416f97b2d0b8d53cf4c2b2a436" target="_top" xlink:title=" ">
<polygon fill="none" stroke="black" points="282.5,-304.5 282.5,-323.5 338.5,-323.5 338.5,-304.5 282.5,-304.5"/>
<text text-anchor="middle" x="310.5" y="-311.5" font-family="Helvetica,sans-Serif" font-size="10.00">my_exit</text>
</a>
</g>
</g>
<!-- Node5&#45;&gt;Node22 -->
<g id="edge22" class="edge">
<title>Node5&#45;&gt;Node22</title>
<path fill="none" stroke="midnightblue" d="M211.66,-247.52C217.99,-250.11 224.41,-253.26 230,-257 249.34,-269.93 246.96,-281.63 266,-295 268.4,-296.69 270.98,-298.27 273.63,-299.75"/>
<polygon fill="midnightblue" stroke="midnightblue" points="272.32,-303.01 282.83,-304.37 275.46,-296.75 272.32,-303.01"/>
</g>
<!-- Node31 -->
<g id="node31" class="node">
<title>Node31</title>
<g id="a_node31"><a xlink:href="pwd_8c.html#ac6977235be2514ba716ef89aad796063" target="_top" xlink:title=" ">
<polygon fill="none" stroke="black" points="292,-266.5 292,-285.5 329,-285.5 329,-266.5 292,-266.5"/>
<text text-anchor="middle" x="310.5" y="-273.5" font-family="Helvetica,sans-Serif" font-size="10.00">pwd</text>
</a>
</g>
</g>
<!-- Node5&#45;&gt;Node31 -->
<g id="edge33" class="edge">
<title>Node5&#45;&gt;Node31</title>
<path fill="none" stroke="midnightblue" d="M213.05,-247.59C234.28,-253.84 261.69,-261.92 281.86,-267.86"/>
<polygon fill="midnightblue" stroke="midnightblue" points="281.09,-271.28 291.67,-270.75 283.07,-264.57 281.09,-271.28"/>
</g>
<!-- Node32 -->
<g id="node32" class="node">
<title>Node32</title>
<g id="a_node32"><a xlink:href="unset_8c.html#abcfd4d5a4f0408bdc748ce044e5ce08c" target="_top" xlink:title=" ">
<polygon fill="none" stroke="black" points="277.5,-152.5 277.5,-171.5 343.5,-171.5 343.5,-152.5 277.5,-152.5"/>
<text text-anchor="middle" x="310.5" y="-159.5" font-family="Helvetica,sans-Serif" font-size="10.00">unset_call</text>
</a>
</g>
</g>
<!-- Node5&#45;&gt;Node32 -->
<g id="edge34" class="edge">
<title>Node5&#45;&gt;Node32</title>
<path fill="none" stroke="midnightblue" d="M193.38,-228.37C209.73,-216.38 239.07,-195.71 266,-181 269.3,-179.2 272.81,-177.43 276.35,-175.75"/>
<polygon fill="midnightblue" stroke="midnightblue" points="278,-178.84 285.66,-171.51 275.11,-172.47 278,-178.84"/>
</g>
<!-- Node7 -->
<g id="node7" class="node">
<title>Node7</title>
<g id="a_node7"><a xlink:href="cd_8c.html#a7593627e795ae769b5117673b60846c9" target="_top" xlink:title=" ">
<polygon fill="none" stroke="black" points="430,-228.5 430,-247.5 462,-247.5 462,-228.5 430,-228.5"/>
<text text-anchor="middle" x="446" y="-235.5" font-family="Helvetica,sans-Serif" font-size="10.00">len</text>
</a>
</g>
</g>
<!-- Node6&#45;&gt;Node7 -->
<g id="edge6" class="edge">
<title>Node6&#45;&gt;Node7</title>
<path fill="none" stroke="midnightblue" d="M325.28,-238C347.52,-238 391.62,-238 419.65,-238"/>
<polygon fill="midnightblue" stroke="midnightblue" points="419.87,-241.5 429.87,-238 419.87,-234.5 419.87,-241.5"/>
</g>
<!-- Node8 -->
<g id="node8" class="node">
<title>Node8</title>
<g id="a_node8"><a xlink:href="lst__env__two_8c.html#a4d4a14327b2c3ff88099102b6bd77986" target="_top" xlink:title=" ">
<polygon fill="none" stroke="black" points="394,-114.5 394,-133.5 498,-133.5 498,-114.5 394,-114.5"/>
<text text-anchor="middle" x="446" y="-121.5" font-family="Helvetica,sans-Serif" font-size="10.00">research_key_env</text>
</a>
</g>
</g>
<!-- Node6&#45;&gt;Node8 -->
<g id="edge7" class="edge">
<title>Node6&#45;&gt;Node8</title>
<path fill="none" stroke="midnightblue" d="M325.1,-234.78C334.48,-231.96 346.72,-227.03 355,-219 381.83,-192.98 363.23,-168.02 391,-143 392.74,-141.43 394.62,-139.99 396.59,-138.67"/>
<polygon fill="midnightblue" stroke="midnightblue" points="398.7,-141.5 405.74,-133.59 395.3,-135.38 398.7,-141.5"/>
</g>
<!-- Node9 -->
<g id="node9" class="node">
<title>Node9</title>
<g id="a_node9"><a xlink:href="cd_8c.html#a68bb8beb2cf13bb992af8322f31f94e7" target="_top" xlink:title=" ">
<polygon fill="none" stroke="black" points="554,-171.5 554,-190.5 630,-190.5 630,-171.5 554,-171.5"/>
<text text-anchor="middle" x="592" y="-178.5" font-family="Helvetica,sans-Serif" font-size="10.00">update_pwd</text>
</a>
</g>
</g>
<!-- Node6&#45;&gt;Node9 -->
<g id="edge8" class="edge">
<title>Node6&#45;&gt;Node9</title>
<path fill="none" stroke="midnightblue" d="M325.24,-234.51C341.06,-230.54 367.83,-223.97 391,-219 443.09,-207.83 503.17,-196.64 543.78,-189.33"/>
<polygon fill="midnightblue" stroke="midnightblue" points="544.44,-192.77 553.67,-187.55 543.2,-185.88 544.44,-192.77"/>
</g>
<!-- Node10 -->
<g id="node10" class="node">
<title>Node10</title>
<g id="a_node10"><a xlink:href="lst__env__two_8c.html#a8cd6579fc3858072521e55ef235a2637" target="_top" xlink:title=" ">
<polygon fill="none" stroke="black" points="683,-143.5 683,-162.5 794,-162.5 794,-143.5 683,-143.5"/>
<text text-anchor="middle" x="738.5" y="-150.5" font-family="Helvetica,sans-Serif" font-size="10.00">research_node_env</text>
</a>
</g>
</g>
<!-- Node9&#45;&gt;Node10 -->
<g id="edge9" class="edge">
<title>Node9&#45;&gt;Node10</title>
<path fill="none" stroke="midnightblue" d="M630.21,-173.79C644.89,-170.94 662.12,-167.61 678.42,-164.45"/>
<polygon fill="midnightblue" stroke="midnightblue" points="679.27,-167.85 688.42,-162.51 677.94,-160.98 679.27,-167.85"/>
</g>
<!-- Node13 -->
<g id="node13" class="node">
<title>Node13</title>
<g id="a_node13"><a xlink:href="export_8c.html#a63ef72e778f2b52c924bf77ae989dc80" target="_top" xlink:title=" ">
<polygon fill="none" stroke="black" points="422,-76.5 422,-95.5 470,-95.5 470,-76.5 422,-76.5"/>
<text text-anchor="middle" x="446" y="-83.5" font-family="Helvetica,sans-Serif" font-size="10.00">export</text>
</a>
</g>
</g>
<!-- Node12&#45;&gt;Node13 -->
<g id="edge12" class="edge">
<title>Node12&#45;&gt;Node13</title>
<path fill="none" stroke="midnightblue" d="M346.23,-86C366.4,-86 391.68,-86 411.62,-86"/>
<polygon fill="midnightblue" stroke="midnightblue" points="411.79,-89.5 421.79,-86 411.79,-82.5 411.79,-89.5"/>
</g>
<!-- Node14 -->
<g id="node14" class="node">
<title>Node14</title>
<g id="a_node14"><a xlink:href="export_8c.html#a077edb8749298d8320620813ff84519c" target="_top" xlink:title=" ">
<polygon fill="none" stroke="black" points="537,-114.5 537,-133.5 647,-133.5 647,-114.5 537,-114.5"/>
<text text-anchor="middle" x="592" y="-121.5" font-family="Helvetica,sans-Serif" font-size="10.00">check_validity_key</text>
</a>
</g>
</g>
<!-- Node13&#45;&gt;Node14 -->
<g id="edge13" class="edge">
<title>Node13&#45;&gt;Node14</title>
<path fill="none" stroke="midnightblue" d="M470.14,-92.11C490.35,-97.44 520.29,-105.34 545.32,-111.94"/>
<polygon fill="midnightblue" stroke="midnightblue" points="544.43,-115.33 554.99,-114.5 546.21,-108.56 544.43,-115.33"/>
</g>
<!-- Node15 -->
<g id="node15" class="node">
<title>Node15</title>
<g id="a_node15"><a xlink:href="export_8c.html#a90ff129fee9412bd5c6d74be5970b99f" target="_top" xlink:title=" ">
<polygon fill="none" stroke="black" points="537,-76.5 537,-95.5 647,-95.5 647,-76.5 537,-76.5"/>
<text text-anchor="middle" x="592" y="-83.5" font-family="Helvetica,sans-Serif" font-size="10.00">export_env_update</text>
</a>
</g>
</g>
<!-- Node13&#45;&gt;Node15 -->
<g id="edge14" class="edge">
<title>Node13&#45;&gt;Node15</title>
<path fill="none" stroke="midnightblue" d="M470.14,-86C485.51,-86 506.5,-86 526.68,-86"/>
<polygon fill="midnightblue" stroke="midnightblue" points="526.81,-89.5 536.81,-86 526.81,-82.5 526.81,-89.5"/>
</g>
<!-- Node15&#45;&gt;Node10 -->
<g id="edge19" class="edge">
<title>Node15&#45;&gt;Node10</title>
<path fill="none" stroke="midnightblue" d="M622.74,-95.57C630.71,-98.38 639.26,-101.61 647,-105 669.54,-114.88 694.16,-128.1 712.02,-138.17"/>
<polygon fill="midnightblue" stroke="midnightblue" points="710.77,-141.48 721.19,-143.39 714.23,-135.4 710.77,-141.48"/>
</g>
<!-- Node16 -->
<g id="node16" class="node">
<title>Node16</title>
<g id="a_node16"><a xlink:href="export_8c.html#a56cdba320963b2a94cb193c22ca238b7" target="_top" xlink:title=" ">
<polygon fill="none" stroke="black" points="709.5,-76.5 709.5,-95.5 767.5,-95.5 767.5,-76.5 709.5,-76.5"/>
<text text-anchor="middle" x="738.5" y="-83.5" font-family="Helvetica,sans-Serif" font-size="10.00">add_env</text>
</a>
</g>
</g>
<!-- Node15&#45;&gt;Node16 -->
<g id="edge15" class="edge">
<title>Node15&#45;&gt;Node16</title>
<path fill="none" stroke="midnightblue" d="M647.22,-86C664.56,-86 683.38,-86 699.33,-86"/>
<polygon fill="midnightblue" stroke="midnightblue" points="699.36,-89.5 709.35,-86 699.35,-82.5 699.36,-89.5"/>
</g>
<!-- Node17 -->
<g id="node17" class="node">
<title>Node17</title>
<g id="a_node17"><a xlink:href="lst__env_8c.html#a9c375db3cbfe2e87b52bae7ee7472eae" target="_top" xlink:title=" ">
<polygon fill="none" stroke="black" points="830,-95.5 830,-114.5 930,-114.5 930,-95.5 830,-95.5"/>
<text text-anchor="middle" x="880" y="-102.5" font-family="Helvetica,sans-Serif" font-size="10.00">create_node_env</text>
</a>
</g>
</g>
<!-- Node16&#45;&gt;Node17 -->
<g id="edge16" class="edge">
<title>Node16&#45;&gt;Node17</title>
<path fill="none" stroke="midnightblue" d="M767.73,-89.84C782.78,-91.89 801.88,-94.5 819.99,-96.96"/>
<polygon fill="midnightblue" stroke="midnightblue" points="819.53,-100.43 829.92,-98.31 820.48,-93.5 819.53,-100.43"/>
</g>
<!-- Node18 -->
<g id="node18" class="node">
<title>Node18</title>
<g id="a_node18"><a xlink:href="lst__env_8c.html#a5976d1b2a8159220749fac94a83d5c95" target="_top" xlink:title=" ">
<polygon fill="none" stroke="black" points="834,-57.5 834,-76.5 926,-76.5 926,-57.5 834,-57.5"/>
<text text-anchor="middle" x="880" y="-64.5" font-family="Helvetica,sans-Serif" font-size="10.00">push_back_env</text>
</a>
</g>
</g>
<!-- Node16&#45;&gt;Node18 -->
<g id="edge17" class="edge">
<title>Node16&#45;&gt;Node18</title>
<path fill="none" stroke="midnightblue" d="M767.73,-82.16C783.79,-79.97 804.47,-77.15 823.64,-74.54"/>
<polygon fill="midnightblue" stroke="midnightblue" points="824.35,-77.98 833.79,-73.16 823.41,-71.04 824.35,-77.98"/>
</g>
<!-- Node19 -->
<g id="node19" class="node">
<title>Node19</title>
<g id="a_node19"><a xlink:href="env__utils_8c.html#ac7b3f84bb622bdf477616c5b0022f035" target="_top" xlink:title=" ">
<polygon fill="none" stroke="black" points="966,-57.5 966,-76.5 1045,-76.5 1045,-57.5 966,-57.5"/>
<text text-anchor="middle" x="1005.5" y="-64.5" font-family="Helvetica,sans-Serif" font-size="10.00">get_last_env</text>
</a>
</g>
</g>
<!-- Node18&#45;&gt;Node19 -->
<g id="edge18" class="edge">
<title>Node18&#45;&gt;Node19</title>
<path fill="none" stroke="midnightblue" d="M926.29,-67C935.79,-67 945.86,-67 955.49,-67"/>
<polygon fill="midnightblue" stroke="midnightblue" points="955.73,-70.5 965.73,-67 955.73,-63.5 955.73,-70.5"/>
</g>
<!-- Node21 -->
<g id="node21" class="node">
<title>Node21</title>
<g id="a_node21"><a xlink:href="my__echo_8c.html#a7c657de7306d33ae5cdab2bf43f35ae1" target="_top" xlink:title=" ">
<polygon fill="none" stroke="black" points="391,-380.5 391,-399.5 501,-399.5 501,-380.5 391,-380.5"/>
<text text-anchor="middle" x="446" y="-387.5" font-family="Helvetica,sans-Serif" font-size="10.00">check_option_echo</text>
</a>
</g>
</g>
<!-- Node20&#45;&gt;Node21 -->
<g id="edge21" class="edge">
<title>Node20&#45;&gt;Node21</title>
<path fill="none" stroke="midnightblue" d="M341.13,-360.43C358.87,-365.48 381.74,-371.99 401.51,-377.62"/>
<polygon fill="midnightblue" stroke="midnightblue" points="400.64,-381.01 411.22,-380.38 402.56,-374.28 400.64,-381.01"/>
</g>
<!-- Node22&#45;&gt;Node7 -->
<g id="edge32" class="edge">
<title>Node22&#45;&gt;Node7</title>
<path fill="none" stroke="midnightblue" d="M338.17,-304.37C343.96,-301.74 349.87,-298.6 355,-295 374.04,-281.63 371.48,-269.66 391,-257 399.82,-251.28 410.56,-247.04 420.14,-244.04"/>
<polygon fill="midnightblue" stroke="midnightblue" points="421.27,-247.36 429.93,-241.26 419.35,-240.63 421.27,-247.36"/>
</g>
<!-- Node23 -->
<g id="node23" class="node">
<title>Node23</title>
<g id="a_node23"><a xlink:href="exit_8c.html#a7e369b4894a31549c9b65f718e28823f" target="_top" xlink:title=" ">
<polygon fill="none" stroke="black" points="411.5,-266.5 411.5,-285.5 480.5,-285.5 480.5,-266.5 411.5,-266.5"/>
<text text-anchor="middle" x="446" y="-273.5" font-family="Helvetica,sans-Serif" font-size="10.00">check_exit</text>
</a>
</g>
</g>
<!-- Node22&#45;&gt;Node23 -->
<g id="edge23" class="edge">
<title>Node22&#45;&gt;Node23</title>
<path fill="none" stroke="midnightblue" d="M338.52,-306.31C356.59,-301.17 380.77,-294.28 401.52,-288.38"/>
<polygon fill="midnightblue" stroke="midnightblue" points="402.73,-291.67 411.39,-285.57 400.81,-284.94 402.73,-291.67"/>
</g>
<!-- Node24 -->
<g id="node24" class="node">
<title>Node24</title>
<g id="a_node24"><a xlink:href="lst__cmd2_8c.html#a132395876bb5a7cfe926b9e37571a1e3" target="_top" xlink:title=" ">
<polygon fill="none" stroke="black" points="400,-342.5 400,-361.5 492,-361.5 492,-342.5 400,-342.5"/>
<text text-anchor="middle" x="446" y="-349.5" font-family="Helvetica,sans-Serif" font-size="10.00">destructor_cmd</text>
</a>
</g>
</g>
<!-- Node22&#45;&gt;Node24 -->
<g id="edge24" class="edge">
<title>Node22&#45;&gt;Node24</title>
<path fill="none" stroke="midnightblue" d="M338.52,-321.69C356.59,-326.83 380.77,-333.72 401.52,-339.62"/>
<polygon fill="midnightblue" stroke="midnightblue" points="400.81,-343.06 411.39,-342.43 402.73,-336.33 400.81,-343.06"/>
</g>
<!-- Node29 -->
<g id="node29" class="node">
<title>Node29</title>
<g id="a_node29"><a xlink:href="lst__env_8c.html#a226ae0aa054e697998b2ecbc5d61d592" target="_top" xlink:title=" ">
<polygon fill="none" stroke="black" points="401.5,-304.5 401.5,-323.5 490.5,-323.5 490.5,-304.5 401.5,-304.5"/>
<text text-anchor="middle" x="446" y="-311.5" font-family="Helvetica,sans-Serif" font-size="10.00">destructor_env</text>
</a>
</g>
</g>
<!-- Node22&#45;&gt;Node29 -->
<g id="edge30" class="edge">
<title>Node22&#45;&gt;Node29</title>
<path fill="none" stroke="midnightblue" d="M338.52,-314C353.68,-314 373.15,-314 391.28,-314"/>
<polygon fill="midnightblue" stroke="midnightblue" points="391.47,-317.5 401.47,-314 391.47,-310.5 391.47,-317.5"/>
</g>
<!-- Node25 -->
<g id="node25" class="node">
<title>Node25</title>
<g id="a_node25"><a xlink:href="lst__cmd2_8c.html#a8e2b63759f149b547e0d07f210ede9b3" target="_top" xlink:title=" ">
<polygon fill="none" stroke="black" points="561.5,-342.5 561.5,-361.5 622.5,-361.5 622.5,-342.5 561.5,-342.5"/>
<text text-anchor="middle" x="592" y="-349.5" font-family="Helvetica,sans-Serif" font-size="10.00">pop_cmd</text>
</a>
</g>
</g>
<!-- Node24&#45;&gt;Node25 -->
<g id="edge25" class="edge">
<title>Node24&#45;&gt;Node25</title>
<path fill="none" stroke="midnightblue" d="M492.17,-352C511.15,-352 533.03,-352 551.37,-352"/>
<polygon fill="midnightblue" stroke="midnightblue" points="551.44,-355.5 561.44,-352 551.44,-348.5 551.44,-355.5"/>
</g>
<!-- Node26 -->
<g id="node26" class="node">
<title>Node26</title>
<g id="a_node26"><a xlink:href="lst__redir2_8c.html#a30ccaf401a4f897e48ead5fe54f4b307" target="_top" xlink:title=" ">
<polygon fill="none" stroke="black" points="691.5,-323.5 691.5,-342.5 785.5,-342.5 785.5,-323.5 691.5,-323.5"/>
<text text-anchor="middle" x="738.5" y="-330.5" font-family="Helvetica,sans-Serif" font-size="10.00">destructor_redir</text>
</a>
</g>
</g>
<!-- Node25&#45;&gt;Node26 -->
<g id="edge26" class="edge">
<title>Node25&#45;&gt;Node26</title>
<path fill="none" stroke="midnightblue" d="M622.59,-348.11C639.54,-345.88 661.38,-343.01 681.45,-340.37"/>
<polygon fill="midnightblue" stroke="midnightblue" points="681.99,-343.83 691.44,-339.06 681.07,-336.89 681.99,-343.83"/>
</g>
<!-- Node28 -->
<g id="node28" class="node">
<title>Node28</title>
<g id="a_node28"><a xlink:href="utils_8c.html#a1bca6910c90a19d96b36506a2e2cebf6" target="_top" xlink:title="as fd are all setup to &#45;1 at the beginning we check if they are open before trying to close we avoid ...">
<polygon fill="none" stroke="black" points="971,-342.5 971,-361.5 1040,-361.5 1040,-342.5 971,-342.5"/>
<text text-anchor="middle" x="1005.5" y="-349.5" font-family="Helvetica,sans-Serif" font-size="10.00">ft_close_fd</text>
</a>
</g>
</g>
<!-- Node25&#45;&gt;Node28 -->
<g id="edge29" class="edge">
<title>Node25&#45;&gt;Node28</title>
<path fill="none" stroke="midnightblue" d="M622.59,-352C694.08,-352 876.46,-352 960.67,-352"/>
<polygon fill="midnightblue" stroke="midnightblue" points="960.92,-355.5 970.92,-352 960.92,-348.5 960.92,-355.5"/>
</g>
<!-- Node27 -->
<g id="node27" class="node">
<title>Node27</title>
<g id="a_node27"><a xlink:href="lst__redir2_8c.html#ade8f0bdda51d9bf348ebeb38fefba881" target="_top" xlink:title=" ">
<polygon fill="none" stroke="black" points="849,-323.5 849,-342.5 911,-342.5 911,-323.5 849,-323.5"/>
<text text-anchor="middle" x="880" y="-330.5" font-family="Helvetica,sans-Serif" font-size="10.00">pop_redir</text>
</a>
</g>
</g>
<!-- Node26&#45;&gt;Node27 -->
<g id="edge27" class="edge">
<title>Node26&#45;&gt;Node27</title>
<path fill="none" stroke="midnightblue" d="M785.56,-333C802.62,-333 821.82,-333 838.36,-333"/>
<polygon fill="midnightblue" stroke="midnightblue" points="838.8,-336.5 848.8,-333 838.8,-329.5 838.8,-336.5"/>
</g>
<!-- Node27&#45;&gt;Node28 -->
<g id="edge28" class="edge">
<title>Node27&#45;&gt;Node28</title>
<path fill="none" stroke="midnightblue" d="M911.21,-337.65C926.11,-339.94 944.37,-342.75 960.76,-345.27"/>
<polygon fill="midnightblue" stroke="midnightblue" points="960.27,-348.74 970.68,-346.8 961.33,-341.82 960.27,-348.74"/>
</g>
<!-- Node30 -->
<g id="node30" class="node">
<title>Node30</title>
<g id="a_node30"><a xlink:href="lst__env_8c.html#a058c245b5f2ef22f9d2659f90e4d3537" target="_top" xlink:title=" ">
<polygon fill="none" stroke="black" points="563,-304.5 563,-323.5 621,-323.5 621,-304.5 563,-304.5"/>
<text text-anchor="middle" x="592" y="-311.5" font-family="Helvetica,sans-Serif" font-size="10.00">pop_env</text>
</a>
</g>
</g>
<!-- Node29&#45;&gt;Node30 -->
<g id="edge31" class="edge">
<title>Node29&#45;&gt;Node30</title>
<path fill="none" stroke="midnightblue" d="M490.6,-314C510.43,-314 533.69,-314 552.83,-314"/>
<polygon fill="midnightblue" stroke="midnightblue" points="552.99,-317.5 562.99,-314 552.99,-310.5 552.99,-317.5"/>
</g>
<!-- Node33 -->
<g id="node33" class="node">
<title>Node33</title>
<g id="a_node33"><a xlink:href="unset_8c.html#a4b3bbc6cfa6ff293119825a11324fb9f" target="_top" xlink:title=" ">
<polygon fill="none" stroke="black" points="424,-152.5 424,-171.5 468,-171.5 468,-152.5 424,-152.5"/>
<text text-anchor="middle" x="446" y="-159.5" font-family="Helvetica,sans-Serif" font-size="10.00">unset</text>
</a>
</g>
</g>
<!-- Node32&#45;&gt;Node33 -->
<g id="edge35" class="edge">
<title>Node32&#45;&gt;Node33</title>
<path fill="none" stroke="midnightblue" d="M343.82,-162C365.07,-162 392.75,-162 413.78,-162"/>
<polygon fill="midnightblue" stroke="midnightblue" points="413.81,-165.5 423.81,-162 413.81,-158.5 413.81,-165.5"/>
</g>
<!-- Node35 -->
<g id="node35" class="node">
<title>Node35</title>
<g id="a_node35"><a xlink:href="env__utils_8c.html#a7cc35c974bce053dbba1c1ec1028f36b" target="_top" xlink:title=" ">
<polygon fill="none" stroke="black" points="272,-0.5 272,-19.5 349,-19.5 349,-0.5 272,-0.5"/>
<text text-anchor="middle" x="310.5" y="-7.5" font-family="Helvetica,sans-Serif" font-size="10.00">env_lst_size</text>
</a>
</g>
</g>
<!-- Node34&#45;&gt;Node35 -->
<g id="edge37" class="edge">
<title>Node34&#45;&gt;Node35</title>
<path fill="none" stroke="midnightblue" d="M213.05,-38.41C229.4,-33.6 249.41,-27.7 266.96,-22.53"/>
<polygon fill="midnightblue" stroke="midnightblue" points="268.35,-25.77 276.96,-19.59 266.38,-19.05 268.35,-25.77"/>
</g>
<!-- Node36 -->
<g id="node36" class="node">
<title>Node36</title>
<g id="a_node36"><a xlink:href="getenv_8c.html#a0250cce1862c20e31d0c0ece960bc3a0" target="_top" xlink:title=" ">
<polygon fill="none" stroke="black" points="279.5,-38.5 279.5,-57.5 341.5,-57.5 341.5,-38.5 279.5,-38.5"/>
<text text-anchor="middle" x="310.5" y="-45.5" font-family="Helvetica,sans-Serif" font-size="10.00">join_path</text>
</a>
</g>
</g>
<!-- Node34&#45;&gt;Node36 -->
<g id="edge38" class="edge">
<title>Node34&#45;&gt;Node36</title>
<path fill="none" stroke="midnightblue" d="M223.81,-48C238.42,-48 254.66,-48 269.04,-48"/>
<polygon fill="midnightblue" stroke="midnightblue" points="269.13,-51.5 279.13,-48 269.13,-44.5 269.13,-51.5"/>
</g>
<!-- Node37&#45;&gt;Node8 -->
<g id="edge42" class="edge">
<title>Node37&#45;&gt;Node8</title>
<path fill="none" stroke="midnightblue" d="M217.56,-124C260.52,-124 332,-124 383.36,-124"/>
<polygon fill="midnightblue" stroke="midnightblue" points="383.68,-127.5 393.68,-124 383.68,-120.5 383.68,-127.5"/>
</g>
<!-- Node37&#45;&gt;Node36 -->
<g id="edge41" class="edge">
<title>Node37&#45;&gt;Node36</title>
<path fill="none" stroke="midnightblue" d="M193.38,-114.37C209.73,-102.38 239.07,-81.71 266,-67 269.3,-65.2 272.81,-63.43 276.35,-61.75"/>
<polygon fill="midnightblue" stroke="midnightblue" points="278,-64.84 285.66,-57.51 275.11,-58.47 278,-64.84"/>
</g>
</g>
</svg>
        <g id="navigator" transform="translate(0 0)" fill="#404254">
                <rect fill="#f2f5e9" fill-opacity="0.5" stroke="#606060" stroke-width=".5" x="0" y="0" width="60" height="60"/>
                <use id="zoomplus" xlink:href="#zoomPlus" x="17" y="9" onmousedown="handleZoom(evt,'in')"/>
                <use id="zoomminus" xlink:href="#zoomMin" x="42" y="9" onmousedown="handleZoom(evt,'out')"/>
                <use id="reset" xlink:href="#resetDef" x="30" y="36" onmousedown="handleReset()"/>
                <g id="arrowUp" xlink:href="#dirArrow" transform="translate(30 24)" onmousedown="handlePan(0,-1)">
                  <use xlink:href="#rim" fill="#404040">
                        <set attributeName="fill" to="#808080" begin="arrowUp.mouseover" end="arrowUp.mouseout"/>
                  </use>
                  <path fill="none" stroke="white" stroke-width="1.5" d="M0,-3.0v7 M-2.5,-0.5L0,-3.0L2.5,-0.5"/>
                </g>
                <g id="arrowRight" xlink:href="#dirArrow" transform="rotate(90) translate(36 -43)" onmousedown="handlePan(1,0)">
                  <use xlink:href="#rim" fill="#404040">
                        <set attributeName="fill" to="#808080" begin="arrowRight.mouseover" end="arrowRight.mouseout"/>
                  </use>
                  <path fill="none" stroke="white" stroke-width="1.5" d="M0,-3.0v7 M-2.5,-0.5L0,-3.0L2.5,-0.5"/>
                </g>
                <g id="arrowDown" xlink:href="#dirArrow" transform="rotate(180) translate(-30 -48)" onmousedown="handlePan(0,1)">
                  <use xlink:href="#rim" fill="#404040">
                        <set attributeName="fill" to="#808080" begin="arrowDown.mouseover" end="arrowDown.mouseout"/>
                  </use>
                  <path fill="none" stroke="white" stroke-width="1.5" d="M0,-3.0v7 M-2.5,-0.5L0,-3.0L2.5,-0.5"/>
                </g>
                <g id="arrowLeft" xlink:href="#dirArrow" transform="rotate(270) translate(-36 17)" onmousedown="handlePan(-1,0)">
                  <use xlink:href="#rim" fill="#404040">
                        <set attributeName="fill" to="#808080" begin="arrowLeft.mouseover" end="arrowLeft.mouseout"/>
                  </use>
                  <path fill="none" stroke="white" stroke-width="1.5" d="M0,-3.0v7 M-2.5,-0.5L0,-3.0L2.5,-0.5"/>
                </g>
        </g>
        <svg viewBox="0 0 15 15" width="100%" height="30px" preserveAspectRatio="xMaxYMin meet">
         <g id="arrow_out" transform="scale(0.3 0.3)">
          <a xlink:href="minishell_8h_adda76b40c34c18ec83b1d98700083f8a_cgraph_org.svg" target="_base">
           <rect id="button" ry="5" rx="5" y="6" x="6" height="38" width="38"
                fill="#f2f5e9" fill-opacity="0.5" stroke="#606060" stroke-width="1.0"/>
           <path id="arrow"
             d="M 11.500037,31.436501 C 11.940474,20.09759 22.043105,11.32322 32.158766,21.979434 L 37.068811,17.246167 C 37.068811,17.246167 37.088388,32 37.088388,32 L 22.160133,31.978069 C 22.160133,31.978069 26.997745,27.140456 26.997745,27.140456 C 18.528582,18.264221 13.291696,25.230495 11.500037,31.436501 z"
             style="fill:#404040;"/>
          </a>
         </g>
        </svg>
</svg>
