<?xml version="1.0" encoding="UTF-8" standalone="no"?>
<!DOCTYPE svg PUBLIC "-//W3C//DTD SVG 1.1//EN"
 "http://www.w3.org/Graphics/SVG/1.1/DTD/svg11.dtd">
<!-- Generated by graphviz version 2.43.0 (0)
 -->
<!-- Title: ft_close_fd Pages: 1 -->
<!--zoomable 741 -->
<svg id="main" version="1.1" xmlns="http://www.w3.org/2000/svg" xmlns:xlink="http://www.w3.org/1999/xlink" xml:space="preserve" onload="init(evt)">
<style type="text/css"><![CDATA[
.edge:hover path { stroke: red; }
.edge:hover polygon { stroke: red; fill: red; }
]]></style>
<script type="text/javascript"><![CDATA[
var edges = document.getElementsByTagName('g');
if (edges && edges.length) {
  for (var i=0;i<edges.length;i++) {
    if (edges[i].id.substr(0,4)=='edge') {
      edges[i].setAttribute('class','edge');
    }
  }
}
]]></script>
        <defs>
                <circle id="rim" cx="0" cy="0" r="7"/>
                <circle id="rim2" cx="0" cy="0" r="3.5"/>
                <g id="zoomPlus">
                        <use xlink:href="#rim" fill="#404040">
                                <set attributeName="fill" to="#808080" begin="zoomplus.mouseover" end="zoomplus.mouseout"/>
                        </use>
                        <path d="M-4,0h8M0,-4v8" fill="none" stroke="white" stroke-width="1.5" pointer-events="none"/>
                </g>
                <g id="zoomMin">
                        <use xlink:href="#rim" fill="#404040">
                                <set attributeName="fill" to="#808080" begin="zoomminus.mouseover" end="zoomminus.mouseout"/>
                        </use>
                        <path d="M-4,0h8" fill="none" stroke="white" stroke-width="1.5" pointer-events="none"/>
                </g>
                <g id="dirArrow">
                        <path fill="none" stroke="white" stroke-width="1.5" d="M0,-3.0v7 M-2.5,-0.5L0,-3.0L2.5,-0.5"/>
                </g>
               <g id="resetDef">
                       <use xlink:href="#rim2" fill="#404040">
                               <set attributeName="fill" to="#808080" begin="reset.mouseover" end="reset.mouseout"/>
                       </use>
               </g>
        </defs>

<script type="text/javascript">
var viewWidth = 1750;
var viewHeight = 741;
var sectionId = 'dynsection-37';
</script>
<script xlink:href="svgpan.js"/>
<svg id="graph" class="graph">
<g id="viewport">
<title>ft_close_fd</title>
<!-- Node1 -->
<g id="node1" class="node">
<title>Node1</title>
<g id="a_node1"><a xlink:title="as fd are all setup to &#45;1 at the beginning we check if they are open before trying to close we avoid ...">
<polygon fill="#bfbfbf" stroke="black" points="1673,-314.12 1673,-333.12 1742,-333.12 1742,-314.12 1673,-314.12"/>
<text text-anchor="middle" x="1707.5" y="-321.12" font-family="Helvetica,sans-Serif" font-size="10.00">ft_close_fd</text>
</a>
</g>
</g>
<!-- Node2 -->
<g id="node2" class="node">
<title>Node2</title>
<g id="a_node2"><a xlink:href="redirection__verification_8c.html#a5b79f4b52353f6558575b5da0dd28fd4" target="_top" xlink:title="we close the fd_in and fd_out in case of a fail this function is able to manage the error coming from...">
<polygon fill="none" stroke="black" points="1549.5,-447.12 1549.5,-466.12 1635.5,-466.12 1635.5,-447.12 1549.5,-447.12"/>
<text text-anchor="middle" x="1592.5" y="-454.12" font-family="Helvetica,sans-Serif" font-size="10.00">close_fd_error</text>
</a>
</g>
</g>
<!-- Node1&#45;&gt;Node2 -->
<g id="edge1" class="edge">
<title>Node1&#45;&gt;Node2</title>
<path fill="none" stroke="midnightblue" d="M1698.15,-342.39C1686.97,-365.85 1665.23,-406.13 1637,-432.62 1630.84,-438.4 1623.02,-443.27 1615.71,-447.08"/>
<polygon fill="midnightblue" stroke="midnightblue" points="1701.39,-343.73 1702.4,-333.18 1695.03,-340.79 1701.39,-343.73"/>
</g>
<!-- Node3 -->
<g id="node3" class="node">
<title>Node3</title>
<g id="a_node3"><a xlink:href="redirection__verification_8c.html#a95641b4885e9c0b07b477846c96c0d2f" target="_top" xlink:title="we have to check if the file exist then if we are allowed to open it in any error case we write a mes...">
<polygon fill="none" stroke="black" points="1390,-485.12 1390,-504.12 1488,-504.12 1488,-485.12 1390,-485.12"/>
<text text-anchor="middle" x="1439" y="-492.12" font-family="Helvetica,sans-Serif" font-size="10.00">infile_redirection</text>
</a>
</g>
</g>
<!-- Node1&#45;&gt;Node3 -->
<g id="edge36" class="edge">
<title>Node1&#45;&gt;Node3</title>
<path fill="none" stroke="midnightblue" d="M1703.86,-343.03C1698.2,-376.34 1681.59,-443.85 1637,-475.62 1593.9,-506.32 1531.37,-506.96 1488.38,-502.59"/>
<polygon fill="midnightblue" stroke="midnightblue" points="1707.32,-343.57 1705.38,-333.15 1700.4,-342.5 1707.32,-343.57"/>
</g>
<!-- Node4 -->
<g id="node4" class="node">
<title>Node4</title>
<g id="a_node4"><a xlink:href="redirection__verification_8c.html#af9b05287627b76434ceb0070c5cb2c8a" target="_top" xlink:title="we go through each node of the redirection and we have special treatment depending of the following c...">
<polygon fill="none" stroke="black" points="1201,-485.12 1201,-504.12 1330,-504.12 1330,-485.12 1201,-485.12"/>
<text text-anchor="middle" x="1265.5" y="-492.12" font-family="Helvetica,sans-Serif" font-size="10.00">redirection_verification</text>
</a>
</g>
</g>
<!-- Node1&#45;&gt;Node4 -->
<g id="edge62" class="edge">
<title>Node1&#45;&gt;Node4</title>
<path fill="none" stroke="midnightblue" d="M1682.44,-338.54C1669.35,-346.2 1652.68,-355.23 1637,-361.62 1521.15,-408.81 1475.31,-376.8 1366,-437.62 1347.03,-448.17 1348.49,-459.24 1330,-470.62 1320.46,-476.48 1309.26,-481.3 1298.94,-485.04"/>
<polygon fill="midnightblue" stroke="midnightblue" points="1684.47,-341.4 1691.26,-333.26 1680.88,-335.39 1684.47,-341.4"/>
</g>
<!-- Node5 -->
<g id="node5" class="node">
<title>Node5</title>
<g id="a_node5"><a xlink:href="multipipe_8c.html#aa4f1c217eeb689ecbc622baecd2c5dec" target="_top" xlink:title="management of the multipipe (= name when we have at least one pipe) First step is to manage the hered...">
<polygon fill="none" stroke="black" points="172,-584.12 172,-603.12 261,-603.12 261,-584.12 172,-584.12"/>
<text text-anchor="middle" x="216.5" y="-591.12" font-family="Helvetica,sans-Serif" font-size="10.00">multipipe_cmd</text>
</a>
</g>
</g>
<!-- Node1&#45;&gt;Node5 -->
<g id="edge37" class="edge">
<title>Node1&#45;&gt;Node5</title>
<path fill="none" stroke="midnightblue" d="M1704.85,-343.2C1700.61,-380.32 1685.99,-460.89 1637,-502.62 1578.74,-552.24 1040.02,-646.62 963.5,-646.62 963.5,-646.62 963.5,-646.62 555.5,-646.62 439.84,-646.62 410.39,-639.43 297,-616.62 279.96,-613.19 261.26,-607.86 246.29,-603.2"/>
<polygon fill="midnightblue" stroke="midnightblue" points="1708.34,-343.47 1705.85,-333.17 1701.37,-342.77 1708.34,-343.47"/>
</g>
<!-- Node9 -->
<g id="node9" class="node">
<title>Node9</title>
<g id="a_node9"><a xlink:href="redirection__verification_8c.html#ac61790fa82f2a9b6b904cd92135b6acb" target="_top" xlink:title="outfile and append are open with the right flags in a case of an error we write a message with the na...">
<polygon fill="none" stroke="black" points="1366,-447.12 1366,-466.12 1512,-466.12 1512,-447.12 1366,-447.12"/>
<text text-anchor="middle" x="1439" y="-454.12" font-family="Helvetica,sans-Serif" font-size="10.00">outfile_append_redirection</text>
</a>
</g>
</g>
<!-- Node1&#45;&gt;Node9 -->
<g id="edge39" class="edge">
<title>Node1&#45;&gt;Node9</title>
<path fill="none" stroke="midnightblue" d="M1693.28,-341.44C1680.52,-357.48 1659.82,-380.61 1637,-394.62 1592.69,-421.81 1535.37,-438.09 1494,-447.09"/>
<polygon fill="midnightblue" stroke="midnightblue" points="1696.18,-343.42 1699.52,-333.37 1690.64,-339.14 1696.18,-343.42"/>
</g>
<!-- Node10 -->
<g id="node10" class="node">
<title>Node10</title>
<g id="a_node10"><a xlink:href="heredoc_8c.html#a3e1410633d8c1ad5b1441509a020b0d4" target="_top" xlink:title="allow us to close the file descriptors when we have fork() again the process">
<polygon fill="none" stroke="black" points="1052,-67.12 1052,-86.12 1165,-86.12 1165,-67.12 1052,-67.12"/>
<text text-anchor="middle" x="1108.5" y="-74.12" font-family="Helvetica,sans-Serif" font-size="10.00">close_fd_heredocs2</text>
</a>
</g>
</g>
<!-- Node1&#45;&gt;Node10 -->
<g id="edge11" class="edge">
<title>Node1&#45;&gt;Node10</title>
<path fill="none" stroke="midnightblue" d="M1707.19,-303.75C1707.55,-258.99 1701.39,-150.29 1637,-100.62 1564.69,-44.83 1285.39,-61.34 1165.11,-71.41"/>
<polygon fill="midnightblue" stroke="midnightblue" points="1703.69,-303.83 1706.99,-313.9 1710.69,-303.98 1703.69,-303.83"/>
</g>
<!-- Node11 -->
<g id="node11" class="node">
<title>Node11</title>
<g id="a_node11"><a xlink:href="heredoc_8c.html#a0b4a5d07e8877b06b8977b47a6d51930" target="_top" xlink:title="it&#39;s where we open the heredoc and start writing inside our pipe each time we check if it&#39;s the word ...">
<polygon fill="none" stroke="black" points="787,-124.12 787,-143.12 873,-143.12 873,-124.12 787,-124.12"/>
<text text-anchor="middle" x="830" y="-131.12" font-family="Helvetica,sans-Serif" font-size="10.00">heredoc_input</text>
</a>
</g>
</g>
<!-- Node1&#45;&gt;Node11 -->
<g id="edge35" class="edge">
<title>Node1&#45;&gt;Node11</title>
<path fill="none" stroke="midnightblue" d="M1703.77,-303.61C1697.98,-269.17 1681.17,-198.81 1637,-161.62 1568.15,-103.64 1530.01,-114.62 1440,-114.62 1440,-114.62 1440,-114.62 1107.5,-114.62 1024.26,-114.62 927.25,-123.29 873.1,-128.92"/>
<polygon fill="midnightblue" stroke="midnightblue" points="1700.36,-304.46 1705.34,-313.81 1707.28,-303.4 1700.36,-304.46"/>
</g>
<!-- Node13 -->
<g id="node13" class="node">
<title>Node13</title>
<g id="a_node13"><a xlink:href="heredoc_8c.html#aa11261ffe1d93fd87488514776e2df34" target="_top" xlink:title="function which allow me to do the loop to call GNL =&gt; there is also the management to leave with the ...">
<polygon fill="none" stroke="black" points="911,-143.12 911,-162.12 1014,-162.12 1014,-143.12 911,-143.12"/>
<text text-anchor="middle" x="962.5" y="-150.12" font-family="Helvetica,sans-Serif" font-size="10.00">read_gnl_heredoc</text>
</a>
</g>
</g>
<!-- Node1&#45;&gt;Node13 -->
<g id="edge61" class="edge">
<title>Node1&#45;&gt;Node13</title>
<path fill="none" stroke="midnightblue" d="M1698.68,-304.71C1688.06,-281.26 1666.91,-241.57 1637,-218.62 1563.75,-162.39 1532.34,-152.62 1440,-152.62 1440,-152.62 1440,-152.62 1264.5,-152.62 1176.45,-152.62 1073.9,-152.62 1014.09,-152.62"/>
<polygon fill="midnightblue" stroke="midnightblue" points="1695.5,-306.17 1702.7,-313.95 1701.92,-303.38 1695.5,-306.17"/>
</g>
<!-- Node15 -->
<g id="node15" class="node">
<title>Node15</title>
<g id="a_node15"><a xlink:href="redirection__multipipe_8c.html#af7980d82e7ea7c0c84519ef3e3011b98" target="_top" xlink:title=" ">
<polygon fill="none" stroke="black" points="1218.5,-10.12 1218.5,-29.12 1312.5,-29.12 1312.5,-10.12 1218.5,-10.12"/>
<text text-anchor="middle" x="1265.5" y="-17.12" font-family="Helvetica,sans-Serif" font-size="10.00">close_fd_parent</text>
</a>
</g>
</g>
<!-- Node1&#45;&gt;Node15 -->
<g id="edge20" class="edge">
<title>Node1&#45;&gt;Node15</title>
<path fill="none" stroke="midnightblue" d="M1704.09,-303.79C1696.96,-248.53 1674.09,-94.69 1637,-62.62 1545.29,16.7 1389.52,2.99 1312.47,-10.09"/>
<polygon fill="midnightblue" stroke="midnightblue" points="1700.66,-304.53 1705.38,-314.01 1707.6,-303.65 1700.66,-304.53"/>
</g>
<!-- Node17 -->
<g id="node17" class="node">
<title>Node17</title>
<g id="a_node17"><a xlink:href="redirection__multipipe_8c.html#a3a0d7f695cf53df46301e14ffab77638" target="_top" xlink:title=" ">
<polygon fill="none" stroke="black" points="1548,-295.12 1548,-314.12 1637,-314.12 1637,-295.12 1548,-295.12"/>
<text text-anchor="middle" x="1592.5" y="-302.12" font-family="Helvetica,sans-Serif" font-size="10.00">close_previous</text>
</a>
</g>
</g>
<!-- Node1&#45;&gt;Node17 -->
<g id="edge23" class="edge">
<title>Node1&#45;&gt;Node17</title>
<path fill="none" stroke="midnightblue" d="M1662.89,-316.28C1654.48,-314.87 1645.66,-313.39 1637.24,-311.97"/>
<polygon fill="midnightblue" stroke="midnightblue" points="1662.46,-319.76 1672.9,-317.97 1663.62,-312.86 1662.46,-319.76"/>
</g>
<!-- Node18 -->
<g id="node18" class="node">
<title>Node18</title>
<g id="a_node18"><a xlink:href="redirection__multipipe_8c.html#a26c96266f1645047a9bdd9af22de94a7" target="_top" xlink:title=" ">
<polygon fill="none" stroke="black" points="1385,-257.12 1385,-276.12 1493,-276.12 1493,-257.12 1385,-257.12"/>
<text text-anchor="middle" x="1439" y="-264.12" font-family="Helvetica,sans-Serif" font-size="10.00">command_redirect</text>
</a>
</g>
</g>
<!-- Node1&#45;&gt;Node18 -->
<g id="edge32" class="edge">
<title>Node1&#45;&gt;Node18</title>
<path fill="none" stroke="midnightblue" d="M1696.13,-305.35C1684.46,-286.85 1663.61,-259.34 1637,-247.62 1578.99,-222.05 1502.27,-243.21 1463.94,-257.02"/>
<polygon fill="midnightblue" stroke="midnightblue" points="1693.22,-307.3 1701.38,-314.07 1699.22,-303.69 1693.22,-307.3"/>
</g>
<!-- Node20 -->
<g id="node20" class="node">
<title>Node20</title>
<g id="a_node20"><a xlink:href="execution_8c.html#aa6f3ac2f0c10538c125eafcb587fd021" target="_top" xlink:title="in this function we do the fork to create a child process we do the redirection if we need to">
<polygon fill="none" stroke="black" points="492.5,-447.12 492.5,-466.12 620.5,-466.12 620.5,-447.12 492.5,-447.12"/>
<text text-anchor="middle" x="556.5" y="-454.12" font-family="Helvetica,sans-Serif" font-size="10.00">one_command_execve</text>
</a>
</g>
</g>
<!-- Node1&#45;&gt;Node20 -->
<g id="edge38" class="edge">
<title>Node1&#45;&gt;Node20</title>
<path fill="none" stroke="midnightblue" d="M1704.23,-343.66C1699.03,-380.31 1682.94,-458.39 1637,-502.62 1570.27,-566.86 1532.62,-570.62 1440,-570.62 1440,-570.62 1440,-570.62 1264.5,-570.62 1002.79,-570.62 693.45,-493.54 591.76,-466.14"/>
<polygon fill="midnightblue" stroke="midnightblue" points="1707.76,-343.68 1705.56,-333.32 1700.81,-342.79 1707.76,-343.68"/>
</g>
<!-- Node21 -->
<g id="node21" class="node">
<title>Node21</title>
<g id="a_node21"><a xlink:href="multipipe_8c.html#a9b21b82386f20636501d279a66b7260d" target="_top" xlink:title="in the case of an error in the redirection, we have a case where the here_doc opened in a previous si...">
<polygon fill="none" stroke="black" points="506,-675.12 506,-694.12 607,-694.12 607,-675.12 506,-675.12"/>
<text text-anchor="middle" x="556.5" y="-682.12" font-family="Helvetica,sans-Serif" font-size="10.00">close_redir_temp</text>
</a>
</g>
</g>
<!-- Node1&#45;&gt;Node21 -->
<g id="edge29" class="edge">
<title>Node1&#45;&gt;Node21</title>
<path fill="none" stroke="midnightblue" d="M1704.56,-343.61C1699.68,-384.99 1683.75,-481.48 1637,-545.62 1573.88,-632.21 1547.16,-684.62 1440,-684.62 1440,-684.62 1440,-684.62 829,-684.62 751.46,-684.62 661.47,-684.62 607.04,-684.62"/>
<polygon fill="midnightblue" stroke="midnightblue" points="1708.06,-343.79 1705.66,-333.48 1701.1,-343.04 1708.06,-343.79"/>
</g>
<!-- Node22 -->
<g id="node22" class="node">
<title>Node22</title>
<g id="a_node22"><a xlink:href="redirection__multipipe_8c.html#a5b749bc2b4088984c0efe1c479ae6ec8" target="_top" xlink:title=" ">
<polygon fill="none" stroke="black" points="1552.5,-257.12 1552.5,-276.12 1632.5,-276.12 1632.5,-257.12 1552.5,-257.12"/>
<text text-anchor="middle" x="1592.5" y="-264.12" font-family="Helvetica,sans-Serif" font-size="10.00">fail_previous</text>
</a>
</g>
</g>
<!-- Node1&#45;&gt;Node22 -->
<g id="edge33" class="edge">
<title>Node1&#45;&gt;Node22</title>
<path fill="none" stroke="midnightblue" d="M1681.01,-308.97C1667.98,-301.67 1651.8,-292.88 1637,-285.62 1630.49,-282.42 1623.31,-279.18 1616.7,-276.3"/>
<polygon fill="midnightblue" stroke="midnightblue" points="1679.44,-312.11 1689.87,-313.98 1682.88,-306.01 1679.44,-312.11"/>
</g>
<!-- Node23 -->
<g id="node23" class="node">
<title>Node23</title>
<g id="a_node23"><a xlink:href="lst__cmd2_8c.html#a8e2b63759f149b547e0d07f210ede9b3" target="_top" xlink:title=" ">
<polygon fill="none" stroke="black" points="1235,-304.12 1235,-323.12 1296,-323.12 1296,-304.12 1235,-304.12"/>
<text text-anchor="middle" x="1265.5" y="-311.12" font-family="Helvetica,sans-Serif" font-size="10.00">pop_cmd</text>
</a>
</g>
</g>
<!-- Node1&#45;&gt;Node23 -->
<g id="edge40" class="edge">
<title>Node1&#45;&gt;Node23</title>
<path fill="none" stroke="midnightblue" d="M1698.57,-304.6C1688.13,-282.4 1667.48,-246.79 1637,-231.62 1596.97,-211.69 1412.04,-231.5 1366,-247.62 1330,-260.22 1294.35,-288.8 1277.14,-303.88"/>
<polygon fill="midnightblue" stroke="midnightblue" points="1695.49,-306.3 1702.75,-314.01 1701.88,-303.45 1695.49,-306.3"/>
</g>
<!-- Node31 -->
<g id="node31" class="node">
<title>Node31</title>
<g id="a_node31"><a xlink:href="lst__redir2_8c.html#ade8f0bdda51d9bf348ebeb38fefba881" target="_top" xlink:title=" ">
<polygon fill="none" stroke="black" points="1561.5,-333.12 1561.5,-352.12 1623.5,-352.12 1623.5,-333.12 1561.5,-333.12"/>
<text text-anchor="middle" x="1592.5" y="-340.12" font-family="Helvetica,sans-Serif" font-size="10.00">pop_redir</text>
</a>
</g>
</g>
<!-- Node1&#45;&gt;Node31 -->
<g id="edge58" class="edge">
<title>Node1&#45;&gt;Node31</title>
<path fill="none" stroke="midnightblue" d="M1662.7,-330.98C1649.66,-333.17 1635.67,-335.53 1623.7,-337.54"/>
<polygon fill="midnightblue" stroke="midnightblue" points="1663.62,-334.37 1672.9,-329.27 1662.46,-327.47 1663.62,-334.37"/>
</g>
<!-- Node2&#45;&gt;Node3 -->
<g id="edge2" class="edge">
<title>Node2&#45;&gt;Node3</title>
<path fill="none" stroke="midnightblue" d="M1543.5,-468.66C1522.33,-473.96 1497.81,-480.11 1477.95,-485.1"/>
<polygon fill="midnightblue" stroke="midnightblue" points="1544.42,-472.03 1553.27,-466.2 1542.72,-465.24 1544.42,-472.03"/>
</g>
<!-- Node2&#45;&gt;Node9 -->
<g id="edge9" class="edge">
<title>Node2&#45;&gt;Node9</title>
<path fill="none" stroke="midnightblue" d="M1539.27,-456.62C1530.52,-456.62 1521.3,-456.62 1512.15,-456.62"/>
<polygon fill="midnightblue" stroke="midnightblue" points="1539.3,-460.12 1549.3,-456.62 1539.3,-453.12 1539.3,-460.12"/>
</g>
<!-- Node3&#45;&gt;Node4 -->
<g id="edge3" class="edge">
<title>Node3&#45;&gt;Node4</title>
<path fill="none" stroke="midnightblue" d="M1379.53,-494.62C1363.6,-494.62 1346.26,-494.62 1330.06,-494.62"/>
<polygon fill="midnightblue" stroke="midnightblue" points="1379.77,-498.12 1389.77,-494.62 1379.77,-491.12 1379.77,-498.12"/>
</g>
<!-- Node4&#45;&gt;Node5 -->
<g id="edge4" class="edge">
<title>Node4&#45;&gt;Node5</title>
<path fill="none" stroke="midnightblue" d="M1242.01,-509.63C1193.4,-540.59 1074,-608.62 963.5,-608.62 963.5,-608.62 963.5,-608.62 555.5,-608.62 449.77,-608.62 325.62,-601.2 261.23,-596.8"/>
<polygon fill="midnightblue" stroke="midnightblue" points="1244.01,-512.51 1250.5,-504.14 1240.2,-506.63 1244.01,-512.51"/>
</g>
<!-- Node8 -->
<g id="node8" class="node">
<title>Node8</title>
<g id="a_node8"><a xlink:href="execution_8c.html#a38335028b2bc7aa436f8f79a3753ce5e" target="_top" xlink:title="here we check if it&#39;s a builtin where we have to fork or not we still need to do the redirection veri...">
<polygon fill="none" stroke="black" points="331.5,-461.12 331.5,-480.12 420.5,-480.12 420.5,-461.12 331.5,-461.12"/>
<text text-anchor="middle" x="376" y="-468.12" font-family="Helvetica,sans-Serif" font-size="10.00">one_command</text>
</a>
</g>
</g>
<!-- Node4&#45;&gt;Node8 -->
<g id="edge7" class="edge">
<title>Node4&#45;&gt;Node8</title>
<path fill="none" stroke="midnightblue" d="M1222.7,-506.93C1145.87,-528.45 976.7,-570.62 831,-570.62 831,-570.62 831,-570.62 703.5,-570.62 580.78,-570.62 443.05,-505.23 394.82,-480.2"/>
<polygon fill="midnightblue" stroke="midnightblue" points="1223.81,-510.26 1232.48,-504.16 1221.91,-503.52 1223.81,-510.26"/>
</g>
<!-- Node6 -->
<g id="node6" class="node">
<title>Node6</title>
<g id="a_node6"><a xlink:href="execution_8c.html#a9542b61daba3eb4d45c8887c5648b2f6" target="_top" xlink:title="first function of the execution part when we have something to do we have to deal with two cases ; if...">
<polygon fill="none" stroke="black" points="77,-537.12 77,-556.12 136,-556.12 136,-537.12 77,-537.12"/>
<text text-anchor="middle" x="106.5" y="-544.12" font-family="Helvetica,sans-Serif" font-size="10.00">executor</text>
</a>
</g>
</g>
<!-- Node5&#45;&gt;Node6 -->
<g id="edge5" class="edge">
<title>Node5&#45;&gt;Node6</title>
<path fill="none" stroke="midnightblue" d="M184.39,-580.08C166.9,-572.47 145.48,-563.14 129.69,-556.27"/>
<polygon fill="midnightblue" stroke="midnightblue" points="183.08,-583.32 193.64,-584.1 185.87,-576.91 183.08,-583.32"/>
</g>
<!-- Node7 -->
<g id="node7" class="node">
<title>Node7</title>
<g id="a_node7"><a xlink:href="main_8c.html#a647f21a28344e1d9c643f4115516d7c9" target="_top" xlink:title=" ">
<polygon fill="none" stroke="black" points="0,-537.12 0,-556.12 41,-556.12 41,-537.12 0,-537.12"/>
<text text-anchor="middle" x="20.5" y="-544.12" font-family="Helvetica,sans-Serif" font-size="10.00">main</text>
</a>
</g>
</g>
<!-- Node6&#45;&gt;Node7 -->
<g id="edge6" class="edge">
<title>Node6&#45;&gt;Node7</title>
<path fill="none" stroke="midnightblue" d="M66.48,-546.62C57.72,-546.62 48.78,-546.62 41.21,-546.62"/>
<polygon fill="midnightblue" stroke="midnightblue" points="66.59,-550.12 76.59,-546.62 66.59,-543.12 66.59,-550.12"/>
</g>
<!-- Node8&#45;&gt;Node6 -->
<g id="edge8" class="edge">
<title>Node8&#45;&gt;Node6</title>
<path fill="none" stroke="midnightblue" d="M331.58,-482.95C276.55,-498.59 183.22,-525.1 136.28,-538.44"/>
<polygon fill="midnightblue" stroke="midnightblue" points="332.73,-486.26 341.39,-480.16 330.82,-479.53 332.73,-486.26"/>
</g>
<!-- Node9&#45;&gt;Node4 -->
<g id="edge10" class="edge">
<title>Node9&#45;&gt;Node4</title>
<path fill="none" stroke="midnightblue" d="M1384.96,-468.37C1360.71,-473.74 1332.35,-480.02 1309.47,-485.1"/>
<polygon fill="midnightblue" stroke="midnightblue" points="1385.72,-471.79 1394.72,-466.2 1384.2,-464.95 1385.72,-471.79"/>
</g>
<!-- Node10&#45;&gt;Node11 -->
<g id="edge12" class="edge">
<title>Node10&#45;&gt;Node11</title>
<path fill="none" stroke="midnightblue" d="M1072.87,-63.82C1032.1,-50.86 963.1,-35.62 909,-57.62 875.55,-71.22 848.59,-106.83 837.06,-124.04"/>
<polygon fill="midnightblue" stroke="midnightblue" points="1072.01,-67.22 1082.6,-67.04 1074.21,-60.58 1072.01,-67.22"/>
</g>
<!-- Node10&#45;&gt;Node13 -->
<g id="edge16" class="edge">
<title>Node10&#45;&gt;Node13</title>
<path fill="none" stroke="midnightblue" d="M1080.11,-91.07C1051.18,-106.34 1006.4,-129.98 981.59,-143.07"/>
<polygon fill="midnightblue" stroke="midnightblue" points="1082.05,-94 1089.26,-86.24 1078.78,-87.81 1082.05,-94"/>
</g>
<!-- Node14 -->
<g id="node14" class="node">
<title>Node14</title>
<g id="a_node14"><a xlink:href="heredoc_8c.html#a62f285b689f1045264be19c5467c1781" target="_top" xlink:title="origin of creation ; the norm what it is doing ? juste close the fd the right way if we encounter the...">
<polygon fill="none" stroke="black" points="919.5,-67.12 919.5,-86.12 1005.5,-86.12 1005.5,-67.12 919.5,-67.12"/>
<text text-anchor="middle" x="962.5" y="-74.12" font-family="Helvetica,sans-Serif" font-size="10.00">update_status</text>
</a>
</g>
</g>
<!-- Node10&#45;&gt;Node14 -->
<g id="edge18" class="edge">
<title>Node10&#45;&gt;Node14</title>
<path fill="none" stroke="midnightblue" d="M1041.63,-76.62C1029.39,-76.62 1016.91,-76.62 1005.62,-76.62"/>
<polygon fill="midnightblue" stroke="midnightblue" points="1041.83,-80.12 1051.83,-76.62 1041.83,-73.12 1041.83,-80.12"/>
</g>
<!-- Node12 -->
<g id="node12" class="node">
<title>Node12</title>
<g id="a_node12"><a xlink:href="heredoc_8c.html#a17337782f10170a6f2f9188bf557de0f" target="_top" xlink:title="the function will go through all the commands and check the redirection if we encounter a heredoc we ...">
<polygon fill="none" stroke="black" points="491,-276.12 491,-295.12 622,-295.12 622,-276.12 491,-276.12"/>
<text text-anchor="middle" x="556.5" y="-283.12" font-family="Helvetica,sans-Serif" font-size="10.00">here_doc_management</text>
</a>
</g>
</g>
<!-- Node11&#45;&gt;Node12 -->
<g id="edge13" class="edge">
<title>Node11&#45;&gt;Node12</title>
<path fill="none" stroke="midnightblue" d="M803.23,-148.04C748.22,-178.84 620.56,-250.31 574.48,-276.11"/>
<polygon fill="midnightblue" stroke="midnightblue" points="805,-151.06 812.02,-143.12 801.58,-144.96 805,-151.06"/>
</g>
<!-- Node12&#45;&gt;Node5 -->
<g id="edge14" class="edge">
<title>Node12&#45;&gt;Node5</title>
<path fill="none" stroke="midnightblue" d="M507.4,-274.13C450.49,-263.59 356.04,-256.1 297,-304.62 251.67,-341.87 224.51,-537.73 218.69,-583.87"/>
<polygon fill="midnightblue" stroke="midnightblue" points="506.74,-277.57 517.23,-276.05 508.08,-270.7 506.74,-277.57"/>
</g>
<!-- Node12&#45;&gt;Node8 -->
<g id="edge15" class="edge">
<title>Node12&#45;&gt;Node8</title>
<path fill="none" stroke="midnightblue" d="M499.6,-299.33C496.59,-300.91 493.69,-302.66 491,-304.62 460.58,-326.69 400.85,-428.77 382.5,-460.9"/>
<polygon fill="midnightblue" stroke="midnightblue" points="501.25,-302.43 508.93,-295.13 498.38,-296.04 501.25,-302.43"/>
</g>
<!-- Node13&#45;&gt;Node11 -->
<g id="edge17" class="edge">
<title>Node13&#45;&gt;Node11</title>
<path fill="none" stroke="midnightblue" d="M900.63,-143.75C891.3,-142.39 881.84,-141.02 873.04,-139.74"/>
<polygon fill="midnightblue" stroke="midnightblue" points="900.27,-147.24 910.67,-145.22 901.28,-140.31 900.27,-147.24"/>
</g>
<!-- Node14&#45;&gt;Node11 -->
<g id="edge19" class="edge">
<title>Node14&#45;&gt;Node11</title>
<path fill="none" stroke="midnightblue" d="M930.32,-90.23C906.45,-100.66 874.11,-114.79 852.91,-124.04"/>
<polygon fill="midnightblue" stroke="midnightblue" points="931.89,-93.37 939.66,-86.16 929.09,-86.95 931.89,-93.37"/>
</g>
<!-- Node16 -->
<g id="node16" class="node">
<title>Node16</title>
<g id="a_node16"><a xlink:href="multipipe_8c.html#af31c329200501f497cd102a470450103" target="_top" xlink:title="it&#39;s where the fork happen and sent to be execute">
<polygon fill="none" stroke="black" points="297,-314.12 297,-333.12 455,-333.12 455,-314.12 297,-314.12"/>
<text text-anchor="middle" x="376" y="-321.12" font-family="Helvetica,sans-Serif" font-size="10.00">multipipe_intermediary_cmd</text>
</a>
</g>
</g>
<!-- Node15&#45;&gt;Node16 -->
<g id="edge21" class="edge">
<title>Node15&#45;&gt;Node16</title>
<path fill="none" stroke="midnightblue" d="M1208.23,-16.17C1137.11,-13.42 1011.61,-13.91 909,-42.62 684.68,-105.38 447.48,-272.02 390.06,-313.94"/>
<polygon fill="midnightblue" stroke="midnightblue" points="1208.17,-19.68 1218.31,-16.6 1208.47,-12.68 1208.17,-19.68"/>
</g>
<!-- Node16&#45;&gt;Node5 -->
<g id="edge22" class="edge">
<title>Node16&#45;&gt;Node5</title>
<path fill="none" stroke="midnightblue" d="M363.59,-341.85C348.21,-366.57 320.07,-412.14 297,-451.62 268.21,-500.89 235.35,-560.82 222.78,-583.9"/>
<polygon fill="midnightblue" stroke="midnightblue" points="366.68,-343.51 369.01,-333.18 360.74,-339.81 366.68,-343.51"/>
</g>
<!-- Node17&#45;&gt;Node18 -->
<g id="edge24" class="edge">
<title>Node17&#45;&gt;Node18</title>
<path fill="none" stroke="midnightblue" d="M1543.5,-292.58C1522.33,-287.27 1497.81,-281.12 1477.95,-276.14"/>
<polygon fill="midnightblue" stroke="midnightblue" points="1542.72,-295.99 1553.27,-295.03 1544.42,-289.2 1542.72,-295.99"/>
</g>
<!-- Node19 -->
<g id="node19" class="node">
<title>Node19</title>
<g id="a_node19"><a xlink:href="multipipe_8c.html#a461ae962ce9a1aee7221ac4b9c581f98" target="_top" xlink:title=" ">
<polygon fill="none" stroke="black" points="515,-314.12 515,-333.12 598,-333.12 598,-314.12 515,-314.12"/>
<text text-anchor="middle" x="556.5" y="-321.12" font-family="Helvetica,sans-Serif" font-size="10.00">execute_child</text>
</a>
</g>
</g>
<!-- Node18&#45;&gt;Node19 -->
<g id="edge25" class="edge">
<title>Node18&#45;&gt;Node19</title>
<path fill="none" stroke="midnightblue" d="M1374.54,-266.62C1308.38,-266.62 1201.67,-266.62 1109.5,-266.62 1109.5,-266.62 1109.5,-266.62 829,-266.62 783.37,-266.62 656.52,-297.85 593.71,-314.08"/>
<polygon fill="midnightblue" stroke="midnightblue" points="1374.8,-270.12 1384.8,-266.62 1374.8,-263.12 1374.8,-270.12"/>
</g>
<!-- Node18&#45;&gt;Node20 -->
<g id="edge27" class="edge">
<title>Node18&#45;&gt;Node20</title>
<path fill="none" stroke="midnightblue" d="M1408.42,-280.75C1395.15,-287.46 1379.47,-295.92 1366,-304.62 1348.97,-315.61 1346.88,-321.39 1330,-332.62 1236.37,-394.86 1221.93,-456.62 1109.5,-456.62 1109.5,-456.62 1109.5,-456.62 829,-456.62 757.59,-456.62 675.61,-456.62 620.59,-456.62"/>
<polygon fill="midnightblue" stroke="midnightblue" points="1410.2,-283.77 1417.6,-276.19 1407.09,-277.5 1410.2,-283.77"/>
</g>
<!-- Node19&#45;&gt;Node16 -->
<g id="edge26" class="edge">
<title>Node19&#45;&gt;Node16</title>
<path fill="none" stroke="midnightblue" d="M504.68,-323.62C489.31,-323.62 472.06,-323.62 455.33,-323.62"/>
<polygon fill="midnightblue" stroke="midnightblue" points="505,-327.12 515,-323.62 505,-320.12 505,-327.12"/>
</g>
<!-- Node20&#45;&gt;Node8 -->
<g id="edge28" class="edge">
<title>Node20&#45;&gt;Node8</title>
<path fill="none" stroke="midnightblue" d="M482.19,-462.37C461.33,-464 439.27,-465.73 420.77,-467.18"/>
<polygon fill="midnightblue" stroke="midnightblue" points="482.62,-465.84 492.32,-461.57 482.07,-458.86 482.62,-465.84"/>
</g>
<!-- Node21&#45;&gt;Node5 -->
<g id="edge30" class="edge">
<title>Node21&#45;&gt;Node5</title>
<path fill="none" stroke="midnightblue" d="M495.66,-688.98C441.64,-690.66 361.06,-687.43 297,-660.62 266.36,-647.79 238.7,-618.79 225.56,-603.49"/>
<polygon fill="midnightblue" stroke="midnightblue" points="495.9,-692.48 505.76,-688.6 495.63,-685.48 495.9,-692.48"/>
</g>
<!-- Node21&#45;&gt;Node8 -->
<g id="edge31" class="edge">
<title>Node21&#45;&gt;Node8</title>
<path fill="none" stroke="midnightblue" d="M540.75,-666.93C504.7,-623.72 413.07,-513.86 385.18,-480.42"/>
<polygon fill="midnightblue" stroke="midnightblue" points="538.27,-669.43 547.37,-674.86 543.65,-664.94 538.27,-669.43"/>
</g>
<!-- Node22&#45;&gt;Node18 -->
<g id="edge34" class="edge">
<title>Node22&#45;&gt;Node18</title>
<path fill="none" stroke="midnightblue" d="M1542.43,-266.62C1526.68,-266.62 1509.18,-266.62 1493.16,-266.62"/>
<polygon fill="midnightblue" stroke="midnightblue" points="1542.49,-270.12 1552.48,-266.62 1542.48,-263.12 1542.49,-270.12"/>
</g>
<!-- Node24 -->
<g id="node24" class="node">
<title>Node24</title>
<g id="a_node24"><a xlink:href="lst__cmd2_8c.html#a132395876bb5a7cfe926b9e37571a1e3" target="_top" xlink:title=" ">
<polygon fill="none" stroke="black" points="1062.5,-304.12 1062.5,-323.12 1154.5,-323.12 1154.5,-304.12 1062.5,-304.12"/>
<text text-anchor="middle" x="1108.5" y="-311.12" font-family="Helvetica,sans-Serif" font-size="10.00">destructor_cmd</text>
</a>
</g>
</g>
<!-- Node23&#45;&gt;Node24 -->
<g id="edge41" class="edge">
<title>Node23&#45;&gt;Node24</title>
<path fill="none" stroke="midnightblue" d="M1224.93,-313.62C1203.52,-313.62 1177,-313.62 1154.77,-313.62"/>
<polygon fill="midnightblue" stroke="midnightblue" points="1224.98,-317.12 1234.98,-313.62 1224.98,-310.12 1224.98,-317.12"/>
</g>
<!-- Node24&#45;&gt;Node7 -->
<g id="edge47" class="edge">
<title>Node24&#45;&gt;Node7</title>
<path fill="none" stroke="midnightblue" d="M1073.56,-300.53C988.22,-268.85 757.27,-190.62 557.5,-190.62 557.5,-190.62 557.5,-190.62 215.5,-190.62 52.91,-190.62 25.78,-480.48 22.04,-537.09"/>
<polygon fill="midnightblue" stroke="midnightblue" points="1072.4,-303.84 1083,-304.07 1074.86,-297.28 1072.4,-303.84"/>
</g>
<!-- Node24&#45;&gt;Node11 -->
<g id="edge46" class="edge">
<title>Node24&#45;&gt;Node11</title>
<path fill="none" stroke="midnightblue" d="M1094.73,-295.49C1078.58,-273.71 1048.88,-237.28 1016,-214.62 973.8,-185.53 955.84,-192.41 909,-171.62 888.49,-162.51 865.43,-151.13 849.74,-143.21"/>
<polygon fill="midnightblue" stroke="midnightblue" points="1092.09,-297.8 1100.79,-303.84 1097.75,-293.69 1092.09,-297.8"/>
</g>
<!-- Node24&#45;&gt;Node13 -->
<g id="edge57" class="edge">
<title>Node24&#45;&gt;Node13</title>
<path fill="none" stroke="midnightblue" d="M1099.05,-294.63C1085.35,-265.72 1055.76,-210.47 1016,-176.62 1008.98,-170.64 1000.23,-165.86 991.89,-162.19"/>
<polygon fill="midnightblue" stroke="midnightblue" points="1096,-296.38 1103.37,-304 1102.36,-293.45 1096,-296.38"/>
</g>
<!-- Node24&#45;&gt;Node19 -->
<g id="edge42" class="edge">
<title>Node24&#45;&gt;Node19</title>
<path fill="none" stroke="midnightblue" d="M1052.22,-314.62C941.65,-316.63 695.52,-321.11 598.22,-322.88"/>
<polygon fill="midnightblue" stroke="midnightblue" points="1052.56,-318.12 1062.49,-314.43 1052.43,-311.12 1052.56,-318.12"/>
</g>
<!-- Node24&#45;&gt;Node20 -->
<g id="edge52" class="edge">
<title>Node24&#45;&gt;Node20</title>
<path fill="none" stroke="midnightblue" d="M1094.54,-331.26C1078.56,-351.54 1049.38,-384.02 1016,-399.62 870.8,-467.44 816.92,-422 658,-442.62 645.95,-444.18 633.09,-445.92 620.74,-447.62"/>
<polygon fill="midnightblue" stroke="midnightblue" points="1097.45,-333.23 1100.74,-323.16 1091.89,-328.97 1097.45,-333.23"/>
</g>
<!-- Node25 -->
<g id="node25" class="node">
<title>Node25</title>
<g id="a_node25"><a xlink:href="execution__node_8c.html#adda76b40c34c18ec83b1d98700083f8a" target="_top" xlink:title="we are going to execute the command here we have a security about absolute path given =&gt; because it&#39;s...">
<polygon fill="none" stroke="black" points="658,-333.12 658,-352.12 751,-352.12 751,-333.12 658,-333.12"/>
<text text-anchor="middle" x="704.5" y="-340.12" font-family="Helvetica,sans-Serif" font-size="10.00">execution_node</text>
</a>
</g>
</g>
<!-- Node24&#45;&gt;Node25 -->
<g id="edge43" class="edge">
<title>Node24&#45;&gt;Node25</title>
<path fill="none" stroke="midnightblue" d="M1051.79,-317.63C971.68,-323.41 825.47,-333.96 751.28,-339.31"/>
<polygon fill="midnightblue" stroke="midnightblue" points="1052.44,-321.1 1062.17,-316.89 1051.94,-314.11 1052.44,-321.1"/>
</g>
<!-- Node26 -->
<g id="node26" class="node">
<title>Node26</title>
<g id="a_node26"><a xlink:href="exit_8c.html#adcbec3416f97b2d0b8d53cf4c2b2a436" target="_top" xlink:title=" ">
<polygon fill="none" stroke="black" points="934.5,-371.12 934.5,-390.12 990.5,-390.12 990.5,-371.12 934.5,-371.12"/>
<text text-anchor="middle" x="962.5" y="-378.12" font-family="Helvetica,sans-Serif" font-size="10.00">my_exit</text>
</a>
</g>
</g>
<!-- Node24&#45;&gt;Node26 -->
<g id="edge48" class="edge">
<title>Node24&#45;&gt;Node26</title>
<path fill="none" stroke="midnightblue" d="M1077.84,-327.65C1059.95,-336.09 1036.69,-347.02 1016,-356.62 1005.63,-361.42 994.09,-366.71 984.47,-371.09"/>
<polygon fill="midnightblue" stroke="midnightblue" points="1079.63,-330.68 1087.18,-323.24 1076.64,-324.35 1079.63,-330.68"/>
</g>
<!-- Node28 -->
<g id="node28" class="node">
<title>Node28</title>
<g id="a_node28"><a xlink:href="error_8c.html#a193034f887c71fdb2486835d8cbd9dd3" target="_top" xlink:title=" ">
<polygon fill="none" stroke="black" points="909,-485.12 909,-504.12 1016,-504.12 1016,-485.12 909,-485.12"/>
<text text-anchor="middle" x="962.5" y="-492.12" font-family="Helvetica,sans-Serif" font-size="10.00">parsing_destructor</text>
</a>
</g>
</g>
<!-- Node24&#45;&gt;Node28 -->
<g id="edge53" class="edge">
<title>Node24&#45;&gt;Node28</title>
<path fill="none" stroke="midnightblue" d="M1094.09,-331.6C1076.48,-355.08 1044.47,-397.35 1016,-432.62 1000.76,-451.49 982.3,-472.99 971.83,-485.07"/>
<polygon fill="midnightblue" stroke="midnightblue" points="1097.11,-333.4 1100.3,-323.3 1091.5,-329.21 1097.11,-333.4"/>
</g>
<!-- Node25&#45;&gt;Node19 -->
<g id="edge44" class="edge">
<title>Node25&#45;&gt;Node19</title>
<path fill="none" stroke="midnightblue" d="M647.65,-335.35C631.19,-333.21 613.5,-330.9 598.19,-328.91"/>
<polygon fill="midnightblue" stroke="midnightblue" points="647.34,-338.84 657.71,-336.66 648.24,-331.9 647.34,-338.84"/>
</g>
<!-- Node25&#45;&gt;Node20 -->
<g id="edge45" class="edge">
<title>Node25&#45;&gt;Node20</title>
<path fill="none" stroke="midnightblue" d="M683.03,-358.6C652.3,-382.6 595.16,-427.21 569.97,-446.88"/>
<polygon fill="midnightblue" stroke="midnightblue" points="685.58,-361.05 691.3,-352.14 681.27,-355.54 685.58,-361.05"/>
</g>
<!-- Node27 -->
<g id="node27" class="node">
<title>Node27</title>
<g id="a_node27"><a xlink:href="execution_8c.html#a7bee4f6fbfd70ef7ec1f52856538ac71" target="_top" xlink:title="launch the builtin &#160;&#160;some of them are not present because we have to fork() them why ?...">
<polygon fill="none" stroke="black" points="787.5,-371.12 787.5,-390.12 872.5,-390.12 872.5,-371.12 787.5,-371.12"/>
<text text-anchor="middle" x="830" y="-378.12" font-family="Helvetica,sans-Serif" font-size="10.00">launch_builtin</text>
</a>
</g>
</g>
<!-- Node26&#45;&gt;Node27 -->
<g id="edge49" class="edge">
<title>Node26&#45;&gt;Node27</title>
<path fill="none" stroke="midnightblue" d="M924.33,-380.62C908.2,-380.62 889.25,-380.62 872.66,-380.62"/>
<polygon fill="midnightblue" stroke="midnightblue" points="924.46,-384.12 934.46,-380.62 924.46,-377.12 924.46,-384.12"/>
</g>
<!-- Node27&#45;&gt;Node8 -->
<g id="edge51" class="edge">
<title>Node27&#45;&gt;Node8</title>
<path fill="none" stroke="midnightblue" d="M776.99,-387.04C710.22,-395.82 591.04,-413.3 491,-437.62 462.37,-444.57 430.15,-454.06 407.29,-461.07"/>
<polygon fill="midnightblue" stroke="midnightblue" points="777.78,-390.47 787.25,-385.7 776.88,-383.52 777.78,-390.47"/>
</g>
<!-- Node27&#45;&gt;Node25 -->
<g id="edge50" class="edge">
<title>Node27&#45;&gt;Node25</title>
<path fill="none" stroke="midnightblue" d="M788.26,-368.08C771.46,-362.91 752.3,-357.02 736.65,-352.2"/>
<polygon fill="midnightblue" stroke="midnightblue" points="787.25,-371.43 797.84,-371.03 789.31,-364.74 787.25,-371.43"/>
</g>
<!-- Node29 -->
<g id="node29" class="node">
<title>Node29</title>
<g id="a_node29"><a xlink:href="error_8c.html#a8f5f1cfa591c395b88733e1134d8de3d" target="_top" xlink:title=" ">
<polygon fill="none" stroke="black" points="791,-713.12 791,-732.12 869,-732.12 869,-713.12 791,-713.12"/>
<text text-anchor="middle" x="830" y="-720.12" font-family="Helvetica,sans-Serif" font-size="10.00">syntax_error</text>
</a>
</g>
</g>
<!-- Node28&#45;&gt;Node29 -->
<g id="edge54" class="edge">
<title>Node28&#45;&gt;Node29</title>
<path fill="none" stroke="midnightblue" d="M950.96,-513.03C924.55,-559.17 856.28,-678.45 836.46,-713.07"/>
<polygon fill="midnightblue" stroke="midnightblue" points="954.13,-514.54 956.06,-504.12 948.05,-511.06 954.13,-514.54"/>
</g>
<!-- Node30 -->
<g id="node30" class="node">
<title>Node30</title>
<g id="a_node30"><a xlink:href="parser_8c.html#a302af903b3f87eaaff83762f60c2d8cb" target="_top" xlink:title=" ">
<polygon fill="none" stroke="black" points="193,-667.12 193,-686.12 240,-686.12 240,-667.12 193,-667.12"/>
<text text-anchor="middle" x="216.5" y="-674.12" font-family="Helvetica,sans-Serif" font-size="10.00">parser</text>
</a>
</g>
</g>
<!-- Node29&#45;&gt;Node30 -->
<g id="edge55" class="edge">
<title>Node29&#45;&gt;Node30</title>
<path fill="none" stroke="midnightblue" d="M780.82,-721.14C687.29,-717.92 474.71,-708.87 297,-688.62 277.72,-686.42 255.94,-683.07 240.06,-680.47"/>
<polygon fill="midnightblue" stroke="midnightblue" points="780.71,-724.64 790.82,-721.48 780.95,-717.64 780.71,-724.64"/>
</g>
<!-- Node30&#45;&gt;Node7 -->
<g id="edge56" class="edge">
<title>Node30&#45;&gt;Node7</title>
<path fill="none" stroke="midnightblue" d="M192.85,-661.44C152.47,-634.38 69.16,-578.55 35.79,-556.19"/>
<polygon fill="midnightblue" stroke="midnightblue" points="190.98,-664.4 201.23,-667.06 194.88,-658.58 190.98,-664.4"/>
</g>
<!-- Node32 -->
<g id="node32" class="node">
<title>Node32</title>
<g id="a_node32"><a xlink:href="lst__redir2_8c.html#a30ccaf401a4f897e48ead5fe54f4b307" target="_top" xlink:title=" ">
<polygon fill="none" stroke="black" points="1392,-314.12 1392,-333.12 1486,-333.12 1486,-314.12 1392,-314.12"/>
<text text-anchor="middle" x="1439" y="-321.12" font-family="Helvetica,sans-Serif" font-size="10.00">destructor_redir</text>
</a>
</g>
</g>
<!-- Node31&#45;&gt;Node32 -->
<g id="edge59" class="edge">
<title>Node31&#45;&gt;Node32</title>
<path fill="none" stroke="midnightblue" d="M1551.16,-337.56C1531.13,-335.04 1506.83,-332 1486.07,-329.39"/>
<polygon fill="midnightblue" stroke="midnightblue" points="1550.85,-341.04 1561.21,-338.82 1551.72,-334.1 1550.85,-341.04"/>
</g>
<!-- Node32&#45;&gt;Node23 -->
<g id="edge60" class="edge">
<title>Node32&#45;&gt;Node23</title>
<path fill="none" stroke="midnightblue" d="M1381.36,-320.31C1352.91,-318.65 1319.61,-316.71 1296.21,-315.35"/>
<polygon fill="midnightblue" stroke="midnightblue" points="1381.4,-323.82 1391.59,-320.91 1381.81,-316.83 1381.4,-323.82"/>
</g>
</g>
</svg>
        <g id="navigator" transform="translate(0 0)" fill="#404254">
                <rect fill="#f2f5e9" fill-opacity="0.5" stroke="#606060" stroke-width=".5" x="0" y="0" width="60" height="60"/>
                <use id="zoomplus" xlink:href="#zoomPlus" x="17" y="9" onmousedown="handleZoom(evt,'in')"/>
                <use id="zoomminus" xlink:href="#zoomMin" x="42" y="9" onmousedown="handleZoom(evt,'out')"/>
                <use id="reset" xlink:href="#resetDef" x="30" y="36" onmousedown="handleReset()"/>
                <g id="arrowUp" xlink:href="#dirArrow" transform="translate(30 24)" onmousedown="handlePan(0,-1)">
                  <use xlink:href="#rim" fill="#404040">
                        <set attributeName="fill" to="#808080" begin="arrowUp.mouseover" end="arrowUp.mouseout"/>
                  </use>
                  <path fill="none" stroke="white" stroke-width="1.5" d="M0,-3.0v7 M-2.5,-0.5L0,-3.0L2.5,-0.5"/>
                </g>
                <g id="arrowRight" xlink:href="#dirArrow" transform="rotate(90) translate(36 -43)" onmousedown="handlePan(1,0)">
                  <use xlink:href="#rim" fill="#404040">
                        <set attributeName="fill" to="#808080" begin="arrowRight.mouseover" end="arrowRight.mouseout"/>
                  </use>
                  <path fill="none" stroke="white" stroke-width="1.5" d="M0,-3.0v7 M-2.5,-0.5L0,-3.0L2.5,-0.5"/>
                </g>
                <g id="arrowDown" xlink:href="#dirArrow" transform="rotate(180) translate(-30 -48)" onmousedown="handlePan(0,1)">
                  <use xlink:href="#rim" fill="#404040">
                        <set attributeName="fill" to="#808080" begin="arrowDown.mouseover" end="arrowDown.mouseout"/>
                  </use>
                  <path fill="none" stroke="white" stroke-width="1.5" d="M0,-3.0v7 M-2.5,-0.5L0,-3.0L2.5,-0.5"/>
                </g>
                <g id="arrowLeft" xlink:href="#dirArrow" transform="rotate(270) translate(-36 17)" onmousedown="handlePan(-1,0)">
                  <use xlink:href="#rim" fill="#404040">
                        <set attributeName="fill" to="#808080" begin="arrowLeft.mouseover" end="arrowLeft.mouseout"/>
                  </use>
                  <path fill="none" stroke="white" stroke-width="1.5" d="M0,-3.0v7 M-2.5,-0.5L0,-3.0L2.5,-0.5"/>
                </g>
        </g>
        <svg viewBox="0 0 15 15" width="100%" height="30px" preserveAspectRatio="xMaxYMin meet">
         <g id="arrow_out" transform="scale(0.3 0.3)">
          <a xlink:href="minishell_8h_a1bca6910c90a19d96b36506a2e2cebf6_icgraph_org.svg" target="_base">
           <rect id="button" ry="5" rx="5" y="6" x="6" height="38" width="38"
                fill="#f2f5e9" fill-opacity="0.5" stroke="#606060" stroke-width="1.0"/>
           <path id="arrow"
             d="M 11.500037,31.436501 C 11.940474,20.09759 22.043105,11.32322 32.158766,21.979434 L 37.068811,17.246167 C 37.068811,17.246167 37.088388,32 37.088388,32 L 22.160133,31.978069 C 22.160133,31.978069 26.997745,27.140456 26.997745,27.140456 C 18.528582,18.264221 13.291696,25.230495 11.500037,31.436501 z"
             style="fill:#404040;"/>
          </a>
         </g>
        </svg>
</svg>
