<?xml version="1.0" encoding="UTF-8" standalone="no"?>
<!DOCTYPE svg PUBLIC "-//W3C//DTD SVG 1.1//EN"
 "http://www.w3.org/Graphics/SVG/1.1/DTD/svg11.dtd">
<!-- Generated by graphviz version 2.43.0 (0)
 -->
<!-- Title: heredoc_input Pages: 1 -->
<svg width="872pt" height="246pt"
 viewBox="0.00 0.00 872.00 246.00" xmlns="http://www.w3.org/2000/svg" xmlns:xlink="http://www.w3.org/1999/xlink">
<g id="graph0" class="graph" transform="scale(1 1) rotate(0) translate(4 242)">
<title>heredoc_input</title>
<!-- Node1 -->
<g id="node1" class="node">
<title>Node1</title>
<g id="a_node1"><a xlink:title=" ">
<polygon fill="#bfbfbf" stroke="black" points="0,-76.5 0,-95.5 86,-95.5 86,-76.5 0,-76.5"/>
<text text-anchor="middle" x="43" y="-83.5" font-family="Helvetica,sans-Serif" font-size="10.00">heredoc_input</text>
</a>
</g>
</g>
<!-- Node2 -->
<g id="node2" class="node">
<title>Node2</title>
<g id="a_node2"><a xlink:href="ft__strlen_8c.html#a828402378653640f545a4be2e00e92f9" target="_top" xlink:title=" ">
<polygon fill="none" stroke="black" points="610.5,-190.5 610.5,-209.5 666.5,-209.5 666.5,-190.5 610.5,-190.5"/>
<text text-anchor="middle" x="638.5" y="-197.5" font-family="Helvetica,sans-Serif" font-size="10.00">ft_strlen</text>
</a>
</g>
</g>
<!-- Node1&#45;&gt;Node2 -->
<g id="edge1" class="edge">
<title>Node1&#45;&gt;Node2</title>
<path fill="none" stroke="midnightblue" d="M51.94,-95.51C80.69,-128.78 183.43,-238 293.5,-238 293.5,-238 293.5,-238 432.5,-238 492.06,-238 559.76,-222.3 600.52,-211.08"/>
<polygon fill="midnightblue" stroke="midnightblue" points="601.6,-214.41 610.28,-208.34 599.7,-207.68 601.6,-214.41"/>
</g>
<!-- Node3 -->
<g id="node3" class="node">
<title>Node3</title>
<g id="a_node3"><a xlink:href="ft__strncmp_8c.html#a9d2fe792187aa4ed08e5864fb2c4d6dc" target="_top" xlink:title=" ">
<polygon fill="none" stroke="black" points="129.5,-38.5 129.5,-57.5 197.5,-57.5 197.5,-38.5 129.5,-38.5"/>
<text text-anchor="middle" x="163.5" y="-45.5" font-family="Helvetica,sans-Serif" font-size="10.00">ft_strncmp</text>
</a>
</g>
</g>
<!-- Node1&#45;&gt;Node3 -->
<g id="edge2" class="edge">
<title>Node1&#45;&gt;Node3</title>
<path fill="none" stroke="midnightblue" d="M73.9,-76.41C88.78,-71.64 106.96,-65.81 122.97,-60.68"/>
<polygon fill="midnightblue" stroke="midnightblue" points="124.15,-63.97 132.61,-57.59 122.02,-57.31 124.15,-63.97"/>
</g>
<!-- Node4 -->
<g id="node4" class="node">
<title>Node4</title>
<g id="a_node4"><a xlink:href="get__next__line_8c.html#aed7a5e18848da190b01eb9e791c51824" target="_top" xlink:title=" ">
<polygon fill="none" stroke="black" points="122,-76.5 122,-95.5 205,-95.5 205,-76.5 122,-76.5"/>
<text text-anchor="middle" x="163.5" y="-83.5" font-family="Helvetica,sans-Serif" font-size="10.00">get_next_line</text>
</a>
</g>
</g>
<!-- Node1&#45;&gt;Node4 -->
<g id="edge3" class="edge">
<title>Node1&#45;&gt;Node4</title>
<path fill="none" stroke="midnightblue" d="M86.11,-86C94.34,-86 103.05,-86 111.53,-86"/>
<polygon fill="midnightblue" stroke="midnightblue" points="111.72,-89.5 121.72,-86 111.72,-82.5 111.72,-89.5"/>
</g>
<!-- Node5 -->
<g id="node5" class="node">
<title>Node5</title>
<g id="a_node5"><a xlink:href="get__next__line_8c.html#ab779f9a2944d5f2077a4afb74a927b8b" target="_top" xlink:title=" ">
<polygon fill="none" stroke="black" points="257.5,-38.5 257.5,-57.5 331.5,-57.5 331.5,-38.5 257.5,-38.5"/>
<text text-anchor="middle" x="294.5" y="-45.5" font-family="Helvetica,sans-Serif" font-size="10.00">extract_line</text>
</a>
</g>
</g>
<!-- Node4&#45;&gt;Node5 -->
<g id="edge4" class="edge">
<title>Node4&#45;&gt;Node5</title>
<path fill="none" stroke="midnightblue" d="M197.05,-76.41C213.4,-71.6 233.41,-65.7 250.96,-60.53"/>
<polygon fill="midnightblue" stroke="midnightblue" points="252.35,-63.77 260.96,-57.59 250.38,-57.05 252.35,-63.77"/>
</g>
<!-- Node6 -->
<g id="node6" class="node">
<title>Node6</title>
<g id="a_node6"><a xlink:href="get__next__line_8c.html#a55922d5102313ef291b6e4e845463b2a" target="_top" xlink:title=" ">
<polygon fill="none" stroke="black" points="241,-0.5 241,-19.5 348,-19.5 348,-0.5 241,-0.5"/>
<text text-anchor="middle" x="294.5" y="-7.5" font-family="Helvetica,sans-Serif" font-size="10.00">extract_remainder</text>
</a>
</g>
</g>
<!-- Node4&#45;&gt;Node6 -->
<g id="edge5" class="edge">
<title>Node4&#45;&gt;Node6</title>
<path fill="none" stroke="midnightblue" d="M188.89,-76.36C194.41,-73.7 200.09,-70.55 205,-67 223.86,-53.38 221.54,-41.75 241,-29 243.97,-27.06 247.16,-25.28 250.45,-23.66"/>
<polygon fill="midnightblue" stroke="midnightblue" points="252.14,-26.74 259.89,-19.52 249.33,-20.33 252.14,-26.74"/>
</g>
<!-- Node7 -->
<g id="node7" class="node">
<title>Node7</title>
<g id="a_node7"><a xlink:href="ft__is__n_8c.html#a9f740b8177921c4d42960f26397031fb" target="_top" xlink:title=" ">
<polygon fill="none" stroke="black" points="526.5,-95.5 526.5,-114.5 562.5,-114.5 562.5,-95.5 526.5,-95.5"/>
<text text-anchor="middle" x="544.5" y="-102.5" font-family="Helvetica,sans-Serif" font-size="10.00">is_n</text>
</a>
</g>
</g>
<!-- Node4&#45;&gt;Node7 -->
<g id="edge6" class="edge">
<title>Node4&#45;&gt;Node7</title>
<path fill="none" stroke="midnightblue" d="M205.06,-88.03C282.66,-91.92 450.28,-100.33 516.14,-103.63"/>
<polygon fill="midnightblue" stroke="midnightblue" points="516,-107.13 526.16,-104.13 516.35,-100.13 516,-107.13"/>
</g>
<!-- Node8 -->
<g id="node8" class="node">
<title>Node8</title>
<g id="a_node8"><a xlink:href="get__next__line_8c.html#ae6d543ff06d0f78ff197de5e94f22200" target="_top" xlink:title=" ">
<polygon fill="none" stroke="black" points="268,-133.5 268,-152.5 321,-152.5 321,-133.5 268,-133.5"/>
<text text-anchor="middle" x="294.5" y="-140.5" font-family="Helvetica,sans-Serif" font-size="10.00">reading</text>
</a>
</g>
</g>
<!-- Node4&#45;&gt;Node8 -->
<g id="edge7" class="edge">
<title>Node4&#45;&gt;Node8</title>
<path fill="none" stroke="midnightblue" d="M186.09,-95.54C207.02,-104.79 238.98,-118.91 262.6,-129.35"/>
<polygon fill="midnightblue" stroke="midnightblue" points="261.28,-132.59 271.84,-133.43 264.11,-126.19 261.28,-132.59"/>
</g>
<!-- Node9 -->
<g id="node9" class="node">
<title>Node9</title>
<g id="a_node9"><a xlink:href="ft__strdup_8c.html#aeab425f44e9a04e54160d60d3c9e870c" target="_top" xlink:title=" ">
<polygon fill="none" stroke="black" points="402,-190.5 402,-209.5 461,-209.5 461,-190.5 402,-190.5"/>
<text text-anchor="middle" x="431.5" y="-197.5" font-family="Helvetica,sans-Serif" font-size="10.00">ft_strdup</text>
</a>
</g>
</g>
<!-- Node8&#45;&gt;Node9 -->
<g id="edge8" class="edge">
<title>Node8&#45;&gt;Node9</title>
<path fill="none" stroke="midnightblue" d="M318.1,-152.54C340.1,-161.83 373.74,-176.04 398.49,-186.49"/>
<polygon fill="midnightblue" stroke="midnightblue" points="397.26,-189.76 407.83,-190.43 399.98,-183.31 397.26,-189.76"/>
</g>
<!-- Node10 -->
<g id="node10" class="node">
<title>Node10</title>
<g id="a_node10"><a xlink:href="ft__strjoin_8c.html#a5c1c26f8be9bc527cfe69a3555124795" target="_top" xlink:title=" ">
<polygon fill="none" stroke="black" points="515,-152.5 515,-171.5 574,-171.5 574,-152.5 515,-152.5"/>
<text text-anchor="middle" x="544.5" y="-159.5" font-family="Helvetica,sans-Serif" font-size="10.00">ft_strjoin</text>
</a>
</g>
</g>
<!-- Node8&#45;&gt;Node10 -->
<g id="edge10" class="edge">
<title>Node8&#45;&gt;Node10</title>
<path fill="none" stroke="midnightblue" d="M321.11,-144.96C364.64,-148.3 453.33,-155.09 504.58,-159.02"/>
<polygon fill="midnightblue" stroke="midnightblue" points="504.37,-162.51 514.61,-159.79 504.91,-155.53 504.37,-162.51"/>
</g>
<!-- Node14 -->
<g id="node14" class="node">
<title>Node14</title>
<g id="a_node14"><a xlink:href="get__next__line_8c.html#a34333af6d816f260f7680fcfbc81a2fd" target="_top" xlink:title=" ">
<polygon fill="none" stroke="black" points="384,-114.5 384,-133.5 479,-133.5 479,-114.5 384,-114.5"/>
<text text-anchor="middle" x="431.5" y="-121.5" font-family="Helvetica,sans-Serif" font-size="10.00">looping_reading</text>
</a>
</g>
</g>
<!-- Node8&#45;&gt;Node14 -->
<g id="edge15" class="edge">
<title>Node8&#45;&gt;Node14</title>
<path fill="none" stroke="midnightblue" d="M321.21,-139.38C336.12,-137.28 355.52,-134.55 373.82,-131.98"/>
<polygon fill="midnightblue" stroke="midnightblue" points="374.43,-135.43 383.84,-130.57 373.45,-128.49 374.43,-135.43"/>
</g>
<!-- Node9&#45;&gt;Node2 -->
<g id="edge9" class="edge">
<title>Node9&#45;&gt;Node2</title>
<path fill="none" stroke="midnightblue" d="M461,-200C497.26,-200 559.96,-200 600.05,-200"/>
<polygon fill="midnightblue" stroke="midnightblue" points="600.22,-203.5 610.22,-200 600.22,-196.5 600.22,-203.5"/>
</g>
<!-- Node10&#45;&gt;Node2 -->
<g id="edge14" class="edge">
<title>Node10&#45;&gt;Node2</title>
<path fill="none" stroke="midnightblue" d="M568.72,-171.59C579.72,-176.13 593.05,-181.64 605.04,-186.59"/>
<polygon fill="midnightblue" stroke="midnightblue" points="603.71,-189.83 614.29,-190.41 606.39,-183.36 603.71,-189.83"/>
</g>
<!-- Node11 -->
<g id="node11" class="node">
<title>Node11</title>
<g id="a_node11"><a xlink:href="ft__calloc_8c.html#ab927e999982a91970c6e43b403d66167" target="_top" xlink:title=" ">
<polygon fill="none" stroke="black" points="610,-152.5 610,-171.5 667,-171.5 667,-152.5 610,-152.5"/>
<text text-anchor="middle" x="638.5" y="-159.5" font-family="Helvetica,sans-Serif" font-size="10.00">ft_calloc</text>
</a>
</g>
</g>
<!-- Node10&#45;&gt;Node11 -->
<g id="edge11" class="edge">
<title>Node10&#45;&gt;Node11</title>
<path fill="none" stroke="midnightblue" d="M574.11,-162C582.21,-162 591.15,-162 599.7,-162"/>
<polygon fill="midnightblue" stroke="midnightblue" points="599.86,-165.5 609.86,-162 599.86,-158.5 599.86,-165.5"/>
</g>
<!-- Node12 -->
<g id="node12" class="node">
<title>Node12</title>
<g id="a_node12"><a xlink:href="ft__bzero_8c.html#a5937ab0d08e31d0e3e4a16ec71e293a1" target="_top" xlink:title=" ">
<polygon fill="none" stroke="black" points="703,-152.5 703,-171.5 759,-171.5 759,-152.5 703,-152.5"/>
<text text-anchor="middle" x="731" y="-159.5" font-family="Helvetica,sans-Serif" font-size="10.00">ft_bzero</text>
</a>
</g>
</g>
<!-- Node11&#45;&gt;Node12 -->
<g id="edge12" class="edge">
<title>Node11&#45;&gt;Node12</title>
<path fill="none" stroke="midnightblue" d="M667.14,-162C675.2,-162 684.14,-162 692.69,-162"/>
<polygon fill="midnightblue" stroke="midnightblue" points="692.84,-165.5 702.84,-162 692.84,-158.5 692.84,-165.5"/>
</g>
<!-- Node13 -->
<g id="node13" class="node">
<title>Node13</title>
<g id="a_node13"><a xlink:href="ft__memset_8c.html#aa32eb193f310275c04ccacf3504b95b9" target="_top" xlink:title=" ">
<polygon fill="none" stroke="black" points="795,-152.5 795,-171.5 864,-171.5 864,-152.5 795,-152.5"/>
<text text-anchor="middle" x="829.5" y="-159.5" font-family="Helvetica,sans-Serif" font-size="10.00">ft_memset</text>
</a>
</g>
</g>
<!-- Node12&#45;&gt;Node13 -->
<g id="edge13" class="edge">
<title>Node12&#45;&gt;Node13</title>
<path fill="none" stroke="midnightblue" d="M759.14,-162C767.07,-162 775.95,-162 784.64,-162"/>
<polygon fill="midnightblue" stroke="midnightblue" points="784.69,-165.5 794.69,-162 784.69,-158.5 784.69,-165.5"/>
</g>
<!-- Node14&#45;&gt;Node7 -->
<g id="edge17" class="edge">
<title>Node14&#45;&gt;Node7</title>
<path fill="none" stroke="midnightblue" d="M479.25,-116C491.91,-113.83 505.2,-111.56 516.38,-109.64"/>
<polygon fill="midnightblue" stroke="midnightblue" points="517.1,-113.07 526.37,-107.93 515.92,-106.17 517.1,-113.07"/>
</g>
<!-- Node14&#45;&gt;Node10 -->
<g id="edge16" class="edge">
<title>Node14&#45;&gt;Node10</title>
<path fill="none" stroke="midnightblue" d="M460.51,-133.59C474.18,-138.27 490.83,-143.97 505.62,-149.03"/>
<polygon fill="midnightblue" stroke="midnightblue" points="504.9,-152.49 515.5,-152.41 507.17,-145.86 504.9,-152.49"/>
</g>
</g>
</svg>
