<?xml version="1.0" encoding="UTF-8" standalone="no"?>
<!DOCTYPE svg PUBLIC "-//W3C//DTD SVG 1.1//EN"
 "http://www.w3.org/Graphics/SVG/1.1/DTD/svg11.dtd">
<!-- Generated by graphviz version 2.43.0 (0)
 -->
<!-- Title: close_fd_heredocs2 Pages: 1 -->
<svg width="995pt" height="79pt"
 viewBox="0.00 0.00 995.00 78.51" xmlns="http://www.w3.org/2000/svg" xmlns:xlink="http://www.w3.org/1999/xlink">
<g id="graph0" class="graph" transform="scale(1 1) rotate(0) translate(4 74.51)">
<title>close_fd_heredocs2</title>
<!-- Node1 -->
<g id="node1" class="node">
<title>Node1</title>
<g id="a_node1"><a xlink:title="allow us to close the file descriptors when we have fork() again the process">
<polygon fill="#bfbfbf" stroke="black" points="874,-38.5 874,-57.5 987,-57.5 987,-38.5 874,-38.5"/>
<text text-anchor="middle" x="930.5" y="-45.5" font-family="Helvetica,sans-Serif" font-size="10.00">close_fd_heredocs2</text>
</a>
</g>
</g>
<!-- Node2 -->
<g id="node2" class="node">
<title>Node2</title>
<g id="a_node2"><a xlink:href="heredoc_8c.html#a98f0cdaa70ea9d777053df568b66e32a" target="_top" xlink:title="origin of creation ; the norm what it is doing ? juste close the fd the right way if we encounter the...">
<polygon fill="none" stroke="black" points="586,-38.5 586,-57.5 699,-57.5 699,-38.5 586,-38.5"/>
<text text-anchor="middle" x="642.5" y="-45.5" font-family="Helvetica,sans-Serif" font-size="10.00">child_work_heredoc</text>
</a>
</g>
</g>
<!-- Node1&#45;&gt;Node2 -->
<g id="edge1" class="edge">
<title>Node1&#45;&gt;Node2</title>
<path fill="none" stroke="midnightblue" d="M882.36,-59.71C868.19,-62.71 852.55,-65.51 838,-67 792.46,-71.68 780.54,-71.68 735,-67 716.92,-65.14 697.15,-61.27 680.63,-57.51"/>
<polygon fill="midnightblue" stroke="midnightblue" points="883.36,-63.07 892.37,-57.51 881.86,-56.24 883.36,-63.07"/>
</g>
<!-- Node9 -->
<g id="node9" class="node">
<title>Node9</title>
<g id="a_node9"><a xlink:href="heredoc_8c.html#aa11261ffe1d93fd87488514776e2df34" target="_top" xlink:title=" ">
<polygon fill="none" stroke="black" points="735,-38.5 735,-57.5 838,-57.5 838,-38.5 735,-38.5"/>
<text text-anchor="middle" x="786.5" y="-45.5" font-family="Helvetica,sans-Serif" font-size="10.00">read_gnl_heredoc</text>
</a>
</g>
</g>
<!-- Node1&#45;&gt;Node9 -->
<g id="edge9" class="edge">
<title>Node1&#45;&gt;Node9</title>
<path fill="none" stroke="midnightblue" d="M863.57,-48C855.12,-48 846.58,-48 838.43,-48"/>
<polygon fill="midnightblue" stroke="midnightblue" points="863.79,-51.5 873.79,-48 863.79,-44.5 863.79,-51.5"/>
</g>
<!-- Node10 -->
<g id="node10" class="node">
<title>Node10</title>
<g id="a_node10"><a xlink:href="heredoc2_8c.html#ac2c940d294494f86fcc389ffeedfd752" target="_top" xlink:title="origin of creation ; the norm what it is doing ? juste close the fd the right way if we encounter the...">
<polygon fill="none" stroke="black" points="599.5,-0.5 599.5,-19.5 685.5,-19.5 685.5,-0.5 599.5,-0.5"/>
<text text-anchor="middle" x="642.5" y="-7.5" font-family="Helvetica,sans-Serif" font-size="10.00">update_status</text>
</a>
</g>
</g>
<!-- Node1&#45;&gt;Node10 -->
<g id="edge11" class="edge">
<title>Node1&#45;&gt;Node10</title>
<path fill="none" stroke="midnightblue" d="M878.42,-36.38C865.29,-33.68 851.16,-31 838,-29 785.84,-21.06 725.29,-15.76 685.78,-12.81"/>
<polygon fill="midnightblue" stroke="midnightblue" points="877.71,-39.81 888.22,-38.45 879.16,-32.96 877.71,-39.81"/>
</g>
<!-- Node3 -->
<g id="node3" class="node">
<title>Node3</title>
<g id="a_node3"><a xlink:href="heredoc_8c.html#a0b4a5d07e8877b06b8977b47a6d51930" target="_top" xlink:title="it&#39;s where we open the heredoc and start writing inside our pipe each time we check if it&#39;s the word ...">
<polygon fill="none" stroke="black" points="464,-19.5 464,-38.5 550,-38.5 550,-19.5 464,-19.5"/>
<text text-anchor="middle" x="507" y="-26.5" font-family="Helvetica,sans-Serif" font-size="10.00">heredoc_input</text>
</a>
</g>
</g>
<!-- Node2&#45;&gt;Node3 -->
<g id="edge2" class="edge">
<title>Node2&#45;&gt;Node3</title>
<path fill="none" stroke="midnightblue" d="M575.57,-38.62C566.94,-37.39 558.3,-36.16 550.21,-35.01"/>
<polygon fill="midnightblue" stroke="midnightblue" points="575.26,-42.11 585.66,-40.05 576.25,-35.18 575.26,-42.11"/>
</g>
<!-- Node4 -->
<g id="node4" class="node">
<title>Node4</title>
<g id="a_node4"><a xlink:href="heredoc_8c.html#a17337782f10170a6f2f9188bf557de0f" target="_top" xlink:title="the function will go through all the commands and check the redirection if we encounter a heredoc we ...">
<polygon fill="none" stroke="black" points="297,-19.5 297,-38.5 428,-38.5 428,-19.5 297,-19.5"/>
<text text-anchor="middle" x="362.5" y="-26.5" font-family="Helvetica,sans-Serif" font-size="10.00">here_doc_management</text>
</a>
</g>
</g>
<!-- Node3&#45;&gt;Node4 -->
<g id="edge3" class="edge">
<title>Node3&#45;&gt;Node4</title>
<path fill="none" stroke="midnightblue" d="M453.43,-29C445.2,-29 436.6,-29 428.14,-29"/>
<polygon fill="midnightblue" stroke="midnightblue" points="453.63,-32.5 463.63,-29 453.63,-25.5 453.63,-32.5"/>
</g>
<!-- Node5 -->
<g id="node5" class="node">
<title>Node5</title>
<g id="a_node5"><a xlink:href="multipipe_8c.html#aa4f1c217eeb689ecbc622baecd2c5dec" target="_top" xlink:title="management of the multipipe (= name when we have at least one pipe) First step is to manage the hered...">
<polygon fill="none" stroke="black" points="172,-38.5 172,-57.5 261,-57.5 261,-38.5 172,-38.5"/>
<text text-anchor="middle" x="216.5" y="-45.5" font-family="Helvetica,sans-Serif" font-size="10.00">multipipe_cmd</text>
</a>
</g>
</g>
<!-- Node4&#45;&gt;Node5 -->
<g id="edge4" class="edge">
<title>Node4&#45;&gt;Node5</title>
<path fill="none" stroke="midnightblue" d="M286.55,-38.89C277.93,-40.03 269.37,-41.16 261.36,-42.21"/>
<polygon fill="midnightblue" stroke="midnightblue" points="287.21,-42.33 296.66,-37.56 286.29,-35.39 287.21,-42.33"/>
</g>
<!-- Node8 -->
<g id="node8" class="node">
<title>Node8</title>
<g id="a_node8"><a xlink:href="execution_8c.html#a38335028b2bc7aa436f8f79a3753ce5e" target="_top" xlink:title="here we check if it&#39;s a builtin where we have to fork or not we still need to do the redirection veri...">
<polygon fill="none" stroke="black" points="172,-0.5 172,-19.5 261,-19.5 261,-0.5 172,-0.5"/>
<text text-anchor="middle" x="216.5" y="-7.5" font-family="Helvetica,sans-Serif" font-size="10.00">one_command</text>
</a>
</g>
</g>
<!-- Node4&#45;&gt;Node8 -->
<g id="edge7" class="edge">
<title>Node4&#45;&gt;Node8</title>
<path fill="none" stroke="midnightblue" d="M286.55,-19.11C277.93,-17.97 269.37,-16.84 261.36,-15.79"/>
<polygon fill="midnightblue" stroke="midnightblue" points="286.29,-22.61 296.66,-20.44 287.21,-15.67 286.29,-22.61"/>
</g>
<!-- Node6 -->
<g id="node6" class="node">
<title>Node6</title>
<g id="a_node6"><a xlink:href="execution_8c.html#a9542b61daba3eb4d45c8887c5648b2f6" target="_top" xlink:title="first function of the execution part when we have something to do we have to deal with two cases ; if...">
<polygon fill="none" stroke="black" points="77,-19.5 77,-38.5 136,-38.5 136,-19.5 77,-19.5"/>
<text text-anchor="middle" x="106.5" y="-26.5" font-family="Helvetica,sans-Serif" font-size="10.00">executor</text>
</a>
</g>
</g>
<!-- Node5&#45;&gt;Node6 -->
<g id="edge5" class="edge">
<title>Node5&#45;&gt;Node6</title>
<path fill="none" stroke="midnightblue" d="M161.88,-38.57C152.97,-37 144.05,-35.43 136.08,-34.03"/>
<polygon fill="midnightblue" stroke="midnightblue" points="161.43,-42.04 171.88,-40.33 162.64,-35.15 161.43,-42.04"/>
</g>
<!-- Node7 -->
<g id="node7" class="node">
<title>Node7</title>
<g id="a_node7"><a xlink:href="main_8c.html#a647f21a28344e1d9c643f4115516d7c9" target="_top" xlink:title=" ">
<polygon fill="none" stroke="black" points="0,-19.5 0,-38.5 41,-38.5 41,-19.5 0,-19.5"/>
<text text-anchor="middle" x="20.5" y="-26.5" font-family="Helvetica,sans-Serif" font-size="10.00">main</text>
</a>
</g>
</g>
<!-- Node6&#45;&gt;Node7 -->
<g id="edge6" class="edge">
<title>Node6&#45;&gt;Node7</title>
<path fill="none" stroke="midnightblue" d="M66.48,-29C57.72,-29 48.78,-29 41.21,-29"/>
<polygon fill="midnightblue" stroke="midnightblue" points="66.59,-32.5 76.59,-29 66.59,-25.5 66.59,-32.5"/>
</g>
<!-- Node8&#45;&gt;Node6 -->
<g id="edge8" class="edge">
<title>Node8&#45;&gt;Node6</title>
<path fill="none" stroke="midnightblue" d="M161.88,-19.43C152.97,-21 144.05,-22.57 136.08,-23.97"/>
<polygon fill="midnightblue" stroke="midnightblue" points="162.64,-22.85 171.88,-17.67 161.43,-15.96 162.64,-22.85"/>
</g>
<!-- Node9&#45;&gt;Node2 -->
<g id="edge10" class="edge">
<title>Node9&#45;&gt;Node2</title>
<path fill="none" stroke="midnightblue" d="M724.54,-48C716.16,-48 707.59,-48 699.3,-48"/>
<polygon fill="midnightblue" stroke="midnightblue" points="724.64,-51.5 734.64,-48 724.64,-44.5 724.64,-51.5"/>
</g>
<!-- Node10&#45;&gt;Node3 -->
<g id="edge12" class="edge">
<title>Node10&#45;&gt;Node3</title>
<path fill="none" stroke="midnightblue" d="M589.16,-17.45C576.32,-19.28 562.73,-21.21 550.42,-22.96"/>
<polygon fill="midnightblue" stroke="midnightblue" points="589.85,-20.89 599.26,-16.01 588.87,-13.96 589.85,-20.89"/>
</g>
</g>
</svg>
