<?xml version="1.0" encoding="UTF-8" standalone="no"?>
<!DOCTYPE svg PUBLIC "-//W3C//DTD SVG 1.1//EN"
 "http://www.w3.org/Graphics/SVG/1.1/DTD/svg11.dtd">
<!-- Generated by graphviz version 2.43.0 (0)
 -->
<!-- Title: one_command Pages: 1 -->
<svg width="833pt" height="894pt"
 viewBox="0.00 0.00 833.00 893.74" xmlns="http://www.w3.org/2000/svg" xmlns:xlink="http://www.w3.org/1999/xlink">
<g id="graph0" class="graph" transform="scale(1 1) rotate(0) translate(4 889.74)">
<title>one_command</title>
<!-- Node1 -->
<g id="node1" class="node">
<title>Node1</title>
<g id="a_node1"><a xlink:title="here we check if it&#39;s a builtin where we have to fork or not we still need to do the redirection veri...">
<polygon fill="#bfbfbf" stroke="black" points="0,-304.5 0,-323.5 89,-323.5 89,-304.5 0,-304.5"/>
<text text-anchor="middle" x="44.5" y="-311.5" font-family="Helvetica,sans-Serif" font-size="10.00">one_command</text>
</a>
</g>
</g>
<!-- Node2 -->
<g id="node2" class="node">
<title>Node2</title>
<g id="a_node2"><a xlink:href="multipipe_8c.html#a9b21b82386f20636501d279a66b7260d" target="_top" xlink:title="in the case of an error in the redirection, we have a case where the here_doc opened in a previous si...">
<polygon fill="none" stroke="black" points="140,-774.5 140,-793.5 241,-793.5 241,-774.5 140,-774.5"/>
<text text-anchor="middle" x="190.5" y="-781.5" font-family="Helvetica,sans-Serif" font-size="10.00">close_redir_temp</text>
</a>
</g>
</g>
<!-- Node1&#45;&gt;Node2 -->
<g id="edge1" class="edge">
<title>Node1&#45;&gt;Node2</title>
<path fill="none" stroke="midnightblue" d="M46.71,-323.77C52.14,-365.8 76.06,-534.88 125,-665 139.11,-702.53 163.07,-742.89 177.47,-765.64"/>
<polygon fill="midnightblue" stroke="midnightblue" points="174.66,-767.73 183.01,-774.26 180.55,-763.95 174.66,-767.73"/>
</g>
<!-- Node4 -->
<g id="node4" class="node">
<title>Node4</title>
<g id="a_node4"><a xlink:href="lst__cmd2_8c.html#a132395876bb5a7cfe926b9e37571a1e3" target="_top" xlink:title=" ">
<polygon fill="none" stroke="black" points="319,-171.5 319,-190.5 411,-190.5 411,-171.5 319,-171.5"/>
<text text-anchor="middle" x="365" y="-178.5" font-family="Helvetica,sans-Serif" font-size="10.00">destructor_cmd</text>
</a>
</g>
</g>
<!-- Node1&#45;&gt;Node4 -->
<g id="edge3" class="edge">
<title>Node1&#45;&gt;Node4</title>
<path fill="none" stroke="midnightblue" d="M49.28,-304.31C58.44,-282.25 84.15,-228.41 125,-205 181.36,-172.7 257.62,-170.82 308.7,-174.3"/>
<polygon fill="midnightblue" stroke="midnightblue" points="308.64,-177.81 318.88,-175.09 309.18,-170.83 308.64,-177.81"/>
</g>
<!-- Node8 -->
<g id="node8" class="node">
<title>Node8</title>
<g id="a_node8"><a xlink:href="heredoc_8c.html#aa5260679719a4e1f862a6efd1f12cf85" target="_top" xlink:title="the function will go through all the commands and check the redirection if we encounter a heredoc we ...">
<polygon fill="none" stroke="black" points="125,-636.5 125,-655.5 256,-655.5 256,-636.5 125,-636.5"/>
<text text-anchor="middle" x="190.5" y="-643.5" font-family="Helvetica,sans-Serif" font-size="10.00">here_doc_management</text>
</a>
</g>
</g>
<!-- Node1&#45;&gt;Node8 -->
<g id="edge7" class="edge">
<title>Node1&#45;&gt;Node8</title>
<path fill="none" stroke="midnightblue" d="M48.1,-323.86C56.77,-356.11 86.36,-461.04 125,-542 140.16,-573.76 162.7,-607.96 176.73,-628.14"/>
<polygon fill="midnightblue" stroke="midnightblue" points="173.9,-630.21 182.52,-636.37 179.63,-626.18 173.9,-630.21"/>
</g>
<!-- Node15 -->
<g id="node15" class="node">
<title>Node15</title>
<g id="a_node15"><a xlink:href="execution_8c.html#a30cac5c7712d6462192a55849ea237f2" target="_top" xlink:title="ici ce sont les builtin qu&#39;on doit pas fork dans le cas d&#39;un one_command">
<polygon fill="none" stroke="black" points="132.5,-133.5 132.5,-152.5 248.5,-152.5 248.5,-133.5 132.5,-133.5"/>
<text text-anchor="middle" x="190.5" y="-140.5" font-family="Helvetica,sans-Serif" font-size="10.00">is_it_builtin_nonfork</text>
</a>
</g>
</g>
<!-- Node1&#45;&gt;Node15 -->
<g id="edge16" class="edge">
<title>Node1&#45;&gt;Node15</title>
<path fill="none" stroke="midnightblue" d="M48.14,-304.24C55.67,-278.2 79.67,-206.4 125,-167 129.73,-162.88 135.24,-159.45 141,-156.58"/>
<polygon fill="midnightblue" stroke="midnightblue" points="142.44,-159.77 150.19,-152.54 139.63,-153.36 142.44,-159.77"/>
</g>
<!-- Node16 -->
<g id="node16" class="node">
<title>Node16</title>
<g id="a_node16"><a xlink:href="execution_8c.html#a8b2bd9dba90bfc9b2ead44af5e630315" target="_top" xlink:title="launch the builtin &#160;&#160;some of them are not present because we have to fork() them why ?...">
<polygon fill="none" stroke="black" points="488,-114.5 488,-133.5 573,-133.5 573,-114.5 488,-114.5"/>
<text text-anchor="middle" x="530.5" y="-121.5" font-family="Helvetica,sans-Serif" font-size="10.00">launch_builtin</text>
</a>
</g>
</g>
<!-- Node1&#45;&gt;Node16 -->
<g id="edge17" class="edge">
<title>Node1&#45;&gt;Node16</title>
<path fill="none" stroke="midnightblue" d="M74.97,-304.45C121.08,-289.61 213.17,-260.4 292,-238 356.5,-219.67 383.86,-239.56 438,-200 462.19,-182.32 450.49,-161.58 474,-143 476.28,-141.19 478.75,-139.56 481.33,-138.07"/>
<polygon fill="midnightblue" stroke="midnightblue" points="483.02,-141.14 490.44,-133.57 479.92,-134.86 483.02,-141.14"/>
</g>
<!-- Node20 -->
<g id="node20" class="node">
<title>Node20</title>
<g id="a_node20"><a xlink:href="execution_8c.html#ac70faaedddc427b5051b808a8de40da4" target="_top" xlink:title="in this function we do the fork to create a child process we do the redirection if we need to">
<polygon fill="none" stroke="black" points="126.5,-304.5 126.5,-323.5 254.5,-323.5 254.5,-304.5 126.5,-304.5"/>
<text text-anchor="middle" x="190.5" y="-311.5" font-family="Helvetica,sans-Serif" font-size="10.00">one_command_execve</text>
</a>
</g>
</g>
<!-- Node1&#45;&gt;Node20 -->
<g id="edge21" class="edge">
<title>Node1&#45;&gt;Node20</title>
<path fill="none" stroke="midnightblue" d="M89.1,-314C97.73,-314 107.01,-314 116.32,-314"/>
<polygon fill="midnightblue" stroke="midnightblue" points="116.4,-317.5 126.4,-314 116.4,-310.5 116.4,-317.5"/>
</g>
<!-- Node34 -->
<g id="node34" class="node">
<title>Node34</title>
<g id="a_node34"><a xlink:href="redirection__verification_8c.html#af9b05287627b76434ceb0070c5cb2c8a" target="_top" xlink:title="we go through each node of the redirection and we have special treatment depending of the following c...">
<polygon fill="none" stroke="black" points="126,-513.5 126,-532.5 255,-532.5 255,-513.5 126,-513.5"/>
<text text-anchor="middle" x="190.5" y="-520.5" font-family="Helvetica,sans-Serif" font-size="10.00">redirection_verification</text>
</a>
</g>
</g>
<!-- Node1&#45;&gt;Node34 -->
<g id="edge42" class="edge">
<title>Node1&#45;&gt;Node34</title>
<path fill="none" stroke="midnightblue" d="M52.06,-323.52C74.41,-355.96 147.8,-462.48 177.18,-505.12"/>
<polygon fill="midnightblue" stroke="midnightblue" points="174.34,-507.17 182.9,-513.42 180.11,-503.2 174.34,-507.17"/>
</g>
<!-- Node3 -->
<g id="node3" class="node">
<title>Node3</title>
<g id="a_node3"><a xlink:href="redirection__multipipe_8c.html#a1bca6910c90a19d96b36506a2e2cebf6" target="_top" xlink:title="as fd are all setup to &#45;1 at the beginning we check if they are open before trying to close we avoid ...">
<polygon fill="none" stroke="black" points="640.5,-532.5 640.5,-551.5 709.5,-551.5 709.5,-532.5 640.5,-532.5"/>
<text text-anchor="middle" x="675" y="-539.5" font-family="Helvetica,sans-Serif" font-size="10.00">ft_close_fd</text>
</a>
</g>
</g>
<!-- Node2&#45;&gt;Node3 -->
<g id="edge2" class="edge">
<title>Node2&#45;&gt;Node3</title>
<path fill="none" stroke="midnightblue" d="M206.28,-793.5C262.42,-828.29 465.43,-941.99 587,-850 634.24,-814.26 663.14,-624.38 671.48,-561.93"/>
<polygon fill="midnightblue" stroke="midnightblue" points="674.98,-562.18 672.8,-551.81 668.04,-561.28 674.98,-562.18"/>
</g>
<!-- Node5 -->
<g id="node5" class="node">
<title>Node5</title>
<g id="a_node5"><a xlink:href="lst__cmd2_8c.html#a8e2b63759f149b547e0d07f210ede9b3" target="_top" xlink:title=" ">
<polygon fill="none" stroke="black" points="500,-38.5 500,-57.5 561,-57.5 561,-38.5 500,-38.5"/>
<text text-anchor="middle" x="530.5" y="-45.5" font-family="Helvetica,sans-Serif" font-size="10.00">pop_cmd</text>
</a>
</g>
</g>
<!-- Node4&#45;&gt;Node5 -->
<g id="edge4" class="edge">
<title>Node4&#45;&gt;Node5</title>
<path fill="none" stroke="midnightblue" d="M377.76,-171.43C405.43,-148.92 474.94,-92.38 509.44,-64.32"/>
<polygon fill="midnightblue" stroke="midnightblue" points="511.86,-66.86 517.41,-57.84 507.44,-61.43 511.86,-66.86"/>
</g>
<!-- Node6 -->
<g id="node6" class="node">
<title>Node6</title>
<g id="a_node6"><a xlink:href="lst__redir2_8c.html#a30ccaf401a4f897e48ead5fe54f4b307" target="_top" xlink:title=" ">
<polygon fill="none" stroke="black" points="628,-0.5 628,-19.5 722,-19.5 722,-0.5 628,-0.5"/>
<text text-anchor="middle" x="675" y="-7.5" font-family="Helvetica,sans-Serif" font-size="10.00">destructor_redir</text>
</a>
</g>
</g>
<!-- Node5&#45;&gt;Node6 -->
<g id="edge5" class="edge">
<title>Node5&#45;&gt;Node6</title>
<path fill="none" stroke="midnightblue" d="M561.03,-40.13C580.47,-34.94 606.31,-28.05 628.37,-22.17"/>
<polygon fill="midnightblue" stroke="midnightblue" points="629.44,-25.5 638.2,-19.55 627.64,-18.74 629.44,-25.5"/>
</g>
<!-- Node7 -->
<g id="node7" class="node">
<title>Node7</title>
<g id="a_node7"><a xlink:href="lst__redir2_8c.html#ade8f0bdda51d9bf348ebeb38fefba881" target="_top" xlink:title=" ">
<polygon fill="none" stroke="black" points="763,-0.5 763,-19.5 825,-19.5 825,-0.5 763,-0.5"/>
<text text-anchor="middle" x="794" y="-7.5" font-family="Helvetica,sans-Serif" font-size="10.00">pop_redir</text>
</a>
</g>
</g>
<!-- Node6&#45;&gt;Node7 -->
<g id="edge6" class="edge">
<title>Node6&#45;&gt;Node7</title>
<path fill="none" stroke="midnightblue" d="M722.24,-10C732.28,-10 742.82,-10 752.61,-10"/>
<polygon fill="midnightblue" stroke="midnightblue" points="752.88,-13.5 762.88,-10 752.88,-6.5 752.88,-13.5"/>
</g>
<!-- Node9 -->
<g id="node9" class="node">
<title>Node9</title>
<g id="a_node9"><a xlink:href="heredoc_8c.html#ab68377acf2c8adf39f991dc425297c09" target="_top" xlink:title="it&#39;s where we open the heredoc and start writing inside our pipe each time we check if it&#39;s the word ...">
<polygon fill="none" stroke="black" points="322,-722.5 322,-741.5 408,-741.5 408,-722.5 322,-722.5"/>
<text text-anchor="middle" x="365" y="-729.5" font-family="Helvetica,sans-Serif" font-size="10.00">heredoc_input</text>
</a>
</g>
</g>
<!-- Node8&#45;&gt;Node9 -->
<g id="edge8" class="edge">
<title>Node8&#45;&gt;Node9</title>
<path fill="none" stroke="midnightblue" d="M210.62,-655.53C240.93,-670.64 300.18,-700.18 335.51,-717.8"/>
<polygon fill="midnightblue" stroke="midnightblue" points="334.28,-721.1 344.79,-722.43 337.41,-714.83 334.28,-721.1"/>
</g>
<!-- Node9&#45;&gt;Node3 -->
<g id="edge12" class="edge">
<title>Node9&#45;&gt;Node3</title>
<path fill="none" stroke="midnightblue" d="M373,-741.73C388.43,-762.26 427.74,-809.55 474,-827 520.99,-844.73 546.63,-856.88 587,-827 631.04,-794.4 661.77,-620.59 671.06,-561.6"/>
<polygon fill="midnightblue" stroke="midnightblue" points="674.52,-562.11 672.59,-551.69 667.6,-561.04 674.52,-562.11"/>
</g>
<!-- Node10 -->
<g id="node10" class="node">
<title>Node10</title>
<g id="a_node10"><a xlink:href="heredoc_8c.html#ab64ee253d325f2d25cf6d2e51bd00396" target="_top" xlink:title="we have to activate back the echoctl to appear again when we are not inside an heredoc">
<polygon fill="none" stroke="black" points="487,-760.5 487,-779.5 574,-779.5 574,-760.5 487,-760.5"/>
<text text-anchor="middle" x="530.5" y="-767.5" font-family="Helvetica,sans-Serif" font-size="10.00">active_echoctl</text>
</a>
</g>
</g>
<!-- Node9&#45;&gt;Node10 -->
<g id="edge9" class="edge">
<title>Node9&#45;&gt;Node10</title>
<path fill="none" stroke="midnightblue" d="M407.26,-741.59C428.93,-746.63 455.68,-752.84 478.63,-758.18"/>
<polygon fill="midnightblue" stroke="midnightblue" points="478.01,-761.63 488.54,-760.48 479.59,-754.81 478.01,-761.63"/>
</g>
<!-- Node11 -->
<g id="node11" class="node">
<title>Node11</title>
<g id="a_node11"><a xlink:href="heredoc_8c.html#a3e1410633d8c1ad5b1441509a020b0d4" target="_top" xlink:title="allow us to close the file descriptors when we have fork() again the process">
<polygon fill="none" stroke="black" points="474,-798.5 474,-817.5 587,-817.5 587,-798.5 474,-798.5"/>
<text text-anchor="middle" x="530.5" y="-805.5" font-family="Helvetica,sans-Serif" font-size="10.00">close_fd_heredocs2</text>
</a>
</g>
</g>
<!-- Node9&#45;&gt;Node11 -->
<g id="edge10" class="edge">
<title>Node9&#45;&gt;Node11</title>
<path fill="none" stroke="midnightblue" d="M382.08,-741.5C402.84,-753.54 440.33,-774.46 474,-789 478.84,-791.09 484,-793.11 489.14,-795.01"/>
<polygon fill="midnightblue" stroke="midnightblue" points="488.34,-798.44 498.93,-798.49 490.68,-791.84 488.34,-798.44"/>
</g>
<!-- Node12 -->
<g id="node12" class="node">
<title>Node12</title>
<g id="a_node12"><a xlink:href="heredoc_8c.html#a4fd8e3642e456e9a2f7fe4dc8f44ad43" target="_top" xlink:title="remove the echoctl which are the symbol which appears when you press CTRL+C or CTRL+\ it&#39;s different ...">
<polygon fill="none" stroke="black" points="483,-722.5 483,-741.5 578,-741.5 578,-722.5 483,-722.5"/>
<text text-anchor="middle" x="530.5" y="-729.5" font-family="Helvetica,sans-Serif" font-size="10.00">remove_echoctl</text>
</a>
</g>
</g>
<!-- Node9&#45;&gt;Node12 -->
<g id="edge13" class="edge">
<title>Node9&#45;&gt;Node12</title>
<path fill="none" stroke="midnightblue" d="M408.11,-732C427.78,-732 451.5,-732 472.74,-732"/>
<polygon fill="midnightblue" stroke="midnightblue" points="472.93,-735.5 482.93,-732 472.93,-728.5 472.93,-735.5"/>
</g>
<!-- Node13 -->
<g id="node13" class="node">
<title>Node13</title>
<g id="a_node13"><a xlink:href="minishell_8h.html#a258e3b580e688a0cf46e4258525aeaf1" target="_top" xlink:title=" ">
<polygon fill="none" stroke="black" points="487.5,-684.5 487.5,-703.5 573.5,-703.5 573.5,-684.5 487.5,-684.5"/>
<text text-anchor="middle" x="530.5" y="-691.5" font-family="Helvetica,sans-Serif" font-size="10.00">sigint_handler</text>
</a>
</g>
</g>
<!-- Node9&#45;&gt;Node13 -->
<g id="edge14" class="edge">
<title>Node9&#45;&gt;Node13</title>
<path fill="none" stroke="midnightblue" d="M407.26,-722.41C428.93,-717.37 455.68,-711.16 478.63,-705.82"/>
<polygon fill="midnightblue" stroke="midnightblue" points="479.59,-709.19 488.54,-703.52 478.01,-702.37 479.59,-709.19"/>
</g>
<!-- Node14 -->
<g id="node14" class="node">
<title>Node14</title>
<g id="a_node14"><a xlink:href="heredoc_8c.html#a7ea78f2f2215fe1ed765af80a1b2893d" target="_top" xlink:title="allow us to warn the process child heredoc it&#39;s time to stop and close the file descriptor">
<polygon fill="none" stroke="black" points="486.5,-646.5 486.5,-665.5 574.5,-665.5 574.5,-646.5 486.5,-646.5"/>
<text text-anchor="middle" x="530.5" y="-653.5" font-family="Helvetica,sans-Serif" font-size="10.00">sigint_heredoc</text>
</a>
</g>
</g>
<!-- Node9&#45;&gt;Node14 -->
<g id="edge15" class="edge">
<title>Node9&#45;&gt;Node14</title>
<path fill="none" stroke="midnightblue" d="M382.08,-722.5C402.84,-710.46 440.33,-689.54 474,-675 478.84,-672.91 484,-670.89 489.14,-668.99"/>
<polygon fill="midnightblue" stroke="midnightblue" points="490.68,-672.16 498.93,-665.51 488.34,-665.56 490.68,-672.16"/>
</g>
<!-- Node11&#45;&gt;Node3 -->
<g id="edge11" class="edge">
<title>Node11&#45;&gt;Node3</title>
<path fill="none" stroke="midnightblue" d="M573.34,-798.41C578.37,-795.96 583.09,-792.87 587,-789 652.19,-724.38 668.67,-608.06 672.72,-561.78"/>
<polygon fill="midnightblue" stroke="midnightblue" points="676.23,-561.83 673.5,-551.59 669.25,-561.3 676.23,-561.83"/>
</g>
<!-- Node17 -->
<g id="node17" class="node">
<title>Node17</title>
<g id="a_node17"><a xlink:href="env_8c.html#ad7678c59b5365c776294bdeefd3d7583" target="_top" xlink:title=" ">
<polygon fill="none" stroke="black" points="657.5,-114.5 657.5,-133.5 692.5,-133.5 692.5,-114.5 657.5,-114.5"/>
<text text-anchor="middle" x="675" y="-121.5" font-family="Helvetica,sans-Serif" font-size="10.00">env</text>
</a>
</g>
</g>
<!-- Node16&#45;&gt;Node17 -->
<g id="edge18" class="edge">
<title>Node16&#45;&gt;Node17</title>
<path fill="none" stroke="midnightblue" d="M573.1,-124C597.02,-124 626.38,-124 647.24,-124"/>
<polygon fill="midnightblue" stroke="midnightblue" points="647.31,-127.5 657.31,-124 647.31,-120.5 647.31,-127.5"/>
</g>
<!-- Node18 -->
<g id="node18" class="node">
<title>Node18</title>
<g id="a_node18"><a xlink:href="my__echo_8c.html#a5522916069f77552d810e207670e3170" target="_top" xlink:title=" ">
<polygon fill="none" stroke="black" points="644.5,-76.5 644.5,-95.5 705.5,-95.5 705.5,-76.5 644.5,-76.5"/>
<text text-anchor="middle" x="675" y="-83.5" font-family="Helvetica,sans-Serif" font-size="10.00">my_echo</text>
</a>
</g>
</g>
<!-- Node16&#45;&gt;Node18 -->
<g id="edge19" class="edge">
<title>Node16&#45;&gt;Node18</title>
<path fill="none" stroke="midnightblue" d="M567.46,-114.41C587.87,-108.97 613.44,-102.15 634.42,-96.56"/>
<polygon fill="midnightblue" stroke="midnightblue" points="635.54,-99.88 644.3,-93.92 633.74,-93.11 635.54,-99.88"/>
</g>
<!-- Node19 -->
<g id="node19" class="node">
<title>Node19</title>
<g id="a_node19"><a xlink:href="pwd_8c.html#ab62618359287b6604bd60852145b9726" target="_top" xlink:title=" ">
<polygon fill="none" stroke="black" points="656.5,-38.5 656.5,-57.5 693.5,-57.5 693.5,-38.5 656.5,-38.5"/>
<text text-anchor="middle" x="675" y="-45.5" font-family="Helvetica,sans-Serif" font-size="10.00">pwd</text>
</a>
</g>
</g>
<!-- Node16&#45;&gt;Node19 -->
<g id="edge20" class="edge">
<title>Node16&#45;&gt;Node19</title>
<path fill="none" stroke="midnightblue" d="M544.95,-114.41C562.37,-102.29 593.94,-81.28 623,-67 630.51,-63.31 638.93,-59.89 646.73,-57.01"/>
<polygon fill="midnightblue" stroke="midnightblue" points="647.92,-60.31 656.17,-53.66 645.57,-53.71 647.92,-60.31"/>
</g>
<!-- Node20&#45;&gt;Node3 -->
<g id="edge41" class="edge">
<title>Node20&#45;&gt;Node3</title>
<path fill="none" stroke="midnightblue" d="M202.27,-323.71C219.96,-339.29 256.74,-370.14 292,-390 409,-455.92 560.37,-507.05 632.38,-529.52"/>
<polygon fill="midnightblue" stroke="midnightblue" points="631.42,-532.89 642,-532.5 633.49,-526.2 631.42,-532.89"/>
</g>
<!-- Node20&#45;&gt;Node4 -->
<g id="edge28" class="edge">
<title>Node20&#45;&gt;Node4</title>
<path fill="none" stroke="midnightblue" d="M203.91,-304.43C233.23,-281.83 307.06,-224.9 343.29,-196.96"/>
<polygon fill="midnightblue" stroke="midnightblue" points="345.46,-199.72 351.24,-190.84 341.18,-194.17 345.46,-199.72"/>
</g>
<!-- Node21 -->
<g id="node21" class="node">
<title>Node21</title>
<g id="a_node21"><a xlink:href="redirection__multipipe_8c.html#a19e2c31eeb0eb25575df2277cbd7774e" target="_top" xlink:title=" ">
<polygon fill="none" stroke="black" points="311,-361.5 311,-380.5 419,-380.5 419,-361.5 311,-361.5"/>
<text text-anchor="middle" x="365" y="-368.5" font-family="Helvetica,sans-Serif" font-size="10.00">command_redirect</text>
</a>
</g>
</g>
<!-- Node20&#45;&gt;Node21 -->
<g id="edge22" class="edge">
<title>Node20&#45;&gt;Node21</title>
<path fill="none" stroke="midnightblue" d="M220.37,-323.54C249.11,-333.03 293.39,-347.67 325.18,-358.17"/>
<polygon fill="midnightblue" stroke="midnightblue" points="324.44,-361.61 335.03,-361.43 326.64,-354.97 324.44,-361.61"/>
</g>
<!-- Node24 -->
<g id="node24" class="node">
<title>Node24</title>
<g id="a_node24"><a xlink:href="lst__env_8c.html#a226ae0aa054e697998b2ecbc5d61d592" target="_top" xlink:title=" ">
<polygon fill="none" stroke="black" points="320.5,-304.5 320.5,-323.5 409.5,-323.5 409.5,-304.5 320.5,-304.5"/>
<text text-anchor="middle" x="365" y="-311.5" font-family="Helvetica,sans-Serif" font-size="10.00">destructor_env</text>
</a>
</g>
</g>
<!-- Node20&#45;&gt;Node24 -->
<g id="edge29" class="edge">
<title>Node20&#45;&gt;Node24</title>
<path fill="none" stroke="midnightblue" d="M254.75,-314C273,-314 292.73,-314 310.33,-314"/>
<polygon fill="midnightblue" stroke="midnightblue" points="310.42,-317.5 320.42,-314 310.42,-310.5 310.42,-317.5"/>
</g>
<!-- Node26 -->
<g id="node26" class="node">
<title>Node26</title>
<g id="a_node26"><a xlink:href="execution__node_8c.html#a6cfdc545c2222bbb0ca1dfc8431f72a3" target="_top" xlink:title="we are going to execute the command here we have a security about absolute path given =&gt; because it&#39;s...">
<polygon fill="none" stroke="black" points="318.5,-247.5 318.5,-266.5 411.5,-266.5 411.5,-247.5 318.5,-247.5"/>
<text text-anchor="middle" x="365" y="-254.5" font-family="Helvetica,sans-Serif" font-size="10.00">execution_node</text>
</a>
</g>
</g>
<!-- Node20&#45;&gt;Node26 -->
<g id="edge31" class="edge">
<title>Node20&#45;&gt;Node26</title>
<path fill="none" stroke="midnightblue" d="M220.37,-304.46C249.11,-294.97 293.39,-280.33 325.18,-269.83"/>
<polygon fill="midnightblue" stroke="midnightblue" points="326.64,-273.03 335.03,-266.57 324.44,-266.39 326.64,-273.03"/>
</g>
<!-- Node21&#45;&gt;Node3 -->
<g id="edge27" class="edge">
<title>Node21&#45;&gt;Node3</title>
<path fill="none" stroke="midnightblue" d="M393.15,-380.59C450.31,-400.82 578.5,-446.47 587,-452 617.62,-471.93 645.55,-504.5 661.11,-524.51"/>
<polygon fill="midnightblue" stroke="midnightblue" points="658.34,-526.64 667.17,-532.49 663.91,-522.41 658.34,-526.64"/>
</g>
<!-- Node22 -->
<g id="node22" class="node">
<title>Node22</title>
<g id="a_node22"><a xlink:href="redirection__multipipe_8c.html#a3a0d7f695cf53df46301e14ffab77638" target="_top" xlink:title=" ">
<polygon fill="none" stroke="black" points="486,-380.5 486,-399.5 575,-399.5 575,-380.5 486,-380.5"/>
<text text-anchor="middle" x="530.5" y="-387.5" font-family="Helvetica,sans-Serif" font-size="10.00">close_previous</text>
</a>
</g>
</g>
<!-- Node21&#45;&gt;Node22 -->
<g id="edge23" class="edge">
<title>Node21&#45;&gt;Node22</title>
<path fill="none" stroke="midnightblue" d="M419.08,-377.17C437.25,-379.28 457.58,-381.64 475.8,-383.76"/>
<polygon fill="midnightblue" stroke="midnightblue" points="475.62,-387.26 485.96,-384.94 476.43,-380.31 475.62,-387.26"/>
</g>
<!-- Node23 -->
<g id="node23" class="node">
<title>Node23</title>
<g id="a_node23"><a xlink:href="redirection__multipipe_8c.html#a5b749bc2b4088984c0efe1c479ae6ec8" target="_top" xlink:title=" ">
<polygon fill="none" stroke="black" points="490.5,-342.5 490.5,-361.5 570.5,-361.5 570.5,-342.5 490.5,-342.5"/>
<text text-anchor="middle" x="530.5" y="-349.5" font-family="Helvetica,sans-Serif" font-size="10.00">fail_previous</text>
</a>
</g>
</g>
<!-- Node21&#45;&gt;Node23 -->
<g id="edge25" class="edge">
<title>Node21&#45;&gt;Node23</title>
<path fill="none" stroke="midnightblue" d="M419.08,-364.83C438.76,-362.54 460.98,-359.96 480.3,-357.72"/>
<polygon fill="midnightblue" stroke="midnightblue" points="480.88,-361.17 490.41,-356.54 480.07,-354.22 480.88,-361.17"/>
</g>
<!-- Node22&#45;&gt;Node3 -->
<g id="edge24" class="edge">
<title>Node22&#45;&gt;Node3</title>
<path fill="none" stroke="midnightblue" d="M562.06,-399.59C570.7,-403.22 579.72,-407.98 587,-414 624.27,-444.82 652.14,-495.58 665.4,-523.01"/>
<polygon fill="midnightblue" stroke="midnightblue" points="662.34,-524.72 669.76,-532.28 668.68,-521.74 662.34,-524.72"/>
</g>
<!-- Node23&#45;&gt;Node3 -->
<g id="edge26" class="edge">
<title>Node23&#45;&gt;Node3</title>
<path fill="none" stroke="midnightblue" d="M570.6,-361.06C576.52,-363.61 582.23,-366.86 587,-371 634.89,-412.58 659.67,-486.9 669.22,-522.26"/>
<polygon fill="midnightblue" stroke="midnightblue" points="665.92,-523.46 671.8,-532.28 672.7,-521.72 665.92,-523.46"/>
</g>
<!-- Node25 -->
<g id="node25" class="node">
<title>Node25</title>
<g id="a_node25"><a xlink:href="lst__env_8c.html#a058c245b5f2ef22f9d2659f90e4d3537" target="_top" xlink:title=" ">
<polygon fill="none" stroke="black" points="501.5,-304.5 501.5,-323.5 559.5,-323.5 559.5,-304.5 501.5,-304.5"/>
<text text-anchor="middle" x="530.5" y="-311.5" font-family="Helvetica,sans-Serif" font-size="10.00">pop_env</text>
</a>
</g>
</g>
<!-- Node24&#45;&gt;Node25 -->
<g id="edge30" class="edge">
<title>Node24&#45;&gt;Node25</title>
<path fill="none" stroke="midnightblue" d="M409.81,-314C435.03,-314 466.43,-314 490.74,-314"/>
<polygon fill="midnightblue" stroke="midnightblue" points="491.02,-317.5 501.02,-314 491.02,-310.5 491.02,-317.5"/>
</g>
<!-- Node26&#45;&gt;Node16 -->
<g id="edge33" class="edge">
<title>Node26&#45;&gt;Node16</title>
<path fill="none" stroke="midnightblue" d="M411.55,-248.42C421.16,-244.9 430.62,-239.96 438,-233 469.34,-203.44 442.77,-172.68 474,-143 475.65,-141.43 477.43,-139.99 479.32,-138.67"/>
<polygon fill="midnightblue" stroke="midnightblue" points="481.18,-141.64 488.09,-133.61 477.68,-135.58 481.18,-141.64"/>
</g>
<!-- Node27 -->
<g id="node27" class="node">
<title>Node27</title>
<g id="a_node27"><a xlink:href="execution_8c.html#a3acc0bb56da881cc8609ca9e94ec8e93" target="_top" xlink:title="detect if it&#39;s a builtin with strncmp() but the real question is &quot;is it a builtin I have to launch in...">
<polygon fill="none" stroke="black" points="494,-228.5 494,-247.5 567,-247.5 567,-228.5 494,-228.5"/>
<text text-anchor="middle" x="530.5" y="-235.5" font-family="Helvetica,sans-Serif" font-size="10.00">is_it_builtin</text>
</a>
</g>
</g>
<!-- Node26&#45;&gt;Node27 -->
<g id="edge32" class="edge">
<title>Node26&#45;&gt;Node27</title>
<path fill="none" stroke="midnightblue" d="M411.54,-251.71C434.08,-249.09 461.21,-245.94 483.77,-243.31"/>
<polygon fill="midnightblue" stroke="midnightblue" points="484.25,-246.78 493.78,-242.15 483.44,-239.83 484.25,-246.78"/>
</g>
<!-- Node28 -->
<g id="node28" class="node">
<title>Node28</title>
<g id="a_node28"><a xlink:href="lst__env__two_8c.html#aafcce0b2f2958645e84ae23b14116680" target="_top" xlink:title=" ">
<polygon fill="none" stroke="black" points="486.5,-152.5 486.5,-171.5 574.5,-171.5 574.5,-152.5 486.5,-152.5"/>
<text text-anchor="middle" x="530.5" y="-159.5" font-family="Helvetica,sans-Serif" font-size="10.00">lst_to_tab_env</text>
</a>
</g>
</g>
<!-- Node26&#45;&gt;Node28 -->
<g id="edge34" class="edge">
<title>Node26&#45;&gt;Node28</title>
<path fill="none" stroke="midnightblue" d="M409.72,-247.4C419.63,-243.92 429.67,-239.25 438,-233 460.49,-216.13 451.58,-197.96 474,-181 476.48,-179.13 479.16,-177.43 481.95,-175.89"/>
<polygon fill="midnightblue" stroke="midnightblue" points="483.63,-178.97 491.15,-171.51 480.62,-172.65 483.63,-178.97"/>
</g>
<!-- Node31 -->
<g id="node31" class="node">
<title>Node31</title>
<g id="a_node31"><a xlink:href="execution__node_8c.html#adc2c91230d4a0a1a1f98db2a888afcaa" target="_top" xlink:title="error message management for the specific case of execution">
<polygon fill="none" stroke="black" points="486,-266.5 486,-285.5 575,-285.5 575,-266.5 486,-266.5"/>
<text text-anchor="middle" x="530.5" y="-273.5" font-family="Helvetica,sans-Serif" font-size="10.00">message_error</text>
</a>
</g>
</g>
<!-- Node26&#45;&gt;Node31 -->
<g id="edge37" class="edge">
<title>Node26&#45;&gt;Node31</title>
<path fill="none" stroke="midnightblue" d="M411.54,-262.29C431.52,-264.61 455.11,-267.36 475.92,-269.77"/>
<polygon fill="midnightblue" stroke="midnightblue" points="475.55,-273.25 485.89,-270.93 476.36,-266.3 475.55,-273.25"/>
</g>
<!-- Node32 -->
<g id="node32" class="node">
<title>Node32</title>
<g id="a_node32"><a xlink:href="getenv_8c.html#a5d0cf05c2622983111dcfc0f179c5739" target="_top" xlink:title=" ">
<polygon fill="none" stroke="black" points="492.5,-190.5 492.5,-209.5 568.5,-209.5 568.5,-190.5 492.5,-190.5"/>
<text text-anchor="middle" x="530.5" y="-197.5" font-family="Helvetica,sans-Serif" font-size="10.00">search_path</text>
</a>
</g>
</g>
<!-- Node26&#45;&gt;Node32 -->
<g id="edge38" class="edge">
<title>Node26&#45;&gt;Node32</title>
<path fill="none" stroke="midnightblue" d="M395.89,-247.4C408.88,-243.14 424.24,-237.96 438,-233 454.15,-227.17 457.88,-224.89 474,-219 479.58,-216.96 485.49,-214.87 491.3,-212.85"/>
<polygon fill="midnightblue" stroke="midnightblue" points="492.59,-216.11 500.9,-209.54 490.31,-209.49 492.59,-216.11"/>
</g>
<!-- Node29 -->
<g id="node29" class="node">
<title>Node29</title>
<g id="a_node29"><a xlink:href="env__utils_8c.html#a7cc35c974bce053dbba1c1ec1028f36b" target="_top" xlink:title=" ">
<polygon fill="none" stroke="black" points="636.5,-152.5 636.5,-171.5 713.5,-171.5 713.5,-152.5 636.5,-152.5"/>
<text text-anchor="middle" x="675" y="-159.5" font-family="Helvetica,sans-Serif" font-size="10.00">env_lst_size</text>
</a>
</g>
</g>
<!-- Node28&#45;&gt;Node29 -->
<g id="edge35" class="edge">
<title>Node28&#45;&gt;Node29</title>
<path fill="none" stroke="midnightblue" d="M574.64,-162C590.92,-162 609.54,-162 626.22,-162"/>
<polygon fill="midnightblue" stroke="midnightblue" points="626.32,-165.5 636.32,-162 626.32,-158.5 626.32,-165.5"/>
</g>
<!-- Node30 -->
<g id="node30" class="node">
<title>Node30</title>
<g id="a_node30"><a xlink:href="getenv_8c.html#a0250cce1862c20e31d0c0ece960bc3a0" target="_top" xlink:title=" ">
<polygon fill="none" stroke="black" points="644,-190.5 644,-209.5 706,-209.5 706,-190.5 644,-190.5"/>
<text text-anchor="middle" x="675" y="-197.5" font-family="Helvetica,sans-Serif" font-size="10.00">join_path</text>
</a>
</g>
</g>
<!-- Node28&#45;&gt;Node30 -->
<g id="edge36" class="edge">
<title>Node28&#45;&gt;Node30</title>
<path fill="none" stroke="midnightblue" d="M567.46,-171.59C587.72,-176.99 613.08,-183.76 633.98,-189.33"/>
<polygon fill="midnightblue" stroke="midnightblue" points="633.27,-192.76 643.83,-191.96 635.07,-186 633.27,-192.76"/>
</g>
<!-- Node32&#45;&gt;Node30 -->
<g id="edge39" class="edge">
<title>Node32&#45;&gt;Node30</title>
<path fill="none" stroke="midnightblue" d="M568.57,-200C588.51,-200 613.14,-200 633.57,-200"/>
<polygon fill="midnightblue" stroke="midnightblue" points="633.83,-203.5 643.83,-200 633.83,-196.5 633.83,-203.5"/>
</g>
<!-- Node33 -->
<g id="node33" class="node">
<title>Node33</title>
<g id="a_node33"><a xlink:href="lst__env__two_8c.html#a4d4a14327b2c3ff88099102b6bd77986" target="_top" xlink:title=" ">
<polygon fill="none" stroke="black" points="623,-228.5 623,-247.5 727,-247.5 727,-228.5 623,-228.5"/>
<text text-anchor="middle" x="675" y="-235.5" font-family="Helvetica,sans-Serif" font-size="10.00">research_key_env</text>
</a>
</g>
</g>
<!-- Node32&#45;&gt;Node33 -->
<g id="edge40" class="edge">
<title>Node32&#45;&gt;Node33</title>
<path fill="none" stroke="midnightblue" d="M567.46,-209.59C585.94,-214.52 608.66,-220.57 628.36,-225.83"/>
<polygon fill="midnightblue" stroke="midnightblue" points="627.49,-229.22 638.05,-228.41 629.29,-222.46 627.49,-229.22"/>
</g>
<!-- Node34&#45;&gt;Node3 -->
<g id="edge43" class="edge">
<title>Node34&#45;&gt;Node3</title>
<path fill="none" stroke="midnightblue" d="M255.11,-521.6C304.91,-520.84 375.89,-520.5 438,-523 505.2,-525.7 582.91,-532.71 630.24,-537.42"/>
<polygon fill="midnightblue" stroke="midnightblue" points="630.14,-540.93 640.44,-538.44 630.84,-533.96 630.14,-540.93"/>
</g>
<!-- Node35 -->
<g id="node35" class="node">
<title>Node35</title>
<g id="a_node35"><a xlink:href="redirection__verification_8c.html#a95641b4885e9c0b07b477846c96c0d2f" target="_top" xlink:title="we have to check if the file exist then if we are allowed to open it in any error case we write a mes...">
<polygon fill="none" stroke="black" points="316,-532.5 316,-551.5 414,-551.5 414,-532.5 316,-532.5"/>
<text text-anchor="middle" x="365" y="-539.5" font-family="Helvetica,sans-Serif" font-size="10.00">infile_redirection</text>
</a>
</g>
</g>
<!-- Node34&#45;&gt;Node35 -->
<g id="edge44" class="edge">
<title>Node34&#45;&gt;Node35</title>
<path fill="none" stroke="midnightblue" d="M255.24,-530.02C271.7,-531.83 289.33,-533.78 305.5,-535.56"/>
<polygon fill="midnightblue" stroke="midnightblue" points="305.57,-539.08 315.89,-536.7 306.33,-532.13 305.57,-539.08"/>
</g>
<!-- Node37 -->
<g id="node37" class="node">
<title>Node37</title>
<g id="a_node37"><a xlink:href="redirection__verification_8c.html#ac61790fa82f2a9b6b904cd92135b6acb" target="_top" xlink:title="outfile and append are open with the right flags in a case of an error we write a message with the na...">
<polygon fill="none" stroke="black" points="292,-570.5 292,-589.5 438,-589.5 438,-570.5 292,-570.5"/>
<text text-anchor="middle" x="365" y="-577.5" font-family="Helvetica,sans-Serif" font-size="10.00">outfile_append_redirection</text>
</a>
</g>
</g>
<!-- Node34&#45;&gt;Node37 -->
<g id="edge48" class="edge">
<title>Node34&#45;&gt;Node37</title>
<path fill="none" stroke="midnightblue" d="M214.81,-532.6C235.03,-540.74 265.17,-552.41 292,-561 299.45,-563.38 307.39,-565.7 315.18,-567.85"/>
<polygon fill="midnightblue" stroke="midnightblue" points="314.36,-571.25 324.93,-570.48 316.18,-564.49 314.36,-571.25"/>
</g>
<!-- Node35&#45;&gt;Node3 -->
<g id="edge47" class="edge">
<title>Node35&#45;&gt;Node3</title>
<path fill="none" stroke="midnightblue" d="M414.12,-542C473.38,-542 573.15,-542 630.3,-542"/>
<polygon fill="midnightblue" stroke="midnightblue" points="630.45,-545.5 640.45,-542 630.45,-538.5 630.45,-545.5"/>
</g>
<!-- Node36 -->
<g id="node36" class="node">
<title>Node36</title>
<g id="a_node36"><a xlink:href="redirection__verification_8c.html#a5b79f4b52353f6558575b5da0dd28fd4" target="_top" xlink:title="we close the fd_in and fd_out in case of a fail this function is able to manage the error coming from...">
<polygon fill="none" stroke="black" points="487.5,-570.5 487.5,-589.5 573.5,-589.5 573.5,-570.5 487.5,-570.5"/>
<text text-anchor="middle" x="530.5" y="-577.5" font-family="Helvetica,sans-Serif" font-size="10.00">close_fd_error</text>
</a>
</g>
</g>
<!-- Node35&#45;&gt;Node36 -->
<g id="edge45" class="edge">
<title>Node35&#45;&gt;Node36</title>
<path fill="none" stroke="midnightblue" d="M407.26,-551.59C428.93,-556.63 455.68,-562.84 478.63,-568.18"/>
<polygon fill="midnightblue" stroke="midnightblue" points="478.01,-571.63 488.54,-570.48 479.59,-564.81 478.01,-571.63"/>
</g>
<!-- Node36&#45;&gt;Node3 -->
<g id="edge46" class="edge">
<title>Node36&#45;&gt;Node3</title>
<path fill="none" stroke="midnightblue" d="M567.46,-570.41C586.5,-565.33 610.05,-559.05 630.16,-553.69"/>
<polygon fill="midnightblue" stroke="midnightblue" points="631.25,-557.02 640.01,-551.06 629.45,-550.26 631.25,-557.02"/>
</g>
<!-- Node37&#45;&gt;Node3 -->
<g id="edge50" class="edge">
<title>Node37&#45;&gt;Node3</title>
<path fill="none" stroke="midnightblue" d="M396.39,-589.57C439.67,-601.66 521.13,-618.66 587,-599 613.52,-591.09 639.47,-572.21 656.03,-558.34"/>
<polygon fill="midnightblue" stroke="midnightblue" points="658.51,-560.82 663.78,-551.63 653.93,-555.53 658.51,-560.82"/>
</g>
<!-- Node37&#45;&gt;Node36 -->
<g id="edge49" class="edge">
<title>Node37&#45;&gt;Node36</title>
<path fill="none" stroke="midnightblue" d="M438.19,-580C451.29,-580 464.72,-580 477.11,-580"/>
<polygon fill="midnightblue" stroke="midnightblue" points="477.25,-583.5 487.25,-580 477.25,-576.5 477.25,-583.5"/>
</g>
</g>
</svg>
