<?xml version="1.0" encoding="UTF-8" standalone="no"?>
<!DOCTYPE svg PUBLIC "-//W3C//DTD SVG 1.1//EN"
 "http://www.w3.org/Graphics/SVG/1.1/DTD/svg11.dtd">
<!-- Generated by graphviz version 2.43.0 (0)
 -->
<!-- Title: includes/minishell.h Pages: 1 -->
<svg width="5511pt" height="207pt"
 viewBox="0.00 0.00 5510.50 207.00" xmlns="http://www.w3.org/2000/svg" xmlns:xlink="http://www.w3.org/1999/xlink">
<g id="graph0" class="graph" transform="scale(1 1) rotate(0) translate(4 203)">
<title>includes/minishell.h</title>
<!-- Node1 -->
<g id="node1" class="node">
<title>Node1</title>
<g id="a_node1"><a xlink:title=" ">
<polygon fill="#bfbfbf" stroke="black" points="1814.5,-179.5 1814.5,-198.5 1928.5,-198.5 1928.5,-179.5 1814.5,-179.5"/>
<text text-anchor="middle" x="1871.5" y="-186.5" font-family="Helvetica,sans-Serif" font-size="10.00">includes/minishell.h</text>
</a>
</g>
</g>
<!-- Node2 -->
<g id="node2" class="node">
<title>Node2</title>
<g id="a_node2"><a xlink:href="cd_8c.html" target="_top" xlink:title=" ">
<polygon fill="none" stroke="black" points="0,-118 0,-137 87,-137 87,-118 0,-118"/>
<text text-anchor="middle" x="43.5" y="-125" font-family="Helvetica,sans-Serif" font-size="10.00">src/builtin/cd.c</text>
</a>
</g>
</g>
<!-- Node1&#45;&gt;Node2 -->
<g id="edge1" class="edge">
<title>Node1&#45;&gt;Node2</title>
<path fill="none" stroke="midnightblue" d="M1804.08,-187.28C1500.33,-183.88 266.48,-168.6 95.5,-143 86.79,-141.7 77.46,-139.39 69.15,-137"/>
<polygon fill="midnightblue" stroke="midnightblue" points="1804.45,-190.78 1814.49,-187.39 1804.53,-183.78 1804.45,-190.78"/>
</g>
<!-- Node3 -->
<g id="node3" class="node">
<title>Node3</title>
<g id="a_node3"><a xlink:href="env_8c.html" target="_top" xlink:title=" ">
<polygon fill="none" stroke="black" points="105,-118 105,-137 198,-137 198,-118 105,-118"/>
<text text-anchor="middle" x="151.5" y="-125" font-family="Helvetica,sans-Serif" font-size="10.00">src/builtin/env.c</text>
</a>
</g>
</g>
<!-- Node1&#45;&gt;Node3 -->
<g id="edge2" class="edge">
<title>Node1&#45;&gt;Node3</title>
<path fill="none" stroke="midnightblue" d="M1804.05,-188.25C1533.01,-188.94 522.67,-188.33 206.5,-143 197.41,-141.7 187.67,-139.43 178.94,-137.06"/>
<polygon fill="midnightblue" stroke="midnightblue" points="1804.14,-191.75 1814.13,-188.22 1804.12,-184.75 1804.14,-191.75"/>
</g>
<!-- Node4 -->
<g id="node4" class="node">
<title>Node4</title>
<g id="a_node4"><a xlink:href="exit_8c.html" target="_top" xlink:title=" ">
<polygon fill="none" stroke="black" points="216,-118 216,-137 311,-137 311,-118 216,-118"/>
<text text-anchor="middle" x="263.5" y="-125" font-family="Helvetica,sans-Serif" font-size="10.00">src/builtin/exit.c</text>
</a>
</g>
</g>
<!-- Node1&#45;&gt;Node4 -->
<g id="edge3" class="edge">
<title>Node1&#45;&gt;Node4</title>
<path fill="none" stroke="midnightblue" d="M1804.38,-188.06C1545.62,-187.96 612.65,-184.66 319.5,-143 310.25,-141.69 300.33,-139.41 291.45,-137.05"/>
<polygon fill="midnightblue" stroke="midnightblue" points="1804.39,-191.56 1814.39,-188.06 1804.39,-184.56 1804.39,-191.56"/>
</g>
<!-- Node5 -->
<g id="node5" class="node">
<title>Node5</title>
<g id="a_node5"><a xlink:href="export_8c.html" target="_top" xlink:title=" ">
<polygon fill="none" stroke="black" points="329,-118 329,-137 436,-137 436,-118 329,-118"/>
<text text-anchor="middle" x="382.5" y="-125" font-family="Helvetica,sans-Serif" font-size="10.00">src/builtin/export.c</text>
</a>
</g>
</g>
<!-- Node1&#45;&gt;Node5 -->
<g id="edge4" class="edge">
<title>Node1&#45;&gt;Node5</title>
<path fill="none" stroke="midnightblue" d="M1804.19,-187.65C1558.78,-186.08 712.36,-178.19 444.5,-143 434.31,-141.66 423.34,-139.38 413.5,-137.02"/>
<polygon fill="midnightblue" stroke="midnightblue" points="1804.37,-191.15 1814.39,-187.71 1804.42,-184.15 1804.37,-191.15"/>
</g>
<!-- Node6 -->
<g id="node6" class="node">
<title>Node6</title>
<g id="a_node6"><a xlink:href="launcher_8c.html" target="_top" xlink:title=" ">
<polygon fill="none" stroke="black" points="454,-118 454,-137 571,-137 571,-118 454,-118"/>
<text text-anchor="middle" x="512.5" y="-125" font-family="Helvetica,sans-Serif" font-size="10.00">src/builtin/launcher.c</text>
</a>
</g>
</g>
<!-- Node1&#45;&gt;Node6 -->
<g id="edge5" class="edge">
<title>Node1&#45;&gt;Node6</title>
<path fill="none" stroke="midnightblue" d="M1804.18,-187.21C1574.23,-184.28 820.82,-172.58 580.5,-143 569.48,-141.64 557.6,-139.39 546.9,-137.06"/>
<polygon fill="midnightblue" stroke="midnightblue" points="1804.37,-190.71 1814.41,-187.34 1804.45,-183.71 1804.37,-190.71"/>
</g>
<!-- Node7 -->
<g id="node7" class="node">
<title>Node7</title>
<g id="a_node7"><a xlink:href="my__echo_8c.html" target="_top" xlink:title=" ">
<polygon fill="none" stroke="black" points="589.5,-118 589.5,-137 709.5,-137 709.5,-118 589.5,-118"/>
<text text-anchor="middle" x="649.5" y="-125" font-family="Helvetica,sans-Serif" font-size="10.00">src/builtin/my_echo.c</text>
</a>
</g>
</g>
<!-- Node1&#45;&gt;Node7 -->
<g id="edge6" class="edge">
<title>Node1&#45;&gt;Node7</title>
<path fill="none" stroke="midnightblue" d="M1804.28,-186.86C1590.93,-183.02 930.73,-169.25 718.5,-143 707.32,-141.62 695.27,-139.36 684.41,-137.03"/>
<polygon fill="midnightblue" stroke="midnightblue" points="1804.33,-190.36 1814.39,-187.04 1804.46,-183.36 1804.33,-190.36"/>
</g>
<!-- Node8 -->
<g id="node8" class="node">
<title>Node8</title>
<g id="a_node8"><a xlink:href="pwd_8c.html" target="_top" xlink:title=" ">
<polygon fill="none" stroke="black" points="727.5,-118 727.5,-137 823.5,-137 823.5,-118 727.5,-118"/>
<text text-anchor="middle" x="775.5" y="-125" font-family="Helvetica,sans-Serif" font-size="10.00">src/builtin/pwd.c</text>
</a>
</g>
</g>
<!-- Node1&#45;&gt;Node8 -->
<g id="edge7" class="edge">
<title>Node1&#45;&gt;Node8</title>
<path fill="none" stroke="midnightblue" d="M1804.17,-186.89C1605.02,-183.33 1021.02,-170.76 832.5,-143 823.21,-141.63 813.23,-139.37 804.26,-137.04"/>
<polygon fill="midnightblue" stroke="midnightblue" points="1804.14,-190.39 1814.2,-187.07 1804.27,-183.39 1804.14,-190.39"/>
</g>
<!-- Node9 -->
<g id="node9" class="node">
<title>Node9</title>
<g id="a_node9"><a xlink:href="unset_8c.html" target="_top" xlink:title=" ">
<polygon fill="none" stroke="black" points="842,-118 842,-137 945,-137 945,-118 842,-118"/>
<text text-anchor="middle" x="893.5" y="-125" font-family="Helvetica,sans-Serif" font-size="10.00">src/builtin/unset.c</text>
</a>
</g>
</g>
<!-- Node1&#45;&gt;Node9 -->
<g id="edge8" class="edge">
<title>Node1&#45;&gt;Node9</title>
<path fill="none" stroke="midnightblue" d="M1804.28,-186.35C1621.44,-181.59 1117.81,-166.67 953.5,-143 943.85,-141.61 933.48,-139.38 924.12,-137.07"/>
<polygon fill="midnightblue" stroke="midnightblue" points="1804.22,-189.85 1814.3,-186.61 1804.4,-182.85 1804.22,-189.85"/>
</g>
<!-- Node10 -->
<g id="node10" class="node">
<title>Node10</title>
<g id="a_node10"><a xlink:href="env__utils_8c.html" target="_top" xlink:title=" ">
<polygon fill="none" stroke="black" points="963,-118 963,-137 1070,-137 1070,-118 963,-118"/>
<text text-anchor="middle" x="1016.5" y="-125" font-family="Helvetica,sans-Serif" font-size="10.00">src/env/env_utils.c</text>
</a>
</g>
</g>
<!-- Node1&#45;&gt;Node10 -->
<g id="edge9" class="edge">
<title>Node1&#45;&gt;Node10</title>
<path fill="none" stroke="midnightblue" d="M1803.66,-188.01C1666.28,-187.17 1345.6,-180.9 1079.5,-143 1069.39,-141.56 1058.51,-139.31 1048.68,-137.01"/>
<polygon fill="midnightblue" stroke="midnightblue" points="1804,-191.51 1814.02,-188.06 1804.04,-184.51 1804,-191.51"/>
</g>
<!-- Node11 -->
<g id="node11" class="node">
<title>Node11</title>
<g id="a_node11"><a xlink:href="getenv_8c.html" target="_top" xlink:title=" ">
<polygon fill="none" stroke="black" points="1088.5,-118 1088.5,-137 1184.5,-137 1184.5,-118 1088.5,-118"/>
<text text-anchor="middle" x="1136.5" y="-125" font-family="Helvetica,sans-Serif" font-size="10.00">src/env/getenv.c</text>
</a>
</g>
</g>
<!-- Node1&#45;&gt;Node11 -->
<g id="edge10" class="edge">
<title>Node1&#45;&gt;Node11</title>
<path fill="none" stroke="midnightblue" d="M1804.08,-187.59C1681.69,-185.95 1415.1,-178.24 1193.5,-143 1184.42,-141.56 1174.68,-139.34 1165.87,-137.06"/>
<polygon fill="midnightblue" stroke="midnightblue" points="1804.37,-191.1 1814.41,-187.72 1804.45,-184.1 1804.37,-191.1"/>
</g>
<!-- Node12 -->
<g id="node12" class="node">
<title>Node12</title>
<g id="a_node12"><a xlink:href="lst__env_8c.html" target="_top" xlink:title=" ">
<polygon fill="none" stroke="black" points="1202.5,-118 1202.5,-137 1300.5,-137 1300.5,-118 1202.5,-118"/>
<text text-anchor="middle" x="1251.5" y="-125" font-family="Helvetica,sans-Serif" font-size="10.00">src/env/lst_env.c</text>
</a>
</g>
</g>
<!-- Node1&#45;&gt;Node12 -->
<g id="edge11" class="edge">
<title>Node1&#45;&gt;Node12</title>
<path fill="none" stroke="midnightblue" d="M1804.27,-186.2C1698.4,-182.56 1486.65,-172.03 1309.5,-143 1300.38,-141.51 1290.6,-139.3 1281.71,-137.05"/>
<polygon fill="midnightblue" stroke="midnightblue" points="1804.38,-189.71 1814.49,-186.54 1804.61,-182.71 1804.38,-189.71"/>
</g>
<!-- Node13 -->
<g id="node13" class="node">
<title>Node13</title>
<g id="a_node13"><a xlink:href="lst__env__two_8c.html" target="_top" xlink:title=" ">
<polygon fill="none" stroke="black" points="1318.5,-118 1318.5,-137 1440.5,-137 1440.5,-118 1318.5,-118"/>
<text text-anchor="middle" x="1379.5" y="-125" font-family="Helvetica,sans-Serif" font-size="10.00">src/env/lst_env_two.c</text>
</a>
</g>
</g>
<!-- Node1&#45;&gt;Node13 -->
<g id="edge12" class="edge">
<title>Node1&#45;&gt;Node13</title>
<path fill="none" stroke="midnightblue" d="M1804.16,-182.87C1720.64,-176.03 1574.06,-162.49 1449.5,-143 1438.96,-141.35 1427.6,-139.17 1417.16,-137.01"/>
<polygon fill="midnightblue" stroke="midnightblue" points="1804.02,-186.37 1814.27,-183.69 1804.59,-179.39 1804.02,-186.37"/>
</g>
<!-- Node14 -->
<g id="node14" class="node">
<title>Node14</title>
<g id="a_node14"><a xlink:href="banner_8c.html" target="_top" xlink:title=" ">
<polygon fill="none" stroke="black" points="1459,-118 1459,-137 1584,-137 1584,-118 1459,-118"/>
<text text-anchor="middle" x="1521.5" y="-125" font-family="Helvetica,sans-Serif" font-size="10.00">src/execution/banner.c</text>
</a>
</g>
</g>
<!-- Node1&#45;&gt;Node14 -->
<g id="edge13" class="edge">
<title>Node1&#45;&gt;Node14</title>
<path fill="none" stroke="midnightblue" d="M1804.74,-177.93C1748.35,-169.24 1665.51,-156.07 1593.5,-143 1583.46,-141.18 1572.67,-139.08 1562.57,-137.05"/>
<polygon fill="midnightblue" stroke="midnightblue" points="1804.54,-181.44 1814.95,-179.5 1805.6,-174.52 1804.54,-181.44"/>
</g>
<!-- Node15 -->
<g id="node15" class="node">
<title>Node15</title>
<g id="a_node15"><a xlink:href="ctl_8c.html" target="_top" xlink:title=" ">
<polygon fill="none" stroke="black" points="1602.5,-118 1602.5,-137 1706.5,-137 1706.5,-118 1602.5,-118"/>
<text text-anchor="middle" x="1654.5" y="-125" font-family="Helvetica,sans-Serif" font-size="10.00">src/execution/ctl.c</text>
</a>
</g>
</g>
<!-- Node1&#45;&gt;Node15 -->
<g id="edge14" class="edge">
<title>Node1&#45;&gt;Node15</title>
<path fill="none" stroke="midnightblue" d="M1830.73,-176.82C1788.58,-165.26 1723.7,-147.47 1685.53,-137.01"/>
<polygon fill="midnightblue" stroke="midnightblue" points="1829.84,-180.21 1840.41,-179.48 1831.69,-173.46 1829.84,-180.21"/>
</g>
<!-- Node16 -->
<g id="node16" class="node">
<title>Node16</title>
<g id="a_node16"><a xlink:href="execution_8c.html" target="_top" xlink:title=" ">
<polygon fill="none" stroke="black" points="1724.5,-118 1724.5,-137 1864.5,-137 1864.5,-118 1724.5,-118"/>
<text text-anchor="middle" x="1794.5" y="-125" font-family="Helvetica,sans-Serif" font-size="10.00">src/execution/execution.c</text>
</a>
</g>
</g>
<!-- Node1&#45;&gt;Node16 -->
<g id="edge15" class="edge">
<title>Node1&#45;&gt;Node16</title>
<path fill="none" stroke="midnightblue" d="M1852.47,-173.29C1837.7,-161.88 1817.74,-146.46 1805.51,-137.01"/>
<polygon fill="midnightblue" stroke="midnightblue" points="1850.41,-176.13 1860.47,-179.48 1854.69,-170.59 1850.41,-176.13"/>
</g>
<!-- Node17 -->
<g id="node17" class="node">
<title>Node17</title>
<g id="a_node17"><a xlink:href="execution__node_8c.html" target="_top" xlink:title=" ">
<polygon fill="none" stroke="black" points="1883,-112.5 1883,-142.5 2014,-142.5 2014,-112.5 1883,-112.5"/>
<text text-anchor="start" x="1891" y="-130.5" font-family="Helvetica,sans-Serif" font-size="10.00">src/execution/execution</text>
<text text-anchor="middle" x="1948.5" y="-119.5" font-family="Helvetica,sans-Serif" font-size="10.00">_node.c</text>
</a>
</g>
</g>
<!-- Node1&#45;&gt;Node17 -->
<g id="edge16" class="edge">
<title>Node1&#45;&gt;Node17</title>
<path fill="none" stroke="midnightblue" d="M1890.66,-173.2C1902.8,-163.81 1918.41,-151.75 1930.35,-142.52"/>
<polygon fill="midnightblue" stroke="midnightblue" points="1888.31,-170.59 1882.53,-179.48 1892.59,-176.13 1888.31,-170.59"/>
</g>
<!-- Node18 -->
<g id="node18" class="node">
<title>Node18</title>
<g id="a_node18"><a xlink:href="heredoc_8c.html" target="_top" xlink:title=" ">
<polygon fill="none" stroke="black" points="2032,-118 2032,-137 2163,-137 2163,-118 2032,-118"/>
<text text-anchor="middle" x="2097.5" y="-125" font-family="Helvetica,sans-Serif" font-size="10.00">src/execution/heredoc.c</text>
</a>
</g>
</g>
<!-- Node1&#45;&gt;Node18 -->
<g id="edge17" class="edge">
<title>Node1&#45;&gt;Node18</title>
<path fill="none" stroke="midnightblue" d="M1913.68,-176.9C1957.57,-165.34 2025.35,-147.5 2065.18,-137.01"/>
<polygon fill="midnightblue" stroke="midnightblue" points="1912.66,-173.54 1903.88,-179.48 1914.44,-180.31 1912.66,-173.54"/>
</g>
<!-- Node19 -->
<g id="node19" class="node">
<title>Node19</title>
<g id="a_node19"><a xlink:href="heredoc2_8c.html" target="_top" xlink:title=" ">
<polygon fill="none" stroke="black" points="2181,-118 2181,-137 2318,-137 2318,-118 2181,-118"/>
<text text-anchor="middle" x="2249.5" y="-125" font-family="Helvetica,sans-Serif" font-size="10.00">src/execution/heredoc2.c</text>
</a>
</g>
</g>
<!-- Node1&#45;&gt;Node19 -->
<g id="edge18" class="edge">
<title>Node1&#45;&gt;Node19</title>
<path fill="none" stroke="midnightblue" d="M1938.79,-178.59C1999.66,-169.92 2091.71,-156.4 2171.5,-143 2182.37,-141.18 2194.06,-139.08 2205,-137.05"/>
<polygon fill="midnightblue" stroke="midnightblue" points="1937.96,-175.17 1928.55,-180.05 1938.94,-182.11 1937.96,-175.17"/>
</g>
<!-- Node20 -->
<g id="node20" class="node">
<title>Node20</title>
<g id="a_node20"><a xlink:href="lst__cmd_8c.html" target="_top" xlink:title=" ">
<polygon fill="none" stroke="black" points="2336,-118 2336,-137 2467,-137 2467,-118 2336,-118"/>
<text text-anchor="middle" x="2401.5" y="-125" font-family="Helvetica,sans-Serif" font-size="10.00">src/execution/lst_cmd.c</text>
</a>
</g>
</g>
<!-- Node1&#45;&gt;Node20 -->
<g id="edge19" class="edge">
<title>Node1&#45;&gt;Node20</title>
<path fill="none" stroke="midnightblue" d="M1939.04,-183.28C2028.1,-176.61 2189.55,-162.97 2326.5,-143 2337.79,-141.35 2349.95,-139.18 2361.14,-137.01"/>
<polygon fill="midnightblue" stroke="midnightblue" points="1938.52,-179.81 1928.81,-184.04 1939.04,-186.79 1938.52,-179.81"/>
</g>
<!-- Node21 -->
<g id="node21" class="node">
<title>Node21</title>
<g id="a_node21"><a xlink:href="lst__cmd2_8c.html" target="_top" xlink:title=" ">
<polygon fill="none" stroke="black" points="2485,-118 2485,-137 2622,-137 2622,-118 2485,-118"/>
<text text-anchor="middle" x="2553.5" y="-125" font-family="Helvetica,sans-Serif" font-size="10.00">src/execution/lst_cmd2.c</text>
</a>
</g>
</g>
<!-- Node1&#45;&gt;Node21 -->
<g id="edge20" class="edge">
<title>Node1&#45;&gt;Node21</title>
<path fill="none" stroke="midnightblue" d="M1938.88,-185.39C2050.72,-180.52 2281.6,-168.17 2475.5,-143 2487.52,-141.44 2500.49,-139.24 2512.34,-137.02"/>
<polygon fill="midnightblue" stroke="midnightblue" points="1938.6,-181.9 1928.76,-185.82 1938.9,-188.89 1938.6,-181.9"/>
</g>
<!-- Node22 -->
<g id="node22" class="node">
<title>Node22</title>
<g id="a_node22"><a xlink:href="lst__redir_8c.html" target="_top" xlink:title=" ">
<polygon fill="none" stroke="black" points="2640,-118 2640,-137 2771,-137 2771,-118 2640,-118"/>
<text text-anchor="middle" x="2705.5" y="-125" font-family="Helvetica,sans-Serif" font-size="10.00">src/execution/lst_redir.c</text>
</a>
</g>
</g>
<!-- Node1&#45;&gt;Node22 -->
<g id="edge21" class="edge">
<title>Node1&#45;&gt;Node22</title>
<path fill="none" stroke="midnightblue" d="M1938.89,-186.98C2071.72,-184.31 2376.49,-174.94 2630.5,-143 2642.34,-141.51 2655.13,-139.28 2666.73,-137.01"/>
<polygon fill="midnightblue" stroke="midnightblue" points="1938.79,-183.48 1928.86,-187.18 1938.93,-190.48 1938.79,-183.48"/>
</g>
<!-- Node23 -->
<g id="node23" class="node">
<title>Node23</title>
<g id="a_node23"><a xlink:href="lst__redir2_8c.html" target="_top" xlink:title=" ">
<polygon fill="none" stroke="black" points="2789.5,-118 2789.5,-137 2927.5,-137 2927.5,-118 2789.5,-118"/>
<text text-anchor="middle" x="2858.5" y="-125" font-family="Helvetica,sans-Serif" font-size="10.00">src/execution/lst_redir2.c</text>
</a>
</g>
</g>
<!-- Node1&#45;&gt;Node23 -->
<g id="edge22" class="edge">
<title>Node1&#45;&gt;Node23</title>
<path fill="none" stroke="midnightblue" d="M1938.59,-187.7C2089.39,-186.36 2466.47,-179.32 2779.5,-143 2791.97,-141.55 2805.43,-139.33 2817.65,-137.06"/>
<polygon fill="midnightblue" stroke="midnightblue" points="1938.53,-184.2 1928.56,-187.78 1938.58,-191.2 1938.53,-184.2"/>
</g>
<!-- Node24 -->
<g id="node24" class="node">
<title>Node24</title>
<g id="a_node24"><a xlink:href="multipipe_8c.html" target="_top" xlink:title=" ">
<polygon fill="none" stroke="black" points="2946,-118 2946,-137 3085,-137 3085,-118 2946,-118"/>
<text text-anchor="middle" x="3015.5" y="-125" font-family="Helvetica,sans-Serif" font-size="10.00">src/execution/multipipe.c</text>
</a>
</g>
</g>
<!-- Node1&#45;&gt;Node24 -->
<g id="edge23" class="edge">
<title>Node1&#45;&gt;Node24</title>
<path fill="none" stroke="midnightblue" d="M1938.78,-188.4C2107.35,-188.7 2561.15,-185.17 2936.5,-143 2949.11,-141.58 2962.74,-139.34 2975.07,-137.04"/>
<polygon fill="midnightblue" stroke="midnightblue" points="1938.58,-184.9 1928.57,-188.38 1938.57,-191.9 1938.58,-184.9"/>
</g>
<!-- Node25 -->
<g id="node25" class="node">
<title>Node25</title>
<g id="a_node25"><a xlink:href="redirection__multipipe_8c.html" target="_top" xlink:title=" ">
<polygon fill="none" stroke="black" points="3103,-112.5 3103,-142.5 3240,-142.5 3240,-112.5 3103,-112.5"/>
<text text-anchor="start" x="3111" y="-130.5" font-family="Helvetica,sans-Serif" font-size="10.00">src/execution/redirection</text>
<text text-anchor="middle" x="3171.5" y="-119.5" font-family="Helvetica,sans-Serif" font-size="10.00">_multipipe.c</text>
</a>
</g>
</g>
<!-- Node1&#45;&gt;Node25 -->
<g id="edge24" class="edge">
<title>Node1&#45;&gt;Node25</title>
<path fill="none" stroke="midnightblue" d="M1938.91,-186.82C2160.78,-182.75 2866.97,-168.09 3093.5,-143 3096.51,-142.67 3099.58,-142.28 3102.68,-141.86"/>
<polygon fill="midnightblue" stroke="midnightblue" points="1938.65,-183.33 1928.72,-187.01 1938.78,-190.33 1938.65,-183.33"/>
</g>
<!-- Node26 -->
<g id="node26" class="node">
<title>Node26</title>
<g id="a_node26"><a xlink:href="redirection__verification_8c.html" target="_top" xlink:title=" ">
<polygon fill="none" stroke="black" points="3258,-112.5 3258,-142.5 3395,-142.5 3395,-112.5 3258,-112.5"/>
<text text-anchor="start" x="3266" y="-130.5" font-family="Helvetica,sans-Serif" font-size="10.00">src/execution/redirection</text>
<text text-anchor="middle" x="3326.5" y="-119.5" font-family="Helvetica,sans-Serif" font-size="10.00">_verification.c</text>
</a>
</g>
</g>
<!-- Node1&#45;&gt;Node26 -->
<g id="edge25" class="edge">
<title>Node1&#45;&gt;Node26</title>
<path fill="none" stroke="midnightblue" d="M1939.19,-187.14C2179.39,-183.89 2990.32,-171.05 3248.5,-143 3251.51,-142.67 3254.58,-142.29 3257.68,-141.88"/>
<polygon fill="midnightblue" stroke="midnightblue" points="1938.81,-183.65 1928.86,-187.28 1938.9,-190.65 1938.81,-183.65"/>
</g>
<!-- Node27 -->
<g id="node27" class="node">
<title>Node27</title>
<g id="a_node27"><a xlink:href="signals_8c.html" target="_top" xlink:title=" ">
<polygon fill="none" stroke="black" points="3413,-118 3413,-137 3540,-137 3540,-118 3413,-118"/>
<text text-anchor="middle" x="3476.5" y="-125" font-family="Helvetica,sans-Serif" font-size="10.00">src/execution/signals.c</text>
</a>
</g>
</g>
<!-- Node1&#45;&gt;Node27 -->
<g id="edge26" class="edge">
<title>Node1&#45;&gt;Node27</title>
<path fill="none" stroke="midnightblue" d="M1938.98,-187.54C2196.08,-185.55 3114.4,-176.23 3404.5,-143 3416.28,-141.65 3429,-139.37 3440.43,-137.01"/>
<polygon fill="midnightblue" stroke="midnightblue" points="1938.65,-184.04 1928.67,-187.62 1938.7,-191.04 1938.65,-184.04"/>
</g>
<!-- Node28 -->
<g id="node28" class="node">
<title>Node28</title>
<g id="a_node28"><a xlink:href="utils_8c.html" target="_top" xlink:title=" ">
<polygon fill="none" stroke="black" points="3558,-118 3558,-137 3671,-137 3671,-118 3558,-118"/>
<text text-anchor="middle" x="3614.5" y="-125" font-family="Helvetica,sans-Serif" font-size="10.00">src/execution/utils.c</text>
</a>
</g>
</g>
<!-- Node1&#45;&gt;Node28 -->
<g id="edge27" class="edge">
<title>Node1&#45;&gt;Node28</title>
<path fill="none" stroke="midnightblue" d="M1938.98,-187.92C2211.27,-187.35 3229.87,-182.56 3549.5,-143 3560.17,-141.68 3571.67,-139.4 3581.98,-137.04"/>
<polygon fill="midnightblue" stroke="midnightblue" points="1938.84,-184.43 1928.85,-187.94 1938.85,-191.43 1938.84,-184.43"/>
</g>
<!-- Node29 -->
<g id="node29" class="node">
<title>Node29</title>
<g id="a_node29"><a xlink:href="main_8c.html" target="_top" xlink:title=" ">
<polygon fill="none" stroke="black" points="3704,-0.5 3704,-19.5 3771,-19.5 3771,-0.5 3704,-0.5"/>
<text text-anchor="middle" x="3737.5" y="-7.5" font-family="Helvetica,sans-Serif" font-size="10.00">src/main.c</text>
</a>
</g>
</g>
<!-- Node1&#45;&gt;Node29 -->
<g id="edge28" class="edge">
<title>Node1&#45;&gt;Node29</title>
<path fill="none" stroke="midnightblue" d="M1938.55,-188.34C2257.3,-189.72 3607.06,-192.6 3680.5,-143 3723.73,-113.8 3734.37,-44.3 3736.81,-19.76"/>
<polygon fill="midnightblue" stroke="midnightblue" points="1938.55,-184.84 1928.53,-188.3 1938.52,-191.84 1938.55,-184.84"/>
</g>
<!-- Node30 -->
<g id="node30" class="node">
<title>Node30</title>
<g id="a_node30"><a xlink:href="parsing_8h.html" target="_top" xlink:title=" ">
<polygon fill="none" stroke="black" points="4504,-118 4504,-137 4609,-137 4609,-118 4504,-118"/>
<text text-anchor="middle" x="4556.5" y="-125" font-family="Helvetica,sans-Serif" font-size="10.00">includes/parsing.h</text>
</a>
</g>
</g>
<!-- Node1&#45;&gt;Node30 -->
<g id="edge29" class="edge">
<title>Node1&#45;&gt;Node30</title>
<path fill="none" stroke="midnightblue" d="M1938.72,-186.51C2316.19,-178.15 4167.08,-137.13 4503.87,-129.67"/>
<polygon fill="midnightblue" stroke="midnightblue" points="1938.43,-183.02 1928.51,-186.74 1938.59,-190.01 1938.43,-183.02"/>
</g>
<!-- Node42 -->
<g id="node42" class="node">
<title>Node42</title>
<g id="a_node42"><a xlink:href="parsing__helpers_8h.html" target="_top" xlink:title=" ">
<polygon fill="none" stroke="black" points="5356.5,-56.5 5356.5,-75.5 5502.5,-75.5 5502.5,-56.5 5356.5,-56.5"/>
<text text-anchor="middle" x="5429.5" y="-63.5" font-family="Helvetica,sans-Serif" font-size="10.00">includes/parsing_helpers.h</text>
</a>
</g>
</g>
<!-- Node1&#45;&gt;Node42 -->
<g id="edge45" class="edge">
<title>Node1&#45;&gt;Node42</title>
<path fill="none" stroke="midnightblue" d="M1938.89,-187.59C2306.52,-185.22 4073.34,-172.48 4618.5,-143 4892.98,-128.16 5218.19,-92.04 5358.86,-75.51"/>
<polygon fill="midnightblue" stroke="midnightblue" points="1938.66,-184.09 1928.68,-187.65 1938.7,-191.09 1938.66,-184.09"/>
</g>
<!-- Node30&#45;&gt;Node29 -->
<g id="edge38" class="edge">
<title>Node30&#45;&gt;Node29</title>
<path fill="none" stroke="midnightblue" d="M4493.74,-126.57C4315.39,-126.22 3814.78,-121.17 3757.5,-76 3740.26,-62.4 3737.51,-34.25 3737.3,-19.87"/>
<polygon fill="midnightblue" stroke="midnightblue" points="4493.75,-130.07 4503.75,-126.59 4493.76,-123.07 4493.75,-130.07"/>
</g>
<!-- Node31 -->
<g id="node31" class="node">
<title>Node31</title>
<g id="a_node31"><a xlink:href="expand_8c.html" target="_top" xlink:title=" ">
<polygon fill="none" stroke="black" points="3766,-56.5 3766,-75.5 3883,-75.5 3883,-56.5 3766,-56.5"/>
<text text-anchor="middle" x="3824.5" y="-63.5" font-family="Helvetica,sans-Serif" font-size="10.00">src/expand/expand.c</text>
</a>
</g>
</g>
<!-- Node30&#45;&gt;Node31 -->
<g id="edge30" class="edge">
<title>Node30&#45;&gt;Node31</title>
<path fill="none" stroke="midnightblue" d="M4493.62,-122.89C4375.61,-115.85 4112.95,-98.95 3892.5,-76 3889.42,-75.68 3886.26,-75.33 3883.08,-74.96"/>
<polygon fill="midnightblue" stroke="midnightblue" points="4493.71,-126.4 4503.9,-123.5 4494.13,-119.41 4493.71,-126.4"/>
</g>
<!-- Node32 -->
<g id="node32" class="node">
<title>Node32</title>
<g id="a_node32"><a xlink:href="expand__dollar_8c.html" target="_top" xlink:title=" ">
<polygon fill="none" stroke="black" points="3901,-56.5 3901,-75.5 4050,-75.5 4050,-56.5 3901,-56.5"/>
<text text-anchor="middle" x="3975.5" y="-63.5" font-family="Helvetica,sans-Serif" font-size="10.00">src/expand/expand_dollar.c</text>
</a>
</g>
</g>
<!-- Node30&#45;&gt;Node32 -->
<g id="edge31" class="edge">
<title>Node30&#45;&gt;Node32</title>
<path fill="none" stroke="midnightblue" d="M4493.67,-120.23C4399.36,-110.79 4215.6,-92.29 4059.5,-76 4056.44,-75.68 4053.31,-75.35 4050.15,-75.02"/>
<polygon fill="midnightblue" stroke="midnightblue" points="4493.59,-123.74 4503.89,-121.25 4494.29,-116.77 4493.59,-123.74"/>
</g>
<!-- Node33 -->
<g id="node33" class="node">
<title>Node33</title>
<g id="a_node33"><a xlink:href="expand__word_8c.html" target="_top" xlink:title=" ">
<polygon fill="none" stroke="black" points="4068.5,-56.5 4068.5,-75.5 4214.5,-75.5 4214.5,-56.5 4068.5,-56.5"/>
<text text-anchor="middle" x="4141.5" y="-63.5" font-family="Helvetica,sans-Serif" font-size="10.00">src/expand/expand_word.c</text>
</a>
</g>
</g>
<!-- Node30&#45;&gt;Node33 -->
<g id="edge32" class="edge">
<title>Node30&#45;&gt;Node33</title>
<path fill="none" stroke="midnightblue" d="M4493.6,-117.48C4414.23,-106.1 4278.72,-86.67 4201,-75.53"/>
<polygon fill="midnightblue" stroke="midnightblue" points="4493.54,-121.01 4503.94,-118.96 4494.54,-114.08 4493.54,-121.01"/>
</g>
<!-- Node34 -->
<g id="node34" class="node">
<title>Node34</title>
<g id="a_node34"><a xlink:href="lexer_8c.html" target="_top" xlink:title=" ">
<polygon fill="none" stroke="black" points="4232.5,-56.5 4232.5,-75.5 4330.5,-75.5 4330.5,-56.5 4232.5,-56.5"/>
<text text-anchor="middle" x="4281.5" y="-63.5" font-family="Helvetica,sans-Serif" font-size="10.00">src/lexing/lexer.c</text>
</a>
</g>
</g>
<!-- Node30&#45;&gt;Node34 -->
<g id="edge33" class="edge">
<title>Node30&#45;&gt;Node34</title>
<path fill="none" stroke="midnightblue" d="M4507.19,-115.83C4453.86,-104.29 4369.91,-86.13 4320.83,-75.51"/>
<polygon fill="midnightblue" stroke="midnightblue" points="4506.59,-119.28 4517.1,-117.98 4508.07,-112.44 4506.59,-119.28"/>
</g>
<!-- Node35 -->
<g id="node35" class="node">
<title>Node35</title>
<g id="a_node35"><a xlink:href="lexer__utils_8c.html" target="_top" xlink:title=" ">
<polygon fill="none" stroke="black" points="4349,-56.5 4349,-75.5 4474,-75.5 4474,-56.5 4349,-56.5"/>
<text text-anchor="middle" x="4411.5" y="-63.5" font-family="Helvetica,sans-Serif" font-size="10.00">src/lexing/lexer_utils.c</text>
</a>
</g>
</g>
<!-- Node30&#45;&gt;Node35 -->
<g id="edge34" class="edge">
<title>Node30&#45;&gt;Node35</title>
<path fill="none" stroke="midnightblue" d="M4526.36,-114.13C4498.19,-102.57 4456.88,-85.62 4432.24,-75.51"/>
<polygon fill="midnightblue" stroke="midnightblue" points="4525.14,-117.42 4535.73,-117.98 4527.8,-110.94 4525.14,-117.42"/>
</g>
<!-- Node36 -->
<g id="node36" class="node">
<title>Node36</title>
<g id="a_node36"><a xlink:href="lexer__word_8c.html" target="_top" xlink:title=" ">
<polygon fill="none" stroke="black" points="4492.5,-56.5 4492.5,-75.5 4620.5,-75.5 4620.5,-56.5 4492.5,-56.5"/>
<text text-anchor="middle" x="4556.5" y="-63.5" font-family="Helvetica,sans-Serif" font-size="10.00">src/lexing/lexer_word.c</text>
</a>
</g>
</g>
<!-- Node30&#45;&gt;Node36 -->
<g id="edge35" class="edge">
<title>Node30&#45;&gt;Node36</title>
<path fill="none" stroke="midnightblue" d="M4556.5,-107.82C4556.5,-97 4556.5,-83.9 4556.5,-75.51"/>
<polygon fill="midnightblue" stroke="midnightblue" points="4553,-107.98 4556.5,-117.98 4560,-107.98 4553,-107.98"/>
</g>
<!-- Node37 -->
<g id="node37" class="node">
<title>Node37</title>
<g id="a_node37"><a xlink:href="string__builder_8c.html" target="_top" xlink:title=" ">
<polygon fill="none" stroke="black" points="4639,-56.5 4639,-75.5 4780,-75.5 4780,-56.5 4639,-56.5"/>
<text text-anchor="middle" x="4709.5" y="-63.5" font-family="Helvetica,sans-Serif" font-size="10.00">src/lexing/string_builder.c</text>
</a>
</g>
</g>
<!-- Node30&#45;&gt;Node37 -->
<g id="edge36" class="edge">
<title>Node30&#45;&gt;Node37</title>
<path fill="none" stroke="midnightblue" d="M4587.92,-114.28C4617.65,-102.72 4661.51,-85.66 4687.62,-75.51"/>
<polygon fill="midnightblue" stroke="midnightblue" points="4586.47,-111.09 4578.42,-117.98 4589.01,-117.61 4586.47,-111.09"/>
</g>
<!-- Node38 -->
<g id="node38" class="node">
<title>Node38</title>
<g id="a_node38"><a xlink:href="token__utils_8c.html" target="_top" xlink:title=" ">
<polygon fill="none" stroke="black" points="4798.5,-56.5 4798.5,-75.5 4926.5,-75.5 4926.5,-56.5 4798.5,-56.5"/>
<text text-anchor="middle" x="4862.5" y="-63.5" font-family="Helvetica,sans-Serif" font-size="10.00">src/lexing/token_utils.c</text>
</a>
</g>
</g>
<!-- Node30&#45;&gt;Node38 -->
<g id="edge37" class="edge">
<title>Node30&#45;&gt;Node38</title>
<path fill="none" stroke="midnightblue" d="M4610.27,-116.05C4669.55,-104.52 4763.79,-86.19 4818.74,-75.51"/>
<polygon fill="midnightblue" stroke="midnightblue" points="4609.49,-112.63 4600.34,-117.98 4610.83,-119.5 4609.49,-112.63"/>
</g>
<!-- Node39 -->
<g id="node39" class="node">
<title>Node39</title>
<g id="a_node39"><a xlink:href="argv__builder_8c.html" target="_top" xlink:title=" ">
<polygon fill="none" stroke="black" points="4945,-56.5 4945,-75.5 5086,-75.5 5086,-56.5 4945,-56.5"/>
<text text-anchor="middle" x="5015.5" y="-63.5" font-family="Helvetica,sans-Serif" font-size="10.00">src/parsing/argv_builder.c</text>
</a>
</g>
</g>
<!-- Node30&#45;&gt;Node39 -->
<g id="edge39" class="edge">
<title>Node30&#45;&gt;Node39</title>
<path fill="none" stroke="midnightblue" d="M4619.11,-118.38C4705.78,-107.15 4861.56,-86.95 4949.82,-75.51"/>
<polygon fill="midnightblue" stroke="midnightblue" points="4618.62,-114.92 4609.15,-119.67 4619.52,-121.86 4618.62,-114.92"/>
</g>
<!-- Node40 -->
<g id="node40" class="node">
<title>Node40</title>
<g id="a_node40"><a xlink:href="error_8c.html" target="_top" xlink:title=" ">
<polygon fill="none" stroke="black" points="5104.5,-56.5 5104.5,-75.5 5208.5,-75.5 5208.5,-56.5 5104.5,-56.5"/>
<text text-anchor="middle" x="5156.5" y="-63.5" font-family="Helvetica,sans-Serif" font-size="10.00">src/parsing/error.c</text>
</a>
</g>
</g>
<!-- Node30&#45;&gt;Node40 -->
<g id="edge40" class="edge">
<title>Node30&#45;&gt;Node40</title>
<path fill="none" stroke="midnightblue" d="M4619,-121.73C4719.55,-113.81 4923.42,-96.74 5095.5,-76 5098.37,-75.65 5101.31,-75.28 5104.28,-74.89"/>
<polygon fill="midnightblue" stroke="midnightblue" points="4618.7,-118.24 4609.01,-122.51 4619.25,-125.22 4618.7,-118.24"/>
</g>
<!-- Node41 -->
<g id="node41" class="node">
<title>Node41</title>
<g id="a_node41"><a xlink:href="parser_8c.html" target="_top" xlink:title=" ">
<polygon fill="none" stroke="black" points="5227,-56.5 5227,-75.5 5338,-75.5 5338,-56.5 5227,-56.5"/>
<text text-anchor="middle" x="5282.5" y="-63.5" font-family="Helvetica,sans-Serif" font-size="10.00">src/parsing/parser.c</text>
</a>
</g>
</g>
<!-- Node30&#45;&gt;Node41 -->
<g id="edge41" class="edge">
<title>Node30&#45;&gt;Node41</title>
<path fill="none" stroke="midnightblue" d="M4619.56,-122.97C4737.27,-116.11 4998.39,-99.52 5217.5,-76 5220.56,-75.67 5223.69,-75.31 5226.86,-74.93"/>
<polygon fill="midnightblue" stroke="midnightblue" points="4619.08,-119.5 4609.3,-123.57 4619.48,-126.48 4619.08,-119.5"/>
</g>
<!-- Node30&#45;&gt;Node42 -->
<g id="edge42" class="edge">
<title>Node30&#45;&gt;Node42</title>
<path fill="none" stroke="midnightblue" d="M4619.43,-123.21C4752.41,-116.34 5071.28,-99.18 5338.5,-76 5344.21,-75.5 5350.13,-74.94 5356.1,-74.35"/>
<polygon fill="midnightblue" stroke="midnightblue" points="4619.23,-119.71 4609.42,-123.72 4619.59,-126.7 4619.23,-119.71"/>
</g>
<!-- Node42&#45;&gt;Node29 -->
<g id="edge43" class="edge">
<title>Node42&#45;&gt;Node29</title>
<path fill="none" stroke="midnightblue" d="M5345.87,-55.95C4706.99,-12.52 3939.79,-10.76 3771.26,-10.92"/>
<polygon fill="midnightblue" stroke="midnightblue" points="5345.99,-59.47 5356.21,-56.66 5346.47,-52.48 5345.99,-59.47"/>
</g>
<!-- Node42&#45;&gt;Node30 -->
<g id="edge44" class="edge">
<title>Node42&#45;&gt;Node30</title>
<path fill="none" stroke="midnightblue" d="M5351.61,-76.41C5067.57,-100.79 4735.79,-118.17 4609.09,-124.19"/>
<polygon fill="midnightblue" stroke="midnightblue" points="5352.03,-79.88 5361.69,-75.54 5351.42,-72.91 5352.03,-79.88"/>
</g>
</g>
</svg>
