<?xml version="1.0" encoding="UTF-8" standalone="no"?>
<!DOCTYPE svg PUBLIC "-//W3C//DTD SVG 1.1//EN"
 "http://www.w3.org/Graphics/SVG/1.1/DTD/svg11.dtd">
<!-- Generated by graphviz version 2.43.0 (0)
 -->
<!-- Title: launch_builtin Pages: 1 -->
<svg width="785pt" height="229pt"
 viewBox="0.00 0.00 785.00 228.59" xmlns="http://www.w3.org/2000/svg" xmlns:xlink="http://www.w3.org/1999/xlink">
<g id="graph0" class="graph" transform="scale(1 1) rotate(0) translate(4 224.59)">
<title>launch_builtin</title>
<!-- Node1 -->
<g id="node1" class="node">
<title>Node1</title>
<g id="a_node1"><a xlink:title="launch the builtin">
<polygon fill="#bfbfbf" stroke="black" points="0,-76.5 0,-95.5 85,-95.5 85,-76.5 0,-76.5"/>
<text text-anchor="middle" x="42.5" y="-83.5" font-family="Helvetica,sans-Serif" font-size="10.00">launch_builtin</text>
</a>
</g>
</g>
<!-- Node2 -->
<g id="node2" class="node">
<title>Node2</title>
<g id="a_node2"><a xlink:href="env_8c.html#ad7678c59b5365c776294bdeefd3d7583" target="_top" xlink:title=" ">
<polygon fill="none" stroke="black" points="137.5,-152.5 137.5,-171.5 172.5,-171.5 172.5,-152.5 137.5,-152.5"/>
<text text-anchor="middle" x="155" y="-159.5" font-family="Helvetica,sans-Serif" font-size="10.00">env</text>
</a>
</g>
</g>
<!-- Node1&#45;&gt;Node2 -->
<g id="edge1" class="edge">
<title>Node1&#45;&gt;Node2</title>
<path fill="none" stroke="midnightblue" d="M57.49,-95.63C76.18,-108.47 109.48,-131.38 131.65,-146.63"/>
<polygon fill="midnightblue" stroke="midnightblue" points="129.9,-149.67 140.12,-152.45 133.86,-143.9 129.9,-149.67"/>
</g>
<!-- Node3 -->
<g id="node3" class="node">
<title>Node3</title>
<g id="a_node3"><a xlink:href="ft__printf_8c.html#a1ee8ae8a80a7d9141ea5339af8565f2e" target="_top" xlink:title=" ">
<polygon fill="none" stroke="black" points="225,-114.5 225,-133.5 280,-133.5 280,-114.5 225,-114.5"/>
<text text-anchor="middle" x="252.5" y="-121.5" font-family="Helvetica,sans-Serif" font-size="10.00">ft_printf</text>
</a>
</g>
</g>
<!-- Node1&#45;&gt;Node3 -->
<g id="edge16" class="edge">
<title>Node1&#45;&gt;Node3</title>
<path fill="none" stroke="midnightblue" d="M79.23,-95.52C92.31,-98.8 107.27,-102.32 121,-105 152.4,-111.12 188.41,-116.22 214.64,-119.59"/>
<polygon fill="midnightblue" stroke="midnightblue" points="214.52,-123.1 224.88,-120.88 215.4,-116.16 214.52,-123.1"/>
</g>
<!-- Node12 -->
<g id="node12" class="node">
<title>Node12</title>
<g id="a_node12"><a xlink:href="ft__strlen_8c.html#a828402378653640f545a4be2e00e92f9" target="_top" xlink:title=" ">
<polygon fill="none" stroke="black" points="127,-76.5 127,-95.5 183,-95.5 183,-76.5 127,-76.5"/>
<text text-anchor="middle" x="155" y="-83.5" font-family="Helvetica,sans-Serif" font-size="10.00">ft_strlen</text>
</a>
</g>
</g>
<!-- Node1&#45;&gt;Node12 -->
<g id="edge17" class="edge">
<title>Node1&#45;&gt;Node12</title>
<path fill="none" stroke="midnightblue" d="M85.28,-86C95.62,-86 106.63,-86 116.74,-86"/>
<polygon fill="midnightblue" stroke="midnightblue" points="116.88,-89.5 126.88,-86 116.88,-82.5 116.88,-89.5"/>
</g>
<!-- Node13 -->
<g id="node13" class="node">
<title>Node13</title>
<g id="a_node13"><a xlink:href="ft__strncmp_8c.html#a9d2fe792187aa4ed08e5864fb2c4d6dc" target="_top" xlink:title=" ">
<polygon fill="none" stroke="black" points="121,-38.5 121,-57.5 189,-57.5 189,-38.5 121,-38.5"/>
<text text-anchor="middle" x="155" y="-45.5" font-family="Helvetica,sans-Serif" font-size="10.00">ft_strncmp</text>
</a>
</g>
</g>
<!-- Node1&#45;&gt;Node13 -->
<g id="edge18" class="edge">
<title>Node1&#45;&gt;Node13</title>
<path fill="none" stroke="midnightblue" d="M71.38,-76.41C84.99,-71.73 101.57,-66.03 116.29,-60.97"/>
<polygon fill="midnightblue" stroke="midnightblue" points="117.81,-64.15 126.13,-57.59 115.53,-57.53 117.81,-64.15"/>
</g>
<!-- Node14 -->
<g id="node14" class="node">
<title>Node14</title>
<g id="a_node14"><a xlink:href="pwd_8c.html#ab62618359287b6604bd60852145b9726" target="_top" xlink:title=" ">
<polygon fill="none" stroke="black" points="136.5,-0.5 136.5,-19.5 173.5,-19.5 173.5,-0.5 136.5,-0.5"/>
<text text-anchor="middle" x="155" y="-7.5" font-family="Helvetica,sans-Serif" font-size="10.00">pwd</text>
</a>
</g>
</g>
<!-- Node1&#45;&gt;Node14 -->
<g id="edge19" class="edge">
<title>Node1&#45;&gt;Node14</title>
<path fill="none" stroke="midnightblue" d="M55.55,-76.48C70.54,-64.8 97.08,-44.61 121,-29 123.18,-27.58 125.47,-26.14 127.78,-24.73"/>
<polygon fill="midnightblue" stroke="midnightblue" points="129.82,-27.6 136.65,-19.5 126.26,-21.57 129.82,-27.6"/>
</g>
<!-- Node2&#45;&gt;Node3 -->
<g id="edge2" class="edge">
<title>Node2&#45;&gt;Node3</title>
<path fill="none" stroke="midnightblue" d="M172.63,-155.38C185.08,-150.43 202.53,-143.48 217.85,-137.39"/>
<polygon fill="midnightblue" stroke="midnightblue" points="219.54,-140.48 227.54,-133.53 216.95,-133.98 219.54,-140.48"/>
</g>
<!-- Node4 -->
<g id="node4" class="node">
<title>Node4</title>
<g id="a_node4"><a xlink:href="ft__printf_8c.html#afd374d693dd18da657053dbc77229828" target="_top" xlink:title=" ">
<polygon fill="none" stroke="black" points="316,-114.5 316,-133.5 381,-133.5 381,-114.5 316,-114.5"/>
<text text-anchor="middle" x="348.5" y="-121.5" font-family="Helvetica,sans-Serif" font-size="10.00">ft_convert</text>
</a>
</g>
</g>
<!-- Node3&#45;&gt;Node4 -->
<g id="edge3" class="edge">
<title>Node3&#45;&gt;Node4</title>
<path fill="none" stroke="midnightblue" d="M280.19,-124C288.14,-124 297.06,-124 305.74,-124"/>
<polygon fill="midnightblue" stroke="midnightblue" points="305.75,-127.5 315.75,-124 305.75,-120.5 305.75,-127.5"/>
</g>
<!-- Node5 -->
<g id="node5" class="node">
<title>Node5</title>
<g id="a_node5"><a xlink:href="ft__printf_8c.html#a39d98b19c2583fcd34e4df5eb8ae467f" target="_top" xlink:title=" ">
<polygon fill="none" stroke="black" points="696,-114.5 696,-133.5 777,-133.5 777,-114.5 696,-114.5"/>
<text text-anchor="middle" x="736.5" y="-121.5" font-family="Helvetica,sans-Serif" font-size="10.00">ft_printf_char</text>
</a>
</g>
</g>
<!-- Node4&#45;&gt;Node5 -->
<g id="edge4" class="edge">
<title>Node4&#45;&gt;Node5</title>
<path fill="none" stroke="midnightblue" d="M360.64,-133.62C373.4,-144.14 395.36,-160.73 417,-170 517.03,-212.84 559.53,-241.81 660,-200 688.06,-188.32 711.06,-160.59 724.02,-142.06"/>
<polygon fill="midnightblue" stroke="midnightblue" points="727.05,-143.83 729.71,-133.57 721.24,-139.93 727.05,-143.83"/>
</g>
<!-- Node6 -->
<g id="node6" class="node">
<title>Node6</title>
<g id="a_node6"><a xlink:href="ft__printf__utils_8c.html#a16bac9a6336719688a85c2939b833d7f" target="_top" xlink:title=" ">
<polygon fill="none" stroke="black" points="569.5,-171.5 569.5,-190.5 647.5,-190.5 647.5,-171.5 569.5,-171.5"/>
<text text-anchor="middle" x="608.5" y="-178.5" font-family="Helvetica,sans-Serif" font-size="10.00">ft_printf_hex</text>
</a>
</g>
</g>
<!-- Node4&#45;&gt;Node6 -->
<g id="edge5" class="edge">
<title>Node4&#45;&gt;Node6</title>
<path fill="none" stroke="midnightblue" d="M376.19,-133.61C388.51,-137.81 403.38,-142.55 417,-146 464.87,-158.14 520.52,-167.87 559.26,-173.96"/>
<polygon fill="midnightblue" stroke="midnightblue" points="558.81,-177.43 569.23,-175.51 559.88,-170.52 558.81,-177.43"/>
</g>
<!-- Node7 -->
<g id="node7" class="node">
<title>Node7</title>
<g id="a_node7"><a xlink:href="ft__printf__utils_8c.html#a2d77d52ca67555dea62a8fdab36a78ed" target="_top" xlink:title=" ">
<polygon fill="none" stroke="black" points="557,-133.5 557,-152.5 660,-152.5 660,-133.5 557,-133.5"/>
<text text-anchor="middle" x="608.5" y="-140.5" font-family="Helvetica,sans-Serif" font-size="10.00">ft_printf_numbers</text>
</a>
</g>
</g>
<!-- Node4&#45;&gt;Node7 -->
<g id="edge7" class="edge">
<title>Node4&#45;&gt;Node7</title>
<path fill="none" stroke="midnightblue" d="M381.14,-126.33C422.26,-129.36 494.95,-134.71 546.86,-138.53"/>
<polygon fill="midnightblue" stroke="midnightblue" points="546.72,-142.03 556.95,-139.28 547.23,-135.05 546.72,-142.03"/>
</g>
<!-- Node8 -->
<g id="node8" class="node">
<title>Node8</title>
<g id="a_node8"><a xlink:href="ft__printf__utils_8c.html#acad9757b0e67c243fd29ba1689b5ec3c" target="_top" xlink:title=" ">
<polygon fill="none" stroke="black" points="432,-95.5 432,-114.5 506,-114.5 506,-95.5 432,-95.5"/>
<text text-anchor="middle" x="469" y="-102.5" font-family="Helvetica,sans-Serif" font-size="10.00">ft_printf_ptr</text>
</a>
</g>
</g>
<!-- Node4&#45;&gt;Node8 -->
<g id="edge9" class="edge">
<title>Node4&#45;&gt;Node8</title>
<path fill="none" stroke="midnightblue" d="M381.26,-118.91C393.71,-116.91 408.25,-114.58 421.83,-112.4"/>
<polygon fill="midnightblue" stroke="midnightblue" points="422.65,-115.82 431.97,-110.78 421.54,-108.9 422.65,-115.82"/>
</g>
<!-- Node10 -->
<g id="node10" class="node">
<title>Node10</title>
<g id="a_node10"><a xlink:href="ft__printf_8c.html#a6f196c1c438363973a4b649e86ce0d17" target="_top" xlink:title=" ">
<polygon fill="none" stroke="black" points="432.5,-57.5 432.5,-76.5 505.5,-76.5 505.5,-57.5 432.5,-57.5"/>
<text text-anchor="middle" x="469" y="-64.5" font-family="Helvetica,sans-Serif" font-size="10.00">ft_printf_str</text>
</a>
</g>
</g>
<!-- Node4&#45;&gt;Node10 -->
<g id="edge12" class="edge">
<title>Node4&#45;&gt;Node10</title>
<path fill="none" stroke="midnightblue" d="M364.96,-114.38C378.41,-106.24 398.58,-94.55 417,-86 421.33,-83.99 425.93,-82.04 430.53,-80.19"/>
<polygon fill="midnightblue" stroke="midnightblue" points="431.82,-83.45 439.88,-76.58 429.29,-76.92 431.82,-83.45"/>
</g>
<!-- Node11 -->
<g id="node11" class="node">
<title>Node11</title>
<g id="a_node11"><a xlink:href="ft__printf__utils_8c.html#a6111b0290c61676c28ad6df27a8ed60f" target="_top" xlink:title=" ">
<polygon fill="none" stroke="black" points="417,-8 417,-38 521,-38 521,-8 417,-8"/>
<text text-anchor="start" x="425" y="-26" font-family="Helvetica,sans-Serif" font-size="10.00">ft_printf_unsigned</text>
<text text-anchor="middle" x="469" y="-15" font-family="Helvetica,sans-Serif" font-size="10.00">_numbers</text>
</a>
</g>
</g>
<!-- Node4&#45;&gt;Node11 -->
<g id="edge14" class="edge">
<title>Node4&#45;&gt;Node11</title>
<path fill="none" stroke="midnightblue" d="M356.38,-114.01C367.59,-98.32 391.15,-67.66 417,-48 419.09,-46.41 421.31,-44.87 423.59,-43.41"/>
<polygon fill="midnightblue" stroke="midnightblue" points="425.8,-46.17 432.64,-38.08 422.25,-40.14 425.8,-46.17"/>
</g>
<!-- Node6&#45;&gt;Node5 -->
<g id="edge6" class="edge">
<title>Node6&#45;&gt;Node5</title>
<path fill="none" stroke="midnightblue" d="M636.45,-171.47C644.12,-168.59 652.45,-165.31 660,-162 676.38,-154.82 694.28,-145.86 708.53,-138.45"/>
<polygon fill="midnightblue" stroke="midnightblue" points="710.53,-141.35 717.76,-133.61 707.28,-135.16 710.53,-141.35"/>
</g>
<!-- Node7&#45;&gt;Node5 -->
<g id="edge8" class="edge">
<title>Node7&#45;&gt;Node5</title>
<path fill="none" stroke="midnightblue" d="M660.02,-135.38C668.49,-134.1 677.28,-132.78 685.73,-131.51"/>
<polygon fill="midnightblue" stroke="midnightblue" points="686.46,-134.93 695.82,-129.98 685.41,-128.01 686.46,-134.93"/>
</g>
<!-- Node9 -->
<g id="node9" class="node">
<title>Node9</title>
<g id="a_node9"><a xlink:href="ft__printf__utils_8c.html#a35c61f40b8c860fab15b36f75334e619" target="_top" xlink:title=" ">
<polygon fill="none" stroke="black" points="559.5,-95.5 559.5,-114.5 657.5,-114.5 657.5,-95.5 559.5,-95.5"/>
<text text-anchor="middle" x="608.5" y="-102.5" font-family="Helvetica,sans-Serif" font-size="10.00">ft_printf_address</text>
</a>
</g>
</g>
<!-- Node8&#45;&gt;Node9 -->
<g id="edge10" class="edge">
<title>Node8&#45;&gt;Node9</title>
<path fill="none" stroke="midnightblue" d="M506.13,-105C519.38,-105 534.74,-105 549.43,-105"/>
<polygon fill="midnightblue" stroke="midnightblue" points="549.46,-108.5 559.46,-105 549.46,-101.5 549.46,-108.5"/>
</g>
<!-- Node9&#45;&gt;Node5 -->
<g id="edge11" class="edge">
<title>Node9&#45;&gt;Node5</title>
<path fill="none" stroke="midnightblue" d="M657.85,-112.29C666.93,-113.66 676.44,-115.09 685.56,-116.47"/>
<polygon fill="midnightblue" stroke="midnightblue" points="685.24,-119.96 695.65,-117.99 686.29,-113.04 685.24,-119.96"/>
</g>
<!-- Node10&#45;&gt;Node5 -->
<g id="edge13" class="edge">
<title>Node10&#45;&gt;Node5</title>
<path fill="none" stroke="midnightblue" d="M505.75,-66.72C544.5,-67.29 607.8,-70.82 660,-86 678.26,-91.31 697.39,-100.98 711.82,-109.24"/>
<polygon fill="midnightblue" stroke="midnightblue" points="710.17,-112.34 720.57,-114.4 713.73,-106.31 710.17,-112.34"/>
</g>
<!-- Node11&#45;&gt;Node5 -->
<g id="edge15" class="edge">
<title>Node11&#45;&gt;Node5</title>
<path fill="none" stroke="midnightblue" d="M521.19,-28.06C560.62,-33.42 615.69,-44.12 660,-65 682.39,-75.55 704.26,-93.77 718.65,-107.18"/>
<polygon fill="midnightblue" stroke="midnightblue" points="716.56,-110.03 726.2,-114.42 721.41,-104.97 716.56,-110.03"/>
</g>
<!-- Node14&#45;&gt;Node3 -->
<g id="edge20" class="edge">
<title>Node14&#45;&gt;Node3</title>
<path fill="none" stroke="midnightblue" d="M173.83,-18.27C179.07,-21.2 184.57,-24.83 189,-29 212.83,-51.45 232.02,-84.69 242.57,-105.31"/>
<polygon fill="midnightblue" stroke="midnightblue" points="239.46,-106.92 247.05,-114.32 245.73,-103.81 239.46,-106.92"/>
</g>
</g>
</svg>
