<?xml version="1.0" encoding="UTF-8" standalone="no"?>
<!DOCTYPE svg PUBLIC "-//W3C//DTD SVG 1.1//EN"
 "http://www.w3.org/Graphics/SVG/1.1/DTD/svg11.dtd">
<!-- Generated by graphviz version 2.43.0 (0)
 -->
<!-- Title: close_fd_error Pages: 1 -->
<svg width="661pt" height="66pt"
 viewBox="0.00 0.00 661.00 66.00" xmlns="http://www.w3.org/2000/svg" xmlns:xlink="http://www.w3.org/1999/xlink">
<g id="graph0" class="graph" transform="scale(1 1) rotate(0) translate(4 62)">
<title>close_fd_error</title>
<!-- Node1 -->
<g id="node1" class="node">
<title>Node1</title>
<g id="a_node1"><a xlink:title="we close the fd_in and fd_out in case of a fail this function is able to manage the error coming from...">
<polygon fill="#bfbfbf" stroke="black" points="567,-19.5 567,-38.5 653,-38.5 653,-19.5 567,-19.5"/>
<text text-anchor="middle" x="610" y="-26.5" font-family="Helvetica,sans-Serif" font-size="10.00">close_fd_error</text>
</a>
</g>
</g>
<!-- Node2 -->
<g id="node2" class="node">
<title>Node2</title>
<g id="a_node2"><a xlink:href="redirection__verification_8c.html#a95641b4885e9c0b07b477846c96c0d2f" target="_top" xlink:title="we have to check if the file exist then if we are allowed to open it in any error case we write a mes...">
<polygon fill="none" stroke="black" points="409,-38.5 409,-57.5 507,-57.5 507,-38.5 409,-38.5"/>
<text text-anchor="middle" x="458" y="-45.5" font-family="Helvetica,sans-Serif" font-size="10.00">infile_redirection</text>
</a>
</g>
</g>
<!-- Node1&#45;&gt;Node2 -->
<g id="edge1" class="edge">
<title>Node1&#45;&gt;Node2</title>
<path fill="none" stroke="midnightblue" d="M556.53,-35.65C540.5,-37.68 522.95,-39.9 507.21,-41.89"/>
<polygon fill="midnightblue" stroke="midnightblue" points="557.34,-39.07 566.82,-34.34 556.46,-32.13 557.34,-39.07"/>
</g>
<!-- Node7 -->
<g id="node7" class="node">
<title>Node7</title>
<g id="a_node7"><a xlink:href="redirection__verification_8c.html#ac61790fa82f2a9b6b904cd92135b6acb" target="_top" xlink:title="outfile and append are open with the right flags in a case of an error we write a message with the na...">
<polygon fill="none" stroke="black" points="385,-0.5 385,-19.5 531,-19.5 531,-0.5 385,-0.5"/>
<text text-anchor="middle" x="458" y="-7.5" font-family="Helvetica,sans-Serif" font-size="10.00">outfile_append_redirection</text>
</a>
</g>
</g>
<!-- Node1&#45;&gt;Node7 -->
<g id="edge7" class="edge">
<title>Node1&#45;&gt;Node7</title>
<path fill="none" stroke="midnightblue" d="M556.66,-22.37C548.44,-21.33 539.82,-20.24 531.25,-19.15"/>
<polygon fill="midnightblue" stroke="midnightblue" points="556.46,-25.87 566.82,-23.66 557.34,-18.93 556.46,-25.87"/>
</g>
<!-- Node3 -->
<g id="node3" class="node">
<title>Node3</title>
<g id="a_node3"><a xlink:href="redirection__verification_8c.html#af9b05287627b76434ceb0070c5cb2c8a" target="_top" xlink:title="we go through each node of the redirection and we have special treatment depending of the following c...">
<polygon fill="none" stroke="black" points="220,-19.5 220,-38.5 349,-38.5 349,-19.5 220,-19.5"/>
<text text-anchor="middle" x="284.5" y="-26.5" font-family="Helvetica,sans-Serif" font-size="10.00">redirection_verification</text>
</a>
</g>
</g>
<!-- Node2&#45;&gt;Node3 -->
<g id="edge2" class="edge">
<title>Node2&#45;&gt;Node3</title>
<path fill="none" stroke="midnightblue" d="M398.53,-41.52C382.6,-39.76 365.26,-37.84 349.06,-36.04"/>
<polygon fill="midnightblue" stroke="midnightblue" points="398.45,-45.03 408.77,-42.66 399.22,-38.08 398.45,-45.03"/>
</g>
<!-- Node4 -->
<g id="node4" class="node">
<title>Node4</title>
<g id="a_node4"><a xlink:href="multipipe_8c.html#a3f78d597d08aaca5580b2c89f956a3a2" target="_top" xlink:title="management of the multipipe (= name when we have at least one pipe) First step is to manage the hered...">
<polygon fill="none" stroke="black" points="95,-38.5 95,-57.5 184,-57.5 184,-38.5 95,-38.5"/>
<text text-anchor="middle" x="139.5" y="-45.5" font-family="Helvetica,sans-Serif" font-size="10.00">multipipe_cmd</text>
</a>
</g>
</g>
<!-- Node3&#45;&gt;Node4 -->
<g id="edge3" class="edge">
<title>Node3&#45;&gt;Node4</title>
<path fill="none" stroke="midnightblue" d="M209.99,-38.77C201.17,-39.94 192.38,-41.11 184.18,-42.2"/>
<polygon fill="midnightblue" stroke="midnightblue" points="210.49,-42.23 219.95,-37.44 209.57,-35.29 210.49,-42.23"/>
</g>
<!-- Node6 -->
<g id="node6" class="node">
<title>Node6</title>
<g id="a_node6"><a xlink:href="execution_8c.html#a4ef7db02a474eb1b198b2a25e1303118" target="_top" xlink:title="here we check if it&#39;s a builtin where we have to fork or not we still need to do the redirection veri...">
<polygon fill="none" stroke="black" points="95,-0.5 95,-19.5 184,-19.5 184,-0.5 95,-0.5"/>
<text text-anchor="middle" x="139.5" y="-7.5" font-family="Helvetica,sans-Serif" font-size="10.00">one_command</text>
</a>
</g>
</g>
<!-- Node3&#45;&gt;Node6 -->
<g id="edge5" class="edge">
<title>Node3&#45;&gt;Node6</title>
<path fill="none" stroke="midnightblue" d="M209.99,-19.23C201.17,-18.06 192.38,-16.89 184.18,-15.8"/>
<polygon fill="midnightblue" stroke="midnightblue" points="209.57,-22.71 219.95,-20.56 210.49,-15.77 209.57,-22.71"/>
</g>
<!-- Node5 -->
<g id="node5" class="node">
<title>Node5</title>
<g id="a_node5"><a xlink:href="execution_8c.html#a9dffeca3c2ff474e24c3e98ab856df76" target="_top" xlink:title="first function of the execution part when we have something to do we have to deal with two cases ; if...">
<polygon fill="none" stroke="black" points="0,-19.5 0,-38.5 59,-38.5 59,-19.5 0,-19.5"/>
<text text-anchor="middle" x="29.5" y="-26.5" font-family="Helvetica,sans-Serif" font-size="10.00">executor</text>
</a>
</g>
</g>
<!-- Node4&#45;&gt;Node5 -->
<g id="edge4" class="edge">
<title>Node4&#45;&gt;Node5</title>
<path fill="none" stroke="midnightblue" d="M84.88,-38.57C75.97,-37 67.05,-35.43 59.08,-34.03"/>
<polygon fill="midnightblue" stroke="midnightblue" points="84.43,-42.04 94.88,-40.33 85.64,-35.15 84.43,-42.04"/>
</g>
<!-- Node6&#45;&gt;Node5 -->
<g id="edge6" class="edge">
<title>Node6&#45;&gt;Node5</title>
<path fill="none" stroke="midnightblue" d="M84.88,-19.43C75.97,-21 67.05,-22.57 59.08,-23.97"/>
<polygon fill="midnightblue" stroke="midnightblue" points="85.64,-22.85 94.88,-17.67 84.43,-15.96 85.64,-22.85"/>
</g>
<!-- Node7&#45;&gt;Node3 -->
<g id="edge8" class="edge">
<title>Node7&#45;&gt;Node3</title>
<path fill="none" stroke="midnightblue" d="M374.74,-19.11C366.16,-20.06 357.54,-21.02 349.21,-21.94"/>
<polygon fill="midnightblue" stroke="midnightblue" points="375.21,-22.58 384.77,-18 374.44,-15.63 375.21,-22.58"/>
</g>
</g>
</svg>
