<?xml version="1.0" encoding="UTF-8" standalone="no"?>
<!DOCTYPE svg PUBLIC "-//W3C//DTD SVG 1.1//EN"
 "http://www.w3.org/Graphics/SVG/1.1/DTD/svg11.dtd">
<!-- Generated by graphviz version 2.43.0 (0)
 -->
<!-- Title: destructor_env Pages: 1 -->
<!--zoomable 578 -->
<svg id="main" version="1.1" xmlns="http://www.w3.org/2000/svg" xmlns:xlink="http://www.w3.org/1999/xlink" xml:space="preserve" onload="init(evt)">
<style type="text/css"><![CDATA[
.edge:hover path { stroke: red; }
.edge:hover polygon { stroke: red; fill: red; }
]]></style>
<script type="text/javascript"><![CDATA[
var edges = document.getElementsByTagName('g');
if (edges && edges.length) {
  for (var i=0;i<edges.length;i++) {
    if (edges[i].id.substr(0,4)=='edge') {
      edges[i].setAttribute('class','edge');
    }
  }
}
]]></script>
        <defs>
                <circle id="rim" cx="0" cy="0" r="7"/>
                <circle id="rim2" cx="0" cy="0" r="3.5"/>
                <g id="zoomPlus">
                        <use xlink:href="#rim" fill="#404040">
                                <set attributeName="fill" to="#808080" begin="zoomplus.mouseover" end="zoomplus.mouseout"/>
                        </use>
                        <path d="M-4,0h8M0,-4v8" fill="none" stroke="white" stroke-width="1.5" pointer-events="none"/>
                </g>
                <g id="zoomMin">
                        <use xlink:href="#rim" fill="#404040">
                                <set attributeName="fill" to="#808080" begin="zoomminus.mouseover" end="zoomminus.mouseout"/>
                        </use>
                        <path d="M-4,0h8" fill="none" stroke="white" stroke-width="1.5" pointer-events="none"/>
                </g>
                <g id="dirArrow">
                        <path fill="none" stroke="white" stroke-width="1.5" d="M0,-3.0v7 M-2.5,-0.5L0,-3.0L2.5,-0.5"/>
                </g>
               <g id="resetDef">
                       <use xlink:href="#rim2" fill="#404040">
                               <set attributeName="fill" to="#808080" begin="reset.mouseover" end="reset.mouseout"/>
                       </use>
               </g>
        </defs>

<script type="text/javascript">
var viewWidth = 1388;
var viewHeight = 578;
var sectionId = 'dynsection-24';
</script>
<script xlink:href="svgpan.js"/>
<svg id="graph" class="graph">
<g id="viewport">
<title>destructor_env</title>
<!-- Node1 -->
<g id="node1" class="node">
<title>Node1</title>
<g id="a_node1"><a xlink:title=" ">
<polygon fill="#bfbfbf" stroke="black" points="1291,-370.5 1291,-389.5 1380,-389.5 1380,-370.5 1291,-370.5"/>
<text text-anchor="middle" x="1335.5" y="-377.5" font-family="Helvetica,sans-Serif" font-size="10.00">destructor_env</text>
</a>
</g>
</g>
<!-- Node2 -->
<g id="node2" class="node">
<title>Node2</title>
<g id="a_node2"><a xlink:href="heredoc_8c.html#a98f0cdaa70ea9d777053df568b66e32a" target="_top" xlink:title="the function to call what the child has to do main reason for this function =&gt; the norm">
<polygon fill="none" stroke="black" points="1002,-370.5 1002,-389.5 1115,-389.5 1115,-370.5 1002,-370.5"/>
<text text-anchor="middle" x="1058.5" y="-377.5" font-family="Helvetica,sans-Serif" font-size="10.00">child_work_heredoc</text>
</a>
</g>
</g>
<!-- Node1&#45;&gt;Node2 -->
<g id="edge1" class="edge">
<title>Node1&#45;&gt;Node2</title>
<path fill="none" stroke="midnightblue" d="M1280.79,-380C1233.06,-380 1163.56,-380 1115.23,-380"/>
<polygon fill="midnightblue" stroke="midnightblue" points="1280.93,-383.5 1290.93,-380 1280.93,-376.5 1280.93,-383.5"/>
</g>
<!-- Node7 -->
<g id="node7" class="node">
<title>Node7</title>
<g id="a_node7"><a xlink:href="main_8c.html#a647f21a28344e1d9c643f4115516d7c9" target="_top" xlink:title=" ">
<polygon fill="none" stroke="black" points="0,-275.5 0,-294.5 41,-294.5 41,-275.5 0,-275.5"/>
<text text-anchor="middle" x="20.5" y="-282.5" font-family="Helvetica,sans-Serif" font-size="10.00">main</text>
</a>
</g>
</g>
<!-- Node1&#45;&gt;Node7 -->
<g id="edge25" class="edge">
<title>Node1&#45;&gt;Node7</title>
<path fill="none" stroke="midnightblue" d="M1327.69,-399.26C1316.75,-427.46 1292.58,-479.81 1255,-509 1183.12,-564.84 1150.52,-570 1059.5,-570 1059.5,-570 1059.5,-570 254,-570 108.73,-570 38.04,-344.92 24.1,-294.81"/>
<polygon fill="midnightblue" stroke="midnightblue" points="1331.03,-400.32 1331.24,-389.73 1324.47,-397.88 1331.03,-400.32"/>
</g>
<!-- Node9 -->
<g id="node9" class="node">
<title>Node9</title>
<g id="a_node9"><a xlink:href="multipipe_8c.html#a461ae962ce9a1aee7221ac4b9c581f98" target="_top" xlink:title=" ">
<polygon fill="none" stroke="black" points="694,-418.5 694,-437.5 777,-437.5 777,-418.5 694,-418.5"/>
<text text-anchor="middle" x="735.5" y="-425.5" font-family="Helvetica,sans-Serif" font-size="10.00">execute_child</text>
</a>
</g>
</g>
<!-- Node1&#45;&gt;Node9 -->
<g id="edge9" class="edge">
<title>Node1&#45;&gt;Node9</title>
<path fill="none" stroke="midnightblue" d="M1280.9,-390.26C1272.26,-391.67 1263.4,-392.99 1255,-394 1077.89,-415.34 865.01,-424 777.31,-426.83"/>
<polygon fill="midnightblue" stroke="midnightblue" points="1281.62,-393.69 1290.89,-388.56 1280.44,-386.78 1281.62,-393.69"/>
</g>
<!-- Node11 -->
<g id="node11" class="node">
<title>Node11</title>
<g id="a_node11"><a xlink:href="expand__word_8c.html#a435189c48cf5cbf3527b73c50ca8ee4b" target="_top" xlink:title=" ">
<polygon fill="none" stroke="black" points="1151,-284.5 1151,-303.5 1255,-303.5 1255,-284.5 1151,-284.5"/>
<text text-anchor="middle" x="1203" y="-291.5" font-family="Helvetica,sans-Serif" font-size="10.00">exit_expand_fatal</text>
</a>
</g>
</g>
<!-- Node1&#45;&gt;Node11 -->
<g id="edge12" class="edge">
<title>Node1&#45;&gt;Node11</title>
<path fill="none" stroke="midnightblue" d="M1313.8,-364.25C1298,-352.45 1275.51,-336.14 1255,-323 1244.36,-316.19 1232.07,-309.17 1222.21,-303.75"/>
<polygon fill="midnightblue" stroke="midnightblue" points="1311.75,-367.08 1321.84,-370.29 1315.96,-361.49 1311.75,-367.08"/>
</g>
<!-- Node19 -->
<g id="node19" class="node">
<title>Node19</title>
<g id="a_node19"><a xlink:href="exit_8c.html#adcbec3416f97b2d0b8d53cf4c2b2a436" target="_top" xlink:title=" ">
<polygon fill="none" stroke="black" points="1175,-446.5 1175,-465.5 1231,-465.5 1231,-446.5 1175,-446.5"/>
<text text-anchor="middle" x="1203" y="-453.5" font-family="Helvetica,sans-Serif" font-size="10.00">my_exit</text>
</a>
</g>
</g>
<!-- Node1&#45;&gt;Node19 -->
<g id="edge26" class="edge">
<title>Node1&#45;&gt;Node19</title>
<path fill="none" stroke="midnightblue" d="M1312.6,-395.51C1296.92,-406.32 1275.1,-420.77 1255,-432 1245.69,-437.2 1235.06,-442.33 1225.93,-446.49"/>
<polygon fill="midnightblue" stroke="midnightblue" points="1314.87,-398.2 1321.07,-389.61 1310.87,-392.46 1314.87,-398.2"/>
</g>
<!-- Node22 -->
<g id="node22" class="node">
<title>Node22</title>
<g id="a_node22"><a xlink:href="execution_8c.html#aa6f3ac2f0c10538c125eafcb587fd021" target="_top" xlink:title="in this function we do the fork to create a child process we do the redirection if we need to">
<polygon fill="none" stroke="black" points="671.5,-522.5 671.5,-541.5 799.5,-541.5 799.5,-522.5 671.5,-522.5"/>
<text text-anchor="middle" x="735.5" y="-529.5" font-family="Helvetica,sans-Serif" font-size="10.00">one_command_execve</text>
</a>
</g>
</g>
<!-- Node1&#45;&gt;Node22 -->
<g id="edge33" class="edge">
<title>Node1&#45;&gt;Node22</title>
<path fill="none" stroke="midnightblue" d="M1324.88,-398.48C1312.17,-420.82 1287.53,-457.57 1255,-475 1107.12,-554.21 901.75,-548.63 799.53,-539.5"/>
<polygon fill="midnightblue" stroke="midnightblue" points="1328,-400.08 1329.73,-389.62 1321.86,-396.72 1328,-400.08"/>
</g>
<!-- Node23 -->
<g id="node23" class="node">
<title>Node23</title>
<g id="a_node23"><a xlink:href="parser_8c.html#a3902c1c0f51a35acf377da51345103b7" target="_top" xlink:title=" ">
<polygon fill="none" stroke="black" points="1153.5,-104.5 1153.5,-123.5 1252.5,-123.5 1252.5,-104.5 1153.5,-104.5"/>
<text text-anchor="middle" x="1203" y="-111.5" font-family="Helvetica,sans-Serif" font-size="10.00">parser_exit_fatal</text>
</a>
</g>
</g>
<!-- Node1&#45;&gt;Node23 -->
<g id="edge34" class="edge">
<title>Node1&#45;&gt;Node23</title>
<path fill="none" stroke="midnightblue" d="M1325.19,-361.01C1299.41,-308.47 1227.76,-162.43 1208.71,-123.59"/>
<polygon fill="midnightblue" stroke="midnightblue" points="1322.15,-362.78 1329.7,-370.22 1328.44,-359.7 1322.15,-362.78"/>
</g>
<!-- Node28 -->
<g id="node28" class="node">
<title>Node28</title>
<g id="a_node28"><a xlink:href="heredoc_8c.html#aa11261ffe1d93fd87488514776e2df34" target="_top" xlink:title=" ">
<polygon fill="none" stroke="black" points="1151.5,-332.5 1151.5,-351.5 1254.5,-351.5 1254.5,-332.5 1151.5,-332.5"/>
<text text-anchor="middle" x="1203" y="-339.5" font-family="Helvetica,sans-Serif" font-size="10.00">read_gnl_heredoc</text>
</a>
</g>
</g>
<!-- Node1&#45;&gt;Node28 -->
<g id="edge44" class="edge">
<title>Node1&#45;&gt;Node28</title>
<path fill="none" stroke="midnightblue" d="M1291.95,-367.61C1274.08,-362.41 1253.61,-356.45 1236.92,-351.59"/>
<polygon fill="midnightblue" stroke="midnightblue" points="1290.99,-370.98 1301.57,-370.41 1292.95,-364.25 1290.99,-370.98"/>
</g>
<!-- Node29 -->
<g id="node29" class="node">
<title>Node29</title>
<g id="a_node29"><a xlink:href="lst__env__two_8c.html#ac1233f225cd25a82eded5e81135528cd" target="_top" xlink:title=" ">
<polygon fill="none" stroke="black" points="1167,-28.5 1167,-47.5 1239,-47.5 1239,-28.5 1167,-28.5"/>
<text text-anchor="middle" x="1203" y="-35.5" font-family="Helvetica,sans-Serif" font-size="10.00">set_up_env</text>
</a>
</g>
</g>
<!-- Node1&#45;&gt;Node29 -->
<g id="edge46" class="edge">
<title>Node1&#45;&gt;Node29</title>
<path fill="none" stroke="midnightblue" d="M1332.15,-360.32C1325.77,-312.34 1305.13,-186.56 1255,-95 1244.67,-76.13 1226.99,-58.32 1215.4,-47.78"/>
<polygon fill="midnightblue" stroke="midnightblue" points="1328.68,-360.82 1333.41,-370.3 1335.63,-359.94 1328.68,-360.82"/>
</g>
<!-- Node3 -->
<g id="node3" class="node">
<title>Node3</title>
<g id="a_node3"><a xlink:href="heredoc_8c.html#a0b4a5d07e8877b06b8977b47a6d51930" target="_top" xlink:title="it&#39;s where we open the heredoc and start writing inside our pipe each time we check if it&#39;s the word ...">
<polygon fill="none" stroke="black" points="858.5,-370.5 858.5,-389.5 944.5,-389.5 944.5,-370.5 858.5,-370.5"/>
<text text-anchor="middle" x="901.5" y="-377.5" font-family="Helvetica,sans-Serif" font-size="10.00">heredoc_input</text>
</a>
</g>
</g>
<!-- Node2&#45;&gt;Node3 -->
<g id="edge2" class="edge">
<title>Node2&#45;&gt;Node3</title>
<path fill="none" stroke="midnightblue" d="M991.62,-380C975.65,-380 959.02,-380 944.5,-380"/>
<polygon fill="midnightblue" stroke="midnightblue" points="991.98,-383.5 1001.98,-380 991.98,-376.5 991.98,-383.5"/>
</g>
<!-- Node4 -->
<g id="node4" class="node">
<title>Node4</title>
<g id="a_node4"><a xlink:href="heredoc_8c.html#a17337782f10170a6f2f9188bf557de0f" target="_top" xlink:title="the function will go through all the commands and check the redirection if we encounter a heredoc we ...">
<polygon fill="none" stroke="black" points="670,-380.5 670,-399.5 801,-399.5 801,-380.5 670,-380.5"/>
<text text-anchor="middle" x="735.5" y="-387.5" font-family="Helvetica,sans-Serif" font-size="10.00">here_doc_management</text>
</a>
</g>
</g>
<!-- Node3&#45;&gt;Node4 -->
<g id="edge3" class="edge">
<title>Node3&#45;&gt;Node4</title>
<path fill="none" stroke="midnightblue" d="M848.19,-383.19C833.25,-384.1 816.79,-385.1 801.2,-386.05"/>
<polygon fill="midnightblue" stroke="midnightblue" points="848.5,-386.68 858.27,-382.58 848.07,-379.69 848.5,-386.68"/>
</g>
<!-- Node5 -->
<g id="node5" class="node">
<title>Node5</title>
<g id="a_node5"><a xlink:href="multipipe_8c.html#aa4f1c217eeb689ecbc622baecd2c5dec" target="_top" xlink:title="management of the multipipe (= name when we have at least one pipe) First step is to manage the hered...">
<polygon fill="none" stroke="black" points="341.5,-399.5 341.5,-418.5 430.5,-418.5 430.5,-399.5 341.5,-399.5"/>
<text text-anchor="middle" x="386" y="-406.5" font-family="Helvetica,sans-Serif" font-size="10.00">multipipe_cmd</text>
</a>
</g>
</g>
<!-- Node4&#45;&gt;Node5 -->
<g id="edge4" class="edge">
<title>Node4&#45;&gt;Node5</title>
<path fill="none" stroke="midnightblue" d="M659.89,-394.08C590.04,-397.9 488.06,-403.47 430.59,-406.62"/>
<polygon fill="midnightblue" stroke="midnightblue" points="660.16,-397.57 669.95,-393.53 659.78,-390.58 660.16,-397.57"/>
</g>
<!-- Node8 -->
<g id="node8" class="node">
<title>Node8</title>
<g id="a_node8"><a xlink:href="execution_8c.html#a38335028b2bc7aa436f8f79a3753ce5e" target="_top" xlink:title="here we check if it&#39;s a builtin where we have to fork or not we still need to do the redirection veri...">
<polygon fill="none" stroke="black" points="510.5,-475.5 510.5,-494.5 599.5,-494.5 599.5,-475.5 510.5,-475.5"/>
<text text-anchor="middle" x="555" y="-482.5" font-family="Helvetica,sans-Serif" font-size="10.00">one_command</text>
</a>
</g>
</g>
<!-- Node4&#45;&gt;Node8 -->
<g id="edge7" class="edge">
<title>Node4&#45;&gt;Node8</title>
<path fill="none" stroke="midnightblue" d="M680.9,-403.34C677.1,-405.02 673.43,-406.9 670,-409 650.16,-421.15 652.76,-433.24 634,-447 617.72,-458.94 597.12,-468.79 581.17,-475.47"/>
<polygon fill="midnightblue" stroke="midnightblue" points="682.47,-406.48 690.49,-399.57 679.9,-399.97 682.47,-406.48"/>
</g>
<!-- Node6 -->
<g id="node6" class="node">
<title>Node6</title>
<g id="a_node6"><a xlink:href="execution_8c.html#a9542b61daba3eb4d45c8887c5648b2f6" target="_top" xlink:title="first function of the execution part when we have something to do we have to deal with two cases ; if...">
<polygon fill="none" stroke="black" points="225.5,-399.5 225.5,-418.5 284.5,-418.5 284.5,-399.5 225.5,-399.5"/>
<text text-anchor="middle" x="255" y="-406.5" font-family="Helvetica,sans-Serif" font-size="10.00">executor</text>
</a>
</g>
</g>
<!-- Node5&#45;&gt;Node6 -->
<g id="edge5" class="edge">
<title>Node5&#45;&gt;Node6</title>
<path fill="none" stroke="midnightblue" d="M331.03,-409C315.1,-409 298.29,-409 284.63,-409"/>
<polygon fill="midnightblue" stroke="midnightblue" points="331.33,-412.5 341.33,-409 331.33,-405.5 331.33,-412.5"/>
</g>
<!-- Node6&#45;&gt;Node7 -->
<g id="edge6" class="edge">
<title>Node6&#45;&gt;Node7</title>
<path fill="none" stroke="midnightblue" d="M227.28,-394.75C179.36,-369.19 80.05,-316.23 39.42,-294.56"/>
<polygon fill="midnightblue" stroke="midnightblue" points="225.67,-397.86 236.14,-399.48 228.97,-391.68 225.67,-397.86"/>
</g>
<!-- Node8&#45;&gt;Node6 -->
<g id="edge8" class="edge">
<title>Node8&#45;&gt;Node6</title>
<path fill="none" stroke="midnightblue" d="M506.56,-472.9C444.01,-456.95 335.91,-429.38 284.61,-416.3"/>
<polygon fill="midnightblue" stroke="midnightblue" points="506.01,-476.37 516.56,-475.45 507.73,-469.59 506.01,-476.37"/>
</g>
<!-- Node10 -->
<g id="node10" class="node">
<title>Node10</title>
<g id="a_node10"><a xlink:href="multipipe_8c.html#af31c329200501f497cd102a470450103" target="_top" xlink:title="it&#39;s where the fork happen and sent to be execute">
<polygon fill="none" stroke="black" points="476,-418.5 476,-437.5 634,-437.5 634,-418.5 476,-418.5"/>
<text text-anchor="middle" x="555" y="-425.5" font-family="Helvetica,sans-Serif" font-size="10.00">multipipe_intermediary_cmd</text>
</a>
</g>
</g>
<!-- Node9&#45;&gt;Node10 -->
<g id="edge10" class="edge">
<title>Node9&#45;&gt;Node10</title>
<path fill="none" stroke="midnightblue" d="M683.68,-428C668.31,-428 651.06,-428 634.33,-428"/>
<polygon fill="midnightblue" stroke="midnightblue" points="684,-431.5 694,-428 684,-424.5 684,-431.5"/>
</g>
<!-- Node10&#45;&gt;Node5 -->
<g id="edge11" class="edge">
<title>Node10&#45;&gt;Node5</title>
<path fill="none" stroke="midnightblue" d="M465.73,-417.96C453.65,-416.58 441.71,-415.22 430.92,-414"/>
<polygon fill="midnightblue" stroke="midnightblue" points="465.55,-421.46 475.88,-419.11 466.34,-414.5 465.55,-421.46"/>
</g>
<!-- Node12 -->
<g id="node12" class="node">
<title>Node12</title>
<g id="a_node12"><a xlink:href="expand__dollar_8c.html#af17c527615f14d68b20a8edf80264943" target="_top" xlink:title=" ">
<polygon fill="none" stroke="black" points="1024.5,-275.5 1024.5,-294.5 1092.5,-294.5 1092.5,-275.5 1024.5,-275.5"/>
<text text-anchor="middle" x="1058.5" y="-282.5" font-family="Helvetica,sans-Serif" font-size="10.00">exit_dollar</text>
</a>
</g>
</g>
<!-- Node11&#45;&gt;Node12 -->
<g id="edge13" class="edge">
<title>Node11&#45;&gt;Node12</title>
<path fill="none" stroke="midnightblue" d="M1140.83,-290.14C1124.37,-289.1 1107.17,-288.01 1092.85,-287.11"/>
<polygon fill="midnightblue" stroke="midnightblue" points="1140.76,-293.64 1150.96,-290.78 1141.2,-286.65 1140.76,-293.64"/>
</g>
<!-- Node15 -->
<g id="node15" class="node">
<title>Node15</title>
<g id="a_node15"><a xlink:href="expand__word_8c.html#a051bcabe3f6edf5f6d234199cea49f48" target="_top" xlink:title=" ">
<polygon fill="none" stroke="black" points="332,-237.5 332,-256.5 440,-256.5 440,-237.5 332,-237.5"/>
<text text-anchor="middle" x="386" y="-244.5" font-family="Helvetica,sans-Serif" font-size="10.00">expand_word_loop</text>
</a>
</g>
</g>
<!-- Node11&#45;&gt;Node15 -->
<g id="edge24" class="edge">
<title>Node11&#45;&gt;Node15</title>
<path fill="none" stroke="midnightblue" d="M1177.68,-279.28C1127.92,-250.59 1010.06,-190 902.5,-190 902.5,-190 902.5,-190 734.5,-190 618.65,-190 483.9,-221.23 421.71,-237.46"/>
<polygon fill="midnightblue" stroke="midnightblue" points="1176.04,-282.37 1186.44,-284.4 1179.57,-276.33 1176.04,-282.37"/>
</g>
<!-- Node16 -->
<g id="node16" class="node">
<title>Node16</title>
<g id="a_node16"><a xlink:href="expand__word_8c.html#a0ec378990f411456436a9bb6a71babfc" target="_top" xlink:title="Scans the word to dequote/expand and build correct output.">
<polygon fill="none" stroke="black" points="214,-275.5 214,-294.5 296,-294.5 296,-275.5 214,-275.5"/>
<text text-anchor="middle" x="255" y="-282.5" font-family="Helvetica,sans-Serif" font-size="10.00">expand_word</text>
</a>
</g>
</g>
<!-- Node11&#45;&gt;Node16 -->
<g id="edge23" class="edge">
<title>Node11&#45;&gt;Node16</title>
<path fill="none" stroke="midnightblue" d="M1155.85,-306.07C1097.34,-320.29 993.16,-342 902.5,-342 902.5,-342 902.5,-342 554,-342 454.18,-342 338.85,-310.77 285.67,-294.54"/>
<polygon fill="midnightblue" stroke="midnightblue" points="1157.01,-309.39 1165.88,-303.6 1155.33,-302.59 1157.01,-309.39"/>
</g>
<!-- Node13 -->
<g id="node13" class="node">
<title>Node13</title>
<g id="a_node13"><a xlink:href="expand__dollar_8c.html#a6d96e914be2d2db42405f61048e85370" target="_top" xlink:title=" ">
<polygon fill="none" stroke="black" points="694.5,-256.5 694.5,-275.5 776.5,-275.5 776.5,-256.5 694.5,-256.5"/>
<text text-anchor="middle" x="735.5" y="-263.5" font-family="Helvetica,sans-Serif" font-size="10.00">expand_valid</text>
</a>
</g>
</g>
<!-- Node12&#45;&gt;Node13 -->
<g id="edge14" class="edge">
<title>Node12&#45;&gt;Node13</title>
<path fill="none" stroke="midnightblue" d="M1014.06,-282.43C951.6,-278.73 837.31,-271.97 776.71,-268.38"/>
<polygon fill="midnightblue" stroke="midnightblue" points="1014.17,-285.94 1024.36,-283.04 1014.58,-278.95 1014.17,-285.94"/>
</g>
<!-- Node14 -->
<g id="node14" class="node">
<title>Node14</title>
<g id="a_node14"><a xlink:href="expand__dollar_8c.html#ac3e15865744ed2c1300a5cb96f24e33d" target="_top" xlink:title="Manages all possibilities with expand : $?, known and unknown env variable.">
<polygon fill="none" stroke="black" points="513.5,-237.5 513.5,-256.5 596.5,-256.5 596.5,-237.5 513.5,-237.5"/>
<text text-anchor="middle" x="555" y="-244.5" font-family="Helvetica,sans-Serif" font-size="10.00">handle_dollar</text>
</a>
</g>
</g>
<!-- Node12&#45;&gt;Node14 -->
<g id="edge22" class="edge">
<title>Node12&#45;&gt;Node14</title>
<path fill="none" stroke="midnightblue" d="M1013.98,-276.39C998.83,-273.53 981.69,-270.45 966,-268 892.96,-256.58 874.78,-251.68 801,-247 729.26,-242.45 645.47,-243.91 596.8,-245.42"/>
<polygon fill="midnightblue" stroke="midnightblue" points="1013.64,-279.89 1024.12,-278.32 1014.95,-273.01 1013.64,-279.89"/>
</g>
<!-- Node18 -->
<g id="node18" class="node">
<title>Node18</title>
<g id="a_node18"><a xlink:href="expand__dollar_8c.html#a288ca34d78433c242163338d2e877550" target="_top" xlink:title=" ">
<polygon fill="none" stroke="black" points="837,-294.5 837,-313.5 966,-313.5 966,-294.5 837,-294.5"/>
<text text-anchor="middle" x="901.5" y="-301.5" font-family="Helvetica,sans-Serif" font-size="10.00">expand_valid_build_str</text>
</a>
</g>
</g>
<!-- Node12&#45;&gt;Node18 -->
<g id="edge20" class="edge">
<title>Node12&#45;&gt;Node18</title>
<path fill="none" stroke="midnightblue" d="M1014.28,-290.3C999.33,-292.13 982.26,-294.22 966.03,-296.21"/>
<polygon fill="midnightblue" stroke="midnightblue" points="1014.75,-293.77 1024.25,-289.08 1013.9,-286.82 1014.75,-293.77"/>
</g>
<!-- Node13&#45;&gt;Node14 -->
<g id="edge15" class="edge">
<title>Node13&#45;&gt;Node14</title>
<path fill="none" stroke="midnightblue" d="M684.16,-260.64C656.45,-257.69 622.53,-254.08 596.54,-251.32"/>
<polygon fill="midnightblue" stroke="midnightblue" points="684.13,-264.16 694.44,-261.74 684.87,-257.2 684.13,-264.16"/>
</g>
<!-- Node14&#45;&gt;Node15 -->
<g id="edge16" class="edge">
<title>Node14&#45;&gt;Node15</title>
<path fill="none" stroke="midnightblue" d="M503.02,-247C483.07,-247 460.2,-247 440.06,-247"/>
<polygon fill="midnightblue" stroke="midnightblue" points="503.15,-250.5 513.15,-247 503.15,-243.5 503.15,-250.5"/>
</g>
<!-- Node15&#45;&gt;Node16 -->
<g id="edge17" class="edge">
<title>Node15&#45;&gt;Node16</title>
<path fill="none" stroke="midnightblue" d="M342.45,-259.54C324.9,-264.7 304.89,-270.6 288.54,-275.41"/>
<polygon fill="midnightblue" stroke="midnightblue" points="343.84,-262.77 352.45,-256.59 341.87,-256.06 343.84,-262.77"/>
</g>
<!-- Node17 -->
<g id="node17" class="node">
<title>Node17</title>
<g id="a_node17"><a xlink:href="expand_8c.html#a53c53e75b0ad8c8888217cd918304b8b" target="_top" xlink:title="Iterate over every args and redir of each command to expand and dequote what needs to be.">
<polygon fill="none" stroke="black" points="77,-275.5 77,-294.5 178,-294.5 178,-275.5 77,-275.5"/>
<text text-anchor="middle" x="127.5" y="-282.5" font-family="Helvetica,sans-Serif" font-size="10.00">expand_manager</text>
</a>
</g>
</g>
<!-- Node16&#45;&gt;Node17 -->
<g id="edge18" class="edge">
<title>Node16&#45;&gt;Node17</title>
<path fill="none" stroke="midnightblue" d="M203.87,-285C195.45,-285 186.72,-285 178.3,-285"/>
<polygon fill="midnightblue" stroke="midnightblue" points="203.95,-288.5 213.95,-285 203.95,-281.5 203.95,-288.5"/>
</g>
<!-- Node17&#45;&gt;Node7 -->
<g id="edge19" class="edge">
<title>Node17&#45;&gt;Node7</title>
<path fill="none" stroke="midnightblue" d="M66.72,-285C57.53,-285 48.64,-285 41.2,-285"/>
<polygon fill="midnightblue" stroke="midnightblue" points="66.77,-288.5 76.77,-285 66.77,-281.5 66.77,-288.5"/>
</g>
<!-- Node18&#45;&gt;Node13 -->
<g id="edge21" class="edge">
<title>Node18&#45;&gt;Node13</title>
<path fill="none" stroke="midnightblue" d="M849.36,-292.15C825.96,-286.73 798.64,-280.4 776.74,-275.32"/>
<polygon fill="midnightblue" stroke="midnightblue" points="848.58,-295.56 859.12,-294.41 850.16,-288.74 848.58,-295.56"/>
</g>
<!-- Node20 -->
<g id="node20" class="node">
<title>Node20</title>
<g id="a_node20"><a xlink:href="launcher_8c.html#a7bee4f6fbfd70ef7ec1f52856538ac71" target="_top" xlink:title="launch the builtin &#160;&#160;some of them are not present because we have to fork() them why ?...">
<polygon fill="none" stroke="black" points="1016,-446.5 1016,-465.5 1101,-465.5 1101,-446.5 1016,-446.5"/>
<text text-anchor="middle" x="1058.5" y="-453.5" font-family="Helvetica,sans-Serif" font-size="10.00">launch_builtin</text>
</a>
</g>
</g>
<!-- Node19&#45;&gt;Node20 -->
<g id="edge27" class="edge">
<title>Node19&#45;&gt;Node20</title>
<path fill="none" stroke="midnightblue" d="M1164.81,-456C1145.28,-456 1121.28,-456 1101.12,-456"/>
<polygon fill="midnightblue" stroke="midnightblue" points="1164.86,-459.5 1174.86,-456 1164.86,-452.5 1164.86,-459.5"/>
</g>
<!-- Node20&#45;&gt;Node8 -->
<g id="edge32" class="edge">
<title>Node20&#45;&gt;Node8</title>
<path fill="none" stroke="midnightblue" d="M1009.57,-467.65C995.61,-470.58 980.27,-473.36 966,-475 833.2,-490.28 674.66,-488.53 599.57,-486.51"/>
<polygon fill="midnightblue" stroke="midnightblue" points="1010.43,-471.04 1019.46,-465.5 1008.95,-464.2 1010.43,-471.04"/>
</g>
<!-- Node21 -->
<g id="node21" class="node">
<title>Node21</title>
<g id="a_node21"><a xlink:href="execution__node_8c.html#adda76b40c34c18ec83b1d98700083f8a" target="_top" xlink:title="we are going to execute the command here we have a security about absolute path given =&gt; because it&#39;s...">
<polygon fill="none" stroke="black" points="855,-446.5 855,-465.5 948,-465.5 948,-446.5 855,-446.5"/>
<text text-anchor="middle" x="901.5" y="-453.5" font-family="Helvetica,sans-Serif" font-size="10.00">execution_node</text>
</a>
</g>
</g>
<!-- Node20&#45;&gt;Node21 -->
<g id="edge28" class="edge">
<title>Node20&#45;&gt;Node21</title>
<path fill="none" stroke="midnightblue" d="M1005.87,-456C987.24,-456 966.34,-456 948.24,-456"/>
<polygon fill="midnightblue" stroke="midnightblue" points="1005.96,-459.5 1015.96,-456 1005.96,-452.5 1005.96,-459.5"/>
</g>
<!-- Node21&#45;&gt;Node9 -->
<g id="edge29" class="edge">
<title>Node21&#45;&gt;Node9</title>
<path fill="none" stroke="midnightblue" d="M844.86,-446.5C822.67,-442.71 797.61,-438.43 777.19,-434.95"/>
<polygon fill="midnightblue" stroke="midnightblue" points="844.37,-449.97 854.82,-448.2 845.55,-443.07 844.37,-449.97"/>
</g>
<!-- Node21&#45;&gt;Node22 -->
<g id="edge30" class="edge">
<title>Node21&#45;&gt;Node22</title>
<path fill="none" stroke="midnightblue" d="M870.59,-469.86C837.69,-485.1 785.72,-509.19 757.1,-522.45"/>
<polygon fill="midnightblue" stroke="midnightblue" points="872.13,-473.01 879.73,-465.63 869.18,-466.65 872.13,-473.01"/>
</g>
<!-- Node22&#45;&gt;Node8 -->
<g id="edge31" class="edge">
<title>Node22&#45;&gt;Node8</title>
<path fill="none" stroke="midnightblue" d="M688.59,-519.91C658.67,-512.03 620.17,-501.9 592.37,-494.58"/>
<polygon fill="midnightblue" stroke="midnightblue" points="687.82,-523.33 698.38,-522.49 689.6,-516.56 687.82,-523.33"/>
</g>
<!-- Node24 -->
<g id="node24" class="node">
<title>Node24</title>
<g id="a_node24"><a xlink:href="parser_8c.html#ad8a725eb1fe38bc14d96924df6878b56" target="_top" xlink:title=" ">
<polygon fill="none" stroke="black" points="866.5,-66.5 866.5,-85.5 936.5,-85.5 936.5,-66.5 866.5,-66.5"/>
<text text-anchor="middle" x="901.5" y="-73.5" font-family="Helvetica,sans-Serif" font-size="10.00">parse_cmd</text>
</a>
</g>
</g>
<!-- Node23&#45;&gt;Node24 -->
<g id="edge35" class="edge">
<title>Node23&#45;&gt;Node24</title>
<path fill="none" stroke="midnightblue" d="M1143.19,-104.15C1133.77,-102.69 1124.13,-101.25 1115,-100 1052.28,-91.42 978.85,-83.62 936.79,-79.37"/>
<polygon fill="midnightblue" stroke="midnightblue" points="1142.86,-107.64 1153.29,-105.75 1143.95,-100.73 1142.86,-107.64"/>
</g>
<!-- Node25 -->
<g id="node25" class="node">
<title>Node25</title>
<g id="a_node25"><a xlink:href="parser_8c.html#a7e8d15749e17fe4ed49f75c3c6998719" target="_top" xlink:title=" ">
<polygon fill="none" stroke="black" points="698.5,-85.5 698.5,-104.5 772.5,-104.5 772.5,-85.5 698.5,-85.5"/>
<text text-anchor="middle" x="735.5" y="-92.5" font-family="Helvetica,sans-Serif" font-size="10.00">parser_loop</text>
</a>
</g>
</g>
<!-- Node23&#45;&gt;Node25 -->
<g id="edge43" class="edge">
<title>Node23&#45;&gt;Node25</title>
<path fill="none" stroke="midnightblue" d="M1143.05,-111.59C1045.33,-107.61 852.61,-99.74 772.62,-96.47"/>
<polygon fill="midnightblue" stroke="midnightblue" points="1142.93,-115.09 1153.06,-112 1143.21,-108.1 1142.93,-115.09"/>
</g>
<!-- Node26 -->
<g id="node26" class="node">
<title>Node26</title>
<g id="a_node26"><a xlink:href="parser_8c.html#ae22079ec4dbb24c0eb15425a8dd785bd" target="_top" xlink:title=" ">
<polygon fill="none" stroke="black" points="531.5,-142.5 531.5,-161.5 578.5,-161.5 578.5,-142.5 531.5,-142.5"/>
<text text-anchor="middle" x="555" y="-149.5" font-family="Helvetica,sans-Serif" font-size="10.00">parser</text>
</a>
</g>
</g>
<!-- Node23&#45;&gt;Node26 -->
<g id="edge42" class="edge">
<title>Node23&#45;&gt;Node26</title>
<path fill="none" stroke="midnightblue" d="M1143.17,-120.5C1133.76,-121.42 1124.12,-122.29 1115,-123 906.93,-139.15 654.58,-148.61 578.66,-151.24"/>
<polygon fill="midnightblue" stroke="midnightblue" points="1143.66,-123.97 1153.27,-119.49 1142.97,-117 1143.66,-123.97"/>
</g>
<!-- Node27 -->
<g id="node27" class="node">
<title>Node27</title>
<g id="a_node27"><a xlink:href="parser_8c.html#a3fb162f9c645f99a8764a678b4768f38" target="_top" xlink:title=" ">
<polygon fill="none" stroke="black" points="1023,-28.5 1023,-47.5 1094,-47.5 1094,-28.5 1023,-28.5"/>
<text text-anchor="middle" x="1058.5" y="-35.5" font-family="Helvetica,sans-Serif" font-size="10.00">parse_redir</text>
</a>
</g>
</g>
<!-- Node23&#45;&gt;Node27 -->
<g id="edge39" class="edge">
<title>Node23&#45;&gt;Node27</title>
<path fill="none" stroke="midnightblue" d="M1178.44,-98.77C1161.2,-87.92 1137.07,-73.31 1115,-62 1104.91,-56.83 1093.46,-51.75 1083.58,-47.61"/>
<polygon fill="midnightblue" stroke="midnightblue" points="1176.93,-101.96 1187.25,-104.37 1180.69,-96.06 1176.93,-101.96"/>
</g>
<!-- Node24&#45;&gt;Node25 -->
<g id="edge36" class="edge">
<title>Node24&#45;&gt;Node25</title>
<path fill="none" stroke="midnightblue" d="M856.06,-81.15C829.86,-84.18 797.13,-87.98 772.54,-90.82"/>
<polygon fill="midnightblue" stroke="midnightblue" points="856.59,-84.61 866.12,-79.98 855.78,-77.66 856.59,-84.61"/>
</g>
<!-- Node25&#45;&gt;Node26 -->
<g id="edge37" class="edge">
<title>Node25&#45;&gt;Node26</title>
<path fill="none" stroke="midnightblue" d="M694.99,-107.62C659.23,-119.03 607.84,-135.45 578.61,-144.78"/>
<polygon fill="midnightblue" stroke="midnightblue" points="696.16,-110.92 704.62,-104.54 694.03,-104.25 696.16,-110.92"/>
</g>
<!-- Node26&#45;&gt;Node7 -->
<g id="edge38" class="edge">
<title>Node26&#45;&gt;Node7</title>
<path fill="none" stroke="midnightblue" d="M521.33,-158.68C443.68,-174.82 242.19,-218.1 77,-266 64.97,-269.49 51.69,-274.01 41.13,-277.77"/>
<polygon fill="midnightblue" stroke="midnightblue" points="522.37,-162.04 531.45,-156.59 520.95,-155.19 522.37,-162.04"/>
</g>
<!-- Node27&#45;&gt;Node24 -->
<g id="edge40" class="edge">
<title>Node27&#45;&gt;Node24</title>
<path fill="none" stroke="midnightblue" d="M1012.68,-48.99C988.45,-54.93 958.99,-62.15 936.64,-67.63"/>
<polygon fill="midnightblue" stroke="midnightblue" points="1013.84,-52.31 1022.71,-46.53 1012.17,-45.51 1013.84,-52.31"/>
</g>
<!-- Node27&#45;&gt;Node25 -->
<g id="edge41" class="edge">
<title>Node27&#45;&gt;Node25</title>
<path fill="none" stroke="midnightblue" d="M1012.66,-38.27C967.71,-39.37 896.78,-43.4 837,-57 808.26,-63.54 776.71,-76.48 756.77,-85.43"/>
<polygon fill="midnightblue" stroke="midnightblue" points="1012.75,-41.77 1022.67,-38.06 1012.6,-34.77 1012.75,-41.77"/>
</g>
<!-- Node28&#45;&gt;Node2 -->
<g id="edge45" class="edge">
<title>Node28&#45;&gt;Node2</title>
<path fill="none" stroke="midnightblue" d="M1156.35,-354.17C1136.64,-359.43 1113.93,-365.49 1095.45,-370.41"/>
<polygon fill="midnightblue" stroke="midnightblue" points="1157.28,-357.55 1166.04,-351.59 1155.48,-350.78 1157.28,-357.55"/>
</g>
<!-- Node30 -->
<g id="node30" class="node">
<title>Node30</title>
<g id="a_node30"><a xlink:href="main_8c.html#a05f37ff7d5d7321754ff82ac71618d63" target="_top" xlink:title=" ">
<polygon fill="none" stroke="black" points="86,-85.5 86,-104.5 169,-104.5 169,-85.5 86,-85.5"/>
<text text-anchor="middle" x="127.5" y="-92.5" font-family="Helvetica,sans-Serif" font-size="10.00">init_minishell</text>
</a>
</g>
</g>
<!-- Node29&#45;&gt;Node30 -->
<g id="edge47" class="edge">
<title>Node29&#45;&gt;Node30</title>
<path fill="none" stroke="midnightblue" d="M1156.71,-26.98C1143.34,-24.03 1128.64,-21.09 1115,-19 1021.27,-4.63 997.32,0 902.5,0 902.5,0 902.5,0 385,0 287.41,0 181.21,-61.22 143.11,-85.37"/>
<polygon fill="midnightblue" stroke="midnightblue" points="1156.11,-30.43 1166.63,-29.22 1157.65,-23.6 1156.11,-30.43"/>
</g>
<!-- Node30&#45;&gt;Node7 -->
<g id="edge48" class="edge">
<title>Node30&#45;&gt;Node7</title>
<path fill="none" stroke="midnightblue" d="M114.88,-113.1C104.58,-129.36 89.3,-153.99 77,-176 56.9,-211.96 35.39,-256.01 26.15,-275.24"/>
<polygon fill="midnightblue" stroke="midnightblue" points="117.89,-114.9 120.31,-104.58 111.98,-111.13 117.89,-114.9"/>
</g>
</g>
</svg>
        <g id="navigator" transform="translate(0 0)" fill="#404254">
                <rect fill="#f2f5e9" fill-opacity="0.5" stroke="#606060" stroke-width=".5" x="0" y="0" width="60" height="60"/>
                <use id="zoomplus" xlink:href="#zoomPlus" x="17" y="9" onmousedown="handleZoom(evt,'in')"/>
                <use id="zoomminus" xlink:href="#zoomMin" x="42" y="9" onmousedown="handleZoom(evt,'out')"/>
                <use id="reset" xlink:href="#resetDef" x="30" y="36" onmousedown="handleReset()"/>
                <g id="arrowUp" xlink:href="#dirArrow" transform="translate(30 24)" onmousedown="handlePan(0,-1)">
                  <use xlink:href="#rim" fill="#404040">
                        <set attributeName="fill" to="#808080" begin="arrowUp.mouseover" end="arrowUp.mouseout"/>
                  </use>
                  <path fill="none" stroke="white" stroke-width="1.5" d="M0,-3.0v7 M-2.5,-0.5L0,-3.0L2.5,-0.5"/>
                </g>
                <g id="arrowRight" xlink:href="#dirArrow" transform="rotate(90) translate(36 -43)" onmousedown="handlePan(1,0)">
                  <use xlink:href="#rim" fill="#404040">
                        <set attributeName="fill" to="#808080" begin="arrowRight.mouseover" end="arrowRight.mouseout"/>
                  </use>
                  <path fill="none" stroke="white" stroke-width="1.5" d="M0,-3.0v7 M-2.5,-0.5L0,-3.0L2.5,-0.5"/>
                </g>
                <g id="arrowDown" xlink:href="#dirArrow" transform="rotate(180) translate(-30 -48)" onmousedown="handlePan(0,1)">
                  <use xlink:href="#rim" fill="#404040">
                        <set attributeName="fill" to="#808080" begin="arrowDown.mouseover" end="arrowDown.mouseout"/>
                  </use>
                  <path fill="none" stroke="white" stroke-width="1.5" d="M0,-3.0v7 M-2.5,-0.5L0,-3.0L2.5,-0.5"/>
                </g>
                <g id="arrowLeft" xlink:href="#dirArrow" transform="rotate(270) translate(-36 17)" onmousedown="handlePan(-1,0)">
                  <use xlink:href="#rim" fill="#404040">
                        <set attributeName="fill" to="#808080" begin="arrowLeft.mouseover" end="arrowLeft.mouseout"/>
                  </use>
                  <path fill="none" stroke="white" stroke-width="1.5" d="M0,-3.0v7 M-2.5,-0.5L0,-3.0L2.5,-0.5"/>
                </g>
        </g>
        <svg viewBox="0 0 15 15" width="100%" height="30px" preserveAspectRatio="xMaxYMin meet">
         <g id="arrow_out" transform="scale(0.3 0.3)">
          <a xlink:href="minishell_8h_a226ae0aa054e697998b2ecbc5d61d592_icgraph_org.svg" target="_base">
           <rect id="button" ry="5" rx="5" y="6" x="6" height="38" width="38"
                fill="#f2f5e9" fill-opacity="0.5" stroke="#606060" stroke-width="1.0"/>
           <path id="arrow"
             d="M 11.500037,31.436501 C 11.940474,20.09759 22.043105,11.32322 32.158766,21.979434 L 37.068811,17.246167 C 37.068811,17.246167 37.088388,32 37.088388,32 L 22.160133,31.978069 C 22.160133,31.978069 26.997745,27.140456 26.997745,27.140456 C 18.528582,18.264221 13.291696,25.230495 11.500037,31.436501 z"
             style="fill:#404040;"/>
          </a>
         </g>
        </svg>
</svg>
