<?xml version="1.0" encoding="UTF-8" standalone="no"?>
<!DOCTYPE svg PUBLIC "-//W3C//DTD SVG 1.1//EN"
 "http://www.w3.org/Graphics/SVG/1.1/DTD/svg11.dtd">
<!-- Generated by graphviz version 2.43.0 (0)
 -->
<!-- Title: remove_echoctl Pages: 1 -->
<svg width="838pt" height="66pt"
 viewBox="0.00 0.00 838.00 66.00" xmlns="http://www.w3.org/2000/svg" xmlns:xlink="http://www.w3.org/1999/xlink">
<g id="graph0" class="graph" transform="scale(1 1) rotate(0) translate(4 62)">
<title>remove_echoctl</title>
<!-- Node1 -->
<g id="node1" class="node">
<title>Node1</title>
<g id="a_node1"><a xlink:title="remove the echoctl which are the symbol which appears when you press CTRL+C or CTRL+\ it&#39;s different ...">
<polygon fill="#bfbfbf" stroke="black" points="735,-19.5 735,-38.5 830,-38.5 830,-19.5 735,-19.5"/>
<text text-anchor="middle" x="782.5" y="-26.5" font-family="Helvetica,sans-Serif" font-size="10.00">remove_echoctl</text>
</a>
</g>
</g>
<!-- Node2 -->
<g id="node2" class="node">
<title>Node2</title>
<g id="a_node2"><a xlink:href="heredoc_8c.html#a98f0cdaa70ea9d777053df568b66e32a" target="_top" xlink:title="the function to call what the child has to do main reason for this function =&gt; the norm">
<polygon fill="none" stroke="black" points="586,-19.5 586,-38.5 699,-38.5 699,-19.5 586,-19.5"/>
<text text-anchor="middle" x="642.5" y="-26.5" font-family="Helvetica,sans-Serif" font-size="10.00">child_work_heredoc</text>
</a>
</g>
</g>
<!-- Node1&#45;&gt;Node2 -->
<g id="edge1" class="edge">
<title>Node1&#45;&gt;Node2</title>
<path fill="none" stroke="midnightblue" d="M724.69,-29C716.28,-29 707.63,-29 699.24,-29"/>
<polygon fill="midnightblue" stroke="midnightblue" points="724.78,-32.5 734.78,-29 724.78,-25.5 724.78,-32.5"/>
</g>
<!-- Node3 -->
<g id="node3" class="node">
<title>Node3</title>
<g id="a_node3"><a xlink:href="heredoc_8c.html#a0b4a5d07e8877b06b8977b47a6d51930" target="_top" xlink:title="it&#39;s where we open the heredoc and start writing inside our pipe each time we check if it&#39;s the word ...">
<polygon fill="none" stroke="black" points="464,-19.5 464,-38.5 550,-38.5 550,-19.5 464,-19.5"/>
<text text-anchor="middle" x="507" y="-26.5" font-family="Helvetica,sans-Serif" font-size="10.00">heredoc_input</text>
</a>
</g>
</g>
<!-- Node2&#45;&gt;Node3 -->
<g id="edge2" class="edge">
<title>Node2&#45;&gt;Node3</title>
<path fill="none" stroke="midnightblue" d="M575.57,-29C566.94,-29 558.3,-29 550.21,-29"/>
<polygon fill="midnightblue" stroke="midnightblue" points="575.66,-32.5 585.66,-29 575.66,-25.5 575.66,-32.5"/>
</g>
<!-- Node4 -->
<g id="node4" class="node">
<title>Node4</title>
<g id="a_node4"><a xlink:href="heredoc_8c.html#a17337782f10170a6f2f9188bf557de0f" target="_top" xlink:title="the function will go through all the commands and check the redirection if we encounter a heredoc we ...">
<polygon fill="none" stroke="black" points="297,-19.5 297,-38.5 428,-38.5 428,-19.5 297,-19.5"/>
<text text-anchor="middle" x="362.5" y="-26.5" font-family="Helvetica,sans-Serif" font-size="10.00">here_doc_management</text>
</a>
</g>
</g>
<!-- Node3&#45;&gt;Node4 -->
<g id="edge3" class="edge">
<title>Node3&#45;&gt;Node4</title>
<path fill="none" stroke="midnightblue" d="M453.43,-29C445.2,-29 436.6,-29 428.14,-29"/>
<polygon fill="midnightblue" stroke="midnightblue" points="453.63,-32.5 463.63,-29 453.63,-25.5 453.63,-32.5"/>
</g>
<!-- Node5 -->
<g id="node5" class="node">
<title>Node5</title>
<g id="a_node5"><a xlink:href="multipipe_8c.html#aa4f1c217eeb689ecbc622baecd2c5dec" target="_top" xlink:title="management of the multipipe (= name when we have at least one pipe) First step is to manage the hered...">
<polygon fill="none" stroke="black" points="172,-38.5 172,-57.5 261,-57.5 261,-38.5 172,-38.5"/>
<text text-anchor="middle" x="216.5" y="-45.5" font-family="Helvetica,sans-Serif" font-size="10.00">multipipe_cmd</text>
</a>
</g>
</g>
<!-- Node4&#45;&gt;Node5 -->
<g id="edge4" class="edge">
<title>Node4&#45;&gt;Node5</title>
<path fill="none" stroke="midnightblue" d="M286.55,-38.89C277.93,-40.03 269.37,-41.16 261.36,-42.21"/>
<polygon fill="midnightblue" stroke="midnightblue" points="287.21,-42.33 296.66,-37.56 286.29,-35.39 287.21,-42.33"/>
</g>
<!-- Node8 -->
<g id="node8" class="node">
<title>Node8</title>
<g id="a_node8"><a xlink:href="execution_8c.html#a38335028b2bc7aa436f8f79a3753ce5e" target="_top" xlink:title="here we check if it&#39;s a builtin where we have to fork or not we still need to do the redirection veri...">
<polygon fill="none" stroke="black" points="172,-0.5 172,-19.5 261,-19.5 261,-0.5 172,-0.5"/>
<text text-anchor="middle" x="216.5" y="-7.5" font-family="Helvetica,sans-Serif" font-size="10.00">one_command</text>
</a>
</g>
</g>
<!-- Node4&#45;&gt;Node8 -->
<g id="edge7" class="edge">
<title>Node4&#45;&gt;Node8</title>
<path fill="none" stroke="midnightblue" d="M286.55,-19.11C277.93,-17.97 269.37,-16.84 261.36,-15.79"/>
<polygon fill="midnightblue" stroke="midnightblue" points="286.29,-22.61 296.66,-20.44 287.21,-15.67 286.29,-22.61"/>
</g>
<!-- Node6 -->
<g id="node6" class="node">
<title>Node6</title>
<g id="a_node6"><a xlink:href="execution_8c.html#a9542b61daba3eb4d45c8887c5648b2f6" target="_top" xlink:title="first function of the execution part when we have something to do we have to deal with two cases ; if...">
<polygon fill="none" stroke="black" points="77,-19.5 77,-38.5 136,-38.5 136,-19.5 77,-19.5"/>
<text text-anchor="middle" x="106.5" y="-26.5" font-family="Helvetica,sans-Serif" font-size="10.00">executor</text>
</a>
</g>
</g>
<!-- Node5&#45;&gt;Node6 -->
<g id="edge5" class="edge">
<title>Node5&#45;&gt;Node6</title>
<path fill="none" stroke="midnightblue" d="M161.88,-38.57C152.97,-37 144.05,-35.43 136.08,-34.03"/>
<polygon fill="midnightblue" stroke="midnightblue" points="161.43,-42.04 171.88,-40.33 162.64,-35.15 161.43,-42.04"/>
</g>
<!-- Node7 -->
<g id="node7" class="node">
<title>Node7</title>
<g id="a_node7"><a xlink:href="main_8c.html#a647f21a28344e1d9c643f4115516d7c9" target="_top" xlink:title=" ">
<polygon fill="none" stroke="black" points="0,-19.5 0,-38.5 41,-38.5 41,-19.5 0,-19.5"/>
<text text-anchor="middle" x="20.5" y="-26.5" font-family="Helvetica,sans-Serif" font-size="10.00">main</text>
</a>
</g>
</g>
<!-- Node6&#45;&gt;Node7 -->
<g id="edge6" class="edge">
<title>Node6&#45;&gt;Node7</title>
<path fill="none" stroke="midnightblue" d="M66.48,-29C57.72,-29 48.78,-29 41.21,-29"/>
<polygon fill="midnightblue" stroke="midnightblue" points="66.59,-32.5 76.59,-29 66.59,-25.5 66.59,-32.5"/>
</g>
<!-- Node8&#45;&gt;Node6 -->
<g id="edge8" class="edge">
<title>Node8&#45;&gt;Node6</title>
<path fill="none" stroke="midnightblue" d="M161.88,-19.43C152.97,-21 144.05,-22.57 136.08,-23.97"/>
<polygon fill="midnightblue" stroke="midnightblue" points="162.64,-22.85 171.88,-17.67 161.43,-15.96 162.64,-22.85"/>
</g>
</g>
</svg>
