<?xml version="1.0" encoding="UTF-8" standalone="no"?>
<!DOCTYPE svg PUBLIC "-//W3C//DTD SVG 1.1//EN"
 "http://www.w3.org/Graphics/SVG/1.1/DTD/svg11.dtd">
<!-- Generated by graphviz version 2.43.0 (0)
 -->
<!-- Title: execution_node Pages: 1 -->
<svg width="1071pt" height="553pt"
 viewBox="0.00 0.00 1071.00 552.50" xmlns="http://www.w3.org/2000/svg" xmlns:xlink="http://www.w3.org/1999/xlink">
<g id="graph0" class="graph" transform="scale(1 1) rotate(0) translate(4 548.5)">
<title>execution_node</title>
<!-- Node1 -->
<g id="node1" class="node">
<title>Node1</title>
<g id="a_node1"><a xlink:title=" ">
<polygon fill="#bfbfbf" stroke="black" points="0,-221 0,-240 93,-240 93,-221 0,-221"/>
<text text-anchor="middle" x="46.5" y="-228" font-family="Helvetica,sans-Serif" font-size="10.00">execution_node</text>
</a>
</g>
</g>
<!-- Node2 -->
<g id="node2" class="node">
<title>Node2</title>
<g id="a_node2"><a xlink:href="ft__free__tab_8c.html#acc7f3dadee01a1e97ea3ba71d28d1d25" target="_top" xlink:title=" ">
<polygon fill="none" stroke="black" points="271.5,-449 271.5,-468 340.5,-468 340.5,-449 271.5,-449"/>
<text text-anchor="middle" x="306" y="-456" font-family="Helvetica,sans-Serif" font-size="10.00">ft_free_tab</text>
</a>
</g>
</g>
<!-- Node1&#45;&gt;Node2 -->
<g id="edge1" class="edge">
<title>Node1&#45;&gt;Node2</title>
<path fill="none" stroke="midnightblue" d="M51.53,-240.25C61.63,-263.8 90.06,-324.7 129,-363.5 168.62,-402.99 228.08,-430.4 266.71,-445.29"/>
<polygon fill="midnightblue" stroke="midnightblue" points="265.95,-448.75 276.54,-448.99 268.41,-442.19 265.95,-448.75"/>
</g>
<!-- Node3 -->
<g id="node3" class="node">
<title>Node3</title>
<g id="a_node3"><a xlink:href="ft__strchr_8c.html#a8d986b0243eb93d15d9361e341877688" target="_top" xlink:title=" ">
<polygon fill="none" stroke="black" points="145.5,-145 145.5,-164 201.5,-164 201.5,-145 145.5,-145"/>
<text text-anchor="middle" x="173.5" y="-152" font-family="Helvetica,sans-Serif" font-size="10.00">ft_strchr</text>
</a>
</g>
</g>
<!-- Node1&#45;&gt;Node3 -->
<g id="edge2" class="edge">
<title>Node1&#45;&gt;Node3</title>
<path fill="none" stroke="midnightblue" d="M62.05,-220.82C78.22,-210.16 105.19,-192.64 129,-178.5 134.32,-175.34 140.08,-172.06 145.6,-168.99"/>
<polygon fill="midnightblue" stroke="midnightblue" points="147.5,-171.94 154.58,-164.05 144.13,-165.81 147.5,-171.94"/>
</g>
<!-- Node4 -->
<g id="node4" class="node">
<title>Node4</title>
<g id="a_node4"><a xlink:href="execution_8c.html#a3acc0bb56da881cc8609ca9e94ec8e93" target="_top" xlink:title=" ">
<polygon fill="none" stroke="black" points="269.5,-221 269.5,-240 342.5,-240 342.5,-221 269.5,-221"/>
<text text-anchor="middle" x="306" y="-228" font-family="Helvetica,sans-Serif" font-size="10.00">is_it_builtin</text>
</a>
</g>
</g>
<!-- Node1&#45;&gt;Node4 -->
<g id="edge3" class="edge">
<title>Node1&#45;&gt;Node4</title>
<path fill="none" stroke="midnightblue" d="M93.24,-230.5C140,-230.5 212.22,-230.5 259.05,-230.5"/>
<polygon fill="midnightblue" stroke="midnightblue" points="259.22,-234 269.22,-230.5 259.22,-227 259.22,-234"/>
</g>
<!-- Node7 -->
<g id="node7" class="node">
<title>Node7</title>
<g id="a_node7"><a xlink:href="execution_8c.html#a8b2bd9dba90bfc9b2ead44af5e630315" target="_top" xlink:title="launch the builtin">
<polygon fill="none" stroke="black" points="263.5,-164 263.5,-183 348.5,-183 348.5,-164 263.5,-164"/>
<text text-anchor="middle" x="306" y="-171" font-family="Helvetica,sans-Serif" font-size="10.00">launch_builtin</text>
</a>
</g>
</g>
<!-- Node1&#45;&gt;Node7 -->
<g id="edge6" class="edge">
<title>Node1&#45;&gt;Node7</title>
<path fill="none" stroke="midnightblue" d="M90.6,-220.96C135.51,-211.02 205.87,-195.44 253.63,-184.87"/>
<polygon fill="midnightblue" stroke="midnightblue" points="254.46,-188.27 263.47,-182.69 252.95,-181.44 254.46,-188.27"/>
</g>
<!-- Node19 -->
<g id="node19" class="node">
<title>Node19</title>
<g id="a_node19"><a xlink:href="lst__env__two_8c.html#aafcce0b2f2958645e84ae23b14116680" target="_top" xlink:title=" ">
<polygon fill="none" stroke="black" points="129.5,-259 129.5,-278 217.5,-278 217.5,-259 129.5,-259"/>
<text text-anchor="middle" x="173.5" y="-266" font-family="Helvetica,sans-Serif" font-size="10.00">lst_to_tab_env</text>
</a>
</g>
</g>
<!-- Node1&#45;&gt;Node19 -->
<g id="edge27" class="edge">
<title>Node1&#45;&gt;Node19</title>
<path fill="none" stroke="midnightblue" d="M79.04,-240.09C94.88,-244.9 114.27,-250.8 131.28,-255.97"/>
<polygon fill="midnightblue" stroke="midnightblue" points="130.38,-259.35 140.97,-258.91 132.42,-252.66 130.38,-259.35"/>
</g>
<!-- Node22 -->
<g id="node22" class="node">
<title>Node22</title>
<g id="a_node22"><a xlink:href="execution__node_8c.html#ac540c0b8810c3284e24fc47c3b4fab3b" target="_top" xlink:title=" ">
<polygon fill="none" stroke="black" points="129,-69 129,-88 218,-88 218,-69 129,-69"/>
<text text-anchor="middle" x="173.5" y="-76" font-family="Helvetica,sans-Serif" font-size="10.00">message_error</text>
</a>
</g>
</g>
<!-- Node1&#45;&gt;Node22 -->
<g id="edge31" class="edge">
<title>Node1&#45;&gt;Node22</title>
<path fill="none" stroke="midnightblue" d="M55.32,-220.99C75.84,-196.04 131.47,-128.39 158.02,-96.11"/>
<polygon fill="midnightblue" stroke="midnightblue" points="161.04,-97.95 164.68,-88 155.63,-93.51 161.04,-97.95"/>
</g>
<!-- Node25 -->
<g id="node25" class="node">
<title>Node25</title>
<g id="a_node25"><a xlink:href="getenv_8c.html#a5d0cf05c2622983111dcfc0f179c5739" target="_top" xlink:title=" ">
<polygon fill="none" stroke="black" points="135.5,-335 135.5,-354 211.5,-354 211.5,-335 135.5,-335"/>
<text text-anchor="middle" x="173.5" y="-342" font-family="Helvetica,sans-Serif" font-size="10.00">search_path</text>
</a>
</g>
</g>
<!-- Node1&#45;&gt;Node25 -->
<g id="edge34" class="edge">
<title>Node1&#45;&gt;Node25</title>
<path fill="none" stroke="midnightblue" d="M58.16,-240.22C79.56,-259.74 127.97,-303.89 154.42,-328.01"/>
<polygon fill="midnightblue" stroke="midnightblue" points="152.12,-330.65 161.87,-334.81 156.84,-325.48 152.12,-330.65"/>
</g>
<!-- Node5 -->
<g id="node5" class="node">
<title>Node5</title>
<g id="a_node5"><a xlink:href="ft__strlen_8c.html#a828402378653640f545a4be2e00e92f9" target="_top" xlink:title=" ">
<polygon fill="none" stroke="black" points="510,-316 510,-335 566,-335 566,-316 510,-316"/>
<text text-anchor="middle" x="538" y="-323" font-family="Helvetica,sans-Serif" font-size="10.00">ft_strlen</text>
</a>
</g>
</g>
<!-- Node4&#45;&gt;Node5 -->
<g id="edge4" class="edge">
<title>Node4&#45;&gt;Node5</title>
<path fill="none" stroke="midnightblue" d="M333.29,-240.04C341.26,-243 350.01,-246.32 358,-249.5 410.32,-270.34 470.46,-296.29 506.01,-311.84"/>
<polygon fill="midnightblue" stroke="midnightblue" points="504.8,-315.13 515.36,-315.94 507.61,-308.72 504.8,-315.13"/>
</g>
<!-- Node6 -->
<g id="node6" class="node">
<title>Node6</title>
<g id="a_node6"><a xlink:href="ft__strncmp_8c.html#a9d2fe792187aa4ed08e5864fb2c4d6dc" target="_top" xlink:title=" ">
<polygon fill="none" stroke="black" points="400,-221 400,-240 468,-240 468,-221 400,-221"/>
<text text-anchor="middle" x="434" y="-228" font-family="Helvetica,sans-Serif" font-size="10.00">ft_strncmp</text>
</a>
</g>
</g>
<!-- Node4&#45;&gt;Node6 -->
<g id="edge5" class="edge">
<title>Node4&#45;&gt;Node6</title>
<path fill="none" stroke="midnightblue" d="M342.77,-230.5C357.31,-230.5 374.25,-230.5 389.5,-230.5"/>
<polygon fill="midnightblue" stroke="midnightblue" points="389.74,-234 399.74,-230.5 389.74,-227 389.74,-234"/>
</g>
<!-- Node7&#45;&gt;Node5 -->
<g id="edge23" class="edge">
<title>Node7&#45;&gt;Node5</title>
<path fill="none" stroke="midnightblue" d="M348.69,-173.72C385.09,-175.92 437.64,-184.16 474,-211.5 505.78,-235.4 523.63,-280.27 531.69,-306.01"/>
<polygon fill="midnightblue" stroke="midnightblue" points="528.38,-307.15 534.56,-315.76 535.09,-305.18 528.38,-307.15"/>
</g>
<!-- Node7&#45;&gt;Node6 -->
<g id="edge24" class="edge">
<title>Node7&#45;&gt;Node6</title>
<path fill="none" stroke="midnightblue" d="M328.09,-183.04C348.44,-192.25 379.47,-206.28 402.51,-216.71"/>
<polygon fill="midnightblue" stroke="midnightblue" points="401.29,-220 411.84,-220.93 404.17,-213.62 401.29,-220"/>
</g>
<!-- Node8 -->
<g id="node8" class="node">
<title>Node8</title>
<g id="a_node8"><a xlink:href="env_8c.html#ad7678c59b5365c776294bdeefd3d7583" target="_top" xlink:title=" ">
<polygon fill="none" stroke="black" points="416.5,-107 416.5,-126 451.5,-126 451.5,-107 416.5,-107"/>
<text text-anchor="middle" x="434" y="-114" font-family="Helvetica,sans-Serif" font-size="10.00">env</text>
</a>
</g>
</g>
<!-- Node7&#45;&gt;Node8 -->
<g id="edge7" class="edge">
<title>Node7&#45;&gt;Node8</title>
<path fill="none" stroke="midnightblue" d="M328.09,-163.96C349.79,-154.14 383.63,-138.83 406.98,-128.27"/>
<polygon fill="midnightblue" stroke="midnightblue" points="408.61,-131.37 416.28,-124.06 405.73,-125 408.61,-131.37"/>
</g>
<!-- Node9 -->
<g id="node9" class="node">
<title>Node9</title>
<g id="a_node9"><a xlink:href="ft__printf_8c.html#a1ee8ae8a80a7d9141ea5339af8565f2e" target="_top" xlink:title=" ">
<polygon fill="none" stroke="black" points="510.5,-107 510.5,-126 565.5,-126 565.5,-107 510.5,-107"/>
<text text-anchor="middle" x="538" y="-114" font-family="Helvetica,sans-Serif" font-size="10.00">ft_printf</text>
</a>
</g>
</g>
<!-- Node7&#45;&gt;Node9 -->
<g id="edge22" class="edge">
<title>Node7&#45;&gt;Node9</title>
<path fill="none" stroke="midnightblue" d="M348.72,-164.85C382.62,-157.61 431.6,-146.7 474,-135.5 482.75,-133.19 492.11,-130.49 500.87,-127.86"/>
<polygon fill="midnightblue" stroke="midnightblue" points="501.9,-131.21 510.45,-124.95 499.86,-124.51 501.9,-131.21"/>
</g>
<!-- Node18 -->
<g id="node18" class="node">
<title>Node18</title>
<g id="a_node18"><a xlink:href="pwd_8c.html#ab62618359287b6604bd60852145b9726" target="_top" xlink:title=" ">
<polygon fill="none" stroke="black" points="415.5,-69 415.5,-88 452.5,-88 452.5,-69 415.5,-69"/>
<text text-anchor="middle" x="434" y="-76" font-family="Helvetica,sans-Serif" font-size="10.00">pwd</text>
</a>
</g>
</g>
<!-- Node7&#45;&gt;Node18 -->
<g id="edge25" class="edge">
<title>Node7&#45;&gt;Node18</title>
<path fill="none" stroke="midnightblue" d="M316.48,-163.69C331.76,-148.24 363.25,-117.9 394,-97.5 397.85,-94.95 402.09,-92.53 406.31,-90.33"/>
<polygon fill="midnightblue" stroke="midnightblue" points="407.94,-93.43 415.37,-85.88 404.86,-87.14 407.94,-93.43"/>
</g>
<!-- Node8&#45;&gt;Node9 -->
<g id="edge8" class="edge">
<title>Node8&#45;&gt;Node9</title>
<path fill="none" stroke="midnightblue" d="M451.84,-116.5C464.84,-116.5 483.31,-116.5 499.73,-116.5"/>
<polygon fill="midnightblue" stroke="midnightblue" points="500.15,-120 510.15,-116.5 500.15,-113 500.15,-120"/>
</g>
<!-- Node10 -->
<g id="node10" class="node">
<title>Node10</title>
<g id="a_node10"><a xlink:href="ft__printf_8c.html#afd374d693dd18da657053dbc77229828" target="_top" xlink:title=" ">
<polygon fill="none" stroke="black" points="602,-107 602,-126 667,-126 667,-107 602,-107"/>
<text text-anchor="middle" x="634.5" y="-114" font-family="Helvetica,sans-Serif" font-size="10.00">ft_convert</text>
</a>
</g>
</g>
<!-- Node9&#45;&gt;Node10 -->
<g id="edge9" class="edge">
<title>Node9&#45;&gt;Node10</title>
<path fill="none" stroke="midnightblue" d="M565.58,-116.5C573.66,-116.5 582.75,-116.5 591.58,-116.5"/>
<polygon fill="midnightblue" stroke="midnightblue" points="591.76,-120 601.76,-116.5 591.76,-113 591.76,-120"/>
</g>
<!-- Node11 -->
<g id="node11" class="node">
<title>Node11</title>
<g id="a_node11"><a xlink:href="ft__printf_8c.html#a39d98b19c2583fcd34e4df5eb8ae467f" target="_top" xlink:title=" ">
<polygon fill="none" stroke="black" points="982,-107 982,-126 1063,-126 1063,-107 982,-107"/>
<text text-anchor="middle" x="1022.5" y="-114" font-family="Helvetica,sans-Serif" font-size="10.00">ft_printf_char</text>
</a>
</g>
</g>
<!-- Node10&#45;&gt;Node11 -->
<g id="edge10" class="edge">
<title>Node10&#45;&gt;Node11</title>
<path fill="none" stroke="midnightblue" d="M646.08,-126.22C658.68,-137.24 680.82,-154.92 703,-164.5 802.8,-207.61 845.63,-234.27 946,-192.5 974.06,-180.82 997.06,-153.09 1010.02,-134.56"/>
<polygon fill="midnightblue" stroke="midnightblue" points="1013.05,-136.33 1015.71,-126.07 1007.24,-132.43 1013.05,-136.33"/>
</g>
<!-- Node12 -->
<g id="node12" class="node">
<title>Node12</title>
<g id="a_node12"><a xlink:href="ft__printf__utils_8c.html#a16bac9a6336719688a85c2939b833d7f" target="_top" xlink:title=" ">
<polygon fill="none" stroke="black" points="855.5,-164 855.5,-183 933.5,-183 933.5,-164 855.5,-164"/>
<text text-anchor="middle" x="894.5" y="-171" font-family="Helvetica,sans-Serif" font-size="10.00">ft_printf_hex</text>
</a>
</g>
</g>
<!-- Node10&#45;&gt;Node12 -->
<g id="edge11" class="edge">
<title>Node10&#45;&gt;Node12</title>
<path fill="none" stroke="midnightblue" d="M660.55,-126.05C673.15,-130.59 688.73,-135.82 703,-139.5 750.78,-151.83 806.44,-161.2 845.21,-166.95"/>
<polygon fill="midnightblue" stroke="midnightblue" points="844.78,-170.43 855.18,-168.41 845.79,-163.5 844.78,-170.43"/>
</g>
<!-- Node13 -->
<g id="node13" class="node">
<title>Node13</title>
<g id="a_node13"><a xlink:href="ft__printf__utils_8c.html#a2d77d52ca67555dea62a8fdab36a78ed" target="_top" xlink:title=" ">
<polygon fill="none" stroke="black" points="843,-126 843,-145 946,-145 946,-126 843,-126"/>
<text text-anchor="middle" x="894.5" y="-133" font-family="Helvetica,sans-Serif" font-size="10.00">ft_printf_numbers</text>
</a>
</g>
</g>
<!-- Node10&#45;&gt;Node13 -->
<g id="edge13" class="edge">
<title>Node10&#45;&gt;Node13</title>
<path fill="none" stroke="midnightblue" d="M667.14,-118.83C708.26,-121.86 780.95,-127.21 832.86,-131.03"/>
<polygon fill="midnightblue" stroke="midnightblue" points="832.72,-134.53 842.95,-131.78 833.23,-127.55 832.72,-134.53"/>
</g>
<!-- Node14 -->
<g id="node14" class="node">
<title>Node14</title>
<g id="a_node14"><a xlink:href="ft__printf__utils_8c.html#acad9757b0e67c243fd29ba1689b5ec3c" target="_top" xlink:title=" ">
<polygon fill="none" stroke="black" points="718,-88 718,-107 792,-107 792,-88 718,-88"/>
<text text-anchor="middle" x="755" y="-95" font-family="Helvetica,sans-Serif" font-size="10.00">ft_printf_ptr</text>
</a>
</g>
</g>
<!-- Node10&#45;&gt;Node14 -->
<g id="edge15" class="edge">
<title>Node10&#45;&gt;Node14</title>
<path fill="none" stroke="midnightblue" d="M667.26,-111.41C679.71,-109.41 694.25,-107.08 707.83,-104.9"/>
<polygon fill="midnightblue" stroke="midnightblue" points="708.65,-108.32 717.97,-103.28 707.54,-101.4 708.65,-108.32"/>
</g>
<!-- Node16 -->
<g id="node16" class="node">
<title>Node16</title>
<g id="a_node16"><a xlink:href="ft__printf_8c.html#a6f196c1c438363973a4b649e86ce0d17" target="_top" xlink:title=" ">
<polygon fill="none" stroke="black" points="718.5,-50 718.5,-69 791.5,-69 791.5,-50 718.5,-50"/>
<text text-anchor="middle" x="755" y="-57" font-family="Helvetica,sans-Serif" font-size="10.00">ft_printf_str</text>
</a>
</g>
</g>
<!-- Node10&#45;&gt;Node16 -->
<g id="edge18" class="edge">
<title>Node10&#45;&gt;Node16</title>
<path fill="none" stroke="midnightblue" d="M650.96,-106.88C664.41,-98.74 684.58,-87.05 703,-78.5 707.33,-76.49 711.93,-74.54 716.53,-72.69"/>
<polygon fill="midnightblue" stroke="midnightblue" points="717.82,-75.95 725.88,-69.08 715.29,-69.42 717.82,-75.95"/>
</g>
<!-- Node17 -->
<g id="node17" class="node">
<title>Node17</title>
<g id="a_node17"><a xlink:href="ft__printf__utils_8c.html#a6111b0290c61676c28ad6df27a8ed60f" target="_top" xlink:title=" ">
<polygon fill="none" stroke="black" points="703,-0.5 703,-30.5 807,-30.5 807,-0.5 703,-0.5"/>
<text text-anchor="start" x="711" y="-18.5" font-family="Helvetica,sans-Serif" font-size="10.00">ft_printf_unsigned</text>
<text text-anchor="middle" x="755" y="-7.5" font-family="Helvetica,sans-Serif" font-size="10.00">_numbers</text>
</a>
</g>
</g>
<!-- Node10&#45;&gt;Node17 -->
<g id="edge20" class="edge">
<title>Node10&#45;&gt;Node17</title>
<path fill="none" stroke="midnightblue" d="M642.38,-106.51C653.59,-90.82 677.15,-60.16 703,-40.5 705.09,-38.91 707.31,-37.37 709.59,-35.91"/>
<polygon fill="midnightblue" stroke="midnightblue" points="711.8,-38.67 718.64,-30.58 708.25,-32.64 711.8,-38.67"/>
</g>
<!-- Node12&#45;&gt;Node11 -->
<g id="edge12" class="edge">
<title>Node12&#45;&gt;Node11</title>
<path fill="none" stroke="midnightblue" d="M922.45,-163.97C930.12,-161.09 938.45,-157.81 946,-154.5 962.38,-147.32 980.28,-138.36 994.53,-130.95"/>
<polygon fill="midnightblue" stroke="midnightblue" points="996.53,-133.85 1003.76,-126.11 993.28,-127.66 996.53,-133.85"/>
</g>
<!-- Node13&#45;&gt;Node11 -->
<g id="edge14" class="edge">
<title>Node13&#45;&gt;Node11</title>
<path fill="none" stroke="midnightblue" d="M946.02,-127.88C954.49,-126.6 963.28,-125.28 971.73,-124.01"/>
<polygon fill="midnightblue" stroke="midnightblue" points="972.46,-127.43 981.82,-122.48 971.41,-120.51 972.46,-127.43"/>
</g>
<!-- Node15 -->
<g id="node15" class="node">
<title>Node15</title>
<g id="a_node15"><a xlink:href="ft__printf__utils_8c.html#a35c61f40b8c860fab15b36f75334e619" target="_top" xlink:title=" ">
<polygon fill="none" stroke="black" points="845.5,-88 845.5,-107 943.5,-107 943.5,-88 845.5,-88"/>
<text text-anchor="middle" x="894.5" y="-95" font-family="Helvetica,sans-Serif" font-size="10.00">ft_printf_address</text>
</a>
</g>
</g>
<!-- Node14&#45;&gt;Node15 -->
<g id="edge16" class="edge">
<title>Node14&#45;&gt;Node15</title>
<path fill="none" stroke="midnightblue" d="M792.13,-97.5C805.38,-97.5 820.74,-97.5 835.43,-97.5"/>
<polygon fill="midnightblue" stroke="midnightblue" points="835.46,-101 845.46,-97.5 835.46,-94 835.46,-101"/>
</g>
<!-- Node15&#45;&gt;Node11 -->
<g id="edge17" class="edge">
<title>Node15&#45;&gt;Node11</title>
<path fill="none" stroke="midnightblue" d="M943.85,-104.79C952.93,-106.16 962.44,-107.59 971.56,-108.97"/>
<polygon fill="midnightblue" stroke="midnightblue" points="971.24,-112.46 981.65,-110.49 972.29,-105.54 971.24,-112.46"/>
</g>
<!-- Node16&#45;&gt;Node11 -->
<g id="edge19" class="edge">
<title>Node16&#45;&gt;Node11</title>
<path fill="none" stroke="midnightblue" d="M791.75,-59.22C830.5,-59.79 893.8,-63.32 946,-78.5 964.26,-83.81 983.39,-93.48 997.82,-101.74"/>
<polygon fill="midnightblue" stroke="midnightblue" points="996.17,-104.84 1006.57,-106.9 999.73,-98.81 996.17,-104.84"/>
</g>
<!-- Node17&#45;&gt;Node11 -->
<g id="edge21" class="edge">
<title>Node17&#45;&gt;Node11</title>
<path fill="none" stroke="midnightblue" d="M807.15,-20.99C846.55,-26.64 901.61,-37.66 946,-58.5 968.01,-68.83 989.66,-86.44 1004.09,-99.56"/>
<polygon fill="midnightblue" stroke="midnightblue" points="1002.01,-102.4 1011.7,-106.67 1006.79,-97.28 1002.01,-102.4"/>
</g>
<!-- Node18&#45;&gt;Node9 -->
<g id="edge26" class="edge">
<title>Node18&#45;&gt;Node9</title>
<path fill="none" stroke="midnightblue" d="M452.77,-85.12C466.32,-90.17 485.41,-97.28 502,-103.46"/>
<polygon fill="midnightblue" stroke="midnightblue" points="500.82,-106.75 511.41,-106.97 503.26,-100.2 500.82,-106.75"/>
</g>
<!-- Node20 -->
<g id="node20" class="node">
<title>Node20</title>
<g id="a_node20"><a xlink:href="env__utils_8c.html#a7cc35c974bce053dbba1c1ec1028f36b" target="_top" xlink:title=" ">
<polygon fill="none" stroke="black" points="267.5,-259 267.5,-278 344.5,-278 344.5,-259 267.5,-259"/>
<text text-anchor="middle" x="306" y="-266" font-family="Helvetica,sans-Serif" font-size="10.00">env_lst_size</text>
</a>
</g>
</g>
<!-- Node19&#45;&gt;Node20 -->
<g id="edge28" class="edge">
<title>Node19&#45;&gt;Node20</title>
<path fill="none" stroke="midnightblue" d="M217.59,-268.5C230.25,-268.5 244.16,-268.5 257.1,-268.5"/>
<polygon fill="midnightblue" stroke="midnightblue" points="257.22,-272 267.22,-268.5 257.22,-265 257.22,-272"/>
</g>
<!-- Node21 -->
<g id="node21" class="node">
<title>Node21</title>
<g id="a_node21"><a xlink:href="getenv_8c.html#a0250cce1862c20e31d0c0ece960bc3a0" target="_top" xlink:title=" ">
<polygon fill="none" stroke="black" points="275,-297 275,-316 337,-316 337,-297 275,-297"/>
<text text-anchor="middle" x="306" y="-304" font-family="Helvetica,sans-Serif" font-size="10.00">join_path</text>
</a>
</g>
</g>
<!-- Node19&#45;&gt;Node21 -->
<g id="edge29" class="edge">
<title>Node19&#45;&gt;Node21</title>
<path fill="none" stroke="midnightblue" d="M207.43,-278.09C224.97,-283.2 246.67,-289.52 265.15,-294.9"/>
<polygon fill="midnightblue" stroke="midnightblue" points="264.18,-298.26 274.76,-297.7 266.14,-291.54 264.18,-298.26"/>
</g>
<!-- Node21&#45;&gt;Node5 -->
<g id="edge30" class="edge">
<title>Node21&#45;&gt;Node5</title>
<path fill="none" stroke="midnightblue" d="M337.07,-308.98C378.87,-312.44 454.48,-318.68 499.79,-322.43"/>
<polygon fill="midnightblue" stroke="midnightblue" points="499.54,-325.92 509.79,-323.25 500.11,-318.94 499.54,-325.92"/>
</g>
<!-- Node23 -->
<g id="node23" class="node">
<title>Node23</title>
<g id="a_node23"><a xlink:href="ft__putstr__fd_8c.html#acefce9ac519f8f8b7d3fde33dbafe469" target="_top" xlink:title=" ">
<polygon fill="none" stroke="black" points="270,-50 270,-69 342,-69 342,-50 270,-50"/>
<text text-anchor="middle" x="306" y="-57" font-family="Helvetica,sans-Serif" font-size="10.00">ft_putstr_fd</text>
</a>
</g>
</g>
<!-- Node22&#45;&gt;Node23 -->
<g id="edge32" class="edge">
<title>Node22&#45;&gt;Node23</title>
<path fill="none" stroke="midnightblue" d="M218.32,-72.12C231.65,-70.18 246.33,-68.04 259.76,-66.09"/>
<polygon fill="midnightblue" stroke="midnightblue" points="260.35,-69.54 269.74,-64.63 259.34,-62.61 260.35,-69.54"/>
</g>
<!-- Node24 -->
<g id="node24" class="node">
<title>Node24</title>
<g id="a_node24"><a xlink:href="ft__putchar__fd_8c.html#a8ee15a511946c1397bd2bdea4aed6aee" target="_top" xlink:title=" ">
<polygon fill="none" stroke="black" points="394,-31 394,-50 474,-50 474,-31 394,-31"/>
<text text-anchor="middle" x="434" y="-38" font-family="Helvetica,sans-Serif" font-size="10.00">ft_putchar_fd</text>
</a>
</g>
</g>
<!-- Node23&#45;&gt;Node24 -->
<g id="edge33" class="edge">
<title>Node23&#45;&gt;Node24</title>
<path fill="none" stroke="midnightblue" d="M342.1,-54.21C354.99,-52.26 369.83,-50.03 383.74,-47.93"/>
<polygon fill="midnightblue" stroke="midnightblue" points="384.29,-51.38 393.66,-46.43 383.25,-44.46 384.29,-51.38"/>
</g>
<!-- Node25&#45;&gt;Node2 -->
<g id="edge35" class="edge">
<title>Node25&#45;&gt;Node2</title>
<path fill="none" stroke="midnightblue" d="M180.24,-354.28C191.84,-373.28 219.93,-415.42 254,-439.5 256.66,-441.38 259.53,-443.1 262.51,-444.67"/>
<polygon fill="midnightblue" stroke="midnightblue" points="261.1,-447.87 271.64,-448.92 264.05,-441.53 261.1,-447.87"/>
</g>
<!-- Node25&#45;&gt;Node21 -->
<g id="edge41" class="edge">
<title>Node25&#45;&gt;Node21</title>
<path fill="none" stroke="midnightblue" d="M207.43,-334.91C224.97,-329.8 246.67,-323.48 265.15,-318.1"/>
<polygon fill="midnightblue" stroke="midnightblue" points="266.14,-321.46 274.76,-315.3 264.18,-314.74 266.14,-321.46"/>
</g>
<!-- Node26 -->
<g id="node26" class="node">
<title>Node26</title>
<g id="a_node26"><a xlink:href="ft__split_8c.html#a1b7b6087722961261b63eebafc2e2ed2" target="_top" xlink:title=" ">
<polygon fill="none" stroke="black" points="281,-411 281,-430 331,-430 331,-411 281,-411"/>
<text text-anchor="middle" x="306" y="-418" font-family="Helvetica,sans-Serif" font-size="10.00">ft_split</text>
</a>
</g>
</g>
<!-- Node25&#45;&gt;Node26 -->
<g id="edge36" class="edge">
<title>Node25&#45;&gt;Node26</title>
<path fill="none" stroke="midnightblue" d="M191.03,-354.13C213.38,-367.15 253.47,-390.49 279.65,-405.74"/>
<polygon fill="midnightblue" stroke="midnightblue" points="278.2,-408.94 288.61,-410.95 281.73,-402.9 278.2,-408.94"/>
</g>
<!-- Node30 -->
<g id="node30" class="node">
<title>Node30</title>
<g id="a_node30"><a xlink:href="lst__env__two_8c.html#a4d4a14327b2c3ff88099102b6bd77986" target="_top" xlink:title=" ">
<polygon fill="none" stroke="black" points="254,-335 254,-354 358,-354 358,-335 254,-335"/>
<text text-anchor="middle" x="306" y="-342" font-family="Helvetica,sans-Serif" font-size="10.00">research_key_env</text>
</a>
</g>
</g>
<!-- Node25&#45;&gt;Node30 -->
<g id="edge42" class="edge">
<title>Node25&#45;&gt;Node30</title>
<path fill="none" stroke="midnightblue" d="M211.55,-344.5C221.59,-344.5 232.73,-344.5 243.72,-344.5"/>
<polygon fill="midnightblue" stroke="midnightblue" points="243.73,-348 253.73,-344.5 243.73,-341 243.73,-348"/>
</g>
<!-- Node26&#45;&gt;Node5 -->
<g id="edge40" class="edge">
<title>Node26&#45;&gt;Node5</title>
<path fill="none" stroke="midnightblue" d="M331.05,-423.15C365.07,-425.75 428.19,-426.29 474,-401.5 498.04,-388.49 516.57,-362.2 527.14,-344.22"/>
<polygon fill="midnightblue" stroke="midnightblue" points="530.34,-345.66 532.17,-335.22 524.23,-342.24 530.34,-345.66"/>
</g>
<!-- Node27 -->
<g id="node27" class="node">
<title>Node27</title>
<g id="a_node27"><a xlink:href="ft__split_8c.html#a1d06247602e5b4d7f5a632508babb52b" target="_top" xlink:title=" ">
<polygon fill="none" stroke="black" points="395,-525 395,-544 473,-544 473,-525 395,-525"/>
<text text-anchor="middle" x="434" y="-532" font-family="Helvetica,sans-Serif" font-size="10.00">count_words</text>
</a>
</g>
</g>
<!-- Node26&#45;&gt;Node27 -->
<g id="edge37" class="edge">
<title>Node26&#45;&gt;Node27</title>
<path fill="none" stroke="midnightblue" d="M331.15,-425.37C340.42,-428.22 350.55,-432.66 358,-439.5 385.54,-464.77 367.72,-488.93 394,-515.5 395.39,-516.91 396.91,-518.22 398.51,-519.45"/>
<polygon fill="midnightblue" stroke="midnightblue" points="396.72,-522.47 407.02,-524.92 400.5,-516.57 396.72,-522.47"/>
</g>
<!-- Node28 -->
<g id="node28" class="node">
<title>Node28</title>
<g id="a_node28"><a xlink:href="ft__split_8c.html#ae259f0462674db38fedf9b60f994cd2d" target="_top" xlink:title=" ">
<polygon fill="none" stroke="black" points="419.5,-487 419.5,-506 448.5,-506 448.5,-487 419.5,-487"/>
<text text-anchor="middle" x="434" y="-494" font-family="Helvetica,sans-Serif" font-size="10.00">fill</text>
</a>
</g>
</g>
<!-- Node26&#45;&gt;Node28 -->
<g id="edge38" class="edge">
<title>Node26&#45;&gt;Node28</title>
<path fill="none" stroke="midnightblue" d="M331.18,-426.99C340.04,-430.01 349.88,-434.13 358,-439.5 377.4,-452.34 375.24,-463.74 394,-477.5 398.86,-481.06 404.49,-484.26 409.93,-486.96"/>
<polygon fill="midnightblue" stroke="midnightblue" points="408.78,-490.28 419.33,-491.28 411.7,-483.92 408.78,-490.28"/>
</g>
<!-- Node29 -->
<g id="node29" class="node">
<title>Node29</title>
<g id="a_node29"><a xlink:href="ft__split_8c.html#af520e560e2f385584c8d51d438b6c4cd" target="_top" xlink:title=" ">
<polygon fill="none" stroke="black" points="401.5,-449 401.5,-468 466.5,-468 466.5,-449 401.5,-449"/>
<text text-anchor="middle" x="434" y="-456" font-family="Helvetica,sans-Serif" font-size="10.00">ft_free_all</text>
</a>
</g>
</g>
<!-- Node26&#45;&gt;Node29 -->
<g id="edge39" class="edge">
<title>Node26&#45;&gt;Node29</title>
<path fill="none" stroke="midnightblue" d="M331.29,-427.83C348.3,-432.96 371.45,-439.94 391.37,-445.95"/>
<polygon fill="midnightblue" stroke="midnightblue" points="390.56,-449.36 401.14,-448.89 392.58,-442.65 390.56,-449.36"/>
</g>
<!-- Node30&#45;&gt;Node5 -->
<g id="edge45" class="edge">
<title>Node30&#45;&gt;Node5</title>
<path fill="none" stroke="midnightblue" d="M358.04,-340.28C400.87,-336.75 461.04,-331.77 499.53,-328.6"/>
<polygon fill="midnightblue" stroke="midnightblue" points="500.1,-332.06 509.78,-327.75 499.52,-325.08 500.1,-332.06"/>
</g>
<!-- Node30&#45;&gt;Node6 -->
<g id="edge46" class="edge">
<title>Node30&#45;&gt;Node6</title>
<path fill="none" stroke="midnightblue" d="M340.71,-334.93C346.77,-332.4 352.81,-329.28 358,-325.5 386.72,-304.58 410.22,-269.84 422.87,-248.68"/>
<polygon fill="midnightblue" stroke="midnightblue" points="425.91,-250.41 427.9,-240 419.85,-246.9 425.91,-250.41"/>
</g>
<!-- Node31 -->
<g id="node31" class="node">
<title>Node31</title>
<g id="a_node31"><a xlink:href="ft__strdup_8c.html#aeab425f44e9a04e54160d60d3c9e870c" target="_top" xlink:title=" ">
<polygon fill="none" stroke="black" points="404.5,-373 404.5,-392 463.5,-392 463.5,-373 404.5,-373"/>
<text text-anchor="middle" x="434" y="-380" font-family="Helvetica,sans-Serif" font-size="10.00">ft_strdup</text>
</a>
</g>
</g>
<!-- Node30&#45;&gt;Node31 -->
<g id="edge43" class="edge">
<title>Node30&#45;&gt;Node31</title>
<path fill="none" stroke="midnightblue" d="M338.8,-354.09C355.62,-359.16 376.41,-365.43 394.17,-370.79"/>
<polygon fill="midnightblue" stroke="midnightblue" points="393.65,-374.29 404.23,-373.82 395.67,-367.59 393.65,-374.29"/>
</g>
<!-- Node31&#45;&gt;Node5 -->
<g id="edge44" class="edge">
<title>Node31&#45;&gt;Node5</title>
<path fill="none" stroke="midnightblue" d="M452.3,-372.83C468.45,-363.81 492.74,-350.23 511.18,-339.93"/>
<polygon fill="midnightblue" stroke="midnightblue" points="512.93,-342.96 519.95,-335.03 509.52,-336.85 512.93,-342.96"/>
</g>
</g>
</svg>
