<?xml version="1.0" encoding="UTF-8" standalone="no"?>
<!DOCTYPE svg PUBLIC "-//W3C//DTD SVG 1.1//EN"
 "http://www.w3.org/Graphics/SVG/1.1/DTD/svg11.dtd">
<!-- Generated by graphviz version 2.43.0 (0)
 -->
<!-- Title: here_doc_management Pages: 1 -->
<svg width="654pt" height="206pt"
 viewBox="0.00 0.00 654.00 206.34" xmlns="http://www.w3.org/2000/svg" xmlns:xlink="http://www.w3.org/1999/xlink">
<g id="graph0" class="graph" transform="scale(1 1) rotate(0) translate(4 202.34)">
<title>here_doc_management</title>
<!-- Node1 -->
<g id="node1" class="node">
<title>Node1</title>
<g id="a_node1"><a xlink:title="the function will go through all the commands and check the redirection if we encounter a heredoc we ...">
<polygon fill="#bfbfbf" stroke="black" points="0,-95.5 0,-114.5 131,-114.5 131,-95.5 0,-95.5"/>
<text text-anchor="middle" x="65.5" y="-102.5" font-family="Helvetica,sans-Serif" font-size="10.00">here_doc_management</text>
</a>
</g>
</g>
<!-- Node2 -->
<g id="node2" class="node">
<title>Node2</title>
<g id="a_node2"><a xlink:href="heredoc_8c.html#ab68377acf2c8adf39f991dc425297c09" target="_top" xlink:title="it&#39;s where we open the heredoc and start writing inside our pipe each time we check if it&#39;s the word ...">
<polygon fill="none" stroke="black" points="167,-95.5 167,-114.5 253,-114.5 253,-95.5 167,-95.5"/>
<text text-anchor="middle" x="210" y="-102.5" font-family="Helvetica,sans-Serif" font-size="10.00">heredoc_input</text>
</a>
</g>
</g>
<!-- Node1&#45;&gt;Node2 -->
<g id="edge1" class="edge">
<title>Node1&#45;&gt;Node2</title>
<path fill="none" stroke="midnightblue" d="M131.08,-105C139.57,-105 148.19,-105 156.45,-105"/>
<polygon fill="midnightblue" stroke="midnightblue" points="156.68,-108.5 166.68,-105 156.68,-101.5 156.68,-108.5"/>
</g>
<!-- Node3 -->
<g id="node3" class="node">
<title>Node3</title>
<g id="a_node3"><a xlink:href="heredoc_8c.html#a3e1410633d8c1ad5b1441509a020b0d4" target="_top" xlink:title="allow us to close the file descriptors when we have fork() again the process">
<polygon fill="none" stroke="black" points="428,-114.5 428,-133.5 541,-133.5 541,-114.5 428,-114.5"/>
<text text-anchor="middle" x="484.5" y="-121.5" font-family="Helvetica,sans-Serif" font-size="10.00">close_fd_heredocs2</text>
</a>
</g>
</g>
<!-- Node2&#45;&gt;Node3 -->
<g id="edge2" class="edge">
<title>Node2&#45;&gt;Node3</title>
<path fill="none" stroke="midnightblue" d="M253.28,-107.95C297.19,-111.01 366.5,-115.84 417.61,-119.41"/>
<polygon fill="midnightblue" stroke="midnightblue" points="417.68,-122.92 427.9,-120.12 418.17,-115.94 417.68,-122.92"/>
</g>
<!-- Node4 -->
<g id="node4" class="node">
<title>Node4</title>
<g id="a_node4"><a xlink:href="redirection__multipipe_8c.html#a1bca6910c90a19d96b36506a2e2cebf6" target="_top" xlink:title="as fd are all setup to &#45;1 at the beginning we check if they are open before trying to close we avoid ...">
<polygon fill="none" stroke="black" points="577,-133.5 577,-152.5 646,-152.5 646,-133.5 577,-133.5"/>
<text text-anchor="middle" x="611.5" y="-140.5" font-family="Helvetica,sans-Serif" font-size="10.00">ft_close_fd</text>
</a>
</g>
</g>
<!-- Node2&#45;&gt;Node4 -->
<g id="edge4" class="edge">
<title>Node2&#45;&gt;Node4</title>
<path fill="none" stroke="midnightblue" d="M217.06,-114.58C228.59,-131.79 255.55,-167.4 289,-181 389.16,-221.73 520.33,-179.79 579.35,-156.42"/>
<polygon fill="midnightblue" stroke="midnightblue" points="580.9,-159.57 588.85,-152.57 578.27,-153.09 580.9,-159.57"/>
</g>
<!-- Node5 -->
<g id="node5" class="node">
<title>Node5</title>
<g id="a_node5"><a xlink:href="heredoc_8c.html#ae1fac908d63c4fd12485122128c0c0fd" target="_top" xlink:title="function which allow me to do the loop to call GNL =&gt; there is also the management to leave with the ...">
<polygon fill="none" stroke="black" points="289,-152.5 289,-171.5 392,-171.5 392,-152.5 289,-152.5"/>
<text text-anchor="middle" x="340.5" y="-159.5" font-family="Helvetica,sans-Serif" font-size="10.00">read_gnl_heredoc</text>
</a>
</g>
</g>
<!-- Node2&#45;&gt;Node5 -->
<g id="edge5" class="edge">
<title>Node2&#45;&gt;Node5</title>
<path fill="none" stroke="midnightblue" d="M232.51,-114.54C253.36,-123.79 285.19,-137.91 308.72,-148.35"/>
<polygon fill="midnightblue" stroke="midnightblue" points="307.36,-151.57 317.92,-152.43 310.2,-145.17 307.36,-151.57"/>
</g>
<!-- Node6 -->
<g id="node6" class="node">
<title>Node6</title>
<g id="a_node6"><a xlink:href="ctl_8c.html#a4fd8e3642e456e9a2f7fe4dc8f44ad43" target="_top" xlink:title="remove the echoctl which are the symbol which appears when you press CTRL+C or CTRL+\ it&#39;s different ...">
<polygon fill="none" stroke="black" points="293,-76.5 293,-95.5 388,-95.5 388,-76.5 293,-76.5"/>
<text text-anchor="middle" x="340.5" y="-83.5" font-family="Helvetica,sans-Serif" font-size="10.00">remove_echoctl</text>
</a>
</g>
</g>
<!-- Node2&#45;&gt;Node6 -->
<g id="edge8" class="edge">
<title>Node2&#45;&gt;Node6</title>
<path fill="none" stroke="midnightblue" d="M253.08,-98.78C262.63,-97.37 272.92,-95.84 282.97,-94.36"/>
<polygon fill="midnightblue" stroke="midnightblue" points="283.51,-97.82 292.89,-92.89 282.48,-90.89 283.51,-97.82"/>
</g>
<!-- Node7 -->
<g id="node7" class="node">
<title>Node7</title>
<g id="a_node7"><a xlink:href="signals_8c.html#a7ea78f2f2215fe1ed765af80a1b2893d" target="_top" xlink:title="allow us to warn the process child heredoc it&#39;s time to stop and close the file descriptor">
<polygon fill="none" stroke="black" points="296.5,-38.5 296.5,-57.5 384.5,-57.5 384.5,-38.5 296.5,-38.5"/>
<text text-anchor="middle" x="340.5" y="-45.5" font-family="Helvetica,sans-Serif" font-size="10.00">sigint_heredoc</text>
</a>
</g>
</g>
<!-- Node2&#45;&gt;Node7 -->
<g id="edge9" class="edge">
<title>Node2&#45;&gt;Node7</title>
<path fill="none" stroke="midnightblue" d="M229.37,-95.45C245.03,-87.45 268.25,-75.94 289,-67 293.5,-65.06 298.26,-63.13 303,-61.27"/>
<polygon fill="midnightblue" stroke="midnightblue" points="304.5,-64.44 312.58,-57.6 301.99,-57.91 304.5,-64.44"/>
</g>
<!-- Node8 -->
<g id="node8" class="node">
<title>Node8</title>
<g id="a_node8"><a xlink:href="heredoc_8c.html#a1e49e3a472f4fd4b4c38a3e393868e67" target="_top" xlink:title="origin of creation ; the norm what it is doing ? juste close the fd the right way if we encounter the...">
<polygon fill="none" stroke="black" points="297.5,-0.5 297.5,-19.5 383.5,-19.5 383.5,-0.5 297.5,-0.5"/>
<text text-anchor="middle" x="340.5" y="-7.5" font-family="Helvetica,sans-Serif" font-size="10.00">update_status</text>
</a>
</g>
</g>
<!-- Node2&#45;&gt;Node8 -->
<g id="edge10" class="edge">
<title>Node2&#45;&gt;Node8</title>
<path fill="none" stroke="midnightblue" d="M218.65,-95.29C231.59,-79.44 259.32,-47.86 289,-29 292.11,-27.02 295.45,-25.21 298.89,-23.55"/>
<polygon fill="midnightblue" stroke="midnightblue" points="300.33,-26.74 308.09,-19.52 297.53,-20.32 300.33,-26.74"/>
</g>
<!-- Node3&#45;&gt;Node4 -->
<g id="edge3" class="edge">
<title>Node3&#45;&gt;Node4</title>
<path fill="none" stroke="midnightblue" d="M541.05,-132.44C549.77,-133.77 558.67,-135.12 567.06,-136.4"/>
<polygon fill="midnightblue" stroke="midnightblue" points="566.58,-139.86 576.99,-137.91 567.63,-132.94 566.58,-139.86"/>
</g>
<!-- Node5&#45;&gt;Node3 -->
<g id="edge6" class="edge">
<title>Node5&#45;&gt;Node3</title>
<path fill="none" stroke="midnightblue" d="M377.33,-152.41C395.66,-147.51 418.18,-141.48 437.75,-136.24"/>
<polygon fill="midnightblue" stroke="midnightblue" points="438.92,-139.55 447.68,-133.59 437.11,-132.79 438.92,-139.55"/>
</g>
<!-- Node5&#45;&gt;Node4 -->
<g id="edge7" class="edge">
<title>Node5&#45;&gt;Node4</title>
<path fill="none" stroke="midnightblue" d="M392.1,-158.43C442.43,-154.87 518.87,-149.47 566.69,-146.09"/>
<polygon fill="midnightblue" stroke="midnightblue" points="567,-149.58 576.73,-145.39 566.5,-142.6 567,-149.58"/>
</g>
<!-- Node8&#45;&gt;Node3 -->
<g id="edge11" class="edge">
<title>Node8&#45;&gt;Node3</title>
<path fill="none" stroke="midnightblue" d="M373.53,-19.59C379.91,-22.17 386.37,-25.29 392,-29 409.2,-40.32 447.37,-82.6 468.58,-106.77"/>
<polygon fill="midnightblue" stroke="midnightblue" points="466.09,-109.25 475.31,-114.48 471.37,-104.64 466.09,-109.25"/>
</g>
<!-- Node8&#45;&gt;Node4 -->
<g id="edge12" class="edge">
<title>Node8&#45;&gt;Node4</title>
<path fill="none" stroke="midnightblue" d="M368.46,-19.51C376.14,-22.39 384.46,-25.67 392,-29 463.75,-60.68 544.77,-105.44 585.01,-128.31"/>
<polygon fill="midnightblue" stroke="midnightblue" points="583.45,-131.45 593.87,-133.37 586.92,-125.37 583.45,-131.45"/>
</g>
</g>
</svg>
