<?xml version="1.0" encoding="UTF-8" standalone="no"?>
<!DOCTYPE svg PUBLIC "-//W3C//DTD SVG 1.1//EN"
 "http://www.w3.org/Graphics/SVG/1.1/DTD/svg11.dtd">
<!-- Generated by graphviz version 2.43.0 (0)
 -->
<!-- Title: here_doc_management Pages: 1 -->
<!--zoomable 330 -->
<svg id="main" version="1.1" xmlns="http://www.w3.org/2000/svg" xmlns:xlink="http://www.w3.org/1999/xlink" xml:space="preserve" onload="init(evt)">
<style type="text/css"><![CDATA[
.edge:hover path { stroke: red; }
.edge:hover polygon { stroke: red; fill: red; }
]]></style>
<script type="text/javascript"><![CDATA[
var edges = document.getElementsByTagName('g');
if (edges && edges.length) {
  for (var i=0;i<edges.length;i++) {
    if (edges[i].id.substr(0,4)=='edge') {
      edges[i].setAttribute('class','edge');
    }
  }
}
]]></script>
        <defs>
                <circle id="rim" cx="0" cy="0" r="7"/>
                <circle id="rim2" cx="0" cy="0" r="3.5"/>
                <g id="zoomPlus">
                        <use xlink:href="#rim" fill="#404040">
                                <set attributeName="fill" to="#808080" begin="zoomplus.mouseover" end="zoomplus.mouseout"/>
                        </use>
                        <path d="M-4,0h8M0,-4v8" fill="none" stroke="white" stroke-width="1.5" pointer-events="none"/>
                </g>
                <g id="zoomMin">
                        <use xlink:href="#rim" fill="#404040">
                                <set attributeName="fill" to="#808080" begin="zoomminus.mouseover" end="zoomminus.mouseout"/>
                        </use>
                        <path d="M-4,0h8" fill="none" stroke="white" stroke-width="1.5" pointer-events="none"/>
                </g>
                <g id="dirArrow">
                        <path fill="none" stroke="white" stroke-width="1.5" d="M0,-3.0v7 M-2.5,-0.5L0,-3.0L2.5,-0.5"/>
                </g>
               <g id="resetDef">
                       <use xlink:href="#rim2" fill="#404040">
                               <set attributeName="fill" to="#808080" begin="reset.mouseover" end="reset.mouseout"/>
                       </use>
               </g>
        </defs>

<script type="text/javascript">
var viewWidth = 1211;
var viewHeight = 330;
var sectionId = 'dynsection-43';
</script>
<script xlink:href="svgpan.js"/>
<svg id="graph" class="graph">
<g id="viewport">
<title>here_doc_management</title>
<!-- Node1 -->
<g id="node1" class="node">
<title>Node1</title>
<g id="a_node1"><a xlink:title="the function will go through all the commands and check the redirection if we encounter a heredoc we ...">
<polygon fill="#bfbfbf" stroke="black" points="0,-161.5 0,-180.5 131,-180.5 131,-161.5 0,-161.5"/>
<text text-anchor="middle" x="65.5" y="-168.5" font-family="Helvetica,sans-Serif" font-size="10.00">here_doc_management</text>
</a>
</g>
</g>
<!-- Node2 -->
<g id="node2" class="node">
<title>Node2</title>
<g id="a_node2"><a xlink:href="heredoc_8c.html#a0b4a5d07e8877b06b8977b47a6d51930" target="_top" xlink:title="it&#39;s where we open the heredoc and start writing inside our pipe each time we check if it&#39;s the word ...">
<polygon fill="none" stroke="black" points="167,-161.5 167,-180.5 253,-180.5 253,-161.5 167,-161.5"/>
<text text-anchor="middle" x="210" y="-168.5" font-family="Helvetica,sans-Serif" font-size="10.00">heredoc_input</text>
</a>
</g>
</g>
<!-- Node1&#45;&gt;Node2 -->
<g id="edge1" class="edge">
<title>Node1&#45;&gt;Node2</title>
<path fill="none" stroke="midnightblue" d="M131.08,-171C139.57,-171 148.19,-171 156.45,-171"/>
<polygon fill="midnightblue" stroke="midnightblue" points="156.68,-174.5 166.68,-171 156.68,-167.5 156.68,-174.5"/>
</g>
<!-- Node3 -->
<g id="node3" class="node">
<title>Node3</title>
<g id="a_node3"><a xlink:href="heredoc_8c.html#a98f0cdaa70ea9d777053df568b66e32a" target="_top" xlink:title="origin of creation ; the norm what it is doing ? juste close the fd the right way if we encounter the...">
<polygon fill="none" stroke="black" points="289,-161.5 289,-180.5 402,-180.5 402,-161.5 289,-161.5"/>
<text text-anchor="middle" x="345.5" y="-168.5" font-family="Helvetica,sans-Serif" font-size="10.00">child_work_heredoc</text>
</a>
</g>
</g>
<!-- Node2&#45;&gt;Node3 -->
<g id="edge2" class="edge">
<title>Node2&#45;&gt;Node3</title>
<path fill="none" stroke="midnightblue" d="M253.24,-171C261.37,-171 270.05,-171 278.72,-171"/>
<polygon fill="midnightblue" stroke="midnightblue" points="278.85,-174.5 288.85,-171 278.85,-167.5 278.85,-174.5"/>
</g>
<!-- Node5 -->
<g id="node5" class="node">
<title>Node5</title>
<g id="a_node5"><a xlink:href="utils_8c.html#a1bca6910c90a19d96b36506a2e2cebf6" target="_top" xlink:title="as fd are all setup to &#45;1 at the beginning we check if they are open before trying to close we avoid ...">
<polygon fill="none" stroke="black" points="1134,-151.5 1134,-170.5 1203,-170.5 1203,-151.5 1134,-151.5"/>
<text text-anchor="middle" x="1168.5" y="-158.5" font-family="Helvetica,sans-Serif" font-size="10.00">ft_close_fd</text>
</a>
</g>
</g>
<!-- Node2&#45;&gt;Node5 -->
<g id="edge25" class="edge">
<title>Node2&#45;&gt;Node5</title>
<path fill="none" stroke="midnightblue" d="M218.95,-161.32C249.59,-125.14 364.57,0 488.5,0 488.5,0 488.5,0 945.5,0 1018.01,0 1041.18,-12.95 1098,-58 1126.88,-80.89 1148.16,-119.1 1159.13,-141.99"/>
<polygon fill="midnightblue" stroke="midnightblue" points="1156.07,-143.7 1163.43,-151.32 1162.42,-140.77 1156.07,-143.7"/>
</g>
<!-- Node19 -->
<g id="node19" class="node">
<title>Node19</title>
<g id="a_node19"><a xlink:href="heredoc2_8c.html#ac2c940d294494f86fcc389ffeedfd752" target="_top" xlink:title="origin of creation ; the norm what it is doing ? juste close the fd the right way if we encounter the...">
<polygon fill="none" stroke="black" points="302.5,-275.5 302.5,-294.5 388.5,-294.5 388.5,-275.5 302.5,-275.5"/>
<text text-anchor="middle" x="345.5" y="-282.5" font-family="Helvetica,sans-Serif" font-size="10.00">update_status</text>
</a>
</g>
</g>
<!-- Node2&#45;&gt;Node19 -->
<g id="edge26" class="edge">
<title>Node2&#45;&gt;Node19</title>
<path fill="none" stroke="midnightblue" d="M222.38,-180.72C245.24,-200.24 296.95,-244.39 325.19,-268.51"/>
<polygon fill="midnightblue" stroke="midnightblue" points="323.27,-271.47 333.15,-275.31 327.81,-266.15 323.27,-271.47"/>
</g>
<!-- Node4 -->
<g id="node4" class="node">
<title>Node4</title>
<g id="a_node4"><a xlink:href="heredoc_8c.html#a3e1410633d8c1ad5b1441509a020b0d4" target="_top" xlink:title="allow us to close the file descriptors when we have fork() again the process">
<polygon fill="none" stroke="black" points="577,-294.5 577,-313.5 690,-313.5 690,-294.5 577,-294.5"/>
<text text-anchor="middle" x="633.5" y="-301.5" font-family="Helvetica,sans-Serif" font-size="10.00">close_fd_heredocs2</text>
</a>
</g>
</g>
<!-- Node3&#45;&gt;Node4 -->
<g id="edge3" class="edge">
<title>Node3&#45;&gt;Node4</title>
<path fill="none" stroke="midnightblue" d="M350.98,-180.82C362.01,-203.73 392.91,-260.61 438,-285 477.12,-306.16 527.17,-310.63 566.71,-309.96"/>
<polygon fill="midnightblue" stroke="midnightblue" points="566.88,-313.46 576.78,-309.67 566.69,-306.46 566.88,-313.46"/>
</g>
<!-- Node3&#45;&gt;Node5 -->
<g id="edge13" class="edge">
<title>Node3&#45;&gt;Node5</title>
<path fill="none" stroke="midnightblue" d="M357.61,-161.43C394.19,-130.94 515.32,-38 632.5,-38 632.5,-38 632.5,-38 945.5,-38 1031.98,-38 1116.34,-110.3 1151,-144.03"/>
<polygon fill="midnightblue" stroke="midnightblue" points="1148.8,-146.78 1158.36,-151.35 1153.74,-141.81 1148.8,-146.78"/>
</g>
<!-- Node6 -->
<g id="node6" class="node">
<title>Node6</title>
<g id="a_node6"><a xlink:href="lst__cmd2_8c.html#a132395876bb5a7cfe926b9e37571a1e3" target="_top" xlink:title=" ">
<polygon fill="none" stroke="black" points="587.5,-161.5 587.5,-180.5 679.5,-180.5 679.5,-161.5 587.5,-161.5"/>
<text text-anchor="middle" x="633.5" y="-168.5" font-family="Helvetica,sans-Serif" font-size="10.00">destructor_cmd</text>
</a>
</g>
</g>
<!-- Node3&#45;&gt;Node6 -->
<g id="edge5" class="edge">
<title>Node3&#45;&gt;Node6</title>
<path fill="none" stroke="midnightblue" d="M363.73,-161.42C381.65,-152.05 410.84,-138.42 438,-133 482.89,-124.05 496.11,-124.05 541,-133 563.92,-137.57 588.28,-147.99 606.09,-156.76"/>
<polygon fill="midnightblue" stroke="midnightblue" points="604.77,-160.02 615.27,-161.42 607.94,-153.77 604.77,-160.02"/>
</g>
<!-- Node10 -->
<g id="node10" class="node">
<title>Node10</title>
<g id="a_node10"><a xlink:href="lst__env_8c.html#a226ae0aa054e697998b2ecbc5d61d592" target="_top" xlink:title=" ">
<polygon fill="none" stroke="black" points="589,-104.5 589,-123.5 678,-123.5 678,-104.5 589,-104.5"/>
<text text-anchor="middle" x="633.5" y="-111.5" font-family="Helvetica,sans-Serif" font-size="10.00">destructor_env</text>
</a>
</g>
</g>
<!-- Node3&#45;&gt;Node10 -->
<g id="edge11" class="edge">
<title>Node3&#45;&gt;Node10</title>
<path fill="none" stroke="midnightblue" d="M359.97,-161.49C377.15,-149.96 408.22,-131.07 438,-123 484.27,-110.46 538.97,-109.05 578.56,-110.29"/>
<polygon fill="midnightblue" stroke="midnightblue" points="578.67,-113.8 588.79,-110.68 578.93,-106.8 578.67,-113.8"/>
</g>
<!-- Node12 -->
<g id="node12" class="node">
<title>Node12</title>
<g id="a_node12"><a xlink:href="heredoc_8c.html#aa11261ffe1d93fd87488514776e2df34" target="_top" xlink:title=" ">
<polygon fill="none" stroke="black" points="438,-256.5 438,-275.5 541,-275.5 541,-256.5 438,-256.5"/>
<text text-anchor="middle" x="489.5" y="-263.5" font-family="Helvetica,sans-Serif" font-size="10.00">read_gnl_heredoc</text>
</a>
</g>
</g>
<!-- Node3&#45;&gt;Node12 -->
<g id="edge14" class="edge">
<title>Node3&#45;&gt;Node12</title>
<path fill="none" stroke="midnightblue" d="M355.83,-180.61C371.54,-196.32 404.79,-227.7 438,-247 441.41,-248.98 445.07,-250.83 448.79,-252.52"/>
<polygon fill="midnightblue" stroke="midnightblue" points="447.53,-255.79 458.1,-256.44 450.24,-249.34 447.53,-255.79"/>
</g>
<!-- Node16 -->
<g id="node16" class="node">
<title>Node16</title>
<g id="a_node16"><a xlink:href="ctl_8c.html#a4fd8e3642e456e9a2f7fe4dc8f44ad43" target="_top" xlink:title="remove the echoctl which are the symbol which appears when you press CTRL+C or CTRL+\ it&#39;s different ...">
<polygon fill="none" stroke="black" points="442,-218.5 442,-237.5 537,-237.5 537,-218.5 442,-218.5"/>
<text text-anchor="middle" x="489.5" y="-225.5" font-family="Helvetica,sans-Serif" font-size="10.00">remove_echoctl</text>
</a>
</g>
</g>
<!-- Node3&#45;&gt;Node16 -->
<g id="edge22" class="edge">
<title>Node3&#45;&gt;Node16</title>
<path fill="none" stroke="midnightblue" d="M368.98,-180.58C387.44,-188.4 414.33,-199.63 438,-209 442.83,-210.91 447.94,-212.89 452.97,-214.81"/>
<polygon fill="midnightblue" stroke="midnightblue" points="451.89,-218.14 462.49,-218.4 454.37,-211.59 451.89,-218.14"/>
</g>
<!-- Node17 -->
<g id="node17" class="node">
<title>Node17</title>
<g id="a_node17"><a xlink:href="signals_8c.html#a7ea78f2f2215fe1ed765af80a1b2893d" target="_top" xlink:title="allow us to warn the process child heredoc it&#39;s time to stop and close the file descriptor">
<polygon fill="none" stroke="black" points="445.5,-180.5 445.5,-199.5 533.5,-199.5 533.5,-180.5 445.5,-180.5"/>
<text text-anchor="middle" x="489.5" y="-187.5" font-family="Helvetica,sans-Serif" font-size="10.00">sigint_heredoc</text>
</a>
</g>
</g>
<!-- Node3&#45;&gt;Node17 -->
<g id="edge23" class="edge">
<title>Node3&#45;&gt;Node17</title>
<path fill="none" stroke="midnightblue" d="M402.21,-178.45C413.05,-179.9 424.38,-181.42 435.14,-182.86"/>
<polygon fill="midnightblue" stroke="midnightblue" points="434.86,-186.35 445.24,-184.21 435.79,-179.42 434.86,-186.35"/>
</g>
<!-- Node18 -->
<g id="node18" class="node">
<title>Node18</title>
<g id="a_node18"><a xlink:href="signals_8c.html#a368a774e2b304a3de55f58168563967d" target="_top" xlink:title=" ">
<polygon fill="none" stroke="black" points="443.5,-142.5 443.5,-161.5 535.5,-161.5 535.5,-142.5 443.5,-142.5"/>
<text text-anchor="middle" x="489.5" y="-149.5" font-family="Helvetica,sans-Serif" font-size="10.00">sigquit_handler</text>
</a>
</g>
</g>
<!-- Node3&#45;&gt;Node18 -->
<g id="edge24" class="edge">
<title>Node3&#45;&gt;Node18</title>
<path fill="none" stroke="midnightblue" d="M402.21,-163.55C412.47,-162.17 423.17,-160.74 433.41,-159.37"/>
<polygon fill="midnightblue" stroke="midnightblue" points="434.01,-162.82 443.46,-158.03 433.08,-155.88 434.01,-162.82"/>
</g>
<!-- Node4&#45;&gt;Node5 -->
<g id="edge4" class="edge">
<title>Node4&#45;&gt;Node5</title>
<path fill="none" stroke="midnightblue" d="M690.04,-307.94C762.59,-311.55 892.98,-312.75 1000,-285 1046.95,-272.83 1059.18,-266.07 1098,-237 1120.22,-220.36 1141.05,-195.95 1154,-179.32"/>
<polygon fill="midnightblue" stroke="midnightblue" points="1157.08,-181.05 1160.35,-170.97 1151.51,-176.82 1157.08,-181.05"/>
</g>
<!-- Node7 -->
<g id="node7" class="node">
<title>Node7</title>
<g id="a_node7"><a xlink:href="lst__cmd2_8c.html#a8e2b63759f149b547e0d07f210ede9b3" target="_top" xlink:title=" ">
<polygon fill="none" stroke="black" points="759,-161.5 759,-180.5 820,-180.5 820,-161.5 759,-161.5"/>
<text text-anchor="middle" x="789.5" y="-168.5" font-family="Helvetica,sans-Serif" font-size="10.00">pop_cmd</text>
</a>
</g>
</g>
<!-- Node6&#45;&gt;Node7 -->
<g id="edge6" class="edge">
<title>Node6&#45;&gt;Node7</title>
<path fill="none" stroke="midnightblue" d="M679.87,-171C701.73,-171 727.71,-171 748.77,-171"/>
<polygon fill="midnightblue" stroke="midnightblue" points="748.99,-174.5 758.99,-171 748.99,-167.5 748.99,-174.5"/>
</g>
<!-- Node7&#45;&gt;Node5 -->
<g id="edge10" class="edge">
<title>Node7&#45;&gt;Node5</title>
<path fill="none" stroke="midnightblue" d="M820.08,-170.22C886.06,-168.47 1045.57,-164.23 1123.36,-162.17"/>
<polygon fill="midnightblue" stroke="midnightblue" points="1123.87,-165.66 1133.77,-161.89 1123.68,-158.66 1123.87,-165.66"/>
</g>
<!-- Node8 -->
<g id="node8" class="node">
<title>Node8</title>
<g id="a_node8"><a xlink:href="lst__redir2_8c.html#a30ccaf401a4f897e48ead5fe54f4b307" target="_top" xlink:title=" ">
<polygon fill="none" stroke="black" points="897.5,-132.5 897.5,-151.5 991.5,-151.5 991.5,-132.5 897.5,-132.5"/>
<text text-anchor="middle" x="944.5" y="-139.5" font-family="Helvetica,sans-Serif" font-size="10.00">destructor_redir</text>
</a>
</g>
</g>
<!-- Node7&#45;&gt;Node8 -->
<g id="edge7" class="edge">
<title>Node7&#45;&gt;Node8</title>
<path fill="none" stroke="midnightblue" d="M820.36,-165.34C839.45,-161.72 864.81,-156.92 887.55,-152.61"/>
<polygon fill="midnightblue" stroke="midnightblue" points="888.27,-156.03 897.44,-150.73 886.97,-149.15 888.27,-156.03"/>
</g>
<!-- Node9 -->
<g id="node9" class="node">
<title>Node9</title>
<g id="a_node9"><a xlink:href="lst__redir2_8c.html#ade8f0bdda51d9bf348ebeb38fefba881" target="_top" xlink:title=" ">
<polygon fill="none" stroke="black" points="1036,-132.5 1036,-151.5 1098,-151.5 1098,-132.5 1036,-132.5"/>
<text text-anchor="middle" x="1067" y="-139.5" font-family="Helvetica,sans-Serif" font-size="10.00">pop_redir</text>
</a>
</g>
</g>
<!-- Node8&#45;&gt;Node9 -->
<g id="edge8" class="edge">
<title>Node8&#45;&gt;Node9</title>
<path fill="none" stroke="midnightblue" d="M991.74,-142C1002.91,-142 1014.75,-142 1025.63,-142"/>
<polygon fill="midnightblue" stroke="midnightblue" points="1025.7,-145.5 1035.7,-142 1025.7,-138.5 1025.7,-145.5"/>
</g>
<!-- Node9&#45;&gt;Node5 -->
<g id="edge9" class="edge">
<title>Node9&#45;&gt;Node5</title>
<path fill="none" stroke="midnightblue" d="M1098.12,-147.75C1106.18,-149.29 1115.06,-150.99 1123.69,-152.63"/>
<polygon fill="midnightblue" stroke="midnightblue" points="1123.17,-156.1 1133.65,-154.54 1124.49,-149.22 1123.17,-156.1"/>
</g>
<!-- Node11 -->
<g id="node11" class="node">
<title>Node11</title>
<g id="a_node11"><a xlink:href="lst__env_8c.html#a058c245b5f2ef22f9d2659f90e4d3537" target="_top" xlink:title=" ">
<polygon fill="none" stroke="black" points="760.5,-104.5 760.5,-123.5 818.5,-123.5 818.5,-104.5 760.5,-104.5"/>
<text text-anchor="middle" x="789.5" y="-111.5" font-family="Helvetica,sans-Serif" font-size="10.00">pop_env</text>
</a>
</g>
</g>
<!-- Node10&#45;&gt;Node11 -->
<g id="edge12" class="edge">
<title>Node10&#45;&gt;Node11</title>
<path fill="none" stroke="midnightblue" d="M678.22,-114C700.84,-114 728.2,-114 750.02,-114"/>
<polygon fill="midnightblue" stroke="midnightblue" points="750.23,-117.5 760.23,-114 750.23,-110.5 750.23,-117.5"/>
</g>
<!-- Node12&#45;&gt;Node4 -->
<g id="edge15" class="edge">
<title>Node12&#45;&gt;Node4</title>
<path fill="none" stroke="midnightblue" d="M526.33,-275.59C544.66,-280.49 567.18,-286.52 586.75,-291.76"/>
<polygon fill="midnightblue" stroke="midnightblue" points="586.11,-295.21 596.68,-294.41 587.92,-288.45 586.11,-295.21"/>
</g>
<!-- Node12&#45;&gt;Node5 -->
<g id="edge18" class="edge">
<title>Node12&#45;&gt;Node5</title>
<path fill="none" stroke="midnightblue" d="M530.72,-256.46C587.73,-243.79 695.46,-223 788.5,-223 788.5,-223 788.5,-223 945.5,-223 1016.81,-223 1096.42,-192.95 1138.22,-174.69"/>
<polygon fill="midnightblue" stroke="midnightblue" points="1139.81,-177.82 1147.52,-170.55 1136.96,-171.42 1139.81,-177.82"/>
</g>
<!-- Node12&#45;&gt;Node6 -->
<g id="edge16" class="edge">
<title>Node12&#45;&gt;Node6</title>
<path fill="none" stroke="midnightblue" d="M522.56,-256.45C528.93,-253.87 535.38,-250.73 541,-247 560.38,-234.13 559.3,-224.1 577,-209 586.52,-200.88 597.8,-192.89 607.69,-186.36"/>
<polygon fill="midnightblue" stroke="midnightblue" points="609.8,-189.16 616.3,-180.8 606,-183.28 609.8,-189.16"/>
</g>
<!-- Node12&#45;&gt;Node10 -->
<g id="edge17" class="edge">
<title>Node12&#45;&gt;Node10</title>
<path fill="none" stroke="midnightblue" d="M527.24,-256.5C532.3,-254.02 537.09,-250.9 541,-247 572.97,-215.11 549.09,-187.49 577,-152 584.29,-142.72 594.48,-134.85 604.14,-128.71"/>
<polygon fill="midnightblue" stroke="midnightblue" points="605.96,-131.7 612.76,-123.58 602.37,-125.69 605.96,-131.7"/>
</g>
<!-- Node13 -->
<g id="node13" class="node">
<title>Node13</title>
<g id="a_node13"><a xlink:href="heredoc2_8c.html#a62cf028a22b96be266416a01e88726f0" target="_top" xlink:title="function to write on the heredoc file depending if we have a $ sign or not we write or we expand">
<polygon fill="none" stroke="black" points="583,-256.5 583,-275.5 684,-275.5 684,-256.5 583,-256.5"/>
<text text-anchor="middle" x="633.5" y="-263.5" font-family="Helvetica,sans-Serif" font-size="10.00">write_to_heredoc</text>
</a>
</g>
</g>
<!-- Node12&#45;&gt;Node13 -->
<g id="edge19" class="edge">
<title>Node12&#45;&gt;Node13</title>
<path fill="none" stroke="midnightblue" d="M541.36,-266C551.51,-266 562.26,-266 572.67,-266"/>
<polygon fill="midnightblue" stroke="midnightblue" points="572.94,-269.5 582.94,-266 572.94,-262.5 572.94,-269.5"/>
</g>
<!-- Node14 -->
<g id="node14" class="node">
<title>Node14</title>
<g id="a_node14"><a xlink:href="heredoc2_8c.html#a2a5c565389701ca49d867d3746245106" target="_top" xlink:title=" ">
<polygon fill="none" stroke="black" points="726,-256.5 726,-275.5 853,-275.5 853,-256.5 726,-256.5"/>
<text text-anchor="middle" x="789.5" y="-263.5" font-family="Helvetica,sans-Serif" font-size="10.00">write_heredoc_expand</text>
</a>
</g>
</g>
<!-- Node13&#45;&gt;Node14 -->
<g id="edge20" class="edge">
<title>Node13&#45;&gt;Node14</title>
<path fill="none" stroke="midnightblue" d="M684.07,-266C694.14,-266 704.92,-266 715.59,-266"/>
<polygon fill="midnightblue" stroke="midnightblue" points="715.77,-269.5 725.77,-266 715.77,-262.5 715.77,-269.5"/>
</g>
<!-- Node15 -->
<g id="node15" class="node">
<title>Node15</title>
<g id="a_node15"><a xlink:href="lst__env__two_8c.html#a8cd6579fc3858072521e55ef235a2637" target="_top" xlink:title=" ">
<polygon fill="none" stroke="black" points="889,-256.5 889,-275.5 1000,-275.5 1000,-256.5 889,-256.5"/>
<text text-anchor="middle" x="944.5" y="-263.5" font-family="Helvetica,sans-Serif" font-size="10.00">research_node_env</text>
</a>
</g>
</g>
<!-- Node14&#45;&gt;Node15 -->
<g id="edge21" class="edge">
<title>Node14&#45;&gt;Node15</title>
<path fill="none" stroke="midnightblue" d="M853.17,-266C861.5,-266 870.06,-266 878.43,-266"/>
<polygon fill="midnightblue" stroke="midnightblue" points="878.52,-269.5 888.52,-266 878.52,-262.5 878.52,-269.5"/>
</g>
<!-- Node19&#45;&gt;Node4 -->
<g id="edge27" class="edge">
<title>Node19&#45;&gt;Node4</title>
<path fill="none" stroke="midnightblue" d="M366.66,-294.57C384.84,-302.63 412.55,-313.55 438,-318 484.38,-326.11 537.77,-321.27 576.86,-315.17"/>
<polygon fill="midnightblue" stroke="midnightblue" points="577.68,-318.58 586.99,-313.51 576.55,-311.67 577.68,-318.58"/>
</g>
</g>
</svg>
        <g id="navigator" transform="translate(0 0)" fill="#404254">
                <rect fill="#f2f5e9" fill-opacity="0.5" stroke="#606060" stroke-width=".5" x="0" y="0" width="60" height="60"/>
                <use id="zoomplus" xlink:href="#zoomPlus" x="17" y="9" onmousedown="handleZoom(evt,'in')"/>
                <use id="zoomminus" xlink:href="#zoomMin" x="42" y="9" onmousedown="handleZoom(evt,'out')"/>
                <use id="reset" xlink:href="#resetDef" x="30" y="36" onmousedown="handleReset()"/>
                <g id="arrowUp" xlink:href="#dirArrow" transform="translate(30 24)" onmousedown="handlePan(0,-1)">
                  <use xlink:href="#rim" fill="#404040">
                        <set attributeName="fill" to="#808080" begin="arrowUp.mouseover" end="arrowUp.mouseout"/>
                  </use>
                  <path fill="none" stroke="white" stroke-width="1.5" d="M0,-3.0v7 M-2.5,-0.5L0,-3.0L2.5,-0.5"/>
                </g>
                <g id="arrowRight" xlink:href="#dirArrow" transform="rotate(90) translate(36 -43)" onmousedown="handlePan(1,0)">
                  <use xlink:href="#rim" fill="#404040">
                        <set attributeName="fill" to="#808080" begin="arrowRight.mouseover" end="arrowRight.mouseout"/>
                  </use>
                  <path fill="none" stroke="white" stroke-width="1.5" d="M0,-3.0v7 M-2.5,-0.5L0,-3.0L2.5,-0.5"/>
                </g>
                <g id="arrowDown" xlink:href="#dirArrow" transform="rotate(180) translate(-30 -48)" onmousedown="handlePan(0,1)">
                  <use xlink:href="#rim" fill="#404040">
                        <set attributeName="fill" to="#808080" begin="arrowDown.mouseover" end="arrowDown.mouseout"/>
                  </use>
                  <path fill="none" stroke="white" stroke-width="1.5" d="M0,-3.0v7 M-2.5,-0.5L0,-3.0L2.5,-0.5"/>
                </g>
                <g id="arrowLeft" xlink:href="#dirArrow" transform="rotate(270) translate(-36 17)" onmousedown="handlePan(-1,0)">
                  <use xlink:href="#rim" fill="#404040">
                        <set attributeName="fill" to="#808080" begin="arrowLeft.mouseover" end="arrowLeft.mouseout"/>
                  </use>
                  <path fill="none" stroke="white" stroke-width="1.5" d="M0,-3.0v7 M-2.5,-0.5L0,-3.0L2.5,-0.5"/>
                </g>
        </g>
        <svg viewBox="0 0 15 15" width="100%" height="30px" preserveAspectRatio="xMaxYMin meet">
         <g id="arrow_out" transform="scale(0.3 0.3)">
          <a xlink:href="minishell_8h_a17337782f10170a6f2f9188bf557de0f_cgraph_org.svg" target="_base">
           <rect id="button" ry="5" rx="5" y="6" x="6" height="38" width="38"
                fill="#f2f5e9" fill-opacity="0.5" stroke="#606060" stroke-width="1.0"/>
           <path id="arrow"
             d="M 11.500037,31.436501 C 11.940474,20.09759 22.043105,11.32322 32.158766,21.979434 L 37.068811,17.246167 C 37.068811,17.246167 37.088388,32 37.088388,32 L 22.160133,31.978069 C 22.160133,31.978069 26.997745,27.140456 26.997745,27.140456 C 18.528582,18.264221 13.291696,25.230495 11.500037,31.436501 z"
             style="fill:#404040;"/>
          </a>
         </g>
        </svg>
</svg>
