<?xml version="1.0" encoding="UTF-8" standalone="no"?>
<!DOCTYPE svg PUBLIC "-//W3C//DTD SVG 1.1//EN"
 "http://www.w3.org/Graphics/SVG/1.1/DTD/svg11.dtd">
<!-- Generated by graphviz version 2.43.0 (0)
 -->
<!-- Title: pwd Pages: 1 -->
<svg width="633pt" height="221pt"
 viewBox="0.00 0.00 633.00 221.09" xmlns="http://www.w3.org/2000/svg" xmlns:xlink="http://www.w3.org/1999/xlink">
<g id="graph0" class="graph" transform="scale(1 1) rotate(0) translate(4 217.09)">
<title>pwd</title>
<!-- Node1 -->
<g id="node1" class="node">
<title>Node1</title>
<g id="a_node1"><a xlink:title=" ">
<polygon fill="#bfbfbf" stroke="black" points="0,-107 0,-126 37,-126 37,-107 0,-107"/>
<text text-anchor="middle" x="18.5" y="-114" font-family="Helvetica,sans-Serif" font-size="10.00">pwd</text>
</a>
</g>
</g>
<!-- Node2 -->
<g id="node2" class="node">
<title>Node2</title>
<g id="a_node2"><a xlink:href="ft__printf_8c.html#a1ee8ae8a80a7d9141ea5339af8565f2e" target="_top" xlink:title=" ">
<polygon fill="none" stroke="black" points="73,-107 73,-126 128,-126 128,-107 73,-107"/>
<text text-anchor="middle" x="100.5" y="-114" font-family="Helvetica,sans-Serif" font-size="10.00">ft_printf</text>
</a>
</g>
</g>
<!-- Node1&#45;&gt;Node2 -->
<g id="edge1" class="edge">
<title>Node1&#45;&gt;Node2</title>
<path fill="none" stroke="midnightblue" d="M37.25,-116.5C44.8,-116.5 53.89,-116.5 62.76,-116.5"/>
<polygon fill="midnightblue" stroke="midnightblue" points="62.98,-120 72.98,-116.5 62.98,-113 62.98,-120"/>
</g>
<!-- Node3 -->
<g id="node3" class="node">
<title>Node3</title>
<g id="a_node3"><a xlink:href="ft__printf_8c.html#afd374d693dd18da657053dbc77229828" target="_top" xlink:title=" ">
<polygon fill="none" stroke="black" points="164,-107 164,-126 229,-126 229,-107 164,-107"/>
<text text-anchor="middle" x="196.5" y="-114" font-family="Helvetica,sans-Serif" font-size="10.00">ft_convert</text>
</a>
</g>
</g>
<!-- Node2&#45;&gt;Node3 -->
<g id="edge2" class="edge">
<title>Node2&#45;&gt;Node3</title>
<path fill="none" stroke="midnightblue" d="M128.19,-116.5C136.14,-116.5 145.06,-116.5 153.74,-116.5"/>
<polygon fill="midnightblue" stroke="midnightblue" points="153.75,-120 163.75,-116.5 153.75,-113 153.75,-120"/>
</g>
<!-- Node4 -->
<g id="node4" class="node">
<title>Node4</title>
<g id="a_node4"><a xlink:href="ft__printf_8c.html#a39d98b19c2583fcd34e4df5eb8ae467f" target="_top" xlink:title=" ">
<polygon fill="none" stroke="black" points="544,-107 544,-126 625,-126 625,-107 544,-107"/>
<text text-anchor="middle" x="584.5" y="-114" font-family="Helvetica,sans-Serif" font-size="10.00">ft_printf_char</text>
</a>
</g>
</g>
<!-- Node3&#45;&gt;Node4 -->
<g id="edge3" class="edge">
<title>Node3&#45;&gt;Node4</title>
<path fill="none" stroke="midnightblue" d="M208.64,-126.12C221.4,-136.64 243.36,-153.23 265,-162.5 365.03,-205.34 407.53,-234.31 508,-192.5 536.06,-180.82 559.06,-153.09 572.02,-134.56"/>
<polygon fill="midnightblue" stroke="midnightblue" points="575.05,-136.33 577.71,-126.07 569.24,-132.43 575.05,-136.33"/>
</g>
<!-- Node5 -->
<g id="node5" class="node">
<title>Node5</title>
<g id="a_node5"><a xlink:href="ft__printf__utils_8c.html#a16bac9a6336719688a85c2939b833d7f" target="_top" xlink:title=" ">
<polygon fill="none" stroke="black" points="417.5,-164 417.5,-183 495.5,-183 495.5,-164 417.5,-164"/>
<text text-anchor="middle" x="456.5" y="-171" font-family="Helvetica,sans-Serif" font-size="10.00">ft_printf_hex</text>
</a>
</g>
</g>
<!-- Node3&#45;&gt;Node5 -->
<g id="edge4" class="edge">
<title>Node3&#45;&gt;Node5</title>
<path fill="none" stroke="midnightblue" d="M224.19,-126.11C236.51,-130.31 251.38,-135.05 265,-138.5 312.87,-150.64 368.52,-160.37 407.26,-166.46"/>
<polygon fill="midnightblue" stroke="midnightblue" points="406.81,-169.93 417.23,-168.01 407.88,-163.02 406.81,-169.93"/>
</g>
<!-- Node6 -->
<g id="node6" class="node">
<title>Node6</title>
<g id="a_node6"><a xlink:href="ft__printf__utils_8c.html#a2d77d52ca67555dea62a8fdab36a78ed" target="_top" xlink:title=" ">
<polygon fill="none" stroke="black" points="405,-126 405,-145 508,-145 508,-126 405,-126"/>
<text text-anchor="middle" x="456.5" y="-133" font-family="Helvetica,sans-Serif" font-size="10.00">ft_printf_numbers</text>
</a>
</g>
</g>
<!-- Node3&#45;&gt;Node6 -->
<g id="edge6" class="edge">
<title>Node3&#45;&gt;Node6</title>
<path fill="none" stroke="midnightblue" d="M229.14,-118.83C270.26,-121.86 342.95,-127.21 394.86,-131.03"/>
<polygon fill="midnightblue" stroke="midnightblue" points="394.72,-134.53 404.95,-131.78 395.23,-127.55 394.72,-134.53"/>
</g>
<!-- Node7 -->
<g id="node7" class="node">
<title>Node7</title>
<g id="a_node7"><a xlink:href="ft__printf__utils_8c.html#acad9757b0e67c243fd29ba1689b5ec3c" target="_top" xlink:title=" ">
<polygon fill="none" stroke="black" points="280,-88 280,-107 354,-107 354,-88 280,-88"/>
<text text-anchor="middle" x="317" y="-95" font-family="Helvetica,sans-Serif" font-size="10.00">ft_printf_ptr</text>
</a>
</g>
</g>
<!-- Node3&#45;&gt;Node7 -->
<g id="edge8" class="edge">
<title>Node3&#45;&gt;Node7</title>
<path fill="none" stroke="midnightblue" d="M229.26,-111.41C241.71,-109.41 256.25,-107.08 269.83,-104.9"/>
<polygon fill="midnightblue" stroke="midnightblue" points="270.65,-108.32 279.97,-103.28 269.54,-101.4 270.65,-108.32"/>
</g>
<!-- Node9 -->
<g id="node9" class="node">
<title>Node9</title>
<g id="a_node9"><a xlink:href="ft__printf_8c.html#a6f196c1c438363973a4b649e86ce0d17" target="_top" xlink:title=" ">
<polygon fill="none" stroke="black" points="280.5,-50 280.5,-69 353.5,-69 353.5,-50 280.5,-50"/>
<text text-anchor="middle" x="317" y="-57" font-family="Helvetica,sans-Serif" font-size="10.00">ft_printf_str</text>
</a>
</g>
</g>
<!-- Node3&#45;&gt;Node9 -->
<g id="edge11" class="edge">
<title>Node3&#45;&gt;Node9</title>
<path fill="none" stroke="midnightblue" d="M212.96,-106.88C226.41,-98.74 246.58,-87.05 265,-78.5 269.33,-76.49 273.93,-74.54 278.53,-72.69"/>
<polygon fill="midnightblue" stroke="midnightblue" points="279.82,-75.95 287.88,-69.08 277.29,-69.42 279.82,-75.95"/>
</g>
<!-- Node10 -->
<g id="node10" class="node">
<title>Node10</title>
<g id="a_node10"><a xlink:href="ft__printf__utils_8c.html#a6111b0290c61676c28ad6df27a8ed60f" target="_top" xlink:title=" ">
<polygon fill="none" stroke="black" points="265,-0.5 265,-30.5 369,-30.5 369,-0.5 265,-0.5"/>
<text text-anchor="start" x="273" y="-18.5" font-family="Helvetica,sans-Serif" font-size="10.00">ft_printf_unsigned</text>
<text text-anchor="middle" x="317" y="-7.5" font-family="Helvetica,sans-Serif" font-size="10.00">_numbers</text>
</a>
</g>
</g>
<!-- Node3&#45;&gt;Node10 -->
<g id="edge13" class="edge">
<title>Node3&#45;&gt;Node10</title>
<path fill="none" stroke="midnightblue" d="M204.38,-106.51C215.59,-90.82 239.15,-60.16 265,-40.5 267.09,-38.91 269.31,-37.37 271.59,-35.91"/>
<polygon fill="midnightblue" stroke="midnightblue" points="273.8,-38.67 280.64,-30.58 270.25,-32.64 273.8,-38.67"/>
</g>
<!-- Node5&#45;&gt;Node4 -->
<g id="edge5" class="edge">
<title>Node5&#45;&gt;Node4</title>
<path fill="none" stroke="midnightblue" d="M484.45,-163.97C492.12,-161.09 500.45,-157.81 508,-154.5 524.38,-147.32 542.28,-138.36 556.53,-130.95"/>
<polygon fill="midnightblue" stroke="midnightblue" points="558.53,-133.85 565.76,-126.11 555.28,-127.66 558.53,-133.85"/>
</g>
<!-- Node6&#45;&gt;Node4 -->
<g id="edge7" class="edge">
<title>Node6&#45;&gt;Node4</title>
<path fill="none" stroke="midnightblue" d="M508.02,-127.88C516.49,-126.6 525.28,-125.28 533.73,-124.01"/>
<polygon fill="midnightblue" stroke="midnightblue" points="534.46,-127.43 543.82,-122.48 533.41,-120.51 534.46,-127.43"/>
</g>
<!-- Node8 -->
<g id="node8" class="node">
<title>Node8</title>
<g id="a_node8"><a xlink:href="ft__printf__utils_8c.html#a35c61f40b8c860fab15b36f75334e619" target="_top" xlink:title=" ">
<polygon fill="none" stroke="black" points="407.5,-88 407.5,-107 505.5,-107 505.5,-88 407.5,-88"/>
<text text-anchor="middle" x="456.5" y="-95" font-family="Helvetica,sans-Serif" font-size="10.00">ft_printf_address</text>
</a>
</g>
</g>
<!-- Node7&#45;&gt;Node8 -->
<g id="edge9" class="edge">
<title>Node7&#45;&gt;Node8</title>
<path fill="none" stroke="midnightblue" d="M354.13,-97.5C367.38,-97.5 382.74,-97.5 397.43,-97.5"/>
<polygon fill="midnightblue" stroke="midnightblue" points="397.46,-101 407.46,-97.5 397.46,-94 397.46,-101"/>
</g>
<!-- Node8&#45;&gt;Node4 -->
<g id="edge10" class="edge">
<title>Node8&#45;&gt;Node4</title>
<path fill="none" stroke="midnightblue" d="M505.85,-104.79C514.93,-106.16 524.44,-107.59 533.56,-108.97"/>
<polygon fill="midnightblue" stroke="midnightblue" points="533.24,-112.46 543.65,-110.49 534.29,-105.54 533.24,-112.46"/>
</g>
<!-- Node9&#45;&gt;Node4 -->
<g id="edge12" class="edge">
<title>Node9&#45;&gt;Node4</title>
<path fill="none" stroke="midnightblue" d="M353.75,-59.22C392.5,-59.79 455.8,-63.32 508,-78.5 526.26,-83.81 545.39,-93.48 559.82,-101.74"/>
<polygon fill="midnightblue" stroke="midnightblue" points="558.17,-104.84 568.57,-106.9 561.73,-98.81 558.17,-104.84"/>
</g>
<!-- Node10&#45;&gt;Node4 -->
<g id="edge14" class="edge">
<title>Node10&#45;&gt;Node4</title>
<path fill="none" stroke="midnightblue" d="M369.19,-20.56C408.62,-25.92 463.69,-36.62 508,-57.5 530.39,-68.05 552.26,-86.27 566.65,-99.68"/>
<polygon fill="midnightblue" stroke="midnightblue" points="564.56,-102.53 574.2,-106.92 569.41,-97.47 564.56,-102.53"/>
</g>
</g>
</svg>
