<?xml version="1.0" encoding="UTF-8" standalone="no"?>
<!DOCTYPE svg PUBLIC "-//W3C//DTD SVG 1.1//EN"
 "http://www.w3.org/Graphics/SVG/1.1/DTD/svg11.dtd">
<!-- Generated by graphviz version 2.43.0 (0)
 -->
<!-- Title: ft_close_fd Pages: 1 -->
<!--zoomable 463 -->
<svg id="main" version="1.1" xmlns="http://www.w3.org/2000/svg" xmlns:xlink="http://www.w3.org/1999/xlink" xml:space="preserve" onload="init(evt)">
<style type="text/css"><![CDATA[
.edge:hover path { stroke: red; }
.edge:hover polygon { stroke: red; fill: red; }
]]></style>
<script type="text/javascript"><![CDATA[
var edges = document.getElementsByTagName('g');
if (edges && edges.length) {
  for (var i=0;i<edges.length;i++) {
    if (edges[i].id.substr(0,4)=='edge') {
      edges[i].setAttribute('class','edge');
    }
  }
}
]]></script>
        <defs>
                <circle id="rim" cx="0" cy="0" r="7"/>
                <circle id="rim2" cx="0" cy="0" r="3.5"/>
                <g id="zoomPlus">
                        <use xlink:href="#rim" fill="#404040">
                                <set attributeName="fill" to="#808080" begin="zoomplus.mouseover" end="zoomplus.mouseout"/>
                        </use>
                        <path d="M-4,0h8M0,-4v8" fill="none" stroke="white" stroke-width="1.5" pointer-events="none"/>
                </g>
                <g id="zoomMin">
                        <use xlink:href="#rim" fill="#404040">
                                <set attributeName="fill" to="#808080" begin="zoomminus.mouseover" end="zoomminus.mouseout"/>
                        </use>
                        <path d="M-4,0h8" fill="none" stroke="white" stroke-width="1.5" pointer-events="none"/>
                </g>
                <g id="dirArrow">
                        <path fill="none" stroke="white" stroke-width="1.5" d="M0,-3.0v7 M-2.5,-0.5L0,-3.0L2.5,-0.5"/>
                </g>
               <g id="resetDef">
                       <use xlink:href="#rim2" fill="#404040">
                               <set attributeName="fill" to="#808080" begin="reset.mouseover" end="reset.mouseout"/>
                       </use>
               </g>
        </defs>

<script type="text/javascript">
var viewWidth = 989;
var viewHeight = 463;
var sectionId = 'dynsection-29';
</script>
<script xlink:href="svgpan.js"/>
<svg id="graph" class="graph">
<g id="viewport">
<title>ft_close_fd</title>
<!-- Node1 -->
<g id="node1" class="node">
<title>Node1</title>
<g id="a_node1"><a xlink:title="as fd are all setup to &#45;1 at the beginning we check if they are open before trying to close we avoid ...">
<polygon fill="#bfbfbf" stroke="black" points="912,-189.67 912,-208.67 981,-208.67 981,-189.67 912,-189.67"/>
<text text-anchor="middle" x="946.5" y="-196.67" font-family="Helvetica,sans-Serif" font-size="10.00">ft_close_fd</text>
</a>
</g>
</g>
<!-- Node2 -->
<g id="node2" class="node">
<title>Node2</title>
<g id="a_node2"><a xlink:href="redirection__verification_8c.html#a5b79f4b52353f6558575b5da0dd28fd4" target="_top" xlink:title="we close the fd_in and fd_out in case of a fail this function is able to manage the error coming from...">
<polygon fill="none" stroke="black" points="776.5,-56.67 776.5,-75.67 862.5,-75.67 862.5,-56.67 776.5,-56.67"/>
<text text-anchor="middle" x="819.5" y="-63.67" font-family="Helvetica,sans-Serif" font-size="10.00">close_fd_error</text>
</a>
</g>
</g>
<!-- Node1&#45;&gt;Node2 -->
<g id="edge1" class="edge">
<title>Node1&#45;&gt;Node2</title>
<path fill="none" stroke="midnightblue" d="M937.54,-179.95C926.77,-156.03 905.46,-115.27 876,-90.17 868.89,-84.11 860.01,-79.36 851.46,-75.75"/>
<polygon fill="midnightblue" stroke="midnightblue" points="934.43,-181.57 941.62,-189.36 940.85,-178.79 934.43,-181.57"/>
</g>
<!-- Node3 -->
<g id="node3" class="node">
<title>Node3</title>
<g id="a_node3"><a xlink:href="redirection__verification_8c.html#a95641b4885e9c0b07b477846c96c0d2f" target="_top" xlink:title="we have to check if the file exist then if we are allowed to open it in any error case we write a mes...">
<polygon fill="none" stroke="black" points="605,-94.67 605,-113.67 703,-113.67 703,-94.67 605,-94.67"/>
<text text-anchor="middle" x="654" y="-101.67" font-family="Helvetica,sans-Serif" font-size="10.00">infile_redirection</text>
</a>
</g>
</g>
<!-- Node1&#45;&gt;Node3 -->
<g id="edge31" class="edge">
<title>Node1&#45;&gt;Node3</title>
<path fill="none" stroke="midnightblue" d="M933.47,-181.08C921.19,-164.26 900.48,-140.06 876,-128.17 821.15,-101.53 749.82,-98.63 703.25,-100.31"/>
<polygon fill="midnightblue" stroke="midnightblue" points="930.79,-183.36 939.4,-189.54 936.53,-179.35 930.79,-183.36"/>
</g>
<!-- Node4 -->
<g id="node4" class="node">
<title>Node4</title>
<g id="a_node4"><a xlink:href="redirection__verification_8c.html#af9b05287627b76434ceb0070c5cb2c8a" target="_top" xlink:title="we go through each node of the redirection and we have special treatment depending of the following c...">
<polygon fill="none" stroke="black" points="415,-94.67 415,-113.67 544,-113.67 544,-94.67 415,-94.67"/>
<text text-anchor="middle" x="479.5" y="-101.67" font-family="Helvetica,sans-Serif" font-size="10.00">redirection_verification</text>
</a>
</g>
</g>
<!-- Node1&#45;&gt;Node4 -->
<g id="edge36" class="edge">
<title>Node1&#45;&gt;Node4</title>
<path fill="none" stroke="midnightblue" d="M945.1,-179.41C943.09,-139.43 932.23,-49.4 876,-10.17 852.5,6.23 623.48,0.61 581,-16.17 538.94,-32.78 502.64,-75.14 487.73,-94.39"/>
<polygon fill="midnightblue" stroke="midnightblue" points="941.61,-179.62 945.47,-189.49 948.6,-179.37 941.61,-179.62"/>
</g>
<!-- Node5 -->
<g id="node5" class="node">
<title>Node5</title>
<g id="a_node5"><a xlink:href="multipipe_8c.html#a3f78d597d08aaca5580b2c89f956a3a2" target="_top" xlink:title="management of the multipipe (= name when we have at least one pipe) First step is to manage the hered...">
<polygon fill="none" stroke="black" points="95,-256.67 95,-275.67 184,-275.67 184,-256.67 95,-256.67"/>
<text text-anchor="middle" x="139.5" y="-263.67" font-family="Helvetica,sans-Serif" font-size="10.00">multipipe_cmd</text>
</a>
</g>
</g>
<!-- Node1&#45;&gt;Node5 -->
<g id="edge32" class="edge">
<title>Node1&#45;&gt;Node5</title>
<path fill="none" stroke="midnightblue" d="M945.62,-218.89C944.73,-261.97 936.05,-364.65 876,-415.17 800.1,-479.02 754.18,-446.17 655,-446.17 655,-446.17 655,-446.17 478.5,-446.17 358.75,-446.17 318.7,-437.99 220,-370.17 182.91,-344.68 155.64,-296.41 145.18,-275.84"/>
<polygon fill="midnightblue" stroke="midnightblue" points="949.12,-218.88 945.71,-208.85 942.12,-218.82 949.12,-218.88"/>
</g>
<!-- Node8 -->
<g id="node8" class="node">
<title>Node8</title>
<g id="a_node8"><a xlink:href="redirection__verification_8c.html#ac61790fa82f2a9b6b904cd92135b6acb" target="_top" xlink:title="outfile and append are open with the right flags in a case of an error we write a message with the na...">
<polygon fill="none" stroke="black" points="581,-56.67 581,-75.67 727,-75.67 727,-56.67 581,-56.67"/>
<text text-anchor="middle" x="654" y="-63.67" font-family="Helvetica,sans-Serif" font-size="10.00">outfile_append_redirection</text>
</a>
</g>
</g>
<!-- Node1&#45;&gt;Node8 -->
<g id="edge35" class="edge">
<title>Node1&#45;&gt;Node8</title>
<path fill="none" stroke="midnightblue" d="M943.17,-179.3C937.98,-145.29 922.06,-76.75 876,-47.17 812.82,-6.58 717.66,-38.85 675.9,-56.53"/>
<polygon fill="midnightblue" stroke="midnightblue" points="939.72,-179.96 944.54,-189.4 946.66,-179.02 939.72,-179.96"/>
</g>
<!-- Node9 -->
<g id="node9" class="node">
<title>Node9</title>
<g id="a_node9"><a xlink:href="heredoc_8c.html#a3e1410633d8c1ad5b1441509a020b0d4" target="_top" xlink:title="allow us to close the file descriptors when we have fork() again the process">
<polygon fill="none" stroke="black" points="763,-284.67 763,-303.67 876,-303.67 876,-284.67 763,-284.67"/>
<text text-anchor="middle" x="819.5" y="-291.67" font-family="Helvetica,sans-Serif" font-size="10.00">close_fd_heredocs2</text>
</a>
</g>
</g>
<!-- Node1&#45;&gt;Node9 -->
<g id="edge10" class="edge">
<title>Node1&#45;&gt;Node9</title>
<path fill="none" stroke="midnightblue" d="M931.51,-216.97C918.48,-232.61 897.83,-255.16 876,-270.17 867.61,-275.93 857.61,-280.78 848.42,-284.57"/>
<polygon fill="midnightblue" stroke="midnightblue" points="934.33,-219.05 937.92,-209.08 928.9,-214.63 934.33,-219.05"/>
</g>
<!-- Node10 -->
<g id="node10" class="node">
<title>Node10</title>
<g id="a_node10"><a xlink:href="heredoc_8c.html#ab68377acf2c8adf39f991dc425297c09" target="_top" xlink:title="it&#39;s where we open the heredoc and start writing inside our pipe each time we check if it&#39;s the word ...">
<polygon fill="none" stroke="black" points="611,-284.67 611,-303.67 697,-303.67 697,-284.67 611,-284.67"/>
<text text-anchor="middle" x="654" y="-291.67" font-family="Helvetica,sans-Serif" font-size="10.00">heredoc_input</text>
</a>
</g>
</g>
<!-- Node1&#45;&gt;Node10 -->
<g id="edge30" class="edge">
<title>Node1&#45;&gt;Node10</title>
<path fill="none" stroke="midnightblue" d="M940.16,-218.65C931.61,-245.52 912.06,-292.92 876,-313.17 811.36,-349.46 718.97,-320.43 677.12,-303.79"/>
<polygon fill="midnightblue" stroke="midnightblue" points="943.58,-219.42 943.07,-208.84 936.87,-217.43 943.58,-219.42"/>
</g>
<!-- Node12 -->
<g id="node12" class="node">
<title>Node12</title>
<g id="a_node12"><a xlink:href="redirection__multipipe_8c.html#af7980d82e7ea7c0c84519ef3e3011b98" target="_top" xlink:title=" ">
<polygon fill="none" stroke="black" points="607,-398.67 607,-417.67 701,-417.67 701,-398.67 607,-398.67"/>
<text text-anchor="middle" x="654" y="-405.67" font-family="Helvetica,sans-Serif" font-size="10.00">close_fd_parent</text>
</a>
</g>
</g>
<!-- Node1&#45;&gt;Node12 -->
<g id="edge15" class="edge">
<title>Node1&#45;&gt;Node12</title>
<path fill="none" stroke="midnightblue" d="M944.54,-218.82C941.49,-257.48 928.8,-343.21 876,-384.17 826.14,-422.85 749.82,-421.91 701.18,-416.18"/>
<polygon fill="midnightblue" stroke="midnightblue" points="948.03,-219.04 945.19,-208.84 941.04,-218.59 948.03,-219.04"/>
</g>
<!-- Node13 -->
<g id="node13" class="node">
<title>Node13</title>
<g id="a_node13"><a xlink:href="multipipe_8c.html#af32b88ab44b94650a0bb6f805f70a805" target="_top" xlink:title="it&#39;s where the fork happen and sent to be execute">
<polygon fill="none" stroke="black" points="220,-341.67 220,-360.67 378,-360.67 378,-341.67 220,-341.67"/>
<text text-anchor="middle" x="299" y="-348.67" font-family="Helvetica,sans-Serif" font-size="10.00">multipipe_intermediary_cmd</text>
</a>
</g>
</g>
<!-- Node1&#45;&gt;Node13 -->
<g id="edge33" class="edge">
<title>Node1&#45;&gt;Node13</title>
<path fill="none" stroke="midnightblue" d="M941.87,-218.93C935.03,-249.79 917.07,-308.65 876,-335.17 795.95,-386.85 516.08,-370.48 378.11,-358.71"/>
<polygon fill="midnightblue" stroke="midnightblue" points="945.34,-219.43 943.9,-208.94 938.48,-218.03 945.34,-219.43"/>
</g>
<!-- Node14 -->
<g id="node14" class="node">
<title>Node14</title>
<g id="a_node14"><a xlink:href="redirection__multipipe_8c.html#a3a0d7f695cf53df46301e14ffab77638" target="_top" xlink:title=" ">
<polygon fill="none" stroke="black" points="775,-208.67 775,-227.67 864,-227.67 864,-208.67 775,-208.67"/>
<text text-anchor="middle" x="819.5" y="-215.67" font-family="Helvetica,sans-Serif" font-size="10.00">close_previous</text>
</a>
</g>
</g>
<!-- Node1&#45;&gt;Node14 -->
<g id="edge18" class="edge">
<title>Node1&#45;&gt;Node14</title>
<path fill="none" stroke="midnightblue" d="M901.75,-205.82C889.59,-207.66 876.39,-209.67 864.23,-211.52"/>
<polygon fill="midnightblue" stroke="midnightblue" points="902.31,-209.27 911.67,-204.31 901.26,-202.35 902.31,-209.27"/>
</g>
<!-- Node15 -->
<g id="node15" class="node">
<title>Node15</title>
<g id="a_node15"><a xlink:href="redirection__multipipe_8c.html#a19e2c31eeb0eb25575df2277cbd7774e" target="_top" xlink:title=" ">
<polygon fill="none" stroke="black" points="600,-208.67 600,-227.67 708,-227.67 708,-208.67 600,-208.67"/>
<text text-anchor="middle" x="654" y="-215.67" font-family="Helvetica,sans-Serif" font-size="10.00">command_redirect</text>
</a>
</g>
</g>
<!-- Node1&#45;&gt;Node15 -->
<g id="edge27" class="edge">
<title>Node1&#45;&gt;Node15</title>
<path fill="none" stroke="midnightblue" d="M924.15,-214.51C910.97,-223.01 893.32,-232.74 876,-237.17 810.71,-253.85 731.41,-238.85 687.76,-227.68"/>
<polygon fill="midnightblue" stroke="midnightblue" points="926.16,-217.38 932.5,-208.89 922.25,-211.57 926.16,-217.38"/>
</g>
<!-- Node17 -->
<g id="node17" class="node">
<title>Node17</title>
<g id="a_node17"><a xlink:href="execution_8c.html#ac70faaedddc427b5051b808a8de40da4" target="_top" xlink:title="in this function we do the fork to create a child process we do the redirection if we need to">
<polygon fill="none" stroke="black" points="415.5,-189.67 415.5,-208.67 543.5,-208.67 543.5,-189.67 415.5,-189.67"/>
<text text-anchor="middle" x="479.5" y="-196.67" font-family="Helvetica,sans-Serif" font-size="10.00">one_command_execve</text>
</a>
</g>
</g>
<!-- Node1&#45;&gt;Node17 -->
<g id="edge34" class="edge">
<title>Node1&#45;&gt;Node17</title>
<path fill="none" stroke="midnightblue" d="M944.43,-179.05C941.2,-141.1 928.21,-59.61 876,-24.17 832.91,5.08 595.52,-36.65 581,-47.17 550.73,-69.1 565.27,-91.76 545,-123.17 528.3,-149.05 503.64,-175.68 490.16,-189.51"/>
<polygon fill="midnightblue" stroke="midnightblue" points="940.96,-179.59 945.15,-189.32 947.94,-179.1 940.96,-179.59"/>
</g>
<!-- Node18 -->
<g id="node18" class="node">
<title>Node18</title>
<g id="a_node18"><a xlink:href="multipipe_8c.html#a9b21b82386f20636501d279a66b7260d" target="_top" xlink:title="in the case of an error in the redirection, we have a case where the here_doc opened in a previous si...">
<polygon fill="none" stroke="black" points="429,-227.67 429,-246.67 530,-246.67 530,-227.67 429,-227.67"/>
<text text-anchor="middle" x="479.5" y="-234.67" font-family="Helvetica,sans-Serif" font-size="10.00">close_redir_temp</text>
</a>
</g>
</g>
<!-- Node1&#45;&gt;Node18 -->
<g id="edge24" class="edge">
<title>Node1&#45;&gt;Node18</title>
<path fill="none" stroke="midnightblue" d="M924.15,-183.83C910.97,-175.32 893.32,-165.59 876,-161.17 827.34,-148.73 812.96,-156.01 763,-161.17 680.8,-169.66 658.74,-171.16 581,-199.17 563.98,-205.3 561.76,-211.36 545,-218.17 536.24,-221.73 526.57,-224.94 517.43,-227.66"/>
<polygon fill="midnightblue" stroke="midnightblue" points="922.25,-186.77 932.5,-189.44 926.16,-180.96 922.25,-186.77"/>
</g>
<!-- Node19 -->
<g id="node19" class="node">
<title>Node19</title>
<g id="a_node19"><a xlink:href="redirection__multipipe_8c.html#a5b749bc2b4088984c0efe1c479ae6ec8" target="_top" xlink:title=" ">
<polygon fill="none" stroke="black" points="779.5,-170.67 779.5,-189.67 859.5,-189.67 859.5,-170.67 779.5,-170.67"/>
<text text-anchor="middle" x="819.5" y="-177.67" font-family="Helvetica,sans-Serif" font-size="10.00">fail_previous</text>
</a>
</g>
</g>
<!-- Node1&#45;&gt;Node19 -->
<g id="edge28" class="edge">
<title>Node1&#45;&gt;Node19</title>
<path fill="none" stroke="midnightblue" d="M901.54,-192.49C887.9,-190.41 872.96,-188.14 859.67,-186.12"/>
<polygon fill="midnightblue" stroke="midnightblue" points="901.26,-195.98 911.67,-194.03 902.31,-189.06 901.26,-195.98"/>
</g>
<!-- Node2&#45;&gt;Node3 -->
<g id="edge2" class="edge">
<title>Node2&#45;&gt;Node3</title>
<path fill="none" stroke="midnightblue" d="M767.32,-78.06C744.33,-83.4 717.59,-89.62 695.96,-94.65"/>
<polygon fill="midnightblue" stroke="midnightblue" points="768.29,-81.43 777.24,-75.76 766.71,-74.61 768.29,-81.43"/>
</g>
<!-- Node2&#45;&gt;Node8 -->
<g id="edge8" class="edge">
<title>Node2&#45;&gt;Node8</title>
<path fill="none" stroke="midnightblue" d="M766.21,-66.17C753.76,-66.17 740.26,-66.17 727.09,-66.17"/>
<polygon fill="midnightblue" stroke="midnightblue" points="766.39,-69.67 776.39,-66.17 766.39,-62.67 766.39,-69.67"/>
</g>
<!-- Node3&#45;&gt;Node4 -->
<g id="edge3" class="edge">
<title>Node3&#45;&gt;Node4</title>
<path fill="none" stroke="midnightblue" d="M594.53,-104.17C578.3,-104.17 560.6,-104.17 544.1,-104.17"/>
<polygon fill="midnightblue" stroke="midnightblue" points="594.95,-107.67 604.95,-104.17 594.95,-100.67 594.95,-107.67"/>
</g>
<!-- Node4&#45;&gt;Node5 -->
<g id="edge4" class="edge">
<title>Node4&#45;&gt;Node5</title>
<path fill="none" stroke="midnightblue" d="M419.71,-115.91C365.16,-128.56 283.13,-152.15 220,-190.17 189.41,-208.59 161.09,-240.65 148.05,-256.59"/>
<polygon fill="midnightblue" stroke="midnightblue" points="420.59,-119.3 429.57,-113.67 419.04,-112.47 420.59,-119.3"/>
</g>
<!-- Node7 -->
<g id="node7" class="node">
<title>Node7</title>
<g id="a_node7"><a xlink:href="execution_8c.html#a4ef7db02a474eb1b198b2a25e1303118" target="_top" xlink:title="here we check if it&#39;s a builtin where we have to fork or not we still need to do the redirection veri...">
<polygon fill="none" stroke="black" points="254.5,-199.67 254.5,-218.67 343.5,-218.67 343.5,-199.67 254.5,-199.67"/>
<text text-anchor="middle" x="299" y="-206.67" font-family="Helvetica,sans-Serif" font-size="10.00">one_command</text>
</a>
</g>
</g>
<!-- Node4&#45;&gt;Node7 -->
<g id="edge6" class="edge">
<title>Node4&#45;&gt;Node7</title>
<path fill="none" stroke="midnightblue" d="M453.63,-118.8C416.49,-140.64 347.57,-181.18 316.25,-199.61"/>
<polygon fill="midnightblue" stroke="midnightblue" points="455.5,-121.76 462.34,-113.67 451.95,-115.72 455.5,-121.76"/>
</g>
<!-- Node6 -->
<g id="node6" class="node">
<title>Node6</title>
<g id="a_node6"><a xlink:href="execution_8c.html#a9dffeca3c2ff474e24c3e98ab856df76" target="_top" xlink:title="first function of the execution part when we have something to do we have to deal with two cases ; if...">
<polygon fill="none" stroke="black" points="0,-218.67 0,-237.67 59,-237.67 59,-218.67 0,-218.67"/>
<text text-anchor="middle" x="29.5" y="-225.67" font-family="Helvetica,sans-Serif" font-size="10.00">executor</text>
</a>
</g>
</g>
<!-- Node5&#45;&gt;Node6 -->
<g id="edge5" class="edge">
<title>Node5&#45;&gt;Node6</title>
<path fill="none" stroke="midnightblue" d="M101.63,-253.2C87.24,-248.13 71.05,-242.43 57.74,-237.75"/>
<polygon fill="midnightblue" stroke="midnightblue" points="100.65,-256.56 111.25,-256.58 102.98,-249.96 100.65,-256.56"/>
</g>
<!-- Node7&#45;&gt;Node6 -->
<g id="edge7" class="edge">
<title>Node7&#45;&gt;Node6</title>
<path fill="none" stroke="midnightblue" d="M244.37,-212.98C188.58,-216.94 103.35,-222.99 59.22,-226.13"/>
<polygon fill="midnightblue" stroke="midnightblue" points="244.7,-216.46 254.43,-212.26 244.2,-209.48 244.7,-216.46"/>
</g>
<!-- Node8&#45;&gt;Node4 -->
<g id="edge9" class="edge">
<title>Node8&#45;&gt;Node4</title>
<path fill="none" stroke="midnightblue" d="M599.65,-77.92C575.26,-83.29 546.74,-89.58 523.72,-94.65"/>
<polygon fill="midnightblue" stroke="midnightblue" points="600.46,-81.33 609.47,-75.76 598.95,-74.49 600.46,-81.33"/>
</g>
<!-- Node9&#45;&gt;Node10 -->
<g id="edge11" class="edge">
<title>Node9&#45;&gt;Node10</title>
<path fill="none" stroke="midnightblue" d="M752.46,-294.17C733.79,-294.17 713.98,-294.17 697.14,-294.17"/>
<polygon fill="midnightblue" stroke="midnightblue" points="752.69,-297.67 762.69,-294.17 752.69,-290.67 752.69,-297.67"/>
</g>
<!-- Node11 -->
<g id="node11" class="node">
<title>Node11</title>
<g id="a_node11"><a xlink:href="heredoc_8c.html#aa5260679719a4e1f862a6efd1f12cf85" target="_top" xlink:title="the function will go through all the commands and check the redirection if we encounter a heredoc we ...">
<polygon fill="none" stroke="black" points="414,-275.67 414,-294.67 545,-294.67 545,-275.67 414,-275.67"/>
<text text-anchor="middle" x="479.5" y="-282.67" font-family="Helvetica,sans-Serif" font-size="10.00">here_doc_management</text>
</a>
</g>
</g>
<!-- Node10&#45;&gt;Node11 -->
<g id="edge12" class="edge">
<title>Node10&#45;&gt;Node11</title>
<path fill="none" stroke="midnightblue" d="M600.77,-291.44C583.24,-290.53 563.49,-289.5 545.13,-288.54"/>
<polygon fill="midnightblue" stroke="midnightblue" points="600.63,-294.94 610.8,-291.97 601,-287.95 600.63,-294.94"/>
</g>
<!-- Node11&#45;&gt;Node5 -->
<g id="edge13" class="edge">
<title>Node11&#45;&gt;Node5</title>
<path fill="none" stroke="midnightblue" d="M403.6,-280.96C336.22,-277.17 239.57,-271.74 184.1,-268.62"/>
<polygon fill="midnightblue" stroke="midnightblue" points="403.55,-284.46 413.73,-281.53 403.94,-277.47 403.55,-284.46"/>
</g>
<!-- Node11&#45;&gt;Node7 -->
<g id="edge14" class="edge">
<title>Node11&#45;&gt;Node7</title>
<path fill="none" stroke="midnightblue" d="M446.4,-271.5C410.63,-256.27 353.71,-232.03 322.42,-218.71"/>
<polygon fill="midnightblue" stroke="midnightblue" points="445.32,-274.84 455.89,-275.54 448.06,-268.4 445.32,-274.84"/>
</g>
<!-- Node12&#45;&gt;Node13 -->
<g id="edge16" class="edge">
<title>Node12&#45;&gt;Node13</title>
<path fill="none" stroke="midnightblue" d="M596.8,-405.41C548.1,-402.34 475.92,-396.14 414,-384.17 384.06,-378.38 350.64,-368.25 327.76,-360.74"/>
<polygon fill="midnightblue" stroke="midnightblue" points="596.63,-408.91 606.82,-406.02 597.05,-401.92 596.63,-408.91"/>
</g>
<!-- Node13&#45;&gt;Node5 -->
<g id="edge17" class="edge">
<title>Node13&#45;&gt;Node5</title>
<path fill="none" stroke="midnightblue" d="M271.38,-336.8C239.24,-319.46 186.08,-290.77 158.44,-275.85"/>
<polygon fill="midnightblue" stroke="midnightblue" points="269.78,-339.91 280.24,-341.58 273.1,-333.75 269.78,-339.91"/>
</g>
<!-- Node14&#45;&gt;Node15 -->
<g id="edge19" class="edge">
<title>Node14&#45;&gt;Node15</title>
<path fill="none" stroke="midnightblue" d="M764.58,-218.17C746.48,-218.17 726.32,-218.17 708.27,-218.17"/>
<polygon fill="midnightblue" stroke="midnightblue" points="764.69,-221.67 774.69,-218.17 764.68,-214.67 764.69,-221.67"/>
</g>
<!-- Node16 -->
<g id="node16" class="node">
<title>Node16</title>
<g id="a_node16"><a xlink:href="multipipe_8c.html#a43baea25481fdd02ce42e4d249f12353" target="_top" xlink:title=" ">
<polygon fill="none" stroke="black" points="438,-322.67 438,-341.67 521,-341.67 521,-322.67 438,-322.67"/>
<text text-anchor="middle" x="479.5" y="-329.67" font-family="Helvetica,sans-Serif" font-size="10.00">execute_child</text>
</a>
</g>
</g>
<!-- Node15&#45;&gt;Node16 -->
<g id="edge20" class="edge">
<title>Node15&#45;&gt;Node16</title>
<path fill="none" stroke="midnightblue" d="M632.52,-234.31C618.09,-245.69 598.33,-261.33 581,-275.17 564.95,-287.99 562.58,-293.54 545,-304.17 532.99,-311.43 518.75,-317.82 506.71,-322.65"/>
<polygon fill="midnightblue" stroke="midnightblue" points="635.06,-236.76 640.74,-227.82 630.73,-231.26 635.06,-236.76"/>
</g>
<!-- Node15&#45;&gt;Node17 -->
<g id="edge22" class="edge">
<title>Node15&#45;&gt;Node17</title>
<path fill="none" stroke="midnightblue" d="M589.66,-211.19C574.7,-209.54 558.75,-207.79 543.79,-206.14"/>
<polygon fill="midnightblue" stroke="midnightblue" points="589.51,-214.7 599.84,-212.31 590.28,-207.74 589.51,-214.7"/>
</g>
<!-- Node16&#45;&gt;Node13 -->
<g id="edge21" class="edge">
<title>Node16&#45;&gt;Node13</title>
<path fill="none" stroke="midnightblue" d="M427.68,-337.58C412.31,-339.21 395.06,-341.05 378.33,-342.83"/>
<polygon fill="midnightblue" stroke="midnightblue" points="428.42,-341.02 438,-336.48 427.68,-334.06 428.42,-341.02"/>
</g>
<!-- Node17&#45;&gt;Node7 -->
<g id="edge23" class="edge">
<title>Node17&#45;&gt;Node7</title>
<path fill="none" stroke="midnightblue" d="M405.19,-203.27C384.33,-204.44 362.27,-205.68 343.77,-206.72"/>
<polygon fill="midnightblue" stroke="midnightblue" points="405.53,-206.76 415.32,-202.71 405.14,-199.77 405.53,-206.76"/>
</g>
<!-- Node18&#45;&gt;Node5 -->
<g id="edge25" class="edge">
<title>Node18&#45;&gt;Node5</title>
<path fill="none" stroke="midnightblue" d="M418.98,-242.27C351.8,-248.04 244.1,-257.28 184.23,-262.42"/>
<polygon fill="midnightblue" stroke="midnightblue" points="419.33,-245.76 428.99,-241.42 418.73,-238.78 419.33,-245.76"/>
</g>
<!-- Node18&#45;&gt;Node7 -->
<g id="edge26" class="edge">
<title>Node18&#45;&gt;Node7</title>
<path fill="none" stroke="midnightblue" d="M418.83,-227.81C394.26,-223.95 366.3,-219.57 343.69,-216.02"/>
<polygon fill="midnightblue" stroke="midnightblue" points="418.36,-231.28 428.78,-229.37 419.44,-224.36 418.36,-231.28"/>
</g>
<!-- Node19&#45;&gt;Node15 -->
<g id="edge29" class="edge">
<title>Node19&#45;&gt;Node15</title>
<path fill="none" stroke="midnightblue" d="M769.59,-191.53C746.17,-196.98 718.44,-203.42 696.12,-208.61"/>
<polygon fill="midnightblue" stroke="midnightblue" points="770.39,-194.94 779.34,-189.27 768.8,-188.12 770.39,-194.94"/>
</g>
</g>
</svg>
        <g id="navigator" transform="translate(0 0)" fill="#404254">
                <rect fill="#f2f5e9" fill-opacity="0.5" stroke="#606060" stroke-width=".5" x="0" y="0" width="60" height="60"/>
                <use id="zoomplus" xlink:href="#zoomPlus" x="17" y="9" onmousedown="handleZoom(evt,'in')"/>
                <use id="zoomminus" xlink:href="#zoomMin" x="42" y="9" onmousedown="handleZoom(evt,'out')"/>
                <use id="reset" xlink:href="#resetDef" x="30" y="36" onmousedown="handleReset()"/>
                <g id="arrowUp" xlink:href="#dirArrow" transform="translate(30 24)" onmousedown="handlePan(0,-1)">
                  <use xlink:href="#rim" fill="#404040">
                        <set attributeName="fill" to="#808080" begin="arrowUp.mouseover" end="arrowUp.mouseout"/>
                  </use>
                  <path fill="none" stroke="white" stroke-width="1.5" d="M0,-3.0v7 M-2.5,-0.5L0,-3.0L2.5,-0.5"/>
                </g>
                <g id="arrowRight" xlink:href="#dirArrow" transform="rotate(90) translate(36 -43)" onmousedown="handlePan(1,0)">
                  <use xlink:href="#rim" fill="#404040">
                        <set attributeName="fill" to="#808080" begin="arrowRight.mouseover" end="arrowRight.mouseout"/>
                  </use>
                  <path fill="none" stroke="white" stroke-width="1.5" d="M0,-3.0v7 M-2.5,-0.5L0,-3.0L2.5,-0.5"/>
                </g>
                <g id="arrowDown" xlink:href="#dirArrow" transform="rotate(180) translate(-30 -48)" onmousedown="handlePan(0,1)">
                  <use xlink:href="#rim" fill="#404040">
                        <set attributeName="fill" to="#808080" begin="arrowDown.mouseover" end="arrowDown.mouseout"/>
                  </use>
                  <path fill="none" stroke="white" stroke-width="1.5" d="M0,-3.0v7 M-2.5,-0.5L0,-3.0L2.5,-0.5"/>
                </g>
                <g id="arrowLeft" xlink:href="#dirArrow" transform="rotate(270) translate(-36 17)" onmousedown="handlePan(-1,0)">
                  <use xlink:href="#rim" fill="#404040">
                        <set attributeName="fill" to="#808080" begin="arrowLeft.mouseover" end="arrowLeft.mouseout"/>
                  </use>
                  <path fill="none" stroke="white" stroke-width="1.5" d="M0,-3.0v7 M-2.5,-0.5L0,-3.0L2.5,-0.5"/>
                </g>
        </g>
        <svg viewBox="0 0 15 15" width="100%" height="30px" preserveAspectRatio="xMaxYMin meet">
         <g id="arrow_out" transform="scale(0.3 0.3)">
          <a xlink:href="minishell_8h_a1bca6910c90a19d96b36506a2e2cebf6_icgraph_org.svg" target="_base">
           <rect id="button" ry="5" rx="5" y="6" x="6" height="38" width="38"
                fill="#f2f5e9" fill-opacity="0.5" stroke="#606060" stroke-width="1.0"/>
           <path id="arrow"
             d="M 11.500037,31.436501 C 11.940474,20.09759 22.043105,11.32322 32.158766,21.979434 L 37.068811,17.246167 C 37.068811,17.246167 37.088388,32 37.088388,32 L 22.160133,31.978069 C 22.160133,31.978069 26.997745,27.140456 26.997745,27.140456 C 18.528582,18.264221 13.291696,25.230495 11.500037,31.436501 z"
             style="fill:#404040;"/>
          </a>
         </g>
        </svg>
</svg>
