<?xml version="1.0" encoding="UTF-8" standalone="no"?>
<!DOCTYPE svg PUBLIC "-//W3C//DTD SVG 1.1//EN"
 "http://www.w3.org/Graphics/SVG/1.1/DTD/svg11.dtd">
<!-- Generated by graphviz version 2.43.0 (0)
 -->
<!-- Title: ft_close_fd Pages: 1 -->
<!--zoomable 616 -->
<svg id="main" version="1.1" xmlns="http://www.w3.org/2000/svg" xmlns:xlink="http://www.w3.org/1999/xlink" xml:space="preserve" onload="init(evt)">
<style type="text/css"><![CDATA[
.edge:hover path { stroke: red; }
.edge:hover polygon { stroke: red; fill: red; }
]]></style>
<script type="text/javascript"><![CDATA[
var edges = document.getElementsByTagName('g');
if (edges && edges.length) {
  for (var i=0;i<edges.length;i++) {
    if (edges[i].id.substr(0,4)=='edge') {
      edges[i].setAttribute('class','edge');
    }
  }
}
]]></script>
        <defs>
                <circle id="rim" cx="0" cy="0" r="7"/>
                <circle id="rim2" cx="0" cy="0" r="3.5"/>
                <g id="zoomPlus">
                        <use xlink:href="#rim" fill="#404040">
                                <set attributeName="fill" to="#808080" begin="zoomplus.mouseover" end="zoomplus.mouseout"/>
                        </use>
                        <path d="M-4,0h8M0,-4v8" fill="none" stroke="white" stroke-width="1.5" pointer-events="none"/>
                </g>
                <g id="zoomMin">
                        <use xlink:href="#rim" fill="#404040">
                                <set attributeName="fill" to="#808080" begin="zoomminus.mouseover" end="zoomminus.mouseout"/>
                        </use>
                        <path d="M-4,0h8" fill="none" stroke="white" stroke-width="1.5" pointer-events="none"/>
                </g>
                <g id="dirArrow">
                        <path fill="none" stroke="white" stroke-width="1.5" d="M0,-3.0v7 M-2.5,-0.5L0,-3.0L2.5,-0.5"/>
                </g>
               <g id="resetDef">
                       <use xlink:href="#rim2" fill="#404040">
                               <set attributeName="fill" to="#808080" begin="reset.mouseover" end="reset.mouseout"/>
                       </use>
               </g>
        </defs>

<script type="text/javascript">
var viewWidth = 1064;
var viewHeight = 616;
var sectionId = 'dynsection-37';
</script>
<script xlink:href="svgpan.js"/>
<svg id="graph" class="graph">
<g id="viewport">
<title>ft_close_fd</title>
<!-- Node1 -->
<g id="node1" class="node">
<title>Node1</title>
<g id="a_node1"><a xlink:title="as fd are all setup to &#45;1 at the beginning we check if they are open before trying to close we avoid ...">
<polygon fill="#bfbfbf" stroke="black" points="987,-308.05 987,-327.05 1056,-327.05 1056,-308.05 987,-308.05"/>
<text text-anchor="middle" x="1021.5" y="-315.05" font-family="Helvetica,sans-Serif" font-size="10.00">ft_close_fd</text>
</a>
</g>
</g>
<!-- Node2 -->
<g id="node2" class="node">
<title>Node2</title>
<g id="a_node2"><a xlink:href="redirection__verification_8c.html#a5b79f4b52353f6558575b5da0dd28fd4" target="_top" xlink:title="we close the fd_in and fd_out in case of a fail this function is able to manage the error coming from...">
<polygon fill="none" stroke="black" points="851.5,-479.05 851.5,-498.05 937.5,-498.05 937.5,-479.05 851.5,-479.05"/>
<text text-anchor="middle" x="894.5" y="-486.05" font-family="Helvetica,sans-Serif" font-size="10.00">close_fd_error</text>
</a>
</g>
</g>
<!-- Node1&#45;&gt;Node2 -->
<g id="edge1" class="edge">
<title>Node1&#45;&gt;Node2</title>
<path fill="none" stroke="midnightblue" d="M1016.01,-337.14C1007.98,-368.06 988.41,-428.37 951,-464.55 944.59,-470.75 936.31,-475.48 928.12,-479.03"/>
<polygon fill="midnightblue" stroke="midnightblue" points="1019.47,-337.72 1018.45,-327.18 1012.67,-336.05 1019.47,-337.72"/>
</g>
<!-- Node3 -->
<g id="node3" class="node">
<title>Node3</title>
<g id="a_node3"><a xlink:href="redirection__verification_8c.html#a95641b4885e9c0b07b477846c96c0d2f" target="_top" xlink:title="we have to check if the file exist then if we are allowed to open it in any error case we write a mes...">
<polygon fill="none" stroke="black" points="680,-479.05 680,-498.05 778,-498.05 778,-479.05 680,-479.05"/>
<text text-anchor="middle" x="729" y="-486.05" font-family="Helvetica,sans-Serif" font-size="10.00">infile_redirection</text>
</a>
</g>
</g>
<!-- Node1&#45;&gt;Node3 -->
<g id="edge36" class="edge">
<title>Node1&#45;&gt;Node3</title>
<path fill="none" stroke="midnightblue" d="M1020.14,-337.4C1018.2,-377.59 1007.45,-468.09 951,-507.55 888.98,-550.9 791.96,-516.51 750.21,-498.18"/>
<polygon fill="midnightblue" stroke="midnightblue" points="1023.64,-337.39 1020.49,-327.28 1016.64,-337.15 1023.64,-337.39"/>
</g>
<!-- Node4 -->
<g id="node4" class="node">
<title>Node4</title>
<g id="a_node4"><a xlink:href="redirection__verification_8c.html#af9b05287627b76434ceb0070c5cb2c8a" target="_top" xlink:title="we go through each node of the redirection and we have special treatment depending of the following c...">
<polygon fill="none" stroke="black" points="491,-441.05 491,-460.05 620,-460.05 620,-441.05 491,-441.05"/>
<text text-anchor="middle" x="555.5" y="-448.05" font-family="Helvetica,sans-Serif" font-size="10.00">redirection_verification</text>
</a>
</g>
</g>
<!-- Node1&#45;&gt;Node4 -->
<g id="edge42" class="edge">
<title>Node1&#45;&gt;Node4</title>
<path fill="none" stroke="midnightblue" d="M1021.05,-337.72C1021.01,-381.68 1013.95,-485.81 951,-531.55 826.56,-621.97 624.65,-497.16 570.33,-460.27"/>
<polygon fill="midnightblue" stroke="midnightblue" points="1024.55,-337.42 1020.93,-327.46 1017.55,-337.51 1024.55,-337.42"/>
</g>
<!-- Node5 -->
<g id="node5" class="node">
<title>Node5</title>
<g id="a_node5"><a xlink:href="multipipe_8c.html#a3f78d597d08aaca5580b2c89f956a3a2" target="_top" xlink:title="management of the multipipe (= name when we have at least one pipe) First step is to manage the hered...">
<polygon fill="none" stroke="black" points="172,-308.05 172,-327.05 261,-327.05 261,-308.05 172,-308.05"/>
<text text-anchor="middle" x="216.5" y="-315.05" font-family="Helvetica,sans-Serif" font-size="10.00">multipipe_cmd</text>
</a>
</g>
</g>
<!-- Node1&#45;&gt;Node5 -->
<g id="edge37" class="edge">
<title>Node1&#45;&gt;Node5</title>
<path fill="none" stroke="midnightblue" d="M1021.31,-337.32C1022.05,-383.99 1016.91,-501.57 951,-561.55 877.12,-628.79 829.9,-602.55 730,-602.55 730,-602.55 730,-602.55 554.5,-602.55 380.18,-602.55 249.55,-377.47 222.62,-327.36"/>
<polygon fill="midnightblue" stroke="midnightblue" points="1024.81,-337.2 1021.03,-327.3 1017.81,-337.39 1024.81,-337.2"/>
</g>
<!-- Node9 -->
<g id="node9" class="node">
<title>Node9</title>
<g id="a_node9"><a xlink:href="redirection__verification_8c.html#ac61790fa82f2a9b6b904cd92135b6acb" target="_top" xlink:title="outfile and append are open with the right flags in a case of an error we write a message with the na...">
<polygon fill="none" stroke="black" points="656,-441.05 656,-460.05 802,-460.05 802,-441.05 656,-441.05"/>
<text text-anchor="middle" x="729" y="-448.05" font-family="Helvetica,sans-Serif" font-size="10.00">outfile_append_redirection</text>
</a>
</g>
</g>
<!-- Node1&#45;&gt;Node9 -->
<g id="edge40" class="edge">
<title>Node1&#45;&gt;Node9</title>
<path fill="none" stroke="midnightblue" d="M1014.19,-336.78C1004.79,-362.07 984.53,-405.73 951,-426.55 906.82,-453.98 847.92,-459.18 802.03,-457.96"/>
<polygon fill="midnightblue" stroke="midnightblue" points="1017.55,-337.78 1017.56,-327.18 1010.95,-335.46 1017.55,-337.78"/>
</g>
<!-- Node10 -->
<g id="node10" class="node">
<title>Node10</title>
<g id="a_node10"><a xlink:href="heredoc_8c.html#a3e1410633d8c1ad5b1441509a020b0d4" target="_top" xlink:title="allow us to close the file descriptors when we have fork() again the process">
<polygon fill="none" stroke="black" points="838,-365.05 838,-384.05 951,-384.05 951,-365.05 838,-365.05"/>
<text text-anchor="middle" x="894.5" y="-372.05" font-family="Helvetica,sans-Serif" font-size="10.00">close_fd_heredocs2</text>
</a>
</g>
</g>
<!-- Node1&#45;&gt;Node10 -->
<g id="edge11" class="edge">
<title>Node1&#45;&gt;Node10</title>
<path fill="none" stroke="midnightblue" d="M991.78,-331.46C979.3,-337.44 964.47,-344.44 951,-350.55 940.2,-355.45 928.12,-360.7 917.99,-365.03"/>
<polygon fill="midnightblue" stroke="midnightblue" points="993.32,-334.61 1000.81,-327.12 990.28,-328.3 993.32,-334.61"/>
</g>
<!-- Node11 -->
<g id="node11" class="node">
<title>Node11</title>
<g id="a_node11"><a xlink:href="heredoc_8c.html#ab68377acf2c8adf39f991dc425297c09" target="_top" xlink:title="it&#39;s where we open the heredoc and start writing inside our pipe each time we check if it&#39;s the word ...">
<polygon fill="none" stroke="black" points="512.5,-327.05 512.5,-346.05 598.5,-346.05 598.5,-327.05 512.5,-327.05"/>
<text text-anchor="middle" x="555.5" y="-334.05" font-family="Helvetica,sans-Serif" font-size="10.00">heredoc_input</text>
</a>
</g>
</g>
<!-- Node1&#45;&gt;Node11 -->
<g id="edge35" class="edge">
<title>Node1&#45;&gt;Node11</title>
<path fill="none" stroke="midnightblue" d="M1010.13,-335.82C998.46,-354.32 977.61,-381.82 951,-393.55 816.43,-452.84 633.45,-374.42 575.14,-346.06"/>
<polygon fill="midnightblue" stroke="midnightblue" points="1013.22,-337.47 1015.38,-327.09 1007.22,-333.86 1013.22,-337.47"/>
</g>
<!-- Node13 -->
<g id="node13" class="node">
<title>Node13</title>
<g id="a_node13"><a xlink:href="heredoc_8c.html#ae1fac908d63c4fd12485122128c0c0fd" target="_top" xlink:title="function which allow me to do the loop to call GNL =&gt; there is also the management to leave with the ...">
<polygon fill="none" stroke="black" points="677.5,-327.05 677.5,-346.05 780.5,-346.05 780.5,-327.05 677.5,-327.05"/>
<text text-anchor="middle" x="729" y="-334.05" font-family="Helvetica,sans-Serif" font-size="10.00">read_gnl_heredoc</text>
</a>
</g>
</g>
<!-- Node1&#45;&gt;Node13 -->
<g id="edge41" class="edge">
<title>Node1&#45;&gt;Node13</title>
<path fill="none" stroke="midnightblue" d="M976.87,-320.4C924.28,-323.84 836.07,-329.61 780.56,-333.24"/>
<polygon fill="midnightblue" stroke="midnightblue" points="977.14,-323.89 986.89,-319.75 976.69,-316.91 977.14,-323.89"/>
</g>
<!-- Node14 -->
<g id="node14" class="node">
<title>Node14</title>
<g id="a_node14"><a xlink:href="heredoc_8c.html#a1e49e3a472f4fd4b4c38a3e393868e67" target="_top" xlink:title="origin of creation ; the norm what it is doing ? juste close the fd the right way if we encounter the...">
<polygon fill="none" stroke="black" points="686,-289.05 686,-308.05 772,-308.05 772,-289.05 686,-289.05"/>
<text text-anchor="middle" x="729" y="-296.05" font-family="Helvetica,sans-Serif" font-size="10.00">update_status</text>
</a>
</g>
</g>
<!-- Node1&#45;&gt;Node14 -->
<g id="edge43" class="edge">
<title>Node1&#45;&gt;Node14</title>
<path fill="none" stroke="midnightblue" d="M976.7,-314.68C921.36,-311.06 826.78,-304.88 772.2,-301.31"/>
<polygon fill="midnightblue" stroke="midnightblue" points="976.69,-318.19 986.89,-315.35 977.14,-311.2 976.69,-318.19"/>
</g>
<!-- Node15 -->
<g id="node15" class="node">
<title>Node15</title>
<g id="a_node15"><a xlink:href="redirection__multipipe_8c.html#af7980d82e7ea7c0c84519ef3e3011b98" target="_top" xlink:title=" ">
<polygon fill="none" stroke="black" points="508.5,-213.05 508.5,-232.05 602.5,-232.05 602.5,-213.05 508.5,-213.05"/>
<text text-anchor="middle" x="555.5" y="-220.05" font-family="Helvetica,sans-Serif" font-size="10.00">close_fd_parent</text>
</a>
</g>
</g>
<!-- Node1&#45;&gt;Node15 -->
<g id="edge20" class="edge">
<title>Node1&#45;&gt;Node15</title>
<path fill="none" stroke="midnightblue" d="M1008.79,-299.48C996.62,-282.45 975.89,-257.91 951,-246.55 834.75,-193.46 678.84,-204.91 602.51,-215.1"/>
<polygon fill="midnightblue" stroke="midnightblue" points="1006.1,-301.75 1014.64,-308.03 1011.88,-297.8 1006.1,-301.75"/>
</g>
<!-- Node16 -->
<g id="node16" class="node">
<title>Node16</title>
<g id="a_node16"><a xlink:href="multipipe_8c.html#af32b88ab44b94650a0bb6f805f70a805" target="_top" xlink:title="it&#39;s where the fork happen and sent to be execute">
<polygon fill="none" stroke="black" points="297,-251.05 297,-270.05 455,-270.05 455,-251.05 297,-251.05"/>
<text text-anchor="middle" x="376" y="-258.05" font-family="Helvetica,sans-Serif" font-size="10.00">multipipe_intermediary_cmd</text>
</a>
</g>
</g>
<!-- Node1&#45;&gt;Node16 -->
<g id="edge38" class="edge">
<title>Node1&#45;&gt;Node16</title>
<path fill="none" stroke="midnightblue" d="M976.86,-306.94C968.31,-305.02 959.4,-303.13 951,-301.55 885.22,-289.14 868.63,-285.94 802,-279.55 681.24,-267.96 540.49,-263.42 455.11,-261.66"/>
<polygon fill="midnightblue" stroke="midnightblue" points="976.15,-310.37 986.68,-309.19 977.71,-303.55 976.15,-310.37"/>
</g>
<!-- Node17 -->
<g id="node17" class="node">
<title>Node17</title>
<g id="a_node17"><a xlink:href="redirection__multipipe_8c.html#a3a0d7f695cf53df46301e14ffab77638" target="_top" xlink:title=" ">
<polygon fill="none" stroke="black" points="850,-137.05 850,-156.05 939,-156.05 939,-137.05 850,-137.05"/>
<text text-anchor="middle" x="894.5" y="-144.05" font-family="Helvetica,sans-Serif" font-size="10.00">close_previous</text>
</a>
</g>
</g>
<!-- Node1&#45;&gt;Node17 -->
<g id="edge23" class="edge">
<title>Node1&#45;&gt;Node17</title>
<path fill="none" stroke="midnightblue" d="M1016.01,-297.95C1007.98,-267.03 988.41,-206.73 951,-170.55 944.59,-164.34 936.31,-159.61 928.12,-156.06"/>
<polygon fill="midnightblue" stroke="midnightblue" points="1012.67,-299.04 1018.45,-307.92 1019.47,-297.37 1012.67,-299.04"/>
</g>
<!-- Node18 -->
<g id="node18" class="node">
<title>Node18</title>
<g id="a_node18"><a xlink:href="redirection__multipipe_8c.html#a19e2c31eeb0eb25575df2277cbd7774e" target="_top" xlink:title=" ">
<polygon fill="none" stroke="black" points="675,-137.05 675,-156.05 783,-156.05 783,-137.05 675,-137.05"/>
<text text-anchor="middle" x="729" y="-144.05" font-family="Helvetica,sans-Serif" font-size="10.00">command_redirect</text>
</a>
</g>
</g>
<!-- Node1&#45;&gt;Node18 -->
<g id="edge32" class="edge">
<title>Node1&#45;&gt;Node18</title>
<path fill="none" stroke="midnightblue" d="M1013.37,-298.42C1003.25,-273.91 982.4,-231.85 951,-208.55 923.84,-188.39 835.53,-167.71 779.1,-156.06"/>
<polygon fill="midnightblue" stroke="midnightblue" points="1010.23,-300 1017.15,-308.02 1016.74,-297.43 1010.23,-300"/>
</g>
<!-- Node20 -->
<g id="node20" class="node">
<title>Node20</title>
<g id="a_node20"><a xlink:href="execution_8c.html#ac70faaedddc427b5051b808a8de40da4" target="_top" xlink:title="in this function we do the fork to create a child process we do the redirection if we need to">
<polygon fill="none" stroke="black" points="491.5,-23.05 491.5,-42.05 619.5,-42.05 619.5,-23.05 491.5,-23.05"/>
<text text-anchor="middle" x="555.5" y="-30.05" font-family="Helvetica,sans-Serif" font-size="10.00">one_command_execve</text>
</a>
</g>
</g>
<!-- Node1&#45;&gt;Node20 -->
<g id="edge39" class="edge">
<title>Node1&#45;&gt;Node20</title>
<path fill="none" stroke="midnightblue" d="M1018.18,-297.62C1011.28,-242.09 988.95,-87.59 951,-56.55 844.78,30.35 663.75,-3.88 589.63,-23.02"/>
<polygon fill="midnightblue" stroke="midnightblue" points="1014.75,-298.38 1019.42,-307.89 1021.7,-297.54 1014.75,-298.38"/>
</g>
<!-- Node21 -->
<g id="node21" class="node">
<title>Node21</title>
<g id="a_node21"><a xlink:href="multipipe_8c.html#a9b21b82386f20636501d279a66b7260d" target="_top" xlink:title="in the case of an error in the redirection, we have a case where the here_doc opened in a previous si...">
<polygon fill="none" stroke="black" points="325.5,-213.05 325.5,-232.05 426.5,-232.05 426.5,-213.05 325.5,-213.05"/>
<text text-anchor="middle" x="376" y="-220.05" font-family="Helvetica,sans-Serif" font-size="10.00">close_redir_temp</text>
</a>
</g>
</g>
<!-- Node1&#45;&gt;Node21 -->
<g id="edge29" class="edge">
<title>Node1&#45;&gt;Node21</title>
<path fill="none" stroke="midnightblue" d="M1017.55,-298.04C1009.47,-247.59 985.32,-114.96 951,-89.55 877.73,-35.28 705.99,-61.82 491,-146.55 449.17,-163.03 406.97,-196.6 387.74,-213.04"/>
<polygon fill="midnightblue" stroke="midnightblue" points="1014.1,-298.66 1019.1,-308 1021.02,-297.58 1014.1,-298.66"/>
</g>
<!-- Node22 -->
<g id="node22" class="node">
<title>Node22</title>
<g id="a_node22"><a xlink:href="redirection__multipipe_8c.html#a5b749bc2b4088984c0efe1c479ae6ec8" target="_top" xlink:title=" ">
<polygon fill="none" stroke="black" points="854.5,-99.05 854.5,-118.05 934.5,-118.05 934.5,-99.05 854.5,-99.05"/>
<text text-anchor="middle" x="894.5" y="-106.05" font-family="Helvetica,sans-Serif" font-size="10.00">fail_previous</text>
</a>
</g>
</g>
<!-- Node1&#45;&gt;Node22 -->
<g id="edge33" class="edge">
<title>Node1&#45;&gt;Node22</title>
<path fill="none" stroke="midnightblue" d="M1018.75,-297.33C1014.34,-258.91 999.44,-174.99 951,-127.55 946.42,-123.06 940.73,-119.63 934.75,-117.01"/>
<polygon fill="midnightblue" stroke="midnightblue" points="1015.31,-298.1 1019.8,-307.7 1022.27,-297.39 1015.31,-298.1"/>
</g>
<!-- Node2&#45;&gt;Node3 -->
<g id="edge2" class="edge">
<title>Node2&#45;&gt;Node3</title>
<path fill="none" stroke="midnightblue" d="M841.37,-488.55C821.06,-488.55 797.93,-488.55 778.04,-488.55"/>
<polygon fill="midnightblue" stroke="midnightblue" points="841.39,-492.05 851.39,-488.55 841.39,-485.05 841.39,-492.05"/>
</g>
<!-- Node2&#45;&gt;Node9 -->
<g id="edge9" class="edge">
<title>Node2&#45;&gt;Node9</title>
<path fill="none" stroke="midnightblue" d="M842.32,-476.65C819.33,-471.31 792.59,-465.09 770.96,-460.07"/>
<polygon fill="midnightblue" stroke="midnightblue" points="841.71,-480.1 852.24,-478.96 843.29,-473.29 841.71,-480.1"/>
</g>
<!-- Node3&#45;&gt;Node4 -->
<g id="edge3" class="edge">
<title>Node3&#45;&gt;Node4</title>
<path fill="none" stroke="midnightblue" d="M674.96,-476.79C650.71,-471.42 622.35,-465.14 599.47,-460.07"/>
<polygon fill="midnightblue" stroke="midnightblue" points="674.2,-480.21 684.72,-478.96 675.72,-473.38 674.2,-480.21"/>
</g>
<!-- Node4&#45;&gt;Node5 -->
<g id="edge4" class="edge">
<title>Node4&#45;&gt;Node5</title>
<path fill="none" stroke="midnightblue" d="M480.76,-440.67C427.49,-431.43 355.01,-414.42 297,-384.55 267.79,-369.51 239.93,-341.99 226.27,-327.34"/>
<polygon fill="midnightblue" stroke="midnightblue" points="480.37,-444.15 490.81,-442.36 481.53,-437.25 480.37,-444.15"/>
</g>
<!-- Node8 -->
<g id="node8" class="node">
<title>Node8</title>
<g id="a_node8"><a xlink:href="execution_8c.html#a4ef7db02a474eb1b198b2a25e1303118" target="_top" xlink:title="here we check if it&#39;s a builtin where we have to fork or not we still need to do the redirection veri...">
<polygon fill="none" stroke="black" points="172,-270.05 172,-289.05 261,-289.05 261,-270.05 172,-270.05"/>
<text text-anchor="middle" x="216.5" y="-277.05" font-family="Helvetica,sans-Serif" font-size="10.00">one_command</text>
</a>
</g>
</g>
<!-- Node4&#45;&gt;Node8 -->
<g id="edge7" class="edge">
<title>Node4&#45;&gt;Node8</title>
<path fill="none" stroke="midnightblue" d="M534.56,-434.78C515.18,-420.09 484.43,-398.41 455,-384.55 388.61,-353.27 359.43,-375.14 297,-336.55 277.21,-324.31 280.04,-311.91 261,-298.55 255.87,-294.95 249.96,-291.81 244.17,-289.18"/>
<polygon fill="midnightblue" stroke="midnightblue" points="532.56,-437.66 542.62,-440.99 536.84,-432.12 532.56,-437.66"/>
</g>
<!-- Node6 -->
<g id="node6" class="node">
<title>Node6</title>
<g id="a_node6"><a xlink:href="execution_8c.html#a9dffeca3c2ff474e24c3e98ab856df76" target="_top" xlink:title="first function of the execution part when we have something to do we have to deal with two cases ; if...">
<polygon fill="none" stroke="black" points="77,-289.05 77,-308.05 136,-308.05 136,-289.05 77,-289.05"/>
<text text-anchor="middle" x="106.5" y="-296.05" font-family="Helvetica,sans-Serif" font-size="10.00">executor</text>
</a>
</g>
</g>
<!-- Node5&#45;&gt;Node6 -->
<g id="edge5" class="edge">
<title>Node5&#45;&gt;Node6</title>
<path fill="none" stroke="midnightblue" d="M161.88,-308.11C152.97,-306.55 144.05,-304.98 136.08,-303.58"/>
<polygon fill="midnightblue" stroke="midnightblue" points="161.43,-311.59 171.88,-309.87 162.64,-304.69 161.43,-311.59"/>
</g>
<!-- Node7 -->
<g id="node7" class="node">
<title>Node7</title>
<g id="a_node7"><a xlink:href="main_8c.html#a647f21a28344e1d9c643f4115516d7c9" target="_top" xlink:title=" ">
<polygon fill="none" stroke="black" points="0,-289.05 0,-308.05 41,-308.05 41,-289.05 0,-289.05"/>
<text text-anchor="middle" x="20.5" y="-296.05" font-family="Helvetica,sans-Serif" font-size="10.00">main</text>
</a>
</g>
</g>
<!-- Node6&#45;&gt;Node7 -->
<g id="edge6" class="edge">
<title>Node6&#45;&gt;Node7</title>
<path fill="none" stroke="midnightblue" d="M66.48,-298.55C57.72,-298.55 48.78,-298.55 41.21,-298.55"/>
<polygon fill="midnightblue" stroke="midnightblue" points="66.59,-302.05 76.59,-298.55 66.59,-295.05 66.59,-302.05"/>
</g>
<!-- Node8&#45;&gt;Node6 -->
<g id="edge8" class="edge">
<title>Node8&#45;&gt;Node6</title>
<path fill="none" stroke="midnightblue" d="M161.88,-288.98C152.97,-290.55 144.05,-292.12 136.08,-293.52"/>
<polygon fill="midnightblue" stroke="midnightblue" points="162.64,-292.4 171.88,-287.22 161.43,-285.51 162.64,-292.4"/>
</g>
<!-- Node9&#45;&gt;Node4 -->
<g id="edge10" class="edge">
<title>Node9&#45;&gt;Node4</title>
<path fill="none" stroke="midnightblue" d="M645.74,-450.55C637.16,-450.55 628.54,-450.55 620.21,-450.55"/>
<polygon fill="midnightblue" stroke="midnightblue" points="645.77,-454.05 655.77,-450.55 645.77,-447.05 645.77,-454.05"/>
</g>
<!-- Node10&#45;&gt;Node11 -->
<g id="edge12" class="edge">
<title>Node10&#45;&gt;Node11</title>
<path fill="none" stroke="midnightblue" d="M827.44,-371.2C779.67,-368.3 713.67,-363.34 656,-355.55 637.18,-353 616.53,-349.23 598.94,-345.71"/>
<polygon fill="midnightblue" stroke="midnightblue" points="827.46,-374.7 837.65,-371.8 827.88,-367.72 827.46,-374.7"/>
</g>
<!-- Node10&#45;&gt;Node13 -->
<g id="edge16" class="edge">
<title>Node10&#45;&gt;Node13</title>
<path fill="none" stroke="midnightblue" d="M842.32,-362.65C819.33,-357.31 792.59,-351.09 770.96,-346.07"/>
<polygon fill="midnightblue" stroke="midnightblue" points="841.71,-366.1 852.24,-364.96 843.29,-359.29 841.71,-366.1"/>
</g>
<!-- Node10&#45;&gt;Node14 -->
<g id="edge18" class="edge">
<title>Node10&#45;&gt;Node14</title>
<path fill="none" stroke="midnightblue" d="M872.33,-358.8C854.41,-346.1 827.61,-328.6 802,-317.55 792.62,-313.5 782.18,-310.14 772.22,-307.43"/>
<polygon fill="midnightblue" stroke="midnightblue" points="870.69,-361.93 880.85,-364.94 874.78,-356.25 870.69,-361.93"/>
</g>
<!-- Node12 -->
<g id="node12" class="node">
<title>Node12</title>
<g id="a_node12"><a xlink:href="heredoc_8c.html#aa5260679719a4e1f862a6efd1f12cf85" target="_top" xlink:title="the function will go through all the commands and check the redirection if we encounter a heredoc we ...">
<polygon fill="none" stroke="black" points="310.5,-308.05 310.5,-327.05 441.5,-327.05 441.5,-308.05 310.5,-308.05"/>
<text text-anchor="middle" x="376" y="-315.05" font-family="Helvetica,sans-Serif" font-size="10.00">here_doc_management</text>
</a>
</g>
</g>
<!-- Node11&#45;&gt;Node12 -->
<g id="edge13" class="edge">
<title>Node11&#45;&gt;Node12</title>
<path fill="none" stroke="midnightblue" d="M502.47,-330.98C483.44,-328.94 461.67,-326.61 441.67,-324.47"/>
<polygon fill="midnightblue" stroke="midnightblue" points="502.12,-334.46 512.43,-332.04 502.86,-327.5 502.12,-334.46"/>
</g>
<!-- Node12&#45;&gt;Node5 -->
<g id="edge14" class="edge">
<title>Node12&#45;&gt;Node5</title>
<path fill="none" stroke="midnightblue" d="M300.26,-317.55C286.8,-317.55 273.2,-317.55 261.01,-317.55"/>
<polygon fill="midnightblue" stroke="midnightblue" points="300.48,-321.05 310.48,-317.55 300.48,-314.05 300.48,-321.05"/>
</g>
<!-- Node12&#45;&gt;Node8 -->
<g id="edge15" class="edge">
<title>Node12&#45;&gt;Node8</title>
<path fill="none" stroke="midnightblue" d="M325.4,-305.58C303.32,-300.25 277.7,-294.07 256.96,-289.07"/>
<polygon fill="midnightblue" stroke="midnightblue" points="324.71,-309.02 335.26,-307.96 326.36,-302.21 324.71,-309.02"/>
</g>
<!-- Node13&#45;&gt;Node11 -->
<g id="edge17" class="edge">
<title>Node13&#45;&gt;Node11</title>
<path fill="none" stroke="midnightblue" d="M667.24,-336.55C644.52,-336.55 619.24,-336.55 598.58,-336.55"/>
<polygon fill="midnightblue" stroke="midnightblue" points="667.47,-340.05 677.47,-336.55 667.47,-333.05 667.47,-340.05"/>
</g>
<!-- Node14&#45;&gt;Node11 -->
<g id="edge19" class="edge">
<title>Node14&#45;&gt;Node11</title>
<path fill="none" stroke="midnightblue" d="M675.68,-310.14C651.01,-315.61 621.95,-322.05 598.7,-327.2"/>
<polygon fill="midnightblue" stroke="midnightblue" points="676.6,-313.52 685.61,-307.94 675.09,-306.69 676.6,-313.52"/>
</g>
<!-- Node15&#45;&gt;Node16 -->
<g id="edge21" class="edge">
<title>Node15&#45;&gt;Node16</title>
<path fill="none" stroke="midnightblue" d="M499.6,-234.3C474.5,-239.67 445.16,-245.96 421.47,-251.03"/>
<polygon fill="midnightblue" stroke="midnightblue" points="500.66,-237.65 509.71,-232.14 499.2,-230.81 500.66,-237.65"/>
</g>
<!-- Node16&#45;&gt;Node5 -->
<g id="edge22" class="edge">
<title>Node16&#45;&gt;Node5</title>
<path fill="none" stroke="midnightblue" d="M338.9,-273.61C309.95,-284.09 269.99,-298.55 243.95,-307.98"/>
<polygon fill="midnightblue" stroke="midnightblue" points="340.43,-276.78 348.64,-270.09 338.04,-270.2 340.43,-276.78"/>
</g>
<!-- Node17&#45;&gt;Node18 -->
<g id="edge24" class="edge">
<title>Node17&#45;&gt;Node18</title>
<path fill="none" stroke="midnightblue" d="M839.58,-146.55C821.48,-146.55 801.32,-146.55 783.27,-146.55"/>
<polygon fill="midnightblue" stroke="midnightblue" points="839.69,-150.05 849.69,-146.55 839.68,-143.05 839.69,-150.05"/>
</g>
<!-- Node19 -->
<g id="node19" class="node">
<title>Node19</title>
<g id="a_node19"><a xlink:href="multipipe_8c.html#a43baea25481fdd02ce42e4d249f12353" target="_top" xlink:title=" ">
<polygon fill="none" stroke="black" points="514,-156.05 514,-175.05 597,-175.05 597,-156.05 514,-156.05"/>
<text text-anchor="middle" x="555.5" y="-163.05" font-family="Helvetica,sans-Serif" font-size="10.00">execute_child</text>
</a>
</g>
</g>
<!-- Node18&#45;&gt;Node19 -->
<g id="edge25" class="edge">
<title>Node18&#45;&gt;Node19</title>
<path fill="none" stroke="midnightblue" d="M664.52,-153.58C642.03,-156.07 617.34,-158.81 597.26,-161.03"/>
<polygon fill="midnightblue" stroke="midnightblue" points="665.12,-157.03 674.68,-152.45 664.35,-150.08 665.12,-157.03"/>
</g>
<!-- Node18&#45;&gt;Node20 -->
<g id="edge27" class="edge">
<title>Node18&#45;&gt;Node20</title>
<path fill="none" stroke="midnightblue" d="M705.33,-131.48C669.59,-107.72 601.11,-62.2 571.15,-42.29"/>
<polygon fill="midnightblue" stroke="midnightblue" points="703.41,-134.4 713.67,-137.02 707.28,-128.57 703.41,-134.4"/>
</g>
<!-- Node19&#45;&gt;Node16 -->
<g id="edge26" class="edge">
<title>Node19&#45;&gt;Node16</title>
<path fill="none" stroke="midnightblue" d="M526.75,-179.96C515.22,-186.5 501.99,-194.73 491,-203.55 472.85,-218.1 475.12,-229.87 455,-241.55 448.37,-245.39 440.99,-248.46 433.48,-250.92"/>
<polygon fill="midnightblue" stroke="midnightblue" points="528.5,-183 535.56,-175.1 525.12,-176.87 528.5,-183"/>
</g>
<!-- Node20&#45;&gt;Node8 -->
<g id="edge28" class="edge">
<title>Node20&#45;&gt;Node8</title>
<path fill="none" stroke="midnightblue" d="M514.45,-45.68C506.49,-48.84 498.33,-52.49 491,-56.55 396.32,-108.87 379.34,-133.39 297,-203.55 270.55,-226.08 241.53,-254.99 226.96,-269.82"/>
<polygon fill="midnightblue" stroke="midnightblue" points="515.87,-48.88 523.99,-42.07 513.4,-42.33 515.87,-48.88"/>
</g>
<!-- Node21&#45;&gt;Node5 -->
<g id="edge30" class="edge">
<title>Node21&#45;&gt;Node5</title>
<path fill="none" stroke="midnightblue" d="M315.64,-231.8C309.01,-234.31 302.63,-237.5 297,-241.55 272.67,-259.03 283.73,-279.02 261,-298.55 256.62,-302.31 251.39,-305.43 246.09,-307.98"/>
<polygon fill="midnightblue" stroke="midnightblue" points="317.07,-235.01 325.48,-228.57 314.89,-228.36 317.07,-235.01"/>
</g>
<!-- Node21&#45;&gt;Node8 -->
<g id="edge31" class="edge">
<title>Node21&#45;&gt;Node8</title>
<path fill="none" stroke="midnightblue" d="M319,-234.7C311.53,-236.75 304.03,-239.04 297,-241.55 274.81,-249.46 250.55,-261.6 234.74,-270.02"/>
<polygon fill="midnightblue" stroke="midnightblue" points="319.97,-238.06 328.75,-232.14 318.19,-231.29 319.97,-238.06"/>
</g>
<!-- Node22&#45;&gt;Node18 -->
<g id="edge34" class="edge">
<title>Node22&#45;&gt;Node18</title>
<path fill="none" stroke="midnightblue" d="M844.59,-119.91C821.17,-125.36 793.44,-131.8 771.12,-136.99"/>
<polygon fill="midnightblue" stroke="midnightblue" points="845.39,-123.32 854.34,-117.65 843.8,-116.5 845.39,-123.32"/>
</g>
</g>
</svg>
        <g id="navigator" transform="translate(0 0)" fill="#404254">
                <rect fill="#f2f5e9" fill-opacity="0.5" stroke="#606060" stroke-width=".5" x="0" y="0" width="60" height="60"/>
                <use id="zoomplus" xlink:href="#zoomPlus" x="17" y="9" onmousedown="handleZoom(evt,'in')"/>
                <use id="zoomminus" xlink:href="#zoomMin" x="42" y="9" onmousedown="handleZoom(evt,'out')"/>
                <use id="reset" xlink:href="#resetDef" x="30" y="36" onmousedown="handleReset()"/>
                <g id="arrowUp" xlink:href="#dirArrow" transform="translate(30 24)" onmousedown="handlePan(0,-1)">
                  <use xlink:href="#rim" fill="#404040">
                        <set attributeName="fill" to="#808080" begin="arrowUp.mouseover" end="arrowUp.mouseout"/>
                  </use>
                  <path fill="none" stroke="white" stroke-width="1.5" d="M0,-3.0v7 M-2.5,-0.5L0,-3.0L2.5,-0.5"/>
                </g>
                <g id="arrowRight" xlink:href="#dirArrow" transform="rotate(90) translate(36 -43)" onmousedown="handlePan(1,0)">
                  <use xlink:href="#rim" fill="#404040">
                        <set attributeName="fill" to="#808080" begin="arrowRight.mouseover" end="arrowRight.mouseout"/>
                  </use>
                  <path fill="none" stroke="white" stroke-width="1.5" d="M0,-3.0v7 M-2.5,-0.5L0,-3.0L2.5,-0.5"/>
                </g>
                <g id="arrowDown" xlink:href="#dirArrow" transform="rotate(180) translate(-30 -48)" onmousedown="handlePan(0,1)">
                  <use xlink:href="#rim" fill="#404040">
                        <set attributeName="fill" to="#808080" begin="arrowDown.mouseover" end="arrowDown.mouseout"/>
                  </use>
                  <path fill="none" stroke="white" stroke-width="1.5" d="M0,-3.0v7 M-2.5,-0.5L0,-3.0L2.5,-0.5"/>
                </g>
                <g id="arrowLeft" xlink:href="#dirArrow" transform="rotate(270) translate(-36 17)" onmousedown="handlePan(-1,0)">
                  <use xlink:href="#rim" fill="#404040">
                        <set attributeName="fill" to="#808080" begin="arrowLeft.mouseover" end="arrowLeft.mouseout"/>
                  </use>
                  <path fill="none" stroke="white" stroke-width="1.5" d="M0,-3.0v7 M-2.5,-0.5L0,-3.0L2.5,-0.5"/>
                </g>
        </g>
        <svg viewBox="0 0 15 15" width="100%" height="30px" preserveAspectRatio="xMaxYMin meet">
         <g id="arrow_out" transform="scale(0.3 0.3)">
          <a xlink:href="minishell_8h_a1bca6910c90a19d96b36506a2e2cebf6_icgraph_org.svg" target="_base">
           <rect id="button" ry="5" rx="5" y="6" x="6" height="38" width="38"
                fill="#f2f5e9" fill-opacity="0.5" stroke="#606060" stroke-width="1.0"/>
           <path id="arrow"
             d="M 11.500037,31.436501 C 11.940474,20.09759 22.043105,11.32322 32.158766,21.979434 L 37.068811,17.246167 C 37.068811,17.246167 37.088388,32 37.088388,32 L 22.160133,31.978069 C 22.160133,31.978069 26.997745,27.140456 26.997745,27.140456 C 18.528582,18.264221 13.291696,25.230495 11.500037,31.436501 z"
             style="fill:#404040;"/>
          </a>
         </g>
        </svg>
</svg>
