<?xml version="1.0" encoding="UTF-8" standalone="no"?>
<!DOCTYPE svg PUBLIC "-//W3C//DTD SVG 1.1//EN"
 "http://www.w3.org/Graphics/SVG/1.1/DTD/svg11.dtd">
<!-- Generated by graphviz version 2.43.0 (0)
 -->
<!-- Title: execute_child Pages: 1 -->
<svg width="1214pt" height="564pt"
 viewBox="0.00 0.00 1214.00 564.31" xmlns="http://www.w3.org/2000/svg" xmlns:xlink="http://www.w3.org/1999/xlink">
<g id="graph0" class="graph" transform="scale(1 1) rotate(0) translate(4 560.31)">
<title>execute_child</title>
<!-- Node1 -->
<g id="node1" class="node">
<title>Node1</title>
<g id="a_node1"><a xlink:title=" ">
<polygon fill="#bfbfbf" stroke="black" points="0,-437.5 0,-456.5 83,-456.5 83,-437.5 0,-437.5"/>
<text text-anchor="middle" x="41.5" y="-444.5" font-family="Helvetica,sans-Serif" font-size="10.00">execute_child</text>
</a>
</g>
</g>
<!-- Node2 -->
<g id="node2" class="node">
<title>Node2</title>
<g id="a_node2"><a xlink:href="multipipe_8c.html#ac70e2499b8aeb789658ff4596ded7221" target="_top" xlink:title="as we are going to fork and create process, the new process will have inherited of all the opened fd....">
<polygon fill="none" stroke="black" points="119,-532.5 119,-551.5 226,-551.5 226,-532.5 119,-532.5"/>
<text text-anchor="middle" x="172.5" y="-539.5" font-family="Helvetica,sans-Serif" font-size="10.00">close_fd_heredocs</text>
</a>
</g>
</g>
<!-- Node1&#45;&gt;Node2 -->
<g id="edge1" class="edge">
<title>Node1&#45;&gt;Node2</title>
<path fill="none" stroke="midnightblue" d="M51.1,-456.78C64.48,-471.53 91.57,-499.69 119,-518 124.53,-521.69 130.71,-525.07 136.84,-528.07"/>
<polygon fill="midnightblue" stroke="midnightblue" points="135.78,-531.43 146.33,-532.44 138.71,-525.08 135.78,-531.43"/>
</g>
<!-- Node3 -->
<g id="node3" class="node">
<title>Node3</title>
<g id="a_node3"><a xlink:href="redirection__multipipe_8c.html#a26c96266f1645047a9bdd9af22de94a7" target="_top" xlink:title=" ">
<polygon fill="none" stroke="black" points="671,-494.5 671,-513.5 779,-513.5 779,-494.5 671,-494.5"/>
<text text-anchor="middle" x="725" y="-501.5" font-family="Helvetica,sans-Serif" font-size="10.00">command_redirect</text>
</a>
</g>
</g>
<!-- Node1&#45;&gt;Node3 -->
<g id="edge2" class="edge">
<title>Node1&#45;&gt;Node3</title>
<path fill="none" stroke="midnightblue" d="M69.21,-456.54C117.1,-472.77 221.04,-504 311.5,-504 311.5,-504 311.5,-504 444.5,-504 518.73,-504 604.05,-504 660.7,-504"/>
<polygon fill="midnightblue" stroke="midnightblue" points="660.94,-507.5 670.94,-504 660.94,-500.5 660.94,-507.5"/>
</g>
<!-- Node8 -->
<g id="node8" class="node">
<title>Node8</title>
<g id="a_node8"><a xlink:href="lst__cmd2_8c.html#a132395876bb5a7cfe926b9e37571a1e3" target="_top" xlink:title=" ">
<polygon fill="none" stroke="black" points="533,-418.5 533,-437.5 625,-437.5 625,-418.5 533,-418.5"/>
<text text-anchor="middle" x="579" y="-425.5" font-family="Helvetica,sans-Serif" font-size="10.00">destructor_cmd</text>
</a>
</g>
</g>
<!-- Node1&#45;&gt;Node8 -->
<g id="edge10" class="edge">
<title>Node1&#45;&gt;Node8</title>
<path fill="none" stroke="midnightblue" d="M83.13,-448.48C161.57,-450.92 339.23,-454.34 488,-442 499.34,-441.06 511.41,-439.54 522.9,-437.85"/>
<polygon fill="midnightblue" stroke="midnightblue" points="523.48,-441.3 532.83,-436.32 522.41,-434.38 523.48,-441.3"/>
</g>
<!-- Node12 -->
<g id="node12" class="node">
<title>Node12</title>
<g id="a_node12"><a xlink:href="lst__env_8c.html#a226ae0aa054e697998b2ecbc5d61d592" target="_top" xlink:title=" ">
<polygon fill="none" stroke="black" points="534.5,-380.5 534.5,-399.5 623.5,-399.5 623.5,-380.5 534.5,-380.5"/>
<text text-anchor="middle" x="579" y="-387.5" font-family="Helvetica,sans-Serif" font-size="10.00">destructor_env</text>
</a>
</g>
</g>
<!-- Node1&#45;&gt;Node12 -->
<g id="edge16" class="edge">
<title>Node1&#45;&gt;Node12</title>
<path fill="none" stroke="midnightblue" d="M83.23,-445.2C161.84,-441.37 339.79,-430.88 488,-409 500.96,-407.09 514.87,-404.45 527.77,-401.74"/>
<polygon fill="midnightblue" stroke="midnightblue" points="528.83,-405.1 537.87,-399.58 527.36,-398.25 528.83,-405.1"/>
</g>
<!-- Node14 -->
<g id="node14" class="node">
<title>Node14</title>
<g id="a_node14"><a xlink:href="execution__node_8c.html#adda76b40c34c18ec83b1d98700083f8a" target="_top" xlink:title="we are going to execute the command here we have a security about absolute path given =&gt; because it&#39;s...">
<polygon fill="none" stroke="black" points="126,-323.5 126,-342.5 219,-342.5 219,-323.5 126,-323.5"/>
<text text-anchor="middle" x="172.5" y="-330.5" font-family="Helvetica,sans-Serif" font-size="10.00">execution_node</text>
</a>
</g>
</g>
<!-- Node1&#45;&gt;Node14 -->
<g id="edge18" class="edge">
<title>Node1&#45;&gt;Node14</title>
<path fill="none" stroke="midnightblue" d="M53.5,-437.28C75.59,-417.76 125.55,-373.61 152.84,-349.49"/>
<polygon fill="midnightblue" stroke="midnightblue" points="155.35,-351.94 160.53,-342.69 150.72,-346.69 155.35,-351.94"/>
</g>
<!-- Node44 -->
<g id="node44" class="node">
<title>Node44</title>
<g id="a_node44"><a xlink:href="signals_8c.html#a368a774e2b304a3de55f58168563967d" target="_top" xlink:title=" ">
<polygon fill="none" stroke="black" points="126.5,-285.5 126.5,-304.5 218.5,-304.5 218.5,-285.5 126.5,-285.5"/>
<text text-anchor="middle" x="172.5" y="-292.5" font-family="Helvetica,sans-Serif" font-size="10.00">sigquit_handler</text>
</a>
</g>
</g>
<!-- Node1&#45;&gt;Node44 -->
<g id="edge56" class="edge">
<title>Node1&#45;&gt;Node44</title>
<path fill="none" stroke="midnightblue" d="M45.42,-437.45C53.28,-413.27 77.17,-349.1 119,-314 121.01,-312.31 123.19,-310.77 125.47,-309.35"/>
<polygon fill="midnightblue" stroke="midnightblue" points="127.44,-312.28 134.68,-304.54 124.19,-306.07 127.44,-312.28"/>
</g>
<!-- Node4 -->
<g id="node4" class="node">
<title>Node4</title>
<g id="a_node4"><a xlink:href="redirection__multipipe_8c.html#a221f4b2814fe6c3ab1b3ad1fd7f24fb2" target="_top" xlink:title=" ">
<polygon fill="none" stroke="black" points="816,-494.5 816,-513.5 955,-513.5 955,-494.5 816,-494.5"/>
<text text-anchor="middle" x="885.5" y="-501.5" font-family="Helvetica,sans-Serif" font-size="10.00">command_redirect_part2</text>
</a>
</g>
</g>
<!-- Node3&#45;&gt;Node4 -->
<g id="edge3" class="edge">
<title>Node3&#45;&gt;Node4</title>
<path fill="none" stroke="midnightblue" d="M779.22,-504C787.78,-504 796.79,-504 805.8,-504"/>
<polygon fill="midnightblue" stroke="midnightblue" points="805.94,-507.5 815.94,-504 805.94,-500.5 805.94,-507.5"/>
</g>
<!-- Node6 -->
<g id="node6" class="node">
<title>Node6</title>
<g id="a_node6"><a xlink:href="utils_8c.html#a1bca6910c90a19d96b36506a2e2cebf6" target="_top" xlink:title="as fd are all setup to &#45;1 at the beginning we check if they are open before trying to close we avoid ...">
<polygon fill="none" stroke="black" points="1132,-475.5 1132,-494.5 1201,-494.5 1201,-475.5 1132,-475.5"/>
<text text-anchor="middle" x="1166.5" y="-482.5" font-family="Helvetica,sans-Serif" font-size="10.00">ft_close_fd</text>
</a>
</g>
</g>
<!-- Node3&#45;&gt;Node6 -->
<g id="edge9" class="edge">
<title>Node3&#45;&gt;Node6</title>
<path fill="none" stroke="midnightblue" d="M752.01,-513.65C812.98,-534.78 969.13,-580.11 1091,-540 1113.72,-532.52 1135.2,-515.16 1149.2,-501.92"/>
<polygon fill="midnightblue" stroke="midnightblue" points="1151.86,-504.22 1156.54,-494.71 1146.95,-499.23 1151.86,-504.22"/>
</g>
<!-- Node7 -->
<g id="node7" class="node">
<title>Node7</title>
<g id="a_node7"><a xlink:href="redirection__multipipe_8c.html#a5b749bc2b4088984c0efe1c479ae6ec8" target="_top" xlink:title=" ">
<polygon fill="none" stroke="black" points="1001,-456.5 1001,-475.5 1081,-475.5 1081,-456.5 1001,-456.5"/>
<text text-anchor="middle" x="1041" y="-463.5" font-family="Helvetica,sans-Serif" font-size="10.00">fail_previous</text>
</a>
</g>
</g>
<!-- Node3&#45;&gt;Node7 -->
<g id="edge7" class="edge">
<title>Node3&#45;&gt;Node7</title>
<path fill="none" stroke="midnightblue" d="M766.13,-494.42C781.64,-491.01 799.57,-487.42 816,-485 875.82,-476.18 945.28,-471.08 990.8,-468.42"/>
<polygon fill="midnightblue" stroke="midnightblue" points="991.2,-471.91 1000.98,-467.85 990.8,-464.92 991.2,-471.91"/>
</g>
<!-- Node5 -->
<g id="node5" class="node">
<title>Node5</title>
<g id="a_node5"><a xlink:href="redirection__multipipe_8c.html#a3a0d7f695cf53df46301e14ffab77638" target="_top" xlink:title=" ">
<polygon fill="none" stroke="black" points="996.5,-494.5 996.5,-513.5 1085.5,-513.5 1085.5,-494.5 996.5,-494.5"/>
<text text-anchor="middle" x="1041" y="-501.5" font-family="Helvetica,sans-Serif" font-size="10.00">close_previous</text>
</a>
</g>
</g>
<!-- Node4&#45;&gt;Node5 -->
<g id="edge4" class="edge">
<title>Node4&#45;&gt;Node5</title>
<path fill="none" stroke="midnightblue" d="M955.17,-504C965.48,-504 975.98,-504 985.93,-504"/>
<polygon fill="midnightblue" stroke="midnightblue" points="986.06,-507.5 996.06,-504 986.06,-500.5 986.06,-507.5"/>
</g>
<!-- Node4&#45;&gt;Node6 -->
<g id="edge6" class="edge">
<title>Node4&#45;&gt;Node6</title>
<path fill="none" stroke="midnightblue" d="M919.2,-513.51C959.97,-523.91 1031.54,-537.29 1091,-523 1109.65,-518.52 1128.88,-508.55 1143.13,-499.94"/>
<polygon fill="midnightblue" stroke="midnightblue" points="1145.11,-502.84 1151.73,-494.56 1141.39,-496.9 1145.11,-502.84"/>
</g>
<!-- Node5&#45;&gt;Node6 -->
<g id="edge5" class="edge">
<title>Node5&#45;&gt;Node6</title>
<path fill="none" stroke="midnightblue" d="M1085.54,-497.3C1097.25,-495.5 1109.92,-493.55 1121.65,-491.75"/>
<polygon fill="midnightblue" stroke="midnightblue" points="1122.31,-495.19 1131.66,-490.21 1121.24,-488.27 1122.31,-495.19"/>
</g>
<!-- Node7&#45;&gt;Node6 -->
<g id="edge8" class="edge">
<title>Node7&#45;&gt;Node6</title>
<path fill="none" stroke="midnightblue" d="M1081.08,-472.01C1093.9,-473.98 1108.24,-476.19 1121.41,-478.22"/>
<polygon fill="midnightblue" stroke="midnightblue" points="1121.26,-481.73 1131.67,-479.8 1122.32,-474.82 1121.26,-481.73"/>
</g>
<!-- Node9 -->
<g id="node9" class="node">
<title>Node9</title>
<g id="a_node9"><a xlink:href="lst__cmd2_8c.html#a8e2b63759f149b547e0d07f210ede9b3" target="_top" xlink:title=" ">
<polygon fill="none" stroke="black" points="694.5,-418.5 694.5,-437.5 755.5,-437.5 755.5,-418.5 694.5,-418.5"/>
<text text-anchor="middle" x="725" y="-425.5" font-family="Helvetica,sans-Serif" font-size="10.00">pop_cmd</text>
</a>
</g>
</g>
<!-- Node8&#45;&gt;Node9 -->
<g id="edge11" class="edge">
<title>Node8&#45;&gt;Node9</title>
<path fill="none" stroke="midnightblue" d="M625.17,-428C644.15,-428 666.03,-428 684.37,-428"/>
<polygon fill="midnightblue" stroke="midnightblue" points="684.44,-431.5 694.44,-428 684.44,-424.5 684.44,-431.5"/>
</g>
<!-- Node9&#45;&gt;Node6 -->
<g id="edge15" class="edge">
<title>Node9&#45;&gt;Node6</title>
<path fill="none" stroke="midnightblue" d="M754.43,-418.47C817.82,-398.9 974.29,-359.97 1091,-409 1118.83,-420.69 1141.49,-448.42 1154.23,-466.95"/>
<polygon fill="midnightblue" stroke="midnightblue" points="1151.4,-469.01 1159.82,-475.43 1157.24,-465.16 1151.4,-469.01"/>
</g>
<!-- Node10 -->
<g id="node10" class="node">
<title>Node10</title>
<g id="a_node10"><a xlink:href="lst__redir2_8c.html#a30ccaf401a4f897e48ead5fe54f4b307" target="_top" xlink:title=" ">
<polygon fill="none" stroke="black" points="838.5,-418.5 838.5,-437.5 932.5,-437.5 932.5,-418.5 838.5,-418.5"/>
<text text-anchor="middle" x="885.5" y="-425.5" font-family="Helvetica,sans-Serif" font-size="10.00">destructor_redir</text>
</a>
</g>
</g>
<!-- Node9&#45;&gt;Node10 -->
<g id="edge12" class="edge">
<title>Node9&#45;&gt;Node10</title>
<path fill="none" stroke="midnightblue" d="M755.81,-428C776.14,-428 803.68,-428 828.07,-428"/>
<polygon fill="midnightblue" stroke="midnightblue" points="828.3,-431.5 838.3,-428 828.3,-424.5 828.3,-431.5"/>
</g>
<!-- Node11 -->
<g id="node11" class="node">
<title>Node11</title>
<g id="a_node11"><a xlink:href="lst__redir2_8c.html#ade8f0bdda51d9bf348ebeb38fefba881" target="_top" xlink:title=" ">
<polygon fill="none" stroke="black" points="1010,-418.5 1010,-437.5 1072,-437.5 1072,-418.5 1010,-418.5"/>
<text text-anchor="middle" x="1041" y="-425.5" font-family="Helvetica,sans-Serif" font-size="10.00">pop_redir</text>
</a>
</g>
</g>
<!-- Node10&#45;&gt;Node11 -->
<g id="edge13" class="edge">
<title>Node10&#45;&gt;Node11</title>
<path fill="none" stroke="midnightblue" d="M932.56,-428C954.01,-428 979.3,-428 999.95,-428"/>
<polygon fill="midnightblue" stroke="midnightblue" points="999.98,-431.5 1009.98,-428 999.98,-424.5 999.98,-431.5"/>
</g>
<!-- Node11&#45;&gt;Node6 -->
<g id="edge14" class="edge">
<title>Node11&#45;&gt;Node6</title>
<path fill="none" stroke="midnightblue" d="M1068.14,-437.57C1075.59,-440.45 1083.67,-443.72 1091,-447 1107.15,-454.23 1124.81,-463.19 1138.88,-470.59"/>
<polygon fill="midnightblue" stroke="midnightblue" points="1137.51,-473.83 1147.98,-475.43 1140.79,-467.64 1137.51,-473.83"/>
</g>
<!-- Node13 -->
<g id="node13" class="node">
<title>Node13</title>
<g id="a_node13"><a xlink:href="lst__env_8c.html#a058c245b5f2ef22f9d2659f90e4d3537" target="_top" xlink:title=" ">
<polygon fill="none" stroke="black" points="696,-380.5 696,-399.5 754,-399.5 754,-380.5 696,-380.5"/>
<text text-anchor="middle" x="725" y="-387.5" font-family="Helvetica,sans-Serif" font-size="10.00">pop_env</text>
</a>
</g>
</g>
<!-- Node12&#45;&gt;Node13 -->
<g id="edge17" class="edge">
<title>Node12&#45;&gt;Node13</title>
<path fill="none" stroke="midnightblue" d="M623.6,-390C643.43,-390 666.69,-390 685.83,-390"/>
<polygon fill="midnightblue" stroke="midnightblue" points="685.99,-393.5 695.99,-390 685.99,-386.5 685.99,-393.5"/>
</g>
<!-- Node15 -->
<g id="node15" class="node">
<title>Node15</title>
<g id="a_node15"><a xlink:href="execution__node_8c.html#a74f4c34ebdc38c1fb50db2aa13f97b66" target="_top" xlink:title=" ">
<polygon fill="none" stroke="black" points="262,-380.5 262,-399.5 363,-399.5 363,-380.5 262,-380.5"/>
<text text-anchor="middle" x="312.5" y="-387.5" font-family="Helvetica,sans-Serif" font-size="10.00">check_accessible</text>
</a>
</g>
</g>
<!-- Node14&#45;&gt;Node15 -->
<g id="edge19" class="edge">
<title>Node14&#45;&gt;Node15</title>
<path fill="none" stroke="midnightblue" d="M196.6,-342.54C219.09,-351.83 253.48,-366.04 278.78,-376.49"/>
<polygon fill="midnightblue" stroke="midnightblue" points="277.75,-379.85 288.33,-380.43 280.42,-373.38 277.75,-379.85"/>
</g>
<!-- Node16 -->
<g id="node16" class="node">
<title>Node16</title>
<g id="a_node16"><a xlink:href="execution__node_8c.html#adc2c91230d4a0a1a1f98db2a888afcaa" target="_top" xlink:title="error message management for the specific case of execution">
<polygon fill="none" stroke="black" points="399,-380.5 399,-399.5 488,-399.5 488,-380.5 399,-380.5"/>
<text text-anchor="middle" x="443.5" y="-387.5" font-family="Helvetica,sans-Serif" font-size="10.00">message_error</text>
</a>
</g>
</g>
<!-- Node14&#45;&gt;Node16 -->
<g id="edge52" class="edge">
<title>Node14&#45;&gt;Node16</title>
<path fill="none" stroke="midnightblue" d="M219.16,-341.67C257.61,-349.09 314,-360.24 363,-371 372.98,-373.19 383.63,-375.65 393.79,-378.06"/>
<polygon fill="midnightblue" stroke="midnightblue" points="393.21,-381.52 403.75,-380.44 394.83,-374.71 393.21,-381.52"/>
</g>
<!-- Node17 -->
<g id="node17" class="node">
<title>Node17</title>
<g id="a_node17"><a xlink:href="launcher_8c.html#a3acc0bb56da881cc8609ca9e94ec8e93" target="_top" xlink:title="detect if it&#39;s a builtin with strncmp() but the real question is &quot;is it a builtin I have &#160;to launch i...">
<polygon fill="none" stroke="black" points="276,-304.5 276,-323.5 349,-323.5 349,-304.5 276,-304.5"/>
<text text-anchor="middle" x="312.5" y="-311.5" font-family="Helvetica,sans-Serif" font-size="10.00">is_it_builtin</text>
</a>
</g>
</g>
<!-- Node14&#45;&gt;Node17 -->
<g id="edge21" class="edge">
<title>Node14&#45;&gt;Node17</title>
<path fill="none" stroke="midnightblue" d="M219.07,-326.73C234,-324.67 250.58,-322.39 265.54,-320.33"/>
<polygon fill="midnightblue" stroke="midnightblue" points="266.16,-323.78 275.59,-318.94 265.21,-316.84 266.16,-323.78"/>
</g>
<!-- Node18 -->
<g id="node18" class="node">
<title>Node18</title>
<g id="a_node18"><a xlink:href="launcher_8c.html#a7bee4f6fbfd70ef7ec1f52856538ac71" target="_top" xlink:title="launch the builtin &#160;&#160;some of them are not present because we have to fork() them why ?...">
<polygon fill="none" stroke="black" points="270,-247.5 270,-266.5 355,-266.5 355,-247.5 270,-247.5"/>
<text text-anchor="middle" x="312.5" y="-254.5" font-family="Helvetica,sans-Serif" font-size="10.00">launch_builtin</text>
</a>
</g>
</g>
<!-- Node14&#45;&gt;Node18 -->
<g id="edge22" class="edge">
<title>Node14&#45;&gt;Node18</title>
<path fill="none" stroke="midnightblue" d="M203.73,-323.46C211.16,-320.74 218.99,-317.54 226,-314 249.46,-302.15 274.23,-285.06 291.04,-272.69"/>
<polygon fill="midnightblue" stroke="midnightblue" points="293.14,-275.49 299.05,-266.7 288.95,-269.89 293.14,-275.49"/>
</g>
<!-- Node40 -->
<g id="node40" class="node">
<title>Node40</title>
<g id="a_node40"><a xlink:href="lst__env__two_8c.html#aafcce0b2f2958645e84ae23b14116680" target="_top" xlink:title=" ">
<polygon fill="none" stroke="black" points="268.5,-38.5 268.5,-57.5 356.5,-57.5 356.5,-38.5 268.5,-38.5"/>
<text text-anchor="middle" x="312.5" y="-45.5" font-family="Helvetica,sans-Serif" font-size="10.00">lst_to_tab_env</text>
</a>
</g>
</g>
<!-- Node14&#45;&gt;Node40 -->
<g id="edge49" class="edge">
<title>Node14&#45;&gt;Node40</title>
<path fill="none" stroke="midnightblue" d="M214.31,-323.47C218.76,-321.01 222.81,-317.91 226,-314 296.11,-228.03 192.72,-153.64 262,-67 262.97,-65.79 264.03,-64.65 265.16,-63.59"/>
<polygon fill="midnightblue" stroke="midnightblue" points="267.43,-66.27 273.48,-57.57 263.32,-60.59 267.43,-66.27"/>
</g>
<!-- Node43 -->
<g id="node43" class="node">
<title>Node43</title>
<g id="a_node43"><a xlink:href="getenv_8c.html#a5d0cf05c2622983111dcfc0f179c5739" target="_top" xlink:title=" ">
<polygon fill="none" stroke="black" points="274.5,-76.5 274.5,-95.5 350.5,-95.5 350.5,-76.5 274.5,-76.5"/>
<text text-anchor="middle" x="312.5" y="-83.5" font-family="Helvetica,sans-Serif" font-size="10.00">search_path</text>
</a>
</g>
</g>
<!-- Node14&#45;&gt;Node43 -->
<g id="edge53" class="edge">
<title>Node14&#45;&gt;Node43</title>
<path fill="none" stroke="midnightblue" d="M212.23,-323.45C217.29,-320.98 222.07,-317.88 226,-314 241.65,-298.53 288.39,-157.43 305.31,-105.27"/>
<polygon fill="midnightblue" stroke="midnightblue" points="308.7,-106.15 308.44,-95.56 302.04,-104 308.7,-106.15"/>
</g>
<!-- Node15&#45;&gt;Node16 -->
<g id="edge20" class="edge">
<title>Node15&#45;&gt;Node16</title>
<path fill="none" stroke="midnightblue" d="M363.01,-390C371.39,-390 380.13,-390 388.62,-390"/>
<polygon fill="midnightblue" stroke="midnightblue" points="388.82,-393.5 398.82,-390 388.82,-386.5 388.82,-393.5"/>
</g>
<!-- Node19 -->
<g id="node19" class="node">
<title>Node19</title>
<g id="a_node19"><a xlink:href="cd_8c.html#afa3cf8a1d55856208b8d44453d4cf9b4" target="_top" xlink:title=" ">
<polygon fill="none" stroke="black" points="429,-190.5 429,-209.5 458,-209.5 458,-190.5 429,-190.5"/>
<text text-anchor="middle" x="443.5" y="-197.5" font-family="Helvetica,sans-Serif" font-size="10.00">cd</text>
</a>
</g>
</g>
<!-- Node18&#45;&gt;Node19 -->
<g id="edge23" class="edge">
<title>Node18&#45;&gt;Node19</title>
<path fill="none" stroke="midnightblue" d="M334.92,-247.44C352.2,-239.73 377.15,-228.63 399,-219 405.53,-216.12 412.63,-213.02 419.15,-210.17"/>
<polygon fill="midnightblue" stroke="midnightblue" points="421.01,-213.17 428.78,-205.97 418.21,-206.76 421.01,-213.17"/>
</g>
<!-- Node24 -->
<g id="node24" class="node">
<title>Node24</title>
<g id="a_node24"><a xlink:href="env_8c.html#a08aa1a32a4d2f6bcca10f6424195d4ef" target="_top" xlink:title=" ">
<polygon fill="none" stroke="black" points="426,-304.5 426,-323.5 461,-323.5 461,-304.5 426,-304.5"/>
<text text-anchor="middle" x="443.5" y="-311.5" font-family="Helvetica,sans-Serif" font-size="10.00">env</text>
</a>
</g>
</g>
<!-- Node18&#45;&gt;Node24 -->
<g id="edge28" class="edge">
<title>Node18&#45;&gt;Node24</title>
<path fill="none" stroke="midnightblue" d="M334.92,-266.56C352.2,-274.27 377.15,-285.37 399,-295 404.7,-297.51 410.83,-300.2 416.63,-302.73"/>
<polygon fill="midnightblue" stroke="midnightblue" points="415.4,-306.01 425.96,-306.81 418.2,-299.6 415.4,-306.01"/>
</g>
<!-- Node25 -->
<g id="node25" class="node">
<title>Node25</title>
<g id="a_node25"><a xlink:href="export_8c.html#a1bb2544b6254ee4ddb592a4cfa61734f" target="_top" xlink:title=" ">
<polygon fill="none" stroke="black" points="408,-152.5 408,-171.5 479,-171.5 479,-152.5 408,-152.5"/>
<text text-anchor="middle" x="443.5" y="-159.5" font-family="Helvetica,sans-Serif" font-size="10.00">export_call</text>
</a>
</g>
</g>
<!-- Node18&#45;&gt;Node25 -->
<g id="edge29" class="edge">
<title>Node18&#45;&gt;Node25</title>
<path fill="none" stroke="midnightblue" d="M322.68,-247.02C337.52,-231.34 368.22,-200.7 399,-181 401.78,-179.22 404.75,-177.54 407.78,-175.96"/>
<polygon fill="midnightblue" stroke="midnightblue" points="409.46,-179.04 416.96,-171.55 406.43,-172.72 409.46,-179.04"/>
</g>
<!-- Node33 -->
<g id="node33" class="node">
<title>Node33</title>
<g id="a_node33"><a xlink:href="my__echo_8c.html#a5522916069f77552d810e207670e3170" target="_top" xlink:title=" ">
<polygon fill="none" stroke="black" points="413,-266.5 413,-285.5 474,-285.5 474,-266.5 413,-266.5"/>
<text text-anchor="middle" x="443.5" y="-273.5" font-family="Helvetica,sans-Serif" font-size="10.00">my_echo</text>
</a>
</g>
</g>
<!-- Node18&#45;&gt;Node33 -->
<g id="edge38" class="edge">
<title>Node18&#45;&gt;Node33</title>
<path fill="none" stroke="midnightblue" d="M355.03,-263.12C370.35,-265.37 387.66,-267.92 402.81,-270.15"/>
<polygon fill="midnightblue" stroke="midnightblue" points="402.5,-273.65 412.9,-271.64 403.52,-266.72 402.5,-273.65"/>
</g>
<!-- Node35 -->
<g id="node35" class="node">
<title>Node35</title>
<g id="a_node35"><a xlink:href="exit_8c.html#adcbec3416f97b2d0b8d53cf4c2b2a436" target="_top" xlink:title=" ">
<polygon fill="none" stroke="black" points="415.5,-342.5 415.5,-361.5 471.5,-361.5 471.5,-342.5 415.5,-342.5"/>
<text text-anchor="middle" x="443.5" y="-349.5" font-family="Helvetica,sans-Serif" font-size="10.00">my_exit</text>
</a>
</g>
</g>
<!-- Node18&#45;&gt;Node35 -->
<g id="edge41" class="edge">
<title>Node18&#45;&gt;Node35</title>
<path fill="none" stroke="midnightblue" d="M327.41,-266.77C337.59,-274.13 351.57,-284.7 363,-295 380.28,-310.58 379.96,-319.63 399,-333 401.4,-334.69 403.98,-336.27 406.63,-337.75"/>
<polygon fill="midnightblue" stroke="midnightblue" points="405.32,-341.01 415.83,-342.37 408.46,-334.75 405.32,-341.01"/>
</g>
<!-- Node37 -->
<g id="node37" class="node">
<title>Node37</title>
<g id="a_node37"><a xlink:href="pwd_8c.html#ac6977235be2514ba716ef89aad796063" target="_top" xlink:title=" ">
<polygon fill="none" stroke="black" points="425,-228.5 425,-247.5 462,-247.5 462,-228.5 425,-228.5"/>
<text text-anchor="middle" x="443.5" y="-235.5" font-family="Helvetica,sans-Serif" font-size="10.00">pwd</text>
</a>
</g>
</g>
<!-- Node18&#45;&gt;Node37 -->
<g id="edge46" class="edge">
<title>Node18&#45;&gt;Node37</title>
<path fill="none" stroke="midnightblue" d="M355.03,-250.88C374.54,-248.01 397.29,-244.66 414.7,-242.1"/>
<polygon fill="midnightblue" stroke="midnightblue" points="415.38,-245.53 424.77,-240.61 414.36,-238.61 415.38,-245.53"/>
</g>
<!-- Node38 -->
<g id="node38" class="node">
<title>Node38</title>
<g id="a_node38"><a xlink:href="unset_8c.html#abcfd4d5a4f0408bdc748ce044e5ce08c" target="_top" xlink:title=" ">
<polygon fill="none" stroke="black" points="410.5,-114.5 410.5,-133.5 476.5,-133.5 476.5,-114.5 410.5,-114.5"/>
<text text-anchor="middle" x="443.5" y="-121.5" font-family="Helvetica,sans-Serif" font-size="10.00">unset_call</text>
</a>
</g>
</g>
<!-- Node18&#45;&gt;Node38 -->
<g id="edge47" class="edge">
<title>Node18&#45;&gt;Node38</title>
<path fill="none" stroke="midnightblue" d="M318.41,-247.43C329.84,-226.02 360.2,-173.71 399,-143 401.04,-141.39 403.23,-139.89 405.51,-138.49"/>
<polygon fill="midnightblue" stroke="midnightblue" points="407.43,-141.43 414.6,-133.63 404.13,-135.26 407.43,-141.43"/>
</g>
<!-- Node20 -->
<g id="node20" class="node">
<title>Node20</title>
<g id="a_node20"><a xlink:href="cd_8c.html#a7593627e795ae769b5117673b60846c9" target="_top" xlink:title=" ">
<polygon fill="none" stroke="black" points="563,-285.5 563,-304.5 595,-304.5 595,-285.5 563,-285.5"/>
<text text-anchor="middle" x="579" y="-292.5" font-family="Helvetica,sans-Serif" font-size="10.00">len</text>
</a>
</g>
</g>
<!-- Node19&#45;&gt;Node20 -->
<g id="edge24" class="edge">
<title>Node19&#45;&gt;Node20</title>
<path fill="none" stroke="midnightblue" d="M458.21,-203.67C467.41,-206.65 479.37,-211.59 488,-219 510.73,-238.52 500.57,-257.33 524,-276 532.42,-282.71 543.39,-287.15 553.24,-290.03"/>
<polygon fill="midnightblue" stroke="midnightblue" points="552.39,-293.42 562.94,-292.5 554.12,-286.64 552.39,-293.42"/>
</g>
<!-- Node21 -->
<g id="node21" class="node">
<title>Node21</title>
<g id="a_node21"><a xlink:href="lst__env__two_8c.html#a4d4a14327b2c3ff88099102b6bd77986" target="_top" xlink:title=" ">
<polygon fill="none" stroke="black" points="527,-76.5 527,-95.5 631,-95.5 631,-76.5 527,-76.5"/>
<text text-anchor="middle" x="579" y="-83.5" font-family="Helvetica,sans-Serif" font-size="10.00">research_key_env</text>
</a>
</g>
</g>
<!-- Node19&#45;&gt;Node21 -->
<g id="edge25" class="edge">
<title>Node19&#45;&gt;Node21</title>
<path fill="none" stroke="midnightblue" d="M458.1,-196.78C467.48,-193.96 479.72,-189.03 488,-181 514.83,-154.98 496.23,-130.02 524,-105 525.74,-103.43 527.62,-101.99 529.59,-100.67"/>
<polygon fill="midnightblue" stroke="midnightblue" points="531.7,-103.5 538.74,-95.59 528.3,-97.38 531.7,-103.5"/>
</g>
<!-- Node22 -->
<g id="node22" class="node">
<title>Node22</title>
<g id="a_node22"><a xlink:href="cd_8c.html#a68bb8beb2cf13bb992af8322f31f94e7" target="_top" xlink:title=" ">
<polygon fill="none" stroke="black" points="687,-190.5 687,-209.5 763,-209.5 763,-190.5 687,-190.5"/>
<text text-anchor="middle" x="725" y="-197.5" font-family="Helvetica,sans-Serif" font-size="10.00">update_pwd</text>
</a>
</g>
</g>
<!-- Node19&#45;&gt;Node22 -->
<g id="edge26" class="edge">
<title>Node19&#45;&gt;Node22</title>
<path fill="none" stroke="midnightblue" d="M458.36,-200C497.78,-200 611.86,-200 676.98,-200"/>
<polygon fill="midnightblue" stroke="midnightblue" points="677,-203.5 687,-200 677,-196.5 677,-203.5"/>
</g>
<!-- Node23 -->
<g id="node23" class="node">
<title>Node23</title>
<g id="a_node23"><a xlink:href="lst__env__two_8c.html#a8cd6579fc3858072521e55ef235a2637" target="_top" xlink:title=" ">
<polygon fill="none" stroke="black" points="830,-171.5 830,-190.5 941,-190.5 941,-171.5 830,-171.5"/>
<text text-anchor="middle" x="885.5" y="-178.5" font-family="Helvetica,sans-Serif" font-size="10.00">research_node_env</text>
</a>
</g>
</g>
<!-- Node22&#45;&gt;Node23 -->
<g id="edge27" class="edge">
<title>Node22&#45;&gt;Node23</title>
<path fill="none" stroke="midnightblue" d="M763.16,-195.55C780.07,-193.52 800.58,-191.06 819.89,-188.75"/>
<polygon fill="midnightblue" stroke="midnightblue" points="820.34,-192.22 829.85,-187.55 819.5,-185.27 820.34,-192.22"/>
</g>
<!-- Node26 -->
<g id="node26" class="node">
<title>Node26</title>
<g id="a_node26"><a xlink:href="export_8c.html#a63ef72e778f2b52c924bf77ae989dc80" target="_top" xlink:title=" ">
<polygon fill="none" stroke="black" points="555,-152.5 555,-171.5 603,-171.5 603,-152.5 555,-152.5"/>
<text text-anchor="middle" x="579" y="-159.5" font-family="Helvetica,sans-Serif" font-size="10.00">export</text>
</a>
</g>
</g>
<!-- Node25&#45;&gt;Node26 -->
<g id="edge30" class="edge">
<title>Node25&#45;&gt;Node26</title>
<path fill="none" stroke="midnightblue" d="M479.23,-162C499.4,-162 524.68,-162 544.62,-162"/>
<polygon fill="midnightblue" stroke="midnightblue" points="544.79,-165.5 554.79,-162 544.79,-158.5 544.79,-165.5"/>
</g>
<!-- Node27 -->
<g id="node27" class="node">
<title>Node27</title>
<g id="a_node27"><a xlink:href="export_8c.html#a077edb8749298d8320620813ff84519c" target="_top" xlink:title=" ">
<polygon fill="none" stroke="black" points="670,-152.5 670,-171.5 780,-171.5 780,-152.5 670,-152.5"/>
<text text-anchor="middle" x="725" y="-159.5" font-family="Helvetica,sans-Serif" font-size="10.00">check_validity_key</text>
</a>
</g>
</g>
<!-- Node26&#45;&gt;Node27 -->
<g id="edge31" class="edge">
<title>Node26&#45;&gt;Node27</title>
<path fill="none" stroke="midnightblue" d="M603.14,-162C618.51,-162 639.5,-162 659.68,-162"/>
<polygon fill="midnightblue" stroke="midnightblue" points="659.81,-165.5 669.81,-162 659.81,-158.5 659.81,-165.5"/>
</g>
<!-- Node28 -->
<g id="node28" class="node">
<title>Node28</title>
<g id="a_node28"><a xlink:href="export_8c.html#a90ff129fee9412bd5c6d74be5970b99f" target="_top" xlink:title=" ">
<polygon fill="none" stroke="black" points="670,-114.5 670,-133.5 780,-133.5 780,-114.5 670,-114.5"/>
<text text-anchor="middle" x="725" y="-121.5" font-family="Helvetica,sans-Serif" font-size="10.00">export_env_update</text>
</a>
</g>
</g>
<!-- Node26&#45;&gt;Node28 -->
<g id="edge32" class="edge">
<title>Node26&#45;&gt;Node28</title>
<path fill="none" stroke="midnightblue" d="M603.14,-155.89C623.35,-150.56 653.29,-142.66 678.32,-136.06"/>
<polygon fill="midnightblue" stroke="midnightblue" points="679.21,-139.44 687.99,-133.5 677.43,-132.67 679.21,-139.44"/>
</g>
<!-- Node28&#45;&gt;Node23 -->
<g id="edge37" class="edge">
<title>Node28&#45;&gt;Node23</title>
<path fill="none" stroke="midnightblue" d="M753.21,-133.51C761.79,-136.53 771.3,-139.89 780,-143 802.96,-151.21 828.71,-160.58 848.9,-167.95"/>
<polygon fill="midnightblue" stroke="midnightblue" points="847.74,-171.25 858.33,-171.4 850.14,-164.68 847.74,-171.25"/>
</g>
<!-- Node29 -->
<g id="node29" class="node">
<title>Node29</title>
<g id="a_node29"><a xlink:href="export_8c.html#a56cdba320963b2a94cb193c22ca238b7" target="_top" xlink:title=" ">
<polygon fill="none" stroke="black" points="856.5,-114.5 856.5,-133.5 914.5,-133.5 914.5,-114.5 856.5,-114.5"/>
<text text-anchor="middle" x="885.5" y="-121.5" font-family="Helvetica,sans-Serif" font-size="10.00">add_env</text>
</a>
</g>
</g>
<!-- Node28&#45;&gt;Node29 -->
<g id="edge33" class="edge">
<title>Node28&#45;&gt;Node29</title>
<path fill="none" stroke="midnightblue" d="M780.1,-124C801.84,-124 826.4,-124 846.24,-124"/>
<polygon fill="midnightblue" stroke="midnightblue" points="846.43,-127.5 856.43,-124 846.43,-120.5 846.43,-127.5"/>
</g>
<!-- Node30 -->
<g id="node30" class="node">
<title>Node30</title>
<g id="a_node30"><a xlink:href="lst__env_8c.html#a9c375db3cbfe2e87b52bae7ee7472eae" target="_top" xlink:title=" ">
<polygon fill="none" stroke="black" points="991,-133.5 991,-152.5 1091,-152.5 1091,-133.5 991,-133.5"/>
<text text-anchor="middle" x="1041" y="-140.5" font-family="Helvetica,sans-Serif" font-size="10.00">create_node_env</text>
</a>
</g>
</g>
<!-- Node29&#45;&gt;Node30 -->
<g id="edge34" class="edge">
<title>Node29&#45;&gt;Node30</title>
<path fill="none" stroke="midnightblue" d="M914.65,-127.48C933.2,-129.78 958.18,-132.87 980.96,-135.69"/>
<polygon fill="midnightblue" stroke="midnightblue" points="980.54,-139.17 990.9,-136.92 981.4,-132.22 980.54,-139.17"/>
</g>
<!-- Node31 -->
<g id="node31" class="node">
<title>Node31</title>
<g id="a_node31"><a xlink:href="lst__env_8c.html#a5976d1b2a8159220749fac94a83d5c95" target="_top" xlink:title=" ">
<polygon fill="none" stroke="black" points="995,-95.5 995,-114.5 1087,-114.5 1087,-95.5 995,-95.5"/>
<text text-anchor="middle" x="1041" y="-102.5" font-family="Helvetica,sans-Serif" font-size="10.00">push_back_env</text>
</a>
</g>
</g>
<!-- Node29&#45;&gt;Node31 -->
<g id="edge35" class="edge">
<title>Node29&#45;&gt;Node31</title>
<path fill="none" stroke="midnightblue" d="M914.65,-120.52C934.27,-118.09 961.08,-114.77 984.87,-111.82"/>
<polygon fill="midnightblue" stroke="midnightblue" points="985.36,-115.29 994.85,-110.59 984.5,-108.34 985.36,-115.29"/>
</g>
<!-- Node32 -->
<g id="node32" class="node">
<title>Node32</title>
<g id="a_node32"><a xlink:href="env__utils_8c.html#ac7b3f84bb622bdf477616c5b0022f035" target="_top" xlink:title=" ">
<polygon fill="none" stroke="black" points="1127,-95.5 1127,-114.5 1206,-114.5 1206,-95.5 1127,-95.5"/>
<text text-anchor="middle" x="1166.5" y="-102.5" font-family="Helvetica,sans-Serif" font-size="10.00">get_last_env</text>
</a>
</g>
</g>
<!-- Node31&#45;&gt;Node32 -->
<g id="edge36" class="edge">
<title>Node31&#45;&gt;Node32</title>
<path fill="none" stroke="midnightblue" d="M1087.29,-105C1096.79,-105 1106.86,-105 1116.49,-105"/>
<polygon fill="midnightblue" stroke="midnightblue" points="1116.73,-108.5 1126.73,-105 1116.73,-101.5 1116.73,-108.5"/>
</g>
<!-- Node33&#45;&gt;Node20 -->
<g id="edge40" class="edge">
<title>Node33&#45;&gt;Node20</title>
<path fill="none" stroke="midnightblue" d="M474.13,-280.22C497.76,-283.58 530.5,-288.24 552.86,-291.42"/>
<polygon fill="midnightblue" stroke="midnightblue" points="552.53,-294.91 562.93,-292.85 553.52,-287.98 552.53,-294.91"/>
</g>
<!-- Node34 -->
<g id="node34" class="node">
<title>Node34</title>
<g id="a_node34"><a xlink:href="my__echo_8c.html#a7c657de7306d33ae5cdab2bf43f35ae1" target="_top" xlink:title=" ">
<polygon fill="none" stroke="black" points="524,-247.5 524,-266.5 634,-266.5 634,-247.5 524,-247.5"/>
<text text-anchor="middle" x="579" y="-254.5" font-family="Helvetica,sans-Serif" font-size="10.00">check_option_echo</text>
</a>
</g>
</g>
<!-- Node33&#45;&gt;Node34 -->
<g id="edge39" class="edge">
<title>Node33&#45;&gt;Node34</title>
<path fill="none" stroke="midnightblue" d="M474.13,-271.78C485.87,-270.11 499.87,-268.12 513.72,-266.15"/>
<polygon fill="midnightblue" stroke="midnightblue" points="514.34,-269.6 523.74,-264.72 513.35,-262.67 514.34,-269.6"/>
</g>
<!-- Node35&#45;&gt;Node8 -->
<g id="edge43" class="edge">
<title>Node35&#45;&gt;Node8</title>
<path fill="none" stroke="midnightblue" d="M471.17,-361.63C476.96,-364.26 482.87,-367.4 488,-371 507.04,-384.37 504.48,-396.34 524,-409 527.1,-411.01 530.44,-412.84 533.88,-414.49"/>
<polygon fill="midnightblue" stroke="midnightblue" points="532.58,-417.74 543.15,-418.48 535.35,-411.31 532.58,-417.74"/>
</g>
<!-- Node35&#45;&gt;Node12 -->
<g id="edge44" class="edge">
<title>Node35&#45;&gt;Node12</title>
<path fill="none" stroke="midnightblue" d="M471.52,-359.69C489.59,-364.83 513.77,-371.72 534.52,-377.62"/>
<polygon fill="midnightblue" stroke="midnightblue" points="533.81,-381.06 544.39,-380.43 535.73,-374.33 533.81,-381.06"/>
</g>
<!-- Node35&#45;&gt;Node20 -->
<g id="edge45" class="edge">
<title>Node35&#45;&gt;Node20</title>
<path fill="none" stroke="midnightblue" d="M466.84,-342.46C490.72,-332.26 528.47,-316.15 553.24,-305.57"/>
<polygon fill="midnightblue" stroke="midnightblue" points="554.84,-308.69 562.67,-301.55 552.1,-302.25 554.84,-308.69"/>
</g>
<!-- Node36 -->
<g id="node36" class="node">
<title>Node36</title>
<g id="a_node36"><a xlink:href="exit_8c.html#a7e369b4894a31549c9b65f718e28823f" target="_top" xlink:title=" ">
<polygon fill="none" stroke="black" points="544.5,-342.5 544.5,-361.5 613.5,-361.5 613.5,-342.5 544.5,-342.5"/>
<text text-anchor="middle" x="579" y="-349.5" font-family="Helvetica,sans-Serif" font-size="10.00">check_exit</text>
</a>
</g>
</g>
<!-- Node35&#45;&gt;Node36 -->
<g id="edge42" class="edge">
<title>Node35&#45;&gt;Node36</title>
<path fill="none" stroke="midnightblue" d="M471.52,-352C489.5,-352 513.55,-352 534.23,-352"/>
<polygon fill="midnightblue" stroke="midnightblue" points="534.39,-355.5 544.39,-352 534.39,-348.5 534.39,-355.5"/>
</g>
<!-- Node39 -->
<g id="node39" class="node">
<title>Node39</title>
<g id="a_node39"><a xlink:href="unset_8c.html#a4b3bbc6cfa6ff293119825a11324fb9f" target="_top" xlink:title=" ">
<polygon fill="none" stroke="black" points="557,-114.5 557,-133.5 601,-133.5 601,-114.5 557,-114.5"/>
<text text-anchor="middle" x="579" y="-121.5" font-family="Helvetica,sans-Serif" font-size="10.00">unset</text>
</a>
</g>
</g>
<!-- Node38&#45;&gt;Node39 -->
<g id="edge48" class="edge">
<title>Node38&#45;&gt;Node39</title>
<path fill="none" stroke="midnightblue" d="M476.82,-124C498.07,-124 525.75,-124 546.78,-124"/>
<polygon fill="midnightblue" stroke="midnightblue" points="546.81,-127.5 556.81,-124 546.81,-120.5 546.81,-127.5"/>
</g>
<!-- Node41 -->
<g id="node41" class="node">
<title>Node41</title>
<g id="a_node41"><a xlink:href="env__utils_8c.html#a7cc35c974bce053dbba1c1ec1028f36b" target="_top" xlink:title=" ">
<polygon fill="none" stroke="black" points="405,-0.5 405,-19.5 482,-19.5 482,-0.5 405,-0.5"/>
<text text-anchor="middle" x="443.5" y="-7.5" font-family="Helvetica,sans-Serif" font-size="10.00">env_lst_size</text>
</a>
</g>
</g>
<!-- Node40&#45;&gt;Node41 -->
<g id="edge50" class="edge">
<title>Node40&#45;&gt;Node41</title>
<path fill="none" stroke="midnightblue" d="M346.05,-38.41C362.4,-33.6 382.41,-27.7 399.96,-22.53"/>
<polygon fill="midnightblue" stroke="midnightblue" points="401.35,-25.77 409.96,-19.59 399.38,-19.05 401.35,-25.77"/>
</g>
<!-- Node42 -->
<g id="node42" class="node">
<title>Node42</title>
<g id="a_node42"><a xlink:href="getenv_8c.html#a0250cce1862c20e31d0c0ece960bc3a0" target="_top" xlink:title=" ">
<polygon fill="none" stroke="black" points="412.5,-38.5 412.5,-57.5 474.5,-57.5 474.5,-38.5 412.5,-38.5"/>
<text text-anchor="middle" x="443.5" y="-45.5" font-family="Helvetica,sans-Serif" font-size="10.00">join_path</text>
</a>
</g>
</g>
<!-- Node40&#45;&gt;Node42 -->
<g id="edge51" class="edge">
<title>Node40&#45;&gt;Node42</title>
<path fill="none" stroke="midnightblue" d="M356.81,-48C371.42,-48 387.66,-48 402.04,-48"/>
<polygon fill="midnightblue" stroke="midnightblue" points="402.13,-51.5 412.13,-48 402.13,-44.5 402.13,-51.5"/>
</g>
<!-- Node43&#45;&gt;Node21 -->
<g id="edge55" class="edge">
<title>Node43&#45;&gt;Node21</title>
<path fill="none" stroke="midnightblue" d="M350.56,-86C393.52,-86 465,-86 516.36,-86"/>
<polygon fill="midnightblue" stroke="midnightblue" points="516.68,-89.5 526.68,-86 516.68,-82.5 516.68,-89.5"/>
</g>
<!-- Node43&#45;&gt;Node42 -->
<g id="edge54" class="edge">
<title>Node43&#45;&gt;Node42</title>
<path fill="none" stroke="midnightblue" d="M346.05,-76.41C363.18,-71.37 384.33,-65.13 402.46,-59.79"/>
<polygon fill="midnightblue" stroke="midnightblue" points="403.57,-63.12 412.17,-56.93 401.59,-56.4 403.57,-63.12"/>
</g>
</g>
</svg>
