<?xml version="1.0" encoding="UTF-8" standalone="no"?>
<!DOCTYPE svg PUBLIC "-//W3C//DTD SVG 1.1//EN"
 "http://www.w3.org/Graphics/SVG/1.1/DTD/svg11.dtd">
<!-- Generated by graphviz version 2.43.0 (0)
 -->
<!-- Title: destructor_env Pages: 1 -->
<svg width="1145pt" height="284pt"
 viewBox="0.00 0.00 1145.00 284.00" xmlns="http://www.w3.org/2000/svg" xmlns:xlink="http://www.w3.org/1999/xlink">
<g id="graph0" class="graph" transform="scale(1 1) rotate(0) translate(4 280)">
<title>destructor_env</title>
<!-- Node1 -->
<g id="node1" class="node">
<title>Node1</title>
<g id="a_node1"><a xlink:title=" ">
<polygon fill="#bfbfbf" stroke="black" points="1048,-133.5 1048,-152.5 1137,-152.5 1137,-133.5 1048,-133.5"/>
<text text-anchor="middle" x="1092.5" y="-140.5" font-family="Helvetica,sans-Serif" font-size="10.00">destructor_env</text>
</a>
</g>
</g>
<!-- Node2 -->
<g id="node2" class="node">
<title>Node2</title>
<g id="a_node2"><a xlink:href="multipipe_8c.html#a461ae962ce9a1aee7221ac4b9c581f98" target="_top" xlink:title=" ">
<polygon fill="none" stroke="black" points="515,-152.5 515,-171.5 598,-171.5 598,-152.5 515,-152.5"/>
<text text-anchor="middle" x="556.5" y="-159.5" font-family="Helvetica,sans-Serif" font-size="10.00">execute_child</text>
</a>
</g>
</g>
<!-- Node1&#45;&gt;Node2 -->
<g id="edge1" class="edge">
<title>Node1&#45;&gt;Node2</title>
<path fill="none" stroke="midnightblue" d="M1074.26,-159.28C1059.16,-172.33 1035.95,-189.63 1012,-197 857.5,-244.51 660.22,-193.93 586.77,-171.54"/>
<polygon fill="midnightblue" stroke="midnightblue" points="1076.65,-161.83 1081.76,-152.55 1071.98,-156.62 1076.65,-161.83"/>
</g>
<!-- Node6 -->
<g id="node6" class="node">
<title>Node6</title>
<g id="a_node6"><a xlink:href="main_8c.html#a647f21a28344e1d9c643f4115516d7c9" target="_top" xlink:title=" ">
<polygon fill="none" stroke="black" points="0,-95.5 0,-114.5 41,-114.5 41,-95.5 0,-95.5"/>
<text text-anchor="middle" x="20.5" y="-102.5" font-family="Helvetica,sans-Serif" font-size="10.00">main</text>
</a>
</g>
</g>
<!-- Node1&#45;&gt;Node6 -->
<g id="edge15" class="edge">
<title>Node1&#45;&gt;Node6</title>
<path fill="none" stroke="midnightblue" d="M1077.53,-160.72C1062.92,-178.14 1038.47,-204.32 1012,-220 939.55,-262.91 915.21,-276 831,-276 831,-276 831,-276 215.5,-276 117.18,-276 45.1,-150.86 26.32,-114.68"/>
<polygon fill="midnightblue" stroke="midnightblue" points="1080.62,-162.48 1084.23,-152.52 1075.2,-158.05 1080.62,-162.48"/>
</g>
<!-- Node7 -->
<g id="node7" class="node">
<title>Node7</title>
<g id="a_node7"><a xlink:href="execution__node_8c.html#adda76b40c34c18ec83b1d98700083f8a" target="_top" xlink:title="we are going to execute the command here we have a security about absolute path given =&gt; because it&#39;s...">
<polygon fill="none" stroke="black" points="658,-114.5 658,-133.5 751,-133.5 751,-114.5 658,-114.5"/>
<text text-anchor="middle" x="704.5" y="-121.5" font-family="Helvetica,sans-Serif" font-size="10.00">execution_node</text>
</a>
</g>
</g>
<!-- Node1&#45;&gt;Node7 -->
<g id="edge6" class="edge">
<title>Node1&#45;&gt;Node7</title>
<path fill="none" stroke="midnightblue" d="M1037.62,-140.35C961.27,-136.59 822.91,-129.78 751.26,-126.25"/>
<polygon fill="midnightblue" stroke="midnightblue" points="1037.81,-143.86 1047.97,-140.86 1038.16,-136.87 1037.81,-143.86"/>
</g>
<!-- Node8 -->
<g id="node8" class="node">
<title>Node8</title>
<g id="a_node8"><a xlink:href="execution_8c.html#aa6f3ac2f0c10538c125eafcb587fd021" target="_top" xlink:title="in this function we do the fork to create a child process we do the redirection if we need to">
<polygon fill="none" stroke="black" points="492.5,-38.5 492.5,-57.5 620.5,-57.5 620.5,-38.5 492.5,-38.5"/>
<text text-anchor="middle" x="556.5" y="-45.5" font-family="Helvetica,sans-Serif" font-size="10.00">one_command_execve</text>
</a>
</g>
</g>
<!-- Node1&#45;&gt;Node8 -->
<g id="edge20" class="edge">
<title>Node1&#45;&gt;Node8</title>
<path fill="none" stroke="midnightblue" d="M1079.06,-125.12C1065.12,-106.76 1040.69,-79.21 1012,-67 943.42,-37.82 728.89,-41.34 620.92,-45.2"/>
<polygon fill="midnightblue" stroke="midnightblue" points="1076.3,-127.28 1085.03,-133.28 1081.95,-123.14 1076.3,-127.28"/>
</g>
<!-- Node10 -->
<g id="node10" class="node">
<title>Node10</title>
<g id="a_node10"><a xlink:href="heredoc_8c.html#a0b4a5d07e8877b06b8977b47a6d51930" target="_top" xlink:title="it&#39;s where we open the heredoc and start writing inside our pipe each time we check if it&#39;s the word ...">
<polygon fill="none" stroke="black" points="787,-152.5 787,-171.5 873,-171.5 873,-152.5 787,-152.5"/>
<text text-anchor="middle" x="830" y="-159.5" font-family="Helvetica,sans-Serif" font-size="10.00">heredoc_input</text>
</a>
</g>
</g>
<!-- Node1&#45;&gt;Node10 -->
<g id="edge11" class="edge">
<title>Node1&#45;&gt;Node10</title>
<path fill="none" stroke="midnightblue" d="M1067.93,-157.71C1052.63,-166.37 1031.89,-176.49 1012,-181 960.54,-192.67 899.19,-181.03 862.76,-171.52"/>
<polygon fill="midnightblue" stroke="midnightblue" points="1069.85,-160.64 1076.7,-152.57 1066.31,-154.6 1069.85,-160.64"/>
</g>
<!-- Node12 -->
<g id="node12" class="node">
<title>Node12</title>
<g id="a_node12"><a xlink:href="exit_8c.html#adcbec3416f97b2d0b8d53cf4c2b2a436" target="_top" xlink:title=" ">
<polygon fill="none" stroke="black" points="932.5,-76.5 932.5,-95.5 988.5,-95.5 988.5,-76.5 932.5,-76.5"/>
<text text-anchor="middle" x="960.5" y="-83.5" font-family="Helvetica,sans-Serif" font-size="10.00">my_exit</text>
</a>
</g>
</g>
<!-- Node1&#45;&gt;Node12 -->
<g id="edge16" class="edge">
<title>Node1&#45;&gt;Node12</title>
<path fill="none" stroke="midnightblue" d="M1060.44,-129.38C1036.66,-118.95 1004.45,-104.83 983.33,-95.57"/>
<polygon fill="midnightblue" stroke="midnightblue" points="1059.18,-132.65 1069.74,-133.46 1061.99,-126.24 1059.18,-132.65"/>
</g>
<!-- Node14 -->
<g id="node14" class="node">
<title>Node14</title>
<g id="a_node14"><a xlink:href="heredoc_8c.html#aa11261ffe1d93fd87488514776e2df34" target="_top" xlink:title="function which allow me to do the loop to call GNL =&gt; there is also the management to leave with the ...">
<polygon fill="none" stroke="black" points="909,-152.5 909,-171.5 1012,-171.5 1012,-152.5 909,-152.5"/>
<text text-anchor="middle" x="960.5" y="-159.5" font-family="Helvetica,sans-Serif" font-size="10.00">read_gnl_heredoc</text>
</a>
</g>
</g>
<!-- Node1&#45;&gt;Node14 -->
<g id="edge21" class="edge">
<title>Node1&#45;&gt;Node14</title>
<path fill="none" stroke="midnightblue" d="M1037.79,-150.85C1029.41,-152.07 1020.77,-153.34 1012.45,-154.55"/>
<polygon fill="midnightblue" stroke="midnightblue" points="1038.46,-154.29 1047.85,-149.38 1037.45,-147.36 1038.46,-154.29"/>
</g>
<!-- Node15 -->
<g id="node15" class="node">
<title>Node15</title>
<g id="a_node15"><a xlink:href="lst__env__two_8c.html#ac1233f225cd25a82eded5e81135528cd" target="_top" xlink:title=" ">
<polygon fill="none" stroke="black" points="924.5,-0.5 924.5,-19.5 996.5,-19.5 996.5,-0.5 924.5,-0.5"/>
<text text-anchor="middle" x="960.5" y="-7.5" font-family="Helvetica,sans-Serif" font-size="10.00">set_up_env</text>
</a>
</g>
</g>
<!-- Node1&#45;&gt;Node15 -->
<g id="edge23" class="edge">
<title>Node1&#45;&gt;Node15</title>
<path fill="none" stroke="midnightblue" d="M1081.74,-124.31C1068.61,-100.66 1043.24,-59.9 1012,-34 1004.9,-28.11 996.12,-23.29 987.87,-19.55"/>
<polygon fill="midnightblue" stroke="midnightblue" points="1078.77,-126.18 1086.6,-133.31 1084.93,-122.85 1078.77,-126.18"/>
</g>
<!-- Node3 -->
<g id="node3" class="node">
<title>Node3</title>
<g id="a_node3"><a xlink:href="multipipe_8c.html#af31c329200501f497cd102a470450103" target="_top" xlink:title="it&#39;s where the fork happen and sent to be execute">
<polygon fill="none" stroke="black" points="297,-152.5 297,-171.5 455,-171.5 455,-152.5 297,-152.5"/>
<text text-anchor="middle" x="376" y="-159.5" font-family="Helvetica,sans-Serif" font-size="10.00">multipipe_intermediary_cmd</text>
</a>
</g>
</g>
<!-- Node2&#45;&gt;Node3 -->
<g id="edge2" class="edge">
<title>Node2&#45;&gt;Node3</title>
<path fill="none" stroke="midnightblue" d="M504.68,-162C489.31,-162 472.06,-162 455.33,-162"/>
<polygon fill="midnightblue" stroke="midnightblue" points="505,-165.5 515,-162 505,-158.5 505,-165.5"/>
</g>
<!-- Node4 -->
<g id="node4" class="node">
<title>Node4</title>
<g id="a_node4"><a xlink:href="multipipe_8c.html#aa4f1c217eeb689ecbc622baecd2c5dec" target="_top" xlink:title="management of the multipipe (= name when we have at least one pipe) First step is to manage the hered...">
<polygon fill="none" stroke="black" points="172,-114.5 172,-133.5 261,-133.5 261,-114.5 172,-114.5"/>
<text text-anchor="middle" x="216.5" y="-121.5" font-family="Helvetica,sans-Serif" font-size="10.00">multipipe_cmd</text>
</a>
</g>
</g>
<!-- Node3&#45;&gt;Node4 -->
<g id="edge3" class="edge">
<title>Node3&#45;&gt;Node4</title>
<path fill="none" stroke="midnightblue" d="M325.4,-150.03C303.32,-144.71 277.7,-138.52 256.96,-133.52"/>
<polygon fill="midnightblue" stroke="midnightblue" points="324.71,-153.47 335.26,-152.41 326.36,-146.66 324.71,-153.47"/>
</g>
<!-- Node5 -->
<g id="node5" class="node">
<title>Node5</title>
<g id="a_node5"><a xlink:href="execution_8c.html#a9542b61daba3eb4d45c8887c5648b2f6" target="_top" xlink:title="first function of the execution part when we have something to do we have to deal with two cases ; if...">
<polygon fill="none" stroke="black" points="77,-95.5 77,-114.5 136,-114.5 136,-95.5 77,-95.5"/>
<text text-anchor="middle" x="106.5" y="-102.5" font-family="Helvetica,sans-Serif" font-size="10.00">executor</text>
</a>
</g>
</g>
<!-- Node4&#45;&gt;Node5 -->
<g id="edge4" class="edge">
<title>Node4&#45;&gt;Node5</title>
<path fill="none" stroke="midnightblue" d="M161.88,-114.57C152.97,-113 144.05,-111.43 136.08,-110.03"/>
<polygon fill="midnightblue" stroke="midnightblue" points="161.43,-118.04 171.88,-116.33 162.64,-111.15 161.43,-118.04"/>
</g>
<!-- Node5&#45;&gt;Node6 -->
<g id="edge5" class="edge">
<title>Node5&#45;&gt;Node6</title>
<path fill="none" stroke="midnightblue" d="M66.48,-105C57.72,-105 48.78,-105 41.21,-105"/>
<polygon fill="midnightblue" stroke="midnightblue" points="66.59,-108.5 76.59,-105 66.59,-101.5 66.59,-108.5"/>
</g>
<!-- Node7&#45;&gt;Node2 -->
<g id="edge7" class="edge">
<title>Node7&#45;&gt;Node2</title>
<path fill="none" stroke="midnightblue" d="M656.96,-136.11C636.63,-141.4 613.13,-147.52 594.08,-152.48"/>
<polygon fill="midnightblue" stroke="midnightblue" points="657.86,-139.5 666.66,-133.59 656.1,-132.72 657.86,-139.5"/>
</g>
<!-- Node7&#45;&gt;Node8 -->
<g id="edge8" class="edge">
<title>Node7&#45;&gt;Node8</title>
<path fill="none" stroke="midnightblue" d="M676.11,-109.74C646.8,-94.48 601.1,-70.7 575.84,-57.55"/>
<polygon fill="midnightblue" stroke="midnightblue" points="674.52,-112.86 685.01,-114.37 677.75,-106.65 674.52,-112.86"/>
</g>
<!-- Node9 -->
<g id="node9" class="node">
<title>Node9</title>
<g id="a_node9"><a xlink:href="execution_8c.html#a38335028b2bc7aa436f8f79a3753ce5e" target="_top" xlink:title="here we check if it&#39;s a builtin where we have to fork or not we still need to do the redirection veri...">
<polygon fill="none" stroke="black" points="331.5,-76.5 331.5,-95.5 420.5,-95.5 420.5,-76.5 331.5,-76.5"/>
<text text-anchor="middle" x="376" y="-83.5" font-family="Helvetica,sans-Serif" font-size="10.00">one_command</text>
</a>
</g>
</g>
<!-- Node8&#45;&gt;Node9 -->
<g id="edge9" class="edge">
<title>Node8&#45;&gt;Node9</title>
<path fill="none" stroke="midnightblue" d="M500.52,-59.71C474.9,-65.16 444.84,-71.56 420.79,-76.68"/>
<polygon fill="midnightblue" stroke="midnightblue" points="501.4,-63.09 510.46,-57.59 499.95,-56.25 501.4,-63.09"/>
</g>
<!-- Node9&#45;&gt;Node5 -->
<g id="edge10" class="edge">
<title>Node9&#45;&gt;Node5</title>
<path fill="none" stroke="midnightblue" d="M321.37,-89.81C265.58,-93.77 180.35,-99.83 136.22,-102.96"/>
<polygon fill="midnightblue" stroke="midnightblue" points="321.7,-93.29 331.43,-89.09 321.2,-86.31 321.7,-93.29"/>
</g>
<!-- Node11 -->
<g id="node11" class="node">
<title>Node11</title>
<g id="a_node11"><a xlink:href="heredoc_8c.html#a17337782f10170a6f2f9188bf557de0f" target="_top" xlink:title="the function will go through all the commands and check the redirection if we encounter a heredoc we ...">
<polygon fill="none" stroke="black" points="491,-114.5 491,-133.5 622,-133.5 622,-114.5 491,-114.5"/>
<text text-anchor="middle" x="556.5" y="-121.5" font-family="Helvetica,sans-Serif" font-size="10.00">here_doc_management</text>
</a>
</g>
</g>
<!-- Node10&#45;&gt;Node11 -->
<g id="edge12" class="edge">
<title>Node10&#45;&gt;Node11</title>
<path fill="none" stroke="midnightblue" d="M776.57,-157.22C742.66,-153.87 697.62,-148.94 658,-143 640.26,-140.34 620.88,-136.82 603.91,-133.54"/>
<polygon fill="midnightblue" stroke="midnightblue" points="776.43,-160.72 786.72,-158.21 777.11,-153.75 776.43,-160.72"/>
</g>
<!-- Node11&#45;&gt;Node4 -->
<g id="edge13" class="edge">
<title>Node11&#45;&gt;Node4</title>
<path fill="none" stroke="midnightblue" d="M480.6,-124C413.22,-124 316.57,-124 261.1,-124"/>
<polygon fill="midnightblue" stroke="midnightblue" points="480.73,-127.5 490.73,-124 480.73,-120.5 480.73,-127.5"/>
</g>
<!-- Node11&#45;&gt;Node9 -->
<g id="edge14" class="edge">
<title>Node11&#45;&gt;Node9</title>
<path fill="none" stroke="midnightblue" d="M500.52,-112.29C474.9,-106.84 444.84,-100.44 420.79,-95.32"/>
<polygon fill="midnightblue" stroke="midnightblue" points="499.95,-115.75 510.46,-114.41 501.4,-108.91 499.95,-115.75"/>
</g>
<!-- Node13 -->
<g id="node13" class="node">
<title>Node13</title>
<g id="a_node13"><a xlink:href="execution_8c.html#a7bee4f6fbfd70ef7ec1f52856538ac71" target="_top" xlink:title="launch the builtin &#160;&#160;some of them are not present because we have to fork() them why ?...">
<polygon fill="none" stroke="black" points="787.5,-76.5 787.5,-95.5 872.5,-95.5 872.5,-76.5 787.5,-76.5"/>
<text text-anchor="middle" x="830" y="-83.5" font-family="Helvetica,sans-Serif" font-size="10.00">launch_builtin</text>
</a>
</g>
</g>
<!-- Node12&#45;&gt;Node13 -->
<g id="edge17" class="edge">
<title>Node12&#45;&gt;Node13</title>
<path fill="none" stroke="midnightblue" d="M922.04,-86C906.63,-86 888.72,-86 872.89,-86"/>
<polygon fill="midnightblue" stroke="midnightblue" points="922.25,-89.5 932.25,-86 922.25,-82.5 922.25,-89.5"/>
</g>
<!-- Node13&#45;&gt;Node7 -->
<g id="edge18" class="edge">
<title>Node13&#45;&gt;Node7</title>
<path fill="none" stroke="midnightblue" d="M788.26,-98.54C771.46,-103.7 752.3,-109.6 736.65,-114.41"/>
<polygon fill="midnightblue" stroke="midnightblue" points="789.31,-101.88 797.84,-95.59 787.25,-95.18 789.31,-101.88"/>
</g>
<!-- Node13&#45;&gt;Node9 -->
<g id="edge19" class="edge">
<title>Node13&#45;&gt;Node9</title>
<path fill="none" stroke="midnightblue" d="M777.06,-86C687.2,-86 504.31,-86 420.6,-86"/>
<polygon fill="midnightblue" stroke="midnightblue" points="777.29,-89.5 787.29,-86 777.29,-82.5 777.29,-89.5"/>
</g>
<!-- Node14&#45;&gt;Node10 -->
<g id="edge22" class="edge">
<title>Node14&#45;&gt;Node10</title>
<path fill="none" stroke="midnightblue" d="M898.66,-162C890.03,-162 881.31,-162 873.14,-162"/>
<polygon fill="midnightblue" stroke="midnightblue" points="898.71,-165.5 908.71,-162 898.71,-158.5 898.71,-165.5"/>
</g>
<!-- Node16 -->
<g id="node16" class="node">
<title>Node16</title>
<g id="a_node16"><a xlink:href="main_8c.html#a05f37ff7d5d7321754ff82ac71618d63" target="_top" xlink:title=" ">
<polygon fill="none" stroke="black" points="663,-0.5 663,-19.5 746,-19.5 746,-0.5 663,-0.5"/>
<text text-anchor="middle" x="704.5" y="-7.5" font-family="Helvetica,sans-Serif" font-size="10.00">init_minishell</text>
</a>
</g>
</g>
<!-- Node15&#45;&gt;Node16 -->
<g id="edge24" class="edge">
<title>Node15&#45;&gt;Node16</title>
<path fill="none" stroke="midnightblue" d="M914.4,-10C866.66,-10 792,-10 746.06,-10"/>
<polygon fill="midnightblue" stroke="midnightblue" points="914.45,-13.5 924.45,-10 914.45,-6.5 914.45,-13.5"/>
</g>
<!-- Node16&#45;&gt;Node6 -->
<g id="edge25" class="edge">
<title>Node16&#45;&gt;Node6</title>
<path fill="none" stroke="midnightblue" d="M652.52,-10C588.28,-10 474.46,-10 377,-10 377,-10 377,-10 215.5,-10 138.62,-10 60.47,-70.92 32.38,-95.19"/>
<polygon fill="midnightblue" stroke="midnightblue" points="652.78,-13.5 662.78,-10 652.78,-6.5 652.78,-13.5"/>
</g>
</g>
</svg>
