<?xml version="1.0" encoding="UTF-8" standalone="no"?>
<!DOCTYPE svg PUBLIC "-//W3C//DTD SVG 1.1//EN"
 "http://www.w3.org/Graphics/SVG/1.1/DTD/svg11.dtd">
<!-- Generated by graphviz version 2.43.0 (0)
 -->
<!-- Title: ft_close_fd Pages: 1 -->
<!--zoomable 709 -->
<svg id="main" version="1.1" xmlns="http://www.w3.org/2000/svg" xmlns:xlink="http://www.w3.org/1999/xlink" xml:space="preserve" onload="init(evt)">
<style type="text/css"><![CDATA[
.edge:hover path { stroke: red; }
.edge:hover polygon { stroke: red; fill: red; }
]]></style>
<script type="text/javascript"><![CDATA[
var edges = document.getElementsByTagName('g');
if (edges && edges.length) {
  for (var i=0;i<edges.length;i++) {
    if (edges[i].id.substr(0,4)=='edge') {
      edges[i].setAttribute('class','edge');
    }
  }
}
]]></script>
        <defs>
                <circle id="rim" cx="0" cy="0" r="7"/>
                <circle id="rim2" cx="0" cy="0" r="3.5"/>
                <g id="zoomPlus">
                        <use xlink:href="#rim" fill="#404040">
                                <set attributeName="fill" to="#808080" begin="zoomplus.mouseover" end="zoomplus.mouseout"/>
                        </use>
                        <path d="M-4,0h8M0,-4v8" fill="none" stroke="white" stroke-width="1.5" pointer-events="none"/>
                </g>
                <g id="zoomMin">
                        <use xlink:href="#rim" fill="#404040">
                                <set attributeName="fill" to="#808080" begin="zoomminus.mouseover" end="zoomminus.mouseout"/>
                        </use>
                        <path d="M-4,0h8" fill="none" stroke="white" stroke-width="1.5" pointer-events="none"/>
                </g>
                <g id="dirArrow">
                        <path fill="none" stroke="white" stroke-width="1.5" d="M0,-3.0v7 M-2.5,-0.5L0,-3.0L2.5,-0.5"/>
                </g>
               <g id="resetDef">
                       <use xlink:href="#rim2" fill="#404040">
                               <set attributeName="fill" to="#808080" begin="reset.mouseover" end="reset.mouseout"/>
                       </use>
               </g>
        </defs>

<script type="text/javascript">
var viewWidth = 1777;
var viewHeight = 709;
var sectionId = 'dynsection-39';
</script>
<script xlink:href="svgpan.js"/>
<svg id="graph" class="graph">
<g id="viewport">
<title>ft_close_fd</title>
<!-- Node1 -->
<g id="node1" class="node">
<title>Node1</title>
<g id="a_node1"><a xlink:title="as fd are all setup to &#45;1 at the beginning we check if they are open before trying to close we avoid ...">
<polygon fill="#bfbfbf" stroke="black" points="1700,-301.21 1700,-320.21 1769,-320.21 1769,-301.21 1700,-301.21"/>
<text text-anchor="middle" x="1734.5" y="-308.21" font-family="Helvetica,sans-Serif" font-size="10.00">ft_close_fd</text>
</a>
</g>
</g>
<!-- Node2 -->
<g id="node2" class="node">
<title>Node2</title>
<g id="a_node2"><a xlink:href="heredoc_8c.html#a98f0cdaa70ea9d777053df568b66e32a" target="_top" xlink:title="origin of creation ; the norm what it is doing ? juste close the fd the right way if we encounter the...">
<polygon fill="none" stroke="black" points="787,-263.21 787,-282.21 900,-282.21 900,-263.21 787,-263.21"/>
<text text-anchor="middle" x="843.5" y="-270.21" font-family="Helvetica,sans-Serif" font-size="10.00">child_work_heredoc</text>
</a>
</g>
</g>
<!-- Node1&#45;&gt;Node2 -->
<g id="edge1" class="edge">
<title>Node1&#45;&gt;Node2</title>
<path fill="none" stroke="midnightblue" d="M1689.7,-308.84C1542.29,-302.53 1064.24,-282.1 900.28,-275.09"/>
<polygon fill="midnightblue" stroke="midnightblue" points="1689.6,-312.33 1699.74,-309.26 1689.89,-305.34 1689.6,-312.33"/>
</g>
<!-- Node3 -->
<g id="node3" class="node">
<title>Node3</title>
<g id="a_node3"><a xlink:href="heredoc_8c.html#a0b4a5d07e8877b06b8977b47a6d51930" target="_top" xlink:title="it&#39;s where we open the heredoc and start writing inside our pipe each time we check if it&#39;s the word ...">
<polygon fill="none" stroke="black" points="661.5,-234.21 661.5,-253.21 747.5,-253.21 747.5,-234.21 661.5,-234.21"/>
<text text-anchor="middle" x="704.5" y="-241.21" font-family="Helvetica,sans-Serif" font-size="10.00">heredoc_input</text>
</a>
</g>
</g>
<!-- Node1&#45;&gt;Node3 -->
<g id="edge37" class="edge">
<title>Node1&#45;&gt;Node3</title>
<path fill="none" stroke="midnightblue" d="M1731.46,-290.71C1726.69,-255.8 1711.36,-184.53 1664,-153.71 1467.51,-25.81 1370.95,-158.71 1136.5,-158.71 1136.5,-158.71 1136.5,-158.71 988.5,-158.71 897.37,-158.71 872.46,-165.05 787,-196.71 761.42,-206.18 734.53,-223.3 718.93,-234.05"/>
<polygon fill="midnightblue" stroke="midnightblue" points="1728.03,-291.53 1732.7,-301.04 1734.98,-290.69 1728.03,-291.53"/>
</g>
<!-- Node5 -->
<g id="node5" class="node">
<title>Node5</title>
<g id="a_node5"><a xlink:href="multipipe_8c.html#aa4f1c217eeb689ecbc622baecd2c5dec" target="_top" xlink:title="management of the multipipe (= name when we have at least one pipe) First step is to manage the hered...">
<polygon fill="none" stroke="black" points="172,-282.21 172,-301.21 261,-301.21 261,-282.21 172,-282.21"/>
<text text-anchor="middle" x="216.5" y="-289.21" font-family="Helvetica,sans-Serif" font-size="10.00">multipipe_cmd</text>
</a>
</g>
</g>
<!-- Node1&#45;&gt;Node5 -->
<g id="edge39" class="edge">
<title>Node1&#45;&gt;Node5</title>
<path fill="none" stroke="midnightblue" d="M1731.24,-290.89C1724.35,-234.2 1701.77,-73.25 1664,-38.71 1598.55,21.16 1555.7,-6.71 1467,-6.71 1467,-6.71 1467,-6.71 555.5,-6.71 380.88,-6.71 249.69,-231.78 222.64,-281.9"/>
<polygon fill="midnightblue" stroke="midnightblue" points="1727.79,-291.52 1732.44,-301.04 1734.74,-290.7 1727.79,-291.52"/>
</g>
<!-- Node9 -->
<g id="node9" class="node">
<title>Node9</title>
<g id="a_node9"><a xlink:href="redirection__verification_8c.html#a5b79f4b52353f6558575b5da0dd28fd4" target="_top" xlink:title="we close the fd_in and fd_out in case of a fail this function is able to manage the error coming from...">
<polygon fill="none" stroke="black" points="1576.5,-415.21 1576.5,-434.21 1662.5,-434.21 1662.5,-415.21 1576.5,-415.21"/>
<text text-anchor="middle" x="1619.5" y="-422.21" font-family="Helvetica,sans-Serif" font-size="10.00">close_fd_error</text>
</a>
</g>
</g>
<!-- Node1&#45;&gt;Node9 -->
<g id="edge9" class="edge">
<title>Node1&#45;&gt;Node9</title>
<path fill="none" stroke="midnightblue" d="M1722.58,-329.01C1710.23,-348.57 1688.6,-379.62 1664,-400.71 1657.45,-406.32 1649.38,-411.21 1641.98,-415.09"/>
<polygon fill="midnightblue" stroke="midnightblue" points="1725.6,-330.77 1727.87,-320.42 1719.64,-327.1 1725.6,-330.77"/>
</g>
<!-- Node10 -->
<g id="node10" class="node">
<title>Node10</title>
<g id="a_node10"><a xlink:href="redirection__verification_8c.html#a95641b4885e9c0b07b477846c96c0d2f" target="_top" xlink:title="we have to check if the file exist then if we are allowed to open it in any error case we write a mes...">
<polygon fill="none" stroke="black" points="1417,-453.21 1417,-472.21 1515,-472.21 1515,-453.21 1417,-453.21"/>
<text text-anchor="middle" x="1466" y="-460.21" font-family="Helvetica,sans-Serif" font-size="10.00">infile_redirection</text>
</a>
</g>
</g>
<!-- Node1&#45;&gt;Node10 -->
<g id="edge38" class="edge">
<title>Node1&#45;&gt;Node10</title>
<path fill="none" stroke="midnightblue" d="M1729.38,-330.65C1722,-360.76 1703.47,-417.12 1664,-443.71 1620.25,-473.17 1558.14,-474.13 1515.42,-470.18"/>
<polygon fill="midnightblue" stroke="midnightblue" points="1732.88,-331.04 1731.68,-320.52 1726.05,-329.49 1732.88,-331.04"/>
</g>
<!-- Node11 -->
<g id="node11" class="node">
<title>Node11</title>
<g id="a_node11"><a xlink:href="redirection__verification_8c.html#af9b05287627b76434ceb0070c5cb2c8a" target="_top" xlink:title="we go through each node of the redirection and we have special treatment depending of the following c...">
<polygon fill="none" stroke="black" points="1228,-453.21 1228,-472.21 1357,-472.21 1357,-453.21 1228,-453.21"/>
<text text-anchor="middle" x="1292.5" y="-460.21" font-family="Helvetica,sans-Serif" font-size="10.00">redirection_verification</text>
</a>
</g>
</g>
<!-- Node1&#45;&gt;Node11 -->
<g id="edge63" class="edge">
<title>Node1&#45;&gt;Node11</title>
<path fill="none" stroke="midnightblue" d="M1731.3,-330.66C1726.28,-365.55 1710.58,-437.14 1664,-470.71 1556.47,-548.19 1382.09,-495.79 1318.07,-472.37"/>
<polygon fill="midnightblue" stroke="midnightblue" points="1734.82,-330.7 1732.62,-320.34 1727.88,-329.81 1734.82,-330.7"/>
</g>
<!-- Node12 -->
<g id="node12" class="node">
<title>Node12</title>
<g id="a_node12"><a xlink:href="redirection__verification_8c.html#ac61790fa82f2a9b6b904cd92135b6acb" target="_top" xlink:title="outfile and append are open with the right flags in a case of an error we write a message with the na...">
<polygon fill="none" stroke="black" points="1393,-415.21 1393,-434.21 1539,-434.21 1539,-415.21 1393,-415.21"/>
<text text-anchor="middle" x="1466" y="-422.21" font-family="Helvetica,sans-Serif" font-size="10.00">outfile_append_redirection</text>
</a>
</g>
</g>
<!-- Node1&#45;&gt;Node12 -->
<g id="edge41" class="edge">
<title>Node1&#45;&gt;Node12</title>
<path fill="none" stroke="midnightblue" d="M1715.03,-327.27C1701.65,-338.55 1682.7,-353.12 1664,-362.71 1614.7,-387.98 1553.15,-405.33 1512.1,-415.11"/>
<polygon fill="midnightblue" stroke="midnightblue" points="1717.68,-329.6 1722.96,-320.41 1713.1,-324.31 1717.68,-329.6"/>
</g>
<!-- Node13 -->
<g id="node13" class="node">
<title>Node13</title>
<g id="a_node13"><a xlink:href="heredoc_8c.html#a3e1410633d8c1ad5b1441509a020b0d4" target="_top" xlink:title="allow us to close the file descriptors when we have fork() again the process">
<polygon fill="none" stroke="black" points="1079,-206.21 1079,-225.21 1192,-225.21 1192,-206.21 1079,-206.21"/>
<text text-anchor="middle" x="1135.5" y="-213.21" font-family="Helvetica,sans-Serif" font-size="10.00">close_fd_heredocs2</text>
</a>
</g>
</g>
<!-- Node1&#45;&gt;Node13 -->
<g id="edge16" class="edge">
<title>Node1&#45;&gt;Node13</title>
<path fill="none" stroke="midnightblue" d="M1729.87,-291.14C1723.04,-260.61 1705.08,-202.59 1664,-177.71 1583.31,-128.83 1292.25,-182.91 1180.56,-206.15"/>
<polygon fill="midnightblue" stroke="midnightblue" points="1726.46,-291.94 1731.91,-301.03 1733.32,-290.53 1726.46,-291.94"/>
</g>
<!-- Node14 -->
<g id="node14" class="node">
<title>Node14</title>
<g id="a_node14"><a xlink:href="heredoc_8c.html#aa11261ffe1d93fd87488514776e2df34" target="_top" xlink:title=" ">
<polygon fill="none" stroke="black" points="938,-301.21 938,-320.21 1041,-320.21 1041,-301.21 938,-301.21"/>
<text text-anchor="middle" x="989.5" y="-308.21" font-family="Helvetica,sans-Serif" font-size="10.00">read_gnl_heredoc</text>
</a>
</g>
</g>
<!-- Node1&#45;&gt;Node14 -->
<g id="edge62" class="edge">
<title>Node1&#45;&gt;Node14</title>
<path fill="none" stroke="midnightblue" d="M1689.95,-320.86C1681.4,-322.46 1672.45,-323.87 1664,-324.71 1624.64,-328.63 1614.55,-325.18 1575,-324.71 1377.59,-322.34 1142.75,-315.49 1041.31,-312.33"/>
<polygon fill="midnightblue" stroke="midnightblue" points="1690.64,-324.29 1699.77,-318.9 1689.28,-317.42 1690.64,-324.29"/>
</g>
<!-- Node16 -->
<g id="node16" class="node">
<title>Node16</title>
<g id="a_node16"><a xlink:href="redirection__multipipe_8c.html#af7980d82e7ea7c0c84519ef3e3011b98" target="_top" xlink:title=" ">
<polygon fill="none" stroke="black" points="1245.5,-35.21 1245.5,-54.21 1339.5,-54.21 1339.5,-35.21 1245.5,-35.21"/>
<text text-anchor="middle" x="1292.5" y="-42.21" font-family="Helvetica,sans-Serif" font-size="10.00">close_fd_parent</text>
</a>
</g>
</g>
<!-- Node1&#45;&gt;Node16 -->
<g id="edge22" class="edge">
<title>Node1&#45;&gt;Node16</title>
<path fill="none" stroke="midnightblue" d="M1730.79,-291.2C1723.1,-238.82 1699.37,-97.19 1664,-68.71 1615.3,-29.5 1427.64,-35.93 1339.6,-41.35"/>
<polygon fill="midnightblue" stroke="midnightblue" points="1727.34,-291.8 1732.23,-301.2 1734.27,-290.81 1727.34,-291.8"/>
</g>
<!-- Node18 -->
<g id="node18" class="node">
<title>Node18</title>
<g id="a_node18"><a xlink:href="redirection__multipipe_8c.html#a3a0d7f695cf53df46301e14ffab77638" target="_top" xlink:title=" ">
<polygon fill="none" stroke="black" points="1575,-187.21 1575,-206.21 1664,-206.21 1664,-187.21 1575,-187.21"/>
<text text-anchor="middle" x="1619.5" y="-194.21" font-family="Helvetica,sans-Serif" font-size="10.00">close_previous</text>
</a>
</g>
</g>
<!-- Node1&#45;&gt;Node18 -->
<g id="edge25" class="edge">
<title>Node1&#45;&gt;Node18</title>
<path fill="none" stroke="midnightblue" d="M1722.58,-292.41C1710.23,-272.84 1688.6,-241.8 1664,-220.71 1657.45,-215.09 1649.38,-210.2 1641.98,-206.33"/>
<polygon fill="midnightblue" stroke="midnightblue" points="1719.64,-294.32 1727.87,-300.99 1725.6,-290.64 1719.64,-294.32"/>
</g>
<!-- Node19 -->
<g id="node19" class="node">
<title>Node19</title>
<g id="a_node19"><a xlink:href="redirection__multipipe_8c.html#a26c96266f1645047a9bdd9af22de94a7" target="_top" xlink:title=" ">
<polygon fill="none" stroke="black" points="1412,-225.21 1412,-244.21 1520,-244.21 1520,-225.21 1412,-225.21"/>
<text text-anchor="middle" x="1466" y="-232.21" font-family="Helvetica,sans-Serif" font-size="10.00">command_redirect</text>
</a>
</g>
</g>
<!-- Node1&#45;&gt;Node19 -->
<g id="edge34" class="edge">
<title>Node1&#45;&gt;Node19</title>
<path fill="none" stroke="midnightblue" d="M1718.07,-293.38C1705.08,-280.05 1685.26,-262.49 1664,-253.71 1617.95,-234.7 1560.86,-231.13 1520.02,-231.6"/>
<polygon fill="midnightblue" stroke="midnightblue" points="1715.83,-296.11 1725.23,-301.01 1720.94,-291.32 1715.83,-296.11"/>
</g>
<!-- Node21 -->
<g id="node21" class="node">
<title>Node21</title>
<g id="a_node21"><a xlink:href="execution_8c.html#aa6f3ac2f0c10538c125eafcb587fd021" target="_top" xlink:title="in this function we do the fork to create a child process we do the redirection if we need to">
<polygon fill="none" stroke="black" points="492.5,-529.21 492.5,-548.21 620.5,-548.21 620.5,-529.21 492.5,-529.21"/>
<text text-anchor="middle" x="556.5" y="-536.21" font-family="Helvetica,sans-Serif" font-size="10.00">one_command_execve</text>
</a>
</g>
</g>
<!-- Node1&#45;&gt;Node21 -->
<g id="edge40" class="edge">
<title>Node1&#45;&gt;Node21</title>
<path fill="none" stroke="midnightblue" d="M1733.85,-330.51C1733.71,-379.66 1726.99,-509.04 1664,-588.71 1602.85,-666.05 1565.6,-690.71 1467,-690.71 1467,-690.71 1467,-690.71 1134.5,-690.71 1045.87,-690.71 1022.55,-690.76 936,-671.71 795.53,-640.79 635.4,-573.21 578.73,-548.23"/>
<polygon fill="midnightblue" stroke="midnightblue" points="1737.35,-330.28 1733.79,-320.3 1730.35,-330.32 1737.35,-330.28"/>
</g>
<!-- Node22 -->
<g id="node22" class="node">
<title>Node22</title>
<g id="a_node22"><a xlink:href="multipipe_8c.html#a9b21b82386f20636501d279a66b7260d" target="_top" xlink:title="in the case of an error in the redirection, we have a case where the here_doc opened in a previous si...">
<polygon fill="none" stroke="black" points="506,-225.21 506,-244.21 607,-244.21 607,-225.21 506,-225.21"/>
<text text-anchor="middle" x="556.5" y="-232.21" font-family="Helvetica,sans-Serif" font-size="10.00">close_redir_temp</text>
</a>
</g>
</g>
<!-- Node1&#45;&gt;Node22 -->
<g id="edge31" class="edge">
<title>Node1&#45;&gt;Node22</title>
<path fill="none" stroke="midnightblue" d="M1733.26,-290.87C1731.58,-249.35 1721.36,-153.26 1664,-106.71 1595.52,-51.12 1555.2,-82.71 1467,-82.71 1467,-82.71 1467,-82.71 842.5,-82.71 720.81,-82.71 600.65,-191.92 566.86,-225.2"/>
<polygon fill="midnightblue" stroke="midnightblue" points="1729.76,-291.15 1733.54,-301.05 1736.76,-290.96 1729.76,-291.15"/>
</g>
<!-- Node23 -->
<g id="node23" class="node">
<title>Node23</title>
<g id="a_node23"><a xlink:href="redirection__multipipe_8c.html#a5b749bc2b4088984c0efe1c479ae6ec8" target="_top" xlink:title=" ">
<polygon fill="none" stroke="black" points="1579.5,-263.21 1579.5,-282.21 1659.5,-282.21 1659.5,-263.21 1579.5,-263.21"/>
<text text-anchor="middle" x="1619.5" y="-270.21" font-family="Helvetica,sans-Serif" font-size="10.00">fail_previous</text>
</a>
</g>
</g>
<!-- Node1&#45;&gt;Node23 -->
<g id="edge35" class="edge">
<title>Node1&#45;&gt;Node23</title>
<path fill="none" stroke="midnightblue" d="M1695.36,-297.88C1680.2,-292.78 1663.06,-287.02 1649.01,-282.29"/>
<polygon fill="midnightblue" stroke="midnightblue" points="1694.39,-301.25 1704.99,-301.12 1696.62,-294.61 1694.39,-301.25"/>
</g>
<!-- Node24 -->
<g id="node24" class="node">
<title>Node24</title>
<g id="a_node24"><a xlink:href="lst__cmd2_8c.html#a8e2b63759f149b547e0d07f210ede9b3" target="_top" xlink:title=" ">
<polygon fill="none" stroke="black" points="1262,-529.21 1262,-548.21 1323,-548.21 1323,-529.21 1262,-529.21"/>
<text text-anchor="middle" x="1292.5" y="-536.21" font-family="Helvetica,sans-Serif" font-size="10.00">pop_cmd</text>
</a>
</g>
</g>
<!-- Node1&#45;&gt;Node24 -->
<g id="edge42" class="edge">
<title>Node1&#45;&gt;Node24</title>
<path fill="none" stroke="midnightblue" d="M1731,-330.4C1723.77,-383.89 1700.96,-529.71 1664,-557.71 1556.18,-639.38 1375.94,-574.27 1314.65,-548.24"/>
<polygon fill="midnightblue" stroke="midnightblue" points="1734.47,-330.84 1732.31,-320.47 1727.53,-329.93 1734.47,-330.84"/>
</g>
<!-- Node32 -->
<g id="node32" class="node">
<title>Node32</title>
<g id="a_node32"><a xlink:href="lst__redir2_8c.html#ade8f0bdda51d9bf348ebeb38fefba881" target="_top" xlink:title=" ">
<polygon fill="none" stroke="black" points="1588.5,-529.21 1588.5,-548.21 1650.5,-548.21 1650.5,-529.21 1588.5,-529.21"/>
<text text-anchor="middle" x="1619.5" y="-536.21" font-family="Helvetica,sans-Serif" font-size="10.00">pop_redir</text>
</a>
</g>
</g>
<!-- Node1&#45;&gt;Node32 -->
<g id="edge59" class="edge">
<title>Node1&#45;&gt;Node32</title>
<path fill="none" stroke="midnightblue" d="M1731.51,-330.55C1726.62,-369.9 1710.81,-458.85 1664,-514.71 1659.01,-520.66 1652.16,-525.39 1645.36,-529.03"/>
<polygon fill="midnightblue" stroke="midnightblue" points="1735.01,-330.75 1732.65,-320.42 1728.05,-329.97 1735.01,-330.75"/>
</g>
<!-- Node2&#45;&gt;Node3 -->
<g id="edge2" class="edge">
<title>Node2&#45;&gt;Node3</title>
<path fill="none" stroke="midnightblue" d="M787.37,-261.04C774.22,-258.25 760.38,-255.33 747.91,-252.68"/>
<polygon fill="midnightblue" stroke="midnightblue" points="786.75,-264.49 797.26,-263.13 788.2,-257.64 786.75,-264.49"/>
</g>
<!-- Node4 -->
<g id="node4" class="node">
<title>Node4</title>
<g id="a_node4"><a xlink:href="heredoc_8c.html#a17337782f10170a6f2f9188bf557de0f" target="_top" xlink:title="the function will go through all the commands and check the redirection if we encounter a heredoc we ...">
<polygon fill="none" stroke="black" points="491,-301.21 491,-320.21 622,-320.21 622,-301.21 491,-301.21"/>
<text text-anchor="middle" x="556.5" y="-308.21" font-family="Helvetica,sans-Serif" font-size="10.00">here_doc_management</text>
</a>
</g>
</g>
<!-- Node3&#45;&gt;Node4 -->
<g id="edge3" class="edge">
<title>Node3&#45;&gt;Node4</title>
<path fill="none" stroke="midnightblue" d="M681.03,-258.98C665.09,-269.3 642.9,-282.64 622,-291.71 613.65,-295.33 604.4,-298.51 595.57,-301.18"/>
<polygon fill="midnightblue" stroke="midnightblue" points="683.21,-261.74 689.64,-253.31 679.36,-255.89 683.21,-261.74"/>
</g>
<!-- Node4&#45;&gt;Node5 -->
<g id="edge4" class="edge">
<title>Node4&#45;&gt;Node5</title>
<path fill="none" stroke="midnightblue" d="M480.6,-306.5C413.22,-302.71 316.57,-297.28 261.1,-294.16"/>
<polygon fill="midnightblue" stroke="midnightblue" points="480.55,-310 490.73,-307.07 480.94,-303.01 480.55,-310"/>
</g>
<!-- Node8 -->
<g id="node8" class="node">
<title>Node8</title>
<g id="a_node8"><a xlink:href="execution_8c.html#a38335028b2bc7aa436f8f79a3753ce5e" target="_top" xlink:title="here we check if it&#39;s a builtin where we have to fork or not we still need to do the redirection veri...">
<polygon fill="none" stroke="black" points="331.5,-415.21 331.5,-434.21 420.5,-434.21 420.5,-415.21 331.5,-415.21"/>
<text text-anchor="middle" x="376" y="-422.21" font-family="Helvetica,sans-Serif" font-size="10.00">one_command</text>
</a>
</g>
</g>
<!-- Node4&#45;&gt;Node8 -->
<g id="edge7" class="edge">
<title>Node4&#45;&gt;Node8</title>
<path fill="none" stroke="midnightblue" d="M531.91,-325.77C494.7,-349.54 423.44,-395.05 392.25,-414.97"/>
<polygon fill="midnightblue" stroke="midnightblue" points="534.04,-328.56 540.59,-320.23 530.28,-322.66 534.04,-328.56"/>
</g>
<!-- Node6 -->
<g id="node6" class="node">
<title>Node6</title>
<g id="a_node6"><a xlink:href="execution_8c.html#a9542b61daba3eb4d45c8887c5648b2f6" target="_top" xlink:title="first function of the execution part when we have something to do we have to deal with two cases ; if...">
<polygon fill="none" stroke="black" points="77,-415.21 77,-434.21 136,-434.21 136,-415.21 77,-415.21"/>
<text text-anchor="middle" x="106.5" y="-422.21" font-family="Helvetica,sans-Serif" font-size="10.00">executor</text>
</a>
</g>
</g>
<!-- Node5&#45;&gt;Node6 -->
<g id="edge5" class="edge">
<title>Node5&#45;&gt;Node6</title>
<path fill="none" stroke="midnightblue" d="M201.35,-309.13C178.37,-337.43 133.68,-392.47 115.49,-414.87"/>
<polygon fill="midnightblue" stroke="midnightblue" points="204.15,-311.24 207.73,-301.27 198.71,-306.83 204.15,-311.24"/>
</g>
<!-- Node7 -->
<g id="node7" class="node">
<title>Node7</title>
<g id="a_node7"><a xlink:href="main_8c.html#a647f21a28344e1d9c643f4115516d7c9" target="_top" xlink:title=" ">
<polygon fill="none" stroke="black" points="0,-643.21 0,-662.21 41,-662.21 41,-643.21 0,-643.21"/>
<text text-anchor="middle" x="20.5" y="-650.21" font-family="Helvetica,sans-Serif" font-size="10.00">main</text>
</a>
</g>
</g>
<!-- Node6&#45;&gt;Node7 -->
<g id="edge6" class="edge">
<title>Node6&#45;&gt;Node7</title>
<path fill="none" stroke="midnightblue" d="M98.5,-443.71C81.35,-490.26 37.72,-608.69 25.02,-643.16"/>
<polygon fill="midnightblue" stroke="midnightblue" points="101.82,-444.81 102,-434.21 95.26,-442.39 101.82,-444.81"/>
</g>
<!-- Node8&#45;&gt;Node6 -->
<g id="edge8" class="edge">
<title>Node8&#45;&gt;Node6</title>
<path fill="none" stroke="midnightblue" d="M321.37,-424.71C265.58,-424.71 180.35,-424.71 136.22,-424.71"/>
<polygon fill="midnightblue" stroke="midnightblue" points="321.43,-428.21 331.43,-424.71 321.43,-421.21 321.43,-428.21"/>
</g>
<!-- Node9&#45;&gt;Node10 -->
<g id="edge10" class="edge">
<title>Node9&#45;&gt;Node10</title>
<path fill="none" stroke="midnightblue" d="M1570.5,-436.75C1549.33,-442.06 1524.81,-448.21 1504.95,-453.19"/>
<polygon fill="midnightblue" stroke="midnightblue" points="1571.42,-440.12 1580.27,-434.3 1569.72,-433.34 1571.42,-440.12"/>
</g>
<!-- Node9&#45;&gt;Node12 -->
<g id="edge14" class="edge">
<title>Node9&#45;&gt;Node12</title>
<path fill="none" stroke="midnightblue" d="M1566.27,-424.71C1557.52,-424.71 1548.3,-424.71 1539.15,-424.71"/>
<polygon fill="midnightblue" stroke="midnightblue" points="1566.3,-428.21 1576.3,-424.71 1566.3,-421.21 1566.3,-428.21"/>
</g>
<!-- Node10&#45;&gt;Node11 -->
<g id="edge11" class="edge">
<title>Node10&#45;&gt;Node11</title>
<path fill="none" stroke="midnightblue" d="M1406.53,-462.71C1390.6,-462.71 1373.26,-462.71 1357.06,-462.71"/>
<polygon fill="midnightblue" stroke="midnightblue" points="1406.77,-466.21 1416.77,-462.71 1406.77,-459.21 1406.77,-466.21"/>
</g>
<!-- Node11&#45;&gt;Node5 -->
<g id="edge12" class="edge">
<title>Node11&#45;&gt;Node5</title>
<path fill="none" stroke="midnightblue" d="M1260.81,-449.2C1189.31,-419.02 1005.51,-348.71 844.5,-348.71 844.5,-348.71 844.5,-348.71 555.5,-348.71 439.56,-348.71 410.57,-337 297,-313.71 280.73,-310.37 262.88,-305.54 248.22,-301.26"/>
<polygon fill="midnightblue" stroke="midnightblue" points="1259.56,-452.48 1270.13,-453.18 1262.31,-446.04 1259.56,-452.48"/>
</g>
<!-- Node11&#45;&gt;Node8 -->
<g id="edge13" class="edge">
<title>Node11&#45;&gt;Node8</title>
<path fill="none" stroke="midnightblue" d="M1217.88,-459.65C1035.27,-452.06 565.83,-432.55 420.53,-426.52"/>
<polygon fill="midnightblue" stroke="midnightblue" points="1217.78,-463.15 1227.92,-460.07 1218.07,-456.15 1217.78,-463.15"/>
</g>
<!-- Node12&#45;&gt;Node11 -->
<g id="edge15" class="edge">
<title>Node12&#45;&gt;Node11</title>
<path fill="none" stroke="midnightblue" d="M1411.96,-436.46C1387.71,-441.83 1359.35,-448.12 1336.47,-453.19"/>
<polygon fill="midnightblue" stroke="midnightblue" points="1412.72,-439.88 1421.72,-434.3 1411.2,-433.04 1412.72,-439.88"/>
</g>
<!-- Node13&#45;&gt;Node2 -->
<g id="edge17" class="edge">
<title>Node13&#45;&gt;Node2</title>
<path fill="none" stroke="midnightblue" d="M1075.9,-227.23C1022.18,-237.79 943.55,-253.24 893.2,-263.14"/>
<polygon fill="midnightblue" stroke="midnightblue" points="1076.82,-230.61 1085.96,-225.25 1075.47,-223.74 1076.82,-230.61"/>
</g>
<!-- Node13&#45;&gt;Node14 -->
<g id="edge18" class="edge">
<title>Node13&#45;&gt;Node14</title>
<path fill="none" stroke="midnightblue" d="M1111.35,-230.98C1081.42,-250.73 1030.18,-284.53 1005.14,-301.05"/>
<polygon fill="midnightblue" stroke="midnightblue" points="1113.48,-233.77 1119.9,-225.34 1109.63,-227.93 1113.48,-233.77"/>
</g>
<!-- Node15 -->
<g id="node15" class="node">
<title>Node15</title>
<g id="a_node15"><a xlink:href="heredoc2_8c.html#ac2c940d294494f86fcc389ffeedfd752" target="_top" xlink:title="origin of creation ; the norm what it is doing ? juste close the fd the right way if we encounter the...">
<polygon fill="none" stroke="black" points="800.5,-206.21 800.5,-225.21 886.5,-225.21 886.5,-206.21 800.5,-206.21"/>
<text text-anchor="middle" x="843.5" y="-213.21" font-family="Helvetica,sans-Serif" font-size="10.00">update_status</text>
</a>
</g>
</g>
<!-- Node13&#45;&gt;Node15 -->
<g id="edge20" class="edge">
<title>Node13&#45;&gt;Node15</title>
<path fill="none" stroke="midnightblue" d="M1068.78,-215.71C1012.96,-215.71 934.51,-215.71 886.71,-215.71"/>
<polygon fill="midnightblue" stroke="midnightblue" points="1068.93,-219.21 1078.93,-215.71 1068.93,-212.21 1068.93,-219.21"/>
</g>
<!-- Node14&#45;&gt;Node2 -->
<g id="edge19" class="edge">
<title>Node14&#45;&gt;Node2</title>
<path fill="none" stroke="midnightblue" d="M942.33,-298.52C922.34,-293.25 899.28,-287.16 880.58,-282.23"/>
<polygon fill="midnightblue" stroke="midnightblue" points="941.6,-301.95 952.16,-301.12 943.39,-295.18 941.6,-301.95"/>
</g>
<!-- Node15&#45;&gt;Node3 -->
<g id="edge21" class="edge">
<title>Node15&#45;&gt;Node3</title>
<path fill="none" stroke="midnightblue" d="M790.27,-226.38C776.24,-229.25 761.24,-232.32 747.82,-235.06"/>
<polygon fill="midnightblue" stroke="midnightblue" points="791.18,-229.77 800.28,-224.34 789.78,-222.91 791.18,-229.77"/>
</g>
<!-- Node17 -->
<g id="node17" class="node">
<title>Node17</title>
<g id="a_node17"><a xlink:href="multipipe_8c.html#af31c329200501f497cd102a470450103" target="_top" xlink:title="it&#39;s where the fork happen and sent to be execute">
<polygon fill="none" stroke="black" points="297,-225.21 297,-244.21 455,-244.21 455,-225.21 297,-225.21"/>
<text text-anchor="middle" x="376" y="-232.21" font-family="Helvetica,sans-Serif" font-size="10.00">multipipe_intermediary_cmd</text>
</a>
</g>
</g>
<!-- Node16&#45;&gt;Node17 -->
<g id="edge23" class="edge">
<title>Node16&#45;&gt;Node17</title>
<path fill="none" stroke="midnightblue" d="M1235.25,-44.71C1174.78,-44.71 1075.84,-44.71 990.5,-44.71 990.5,-44.71 990.5,-44.71 703.5,-44.71 558.56,-44.71 420.54,-186.31 385.51,-225.02"/>
<polygon fill="midnightblue" stroke="midnightblue" points="1235.35,-48.21 1245.35,-44.71 1235.35,-41.21 1235.35,-48.21"/>
</g>
<!-- Node17&#45;&gt;Node5 -->
<g id="edge24" class="edge">
<title>Node17&#45;&gt;Node5</title>
<path fill="none" stroke="midnightblue" d="M331.65,-247.25C320.31,-250.75 308.13,-254.69 297,-258.71 277.04,-265.9 254.76,-275.27 238.88,-282.19"/>
<polygon fill="midnightblue" stroke="midnightblue" points="332.82,-250.55 341.37,-244.29 330.78,-243.85 332.82,-250.55"/>
</g>
<!-- Node18&#45;&gt;Node19 -->
<g id="edge26" class="edge">
<title>Node18&#45;&gt;Node19</title>
<path fill="none" stroke="midnightblue" d="M1570.5,-208.75C1549.33,-214.06 1524.81,-220.21 1504.95,-225.19"/>
<polygon fill="midnightblue" stroke="midnightblue" points="1571.42,-212.12 1580.27,-206.3 1569.72,-205.34 1571.42,-212.12"/>
</g>
<!-- Node20 -->
<g id="node20" class="node">
<title>Node20</title>
<g id="a_node20"><a xlink:href="multipipe_8c.html#a461ae962ce9a1aee7221ac4b9c581f98" target="_top" xlink:title=" ">
<polygon fill="none" stroke="black" points="515,-263.21 515,-282.21 598,-282.21 598,-263.21 515,-263.21"/>
<text text-anchor="middle" x="556.5" y="-270.21" font-family="Helvetica,sans-Serif" font-size="10.00">execute_child</text>
</a>
</g>
</g>
<!-- Node19&#45;&gt;Node20 -->
<g id="edge27" class="edge">
<title>Node19&#45;&gt;Node20</title>
<path fill="none" stroke="midnightblue" d="M1440.92,-220.07C1387.94,-189.3 1256.38,-120.71 1136.5,-120.71 1136.5,-120.71 1136.5,-120.71 842.5,-120.71 815.63,-120.71 810.82,-132.26 787,-144.71 727.21,-175.96 713.04,-185.7 658,-224.71 641.24,-236.59 640.2,-244.18 622,-253.71 614.55,-257.61 606.19,-260.81 598.02,-263.41"/>
<polygon fill="midnightblue" stroke="midnightblue" points="1439.21,-223.12 1449.6,-225.18 1442.76,-217.09 1439.21,-223.12"/>
</g>
<!-- Node19&#45;&gt;Node21 -->
<g id="edge29" class="edge">
<title>Node19&#45;&gt;Node21</title>
<path fill="none" stroke="midnightblue" d="M1443.05,-250.07C1370.1,-300.13 1127.48,-458.88 900,-519.71 805.07,-545.09 690.23,-545.65 620.58,-542.84"/>
<polygon fill="midnightblue" stroke="midnightblue" points="1445.22,-252.82 1451.46,-244.25 1441.25,-247.06 1445.22,-252.82"/>
</g>
<!-- Node20&#45;&gt;Node17 -->
<g id="edge28" class="edge">
<title>Node20&#45;&gt;Node17</title>
<path fill="none" stroke="midnightblue" d="M504.89,-261.93C478.7,-256.36 447.01,-249.61 421.73,-244.23"/>
<polygon fill="midnightblue" stroke="midnightblue" points="504.49,-265.43 515,-264.09 505.94,-258.58 504.49,-265.43"/>
</g>
<!-- Node21&#45;&gt;Node8 -->
<g id="edge30" class="edge">
<title>Node21&#45;&gt;Node8</title>
<path fill="none" stroke="midnightblue" d="M531.91,-523.64C494.7,-499.88 423.44,-454.36 392.25,-434.45"/>
<polygon fill="midnightblue" stroke="midnightblue" points="530.28,-526.75 540.59,-529.18 534.04,-520.85 530.28,-526.75"/>
</g>
<!-- Node22&#45;&gt;Node5 -->
<g id="edge32" class="edge">
<title>Node22&#45;&gt;Node5</title>
<path fill="none" stroke="midnightblue" d="M496.51,-246.15C482.89,-248.71 468.45,-251.36 455,-253.71 387.54,-265.48 309.04,-277.76 261.33,-285.07"/>
<polygon fill="midnightblue" stroke="midnightblue" points="497.56,-249.51 506.73,-244.21 496.26,-242.63 497.56,-249.51"/>
</g>
<!-- Node22&#45;&gt;Node8 -->
<g id="edge33" class="edge">
<title>Node22&#45;&gt;Node8</title>
<path fill="none" stroke="midnightblue" d="M499.41,-248.46C496.46,-250.03 493.63,-251.77 491,-253.71 430.37,-298.34 392.24,-385.57 380.71,-414.85"/>
<polygon fill="midnightblue" stroke="midnightblue" points="500.91,-251.63 508.55,-244.28 498,-245.26 500.91,-251.63"/>
</g>
<!-- Node23&#45;&gt;Node19 -->
<g id="edge36" class="edge">
<title>Node23&#45;&gt;Node19</title>
<path fill="none" stroke="midnightblue" d="M1570.5,-260.67C1549.33,-255.36 1524.81,-249.21 1504.95,-244.23"/>
<polygon fill="midnightblue" stroke="midnightblue" points="1569.72,-264.08 1580.27,-263.12 1571.42,-257.29 1569.72,-264.08"/>
</g>
<!-- Node25 -->
<g id="node25" class="node">
<title>Node25</title>
<g id="a_node25"><a xlink:href="lst__cmd2_8c.html#a132395876bb5a7cfe926b9e37571a1e3" target="_top" xlink:title=" ">
<polygon fill="none" stroke="black" points="1089.5,-529.21 1089.5,-548.21 1181.5,-548.21 1181.5,-529.21 1089.5,-529.21"/>
<text text-anchor="middle" x="1135.5" y="-536.21" font-family="Helvetica,sans-Serif" font-size="10.00">destructor_cmd</text>
</a>
</g>
</g>
<!-- Node24&#45;&gt;Node25 -->
<g id="edge43" class="edge">
<title>Node24&#45;&gt;Node25</title>
<path fill="none" stroke="midnightblue" d="M1251.93,-538.71C1230.52,-538.71 1204,-538.71 1181.77,-538.71"/>
<polygon fill="midnightblue" stroke="midnightblue" points="1251.98,-542.21 1261.98,-538.71 1251.98,-535.21 1251.98,-542.21"/>
</g>
<!-- Node25&#45;&gt;Node2 -->
<g id="edge44" class="edge">
<title>Node25&#45;&gt;Node2</title>
<path fill="none" stroke="midnightblue" d="M1116.24,-521.96C1061.18,-471.46 897.92,-321.71 854.96,-282.3"/>
<polygon fill="midnightblue" stroke="midnightblue" points="1114.1,-524.75 1123.83,-528.93 1118.83,-519.59 1114.1,-524.75"/>
</g>
<!-- Node25&#45;&gt;Node7 -->
<g id="edge46" class="edge">
<title>Node25&#45;&gt;Node7</title>
<path fill="none" stroke="midnightblue" d="M1102.69,-552.25C1085.31,-559.21 1063.26,-567.33 1043,-572.71 831.64,-628.83 776.19,-652.71 557.5,-652.71 557.5,-652.71 557.5,-652.71 215.5,-652.71 151.68,-652.71 76.04,-652.71 41.05,-652.71"/>
<polygon fill="midnightblue" stroke="midnightblue" points="1104.39,-555.34 1112.33,-548.32 1101.75,-548.85 1104.39,-555.34"/>
</g>
<!-- Node25&#45;&gt;Node14 -->
<g id="edge58" class="edge">
<title>Node25&#45;&gt;Node14</title>
<path fill="none" stroke="midnightblue" d="M1125.5,-519.56C1110.28,-487.89 1077.72,-423.11 1043,-372.71 1029.4,-352.96 1010.71,-332.1 999.69,-320.31"/>
<polygon fill="midnightblue" stroke="midnightblue" points="1122.52,-521.43 1129.97,-528.96 1128.84,-518.42 1122.52,-521.43"/>
</g>
<!-- Node25&#45;&gt;Node20 -->
<g id="edge45" class="edge">
<title>Node25&#45;&gt;Node20</title>
<path fill="none" stroke="midnightblue" d="M1108.1,-524.08C1033.55,-483.18 814.29,-365.8 622,-291.71 612.96,-288.22 603,-285 593.67,-282.24"/>
<polygon fill="midnightblue" stroke="midnightblue" points="1106.81,-527.36 1117.26,-529.11 1110.18,-521.23 1106.81,-527.36"/>
</g>
<!-- Node25&#45;&gt;Node21 -->
<g id="edge53" class="edge">
<title>Node25&#45;&gt;Node21</title>
<path fill="none" stroke="midnightblue" d="M1087.36,-550.42C1073.19,-553.42 1057.55,-556.21 1043,-557.71 981.45,-564.03 771.69,-561.62 658,-552.71 644.74,-551.67 630.56,-550.03 617.16,-548.22"/>
<polygon fill="midnightblue" stroke="midnightblue" points="1088.36,-553.78 1097.37,-548.22 1086.86,-546.95 1088.36,-553.78"/>
</g>
<!-- Node26 -->
<g id="node26" class="node">
<title>Node26</title>
<g id="a_node26"><a xlink:href="exit_8c.html#adcbec3416f97b2d0b8d53cf4c2b2a436" target="_top" xlink:title=" ">
<polygon fill="none" stroke="black" points="961.5,-529.21 961.5,-548.21 1017.5,-548.21 1017.5,-529.21 961.5,-529.21"/>
<text text-anchor="middle" x="989.5" y="-536.21" font-family="Helvetica,sans-Serif" font-size="10.00">my_exit</text>
</a>
</g>
</g>
<!-- Node25&#45;&gt;Node26 -->
<g id="edge47" class="edge">
<title>Node25&#45;&gt;Node26</title>
<path fill="none" stroke="midnightblue" d="M1079.22,-538.71C1058.23,-538.71 1035.23,-538.71 1017.91,-538.71"/>
<polygon fill="midnightblue" stroke="midnightblue" points="1079.33,-542.21 1089.33,-538.71 1079.33,-535.21 1079.33,-542.21"/>
</g>
<!-- Node29 -->
<g id="node29" class="node">
<title>Node29</title>
<g id="a_node29"><a xlink:href="error_8c.html#a193034f887c71fdb2486835d8cbd9dd3" target="_top" xlink:title=" ">
<polygon fill="none" stroke="black" points="936,-643.21 936,-662.21 1043,-662.21 1043,-643.21 936,-643.21"/>
<text text-anchor="middle" x="989.5" y="-650.21" font-family="Helvetica,sans-Serif" font-size="10.00">parsing_destructor</text>
</a>
</g>
</g>
<!-- Node25&#45;&gt;Node29 -->
<g id="edge54" class="edge">
<title>Node25&#45;&gt;Node29</title>
<path fill="none" stroke="midnightblue" d="M1120.2,-556.04C1103.34,-575.64 1073.7,-607.57 1043,-628.71 1034.75,-634.39 1024.93,-639.3 1016.03,-643.16"/>
<polygon fill="midnightblue" stroke="midnightblue" points="1123.03,-558.12 1126.81,-548.22 1117.68,-553.6 1123.03,-558.12"/>
</g>
<!-- Node27 -->
<g id="node27" class="node">
<title>Node27</title>
<g id="a_node27"><a xlink:href="launcher_8c.html#a7bee4f6fbfd70ef7ec1f52856538ac71" target="_top" xlink:title="launch the builtin &#160;&#160;some of them are not present because we have to fork() them why ?...">
<polygon fill="none" stroke="black" points="801,-491.21 801,-510.21 886,-510.21 886,-491.21 801,-491.21"/>
<text text-anchor="middle" x="843.5" y="-498.21" font-family="Helvetica,sans-Serif" font-size="10.00">launch_builtin</text>
</a>
</g>
</g>
<!-- Node26&#45;&gt;Node27 -->
<g id="edge48" class="edge">
<title>Node26&#45;&gt;Node27</title>
<path fill="none" stroke="midnightblue" d="M951.54,-528.96C929.77,-523.21 902.35,-515.97 880.71,-510.26"/>
<polygon fill="midnightblue" stroke="midnightblue" points="950.85,-532.39 961.41,-531.56 952.64,-525.62 950.85,-532.39"/>
</g>
<!-- Node27&#45;&gt;Node8 -->
<g id="edge52" class="edge">
<title>Node27&#45;&gt;Node8</title>
<path fill="none" stroke="midnightblue" d="M790.57,-489.42C777.67,-486.76 763.85,-484.02 751,-481.71 631.9,-460.28 490.5,-440.17 420.6,-430.58"/>
<polygon fill="midnightblue" stroke="midnightblue" points="790.18,-492.92 800.68,-491.53 791.61,-486.06 790.18,-492.92"/>
</g>
<!-- Node28 -->
<g id="node28" class="node">
<title>Node28</title>
<g id="a_node28"><a xlink:href="execution__node_8c.html#adda76b40c34c18ec83b1d98700083f8a" target="_top" xlink:title="we are going to execute the command here we have a security about absolute path given =&gt; because it&#39;s...">
<polygon fill="none" stroke="black" points="658,-491.21 658,-510.21 751,-510.21 751,-491.21 658,-491.21"/>
<text text-anchor="middle" x="704.5" y="-498.21" font-family="Helvetica,sans-Serif" font-size="10.00">execution_node</text>
</a>
</g>
</g>
<!-- Node27&#45;&gt;Node28 -->
<g id="edge49" class="edge">
<title>Node27&#45;&gt;Node28</title>
<path fill="none" stroke="midnightblue" d="M790.54,-500.71C777.66,-500.71 763.95,-500.71 751.39,-500.71"/>
<polygon fill="midnightblue" stroke="midnightblue" points="790.65,-504.21 800.65,-500.71 790.65,-497.21 790.65,-504.21"/>
</g>
<!-- Node28&#45;&gt;Node20 -->
<g id="edge50" class="edge">
<title>Node28&#45;&gt;Node20</title>
<path fill="none" stroke="midnightblue" d="M694.27,-482.04C684.61,-462.14 669.31,-429.6 658,-400.71 639.41,-353.2 658.66,-327.19 622,-291.71 615.46,-285.38 606.91,-281.14 598.2,-278.31"/>
<polygon fill="midnightblue" stroke="midnightblue" points="691.22,-483.76 698.76,-491.2 697.5,-480.68 691.22,-483.76"/>
</g>
<!-- Node28&#45;&gt;Node21 -->
<g id="edge51" class="edge">
<title>Node28&#45;&gt;Node21</title>
<path fill="none" stroke="midnightblue" d="M656.96,-512.82C636.63,-518.11 613.13,-524.23 594.08,-529.19"/>
<polygon fill="midnightblue" stroke="midnightblue" points="657.86,-516.2 666.66,-510.3 656.1,-509.43 657.86,-516.2"/>
</g>
<!-- Node30 -->
<g id="node30" class="node">
<title>Node30</title>
<g id="a_node30"><a xlink:href="error_8c.html#a8f5f1cfa591c395b88733e1134d8de3d" target="_top" xlink:title=" ">
<polygon fill="none" stroke="black" points="804.5,-681.21 804.5,-700.21 882.5,-700.21 882.5,-681.21 804.5,-681.21"/>
<text text-anchor="middle" x="843.5" y="-688.21" font-family="Helvetica,sans-Serif" font-size="10.00">syntax_error</text>
</a>
</g>
</g>
<!-- Node29&#45;&gt;Node30 -->
<g id="edge55" class="edge">
<title>Node29&#45;&gt;Node30</title>
<path fill="none" stroke="midnightblue" d="M942.33,-664.89C922.34,-670.17 899.28,-676.25 880.58,-681.19"/>
<polygon fill="midnightblue" stroke="midnightblue" points="943.39,-668.23 952.16,-662.3 941.6,-661.46 943.39,-668.23"/>
</g>
<!-- Node31 -->
<g id="node31" class="node">
<title>Node31</title>
<g id="a_node31"><a xlink:href="parser_8c.html#a302af903b3f87eaaff83762f60c2d8cb" target="_top" xlink:title=" ">
<polygon fill="none" stroke="black" points="193,-681.21 193,-700.21 240,-700.21 240,-681.21 193,-681.21"/>
<text text-anchor="middle" x="216.5" y="-688.21" font-family="Helvetica,sans-Serif" font-size="10.00">parser</text>
</a>
</g>
</g>
<!-- Node30&#45;&gt;Node31 -->
<g id="edge56" class="edge">
<title>Node30&#45;&gt;Node31</title>
<path fill="none" stroke="midnightblue" d="M794.19,-690.71C667.79,-690.71 330.82,-690.71 240.2,-690.71"/>
<polygon fill="midnightblue" stroke="midnightblue" points="794.34,-694.21 804.34,-690.71 794.34,-687.21 794.34,-694.21"/>
</g>
<!-- Node31&#45;&gt;Node7 -->
<g id="edge57" class="edge">
<title>Node31&#45;&gt;Node7</title>
<path fill="none" stroke="midnightblue" d="M182.76,-685.75C154.61,-681.32 112.98,-674.35 77,-666.71 65.04,-664.17 51.76,-660.84 41.19,-658.06"/>
<polygon fill="midnightblue" stroke="midnightblue" points="182.43,-689.24 192.85,-687.32 183.51,-682.32 182.43,-689.24"/>
</g>
<!-- Node33 -->
<g id="node33" class="node">
<title>Node33</title>
<g id="a_node33"><a xlink:href="lst__redir2_8c.html#a30ccaf401a4f897e48ead5fe54f4b307" target="_top" xlink:title=" ">
<polygon fill="none" stroke="black" points="1419,-529.21 1419,-548.21 1513,-548.21 1513,-529.21 1419,-529.21"/>
<text text-anchor="middle" x="1466" y="-536.21" font-family="Helvetica,sans-Serif" font-size="10.00">destructor_redir</text>
</a>
</g>
</g>
<!-- Node32&#45;&gt;Node33 -->
<g id="edge60" class="edge">
<title>Node32&#45;&gt;Node33</title>
<path fill="none" stroke="midnightblue" d="M1578.16,-538.71C1558.13,-538.71 1533.83,-538.71 1513.07,-538.71"/>
<polygon fill="midnightblue" stroke="midnightblue" points="1578.21,-542.21 1588.21,-538.71 1578.21,-535.21 1578.21,-542.21"/>
</g>
<!-- Node33&#45;&gt;Node24 -->
<g id="edge61" class="edge">
<title>Node33&#45;&gt;Node24</title>
<path fill="none" stroke="midnightblue" d="M1408.36,-538.71C1379.91,-538.71 1346.61,-538.71 1323.21,-538.71"/>
<polygon fill="midnightblue" stroke="midnightblue" points="1408.59,-542.21 1418.59,-538.71 1408.59,-535.21 1408.59,-542.21"/>
</g>
</g>
</svg>
        <g id="navigator" transform="translate(0 0)" fill="#404254">
                <rect fill="#f2f5e9" fill-opacity="0.5" stroke="#606060" stroke-width=".5" x="0" y="0" width="60" height="60"/>
                <use id="zoomplus" xlink:href="#zoomPlus" x="17" y="9" onmousedown="handleZoom(evt,'in')"/>
                <use id="zoomminus" xlink:href="#zoomMin" x="42" y="9" onmousedown="handleZoom(evt,'out')"/>
                <use id="reset" xlink:href="#resetDef" x="30" y="36" onmousedown="handleReset()"/>
                <g id="arrowUp" xlink:href="#dirArrow" transform="translate(30 24)" onmousedown="handlePan(0,-1)">
                  <use xlink:href="#rim" fill="#404040">
                        <set attributeName="fill" to="#808080" begin="arrowUp.mouseover" end="arrowUp.mouseout"/>
                  </use>
                  <path fill="none" stroke="white" stroke-width="1.5" d="M0,-3.0v7 M-2.5,-0.5L0,-3.0L2.5,-0.5"/>
                </g>
                <g id="arrowRight" xlink:href="#dirArrow" transform="rotate(90) translate(36 -43)" onmousedown="handlePan(1,0)">
                  <use xlink:href="#rim" fill="#404040">
                        <set attributeName="fill" to="#808080" begin="arrowRight.mouseover" end="arrowRight.mouseout"/>
                  </use>
                  <path fill="none" stroke="white" stroke-width="1.5" d="M0,-3.0v7 M-2.5,-0.5L0,-3.0L2.5,-0.5"/>
                </g>
                <g id="arrowDown" xlink:href="#dirArrow" transform="rotate(180) translate(-30 -48)" onmousedown="handlePan(0,1)">
                  <use xlink:href="#rim" fill="#404040">
                        <set attributeName="fill" to="#808080" begin="arrowDown.mouseover" end="arrowDown.mouseout"/>
                  </use>
                  <path fill="none" stroke="white" stroke-width="1.5" d="M0,-3.0v7 M-2.5,-0.5L0,-3.0L2.5,-0.5"/>
                </g>
                <g id="arrowLeft" xlink:href="#dirArrow" transform="rotate(270) translate(-36 17)" onmousedown="handlePan(-1,0)">
                  <use xlink:href="#rim" fill="#404040">
                        <set attributeName="fill" to="#808080" begin="arrowLeft.mouseover" end="arrowLeft.mouseout"/>
                  </use>
                  <path fill="none" stroke="white" stroke-width="1.5" d="M0,-3.0v7 M-2.5,-0.5L0,-3.0L2.5,-0.5"/>
                </g>
        </g>
        <svg viewBox="0 0 15 15" width="100%" height="30px" preserveAspectRatio="xMaxYMin meet">
         <g id="arrow_out" transform="scale(0.3 0.3)">
          <a xlink:href="minishell_8h_a1bca6910c90a19d96b36506a2e2cebf6_icgraph_org.svg" target="_base">
           <rect id="button" ry="5" rx="5" y="6" x="6" height="38" width="38"
                fill="#f2f5e9" fill-opacity="0.5" stroke="#606060" stroke-width="1.0"/>
           <path id="arrow"
             d="M 11.500037,31.436501 C 11.940474,20.09759 22.043105,11.32322 32.158766,21.979434 L 37.068811,17.246167 C 37.068811,17.246167 37.088388,32 37.088388,32 L 22.160133,31.978069 C 22.160133,31.978069 26.997745,27.140456 26.997745,27.140456 C 18.528582,18.264221 13.291696,25.230495 11.500037,31.436501 z"
             style="fill:#404040;"/>
          </a>
         </g>
        </svg>
</svg>
