<?xml version="1.0" encoding="UTF-8" standalone="no"?>
<!DOCTYPE svg PUBLIC "-//W3C//DTD SVG 1.1//EN"
 "http://www.w3.org/Graphics/SVG/1.1/DTD/svg11.dtd">
<!-- Generated by graphviz version 2.43.0 (0)
 -->
<!-- Title: execution_node Pages: 1 -->
<!--zoomable 497 -->
<svg id="main" version="1.1" xmlns="http://www.w3.org/2000/svg" xmlns:xlink="http://www.w3.org/1999/xlink" xml:space="preserve" onload="init(evt)">
<style type="text/css"><![CDATA[
.edge:hover path { stroke: red; }
.edge:hover polygon { stroke: red; fill: red; }
]]></style>
<script type="text/javascript"><![CDATA[
var edges = document.getElementsByTagName('g');
if (edges && edges.length) {
  for (var i=0;i<edges.length;i++) {
    if (edges[i].id.substr(0,4)=='edge') {
      edges[i].setAttribute('class','edge');
    }
  }
}
]]></script>
        <defs>
                <circle id="rim" cx="0" cy="0" r="7"/>
                <circle id="rim2" cx="0" cy="0" r="3.5"/>
                <g id="zoomPlus">
                        <use xlink:href="#rim" fill="#404040">
                                <set attributeName="fill" to="#808080" begin="zoomplus.mouseover" end="zoomplus.mouseout"/>
                        </use>
                        <path d="M-4,0h8M0,-4v8" fill="none" stroke="white" stroke-width="1.5" pointer-events="none"/>
                </g>
                <g id="zoomMin">
                        <use xlink:href="#rim" fill="#404040">
                                <set attributeName="fill" to="#808080" begin="zoomminus.mouseover" end="zoomminus.mouseout"/>
                        </use>
                        <path d="M-4,0h8" fill="none" stroke="white" stroke-width="1.5" pointer-events="none"/>
                </g>
                <g id="dirArrow">
                        <path fill="none" stroke="white" stroke-width="1.5" d="M0,-3.0v7 M-2.5,-0.5L0,-3.0L2.5,-0.5"/>
                </g>
               <g id="resetDef">
                       <use xlink:href="#rim2" fill="#404040">
                               <set attributeName="fill" to="#808080" begin="reset.mouseover" end="reset.mouseout"/>
                       </use>
               </g>
        </defs>

<script type="text/javascript">
var viewWidth = 1022;
var viewHeight = 497;
var sectionId = 'dynsection-29';
</script>
<script xlink:href="svgpan.js"/>
<svg id="graph" class="graph">
<g id="viewport">
<title>execution_node</title>
<!-- Node1 -->
<g id="node1" class="node">
<title>Node1</title>
<g id="a_node1"><a xlink:title="we are going to execute the command here we have a security about absolute path given =&gt; because it&#39;s...">
<polygon fill="#bfbfbf" stroke="black" points="0,-336.71 0,-355.71 93,-355.71 93,-336.71 0,-336.71"/>
<text text-anchor="middle" x="46.5" y="-343.71" font-family="Helvetica,sans-Serif" font-size="10.00">execution_node</text>
</a>
</g>
</g>
<!-- Node2 -->
<g id="node2" class="node">
<title>Node2</title>
<g id="a_node2"><a xlink:href="execution__node_8c.html#a74f4c34ebdc38c1fb50db2aa13f97b66" target="_top" xlink:title=" ">
<polygon fill="none" stroke="black" points="129,-469.71 129,-488.71 230,-488.71 230,-469.71 129,-469.71"/>
<text text-anchor="middle" x="179.5" y="-476.71" font-family="Helvetica,sans-Serif" font-size="10.00">check_accessible</text>
</a>
</g>
</g>
<!-- Node1&#45;&gt;Node2 -->
<g id="edge1" class="edge">
<title>Node1&#45;&gt;Node2</title>
<path fill="none" stroke="midnightblue" d="M52.6,-355.87C63.9,-376.51 92.92,-425.42 129,-455.21 133.42,-458.85 138.49,-462.11 143.65,-464.96"/>
<polygon fill="midnightblue" stroke="midnightblue" points="142.44,-468.27 152.95,-469.64 145.59,-462.02 142.44,-468.27"/>
</g>
<!-- Node3 -->
<g id="node3" class="node">
<title>Node3</title>
<g id="a_node3"><a xlink:href="execution__node_8c.html#adc2c91230d4a0a1a1f98db2a888afcaa" target="_top" xlink:title="error message management for the specific case of execution">
<polygon fill="none" stroke="black" points="266,-450.71 266,-469.71 355,-469.71 355,-450.71 266,-450.71"/>
<text text-anchor="middle" x="310.5" y="-457.71" font-family="Helvetica,sans-Serif" font-size="10.00">message_error</text>
</a>
</g>
</g>
<!-- Node1&#45;&gt;Node3 -->
<g id="edge40" class="edge">
<title>Node1&#45;&gt;Node3</title>
<path fill="none" stroke="midnightblue" d="M55.93,-356.15C69.63,-371.64 98.3,-401.41 129,-417.21 168.8,-437.69 218.56,-448.6 255.75,-454.3"/>
<polygon fill="midnightblue" stroke="midnightblue" points="255.49,-457.8 265.89,-455.77 256.5,-450.87 255.49,-457.8"/>
</g>
<!-- Node4 -->
<g id="node4" class="node">
<title>Node4</title>
<g id="a_node4"><a xlink:href="lst__cmd2_8c.html#a132395876bb5a7cfe926b9e37571a1e3" target="_top" xlink:title=" ">
<polygon fill="none" stroke="black" points="400,-393.71 400,-412.71 492,-412.71 492,-393.71 400,-393.71"/>
<text text-anchor="middle" x="446" y="-400.71" font-family="Helvetica,sans-Serif" font-size="10.00">destructor_cmd</text>
</a>
</g>
</g>
<!-- Node1&#45;&gt;Node4 -->
<g id="edge3" class="edge">
<title>Node1&#45;&gt;Node4</title>
<path fill="none" stroke="midnightblue" d="M82.2,-355.73C96.59,-359.41 113.52,-363.41 129,-366.21 219.75,-382.59 326.54,-393.34 389.84,-398.84"/>
<polygon fill="midnightblue" stroke="midnightblue" points="389.74,-402.34 400,-399.71 390.33,-395.37 389.74,-402.34"/>
</g>
<!-- Node9 -->
<g id="node9" class="node">
<title>Node9</title>
<g id="a_node9"><a xlink:href="lst__env_8c.html#a226ae0aa054e697998b2ecbc5d61d592" target="_top" xlink:title=" ">
<polygon fill="none" stroke="black" points="401.5,-355.71 401.5,-374.71 490.5,-374.71 490.5,-355.71 401.5,-355.71"/>
<text text-anchor="middle" x="446" y="-362.71" font-family="Helvetica,sans-Serif" font-size="10.00">destructor_env</text>
</a>
</g>
</g>
<!-- Node1&#45;&gt;Node9 -->
<g id="edge9" class="edge">
<title>Node1&#45;&gt;Node9</title>
<path fill="none" stroke="midnightblue" d="M93.1,-348.39C166.97,-351.92 312.46,-358.87 391.25,-362.64"/>
<polygon fill="midnightblue" stroke="midnightblue" points="391.29,-366.14 401.45,-363.12 391.62,-359.15 391.29,-366.14"/>
</g>
<!-- Node11 -->
<g id="node11" class="node">
<title>Node11</title>
<g id="a_node11"><a xlink:href="execution_8c.html#a3acc0bb56da881cc8609ca9e94ec8e93" target="_top" xlink:title="detect if it&#39;s a builtin with strncmp() but the real question is &quot;is it a builtin I have &#160;to launch i...">
<polygon fill="none" stroke="black" points="143,-317.71 143,-336.71 216,-336.71 216,-317.71 143,-317.71"/>
<text text-anchor="middle" x="179.5" y="-324.71" font-family="Helvetica,sans-Serif" font-size="10.00">is_it_builtin</text>
</a>
</g>
</g>
<!-- Node1&#45;&gt;Node11 -->
<g id="edge11" class="edge">
<title>Node1&#45;&gt;Node11</title>
<path fill="none" stroke="midnightblue" d="M93.32,-339.56C106.13,-337.7 120.04,-335.68 132.84,-333.83"/>
<polygon fill="midnightblue" stroke="midnightblue" points="133.43,-337.28 142.82,-332.38 132.42,-330.35 133.43,-337.28"/>
</g>
<!-- Node12 -->
<g id="node12" class="node">
<title>Node12</title>
<g id="a_node12"><a xlink:href="execution_8c.html#a7bee4f6fbfd70ef7ec1f52856538ac71" target="_top" xlink:title="launch the builtin &#160;&#160;some of them are not present because we have to fork() them why ?...">
<polygon fill="none" stroke="black" points="137,-222.71 137,-241.71 222,-241.71 222,-222.71 137,-222.71"/>
<text text-anchor="middle" x="179.5" y="-229.71" font-family="Helvetica,sans-Serif" font-size="10.00">launch_builtin</text>
</a>
</g>
</g>
<!-- Node1&#45;&gt;Node12 -->
<g id="edge12" class="edge">
<title>Node1&#45;&gt;Node12</title>
<path fill="none" stroke="midnightblue" d="M58.67,-336.49C81.1,-316.97 131.84,-272.81 159.55,-248.69"/>
<polygon fill="midnightblue" stroke="midnightblue" points="162.11,-251.11 167.36,-241.9 157.52,-245.83 162.11,-251.11"/>
</g>
<!-- Node33 -->
<g id="node33" class="node">
<title>Node33</title>
<g id="a_node33"><a xlink:href="lst__env__two_8c.html#aafcce0b2f2958645e84ae23b14116680" target="_top" xlink:title=" ">
<polygon fill="none" stroke="black" points="135.5,-51.71 135.5,-70.71 223.5,-70.71 223.5,-51.71 135.5,-51.71"/>
<text text-anchor="middle" x="179.5" y="-58.71" font-family="Helvetica,sans-Serif" font-size="10.00">lst_to_tab_env</text>
</a>
</g>
</g>
<!-- Node1&#45;&gt;Node33 -->
<g id="edge37" class="edge">
<title>Node1&#45;&gt;Node33</title>
<path fill="none" stroke="midnightblue" d="M52.01,-336.4C70.94,-295.2 144.22,-135.78 169.71,-80.34"/>
<polygon fill="midnightblue" stroke="midnightblue" points="173.01,-81.52 174.01,-70.97 166.65,-78.6 173.01,-81.52"/>
</g>
<!-- Node36 -->
<g id="node36" class="node">
<title>Node36</title>
<g id="a_node36"><a xlink:href="getenv_8c.html#a5d0cf05c2622983111dcfc0f179c5739" target="_top" xlink:title=" ">
<polygon fill="none" stroke="black" points="141.5,-13.71 141.5,-32.71 217.5,-32.71 217.5,-13.71 141.5,-13.71"/>
<text text-anchor="middle" x="179.5" y="-20.71" font-family="Helvetica,sans-Serif" font-size="10.00">search_path</text>
</a>
</g>
</g>
<!-- Node1&#45;&gt;Node36 -->
<g id="edge41" class="edge">
<title>Node1&#45;&gt;Node36</title>
<path fill="none" stroke="midnightblue" d="M47.14,-336.59C46.14,-295.49 47.64,-132.55 129,-42.21 130.19,-40.89 131.47,-39.66 132.84,-38.52"/>
<polygon fill="midnightblue" stroke="midnightblue" points="134.98,-41.3 141.39,-32.86 131.12,-35.47 134.98,-41.3"/>
</g>
<!-- Node2&#45;&gt;Node3 -->
<g id="edge2" class="edge">
<title>Node2&#45;&gt;Node3</title>
<path fill="none" stroke="midnightblue" d="M230.01,-471.91C238.48,-470.67 247.33,-469.36 255.9,-468.1"/>
<polygon fill="midnightblue" stroke="midnightblue" points="256.43,-471.56 265.82,-466.64 255.41,-464.63 256.43,-471.56"/>
</g>
<!-- Node5 -->
<g id="node5" class="node">
<title>Node5</title>
<g id="a_node5"><a xlink:href="lst__cmd2_8c.html#a8e2b63759f149b547e0d07f210ede9b3" target="_top" xlink:title=" ">
<polygon fill="none" stroke="black" points="561.5,-393.71 561.5,-412.71 622.5,-412.71 622.5,-393.71 561.5,-393.71"/>
<text text-anchor="middle" x="592" y="-400.71" font-family="Helvetica,sans-Serif" font-size="10.00">pop_cmd</text>
</a>
</g>
</g>
<!-- Node4&#45;&gt;Node5 -->
<g id="edge4" class="edge">
<title>Node4&#45;&gt;Node5</title>
<path fill="none" stroke="midnightblue" d="M492.17,-403.21C511.15,-403.21 533.03,-403.21 551.37,-403.21"/>
<polygon fill="midnightblue" stroke="midnightblue" points="551.44,-406.71 561.44,-403.21 551.44,-399.71 551.44,-406.71"/>
</g>
<!-- Node6 -->
<g id="node6" class="node">
<title>Node6</title>
<g id="a_node6"><a xlink:href="lst__redir2_8c.html#a30ccaf401a4f897e48ead5fe54f4b307" target="_top" xlink:title=" ">
<polygon fill="none" stroke="black" points="691.5,-412.71 691.5,-431.71 785.5,-431.71 785.5,-412.71 691.5,-412.71"/>
<text text-anchor="middle" x="738.5" y="-419.71" font-family="Helvetica,sans-Serif" font-size="10.00">destructor_redir</text>
</a>
</g>
</g>
<!-- Node5&#45;&gt;Node6 -->
<g id="edge5" class="edge">
<title>Node5&#45;&gt;Node6</title>
<path fill="none" stroke="midnightblue" d="M622.59,-407.1C639.54,-409.33 661.38,-412.2 681.45,-414.84"/>
<polygon fill="midnightblue" stroke="midnightblue" points="681.07,-418.32 691.44,-416.15 681.99,-411.38 681.07,-418.32"/>
</g>
<!-- Node8 -->
<g id="node8" class="node">
<title>Node8</title>
<g id="a_node8"><a xlink:href="redirection__multipipe_8c.html#a1bca6910c90a19d96b36506a2e2cebf6" target="_top" xlink:title="as fd are all setup to &#45;1 at the beginning we check if they are open before trying to close we avoid ...">
<polygon fill="none" stroke="black" points="945,-393.71 945,-412.71 1014,-412.71 1014,-393.71 945,-393.71"/>
<text text-anchor="middle" x="979.5" y="-400.71" font-family="Helvetica,sans-Serif" font-size="10.00">ft_close_fd</text>
</a>
</g>
</g>
<!-- Node5&#45;&gt;Node8 -->
<g id="edge8" class="edge">
<title>Node5&#45;&gt;Node8</title>
<path fill="none" stroke="midnightblue" d="M622.61,-403.21C690.1,-403.21 855.62,-403.21 934.85,-403.21"/>
<polygon fill="midnightblue" stroke="midnightblue" points="934.98,-406.71 944.98,-403.21 934.98,-399.71 934.98,-406.71"/>
</g>
<!-- Node7 -->
<g id="node7" class="node">
<title>Node7</title>
<g id="a_node7"><a xlink:href="lst__redir2_8c.html#ade8f0bdda51d9bf348ebeb38fefba881" target="_top" xlink:title=" ">
<polygon fill="none" stroke="black" points="838.5,-412.71 838.5,-431.71 900.5,-431.71 900.5,-412.71 838.5,-412.71"/>
<text text-anchor="middle" x="869.5" y="-419.71" font-family="Helvetica,sans-Serif" font-size="10.00">pop_redir</text>
</a>
</g>
</g>
<!-- Node6&#45;&gt;Node7 -->
<g id="edge6" class="edge">
<title>Node6&#45;&gt;Node7</title>
<path fill="none" stroke="midnightblue" d="M785.71,-422.21C799.51,-422.21 814.54,-422.21 827.95,-422.21"/>
<polygon fill="midnightblue" stroke="midnightblue" points="828.31,-425.71 838.31,-422.21 828.31,-418.71 828.31,-425.71"/>
</g>
<!-- Node7&#45;&gt;Node8 -->
<g id="edge7" class="edge">
<title>Node7&#45;&gt;Node8</title>
<path fill="none" stroke="midnightblue" d="M900.58,-416.91C911.2,-415.04 923.37,-412.9 934.88,-410.88"/>
<polygon fill="midnightblue" stroke="midnightblue" points="935.53,-414.32 944.78,-409.14 934.32,-407.42 935.53,-414.32"/>
</g>
<!-- Node10 -->
<g id="node10" class="node">
<title>Node10</title>
<g id="a_node10"><a xlink:href="lst__env_8c.html#a058c245b5f2ef22f9d2659f90e4d3537" target="_top" xlink:title=" ">
<polygon fill="none" stroke="black" points="563,-355.71 563,-374.71 621,-374.71 621,-355.71 563,-355.71"/>
<text text-anchor="middle" x="592" y="-362.71" font-family="Helvetica,sans-Serif" font-size="10.00">pop_env</text>
</a>
</g>
</g>
<!-- Node9&#45;&gt;Node10 -->
<g id="edge10" class="edge">
<title>Node9&#45;&gt;Node10</title>
<path fill="none" stroke="midnightblue" d="M490.6,-365.21C510.43,-365.21 533.69,-365.21 552.83,-365.21"/>
<polygon fill="midnightblue" stroke="midnightblue" points="552.99,-368.71 562.99,-365.21 552.99,-361.71 552.99,-368.71"/>
</g>
<!-- Node13 -->
<g id="node13" class="node">
<title>Node13</title>
<g id="a_node13"><a xlink:href="cd_8c.html#afa3cf8a1d55856208b8d44453d4cf9b4" target="_top" xlink:title=" ">
<polygon fill="none" stroke="black" points="296,-127.71 296,-146.71 325,-146.71 325,-127.71 296,-127.71"/>
<text text-anchor="middle" x="310.5" y="-134.71" font-family="Helvetica,sans-Serif" font-size="10.00">cd</text>
</a>
</g>
</g>
<!-- Node12&#45;&gt;Node13 -->
<g id="edge13" class="edge">
<title>Node12&#45;&gt;Node13</title>
<path fill="none" stroke="midnightblue" d="M189.68,-222.23C204.52,-206.55 235.22,-175.9 266,-156.21 272.25,-152.21 279.48,-148.67 286.24,-145.77"/>
<polygon fill="midnightblue" stroke="midnightblue" points="287.65,-148.97 295.62,-141.98 285.03,-142.48 287.65,-148.97"/>
</g>
<!-- Node18 -->
<g id="node18" class="node">
<title>Node18</title>
<g id="a_node18"><a xlink:href="env_8c.html#a08aa1a32a4d2f6bcca10f6424195d4ef" target="_top" xlink:title=" ">
<polygon fill="none" stroke="black" points="293,-89.71 293,-108.71 328,-108.71 328,-89.71 293,-89.71"/>
<text text-anchor="middle" x="310.5" y="-96.71" font-family="Helvetica,sans-Serif" font-size="10.00">env</text>
</a>
</g>
</g>
<!-- Node12&#45;&gt;Node18 -->
<g id="edge18" class="edge">
<title>Node12&#45;&gt;Node18</title>
<path fill="none" stroke="midnightblue" d="M185.41,-222.64C196.84,-201.22 227.2,-148.91 266,-118.21 271.05,-114.21 277.07,-110.88 283,-108.19"/>
<polygon fill="midnightblue" stroke="midnightblue" points="284.75,-111.25 292.7,-104.24 282.12,-104.77 284.75,-111.25"/>
</g>
<!-- Node19 -->
<g id="node19" class="node">
<title>Node19</title>
<g id="a_node19"><a xlink:href="export_8c.html#a1bb2544b6254ee4ddb592a4cfa61734f" target="_top" xlink:title=" ">
<polygon fill="none" stroke="black" points="275,-279.71 275,-298.71 346,-298.71 346,-279.71 275,-279.71"/>
<text text-anchor="middle" x="310.5" y="-286.71" font-family="Helvetica,sans-Serif" font-size="10.00">export_call</text>
</a>
</g>
</g>
<!-- Node12&#45;&gt;Node19 -->
<g id="edge19" class="edge">
<title>Node12&#45;&gt;Node19</title>
<path fill="none" stroke="midnightblue" d="M201.92,-241.77C219.2,-249.48 244.15,-260.58 266,-270.21 269.9,-271.93 274.01,-273.73 278.07,-275.51"/>
<polygon fill="midnightblue" stroke="midnightblue" points="276.79,-278.77 287.36,-279.57 279.6,-272.35 276.79,-278.77"/>
</g>
<!-- Node26 -->
<g id="node26" class="node">
<title>Node26</title>
<g id="a_node26"><a xlink:href="my__echo_8c.html#a5522916069f77552d810e207670e3170" target="_top" xlink:title=" ">
<polygon fill="none" stroke="black" points="280,-241.71 280,-260.71 341,-260.71 341,-241.71 280,-241.71"/>
<text text-anchor="middle" x="310.5" y="-248.71" font-family="Helvetica,sans-Serif" font-size="10.00">my_echo</text>
</a>
</g>
</g>
<!-- Node12&#45;&gt;Node26 -->
<g id="edge27" class="edge">
<title>Node12&#45;&gt;Node26</title>
<path fill="none" stroke="midnightblue" d="M222.03,-238.32C237.35,-240.58 254.66,-243.13 269.81,-245.36"/>
<polygon fill="midnightblue" stroke="midnightblue" points="269.5,-248.85 279.9,-246.85 270.52,-241.93 269.5,-248.85"/>
</g>
<!-- Node28 -->
<g id="node28" class="node">
<title>Node28</title>
<g id="a_node28"><a xlink:href="exit_8c.html#adcbec3416f97b2d0b8d53cf4c2b2a436" target="_top" xlink:title=" ">
<polygon fill="none" stroke="black" points="282.5,-317.71 282.5,-336.71 338.5,-336.71 338.5,-317.71 282.5,-317.71"/>
<text text-anchor="middle" x="310.5" y="-324.71" font-family="Helvetica,sans-Serif" font-size="10.00">my_exit</text>
</a>
</g>
</g>
<!-- Node12&#45;&gt;Node28 -->
<g id="edge29" class="edge">
<title>Node12&#45;&gt;Node28</title>
<path fill="none" stroke="midnightblue" d="M189.68,-242.19C204.52,-257.87 235.22,-288.51 266,-308.21 268.78,-309.98 271.75,-311.67 274.78,-313.25"/>
<polygon fill="midnightblue" stroke="midnightblue" points="273.43,-316.48 283.96,-317.65 276.46,-310.17 273.43,-316.48"/>
</g>
<!-- Node30 -->
<g id="node30" class="node">
<title>Node30</title>
<g id="a_node30"><a xlink:href="pwd_8c.html#ac6977235be2514ba716ef89aad796063" target="_top" xlink:title=" ">
<polygon fill="none" stroke="black" points="292,-203.71 292,-222.71 329,-222.71 329,-203.71 292,-203.71"/>
<text text-anchor="middle" x="310.5" y="-210.71" font-family="Helvetica,sans-Serif" font-size="10.00">pwd</text>
</a>
</g>
</g>
<!-- Node12&#45;&gt;Node30 -->
<g id="edge34" class="edge">
<title>Node12&#45;&gt;Node30</title>
<path fill="none" stroke="midnightblue" d="M222.03,-226.09C241.54,-223.21 264.29,-219.86 281.7,-217.3"/>
<polygon fill="midnightblue" stroke="midnightblue" points="282.38,-220.74 291.77,-215.82 281.36,-213.81 282.38,-220.74"/>
</g>
<!-- Node31 -->
<g id="node31" class="node">
<title>Node31</title>
<g id="a_node31"><a xlink:href="unset_8c.html#abcfd4d5a4f0408bdc748ce044e5ce08c" target="_top" xlink:title=" ">
<polygon fill="none" stroke="black" points="277.5,-165.71 277.5,-184.71 343.5,-184.71 343.5,-165.71 277.5,-165.71"/>
<text text-anchor="middle" x="310.5" y="-172.71" font-family="Helvetica,sans-Serif" font-size="10.00">unset_call</text>
</a>
</g>
</g>
<!-- Node12&#45;&gt;Node31 -->
<g id="edge35" class="edge">
<title>Node12&#45;&gt;Node31</title>
<path fill="none" stroke="midnightblue" d="M201.92,-222.64C219.2,-214.93 244.15,-203.83 266,-194.21 269.9,-192.49 274.01,-190.69 278.07,-188.91"/>
<polygon fill="midnightblue" stroke="midnightblue" points="279.6,-192.06 287.36,-184.84 276.79,-185.64 279.6,-192.06"/>
</g>
<!-- Node14 -->
<g id="node14" class="node">
<title>Node14</title>
<g id="a_node14"><a xlink:href="cd_8c.html#a7593627e795ae769b5117673b60846c9" target="_top" xlink:title=" ">
<polygon fill="none" stroke="black" points="430,-279.71 430,-298.71 462,-298.71 462,-279.71 430,-279.71"/>
<text text-anchor="middle" x="446" y="-286.71" font-family="Helvetica,sans-Serif" font-size="10.00">len</text>
</a>
</g>
</g>
<!-- Node13&#45;&gt;Node14 -->
<g id="edge14" class="edge">
<title>Node13&#45;&gt;Node14</title>
<path fill="none" stroke="midnightblue" d="M325.04,-139.98C334.65,-142.61 347.17,-147.5 355,-156.21 390.53,-195.71 354.04,-232.03 391,-270.21 398.59,-278.05 409.61,-282.66 419.72,-285.37"/>
<polygon fill="midnightblue" stroke="midnightblue" points="419.22,-288.84 429.74,-287.56 420.72,-282 419.22,-288.84"/>
</g>
<!-- Node15 -->
<g id="node15" class="node">
<title>Node15</title>
<g id="a_node15"><a xlink:href="lst__env__two_8c.html#a4d4a14327b2c3ff88099102b6bd77986" target="_top" xlink:title=" ">
<polygon fill="none" stroke="black" points="394,-32.71 394,-51.71 498,-51.71 498,-32.71 394,-32.71"/>
<text text-anchor="middle" x="446" y="-39.71" font-family="Helvetica,sans-Serif" font-size="10.00">research_key_env</text>
</a>
</g>
</g>
<!-- Node13&#45;&gt;Node15 -->
<g id="edge15" class="edge">
<title>Node13&#45;&gt;Node15</title>
<path fill="none" stroke="midnightblue" d="M325.33,-132.35C334.14,-128.97 345.62,-124.04 355,-118.21 382.46,-101.12 410.33,-76.15 427.63,-59.55"/>
<polygon fill="midnightblue" stroke="midnightblue" points="430.51,-61.63 435.23,-52.14 425.63,-56.62 430.51,-61.63"/>
</g>
<!-- Node16 -->
<g id="node16" class="node">
<title>Node16</title>
<g id="a_node16"><a xlink:href="cd_8c.html#a68bb8beb2cf13bb992af8322f31f94e7" target="_top" xlink:title=" ">
<polygon fill="none" stroke="black" points="554,-137.71 554,-156.71 630,-156.71 630,-137.71 554,-137.71"/>
<text text-anchor="middle" x="592" y="-144.71" font-family="Helvetica,sans-Serif" font-size="10.00">update_pwd</text>
</a>
</g>
</g>
<!-- Node13&#45;&gt;Node16 -->
<g id="edge16" class="edge">
<title>Node13&#45;&gt;Node16</title>
<path fill="none" stroke="midnightblue" d="M325.36,-137.7C364.78,-139.11 478.86,-143.19 543.98,-145.52"/>
<polygon fill="midnightblue" stroke="midnightblue" points="543.88,-149.02 554,-145.88 544.13,-142.03 543.88,-149.02"/>
</g>
<!-- Node17 -->
<g id="node17" class="node">
<title>Node17</title>
<g id="a_node17"><a xlink:href="export_8c.html#a8cd6579fc3858072521e55ef235a2637" target="_top" xlink:title=" ">
<polygon fill="none" stroke="black" points="683,-142.71 683,-161.71 794,-161.71 794,-142.71 683,-142.71"/>
<text text-anchor="middle" x="738.5" y="-149.71" font-family="Helvetica,sans-Serif" font-size="10.00">research_node_env</text>
</a>
</g>
</g>
<!-- Node16&#45;&gt;Node17 -->
<g id="edge17" class="edge">
<title>Node16&#45;&gt;Node17</title>
<path fill="none" stroke="midnightblue" d="M630.21,-148.49C643.26,-148.94 658.31,-149.47 672.94,-149.97"/>
<polygon fill="midnightblue" stroke="midnightblue" points="672.86,-153.47 682.97,-150.32 673.1,-146.48 672.86,-153.47"/>
</g>
<!-- Node20 -->
<g id="node20" class="node">
<title>Node20</title>
<g id="a_node20"><a xlink:href="export_8c.html#a63ef72e778f2b52c924bf77ae989dc80" target="_top" xlink:title=" ">
<polygon fill="none" stroke="black" points="422,-241.71 422,-260.71 470,-260.71 470,-241.71 422,-241.71"/>
<text text-anchor="middle" x="446" y="-248.71" font-family="Helvetica,sans-Serif" font-size="10.00">export</text>
</a>
</g>
</g>
<!-- Node19&#45;&gt;Node20 -->
<g id="edge20" class="edge">
<title>Node19&#45;&gt;Node20</title>
<path fill="none" stroke="midnightblue" d="M345.19,-279.62C365.67,-273.79 391.71,-266.37 412.06,-260.58"/>
<polygon fill="midnightblue" stroke="midnightblue" points="413.17,-263.9 421.83,-257.8 411.26,-257.17 413.17,-263.9"/>
</g>
<!-- Node21 -->
<g id="node21" class="node">
<title>Node21</title>
<g id="a_node21"><a xlink:href="export_8c.html#a077edb8749298d8320620813ff84519c" target="_top" xlink:title=" ">
<polygon fill="none" stroke="black" points="537,-241.71 537,-260.71 647,-260.71 647,-241.71 537,-241.71"/>
<text text-anchor="middle" x="592" y="-248.71" font-family="Helvetica,sans-Serif" font-size="10.00">check_validity_key</text>
</a>
</g>
</g>
<!-- Node20&#45;&gt;Node21 -->
<g id="edge21" class="edge">
<title>Node20&#45;&gt;Node21</title>
<path fill="none" stroke="midnightblue" d="M470.14,-251.21C485.51,-251.21 506.5,-251.21 526.68,-251.21"/>
<polygon fill="midnightblue" stroke="midnightblue" points="526.81,-254.71 536.81,-251.21 526.81,-247.71 526.81,-254.71"/>
</g>
<!-- Node22 -->
<g id="node22" class="node">
<title>Node22</title>
<g id="a_node22"><a xlink:href="export_8c.html#a90ff129fee9412bd5c6d74be5970b99f" target="_top" xlink:title=" ">
<polygon fill="none" stroke="black" points="537,-194.71 537,-213.71 647,-213.71 647,-194.71 537,-194.71"/>
<text text-anchor="middle" x="592" y="-201.71" font-family="Helvetica,sans-Serif" font-size="10.00">export_env_update</text>
</a>
</g>
</g>
<!-- Node20&#45;&gt;Node22 -->
<g id="edge22" class="edge">
<title>Node20&#45;&gt;Node22</title>
<path fill="none" stroke="midnightblue" d="M470.14,-243.65C492.2,-236.45 525.86,-225.47 552.06,-216.92"/>
<polygon fill="midnightblue" stroke="midnightblue" points="553.27,-220.2 561.7,-213.77 551.1,-213.55 553.27,-220.2"/>
</g>
<!-- Node22&#45;&gt;Node17 -->
<g id="edge26" class="edge">
<title>Node22&#45;&gt;Node17</title>
<path fill="none" stroke="midnightblue" d="M619.5,-194.67C642.38,-186.44 675.64,-174.47 701.03,-165.33"/>
<polygon fill="midnightblue" stroke="midnightblue" points="702.45,-168.54 710.68,-161.86 700.08,-161.95 702.45,-168.54"/>
</g>
<!-- Node23 -->
<g id="node23" class="node">
<title>Node23</title>
<g id="a_node23"><a xlink:href="lst__env_8c.html#a9c375db3cbfe2e87b52bae7ee7472eae" target="_top" xlink:title=" ">
<polygon fill="none" stroke="black" points="688.5,-223.71 688.5,-242.71 788.5,-242.71 788.5,-223.71 688.5,-223.71"/>
<text text-anchor="middle" x="738.5" y="-230.71" font-family="Helvetica,sans-Serif" font-size="10.00">create_node_env</text>
</a>
</g>
</g>
<!-- Node22&#45;&gt;Node23 -->
<g id="edge23" class="edge">
<title>Node22&#45;&gt;Node23</title>
<path fill="none" stroke="midnightblue" d="M640.72,-213.78C653.29,-216.31 667,-219.06 680.03,-221.67"/>
<polygon fill="midnightblue" stroke="midnightblue" points="679.34,-225.1 689.83,-223.64 680.72,-218.24 679.34,-225.1"/>
</g>
<!-- Node24 -->
<g id="node24" class="node">
<title>Node24</title>
<g id="a_node24"><a xlink:href="lst__env_8c.html#a5976d1b2a8159220749fac94a83d5c95" target="_top" xlink:title=" ">
<polygon fill="none" stroke="black" points="692.5,-185.71 692.5,-204.71 784.5,-204.71 784.5,-185.71 692.5,-185.71"/>
<text text-anchor="middle" x="738.5" y="-192.71" font-family="Helvetica,sans-Serif" font-size="10.00">push_back_env</text>
</a>
</g>
</g>
<!-- Node22&#45;&gt;Node24 -->
<g id="edge24" class="edge">
<title>Node22&#45;&gt;Node24</title>
<path fill="none" stroke="midnightblue" d="M647.22,-200.83C658.62,-200.12 670.67,-199.37 682.11,-198.66"/>
<polygon fill="midnightblue" stroke="midnightblue" points="682.66,-202.13 692.42,-198.01 682.22,-195.14 682.66,-202.13"/>
</g>
<!-- Node25 -->
<g id="node25" class="node">
<title>Node25</title>
<g id="a_node25"><a xlink:href="env__utils_8c.html#ac7b3f84bb622bdf477616c5b0022f035" target="_top" xlink:title=" ">
<polygon fill="none" stroke="black" points="830,-185.71 830,-204.71 909,-204.71 909,-185.71 830,-185.71"/>
<text text-anchor="middle" x="869.5" y="-192.71" font-family="Helvetica,sans-Serif" font-size="10.00">get_last_env</text>
</a>
</g>
</g>
<!-- Node24&#45;&gt;Node25 -->
<g id="edge25" class="edge">
<title>Node24&#45;&gt;Node25</title>
<path fill="none" stroke="midnightblue" d="M784.62,-195.21C795.85,-195.21 807.96,-195.21 819.38,-195.21"/>
<polygon fill="midnightblue" stroke="midnightblue" points="819.63,-198.71 829.63,-195.21 819.63,-191.71 819.63,-198.71"/>
</g>
<!-- Node27 -->
<g id="node27" class="node">
<title>Node27</title>
<g id="a_node27"><a xlink:href="my__echo_8c.html#a7c657de7306d33ae5cdab2bf43f35ae1" target="_top" xlink:title=" ">
<polygon fill="none" stroke="black" points="391,-203.71 391,-222.71 501,-222.71 501,-203.71 391,-203.71"/>
<text text-anchor="middle" x="446" y="-210.71" font-family="Helvetica,sans-Serif" font-size="10.00">check_option_echo</text>
</a>
</g>
</g>
<!-- Node26&#45;&gt;Node27 -->
<g id="edge28" class="edge">
<title>Node26&#45;&gt;Node27</title>
<path fill="none" stroke="midnightblue" d="M341.13,-242.77C358.87,-237.72 381.74,-231.21 401.51,-225.59"/>
<polygon fill="midnightblue" stroke="midnightblue" points="402.56,-228.93 411.22,-222.82 400.64,-222.19 402.56,-228.93"/>
</g>
<!-- Node28&#45;&gt;Node4 -->
<g id="edge31" class="edge">
<title>Node28&#45;&gt;Node4</title>
<path fill="none" stroke="midnightblue" d="M322.68,-336.8C337.48,-349.13 364.79,-370.56 391,-384.21 394.97,-386.28 399.22,-388.21 403.53,-389.98"/>
<polygon fill="midnightblue" stroke="midnightblue" points="402.37,-393.28 412.96,-393.62 404.88,-386.75 402.37,-393.28"/>
</g>
<!-- Node28&#45;&gt;Node9 -->
<g id="edge32" class="edge">
<title>Node28&#45;&gt;Node9</title>
<path fill="none" stroke="midnightblue" d="M338.52,-334.9C356.59,-340.04 380.77,-346.92 401.52,-352.83"/>
<polygon fill="midnightblue" stroke="midnightblue" points="400.81,-356.27 411.39,-355.64 402.73,-349.53 400.81,-356.27"/>
</g>
<!-- Node28&#45;&gt;Node14 -->
<g id="edge33" class="edge">
<title>Node28&#45;&gt;Node14</title>
<path fill="none" stroke="midnightblue" d="M338.52,-319.52C362.3,-312.75 396.67,-302.96 419.87,-296.36"/>
<polygon fill="midnightblue" stroke="midnightblue" points="421.01,-299.67 429.67,-293.57 419.09,-292.94 421.01,-299.67"/>
</g>
<!-- Node29 -->
<g id="node29" class="node">
<title>Node29</title>
<g id="a_node29"><a xlink:href="exit_8c.html#a7e369b4894a31549c9b65f718e28823f" target="_top" xlink:title=" ">
<polygon fill="none" stroke="black" points="411.5,-317.71 411.5,-336.71 480.5,-336.71 480.5,-317.71 411.5,-317.71"/>
<text text-anchor="middle" x="446" y="-324.71" font-family="Helvetica,sans-Serif" font-size="10.00">check_exit</text>
</a>
</g>
</g>
<!-- Node28&#45;&gt;Node29 -->
<g id="edge30" class="edge">
<title>Node28&#45;&gt;Node29</title>
<path fill="none" stroke="midnightblue" d="M338.52,-327.21C356.5,-327.21 380.55,-327.21 401.23,-327.21"/>
<polygon fill="midnightblue" stroke="midnightblue" points="401.39,-330.71 411.39,-327.21 401.39,-323.71 401.39,-330.71"/>
</g>
<!-- Node32 -->
<g id="node32" class="node">
<title>Node32</title>
<g id="a_node32"><a xlink:href="unset_8c.html#a4b3bbc6cfa6ff293119825a11324fb9f" target="_top" xlink:title=" ">
<polygon fill="none" stroke="black" points="424,-165.71 424,-184.71 468,-184.71 468,-165.71 424,-165.71"/>
<text text-anchor="middle" x="446" y="-172.71" font-family="Helvetica,sans-Serif" font-size="10.00">unset</text>
</a>
</g>
</g>
<!-- Node31&#45;&gt;Node32 -->
<g id="edge36" class="edge">
<title>Node31&#45;&gt;Node32</title>
<path fill="none" stroke="midnightblue" d="M343.82,-175.21C365.07,-175.21 392.75,-175.21 413.78,-175.21"/>
<polygon fill="midnightblue" stroke="midnightblue" points="413.81,-178.71 423.81,-175.21 413.81,-171.71 413.81,-178.71"/>
</g>
<!-- Node34 -->
<g id="node34" class="node">
<title>Node34</title>
<g id="a_node34"><a xlink:href="env__utils_8c.html#a7cc35c974bce053dbba1c1ec1028f36b" target="_top" xlink:title=" ">
<polygon fill="none" stroke="black" points="272,-51.71 272,-70.71 349,-70.71 349,-51.71 272,-51.71"/>
<text text-anchor="middle" x="310.5" y="-58.71" font-family="Helvetica,sans-Serif" font-size="10.00">env_lst_size</text>
</a>
</g>
</g>
<!-- Node33&#45;&gt;Node34 -->
<g id="edge38" class="edge">
<title>Node33&#45;&gt;Node34</title>
<path fill="none" stroke="midnightblue" d="M223.81,-61.21C235.94,-61.21 249.18,-61.21 261.56,-61.21"/>
<polygon fill="midnightblue" stroke="midnightblue" points="261.7,-64.71 271.7,-61.21 261.7,-57.71 261.7,-64.71"/>
</g>
<!-- Node35 -->
<g id="node35" class="node">
<title>Node35</title>
<g id="a_node35"><a xlink:href="getenv_8c.html#a0250cce1862c20e31d0c0ece960bc3a0" target="_top" xlink:title=" ">
<polygon fill="none" stroke="black" points="279.5,-13.71 279.5,-32.71 341.5,-32.71 341.5,-13.71 279.5,-13.71"/>
<text text-anchor="middle" x="310.5" y="-20.71" font-family="Helvetica,sans-Serif" font-size="10.00">join_path</text>
</a>
</g>
</g>
<!-- Node33&#45;&gt;Node35 -->
<g id="edge39" class="edge">
<title>Node33&#45;&gt;Node35</title>
<path fill="none" stroke="midnightblue" d="M213.05,-51.62C230.18,-46.57 251.33,-40.34 269.46,-35"/>
<polygon fill="midnightblue" stroke="midnightblue" points="270.57,-38.32 279.17,-32.14 268.59,-31.61 270.57,-38.32"/>
</g>
<!-- Node36&#45;&gt;Node15 -->
<g id="edge43" class="edge">
<title>Node36&#45;&gt;Node15</title>
<path fill="none" stroke="midnightblue" d="M213.26,-13.68C248.53,-4.81 306.17,5.68 355,-4.21 377.58,-8.78 401.54,-19.2 419.06,-27.97"/>
<polygon fill="midnightblue" stroke="midnightblue" points="417.58,-31.15 428.07,-32.63 420.79,-24.93 417.58,-31.15"/>
</g>
<!-- Node36&#45;&gt;Node35 -->
<g id="edge42" class="edge">
<title>Node36&#45;&gt;Node35</title>
<path fill="none" stroke="midnightblue" d="M217.81,-23.21C233.8,-23.21 252.53,-23.21 268.87,-23.21"/>
<polygon fill="midnightblue" stroke="midnightblue" points="269.21,-26.71 279.21,-23.21 269.21,-19.71 269.21,-26.71"/>
</g>
</g>
</svg>
        <g id="navigator" transform="translate(0 0)" fill="#404254">
                <rect fill="#f2f5e9" fill-opacity="0.5" stroke="#606060" stroke-width=".5" x="0" y="0" width="60" height="60"/>
                <use id="zoomplus" xlink:href="#zoomPlus" x="17" y="9" onmousedown="handleZoom(evt,'in')"/>
                <use id="zoomminus" xlink:href="#zoomMin" x="42" y="9" onmousedown="handleZoom(evt,'out')"/>
                <use id="reset" xlink:href="#resetDef" x="30" y="36" onmousedown="handleReset()"/>
                <g id="arrowUp" xlink:href="#dirArrow" transform="translate(30 24)" onmousedown="handlePan(0,-1)">
                  <use xlink:href="#rim" fill="#404040">
                        <set attributeName="fill" to="#808080" begin="arrowUp.mouseover" end="arrowUp.mouseout"/>
                  </use>
                  <path fill="none" stroke="white" stroke-width="1.5" d="M0,-3.0v7 M-2.5,-0.5L0,-3.0L2.5,-0.5"/>
                </g>
                <g id="arrowRight" xlink:href="#dirArrow" transform="rotate(90) translate(36 -43)" onmousedown="handlePan(1,0)">
                  <use xlink:href="#rim" fill="#404040">
                        <set attributeName="fill" to="#808080" begin="arrowRight.mouseover" end="arrowRight.mouseout"/>
                  </use>
                  <path fill="none" stroke="white" stroke-width="1.5" d="M0,-3.0v7 M-2.5,-0.5L0,-3.0L2.5,-0.5"/>
                </g>
                <g id="arrowDown" xlink:href="#dirArrow" transform="rotate(180) translate(-30 -48)" onmousedown="handlePan(0,1)">
                  <use xlink:href="#rim" fill="#404040">
                        <set attributeName="fill" to="#808080" begin="arrowDown.mouseover" end="arrowDown.mouseout"/>
                  </use>
                  <path fill="none" stroke="white" stroke-width="1.5" d="M0,-3.0v7 M-2.5,-0.5L0,-3.0L2.5,-0.5"/>
                </g>
                <g id="arrowLeft" xlink:href="#dirArrow" transform="rotate(270) translate(-36 17)" onmousedown="handlePan(-1,0)">
                  <use xlink:href="#rim" fill="#404040">
                        <set attributeName="fill" to="#808080" begin="arrowLeft.mouseover" end="arrowLeft.mouseout"/>
                  </use>
                  <path fill="none" stroke="white" stroke-width="1.5" d="M0,-3.0v7 M-2.5,-0.5L0,-3.0L2.5,-0.5"/>
                </g>
        </g>
        <svg viewBox="0 0 15 15" width="100%" height="30px" preserveAspectRatio="xMaxYMin meet">
         <g id="arrow_out" transform="scale(0.3 0.3)">
          <a xlink:href="minishell_8h_adda76b40c34c18ec83b1d98700083f8a_cgraph_org.svg" target="_base">
           <rect id="button" ry="5" rx="5" y="6" x="6" height="38" width="38"
                fill="#f2f5e9" fill-opacity="0.5" stroke="#606060" stroke-width="1.0"/>
           <path id="arrow"
             d="M 11.500037,31.436501 C 11.940474,20.09759 22.043105,11.32322 32.158766,21.979434 L 37.068811,17.246167 C 37.068811,17.246167 37.088388,32 37.088388,32 L 22.160133,31.978069 C 22.160133,31.978069 26.997745,27.140456 26.997745,27.140456 C 18.528582,18.264221 13.291696,25.230495 11.500037,31.436501 z"
             style="fill:#404040;"/>
          </a>
         </g>
        </svg>
</svg>
