<?xml version="1.0" encoding="UTF-8" standalone="no"?>
<!DOCTYPE svg PUBLIC "-//W3C//DTD SVG 1.1//EN"
 "http://www.w3.org/Graphics/SVG/1.1/DTD/svg11.dtd">
<!-- Generated by graphviz version 2.43.0 (0)
 -->
<!-- Title: includes/minishell.h Pages: 1 -->
<!--zoomable 95 -->
<svg id="main" version="1.1" xmlns="http://www.w3.org/2000/svg" xmlns:xlink="http://www.w3.org/1999/xlink" xml:space="preserve" onload="init(evt)">
<style type="text/css"><![CDATA[
.edge:hover path { stroke: red; }
.edge:hover polygon { stroke: red; fill: red; }
]]></style>
<script type="text/javascript"><![CDATA[
var edges = document.getElementsByTagName('g');
if (edges && edges.length) {
  for (var i=0;i<edges.length;i++) {
    if (edges[i].id.substr(0,4)=='edge') {
      edges[i].setAttribute('class','edge');
    }
  }
}
]]></script>
        <defs>
                <circle id="rim" cx="0" cy="0" r="7"/>
                <circle id="rim2" cx="0" cy="0" r="3.5"/>
                <g id="zoomPlus">
                        <use xlink:href="#rim" fill="#404040">
                                <set attributeName="fill" to="#808080" begin="zoomplus.mouseover" end="zoomplus.mouseout"/>
                        </use>
                        <path d="M-4,0h8M0,-4v8" fill="none" stroke="white" stroke-width="1.5" pointer-events="none"/>
                </g>
                <g id="zoomMin">
                        <use xlink:href="#rim" fill="#404040">
                                <set attributeName="fill" to="#808080" begin="zoomminus.mouseover" end="zoomminus.mouseout"/>
                        </use>
                        <path d="M-4,0h8" fill="none" stroke="white" stroke-width="1.5" pointer-events="none"/>
                </g>
                <g id="dirArrow">
                        <path fill="none" stroke="white" stroke-width="1.5" d="M0,-3.0v7 M-2.5,-0.5L0,-3.0L2.5,-0.5"/>
                </g>
               <g id="resetDef">
                       <use xlink:href="#rim2" fill="#404040">
                               <set attributeName="fill" to="#808080" begin="reset.mouseover" end="reset.mouseout"/>
                       </use>
               </g>
        </defs>

<script type="text/javascript">
var viewWidth = 2648;
var viewHeight = 95;
var sectionId = 'dynsection-1';
</script>
<script xlink:href="svgpan.js"/>
<svg id="graph" class="graph">
<g id="viewport">
<title>includes/minishell.h</title>
<!-- Node1 -->
<g id="node1" class="node">
<title>Node1</title>
<g id="a_node1"><a xlink:title=" ">
<polygon fill="#bfbfbf" stroke="black" points="1137.5,-67.5 1137.5,-86.5 1251.5,-86.5 1251.5,-67.5 1137.5,-67.5"/>
<text text-anchor="middle" x="1194.5" y="-74.5" font-family="Helvetica,sans-Serif" font-size="10.00">includes/minishell.h</text>
</a>
</g>
</g>
<!-- Node2 -->
<g id="node2" class="node">
<title>Node2</title>
<g id="a_node2"><a xlink:href="env_8c.html" target="_top" xlink:title=" ">
<polygon fill="none" stroke="black" points="0,-6 0,-25 93,-25 93,-6 0,-6"/>
<text text-anchor="middle" x="46.5" y="-13" font-family="Helvetica,sans-Serif" font-size="10.00">src/builtin/env.c</text>
</a>
</g>
</g>
<!-- Node1&#45;&gt;Node2 -->
<g id="edge1" class="edge">
<title>Node1&#45;&gt;Node2</title>
<path fill="none" stroke="midnightblue" d="M1127.29,-75.1C921.47,-72.04 301.72,-60.55 102.5,-31 93.36,-29.64 83.56,-27.39 74.75,-25.06"/>
<polygon fill="midnightblue" stroke="midnightblue" points="1127.31,-78.6 1137.36,-75.25 1127.41,-71.6 1127.31,-78.6"/>
</g>
<!-- Node3 -->
<g id="node3" class="node">
<title>Node3</title>
<g id="a_node3"><a xlink:href="my__echo_8c.html" target="_top" xlink:title=" ">
<polygon fill="none" stroke="black" points="111.5,-6 111.5,-25 231.5,-25 231.5,-6 111.5,-6"/>
<text text-anchor="middle" x="171.5" y="-13" font-family="Helvetica,sans-Serif" font-size="10.00">src/builtin/my_echo.c</text>
</a>
</g>
</g>
<!-- Node1&#45;&gt;Node3 -->
<g id="edge2" class="edge">
<title>Node1&#45;&gt;Node3</title>
<path fill="none" stroke="midnightblue" d="M1126.82,-76.51C970.2,-76.89 570.9,-73.23 240.5,-31 229.45,-29.59 217.54,-27.35 206.77,-25.05"/>
<polygon fill="midnightblue" stroke="midnightblue" points="1127.24,-80.01 1137.23,-76.48 1127.22,-73.01 1127.24,-80.01"/>
</g>
<!-- Node4 -->
<g id="node4" class="node">
<title>Node4</title>
<g id="a_node4"><a xlink:href="pwd_8c.html" target="_top" xlink:title=" ">
<polygon fill="none" stroke="black" points="249.5,-6 249.5,-25 345.5,-25 345.5,-6 249.5,-6"/>
<text text-anchor="middle" x="297.5" y="-13" font-family="Helvetica,sans-Serif" font-size="10.00">src/builtin/pwd.c</text>
</a>
</g>
</g>
<!-- Node1&#45;&gt;Node4 -->
<g id="edge3" class="edge">
<title>Node1&#45;&gt;Node4</title>
<path fill="none" stroke="midnightblue" d="M1126.95,-76.84C983.69,-77.64 639.19,-74.41 354.5,-31 345.31,-29.6 335.46,-27.36 326.57,-25.06"/>
<polygon fill="midnightblue" stroke="midnightblue" points="1127.35,-80.34 1137.32,-76.77 1127.3,-73.34 1127.35,-80.34"/>
</g>
<!-- Node5 -->
<g id="node5" class="node">
<title>Node5</title>
<g id="a_node5"><a xlink:href="unset_8c.html" target="_top" xlink:title=" ">
<polygon fill="none" stroke="black" points="364,-6 364,-25 467,-25 467,-6 364,-6"/>
<text text-anchor="middle" x="415.5" y="-13" font-family="Helvetica,sans-Serif" font-size="10.00">src/builtin/unset.c</text>
</a>
</g>
</g>
<!-- Node1&#45;&gt;Node5 -->
<g id="edge4" class="edge">
<title>Node1&#45;&gt;Node5</title>
<path fill="none" stroke="midnightblue" d="M1127.26,-75.7C999.53,-74.26 713.31,-66.9 475.5,-31 465.96,-29.56 455.72,-27.34 446.44,-25.07"/>
<polygon fill="midnightblue" stroke="midnightblue" points="1127.25,-79.2 1137.29,-75.8 1127.32,-72.2 1127.25,-79.2"/>
</g>
<!-- Node6 -->
<g id="node6" class="node">
<title>Node6</title>
<g id="a_node6"><a xlink:href="env__utils_8c.html" target="_top" xlink:title=" ">
<polygon fill="none" stroke="black" points="485,-6 485,-25 592,-25 592,-6 485,-6"/>
<text text-anchor="middle" x="538.5" y="-13" font-family="Helvetica,sans-Serif" font-size="10.00">src/env/env_utils.c</text>
</a>
</g>
</g>
<!-- Node1&#45;&gt;Node6 -->
<g id="edge5" class="edge">
<title>Node1&#45;&gt;Node6</title>
<path fill="none" stroke="midnightblue" d="M1127.03,-74.18C1016.59,-70.47 790.61,-59.77 601.5,-31 591.62,-29.5 581,-27.29 571.34,-25.04"/>
<polygon fill="midnightblue" stroke="midnightblue" points="1127.24,-77.69 1137.35,-74.52 1127.47,-70.69 1127.24,-77.69"/>
</g>
<!-- Node7 -->
<g id="node7" class="node">
<title>Node7</title>
<g id="a_node7"><a xlink:href="getenv_8c.html" target="_top" xlink:title=" ">
<polygon fill="none" stroke="black" points="610.5,-6 610.5,-25 706.5,-25 706.5,-6 610.5,-6"/>
<text text-anchor="middle" x="658.5" y="-13" font-family="Helvetica,sans-Serif" font-size="10.00">src/env/getenv.c</text>
</a>
</g>
</g>
<!-- Node1&#45;&gt;Node7 -->
<g id="edge6" class="edge">
<title>Node1&#45;&gt;Node7</title>
<path fill="none" stroke="midnightblue" d="M1127.22,-72.98C1034.14,-68.06 861.07,-56.2 715.5,-31 706.65,-29.47 697.14,-27.28 688.49,-25.06"/>
<polygon fill="midnightblue" stroke="midnightblue" points="1127.18,-76.48 1137.35,-73.51 1127.54,-69.49 1127.18,-76.48"/>
</g>
<!-- Node8 -->
<g id="node8" class="node">
<title>Node8</title>
<g id="a_node8"><a xlink:href="lst__env_8c.html" target="_top" xlink:title=" ">
<polygon fill="none" stroke="black" points="724.5,-6 724.5,-25 822.5,-25 822.5,-6 724.5,-6"/>
<text text-anchor="middle" x="773.5" y="-13" font-family="Helvetica,sans-Serif" font-size="10.00">src/env/lst_env.c</text>
</a>
</g>
</g>
<!-- Node1&#45;&gt;Node8 -->
<g id="edge7" class="edge">
<title>Node1&#45;&gt;Node8</title>
<path fill="none" stroke="midnightblue" d="M1127.27,-70.14C1054.11,-63.18 933.91,-50.08 831.5,-31 822.72,-29.37 813.3,-27.19 804.65,-25.03"/>
<polygon fill="midnightblue" stroke="midnightblue" points="1126.99,-73.62 1137.27,-71.08 1127.64,-66.66 1126.99,-73.62"/>
</g>
<!-- Node9 -->
<g id="node9" class="node">
<title>Node9</title>
<g id="a_node9"><a xlink:href="lst__env__two_8c.html" target="_top" xlink:title=" ">
<polygon fill="none" stroke="black" points="840.5,-6 840.5,-25 962.5,-25 962.5,-6 840.5,-6"/>
<text text-anchor="middle" x="901.5" y="-13" font-family="Helvetica,sans-Serif" font-size="10.00">src/env/lst_env_two.c</text>
</a>
</g>
</g>
<!-- Node1&#45;&gt;Node9 -->
<g id="edge8" class="edge">
<title>Node1&#45;&gt;Node9</title>
<path fill="none" stroke="midnightblue" d="M1141.87,-65.46C1096.67,-56.39 1029.78,-42.92 971.5,-31 962.14,-29.09 952.07,-27.01 942.58,-25.05"/>
<polygon fill="midnightblue" stroke="midnightblue" points="1141.24,-68.9 1151.74,-67.44 1142.62,-62.04 1141.24,-68.9"/>
</g>
<!-- Node10 -->
<g id="node10" class="node">
<title>Node10</title>
<g id="a_node10"><a xlink:href="banner_8c.html" target="_top" xlink:title=" ">
<polygon fill="none" stroke="black" points="981,-6 981,-25 1106,-25 1106,-6 981,-6"/>
<text text-anchor="middle" x="1043.5" y="-13" font-family="Helvetica,sans-Serif" font-size="10.00">src/execution/banner.c</text>
</a>
</g>
</g>
<!-- Node1&#45;&gt;Node10 -->
<g id="edge9" class="edge">
<title>Node1&#45;&gt;Node10</title>
<path fill="none" stroke="midnightblue" d="M1163.49,-63.78C1134.15,-52.22 1090.87,-35.16 1065.09,-25.01"/>
<polygon fill="midnightblue" stroke="midnightblue" points="1162.28,-67.07 1172.87,-67.48 1164.84,-60.55 1162.28,-67.07"/>
</g>
<!-- Node11 -->
<g id="node11" class="node">
<title>Node11</title>
<g id="a_node11"><a xlink:href="execution_8c.html" target="_top" xlink:title=" ">
<polygon fill="none" stroke="black" points="1124.5,-6 1124.5,-25 1264.5,-25 1264.5,-6 1124.5,-6"/>
<text text-anchor="middle" x="1194.5" y="-13" font-family="Helvetica,sans-Serif" font-size="10.00">src/execution/execution.c</text>
</a>
</g>
</g>
<!-- Node1&#45;&gt;Node11 -->
<g id="edge10" class="edge">
<title>Node1&#45;&gt;Node11</title>
<path fill="none" stroke="midnightblue" d="M1194.5,-57.32C1194.5,-46.5 1194.5,-33.4 1194.5,-25.01"/>
<polygon fill="midnightblue" stroke="midnightblue" points="1191,-57.48 1194.5,-67.48 1198,-57.48 1191,-57.48"/>
</g>
<!-- Node12 -->
<g id="node12" class="node">
<title>Node12</title>
<g id="a_node12"><a xlink:href="execution__node_8c.html" target="_top" xlink:title=" ">
<polygon fill="none" stroke="black" points="1283,-0.5 1283,-30.5 1414,-30.5 1414,-0.5 1283,-0.5"/>
<text text-anchor="start" x="1291" y="-18.5" font-family="Helvetica,sans-Serif" font-size="10.00">src/execution/execution</text>
<text text-anchor="middle" x="1348.5" y="-7.5" font-family="Helvetica,sans-Serif" font-size="10.00">_node.c</text>
</a>
</g>
</g>
<!-- Node1&#45;&gt;Node12 -->
<g id="edge11" class="edge">
<title>Node1&#45;&gt;Node12</title>
<path fill="none" stroke="midnightblue" d="M1225.95,-63.85C1250.97,-54.18 1286,-40.65 1312.21,-30.52"/>
<polygon fill="midnightblue" stroke="midnightblue" points="1224.63,-60.61 1216.56,-67.48 1227.15,-67.14 1224.63,-60.61"/>
</g>
<!-- Node13 -->
<g id="node13" class="node">
<title>Node13</title>
<g id="a_node13"><a xlink:href="heredoc_8c.html" target="_top" xlink:title=" ">
<polygon fill="none" stroke="black" points="1432,-6 1432,-25 1563,-25 1563,-6 1432,-6"/>
<text text-anchor="middle" x="1497.5" y="-13" font-family="Helvetica,sans-Serif" font-size="10.00">src/execution/heredoc.c</text>
</a>
</g>
</g>
<!-- Node1&#45;&gt;Node13 -->
<g id="edge12" class="edge">
<title>Node1&#45;&gt;Node13</title>
<path fill="none" stroke="midnightblue" d="M1247.74,-65.55C1306.44,-54.02 1399.76,-35.69 1454.17,-25.01"/>
<polygon fill="midnightblue" stroke="midnightblue" points="1247.05,-62.11 1237.91,-67.48 1248.4,-68.98 1247.05,-62.11"/>
</g>
<!-- Node14 -->
<g id="node14" class="node">
<title>Node14</title>
<g id="a_node14"><a xlink:href="lst__cmd_8c.html" target="_top" xlink:title=" ">
<polygon fill="none" stroke="black" points="1581,-6 1581,-25 1712,-25 1712,-6 1581,-6"/>
<text text-anchor="middle" x="1646.5" y="-13" font-family="Helvetica,sans-Serif" font-size="10.00">src/execution/lst_cmd.c</text>
</a>
</g>
</g>
<!-- Node1&#45;&gt;Node14 -->
<g id="edge13" class="edge">
<title>Node1&#45;&gt;Node14</title>
<path fill="none" stroke="midnightblue" d="M1262.03,-69.5C1337.81,-61.86 1464.32,-48.01 1572.5,-31 1583.36,-29.29 1595.06,-27.14 1605.89,-25.03"/>
<polygon fill="midnightblue" stroke="midnightblue" points="1261.28,-66.06 1251.68,-70.54 1261.98,-73.03 1261.28,-66.06"/>
</g>
<!-- Node15 -->
<g id="node15" class="node">
<title>Node15</title>
<g id="a_node15"><a xlink:href="lst__cmd2_8c.html" target="_top" xlink:title=" ">
<polygon fill="none" stroke="black" points="1730,-6 1730,-25 1867,-25 1867,-6 1730,-6"/>
<text text-anchor="middle" x="1798.5" y="-13" font-family="Helvetica,sans-Serif" font-size="10.00">src/execution/lst_cmd2.c</text>
</a>
</g>
</g>
<!-- Node1&#45;&gt;Node15 -->
<g id="edge14" class="edge">
<title>Node1&#45;&gt;Node15</title>
<path fill="none" stroke="midnightblue" d="M1261.64,-72.44C1362.02,-66.64 1557.01,-53.45 1721.5,-31 1733.23,-29.4 1745.87,-27.21 1757.47,-25.02"/>
<polygon fill="midnightblue" stroke="midnightblue" points="1261.42,-68.95 1251.64,-73.02 1261.82,-75.94 1261.42,-68.95"/>
</g>
<!-- Node16 -->
<g id="node16" class="node">
<title>Node16</title>
<g id="a_node16"><a xlink:href="lst__redir_8c.html" target="_top" xlink:title=" ">
<polygon fill="none" stroke="black" points="1885,-6 1885,-25 2016,-25 2016,-6 1885,-6"/>
<text text-anchor="middle" x="1950.5" y="-13" font-family="Helvetica,sans-Serif" font-size="10.00">src/execution/lst_redir.c</text>
</a>
</g>
</g>
<!-- Node1&#45;&gt;Node16 -->
<g id="edge15" class="edge">
<title>Node1&#45;&gt;Node16</title>
<path fill="none" stroke="midnightblue" d="M1261.77,-74.41C1384.43,-70.87 1652.47,-60.22 1876.5,-31 1888.05,-29.49 1900.52,-27.28 1911.86,-25.04"/>
<polygon fill="midnightblue" stroke="midnightblue" points="1261.67,-70.91 1251.77,-74.69 1261.87,-77.9 1261.67,-70.91"/>
</g>
<!-- Node17 -->
<g id="node17" class="node">
<title>Node17</title>
<g id="a_node17"><a xlink:href="lst__redir2_8c.html" target="_top" xlink:title=" ">
<polygon fill="none" stroke="black" points="2034.5,-6 2034.5,-25 2172.5,-25 2172.5,-6 2034.5,-6"/>
<text text-anchor="middle" x="2103.5" y="-13" font-family="Helvetica,sans-Serif" font-size="10.00">src/execution/lst_redir2.c</text>
</a>
</g>
</g>
<!-- Node1&#45;&gt;Node17 -->
<g id="edge16" class="edge">
<title>Node1&#45;&gt;Node17</title>
<path fill="none" stroke="midnightblue" d="M1261.92,-75.31C1403.74,-73.2 1743.13,-64.75 2025.5,-31 2037.81,-29.53 2051.1,-27.3 2063.17,-25.03"/>
<polygon fill="midnightblue" stroke="midnightblue" points="1261.59,-71.81 1251.64,-75.45 1261.69,-78.81 1261.59,-71.81"/>
</g>
<!-- Node18 -->
<g id="node18" class="node">
<title>Node18</title>
<g id="a_node18"><a xlink:href="multipipe_8c.html" target="_top" xlink:title=" ">
<polygon fill="none" stroke="black" points="2191,-6 2191,-25 2330,-25 2330,-6 2191,-6"/>
<text text-anchor="middle" x="2260.5" y="-13" font-family="Helvetica,sans-Serif" font-size="10.00">src/execution/multipipe.c</text>
</a>
</g>
</g>
<!-- Node1&#45;&gt;Node18 -->
<g id="edge17" class="edge">
<title>Node1&#45;&gt;Node18</title>
<path fill="none" stroke="midnightblue" d="M1261.91,-76.08C1421.98,-75.58 1837.34,-70.25 2181.5,-31 2194.11,-29.56 2207.73,-27.31 2220.06,-25.01"/>
<polygon fill="midnightblue" stroke="midnightblue" points="1261.73,-72.58 1251.74,-76.1 1261.75,-79.58 1261.73,-72.58"/>
</g>
<!-- Node19 -->
<g id="node19" class="node">
<title>Node19</title>
<g id="a_node19"><a xlink:href="redirection__multipipe_8c.html" target="_top" xlink:title=" ">
<polygon fill="none" stroke="black" points="2348,-0.5 2348,-30.5 2485,-30.5 2485,-0.5 2348,-0.5"/>
<text text-anchor="start" x="2356" y="-18.5" font-family="Helvetica,sans-Serif" font-size="10.00">src/execution/redirection</text>
<text text-anchor="middle" x="2416.5" y="-7.5" font-family="Helvetica,sans-Serif" font-size="10.00">_multipipe.c</text>
</a>
</g>
</g>
<!-- Node1&#45;&gt;Node19 -->
<g id="edge18" class="edge">
<title>Node1&#45;&gt;Node19</title>
<path fill="none" stroke="midnightblue" d="M1261.6,-74.66C1473.79,-70.21 2128.6,-54.87 2339.5,-31 2342.2,-30.69 2344.95,-30.35 2347.73,-29.97"/>
<polygon fill="midnightblue" stroke="midnightblue" points="1261.46,-71.16 1251.54,-74.87 1261.61,-78.16 1261.46,-71.16"/>
</g>
<!-- Node20 -->
<g id="node20" class="node">
<title>Node20</title>
<g id="a_node20"><a xlink:href="redirection__verification_8c.html" target="_top" xlink:title=" ">
<polygon fill="none" stroke="black" points="2503,-0.5 2503,-30.5 2640,-30.5 2640,-0.5 2503,-0.5"/>
<text text-anchor="start" x="2511" y="-18.5" font-family="Helvetica,sans-Serif" font-size="10.00">src/execution/redirection</text>
<text text-anchor="middle" x="2571.5" y="-7.5" font-family="Helvetica,sans-Serif" font-size="10.00">_verification.c</text>
</a>
</g>
</g>
<!-- Node1&#45;&gt;Node20 -->
<g id="edge19" class="edge">
<title>Node1&#45;&gt;Node20</title>
<path fill="none" stroke="midnightblue" d="M1261.87,-75.02C1492.88,-71.44 2252.03,-57.87 2494.5,-31 2497.2,-30.7 2499.96,-30.36 2502.73,-29.98"/>
<polygon fill="midnightblue" stroke="midnightblue" points="1261.54,-71.52 1251.59,-75.18 1261.65,-78.52 1261.54,-71.52"/>
</g>
</g>
</svg>
        <g id="navigator" transform="translate(0 0)" fill="#404254">
                <rect fill="#f2f5e9" fill-opacity="0.5" stroke="#606060" stroke-width=".5" x="0" y="0" width="60" height="60"/>
                <use id="zoomplus" xlink:href="#zoomPlus" x="17" y="9" onmousedown="handleZoom(evt,'in')"/>
                <use id="zoomminus" xlink:href="#zoomMin" x="42" y="9" onmousedown="handleZoom(evt,'out')"/>
                <use id="reset" xlink:href="#resetDef" x="30" y="36" onmousedown="handleReset()"/>
                <g id="arrowUp" xlink:href="#dirArrow" transform="translate(30 24)" onmousedown="handlePan(0,-1)">
                  <use xlink:href="#rim" fill="#404040">
                        <set attributeName="fill" to="#808080" begin="arrowUp.mouseover" end="arrowUp.mouseout"/>
                  </use>
                  <path fill="none" stroke="white" stroke-width="1.5" d="M0,-3.0v7 M-2.5,-0.5L0,-3.0L2.5,-0.5"/>
                </g>
                <g id="arrowRight" xlink:href="#dirArrow" transform="rotate(90) translate(36 -43)" onmousedown="handlePan(1,0)">
                  <use xlink:href="#rim" fill="#404040">
                        <set attributeName="fill" to="#808080" begin="arrowRight.mouseover" end="arrowRight.mouseout"/>
                  </use>
                  <path fill="none" stroke="white" stroke-width="1.5" d="M0,-3.0v7 M-2.5,-0.5L0,-3.0L2.5,-0.5"/>
                </g>
                <g id="arrowDown" xlink:href="#dirArrow" transform="rotate(180) translate(-30 -48)" onmousedown="handlePan(0,1)">
                  <use xlink:href="#rim" fill="#404040">
                        <set attributeName="fill" to="#808080" begin="arrowDown.mouseover" end="arrowDown.mouseout"/>
                  </use>
                  <path fill="none" stroke="white" stroke-width="1.5" d="M0,-3.0v7 M-2.5,-0.5L0,-3.0L2.5,-0.5"/>
                </g>
                <g id="arrowLeft" xlink:href="#dirArrow" transform="rotate(270) translate(-36 17)" onmousedown="handlePan(-1,0)">
                  <use xlink:href="#rim" fill="#404040">
                        <set attributeName="fill" to="#808080" begin="arrowLeft.mouseover" end="arrowLeft.mouseout"/>
                  </use>
                  <path fill="none" stroke="white" stroke-width="1.5" d="M0,-3.0v7 M-2.5,-0.5L0,-3.0L2.5,-0.5"/>
                </g>
        </g>
        <svg viewBox="0 0 15 15" width="100%" height="30px" preserveAspectRatio="xMaxYMin meet">
         <g id="arrow_out" transform="scale(0.3 0.3)">
          <a xlink:href="minishell_8h__dep__incl_org.svg" target="_base">
           <rect id="button" ry="5" rx="5" y="6" x="6" height="38" width="38"
                fill="#f2f5e9" fill-opacity="0.5" stroke="#606060" stroke-width="1.0"/>
           <path id="arrow"
             d="M 11.500037,31.436501 C 11.940474,20.09759 22.043105,11.32322 32.158766,21.979434 L 37.068811,17.246167 C 37.068811,17.246167 37.088388,32 37.088388,32 L 22.160133,31.978069 C 22.160133,31.978069 26.997745,27.140456 26.997745,27.140456 C 18.528582,18.264221 13.291696,25.230495 11.500037,31.436501 z"
             style="fill:#404040;"/>
          </a>
         </g>
        </svg>
</svg>
