<?xml version="1.0" encoding="UTF-8" standalone="no"?>
<!DOCTYPE svg PUBLIC "-//W3C//DTD SVG 1.1//EN"
 "http://www.w3.org/Graphics/SVG/1.1/DTD/svg11.dtd">
<!-- Generated by graphviz version 2.43.0 (0)
 -->
<!-- Title: destructor_cmd Pages: 1 -->
<!--zoomable 284 -->
<svg id="main" version="1.1" xmlns="http://www.w3.org/2000/svg" xmlns:xlink="http://www.w3.org/1999/xlink" xml:space="preserve" onload="init(evt)">
<style type="text/css"><![CDATA[
.edge:hover path { stroke: red; }
.edge:hover polygon { stroke: red; fill: red; }
]]></style>
<script type="text/javascript"><![CDATA[
var edges = document.getElementsByTagName('g');
if (edges && edges.length) {
  for (var i=0;i<edges.length;i++) {
    if (edges[i].id.substr(0,4)=='edge') {
      edges[i].setAttribute('class','edge');
    }
  }
}
]]></script>
        <defs>
                <circle id="rim" cx="0" cy="0" r="7"/>
                <circle id="rim2" cx="0" cy="0" r="3.5"/>
                <g id="zoomPlus">
                        <use xlink:href="#rim" fill="#404040">
                                <set attributeName="fill" to="#808080" begin="zoomplus.mouseover" end="zoomplus.mouseout"/>
                        </use>
                        <path d="M-4,0h8M0,-4v8" fill="none" stroke="white" stroke-width="1.5" pointer-events="none"/>
                </g>
                <g id="zoomMin">
                        <use xlink:href="#rim" fill="#404040">
                                <set attributeName="fill" to="#808080" begin="zoomminus.mouseover" end="zoomminus.mouseout"/>
                        </use>
                        <path d="M-4,0h8" fill="none" stroke="white" stroke-width="1.5" pointer-events="none"/>
                </g>
                <g id="dirArrow">
                        <path fill="none" stroke="white" stroke-width="1.5" d="M0,-3.0v7 M-2.5,-0.5L0,-3.0L2.5,-0.5"/>
                </g>
               <g id="resetDef">
                       <use xlink:href="#rim2" fill="#404040">
                               <set attributeName="fill" to="#808080" begin="reset.mouseover" end="reset.mouseout"/>
                       </use>
               </g>
        </defs>

<script type="text/javascript">
var viewWidth = 1152;
var viewHeight = 284;
var sectionId = 'dynsection-20';
</script>
<script xlink:href="svgpan.js"/>
<svg id="graph" class="graph">
<g id="viewport">
<title>destructor_cmd</title>
<!-- Node1 -->
<g id="node1" class="node">
<title>Node1</title>
<g id="a_node1"><a xlink:title=" ">
<polygon fill="#bfbfbf" stroke="black" points="1052,-133.5 1052,-152.5 1144,-152.5 1144,-133.5 1052,-133.5"/>
<text text-anchor="middle" x="1098" y="-140.5" font-family="Helvetica,sans-Serif" font-size="10.00">destructor_cmd</text>
</a>
</g>
</g>
<!-- Node2 -->
<g id="node2" class="node">
<title>Node2</title>
<g id="a_node2"><a xlink:href="multipipe_8c.html#a461ae962ce9a1aee7221ac4b9c581f98" target="_top" xlink:title=" ">
<polygon fill="none" stroke="black" points="515,-152.5 515,-171.5 598,-171.5 598,-152.5 515,-152.5"/>
<text text-anchor="middle" x="556.5" y="-159.5" font-family="Helvetica,sans-Serif" font-size="10.00">execute_child</text>
</a>
</g>
</g>
<!-- Node1&#45;&gt;Node2 -->
<g id="edge1" class="edge">
<title>Node1&#45;&gt;Node2</title>
<path fill="none" stroke="midnightblue" d="M1079.38,-159.28C1063.96,-172.33 1040.29,-189.64 1016,-197 859.94,-244.25 661.04,-193.82 587,-171.51"/>
<polygon fill="midnightblue" stroke="midnightblue" points="1081.83,-161.78 1087.04,-152.56 1077.22,-156.52 1081.83,-161.78"/>
</g>
<!-- Node6 -->
<g id="node6" class="node">
<title>Node6</title>
<g id="a_node6"><a xlink:href="main_8c.html#a647f21a28344e1d9c643f4115516d7c9" target="_top" xlink:title=" ">
<polygon fill="none" stroke="black" points="0,-95.5 0,-114.5 41,-114.5 41,-95.5 0,-95.5"/>
<text text-anchor="middle" x="20.5" y="-102.5" font-family="Helvetica,sans-Serif" font-size="10.00">main</text>
</a>
</g>
</g>
<!-- Node1&#45;&gt;Node6 -->
<g id="edge15" class="edge">
<title>Node1&#45;&gt;Node6</title>
<path fill="none" stroke="midnightblue" d="M1082.82,-160.28C1067.87,-177.46 1042.8,-203.44 1016,-219 941.6,-262.21 917.04,-276 831,-276 831,-276 831,-276 215.5,-276 117.18,-276 45.1,-150.86 26.32,-114.68"/>
<polygon fill="midnightblue" stroke="midnightblue" points="1085.51,-162.53 1089.31,-152.64 1080.17,-158 1085.51,-162.53"/>
</g>
<!-- Node7 -->
<g id="node7" class="node">
<title>Node7</title>
<g id="a_node7"><a xlink:href="execution__node_8c.html#adda76b40c34c18ec83b1d98700083f8a" target="_top" xlink:title="we are going to execute the command here we have a security about absolute path given =&gt; because it&#39;s...">
<polygon fill="none" stroke="black" points="658,-114.5 658,-133.5 751,-133.5 751,-114.5 658,-114.5"/>
<text text-anchor="middle" x="704.5" y="-121.5" font-family="Helvetica,sans-Serif" font-size="10.00">execution_node</text>
</a>
</g>
</g>
<!-- Node1&#45;&gt;Node7 -->
<g id="edge6" class="edge">
<title>Node1&#45;&gt;Node7</title>
<path fill="none" stroke="midnightblue" d="M1041.62,-140.31C963.8,-136.54 823.55,-129.73 751.29,-126.22"/>
<polygon fill="midnightblue" stroke="midnightblue" points="1041.55,-143.81 1051.71,-140.8 1041.89,-136.82 1041.55,-143.81"/>
</g>
<!-- Node8 -->
<g id="node8" class="node">
<title>Node8</title>
<g id="a_node8"><a xlink:href="execution_8c.html#aa6f3ac2f0c10538c125eafcb587fd021" target="_top" xlink:title="in this function we do the fork to create a child process we do the redirection if we need to">
<polygon fill="none" stroke="black" points="492.5,-38.5 492.5,-57.5 620.5,-57.5 620.5,-38.5 492.5,-38.5"/>
<text text-anchor="middle" x="556.5" y="-45.5" font-family="Helvetica,sans-Serif" font-size="10.00">one_command_execve</text>
</a>
</g>
</g>
<!-- Node1&#45;&gt;Node8 -->
<g id="edge20" class="edge">
<title>Node1&#45;&gt;Node8</title>
<path fill="none" stroke="midnightblue" d="M1084.25,-125.11C1069.98,-106.75 1045.03,-79.19 1016,-67 946.49,-37.82 729.18,-41.4 620.58,-45.25"/>
<polygon fill="midnightblue" stroke="midnightblue" points="1081.57,-127.37 1090.36,-133.28 1087.17,-123.18 1081.57,-127.37"/>
</g>
<!-- Node10 -->
<g id="node10" class="node">
<title>Node10</title>
<g id="a_node10"><a xlink:href="heredoc_8c.html#a0b4a5d07e8877b06b8977b47a6d51930" target="_top" xlink:title="it&#39;s where we open the heredoc and start writing inside our pipe each time we check if it&#39;s the word ...">
<polygon fill="none" stroke="black" points="787,-152.5 787,-171.5 873,-171.5 873,-152.5 787,-152.5"/>
<text text-anchor="middle" x="830" y="-159.5" font-family="Helvetica,sans-Serif" font-size="10.00">heredoc_input</text>
</a>
</g>
</g>
<!-- Node1&#45;&gt;Node10 -->
<g id="edge11" class="edge">
<title>Node1&#45;&gt;Node10</title>
<path fill="none" stroke="midnightblue" d="M1072.95,-157.71C1057.34,-166.37 1036.21,-176.49 1016,-181 963.37,-192.73 900.68,-181.07 863.45,-171.55"/>
<polygon fill="midnightblue" stroke="midnightblue" points="1074.97,-160.59 1081.9,-152.57 1071.49,-154.52 1074.97,-160.59"/>
</g>
<!-- Node12 -->
<g id="node12" class="node">
<title>Node12</title>
<g id="a_node12"><a xlink:href="exit_8c.html#adcbec3416f97b2d0b8d53cf4c2b2a436" target="_top" xlink:title=" ">
<polygon fill="none" stroke="black" points="934.5,-76.5 934.5,-95.5 990.5,-95.5 990.5,-76.5 934.5,-76.5"/>
<text text-anchor="middle" x="962.5" y="-83.5" font-family="Helvetica,sans-Serif" font-size="10.00">my_exit</text>
</a>
</g>
</g>
<!-- Node1&#45;&gt;Node12 -->
<g id="edge16" class="edge">
<title>Node1&#45;&gt;Node12</title>
<path fill="none" stroke="midnightblue" d="M1065.43,-129.52C1040.97,-119.08 1007.7,-104.87 985.92,-95.57"/>
<polygon fill="midnightblue" stroke="midnightblue" points="1064.08,-132.75 1074.66,-133.46 1066.83,-126.31 1064.08,-132.75"/>
</g>
<!-- Node14 -->
<g id="node14" class="node">
<title>Node14</title>
<g id="a_node14"><a xlink:href="error_8c.html#a193034f887c71fdb2486835d8cbd9dd3" target="_top" xlink:title=" ">
<polygon fill="none" stroke="black" points="909,-0.5 909,-19.5 1016,-19.5 1016,-0.5 909,-0.5"/>
<text text-anchor="middle" x="962.5" y="-7.5" font-family="Helvetica,sans-Serif" font-size="10.00">parsing_destructor</text>
</a>
</g>
</g>
<!-- Node1&#45;&gt;Node14 -->
<g id="edge21" class="edge">
<title>Node1&#45;&gt;Node14</title>
<path fill="none" stroke="midnightblue" d="M1087.04,-124.25C1073.63,-100.53 1047.75,-59.69 1016,-34 1008.68,-28.07 999.65,-23.26 991.16,-19.55"/>
<polygon fill="midnightblue" stroke="midnightblue" points="1084.11,-126.2 1092,-133.27 1090.25,-122.82 1084.11,-126.2"/>
</g>
<!-- Node17 -->
<g id="node17" class="node">
<title>Node17</title>
<g id="a_node17"><a xlink:href="heredoc_8c.html#aa11261ffe1d93fd87488514776e2df34" target="_top" xlink:title="function which allow me to do the loop to call GNL =&gt; there is also the management to leave with the ...">
<polygon fill="none" stroke="black" points="911,-152.5 911,-171.5 1014,-171.5 1014,-152.5 911,-152.5"/>
<text text-anchor="middle" x="962.5" y="-159.5" font-family="Helvetica,sans-Serif" font-size="10.00">read_gnl_heredoc</text>
</a>
</g>
</g>
<!-- Node1&#45;&gt;Node17 -->
<g id="edge25" class="edge">
<title>Node1&#45;&gt;Node17</title>
<path fill="none" stroke="midnightblue" d="M1041.67,-150.87C1032.56,-152.17 1023.15,-153.51 1014.16,-154.79"/>
<polygon fill="midnightblue" stroke="midnightblue" points="1042.4,-154.31 1051.8,-149.43 1041.41,-147.38 1042.4,-154.31"/>
</g>
<!-- Node3 -->
<g id="node3" class="node">
<title>Node3</title>
<g id="a_node3"><a xlink:href="multipipe_8c.html#af31c329200501f497cd102a470450103" target="_top" xlink:title="it&#39;s where the fork happen and sent to be execute">
<polygon fill="none" stroke="black" points="297,-152.5 297,-171.5 455,-171.5 455,-152.5 297,-152.5"/>
<text text-anchor="middle" x="376" y="-159.5" font-family="Helvetica,sans-Serif" font-size="10.00">multipipe_intermediary_cmd</text>
</a>
</g>
</g>
<!-- Node2&#45;&gt;Node3 -->
<g id="edge2" class="edge">
<title>Node2&#45;&gt;Node3</title>
<path fill="none" stroke="midnightblue" d="M504.68,-162C489.31,-162 472.06,-162 455.33,-162"/>
<polygon fill="midnightblue" stroke="midnightblue" points="505,-165.5 515,-162 505,-158.5 505,-165.5"/>
</g>
<!-- Node4 -->
<g id="node4" class="node">
<title>Node4</title>
<g id="a_node4"><a xlink:href="multipipe_8c.html#aa4f1c217eeb689ecbc622baecd2c5dec" target="_top" xlink:title="management of the multipipe (= name when we have at least one pipe) First step is to manage the hered...">
<polygon fill="none" stroke="black" points="172,-114.5 172,-133.5 261,-133.5 261,-114.5 172,-114.5"/>
<text text-anchor="middle" x="216.5" y="-121.5" font-family="Helvetica,sans-Serif" font-size="10.00">multipipe_cmd</text>
</a>
</g>
</g>
<!-- Node3&#45;&gt;Node4 -->
<g id="edge3" class="edge">
<title>Node3&#45;&gt;Node4</title>
<path fill="none" stroke="midnightblue" d="M325.4,-150.03C303.32,-144.71 277.7,-138.52 256.96,-133.52"/>
<polygon fill="midnightblue" stroke="midnightblue" points="324.71,-153.47 335.26,-152.41 326.36,-146.66 324.71,-153.47"/>
</g>
<!-- Node5 -->
<g id="node5" class="node">
<title>Node5</title>
<g id="a_node5"><a xlink:href="execution_8c.html#a9542b61daba3eb4d45c8887c5648b2f6" target="_top" xlink:title="first function of the execution part when we have something to do we have to deal with two cases ; if...">
<polygon fill="none" stroke="black" points="77,-95.5 77,-114.5 136,-114.5 136,-95.5 77,-95.5"/>
<text text-anchor="middle" x="106.5" y="-102.5" font-family="Helvetica,sans-Serif" font-size="10.00">executor</text>
</a>
</g>
</g>
<!-- Node4&#45;&gt;Node5 -->
<g id="edge4" class="edge">
<title>Node4&#45;&gt;Node5</title>
<path fill="none" stroke="midnightblue" d="M161.88,-114.57C152.97,-113 144.05,-111.43 136.08,-110.03"/>
<polygon fill="midnightblue" stroke="midnightblue" points="161.43,-118.04 171.88,-116.33 162.64,-111.15 161.43,-118.04"/>
</g>
<!-- Node5&#45;&gt;Node6 -->
<g id="edge5" class="edge">
<title>Node5&#45;&gt;Node6</title>
<path fill="none" stroke="midnightblue" d="M66.48,-105C57.72,-105 48.78,-105 41.21,-105"/>
<polygon fill="midnightblue" stroke="midnightblue" points="66.59,-108.5 76.59,-105 66.59,-101.5 66.59,-108.5"/>
</g>
<!-- Node7&#45;&gt;Node2 -->
<g id="edge7" class="edge">
<title>Node7&#45;&gt;Node2</title>
<path fill="none" stroke="midnightblue" d="M656.96,-136.11C636.63,-141.4 613.13,-147.52 594.08,-152.48"/>
<polygon fill="midnightblue" stroke="midnightblue" points="657.86,-139.5 666.66,-133.59 656.1,-132.72 657.86,-139.5"/>
</g>
<!-- Node7&#45;&gt;Node8 -->
<g id="edge8" class="edge">
<title>Node7&#45;&gt;Node8</title>
<path fill="none" stroke="midnightblue" d="M676.11,-109.74C646.8,-94.48 601.1,-70.7 575.84,-57.55"/>
<polygon fill="midnightblue" stroke="midnightblue" points="674.52,-112.86 685.01,-114.37 677.75,-106.65 674.52,-112.86"/>
</g>
<!-- Node9 -->
<g id="node9" class="node">
<title>Node9</title>
<g id="a_node9"><a xlink:href="execution_8c.html#a38335028b2bc7aa436f8f79a3753ce5e" target="_top" xlink:title="here we check if it&#39;s a builtin where we have to fork or not we still need to do the redirection veri...">
<polygon fill="none" stroke="black" points="331.5,-76.5 331.5,-95.5 420.5,-95.5 420.5,-76.5 331.5,-76.5"/>
<text text-anchor="middle" x="376" y="-83.5" font-family="Helvetica,sans-Serif" font-size="10.00">one_command</text>
</a>
</g>
</g>
<!-- Node8&#45;&gt;Node9 -->
<g id="edge9" class="edge">
<title>Node8&#45;&gt;Node9</title>
<path fill="none" stroke="midnightblue" d="M500.52,-59.71C474.9,-65.16 444.84,-71.56 420.79,-76.68"/>
<polygon fill="midnightblue" stroke="midnightblue" points="501.4,-63.09 510.46,-57.59 499.95,-56.25 501.4,-63.09"/>
</g>
<!-- Node9&#45;&gt;Node5 -->
<g id="edge10" class="edge">
<title>Node9&#45;&gt;Node5</title>
<path fill="none" stroke="midnightblue" d="M321.37,-89.81C265.58,-93.77 180.35,-99.83 136.22,-102.96"/>
<polygon fill="midnightblue" stroke="midnightblue" points="321.7,-93.29 331.43,-89.09 321.2,-86.31 321.7,-93.29"/>
</g>
<!-- Node11 -->
<g id="node11" class="node">
<title>Node11</title>
<g id="a_node11"><a xlink:href="heredoc_8c.html#a17337782f10170a6f2f9188bf557de0f" target="_top" xlink:title="the function will go through all the commands and check the redirection if we encounter a heredoc we ...">
<polygon fill="none" stroke="black" points="491,-114.5 491,-133.5 622,-133.5 622,-114.5 491,-114.5"/>
<text text-anchor="middle" x="556.5" y="-121.5" font-family="Helvetica,sans-Serif" font-size="10.00">here_doc_management</text>
</a>
</g>
</g>
<!-- Node10&#45;&gt;Node11 -->
<g id="edge12" class="edge">
<title>Node10&#45;&gt;Node11</title>
<path fill="none" stroke="midnightblue" d="M776.57,-157.22C742.66,-153.87 697.62,-148.94 658,-143 640.26,-140.34 620.88,-136.82 603.91,-133.54"/>
<polygon fill="midnightblue" stroke="midnightblue" points="776.43,-160.72 786.72,-158.21 777.11,-153.75 776.43,-160.72"/>
</g>
<!-- Node11&#45;&gt;Node4 -->
<g id="edge13" class="edge">
<title>Node11&#45;&gt;Node4</title>
<path fill="none" stroke="midnightblue" d="M480.6,-124C413.22,-124 316.57,-124 261.1,-124"/>
<polygon fill="midnightblue" stroke="midnightblue" points="480.73,-127.5 490.73,-124 480.73,-120.5 480.73,-127.5"/>
</g>
<!-- Node11&#45;&gt;Node9 -->
<g id="edge14" class="edge">
<title>Node11&#45;&gt;Node9</title>
<path fill="none" stroke="midnightblue" d="M500.52,-112.29C474.9,-106.84 444.84,-100.44 420.79,-95.32"/>
<polygon fill="midnightblue" stroke="midnightblue" points="499.95,-115.75 510.46,-114.41 501.4,-108.91 499.95,-115.75"/>
</g>
<!-- Node13 -->
<g id="node13" class="node">
<title>Node13</title>
<g id="a_node13"><a xlink:href="execution_8c.html#a7bee4f6fbfd70ef7ec1f52856538ac71" target="_top" xlink:title="launch the builtin &#160;&#160;some of them are not present because we have to fork() them why ?...">
<polygon fill="none" stroke="black" points="787.5,-76.5 787.5,-95.5 872.5,-95.5 872.5,-76.5 787.5,-76.5"/>
<text text-anchor="middle" x="830" y="-83.5" font-family="Helvetica,sans-Serif" font-size="10.00">launch_builtin</text>
</a>
</g>
</g>
<!-- Node12&#45;&gt;Node13 -->
<g id="edge17" class="edge">
<title>Node12&#45;&gt;Node13</title>
<path fill="none" stroke="midnightblue" d="M924.33,-86C908.2,-86 889.25,-86 872.66,-86"/>
<polygon fill="midnightblue" stroke="midnightblue" points="924.46,-89.5 934.46,-86 924.46,-82.5 924.46,-89.5"/>
</g>
<!-- Node13&#45;&gt;Node7 -->
<g id="edge18" class="edge">
<title>Node13&#45;&gt;Node7</title>
<path fill="none" stroke="midnightblue" d="M788.26,-98.54C771.46,-103.7 752.3,-109.6 736.65,-114.41"/>
<polygon fill="midnightblue" stroke="midnightblue" points="789.31,-101.88 797.84,-95.59 787.25,-95.18 789.31,-101.88"/>
</g>
<!-- Node13&#45;&gt;Node9 -->
<g id="edge19" class="edge">
<title>Node13&#45;&gt;Node9</title>
<path fill="none" stroke="midnightblue" d="M777.06,-86C687.2,-86 504.31,-86 420.6,-86"/>
<polygon fill="midnightblue" stroke="midnightblue" points="777.29,-89.5 787.29,-86 777.29,-82.5 777.29,-89.5"/>
</g>
<!-- Node15 -->
<g id="node15" class="node">
<title>Node15</title>
<g id="a_node15"><a xlink:href="error_8c.html#a8f5f1cfa591c395b88733e1134d8de3d" target="_top" xlink:title=" ">
<polygon fill="none" stroke="black" points="791,-0.5 791,-19.5 869,-19.5 869,-0.5 791,-0.5"/>
<text text-anchor="middle" x="830" y="-7.5" font-family="Helvetica,sans-Serif" font-size="10.00">syntax_error</text>
</a>
</g>
</g>
<!-- Node14&#45;&gt;Node15 -->
<g id="edge22" class="edge">
<title>Node14&#45;&gt;Node15</title>
<path fill="none" stroke="midnightblue" d="M898.72,-10C888.59,-10 878.37,-10 869.06,-10"/>
<polygon fill="midnightblue" stroke="midnightblue" points="898.8,-13.5 908.8,-10 898.8,-6.5 898.8,-13.5"/>
</g>
<!-- Node16 -->
<g id="node16" class="node">
<title>Node16</title>
<g id="a_node16"><a xlink:href="parser_8c.html#a302af903b3f87eaaff83762f60c2d8cb" target="_top" xlink:title=" ">
<polygon fill="none" stroke="black" points="193,-19.5 193,-38.5 240,-38.5 240,-19.5 193,-19.5"/>
<text text-anchor="middle" x="216.5" y="-26.5" font-family="Helvetica,sans-Serif" font-size="10.00">parser</text>
</a>
</g>
</g>
<!-- Node15&#45;&gt;Node16 -->
<g id="edge23" class="edge">
<title>Node15&#45;&gt;Node16</title>
<path fill="none" stroke="midnightblue" d="M780.39,-11.51C655.94,-15.38 329.33,-25.53 240.23,-28.29"/>
<polygon fill="midnightblue" stroke="midnightblue" points="780.86,-15 790.75,-11.19 780.64,-8 780.86,-15"/>
</g>
<!-- Node16&#45;&gt;Node6 -->
<g id="edge24" class="edge">
<title>Node16&#45;&gt;Node6</title>
<path fill="none" stroke="midnightblue" d="M183.45,-41.55C142.96,-57.42 74.52,-84.23 41.08,-97.33"/>
<polygon fill="midnightblue" stroke="midnightblue" points="184.83,-44.77 192.87,-37.87 182.28,-38.26 184.83,-44.77"/>
</g>
<!-- Node17&#45;&gt;Node10 -->
<g id="edge26" class="edge">
<title>Node17&#45;&gt;Node10</title>
<path fill="none" stroke="midnightblue" d="M900.63,-162C891.3,-162 881.84,-162 873.04,-162"/>
<polygon fill="midnightblue" stroke="midnightblue" points="900.67,-165.5 910.67,-162 900.67,-158.5 900.67,-165.5"/>
</g>
</g>
</svg>
        <g id="navigator" transform="translate(0 0)" fill="#404254">
                <rect fill="#f2f5e9" fill-opacity="0.5" stroke="#606060" stroke-width=".5" x="0" y="0" width="60" height="60"/>
                <use id="zoomplus" xlink:href="#zoomPlus" x="17" y="9" onmousedown="handleZoom(evt,'in')"/>
                <use id="zoomminus" xlink:href="#zoomMin" x="42" y="9" onmousedown="handleZoom(evt,'out')"/>
                <use id="reset" xlink:href="#resetDef" x="30" y="36" onmousedown="handleReset()"/>
                <g id="arrowUp" xlink:href="#dirArrow" transform="translate(30 24)" onmousedown="handlePan(0,-1)">
                  <use xlink:href="#rim" fill="#404040">
                        <set attributeName="fill" to="#808080" begin="arrowUp.mouseover" end="arrowUp.mouseout"/>
                  </use>
                  <path fill="none" stroke="white" stroke-width="1.5" d="M0,-3.0v7 M-2.5,-0.5L0,-3.0L2.5,-0.5"/>
                </g>
                <g id="arrowRight" xlink:href="#dirArrow" transform="rotate(90) translate(36 -43)" onmousedown="handlePan(1,0)">
                  <use xlink:href="#rim" fill="#404040">
                        <set attributeName="fill" to="#808080" begin="arrowRight.mouseover" end="arrowRight.mouseout"/>
                  </use>
                  <path fill="none" stroke="white" stroke-width="1.5" d="M0,-3.0v7 M-2.5,-0.5L0,-3.0L2.5,-0.5"/>
                </g>
                <g id="arrowDown" xlink:href="#dirArrow" transform="rotate(180) translate(-30 -48)" onmousedown="handlePan(0,1)">
                  <use xlink:href="#rim" fill="#404040">
                        <set attributeName="fill" to="#808080" begin="arrowDown.mouseover" end="arrowDown.mouseout"/>
                  </use>
                  <path fill="none" stroke="white" stroke-width="1.5" d="M0,-3.0v7 M-2.5,-0.5L0,-3.0L2.5,-0.5"/>
                </g>
                <g id="arrowLeft" xlink:href="#dirArrow" transform="rotate(270) translate(-36 17)" onmousedown="handlePan(-1,0)">
                  <use xlink:href="#rim" fill="#404040">
                        <set attributeName="fill" to="#808080" begin="arrowLeft.mouseover" end="arrowLeft.mouseout"/>
                  </use>
                  <path fill="none" stroke="white" stroke-width="1.5" d="M0,-3.0v7 M-2.5,-0.5L0,-3.0L2.5,-0.5"/>
                </g>
        </g>
        <svg viewBox="0 0 15 15" width="100%" height="30px" preserveAspectRatio="xMaxYMin meet">
         <g id="arrow_out" transform="scale(0.3 0.3)">
          <a xlink:href="minishell_8h_a132395876bb5a7cfe926b9e37571a1e3_icgraph_org.svg" target="_base">
           <rect id="button" ry="5" rx="5" y="6" x="6" height="38" width="38"
                fill="#f2f5e9" fill-opacity="0.5" stroke="#606060" stroke-width="1.0"/>
           <path id="arrow"
             d="M 11.500037,31.436501 C 11.940474,20.09759 22.043105,11.32322 32.158766,21.979434 L 37.068811,17.246167 C 37.068811,17.246167 37.088388,32 37.088388,32 L 22.160133,31.978069 C 22.160133,31.978069 26.997745,27.140456 26.997745,27.140456 C 18.528582,18.264221 13.291696,25.230495 11.500037,31.436501 z"
             style="fill:#404040;"/>
          </a>
         </g>
        </svg>
</svg>
