<?xml version="1.0" encoding="UTF-8" standalone="no"?>
<!DOCTYPE svg PUBLIC "-//W3C//DTD SVG 1.1//EN"
 "http://www.w3.org/Graphics/SVG/1.1/DTD/svg11.dtd">
<!-- Generated by graphviz version 2.43.0 (0)
 -->
<!-- Title: includes/minishell.h Pages: 1 -->
<svg width="5638pt" height="218pt"
 viewBox="0.00 0.00 5637.50 218.00" xmlns="http://www.w3.org/2000/svg" xmlns:xlink="http://www.w3.org/1999/xlink">
<g id="graph0" class="graph" transform="scale(1 1) rotate(0) translate(4 214)">
<title>includes/minishell.h</title>
<!-- Node1 -->
<g id="node1" class="node">
<title>Node1</title>
<g id="a_node1"><a xlink:title=" ">
<polygon fill="#bfbfbf" stroke="black" points="1814.5,-190.5 1814.5,-209.5 1928.5,-209.5 1928.5,-190.5 1814.5,-190.5"/>
<text text-anchor="middle" x="1871.5" y="-197.5" font-family="Helvetica,sans-Serif" font-size="10.00">includes/minishell.h</text>
</a>
</g>
</g>
<!-- Node2 -->
<g id="node2" class="node">
<title>Node2</title>
<g id="a_node2"><a xlink:href="cd_8c.html" target="_top" xlink:title=" ">
<polygon fill="none" stroke="black" points="0,-129 0,-148 87,-148 87,-129 0,-129"/>
<text text-anchor="middle" x="43.5" y="-136" font-family="Helvetica,sans-Serif" font-size="10.00">src/builtin/cd.c</text>
</a>
</g>
</g>
<!-- Node1&#45;&gt;Node2 -->
<g id="edge1" class="edge">
<title>Node1&#45;&gt;Node2</title>
<path fill="none" stroke="midnightblue" d="M1804.08,-198.28C1500.33,-194.88 266.48,-179.6 95.5,-154 86.79,-152.7 77.46,-150.39 69.15,-148"/>
<polygon fill="midnightblue" stroke="midnightblue" points="1804.45,-201.78 1814.49,-198.39 1804.53,-194.78 1804.45,-201.78"/>
</g>
<!-- Node3 -->
<g id="node3" class="node">
<title>Node3</title>
<g id="a_node3"><a xlink:href="env_8c.html" target="_top" xlink:title=" ">
<polygon fill="none" stroke="black" points="105,-129 105,-148 198,-148 198,-129 105,-129"/>
<text text-anchor="middle" x="151.5" y="-136" font-family="Helvetica,sans-Serif" font-size="10.00">src/builtin/env.c</text>
</a>
</g>
</g>
<!-- Node1&#45;&gt;Node3 -->
<g id="edge2" class="edge">
<title>Node1&#45;&gt;Node3</title>
<path fill="none" stroke="midnightblue" d="M1804.05,-199.25C1533.01,-199.94 522.67,-199.33 206.5,-154 197.41,-152.7 187.67,-150.43 178.94,-148.06"/>
<polygon fill="midnightblue" stroke="midnightblue" points="1804.14,-202.75 1814.13,-199.22 1804.12,-195.75 1804.14,-202.75"/>
</g>
<!-- Node4 -->
<g id="node4" class="node">
<title>Node4</title>
<g id="a_node4"><a xlink:href="exit_8c.html" target="_top" xlink:title=" ">
<polygon fill="none" stroke="black" points="216,-129 216,-148 311,-148 311,-129 216,-129"/>
<text text-anchor="middle" x="263.5" y="-136" font-family="Helvetica,sans-Serif" font-size="10.00">src/builtin/exit.c</text>
</a>
</g>
</g>
<!-- Node1&#45;&gt;Node4 -->
<g id="edge3" class="edge">
<title>Node1&#45;&gt;Node4</title>
<path fill="none" stroke="midnightblue" d="M1804.38,-199.06C1545.62,-198.96 612.65,-195.66 319.5,-154 310.25,-152.69 300.33,-150.41 291.45,-148.05"/>
<polygon fill="midnightblue" stroke="midnightblue" points="1804.39,-202.56 1814.39,-199.06 1804.39,-195.56 1804.39,-202.56"/>
</g>
<!-- Node5 -->
<g id="node5" class="node">
<title>Node5</title>
<g id="a_node5"><a xlink:href="export_8c.html" target="_top" xlink:title=" ">
<polygon fill="none" stroke="black" points="329,-129 329,-148 436,-148 436,-129 329,-129"/>
<text text-anchor="middle" x="382.5" y="-136" font-family="Helvetica,sans-Serif" font-size="10.00">src/builtin/export.c</text>
</a>
</g>
</g>
<!-- Node1&#45;&gt;Node5 -->
<g id="edge4" class="edge">
<title>Node1&#45;&gt;Node5</title>
<path fill="none" stroke="midnightblue" d="M1804.19,-198.65C1558.78,-197.08 712.36,-189.19 444.5,-154 434.31,-152.66 423.34,-150.38 413.5,-148.02"/>
<polygon fill="midnightblue" stroke="midnightblue" points="1804.37,-202.15 1814.39,-198.71 1804.42,-195.15 1804.37,-202.15"/>
</g>
<!-- Node6 -->
<g id="node6" class="node">
<title>Node6</title>
<g id="a_node6"><a xlink:href="launcher_8c.html" target="_top" xlink:title=" ">
<polygon fill="none" stroke="black" points="454,-129 454,-148 571,-148 571,-129 454,-129"/>
<text text-anchor="middle" x="512.5" y="-136" font-family="Helvetica,sans-Serif" font-size="10.00">src/builtin/launcher.c</text>
</a>
</g>
</g>
<!-- Node1&#45;&gt;Node6 -->
<g id="edge5" class="edge">
<title>Node1&#45;&gt;Node6</title>
<path fill="none" stroke="midnightblue" d="M1804.18,-198.21C1574.23,-195.28 820.82,-183.58 580.5,-154 569.48,-152.64 557.6,-150.39 546.9,-148.06"/>
<polygon fill="midnightblue" stroke="midnightblue" points="1804.37,-201.71 1814.41,-198.34 1804.45,-194.71 1804.37,-201.71"/>
</g>
<!-- Node7 -->
<g id="node7" class="node">
<title>Node7</title>
<g id="a_node7"><a xlink:href="my__echo_8c.html" target="_top" xlink:title=" ">
<polygon fill="none" stroke="black" points="589.5,-129 589.5,-148 709.5,-148 709.5,-129 589.5,-129"/>
<text text-anchor="middle" x="649.5" y="-136" font-family="Helvetica,sans-Serif" font-size="10.00">src/builtin/my_echo.c</text>
</a>
</g>
</g>
<!-- Node1&#45;&gt;Node7 -->
<g id="edge6" class="edge">
<title>Node1&#45;&gt;Node7</title>
<path fill="none" stroke="midnightblue" d="M1804.28,-197.86C1590.93,-194.02 930.73,-180.25 718.5,-154 707.32,-152.62 695.27,-150.36 684.41,-148.03"/>
<polygon fill="midnightblue" stroke="midnightblue" points="1804.33,-201.36 1814.39,-198.04 1804.46,-194.36 1804.33,-201.36"/>
</g>
<!-- Node8 -->
<g id="node8" class="node">
<title>Node8</title>
<g id="a_node8"><a xlink:href="pwd_8c.html" target="_top" xlink:title=" ">
<polygon fill="none" stroke="black" points="727.5,-129 727.5,-148 823.5,-148 823.5,-129 727.5,-129"/>
<text text-anchor="middle" x="775.5" y="-136" font-family="Helvetica,sans-Serif" font-size="10.00">src/builtin/pwd.c</text>
</a>
</g>
</g>
<!-- Node1&#45;&gt;Node8 -->
<g id="edge7" class="edge">
<title>Node1&#45;&gt;Node8</title>
<path fill="none" stroke="midnightblue" d="M1804.17,-197.89C1605.02,-194.33 1021.02,-181.76 832.5,-154 823.21,-152.63 813.23,-150.37 804.26,-148.04"/>
<polygon fill="midnightblue" stroke="midnightblue" points="1804.14,-201.39 1814.2,-198.07 1804.27,-194.39 1804.14,-201.39"/>
</g>
<!-- Node9 -->
<g id="node9" class="node">
<title>Node9</title>
<g id="a_node9"><a xlink:href="unset_8c.html" target="_top" xlink:title=" ">
<polygon fill="none" stroke="black" points="842,-129 842,-148 945,-148 945,-129 842,-129"/>
<text text-anchor="middle" x="893.5" y="-136" font-family="Helvetica,sans-Serif" font-size="10.00">src/builtin/unset.c</text>
</a>
</g>
</g>
<!-- Node1&#45;&gt;Node9 -->
<g id="edge8" class="edge">
<title>Node1&#45;&gt;Node9</title>
<path fill="none" stroke="midnightblue" d="M1804.28,-197.35C1621.44,-192.59 1117.81,-177.67 953.5,-154 943.85,-152.61 933.48,-150.38 924.12,-148.07"/>
<polygon fill="midnightblue" stroke="midnightblue" points="1804.22,-200.85 1814.3,-197.61 1804.4,-193.85 1804.22,-200.85"/>
</g>
<!-- Node10 -->
<g id="node10" class="node">
<title>Node10</title>
<g id="a_node10"><a xlink:href="env__utils_8c.html" target="_top" xlink:title=" ">
<polygon fill="none" stroke="black" points="963,-129 963,-148 1070,-148 1070,-129 963,-129"/>
<text text-anchor="middle" x="1016.5" y="-136" font-family="Helvetica,sans-Serif" font-size="10.00">src/env/env_utils.c</text>
</a>
</g>
</g>
<!-- Node1&#45;&gt;Node10 -->
<g id="edge9" class="edge">
<title>Node1&#45;&gt;Node10</title>
<path fill="none" stroke="midnightblue" d="M1803.66,-199.01C1666.28,-198.17 1345.6,-191.9 1079.5,-154 1069.39,-152.56 1058.51,-150.31 1048.68,-148.01"/>
<polygon fill="midnightblue" stroke="midnightblue" points="1804,-202.51 1814.02,-199.06 1804.04,-195.51 1804,-202.51"/>
</g>
<!-- Node11 -->
<g id="node11" class="node">
<title>Node11</title>
<g id="a_node11"><a xlink:href="getenv_8c.html" target="_top" xlink:title=" ">
<polygon fill="none" stroke="black" points="1088.5,-129 1088.5,-148 1184.5,-148 1184.5,-129 1088.5,-129"/>
<text text-anchor="middle" x="1136.5" y="-136" font-family="Helvetica,sans-Serif" font-size="10.00">src/env/getenv.c</text>
</a>
</g>
</g>
<!-- Node1&#45;&gt;Node11 -->
<g id="edge10" class="edge">
<title>Node1&#45;&gt;Node11</title>
<path fill="none" stroke="midnightblue" d="M1804.08,-198.59C1681.69,-196.95 1415.1,-189.24 1193.5,-154 1184.42,-152.56 1174.68,-150.34 1165.87,-148.06"/>
<polygon fill="midnightblue" stroke="midnightblue" points="1804.37,-202.1 1814.41,-198.72 1804.45,-195.1 1804.37,-202.1"/>
</g>
<!-- Node12 -->
<g id="node12" class="node">
<title>Node12</title>
<g id="a_node12"><a xlink:href="lst__env_8c.html" target="_top" xlink:title=" ">
<polygon fill="none" stroke="black" points="1202.5,-129 1202.5,-148 1300.5,-148 1300.5,-129 1202.5,-129"/>
<text text-anchor="middle" x="1251.5" y="-136" font-family="Helvetica,sans-Serif" font-size="10.00">src/env/lst_env.c</text>
</a>
</g>
</g>
<!-- Node1&#45;&gt;Node12 -->
<g id="edge11" class="edge">
<title>Node1&#45;&gt;Node12</title>
<path fill="none" stroke="midnightblue" d="M1804.27,-197.2C1698.4,-193.56 1486.65,-183.03 1309.5,-154 1300.38,-152.51 1290.6,-150.3 1281.71,-148.05"/>
<polygon fill="midnightblue" stroke="midnightblue" points="1804.38,-200.71 1814.49,-197.54 1804.61,-193.71 1804.38,-200.71"/>
</g>
<!-- Node13 -->
<g id="node13" class="node">
<title>Node13</title>
<g id="a_node13"><a xlink:href="lst__env__two_8c.html" target="_top" xlink:title=" ">
<polygon fill="none" stroke="black" points="1318.5,-129 1318.5,-148 1440.5,-148 1440.5,-129 1318.5,-129"/>
<text text-anchor="middle" x="1379.5" y="-136" font-family="Helvetica,sans-Serif" font-size="10.00">src/env/lst_env_two.c</text>
</a>
</g>
</g>
<!-- Node1&#45;&gt;Node13 -->
<g id="edge12" class="edge">
<title>Node1&#45;&gt;Node13</title>
<path fill="none" stroke="midnightblue" d="M1804.16,-193.87C1720.64,-187.03 1574.06,-173.49 1449.5,-154 1438.96,-152.35 1427.6,-150.17 1417.16,-148.01"/>
<polygon fill="midnightblue" stroke="midnightblue" points="1804.02,-197.37 1814.27,-194.69 1804.59,-190.39 1804.02,-197.37"/>
</g>
<!-- Node14 -->
<g id="node14" class="node">
<title>Node14</title>
<g id="a_node14"><a xlink:href="banner_8c.html" target="_top" xlink:title=" ">
<polygon fill="none" stroke="black" points="1459,-129 1459,-148 1584,-148 1584,-129 1459,-129"/>
<text text-anchor="middle" x="1521.5" y="-136" font-family="Helvetica,sans-Serif" font-size="10.00">src/execution/banner.c</text>
</a>
</g>
</g>
<!-- Node1&#45;&gt;Node14 -->
<g id="edge13" class="edge">
<title>Node1&#45;&gt;Node14</title>
<path fill="none" stroke="midnightblue" d="M1804.74,-188.93C1748.35,-180.24 1665.51,-167.07 1593.5,-154 1583.46,-152.18 1572.67,-150.08 1562.57,-148.05"/>
<polygon fill="midnightblue" stroke="midnightblue" points="1804.54,-192.44 1814.95,-190.5 1805.6,-185.52 1804.54,-192.44"/>
</g>
<!-- Node15 -->
<g id="node15" class="node">
<title>Node15</title>
<g id="a_node15"><a xlink:href="ctl_8c.html" target="_top" xlink:title=" ">
<polygon fill="none" stroke="black" points="1602.5,-129 1602.5,-148 1706.5,-148 1706.5,-129 1602.5,-129"/>
<text text-anchor="middle" x="1654.5" y="-136" font-family="Helvetica,sans-Serif" font-size="10.00">src/execution/ctl.c</text>
</a>
</g>
</g>
<!-- Node1&#45;&gt;Node15 -->
<g id="edge14" class="edge">
<title>Node1&#45;&gt;Node15</title>
<path fill="none" stroke="midnightblue" d="M1830.73,-187.82C1788.58,-176.26 1723.7,-158.47 1685.53,-148.01"/>
<polygon fill="midnightblue" stroke="midnightblue" points="1829.84,-191.21 1840.41,-190.48 1831.69,-184.46 1829.84,-191.21"/>
</g>
<!-- Node16 -->
<g id="node16" class="node">
<title>Node16</title>
<g id="a_node16"><a xlink:href="execution_8c.html" target="_top" xlink:title=" ">
<polygon fill="none" stroke="black" points="1724.5,-129 1724.5,-148 1864.5,-148 1864.5,-129 1724.5,-129"/>
<text text-anchor="middle" x="1794.5" y="-136" font-family="Helvetica,sans-Serif" font-size="10.00">src/execution/execution.c</text>
</a>
</g>
</g>
<!-- Node1&#45;&gt;Node16 -->
<g id="edge15" class="edge">
<title>Node1&#45;&gt;Node16</title>
<path fill="none" stroke="midnightblue" d="M1852.47,-184.29C1837.7,-172.88 1817.74,-157.46 1805.51,-148.01"/>
<polygon fill="midnightblue" stroke="midnightblue" points="1850.41,-187.13 1860.47,-190.48 1854.69,-181.59 1850.41,-187.13"/>
</g>
<!-- Node17 -->
<g id="node17" class="node">
<title>Node17</title>
<g id="a_node17"><a xlink:href="execution__node_8c.html" target="_top" xlink:title=" ">
<polygon fill="none" stroke="black" points="1883,-123.5 1883,-153.5 2014,-153.5 2014,-123.5 1883,-123.5"/>
<text text-anchor="start" x="1891" y="-141.5" font-family="Helvetica,sans-Serif" font-size="10.00">src/execution/execution</text>
<text text-anchor="middle" x="1948.5" y="-130.5" font-family="Helvetica,sans-Serif" font-size="10.00">_node.c</text>
</a>
</g>
</g>
<!-- Node1&#45;&gt;Node17 -->
<g id="edge16" class="edge">
<title>Node1&#45;&gt;Node17</title>
<path fill="none" stroke="midnightblue" d="M1890.66,-184.2C1902.8,-174.81 1918.41,-162.75 1930.35,-153.52"/>
<polygon fill="midnightblue" stroke="midnightblue" points="1888.31,-181.59 1882.53,-190.48 1892.59,-187.13 1888.31,-181.59"/>
</g>
<!-- Node18 -->
<g id="node18" class="node">
<title>Node18</title>
<g id="a_node18"><a xlink:href="heredoc_8c.html" target="_top" xlink:title=" ">
<polygon fill="none" stroke="black" points="2032,-129 2032,-148 2163,-148 2163,-129 2032,-129"/>
<text text-anchor="middle" x="2097.5" y="-136" font-family="Helvetica,sans-Serif" font-size="10.00">src/execution/heredoc.c</text>
</a>
</g>
</g>
<!-- Node1&#45;&gt;Node18 -->
<g id="edge17" class="edge">
<title>Node1&#45;&gt;Node18</title>
<path fill="none" stroke="midnightblue" d="M1913.68,-187.9C1957.57,-176.34 2025.35,-158.5 2065.18,-148.01"/>
<polygon fill="midnightblue" stroke="midnightblue" points="1912.66,-184.54 1903.88,-190.48 1914.44,-191.31 1912.66,-184.54"/>
</g>
<!-- Node19 -->
<g id="node19" class="node">
<title>Node19</title>
<g id="a_node19"><a xlink:href="heredoc2_8c.html" target="_top" xlink:title=" ">
<polygon fill="none" stroke="black" points="2181,-129 2181,-148 2318,-148 2318,-129 2181,-129"/>
<text text-anchor="middle" x="2249.5" y="-136" font-family="Helvetica,sans-Serif" font-size="10.00">src/execution/heredoc2.c</text>
</a>
</g>
</g>
<!-- Node1&#45;&gt;Node19 -->
<g id="edge18" class="edge">
<title>Node1&#45;&gt;Node19</title>
<path fill="none" stroke="midnightblue" d="M1938.79,-189.59C1999.66,-180.92 2091.71,-167.4 2171.5,-154 2182.37,-152.18 2194.06,-150.08 2205,-148.05"/>
<polygon fill="midnightblue" stroke="midnightblue" points="1937.96,-186.17 1928.55,-191.05 1938.94,-193.11 1937.96,-186.17"/>
</g>
<!-- Node20 -->
<g id="node20" class="node">
<title>Node20</title>
<g id="a_node20"><a xlink:href="lst__cmd_8c.html" target="_top" xlink:title=" ">
<polygon fill="none" stroke="black" points="2336,-129 2336,-148 2467,-148 2467,-129 2336,-129"/>
<text text-anchor="middle" x="2401.5" y="-136" font-family="Helvetica,sans-Serif" font-size="10.00">src/execution/lst_cmd.c</text>
</a>
</g>
</g>
<!-- Node1&#45;&gt;Node20 -->
<g id="edge19" class="edge">
<title>Node1&#45;&gt;Node20</title>
<path fill="none" stroke="midnightblue" d="M1939.04,-194.28C2028.1,-187.61 2189.55,-173.97 2326.5,-154 2337.79,-152.35 2349.95,-150.18 2361.14,-148.01"/>
<polygon fill="midnightblue" stroke="midnightblue" points="1938.52,-190.81 1928.81,-195.04 1939.04,-197.79 1938.52,-190.81"/>
</g>
<!-- Node21 -->
<g id="node21" class="node">
<title>Node21</title>
<g id="a_node21"><a xlink:href="lst__cmd2_8c.html" target="_top" xlink:title=" ">
<polygon fill="none" stroke="black" points="2485,-129 2485,-148 2622,-148 2622,-129 2485,-129"/>
<text text-anchor="middle" x="2553.5" y="-136" font-family="Helvetica,sans-Serif" font-size="10.00">src/execution/lst_cmd2.c</text>
</a>
</g>
</g>
<!-- Node1&#45;&gt;Node21 -->
<g id="edge20" class="edge">
<title>Node1&#45;&gt;Node21</title>
<path fill="none" stroke="midnightblue" d="M1938.88,-196.39C2050.72,-191.52 2281.6,-179.17 2475.5,-154 2487.52,-152.44 2500.49,-150.24 2512.34,-148.02"/>
<polygon fill="midnightblue" stroke="midnightblue" points="1938.6,-192.9 1928.76,-196.82 1938.9,-199.89 1938.6,-192.9"/>
</g>
<!-- Node22 -->
<g id="node22" class="node">
<title>Node22</title>
<g id="a_node22"><a xlink:href="lst__redir_8c.html" target="_top" xlink:title=" ">
<polygon fill="none" stroke="black" points="2640,-129 2640,-148 2771,-148 2771,-129 2640,-129"/>
<text text-anchor="middle" x="2705.5" y="-136" font-family="Helvetica,sans-Serif" font-size="10.00">src/execution/lst_redir.c</text>
</a>
</g>
</g>
<!-- Node1&#45;&gt;Node22 -->
<g id="edge21" class="edge">
<title>Node1&#45;&gt;Node22</title>
<path fill="none" stroke="midnightblue" d="M1938.89,-197.98C2071.72,-195.31 2376.49,-185.94 2630.5,-154 2642.34,-152.51 2655.13,-150.28 2666.73,-148.01"/>
<polygon fill="midnightblue" stroke="midnightblue" points="1938.79,-194.48 1928.86,-198.18 1938.93,-201.48 1938.79,-194.48"/>
</g>
<!-- Node23 -->
<g id="node23" class="node">
<title>Node23</title>
<g id="a_node23"><a xlink:href="lst__redir2_8c.html" target="_top" xlink:title=" ">
<polygon fill="none" stroke="black" points="2789.5,-129 2789.5,-148 2927.5,-148 2927.5,-129 2789.5,-129"/>
<text text-anchor="middle" x="2858.5" y="-136" font-family="Helvetica,sans-Serif" font-size="10.00">src/execution/lst_redir2.c</text>
</a>
</g>
</g>
<!-- Node1&#45;&gt;Node23 -->
<g id="edge22" class="edge">
<title>Node1&#45;&gt;Node23</title>
<path fill="none" stroke="midnightblue" d="M1938.59,-198.7C2089.39,-197.36 2466.47,-190.32 2779.5,-154 2791.97,-152.55 2805.43,-150.33 2817.65,-148.06"/>
<polygon fill="midnightblue" stroke="midnightblue" points="1938.53,-195.2 1928.56,-198.78 1938.58,-202.2 1938.53,-195.2"/>
</g>
<!-- Node24 -->
<g id="node24" class="node">
<title>Node24</title>
<g id="a_node24"><a xlink:href="multipipe_8c.html" target="_top" xlink:title=" ">
<polygon fill="none" stroke="black" points="2946,-129 2946,-148 3085,-148 3085,-129 2946,-129"/>
<text text-anchor="middle" x="3015.5" y="-136" font-family="Helvetica,sans-Serif" font-size="10.00">src/execution/multipipe.c</text>
</a>
</g>
</g>
<!-- Node1&#45;&gt;Node24 -->
<g id="edge23" class="edge">
<title>Node1&#45;&gt;Node24</title>
<path fill="none" stroke="midnightblue" d="M1938.78,-199.4C2107.35,-199.7 2561.15,-196.17 2936.5,-154 2949.11,-152.58 2962.74,-150.34 2975.07,-148.04"/>
<polygon fill="midnightblue" stroke="midnightblue" points="1938.58,-195.9 1928.57,-199.38 1938.57,-202.9 1938.58,-195.9"/>
</g>
<!-- Node25 -->
<g id="node25" class="node">
<title>Node25</title>
<g id="a_node25"><a xlink:href="redirection__multipipe_8c.html" target="_top" xlink:title=" ">
<polygon fill="none" stroke="black" points="3103,-123.5 3103,-153.5 3240,-153.5 3240,-123.5 3103,-123.5"/>
<text text-anchor="start" x="3111" y="-141.5" font-family="Helvetica,sans-Serif" font-size="10.00">src/execution/redirection</text>
<text text-anchor="middle" x="3171.5" y="-130.5" font-family="Helvetica,sans-Serif" font-size="10.00">_multipipe.c</text>
</a>
</g>
</g>
<!-- Node1&#45;&gt;Node25 -->
<g id="edge24" class="edge">
<title>Node1&#45;&gt;Node25</title>
<path fill="none" stroke="midnightblue" d="M1938.91,-197.82C2160.78,-193.75 2866.97,-179.09 3093.5,-154 3096.51,-153.67 3099.58,-153.28 3102.68,-152.86"/>
<polygon fill="midnightblue" stroke="midnightblue" points="1938.65,-194.33 1928.72,-198.01 1938.78,-201.33 1938.65,-194.33"/>
</g>
<!-- Node26 -->
<g id="node26" class="node">
<title>Node26</title>
<g id="a_node26"><a xlink:href="redirection__verification_8c.html" target="_top" xlink:title=" ">
<polygon fill="none" stroke="black" points="3258,-123.5 3258,-153.5 3395,-153.5 3395,-123.5 3258,-123.5"/>
<text text-anchor="start" x="3266" y="-141.5" font-family="Helvetica,sans-Serif" font-size="10.00">src/execution/redirection</text>
<text text-anchor="middle" x="3326.5" y="-130.5" font-family="Helvetica,sans-Serif" font-size="10.00">_verification.c</text>
</a>
</g>
</g>
<!-- Node1&#45;&gt;Node26 -->
<g id="edge25" class="edge">
<title>Node1&#45;&gt;Node26</title>
<path fill="none" stroke="midnightblue" d="M1939.19,-198.14C2179.39,-194.89 2990.32,-182.05 3248.5,-154 3251.51,-153.67 3254.58,-153.29 3257.68,-152.88"/>
<polygon fill="midnightblue" stroke="midnightblue" points="1938.81,-194.65 1928.86,-198.28 1938.9,-201.65 1938.81,-194.65"/>
</g>
<!-- Node27 -->
<g id="node27" class="node">
<title>Node27</title>
<g id="a_node27"><a xlink:href="signals_8c.html" target="_top" xlink:title=" ">
<polygon fill="none" stroke="black" points="3413,-129 3413,-148 3540,-148 3540,-129 3413,-129"/>
<text text-anchor="middle" x="3476.5" y="-136" font-family="Helvetica,sans-Serif" font-size="10.00">src/execution/signals.c</text>
</a>
</g>
</g>
<!-- Node1&#45;&gt;Node27 -->
<g id="edge26" class="edge">
<title>Node1&#45;&gt;Node27</title>
<path fill="none" stroke="midnightblue" d="M1938.98,-198.54C2196.08,-196.55 3114.4,-187.23 3404.5,-154 3416.28,-152.65 3429,-150.37 3440.43,-148.01"/>
<polygon fill="midnightblue" stroke="midnightblue" points="1938.65,-195.04 1928.67,-198.62 1938.7,-202.04 1938.65,-195.04"/>
</g>
<!-- Node28 -->
<g id="node28" class="node">
<title>Node28</title>
<g id="a_node28"><a xlink:href="utils_8c.html" target="_top" xlink:title=" ">
<polygon fill="none" stroke="black" points="3558,-129 3558,-148 3671,-148 3671,-129 3558,-129"/>
<text text-anchor="middle" x="3614.5" y="-136" font-family="Helvetica,sans-Serif" font-size="10.00">src/execution/utils.c</text>
</a>
</g>
</g>
<!-- Node1&#45;&gt;Node28 -->
<g id="edge27" class="edge">
<title>Node1&#45;&gt;Node28</title>
<path fill="none" stroke="midnightblue" d="M1938.98,-198.92C2211.27,-198.35 3229.87,-193.56 3549.5,-154 3560.17,-152.68 3571.67,-150.4 3581.98,-148.04"/>
<polygon fill="midnightblue" stroke="midnightblue" points="1938.84,-195.43 1928.85,-198.94 1938.85,-202.43 1938.84,-195.43"/>
</g>
<!-- Node29 -->
<g id="node29" class="node">
<title>Node29</title>
<g id="a_node29"><a xlink:href="main_8c.html" target="_top" xlink:title=" ">
<polygon fill="none" stroke="black" points="3704,-0.5 3704,-19.5 3771,-19.5 3771,-0.5 3704,-0.5"/>
<text text-anchor="middle" x="3737.5" y="-7.5" font-family="Helvetica,sans-Serif" font-size="10.00">src/main.c</text>
</a>
</g>
</g>
<!-- Node1&#45;&gt;Node29 -->
<g id="edge28" class="edge">
<title>Node1&#45;&gt;Node29</title>
<path fill="none" stroke="midnightblue" d="M1938.78,-198.33C2262.31,-195.01 3644.08,-179.35 3680.5,-154 3726.78,-121.78 3735.49,-45.53 3737.13,-19.72"/>
<polygon fill="midnightblue" stroke="midnightblue" points="1938.58,-194.84 1928.61,-198.44 1938.65,-201.84 1938.58,-194.84"/>
</g>
<!-- Node30 -->
<g id="node30" class="node">
<title>Node30</title>
<g id="a_node30"><a xlink:href="parsing_8h.html" target="_top" xlink:title=" ">
<polygon fill="none" stroke="black" points="4581,-129 4581,-148 4686,-148 4686,-129 4581,-129"/>
<text text-anchor="middle" x="4633.5" y="-136" font-family="Helvetica,sans-Serif" font-size="10.00">includes/parsing.h</text>
</a>
</g>
</g>
<!-- Node1&#45;&gt;Node30 -->
<g id="edge29" class="edge">
<title>Node1&#45;&gt;Node30</title>
<path fill="none" stroke="midnightblue" d="M1938.68,-197.55C2323.02,-189.27 4238.03,-148.02 4580.9,-140.63"/>
<polygon fill="midnightblue" stroke="midnightblue" points="1938.48,-194.06 1928.55,-197.77 1938.63,-201.05 1938.48,-194.06"/>
</g>
<!-- Node43 -->
<g id="node43" class="node">
<title>Node43</title>
<g id="a_node43"><a xlink:href="parsing__helpers_8h.html" target="_top" xlink:title=" ">
<polygon fill="none" stroke="black" points="5483.5,-62 5483.5,-81 5629.5,-81 5629.5,-62 5483.5,-62"/>
<text text-anchor="middle" x="5556.5" y="-69" font-family="Helvetica,sans-Serif" font-size="10.00">includes/parsing_helpers.h</text>
</a>
</g>
</g>
<!-- Node1&#45;&gt;Node43 -->
<g id="edge46" class="edge">
<title>Node1&#45;&gt;Node43</title>
<path fill="none" stroke="midnightblue" d="M1938.67,-198.57C2311.9,-196.07 4133.92,-182.59 4695.5,-154 5042.55,-136.33 5129.95,-132.19 5474.5,-87 5486.83,-85.38 5500.13,-83.22 5512.35,-81.05"/>
<polygon fill="midnightblue" stroke="midnightblue" points="1938.55,-195.07 1928.57,-198.64 1938.59,-202.07 1938.55,-195.07"/>
</g>
<!-- Node30&#45;&gt;Node29 -->
<g id="edge38" class="edge">
<title>Node30&#45;&gt;Node29</title>
<path fill="none" stroke="midnightblue" d="M4570.89,-138.06C4380.9,-139.21 3820.06,-138.17 3757.5,-87 3737.22,-70.42 3736.11,-35.96 3736.82,-19.77"/>
<polygon fill="midnightblue" stroke="midnightblue" points="4571.02,-141.56 4581,-138 4570.98,-134.56 4571.02,-141.56"/>
</g>
<!-- Node31 -->
<g id="node31" class="node">
<title>Node31</title>
<g id="a_node31"><a xlink:href="expand_8c.html" target="_top" xlink:title=" ">
<polygon fill="none" stroke="black" points="3766,-62 3766,-81 3883,-81 3883,-62 3766,-62"/>
<text text-anchor="middle" x="3824.5" y="-69" font-family="Helvetica,sans-Serif" font-size="10.00">src/expand/expand.c</text>
</a>
</g>
</g>
<!-- Node30&#45;&gt;Node31 -->
<g id="edge30" class="edge">
<title>Node30&#45;&gt;Node31</title>
<path fill="none" stroke="midnightblue" d="M4570.65,-136.22C4442.51,-132.96 4142.1,-121.94 3892.5,-87 3881.86,-85.51 3870.4,-83.3 3859.98,-81.06"/>
<polygon fill="midnightblue" stroke="midnightblue" points="4570.59,-139.72 4580.68,-136.47 4570.77,-132.73 4570.59,-139.72"/>
</g>
<!-- Node32 -->
<g id="node32" class="node">
<title>Node32</title>
<g id="a_node32"><a xlink:href="expand__dollar_8c.html" target="_top" xlink:title=" ">
<polygon fill="none" stroke="black" points="3901,-62 3901,-81 4050,-81 4050,-62 3901,-62"/>
<text text-anchor="middle" x="3975.5" y="-69" font-family="Helvetica,sans-Serif" font-size="10.00">src/expand/expand_dollar.c</text>
</a>
</g>
</g>
<!-- Node30&#45;&gt;Node32 -->
<g id="edge31" class="edge">
<title>Node30&#45;&gt;Node32</title>
<path fill="none" stroke="midnightblue" d="M4570.53,-133.68C4464.69,-126.87 4244.55,-111.07 4059.5,-87 4046.88,-85.36 4033.26,-83.18 4020.73,-81.02"/>
<polygon fill="midnightblue" stroke="midnightblue" points="4570.51,-137.19 4580.71,-134.33 4570.96,-130.2 4570.51,-137.19"/>
</g>
<!-- Node33 -->
<g id="node33" class="node">
<title>Node33</title>
<g id="a_node33"><a xlink:href="expand__word_8c.html" target="_top" xlink:title=" ">
<polygon fill="none" stroke="black" points="4068.5,-62 4068.5,-81 4214.5,-81 4214.5,-62 4068.5,-62"/>
<text text-anchor="middle" x="4141.5" y="-69" font-family="Helvetica,sans-Serif" font-size="10.00">src/expand/expand_word.c</text>
</a>
</g>
</g>
<!-- Node30&#45;&gt;Node33 -->
<g id="edge32" class="edge">
<title>Node30&#45;&gt;Node33</title>
<path fill="none" stroke="midnightblue" d="M4570.98,-130.83C4490.46,-122.01 4346.27,-105.4 4223.5,-87 4211.78,-85.24 4199.15,-83.12 4187.4,-81.05"/>
<polygon fill="midnightblue" stroke="midnightblue" points="4570.64,-134.31 4580.96,-131.92 4571.4,-127.36 4570.64,-134.31"/>
</g>
<!-- Node34 -->
<g id="node34" class="node">
<title>Node34</title>
<g id="a_node34"><a xlink:href="lexer_8c.html" target="_top" xlink:title=" ">
<polygon fill="none" stroke="black" points="4232.5,-62 4232.5,-81 4330.5,-81 4330.5,-62 4232.5,-62"/>
<text text-anchor="middle" x="4281.5" y="-69" font-family="Helvetica,sans-Serif" font-size="10.00">src/lexing/lexer.c</text>
</a>
</g>
</g>
<!-- Node30&#45;&gt;Node34 -->
<g id="edge33" class="edge">
<title>Node30&#45;&gt;Node34</title>
<path fill="none" stroke="midnightblue" d="M4570.9,-128.02C4511.41,-118.7 4419.55,-103.51 4340.5,-87 4332.03,-85.23 4322.94,-83.11 4314.48,-81.04"/>
<polygon fill="midnightblue" stroke="midnightblue" points="4570.47,-131.49 4580.89,-129.57 4571.55,-124.58 4570.47,-131.49"/>
</g>
<!-- Node35 -->
<g id="node35" class="node">
<title>Node35</title>
<g id="a_node35"><a xlink:href="lexer__utils_8c.html" target="_top" xlink:title=" ">
<polygon fill="none" stroke="black" points="4349,-62 4349,-81 4474,-81 4474,-62 4349,-62"/>
<text text-anchor="middle" x="4411.5" y="-69" font-family="Helvetica,sans-Serif" font-size="10.00">src/lexing/lexer_utils.c</text>
</a>
</g>
</g>
<!-- Node30&#45;&gt;Node35 -->
<g id="edge34" class="edge">
<title>Node30&#45;&gt;Node35</title>
<path fill="none" stroke="midnightblue" d="M4594.26,-126.01C4550.32,-113.15 4480.13,-92.59 4440.75,-81.06"/>
<polygon fill="midnightblue" stroke="midnightblue" points="4593.44,-129.42 4604.02,-128.87 4595.41,-122.7 4593.44,-129.42"/>
</g>
<!-- Node36 -->
<g id="node36" class="node">
<title>Node36</title>
<g id="a_node36"><a xlink:href="lexer__word_8c.html" target="_top" xlink:title=" ">
<polygon fill="none" stroke="black" points="4492.5,-62 4492.5,-81 4620.5,-81 4620.5,-62 4492.5,-62"/>
<text text-anchor="middle" x="4556.5" y="-69" font-family="Helvetica,sans-Serif" font-size="10.00">src/lexing/lexer_word.c</text>
</a>
</g>
</g>
<!-- Node30&#45;&gt;Node36 -->
<g id="edge35" class="edge">
<title>Node30&#45;&gt;Node36</title>
<path fill="none" stroke="midnightblue" d="M4615.39,-122.21C4600.22,-109.41 4579.11,-91.59 4566.72,-81.13"/>
<polygon fill="midnightblue" stroke="midnightblue" points="4613.22,-124.96 4623.12,-128.73 4617.73,-119.61 4613.22,-124.96"/>
</g>
<!-- Node37 -->
<g id="node37" class="node">
<title>Node37</title>
<g id="a_node37"><a xlink:href="string__builder_8c.html" target="_top" xlink:title=" ">
<polygon fill="none" stroke="black" points="4639,-62 4639,-81 4780,-81 4780,-62 4639,-62"/>
<text text-anchor="middle" x="4709.5" y="-69" font-family="Helvetica,sans-Serif" font-size="10.00">src/lexing/string_builder.c</text>
</a>
</g>
</g>
<!-- Node30&#45;&gt;Node37 -->
<g id="edge36" class="edge">
<title>Node30&#45;&gt;Node37</title>
<path fill="none" stroke="midnightblue" d="M4651.37,-122.21C4666.35,-109.41 4687.18,-91.59 4699.41,-81.13"/>
<polygon fill="midnightblue" stroke="midnightblue" points="4649.07,-119.57 4643.75,-128.73 4653.62,-124.89 4649.07,-119.57"/>
</g>
<!-- Node38 -->
<g id="node38" class="node">
<title>Node38</title>
<g id="a_node38"><a xlink:href="token__utils_8c.html" target="_top" xlink:title=" ">
<polygon fill="none" stroke="black" points="4798.5,-62 4798.5,-81 4926.5,-81 4926.5,-62 4798.5,-62"/>
<text text-anchor="middle" x="4862.5" y="-69" font-family="Helvetica,sans-Serif" font-size="10.00">src/lexing/token_utils.c</text>
</a>
</g>
</g>
<!-- Node30&#45;&gt;Node38 -->
<g id="edge37" class="edge">
<title>Node30&#45;&gt;Node38</title>
<path fill="none" stroke="midnightblue" d="M4673.69,-126.09C4719,-113.23 4791.62,-92.62 4832.33,-81.06"/>
<polygon fill="midnightblue" stroke="midnightblue" points="4672.57,-122.77 4663.91,-128.87 4674.49,-129.5 4672.57,-122.77"/>
</g>
<!-- Node39 -->
<g id="node39" class="node">
<title>Node39</title>
<g id="a_node39"><a xlink:href="argv__builder_8c.html" target="_top" xlink:title=" ">
<polygon fill="none" stroke="black" points="4945,-62 4945,-81 5086,-81 5086,-62 4945,-62"/>
<text text-anchor="middle" x="5015.5" y="-69" font-family="Helvetica,sans-Serif" font-size="10.00">src/parsing/argv_builder.c</text>
</a>
</g>
</g>
<!-- Node30&#45;&gt;Node39 -->
<g id="edge39" class="edge">
<title>Node30&#45;&gt;Node39</title>
<path fill="none" stroke="midnightblue" d="M4695.78,-127.34C4756.88,-117.31 4852.65,-101.43 4935.5,-87 4946.35,-85.11 4958.01,-83.03 4968.99,-81.04"/>
<polygon fill="midnightblue" stroke="midnightblue" points="4695.21,-123.89 4685.91,-128.96 4696.35,-130.79 4695.21,-123.89"/>
</g>
<!-- Node40 -->
<g id="node40" class="node">
<title>Node40</title>
<g id="a_node40"><a xlink:href="parser_8c.html" target="_top" xlink:title=" ">
<polygon fill="none" stroke="black" points="5104,-62 5104,-81 5215,-81 5215,-62 5104,-62"/>
<text text-anchor="middle" x="5159.5" y="-69" font-family="Helvetica,sans-Serif" font-size="10.00">src/parsing/parser.c</text>
</a>
</g>
</g>
<!-- Node30&#45;&gt;Node40 -->
<g id="edge40" class="edge">
<title>Node30&#45;&gt;Node40</title>
<path fill="none" stroke="midnightblue" d="M4696.29,-132.92C4785.46,-125.9 4953.69,-110.73 5095.5,-87 5105.16,-85.38 5115.56,-83.22 5125.1,-81.05"/>
<polygon fill="midnightblue" stroke="midnightblue" points="4695.78,-129.45 4686.08,-133.71 4696.32,-136.43 4695.78,-129.45"/>
</g>
<!-- Node41 -->
<g id="node41" class="node">
<title>Node41</title>
<g id="a_node41"><a xlink:href="parser__utils_8c.html" target="_top" xlink:title=" ">
<polygon fill="none" stroke="black" points="5233.5,-56.5 5233.5,-86.5 5337.5,-86.5 5337.5,-56.5 5233.5,-56.5"/>
<text text-anchor="start" x="5241.5" y="-74.5" font-family="Helvetica,sans-Serif" font-size="10.00">src/parsing/parser</text>
<text text-anchor="middle" x="5285.5" y="-63.5" font-family="Helvetica,sans-Serif" font-size="10.00">_utils.c</text>
</a>
</g>
</g>
<!-- Node30&#45;&gt;Node41 -->
<g id="edge41" class="edge">
<title>Node30&#45;&gt;Node41</title>
<path fill="none" stroke="midnightblue" d="M4696.51,-135.18C4804.97,-130.51 5033.66,-117.66 5224.5,-87 5227.4,-86.53 5230.37,-86 5233.36,-85.43"/>
<polygon fill="midnightblue" stroke="midnightblue" points="4696.24,-131.69 4686.4,-135.61 4696.54,-138.68 4696.24,-131.69"/>
</g>
<!-- Node42 -->
<g id="node42" class="node">
<title>Node42</title>
<g id="a_node42"><a xlink:href="parsing__error_8c.html" target="_top" xlink:title=" ">
<polygon fill="none" stroke="black" points="5356,-56.5 5356,-86.5 5465,-86.5 5465,-56.5 5356,-56.5"/>
<text text-anchor="start" x="5364" y="-74.5" font-family="Helvetica,sans-Serif" font-size="10.00">src/parsing/parsing</text>
<text text-anchor="middle" x="5410.5" y="-63.5" font-family="Helvetica,sans-Serif" font-size="10.00">_error.c</text>
</a>
</g>
</g>
<!-- Node30&#45;&gt;Node42 -->
<g id="edge42" class="edge">
<title>Node30&#45;&gt;Node42</title>
<path fill="none" stroke="midnightblue" d="M4696.24,-136.26C4820.83,-133.09 5107.99,-122.26 5346.5,-87 5349.54,-86.55 5352.66,-86.03 5355.79,-85.47"/>
<polygon fill="midnightblue" stroke="midnightblue" points="4696.04,-132.76 4686.13,-136.51 4696.21,-139.76 4696.04,-132.76"/>
</g>
<!-- Node30&#45;&gt;Node43 -->
<g id="edge43" class="edge">
<title>Node30&#45;&gt;Node43</title>
<path fill="none" stroke="midnightblue" d="M4696.28,-136.08C4835.34,-132.48 5179.24,-120.79 5465.5,-87 5478.28,-85.49 5492.08,-83.28 5505.03,-81.04"/>
<polygon fill="midnightblue" stroke="midnightblue" points="4696.14,-132.58 4686.23,-136.33 4696.31,-139.58 4696.14,-132.58"/>
</g>
<!-- Node43&#45;&gt;Node29 -->
<g id="edge44" class="edge">
<title>Node43&#45;&gt;Node29</title>
<path fill="none" stroke="midnightblue" d="M5505.38,-60.25C5495.19,-58.55 5484.53,-57.01 5474.5,-56 5126.33,-20.9 3982.64,-12.46 3771.26,-11.19"/>
<polygon fill="midnightblue" stroke="midnightblue" points="5504.92,-63.72 5515.37,-61.99 5506.12,-56.83 5504.92,-63.72"/>
</g>
<!-- Node43&#45;&gt;Node30 -->
<g id="edge45" class="edge">
<title>Node43&#45;&gt;Node30</title>
<path fill="none" stroke="midnightblue" d="M5512.27,-82.8C5502.82,-84.41 5492.88,-85.89 5483.5,-87 5183.54,-122.41 4820.29,-133.55 4686.3,-136.54"/>
<polygon fill="midnightblue" stroke="midnightblue" points="5513.04,-86.22 5522.28,-81.04 5511.82,-79.33 5513.04,-86.22"/>
</g>
</g>
</svg>
