<?xml version="1.0" encoding="UTF-8" standalone="no"?>
<!DOCTYPE svg PUBLIC "-//W3C//DTD SVG 1.1//EN"
 "http://www.w3.org/Graphics/SVG/1.1/DTD/svg11.dtd">
<!-- Generated by graphviz version 2.43.0 (0)
 -->
<!-- Title: execute_child Pages: 1 -->
<!--zoomable 636 -->
<svg id="main" version="1.1" xmlns="http://www.w3.org/2000/svg" xmlns:xlink="http://www.w3.org/1999/xlink" xml:space="preserve" onload="init(evt)">
<style type="text/css"><![CDATA[
.edge:hover path { stroke: red; }
.edge:hover polygon { stroke: red; fill: red; }
]]></style>
<script type="text/javascript"><![CDATA[
var edges = document.getElementsByTagName('g');
if (edges && edges.length) {
  for (var i=0;i<edges.length;i++) {
    if (edges[i].id.substr(0,4)=='edge') {
      edges[i].setAttribute('class','edge');
    }
  }
}
]]></script>
        <defs>
                <circle id="rim" cx="0" cy="0" r="7"/>
                <circle id="rim2" cx="0" cy="0" r="3.5"/>
                <g id="zoomPlus">
                        <use xlink:href="#rim" fill="#404040">
                                <set attributeName="fill" to="#808080" begin="zoomplus.mouseover" end="zoomplus.mouseout"/>
                        </use>
                        <path d="M-4,0h8M0,-4v8" fill="none" stroke="white" stroke-width="1.5" pointer-events="none"/>
                </g>
                <g id="zoomMin">
                        <use xlink:href="#rim" fill="#404040">
                                <set attributeName="fill" to="#808080" begin="zoomminus.mouseover" end="zoomminus.mouseout"/>
                        </use>
                        <path d="M-4,0h8" fill="none" stroke="white" stroke-width="1.5" pointer-events="none"/>
                </g>
                <g id="dirArrow">
                        <path fill="none" stroke="white" stroke-width="1.5" d="M0,-3.0v7 M-2.5,-0.5L0,-3.0L2.5,-0.5"/>
                </g>
               <g id="resetDef">
                       <use xlink:href="#rim2" fill="#404040">
                               <set attributeName="fill" to="#808080" begin="reset.mouseover" end="reset.mouseout"/>
                       </use>
               </g>
        </defs>

<script type="text/javascript">
var viewWidth = 1186;
var viewHeight = 636;
var sectionId = 'dynsection-4';
</script>
<script xlink:href="svgpan.js"/>
<svg id="graph" class="graph">
<g id="viewport">
<title>execute_child</title>
<!-- Node1 -->
<g id="node1" class="node">
<title>Node1</title>
<g id="a_node1"><a xlink:title=" ">
<polygon fill="#bfbfbf" stroke="black" points="0,-475.5 0,-494.5 83,-494.5 83,-475.5 0,-475.5"/>
<text text-anchor="middle" x="41.5" y="-482.5" font-family="Helvetica,sans-Serif" font-size="10.00">execute_child</text>
</a>
</g>
</g>
<!-- Node2 -->
<g id="node2" class="node">
<title>Node2</title>
<g id="a_node2"><a xlink:href="multipipe_8c.html#ac70e2499b8aeb789658ff4596ded7221" target="_top" xlink:title="as we are going to fork and create process, the new process will have inherited of all the opened fd....">
<polygon fill="none" stroke="black" points="119,-570.5 119,-589.5 226,-589.5 226,-570.5 119,-570.5"/>
<text text-anchor="middle" x="172.5" y="-577.5" font-family="Helvetica,sans-Serif" font-size="10.00">close_fd_heredocs</text>
</a>
</g>
</g>
<!-- Node1&#45;&gt;Node2 -->
<g id="edge1" class="edge">
<title>Node1&#45;&gt;Node2</title>
<path fill="none" stroke="midnightblue" d="M51.1,-494.78C64.48,-509.53 91.57,-537.69 119,-556 124.53,-559.69 130.71,-563.07 136.84,-566.07"/>
<polygon fill="midnightblue" stroke="midnightblue" points="135.78,-569.43 146.33,-570.44 138.71,-563.08 135.78,-569.43"/>
</g>
<!-- Node3 -->
<g id="node3" class="node">
<title>Node3</title>
<g id="a_node3"><a xlink:href="redirection__multipipe_8c.html#a26c96266f1645047a9bdd9af22de94a7" target="_top" xlink:title=" ">
<polygon fill="none" stroke="black" points="817.5,-551.5 817.5,-570.5 925.5,-570.5 925.5,-551.5 817.5,-551.5"/>
<text text-anchor="middle" x="871.5" y="-558.5" font-family="Helvetica,sans-Serif" font-size="10.00">command_redirect</text>
</a>
</g>
</g>
<!-- Node1&#45;&gt;Node3 -->
<g id="edge2" class="edge">
<title>Node1&#45;&gt;Node3</title>
<path fill="none" stroke="midnightblue" d="M69.21,-494.54C117.1,-510.77 221.04,-542 311.5,-542 311.5,-542 311.5,-542 580,-542 658.31,-542 748.25,-548.96 807.05,-554.46"/>
<polygon fill="midnightblue" stroke="midnightblue" points="807.01,-557.97 817.29,-555.43 807.67,-551 807.01,-557.97"/>
</g>
<!-- Node7 -->
<g id="node7" class="node">
<title>Node7</title>
<g id="a_node7"><a xlink:href="lst__cmd2_8c.html#a132395876bb5a7cfe926b9e37571a1e3" target="_top" xlink:title=" ">
<polygon fill="none" stroke="black" points="533,-494.5 533,-513.5 625,-513.5 625,-494.5 533,-494.5"/>
<text text-anchor="middle" x="579" y="-501.5" font-family="Helvetica,sans-Serif" font-size="10.00">destructor_cmd</text>
</a>
</g>
</g>
<!-- Node1&#45;&gt;Node7 -->
<g id="edge8" class="edge">
<title>Node1&#45;&gt;Node7</title>
<path fill="none" stroke="midnightblue" d="M83.19,-486.44C178.24,-489.82 414.97,-498.22 522.85,-502.04"/>
<polygon fill="midnightblue" stroke="midnightblue" points="522.76,-505.54 532.88,-502.4 523.01,-498.55 522.76,-505.54"/>
</g>
<!-- Node11 -->
<g id="node11" class="node">
<title>Node11</title>
<g id="a_node11"><a xlink:href="lst__env_8c.html#a226ae0aa054e697998b2ecbc5d61d592" target="_top" xlink:title=" ">
<polygon fill="none" stroke="black" points="534.5,-456.5 534.5,-475.5 623.5,-475.5 623.5,-456.5 534.5,-456.5"/>
<text text-anchor="middle" x="579" y="-463.5" font-family="Helvetica,sans-Serif" font-size="10.00">destructor_env</text>
</a>
</g>
</g>
<!-- Node1&#45;&gt;Node11 -->
<g id="edge14" class="edge">
<title>Node1&#45;&gt;Node11</title>
<path fill="none" stroke="midnightblue" d="M83.19,-483.56C178.62,-480.17 416.84,-471.72 524.13,-467.91"/>
<polygon fill="midnightblue" stroke="midnightblue" points="524.53,-471.4 534.4,-467.55 524.28,-464.4 524.53,-471.4"/>
</g>
<!-- Node13 -->
<g id="node13" class="node">
<title>Node13</title>
<g id="a_node13"><a xlink:href="execution__node_8c.html#adda76b40c34c18ec83b1d98700083f8a" target="_top" xlink:title="we are going to execute the command here we have a security about absolute path given =&gt; because it&#39;s...">
<polygon fill="none" stroke="black" points="126,-133.5 126,-152.5 219,-152.5 219,-133.5 126,-133.5"/>
<text text-anchor="middle" x="172.5" y="-140.5" font-family="Helvetica,sans-Serif" font-size="10.00">execution_node</text>
</a>
</g>
</g>
<!-- Node1&#45;&gt;Node13 -->
<g id="edge16" class="edge">
<title>Node1&#45;&gt;Node13</title>
<path fill="none" stroke="midnightblue" d="M46.08,-475.5C63.59,-429.09 140.19,-226 164.25,-162.23"/>
<polygon fill="midnightblue" stroke="midnightblue" points="167.62,-163.21 167.87,-152.62 161.07,-160.74 167.62,-163.21"/>
</g>
<!-- Node43 -->
<g id="node43" class="node">
<title>Node43</title>
<g id="a_node43"><a xlink:href="signals_8c.html#a368a774e2b304a3de55f58168563967d" target="_top" xlink:title=" ">
<polygon fill="none" stroke="black" points="126.5,-95.5 126.5,-114.5 218.5,-114.5 218.5,-95.5 126.5,-95.5"/>
<text text-anchor="middle" x="172.5" y="-102.5" font-family="Helvetica,sans-Serif" font-size="10.00">sigquit_handler</text>
</a>
</g>
</g>
<!-- Node1&#45;&gt;Node43 -->
<g id="edge53" class="edge">
<title>Node1&#45;&gt;Node43</title>
<path fill="none" stroke="midnightblue" d="M43.3,-475.31C47.73,-423.47 70.95,-179.21 119,-124 120.16,-122.67 121.42,-121.43 122.76,-120.28"/>
<polygon fill="midnightblue" stroke="midnightblue" points="124.86,-123.08 131.18,-114.58 120.94,-117.29 124.86,-123.08"/>
</g>
<!-- Node4 -->
<g id="node4" class="node">
<title>Node4</title>
<g id="a_node4"><a xlink:href="redirection__multipipe_8c.html#a3a0d7f695cf53df46301e14ffab77638" target="_top" xlink:title=" ">
<polygon fill="none" stroke="black" points="968.5,-608.5 968.5,-627.5 1057.5,-627.5 1057.5,-608.5 968.5,-608.5"/>
<text text-anchor="middle" x="1013" y="-615.5" font-family="Helvetica,sans-Serif" font-size="10.00">close_previous</text>
</a>
</g>
</g>
<!-- Node3&#45;&gt;Node4 -->
<g id="edge3" class="edge">
<title>Node3&#45;&gt;Node4</title>
<path fill="none" stroke="midnightblue" d="M894.74,-570.54C913.02,-578.33 939.61,-589.56 963,-599 967.74,-600.91 972.76,-602.9 977.7,-604.84"/>
<polygon fill="midnightblue" stroke="midnightblue" points="976.43,-608.1 987.02,-608.47 978.97,-601.58 976.43,-608.1"/>
</g>
<!-- Node5 -->
<g id="node5" class="node">
<title>Node5</title>
<g id="a_node5"><a xlink:href="redirection__multipipe_8c.html#a1bca6910c90a19d96b36506a2e2cebf6" target="_top" xlink:title="as fd are all setup to &#45;1 at the beginning we check if they are open before trying to close we avoid ...">
<polygon fill="none" stroke="black" points="1104,-532.5 1104,-551.5 1173,-551.5 1173,-532.5 1104,-532.5"/>
<text text-anchor="middle" x="1138.5" y="-539.5" font-family="Helvetica,sans-Serif" font-size="10.00">ft_close_fd</text>
</a>
</g>
</g>
<!-- Node3&#45;&gt;Node5 -->
<g id="edge7" class="edge">
<title>Node3&#45;&gt;Node5</title>
<path fill="none" stroke="midnightblue" d="M925.81,-557.18C975.17,-553.64 1047.68,-548.44 1093.73,-545.14"/>
<polygon fill="midnightblue" stroke="midnightblue" points="1094.26,-548.61 1103.99,-544.4 1093.76,-541.63 1094.26,-548.61"/>
</g>
<!-- Node6 -->
<g id="node6" class="node">
<title>Node6</title>
<g id="a_node6"><a xlink:href="redirection__multipipe_8c.html#a5b749bc2b4088984c0efe1c479ae6ec8" target="_top" xlink:title=" ">
<polygon fill="none" stroke="black" points="973,-570.5 973,-589.5 1053,-589.5 1053,-570.5 973,-570.5"/>
<text text-anchor="middle" x="1013" y="-577.5" font-family="Helvetica,sans-Serif" font-size="10.00">fail_previous</text>
</a>
</g>
</g>
<!-- Node3&#45;&gt;Node6 -->
<g id="edge5" class="edge">
<title>Node3&#45;&gt;Node6</title>
<path fill="none" stroke="midnightblue" d="M925.64,-568.24C937.79,-569.89 950.65,-571.64 962.63,-573.28"/>
<polygon fill="midnightblue" stroke="midnightblue" points="962.51,-576.79 972.9,-574.67 963.46,-569.86 962.51,-576.79"/>
</g>
<!-- Node4&#45;&gt;Node5 -->
<g id="edge4" class="edge">
<title>Node4&#45;&gt;Node5</title>
<path fill="none" stroke="midnightblue" d="M1042.61,-608.47C1049.46,-605.77 1056.63,-602.57 1063,-599 1083.66,-587.41 1104.89,-570.59 1119.38,-558.22"/>
<polygon fill="midnightblue" stroke="midnightblue" points="1121.82,-560.73 1127.07,-551.53 1117.23,-555.45 1121.82,-560.73"/>
</g>
<!-- Node6&#45;&gt;Node5 -->
<g id="edge6" class="edge">
<title>Node6&#45;&gt;Node5</title>
<path fill="none" stroke="midnightblue" d="M1045.16,-570.41C1060.81,-565.6 1079.97,-559.7 1096.77,-554.53"/>
<polygon fill="midnightblue" stroke="midnightblue" points="1097.82,-557.87 1106.35,-551.59 1095.76,-551.18 1097.82,-557.87"/>
</g>
<!-- Node8 -->
<g id="node8" class="node">
<title>Node8</title>
<g id="a_node8"><a xlink:href="lst__cmd2_8c.html#a8e2b63759f149b547e0d07f210ede9b3" target="_top" xlink:title=" ">
<polygon fill="none" stroke="black" points="694.5,-494.5 694.5,-513.5 755.5,-513.5 755.5,-494.5 694.5,-494.5"/>
<text text-anchor="middle" x="725" y="-501.5" font-family="Helvetica,sans-Serif" font-size="10.00">pop_cmd</text>
</a>
</g>
</g>
<!-- Node7&#45;&gt;Node8 -->
<g id="edge9" class="edge">
<title>Node7&#45;&gt;Node8</title>
<path fill="none" stroke="midnightblue" d="M625.17,-504C644.15,-504 666.03,-504 684.37,-504"/>
<polygon fill="midnightblue" stroke="midnightblue" points="684.44,-507.5 694.44,-504 684.44,-500.5 684.44,-507.5"/>
</g>
<!-- Node8&#45;&gt;Node5 -->
<g id="edge13" class="edge">
<title>Node8&#45;&gt;Node5</title>
<path fill="none" stroke="midnightblue" d="M755.59,-506.73C827.15,-513.34 1009.83,-530.21 1093.93,-537.98"/>
<polygon fill="midnightblue" stroke="midnightblue" points="1093.64,-541.46 1103.92,-538.9 1094.28,-534.49 1093.64,-541.46"/>
</g>
<!-- Node9 -->
<g id="node9" class="node">
<title>Node9</title>
<g id="a_node9"><a xlink:href="lst__redir2_8c.html#a30ccaf401a4f897e48ead5fe54f4b307" target="_top" xlink:title=" ">
<polygon fill="none" stroke="black" points="824.5,-456.5 824.5,-475.5 918.5,-475.5 918.5,-456.5 824.5,-456.5"/>
<text text-anchor="middle" x="871.5" y="-463.5" font-family="Helvetica,sans-Serif" font-size="10.00">destructor_redir</text>
</a>
</g>
</g>
<!-- Node8&#45;&gt;Node9 -->
<g id="edge10" class="edge">
<title>Node8&#45;&gt;Node9</title>
<path fill="none" stroke="midnightblue" d="M755.59,-496.22C775.44,-491 801.99,-484.02 824.56,-478.08"/>
<polygon fill="midnightblue" stroke="midnightblue" points="825.51,-481.45 834.29,-475.52 823.73,-474.68 825.51,-481.45"/>
</g>
<!-- Node10 -->
<g id="node10" class="node">
<title>Node10</title>
<g id="a_node10"><a xlink:href="lst__redir2_8c.html#ade8f0bdda51d9bf348ebeb38fefba881" target="_top" xlink:title=" ">
<polygon fill="none" stroke="black" points="982,-456.5 982,-475.5 1044,-475.5 1044,-456.5 982,-456.5"/>
<text text-anchor="middle" x="1013" y="-463.5" font-family="Helvetica,sans-Serif" font-size="10.00">pop_redir</text>
</a>
</g>
</g>
<!-- Node9&#45;&gt;Node10 -->
<g id="edge11" class="edge">
<title>Node9&#45;&gt;Node10</title>
<path fill="none" stroke="midnightblue" d="M918.56,-466C935.62,-466 954.82,-466 971.36,-466"/>
<polygon fill="midnightblue" stroke="midnightblue" points="971.8,-469.5 981.8,-466 971.8,-462.5 971.8,-469.5"/>
</g>
<!-- Node10&#45;&gt;Node5 -->
<g id="edge12" class="edge">
<title>Node10&#45;&gt;Node5</title>
<path fill="none" stroke="midnightblue" d="M1035.36,-475.58C1044.09,-479.72 1054.19,-484.81 1063,-490 1081.79,-501.07 1102.02,-515.36 1116.65,-526.15"/>
<polygon fill="midnightblue" stroke="midnightblue" points="1114.87,-529.19 1124.98,-532.36 1119.06,-523.58 1114.87,-529.19"/>
</g>
<!-- Node12 -->
<g id="node12" class="node">
<title>Node12</title>
<g id="a_node12"><a xlink:href="lst__env_8c.html#a058c245b5f2ef22f9d2659f90e4d3537" target="_top" xlink:title=" ">
<polygon fill="none" stroke="black" points="696,-456.5 696,-475.5 754,-475.5 754,-456.5 696,-456.5"/>
<text text-anchor="middle" x="725" y="-463.5" font-family="Helvetica,sans-Serif" font-size="10.00">pop_env</text>
</a>
</g>
</g>
<!-- Node11&#45;&gt;Node12 -->
<g id="edge15" class="edge">
<title>Node11&#45;&gt;Node12</title>
<path fill="none" stroke="midnightblue" d="M623.6,-466C643.43,-466 666.69,-466 685.83,-466"/>
<polygon fill="midnightblue" stroke="midnightblue" points="685.99,-469.5 695.99,-466 685.99,-462.5 685.99,-469.5"/>
</g>
<!-- Node14 -->
<g id="node14" class="node">
<title>Node14</title>
<g id="a_node14"><a xlink:href="execution__node_8c.html#a74f4c34ebdc38c1fb50db2aa13f97b66" target="_top" xlink:title=" ">
<polygon fill="none" stroke="black" points="262,-38.5 262,-57.5 363,-57.5 363,-38.5 262,-38.5"/>
<text text-anchor="middle" x="312.5" y="-45.5" font-family="Helvetica,sans-Serif" font-size="10.00">check_accessible</text>
</a>
</g>
</g>
<!-- Node13&#45;&gt;Node14 -->
<g id="edge17" class="edge">
<title>Node13&#45;&gt;Node14</title>
<path fill="none" stroke="midnightblue" d="M209.23,-133.47C215.17,-130.96 221.01,-127.84 226,-124 248.27,-106.85 240.65,-90.29 262,-72 266.31,-68.31 271.28,-65.04 276.37,-62.2"/>
<polygon fill="midnightblue" stroke="midnightblue" points="278.23,-65.18 285.57,-57.53 275.07,-58.94 278.23,-65.18"/>
</g>
<!-- Node15 -->
<g id="node15" class="node">
<title>Node15</title>
<g id="a_node15"><a xlink:href="execution__node_8c.html#adc2c91230d4a0a1a1f98db2a888afcaa" target="_top" xlink:title="error message management for the specific case of execution">
<polygon fill="none" stroke="black" points="399,-38.5 399,-57.5 488,-57.5 488,-38.5 399,-38.5"/>
<text text-anchor="middle" x="443.5" y="-45.5" font-family="Helvetica,sans-Serif" font-size="10.00">message_error</text>
</a>
</g>
</g>
<!-- Node13&#45;&gt;Node15 -->
<g id="edge49" class="edge">
<title>Node13&#45;&gt;Node15</title>
<path fill="none" stroke="midnightblue" d="M202.12,-133.45C209.95,-130.62 218.38,-127.37 226,-124 242.55,-116.68 245.31,-111.97 262,-105 306.21,-86.53 358.6,-70.61 395.53,-60.33"/>
<polygon fill="midnightblue" stroke="midnightblue" points="396.8,-63.61 405.51,-57.58 394.94,-56.86 396.8,-63.61"/>
</g>
<!-- Node16 -->
<g id="node16" class="node">
<title>Node16</title>
<g id="a_node16"><a xlink:href="launcher_8c.html#a3acc0bb56da881cc8609ca9e94ec8e93" target="_top" xlink:title="detect if it&#39;s a builtin with strncmp() but the real question is &quot;is it a builtin I have &#160;to launch i...">
<polygon fill="none" stroke="black" points="276,-0.5 276,-19.5 349,-19.5 349,-0.5 276,-0.5"/>
<text text-anchor="middle" x="312.5" y="-7.5" font-family="Helvetica,sans-Serif" font-size="10.00">is_it_builtin</text>
</a>
</g>
</g>
<!-- Node13&#45;&gt;Node16 -->
<g id="edge19" class="edge">
<title>Node13&#45;&gt;Node16</title>
<path fill="none" stroke="midnightblue" d="M212.22,-133.44C217.28,-130.97 222.06,-127.88 226,-124 258.17,-92.31 230.14,-61 262,-29 263.61,-27.38 265.37,-25.9 267.24,-24.54"/>
<polygon fill="midnightblue" stroke="midnightblue" points="269.18,-27.47 275.99,-19.35 265.6,-21.45 269.18,-27.47"/>
</g>
<!-- Node17 -->
<g id="node17" class="node">
<title>Node17</title>
<g id="a_node17"><a xlink:href="launcher_8c.html#a7bee4f6fbfd70ef7ec1f52856538ac71" target="_top" xlink:title="launch the builtin &#160;&#160;some of them are not present because we have to fork() them why ?...">
<polygon fill="none" stroke="black" points="270,-285.5 270,-304.5 355,-304.5 355,-285.5 270,-285.5"/>
<text text-anchor="middle" x="312.5" y="-292.5" font-family="Helvetica,sans-Serif" font-size="10.00">launch_builtin</text>
</a>
</g>
</g>
<!-- Node13&#45;&gt;Node17 -->
<g id="edge20" class="edge">
<title>Node13&#45;&gt;Node17</title>
<path fill="none" stroke="midnightblue" d="M182.13,-152.51C204.88,-177.57 266.73,-245.68 295.89,-277.8"/>
<polygon fill="midnightblue" stroke="midnightblue" points="293.56,-280.44 302.87,-285.5 298.74,-275.74 293.56,-280.44"/>
</g>
<!-- Node39 -->
<g id="node39" class="node">
<title>Node39</title>
<g id="a_node39"><a xlink:href="lst__env__two_8c.html#aafcce0b2f2958645e84ae23b14116680" target="_top" xlink:title=" ">
<polygon fill="none" stroke="black" points="268.5,-114.5 268.5,-133.5 356.5,-133.5 356.5,-114.5 268.5,-114.5"/>
<text text-anchor="middle" x="312.5" y="-121.5" font-family="Helvetica,sans-Serif" font-size="10.00">lst_to_tab_env</text>
</a>
</g>
</g>
<!-- Node13&#45;&gt;Node39 -->
<g id="edge46" class="edge">
<title>Node13&#45;&gt;Node39</title>
<path fill="none" stroke="midnightblue" d="M219.07,-136.73C231.58,-135 245.26,-133.12 258.17,-131.34"/>
<polygon fill="midnightblue" stroke="midnightblue" points="258.89,-134.78 268.32,-129.95 257.94,-127.84 258.89,-134.78"/>
</g>
<!-- Node42 -->
<g id="node42" class="node">
<title>Node42</title>
<g id="a_node42"><a xlink:href="getenv_8c.html#a5d0cf05c2622983111dcfc0f179c5739" target="_top" xlink:title=" ">
<polygon fill="none" stroke="black" points="274.5,-152.5 274.5,-171.5 350.5,-171.5 350.5,-152.5 274.5,-152.5"/>
<text text-anchor="middle" x="312.5" y="-159.5" font-family="Helvetica,sans-Serif" font-size="10.00">search_path</text>
</a>
</g>
</g>
<!-- Node13&#45;&gt;Node42 -->
<g id="edge50" class="edge">
<title>Node13&#45;&gt;Node42</title>
<path fill="none" stroke="midnightblue" d="M219.07,-149.27C233.47,-151.26 249.42,-153.45 263.96,-155.45"/>
<polygon fill="midnightblue" stroke="midnightblue" points="263.87,-158.98 274.25,-156.87 264.83,-152.04 263.87,-158.98"/>
</g>
<!-- Node14&#45;&gt;Node15 -->
<g id="edge18" class="edge">
<title>Node14&#45;&gt;Node15</title>
<path fill="none" stroke="midnightblue" d="M363.01,-48C371.39,-48 380.13,-48 388.62,-48"/>
<polygon fill="midnightblue" stroke="midnightblue" points="388.82,-51.5 398.82,-48 388.82,-44.5 388.82,-51.5"/>
</g>
<!-- Node18 -->
<g id="node18" class="node">
<title>Node18</title>
<g id="a_node18"><a xlink:href="cd_8c.html#afa3cf8a1d55856208b8d44453d4cf9b4" target="_top" xlink:title=" ">
<polygon fill="none" stroke="black" points="429,-266.5 429,-285.5 458,-285.5 458,-266.5 429,-266.5"/>
<text text-anchor="middle" x="443.5" y="-273.5" font-family="Helvetica,sans-Serif" font-size="10.00">cd</text>
</a>
</g>
</g>
<!-- Node17&#45;&gt;Node18 -->
<g id="edge21" class="edge">
<title>Node17&#45;&gt;Node18</title>
<path fill="none" stroke="midnightblue" d="M355.03,-288.88C376.13,-285.78 401.01,-282.11 418.83,-279.49"/>
<polygon fill="midnightblue" stroke="midnightblue" points="419.53,-282.92 428.91,-278 418.51,-276 419.53,-282.92"/>
</g>
<!-- Node23 -->
<g id="node23" class="node">
<title>Node23</title>
<g id="a_node23"><a xlink:href="env_8c.html#a08aa1a32a4d2f6bcca10f6424195d4ef" target="_top" xlink:title=" ">
<polygon fill="none" stroke="black" points="426,-228.5 426,-247.5 461,-247.5 461,-228.5 426,-228.5"/>
<text text-anchor="middle" x="443.5" y="-235.5" font-family="Helvetica,sans-Serif" font-size="10.00">env</text>
</a>
</g>
</g>
<!-- Node17&#45;&gt;Node23 -->
<g id="edge26" class="edge">
<title>Node17&#45;&gt;Node23</title>
<path fill="none" stroke="midnightblue" d="M334.92,-285.44C352.2,-277.73 377.15,-266.63 399,-257 404.7,-254.49 410.83,-251.8 416.63,-249.27"/>
<polygon fill="midnightblue" stroke="midnightblue" points="418.2,-252.4 425.96,-245.19 415.4,-245.99 418.2,-252.4"/>
</g>
<!-- Node24 -->
<g id="node24" class="node">
<title>Node24</title>
<g id="a_node24"><a xlink:href="export_8c.html#a1bb2544b6254ee4ddb592a4cfa61734f" target="_top" xlink:title=" ">
<polygon fill="none" stroke="black" points="408,-380.5 408,-399.5 479,-399.5 479,-380.5 408,-380.5"/>
<text text-anchor="middle" x="443.5" y="-387.5" font-family="Helvetica,sans-Serif" font-size="10.00">export_call</text>
</a>
</g>
</g>
<!-- Node17&#45;&gt;Node24 -->
<g id="edge27" class="edge">
<title>Node17&#45;&gt;Node24</title>
<path fill="none" stroke="midnightblue" d="M322.68,-304.98C337.52,-320.66 368.22,-351.3 399,-371 401.78,-372.78 404.75,-374.46 407.78,-376.04"/>
<polygon fill="midnightblue" stroke="midnightblue" points="406.43,-379.28 416.96,-380.45 409.46,-372.96 406.43,-379.28"/>
</g>
<!-- Node32 -->
<g id="node32" class="node">
<title>Node32</title>
<g id="a_node32"><a xlink:href="my__echo_8c.html#a5522916069f77552d810e207670e3170" target="_top" xlink:title=" ">
<polygon fill="none" stroke="black" points="413,-342.5 413,-361.5 474,-361.5 474,-342.5 413,-342.5"/>
<text text-anchor="middle" x="443.5" y="-349.5" font-family="Helvetica,sans-Serif" font-size="10.00">my_echo</text>
</a>
</g>
</g>
<!-- Node17&#45;&gt;Node32 -->
<g id="edge36" class="edge">
<title>Node17&#45;&gt;Node32</title>
<path fill="none" stroke="midnightblue" d="M334.92,-304.56C352.2,-312.27 377.15,-323.37 399,-333 402.9,-334.72 407.01,-336.52 411.07,-338.3"/>
<polygon fill="midnightblue" stroke="midnightblue" points="409.79,-341.56 420.36,-342.36 412.6,-335.15 409.79,-341.56"/>
</g>
<!-- Node34 -->
<g id="node34" class="node">
<title>Node34</title>
<g id="a_node34"><a xlink:href="exit_8c.html#adcbec3416f97b2d0b8d53cf4c2b2a436" target="_top" xlink:title=" ">
<polygon fill="none" stroke="black" points="415.5,-418.5 415.5,-437.5 471.5,-437.5 471.5,-418.5 415.5,-418.5"/>
<text text-anchor="middle" x="443.5" y="-425.5" font-family="Helvetica,sans-Serif" font-size="10.00">my_exit</text>
</a>
</g>
</g>
<!-- Node17&#45;&gt;Node34 -->
<g id="edge38" class="edge">
<title>Node17&#45;&gt;Node34</title>
<path fill="none" stroke="midnightblue" d="M318.41,-304.57C329.84,-325.98 360.2,-378.29 399,-409 401.17,-410.72 403.51,-412.31 405.95,-413.78"/>
<polygon fill="midnightblue" stroke="midnightblue" points="404.58,-417.01 415.05,-418.58 407.84,-410.82 404.58,-417.01"/>
</g>
<!-- Node36 -->
<g id="node36" class="node">
<title>Node36</title>
<g id="a_node36"><a xlink:href="pwd_8c.html#ac6977235be2514ba716ef89aad796063" target="_top" xlink:title=" ">
<polygon fill="none" stroke="black" points="425,-304.5 425,-323.5 462,-323.5 462,-304.5 425,-304.5"/>
<text text-anchor="middle" x="443.5" y="-311.5" font-family="Helvetica,sans-Serif" font-size="10.00">pwd</text>
</a>
</g>
</g>
<!-- Node17&#45;&gt;Node36 -->
<g id="edge43" class="edge">
<title>Node17&#45;&gt;Node36</title>
<path fill="none" stroke="midnightblue" d="M355.03,-301.12C374.54,-303.99 397.29,-307.34 414.7,-309.9"/>
<polygon fill="midnightblue" stroke="midnightblue" points="414.36,-313.39 424.77,-311.39 415.38,-306.47 414.36,-313.39"/>
</g>
<!-- Node37 -->
<g id="node37" class="node">
<title>Node37</title>
<g id="a_node37"><a xlink:href="unset_8c.html#abcfd4d5a4f0408bdc748ce044e5ce08c" target="_top" xlink:title=" ">
<polygon fill="none" stroke="black" points="410.5,-190.5 410.5,-209.5 476.5,-209.5 476.5,-190.5 410.5,-190.5"/>
<text text-anchor="middle" x="443.5" y="-197.5" font-family="Helvetica,sans-Serif" font-size="10.00">unset_call</text>
</a>
</g>
</g>
<!-- Node17&#45;&gt;Node37 -->
<g id="edge44" class="edge">
<title>Node17&#45;&gt;Node37</title>
<path fill="none" stroke="midnightblue" d="M322.68,-285.02C337.52,-269.34 368.22,-238.7 399,-219 401.78,-217.22 404.75,-215.54 407.78,-213.96"/>
<polygon fill="midnightblue" stroke="midnightblue" points="409.46,-217.04 416.96,-209.55 406.43,-210.72 409.46,-217.04"/>
</g>
<!-- Node19 -->
<g id="node19" class="node">
<title>Node19</title>
<g id="a_node19"><a xlink:href="cd_8c.html#a7593627e795ae769b5117673b60846c9" target="_top" xlink:title=" ">
<polygon fill="none" stroke="black" points="563,-304.5 563,-323.5 595,-323.5 595,-304.5 563,-304.5"/>
<text text-anchor="middle" x="579" y="-311.5" font-family="Helvetica,sans-Serif" font-size="10.00">len</text>
</a>
</g>
</g>
<!-- Node18&#45;&gt;Node19 -->
<g id="edge22" class="edge">
<title>Node18&#45;&gt;Node19</title>
<path fill="none" stroke="midnightblue" d="M458.28,-279.92C480.61,-286.28 525.01,-298.92 553.02,-306.89"/>
<polygon fill="midnightblue" stroke="midnightblue" points="552.29,-310.32 562.87,-309.69 554.21,-303.59 552.29,-310.32"/>
</g>
<!-- Node20 -->
<g id="node20" class="node">
<title>Node20</title>
<g id="a_node20"><a xlink:href="lst__env__two_8c.html#a4d4a14327b2c3ff88099102b6bd77986" target="_top" xlink:title=" ">
<polygon fill="none" stroke="black" points="527,-152.5 527,-171.5 631,-171.5 631,-152.5 527,-152.5"/>
<text text-anchor="middle" x="579" y="-159.5" font-family="Helvetica,sans-Serif" font-size="10.00">research_key_env</text>
</a>
</g>
</g>
<!-- Node18&#45;&gt;Node20 -->
<g id="edge23" class="edge">
<title>Node18&#45;&gt;Node20</title>
<path fill="none" stroke="midnightblue" d="M458.1,-272.78C467.48,-269.96 479.72,-265.03 488,-257 514.83,-230.98 496.23,-206.02 524,-181 525.74,-179.43 527.62,-177.99 529.59,-176.67"/>
<polygon fill="midnightblue" stroke="midnightblue" points="531.7,-179.5 538.74,-171.59 528.3,-173.38 531.7,-179.5"/>
</g>
<!-- Node21 -->
<g id="node21" class="node">
<title>Node21</title>
<g id="a_node21"><a xlink:href="cd_8c.html#a68bb8beb2cf13bb992af8322f31f94e7" target="_top" xlink:title=" ">
<polygon fill="none" stroke="black" points="687,-271.5 687,-290.5 763,-290.5 763,-271.5 687,-271.5"/>
<text text-anchor="middle" x="725" y="-278.5" font-family="Helvetica,sans-Serif" font-size="10.00">update_pwd</text>
</a>
</g>
</g>
<!-- Node18&#45;&gt;Node21 -->
<g id="edge24" class="edge">
<title>Node18&#45;&gt;Node21</title>
<path fill="none" stroke="midnightblue" d="M458.36,-276.25C497.78,-276.95 611.86,-278.99 676.98,-280.16"/>
<polygon fill="midnightblue" stroke="midnightblue" points="676.94,-283.66 687,-280.34 677.06,-276.66 676.94,-283.66"/>
</g>
<!-- Node22 -->
<g id="node22" class="node">
<title>Node22</title>
<g id="a_node22"><a xlink:href="lst__env__two_8c.html#a8cd6579fc3858072521e55ef235a2637" target="_top" xlink:title=" ">
<polygon fill="none" stroke="black" points="816,-280.5 816,-299.5 927,-299.5 927,-280.5 816,-280.5"/>
<text text-anchor="middle" x="871.5" y="-287.5" font-family="Helvetica,sans-Serif" font-size="10.00">research_node_env</text>
</a>
</g>
</g>
<!-- Node21&#45;&gt;Node22 -->
<g id="edge25" class="edge">
<title>Node21&#45;&gt;Node22</title>
<path fill="none" stroke="midnightblue" d="M763.21,-283.32C776.26,-284.13 791.31,-285.07 805.94,-285.98"/>
<polygon fill="midnightblue" stroke="midnightblue" points="805.78,-289.48 815.97,-286.6 806.21,-282.49 805.78,-289.48"/>
</g>
<!-- Node25 -->
<g id="node25" class="node">
<title>Node25</title>
<g id="a_node25"><a xlink:href="export_8c.html#a63ef72e778f2b52c924bf77ae989dc80" target="_top" xlink:title=" ">
<polygon fill="none" stroke="black" points="555,-380.5 555,-399.5 603,-399.5 603,-380.5 555,-380.5"/>
<text text-anchor="middle" x="579" y="-387.5" font-family="Helvetica,sans-Serif" font-size="10.00">export</text>
</a>
</g>
</g>
<!-- Node24&#45;&gt;Node25 -->
<g id="edge28" class="edge">
<title>Node24&#45;&gt;Node25</title>
<path fill="none" stroke="midnightblue" d="M479.23,-390C499.4,-390 524.68,-390 544.62,-390"/>
<polygon fill="midnightblue" stroke="midnightblue" points="544.79,-393.5 554.79,-390 544.79,-386.5 544.79,-393.5"/>
</g>
<!-- Node26 -->
<g id="node26" class="node">
<title>Node26</title>
<g id="a_node26"><a xlink:href="export_8c.html#a077edb8749298d8320620813ff84519c" target="_top" xlink:title=" ">
<polygon fill="none" stroke="black" points="670,-380.5 670,-399.5 780,-399.5 780,-380.5 670,-380.5"/>
<text text-anchor="middle" x="725" y="-387.5" font-family="Helvetica,sans-Serif" font-size="10.00">check_validity_key</text>
</a>
</g>
</g>
<!-- Node25&#45;&gt;Node26 -->
<g id="edge29" class="edge">
<title>Node25&#45;&gt;Node26</title>
<path fill="none" stroke="midnightblue" d="M603.14,-390C618.51,-390 639.5,-390 659.68,-390"/>
<polygon fill="midnightblue" stroke="midnightblue" points="659.81,-393.5 669.81,-390 659.81,-386.5 659.81,-393.5"/>
</g>
<!-- Node27 -->
<g id="node27" class="node">
<title>Node27</title>
<g id="a_node27"><a xlink:href="export_8c.html#a90ff129fee9412bd5c6d74be5970b99f" target="_top" xlink:title=" ">
<polygon fill="none" stroke="black" points="670,-337.5 670,-356.5 780,-356.5 780,-337.5 670,-337.5"/>
<text text-anchor="middle" x="725" y="-344.5" font-family="Helvetica,sans-Serif" font-size="10.00">export_env_update</text>
</a>
</g>
</g>
<!-- Node25&#45;&gt;Node27 -->
<g id="edge30" class="edge">
<title>Node25&#45;&gt;Node27</title>
<path fill="none" stroke="midnightblue" d="M603.14,-383.09C624.4,-376.74 656.44,-367.17 682.18,-359.49"/>
<polygon fill="midnightblue" stroke="midnightblue" points="683.49,-362.75 692.07,-356.54 681.48,-356.04 683.49,-362.75"/>
</g>
<!-- Node27&#45;&gt;Node22 -->
<g id="edge35" class="edge">
<title>Node27&#45;&gt;Node22</title>
<path fill="none" stroke="midnightblue" d="M750.19,-337.46C773.84,-328.13 810.07,-313.84 836.59,-303.38"/>
<polygon fill="midnightblue" stroke="midnightblue" points="838.22,-306.5 846.24,-299.57 835.65,-299.99 838.22,-306.5"/>
</g>
<!-- Node28 -->
<g id="node28" class="node">
<title>Node28</title>
<g id="a_node28"><a xlink:href="export_8c.html#a56cdba320963b2a94cb193c22ca238b7" target="_top" xlink:title=" ">
<polygon fill="none" stroke="black" points="842.5,-337.5 842.5,-356.5 900.5,-356.5 900.5,-337.5 842.5,-337.5"/>
<text text-anchor="middle" x="871.5" y="-344.5" font-family="Helvetica,sans-Serif" font-size="10.00">add_env</text>
</a>
</g>
</g>
<!-- Node27&#45;&gt;Node28 -->
<g id="edge31" class="edge">
<title>Node27&#45;&gt;Node28</title>
<path fill="none" stroke="midnightblue" d="M780.22,-347C797.56,-347 816.38,-347 832.33,-347"/>
<polygon fill="midnightblue" stroke="midnightblue" points="832.36,-350.5 842.35,-347 832.35,-343.5 832.36,-350.5"/>
</g>
<!-- Node29 -->
<g id="node29" class="node">
<title>Node29</title>
<g id="a_node29"><a xlink:href="lst__env_8c.html#a9c375db3cbfe2e87b52bae7ee7472eae" target="_top" xlink:title=" ">
<polygon fill="none" stroke="black" points="963,-356.5 963,-375.5 1063,-375.5 1063,-356.5 963,-356.5"/>
<text text-anchor="middle" x="1013" y="-363.5" font-family="Helvetica,sans-Serif" font-size="10.00">create_node_env</text>
</a>
</g>
</g>
<!-- Node28&#45;&gt;Node29 -->
<g id="edge32" class="edge">
<title>Node28&#45;&gt;Node29</title>
<path fill="none" stroke="midnightblue" d="M900.73,-350.84C915.78,-352.89 934.88,-355.5 952.99,-357.96"/>
<polygon fill="midnightblue" stroke="midnightblue" points="952.53,-361.43 962.92,-359.31 953.48,-354.5 952.53,-361.43"/>
</g>
<!-- Node30 -->
<g id="node30" class="node">
<title>Node30</title>
<g id="a_node30"><a xlink:href="lst__env_8c.html#a5976d1b2a8159220749fac94a83d5c95" target="_top" xlink:title=" ">
<polygon fill="none" stroke="black" points="967,-318.5 967,-337.5 1059,-337.5 1059,-318.5 967,-318.5"/>
<text text-anchor="middle" x="1013" y="-325.5" font-family="Helvetica,sans-Serif" font-size="10.00">push_back_env</text>
</a>
</g>
</g>
<!-- Node28&#45;&gt;Node30 -->
<g id="edge33" class="edge">
<title>Node28&#45;&gt;Node30</title>
<path fill="none" stroke="midnightblue" d="M900.73,-343.16C916.79,-340.97 937.47,-338.15 956.64,-335.54"/>
<polygon fill="midnightblue" stroke="midnightblue" points="957.35,-338.98 966.79,-334.16 956.41,-332.04 957.35,-338.98"/>
</g>
<!-- Node31 -->
<g id="node31" class="node">
<title>Node31</title>
<g id="a_node31"><a xlink:href="env__utils_8c.html#ac7b3f84bb622bdf477616c5b0022f035" target="_top" xlink:title=" ">
<polygon fill="none" stroke="black" points="1099,-318.5 1099,-337.5 1178,-337.5 1178,-318.5 1099,-318.5"/>
<text text-anchor="middle" x="1138.5" y="-325.5" font-family="Helvetica,sans-Serif" font-size="10.00">get_last_env</text>
</a>
</g>
</g>
<!-- Node30&#45;&gt;Node31 -->
<g id="edge34" class="edge">
<title>Node30&#45;&gt;Node31</title>
<path fill="none" stroke="midnightblue" d="M1059.29,-328C1068.79,-328 1078.86,-328 1088.49,-328"/>
<polygon fill="midnightblue" stroke="midnightblue" points="1088.73,-331.5 1098.73,-328 1088.73,-324.5 1088.73,-331.5"/>
</g>
<!-- Node33 -->
<g id="node33" class="node">
<title>Node33</title>
<g id="a_node33"><a xlink:href="my__echo_8c.html#a7c657de7306d33ae5cdab2bf43f35ae1" target="_top" xlink:title=" ">
<polygon fill="none" stroke="black" points="524,-342.5 524,-361.5 634,-361.5 634,-342.5 524,-342.5"/>
<text text-anchor="middle" x="579" y="-349.5" font-family="Helvetica,sans-Serif" font-size="10.00">check_option_echo</text>
</a>
</g>
</g>
<!-- Node32&#45;&gt;Node33 -->
<g id="edge37" class="edge">
<title>Node32&#45;&gt;Node33</title>
<path fill="none" stroke="midnightblue" d="M474.13,-352C485.87,-352 499.87,-352 513.72,-352"/>
<polygon fill="midnightblue" stroke="midnightblue" points="513.74,-355.5 523.74,-352 513.74,-348.5 513.74,-355.5"/>
</g>
<!-- Node34&#45;&gt;Node7 -->
<g id="edge40" class="edge">
<title>Node34&#45;&gt;Node7</title>
<path fill="none" stroke="midnightblue" d="M455.68,-437.6C470.48,-449.92 497.79,-471.35 524,-485 527.97,-487.07 532.22,-489 536.53,-490.78"/>
<polygon fill="midnightblue" stroke="midnightblue" points="535.37,-494.08 545.96,-494.41 537.88,-487.55 535.37,-494.08"/>
</g>
<!-- Node34&#45;&gt;Node11 -->
<g id="edge41" class="edge">
<title>Node34&#45;&gt;Node11</title>
<path fill="none" stroke="midnightblue" d="M471.52,-435.69C489.59,-440.83 513.77,-447.72 534.52,-453.62"/>
<polygon fill="midnightblue" stroke="midnightblue" points="533.81,-457.06 544.39,-456.43 535.73,-450.33 533.81,-457.06"/>
</g>
<!-- Node34&#45;&gt;Node19 -->
<g id="edge42" class="edge">
<title>Node34&#45;&gt;Node19</title>
<path fill="none" stroke="midnightblue" d="M471.65,-419.71C477.55,-416.99 483.39,-413.48 488,-409 514.83,-382.98 496.23,-358.02 524,-333 532,-325.79 542.9,-321.28 552.82,-318.48"/>
<polygon fill="midnightblue" stroke="midnightblue" points="553.72,-321.86 562.63,-316.13 552.09,-315.05 553.72,-321.86"/>
</g>
<!-- Node35 -->
<g id="node35" class="node">
<title>Node35</title>
<g id="a_node35"><a xlink:href="exit_8c.html#a7e369b4894a31549c9b65f718e28823f" target="_top" xlink:title=" ">
<polygon fill="none" stroke="black" points="544.5,-418.5 544.5,-437.5 613.5,-437.5 613.5,-418.5 544.5,-418.5"/>
<text text-anchor="middle" x="579" y="-425.5" font-family="Helvetica,sans-Serif" font-size="10.00">check_exit</text>
</a>
</g>
</g>
<!-- Node34&#45;&gt;Node35 -->
<g id="edge39" class="edge">
<title>Node34&#45;&gt;Node35</title>
<path fill="none" stroke="midnightblue" d="M471.52,-428C489.5,-428 513.55,-428 534.23,-428"/>
<polygon fill="midnightblue" stroke="midnightblue" points="534.39,-431.5 544.39,-428 534.39,-424.5 534.39,-431.5"/>
</g>
<!-- Node38 -->
<g id="node38" class="node">
<title>Node38</title>
<g id="a_node38"><a xlink:href="unset_8c.html#a4b3bbc6cfa6ff293119825a11324fb9f" target="_top" xlink:title=" ">
<polygon fill="none" stroke="black" points="557,-190.5 557,-209.5 601,-209.5 601,-190.5 557,-190.5"/>
<text text-anchor="middle" x="579" y="-197.5" font-family="Helvetica,sans-Serif" font-size="10.00">unset</text>
</a>
</g>
</g>
<!-- Node37&#45;&gt;Node38 -->
<g id="edge45" class="edge">
<title>Node37&#45;&gt;Node38</title>
<path fill="none" stroke="midnightblue" d="M476.82,-200C498.07,-200 525.75,-200 546.78,-200"/>
<polygon fill="midnightblue" stroke="midnightblue" points="546.81,-203.5 556.81,-200 546.81,-196.5 546.81,-203.5"/>
</g>
<!-- Node40 -->
<g id="node40" class="node">
<title>Node40</title>
<g id="a_node40"><a xlink:href="env__utils_8c.html#a7cc35c974bce053dbba1c1ec1028f36b" target="_top" xlink:title=" ">
<polygon fill="none" stroke="black" points="405,-76.5 405,-95.5 482,-95.5 482,-76.5 405,-76.5"/>
<text text-anchor="middle" x="443.5" y="-83.5" font-family="Helvetica,sans-Serif" font-size="10.00">env_lst_size</text>
</a>
</g>
</g>
<!-- Node39&#45;&gt;Node40 -->
<g id="edge47" class="edge">
<title>Node39&#45;&gt;Node40</title>
<path fill="none" stroke="midnightblue" d="M346.05,-114.41C362.4,-109.6 382.41,-103.7 399.96,-98.53"/>
<polygon fill="midnightblue" stroke="midnightblue" points="401.35,-101.77 409.96,-95.59 399.38,-95.05 401.35,-101.77"/>
</g>
<!-- Node41 -->
<g id="node41" class="node">
<title>Node41</title>
<g id="a_node41"><a xlink:href="getenv_8c.html#a0250cce1862c20e31d0c0ece960bc3a0" target="_top" xlink:title=" ">
<polygon fill="none" stroke="black" points="412.5,-114.5 412.5,-133.5 474.5,-133.5 474.5,-114.5 412.5,-114.5"/>
<text text-anchor="middle" x="443.5" y="-121.5" font-family="Helvetica,sans-Serif" font-size="10.00">join_path</text>
</a>
</g>
</g>
<!-- Node39&#45;&gt;Node41 -->
<g id="edge48" class="edge">
<title>Node39&#45;&gt;Node41</title>
<path fill="none" stroke="midnightblue" d="M356.81,-124C371.42,-124 387.66,-124 402.04,-124"/>
<polygon fill="midnightblue" stroke="midnightblue" points="402.13,-127.5 412.13,-124 402.13,-120.5 402.13,-127.5"/>
</g>
<!-- Node42&#45;&gt;Node20 -->
<g id="edge52" class="edge">
<title>Node42&#45;&gt;Node20</title>
<path fill="none" stroke="midnightblue" d="M350.56,-162C393.52,-162 465,-162 516.36,-162"/>
<polygon fill="midnightblue" stroke="midnightblue" points="516.68,-165.5 526.68,-162 516.68,-158.5 516.68,-165.5"/>
</g>
<!-- Node42&#45;&gt;Node41 -->
<g id="edge51" class="edge">
<title>Node42&#45;&gt;Node41</title>
<path fill="none" stroke="midnightblue" d="M346.05,-152.41C363.18,-147.37 384.33,-141.13 402.46,-135.79"/>
<polygon fill="midnightblue" stroke="midnightblue" points="403.57,-139.12 412.17,-132.93 401.59,-132.4 403.57,-139.12"/>
</g>
</g>
</svg>
        <g id="navigator" transform="translate(0 0)" fill="#404254">
                <rect fill="#f2f5e9" fill-opacity="0.5" stroke="#606060" stroke-width=".5" x="0" y="0" width="60" height="60"/>
                <use id="zoomplus" xlink:href="#zoomPlus" x="17" y="9" onmousedown="handleZoom(evt,'in')"/>
                <use id="zoomminus" xlink:href="#zoomMin" x="42" y="9" onmousedown="handleZoom(evt,'out')"/>
                <use id="reset" xlink:href="#resetDef" x="30" y="36" onmousedown="handleReset()"/>
                <g id="arrowUp" xlink:href="#dirArrow" transform="translate(30 24)" onmousedown="handlePan(0,-1)">
                  <use xlink:href="#rim" fill="#404040">
                        <set attributeName="fill" to="#808080" begin="arrowUp.mouseover" end="arrowUp.mouseout"/>
                  </use>
                  <path fill="none" stroke="white" stroke-width="1.5" d="M0,-3.0v7 M-2.5,-0.5L0,-3.0L2.5,-0.5"/>
                </g>
                <g id="arrowRight" xlink:href="#dirArrow" transform="rotate(90) translate(36 -43)" onmousedown="handlePan(1,0)">
                  <use xlink:href="#rim" fill="#404040">
                        <set attributeName="fill" to="#808080" begin="arrowRight.mouseover" end="arrowRight.mouseout"/>
                  </use>
                  <path fill="none" stroke="white" stroke-width="1.5" d="M0,-3.0v7 M-2.5,-0.5L0,-3.0L2.5,-0.5"/>
                </g>
                <g id="arrowDown" xlink:href="#dirArrow" transform="rotate(180) translate(-30 -48)" onmousedown="handlePan(0,1)">
                  <use xlink:href="#rim" fill="#404040">
                        <set attributeName="fill" to="#808080" begin="arrowDown.mouseover" end="arrowDown.mouseout"/>
                  </use>
                  <path fill="none" stroke="white" stroke-width="1.5" d="M0,-3.0v7 M-2.5,-0.5L0,-3.0L2.5,-0.5"/>
                </g>
                <g id="arrowLeft" xlink:href="#dirArrow" transform="rotate(270) translate(-36 17)" onmousedown="handlePan(-1,0)">
                  <use xlink:href="#rim" fill="#404040">
                        <set attributeName="fill" to="#808080" begin="arrowLeft.mouseover" end="arrowLeft.mouseout"/>
                  </use>
                  <path fill="none" stroke="white" stroke-width="1.5" d="M0,-3.0v7 M-2.5,-0.5L0,-3.0L2.5,-0.5"/>
                </g>
        </g>
        <svg viewBox="0 0 15 15" width="100%" height="30px" preserveAspectRatio="xMaxYMin meet">
         <g id="arrow_out" transform="scale(0.3 0.3)">
          <a xlink:href="multipipe_8c_a461ae962ce9a1aee7221ac4b9c581f98_cgraph_org.svg" target="_base">
           <rect id="button" ry="5" rx="5" y="6" x="6" height="38" width="38"
                fill="#f2f5e9" fill-opacity="0.5" stroke="#606060" stroke-width="1.0"/>
           <path id="arrow"
             d="M 11.500037,31.436501 C 11.940474,20.09759 22.043105,11.32322 32.158766,21.979434 L 37.068811,17.246167 C 37.068811,17.246167 37.088388,32 37.088388,32 L 22.160133,31.978069 C 22.160133,31.978069 26.997745,27.140456 26.997745,27.140456 C 18.528582,18.264221 13.291696,25.230495 11.500037,31.436501 z"
             style="fill:#404040;"/>
          </a>
         </g>
        </svg>
</svg>
