<?xml version="1.0" encoding="UTF-8" standalone="no"?>
<!DOCTYPE svg PUBLIC "-//W3C//DTD SVG 1.1//EN"
 "http://www.w3.org/Graphics/SVG/1.1/DTD/svg11.dtd">
<!-- Generated by graphviz version 2.43.0 (0)
 -->
<!-- Title: multipipe_cmd Pages: 1 -->
<!--zoomable 940 -->
<svg id="main" version="1.1" xmlns="http://www.w3.org/2000/svg" xmlns:xlink="http://www.w3.org/1999/xlink" xml:space="preserve" onload="init(evt)">
<style type="text/css"><![CDATA[
.edge:hover path { stroke: red; }
.edge:hover polygon { stroke: red; fill: red; }
]]></style>
<script type="text/javascript"><![CDATA[
var edges = document.getElementsByTagName('g');
if (edges && edges.length) {
  for (var i=0;i<edges.length;i++) {
    if (edges[i].id.substr(0,4)=='edge') {
      edges[i].setAttribute('class','edge');
    }
  }
}
]]></script>
        <defs>
                <circle id="rim" cx="0" cy="0" r="7"/>
                <circle id="rim2" cx="0" cy="0" r="3.5"/>
                <g id="zoomPlus">
                        <use xlink:href="#rim" fill="#404040">
                                <set attributeName="fill" to="#808080" begin="zoomplus.mouseover" end="zoomplus.mouseout"/>
                        </use>
                        <path d="M-4,0h8M0,-4v8" fill="none" stroke="white" stroke-width="1.5" pointer-events="none"/>
                </g>
                <g id="zoomMin">
                        <use xlink:href="#rim" fill="#404040">
                                <set attributeName="fill" to="#808080" begin="zoomminus.mouseover" end="zoomminus.mouseout"/>
                        </use>
                        <path d="M-4,0h8" fill="none" stroke="white" stroke-width="1.5" pointer-events="none"/>
                </g>
                <g id="dirArrow">
                        <path fill="none" stroke="white" stroke-width="1.5" d="M0,-3.0v7 M-2.5,-0.5L0,-3.0L2.5,-0.5"/>
                </g>
               <g id="resetDef">
                       <use xlink:href="#rim2" fill="#404040">
                               <set attributeName="fill" to="#808080" begin="reset.mouseover" end="reset.mouseout"/>
                       </use>
               </g>
        </defs>

<script type="text/javascript">
var viewWidth = 1025;
var viewHeight = 940;
var sectionId = 'dynsection-6';
</script>
<script xlink:href="svgpan.js"/>
<svg id="graph" class="graph">
<g id="viewport">
<title>multipipe_cmd</title>
<!-- Node1 -->
<g id="node1" class="node">
<title>Node1</title>
<g id="a_node1"><a xlink:title="management of the multipipe (= name when we have at least one pipe) First step is to manage the hered...">
<polygon fill="#bfbfbf" stroke="black" points="0,-361.5 0,-380.5 89,-380.5 89,-361.5 0,-361.5"/>
<text text-anchor="middle" x="44.5" y="-368.5" font-family="Helvetica,sans-Serif" font-size="10.00">multipipe_cmd</text>
</a>
</g>
</g>
<!-- Node2 -->
<g id="node2" class="node">
<title>Node2</title>
<g id="a_node2"><a xlink:href="multipipe_8c.html#a9b21b82386f20636501d279a66b7260d" target="_top" xlink:title="in the case of an error in the redirection, we have a case where the here_doc opened in a previous si...">
<polygon fill="none" stroke="black" points="153.5,-304.5 153.5,-323.5 254.5,-323.5 254.5,-304.5 153.5,-304.5"/>
<text text-anchor="middle" x="204" y="-311.5" font-family="Helvetica,sans-Serif" font-size="10.00">close_redir_temp</text>
</a>
</g>
</g>
<!-- Node1&#45;&gt;Node2 -->
<g id="edge1" class="edge">
<title>Node1&#45;&gt;Node2</title>
<path fill="none" stroke="midnightblue" d="M66.88,-361.48C82.76,-354.56 105.04,-345.2 125,-338 136.13,-333.99 148.31,-330.04 159.65,-326.54"/>
<polygon fill="midnightblue" stroke="midnightblue" points="160.82,-329.84 169.37,-323.59 158.78,-323.14 160.82,-329.84"/>
</g>
<!-- Node3 -->
<g id="node3" class="node">
<title>Node3</title>
<g id="a_node3"><a xlink:href="redirection__multipipe_8c.html#a1bca6910c90a19d96b36506a2e2cebf6" target="_top" xlink:title="as fd are all setup to &#45;1 at the beginning we check if they are open before trying to close we avoid ...">
<polygon fill="none" stroke="black" points="832.5,-532.5 832.5,-551.5 901.5,-551.5 901.5,-532.5 832.5,-532.5"/>
<text text-anchor="middle" x="867" y="-539.5" font-family="Helvetica,sans-Serif" font-size="10.00">ft_close_fd</text>
</a>
</g>
</g>
<!-- Node1&#45;&gt;Node3 -->
<g id="edge7" class="edge">
<title>Node1&#45;&gt;Node3</title>
<path fill="none" stroke="midnightblue" d="M89.08,-366.97C153.26,-361.39 277.02,-352 382.5,-352 382.5,-352 382.5,-352 558,-352 656.9,-352 697.38,-322.15 779,-378 829.64,-412.65 853.08,-486.48 861.77,-522.04"/>
<polygon fill="midnightblue" stroke="midnightblue" points="858.44,-523.17 864.08,-532.14 865.26,-521.61 858.44,-523.17"/>
</g>
<!-- Node4 -->
<g id="node4" class="node">
<title>Node4</title>
<g id="a_node4"><a xlink:href="lst__cmd2_8c.html#a132395876bb5a7cfe926b9e37571a1e3" target="_top" xlink:title=" ">
<polygon fill="none" stroke="black" points="511,-152.5 511,-171.5 603,-171.5 603,-152.5 511,-152.5"/>
<text text-anchor="middle" x="557" y="-159.5" font-family="Helvetica,sans-Serif" font-size="10.00">destructor_cmd</text>
</a>
</g>
</g>
<!-- Node1&#45;&gt;Node4 -->
<g id="edge3" class="edge">
<title>Node1&#45;&gt;Node4</title>
<path fill="none" stroke="midnightblue" d="M53.02,-361.38C66.02,-345.37 94.29,-313.21 125,-295 248.31,-221.89 415.65,-185.33 501,-170.43"/>
<polygon fill="midnightblue" stroke="midnightblue" points="501.73,-173.86 510.99,-168.72 500.55,-166.96 501.73,-173.86"/>
</g>
<!-- Node8 -->
<g id="node8" class="node">
<title>Node8</title>
<g id="a_node8"><a xlink:href="heredoc_8c.html#aa5260679719a4e1f862a6efd1f12cf85" target="_top" xlink:title="the function will go through all the commands and check the redirection if we encounter a heredoc we ...">
<polygon fill="none" stroke="black" points="138.5,-622.5 138.5,-641.5 269.5,-641.5 269.5,-622.5 138.5,-622.5"/>
<text text-anchor="middle" x="204" y="-629.5" font-family="Helvetica,sans-Serif" font-size="10.00">here_doc_management</text>
</a>
</g>
</g>
<!-- Node1&#45;&gt;Node8 -->
<g id="edge8" class="edge">
<title>Node1&#45;&gt;Node8</title>
<path fill="none" stroke="midnightblue" d="M50.37,-380.83C62.31,-404.75 94.32,-467.72 125,-518 146.41,-553.08 174.11,-592.29 190.09,-614.37"/>
<polygon fill="midnightblue" stroke="midnightblue" points="187.26,-616.44 195.97,-622.47 192.92,-612.32 187.26,-616.44"/>
</g>
<!-- Node15 -->
<g id="node15" class="node">
<title>Node15</title>
<g id="a_node15"><a xlink:href="multipipe_8c.html#af32b88ab44b94650a0bb6f805f70a805" target="_top" xlink:title="it&#39;s where the fork happen and sent to be execute">
<polygon fill="none" stroke="black" points="125,-380.5 125,-399.5 283,-399.5 283,-380.5 125,-380.5"/>
<text text-anchor="middle" x="204" y="-387.5" font-family="Helvetica,sans-Serif" font-size="10.00">multipipe_intermediary_cmd</text>
</a>
</g>
</g>
<!-- Node1&#45;&gt;Node15 -->
<g id="edge17" class="edge">
<title>Node1&#45;&gt;Node15</title>
<path fill="none" stroke="midnightblue" d="M89.37,-376.29C97.44,-377.27 106.12,-378.31 114.96,-379.38"/>
<polygon fill="midnightblue" stroke="midnightblue" points="114.63,-382.87 124.98,-380.59 115.47,-375.92 114.63,-382.87"/>
</g>
<!-- Node36 -->
<g id="node36" class="node">
<title>Node36</title>
<g id="a_node36"><a xlink:href="redirection__verification_8c.html#af9b05287627b76434ceb0070c5cb2c8a" target="_top" xlink:title="we go through each node of the redirection and we have special treatment depending of the following c...">
<polygon fill="none" stroke="black" points="319,-589.5 319,-608.5 448,-608.5 448,-589.5 319,-589.5"/>
<text text-anchor="middle" x="383.5" y="-596.5" font-family="Helvetica,sans-Serif" font-size="10.00">redirection_verification</text>
</a>
</g>
</g>
<!-- Node1&#45;&gt;Node36 -->
<g id="edge45" class="edge">
<title>Node1&#45;&gt;Node36</title>
<path fill="none" stroke="midnightblue" d="M59.55,-380.51C111.79,-415.85 295.12,-539.88 359.75,-583.61"/>
<polygon fill="midnightblue" stroke="midnightblue" points="358.14,-586.75 368.39,-589.45 362.07,-580.95 358.14,-586.75"/>
</g>
<!-- Node2&#45;&gt;Node3 -->
<g id="edge2" class="edge">
<title>Node2&#45;&gt;Node3</title>
<path fill="none" stroke="midnightblue" d="M254.7,-309.52C378.19,-299.4 695,-279.95 779,-338 841.67,-381.31 859.44,-479.53 864.27,-521.91"/>
<polygon fill="midnightblue" stroke="midnightblue" points="860.81,-522.48 865.3,-532.08 867.78,-521.78 860.81,-522.48"/>
</g>
<!-- Node5 -->
<g id="node5" class="node">
<title>Node5</title>
<g id="a_node5"><a xlink:href="lst__cmd2_8c.html#a8e2b63759f149b547e0d07f210ede9b3" target="_top" xlink:title=" ">
<polygon fill="none" stroke="black" points="692,-19.5 692,-38.5 753,-38.5 753,-19.5 692,-19.5"/>
<text text-anchor="middle" x="722.5" y="-26.5" font-family="Helvetica,sans-Serif" font-size="10.00">pop_cmd</text>
</a>
</g>
</g>
<!-- Node4&#45;&gt;Node5 -->
<g id="edge4" class="edge">
<title>Node4&#45;&gt;Node5</title>
<path fill="none" stroke="midnightblue" d="M568.07,-152.4C586.76,-134.75 628.35,-96.28 666,-67 676.16,-59.1 687.87,-50.95 697.9,-44.24"/>
<polygon fill="midnightblue" stroke="midnightblue" points="700.13,-46.96 706.55,-38.53 696.28,-41.12 700.13,-46.96"/>
</g>
<!-- Node6 -->
<g id="node6" class="node">
<title>Node6</title>
<g id="a_node6"><a xlink:href="lst__redir2_8c.html#a30ccaf401a4f897e48ead5fe54f4b307" target="_top" xlink:title=" ">
<polygon fill="none" stroke="black" points="820,-0.5 820,-19.5 914,-19.5 914,-0.5 820,-0.5"/>
<text text-anchor="middle" x="867" y="-7.5" font-family="Helvetica,sans-Serif" font-size="10.00">destructor_redir</text>
</a>
</g>
</g>
<!-- Node5&#45;&gt;Node6 -->
<g id="edge5" class="edge">
<title>Node5&#45;&gt;Node6</title>
<path fill="none" stroke="midnightblue" d="M753.03,-25.06C769.48,-22.87 790.51,-20.06 809.96,-17.47"/>
<polygon fill="midnightblue" stroke="midnightblue" points="810.51,-20.93 819.96,-16.14 809.58,-13.99 810.51,-20.93"/>
</g>
<!-- Node7 -->
<g id="node7" class="node">
<title>Node7</title>
<g id="a_node7"><a xlink:href="lst__redir2_8c.html#ade8f0bdda51d9bf348ebeb38fefba881" target="_top" xlink:title=" ">
<polygon fill="none" stroke="black" points="955,-0.5 955,-19.5 1017,-19.5 1017,-0.5 955,-0.5"/>
<text text-anchor="middle" x="986" y="-7.5" font-family="Helvetica,sans-Serif" font-size="10.00">pop_redir</text>
</a>
</g>
</g>
<!-- Node6&#45;&gt;Node7 -->
<g id="edge6" class="edge">
<title>Node6&#45;&gt;Node7</title>
<path fill="none" stroke="midnightblue" d="M914.24,-10C924.28,-10 934.82,-10 944.61,-10"/>
<polygon fill="midnightblue" stroke="midnightblue" points="944.88,-13.5 954.88,-10 944.88,-6.5 944.88,-13.5"/>
</g>
<!-- Node9 -->
<g id="node9" class="node">
<title>Node9</title>
<g id="a_node9"><a xlink:href="heredoc_8c.html#ab68377acf2c8adf39f991dc425297c09" target="_top" xlink:title="it&#39;s where we open the heredoc and start writing inside our pipe each time we check if it&#39;s the word ...">
<polygon fill="none" stroke="black" points="514,-798.5 514,-817.5 600,-817.5 600,-798.5 514,-798.5"/>
<text text-anchor="middle" x="557" y="-805.5" font-family="Helvetica,sans-Serif" font-size="10.00">heredoc_input</text>
</a>
</g>
</g>
<!-- Node8&#45;&gt;Node9 -->
<g id="edge9" class="edge">
<title>Node8&#45;&gt;Node9</title>
<path fill="none" stroke="midnightblue" d="M224.12,-641.59C282.46,-670.84 458.42,-759.07 527.62,-793.77"/>
<polygon fill="midnightblue" stroke="midnightblue" points="526.14,-796.94 536.65,-798.3 529.28,-790.68 526.14,-796.94"/>
</g>
<!-- Node9&#45;&gt;Node3 -->
<g id="edge13" class="edge">
<title>Node9&#45;&gt;Node3</title>
<path fill="none" stroke="midnightblue" d="M600.3,-799.21C660.59,-786.38 765.45,-762.75 779,-751 837.75,-700.05 857.66,-603.01 863.67,-561.56"/>
<polygon fill="midnightblue" stroke="midnightblue" points="867.14,-562.01 864.99,-551.64 860.2,-561.09 867.14,-562.01"/>
</g>
<!-- Node10 -->
<g id="node10" class="node">
<title>Node10</title>
<g id="a_node10"><a xlink:href="heredoc_8c.html#ab64ee253d325f2d25cf6d2e51bd00396" target="_top" xlink:title="we have to activate back the echoctl to appear again when we are not inside an heredoc">
<polygon fill="none" stroke="black" points="679,-912.5 679,-931.5 766,-931.5 766,-912.5 679,-912.5"/>
<text text-anchor="middle" x="722.5" y="-919.5" font-family="Helvetica,sans-Serif" font-size="10.00">active_echoctl</text>
</a>
</g>
</g>
<!-- Node9&#45;&gt;Node10 -->
<g id="edge10" class="edge">
<title>Node9&#45;&gt;Node10</title>
<path fill="none" stroke="midnightblue" d="M566.56,-817.74C583.68,-836.67 624.09,-878.69 666,-903 669.62,-905.1 673.5,-907.01 677.48,-908.75"/>
<polygon fill="midnightblue" stroke="midnightblue" points="676.24,-912.02 686.82,-912.47 678.83,-905.52 676.24,-912.02"/>
</g>
<!-- Node11 -->
<g id="node11" class="node">
<title>Node11</title>
<g id="a_node11"><a xlink:href="heredoc_8c.html#a3e1410633d8c1ad5b1441509a020b0d4" target="_top" xlink:title="allow us to close the file descriptors when we have fork() again the process">
<polygon fill="none" stroke="black" points="666,-722.5 666,-741.5 779,-741.5 779,-722.5 666,-722.5"/>
<text text-anchor="middle" x="722.5" y="-729.5" font-family="Helvetica,sans-Serif" font-size="10.00">close_fd_heredocs2</text>
</a>
</g>
</g>
<!-- Node9&#45;&gt;Node11 -->
<g id="edge11" class="edge">
<title>Node9&#45;&gt;Node11</title>
<path fill="none" stroke="midnightblue" d="M577.4,-798.37C598.93,-787.74 634.77,-770.27 666,-756 673.52,-752.57 681.66,-748.97 689.34,-745.64"/>
<polygon fill="midnightblue" stroke="midnightblue" points="690.93,-748.77 698.73,-741.6 688.16,-742.34 690.93,-748.77"/>
</g>
<!-- Node12 -->
<g id="node12" class="node">
<title>Node12</title>
<g id="a_node12"><a xlink:href="heredoc_8c.html#a4fd8e3642e456e9a2f7fe4dc8f44ad43" target="_top" xlink:title="remove the echoctl which are the symbol which appears when you press CTRL+C or CTRL+\ it&#39;s different ...">
<polygon fill="none" stroke="black" points="675,-874.5 675,-893.5 770,-893.5 770,-874.5 675,-874.5"/>
<text text-anchor="middle" x="722.5" y="-881.5" font-family="Helvetica,sans-Serif" font-size="10.00">remove_echoctl</text>
</a>
</g>
</g>
<!-- Node9&#45;&gt;Node12 -->
<g id="edge14" class="edge">
<title>Node9&#45;&gt;Node12</title>
<path fill="none" stroke="midnightblue" d="M574.08,-817.5C594.84,-829.54 632.33,-850.46 666,-865 670.84,-867.09 676,-869.11 681.14,-871.01"/>
<polygon fill="midnightblue" stroke="midnightblue" points="680.34,-874.44 690.93,-874.49 682.68,-867.84 680.34,-874.44"/>
</g>
<!-- Node13 -->
<g id="node13" class="node">
<title>Node13</title>
<g id="a_node13"><a xlink:href="minishell_8h.html#a258e3b580e688a0cf46e4258525aeaf1" target="_top" xlink:title=" ">
<polygon fill="none" stroke="black" points="679.5,-836.5 679.5,-855.5 765.5,-855.5 765.5,-836.5 679.5,-836.5"/>
<text text-anchor="middle" x="722.5" y="-843.5" font-family="Helvetica,sans-Serif" font-size="10.00">sigint_handler</text>
</a>
</g>
</g>
<!-- Node9&#45;&gt;Node13 -->
<g id="edge15" class="edge">
<title>Node9&#45;&gt;Node13</title>
<path fill="none" stroke="midnightblue" d="M599.26,-817.59C620.93,-822.63 647.68,-828.84 670.63,-834.18"/>
<polygon fill="midnightblue" stroke="midnightblue" points="670.01,-837.63 680.54,-836.48 671.59,-830.81 670.01,-837.63"/>
</g>
<!-- Node14 -->
<g id="node14" class="node">
<title>Node14</title>
<g id="a_node14"><a xlink:href="heredoc_8c.html#a7ea78f2f2215fe1ed765af80a1b2893d" target="_top" xlink:title="allow us to warn the process child heredoc it&#39;s time to stop and close the file descriptor">
<polygon fill="none" stroke="black" points="678.5,-798.5 678.5,-817.5 766.5,-817.5 766.5,-798.5 678.5,-798.5"/>
<text text-anchor="middle" x="722.5" y="-805.5" font-family="Helvetica,sans-Serif" font-size="10.00">sigint_heredoc</text>
</a>
</g>
</g>
<!-- Node9&#45;&gt;Node14 -->
<g id="edge16" class="edge">
<title>Node9&#45;&gt;Node14</title>
<path fill="none" stroke="midnightblue" d="M600.11,-808C620.85,-808 646.09,-808 668.18,-808"/>
<polygon fill="midnightblue" stroke="midnightblue" points="668.4,-811.5 678.4,-808 668.4,-804.5 668.4,-811.5"/>
</g>
<!-- Node11&#45;&gt;Node3 -->
<g id="edge12" class="edge">
<title>Node11&#45;&gt;Node3</title>
<path fill="none" stroke="midnightblue" d="M755.66,-722.43C763.95,-718.86 772.38,-714.14 779,-708 824.19,-666.06 850.15,-595.26 860.59,-561.3"/>
<polygon fill="midnightblue" stroke="midnightblue" points="863.96,-562.23 863.43,-551.65 857.25,-560.25 863.96,-562.23"/>
</g>
<!-- Node15&#45;&gt;Node3 -->
<g id="edge44" class="edge">
<title>Node15&#45;&gt;Node3</title>
<path fill="none" stroke="midnightblue" d="M283.05,-383.9C419.88,-374.61 696.38,-362.54 779,-409 823.53,-434.04 849.16,-492.44 859.93,-522.84"/>
<polygon fill="midnightblue" stroke="midnightblue" points="856.62,-523.97 863.13,-532.32 863.25,-521.73 856.62,-523.97"/>
</g>
<!-- Node16 -->
<g id="node16" class="node">
<title>Node16</title>
<g id="a_node16"><a xlink:href="redirection__multipipe_8c.html#af7980d82e7ea7c0c84519ef3e3011b98" target="_top" xlink:title=" ">
<polygon fill="none" stroke="black" points="336.5,-494.5 336.5,-513.5 430.5,-513.5 430.5,-494.5 336.5,-494.5"/>
<text text-anchor="middle" x="383.5" y="-501.5" font-family="Helvetica,sans-Serif" font-size="10.00">close_fd_parent</text>
</a>
</g>
</g>
<!-- Node15&#45;&gt;Node16 -->
<g id="edge18" class="edge">
<title>Node15&#45;&gt;Node16</title>
<path fill="none" stroke="midnightblue" d="M219.83,-399.52C250.55,-419.26 321.4,-464.76 358.64,-488.68"/>
<polygon fill="midnightblue" stroke="midnightblue" points="357.03,-491.8 367.34,-494.26 360.81,-485.91 357.03,-491.8"/>
</g>
<!-- Node17 -->
<g id="node17" class="node">
<title>Node17</title>
<g id="a_node17"><a xlink:href="multipipe_8c.html#a43baea25481fdd02ce42e4d249f12353" target="_top" xlink:title=" ">
<polygon fill="none" stroke="black" points="342,-247.5 342,-266.5 425,-266.5 425,-247.5 342,-247.5"/>
<text text-anchor="middle" x="383.5" y="-254.5" font-family="Helvetica,sans-Serif" font-size="10.00">execute_child</text>
</a>
</g>
</g>
<!-- Node15&#45;&gt;Node17 -->
<g id="edge20" class="edge">
<title>Node15&#45;&gt;Node17</title>
<path fill="none" stroke="midnightblue" d="M218.31,-380.4C233.89,-369.14 260.43,-349.87 283,-333 310.46,-312.49 341.83,-288.41 361.89,-272.95"/>
<polygon fill="midnightblue" stroke="midnightblue" points="364.22,-275.57 370,-266.68 359.94,-270.02 364.22,-275.57"/>
</g>
<!-- Node16&#45;&gt;Node3 -->
<g id="edge19" class="edge">
<title>Node16&#45;&gt;Node3</title>
<path fill="none" stroke="midnightblue" d="M430.67,-507.64C523.39,-514.96 731.11,-531.35 822,-538.53"/>
<polygon fill="midnightblue" stroke="midnightblue" points="821.99,-542.04 832.23,-539.34 822.54,-535.06 821.99,-542.04"/>
</g>
<!-- Node17&#45;&gt;Node4 -->
<g id="edge28" class="edge">
<title>Node17&#45;&gt;Node4</title>
<path fill="none" stroke="midnightblue" d="M395.85,-247.42C417.69,-229.13 465.06,-190.27 484,-181 489.36,-178.38 495.12,-176.09 500.97,-174.09"/>
<polygon fill="midnightblue" stroke="midnightblue" points="502.34,-177.32 510.84,-171 500.25,-170.64 502.34,-177.32"/>
</g>
<!-- Node18 -->
<g id="node18" class="node">
<title>Node18</title>
<g id="a_node18"><a xlink:href="multipipe_8c.html#ac70e2499b8aeb789658ff4596ded7221" target="_top" xlink:title="as we are going to fork and create process, the new process will have inherited of all the opened fd....">
<polygon fill="none" stroke="black" points="503.5,-266.5 503.5,-285.5 610.5,-285.5 610.5,-266.5 503.5,-266.5"/>
<text text-anchor="middle" x="557" y="-273.5" font-family="Helvetica,sans-Serif" font-size="10.00">close_fd_heredocs</text>
</a>
</g>
</g>
<!-- Node17&#45;&gt;Node18 -->
<g id="edge21" class="edge">
<title>Node17&#45;&gt;Node18</title>
<path fill="none" stroke="midnightblue" d="M425.14,-261.5C445.41,-263.75 470.39,-266.52 493.07,-269.03"/>
<polygon fill="midnightblue" stroke="midnightblue" points="492.97,-272.54 503.3,-270.16 493.74,-265.58 492.97,-272.54"/>
</g>
<!-- Node19 -->
<g id="node19" class="node">
<title>Node19</title>
<g id="a_node19"><a xlink:href="redirection__multipipe_8c.html#a19e2c31eeb0eb25575df2277cbd7774e" target="_top" xlink:title=" ">
<polygon fill="none" stroke="black" points="503,-437.5 503,-456.5 611,-456.5 611,-437.5 503,-437.5"/>
<text text-anchor="middle" x="557" y="-444.5" font-family="Helvetica,sans-Serif" font-size="10.00">command_redirect</text>
</a>
</g>
</g>
<!-- Node17&#45;&gt;Node19 -->
<g id="edge22" class="edge">
<title>Node17&#45;&gt;Node19</title>
<path fill="none" stroke="midnightblue" d="M393.24,-266.68C420.64,-297.04 505.13,-390.65 540.34,-429.66"/>
<polygon fill="midnightblue" stroke="midnightblue" points="537.77,-432.03 547.07,-437.11 542.97,-427.34 537.77,-432.03"/>
</g>
<!-- Node22 -->
<g id="node22" class="node">
<title>Node22</title>
<g id="a_node22"><a xlink:href="lst__env_8c.html#a226ae0aa054e697998b2ecbc5d61d592" target="_top" xlink:title=" ">
<polygon fill="none" stroke="black" points="512.5,-228.5 512.5,-247.5 601.5,-247.5 601.5,-228.5 512.5,-228.5"/>
<text text-anchor="middle" x="557" y="-235.5" font-family="Helvetica,sans-Serif" font-size="10.00">destructor_env</text>
</a>
</g>
</g>
<!-- Node17&#45;&gt;Node22 -->
<g id="edge29" class="edge">
<title>Node17&#45;&gt;Node22</title>
<path fill="none" stroke="midnightblue" d="M425.14,-252.5C448.21,-249.94 477.37,-246.71 502.31,-243.95"/>
<polygon fill="midnightblue" stroke="midnightblue" points="502.79,-247.42 512.35,-242.84 502.02,-240.46 502.79,-247.42"/>
</g>
<!-- Node24 -->
<g id="node24" class="node">
<title>Node24</title>
<g id="a_node24"><a xlink:href="execution__node_8c.html#a6cfdc545c2222bbb0ca1dfc8431f72a3" target="_top" xlink:title="we are going to execute the command here we have a security about absolute path given =&gt; because it&#39;s...">
<polygon fill="none" stroke="black" points="510.5,-190.5 510.5,-209.5 603.5,-209.5 603.5,-190.5 510.5,-190.5"/>
<text text-anchor="middle" x="557" y="-197.5" font-family="Helvetica,sans-Serif" font-size="10.00">execution_node</text>
</a>
</g>
</g>
<!-- Node17&#45;&gt;Node24 -->
<g id="edge31" class="edge">
<title>Node17&#45;&gt;Node24</title>
<path fill="none" stroke="midnightblue" d="M407.57,-247.38C427.58,-239.24 457.42,-227.56 484,-219 491.44,-216.6 499.38,-214.28 507.18,-212.13"/>
<polygon fill="midnightblue" stroke="midnightblue" points="508.17,-215.48 516.92,-209.5 506.35,-208.73 508.17,-215.48"/>
</g>
<!-- Node19&#45;&gt;Node3 -->
<g id="edge27" class="edge">
<title>Node19&#45;&gt;Node3</title>
<path fill="none" stroke="midnightblue" d="M611.43,-450.06C657.24,-454.11 724.3,-463.46 779,-485 804.32,-494.97 829.99,-512.96 846.81,-526.07"/>
<polygon fill="midnightblue" stroke="midnightblue" points="844.76,-528.91 854.75,-532.41 849.12,-523.44 844.76,-528.91"/>
</g>
<!-- Node20 -->
<g id="node20" class="node">
<title>Node20</title>
<g id="a_node20"><a xlink:href="redirection__multipipe_8c.html#a3a0d7f695cf53df46301e14ffab77638" target="_top" xlink:title=" ">
<polygon fill="none" stroke="black" points="678,-418.5 678,-437.5 767,-437.5 767,-418.5 678,-418.5"/>
<text text-anchor="middle" x="722.5" y="-425.5" font-family="Helvetica,sans-Serif" font-size="10.00">close_previous</text>
</a>
</g>
</g>
<!-- Node19&#45;&gt;Node20 -->
<g id="edge23" class="edge">
<title>Node19&#45;&gt;Node20</title>
<path fill="none" stroke="midnightblue" d="M611.08,-440.83C629.25,-438.72 649.58,-436.36 667.8,-434.24"/>
<polygon fill="midnightblue" stroke="midnightblue" points="668.43,-437.69 677.96,-433.06 667.62,-430.74 668.43,-437.69"/>
</g>
<!-- Node21 -->
<g id="node21" class="node">
<title>Node21</title>
<g id="a_node21"><a xlink:href="redirection__multipipe_8c.html#a5b749bc2b4088984c0efe1c479ae6ec8" target="_top" xlink:title=" ">
<polygon fill="none" stroke="black" points="682.5,-494.5 682.5,-513.5 762.5,-513.5 762.5,-494.5 682.5,-494.5"/>
<text text-anchor="middle" x="722.5" y="-501.5" font-family="Helvetica,sans-Serif" font-size="10.00">fail_previous</text>
</a>
</g>
</g>
<!-- Node19&#45;&gt;Node21 -->
<g id="edge25" class="edge">
<title>Node19&#45;&gt;Node21</title>
<path fill="none" stroke="midnightblue" d="M585.37,-456.54C612.48,-465.99 654.21,-480.54 684.32,-491.04"/>
<polygon fill="midnightblue" stroke="midnightblue" points="683.45,-494.44 694.04,-494.43 685.75,-487.83 683.45,-494.44"/>
</g>
<!-- Node20&#45;&gt;Node3 -->
<g id="edge24" class="edge">
<title>Node20&#45;&gt;Node3</title>
<path fill="none" stroke="midnightblue" d="M751.44,-437.57C760.63,-441.36 770.63,-446.21 779,-452 808.89,-472.68 836.86,-504.75 852.66,-524.51"/>
<polygon fill="midnightblue" stroke="midnightblue" points="849.92,-526.68 858.84,-532.39 855.42,-522.36 849.92,-526.68"/>
</g>
<!-- Node21&#45;&gt;Node3 -->
<g id="edge26" class="edge">
<title>Node21&#45;&gt;Node3</title>
<path fill="none" stroke="midnightblue" d="M759.46,-513.59C778.5,-518.67 802.05,-524.95 822.16,-530.31"/>
<polygon fill="midnightblue" stroke="midnightblue" points="821.45,-533.74 832.01,-532.94 823.25,-526.98 821.45,-533.74"/>
</g>
<!-- Node23 -->
<g id="node23" class="node">
<title>Node23</title>
<g id="a_node23"><a xlink:href="lst__env_8c.html#a058c245b5f2ef22f9d2659f90e4d3537" target="_top" xlink:title=" ">
<polygon fill="none" stroke="black" points="693.5,-266.5 693.5,-285.5 751.5,-285.5 751.5,-266.5 693.5,-266.5"/>
<text text-anchor="middle" x="722.5" y="-273.5" font-family="Helvetica,sans-Serif" font-size="10.00">pop_env</text>
</a>
</g>
</g>
<!-- Node22&#45;&gt;Node23 -->
<g id="edge30" class="edge">
<title>Node22&#45;&gt;Node23</title>
<path fill="none" stroke="midnightblue" d="M599.26,-247.59C625.12,-253.6 658.21,-261.29 683.43,-267.15"/>
<polygon fill="midnightblue" stroke="midnightblue" points="682.84,-270.61 693.38,-269.46 684.43,-263.79 682.84,-270.61"/>
</g>
<!-- Node25 -->
<g id="node25" class="node">
<title>Node25</title>
<g id="a_node25"><a xlink:href="execution_8c.html#a3acc0bb56da881cc8609ca9e94ec8e93" target="_top" xlink:title="detect if it&#39;s a builtin with strncmp() but the real question is &quot;is it a builtin I have to launch in...">
<polygon fill="none" stroke="black" points="686,-190.5 686,-209.5 759,-209.5 759,-190.5 686,-190.5"/>
<text text-anchor="middle" x="722.5" y="-197.5" font-family="Helvetica,sans-Serif" font-size="10.00">is_it_builtin</text>
</a>
</g>
</g>
<!-- Node24&#45;&gt;Node25 -->
<g id="edge32" class="edge">
<title>Node24&#45;&gt;Node25</title>
<path fill="none" stroke="midnightblue" d="M603.54,-200C626.08,-200 653.21,-200 675.77,-200"/>
<polygon fill="midnightblue" stroke="midnightblue" points="675.78,-203.5 685.78,-200 675.78,-196.5 675.78,-203.5"/>
</g>
<!-- Node26 -->
<g id="node26" class="node">
<title>Node26</title>
<g id="a_node26"><a xlink:href="execution_8c.html#a8b2bd9dba90bfc9b2ead44af5e630315" target="_top" xlink:title="launch the builtin &#160;&#160;some of them are not present because we have to fork() them why ?...">
<polygon fill="none" stroke="black" points="680,-152.5 680,-171.5 765,-171.5 765,-152.5 680,-152.5"/>
<text text-anchor="middle" x="722.5" y="-159.5" font-family="Helvetica,sans-Serif" font-size="10.00">launch_builtin</text>
</a>
</g>
</g>
<!-- Node24&#45;&gt;Node26 -->
<g id="edge33" class="edge">
<title>Node24&#45;&gt;Node26</title>
<path fill="none" stroke="midnightblue" d="M599.26,-190.41C620.93,-185.37 647.68,-179.16 670.63,-173.82"/>
<polygon fill="midnightblue" stroke="midnightblue" points="671.59,-177.19 680.54,-171.52 670.01,-170.37 671.59,-177.19"/>
</g>
<!-- Node30 -->
<g id="node30" class="node">
<title>Node30</title>
<g id="a_node30"><a xlink:href="lst__env__two_8c.html#aafcce0b2f2958645e84ae23b14116680" target="_top" xlink:title=" ">
<polygon fill="none" stroke="black" points="678.5,-114.5 678.5,-133.5 766.5,-133.5 766.5,-114.5 678.5,-114.5"/>
<text text-anchor="middle" x="722.5" y="-121.5" font-family="Helvetica,sans-Serif" font-size="10.00">lst_to_tab_env</text>
</a>
</g>
</g>
<!-- Node24&#45;&gt;Node30 -->
<g id="edge37" class="edge">
<title>Node24&#45;&gt;Node30</title>
<path fill="none" stroke="midnightblue" d="M603.71,-192.02C612.8,-189.33 621.99,-185.75 630,-181 650.01,-169.13 646.43,-155.58 666,-143 669.14,-140.98 672.52,-139.15 676,-137.5"/>
<polygon fill="midnightblue" stroke="midnightblue" points="677.54,-140.65 685.39,-133.52 674.81,-134.2 677.54,-140.65"/>
</g>
<!-- Node33 -->
<g id="node33" class="node">
<title>Node33</title>
<g id="a_node33"><a xlink:href="execution__node_8c.html#adc2c91230d4a0a1a1f98db2a888afcaa" target="_top" xlink:title="error message management for the specific case of execution">
<polygon fill="none" stroke="black" points="678,-228.5 678,-247.5 767,-247.5 767,-228.5 678,-228.5"/>
<text text-anchor="middle" x="722.5" y="-235.5" font-family="Helvetica,sans-Serif" font-size="10.00">message_error</text>
</a>
</g>
</g>
<!-- Node24&#45;&gt;Node33 -->
<g id="edge40" class="edge">
<title>Node24&#45;&gt;Node33</title>
<path fill="none" stroke="midnightblue" d="M599.26,-209.59C620.93,-214.63 647.68,-220.84 670.63,-226.18"/>
<polygon fill="midnightblue" stroke="midnightblue" points="670.01,-229.63 680.54,-228.48 671.59,-222.81 670.01,-229.63"/>
</g>
<!-- Node34 -->
<g id="node34" class="node">
<title>Node34</title>
<g id="a_node34"><a xlink:href="getenv_8c.html#a5d0cf05c2622983111dcfc0f179c5739" target="_top" xlink:title=" ">
<polygon fill="none" stroke="black" points="684.5,-76.5 684.5,-95.5 760.5,-95.5 760.5,-76.5 684.5,-76.5"/>
<text text-anchor="middle" x="722.5" y="-83.5" font-family="Helvetica,sans-Serif" font-size="10.00">search_path</text>
</a>
</g>
</g>
<!-- Node24&#45;&gt;Node34 -->
<g id="edge41" class="edge">
<title>Node24&#45;&gt;Node34</title>
<path fill="none" stroke="midnightblue" d="M603.52,-194.34C613.03,-191.5 622.44,-187.28 630,-181 658.75,-157.12 638.13,-129.9 666,-105 668.78,-102.51 671.91,-100.35 675.22,-98.47"/>
<polygon fill="midnightblue" stroke="midnightblue" points="676.81,-101.59 684.31,-94.11 673.78,-95.27 676.81,-101.59"/>
</g>
<!-- Node27 -->
<g id="node27" class="node">
<title>Node27</title>
<g id="a_node27"><a xlink:href="env_8c.html#ad7678c59b5365c776294bdeefd3d7583" target="_top" xlink:title=" ">
<polygon fill="none" stroke="black" points="849.5,-228.5 849.5,-247.5 884.5,-247.5 884.5,-228.5 849.5,-228.5"/>
<text text-anchor="middle" x="867" y="-235.5" font-family="Helvetica,sans-Serif" font-size="10.00">env</text>
</a>
</g>
</g>
<!-- Node26&#45;&gt;Node27 -->
<g id="edge34" class="edge">
<title>Node26&#45;&gt;Node27</title>
<path fill="none" stroke="midnightblue" d="M759.61,-171.52C766.33,-174.07 773.09,-177.2 779,-181 798.57,-193.58 795.6,-206.16 815,-219 822.51,-223.97 831.49,-227.87 839.81,-230.81"/>
<polygon fill="midnightblue" stroke="midnightblue" points="838.89,-234.19 849.49,-233.93 841.04,-227.53 838.89,-234.19"/>
</g>
<!-- Node28 -->
<g id="node28" class="node">
<title>Node28</title>
<g id="a_node28"><a xlink:href="my__echo_8c.html#a5522916069f77552d810e207670e3170" target="_top" xlink:title=" ">
<polygon fill="none" stroke="black" points="836.5,-190.5 836.5,-209.5 897.5,-209.5 897.5,-190.5 836.5,-190.5"/>
<text text-anchor="middle" x="867" y="-197.5" font-family="Helvetica,sans-Serif" font-size="10.00">my_echo</text>
</a>
</g>
</g>
<!-- Node26&#45;&gt;Node28 -->
<g id="edge35" class="edge">
<title>Node26&#45;&gt;Node28</title>
<path fill="none" stroke="midnightblue" d="M759.46,-171.59C779.87,-177.03 805.44,-183.85 826.42,-189.44"/>
<polygon fill="midnightblue" stroke="midnightblue" points="825.74,-192.89 836.3,-192.08 827.54,-186.12 825.74,-192.89"/>
</g>
<!-- Node29 -->
<g id="node29" class="node">
<title>Node29</title>
<g id="a_node29"><a xlink:href="pwd_8c.html#ab62618359287b6604bd60852145b9726" target="_top" xlink:title=" ">
<polygon fill="none" stroke="black" points="848.5,-152.5 848.5,-171.5 885.5,-171.5 885.5,-152.5 848.5,-152.5"/>
<text text-anchor="middle" x="867" y="-159.5" font-family="Helvetica,sans-Serif" font-size="10.00">pwd</text>
</a>
</g>
</g>
<!-- Node26&#45;&gt;Node29 -->
<g id="edge36" class="edge">
<title>Node26&#45;&gt;Node29</title>
<path fill="none" stroke="midnightblue" d="M765.1,-162C788.61,-162 817.35,-162 838.14,-162"/>
<polygon fill="midnightblue" stroke="midnightblue" points="838.21,-165.5 848.21,-162 838.21,-158.5 838.21,-165.5"/>
</g>
<!-- Node31 -->
<g id="node31" class="node">
<title>Node31</title>
<g id="a_node31"><a xlink:href="env__utils_8c.html#a7cc35c974bce053dbba1c1ec1028f36b" target="_top" xlink:title=" ">
<polygon fill="none" stroke="black" points="828.5,-114.5 828.5,-133.5 905.5,-133.5 905.5,-114.5 828.5,-114.5"/>
<text text-anchor="middle" x="867" y="-121.5" font-family="Helvetica,sans-Serif" font-size="10.00">env_lst_size</text>
</a>
</g>
</g>
<!-- Node30&#45;&gt;Node31 -->
<g id="edge38" class="edge">
<title>Node30&#45;&gt;Node31</title>
<path fill="none" stroke="midnightblue" d="M766.64,-124C782.92,-124 801.54,-124 818.22,-124"/>
<polygon fill="midnightblue" stroke="midnightblue" points="818.32,-127.5 828.32,-124 818.32,-120.5 818.32,-127.5"/>
</g>
<!-- Node32 -->
<g id="node32" class="node">
<title>Node32</title>
<g id="a_node32"><a xlink:href="getenv_8c.html#a0250cce1862c20e31d0c0ece960bc3a0" target="_top" xlink:title=" ">
<polygon fill="none" stroke="black" points="836,-76.5 836,-95.5 898,-95.5 898,-76.5 836,-76.5"/>
<text text-anchor="middle" x="867" y="-83.5" font-family="Helvetica,sans-Serif" font-size="10.00">join_path</text>
</a>
</g>
</g>
<!-- Node30&#45;&gt;Node32 -->
<g id="edge39" class="edge">
<title>Node30&#45;&gt;Node32</title>
<path fill="none" stroke="midnightblue" d="M759.46,-114.41C779.72,-109.01 805.08,-102.24 825.98,-96.67"/>
<polygon fill="midnightblue" stroke="midnightblue" points="827.07,-100 835.83,-94.04 825.27,-93.24 827.07,-100"/>
</g>
<!-- Node34&#45;&gt;Node32 -->
<g id="edge42" class="edge">
<title>Node34&#45;&gt;Node32</title>
<path fill="none" stroke="midnightblue" d="M760.57,-86C780.51,-86 805.14,-86 825.57,-86"/>
<polygon fill="midnightblue" stroke="midnightblue" points="825.83,-89.5 835.83,-86 825.83,-82.5 825.83,-89.5"/>
</g>
<!-- Node35 -->
<g id="node35" class="node">
<title>Node35</title>
<g id="a_node35"><a xlink:href="lst__env__two_8c.html#a4d4a14327b2c3ff88099102b6bd77986" target="_top" xlink:title=" ">
<polygon fill="none" stroke="black" points="815,-38.5 815,-57.5 919,-57.5 919,-38.5 815,-38.5"/>
<text text-anchor="middle" x="867" y="-45.5" font-family="Helvetica,sans-Serif" font-size="10.00">research_key_env</text>
</a>
</g>
</g>
<!-- Node34&#45;&gt;Node35 -->
<g id="edge43" class="edge">
<title>Node34&#45;&gt;Node35</title>
<path fill="none" stroke="midnightblue" d="M759.46,-76.41C777.94,-71.48 800.66,-65.43 820.36,-60.17"/>
<polygon fill="midnightblue" stroke="midnightblue" points="821.29,-63.54 830.05,-57.59 819.49,-56.78 821.29,-63.54"/>
</g>
<!-- Node36&#45;&gt;Node3 -->
<g id="edge46" class="edge">
<title>Node36&#45;&gt;Node3</title>
<path fill="none" stroke="midnightblue" d="M448.44,-591.43C547.9,-579.66 737.08,-557.26 822.37,-547.16"/>
<polygon fill="midnightblue" stroke="midnightblue" points="822.97,-550.62 832.49,-545.97 822.14,-543.67 822.97,-550.62"/>
</g>
<!-- Node37 -->
<g id="node37" class="node">
<title>Node37</title>
<g id="a_node37"><a xlink:href="redirection__verification_8c.html#a95641b4885e9c0b07b477846c96c0d2f" target="_top" xlink:title="we have to check if the file exist then if we are allowed to open it in any error case we write a mes...">
<polygon fill="none" stroke="black" points="508,-646.5 508,-665.5 606,-665.5 606,-646.5 508,-646.5"/>
<text text-anchor="middle" x="557" y="-653.5" font-family="Helvetica,sans-Serif" font-size="10.00">infile_redirection</text>
</a>
</g>
</g>
<!-- Node36&#45;&gt;Node37 -->
<g id="edge47" class="edge">
<title>Node36&#45;&gt;Node37</title>
<path fill="none" stroke="midnightblue" d="M407.57,-608.62C427.58,-616.76 457.42,-628.44 484,-637 491.44,-639.4 499.38,-641.72 507.18,-643.87"/>
<polygon fill="midnightblue" stroke="midnightblue" points="506.35,-647.27 516.92,-646.5 508.17,-640.52 506.35,-647.27"/>
</g>
<!-- Node39 -->
<g id="node39" class="node">
<title>Node39</title>
<g id="a_node39"><a xlink:href="redirection__verification_8c.html#ac61790fa82f2a9b6b904cd92135b6acb" target="_top" xlink:title="outfile and append are open with the right flags in a case of an error we write a message with the na...">
<polygon fill="none" stroke="black" points="484,-608.5 484,-627.5 630,-627.5 630,-608.5 484,-608.5"/>
<text text-anchor="middle" x="557" y="-615.5" font-family="Helvetica,sans-Serif" font-size="10.00">outfile_append_redirection</text>
</a>
</g>
</g>
<!-- Node36&#45;&gt;Node39 -->
<g id="edge51" class="edge">
<title>Node36&#45;&gt;Node39</title>
<path fill="none" stroke="midnightblue" d="M448.36,-606.07C456.64,-606.99 465.22,-607.94 473.75,-608.89"/>
<polygon fill="midnightblue" stroke="midnightblue" points="473.39,-612.37 483.72,-609.99 474.16,-605.41 473.39,-612.37"/>
</g>
<!-- Node37&#45;&gt;Node3 -->
<g id="edge50" class="edge">
<title>Node37&#45;&gt;Node3</title>
<path fill="none" stroke="midnightblue" d="M580.34,-665.56C622.17,-681.9 713.96,-710.17 779,-675 823.94,-650.7 849.39,-591.97 860.03,-561.33"/>
<polygon fill="midnightblue" stroke="midnightblue" points="863.37,-562.36 863.18,-551.77 856.72,-560.17 863.37,-562.36"/>
</g>
<!-- Node38 -->
<g id="node38" class="node">
<title>Node38</title>
<g id="a_node38"><a xlink:href="redirection__verification_8c.html#a5b79f4b52353f6558575b5da0dd28fd4" target="_top" xlink:title="we close the fd_in and fd_out in case of a fail this function is able to manage the error coming from...">
<polygon fill="none" stroke="black" points="679.5,-646.5 679.5,-665.5 765.5,-665.5 765.5,-646.5 679.5,-646.5"/>
<text text-anchor="middle" x="722.5" y="-653.5" font-family="Helvetica,sans-Serif" font-size="10.00">close_fd_error</text>
</a>
</g>
</g>
<!-- Node37&#45;&gt;Node38 -->
<g id="edge48" class="edge">
<title>Node37&#45;&gt;Node38</title>
<path fill="none" stroke="midnightblue" d="M606.17,-656C626.07,-656 649.19,-656 669.48,-656"/>
<polygon fill="midnightblue" stroke="midnightblue" points="669.49,-659.5 679.49,-656 669.49,-652.5 669.49,-659.5"/>
</g>
<!-- Node38&#45;&gt;Node3 -->
<g id="edge49" class="edge">
<title>Node38&#45;&gt;Node3</title>
<path fill="none" stroke="midnightblue" d="M751.44,-646.43C760.63,-642.64 770.63,-637.79 779,-632 808.89,-611.32 836.86,-579.25 852.66,-559.49"/>
<polygon fill="midnightblue" stroke="midnightblue" points="855.42,-561.64 858.84,-551.61 849.92,-557.32 855.42,-561.64"/>
</g>
<!-- Node39&#45;&gt;Node3 -->
<g id="edge53" class="edge">
<title>Node39&#45;&gt;Node3</title>
<path fill="none" stroke="midnightblue" d="M630.08,-617.93C674.1,-616 730.97,-610.1 779,-594 803.49,-585.79 828.51,-569.89 845.39,-557.83"/>
<polygon fill="midnightblue" stroke="midnightblue" points="847.89,-560.33 853.88,-551.59 843.74,-554.69 847.89,-560.33"/>
</g>
<!-- Node39&#45;&gt;Node38 -->
<g id="edge52" class="edge">
<title>Node39&#45;&gt;Node38</title>
<path fill="none" stroke="midnightblue" d="M599.26,-627.59C620.93,-632.63 647.68,-638.84 670.63,-644.18"/>
<polygon fill="midnightblue" stroke="midnightblue" points="670.01,-647.63 680.54,-646.48 671.59,-640.81 670.01,-647.63"/>
</g>
</g>
</svg>
        <g id="navigator" transform="translate(0 0)" fill="#404254">
                <rect fill="#f2f5e9" fill-opacity="0.5" stroke="#606060" stroke-width=".5" x="0" y="0" width="60" height="60"/>
                <use id="zoomplus" xlink:href="#zoomPlus" x="17" y="9" onmousedown="handleZoom(evt,'in')"/>
                <use id="zoomminus" xlink:href="#zoomMin" x="42" y="9" onmousedown="handleZoom(evt,'out')"/>
                <use id="reset" xlink:href="#resetDef" x="30" y="36" onmousedown="handleReset()"/>
                <g id="arrowUp" xlink:href="#dirArrow" transform="translate(30 24)" onmousedown="handlePan(0,-1)">
                  <use xlink:href="#rim" fill="#404040">
                        <set attributeName="fill" to="#808080" begin="arrowUp.mouseover" end="arrowUp.mouseout"/>
                  </use>
                  <path fill="none" stroke="white" stroke-width="1.5" d="M0,-3.0v7 M-2.5,-0.5L0,-3.0L2.5,-0.5"/>
                </g>
                <g id="arrowRight" xlink:href="#dirArrow" transform="rotate(90) translate(36 -43)" onmousedown="handlePan(1,0)">
                  <use xlink:href="#rim" fill="#404040">
                        <set attributeName="fill" to="#808080" begin="arrowRight.mouseover" end="arrowRight.mouseout"/>
                  </use>
                  <path fill="none" stroke="white" stroke-width="1.5" d="M0,-3.0v7 M-2.5,-0.5L0,-3.0L2.5,-0.5"/>
                </g>
                <g id="arrowDown" xlink:href="#dirArrow" transform="rotate(180) translate(-30 -48)" onmousedown="handlePan(0,1)">
                  <use xlink:href="#rim" fill="#404040">
                        <set attributeName="fill" to="#808080" begin="arrowDown.mouseover" end="arrowDown.mouseout"/>
                  </use>
                  <path fill="none" stroke="white" stroke-width="1.5" d="M0,-3.0v7 M-2.5,-0.5L0,-3.0L2.5,-0.5"/>
                </g>
                <g id="arrowLeft" xlink:href="#dirArrow" transform="rotate(270) translate(-36 17)" onmousedown="handlePan(-1,0)">
                  <use xlink:href="#rim" fill="#404040">
                        <set attributeName="fill" to="#808080" begin="arrowLeft.mouseover" end="arrowLeft.mouseout"/>
                  </use>
                  <path fill="none" stroke="white" stroke-width="1.5" d="M0,-3.0v7 M-2.5,-0.5L0,-3.0L2.5,-0.5"/>
                </g>
        </g>
        <svg viewBox="0 0 15 15" width="100%" height="30px" preserveAspectRatio="xMaxYMin meet">
         <g id="arrow_out" transform="scale(0.3 0.3)">
          <a xlink:href="multipipe_8c_a3f78d597d08aaca5580b2c89f956a3a2_cgraph_org.svg" target="_base">
           <rect id="button" ry="5" rx="5" y="6" x="6" height="38" width="38"
                fill="#f2f5e9" fill-opacity="0.5" stroke="#606060" stroke-width="1.0"/>
           <path id="arrow"
             d="M 11.500037,31.436501 C 11.940474,20.09759 22.043105,11.32322 32.158766,21.979434 L 37.068811,17.246167 C 37.068811,17.246167 37.088388,32 37.088388,32 L 22.160133,31.978069 C 22.160133,31.978069 26.997745,27.140456 26.997745,27.140456 C 18.528582,18.264221 13.291696,25.230495 11.500037,31.436501 z"
             style="fill:#404040;"/>
          </a>
         </g>
        </svg>
</svg>
