<?xml version="1.0" encoding="UTF-8" standalone="no"?>
<!DOCTYPE svg PUBLIC "-//W3C//DTD SVG 1.1//EN"
 "http://www.w3.org/Graphics/SVG/1.1/DTD/svg11.dtd">
<!-- Generated by graphviz version 2.43.0 (0)
 -->
<!-- Title: multipipe_intermediary_cmd Pages: 1 -->
<!--zoomable 588 -->
<svg id="main" version="1.1" xmlns="http://www.w3.org/2000/svg" xmlns:xlink="http://www.w3.org/1999/xlink" xml:space="preserve" onload="init(evt)">
<style type="text/css"><![CDATA[
.edge:hover path { stroke: red; }
.edge:hover polygon { stroke: red; fill: red; }
]]></style>
<script type="text/javascript"><![CDATA[
var edges = document.getElementsByTagName('g');
if (edges && edges.length) {
  for (var i=0;i<edges.length;i++) {
    if (edges[i].id.substr(0,4)=='edge') {
      edges[i].setAttribute('class','edge');
    }
  }
}
]]></script>
        <defs>
                <circle id="rim" cx="0" cy="0" r="7"/>
                <circle id="rim2" cx="0" cy="0" r="3.5"/>
                <g id="zoomPlus">
                        <use xlink:href="#rim" fill="#404040">
                                <set attributeName="fill" to="#808080" begin="zoomplus.mouseover" end="zoomplus.mouseout"/>
                        </use>
                        <path d="M-4,0h8M0,-4v8" fill="none" stroke="white" stroke-width="1.5" pointer-events="none"/>
                </g>
                <g id="zoomMin">
                        <use xlink:href="#rim" fill="#404040">
                                <set attributeName="fill" to="#808080" begin="zoomminus.mouseover" end="zoomminus.mouseout"/>
                        </use>
                        <path d="M-4,0h8" fill="none" stroke="white" stroke-width="1.5" pointer-events="none"/>
                </g>
                <g id="dirArrow">
                        <path fill="none" stroke="white" stroke-width="1.5" d="M0,-3.0v7 M-2.5,-0.5L0,-3.0L2.5,-0.5"/>
                </g>
               <g id="resetDef">
                       <use xlink:href="#rim2" fill="#404040">
                               <set attributeName="fill" to="#808080" begin="reset.mouseover" end="reset.mouseout"/>
                       </use>
               </g>
        </defs>

<script type="text/javascript">
var viewWidth = 1391;
var viewHeight = 588;
var sectionId = 'dynsection-8';
</script>
<script xlink:href="svgpan.js"/>
<svg id="graph" class="graph">
<g id="viewport">
<title>multipipe_intermediary_cmd</title>
<!-- Node1 -->
<g id="node1" class="node">
<title>Node1</title>
<g id="a_node1"><a xlink:title="it&#39;s where the fork happen and sent to be execute">
<polygon fill="#bfbfbf" stroke="black" points="0,-152.5 0,-171.5 158,-171.5 158,-152.5 0,-152.5"/>
<text text-anchor="middle" x="79" y="-159.5" font-family="Helvetica,sans-Serif" font-size="10.00">multipipe_intermediary_cmd</text>
</a>
</g>
</g>
<!-- Node2 -->
<g id="node2" class="node">
<title>Node2</title>
<g id="a_node2"><a xlink:href="redirection__multipipe_8c.html#af7980d82e7ea7c0c84519ef3e3011b98" target="_top" xlink:title=" ">
<polygon fill="none" stroke="black" points="194,-380.5 194,-399.5 288,-399.5 288,-380.5 194,-380.5"/>
<text text-anchor="middle" x="241" y="-387.5" font-family="Helvetica,sans-Serif" font-size="10.00">close_fd_parent</text>
</a>
</g>
</g>
<!-- Node1&#45;&gt;Node2 -->
<g id="edge1" class="edge">
<title>Node1&#45;&gt;Node2</title>
<path fill="none" stroke="midnightblue" d="M86.67,-171.51C111.02,-206.2 195.33,-326.34 227.44,-372.11"/>
<polygon fill="midnightblue" stroke="midnightblue" points="224.69,-374.28 233.3,-380.45 230.42,-370.26 224.69,-374.28"/>
</g>
<!-- Node4 -->
<g id="node4" class="node">
<title>Node4</title>
<g id="a_node4"><a xlink:href="multipipe_8c.html#a461ae962ce9a1aee7221ac4b9c581f98" target="_top" xlink:title=" ">
<polygon fill="none" stroke="black" points="199.5,-152.5 199.5,-171.5 282.5,-171.5 282.5,-152.5 199.5,-152.5"/>
<text text-anchor="middle" x="241" y="-159.5" font-family="Helvetica,sans-Serif" font-size="10.00">execute_child</text>
</a>
</g>
</g>
<!-- Node1&#45;&gt;Node4 -->
<g id="edge3" class="edge">
<title>Node1&#45;&gt;Node4</title>
<path fill="none" stroke="midnightblue" d="M158.13,-162C168.72,-162 179.36,-162 189.3,-162"/>
<polygon fill="midnightblue" stroke="midnightblue" points="189.38,-165.5 199.38,-162 189.38,-158.5 189.38,-165.5"/>
</g>
<!-- Node46 -->
<g id="node46" class="node">
<title>Node46</title>
<g id="a_node46"><a xlink:href="signals_8c.html#aa06f925baa9a6f549b31de64d4faac32" target="_top" xlink:title="allow us to don&#39;t create issue when a child process with readline">
<polygon fill="none" stroke="black" points="195,-114.5 195,-133.5 287,-133.5 287,-114.5 195,-114.5"/>
<text text-anchor="middle" x="241" y="-121.5" font-family="Helvetica,sans-Serif" font-size="10.00">sigint_handler2</text>
</a>
</g>
</g>
<!-- Node1&#45;&gt;Node46 -->
<g id="edge57" class="edge">
<title>Node1&#45;&gt;Node46</title>
<path fill="none" stroke="midnightblue" d="M120.37,-152.41C141.49,-147.4 167.53,-141.21 189.92,-135.89"/>
<polygon fill="midnightblue" stroke="midnightblue" points="190.99,-139.24 199.92,-133.52 189.38,-132.43 190.99,-139.24"/>
</g>
<!-- Node3 -->
<g id="node3" class="node">
<title>Node3</title>
<g id="a_node3"><a xlink:href="redirection__multipipe_8c.html#a1bca6910c90a19d96b36506a2e2cebf6" target="_top" xlink:title="as fd are all setup to &#45;1 at the beginning we check if they are open before trying to close we avoid ...">
<polygon fill="none" stroke="black" points="1309,-95.5 1309,-114.5 1378,-114.5 1378,-95.5 1309,-95.5"/>
<text text-anchor="middle" x="1343.5" y="-102.5" font-family="Helvetica,sans-Serif" font-size="10.00">ft_close_fd</text>
</a>
</g>
</g>
<!-- Node2&#45;&gt;Node3 -->
<g id="edge2" class="edge">
<title>Node2&#45;&gt;Node3</title>
<path fill="none" stroke="midnightblue" d="M248.81,-399.68C276.9,-438.4 388.41,-580 516.5,-580 516.5,-580 516.5,-580 1077.5,-580 1209.55,-580 1205.33,-468.23 1268,-352 1310.15,-273.83 1331.7,-168.57 1339.27,-125.08"/>
<polygon fill="midnightblue" stroke="midnightblue" points="1342.77,-125.41 1340.97,-114.97 1335.86,-124.25 1342.77,-125.41"/>
</g>
<!-- Node5 -->
<g id="node5" class="node">
<title>Node5</title>
<g id="a_node5"><a xlink:href="multipipe_8c.html#ac70e2499b8aeb789658ff4596ded7221" target="_top" xlink:title="as we are going to fork and create process, the new process will have inherited of all the opened fd....">
<polygon fill="none" stroke="black" points="324,-152.5 324,-171.5 431,-171.5 431,-152.5 324,-152.5"/>
<text text-anchor="middle" x="377.5" y="-159.5" font-family="Helvetica,sans-Serif" font-size="10.00">close_fd_heredocs</text>
</a>
</g>
</g>
<!-- Node4&#45;&gt;Node5 -->
<g id="edge4" class="edge">
<title>Node4&#45;&gt;Node5</title>
<path fill="none" stroke="midnightblue" d="M282.72,-162C292.56,-162 303.31,-162 313.9,-162"/>
<polygon fill="midnightblue" stroke="midnightblue" points="313.98,-165.5 323.98,-162 313.98,-158.5 313.98,-165.5"/>
</g>
<!-- Node6 -->
<g id="node6" class="node">
<title>Node6</title>
<g id="a_node6"><a xlink:href="redirection__multipipe_8c.html#a26c96266f1645047a9bdd9af22de94a7" target="_top" xlink:title=" ">
<polygon fill="none" stroke="black" points="1022.5,-38.5 1022.5,-57.5 1130.5,-57.5 1130.5,-38.5 1022.5,-38.5"/>
<text text-anchor="middle" x="1076.5" y="-45.5" font-family="Helvetica,sans-Serif" font-size="10.00">command_redirect</text>
</a>
</g>
</g>
<!-- Node4&#45;&gt;Node6 -->
<g id="edge5" class="edge">
<title>Node4&#45;&gt;Node6</title>
<path fill="none" stroke="midnightblue" d="M270.07,-152.32C276.19,-149.69 282.49,-146.57 288,-143 306.48,-131.04 305.03,-120.16 324,-109 401.35,-63.49 426.75,-48 516.5,-48 516.5,-48 516.5,-48 785,-48 863.26,-48 953.39,-48 1012.24,-48"/>
<polygon fill="midnightblue" stroke="midnightblue" points="1012.49,-51.5 1022.49,-48 1012.49,-44.5 1012.49,-51.5"/>
</g>
<!-- Node9 -->
<g id="node9" class="node">
<title>Node9</title>
<g id="a_node9"><a xlink:href="lst__cmd2_8c.html#a132395876bb5a7cfe926b9e37571a1e3" target="_top" xlink:title=" ">
<polygon fill="none" stroke="black" points="738,-95.5 738,-114.5 830,-114.5 830,-95.5 738,-95.5"/>
<text text-anchor="middle" x="784" y="-102.5" font-family="Helvetica,sans-Serif" font-size="10.00">destructor_cmd</text>
</a>
</g>
</g>
<!-- Node4&#45;&gt;Node9 -->
<g id="edge11" class="edge">
<title>Node4&#45;&gt;Node9</title>
<path fill="none" stroke="midnightblue" d="M265.42,-152.42C287.49,-143.47 318.03,-131.29 324,-130 466.97,-99.04 640.52,-99.6 727.56,-102.41"/>
<polygon fill="midnightblue" stroke="midnightblue" points="727.63,-105.92 737.74,-102.77 727.87,-98.92 727.63,-105.92"/>
</g>
<!-- Node13 -->
<g id="node13" class="node">
<title>Node13</title>
<g id="a_node13"><a xlink:href="lst__env_8c.html#a226ae0aa054e697998b2ecbc5d61d592" target="_top" xlink:title=" ">
<polygon fill="none" stroke="black" points="739.5,-133.5 739.5,-152.5 828.5,-152.5 828.5,-133.5 739.5,-133.5"/>
<text text-anchor="middle" x="784" y="-140.5" font-family="Helvetica,sans-Serif" font-size="10.00">destructor_env</text>
</a>
</g>
</g>
<!-- Node4&#45;&gt;Node13 -->
<g id="edge17" class="edge">
<title>Node4&#45;&gt;Node13</title>
<path fill="none" stroke="midnightblue" d="M275.21,-152.49C290.01,-148.73 307.74,-144.86 324,-143 469.88,-126.32 643.55,-133.65 729.43,-139.07"/>
<polygon fill="midnightblue" stroke="midnightblue" points="729.26,-142.57 739.46,-139.72 729.71,-135.58 729.26,-142.57"/>
</g>
<!-- Node15 -->
<g id="node15" class="node">
<title>Node15</title>
<g id="a_node15"><a xlink:href="execution__node_8c.html#adda76b40c34c18ec83b1d98700083f8a" target="_top" xlink:title="we are going to execute the command here we have a security about absolute path given =&gt; because it&#39;s...">
<polygon fill="none" stroke="black" points="331,-380.5 331,-399.5 424,-399.5 424,-380.5 331,-380.5"/>
<text text-anchor="middle" x="377.5" y="-387.5" font-family="Helvetica,sans-Serif" font-size="10.00">execution_node</text>
</a>
</g>
</g>
<!-- Node4&#45;&gt;Node15 -->
<g id="edge19" class="edge">
<title>Node4&#45;&gt;Node15</title>
<path fill="none" stroke="midnightblue" d="M247.61,-171.51C268.03,-206.13 338.65,-325.84 365.77,-371.82"/>
<polygon fill="midnightblue" stroke="midnightblue" points="362.77,-373.62 370.87,-380.45 368.8,-370.06 362.77,-373.62"/>
</g>
<!-- Node45 -->
<g id="node45" class="node">
<title>Node45</title>
<g id="a_node45"><a xlink:href="signals_8c.html#a368a774e2b304a3de55f58168563967d" target="_top" xlink:title=" ">
<polygon fill="none" stroke="black" points="331.5,-190.5 331.5,-209.5 423.5,-209.5 423.5,-190.5 331.5,-190.5"/>
<text text-anchor="middle" x="377.5" y="-197.5" font-family="Helvetica,sans-Serif" font-size="10.00">sigquit_handler</text>
</a>
</g>
</g>
<!-- Node4&#45;&gt;Node45 -->
<g id="edge56" class="edge">
<title>Node4&#45;&gt;Node45</title>
<path fill="none" stroke="midnightblue" d="M275.94,-171.59C293.22,-176.47 314.43,-182.46 332.91,-187.68"/>
<polygon fill="midnightblue" stroke="midnightblue" points="332,-191.06 342.57,-190.41 333.9,-184.33 332,-191.06"/>
</g>
<!-- Node6&#45;&gt;Node3 -->
<g id="edge10" class="edge">
<title>Node6&#45;&gt;Node3</title>
<path fill="none" stroke="midnightblue" d="M1130.66,-48.05C1169.43,-49.35 1222.87,-53.75 1268,-67 1286.06,-72.3 1304.93,-81.97 1319.16,-90.23"/>
<polygon fill="midnightblue" stroke="midnightblue" points="1317.41,-93.27 1327.78,-95.4 1321,-87.26 1317.41,-93.27"/>
</g>
<!-- Node7 -->
<g id="node7" class="node">
<title>Node7</title>
<g id="a_node7"><a xlink:href="redirection__multipipe_8c.html#a3a0d7f695cf53df46301e14ffab77638" target="_top" xlink:title=" ">
<polygon fill="none" stroke="black" points="1173.5,-0.5 1173.5,-19.5 1262.5,-19.5 1262.5,-0.5 1173.5,-0.5"/>
<text text-anchor="middle" x="1218" y="-7.5" font-family="Helvetica,sans-Serif" font-size="10.00">close_previous</text>
</a>
</g>
</g>
<!-- Node6&#45;&gt;Node7 -->
<g id="edge6" class="edge">
<title>Node6&#45;&gt;Node7</title>
<path fill="none" stroke="midnightblue" d="M1112.7,-38.41C1130.71,-33.51 1152.83,-27.48 1172.06,-22.24"/>
<polygon fill="midnightblue" stroke="midnightblue" points="1173.08,-25.59 1181.81,-19.59 1171.24,-18.84 1173.08,-25.59"/>
</g>
<!-- Node8 -->
<g id="node8" class="node">
<title>Node8</title>
<g id="a_node8"><a xlink:href="redirection__multipipe_8c.html#a5b749bc2b4088984c0efe1c479ae6ec8" target="_top" xlink:title=" ">
<polygon fill="none" stroke="black" points="1178,-76.5 1178,-95.5 1258,-95.5 1258,-76.5 1178,-76.5"/>
<text text-anchor="middle" x="1218" y="-83.5" font-family="Helvetica,sans-Serif" font-size="10.00">fail_previous</text>
</a>
</g>
</g>
<!-- Node6&#45;&gt;Node8 -->
<g id="edge8" class="edge">
<title>Node6&#45;&gt;Node8</title>
<path fill="none" stroke="midnightblue" d="M1112.7,-57.59C1130.71,-62.49 1152.83,-68.52 1172.06,-73.76"/>
<polygon fill="midnightblue" stroke="midnightblue" points="1171.24,-77.16 1181.81,-76.41 1173.08,-70.41 1171.24,-77.16"/>
</g>
<!-- Node7&#45;&gt;Node3 -->
<g id="edge7" class="edge">
<title>Node7&#45;&gt;Node3</title>
<path fill="none" stroke="midnightblue" d="M1242.25,-19.61C1250.68,-23.55 1260.07,-28.48 1268,-34 1290.51,-49.68 1312.82,-72.1 1327.07,-87.53"/>
<polygon fill="midnightblue" stroke="midnightblue" points="1324.8,-90.23 1334.11,-95.29 1329.99,-85.53 1324.8,-90.23"/>
</g>
<!-- Node8&#45;&gt;Node3 -->
<g id="edge9" class="edge">
<title>Node8&#45;&gt;Node3</title>
<path fill="none" stroke="midnightblue" d="M1258.08,-92.01C1270.9,-93.98 1285.24,-96.19 1298.41,-98.22"/>
<polygon fill="midnightblue" stroke="midnightblue" points="1298.26,-101.73 1308.67,-99.8 1299.32,-94.82 1298.26,-101.73"/>
</g>
<!-- Node10 -->
<g id="node10" class="node">
<title>Node10</title>
<g id="a_node10"><a xlink:href="lst__cmd2_8c.html#a8e2b63759f149b547e0d07f210ede9b3" target="_top" xlink:title=" ">
<polygon fill="none" stroke="black" points="899.5,-114.5 899.5,-133.5 960.5,-133.5 960.5,-114.5 899.5,-114.5"/>
<text text-anchor="middle" x="930" y="-121.5" font-family="Helvetica,sans-Serif" font-size="10.00">pop_cmd</text>
</a>
</g>
</g>
<!-- Node9&#45;&gt;Node10 -->
<g id="edge12" class="edge">
<title>Node9&#45;&gt;Node10</title>
<path fill="none" stroke="midnightblue" d="M830.17,-110.96C849.15,-113.46 871.03,-116.35 889.37,-118.77"/>
<polygon fill="midnightblue" stroke="midnightblue" points="889.07,-122.26 899.44,-120.1 889.98,-115.32 889.07,-122.26"/>
</g>
<!-- Node10&#45;&gt;Node3 -->
<g id="edge16" class="edge">
<title>Node10&#45;&gt;Node3</title>
<path fill="none" stroke="midnightblue" d="M960.82,-131.37C1020.22,-144.83 1157.18,-169.63 1268,-143 1286.65,-138.52 1305.88,-128.55 1320.13,-119.94"/>
<polygon fill="midnightblue" stroke="midnightblue" points="1322.11,-122.84 1328.73,-114.56 1318.39,-116.9 1322.11,-122.84"/>
</g>
<!-- Node11 -->
<g id="node11" class="node">
<title>Node11</title>
<g id="a_node11"><a xlink:href="lst__redir2_8c.html#a30ccaf401a4f897e48ead5fe54f4b307" target="_top" xlink:title=" ">
<polygon fill="none" stroke="black" points="1029.5,-114.5 1029.5,-133.5 1123.5,-133.5 1123.5,-114.5 1029.5,-114.5"/>
<text text-anchor="middle" x="1076.5" y="-121.5" font-family="Helvetica,sans-Serif" font-size="10.00">destructor_redir</text>
</a>
</g>
</g>
<!-- Node10&#45;&gt;Node11 -->
<g id="edge13" class="edge">
<title>Node10&#45;&gt;Node11</title>
<path fill="none" stroke="midnightblue" d="M960.59,-124C977.47,-124 999.18,-124 1019.18,-124"/>
<polygon fill="midnightblue" stroke="midnightblue" points="1019.44,-127.5 1029.44,-124 1019.44,-120.5 1019.44,-127.5"/>
</g>
<!-- Node12 -->
<g id="node12" class="node">
<title>Node12</title>
<g id="a_node12"><a xlink:href="lst__redir2_8c.html#ade8f0bdda51d9bf348ebeb38fefba881" target="_top" xlink:title=" ">
<polygon fill="none" stroke="black" points="1187,-114.5 1187,-133.5 1249,-133.5 1249,-114.5 1187,-114.5"/>
<text text-anchor="middle" x="1218" y="-121.5" font-family="Helvetica,sans-Serif" font-size="10.00">pop_redir</text>
</a>
</g>
</g>
<!-- Node11&#45;&gt;Node12 -->
<g id="edge14" class="edge">
<title>Node11&#45;&gt;Node12</title>
<path fill="none" stroke="midnightblue" d="M1123.56,-124C1140.62,-124 1159.82,-124 1176.36,-124"/>
<polygon fill="midnightblue" stroke="midnightblue" points="1176.8,-127.5 1186.8,-124 1176.8,-120.5 1176.8,-127.5"/>
</g>
<!-- Node12&#45;&gt;Node3 -->
<g id="edge15" class="edge">
<title>Node12&#45;&gt;Node3</title>
<path fill="none" stroke="midnightblue" d="M1249.21,-119.35C1264.11,-117.06 1282.37,-114.25 1298.76,-111.73"/>
<polygon fill="midnightblue" stroke="midnightblue" points="1299.33,-115.18 1308.68,-110.2 1298.27,-108.26 1299.33,-115.18"/>
</g>
<!-- Node14 -->
<g id="node14" class="node">
<title>Node14</title>
<g id="a_node14"><a xlink:href="lst__env_8c.html#a058c245b5f2ef22f9d2659f90e4d3537" target="_top" xlink:title=" ">
<polygon fill="none" stroke="black" points="901,-152.5 901,-171.5 959,-171.5 959,-152.5 901,-152.5"/>
<text text-anchor="middle" x="930" y="-159.5" font-family="Helvetica,sans-Serif" font-size="10.00">pop_env</text>
</a>
</g>
</g>
<!-- Node13&#45;&gt;Node14 -->
<g id="edge18" class="edge">
<title>Node13&#45;&gt;Node14</title>
<path fill="none" stroke="midnightblue" d="M828.6,-148.75C848.43,-151.37 871.69,-154.44 890.83,-156.96"/>
<polygon fill="midnightblue" stroke="midnightblue" points="890.62,-160.47 900.99,-158.3 891.53,-153.53 890.62,-160.47"/>
</g>
<!-- Node16 -->
<g id="node16" class="node">
<title>Node16</title>
<g id="a_node16"><a xlink:href="execution__node_8c.html#a74f4c34ebdc38c1fb50db2aa13f97b66" target="_top" xlink:title=" ">
<polygon fill="none" stroke="black" points="467,-418.5 467,-437.5 568,-437.5 568,-418.5 467,-418.5"/>
<text text-anchor="middle" x="517.5" y="-425.5" font-family="Helvetica,sans-Serif" font-size="10.00">check_accessible</text>
</a>
</g>
</g>
<!-- Node15&#45;&gt;Node16 -->
<g id="edge20" class="edge">
<title>Node15&#45;&gt;Node16</title>
<path fill="none" stroke="midnightblue" d="M413.32,-399.59C431.14,-404.49 453.02,-410.52 472.04,-415.76"/>
<polygon fill="midnightblue" stroke="midnightblue" points="471.12,-419.13 481.69,-418.41 472.98,-412.38 471.12,-419.13"/>
</g>
<!-- Node17 -->
<g id="node17" class="node">
<title>Node17</title>
<g id="a_node17"><a xlink:href="execution__node_8c.html#adc2c91230d4a0a1a1f98db2a888afcaa" target="_top" xlink:title="error message management for the specific case of execution">
<polygon fill="none" stroke="black" points="604,-418.5 604,-437.5 693,-437.5 693,-418.5 604,-418.5"/>
<text text-anchor="middle" x="648.5" y="-425.5" font-family="Helvetica,sans-Serif" font-size="10.00">message_error</text>
</a>
</g>
</g>
<!-- Node15&#45;&gt;Node17 -->
<g id="edge52" class="edge">
<title>Node15&#45;&gt;Node17</title>
<path fill="none" stroke="midnightblue" d="M424.3,-392.86C462.82,-395.67 519.26,-400.77 568,-409 579.14,-410.88 591.04,-413.43 602.15,-416.05"/>
<polygon fill="midnightblue" stroke="midnightblue" points="601.55,-419.5 612.09,-418.46 603.2,-412.7 601.55,-419.5"/>
</g>
<!-- Node18 -->
<g id="node18" class="node">
<title>Node18</title>
<g id="a_node18"><a xlink:href="launcher_8c.html#a3acc0bb56da881cc8609ca9e94ec8e93" target="_top" xlink:title="detect if it&#39;s a builtin with strncmp() but the real question is &quot;is it a builtin I have &#160;to launch i...">
<polygon fill="none" stroke="black" points="481,-342.5 481,-361.5 554,-361.5 554,-342.5 481,-342.5"/>
<text text-anchor="middle" x="517.5" y="-349.5" font-family="Helvetica,sans-Serif" font-size="10.00">is_it_builtin</text>
</a>
</g>
</g>
<!-- Node15&#45;&gt;Node18 -->
<g id="edge22" class="edge">
<title>Node15&#45;&gt;Node18</title>
<path fill="none" stroke="midnightblue" d="M413.32,-380.41C431.14,-375.51 453.02,-369.48 472.04,-364.24"/>
<polygon fill="midnightblue" stroke="midnightblue" points="472.98,-367.62 481.69,-361.59 471.12,-360.87 472.98,-367.62"/>
</g>
<!-- Node19 -->
<g id="node19" class="node">
<title>Node19</title>
<g id="a_node19"><a xlink:href="launcher_8c.html#a7bee4f6fbfd70ef7ec1f52856538ac71" target="_top" xlink:title="launch the builtin &#160;&#160;some of them are not present because we have to fork() them why ?...">
<polygon fill="none" stroke="black" points="475,-285.5 475,-304.5 560,-304.5 560,-285.5 475,-285.5"/>
<text text-anchor="middle" x="517.5" y="-292.5" font-family="Helvetica,sans-Serif" font-size="10.00">launch_builtin</text>
</a>
</g>
</g>
<!-- Node15&#45;&gt;Node19 -->
<g id="edge23" class="edge">
<title>Node15&#45;&gt;Node19</title>
<path fill="none" stroke="midnightblue" d="M392.49,-380.37C416.36,-363.94 465.14,-330.36 493.9,-310.56"/>
<polygon fill="midnightblue" stroke="midnightblue" points="496.22,-313.21 502.47,-304.66 492.25,-307.44 496.22,-313.21"/>
</g>
<!-- Node41 -->
<g id="node41" class="node">
<title>Node41</title>
<g id="a_node41"><a xlink:href="lst__env__two_8c.html#aafcce0b2f2958645e84ae23b14116680" target="_top" xlink:title=" ">
<polygon fill="none" stroke="black" points="473.5,-456.5 473.5,-475.5 561.5,-475.5 561.5,-456.5 473.5,-456.5"/>
<text text-anchor="middle" x="517.5" y="-463.5" font-family="Helvetica,sans-Serif" font-size="10.00">lst_to_tab_env</text>
</a>
</g>
</g>
<!-- Node15&#45;&gt;Node41 -->
<g id="edge49" class="edge">
<title>Node15&#45;&gt;Node41</title>
<path fill="none" stroke="midnightblue" d="M391.48,-399.58C408.3,-411.7 438.8,-432.7 467,-447 470.83,-448.94 474.91,-450.81 479.03,-452.56"/>
<polygon fill="midnightblue" stroke="midnightblue" points="477.99,-455.92 488.57,-456.43 480.62,-449.43 477.99,-455.92"/>
</g>
<!-- Node44 -->
<g id="node44" class="node">
<title>Node44</title>
<g id="a_node44"><a xlink:href="getenv_8c.html#a5d0cf05c2622983111dcfc0f179c5739" target="_top" xlink:title=" ">
<polygon fill="none" stroke="black" points="479.5,-494.5 479.5,-513.5 555.5,-513.5 555.5,-494.5 479.5,-494.5"/>
<text text-anchor="middle" x="517.5" y="-501.5" font-family="Helvetica,sans-Serif" font-size="10.00">search_path</text>
</a>
</g>
</g>
<!-- Node15&#45;&gt;Node44 -->
<g id="edge53" class="edge">
<title>Node15&#45;&gt;Node44</title>
<path fill="none" stroke="midnightblue" d="M385.18,-399.71C398.62,-418.59 430.75,-460.54 467,-485 469.75,-486.85 472.7,-488.56 475.75,-490.13"/>
<polygon fill="midnightblue" stroke="midnightblue" points="474.51,-493.41 485.06,-494.41 477.43,-487.05 474.51,-493.41"/>
</g>
<!-- Node16&#45;&gt;Node17 -->
<g id="edge21" class="edge">
<title>Node16&#45;&gt;Node17</title>
<path fill="none" stroke="midnightblue" d="M568.01,-428C576.39,-428 585.13,-428 593.62,-428"/>
<polygon fill="midnightblue" stroke="midnightblue" points="593.82,-431.5 603.82,-428 593.82,-424.5 593.82,-431.5"/>
</g>
<!-- Node20 -->
<g id="node20" class="node">
<title>Node20</title>
<g id="a_node20"><a xlink:href="cd_8c.html#afa3cf8a1d55856208b8d44453d4cf9b4" target="_top" xlink:title=" ">
<polygon fill="none" stroke="black" points="634,-380.5 634,-399.5 663,-399.5 663,-380.5 634,-380.5"/>
<text text-anchor="middle" x="648.5" y="-387.5" font-family="Helvetica,sans-Serif" font-size="10.00">cd</text>
</a>
</g>
</g>
<!-- Node19&#45;&gt;Node20 -->
<g id="edge24" class="edge">
<title>Node19&#45;&gt;Node20</title>
<path fill="none" stroke="midnightblue" d="M532.41,-304.77C542.59,-312.13 556.57,-322.7 568,-333 585.28,-348.58 584.96,-357.63 604,-371 610.16,-375.33 617.47,-378.99 624.32,-381.9"/>
<polygon fill="midnightblue" stroke="midnightblue" points="623.25,-385.24 633.83,-385.63 625.8,-378.72 623.25,-385.24"/>
</g>
<!-- Node25 -->
<g id="node25" class="node">
<title>Node25</title>
<g id="a_node25"><a xlink:href="env_8c.html#a08aa1a32a4d2f6bcca10f6424195d4ef" target="_top" xlink:title=" ">
<polygon fill="none" stroke="black" points="631,-190.5 631,-209.5 666,-209.5 666,-190.5 631,-190.5"/>
<text text-anchor="middle" x="648.5" y="-197.5" font-family="Helvetica,sans-Serif" font-size="10.00">env</text>
</a>
</g>
</g>
<!-- Node19&#45;&gt;Node25 -->
<g id="edge29" class="edge">
<title>Node19&#45;&gt;Node25</title>
<path fill="none" stroke="midnightblue" d="M527.68,-285.02C542.52,-269.34 573.22,-238.7 604,-219 609.34,-215.59 615.39,-212.51 621.25,-209.87"/>
<polygon fill="midnightblue" stroke="midnightblue" points="622.9,-212.98 630.77,-205.88 620.19,-206.52 622.9,-212.98"/>
</g>
<!-- Node26 -->
<g id="node26" class="node">
<title>Node26</title>
<g id="a_node26"><a xlink:href="export_8c.html#a1bb2544b6254ee4ddb592a4cfa61734f" target="_top" xlink:title=" ">
<polygon fill="none" stroke="black" points="613,-304.5 613,-323.5 684,-323.5 684,-304.5 613,-304.5"/>
<text text-anchor="middle" x="648.5" y="-311.5" font-family="Helvetica,sans-Serif" font-size="10.00">export_call</text>
</a>
</g>
</g>
<!-- Node19&#45;&gt;Node26 -->
<g id="edge30" class="edge">
<title>Node19&#45;&gt;Node26</title>
<path fill="none" stroke="midnightblue" d="M560.03,-301.12C573.64,-303.12 588.83,-305.36 602.68,-307.4"/>
<polygon fill="midnightblue" stroke="midnightblue" points="602.56,-310.92 612.96,-308.91 603.58,-303.99 602.56,-310.92"/>
</g>
<!-- Node34 -->
<g id="node34" class="node">
<title>Node34</title>
<g id="a_node34"><a xlink:href="my__echo_8c.html#a5522916069f77552d810e207670e3170" target="_top" xlink:title=" ">
<polygon fill="none" stroke="black" points="618,-266.5 618,-285.5 679,-285.5 679,-266.5 618,-266.5"/>
<text text-anchor="middle" x="648.5" y="-273.5" font-family="Helvetica,sans-Serif" font-size="10.00">my_echo</text>
</a>
</g>
</g>
<!-- Node19&#45;&gt;Node34 -->
<g id="edge39" class="edge">
<title>Node19&#45;&gt;Node34</title>
<path fill="none" stroke="midnightblue" d="M560.03,-288.88C575.35,-286.63 592.66,-284.08 607.81,-281.85"/>
<polygon fill="midnightblue" stroke="midnightblue" points="608.52,-285.28 617.9,-280.36 607.5,-278.35 608.52,-285.28"/>
</g>
<!-- Node36 -->
<g id="node36" class="node">
<title>Node36</title>
<g id="a_node36"><a xlink:href="exit_8c.html#adcbec3416f97b2d0b8d53cf4c2b2a436" target="_top" xlink:title=" ">
<polygon fill="none" stroke="black" points="620.5,-152.5 620.5,-171.5 676.5,-171.5 676.5,-152.5 620.5,-152.5"/>
<text text-anchor="middle" x="648.5" y="-159.5" font-family="Helvetica,sans-Serif" font-size="10.00">my_exit</text>
</a>
</g>
</g>
<!-- Node19&#45;&gt;Node36 -->
<g id="edge41" class="edge">
<title>Node19&#45;&gt;Node36</title>
<path fill="none" stroke="midnightblue" d="M523.41,-285.43C534.84,-264.02 565.2,-211.71 604,-181 606.17,-179.28 608.51,-177.69 610.95,-176.22"/>
<polygon fill="midnightblue" stroke="midnightblue" points="612.84,-179.18 620.05,-171.42 609.58,-172.99 612.84,-179.18"/>
</g>
<!-- Node38 -->
<g id="node38" class="node">
<title>Node38</title>
<g id="a_node38"><a xlink:href="pwd_8c.html#ac6977235be2514ba716ef89aad796063" target="_top" xlink:title=" ">
<polygon fill="none" stroke="black" points="630,-342.5 630,-361.5 667,-361.5 667,-342.5 630,-342.5"/>
<text text-anchor="middle" x="648.5" y="-349.5" font-family="Helvetica,sans-Serif" font-size="10.00">pwd</text>
</a>
</g>
</g>
<!-- Node19&#45;&gt;Node38 -->
<g id="edge46" class="edge">
<title>Node19&#45;&gt;Node38</title>
<path fill="none" stroke="midnightblue" d="M539.92,-304.56C557.2,-312.27 582.15,-323.37 604,-333 609.28,-335.33 614.92,-337.8 620.34,-340.17"/>
<polygon fill="midnightblue" stroke="midnightblue" points="619.15,-343.47 629.71,-344.26 621.95,-337.05 619.15,-343.47"/>
</g>
<!-- Node39 -->
<g id="node39" class="node">
<title>Node39</title>
<g id="a_node39"><a xlink:href="unset_8c.html#abcfd4d5a4f0408bdc748ce044e5ce08c" target="_top" xlink:title=" ">
<polygon fill="none" stroke="black" points="615.5,-228.5 615.5,-247.5 681.5,-247.5 681.5,-228.5 615.5,-228.5"/>
<text text-anchor="middle" x="648.5" y="-235.5" font-family="Helvetica,sans-Serif" font-size="10.00">unset_call</text>
</a>
</g>
</g>
<!-- Node19&#45;&gt;Node39 -->
<g id="edge47" class="edge">
<title>Node19&#45;&gt;Node39</title>
<path fill="none" stroke="midnightblue" d="M539.92,-285.44C557.2,-277.73 582.15,-266.63 604,-257 607.9,-255.28 612.01,-253.48 616.07,-251.7"/>
<polygon fill="midnightblue" stroke="midnightblue" points="617.6,-254.85 625.36,-247.64 614.79,-248.44 617.6,-254.85"/>
</g>
<!-- Node21 -->
<g id="node21" class="node">
<title>Node21</title>
<g id="a_node21"><a xlink:href="cd_8c.html#a7593627e795ae769b5117673b60846c9" target="_top" xlink:title=" ">
<polygon fill="none" stroke="black" points="768,-247.5 768,-266.5 800,-266.5 800,-247.5 768,-247.5"/>
<text text-anchor="middle" x="784" y="-254.5" font-family="Helvetica,sans-Serif" font-size="10.00">len</text>
</a>
</g>
</g>
<!-- Node20&#45;&gt;Node21 -->
<g id="edge25" class="edge">
<title>Node20&#45;&gt;Node21</title>
<path fill="none" stroke="midnightblue" d="M663.3,-386.98C672.78,-384.26 685.05,-379.36 693,-371 724.13,-338.29 696.69,-307.54 729,-276 736.81,-268.37 747.86,-263.79 757.93,-261.05"/>
<polygon fill="midnightblue" stroke="midnightblue" points="758.91,-264.42 767.9,-258.81 757.37,-257.59 758.91,-264.42"/>
</g>
<!-- Node22 -->
<g id="node22" class="node">
<title>Node22</title>
<g id="a_node22"><a xlink:href="lst__env__two_8c.html#a4d4a14327b2c3ff88099102b6bd77986" target="_top" xlink:title=" ">
<polygon fill="none" stroke="black" points="732,-475.5 732,-494.5 836,-494.5 836,-475.5 732,-475.5"/>
<text text-anchor="middle" x="784" y="-482.5" font-family="Helvetica,sans-Serif" font-size="10.00">research_key_env</text>
</a>
</g>
</g>
<!-- Node20&#45;&gt;Node22 -->
<g id="edge26" class="edge">
<title>Node20&#45;&gt;Node22</title>
<path fill="none" stroke="midnightblue" d="M663.33,-394.86C672.14,-398.23 683.62,-403.17 693,-409 720.46,-426.08 748.33,-451.06 765.63,-467.66"/>
<polygon fill="midnightblue" stroke="midnightblue" points="763.63,-470.59 773.23,-475.06 768.51,-465.58 763.63,-470.59"/>
</g>
<!-- Node23 -->
<g id="node23" class="node">
<title>Node23</title>
<g id="a_node23"><a xlink:href="cd_8c.html#a68bb8beb2cf13bb992af8322f31f94e7" target="_top" xlink:title=" ">
<polygon fill="none" stroke="black" points="892,-380.5 892,-399.5 968,-399.5 968,-380.5 892,-380.5"/>
<text text-anchor="middle" x="930" y="-387.5" font-family="Helvetica,sans-Serif" font-size="10.00">update_pwd</text>
</a>
</g>
</g>
<!-- Node20&#45;&gt;Node23 -->
<g id="edge27" class="edge">
<title>Node20&#45;&gt;Node23</title>
<path fill="none" stroke="midnightblue" d="M663.36,-390C702.78,-390 816.86,-390 881.98,-390"/>
<polygon fill="midnightblue" stroke="midnightblue" points="882,-393.5 892,-390 882,-386.5 882,-393.5"/>
</g>
<!-- Node24 -->
<g id="node24" class="node">
<title>Node24</title>
<g id="a_node24"><a xlink:href="lst__env__two_8c.html#a8cd6579fc3858072521e55ef235a2637" target="_top" xlink:title=" ">
<polygon fill="none" stroke="black" points="1021,-361.5 1021,-380.5 1132,-380.5 1132,-361.5 1021,-361.5"/>
<text text-anchor="middle" x="1076.5" y="-368.5" font-family="Helvetica,sans-Serif" font-size="10.00">research_node_env</text>
</a>
</g>
</g>
<!-- Node23&#45;&gt;Node24 -->
<g id="edge28" class="edge">
<title>Node23&#45;&gt;Node24</title>
<path fill="none" stroke="midnightblue" d="M968.21,-385.11C981.26,-383.39 996.31,-381.41 1010.94,-379.49"/>
<polygon fill="midnightblue" stroke="midnightblue" points="1011.52,-382.94 1020.97,-378.17 1010.6,-376 1011.52,-382.94"/>
</g>
<!-- Node27 -->
<g id="node27" class="node">
<title>Node27</title>
<g id="a_node27"><a xlink:href="export_8c.html#a63ef72e778f2b52c924bf77ae989dc80" target="_top" xlink:title=" ">
<polygon fill="none" stroke="black" points="760,-323.5 760,-342.5 808,-342.5 808,-323.5 760,-323.5"/>
<text text-anchor="middle" x="784" y="-330.5" font-family="Helvetica,sans-Serif" font-size="10.00">export</text>
</a>
</g>
</g>
<!-- Node26&#45;&gt;Node27 -->
<g id="edge31" class="edge">
<title>Node26&#45;&gt;Node27</title>
<path fill="none" stroke="midnightblue" d="M684.23,-318.94C704.4,-321.81 729.68,-325.41 749.62,-328.25"/>
<polygon fill="midnightblue" stroke="midnightblue" points="749.39,-331.75 759.79,-329.7 750.38,-324.82 749.39,-331.75"/>
</g>
<!-- Node28 -->
<g id="node28" class="node">
<title>Node28</title>
<g id="a_node28"><a xlink:href="export_8c.html#a077edb8749298d8320620813ff84519c" target="_top" xlink:title=" ">
<polygon fill="none" stroke="black" points="875,-342.5 875,-361.5 985,-361.5 985,-342.5 875,-342.5"/>
<text text-anchor="middle" x="930" y="-349.5" font-family="Helvetica,sans-Serif" font-size="10.00">check_validity_key</text>
</a>
</g>
</g>
<!-- Node27&#45;&gt;Node28 -->
<g id="edge32" class="edge">
<title>Node27&#45;&gt;Node28</title>
<path fill="none" stroke="midnightblue" d="M808.14,-336.05C823.51,-338.08 844.5,-340.85 864.68,-343.51"/>
<polygon fill="midnightblue" stroke="midnightblue" points="864.44,-347.01 874.81,-344.85 865.36,-340.07 864.44,-347.01"/>
</g>
<!-- Node29 -->
<g id="node29" class="node">
<title>Node29</title>
<g id="a_node29"><a xlink:href="export_8c.html#a90ff129fee9412bd5c6d74be5970b99f" target="_top" xlink:title=" ">
<polygon fill="none" stroke="black" points="875,-304.5 875,-323.5 985,-323.5 985,-304.5 875,-304.5"/>
<text text-anchor="middle" x="930" y="-311.5" font-family="Helvetica,sans-Serif" font-size="10.00">export_env_update</text>
</a>
</g>
</g>
<!-- Node27&#45;&gt;Node29 -->
<g id="edge33" class="edge">
<title>Node27&#45;&gt;Node29</title>
<path fill="none" stroke="midnightblue" d="M808.14,-329.95C823.51,-327.92 844.5,-325.15 864.68,-322.49"/>
<polygon fill="midnightblue" stroke="midnightblue" points="865.36,-325.93 874.81,-321.15 864.44,-318.99 865.36,-325.93"/>
</g>
<!-- Node29&#45;&gt;Node24 -->
<g id="edge38" class="edge">
<title>Node29&#45;&gt;Node24</title>
<path fill="none" stroke="midnightblue" d="M959.14,-323.55C967.5,-326.48 976.65,-329.78 985,-333 1004.8,-340.63 1026.76,-349.84 1044.09,-357.27"/>
<polygon fill="midnightblue" stroke="midnightblue" points="1043.13,-360.67 1053.7,-361.42 1045.91,-354.24 1043.13,-360.67"/>
</g>
<!-- Node30 -->
<g id="node30" class="node">
<title>Node30</title>
<g id="a_node30"><a xlink:href="export_8c.html#a56cdba320963b2a94cb193c22ca238b7" target="_top" xlink:title=" ">
<polygon fill="none" stroke="black" points="1047.5,-304.5 1047.5,-323.5 1105.5,-323.5 1105.5,-304.5 1047.5,-304.5"/>
<text text-anchor="middle" x="1076.5" y="-311.5" font-family="Helvetica,sans-Serif" font-size="10.00">add_env</text>
</a>
</g>
</g>
<!-- Node29&#45;&gt;Node30 -->
<g id="edge34" class="edge">
<title>Node29&#45;&gt;Node30</title>
<path fill="none" stroke="midnightblue" d="M985.22,-314C1002.56,-314 1021.38,-314 1037.33,-314"/>
<polygon fill="midnightblue" stroke="midnightblue" points="1037.36,-317.5 1047.35,-314 1037.35,-310.5 1037.36,-317.5"/>
</g>
<!-- Node31 -->
<g id="node31" class="node">
<title>Node31</title>
<g id="a_node31"><a xlink:href="lst__env_8c.html#a9c375db3cbfe2e87b52bae7ee7472eae" target="_top" xlink:title=" ">
<polygon fill="none" stroke="black" points="1168,-323.5 1168,-342.5 1268,-342.5 1268,-323.5 1168,-323.5"/>
<text text-anchor="middle" x="1218" y="-330.5" font-family="Helvetica,sans-Serif" font-size="10.00">create_node_env</text>
</a>
</g>
</g>
<!-- Node30&#45;&gt;Node31 -->
<g id="edge35" class="edge">
<title>Node30&#45;&gt;Node31</title>
<path fill="none" stroke="midnightblue" d="M1105.73,-317.84C1120.78,-319.89 1139.88,-322.5 1157.99,-324.96"/>
<polygon fill="midnightblue" stroke="midnightblue" points="1157.53,-328.43 1167.92,-326.31 1158.48,-321.5 1157.53,-328.43"/>
</g>
<!-- Node32 -->
<g id="node32" class="node">
<title>Node32</title>
<g id="a_node32"><a xlink:href="lst__env_8c.html#a5976d1b2a8159220749fac94a83d5c95" target="_top" xlink:title=" ">
<polygon fill="none" stroke="black" points="1172,-285.5 1172,-304.5 1264,-304.5 1264,-285.5 1172,-285.5"/>
<text text-anchor="middle" x="1218" y="-292.5" font-family="Helvetica,sans-Serif" font-size="10.00">push_back_env</text>
</a>
</g>
</g>
<!-- Node30&#45;&gt;Node32 -->
<g id="edge36" class="edge">
<title>Node30&#45;&gt;Node32</title>
<path fill="none" stroke="midnightblue" d="M1105.73,-310.16C1121.79,-307.97 1142.47,-305.15 1161.64,-302.54"/>
<polygon fill="midnightblue" stroke="midnightblue" points="1162.35,-305.98 1171.79,-301.16 1161.41,-299.04 1162.35,-305.98"/>
</g>
<!-- Node33 -->
<g id="node33" class="node">
<title>Node33</title>
<g id="a_node33"><a xlink:href="env__utils_8c.html#ac7b3f84bb622bdf477616c5b0022f035" target="_top" xlink:title=" ">
<polygon fill="none" stroke="black" points="1304,-285.5 1304,-304.5 1383,-304.5 1383,-285.5 1304,-285.5"/>
<text text-anchor="middle" x="1343.5" y="-292.5" font-family="Helvetica,sans-Serif" font-size="10.00">get_last_env</text>
</a>
</g>
</g>
<!-- Node32&#45;&gt;Node33 -->
<g id="edge37" class="edge">
<title>Node32&#45;&gt;Node33</title>
<path fill="none" stroke="midnightblue" d="M1264.29,-295C1273.79,-295 1283.86,-295 1293.49,-295"/>
<polygon fill="midnightblue" stroke="midnightblue" points="1293.73,-298.5 1303.73,-295 1293.73,-291.5 1293.73,-298.5"/>
</g>
<!-- Node35 -->
<g id="node35" class="node">
<title>Node35</title>
<g id="a_node35"><a xlink:href="my__echo_8c.html#a7c657de7306d33ae5cdab2bf43f35ae1" target="_top" xlink:title=" ">
<polygon fill="none" stroke="black" points="729,-285.5 729,-304.5 839,-304.5 839,-285.5 729,-285.5"/>
<text text-anchor="middle" x="784" y="-292.5" font-family="Helvetica,sans-Serif" font-size="10.00">check_option_echo</text>
</a>
</g>
</g>
<!-- Node34&#45;&gt;Node35 -->
<g id="edge40" class="edge">
<title>Node34&#45;&gt;Node35</title>
<path fill="none" stroke="midnightblue" d="M679.13,-280.22C690.87,-281.89 704.87,-283.88 718.72,-285.85"/>
<polygon fill="midnightblue" stroke="midnightblue" points="718.35,-289.33 728.74,-287.28 719.34,-282.4 718.35,-289.33"/>
</g>
<!-- Node36&#45;&gt;Node9 -->
<g id="edge43" class="edge">
<title>Node36&#45;&gt;Node9</title>
<path fill="none" stroke="midnightblue" d="M668.2,-152.36C684.15,-144.31 707.79,-132.77 729,-124 733.87,-121.99 739.04,-119.99 744.17,-118.1"/>
<polygon fill="midnightblue" stroke="midnightblue" points="745.69,-121.27 753.92,-114.59 743.32,-114.68 745.69,-121.27"/>
</g>
<!-- Node36&#45;&gt;Node13 -->
<g id="edge44" class="edge">
<title>Node36&#45;&gt;Node13</title>
<path fill="none" stroke="midnightblue" d="M676.52,-158.16C691.75,-155.99 711.33,-153.2 729.53,-150.61"/>
<polygon fill="midnightblue" stroke="midnightblue" points="730.06,-154.07 739.47,-149.2 729.08,-147.14 730.06,-154.07"/>
</g>
<!-- Node36&#45;&gt;Node21 -->
<g id="edge45" class="edge">
<title>Node36&#45;&gt;Node21</title>
<path fill="none" stroke="midnightblue" d="M676.73,-170.92C682.48,-173.59 688.25,-176.92 693,-181 715.73,-200.52 705.57,-219.33 729,-238 737.42,-244.71 748.39,-249.15 758.24,-252.03"/>
<polygon fill="midnightblue" stroke="midnightblue" points="757.39,-255.42 767.94,-254.5 759.12,-248.64 757.39,-255.42"/>
</g>
<!-- Node37 -->
<g id="node37" class="node">
<title>Node37</title>
<g id="a_node37"><a xlink:href="exit_8c.html#a7e369b4894a31549c9b65f718e28823f" target="_top" xlink:title=" ">
<polygon fill="none" stroke="black" points="749.5,-171.5 749.5,-190.5 818.5,-190.5 818.5,-171.5 749.5,-171.5"/>
<text text-anchor="middle" x="784" y="-178.5" font-family="Helvetica,sans-Serif" font-size="10.00">check_exit</text>
</a>
</g>
</g>
<!-- Node36&#45;&gt;Node37 -->
<g id="edge42" class="edge">
<title>Node36&#45;&gt;Node37</title>
<path fill="none" stroke="midnightblue" d="M676.52,-165.84C694.5,-168.41 718.55,-171.83 739.23,-174.77"/>
<polygon fill="midnightblue" stroke="midnightblue" points="738.99,-178.27 749.39,-176.22 739.98,-171.34 738.99,-178.27"/>
</g>
<!-- Node40 -->
<g id="node40" class="node">
<title>Node40</title>
<g id="a_node40"><a xlink:href="unset_8c.html#a4b3bbc6cfa6ff293119825a11324fb9f" target="_top" xlink:title=" ">
<polygon fill="none" stroke="black" points="762,-209.5 762,-228.5 806,-228.5 806,-209.5 762,-209.5"/>
<text text-anchor="middle" x="784" y="-216.5" font-family="Helvetica,sans-Serif" font-size="10.00">unset</text>
</a>
</g>
</g>
<!-- Node39&#45;&gt;Node40 -->
<g id="edge48" class="edge">
<title>Node39&#45;&gt;Node40</title>
<path fill="none" stroke="midnightblue" d="M681.82,-233.4C703.07,-230.38 730.75,-226.44 751.78,-223.44"/>
<polygon fill="midnightblue" stroke="midnightblue" points="752.4,-226.89 761.81,-222.02 751.41,-219.96 752.4,-226.89"/>
</g>
<!-- Node42 -->
<g id="node42" class="node">
<title>Node42</title>
<g id="a_node42"><a xlink:href="env__utils_8c.html#a7cc35c974bce053dbba1c1ec1028f36b" target="_top" xlink:title=" ">
<polygon fill="none" stroke="black" points="610,-456.5 610,-475.5 687,-475.5 687,-456.5 610,-456.5"/>
<text text-anchor="middle" x="648.5" y="-463.5" font-family="Helvetica,sans-Serif" font-size="10.00">env_lst_size</text>
</a>
</g>
</g>
<!-- Node41&#45;&gt;Node42 -->
<g id="edge50" class="edge">
<title>Node41&#45;&gt;Node42</title>
<path fill="none" stroke="midnightblue" d="M561.81,-466C573.94,-466 587.18,-466 599.56,-466"/>
<polygon fill="midnightblue" stroke="midnightblue" points="599.7,-469.5 609.7,-466 599.7,-462.5 599.7,-469.5"/>
</g>
<!-- Node43 -->
<g id="node43" class="node">
<title>Node43</title>
<g id="a_node43"><a xlink:href="getenv_8c.html#a0250cce1862c20e31d0c0ece960bc3a0" target="_top" xlink:title=" ">
<polygon fill="none" stroke="black" points="617.5,-494.5 617.5,-513.5 679.5,-513.5 679.5,-494.5 617.5,-494.5"/>
<text text-anchor="middle" x="648.5" y="-501.5" font-family="Helvetica,sans-Serif" font-size="10.00">join_path</text>
</a>
</g>
</g>
<!-- Node41&#45;&gt;Node43 -->
<g id="edge51" class="edge">
<title>Node41&#45;&gt;Node43</title>
<path fill="none" stroke="midnightblue" d="M551.05,-475.59C568.18,-480.63 589.33,-486.87 607.46,-492.21"/>
<polygon fill="midnightblue" stroke="midnightblue" points="606.59,-495.6 617.17,-495.07 608.57,-488.88 606.59,-495.6"/>
</g>
<!-- Node44&#45;&gt;Node22 -->
<g id="edge55" class="edge">
<title>Node44&#45;&gt;Node22</title>
<path fill="none" stroke="midnightblue" d="M551.26,-513.52C586.53,-522.39 644.17,-532.89 693,-523 715.58,-518.43 739.54,-508.01 757.06,-499.23"/>
<polygon fill="midnightblue" stroke="midnightblue" points="758.79,-502.28 766.07,-494.58 755.58,-496.06 758.79,-502.28"/>
</g>
<!-- Node44&#45;&gt;Node43 -->
<g id="edge54" class="edge">
<title>Node44&#45;&gt;Node43</title>
<path fill="none" stroke="midnightblue" d="M555.81,-504C571.8,-504 590.53,-504 606.87,-504"/>
<polygon fill="midnightblue" stroke="midnightblue" points="607.21,-507.5 617.21,-504 607.21,-500.5 607.21,-507.5"/>
</g>
</g>
</svg>
        <g id="navigator" transform="translate(0 0)" fill="#404254">
                <rect fill="#f2f5e9" fill-opacity="0.5" stroke="#606060" stroke-width=".5" x="0" y="0" width="60" height="60"/>
                <use id="zoomplus" xlink:href="#zoomPlus" x="17" y="9" onmousedown="handleZoom(evt,'in')"/>
                <use id="zoomminus" xlink:href="#zoomMin" x="42" y="9" onmousedown="handleZoom(evt,'out')"/>
                <use id="reset" xlink:href="#resetDef" x="30" y="36" onmousedown="handleReset()"/>
                <g id="arrowUp" xlink:href="#dirArrow" transform="translate(30 24)" onmousedown="handlePan(0,-1)">
                  <use xlink:href="#rim" fill="#404040">
                        <set attributeName="fill" to="#808080" begin="arrowUp.mouseover" end="arrowUp.mouseout"/>
                  </use>
                  <path fill="none" stroke="white" stroke-width="1.5" d="M0,-3.0v7 M-2.5,-0.5L0,-3.0L2.5,-0.5"/>
                </g>
                <g id="arrowRight" xlink:href="#dirArrow" transform="rotate(90) translate(36 -43)" onmousedown="handlePan(1,0)">
                  <use xlink:href="#rim" fill="#404040">
                        <set attributeName="fill" to="#808080" begin="arrowRight.mouseover" end="arrowRight.mouseout"/>
                  </use>
                  <path fill="none" stroke="white" stroke-width="1.5" d="M0,-3.0v7 M-2.5,-0.5L0,-3.0L2.5,-0.5"/>
                </g>
                <g id="arrowDown" xlink:href="#dirArrow" transform="rotate(180) translate(-30 -48)" onmousedown="handlePan(0,1)">
                  <use xlink:href="#rim" fill="#404040">
                        <set attributeName="fill" to="#808080" begin="arrowDown.mouseover" end="arrowDown.mouseout"/>
                  </use>
                  <path fill="none" stroke="white" stroke-width="1.5" d="M0,-3.0v7 M-2.5,-0.5L0,-3.0L2.5,-0.5"/>
                </g>
                <g id="arrowLeft" xlink:href="#dirArrow" transform="rotate(270) translate(-36 17)" onmousedown="handlePan(-1,0)">
                  <use xlink:href="#rim" fill="#404040">
                        <set attributeName="fill" to="#808080" begin="arrowLeft.mouseover" end="arrowLeft.mouseout"/>
                  </use>
                  <path fill="none" stroke="white" stroke-width="1.5" d="M0,-3.0v7 M-2.5,-0.5L0,-3.0L2.5,-0.5"/>
                </g>
        </g>
        <svg viewBox="0 0 15 15" width="100%" height="30px" preserveAspectRatio="xMaxYMin meet">
         <g id="arrow_out" transform="scale(0.3 0.3)">
          <a xlink:href="multipipe_8c_af31c329200501f497cd102a470450103_cgraph_org.svg" target="_base">
           <rect id="button" ry="5" rx="5" y="6" x="6" height="38" width="38"
                fill="#f2f5e9" fill-opacity="0.5" stroke="#606060" stroke-width="1.0"/>
           <path id="arrow"
             d="M 11.500037,31.436501 C 11.940474,20.09759 22.043105,11.32322 32.158766,21.979434 L 37.068811,17.246167 C 37.068811,17.246167 37.088388,32 37.088388,32 L 22.160133,31.978069 C 22.160133,31.978069 26.997745,27.140456 26.997745,27.140456 C 18.528582,18.264221 13.291696,25.230495 11.500037,31.436501 z"
             style="fill:#404040;"/>
          </a>
         </g>
        </svg>
</svg>
