<?xml version="1.0" encoding="UTF-8" standalone="no"?>
<!DOCTYPE svg PUBLIC "-//W3C//DTD SVG 1.1//EN"
 "http://www.w3.org/Graphics/SVG/1.1/DTD/svg11.dtd">
<!-- Generated by graphviz version 2.43.0 (0)
 -->
<!-- Title: multipipe_intermediary_cmd Pages: 1 -->
<!--zoomable 446 -->
<svg id="main" version="1.1" xmlns="http://www.w3.org/2000/svg" xmlns:xlink="http://www.w3.org/1999/xlink" xml:space="preserve" onload="init(evt)">
<style type="text/css"><![CDATA[
.edge:hover path { stroke: red; }
.edge:hover polygon { stroke: red; fill: red; }
]]></style>
<script type="text/javascript"><![CDATA[
var edges = document.getElementsByTagName('g');
if (edges && edges.length) {
  for (var i=0;i<edges.length;i++) {
    if (edges[i].id.substr(0,4)=='edge') {
      edges[i].setAttribute('class','edge');
    }
  }
}
]]></script>
        <defs>
                <circle id="rim" cx="0" cy="0" r="7"/>
                <circle id="rim2" cx="0" cy="0" r="3.5"/>
                <g id="zoomPlus">
                        <use xlink:href="#rim" fill="#404040">
                                <set attributeName="fill" to="#808080" begin="zoomplus.mouseover" end="zoomplus.mouseout"/>
                        </use>
                        <path d="M-4,0h8M0,-4v8" fill="none" stroke="white" stroke-width="1.5" pointer-events="none"/>
                </g>
                <g id="zoomMin">
                        <use xlink:href="#rim" fill="#404040">
                                <set attributeName="fill" to="#808080" begin="zoomminus.mouseover" end="zoomminus.mouseout"/>
                        </use>
                        <path d="M-4,0h8" fill="none" stroke="white" stroke-width="1.5" pointer-events="none"/>
                </g>
                <g id="dirArrow">
                        <path fill="none" stroke="white" stroke-width="1.5" d="M0,-3.0v7 M-2.5,-0.5L0,-3.0L2.5,-0.5"/>
                </g>
               <g id="resetDef">
                       <use xlink:href="#rim2" fill="#404040">
                               <set attributeName="fill" to="#808080" begin="reset.mouseover" end="reset.mouseout"/>
                       </use>
               </g>
        </defs>

<script type="text/javascript">
var viewWidth = 803;
var viewHeight = 446;
var sectionId = 'dynsection-8';
</script>
<script xlink:href="svgpan.js"/>
<svg id="graph" class="graph">
<g id="viewport">
<title>multipipe_intermediary_cmd</title>
<!-- Node1 -->
<g id="node1" class="node">
<title>Node1</title>
<g id="a_node1"><a xlink:title="it&#39;s where the fork happen and sent to be execute">
<polygon fill="#bfbfbf" stroke="black" points="0,-380.5 0,-399.5 158,-399.5 158,-380.5 0,-380.5"/>
<text text-anchor="middle" x="79" y="-387.5" font-family="Helvetica,sans-Serif" font-size="10.00">multipipe_intermediary_cmd</text>
</a>
</g>
</g>
<!-- Node2 -->
<g id="node2" class="node">
<title>Node2</title>
<g id="a_node2"><a xlink:href="redirection__multipipe_8c.html#af7980d82e7ea7c0c84519ef3e3011b98" target="_top" xlink:title=" ">
<polygon fill="none" stroke="black" points="194,-418.5 194,-437.5 288,-437.5 288,-418.5 194,-418.5"/>
<text text-anchor="middle" x="241" y="-425.5" font-family="Helvetica,sans-Serif" font-size="10.00">close_fd_parent</text>
</a>
</g>
</g>
<!-- Node1&#45;&gt;Node2 -->
<g id="edge1" class="edge">
<title>Node1&#45;&gt;Node2</title>
<path fill="none" stroke="midnightblue" d="M120.37,-399.59C141.49,-404.6 167.53,-410.79 189.92,-416.11"/>
<polygon fill="midnightblue" stroke="midnightblue" points="189.38,-419.57 199.92,-418.48 190.99,-412.76 189.38,-419.57"/>
</g>
<!-- Node3 -->
<g id="node3" class="node">
<title>Node3</title>
<g id="a_node3"><a xlink:href="redirection__multipipe_8c.html#a1bca6910c90a19d96b36506a2e2cebf6" target="_top" xlink:title="as fd are all setup to &#45;1 at the beginning we check if they are open before trying to close we avoid ...">
<polygon fill="none" stroke="black" points="610.5,-342.5 610.5,-361.5 679.5,-361.5 679.5,-342.5 610.5,-342.5"/>
<text text-anchor="middle" x="645" y="-349.5" font-family="Helvetica,sans-Serif" font-size="10.00">ft_close_fd</text>
</a>
</g>
</g>
<!-- Node1&#45;&gt;Node3 -->
<g id="edge30" class="edge">
<title>Node1&#45;&gt;Node3</title>
<path fill="none" stroke="midnightblue" d="M158.13,-384.74C278.37,-376.63 504.86,-361.37 600.08,-354.96"/>
<polygon fill="midnightblue" stroke="midnightblue" points="600.48,-358.44 610.22,-354.28 600,-351.46 600.48,-358.44"/>
</g>
<!-- Node4 -->
<g id="node4" class="node">
<title>Node4</title>
<g id="a_node4"><a xlink:href="multipipe_8c.html#a43baea25481fdd02ce42e4d249f12353" target="_top" xlink:title=" ">
<polygon fill="none" stroke="black" points="199.5,-247.5 199.5,-266.5 282.5,-266.5 282.5,-247.5 199.5,-247.5"/>
<text text-anchor="middle" x="241" y="-254.5" font-family="Helvetica,sans-Serif" font-size="10.00">execute_child</text>
</a>
</g>
</g>
<!-- Node1&#45;&gt;Node4 -->
<g id="edge3" class="edge">
<title>Node1&#45;&gt;Node4</title>
<path fill="none" stroke="midnightblue" d="M91.51,-380.43C118.59,-357.92 186.61,-301.38 220.37,-273.32"/>
<polygon fill="midnightblue" stroke="midnightblue" points="222.71,-275.92 228.17,-266.84 218.24,-270.54 222.71,-275.92"/>
</g>
<!-- Node2&#45;&gt;Node3 -->
<g id="edge2" class="edge">
<title>Node2&#45;&gt;Node3</title>
<path fill="none" stroke="midnightblue" d="M288.1,-430.99C350.61,-433.6 465,-433.21 557,-404 581.76,-396.14 606.9,-380.05 623.75,-367.83"/>
<polygon fill="midnightblue" stroke="midnightblue" points="626.28,-370.31 632.2,-361.52 622.09,-364.7 626.28,-370.31"/>
</g>
<!-- Node5 -->
<g id="node5" class="node">
<title>Node5</title>
<g id="a_node5"><a xlink:href="multipipe_8c.html#ac70e2499b8aeb789658ff4596ded7221" target="_top" xlink:title="as we are going to fork and create process, the new process will have inherited of all the opened fd....">
<polygon fill="none" stroke="black" points="324.5,-304.5 324.5,-323.5 431.5,-323.5 431.5,-304.5 324.5,-304.5"/>
<text text-anchor="middle" x="378" y="-311.5" font-family="Helvetica,sans-Serif" font-size="10.00">close_fd_heredocs</text>
</a>
</g>
</g>
<!-- Node4&#45;&gt;Node5 -->
<g id="edge4" class="edge">
<title>Node4&#45;&gt;Node5</title>
<path fill="none" stroke="midnightblue" d="M261.33,-266.56C277.81,-274.56 302.22,-286.07 324,-295 328.85,-296.99 333.99,-298.98 339.1,-300.88"/>
<polygon fill="midnightblue" stroke="midnightblue" points="338.17,-304.27 348.77,-304.41 340.57,-297.69 338.17,-304.27"/>
</g>
<!-- Node6 -->
<g id="node6" class="node">
<title>Node6</title>
<g id="a_node6"><a xlink:href="redirection__multipipe_8c.html#a19e2c31eeb0eb25575df2277cbd7774e" target="_top" xlink:title=" ">
<polygon fill="none" stroke="black" points="324,-266.5 324,-285.5 432,-285.5 432,-266.5 324,-266.5"/>
<text text-anchor="middle" x="378" y="-273.5" font-family="Helvetica,sans-Serif" font-size="10.00">command_redirect</text>
</a>
</g>
</g>
<!-- Node4&#45;&gt;Node6 -->
<g id="edge5" class="edge">
<title>Node4&#45;&gt;Node6</title>
<path fill="none" stroke="midnightblue" d="M282.5,-262.7C292.27,-264.08 302.95,-265.58 313.49,-267.06"/>
<polygon fill="midnightblue" stroke="midnightblue" points="313.14,-270.55 323.53,-268.47 314.11,-263.61 313.14,-270.55"/>
</g>
<!-- Node9 -->
<g id="node9" class="node">
<title>Node9</title>
<g id="a_node9"><a xlink:href="lst__cmd2_8c.html#a132395876bb5a7cfe926b9e37571a1e3" target="_top" xlink:title=" ">
<polygon fill="none" stroke="black" points="332,-228.5 332,-247.5 424,-247.5 424,-228.5 332,-228.5"/>
<text text-anchor="middle" x="378" y="-235.5" font-family="Helvetica,sans-Serif" font-size="10.00">destructor_cmd</text>
</a>
</g>
</g>
<!-- Node4&#45;&gt;Node9 -->
<g id="edge11" class="edge">
<title>Node4&#45;&gt;Node9</title>
<path fill="none" stroke="midnightblue" d="M282.5,-251.3C294.88,-249.56 308.71,-247.61 321.89,-245.76"/>
<polygon fill="midnightblue" stroke="midnightblue" points="322.39,-249.22 331.8,-244.36 321.41,-242.29 322.39,-249.22"/>
</g>
<!-- Node13 -->
<g id="node13" class="node">
<title>Node13</title>
<g id="a_node13"><a xlink:href="lst__env_8c.html#a226ae0aa054e697998b2ecbc5d61d592" target="_top" xlink:title=" ">
<polygon fill="none" stroke="black" points="333.5,-190.5 333.5,-209.5 422.5,-209.5 422.5,-190.5 333.5,-190.5"/>
<text text-anchor="middle" x="378" y="-197.5" font-family="Helvetica,sans-Serif" font-size="10.00">destructor_env</text>
</a>
</g>
</g>
<!-- Node4&#45;&gt;Node13 -->
<g id="edge15" class="edge">
<title>Node4&#45;&gt;Node13</title>
<path fill="none" stroke="midnightblue" d="M261.33,-247.44C277.81,-239.44 302.22,-227.93 324,-219 328.85,-217.01 333.99,-215.02 339.1,-213.12"/>
<polygon fill="midnightblue" stroke="midnightblue" points="340.57,-216.31 348.77,-209.59 338.17,-209.73 340.57,-216.31"/>
</g>
<!-- Node15 -->
<g id="node15" class="node">
<title>Node15</title>
<g id="a_node15"><a xlink:href="execution__node_8c.html#a6cfdc545c2222bbb0ca1dfc8431f72a3" target="_top" xlink:title="we are going to execute the command here we have a security about absolute path given =&gt; because it&#39;s...">
<polygon fill="none" stroke="black" points="331.5,-95.5 331.5,-114.5 424.5,-114.5 424.5,-95.5 331.5,-95.5"/>
<text text-anchor="middle" x="378" y="-102.5" font-family="Helvetica,sans-Serif" font-size="10.00">execution_node</text>
</a>
</g>
</g>
<!-- Node4&#45;&gt;Node15 -->
<g id="edge17" class="edge">
<title>Node4&#45;&gt;Node15</title>
<path fill="none" stroke="midnightblue" d="M250.44,-247.49C272.7,-222.43 333.2,-154.32 361.73,-122.2"/>
<polygon fill="midnightblue" stroke="midnightblue" points="364.53,-124.31 368.56,-114.5 359.3,-119.66 364.53,-124.31"/>
</g>
<!-- Node6&#45;&gt;Node3 -->
<g id="edge10" class="edge">
<title>Node6&#45;&gt;Node3</title>
<path fill="none" stroke="midnightblue" d="M413.21,-285.59C419.71,-288.14 426.27,-291.26 432,-295 451.48,-307.72 447.15,-322.67 468,-333 509.53,-353.58 563.22,-356.5 600.32,-355.43"/>
<polygon fill="midnightblue" stroke="midnightblue" points="600.46,-358.93 610.32,-355.04 600.19,-351.94 600.46,-358.93"/>
</g>
<!-- Node7 -->
<g id="node7" class="node">
<title>Node7</title>
<g id="a_node7"><a xlink:href="redirection__multipipe_8c.html#a3a0d7f695cf53df46301e14ffab77638" target="_top" xlink:title=" ">
<polygon fill="none" stroke="black" points="468,-304.5 468,-323.5 557,-323.5 557,-304.5 468,-304.5"/>
<text text-anchor="middle" x="512.5" y="-311.5" font-family="Helvetica,sans-Serif" font-size="10.00">close_previous</text>
</a>
</g>
</g>
<!-- Node6&#45;&gt;Node7 -->
<g id="edge6" class="edge">
<title>Node6&#45;&gt;Node7</title>
<path fill="none" stroke="midnightblue" d="M412.44,-285.59C429.38,-290.45 450.16,-296.41 468.31,-301.61"/>
<polygon fill="midnightblue" stroke="midnightblue" points="467.5,-305.02 478.08,-304.41 469.43,-298.29 467.5,-305.02"/>
</g>
<!-- Node8 -->
<g id="node8" class="node">
<title>Node8</title>
<g id="a_node8"><a xlink:href="redirection__multipipe_8c.html#a5b749bc2b4088984c0efe1c479ae6ec8" target="_top" xlink:title=" ">
<polygon fill="none" stroke="black" points="472.5,-266.5 472.5,-285.5 552.5,-285.5 552.5,-266.5 472.5,-266.5"/>
<text text-anchor="middle" x="512.5" y="-273.5" font-family="Helvetica,sans-Serif" font-size="10.00">fail_previous</text>
</a>
</g>
</g>
<!-- Node6&#45;&gt;Node8 -->
<g id="edge8" class="edge">
<title>Node6&#45;&gt;Node8</title>
<path fill="none" stroke="midnightblue" d="M432.13,-276C441.96,-276 452.2,-276 461.92,-276"/>
<polygon fill="midnightblue" stroke="midnightblue" points="462.23,-279.5 472.23,-276 462.23,-272.5 462.23,-279.5"/>
</g>
<!-- Node7&#45;&gt;Node3 -->
<g id="edge7" class="edge">
<title>Node7&#45;&gt;Node3</title>
<path fill="none" stroke="midnightblue" d="M546.43,-323.59C563.12,-328.45 583.59,-334.41 601.46,-339.61"/>
<polygon fill="midnightblue" stroke="midnightblue" points="600.5,-342.98 611.08,-342.41 602.46,-336.26 600.5,-342.98"/>
</g>
<!-- Node8&#45;&gt;Node3 -->
<g id="edge9" class="edge">
<title>Node8&#45;&gt;Node3</title>
<path fill="none" stroke="midnightblue" d="M537.32,-285.55C543.81,-288.38 550.77,-291.63 557,-295 580.26,-307.58 605.39,-324.43 622.62,-336.54"/>
<polygon fill="midnightblue" stroke="midnightblue" points="620.69,-339.46 630.87,-342.39 624.74,-333.75 620.69,-339.46"/>
</g>
<!-- Node10 -->
<g id="node10" class="node">
<title>Node10</title>
<g id="a_node10"><a xlink:href="lst__cmd2_8c.html#a8e2b63759f149b547e0d07f210ede9b3" target="_top" xlink:title=" ">
<polygon fill="none" stroke="black" points="482,-228.5 482,-247.5 543,-247.5 543,-228.5 482,-228.5"/>
<text text-anchor="middle" x="512.5" y="-235.5" font-family="Helvetica,sans-Serif" font-size="10.00">pop_cmd</text>
</a>
</g>
</g>
<!-- Node9&#45;&gt;Node10 -->
<g id="edge12" class="edge">
<title>Node9&#45;&gt;Node10</title>
<path fill="none" stroke="midnightblue" d="M424.23,-238C439.55,-238 456.55,-238 471.44,-238"/>
<polygon fill="midnightblue" stroke="midnightblue" points="471.86,-241.5 481.86,-238 471.86,-234.5 471.86,-241.5"/>
</g>
<!-- Node11 -->
<g id="node11" class="node">
<title>Node11</title>
<g id="a_node11"><a xlink:href="lst__redir2_8c.html#a30ccaf401a4f897e48ead5fe54f4b307" target="_top" xlink:title=" ">
<polygon fill="none" stroke="black" points="598,-228.5 598,-247.5 692,-247.5 692,-228.5 598,-228.5"/>
<text text-anchor="middle" x="645" y="-235.5" font-family="Helvetica,sans-Serif" font-size="10.00">destructor_redir</text>
</a>
</g>
</g>
<!-- Node10&#45;&gt;Node11 -->
<g id="edge13" class="edge">
<title>Node10&#45;&gt;Node11</title>
<path fill="none" stroke="midnightblue" d="M543.11,-238C556.25,-238 572.17,-238 587.44,-238"/>
<polygon fill="midnightblue" stroke="midnightblue" points="587.86,-241.5 597.86,-238 587.86,-234.5 587.86,-241.5"/>
</g>
<!-- Node12 -->
<g id="node12" class="node">
<title>Node12</title>
<g id="a_node12"><a xlink:href="lst__redir2_8c.html#ade8f0bdda51d9bf348ebeb38fefba881" target="_top" xlink:title=" ">
<polygon fill="none" stroke="black" points="733,-228.5 733,-247.5 795,-247.5 795,-228.5 733,-228.5"/>
<text text-anchor="middle" x="764" y="-235.5" font-family="Helvetica,sans-Serif" font-size="10.00">pop_redir</text>
</a>
</g>
</g>
<!-- Node11&#45;&gt;Node12 -->
<g id="edge14" class="edge">
<title>Node11&#45;&gt;Node12</title>
<path fill="none" stroke="midnightblue" d="M692.24,-238C702.28,-238 712.82,-238 722.61,-238"/>
<polygon fill="midnightblue" stroke="midnightblue" points="722.88,-241.5 732.88,-238 722.88,-234.5 722.88,-241.5"/>
</g>
<!-- Node14 -->
<g id="node14" class="node">
<title>Node14</title>
<g id="a_node14"><a xlink:href="lst__env_8c.html#a058c245b5f2ef22f9d2659f90e4d3537" target="_top" xlink:title=" ">
<polygon fill="none" stroke="black" points="483.5,-190.5 483.5,-209.5 541.5,-209.5 541.5,-190.5 483.5,-190.5"/>
<text text-anchor="middle" x="512.5" y="-197.5" font-family="Helvetica,sans-Serif" font-size="10.00">pop_env</text>
</a>
</g>
</g>
<!-- Node13&#45;&gt;Node14 -->
<g id="edge16" class="edge">
<title>Node13&#45;&gt;Node14</title>
<path fill="none" stroke="midnightblue" d="M422.75,-200C438.92,-200 457.12,-200 472.81,-200"/>
<polygon fill="midnightblue" stroke="midnightblue" points="473.21,-203.5 483.21,-200 473.21,-196.5 473.21,-203.5"/>
</g>
<!-- Node16 -->
<g id="node16" class="node">
<title>Node16</title>
<g id="a_node16"><a xlink:href="execution_8c.html#a3acc0bb56da881cc8609ca9e94ec8e93" target="_top" xlink:title="detect if it&#39;s a builtin with strncmp() but the real question is &quot;is it a builtin I have to launch in...">
<polygon fill="none" stroke="black" points="476,-152.5 476,-171.5 549,-171.5 549,-152.5 476,-152.5"/>
<text text-anchor="middle" x="512.5" y="-159.5" font-family="Helvetica,sans-Serif" font-size="10.00">is_it_builtin</text>
</a>
</g>
</g>
<!-- Node15&#45;&gt;Node16 -->
<g id="edge18" class="edge">
<title>Node15&#45;&gt;Node16</title>
<path fill="none" stroke="midnightblue" d="M401.18,-114.54C422.67,-123.79 455.5,-137.91 479.76,-148.35"/>
<polygon fill="midnightblue" stroke="midnightblue" points="478.68,-151.69 489.25,-152.43 481.45,-145.26 478.68,-151.69"/>
</g>
<!-- Node17 -->
<g id="node17" class="node">
<title>Node17</title>
<g id="a_node17"><a xlink:href="execution_8c.html#a8b2bd9dba90bfc9b2ead44af5e630315" target="_top" xlink:title="launch the builtin &#160;&#160;some of them are not present because we have to fork() them why ?...">
<polygon fill="none" stroke="black" points="470,-114.5 470,-133.5 555,-133.5 555,-114.5 470,-114.5"/>
<text text-anchor="middle" x="512.5" y="-121.5" font-family="Helvetica,sans-Serif" font-size="10.00">launch_builtin</text>
</a>
</g>
</g>
<!-- Node15&#45;&gt;Node17 -->
<g id="edge19" class="edge">
<title>Node15&#45;&gt;Node17</title>
<path fill="none" stroke="midnightblue" d="M424.6,-111.54C435.95,-113.17 448.19,-114.92 459.81,-116.59"/>
<polygon fill="midnightblue" stroke="midnightblue" points="459.42,-120.07 469.82,-118.02 460.42,-113.14 459.42,-120.07"/>
</g>
<!-- Node21 -->
<g id="node21" class="node">
<title>Node21</title>
<g id="a_node21"><a xlink:href="lst__env__two_8c.html#aafcce0b2f2958645e84ae23b14116680" target="_top" xlink:title=" ">
<polygon fill="none" stroke="black" points="468.5,-76.5 468.5,-95.5 556.5,-95.5 556.5,-76.5 468.5,-76.5"/>
<text text-anchor="middle" x="512.5" y="-83.5" font-family="Helvetica,sans-Serif" font-size="10.00">lst_to_tab_env</text>
</a>
</g>
</g>
<!-- Node15&#45;&gt;Node21 -->
<g id="edge23" class="edge">
<title>Node15&#45;&gt;Node21</title>
<path fill="none" stroke="midnightblue" d="M424.6,-98.46C435.49,-96.9 447.21,-95.22 458.4,-93.61"/>
<polygon fill="midnightblue" stroke="midnightblue" points="459.09,-97.05 468.5,-92.17 458.1,-90.12 459.09,-97.05"/>
</g>
<!-- Node24 -->
<g id="node24" class="node">
<title>Node24</title>
<g id="a_node24"><a xlink:href="execution__node_8c.html#adc2c91230d4a0a1a1f98db2a888afcaa" target="_top" xlink:title="error message management for the specific case of execution">
<polygon fill="none" stroke="black" points="468,-38.5 468,-57.5 557,-57.5 557,-38.5 468,-38.5"/>
<text text-anchor="middle" x="512.5" y="-45.5" font-family="Helvetica,sans-Serif" font-size="10.00">message_error</text>
</a>
</g>
</g>
<!-- Node15&#45;&gt;Node24 -->
<g id="edge26" class="edge">
<title>Node15&#45;&gt;Node24</title>
<path fill="none" stroke="midnightblue" d="M401.18,-95.46C422.67,-86.21 455.5,-72.09 479.76,-61.65"/>
<polygon fill="midnightblue" stroke="midnightblue" points="481.45,-64.74 489.25,-57.57 478.68,-58.31 481.45,-64.74"/>
</g>
<!-- Node25 -->
<g id="node25" class="node">
<title>Node25</title>
<g id="a_node25"><a xlink:href="getenv_8c.html#a5d0cf05c2622983111dcfc0f179c5739" target="_top" xlink:title=" ">
<polygon fill="none" stroke="black" points="474.5,-0.5 474.5,-19.5 550.5,-19.5 550.5,-0.5 474.5,-0.5"/>
<text text-anchor="middle" x="512.5" y="-7.5" font-family="Helvetica,sans-Serif" font-size="10.00">search_path</text>
</a>
</g>
</g>
<!-- Node15&#45;&gt;Node25 -->
<g id="edge27" class="edge">
<title>Node15&#45;&gt;Node25</title>
<path fill="none" stroke="midnightblue" d="M388.64,-95.05C404.2,-79.42 436.31,-48.84 468,-29 470.79,-27.25 473.78,-25.58 476.82,-24.02"/>
<polygon fill="midnightblue" stroke="midnightblue" points="478.49,-27.1 486.01,-19.63 475.48,-20.78 478.49,-27.1"/>
</g>
<!-- Node18 -->
<g id="node18" class="node">
<title>Node18</title>
<g id="a_node18"><a xlink:href="env_8c.html#ad7678c59b5365c776294bdeefd3d7583" target="_top" xlink:title=" ">
<polygon fill="none" stroke="black" points="627.5,-190.5 627.5,-209.5 662.5,-209.5 662.5,-190.5 627.5,-190.5"/>
<text text-anchor="middle" x="645" y="-197.5" font-family="Helvetica,sans-Serif" font-size="10.00">env</text>
</a>
</g>
</g>
<!-- Node17&#45;&gt;Node18 -->
<g id="edge20" class="edge">
<title>Node17&#45;&gt;Node18</title>
<path fill="none" stroke="midnightblue" d="M540.17,-133.63C545.96,-136.26 551.87,-139.4 557,-143 576.04,-156.37 573.6,-168.16 593,-181 600.51,-185.97 609.49,-189.87 617.81,-192.81"/>
<polygon fill="midnightblue" stroke="midnightblue" points="616.89,-196.19 627.49,-195.93 619.04,-189.53 616.89,-196.19"/>
</g>
<!-- Node19 -->
<g id="node19" class="node">
<title>Node19</title>
<g id="a_node19"><a xlink:href="my__echo_8c.html#a5522916069f77552d810e207670e3170" target="_top" xlink:title=" ">
<polygon fill="none" stroke="black" points="614.5,-152.5 614.5,-171.5 675.5,-171.5 675.5,-152.5 614.5,-152.5"/>
<text text-anchor="middle" x="645" y="-159.5" font-family="Helvetica,sans-Serif" font-size="10.00">my_echo</text>
</a>
</g>
</g>
<!-- Node17&#45;&gt;Node19 -->
<g id="edge21" class="edge">
<title>Node17&#45;&gt;Node19</title>
<path fill="none" stroke="midnightblue" d="M546.43,-133.59C564.1,-138.73 585.99,-145.11 604.56,-150.51"/>
<polygon fill="midnightblue" stroke="midnightblue" points="603.62,-153.89 614.2,-153.32 605.58,-147.17 603.62,-153.89"/>
</g>
<!-- Node20 -->
<g id="node20" class="node">
<title>Node20</title>
<g id="a_node20"><a xlink:href="pwd_8c.html#ab62618359287b6604bd60852145b9726" target="_top" xlink:title=" ">
<polygon fill="none" stroke="black" points="626.5,-114.5 626.5,-133.5 663.5,-133.5 663.5,-114.5 626.5,-114.5"/>
<text text-anchor="middle" x="645" y="-121.5" font-family="Helvetica,sans-Serif" font-size="10.00">pwd</text>
</a>
</g>
</g>
<!-- Node17&#45;&gt;Node20 -->
<g id="edge22" class="edge">
<title>Node17&#45;&gt;Node20</title>
<path fill="none" stroke="midnightblue" d="M555.15,-124C575.04,-124 598.31,-124 616.05,-124"/>
<polygon fill="midnightblue" stroke="midnightblue" points="616.3,-127.5 626.3,-124 616.3,-120.5 616.3,-127.5"/>
</g>
<!-- Node22 -->
<g id="node22" class="node">
<title>Node22</title>
<g id="a_node22"><a xlink:href="env__utils_8c.html#a7cc35c974bce053dbba1c1ec1028f36b" target="_top" xlink:title=" ">
<polygon fill="none" stroke="black" points="606.5,-76.5 606.5,-95.5 683.5,-95.5 683.5,-76.5 606.5,-76.5"/>
<text text-anchor="middle" x="645" y="-83.5" font-family="Helvetica,sans-Serif" font-size="10.00">env_lst_size</text>
</a>
</g>
</g>
<!-- Node21&#45;&gt;Node22 -->
<g id="edge24" class="edge">
<title>Node21&#45;&gt;Node22</title>
<path fill="none" stroke="midnightblue" d="M556.59,-86C569.25,-86 583.16,-86 596.1,-86"/>
<polygon fill="midnightblue" stroke="midnightblue" points="596.22,-89.5 606.22,-86 596.22,-82.5 596.22,-89.5"/>
</g>
<!-- Node23 -->
<g id="node23" class="node">
<title>Node23</title>
<g id="a_node23"><a xlink:href="getenv_8c.html#a0250cce1862c20e31d0c0ece960bc3a0" target="_top" xlink:title=" ">
<polygon fill="none" stroke="black" points="614,-38.5 614,-57.5 676,-57.5 676,-38.5 614,-38.5"/>
<text text-anchor="middle" x="645" y="-45.5" font-family="Helvetica,sans-Serif" font-size="10.00">join_path</text>
</a>
</g>
</g>
<!-- Node21&#45;&gt;Node23 -->
<g id="edge25" class="edge">
<title>Node21&#45;&gt;Node23</title>
<path fill="none" stroke="midnightblue" d="M546.43,-76.41C563.97,-71.3 585.67,-64.98 604.15,-59.6"/>
<polygon fill="midnightblue" stroke="midnightblue" points="605.14,-62.96 613.76,-56.8 603.18,-56.24 605.14,-62.96"/>
</g>
<!-- Node25&#45;&gt;Node23 -->
<g id="edge28" class="edge">
<title>Node25&#45;&gt;Node23</title>
<path fill="none" stroke="midnightblue" d="M546.43,-19.59C563.97,-24.7 585.67,-31.02 604.15,-36.4"/>
<polygon fill="midnightblue" stroke="midnightblue" points="603.18,-39.76 613.76,-39.2 605.14,-33.04 603.18,-39.76"/>
</g>
<!-- Node26 -->
<g id="node26" class="node">
<title>Node26</title>
<g id="a_node26"><a xlink:href="lst__env__two_8c.html#a4d4a14327b2c3ff88099102b6bd77986" target="_top" xlink:title=" ">
<polygon fill="none" stroke="black" points="593,-0.5 593,-19.5 697,-19.5 697,-0.5 593,-0.5"/>
<text text-anchor="middle" x="645" y="-7.5" font-family="Helvetica,sans-Serif" font-size="10.00">research_key_env</text>
</a>
</g>
</g>
<!-- Node25&#45;&gt;Node26 -->
<g id="edge29" class="edge">
<title>Node25&#45;&gt;Node26</title>
<path fill="none" stroke="midnightblue" d="M550.55,-10C560.59,-10 571.73,-10 582.72,-10"/>
<polygon fill="midnightblue" stroke="midnightblue" points="582.73,-13.5 592.73,-10 582.73,-6.5 582.73,-13.5"/>
</g>
</g>
</svg>
        <g id="navigator" transform="translate(0 0)" fill="#404254">
                <rect fill="#f2f5e9" fill-opacity="0.5" stroke="#606060" stroke-width=".5" x="0" y="0" width="60" height="60"/>
                <use id="zoomplus" xlink:href="#zoomPlus" x="17" y="9" onmousedown="handleZoom(evt,'in')"/>
                <use id="zoomminus" xlink:href="#zoomMin" x="42" y="9" onmousedown="handleZoom(evt,'out')"/>
                <use id="reset" xlink:href="#resetDef" x="30" y="36" onmousedown="handleReset()"/>
                <g id="arrowUp" xlink:href="#dirArrow" transform="translate(30 24)" onmousedown="handlePan(0,-1)">
                  <use xlink:href="#rim" fill="#404040">
                        <set attributeName="fill" to="#808080" begin="arrowUp.mouseover" end="arrowUp.mouseout"/>
                  </use>
                  <path fill="none" stroke="white" stroke-width="1.5" d="M0,-3.0v7 M-2.5,-0.5L0,-3.0L2.5,-0.5"/>
                </g>
                <g id="arrowRight" xlink:href="#dirArrow" transform="rotate(90) translate(36 -43)" onmousedown="handlePan(1,0)">
                  <use xlink:href="#rim" fill="#404040">
                        <set attributeName="fill" to="#808080" begin="arrowRight.mouseover" end="arrowRight.mouseout"/>
                  </use>
                  <path fill="none" stroke="white" stroke-width="1.5" d="M0,-3.0v7 M-2.5,-0.5L0,-3.0L2.5,-0.5"/>
                </g>
                <g id="arrowDown" xlink:href="#dirArrow" transform="rotate(180) translate(-30 -48)" onmousedown="handlePan(0,1)">
                  <use xlink:href="#rim" fill="#404040">
                        <set attributeName="fill" to="#808080" begin="arrowDown.mouseover" end="arrowDown.mouseout"/>
                  </use>
                  <path fill="none" stroke="white" stroke-width="1.5" d="M0,-3.0v7 M-2.5,-0.5L0,-3.0L2.5,-0.5"/>
                </g>
                <g id="arrowLeft" xlink:href="#dirArrow" transform="rotate(270) translate(-36 17)" onmousedown="handlePan(-1,0)">
                  <use xlink:href="#rim" fill="#404040">
                        <set attributeName="fill" to="#808080" begin="arrowLeft.mouseover" end="arrowLeft.mouseout"/>
                  </use>
                  <path fill="none" stroke="white" stroke-width="1.5" d="M0,-3.0v7 M-2.5,-0.5L0,-3.0L2.5,-0.5"/>
                </g>
        </g>
        <svg viewBox="0 0 15 15" width="100%" height="30px" preserveAspectRatio="xMaxYMin meet">
         <g id="arrow_out" transform="scale(0.3 0.3)">
          <a xlink:href="multipipe_8c_af32b88ab44b94650a0bb6f805f70a805_cgraph_org.svg" target="_base">
           <rect id="button" ry="5" rx="5" y="6" x="6" height="38" width="38"
                fill="#f2f5e9" fill-opacity="0.5" stroke="#606060" stroke-width="1.0"/>
           <path id="arrow"
             d="M 11.500037,31.436501 C 11.940474,20.09759 22.043105,11.32322 32.158766,21.979434 L 37.068811,17.246167 C 37.068811,17.246167 37.088388,32 37.088388,32 L 22.160133,31.978069 C 22.160133,31.978069 26.997745,27.140456 26.997745,27.140456 C 18.528582,18.264221 13.291696,25.230495 11.500037,31.436501 z"
             style="fill:#404040;"/>
          </a>
         </g>
        </svg>
</svg>
