<?xml version="1.0" encoding="UTF-8" standalone="no"?>
<!DOCTYPE svg PUBLIC "-//W3C//DTD SVG 1.1//EN"
 "http://www.w3.org/Graphics/SVG/1.1/DTD/svg11.dtd">
<!-- Generated by graphviz version 2.43.0 (0)
 -->
<!-- Title: multipipe_intermediary_cmd Pages: 1 -->
<svg width="1419pt" height="644pt"
 viewBox="0.00 0.00 1419.00 644.03" xmlns="http://www.w3.org/2000/svg" xmlns:xlink="http://www.w3.org/1999/xlink">
<g id="graph0" class="graph" transform="scale(1 1) rotate(0) translate(4 640.03)">
<title>multipipe_intermediary_cmd</title>
<!-- Node1 -->
<g id="node1" class="node">
<title>Node1</title>
<g id="a_node1"><a xlink:title="it&#39;s where the fork happen and sent to be execute">
<polygon fill="#bfbfbf" stroke="black" points="0,-208.53 0,-227.53 158,-227.53 158,-208.53 0,-208.53"/>
<text text-anchor="middle" x="79" y="-215.53" font-family="Helvetica,sans-Serif" font-size="10.00">multipipe_intermediary_cmd</text>
</a>
</g>
</g>
<!-- Node2 -->
<g id="node2" class="node">
<title>Node2</title>
<g id="a_node2"><a xlink:href="redirection__multipipe_8c.html#af7980d82e7ea7c0c84519ef3e3011b98" target="_top" xlink:title=" ">
<polygon fill="none" stroke="black" points="194,-436.53 194,-455.53 288,-455.53 288,-436.53 194,-436.53"/>
<text text-anchor="middle" x="241" y="-443.53" font-family="Helvetica,sans-Serif" font-size="10.00">close_fd_parent</text>
</a>
</g>
</g>
<!-- Node1&#45;&gt;Node2 -->
<g id="edge1" class="edge">
<title>Node1&#45;&gt;Node2</title>
<path fill="none" stroke="midnightblue" d="M86.67,-227.54C111.02,-262.23 195.33,-382.37 227.44,-428.14"/>
<polygon fill="midnightblue" stroke="midnightblue" points="224.69,-430.31 233.3,-436.48 230.42,-426.29 224.69,-430.31"/>
</g>
<!-- Node4 -->
<g id="node4" class="node">
<title>Node4</title>
<g id="a_node4"><a xlink:href="multipipe_8c.html#a461ae962ce9a1aee7221ac4b9c581f98" target="_top" xlink:title=" ">
<polygon fill="none" stroke="black" points="199.5,-208.53 199.5,-227.53 282.5,-227.53 282.5,-208.53 199.5,-208.53"/>
<text text-anchor="middle" x="241" y="-215.53" font-family="Helvetica,sans-Serif" font-size="10.00">execute_child</text>
</a>
</g>
</g>
<!-- Node1&#45;&gt;Node4 -->
<g id="edge3" class="edge">
<title>Node1&#45;&gt;Node4</title>
<path fill="none" stroke="midnightblue" d="M158.13,-218.03C168.72,-218.03 179.36,-218.03 189.3,-218.03"/>
<polygon fill="midnightblue" stroke="midnightblue" points="189.38,-221.53 199.38,-218.03 189.38,-214.53 189.38,-221.53"/>
</g>
<!-- Node47 -->
<g id="node47" class="node">
<title>Node47</title>
<g id="a_node47"><a xlink:href="signals_8c.html#aa06f925baa9a6f549b31de64d4faac32" target="_top" xlink:title="allow us to don&#39;t create issue when a child process with readline">
<polygon fill="none" stroke="black" points="195,-170.53 195,-189.53 287,-189.53 287,-170.53 195,-170.53"/>
<text text-anchor="middle" x="241" y="-177.53" font-family="Helvetica,sans-Serif" font-size="10.00">sigint_handler2</text>
</a>
</g>
</g>
<!-- Node1&#45;&gt;Node47 -->
<g id="edge59" class="edge">
<title>Node1&#45;&gt;Node47</title>
<path fill="none" stroke="midnightblue" d="M120.37,-208.44C141.49,-203.43 167.53,-197.24 189.92,-191.93"/>
<polygon fill="midnightblue" stroke="midnightblue" points="190.99,-195.27 199.92,-189.55 189.38,-188.46 190.99,-195.27"/>
</g>
<!-- Node3 -->
<g id="node3" class="node">
<title>Node3</title>
<g id="a_node3"><a xlink:href="utils_8c.html#a1bca6910c90a19d96b36506a2e2cebf6" target="_top" xlink:title="as fd are all setup to &#45;1 at the beginning we check if they are open before trying to close we avoid ...">
<polygon fill="none" stroke="black" points="1337,-99.53 1337,-118.53 1406,-118.53 1406,-99.53 1337,-99.53"/>
<text text-anchor="middle" x="1371.5" y="-106.53" font-family="Helvetica,sans-Serif" font-size="10.00">ft_close_fd</text>
</a>
</g>
</g>
<!-- Node2&#45;&gt;Node3 -->
<g id="edge2" class="edge">
<title>Node2&#45;&gt;Node3</title>
<path fill="none" stroke="midnightblue" d="M248.81,-455.71C276.9,-494.43 388.41,-636.03 516.5,-636.03 516.5,-636.03 516.5,-636.03 1091.5,-636.03 1325.78,-636.03 1363.88,-224.22 1369.57,-128.66"/>
<polygon fill="midnightblue" stroke="midnightblue" points="1373.06,-128.8 1370.11,-118.63 1366.07,-128.42 1373.06,-128.8"/>
</g>
<!-- Node5 -->
<g id="node5" class="node">
<title>Node5</title>
<g id="a_node5"><a xlink:href="multipipe_8c.html#ac70e2499b8aeb789658ff4596ded7221" target="_top" xlink:title="as we are going to fork and create process, the new process will have inherited of all the opened fd....">
<polygon fill="none" stroke="black" points="324,-208.53 324,-227.53 431,-227.53 431,-208.53 324,-208.53"/>
<text text-anchor="middle" x="377.5" y="-215.53" font-family="Helvetica,sans-Serif" font-size="10.00">close_fd_heredocs</text>
</a>
</g>
</g>
<!-- Node4&#45;&gt;Node5 -->
<g id="edge4" class="edge">
<title>Node4&#45;&gt;Node5</title>
<path fill="none" stroke="midnightblue" d="M282.72,-218.03C292.56,-218.03 303.31,-218.03 313.9,-218.03"/>
<polygon fill="midnightblue" stroke="midnightblue" points="313.98,-221.53 323.98,-218.03 313.98,-214.53 313.98,-221.53"/>
</g>
<!-- Node6 -->
<g id="node6" class="node">
<title>Node6</title>
<g id="a_node6"><a xlink:href="redirection__multipipe_8c.html#a26c96266f1645047a9bdd9af22de94a7" target="_top" xlink:title=" ">
<polygon fill="none" stroke="black" points="876,-66.53 876,-85.53 984,-85.53 984,-66.53 876,-66.53"/>
<text text-anchor="middle" x="930" y="-73.53" font-family="Helvetica,sans-Serif" font-size="10.00">command_redirect</text>
</a>
</g>
</g>
<!-- Node4&#45;&gt;Node6 -->
<g id="edge5" class="edge">
<title>Node4&#45;&gt;Node6</title>
<path fill="none" stroke="midnightblue" d="M270.77,-208.47C276.73,-205.86 282.78,-202.72 288,-199.03 307.54,-185.23 304.29,-172.58 324,-159.03 399.52,-107.09 424.84,-85.03 516.5,-85.03 516.5,-85.03 516.5,-85.03 649.5,-85.03 723.77,-85.03 809.08,-81.82 865.72,-79.23"/>
<polygon fill="midnightblue" stroke="midnightblue" points="866.13,-82.72 875.95,-78.76 865.8,-75.72 866.13,-82.72"/>
</g>
<!-- Node10 -->
<g id="node10" class="node">
<title>Node10</title>
<g id="a_node10"><a xlink:href="lst__cmd2_8c.html#a132395876bb5a7cfe926b9e37571a1e3" target="_top" xlink:title=" ">
<polygon fill="none" stroke="black" points="738,-132.53 738,-151.53 830,-151.53 830,-132.53 738,-132.53"/>
<text text-anchor="middle" x="784" y="-139.53" font-family="Helvetica,sans-Serif" font-size="10.00">destructor_cmd</text>
</a>
</g>
</g>
<!-- Node4&#45;&gt;Node10 -->
<g id="edge13" class="edge">
<title>Node4&#45;&gt;Node10</title>
<path fill="none" stroke="midnightblue" d="M265.41,-208.38C272.65,-205.39 280.66,-202.08 288,-199.03 304.01,-192.39 307.18,-188.2 324,-184.03 466.55,-148.69 640.63,-142.43 727.76,-141.73"/>
<polygon fill="midnightblue" stroke="midnightblue" points="727.97,-145.23 737.94,-141.67 727.92,-138.23 727.97,-145.23"/>
</g>
<!-- Node14 -->
<g id="node14" class="node">
<title>Node14</title>
<g id="a_node14"><a xlink:href="lst__env_8c.html#a226ae0aa054e697998b2ecbc5d61d592" target="_top" xlink:title=" ">
<polygon fill="none" stroke="black" points="739.5,-170.53 739.5,-189.53 828.5,-189.53 828.5,-170.53 739.5,-170.53"/>
<text text-anchor="middle" x="784" y="-177.53" font-family="Helvetica,sans-Serif" font-size="10.00">destructor_env</text>
</a>
</g>
</g>
<!-- Node4&#45;&gt;Node14 -->
<g id="edge19" class="edge">
<title>Node4&#45;&gt;Node14</title>
<path fill="none" stroke="midnightblue" d="M276.85,-208.44C291.32,-204.86 308.36,-201.15 324,-199.03 469.63,-179.32 643.41,-178.14 729.37,-179.03"/>
<polygon fill="midnightblue" stroke="midnightblue" points="729.37,-182.53 739.41,-179.14 729.46,-175.53 729.37,-182.53"/>
</g>
<!-- Node16 -->
<g id="node16" class="node">
<title>Node16</title>
<g id="a_node16"><a xlink:href="execution__node_8c.html#adda76b40c34c18ec83b1d98700083f8a" target="_top" xlink:title="we are going to execute the command here we have a security about absolute path given =&gt; because it&#39;s...">
<polygon fill="none" stroke="black" points="331,-436.53 331,-455.53 424,-455.53 424,-436.53 331,-436.53"/>
<text text-anchor="middle" x="377.5" y="-443.53" font-family="Helvetica,sans-Serif" font-size="10.00">execution_node</text>
</a>
</g>
</g>
<!-- Node4&#45;&gt;Node16 -->
<g id="edge21" class="edge">
<title>Node4&#45;&gt;Node16</title>
<path fill="none" stroke="midnightblue" d="M247.61,-227.54C268.03,-262.16 338.65,-381.87 365.77,-427.85"/>
<polygon fill="midnightblue" stroke="midnightblue" points="362.77,-429.65 370.87,-436.48 368.8,-426.09 362.77,-429.65"/>
</g>
<!-- Node46 -->
<g id="node46" class="node">
<title>Node46</title>
<g id="a_node46"><a xlink:href="signals_8c.html#a368a774e2b304a3de55f58168563967d" target="_top" xlink:title=" ">
<polygon fill="none" stroke="black" points="331.5,-246.53 331.5,-265.53 423.5,-265.53 423.5,-246.53 331.5,-246.53"/>
<text text-anchor="middle" x="377.5" y="-253.53" font-family="Helvetica,sans-Serif" font-size="10.00">sigquit_handler</text>
</a>
</g>
</g>
<!-- Node4&#45;&gt;Node46 -->
<g id="edge58" class="edge">
<title>Node4&#45;&gt;Node46</title>
<path fill="none" stroke="midnightblue" d="M275.94,-227.62C293.22,-232.5 314.43,-238.5 332.91,-243.72"/>
<polygon fill="midnightblue" stroke="midnightblue" points="332,-247.09 342.57,-246.44 333.9,-240.36 332,-247.09"/>
</g>
<!-- Node6&#45;&gt;Node3 -->
<g id="edge12" class="edge">
<title>Node6&#45;&gt;Node3</title>
<path fill="none" stroke="midnightblue" d="M984.21,-74.57C1055.56,-73.41 1186.02,-74.08 1296,-90.03 1306.91,-91.61 1318.54,-94.15 1329.28,-96.87"/>
<polygon fill="midnightblue" stroke="midnightblue" points="1328.7,-100.33 1339.26,-99.5 1330.48,-93.56 1328.7,-100.33"/>
</g>
<!-- Node7 -->
<g id="node7" class="node">
<title>Node7</title>
<g id="a_node7"><a xlink:href="redirection__multipipe_8c.html#a221f4b2814fe6c3ab1b3ad1fd7f24fb2" target="_top" xlink:title=" ">
<polygon fill="none" stroke="black" points="1021,-23.53 1021,-42.53 1160,-42.53 1160,-23.53 1021,-23.53"/>
<text text-anchor="middle" x="1090.5" y="-30.53" font-family="Helvetica,sans-Serif" font-size="10.00">command_redirect_part2</text>
</a>
</g>
</g>
<!-- Node6&#45;&gt;Node7 -->
<g id="edge6" class="edge">
<title>Node6&#45;&gt;Node7</title>
<path fill="none" stroke="midnightblue" d="M966.18,-66.49C989.26,-60.22 1019.66,-51.98 1044.5,-45.24"/>
<polygon fill="midnightblue" stroke="midnightblue" points="1045.69,-48.54 1054.42,-42.55 1043.85,-41.79 1045.69,-48.54"/>
</g>
<!-- Node9 -->
<g id="node9" class="node">
<title>Node9</title>
<g id="a_node9"><a xlink:href="redirection__multipipe_8c.html#a5b749bc2b4088984c0efe1c479ae6ec8" target="_top" xlink:title=" ">
<polygon fill="none" stroke="black" points="1206,-99.53 1206,-118.53 1286,-118.53 1286,-99.53 1206,-99.53"/>
<text text-anchor="middle" x="1246" y="-106.53" font-family="Helvetica,sans-Serif" font-size="10.00">fail_previous</text>
</a>
</g>
</g>
<!-- Node6&#45;&gt;Node9 -->
<g id="edge10" class="edge">
<title>Node6&#45;&gt;Node9</title>
<path fill="none" stroke="midnightblue" d="M984.27,-81.63C1043.4,-87.84 1138.07,-97.79 1195.6,-103.84"/>
<polygon fill="midnightblue" stroke="midnightblue" points="1195.58,-107.36 1205.89,-104.92 1196.31,-100.39 1195.58,-107.36"/>
</g>
<!-- Node7&#45;&gt;Node3 -->
<g id="edge9" class="edge">
<title>Node7&#45;&gt;Node3</title>
<path fill="none" stroke="midnightblue" d="M1114.36,-23.51C1153.69,-8.7 1235.72,15.3 1296,-14.03 1328.51,-29.85 1351.03,-67.47 1362.26,-90.34"/>
<polygon fill="midnightblue" stroke="midnightblue" points="1359.1,-91.83 1366.51,-99.41 1365.44,-88.87 1359.1,-91.83"/>
</g>
<!-- Node8 -->
<g id="node8" class="node">
<title>Node8</title>
<g id="a_node8"><a xlink:href="redirection__multipipe_8c.html#a3a0d7f695cf53df46301e14ffab77638" target="_top" xlink:title=" ">
<polygon fill="none" stroke="black" points="1201.5,-23.53 1201.5,-42.53 1290.5,-42.53 1290.5,-23.53 1201.5,-23.53"/>
<text text-anchor="middle" x="1246" y="-30.53" font-family="Helvetica,sans-Serif" font-size="10.00">close_previous</text>
</a>
</g>
</g>
<!-- Node7&#45;&gt;Node8 -->
<g id="edge7" class="edge">
<title>Node7&#45;&gt;Node8</title>
<path fill="none" stroke="midnightblue" d="M1160.17,-33.03C1170.48,-33.03 1180.98,-33.03 1190.93,-33.03"/>
<polygon fill="midnightblue" stroke="midnightblue" points="1191.06,-36.53 1201.06,-33.03 1191.06,-29.53 1191.06,-36.53"/>
</g>
<!-- Node8&#45;&gt;Node3 -->
<g id="edge8" class="edge">
<title>Node8&#45;&gt;Node3</title>
<path fill="none" stroke="midnightblue" d="M1268.36,-42.61C1277.09,-46.75 1287.19,-51.84 1296,-57.03 1314.79,-68.1 1335.02,-82.39 1349.65,-93.18"/>
<polygon fill="midnightblue" stroke="midnightblue" points="1347.87,-96.22 1357.98,-99.39 1352.06,-90.61 1347.87,-96.22"/>
</g>
<!-- Node9&#45;&gt;Node3 -->
<g id="edge11" class="edge">
<title>Node9&#45;&gt;Node3</title>
<path fill="none" stroke="midnightblue" d="M1286.08,-109.03C1298.9,-109.03 1313.24,-109.03 1326.41,-109.03"/>
<polygon fill="midnightblue" stroke="midnightblue" points="1326.67,-112.53 1336.67,-109.03 1326.67,-105.53 1326.67,-112.53"/>
</g>
<!-- Node11 -->
<g id="node11" class="node">
<title>Node11</title>
<g id="a_node11"><a xlink:href="lst__cmd2_8c.html#a8e2b63759f149b547e0d07f210ede9b3" target="_top" xlink:title=" ">
<polygon fill="none" stroke="black" points="899.5,-134.53 899.5,-153.53 960.5,-153.53 960.5,-134.53 899.5,-134.53"/>
<text text-anchor="middle" x="930" y="-141.53" font-family="Helvetica,sans-Serif" font-size="10.00">pop_cmd</text>
</a>
</g>
</g>
<!-- Node10&#45;&gt;Node11 -->
<g id="edge14" class="edge">
<title>Node10&#45;&gt;Node11</title>
<path fill="none" stroke="midnightblue" d="M830.17,-142.66C849.15,-142.92 871.03,-143.23 889.37,-143.48"/>
<polygon fill="midnightblue" stroke="midnightblue" points="889.39,-146.98 899.44,-143.62 889.49,-139.98 889.39,-146.98"/>
</g>
<!-- Node11&#45;&gt;Node3 -->
<g id="edge18" class="edge">
<title>Node11&#45;&gt;Node3</title>
<path fill="none" stroke="midnightblue" d="M960.87,-153.25C1024.48,-171.32 1177.25,-206.25 1296,-166.03 1319.21,-158.17 1340.87,-139.86 1354.79,-126.1"/>
<polygon fill="midnightblue" stroke="midnightblue" points="1357.58,-128.24 1362.04,-118.63 1352.56,-123.37 1357.58,-128.24"/>
</g>
<!-- Node12 -->
<g id="node12" class="node">
<title>Node12</title>
<g id="a_node12"><a xlink:href="lst__redir2_8c.html#a30ccaf401a4f897e48ead5fe54f4b307" target="_top" xlink:title=" ">
<polygon fill="none" stroke="black" points="1043.5,-137.53 1043.5,-156.53 1137.5,-156.53 1137.5,-137.53 1043.5,-137.53"/>
<text text-anchor="middle" x="1090.5" y="-144.53" font-family="Helvetica,sans-Serif" font-size="10.00">destructor_redir</text>
</a>
</g>
</g>
<!-- Node11&#45;&gt;Node12 -->
<g id="edge15" class="edge">
<title>Node11&#45;&gt;Node12</title>
<path fill="none" stroke="midnightblue" d="M960.81,-144.59C981.14,-144.98 1008.68,-145.5 1033.07,-145.96"/>
<polygon fill="midnightblue" stroke="midnightblue" points="1033.24,-149.47 1043.3,-146.16 1033.37,-142.47 1033.24,-149.47"/>
</g>
<!-- Node13 -->
<g id="node13" class="node">
<title>Node13</title>
<g id="a_node13"><a xlink:href="lst__redir2_8c.html#ade8f0bdda51d9bf348ebeb38fefba881" target="_top" xlink:title=" ">
<polygon fill="none" stroke="black" points="1215,-137.53 1215,-156.53 1277,-156.53 1277,-137.53 1215,-137.53"/>
<text text-anchor="middle" x="1246" y="-144.53" font-family="Helvetica,sans-Serif" font-size="10.00">pop_redir</text>
</a>
</g>
</g>
<!-- Node12&#45;&gt;Node13 -->
<g id="edge16" class="edge">
<title>Node12&#45;&gt;Node13</title>
<path fill="none" stroke="midnightblue" d="M1137.56,-147.03C1159.01,-147.03 1184.3,-147.03 1204.95,-147.03"/>
<polygon fill="midnightblue" stroke="midnightblue" points="1204.98,-150.53 1214.98,-147.03 1204.98,-143.53 1204.98,-150.53"/>
</g>
<!-- Node13&#45;&gt;Node3 -->
<g id="edge17" class="edge">
<title>Node13&#45;&gt;Node3</title>
<path fill="none" stroke="midnightblue" d="M1277.21,-137.73C1292.97,-132.89 1312.48,-126.88 1329.57,-121.62"/>
<polygon fill="midnightblue" stroke="midnightblue" points="1330.78,-124.91 1339.31,-118.63 1328.72,-118.22 1330.78,-124.91"/>
</g>
<!-- Node15 -->
<g id="node15" class="node">
<title>Node15</title>
<g id="a_node15"><a xlink:href="lst__env_8c.html#a058c245b5f2ef22f9d2659f90e4d3537" target="_top" xlink:title=" ">
<polygon fill="none" stroke="black" points="901,-172.53 901,-191.53 959,-191.53 959,-172.53 901,-172.53"/>
<text text-anchor="middle" x="930" y="-179.53" font-family="Helvetica,sans-Serif" font-size="10.00">pop_env</text>
</a>
</g>
</g>
<!-- Node14&#45;&gt;Node15 -->
<g id="edge20" class="edge">
<title>Node14&#45;&gt;Node15</title>
<path fill="none" stroke="midnightblue" d="M828.6,-180.64C848.43,-180.91 871.69,-181.23 890.83,-181.5"/>
<polygon fill="midnightblue" stroke="midnightblue" points="890.94,-185 900.99,-181.64 891.04,-178 890.94,-185"/>
</g>
<!-- Node17 -->
<g id="node17" class="node">
<title>Node17</title>
<g id="a_node17"><a xlink:href="execution__node_8c.html#a74f4c34ebdc38c1fb50db2aa13f97b66" target="_top" xlink:title=" ">
<polygon fill="none" stroke="black" points="467,-474.53 467,-493.53 568,-493.53 568,-474.53 467,-474.53"/>
<text text-anchor="middle" x="517.5" y="-481.53" font-family="Helvetica,sans-Serif" font-size="10.00">check_accessible</text>
</a>
</g>
</g>
<!-- Node16&#45;&gt;Node17 -->
<g id="edge22" class="edge">
<title>Node16&#45;&gt;Node17</title>
<path fill="none" stroke="midnightblue" d="M413.32,-455.62C431.14,-460.53 453.02,-466.55 472.04,-471.79"/>
<polygon fill="midnightblue" stroke="midnightblue" points="471.12,-475.16 481.69,-474.44 472.98,-468.42 471.12,-475.16"/>
</g>
<!-- Node18 -->
<g id="node18" class="node">
<title>Node18</title>
<g id="a_node18"><a xlink:href="execution__node_8c.html#adc2c91230d4a0a1a1f98db2a888afcaa" target="_top" xlink:title="error message management for the specific case of execution">
<polygon fill="none" stroke="black" points="604,-474.53 604,-493.53 693,-493.53 693,-474.53 604,-474.53"/>
<text text-anchor="middle" x="648.5" y="-481.53" font-family="Helvetica,sans-Serif" font-size="10.00">message_error</text>
</a>
</g>
</g>
<!-- Node16&#45;&gt;Node18 -->
<g id="edge54" class="edge">
<title>Node16&#45;&gt;Node18</title>
<path fill="none" stroke="midnightblue" d="M424.3,-448.89C462.82,-451.7 519.26,-456.8 568,-465.03 579.14,-466.91 591.04,-469.46 602.15,-472.08"/>
<polygon fill="midnightblue" stroke="midnightblue" points="601.55,-475.53 612.09,-474.49 603.2,-468.73 601.55,-475.53"/>
</g>
<!-- Node19 -->
<g id="node19" class="node">
<title>Node19</title>
<g id="a_node19"><a xlink:href="launcher_8c.html#a3acc0bb56da881cc8609ca9e94ec8e93" target="_top" xlink:title="detect if it&#39;s a builtin with strncmp() but the real question is &quot;is it a builtin I have &#160;to launch i...">
<polygon fill="none" stroke="black" points="481,-398.53 481,-417.53 554,-417.53 554,-398.53 481,-398.53"/>
<text text-anchor="middle" x="517.5" y="-405.53" font-family="Helvetica,sans-Serif" font-size="10.00">is_it_builtin</text>
</a>
</g>
</g>
<!-- Node16&#45;&gt;Node19 -->
<g id="edge24" class="edge">
<title>Node16&#45;&gt;Node19</title>
<path fill="none" stroke="midnightblue" d="M413.32,-436.44C431.14,-431.54 453.02,-425.51 472.04,-420.27"/>
<polygon fill="midnightblue" stroke="midnightblue" points="472.98,-423.65 481.69,-417.62 471.12,-416.9 472.98,-423.65"/>
</g>
<!-- Node20 -->
<g id="node20" class="node">
<title>Node20</title>
<g id="a_node20"><a xlink:href="launcher_8c.html#a7bee4f6fbfd70ef7ec1f52856538ac71" target="_top" xlink:title="launch the builtin &#160;&#160;some of them are not present because we have to fork() them why ?...">
<polygon fill="none" stroke="black" points="475,-341.53 475,-360.53 560,-360.53 560,-341.53 475,-341.53"/>
<text text-anchor="middle" x="517.5" y="-348.53" font-family="Helvetica,sans-Serif" font-size="10.00">launch_builtin</text>
</a>
</g>
</g>
<!-- Node16&#45;&gt;Node20 -->
<g id="edge25" class="edge">
<title>Node16&#45;&gt;Node20</title>
<path fill="none" stroke="midnightblue" d="M392.49,-436.4C416.36,-419.97 465.14,-386.39 493.9,-366.59"/>
<polygon fill="midnightblue" stroke="midnightblue" points="496.22,-369.24 502.47,-360.69 492.25,-363.48 496.22,-369.24"/>
</g>
<!-- Node42 -->
<g id="node42" class="node">
<title>Node42</title>
<g id="a_node42"><a xlink:href="lst__env__two_8c.html#aafcce0b2f2958645e84ae23b14116680" target="_top" xlink:title=" ">
<polygon fill="none" stroke="black" points="473.5,-512.53 473.5,-531.53 561.5,-531.53 561.5,-512.53 473.5,-512.53"/>
<text text-anchor="middle" x="517.5" y="-519.53" font-family="Helvetica,sans-Serif" font-size="10.00">lst_to_tab_env</text>
</a>
</g>
</g>
<!-- Node16&#45;&gt;Node42 -->
<g id="edge51" class="edge">
<title>Node16&#45;&gt;Node42</title>
<path fill="none" stroke="midnightblue" d="M391.48,-455.61C408.3,-467.73 438.8,-488.73 467,-503.03 470.83,-504.97 474.91,-506.84 479.03,-508.59"/>
<polygon fill="midnightblue" stroke="midnightblue" points="477.99,-511.95 488.57,-512.46 480.62,-505.46 477.99,-511.95"/>
</g>
<!-- Node45 -->
<g id="node45" class="node">
<title>Node45</title>
<g id="a_node45"><a xlink:href="getenv_8c.html#a5d0cf05c2622983111dcfc0f179c5739" target="_top" xlink:title=" ">
<polygon fill="none" stroke="black" points="479.5,-550.53 479.5,-569.53 555.5,-569.53 555.5,-550.53 479.5,-550.53"/>
<text text-anchor="middle" x="517.5" y="-557.53" font-family="Helvetica,sans-Serif" font-size="10.00">search_path</text>
</a>
</g>
</g>
<!-- Node16&#45;&gt;Node45 -->
<g id="edge55" class="edge">
<title>Node16&#45;&gt;Node45</title>
<path fill="none" stroke="midnightblue" d="M385.18,-455.74C398.62,-474.63 430.75,-516.57 467,-541.03 469.75,-542.88 472.7,-544.59 475.75,-546.16"/>
<polygon fill="midnightblue" stroke="midnightblue" points="474.51,-549.44 485.06,-550.44 477.43,-543.08 474.51,-549.44"/>
</g>
<!-- Node17&#45;&gt;Node18 -->
<g id="edge23" class="edge">
<title>Node17&#45;&gt;Node18</title>
<path fill="none" stroke="midnightblue" d="M568.01,-484.03C576.39,-484.03 585.13,-484.03 593.62,-484.03"/>
<polygon fill="midnightblue" stroke="midnightblue" points="593.82,-487.53 603.82,-484.03 593.82,-480.53 593.82,-487.53"/>
</g>
<!-- Node21 -->
<g id="node21" class="node">
<title>Node21</title>
<g id="a_node21"><a xlink:href="cd_8c.html#afa3cf8a1d55856208b8d44453d4cf9b4" target="_top" xlink:title=" ">
<polygon fill="none" stroke="black" points="634,-436.53 634,-455.53 663,-455.53 663,-436.53 634,-436.53"/>
<text text-anchor="middle" x="648.5" y="-443.53" font-family="Helvetica,sans-Serif" font-size="10.00">cd</text>
</a>
</g>
</g>
<!-- Node20&#45;&gt;Node21 -->
<g id="edge26" class="edge">
<title>Node20&#45;&gt;Node21</title>
<path fill="none" stroke="midnightblue" d="M532.41,-360.8C542.59,-368.17 556.57,-378.73 568,-389.03 585.28,-404.61 584.96,-413.66 604,-427.03 610.16,-431.36 617.47,-435.02 624.32,-437.93"/>
<polygon fill="midnightblue" stroke="midnightblue" points="623.25,-441.27 633.83,-441.67 625.8,-434.76 623.25,-441.27"/>
</g>
<!-- Node26 -->
<g id="node26" class="node">
<title>Node26</title>
<g id="a_node26"><a xlink:href="env_8c.html#a08aa1a32a4d2f6bcca10f6424195d4ef" target="_top" xlink:title=" ">
<polygon fill="none" stroke="black" points="631,-246.53 631,-265.53 666,-265.53 666,-246.53 631,-246.53"/>
<text text-anchor="middle" x="648.5" y="-253.53" font-family="Helvetica,sans-Serif" font-size="10.00">env</text>
</a>
</g>
</g>
<!-- Node20&#45;&gt;Node26 -->
<g id="edge31" class="edge">
<title>Node20&#45;&gt;Node26</title>
<path fill="none" stroke="midnightblue" d="M527.68,-341.05C542.52,-325.37 573.22,-294.73 604,-275.03 609.34,-271.62 615.39,-268.54 621.25,-265.9"/>
<polygon fill="midnightblue" stroke="midnightblue" points="622.9,-269.01 630.77,-261.91 620.19,-262.55 622.9,-269.01"/>
</g>
<!-- Node27 -->
<g id="node27" class="node">
<title>Node27</title>
<g id="a_node27"><a xlink:href="export_8c.html#a1bb2544b6254ee4ddb592a4cfa61734f" target="_top" xlink:title=" ">
<polygon fill="none" stroke="black" points="613,-360.53 613,-379.53 684,-379.53 684,-360.53 613,-360.53"/>
<text text-anchor="middle" x="648.5" y="-367.53" font-family="Helvetica,sans-Serif" font-size="10.00">export_call</text>
</a>
</g>
</g>
<!-- Node20&#45;&gt;Node27 -->
<g id="edge32" class="edge">
<title>Node20&#45;&gt;Node27</title>
<path fill="none" stroke="midnightblue" d="M560.03,-357.15C573.64,-359.15 588.83,-361.39 602.68,-363.43"/>
<polygon fill="midnightblue" stroke="midnightblue" points="602.56,-366.95 612.96,-364.94 603.58,-360.02 602.56,-366.95"/>
</g>
<!-- Node35 -->
<g id="node35" class="node">
<title>Node35</title>
<g id="a_node35"><a xlink:href="my__echo_8c.html#a5522916069f77552d810e207670e3170" target="_top" xlink:title=" ">
<polygon fill="none" stroke="black" points="618,-322.53 618,-341.53 679,-341.53 679,-322.53 618,-322.53"/>
<text text-anchor="middle" x="648.5" y="-329.53" font-family="Helvetica,sans-Serif" font-size="10.00">my_echo</text>
</a>
</g>
</g>
<!-- Node20&#45;&gt;Node35 -->
<g id="edge41" class="edge">
<title>Node20&#45;&gt;Node35</title>
<path fill="none" stroke="midnightblue" d="M560.03,-344.91C575.35,-342.66 592.66,-340.11 607.81,-337.88"/>
<polygon fill="midnightblue" stroke="midnightblue" points="608.52,-341.31 617.9,-336.39 607.5,-334.38 608.52,-341.31"/>
</g>
<!-- Node37 -->
<g id="node37" class="node">
<title>Node37</title>
<g id="a_node37"><a xlink:href="exit_8c.html#adcbec3416f97b2d0b8d53cf4c2b2a436" target="_top" xlink:title=" ">
<polygon fill="none" stroke="black" points="620.5,-208.53 620.5,-227.53 676.5,-227.53 676.5,-208.53 620.5,-208.53"/>
<text text-anchor="middle" x="648.5" y="-215.53" font-family="Helvetica,sans-Serif" font-size="10.00">my_exit</text>
</a>
</g>
</g>
<!-- Node20&#45;&gt;Node37 -->
<g id="edge43" class="edge">
<title>Node20&#45;&gt;Node37</title>
<path fill="none" stroke="midnightblue" d="M523.41,-341.46C534.84,-320.05 565.2,-267.74 604,-237.03 606.17,-235.32 608.51,-233.72 610.95,-232.25"/>
<polygon fill="midnightblue" stroke="midnightblue" points="612.84,-235.21 620.05,-227.45 609.58,-229.02 612.84,-235.21"/>
</g>
<!-- Node39 -->
<g id="node39" class="node">
<title>Node39</title>
<g id="a_node39"><a xlink:href="pwd_8c.html#ac6977235be2514ba716ef89aad796063" target="_top" xlink:title=" ">
<polygon fill="none" stroke="black" points="630,-398.53 630,-417.53 667,-417.53 667,-398.53 630,-398.53"/>
<text text-anchor="middle" x="648.5" y="-405.53" font-family="Helvetica,sans-Serif" font-size="10.00">pwd</text>
</a>
</g>
</g>
<!-- Node20&#45;&gt;Node39 -->
<g id="edge48" class="edge">
<title>Node20&#45;&gt;Node39</title>
<path fill="none" stroke="midnightblue" d="M539.92,-360.59C557.2,-368.3 582.15,-379.4 604,-389.03 609.28,-391.36 614.92,-393.83 620.34,-396.2"/>
<polygon fill="midnightblue" stroke="midnightblue" points="619.15,-399.5 629.71,-400.29 621.95,-393.08 619.15,-399.5"/>
</g>
<!-- Node40 -->
<g id="node40" class="node">
<title>Node40</title>
<g id="a_node40"><a xlink:href="unset_8c.html#abcfd4d5a4f0408bdc748ce044e5ce08c" target="_top" xlink:title=" ">
<polygon fill="none" stroke="black" points="615.5,-284.53 615.5,-303.53 681.5,-303.53 681.5,-284.53 615.5,-284.53"/>
<text text-anchor="middle" x="648.5" y="-291.53" font-family="Helvetica,sans-Serif" font-size="10.00">unset_call</text>
</a>
</g>
</g>
<!-- Node20&#45;&gt;Node40 -->
<g id="edge49" class="edge">
<title>Node20&#45;&gt;Node40</title>
<path fill="none" stroke="midnightblue" d="M539.92,-341.47C557.2,-333.76 582.15,-322.66 604,-313.03 607.9,-311.31 612.01,-309.51 616.07,-307.73"/>
<polygon fill="midnightblue" stroke="midnightblue" points="617.6,-310.88 625.36,-303.67 614.79,-304.47 617.6,-310.88"/>
</g>
<!-- Node22 -->
<g id="node22" class="node">
<title>Node22</title>
<g id="a_node22"><a xlink:href="cd_8c.html#a7593627e795ae769b5117673b60846c9" target="_top" xlink:title=" ">
<polygon fill="none" stroke="black" points="768,-246.53 768,-265.53 800,-265.53 800,-246.53 768,-246.53"/>
<text text-anchor="middle" x="784" y="-253.53" font-family="Helvetica,sans-Serif" font-size="10.00">len</text>
</a>
</g>
</g>
<!-- Node21&#45;&gt;Node22 -->
<g id="edge27" class="edge">
<title>Node21&#45;&gt;Node22</title>
<path fill="none" stroke="midnightblue" d="M663.23,-443.43C672.94,-440.88 685.5,-436.01 693,-427.03 737.5,-373.74 682.57,-326.65 729,-275.03 736.3,-266.91 747.28,-262.26 757.43,-259.6"/>
<polygon fill="midnightblue" stroke="midnightblue" points="758.46,-262.96 767.53,-257.48 757.02,-256.11 758.46,-262.96"/>
</g>
<!-- Node23 -->
<g id="node23" class="node">
<title>Node23</title>
<g id="a_node23"><a xlink:href="lst__env__two_8c.html#a4d4a14327b2c3ff88099102b6bd77986" target="_top" xlink:title=" ">
<polygon fill="none" stroke="black" points="732,-531.53 732,-550.53 836,-550.53 836,-531.53 732,-531.53"/>
<text text-anchor="middle" x="784" y="-538.53" font-family="Helvetica,sans-Serif" font-size="10.00">research_key_env</text>
</a>
</g>
</g>
<!-- Node21&#45;&gt;Node23 -->
<g id="edge28" class="edge">
<title>Node21&#45;&gt;Node23</title>
<path fill="none" stroke="midnightblue" d="M663.33,-450.89C672.14,-454.26 683.62,-459.2 693,-465.03 720.46,-482.11 748.33,-507.09 765.63,-523.69"/>
<polygon fill="midnightblue" stroke="midnightblue" points="763.63,-526.62 773.23,-531.09 768.51,-521.61 763.63,-526.62"/>
</g>
<!-- Node24 -->
<g id="node24" class="node">
<title>Node24</title>
<g id="a_node24"><a xlink:href="cd_8c.html#a68bb8beb2cf13bb992af8322f31f94e7" target="_top" xlink:title=" ">
<polygon fill="none" stroke="black" points="892,-436.53 892,-455.53 968,-455.53 968,-436.53 892,-436.53"/>
<text text-anchor="middle" x="930" y="-443.53" font-family="Helvetica,sans-Serif" font-size="10.00">update_pwd</text>
</a>
</g>
</g>
<!-- Node21&#45;&gt;Node24 -->
<g id="edge29" class="edge">
<title>Node21&#45;&gt;Node24</title>
<path fill="none" stroke="midnightblue" d="M663.36,-446.03C702.78,-446.03 816.86,-446.03 881.98,-446.03"/>
<polygon fill="midnightblue" stroke="midnightblue" points="882,-449.53 892,-446.03 882,-442.53 882,-449.53"/>
</g>
<!-- Node25 -->
<g id="node25" class="node">
<title>Node25</title>
<g id="a_node25"><a xlink:href="lst__env__two_8c.html#a8cd6579fc3858072521e55ef235a2637" target="_top" xlink:title=" ">
<polygon fill="none" stroke="black" points="1035,-417.53 1035,-436.53 1146,-436.53 1146,-417.53 1035,-417.53"/>
<text text-anchor="middle" x="1090.5" y="-424.53" font-family="Helvetica,sans-Serif" font-size="10.00">research_node_env</text>
</a>
</g>
</g>
<!-- Node24&#45;&gt;Node25 -->
<g id="edge30" class="edge">
<title>Node24&#45;&gt;Node25</title>
<path fill="none" stroke="midnightblue" d="M968.16,-441.58C985.07,-439.55 1005.58,-437.09 1024.89,-434.78"/>
<polygon fill="midnightblue" stroke="midnightblue" points="1025.34,-438.25 1034.85,-433.58 1024.5,-431.3 1025.34,-438.25"/>
</g>
<!-- Node28 -->
<g id="node28" class="node">
<title>Node28</title>
<g id="a_node28"><a xlink:href="export_8c.html#a63ef72e778f2b52c924bf77ae989dc80" target="_top" xlink:title=" ">
<polygon fill="none" stroke="black" points="760,-360.53 760,-379.53 808,-379.53 808,-360.53 760,-360.53"/>
<text text-anchor="middle" x="784" y="-367.53" font-family="Helvetica,sans-Serif" font-size="10.00">export</text>
</a>
</g>
</g>
<!-- Node27&#45;&gt;Node28 -->
<g id="edge33" class="edge">
<title>Node27&#45;&gt;Node28</title>
<path fill="none" stroke="midnightblue" d="M684.23,-370.03C704.4,-370.03 729.68,-370.03 749.62,-370.03"/>
<polygon fill="midnightblue" stroke="midnightblue" points="749.79,-373.53 759.79,-370.03 749.79,-366.53 749.79,-373.53"/>
</g>
<!-- Node29 -->
<g id="node29" class="node">
<title>Node29</title>
<g id="a_node29"><a xlink:href="export_8c.html#a077edb8749298d8320620813ff84519c" target="_top" xlink:title=" ">
<polygon fill="none" stroke="black" points="875,-398.53 875,-417.53 985,-417.53 985,-398.53 875,-398.53"/>
<text text-anchor="middle" x="930" y="-405.53" font-family="Helvetica,sans-Serif" font-size="10.00">check_validity_key</text>
</a>
</g>
</g>
<!-- Node28&#45;&gt;Node29 -->
<g id="edge34" class="edge">
<title>Node28&#45;&gt;Node29</title>
<path fill="none" stroke="midnightblue" d="M808.14,-376.14C828.35,-381.47 858.29,-389.37 883.32,-395.98"/>
<polygon fill="midnightblue" stroke="midnightblue" points="882.43,-399.36 892.99,-398.53 884.21,-392.59 882.43,-399.36"/>
</g>
<!-- Node30 -->
<g id="node30" class="node">
<title>Node30</title>
<g id="a_node30"><a xlink:href="export_8c.html#a90ff129fee9412bd5c6d74be5970b99f" target="_top" xlink:title=" ">
<polygon fill="none" stroke="black" points="875,-360.53 875,-379.53 985,-379.53 985,-360.53 875,-360.53"/>
<text text-anchor="middle" x="930" y="-367.53" font-family="Helvetica,sans-Serif" font-size="10.00">export_env_update</text>
</a>
</g>
</g>
<!-- Node28&#45;&gt;Node30 -->
<g id="edge35" class="edge">
<title>Node28&#45;&gt;Node30</title>
<path fill="none" stroke="midnightblue" d="M808.14,-370.03C823.51,-370.03 844.5,-370.03 864.68,-370.03"/>
<polygon fill="midnightblue" stroke="midnightblue" points="864.81,-373.53 874.81,-370.03 864.81,-366.53 864.81,-373.53"/>
</g>
<!-- Node30&#45;&gt;Node25 -->
<g id="edge40" class="edge">
<title>Node30&#45;&gt;Node25</title>
<path fill="none" stroke="midnightblue" d="M958.21,-379.54C966.79,-382.56 976.3,-385.92 985,-389.03 1007.96,-397.24 1033.71,-406.61 1053.9,-413.98"/>
<polygon fill="midnightblue" stroke="midnightblue" points="1052.74,-417.28 1063.33,-417.43 1055.14,-410.71 1052.74,-417.28"/>
</g>
<!-- Node31 -->
<g id="node31" class="node">
<title>Node31</title>
<g id="a_node31"><a xlink:href="export_8c.html#a56cdba320963b2a94cb193c22ca238b7" target="_top" xlink:title=" ">
<polygon fill="none" stroke="black" points="1061.5,-360.53 1061.5,-379.53 1119.5,-379.53 1119.5,-360.53 1061.5,-360.53"/>
<text text-anchor="middle" x="1090.5" y="-367.53" font-family="Helvetica,sans-Serif" font-size="10.00">add_env</text>
</a>
</g>
</g>
<!-- Node30&#45;&gt;Node31 -->
<g id="edge36" class="edge">
<title>Node30&#45;&gt;Node31</title>
<path fill="none" stroke="midnightblue" d="M985.1,-370.03C1006.84,-370.03 1031.4,-370.03 1051.24,-370.03"/>
<polygon fill="midnightblue" stroke="midnightblue" points="1051.43,-373.53 1061.43,-370.03 1051.43,-366.53 1051.43,-373.53"/>
</g>
<!-- Node32 -->
<g id="node32" class="node">
<title>Node32</title>
<g id="a_node32"><a xlink:href="lst__env_8c.html#a9c375db3cbfe2e87b52bae7ee7472eae" target="_top" xlink:title=" ">
<polygon fill="none" stroke="black" points="1196,-341.53 1196,-360.53 1296,-360.53 1296,-341.53 1196,-341.53"/>
<text text-anchor="middle" x="1246" y="-348.53" font-family="Helvetica,sans-Serif" font-size="10.00">create_node_env</text>
</a>
</g>
</g>
<!-- Node31&#45;&gt;Node32 -->
<g id="edge37" class="edge">
<title>Node31&#45;&gt;Node32</title>
<path fill="none" stroke="midnightblue" d="M1119.65,-366.55C1138.2,-364.25 1163.18,-361.16 1185.96,-358.34"/>
<polygon fill="midnightblue" stroke="midnightblue" points="1186.4,-361.81 1195.9,-357.11 1185.54,-354.86 1186.4,-361.81"/>
</g>
<!-- Node33 -->
<g id="node33" class="node">
<title>Node33</title>
<g id="a_node33"><a xlink:href="lst__env_8c.html#a5976d1b2a8159220749fac94a83d5c95" target="_top" xlink:title=" ">
<polygon fill="none" stroke="black" points="1200,-379.53 1200,-398.53 1292,-398.53 1292,-379.53 1200,-379.53"/>
<text text-anchor="middle" x="1246" y="-386.53" font-family="Helvetica,sans-Serif" font-size="10.00">push_back_env</text>
</a>
</g>
</g>
<!-- Node31&#45;&gt;Node33 -->
<g id="edge38" class="edge">
<title>Node31&#45;&gt;Node33</title>
<path fill="none" stroke="midnightblue" d="M1119.65,-373.52C1139.27,-375.94 1166.08,-379.26 1189.87,-382.21"/>
<polygon fill="midnightblue" stroke="midnightblue" points="1189.5,-385.69 1199.85,-383.44 1190.36,-378.74 1189.5,-385.69"/>
</g>
<!-- Node34 -->
<g id="node34" class="node">
<title>Node34</title>
<g id="a_node34"><a xlink:href="env__utils_8c.html#ac7b3f84bb622bdf477616c5b0022f035" target="_top" xlink:title=" ">
<polygon fill="none" stroke="black" points="1332,-379.53 1332,-398.53 1411,-398.53 1411,-379.53 1332,-379.53"/>
<text text-anchor="middle" x="1371.5" y="-386.53" font-family="Helvetica,sans-Serif" font-size="10.00">get_last_env</text>
</a>
</g>
</g>
<!-- Node33&#45;&gt;Node34 -->
<g id="edge39" class="edge">
<title>Node33&#45;&gt;Node34</title>
<path fill="none" stroke="midnightblue" d="M1292.29,-389.03C1301.79,-389.03 1311.86,-389.03 1321.49,-389.03"/>
<polygon fill="midnightblue" stroke="midnightblue" points="1321.73,-392.53 1331.73,-389.03 1321.73,-385.53 1321.73,-392.53"/>
</g>
<!-- Node36 -->
<g id="node36" class="node">
<title>Node36</title>
<g id="a_node36"><a xlink:href="my__echo_8c.html#a7c657de7306d33ae5cdab2bf43f35ae1" target="_top" xlink:title=" ">
<polygon fill="none" stroke="black" points="729,-322.53 729,-341.53 839,-341.53 839,-322.53 729,-322.53"/>
<text text-anchor="middle" x="784" y="-329.53" font-family="Helvetica,sans-Serif" font-size="10.00">check_option_echo</text>
</a>
</g>
</g>
<!-- Node35&#45;&gt;Node36 -->
<g id="edge42" class="edge">
<title>Node35&#45;&gt;Node36</title>
<path fill="none" stroke="midnightblue" d="M679.13,-332.03C690.87,-332.03 704.87,-332.03 718.72,-332.03"/>
<polygon fill="midnightblue" stroke="midnightblue" points="718.74,-335.53 728.74,-332.03 718.74,-328.53 718.74,-335.53"/>
</g>
<!-- Node37&#45;&gt;Node10 -->
<g id="edge45" class="edge">
<title>Node37&#45;&gt;Node10</title>
<path fill="none" stroke="midnightblue" d="M660.68,-208.43C675.48,-196.11 702.79,-174.68 729,-161.03 732.97,-158.96 737.22,-157.03 741.53,-155.25"/>
<polygon fill="midnightblue" stroke="midnightblue" points="742.88,-158.48 750.96,-151.62 740.37,-151.95 742.88,-158.48"/>
</g>
<!-- Node37&#45;&gt;Node14 -->
<g id="edge46" class="edge">
<title>Node37&#45;&gt;Node14</title>
<path fill="none" stroke="midnightblue" d="M676.52,-210.34C694.59,-205.2 718.77,-198.31 739.52,-192.41"/>
<polygon fill="midnightblue" stroke="midnightblue" points="740.73,-195.7 749.39,-189.6 738.81,-188.97 740.73,-195.7"/>
</g>
<!-- Node37&#45;&gt;Node22 -->
<g id="edge47" class="edge">
<title>Node37&#45;&gt;Node22</title>
<path fill="none" stroke="midnightblue" d="M676.52,-225.72C700.3,-232.49 734.67,-242.27 757.87,-248.88"/>
<polygon fill="midnightblue" stroke="midnightblue" points="757.09,-252.3 767.67,-251.67 759.01,-245.56 757.09,-252.3"/>
</g>
<!-- Node38 -->
<g id="node38" class="node">
<title>Node38</title>
<g id="a_node38"><a xlink:href="exit_8c.html#a7e369b4894a31549c9b65f718e28823f" target="_top" xlink:title=" ">
<polygon fill="none" stroke="black" points="749.5,-208.53 749.5,-227.53 818.5,-227.53 818.5,-208.53 749.5,-208.53"/>
<text text-anchor="middle" x="784" y="-215.53" font-family="Helvetica,sans-Serif" font-size="10.00">check_exit</text>
</a>
</g>
</g>
<!-- Node37&#45;&gt;Node38 -->
<g id="edge44" class="edge">
<title>Node37&#45;&gt;Node38</title>
<path fill="none" stroke="midnightblue" d="M676.52,-218.03C694.5,-218.03 718.55,-218.03 739.23,-218.03"/>
<polygon fill="midnightblue" stroke="midnightblue" points="739.39,-221.53 749.39,-218.03 739.39,-214.53 739.39,-221.53"/>
</g>
<!-- Node41 -->
<g id="node41" class="node">
<title>Node41</title>
<g id="a_node41"><a xlink:href="unset_8c.html#a4b3bbc6cfa6ff293119825a11324fb9f" target="_top" xlink:title=" ">
<polygon fill="none" stroke="black" points="762,-284.53 762,-303.53 806,-303.53 806,-284.53 762,-284.53"/>
<text text-anchor="middle" x="784" y="-291.53" font-family="Helvetica,sans-Serif" font-size="10.00">unset</text>
</a>
</g>
</g>
<!-- Node40&#45;&gt;Node41 -->
<g id="edge50" class="edge">
<title>Node40&#45;&gt;Node41</title>
<path fill="none" stroke="midnightblue" d="M681.82,-294.03C703.07,-294.03 730.75,-294.03 751.78,-294.03"/>
<polygon fill="midnightblue" stroke="midnightblue" points="751.81,-297.53 761.81,-294.03 751.81,-290.53 751.81,-297.53"/>
</g>
<!-- Node43 -->
<g id="node43" class="node">
<title>Node43</title>
<g id="a_node43"><a xlink:href="env__utils_8c.html#a7cc35c974bce053dbba1c1ec1028f36b" target="_top" xlink:title=" ">
<polygon fill="none" stroke="black" points="610,-512.53 610,-531.53 687,-531.53 687,-512.53 610,-512.53"/>
<text text-anchor="middle" x="648.5" y="-519.53" font-family="Helvetica,sans-Serif" font-size="10.00">env_lst_size</text>
</a>
</g>
</g>
<!-- Node42&#45;&gt;Node43 -->
<g id="edge52" class="edge">
<title>Node42&#45;&gt;Node43</title>
<path fill="none" stroke="midnightblue" d="M561.81,-522.03C573.94,-522.03 587.18,-522.03 599.56,-522.03"/>
<polygon fill="midnightblue" stroke="midnightblue" points="599.7,-525.53 609.7,-522.03 599.7,-518.53 599.7,-525.53"/>
</g>
<!-- Node44 -->
<g id="node44" class="node">
<title>Node44</title>
<g id="a_node44"><a xlink:href="getenv_8c.html#a0250cce1862c20e31d0c0ece960bc3a0" target="_top" xlink:title=" ">
<polygon fill="none" stroke="black" points="617.5,-550.53 617.5,-569.53 679.5,-569.53 679.5,-550.53 617.5,-550.53"/>
<text text-anchor="middle" x="648.5" y="-557.53" font-family="Helvetica,sans-Serif" font-size="10.00">join_path</text>
</a>
</g>
</g>
<!-- Node42&#45;&gt;Node44 -->
<g id="edge53" class="edge">
<title>Node42&#45;&gt;Node44</title>
<path fill="none" stroke="midnightblue" d="M551.05,-531.62C568.18,-536.67 589.33,-542.9 607.46,-548.24"/>
<polygon fill="midnightblue" stroke="midnightblue" points="606.59,-551.63 617.17,-551.1 608.57,-544.91 606.59,-551.63"/>
</g>
<!-- Node45&#45;&gt;Node23 -->
<g id="edge57" class="edge">
<title>Node45&#45;&gt;Node23</title>
<path fill="none" stroke="midnightblue" d="M551.26,-569.55C586.53,-578.43 644.17,-588.92 693,-579.03 715.58,-574.46 739.54,-564.04 757.06,-555.26"/>
<polygon fill="midnightblue" stroke="midnightblue" points="758.79,-558.31 766.07,-550.61 755.58,-552.09 758.79,-558.31"/>
</g>
<!-- Node45&#45;&gt;Node44 -->
<g id="edge56" class="edge">
<title>Node45&#45;&gt;Node44</title>
<path fill="none" stroke="midnightblue" d="M555.81,-560.03C571.8,-560.03 590.53,-560.03 606.87,-560.03"/>
<polygon fill="midnightblue" stroke="midnightblue" points="607.21,-563.53 617.21,-560.03 607.21,-556.53 607.21,-563.53"/>
</g>
</g>
</svg>
