<?xml version="1.0" encoding="UTF-8" standalone="no"?>
<!DOCTYPE svg PUBLIC "-//W3C//DTD SVG 1.1//EN"
 "http://www.w3.org/Graphics/SVG/1.1/DTD/svg11.dtd">
<!-- Generated by graphviz version 2.43.0 (0)
 -->
<!-- Title: execute_child Pages: 1 -->
<svg width="764pt" height="465pt"
 viewBox="0.00 0.00 764.00 465.00" xmlns="http://www.w3.org/2000/svg" xmlns:xlink="http://www.w3.org/1999/xlink">
<g id="graph0" class="graph" transform="scale(1 1) rotate(0) translate(4 461)">
<title>execute_child</title>
<!-- Node1 -->
<g id="node1" class="node">
<title>Node1</title>
<g id="a_node1"><a xlink:title=" ">
<polygon fill="#bfbfbf" stroke="black" points="0,-323.5 0,-342.5 83,-342.5 83,-323.5 0,-323.5"/>
<text text-anchor="middle" x="41.5" y="-330.5" font-family="Helvetica,sans-Serif" font-size="10.00">execute_child</text>
</a>
</g>
</g>
<!-- Node2 -->
<g id="node2" class="node">
<title>Node2</title>
<g id="a_node2"><a xlink:href="multipipe_8c.html#ac70e2499b8aeb789658ff4596ded7221" target="_top" xlink:title="as we are going to fork and create process, the new process will have inherited of all the opened fd....">
<polygon fill="none" stroke="black" points="119.5,-399.5 119.5,-418.5 226.5,-418.5 226.5,-399.5 119.5,-399.5"/>
<text text-anchor="middle" x="173" y="-406.5" font-family="Helvetica,sans-Serif" font-size="10.00">close_fd_heredocs</text>
</a>
</g>
</g>
<!-- Node1&#45;&gt;Node2 -->
<g id="edge1" class="edge">
<title>Node1&#45;&gt;Node2</title>
<path fill="none" stroke="midnightblue" d="M53.2,-342.61C67.39,-354.94 93.6,-376.38 119,-390 122.78,-392.03 126.82,-393.92 130.92,-395.66"/>
<polygon fill="midnightblue" stroke="midnightblue" points="129.92,-399.03 140.51,-399.44 132.49,-392.52 129.92,-399.03"/>
</g>
<!-- Node3 -->
<g id="node3" class="node">
<title>Node3</title>
<g id="a_node3"><a xlink:href="redirection__multipipe_8c.html#a19e2c31eeb0eb25575df2277cbd7774e" target="_top" xlink:title=" ">
<polygon fill="none" stroke="black" points="119,-361.5 119,-380.5 227,-380.5 227,-361.5 119,-361.5"/>
<text text-anchor="middle" x="173" y="-368.5" font-family="Helvetica,sans-Serif" font-size="10.00">command_redirect</text>
</a>
</g>
</g>
<!-- Node1&#45;&gt;Node3 -->
<g id="edge2" class="edge">
<title>Node1&#45;&gt;Node3</title>
<path fill="none" stroke="midnightblue" d="M75.18,-342.59C91.59,-347.4 111.68,-353.3 129.29,-358.47"/>
<polygon fill="midnightblue" stroke="midnightblue" points="128.75,-361.96 139.33,-361.41 130.72,-355.24 128.75,-361.96"/>
</g>
<!-- Node7 -->
<g id="node7" class="node">
<title>Node7</title>
<g id="a_node7"><a xlink:href="lst__cmd2_8c.html#a132395876bb5a7cfe926b9e37571a1e3" target="_top" xlink:title=" ">
<polygon fill="none" stroke="black" points="127,-323.5 127,-342.5 219,-342.5 219,-323.5 127,-323.5"/>
<text text-anchor="middle" x="173" y="-330.5" font-family="Helvetica,sans-Serif" font-size="10.00">destructor_cmd</text>
</a>
</g>
</g>
<!-- Node1&#45;&gt;Node7 -->
<g id="edge8" class="edge">
<title>Node1&#45;&gt;Node7</title>
<path fill="none" stroke="midnightblue" d="M83.12,-333C93.68,-333 105.25,-333 116.43,-333"/>
<polygon fill="midnightblue" stroke="midnightblue" points="116.57,-336.5 126.57,-333 116.57,-329.5 116.57,-336.5"/>
</g>
<!-- Node11 -->
<g id="node11" class="node">
<title>Node11</title>
<g id="a_node11"><a xlink:href="lst__env_8c.html#a226ae0aa054e697998b2ecbc5d61d592" target="_top" xlink:title=" ">
<polygon fill="none" stroke="black" points="128.5,-285.5 128.5,-304.5 217.5,-304.5 217.5,-285.5 128.5,-285.5"/>
<text text-anchor="middle" x="173" y="-292.5" font-family="Helvetica,sans-Serif" font-size="10.00">destructor_env</text>
</a>
</g>
</g>
<!-- Node1&#45;&gt;Node11 -->
<g id="edge12" class="edge">
<title>Node1&#45;&gt;Node11</title>
<path fill="none" stroke="midnightblue" d="M75.18,-323.41C91.59,-318.6 111.68,-312.7 129.29,-307.53"/>
<polygon fill="midnightblue" stroke="midnightblue" points="130.72,-310.76 139.33,-304.59 128.75,-304.04 130.72,-310.76"/>
</g>
<!-- Node13 -->
<g id="node13" class="node">
<title>Node13</title>
<g id="a_node13"><a xlink:href="execution__node_8c.html#a6cfdc545c2222bbb0ca1dfc8431f72a3" target="_top" xlink:title="we are going to execute the command here we have a security about absolute path given =&gt; because it&#39;s...">
<polygon fill="none" stroke="black" points="126.5,-152.5 126.5,-171.5 219.5,-171.5 219.5,-152.5 126.5,-152.5"/>
<text text-anchor="middle" x="173" y="-159.5" font-family="Helvetica,sans-Serif" font-size="10.00">execution_node</text>
</a>
</g>
</g>
<!-- Node1&#45;&gt;Node13 -->
<g id="edge14" class="edge">
<title>Node1&#45;&gt;Node13</title>
<path fill="none" stroke="midnightblue" d="M49.83,-323.32C70.85,-295.57 131.5,-215.48 158.62,-179.67"/>
<polygon fill="midnightblue" stroke="midnightblue" points="161.5,-181.66 164.75,-171.58 155.92,-177.44 161.5,-181.66"/>
</g>
<!-- Node4 -->
<g id="node4" class="node">
<title>Node4</title>
<g id="a_node4"><a xlink:href="redirection__multipipe_8c.html#a3a0d7f695cf53df46301e14ffab77638" target="_top" xlink:title=" ">
<polygon fill="none" stroke="black" points="269,-399.5 269,-418.5 358,-418.5 358,-399.5 269,-399.5"/>
<text text-anchor="middle" x="313.5" y="-406.5" font-family="Helvetica,sans-Serif" font-size="10.00">close_previous</text>
</a>
</g>
</g>
<!-- Node3&#45;&gt;Node4 -->
<g id="edge3" class="edge">
<title>Node3&#45;&gt;Node4</title>
<path fill="none" stroke="midnightblue" d="M208.95,-380.59C226.83,-385.49 248.79,-391.52 267.88,-396.76"/>
<polygon fill="midnightblue" stroke="midnightblue" points="266.99,-400.14 277.56,-399.41 268.84,-393.39 266.99,-400.14"/>
</g>
<!-- Node5 -->
<g id="node5" class="node">
<title>Node5</title>
<g id="a_node5"><a xlink:href="redirection__multipipe_8c.html#a1bca6910c90a19d96b36506a2e2cebf6" target="_top" xlink:title="as fd are all setup to &#45;1 at the beginning we check if they are open before trying to close we avoid ...">
<polygon fill="none" stroke="black" points="412.5,-399.5 412.5,-418.5 481.5,-418.5 481.5,-399.5 412.5,-399.5"/>
<text text-anchor="middle" x="447" y="-406.5" font-family="Helvetica,sans-Serif" font-size="10.00">ft_close_fd</text>
</a>
</g>
</g>
<!-- Node3&#45;&gt;Node5 -->
<g id="edge7" class="edge">
<title>Node3&#45;&gt;Node5</title>
<path fill="none" stroke="midnightblue" d="M227.07,-374.48C265.3,-377.43 318.05,-382.41 364,-390 376.5,-392.06 389.94,-394.91 402.25,-397.77"/>
<polygon fill="midnightblue" stroke="midnightblue" points="401.74,-401.25 412.28,-400.16 403.37,-394.44 401.74,-401.25"/>
</g>
<!-- Node6 -->
<g id="node6" class="node">
<title>Node6</title>
<g id="a_node6"><a xlink:href="redirection__multipipe_8c.html#a5b749bc2b4088984c0efe1c479ae6ec8" target="_top" xlink:title=" ">
<polygon fill="none" stroke="black" points="273.5,-437.5 273.5,-456.5 353.5,-456.5 353.5,-437.5 273.5,-437.5"/>
<text text-anchor="middle" x="313.5" y="-444.5" font-family="Helvetica,sans-Serif" font-size="10.00">fail_previous</text>
</a>
</g>
</g>
<!-- Node3&#45;&gt;Node6 -->
<g id="edge5" class="edge">
<title>Node3&#45;&gt;Node6</title>
<path fill="none" stroke="midnightblue" d="M208.21,-380.59C214.71,-383.14 221.27,-386.26 227,-390 246.48,-402.72 243.66,-415.07 263,-428 265.88,-429.93 268.98,-431.7 272.18,-433.32"/>
<polygon fill="midnightblue" stroke="midnightblue" points="270.79,-436.53 281.34,-437.48 273.69,-430.16 270.79,-436.53"/>
</g>
<!-- Node4&#45;&gt;Node5 -->
<g id="edge4" class="edge">
<title>Node4&#45;&gt;Node5</title>
<path fill="none" stroke="midnightblue" d="M358.29,-409C372.48,-409 388.21,-409 402.38,-409"/>
<polygon fill="midnightblue" stroke="midnightblue" points="402.39,-412.5 412.39,-409 402.39,-405.5 402.39,-412.5"/>
</g>
<!-- Node6&#45;&gt;Node5 -->
<g id="edge6" class="edge">
<title>Node6&#45;&gt;Node5</title>
<path fill="none" stroke="midnightblue" d="M347.68,-437.41C364.5,-432.55 385.13,-426.59 403.13,-421.39"/>
<polygon fill="midnightblue" stroke="midnightblue" points="404.19,-424.72 412.83,-418.59 402.25,-418 404.19,-424.72"/>
</g>
<!-- Node8 -->
<g id="node8" class="node">
<title>Node8</title>
<g id="a_node8"><a xlink:href="lst__cmd2_8c.html#a8e2b63759f149b547e0d07f210ede9b3" target="_top" xlink:title=" ">
<polygon fill="none" stroke="black" points="283,-323.5 283,-342.5 344,-342.5 344,-323.5 283,-323.5"/>
<text text-anchor="middle" x="313.5" y="-330.5" font-family="Helvetica,sans-Serif" font-size="10.00">pop_cmd</text>
</a>
</g>
</g>
<!-- Node7&#45;&gt;Node8 -->
<g id="edge9" class="edge">
<title>Node7&#45;&gt;Node8</title>
<path fill="none" stroke="midnightblue" d="M219.35,-333C236.44,-333 255.73,-333 272.31,-333"/>
<polygon fill="midnightblue" stroke="midnightblue" points="272.77,-336.5 282.77,-333 272.77,-329.5 272.77,-336.5"/>
</g>
<!-- Node9 -->
<g id="node9" class="node">
<title>Node9</title>
<g id="a_node9"><a xlink:href="lst__redir2_8c.html#a30ccaf401a4f897e48ead5fe54f4b307" target="_top" xlink:title=" ">
<polygon fill="none" stroke="black" points="400,-342.5 400,-361.5 494,-361.5 494,-342.5 400,-342.5"/>
<text text-anchor="middle" x="447" y="-349.5" font-family="Helvetica,sans-Serif" font-size="10.00">destructor_redir</text>
</a>
</g>
</g>
<!-- Node8&#45;&gt;Node9 -->
<g id="edge10" class="edge">
<title>Node8&#45;&gt;Node9</title>
<path fill="none" stroke="midnightblue" d="M344.01,-337.26C357.49,-339.21 373.93,-341.59 389.63,-343.86"/>
<polygon fill="midnightblue" stroke="midnightblue" points="389.41,-347.36 399.81,-345.33 390.41,-340.43 389.41,-347.36"/>
</g>
<!-- Node10 -->
<g id="node10" class="node">
<title>Node10</title>
<g id="a_node10"><a xlink:href="lst__redir2_8c.html#ade8f0bdda51d9bf348ebeb38fefba881" target="_top" xlink:title=" ">
<polygon fill="none" stroke="black" points="554.5,-342.5 554.5,-361.5 616.5,-361.5 616.5,-342.5 554.5,-342.5"/>
<text text-anchor="middle" x="585.5" y="-349.5" font-family="Helvetica,sans-Serif" font-size="10.00">pop_redir</text>
</a>
</g>
</g>
<!-- Node9&#45;&gt;Node10 -->
<g id="edge11" class="edge">
<title>Node9&#45;&gt;Node10</title>
<path fill="none" stroke="midnightblue" d="M494.21,-352C510.3,-352 528.22,-352 543.82,-352"/>
<polygon fill="midnightblue" stroke="midnightblue" points="544.21,-355.5 554.21,-352 544.21,-348.5 544.21,-355.5"/>
</g>
<!-- Node12 -->
<g id="node12" class="node">
<title>Node12</title>
<g id="a_node12"><a xlink:href="lst__env_8c.html#a058c245b5f2ef22f9d2659f90e4d3537" target="_top" xlink:title=" ">
<polygon fill="none" stroke="black" points="284.5,-285.5 284.5,-304.5 342.5,-304.5 342.5,-285.5 284.5,-285.5"/>
<text text-anchor="middle" x="313.5" y="-292.5" font-family="Helvetica,sans-Serif" font-size="10.00">pop_env</text>
</a>
</g>
</g>
<!-- Node11&#45;&gt;Node12 -->
<g id="edge13" class="edge">
<title>Node11&#45;&gt;Node12</title>
<path fill="none" stroke="midnightblue" d="M217.82,-295C235.8,-295 256.44,-295 273.85,-295"/>
<polygon fill="midnightblue" stroke="midnightblue" points="274.22,-298.5 284.22,-295 274.22,-291.5 274.22,-298.5"/>
</g>
<!-- Node14 -->
<g id="node14" class="node">
<title>Node14</title>
<g id="a_node14"><a xlink:href="execution__node_8c.html#a74f4c34ebdc38c1fb50db2aa13f97b66" target="_top" xlink:title=" ">
<polygon fill="none" stroke="black" points="263,-152.5 263,-171.5 364,-171.5 364,-152.5 263,-152.5"/>
<text text-anchor="middle" x="313.5" y="-159.5" font-family="Helvetica,sans-Serif" font-size="10.00">check_accessible</text>
</a>
</g>
</g>
<!-- Node13&#45;&gt;Node14 -->
<g id="edge15" class="edge">
<title>Node13&#45;&gt;Node14</title>
<path fill="none" stroke="midnightblue" d="M219.73,-162C230.35,-162 241.81,-162 252.92,-162"/>
<polygon fill="midnightblue" stroke="midnightblue" points="253,-165.5 263,-162 253,-158.5 253,-165.5"/>
</g>
<!-- Node15 -->
<g id="node15" class="node">
<title>Node15</title>
<g id="a_node15"><a xlink:href="execution__node_8c.html#adc2c91230d4a0a1a1f98db2a888afcaa" target="_top" xlink:title="error message management for the specific case of execution">
<polygon fill="none" stroke="black" points="402.5,-114.5 402.5,-133.5 491.5,-133.5 491.5,-114.5 402.5,-114.5"/>
<text text-anchor="middle" x="447" y="-121.5" font-family="Helvetica,sans-Serif" font-size="10.00">message_error</text>
</a>
</g>
</g>
<!-- Node13&#45;&gt;Node15 -->
<g id="edge33" class="edge">
<title>Node13&#45;&gt;Node15</title>
<path fill="none" stroke="midnightblue" d="M214.15,-152.48C229.38,-149.12 246.93,-145.54 263,-143 306.07,-136.19 355.25,-131.24 391.77,-128.1"/>
<polygon fill="midnightblue" stroke="midnightblue" points="392.53,-131.55 402.2,-127.22 391.94,-124.57 392.53,-131.55"/>
</g>
<!-- Node16 -->
<g id="node16" class="node">
<title>Node16</title>
<g id="a_node16"><a xlink:href="execution_8c.html#a3acc0bb56da881cc8609ca9e94ec8e93" target="_top" xlink:title="detect if it&#39;s a builtin with strncmp() but the real question is &quot;is it a builtin I have &#160;to launch i...">
<polygon fill="none" stroke="black" points="277,-190.5 277,-209.5 350,-209.5 350,-190.5 277,-190.5"/>
<text text-anchor="middle" x="313.5" y="-197.5" font-family="Helvetica,sans-Serif" font-size="10.00">is_it_builtin</text>
</a>
</g>
</g>
<!-- Node13&#45;&gt;Node16 -->
<g id="edge17" class="edge">
<title>Node13&#45;&gt;Node16</title>
<path fill="none" stroke="midnightblue" d="M208.95,-171.59C226.83,-176.49 248.79,-182.52 267.88,-187.76"/>
<polygon fill="midnightblue" stroke="midnightblue" points="266.99,-191.14 277.56,-190.41 268.84,-184.39 266.99,-191.14"/>
</g>
<!-- Node17 -->
<g id="node17" class="node">
<title>Node17</title>
<g id="a_node17"><a xlink:href="execution_8c.html#a8b2bd9dba90bfc9b2ead44af5e630315" target="_top" xlink:title="launch the builtin &#160;&#160;some of them are not present because we have to fork() them why ?...">
<polygon fill="none" stroke="black" points="271,-228.5 271,-247.5 356,-247.5 356,-228.5 271,-228.5"/>
<text text-anchor="middle" x="313.5" y="-235.5" font-family="Helvetica,sans-Serif" font-size="10.00">launch_builtin</text>
</a>
</g>
</g>
<!-- Node13&#45;&gt;Node17 -->
<g id="edge18" class="edge">
<title>Node13&#45;&gt;Node17</title>
<path fill="none" stroke="midnightblue" d="M187.07,-171.57C203.99,-183.68 234.67,-204.68 263,-219 266.84,-220.94 270.92,-222.8 275.03,-224.55"/>
<polygon fill="midnightblue" stroke="midnightblue" points="273.99,-227.91 284.58,-228.42 276.62,-221.42 273.99,-227.91"/>
</g>
<!-- Node28 -->
<g id="node28" class="node">
<title>Node28</title>
<g id="a_node28"><a xlink:href="lst__env__two_8c.html#aafcce0b2f2958645e84ae23b14116680" target="_top" xlink:title=" ">
<polygon fill="none" stroke="black" points="269.5,-38.5 269.5,-57.5 357.5,-57.5 357.5,-38.5 269.5,-38.5"/>
<text text-anchor="middle" x="313.5" y="-45.5" font-family="Helvetica,sans-Serif" font-size="10.00">lst_to_tab_env</text>
</a>
</g>
</g>
<!-- Node13&#45;&gt;Node28 -->
<g id="edge30" class="edge">
<title>Node13&#45;&gt;Node28</title>
<path fill="none" stroke="midnightblue" d="M180.73,-152.29C194.27,-133.41 226.62,-91.48 263,-67 265.75,-65.15 268.7,-63.44 271.75,-61.88"/>
<polygon fill="midnightblue" stroke="midnightblue" points="273.44,-64.96 281.07,-57.6 270.52,-58.6 273.44,-64.96"/>
</g>
<!-- Node31 -->
<g id="node31" class="node">
<title>Node31</title>
<g id="a_node31"><a xlink:href="getenv_8c.html#a5d0cf05c2622983111dcfc0f179c5739" target="_top" xlink:title=" ">
<polygon fill="none" stroke="black" points="275.5,-76.5 275.5,-95.5 351.5,-95.5 351.5,-76.5 275.5,-76.5"/>
<text text-anchor="middle" x="313.5" y="-83.5" font-family="Helvetica,sans-Serif" font-size="10.00">search_path</text>
</a>
</g>
</g>
<!-- Node13&#45;&gt;Node31 -->
<g id="edge34" class="edge">
<title>Node13&#45;&gt;Node31</title>
<path fill="none" stroke="midnightblue" d="M189.55,-152.42C207.15,-141.7 236.79,-123.98 263,-110 269.23,-106.68 275.98,-103.27 282.45,-100.11"/>
<polygon fill="midnightblue" stroke="midnightblue" points="284.12,-103.19 291.61,-95.69 281.08,-96.88 284.12,-103.19"/>
</g>
<!-- Node14&#45;&gt;Node15 -->
<g id="edge16" class="edge">
<title>Node14&#45;&gt;Node15</title>
<path fill="none" stroke="midnightblue" d="M347.68,-152.41C364.5,-147.55 385.13,-141.59 403.13,-136.39"/>
<polygon fill="midnightblue" stroke="midnightblue" points="404.19,-139.72 412.83,-133.59 402.25,-133 404.19,-139.72"/>
</g>
<!-- Node18 -->
<g id="node18" class="node">
<title>Node18</title>
<g id="a_node18"><a xlink:href="cd_8c.html#a68ca1d5a8272f17815cfd7394a24ad19" target="_top" xlink:title=" ">
<polygon fill="none" stroke="black" points="432.5,-152.5 432.5,-171.5 461.5,-171.5 461.5,-152.5 432.5,-152.5"/>
<text text-anchor="middle" x="447" y="-159.5" font-family="Helvetica,sans-Serif" font-size="10.00">cd</text>
</a>
</g>
</g>
<!-- Node17&#45;&gt;Node18 -->
<g id="edge19" class="edge">
<title>Node17&#45;&gt;Node18</title>
<path fill="none" stroke="midnightblue" d="M345.66,-228.48C351.99,-225.89 358.41,-222.74 364,-219 383.34,-206.07 380.83,-194.18 400,-181 406.93,-176.24 415.24,-172.35 422.88,-169.36"/>
<polygon fill="midnightblue" stroke="midnightblue" points="424.14,-172.63 432.37,-165.95 421.77,-166.04 424.14,-172.63"/>
</g>
<!-- Node20 -->
<g id="node20" class="node">
<title>Node20</title>
<g id="a_node20"><a xlink:href="env_8c.html#ad7678c59b5365c776294bdeefd3d7583" target="_top" xlink:title=" ">
<polygon fill="none" stroke="black" points="568,-266.5 568,-285.5 603,-285.5 603,-266.5 568,-266.5"/>
<text text-anchor="middle" x="585.5" y="-273.5" font-family="Helvetica,sans-Serif" font-size="10.00">env</text>
</a>
</g>
</g>
<!-- Node17&#45;&gt;Node20 -->
<g id="edge21" class="edge">
<title>Node17&#45;&gt;Node20</title>
<path fill="none" stroke="midnightblue" d="M353.05,-247.56C367.68,-250.93 384.54,-254.49 400,-257 455.74,-266.03 521.69,-271.61 557.7,-274.22"/>
<polygon fill="midnightblue" stroke="midnightblue" points="557.66,-277.73 567.88,-274.94 558.15,-270.74 557.66,-277.73"/>
</g>
<!-- Node21 -->
<g id="node21" class="node">
<title>Node21</title>
<g id="a_node21"><a xlink:href="export_8c.html#ab409cd8fcc654b7e32155051ded49ff5" target="_top" xlink:title=" ">
<polygon fill="none" stroke="black" points="423,-228.5 423,-247.5 471,-247.5 471,-228.5 423,-228.5"/>
<text text-anchor="middle" x="447" y="-235.5" font-family="Helvetica,sans-Serif" font-size="10.00">export</text>
</a>
</g>
</g>
<!-- Node17&#45;&gt;Node21 -->
<g id="edge22" class="edge">
<title>Node17&#45;&gt;Node21</title>
<path fill="none" stroke="midnightblue" d="M356.11,-238C374.3,-238 395.36,-238 412.52,-238"/>
<polygon fill="midnightblue" stroke="midnightblue" points="412.64,-241.5 422.64,-238 412.64,-234.5 412.64,-241.5"/>
</g>
<!-- Node26 -->
<g id="node26" class="node">
<title>Node26</title>
<g id="a_node26"><a xlink:href="my__echo_8c.html#a5522916069f77552d810e207670e3170" target="_top" xlink:title=" ">
<polygon fill="none" stroke="black" points="416.5,-190.5 416.5,-209.5 477.5,-209.5 477.5,-190.5 416.5,-190.5"/>
<text text-anchor="middle" x="447" y="-197.5" font-family="Helvetica,sans-Serif" font-size="10.00">my_echo</text>
</a>
</g>
</g>
<!-- Node17&#45;&gt;Node26 -->
<g id="edge28" class="edge">
<title>Node17&#45;&gt;Node26</title>
<path fill="none" stroke="midnightblue" d="M347.68,-228.41C365.61,-223.23 387.86,-216.8 406.66,-211.37"/>
<polygon fill="midnightblue" stroke="midnightblue" points="407.78,-214.69 416.42,-208.55 405.84,-207.96 407.78,-214.69"/>
</g>
<!-- Node27 -->
<g id="node27" class="node">
<title>Node27</title>
<g id="a_node27"><a xlink:href="pwd_8c.html#ab62618359287b6604bd60852145b9726" target="_top" xlink:title=" ">
<polygon fill="none" stroke="black" points="428.5,-304.5 428.5,-323.5 465.5,-323.5 465.5,-304.5 428.5,-304.5"/>
<text text-anchor="middle" x="447" y="-311.5" font-family="Helvetica,sans-Serif" font-size="10.00">pwd</text>
</a>
</g>
</g>
<!-- Node17&#45;&gt;Node27 -->
<g id="edge29" class="edge">
<title>Node17&#45;&gt;Node27</title>
<path fill="none" stroke="midnightblue" d="M329.46,-247.51C346.39,-258.17 374.88,-275.83 400,-290 406.22,-293.51 413,-297.15 419.39,-300.5"/>
<polygon fill="midnightblue" stroke="midnightblue" points="417.89,-303.66 428.38,-305.15 421.11,-297.44 417.89,-303.66"/>
</g>
<!-- Node19 -->
<g id="node19" class="node">
<title>Node19</title>
<g id="a_node19"><a xlink:href="lst__env__two_8c.html#a4d4a14327b2c3ff88099102b6bd77986" target="_top" xlink:title=" ">
<polygon fill="none" stroke="black" points="533.5,-95.5 533.5,-114.5 637.5,-114.5 637.5,-95.5 533.5,-95.5"/>
<text text-anchor="middle" x="585.5" y="-102.5" font-family="Helvetica,sans-Serif" font-size="10.00">research_key_env</text>
</a>
</g>
</g>
<!-- Node18&#45;&gt;Node19 -->
<g id="edge20" class="edge">
<title>Node18&#45;&gt;Node19</title>
<path fill="none" stroke="midnightblue" d="M461.7,-156.37C470.85,-152.6 483.15,-147.52 494,-143 513.33,-134.95 534.96,-125.87 552.22,-118.61"/>
<polygon fill="midnightblue" stroke="midnightblue" points="553.97,-121.67 561.83,-114.56 551.25,-115.22 553.97,-121.67"/>
</g>
<!-- Node21&#45;&gt;Node20 -->
<g id="edge24" class="edge">
<title>Node21&#45;&gt;Node20</title>
<path fill="none" stroke="midnightblue" d="M471.16,-244.45C495.22,-251.15 532.83,-261.62 558.05,-268.64"/>
<polygon fill="midnightblue" stroke="midnightblue" points="557.13,-272.01 567.7,-271.32 559.01,-265.27 557.13,-272.01"/>
</g>
<!-- Node22 -->
<g id="node22" class="node">
<title>Node22</title>
<g id="a_node22"><a xlink:href="lst__env_8c.html#a9c375db3cbfe2e87b52bae7ee7472eae" target="_top" xlink:title=" ">
<polygon fill="none" stroke="black" points="535.5,-228.5 535.5,-247.5 635.5,-247.5 635.5,-228.5 535.5,-228.5"/>
<text text-anchor="middle" x="585.5" y="-235.5" font-family="Helvetica,sans-Serif" font-size="10.00">create_node_env</text>
</a>
</g>
</g>
<!-- Node21&#45;&gt;Node22 -->
<g id="edge23" class="edge">
<title>Node21&#45;&gt;Node22</title>
<path fill="none" stroke="midnightblue" d="M471.16,-238C486.05,-238 506.13,-238 525.25,-238"/>
<polygon fill="midnightblue" stroke="midnightblue" points="525.43,-241.5 535.43,-238 525.43,-234.5 525.43,-241.5"/>
</g>
<!-- Node23 -->
<g id="node23" class="node">
<title>Node23</title>
<g id="a_node23"><a xlink:href="lst__env_8c.html#a5976d1b2a8159220749fac94a83d5c95" target="_top" xlink:title=" ">
<polygon fill="none" stroke="black" points="539.5,-190.5 539.5,-209.5 631.5,-209.5 631.5,-190.5 539.5,-190.5"/>
<text text-anchor="middle" x="585.5" y="-197.5" font-family="Helvetica,sans-Serif" font-size="10.00">push_back_env</text>
</a>
</g>
</g>
<!-- Node21&#45;&gt;Node23 -->
<g id="edge25" class="edge">
<title>Node21&#45;&gt;Node23</title>
<path fill="none" stroke="midnightblue" d="M471.16,-231.55C490.04,-226.3 517.26,-218.72 540.29,-212.31"/>
<polygon fill="midnightblue" stroke="midnightblue" points="541.5,-215.6 550.2,-209.55 539.63,-208.86 541.5,-215.6"/>
</g>
<!-- Node25 -->
<g id="node25" class="node">
<title>Node25</title>
<g id="a_node25"><a xlink:href="export_8c.html#a2db1828ad3293b53b14b47a11c636e51" target="_top" xlink:title=" ">
<polygon fill="none" stroke="black" points="530,-152.5 530,-171.5 641,-171.5 641,-152.5 530,-152.5"/>
<text text-anchor="middle" x="585.5" y="-159.5" font-family="Helvetica,sans-Serif" font-size="10.00">research_node_env</text>
</a>
</g>
</g>
<!-- Node21&#45;&gt;Node25 -->
<g id="edge27" class="edge">
<title>Node21&#45;&gt;Node25</title>
<path fill="none" stroke="midnightblue" d="M471.43,-230.52C478.99,-227.54 487.16,-223.7 494,-219 513.17,-205.82 510.46,-193.63 530,-181 533.08,-179.01 536.4,-177.19 539.83,-175.55"/>
<polygon fill="midnightblue" stroke="midnightblue" points="541.23,-178.76 549.04,-171.59 538.47,-172.32 541.23,-178.76"/>
</g>
<!-- Node24 -->
<g id="node24" class="node">
<title>Node24</title>
<g id="a_node24"><a xlink:href="env__utils_8c.html#ac7b3f84bb622bdf477616c5b0022f035" target="_top" xlink:title=" ">
<polygon fill="none" stroke="black" points="677,-190.5 677,-209.5 756,-209.5 756,-190.5 677,-190.5"/>
<text text-anchor="middle" x="716.5" y="-197.5" font-family="Helvetica,sans-Serif" font-size="10.00">get_last_env</text>
</a>
</g>
</g>
<!-- Node23&#45;&gt;Node24 -->
<g id="edge26" class="edge">
<title>Node23&#45;&gt;Node24</title>
<path fill="none" stroke="midnightblue" d="M631.62,-200C642.85,-200 654.96,-200 666.38,-200"/>
<polygon fill="midnightblue" stroke="midnightblue" points="666.63,-203.5 676.63,-200 666.63,-196.5 666.63,-203.5"/>
</g>
<!-- Node29 -->
<g id="node29" class="node">
<title>Node29</title>
<g id="a_node29"><a xlink:href="env__utils_8c.html#a7cc35c974bce053dbba1c1ec1028f36b" target="_top" xlink:title=" ">
<polygon fill="none" stroke="black" points="408.5,-0.5 408.5,-19.5 485.5,-19.5 485.5,-0.5 408.5,-0.5"/>
<text text-anchor="middle" x="447" y="-7.5" font-family="Helvetica,sans-Serif" font-size="10.00">env_lst_size</text>
</a>
</g>
</g>
<!-- Node28&#45;&gt;Node29 -->
<g id="edge31" class="edge">
<title>Node28&#45;&gt;Node29</title>
<path fill="none" stroke="midnightblue" d="M347.68,-38.41C364.5,-33.55 385.13,-27.59 403.13,-22.39"/>
<polygon fill="midnightblue" stroke="midnightblue" points="404.19,-25.72 412.83,-19.59 402.25,-19 404.19,-25.72"/>
</g>
<!-- Node30 -->
<g id="node30" class="node">
<title>Node30</title>
<g id="a_node30"><a xlink:href="getenv_8c.html#a0250cce1862c20e31d0c0ece960bc3a0" target="_top" xlink:title=" ">
<polygon fill="none" stroke="black" points="416,-38.5 416,-57.5 478,-57.5 478,-38.5 416,-38.5"/>
<text text-anchor="middle" x="447" y="-45.5" font-family="Helvetica,sans-Serif" font-size="10.00">join_path</text>
</a>
</g>
</g>
<!-- Node28&#45;&gt;Node30 -->
<g id="edge32" class="edge">
<title>Node28&#45;&gt;Node30</title>
<path fill="none" stroke="midnightblue" d="M357.56,-48C373.02,-48 390.38,-48 405.61,-48"/>
<polygon fill="midnightblue" stroke="midnightblue" points="405.75,-51.5 415.75,-48 405.75,-44.5 405.75,-51.5"/>
</g>
<!-- Node31&#45;&gt;Node19 -->
<g id="edge36" class="edge">
<title>Node31&#45;&gt;Node19</title>
<path fill="none" stroke="midnightblue" d="M351.76,-88.62C395.97,-91.73 470.33,-96.97 523.09,-100.68"/>
<polygon fill="midnightblue" stroke="midnightblue" points="523.12,-104.19 533.34,-101.4 523.61,-97.21 523.12,-104.19"/>
</g>
<!-- Node31&#45;&gt;Node30 -->
<g id="edge35" class="edge">
<title>Node31&#45;&gt;Node30</title>
<path fill="none" stroke="midnightblue" d="M347.68,-76.41C365.48,-71.27 387.54,-64.89 406.26,-59.49"/>
<polygon fill="midnightblue" stroke="midnightblue" points="407.34,-62.81 415.98,-56.68 405.4,-56.09 407.34,-62.81"/>
</g>
</g>
</svg>
