<?xml version="1.0" encoding="UTF-8" standalone="no"?>
<!DOCTYPE svg PUBLIC "-//W3C//DTD SVG 1.1//EN"
 "http://www.w3.org/Graphics/SVG/1.1/DTD/svg11.dtd">
<!-- Generated by graphviz version 2.43.0 (0)
 -->
<!-- Title: multipipe_intermediary_cmd Pages: 1 -->
<svg width="1370pt" height="752pt"
 viewBox="0.00 0.00 1370.00 752.18" xmlns="http://www.w3.org/2000/svg" xmlns:xlink="http://www.w3.org/1999/xlink">
<g id="graph0" class="graph" transform="scale(1 1) rotate(0) translate(4 748.18)">
<title>multipipe_intermediary_cmd</title>
<!-- Node1 -->
<g id="node1" class="node">
<title>Node1</title>
<g id="a_node1"><a xlink:title="it&#39;s where the fork happen and sent to be execute">
<polygon fill="#bfbfbf" stroke="black" points="0,-620.68 0,-639.68 158,-639.68 158,-620.68 0,-620.68"/>
<text text-anchor="middle" x="79" y="-627.68" font-family="Helvetica,sans-Serif" font-size="10.00">multipipe_intermediary_cmd</text>
</a>
</g>
</g>
<!-- Node2 -->
<g id="node2" class="node">
<title>Node2</title>
<g id="a_node2"><a xlink:href="redirection__multipipe_8c.html#af7980d82e7ea7c0c84519ef3e3011b98" target="_top" xlink:title=" ">
<polygon fill="none" stroke="black" points="194,-696.68 194,-715.68 288,-715.68 288,-696.68 194,-696.68"/>
<text text-anchor="middle" x="241" y="-703.68" font-family="Helvetica,sans-Serif" font-size="10.00">close_fd_parent</text>
</a>
</g>
</g>
<!-- Node1&#45;&gt;Node2 -->
<g id="edge1" class="edge">
<title>Node1&#45;&gt;Node2</title>
<path fill="none" stroke="midnightblue" d="M100.26,-639.81C128.16,-653.06 178.55,-677 210.59,-692.22"/>
<polygon fill="midnightblue" stroke="midnightblue" points="209.37,-695.51 219.9,-696.64 212.37,-689.19 209.37,-695.51"/>
</g>
<!-- Node4 -->
<g id="node4" class="node">
<title>Node4</title>
<g id="a_node4"><a xlink:href="multipipe_8c.html#a461ae962ce9a1aee7221ac4b9c581f98" target="_top" xlink:title=" ">
<polygon fill="none" stroke="black" points="199.5,-620.68 199.5,-639.68 282.5,-639.68 282.5,-620.68 199.5,-620.68"/>
<text text-anchor="middle" x="241" y="-627.68" font-family="Helvetica,sans-Serif" font-size="10.00">execute_child</text>
</a>
</g>
</g>
<!-- Node1&#45;&gt;Node4 -->
<g id="edge3" class="edge">
<title>Node1&#45;&gt;Node4</title>
<path fill="none" stroke="midnightblue" d="M158.13,-630.18C168.72,-630.18 179.36,-630.18 189.3,-630.18"/>
<polygon fill="midnightblue" stroke="midnightblue" points="189.38,-633.69 199.38,-630.18 189.38,-626.69 189.38,-633.69"/>
</g>
<!-- Node45 -->
<g id="node45" class="node">
<title>Node45</title>
<g id="a_node45"><a xlink:href="signals_8c.html#aa06f925baa9a6f549b31de64d4faac32" target="_top" xlink:title="allow us to don&#39;t create issue when a child process with readline">
<polygon fill="none" stroke="black" points="195,-582.68 195,-601.68 287,-601.68 287,-582.68 195,-582.68"/>
<text text-anchor="middle" x="241" y="-589.68" font-family="Helvetica,sans-Serif" font-size="10.00">sigint_handler2</text>
</a>
</g>
</g>
<!-- Node1&#45;&gt;Node45 -->
<g id="edge58" class="edge">
<title>Node1&#45;&gt;Node45</title>
<path fill="none" stroke="midnightblue" d="M120.37,-620.6C141.49,-615.58 167.53,-609.4 189.92,-604.08"/>
<polygon fill="midnightblue" stroke="midnightblue" points="190.99,-607.42 199.92,-601.71 189.38,-600.61 190.99,-607.42"/>
</g>
<!-- Node3 -->
<g id="node3" class="node">
<title>Node3</title>
<g id="a_node3"><a xlink:href="redirection__multipipe_8c.html#a1bca6910c90a19d96b36506a2e2cebf6" target="_top" xlink:title="as fd are all setup to &#45;1 at the beginning we check if they are open before trying to close we avoid ...">
<polygon fill="none" stroke="black" points="1293,-639.68 1293,-658.68 1362,-658.68 1362,-639.68 1293,-639.68"/>
<text text-anchor="middle" x="1327.5" y="-646.68" font-family="Helvetica,sans-Serif" font-size="10.00">ft_close_fd</text>
</a>
</g>
</g>
<!-- Node2&#45;&gt;Node3 -->
<g id="edge2" class="edge">
<title>Node2&#45;&gt;Node3</title>
<path fill="none" stroke="midnightblue" d="M278.54,-715.72C292.66,-719.12 309,-722.72 324,-725.18 408.83,-739.14 430.53,-744.18 516.5,-744.18 516.5,-744.18 516.5,-744.18 1077.5,-744.18 1159.33,-744.18 1183.05,-738.23 1257,-703.18 1276.9,-693.76 1296.41,-677.83 1309.68,-665.71"/>
<polygon fill="midnightblue" stroke="midnightblue" points="1312.19,-668.16 1317.07,-658.75 1307.39,-663.06 1312.19,-668.16"/>
</g>
<!-- Node5 -->
<g id="node5" class="node">
<title>Node5</title>
<g id="a_node5"><a xlink:href="multipipe_8c.html#ac70e2499b8aeb789658ff4596ded7221" target="_top" xlink:title="as we are going to fork and create process, the new process will have inherited of all the opened fd....">
<polygon fill="none" stroke="black" points="324,-696.68 324,-715.68 431,-715.68 431,-696.68 324,-696.68"/>
<text text-anchor="middle" x="377.5" y="-703.68" font-family="Helvetica,sans-Serif" font-size="10.00">close_fd_heredocs</text>
</a>
</g>
</g>
<!-- Node4&#45;&gt;Node5 -->
<g id="edge4" class="edge">
<title>Node4&#45;&gt;Node5</title>
<path fill="none" stroke="midnightblue" d="M255.87,-639.8C271.9,-650.72 299.25,-668.76 324,-682.18 330.6,-685.77 337.84,-689.31 344.77,-692.52"/>
<polygon fill="midnightblue" stroke="midnightblue" points="343.39,-695.74 353.95,-696.68 346.28,-689.37 343.39,-695.74"/>
</g>
<!-- Node6 -->
<g id="node6" class="node">
<title>Node6</title>
<g id="a_node6"><a xlink:href="redirection__multipipe_8c.html#a26c96266f1645047a9bdd9af22de94a7" target="_top" xlink:title=" ">
<polygon fill="none" stroke="black" points="1022.5,-658.68 1022.5,-677.68 1130.5,-677.68 1130.5,-658.68 1022.5,-658.68"/>
<text text-anchor="middle" x="1076.5" y="-665.68" font-family="Helvetica,sans-Serif" font-size="10.00">command_redirect</text>
</a>
</g>
</g>
<!-- Node4&#45;&gt;Node6 -->
<g id="edge5" class="edge">
<title>Node4&#45;&gt;Node6</title>
<path fill="none" stroke="midnightblue" d="M278.54,-639.72C292.66,-643.12 309,-646.72 324,-649.18 408.83,-663.14 430.53,-668.18 516.5,-668.18 516.5,-668.18 516.5,-668.18 785,-668.18 863.26,-668.18 953.39,-668.18 1012.24,-668.18"/>
<polygon fill="midnightblue" stroke="midnightblue" points="1012.49,-671.69 1022.49,-668.18 1012.49,-664.69 1012.49,-671.69"/>
</g>
<!-- Node9 -->
<g id="node9" class="node">
<title>Node9</title>
<g id="a_node9"><a xlink:href="lst__cmd2_8c.html#a132395876bb5a7cfe926b9e37571a1e3" target="_top" xlink:title=" ">
<polygon fill="none" stroke="black" points="738,-544.68 738,-563.68 830,-563.68 830,-544.68 738,-544.68"/>
<text text-anchor="middle" x="784" y="-551.68" font-family="Helvetica,sans-Serif" font-size="10.00">destructor_cmd</text>
</a>
</g>
</g>
<!-- Node4&#45;&gt;Node9 -->
<g id="edge11" class="edge">
<title>Node4&#45;&gt;Node9</title>
<path fill="none" stroke="midnightblue" d="M279.38,-620.62C293.32,-617.29 309.32,-613.75 324,-611.18 486.69,-582.72 529.25,-588.77 693,-567.18 704.26,-565.7 716.3,-564.02 727.78,-562.38"/>
<polygon fill="midnightblue" stroke="midnightblue" points="728.31,-565.84 737.71,-560.95 727.31,-558.91 728.31,-565.84"/>
</g>
<!-- Node13 -->
<g id="node13" class="node">
<title>Node13</title>
<g id="a_node13"><a xlink:href="lst__env_8c.html#a226ae0aa054e697998b2ecbc5d61d592" target="_top" xlink:title=" ">
<polygon fill="none" stroke="black" points="739.5,-354.68 739.5,-373.68 828.5,-373.68 828.5,-354.68 739.5,-354.68"/>
<text text-anchor="middle" x="784" y="-361.68" font-family="Helvetica,sans-Serif" font-size="10.00">destructor_env</text>
</a>
</g>
</g>
<!-- Node4&#45;&gt;Node13 -->
<g id="edge17" class="edge">
<title>Node4&#45;&gt;Node13</title>
<path fill="none" stroke="midnightblue" d="M276.31,-620.64C280.75,-618.17 284.84,-615.07 288,-611.18 342.25,-544.53 262.39,-481.11 324,-421.18 380.53,-366.2 620.51,-362.04 729.16,-363.08"/>
<polygon fill="midnightblue" stroke="midnightblue" points="729.22,-366.58 739.26,-363.19 729.3,-359.58 729.22,-366.58"/>
</g>
<!-- Node15 -->
<g id="node15" class="node">
<title>Node15</title>
<g id="a_node15"><a xlink:href="execution__node_8c.html#adda76b40c34c18ec83b1d98700083f8a" target="_top" xlink:title="we are going to execute the command here we have a security about absolute path given =&gt; because it&#39;s...">
<polygon fill="none" stroke="black" points="331,-430.68 331,-449.68 424,-449.68 424,-430.68 331,-430.68"/>
<text text-anchor="middle" x="377.5" y="-437.68" font-family="Helvetica,sans-Serif" font-size="10.00">execution_node</text>
</a>
</g>
</g>
<!-- Node4&#45;&gt;Node15 -->
<g id="edge19" class="edge">
<title>Node4&#45;&gt;Node15</title>
<path fill="none" stroke="midnightblue" d="M273.94,-620.46C279.01,-617.98 283.93,-614.92 288,-611.18 334.89,-568.15 360.99,-494.54 371.28,-459.64"/>
<polygon fill="midnightblue" stroke="midnightblue" points="374.72,-460.33 374.08,-449.76 367.99,-458.43 374.72,-460.33"/>
</g>
<!-- Node44 -->
<g id="node44" class="node">
<title>Node44</title>
<g id="a_node44"><a xlink:href="signals_8c.html#a368a774e2b304a3de55f58168563967d" target="_top" xlink:title=" ">
<polygon fill="none" stroke="black" points="331.5,-620.68 331.5,-639.68 423.5,-639.68 423.5,-620.68 331.5,-620.68"/>
<text text-anchor="middle" x="377.5" y="-627.68" font-family="Helvetica,sans-Serif" font-size="10.00">sigquit_handler</text>
</a>
</g>
</g>
<!-- Node4&#45;&gt;Node44 -->
<g id="edge57" class="edge">
<title>Node4&#45;&gt;Node44</title>
<path fill="none" stroke="midnightblue" d="M282.72,-630.18C294.8,-630.18 308.24,-630.18 321.08,-630.18"/>
<polygon fill="midnightblue" stroke="midnightblue" points="321.22,-633.69 331.22,-630.18 321.22,-626.69 321.22,-633.69"/>
</g>
<!-- Node6&#45;&gt;Node3 -->
<g id="edge10" class="edge">
<title>Node6&#45;&gt;Node3</title>
<path fill="none" stroke="midnightblue" d="M1107.5,-677.73C1143.53,-687.74 1205.54,-700.34 1257,-687.18 1274.32,-682.76 1291.97,-673.03 1305.15,-664.52"/>
<polygon fill="midnightblue" stroke="midnightblue" points="1307.16,-667.39 1313.5,-658.91 1303.25,-661.58 1307.16,-667.39"/>
</g>
<!-- Node7 -->
<g id="node7" class="node">
<title>Node7</title>
<g id="a_node7"><a xlink:href="redirection__multipipe_8c.html#a3a0d7f695cf53df46301e14ffab77638" target="_top" xlink:title=" ">
<polygon fill="none" stroke="black" points="1168,-658.68 1168,-677.68 1257,-677.68 1257,-658.68 1168,-658.68"/>
<text text-anchor="middle" x="1212.5" y="-665.68" font-family="Helvetica,sans-Serif" font-size="10.00">close_previous</text>
</a>
</g>
</g>
<!-- Node6&#45;&gt;Node7 -->
<g id="edge6" class="edge">
<title>Node6&#45;&gt;Node7</title>
<path fill="none" stroke="midnightblue" d="M1130.85,-668.18C1139.66,-668.18 1148.8,-668.18 1157.63,-668.18"/>
<polygon fill="midnightblue" stroke="midnightblue" points="1157.8,-671.69 1167.8,-668.18 1157.8,-664.69 1157.8,-671.69"/>
</g>
<!-- Node8 -->
<g id="node8" class="node">
<title>Node8</title>
<g id="a_node8"><a xlink:href="redirection__multipipe_8c.html#a5b749bc2b4088984c0efe1c479ae6ec8" target="_top" xlink:title=" ">
<polygon fill="none" stroke="black" points="1172.5,-620.68 1172.5,-639.68 1252.5,-639.68 1252.5,-620.68 1172.5,-620.68"/>
<text text-anchor="middle" x="1212.5" y="-627.68" font-family="Helvetica,sans-Serif" font-size="10.00">fail_previous</text>
</a>
</g>
</g>
<!-- Node6&#45;&gt;Node8 -->
<g id="edge8" class="edge">
<title>Node6&#45;&gt;Node8</title>
<path fill="none" stroke="midnightblue" d="M1111.31,-658.6C1128.53,-653.71 1149.66,-647.72 1168.07,-642.5"/>
<polygon fill="midnightblue" stroke="midnightblue" points="1169.03,-645.87 1177.7,-639.77 1167.12,-639.13 1169.03,-645.87"/>
</g>
<!-- Node7&#45;&gt;Node3 -->
<g id="edge7" class="edge">
<title>Node7&#45;&gt;Node3</title>
<path fill="none" stroke="midnightblue" d="M1257.19,-660.84C1265.58,-659.43 1274.36,-657.95 1282.76,-656.54"/>
<polygon fill="midnightblue" stroke="midnightblue" points="1283.46,-659.97 1292.74,-654.86 1282.3,-653.07 1283.46,-659.97"/>
</g>
<!-- Node8&#45;&gt;Node3 -->
<g id="edge9" class="edge">
<title>Node8&#45;&gt;Node3</title>
<path fill="none" stroke="midnightblue" d="M1252.7,-636.78C1262.36,-638.4 1272.75,-640.15 1282.61,-641.81"/>
<polygon fill="midnightblue" stroke="midnightblue" points="1282.19,-645.28 1292.63,-643.49 1283.35,-638.38 1282.19,-645.28"/>
</g>
<!-- Node10 -->
<g id="node10" class="node">
<title>Node10</title>
<g id="a_node10"><a xlink:href="lst__cmd2_8c.html#a8e2b63759f149b547e0d07f210ede9b3" target="_top" xlink:title=" ">
<polygon fill="none" stroke="black" points="899.5,-544.68 899.5,-563.68 960.5,-563.68 960.5,-544.68 899.5,-544.68"/>
<text text-anchor="middle" x="930" y="-551.68" font-family="Helvetica,sans-Serif" font-size="10.00">pop_cmd</text>
</a>
</g>
</g>
<!-- Node9&#45;&gt;Node10 -->
<g id="edge12" class="edge">
<title>Node9&#45;&gt;Node10</title>
<path fill="none" stroke="midnightblue" d="M830.17,-554.18C849.15,-554.18 871.03,-554.18 889.37,-554.18"/>
<polygon fill="midnightblue" stroke="midnightblue" points="889.44,-557.69 899.44,-554.18 889.44,-550.69 889.44,-557.69"/>
</g>
<!-- Node10&#45;&gt;Node3 -->
<g id="edge16" class="edge">
<title>Node10&#45;&gt;Node3</title>
<path fill="none" stroke="midnightblue" d="M960.52,-560.79C978.05,-564.62 1000.75,-569.42 1021,-573.18 1125.45,-592.61 1156.49,-576.76 1257,-611.18 1273.44,-616.81 1290.58,-626.14 1303.72,-634.15"/>
<polygon fill="midnightblue" stroke="midnightblue" points="1302.19,-637.32 1312.52,-639.67 1305.91,-631.39 1302.19,-637.32"/>
</g>
<!-- Node11 -->
<g id="node11" class="node">
<title>Node11</title>
<g id="a_node11"><a xlink:href="lst__redir2_8c.html#a30ccaf401a4f897e48ead5fe54f4b307" target="_top" xlink:title=" ">
<polygon fill="none" stroke="black" points="1029.5,-544.68 1029.5,-563.68 1123.5,-563.68 1123.5,-544.68 1029.5,-544.68"/>
<text text-anchor="middle" x="1076.5" y="-551.68" font-family="Helvetica,sans-Serif" font-size="10.00">destructor_redir</text>
</a>
</g>
</g>
<!-- Node10&#45;&gt;Node11 -->
<g id="edge13" class="edge">
<title>Node10&#45;&gt;Node11</title>
<path fill="none" stroke="midnightblue" d="M960.59,-554.18C977.47,-554.18 999.18,-554.18 1019.18,-554.18"/>
<polygon fill="midnightblue" stroke="midnightblue" points="1019.44,-557.69 1029.44,-554.18 1019.44,-550.69 1019.44,-557.69"/>
</g>
<!-- Node12 -->
<g id="node12" class="node">
<title>Node12</title>
<g id="a_node12"><a xlink:href="lst__redir2_8c.html#ade8f0bdda51d9bf348ebeb38fefba881" target="_top" xlink:title=" ">
<polygon fill="none" stroke="black" points="1181.5,-544.68 1181.5,-563.68 1243.5,-563.68 1243.5,-544.68 1181.5,-544.68"/>
<text text-anchor="middle" x="1212.5" y="-551.68" font-family="Helvetica,sans-Serif" font-size="10.00">pop_redir</text>
</a>
</g>
</g>
<!-- Node11&#45;&gt;Node12 -->
<g id="edge14" class="edge">
<title>Node11&#45;&gt;Node12</title>
<path fill="none" stroke="midnightblue" d="M1123.62,-554.18C1139.12,-554.18 1156.27,-554.18 1171.28,-554.18"/>
<polygon fill="midnightblue" stroke="midnightblue" points="1171.29,-557.69 1181.29,-554.18 1171.29,-550.69 1171.29,-557.69"/>
</g>
<!-- Node12&#45;&gt;Node3 -->
<g id="edge15" class="edge">
<title>Node12&#45;&gt;Node3</title>
<path fill="none" stroke="midnightblue" d="M1233.74,-563.78C1241.34,-567.78 1249.86,-572.76 1257,-578.18 1278.08,-594.22 1298.88,-616.56 1312.15,-631.88"/>
<polygon fill="midnightblue" stroke="midnightblue" points="1309.55,-634.23 1318.7,-639.58 1314.89,-629.7 1309.55,-634.23"/>
</g>
<!-- Node14 -->
<g id="node14" class="node">
<title>Node14</title>
<g id="a_node14"><a xlink:href="lst__env_8c.html#a058c245b5f2ef22f9d2659f90e4d3537" target="_top" xlink:title=" ">
<polygon fill="none" stroke="black" points="901,-354.68 901,-373.68 959,-373.68 959,-354.68 901,-354.68"/>
<text text-anchor="middle" x="930" y="-361.68" font-family="Helvetica,sans-Serif" font-size="10.00">pop_env</text>
</a>
</g>
</g>
<!-- Node13&#45;&gt;Node14 -->
<g id="edge18" class="edge">
<title>Node13&#45;&gt;Node14</title>
<path fill="none" stroke="midnightblue" d="M828.6,-364.18C848.43,-364.18 871.69,-364.18 890.83,-364.18"/>
<polygon fill="midnightblue" stroke="midnightblue" points="890.99,-367.69 900.99,-364.18 890.99,-360.69 890.99,-367.69"/>
</g>
<!-- Node15&#45;&gt;Node9 -->
<g id="edge22" class="edge">
<title>Node15&#45;&gt;Node9</title>
<path fill="none" stroke="midnightblue" d="M386.31,-449.91C400.42,-466.69 431.97,-500.77 467,-516.18 552.45,-553.79 662.76,-558.31 727.89,-557.04"/>
<polygon fill="midnightblue" stroke="midnightblue" points="728.03,-560.53 737.94,-556.79 727.86,-553.54 728.03,-560.53"/>
</g>
<!-- Node15&#45;&gt;Node13 -->
<g id="edge23" class="edge">
<title>Node15&#45;&gt;Node13</title>
<path fill="none" stroke="midnightblue" d="M421.65,-430.62C436.05,-427.51 452.2,-424.11 467,-421.18 558.96,-403.03 666.44,-384.13 729.38,-373.3"/>
<polygon fill="midnightblue" stroke="midnightblue" points="730.2,-376.71 739.47,-371.57 729.02,-369.81 730.2,-376.71"/>
</g>
<!-- Node16 -->
<g id="node16" class="node">
<title>Node16</title>
<g id="a_node16"><a xlink:href="execution__node_8c.html#a74f4c34ebdc38c1fb50db2aa13f97b66" target="_top" xlink:title=" ">
<polygon fill="none" stroke="black" points="467,-468.68 467,-487.68 568,-487.68 568,-468.68 467,-468.68"/>
<text text-anchor="middle" x="517.5" y="-475.68" font-family="Helvetica,sans-Serif" font-size="10.00">check_accessible</text>
</a>
</g>
</g>
<!-- Node15&#45;&gt;Node16 -->
<g id="edge20" class="edge">
<title>Node15&#45;&gt;Node16</title>
<path fill="none" stroke="midnightblue" d="M413.32,-449.77C431.14,-454.68 453.02,-460.7 472.04,-465.94"/>
<polygon fill="midnightblue" stroke="midnightblue" points="471.12,-469.32 481.69,-468.6 472.98,-462.57 471.12,-469.32"/>
</g>
<!-- Node17 -->
<g id="node17" class="node">
<title>Node17</title>
<g id="a_node17"><a xlink:href="execution__node_8c.html#adc2c91230d4a0a1a1f98db2a888afcaa" target="_top" xlink:title="error message management for the specific case of execution">
<polygon fill="none" stroke="black" points="604,-487.68 604,-506.68 693,-506.68 693,-487.68 604,-487.68"/>
<text text-anchor="middle" x="648.5" y="-494.68" font-family="Helvetica,sans-Serif" font-size="10.00">message_error</text>
</a>
</g>
</g>
<!-- Node15&#45;&gt;Node17 -->
<g id="edge53" class="edge">
<title>Node15&#45;&gt;Node17</title>
<path fill="none" stroke="midnightblue" d="M388.92,-449.82C404.51,-463.49 435.44,-487.9 467,-497.18 508.36,-509.35 557.39,-508.44 593.9,-505"/>
<polygon fill="midnightblue" stroke="midnightblue" points="594.27,-508.48 603.85,-503.97 593.55,-501.51 594.27,-508.48"/>
</g>
<!-- Node18 -->
<g id="node18" class="node">
<title>Node18</title>
<g id="a_node18"><a xlink:href="execution_8c.html#a3acc0bb56da881cc8609ca9e94ec8e93" target="_top" xlink:title="detect if it&#39;s a builtin with strncmp() but the real question is &quot;is it a builtin I have &#160;to launch i...">
<polygon fill="none" stroke="black" points="481,-430.68 481,-449.68 554,-449.68 554,-430.68 481,-430.68"/>
<text text-anchor="middle" x="517.5" y="-437.68" font-family="Helvetica,sans-Serif" font-size="10.00">is_it_builtin</text>
</a>
</g>
</g>
<!-- Node15&#45;&gt;Node18 -->
<g id="edge24" class="edge">
<title>Node15&#45;&gt;Node18</title>
<path fill="none" stroke="midnightblue" d="M424.07,-440.18C439,-440.18 455.58,-440.18 470.54,-440.18"/>
<polygon fill="midnightblue" stroke="midnightblue" points="470.59,-443.69 480.59,-440.18 470.59,-436.69 470.59,-443.69"/>
</g>
<!-- Node19 -->
<g id="node19" class="node">
<title>Node19</title>
<g id="a_node19"><a xlink:href="execution_8c.html#a7bee4f6fbfd70ef7ec1f52856538ac71" target="_top" xlink:title="launch the builtin &#160;&#160;some of them are not present because we have to fork() them why ?...">
<polygon fill="none" stroke="black" points="475,-221.68 475,-240.68 560,-240.68 560,-221.68 475,-221.68"/>
<text text-anchor="middle" x="517.5" y="-228.68" font-family="Helvetica,sans-Serif" font-size="10.00">launch_builtin</text>
</a>
</g>
</g>
<!-- Node15&#45;&gt;Node19 -->
<g id="edge25" class="edge">
<title>Node15&#45;&gt;Node19</title>
<path fill="none" stroke="midnightblue" d="M384.79,-430.66C406.16,-398.29 476.25,-292.15 504.52,-249.33"/>
<polygon fill="midnightblue" stroke="midnightblue" points="507.59,-251.04 510.17,-240.76 501.74,-247.18 507.59,-251.04"/>
</g>
<!-- Node40 -->
<g id="node40" class="node">
<title>Node40</title>
<g id="a_node40"><a xlink:href="lst__env__two_8c.html#aafcce0b2f2958645e84ae23b14116680" target="_top" xlink:title=" ">
<polygon fill="none" stroke="black" points="473.5,-50.68 473.5,-69.68 561.5,-69.68 561.5,-50.68 473.5,-50.68"/>
<text text-anchor="middle" x="517.5" y="-57.68" font-family="Helvetica,sans-Serif" font-size="10.00">lst_to_tab_env</text>
</a>
</g>
</g>
<!-- Node15&#45;&gt;Node40 -->
<g id="edge50" class="edge">
<title>Node15&#45;&gt;Node40</title>
<path fill="none" stroke="midnightblue" d="M382.05,-430.41C400.39,-379.91 484.52,-148.24 509.49,-79.48"/>
<polygon fill="midnightblue" stroke="midnightblue" points="512.85,-80.49 512.97,-69.9 506.27,-78.1 512.85,-80.49"/>
</g>
<!-- Node43 -->
<g id="node43" class="node">
<title>Node43</title>
<g id="a_node43"><a xlink:href="getenv_8c.html#a5d0cf05c2622983111dcfc0f179c5739" target="_top" xlink:title=" ">
<polygon fill="none" stroke="black" points="479.5,-12.68 479.5,-31.68 555.5,-31.68 555.5,-12.68 479.5,-12.68"/>
<text text-anchor="middle" x="517.5" y="-19.68" font-family="Helvetica,sans-Serif" font-size="10.00">search_path</text>
</a>
</g>
</g>
<!-- Node15&#45;&gt;Node43 -->
<g id="edge54" class="edge">
<title>Node15&#45;&gt;Node43</title>
<path fill="none" stroke="midnightblue" d="M379.4,-430.59C384.74,-375.81 413.73,-103 467,-41.18 468.16,-39.84 469.42,-38.59 470.77,-37.43"/>
<polygon fill="midnightblue" stroke="midnightblue" points="472.91,-40.21 479.23,-31.71 468.99,-34.41 472.91,-40.21"/>
</g>
<!-- Node16&#45;&gt;Node17 -->
<g id="edge21" class="edge">
<title>Node16&#45;&gt;Node17</title>
<path fill="none" stroke="midnightblue" d="M568.01,-485.48C576.48,-486.73 585.33,-488.03 593.9,-489.29"/>
<polygon fill="midnightblue" stroke="midnightblue" points="593.41,-492.76 603.82,-490.75 594.43,-485.83 593.41,-492.76"/>
</g>
<!-- Node20 -->
<g id="node20" class="node">
<title>Node20</title>
<g id="a_node20"><a xlink:href="cd_8c.html#afa3cf8a1d55856208b8d44453d4cf9b4" target="_top" xlink:title=" ">
<polygon fill="none" stroke="black" points="634,-126.68 634,-145.68 663,-145.68 663,-126.68 634,-126.68"/>
<text text-anchor="middle" x="648.5" y="-133.68" font-family="Helvetica,sans-Serif" font-size="10.00">cd</text>
</a>
</g>
</g>
<!-- Node19&#45;&gt;Node20 -->
<g id="edge26" class="edge">
<title>Node19&#45;&gt;Node20</title>
<path fill="none" stroke="midnightblue" d="M527.68,-221.21C542.52,-205.53 573.22,-174.88 604,-155.18 610.25,-151.19 617.48,-147.65 624.24,-144.75"/>
<polygon fill="midnightblue" stroke="midnightblue" points="625.65,-147.95 633.62,-140.96 623.03,-141.46 625.65,-147.95"/>
</g>
<!-- Node25 -->
<g id="node25" class="node">
<title>Node25</title>
<g id="a_node25"><a xlink:href="env_8c.html#a08aa1a32a4d2f6bcca10f6424195d4ef" target="_top" xlink:title=" ">
<polygon fill="none" stroke="black" points="631,-164.68 631,-183.68 666,-183.68 666,-164.68 631,-164.68"/>
<text text-anchor="middle" x="648.5" y="-171.68" font-family="Helvetica,sans-Serif" font-size="10.00">env</text>
</a>
</g>
</g>
<!-- Node19&#45;&gt;Node25 -->
<g id="edge31" class="edge">
<title>Node19&#45;&gt;Node25</title>
<path fill="none" stroke="midnightblue" d="M539.92,-221.62C557.2,-213.91 582.15,-202.81 604,-193.18 609.7,-190.67 615.83,-187.99 621.63,-185.45"/>
<polygon fill="midnightblue" stroke="midnightblue" points="623.2,-188.59 630.96,-181.38 620.4,-182.17 623.2,-188.59"/>
</g>
<!-- Node26 -->
<g id="node26" class="node">
<title>Node26</title>
<g id="a_node26"><a xlink:href="export_8c.html#a1bb2544b6254ee4ddb592a4cfa61734f" target="_top" xlink:title=" ">
<polygon fill="none" stroke="black" points="613,-88.68 613,-107.68 684,-107.68 684,-88.68 613,-88.68"/>
<text text-anchor="middle" x="648.5" y="-95.68" font-family="Helvetica,sans-Serif" font-size="10.00">export_call</text>
</a>
</g>
</g>
<!-- Node19&#45;&gt;Node26 -->
<g id="edge32" class="edge">
<title>Node19&#45;&gt;Node26</title>
<path fill="none" stroke="midnightblue" d="M523.41,-221.61C534.84,-200.2 565.2,-147.89 604,-117.18 606.04,-115.57 608.23,-114.07 610.51,-112.68"/>
<polygon fill="midnightblue" stroke="midnightblue" points="612.43,-115.62 619.6,-107.81 609.13,-109.45 612.43,-115.62"/>
</g>
<!-- Node33 -->
<g id="node33" class="node">
<title>Node33</title>
<g id="a_node33"><a xlink:href="my__echo_8c.html#a5522916069f77552d810e207670e3170" target="_top" xlink:title=" ">
<polygon fill="none" stroke="black" points="618,-202.68 618,-221.68 679,-221.68 679,-202.68 618,-202.68"/>
<text text-anchor="middle" x="648.5" y="-209.68" font-family="Helvetica,sans-Serif" font-size="10.00">my_echo</text>
</a>
</g>
</g>
<!-- Node19&#45;&gt;Node33 -->
<g id="edge40" class="edge">
<title>Node19&#45;&gt;Node33</title>
<path fill="none" stroke="midnightblue" d="M560.03,-225.07C575.35,-222.81 592.66,-220.26 607.81,-218.03"/>
<polygon fill="midnightblue" stroke="midnightblue" points="608.52,-221.46 617.9,-216.54 607.5,-214.54 608.52,-221.46"/>
</g>
<!-- Node35 -->
<g id="node35" class="node">
<title>Node35</title>
<g id="a_node35"><a xlink:href="exit_8c.html#adcbec3416f97b2d0b8d53cf4c2b2a436" target="_top" xlink:title=" ">
<polygon fill="none" stroke="black" points="620.5,-316.68 620.5,-335.68 676.5,-335.68 676.5,-316.68 620.5,-316.68"/>
<text text-anchor="middle" x="648.5" y="-323.68" font-family="Helvetica,sans-Serif" font-size="10.00">my_exit</text>
</a>
</g>
</g>
<!-- Node19&#45;&gt;Node35 -->
<g id="edge42" class="edge">
<title>Node19&#45;&gt;Node35</title>
<path fill="none" stroke="midnightblue" d="M527.68,-241.16C542.52,-256.84 573.22,-287.49 604,-307.18 606.78,-308.96 609.75,-310.65 612.78,-312.23"/>
<polygon fill="midnightblue" stroke="midnightblue" points="611.43,-315.46 621.96,-316.63 614.46,-309.15 611.43,-315.46"/>
</g>
<!-- Node37 -->
<g id="node37" class="node">
<title>Node37</title>
<g id="a_node37"><a xlink:href="pwd_8c.html#ac6977235be2514ba716ef89aad796063" target="_top" xlink:title=" ">
<polygon fill="none" stroke="black" points="630,-240.68 630,-259.68 667,-259.68 667,-240.68 630,-240.68"/>
<text text-anchor="middle" x="648.5" y="-247.68" font-family="Helvetica,sans-Serif" font-size="10.00">pwd</text>
</a>
</g>
</g>
<!-- Node19&#45;&gt;Node37 -->
<g id="edge47" class="edge">
<title>Node19&#45;&gt;Node37</title>
<path fill="none" stroke="midnightblue" d="M560.03,-237.3C579.54,-240.18 602.29,-243.53 619.7,-246.09"/>
<polygon fill="midnightblue" stroke="midnightblue" points="619.36,-249.58 629.77,-247.57 620.38,-242.65 619.36,-249.58"/>
</g>
<!-- Node38 -->
<g id="node38" class="node">
<title>Node38</title>
<g id="a_node38"><a xlink:href="unset_8c.html#abcfd4d5a4f0408bdc748ce044e5ce08c" target="_top" xlink:title=" ">
<polygon fill="none" stroke="black" points="615.5,-278.68 615.5,-297.68 681.5,-297.68 681.5,-278.68 615.5,-278.68"/>
<text text-anchor="middle" x="648.5" y="-285.68" font-family="Helvetica,sans-Serif" font-size="10.00">unset_call</text>
</a>
</g>
</g>
<!-- Node19&#45;&gt;Node38 -->
<g id="edge48" class="edge">
<title>Node19&#45;&gt;Node38</title>
<path fill="none" stroke="midnightblue" d="M539.92,-240.75C557.2,-248.46 582.15,-259.56 604,-269.18 607.9,-270.9 612.01,-272.71 616.07,-274.48"/>
<polygon fill="midnightblue" stroke="midnightblue" points="614.79,-277.75 625.36,-278.55 617.6,-271.33 614.79,-277.75"/>
</g>
<!-- Node21 -->
<g id="node21" class="node">
<title>Node21</title>
<g id="a_node21"><a xlink:href="cd_8c.html#a7593627e795ae769b5117673b60846c9" target="_top" xlink:title=" ">
<polygon fill="none" stroke="black" points="768,-164.68 768,-183.68 800,-183.68 800,-164.68 768,-164.68"/>
<text text-anchor="middle" x="784" y="-171.68" font-family="Helvetica,sans-Serif" font-size="10.00">len</text>
</a>
</g>
</g>
<!-- Node20&#45;&gt;Node21 -->
<g id="edge27" class="edge">
<title>Node20&#45;&gt;Node21</title>
<path fill="none" stroke="midnightblue" d="M663.28,-140.11C685.61,-146.46 730.01,-159.1 758.02,-167.07"/>
<polygon fill="midnightblue" stroke="midnightblue" points="757.29,-170.51 767.87,-169.88 759.21,-163.77 757.29,-170.51"/>
</g>
<!-- Node22 -->
<g id="node22" class="node">
<title>Node22</title>
<g id="a_node22"><a xlink:href="lst__env__two_8c.html#a4d4a14327b2c3ff88099102b6bd77986" target="_top" xlink:title=" ">
<polygon fill="none" stroke="black" points="732,-12.68 732,-31.68 836,-31.68 836,-12.68 732,-12.68"/>
<text text-anchor="middle" x="784" y="-19.68" font-family="Helvetica,sans-Serif" font-size="10.00">research_key_env</text>
</a>
</g>
</g>
<!-- Node20&#45;&gt;Node22 -->
<g id="edge28" class="edge">
<title>Node20&#45;&gt;Node22</title>
<path fill="none" stroke="midnightblue" d="M663.17,-131.82C672.12,-128.58 683.83,-123.62 693,-117.18 693.14,-117.09 740.88,-66.67 766.77,-39.33"/>
<polygon fill="midnightblue" stroke="midnightblue" points="769.39,-41.65 773.73,-31.98 764.31,-36.84 769.39,-41.65"/>
</g>
<!-- Node23 -->
<g id="node23" class="node">
<title>Node23</title>
<g id="a_node23"><a xlink:href="cd_8c.html#a68bb8beb2cf13bb992af8322f31f94e7" target="_top" xlink:title=" ">
<polygon fill="none" stroke="black" points="892,-126.68 892,-145.68 968,-145.68 968,-126.68 892,-126.68"/>
<text text-anchor="middle" x="930" y="-133.68" font-family="Helvetica,sans-Serif" font-size="10.00">update_pwd</text>
</a>
</g>
</g>
<!-- Node20&#45;&gt;Node23 -->
<g id="edge29" class="edge">
<title>Node20&#45;&gt;Node23</title>
<path fill="none" stroke="midnightblue" d="M663.36,-136.18C702.78,-136.18 816.86,-136.18 881.98,-136.18"/>
<polygon fill="midnightblue" stroke="midnightblue" points="882,-139.69 892,-136.18 882,-132.69 882,-139.69"/>
</g>
<!-- Node24 -->
<g id="node24" class="node">
<title>Node24</title>
<g id="a_node24"><a xlink:href="export_8c.html#a8cd6579fc3858072521e55ef235a2637" target="_top" xlink:title=" ">
<polygon fill="none" stroke="black" points="1021,-117.68 1021,-136.68 1132,-136.68 1132,-117.68 1021,-117.68"/>
<text text-anchor="middle" x="1076.5" y="-124.68" font-family="Helvetica,sans-Serif" font-size="10.00">research_node_env</text>
</a>
</g>
</g>
<!-- Node23&#45;&gt;Node24 -->
<g id="edge30" class="edge">
<title>Node23&#45;&gt;Node24</title>
<path fill="none" stroke="midnightblue" d="M968.21,-133.87C981.26,-133.05 996.31,-132.12 1010.94,-131.21"/>
<polygon fill="midnightblue" stroke="midnightblue" points="1011.21,-134.7 1020.97,-130.58 1010.78,-127.71 1011.21,-134.7"/>
</g>
<!-- Node27 -->
<g id="node27" class="node">
<title>Node27</title>
<g id="a_node27"><a xlink:href="export_8c.html#a63ef72e778f2b52c924bf77ae989dc80" target="_top" xlink:title=" ">
<polygon fill="none" stroke="black" points="760,-88.68 760,-107.68 808,-107.68 808,-88.68 760,-88.68"/>
<text text-anchor="middle" x="784" y="-95.68" font-family="Helvetica,sans-Serif" font-size="10.00">export</text>
</a>
</g>
</g>
<!-- Node26&#45;&gt;Node27 -->
<g id="edge33" class="edge">
<title>Node26&#45;&gt;Node27</title>
<path fill="none" stroke="midnightblue" d="M684.23,-98.18C704.4,-98.18 729.68,-98.18 749.62,-98.18"/>
<polygon fill="midnightblue" stroke="midnightblue" points="749.79,-101.69 759.79,-98.18 749.79,-94.69 749.79,-101.69"/>
</g>
<!-- Node28 -->
<g id="node28" class="node">
<title>Node28</title>
<g id="a_node28"><a xlink:href="export_8c.html#a077edb8749298d8320620813ff84519c" target="_top" xlink:title=" ">
<polygon fill="none" stroke="black" points="875,-88.68 875,-107.68 985,-107.68 985,-88.68 875,-88.68"/>
<text text-anchor="middle" x="930" y="-95.68" font-family="Helvetica,sans-Serif" font-size="10.00">check_validity_key</text>
</a>
</g>
</g>
<!-- Node27&#45;&gt;Node28 -->
<g id="edge34" class="edge">
<title>Node27&#45;&gt;Node28</title>
<path fill="none" stroke="midnightblue" d="M808.14,-98.18C823.51,-98.18 844.5,-98.18 864.68,-98.18"/>
<polygon fill="midnightblue" stroke="midnightblue" points="864.81,-101.69 874.81,-98.18 864.81,-94.69 864.81,-101.69"/>
</g>
<!-- Node29 -->
<g id="node29" class="node">
<title>Node29</title>
<g id="a_node29"><a xlink:href="export_8c.html#a90ff129fee9412bd5c6d74be5970b99f" target="_top" xlink:title=" ">
<polygon fill="none" stroke="black" points="875,-50.68 875,-69.68 985,-69.68 985,-50.68 875,-50.68"/>
<text text-anchor="middle" x="930" y="-57.68" font-family="Helvetica,sans-Serif" font-size="10.00">export_env_update</text>
</a>
</g>
</g>
<!-- Node27&#45;&gt;Node29 -->
<g id="edge35" class="edge">
<title>Node27&#45;&gt;Node29</title>
<path fill="none" stroke="midnightblue" d="M808.14,-92.08C828.35,-86.75 858.29,-78.84 883.32,-72.24"/>
<polygon fill="midnightblue" stroke="midnightblue" points="884.21,-75.62 892.99,-69.69 882.43,-68.86 884.21,-75.62"/>
</g>
<!-- Node29&#45;&gt;Node24 -->
<g id="edge39" class="edge">
<title>Node29&#45;&gt;Node24</title>
<path fill="none" stroke="midnightblue" d="M960.74,-69.75C968.71,-72.56 977.26,-75.79 985,-79.18 1007.54,-89.06 1032.16,-102.29 1050.02,-112.35"/>
<polygon fill="midnightblue" stroke="midnightblue" points="1048.77,-115.67 1059.19,-117.58 1052.23,-109.59 1048.77,-115.67"/>
</g>
<!-- Node30 -->
<g id="node30" class="node">
<title>Node30</title>
<g id="a_node30"><a xlink:href="lst__env_8c.html#a9c375db3cbfe2e87b52bae7ee7472eae" target="_top" xlink:title=" ">
<polygon fill="none" stroke="black" points="1026.5,-22.68 1026.5,-41.68 1126.5,-41.68 1126.5,-22.68 1026.5,-22.68"/>
<text text-anchor="middle" x="1076.5" y="-29.68" font-family="Helvetica,sans-Serif" font-size="10.00">create_node_env</text>
</a>
</g>
</g>
<!-- Node29&#45;&gt;Node30 -->
<g id="edge36" class="edge">
<title>Node29&#45;&gt;Node30</title>
<path fill="none" stroke="midnightblue" d="M980.32,-50.63C991.95,-48.37 1004.46,-45.95 1016.46,-43.62"/>
<polygon fill="midnightblue" stroke="midnightblue" points="1017.25,-47.04 1026.4,-41.7 1015.91,-40.17 1017.25,-47.04"/>
</g>
<!-- Node31 -->
<g id="node31" class="node">
<title>Node31</title>
<g id="a_node31"><a xlink:href="lst__env_8c.html#a5976d1b2a8159220749fac94a83d5c95" target="_top" xlink:title=" ">
<polygon fill="none" stroke="black" points="1030.5,-60.68 1030.5,-79.68 1122.5,-79.68 1122.5,-60.68 1030.5,-60.68"/>
<text text-anchor="middle" x="1076.5" y="-67.68" font-family="Helvetica,sans-Serif" font-size="10.00">push_back_env</text>
</a>
</g>
</g>
<!-- Node29&#45;&gt;Node31 -->
<g id="edge37" class="edge">
<title>Node29&#45;&gt;Node31</title>
<path fill="none" stroke="midnightblue" d="M985.22,-63.94C996.62,-64.73 1008.67,-65.56 1020.11,-66.35"/>
<polygon fill="midnightblue" stroke="midnightblue" points="1020.2,-69.87 1030.42,-67.07 1020.69,-62.88 1020.2,-69.87"/>
</g>
<!-- Node32 -->
<g id="node32" class="node">
<title>Node32</title>
<g id="a_node32"><a xlink:href="env__utils_8c.html#ac7b3f84bb622bdf477616c5b0022f035" target="_top" xlink:title=" ">
<polygon fill="none" stroke="black" points="1173,-60.68 1173,-79.68 1252,-79.68 1252,-60.68 1173,-60.68"/>
<text text-anchor="middle" x="1212.5" y="-67.68" font-family="Helvetica,sans-Serif" font-size="10.00">get_last_env</text>
</a>
</g>
</g>
<!-- Node31&#45;&gt;Node32 -->
<g id="edge38" class="edge">
<title>Node31&#45;&gt;Node32</title>
<path fill="none" stroke="midnightblue" d="M1122.87,-70.18C1135.69,-70.18 1149.69,-70.18 1162.71,-70.18"/>
<polygon fill="midnightblue" stroke="midnightblue" points="1162.89,-73.69 1172.89,-70.18 1162.89,-66.69 1162.89,-73.69"/>
</g>
<!-- Node34 -->
<g id="node34" class="node">
<title>Node34</title>
<g id="a_node34"><a xlink:href="my__echo_8c.html#a7c657de7306d33ae5cdab2bf43f35ae1" target="_top" xlink:title=" ">
<polygon fill="none" stroke="black" points="729,-202.68 729,-221.68 839,-221.68 839,-202.68 729,-202.68"/>
<text text-anchor="middle" x="784" y="-209.68" font-family="Helvetica,sans-Serif" font-size="10.00">check_option_echo</text>
</a>
</g>
</g>
<!-- Node33&#45;&gt;Node34 -->
<g id="edge41" class="edge">
<title>Node33&#45;&gt;Node34</title>
<path fill="none" stroke="midnightblue" d="M679.13,-212.18C690.87,-212.18 704.87,-212.18 718.72,-212.18"/>
<polygon fill="midnightblue" stroke="midnightblue" points="718.74,-215.69 728.74,-212.18 718.74,-208.69 718.74,-215.69"/>
</g>
<!-- Node35&#45;&gt;Node9 -->
<g id="edge44" class="edge">
<title>Node35&#45;&gt;Node9</title>
<path fill="none" stroke="midnightblue" d="M655.07,-335.69C675.34,-370.31 745.43,-490.02 772.35,-536"/>
<polygon fill="midnightblue" stroke="midnightblue" points="769.34,-537.78 777.41,-544.64 775.38,-534.24 769.34,-537.78"/>
</g>
<!-- Node35&#45;&gt;Node13 -->
<g id="edge45" class="edge">
<title>Node35&#45;&gt;Node13</title>
<path fill="none" stroke="midnightblue" d="M676.52,-333.87C694.59,-339.02 718.77,-345.9 739.52,-351.81"/>
<polygon fill="midnightblue" stroke="midnightblue" points="738.81,-355.25 749.39,-354.62 740.73,-348.51 738.81,-355.25"/>
</g>
<!-- Node35&#45;&gt;Node21 -->
<g id="edge46" class="edge">
<title>Node35&#45;&gt;Node21</title>
<path fill="none" stroke="midnightblue" d="M676.66,-318.54C682.69,-315.78 688.59,-312.09 693,-307.18 728.53,-267.68 692.04,-231.36 729,-193.18 736.59,-185.34 747.61,-180.73 757.72,-178.02"/>
<polygon fill="midnightblue" stroke="midnightblue" points="758.72,-181.39 767.74,-175.83 757.22,-174.55 758.72,-181.39"/>
</g>
<!-- Node36 -->
<g id="node36" class="node">
<title>Node36</title>
<g id="a_node36"><a xlink:href="exit_8c.html#a7e369b4894a31549c9b65f718e28823f" target="_top" xlink:title=" ">
<polygon fill="none" stroke="black" points="749.5,-316.68 749.5,-335.68 818.5,-335.68 818.5,-316.68 749.5,-316.68"/>
<text text-anchor="middle" x="784" y="-323.68" font-family="Helvetica,sans-Serif" font-size="10.00">check_exit</text>
</a>
</g>
</g>
<!-- Node35&#45;&gt;Node36 -->
<g id="edge43" class="edge">
<title>Node35&#45;&gt;Node36</title>
<path fill="none" stroke="midnightblue" d="M676.52,-326.18C694.5,-326.18 718.55,-326.18 739.23,-326.18"/>
<polygon fill="midnightblue" stroke="midnightblue" points="739.39,-329.69 749.39,-326.18 739.39,-322.69 739.39,-329.69"/>
</g>
<!-- Node39 -->
<g id="node39" class="node">
<title>Node39</title>
<g id="a_node39"><a xlink:href="unset_8c.html#a4b3bbc6cfa6ff293119825a11324fb9f" target="_top" xlink:title=" ">
<polygon fill="none" stroke="black" points="762,-278.68 762,-297.68 806,-297.68 806,-278.68 762,-278.68"/>
<text text-anchor="middle" x="784" y="-285.68" font-family="Helvetica,sans-Serif" font-size="10.00">unset</text>
</a>
</g>
</g>
<!-- Node38&#45;&gt;Node39 -->
<g id="edge49" class="edge">
<title>Node38&#45;&gt;Node39</title>
<path fill="none" stroke="midnightblue" d="M681.82,-288.18C703.07,-288.18 730.75,-288.18 751.78,-288.18"/>
<polygon fill="midnightblue" stroke="midnightblue" points="751.81,-291.69 761.81,-288.18 751.81,-284.69 751.81,-291.69"/>
</g>
<!-- Node41 -->
<g id="node41" class="node">
<title>Node41</title>
<g id="a_node41"><a xlink:href="env__utils_8c.html#a7cc35c974bce053dbba1c1ec1028f36b" target="_top" xlink:title=" ">
<polygon fill="none" stroke="black" points="610,-50.68 610,-69.68 687,-69.68 687,-50.68 610,-50.68"/>
<text text-anchor="middle" x="648.5" y="-57.68" font-family="Helvetica,sans-Serif" font-size="10.00">env_lst_size</text>
</a>
</g>
</g>
<!-- Node40&#45;&gt;Node41 -->
<g id="edge51" class="edge">
<title>Node40&#45;&gt;Node41</title>
<path fill="none" stroke="midnightblue" d="M561.81,-60.18C573.94,-60.18 587.18,-60.18 599.56,-60.18"/>
<polygon fill="midnightblue" stroke="midnightblue" points="599.7,-63.69 609.7,-60.18 599.7,-56.69 599.7,-63.69"/>
</g>
<!-- Node42 -->
<g id="node42" class="node">
<title>Node42</title>
<g id="a_node42"><a xlink:href="getenv_8c.html#a0250cce1862c20e31d0c0ece960bc3a0" target="_top" xlink:title=" ">
<polygon fill="none" stroke="black" points="617.5,-12.68 617.5,-31.68 679.5,-31.68 679.5,-12.68 617.5,-12.68"/>
<text text-anchor="middle" x="648.5" y="-19.68" font-family="Helvetica,sans-Serif" font-size="10.00">join_path</text>
</a>
</g>
</g>
<!-- Node40&#45;&gt;Node42 -->
<g id="edge52" class="edge">
<title>Node40&#45;&gt;Node42</title>
<path fill="none" stroke="midnightblue" d="M551.05,-50.6C568.18,-45.55 589.33,-39.32 607.46,-33.98"/>
<polygon fill="midnightblue" stroke="midnightblue" points="608.57,-37.3 617.17,-31.12 606.59,-30.59 608.57,-37.3"/>
</g>
<!-- Node43&#45;&gt;Node22 -->
<g id="edge56" class="edge">
<title>Node43&#45;&gt;Node22</title>
<path fill="none" stroke="midnightblue" d="M553.15,-12.68C568.59,-8.91 587.07,-5.04 604,-3.18 643.32,1.13 653.66,0.92 693,-3.18 707.31,-4.68 722.7,-7.48 736.64,-10.47"/>
<polygon fill="midnightblue" stroke="midnightblue" points="735.97,-13.91 746.49,-12.68 737.5,-7.08 735.97,-13.91"/>
</g>
<!-- Node43&#45;&gt;Node42 -->
<g id="edge55" class="edge">
<title>Node43&#45;&gt;Node42</title>
<path fill="none" stroke="midnightblue" d="M555.81,-22.18C571.8,-22.18 590.53,-22.18 606.87,-22.18"/>
<polygon fill="midnightblue" stroke="midnightblue" points="607.21,-25.69 617.21,-22.18 607.21,-18.69 607.21,-25.69"/>
</g>
</g>
</svg>
