<?xml version="1.0" encoding="UTF-8" standalone="no"?>
<!DOCTYPE svg PUBLIC "-//W3C//DTD SVG 1.1//EN"
 "http://www.w3.org/Graphics/SVG/1.1/DTD/svg11.dtd">
<!-- Generated by graphviz version 2.43.0 (0)
 -->
<!-- Title: multipipe_intermediary_cmd Pages: 1 -->
<!--zoomable 611 -->
<svg id="main" version="1.1" xmlns="http://www.w3.org/2000/svg" xmlns:xlink="http://www.w3.org/1999/xlink" xml:space="preserve" onload="init(evt)">
<style type="text/css"><![CDATA[
.edge:hover path { stroke: red; }
.edge:hover polygon { stroke: red; fill: red; }
]]></style>
<script type="text/javascript"><![CDATA[
var edges = document.getElementsByTagName('g');
if (edges && edges.length) {
  for (var i=0;i<edges.length;i++) {
    if (edges[i].id.substr(0,4)=='edge') {
      edges[i].setAttribute('class','edge');
    }
  }
}
]]></script>
        <defs>
                <circle id="rim" cx="0" cy="0" r="7"/>
                <circle id="rim2" cx="0" cy="0" r="3.5"/>
                <g id="zoomPlus">
                        <use xlink:href="#rim" fill="#404040">
                                <set attributeName="fill" to="#808080" begin="zoomplus.mouseover" end="zoomplus.mouseout"/>
                        </use>
                        <path d="M-4,0h8M0,-4v8" fill="none" stroke="white" stroke-width="1.5" pointer-events="none"/>
                </g>
                <g id="zoomMin">
                        <use xlink:href="#rim" fill="#404040">
                                <set attributeName="fill" to="#808080" begin="zoomminus.mouseover" end="zoomminus.mouseout"/>
                        </use>
                        <path d="M-4,0h8" fill="none" stroke="white" stroke-width="1.5" pointer-events="none"/>
                </g>
                <g id="dirArrow">
                        <path fill="none" stroke="white" stroke-width="1.5" d="M0,-3.0v7 M-2.5,-0.5L0,-3.0L2.5,-0.5"/>
                </g>
               <g id="resetDef">
                       <use xlink:href="#rim2" fill="#404040">
                               <set attributeName="fill" to="#808080" begin="reset.mouseover" end="reset.mouseout"/>
                       </use>
               </g>
        </defs>

<script type="text/javascript">
var viewWidth = 1419;
var viewHeight = 611;
var sectionId = 'dynsection-8';
</script>
<script xlink:href="svgpan.js"/>
<svg id="graph" class="graph">
<g id="viewport">
<title>multipipe_intermediary_cmd</title>
<!-- Node1 -->
<g id="node1" class="node">
<title>Node1</title>
<g id="a_node1"><a xlink:title="it&#39;s where the fork happen and sent to be execute">
<polygon fill="#bfbfbf" stroke="black" points="0,-175.53 0,-194.53 158,-194.53 158,-175.53 0,-175.53"/>
<text text-anchor="middle" x="79" y="-182.53" font-family="Helvetica,sans-Serif" font-size="10.00">multipipe_intermediary_cmd</text>
</a>
</g>
</g>
<!-- Node2 -->
<g id="node2" class="node">
<title>Node2</title>
<g id="a_node2"><a xlink:href="redirection__multipipe_8c.html#af7980d82e7ea7c0c84519ef3e3011b98" target="_top" xlink:title=" ">
<polygon fill="none" stroke="black" points="194,-403.53 194,-422.53 288,-422.53 288,-403.53 194,-403.53"/>
<text text-anchor="middle" x="241" y="-410.53" font-family="Helvetica,sans-Serif" font-size="10.00">close_fd_parent</text>
</a>
</g>
</g>
<!-- Node1&#45;&gt;Node2 -->
<g id="edge1" class="edge">
<title>Node1&#45;&gt;Node2</title>
<path fill="none" stroke="midnightblue" d="M86.67,-194.54C111.02,-229.23 195.33,-349.37 227.44,-395.14"/>
<polygon fill="midnightblue" stroke="midnightblue" points="224.69,-397.31 233.3,-403.48 230.42,-393.29 224.69,-397.31"/>
</g>
<!-- Node4 -->
<g id="node4" class="node">
<title>Node4</title>
<g id="a_node4"><a xlink:href="multipipe_8c.html#a461ae962ce9a1aee7221ac4b9c581f98" target="_top" xlink:title=" ">
<polygon fill="none" stroke="black" points="199.5,-175.53 199.5,-194.53 282.5,-194.53 282.5,-175.53 199.5,-175.53"/>
<text text-anchor="middle" x="241" y="-182.53" font-family="Helvetica,sans-Serif" font-size="10.00">execute_child</text>
</a>
</g>
</g>
<!-- Node1&#45;&gt;Node4 -->
<g id="edge3" class="edge">
<title>Node1&#45;&gt;Node4</title>
<path fill="none" stroke="midnightblue" d="M158.13,-185.03C168.72,-185.03 179.36,-185.03 189.3,-185.03"/>
<polygon fill="midnightblue" stroke="midnightblue" points="189.38,-188.53 199.38,-185.03 189.38,-181.53 189.38,-188.53"/>
</g>
<!-- Node47 -->
<g id="node47" class="node">
<title>Node47</title>
<g id="a_node47"><a xlink:href="signals_8c.html#aa06f925baa9a6f549b31de64d4faac32" target="_top" xlink:title="allow us to don&#39;t create issue when a child process with readline">
<polygon fill="none" stroke="black" points="195,-137.53 195,-156.53 287,-156.53 287,-137.53 195,-137.53"/>
<text text-anchor="middle" x="241" y="-144.53" font-family="Helvetica,sans-Serif" font-size="10.00">sigint_handler2</text>
</a>
</g>
</g>
<!-- Node1&#45;&gt;Node47 -->
<g id="edge60" class="edge">
<title>Node1&#45;&gt;Node47</title>
<path fill="none" stroke="midnightblue" d="M120.37,-175.44C141.49,-170.43 167.53,-164.24 189.92,-158.93"/>
<polygon fill="midnightblue" stroke="midnightblue" points="190.99,-162.27 199.92,-156.55 189.38,-155.46 190.99,-162.27"/>
</g>
<!-- Node3 -->
<g id="node3" class="node">
<title>Node3</title>
<g id="a_node3"><a xlink:href="utils_8c.html#a1bca6910c90a19d96b36506a2e2cebf6" target="_top" xlink:title="as fd are all setup to &#45;1 at the beginning we check if they are open before trying to close we avoid ...">
<polygon fill="none" stroke="black" points="1337,-99.53 1337,-118.53 1406,-118.53 1406,-99.53 1337,-99.53"/>
<text text-anchor="middle" x="1371.5" y="-106.53" font-family="Helvetica,sans-Serif" font-size="10.00">ft_close_fd</text>
</a>
</g>
</g>
<!-- Node2&#45;&gt;Node3 -->
<g id="edge2" class="edge">
<title>Node2&#45;&gt;Node3</title>
<path fill="none" stroke="midnightblue" d="M248.81,-422.71C276.9,-461.43 388.41,-603.03 516.5,-603.03 516.5,-603.03 516.5,-603.03 1091.5,-603.03 1240.62,-603.03 1226.4,-468.91 1296,-337.03 1334.2,-264.65 1357.65,-169.04 1366.49,-128.51"/>
<polygon fill="midnightblue" stroke="midnightblue" points="1369.94,-129.12 1368.6,-118.61 1363.09,-127.66 1369.94,-129.12"/>
</g>
<!-- Node5 -->
<g id="node5" class="node">
<title>Node5</title>
<g id="a_node5"><a xlink:href="multipipe_8c.html#ac70e2499b8aeb789658ff4596ded7221" target="_top" xlink:title="as we are going to fork and create process, the new process will have inherited of all the opened fd....">
<polygon fill="none" stroke="black" points="324,-175.53 324,-194.53 431,-194.53 431,-175.53 324,-175.53"/>
<text text-anchor="middle" x="377.5" y="-182.53" font-family="Helvetica,sans-Serif" font-size="10.00">close_fd_heredocs</text>
</a>
</g>
</g>
<!-- Node4&#45;&gt;Node5 -->
<g id="edge4" class="edge">
<title>Node4&#45;&gt;Node5</title>
<path fill="none" stroke="midnightblue" d="M282.72,-185.03C292.56,-185.03 303.31,-185.03 313.9,-185.03"/>
<polygon fill="midnightblue" stroke="midnightblue" points="313.98,-188.53 323.98,-185.03 313.98,-181.53 313.98,-188.53"/>
</g>
<!-- Node6 -->
<g id="node6" class="node">
<title>Node6</title>
<g id="a_node6"><a xlink:href="redirection__multipipe_8c.html#a26c96266f1645047a9bdd9af22de94a7" target="_top" xlink:title=" ">
<polygon fill="none" stroke="black" points="876,-61.53 876,-80.53 984,-80.53 984,-61.53 876,-61.53"/>
<text text-anchor="middle" x="930" y="-68.53" font-family="Helvetica,sans-Serif" font-size="10.00">command_redirect</text>
</a>
</g>
</g>
<!-- Node4&#45;&gt;Node6 -->
<g id="edge5" class="edge">
<title>Node4&#45;&gt;Node6</title>
<path fill="none" stroke="midnightblue" d="M270.07,-175.35C276.19,-172.72 282.49,-169.6 288,-166.03 306.48,-154.08 305.03,-143.19 324,-132.03 401.35,-86.52 426.75,-71.03 516.5,-71.03 516.5,-71.03 516.5,-71.03 649.5,-71.03 723.73,-71.03 809.05,-71.03 865.7,-71.03"/>
<polygon fill="midnightblue" stroke="midnightblue" points="865.94,-74.53 875.94,-71.03 865.94,-67.53 865.94,-74.53"/>
</g>
<!-- Node10 -->
<g id="node10" class="node">
<title>Node10</title>
<g id="a_node10"><a xlink:href="lst__cmd2_8c.html#a132395876bb5a7cfe926b9e37571a1e3" target="_top" xlink:title=" ">
<polygon fill="none" stroke="black" points="738,-137.53 738,-156.53 830,-156.53 830,-137.53 738,-137.53"/>
<text text-anchor="middle" x="784" y="-144.53" font-family="Helvetica,sans-Serif" font-size="10.00">destructor_cmd</text>
</a>
</g>
</g>
<!-- Node4&#45;&gt;Node10 -->
<g id="edge13" class="edge">
<title>Node4&#45;&gt;Node10</title>
<path fill="none" stroke="midnightblue" d="M265.41,-175.38C272.65,-172.39 280.66,-169.08 288,-166.03 304.01,-159.39 307.04,-154.61 324,-151.03 466.93,-120.88 640.5,-131.86 727.55,-140.52"/>
<polygon fill="midnightblue" stroke="midnightblue" points="727.43,-144.03 737.73,-141.56 728.14,-137.06 727.43,-144.03"/>
</g>
<!-- Node14 -->
<g id="node14" class="node">
<title>Node14</title>
<g id="a_node14"><a xlink:href="lst__env_8c.html#a226ae0aa054e697998b2ecbc5d61d592" target="_top" xlink:title=" ">
<polygon fill="none" stroke="black" points="739.5,-175.53 739.5,-194.53 828.5,-194.53 828.5,-175.53 739.5,-175.53"/>
<text text-anchor="middle" x="784" y="-182.53" font-family="Helvetica,sans-Serif" font-size="10.00">destructor_env</text>
</a>
</g>
</g>
<!-- Node4&#45;&gt;Node14 -->
<g id="edge19" class="edge">
<title>Node4&#45;&gt;Node14</title>
<path fill="none" stroke="midnightblue" d="M275.21,-175.52C290.01,-171.76 307.74,-167.89 324,-166.03 486.94,-147.4 529.89,-149 693,-166.03 707.31,-167.53 722.7,-170.32 736.64,-173.32"/>
<polygon fill="midnightblue" stroke="midnightblue" points="735.97,-176.76 746.49,-175.52 737.5,-169.92 735.97,-176.76"/>
</g>
<!-- Node16 -->
<g id="node16" class="node">
<title>Node16</title>
<g id="a_node16"><a xlink:href="execution__node_8c.html#adda76b40c34c18ec83b1d98700083f8a" target="_top" xlink:title="we are going to execute the command here we have a security about absolute path given =&gt; because it&#39;s...">
<polygon fill="none" stroke="black" points="331,-403.53 331,-422.53 424,-422.53 424,-403.53 331,-403.53"/>
<text text-anchor="middle" x="377.5" y="-410.53" font-family="Helvetica,sans-Serif" font-size="10.00">execution_node</text>
</a>
</g>
</g>
<!-- Node4&#45;&gt;Node16 -->
<g id="edge21" class="edge">
<title>Node4&#45;&gt;Node16</title>
<path fill="none" stroke="midnightblue" d="M247.61,-194.54C268.03,-229.16 338.65,-348.87 365.77,-394.85"/>
<polygon fill="midnightblue" stroke="midnightblue" points="362.77,-396.65 370.87,-403.48 368.8,-393.09 362.77,-396.65"/>
</g>
<!-- Node46 -->
<g id="node46" class="node">
<title>Node46</title>
<g id="a_node46"><a xlink:href="signals_8c.html#a368a774e2b304a3de55f58168563967d" target="_top" xlink:title=" ">
<polygon fill="none" stroke="black" points="331.5,-213.53 331.5,-232.53 423.5,-232.53 423.5,-213.53 331.5,-213.53"/>
<text text-anchor="middle" x="377.5" y="-220.53" font-family="Helvetica,sans-Serif" font-size="10.00">sigquit_handler</text>
</a>
</g>
</g>
<!-- Node4&#45;&gt;Node46 -->
<g id="edge59" class="edge">
<title>Node4&#45;&gt;Node46</title>
<path fill="none" stroke="midnightblue" d="M275.94,-194.62C293.22,-199.5 314.43,-205.5 332.91,-210.72"/>
<polygon fill="midnightblue" stroke="midnightblue" points="332,-214.09 342.57,-213.44 333.9,-207.36 332,-214.09"/>
</g>
<!-- Node6&#45;&gt;Node3 -->
<g id="edge12" class="edge">
<title>Node6&#45;&gt;Node3</title>
<path fill="none" stroke="midnightblue" d="M984.22,-70.52C1055.59,-70.58 1186.06,-73.32 1296,-90.03 1306.8,-91.67 1318.31,-94.21 1328.97,-96.89"/>
<polygon fill="midnightblue" stroke="midnightblue" points="1328.32,-100.34 1338.88,-99.49 1330.1,-93.57 1328.32,-100.34"/>
</g>
<!-- Node7 -->
<g id="node7" class="node">
<title>Node7</title>
<g id="a_node7"><a xlink:href="redirection__multipipe_8c.html#a221f4b2814fe6c3ab1b3ad1fd7f24fb2" target="_top" xlink:title=" ">
<polygon fill="none" stroke="black" points="1021,-23.53 1021,-42.53 1160,-42.53 1160,-23.53 1021,-23.53"/>
<text text-anchor="middle" x="1090.5" y="-30.53" font-family="Helvetica,sans-Serif" font-size="10.00">command_redirect_part2</text>
</a>
</g>
</g>
<!-- Node6&#45;&gt;Node7 -->
<g id="edge6" class="edge">
<title>Node6&#45;&gt;Node7</title>
<path fill="none" stroke="midnightblue" d="M971,-61.44C991.91,-56.43 1017.71,-50.24 1039.89,-44.93"/>
<polygon fill="midnightblue" stroke="midnightblue" points="1040.88,-48.29 1049.79,-42.55 1039.25,-41.48 1040.88,-48.29"/>
</g>
<!-- Node9 -->
<g id="node9" class="node">
<title>Node9</title>
<g id="a_node9"><a xlink:href="redirection__multipipe_8c.html#a5b749bc2b4088984c0efe1c479ae6ec8" target="_top" xlink:title=" ">
<polygon fill="none" stroke="black" points="1206,-99.53 1206,-118.53 1286,-118.53 1286,-99.53 1206,-99.53"/>
<text text-anchor="middle" x="1246" y="-106.53" font-family="Helvetica,sans-Serif" font-size="10.00">fail_previous</text>
</a>
</g>
</g>
<!-- Node6&#45;&gt;Node9 -->
<g id="edge10" class="edge">
<title>Node6&#45;&gt;Node9</title>
<path fill="none" stroke="midnightblue" d="M984.24,-79.74C996.31,-81.6 1009.08,-83.47 1021,-85.03 1080.9,-92.89 1150.07,-100.01 1195.51,-104.41"/>
<polygon fill="midnightblue" stroke="midnightblue" points="1195.39,-107.92 1205.68,-105.39 1196.06,-100.95 1195.39,-107.92"/>
</g>
<!-- Node7&#45;&gt;Node3 -->
<g id="edge9" class="edge">
<title>Node7&#45;&gt;Node3</title>
<path fill="none" stroke="midnightblue" d="M1114.36,-23.51C1153.69,-8.7 1235.72,15.3 1296,-14.03 1328.51,-29.85 1351.03,-67.47 1362.26,-90.34"/>
<polygon fill="midnightblue" stroke="midnightblue" points="1359.1,-91.83 1366.51,-99.41 1365.44,-88.87 1359.1,-91.83"/>
</g>
<!-- Node8 -->
<g id="node8" class="node">
<title>Node8</title>
<g id="a_node8"><a xlink:href="redirection__multipipe_8c.html#a3a0d7f695cf53df46301e14ffab77638" target="_top" xlink:title=" ">
<polygon fill="none" stroke="black" points="1201.5,-23.53 1201.5,-42.53 1290.5,-42.53 1290.5,-23.53 1201.5,-23.53"/>
<text text-anchor="middle" x="1246" y="-30.53" font-family="Helvetica,sans-Serif" font-size="10.00">close_previous</text>
</a>
</g>
</g>
<!-- Node7&#45;&gt;Node8 -->
<g id="edge7" class="edge">
<title>Node7&#45;&gt;Node8</title>
<path fill="none" stroke="midnightblue" d="M1160.17,-33.03C1170.48,-33.03 1180.98,-33.03 1190.93,-33.03"/>
<polygon fill="midnightblue" stroke="midnightblue" points="1191.06,-36.53 1201.06,-33.03 1191.06,-29.53 1191.06,-36.53"/>
</g>
<!-- Node8&#45;&gt;Node3 -->
<g id="edge8" class="edge">
<title>Node8&#45;&gt;Node3</title>
<path fill="none" stroke="midnightblue" d="M1268.36,-42.61C1277.09,-46.75 1287.19,-51.84 1296,-57.03 1314.79,-68.1 1335.02,-82.39 1349.65,-93.18"/>
<polygon fill="midnightblue" stroke="midnightblue" points="1347.87,-96.22 1357.98,-99.39 1352.06,-90.61 1347.87,-96.22"/>
</g>
<!-- Node9&#45;&gt;Node3 -->
<g id="edge11" class="edge">
<title>Node9&#45;&gt;Node3</title>
<path fill="none" stroke="midnightblue" d="M1286.08,-109.03C1298.9,-109.03 1313.24,-109.03 1326.41,-109.03"/>
<polygon fill="midnightblue" stroke="midnightblue" points="1326.67,-112.53 1336.67,-109.03 1326.67,-105.53 1326.67,-112.53"/>
</g>
<!-- Node11 -->
<g id="node11" class="node">
<title>Node11</title>
<g id="a_node11"><a xlink:href="lst__cmd2_8c.html#a8e2b63759f149b547e0d07f210ede9b3" target="_top" xlink:title=" ">
<polygon fill="none" stroke="black" points="899.5,-137.53 899.5,-156.53 960.5,-156.53 960.5,-137.53 899.5,-137.53"/>
<text text-anchor="middle" x="930" y="-144.53" font-family="Helvetica,sans-Serif" font-size="10.00">pop_cmd</text>
</a>
</g>
</g>
<!-- Node10&#45;&gt;Node11 -->
<g id="edge14" class="edge">
<title>Node10&#45;&gt;Node11</title>
<path fill="none" stroke="midnightblue" d="M830.17,-147.03C849.15,-147.03 871.03,-147.03 889.37,-147.03"/>
<polygon fill="midnightblue" stroke="midnightblue" points="889.44,-150.53 899.44,-147.03 889.44,-143.53 889.44,-150.53"/>
</g>
<!-- Node11&#45;&gt;Node3 -->
<g id="edge18" class="edge">
<title>Node11&#45;&gt;Node3</title>
<path fill="none" stroke="midnightblue" d="M960.87,-155.85C1024.51,-173.09 1177.3,-206.23 1296,-166.03 1319.21,-158.17 1340.87,-139.86 1354.79,-126.1"/>
<polygon fill="midnightblue" stroke="midnightblue" points="1357.58,-128.24 1362.04,-118.63 1352.56,-123.37 1357.58,-128.24"/>
</g>
<!-- Node12 -->
<g id="node12" class="node">
<title>Node12</title>
<g id="a_node12"><a xlink:href="lst__redir2_8c.html#a30ccaf401a4f897e48ead5fe54f4b307" target="_top" xlink:title=" ">
<polygon fill="none" stroke="black" points="1043.5,-137.53 1043.5,-156.53 1137.5,-156.53 1137.5,-137.53 1043.5,-137.53"/>
<text text-anchor="middle" x="1090.5" y="-144.53" font-family="Helvetica,sans-Serif" font-size="10.00">destructor_redir</text>
</a>
</g>
</g>
<!-- Node11&#45;&gt;Node12 -->
<g id="edge15" class="edge">
<title>Node11&#45;&gt;Node12</title>
<path fill="none" stroke="midnightblue" d="M960.81,-147.03C981.14,-147.03 1008.68,-147.03 1033.07,-147.03"/>
<polygon fill="midnightblue" stroke="midnightblue" points="1033.3,-150.53 1043.3,-147.03 1033.3,-143.53 1033.3,-150.53"/>
</g>
<!-- Node13 -->
<g id="node13" class="node">
<title>Node13</title>
<g id="a_node13"><a xlink:href="lst__redir2_8c.html#ade8f0bdda51d9bf348ebeb38fefba881" target="_top" xlink:title=" ">
<polygon fill="none" stroke="black" points="1215,-137.53 1215,-156.53 1277,-156.53 1277,-137.53 1215,-137.53"/>
<text text-anchor="middle" x="1246" y="-144.53" font-family="Helvetica,sans-Serif" font-size="10.00">pop_redir</text>
</a>
</g>
</g>
<!-- Node12&#45;&gt;Node13 -->
<g id="edge16" class="edge">
<title>Node12&#45;&gt;Node13</title>
<path fill="none" stroke="midnightblue" d="M1137.56,-147.03C1159.01,-147.03 1184.3,-147.03 1204.95,-147.03"/>
<polygon fill="midnightblue" stroke="midnightblue" points="1204.98,-150.53 1214.98,-147.03 1204.98,-143.53 1204.98,-150.53"/>
</g>
<!-- Node13&#45;&gt;Node3 -->
<g id="edge17" class="edge">
<title>Node13&#45;&gt;Node3</title>
<path fill="none" stroke="midnightblue" d="M1277.21,-137.73C1292.97,-132.89 1312.48,-126.88 1329.57,-121.62"/>
<polygon fill="midnightblue" stroke="midnightblue" points="1330.78,-124.91 1339.31,-118.63 1328.72,-118.22 1330.78,-124.91"/>
</g>
<!-- Node15 -->
<g id="node15" class="node">
<title>Node15</title>
<g id="a_node15"><a xlink:href="lst__env_8c.html#a058c245b5f2ef22f9d2659f90e4d3537" target="_top" xlink:title=" ">
<polygon fill="none" stroke="black" points="901,-175.53 901,-194.53 959,-194.53 959,-175.53 901,-175.53"/>
<text text-anchor="middle" x="930" y="-182.53" font-family="Helvetica,sans-Serif" font-size="10.00">pop_env</text>
</a>
</g>
</g>
<!-- Node14&#45;&gt;Node15 -->
<g id="edge20" class="edge">
<title>Node14&#45;&gt;Node15</title>
<path fill="none" stroke="midnightblue" d="M828.6,-185.03C848.43,-185.03 871.69,-185.03 890.83,-185.03"/>
<polygon fill="midnightblue" stroke="midnightblue" points="890.99,-188.53 900.99,-185.03 890.99,-181.53 890.99,-188.53"/>
</g>
<!-- Node17 -->
<g id="node17" class="node">
<title>Node17</title>
<g id="a_node17"><a xlink:href="execution__node_8c.html#a74f4c34ebdc38c1fb50db2aa13f97b66" target="_top" xlink:title=" ">
<polygon fill="none" stroke="black" points="467,-441.53 467,-460.53 568,-460.53 568,-441.53 467,-441.53"/>
<text text-anchor="middle" x="517.5" y="-448.53" font-family="Helvetica,sans-Serif" font-size="10.00">check_accessible</text>
</a>
</g>
</g>
<!-- Node16&#45;&gt;Node17 -->
<g id="edge22" class="edge">
<title>Node16&#45;&gt;Node17</title>
<path fill="none" stroke="midnightblue" d="M413.32,-422.62C431.14,-427.53 453.02,-433.55 472.04,-438.79"/>
<polygon fill="midnightblue" stroke="midnightblue" points="471.12,-442.16 481.69,-441.44 472.98,-435.42 471.12,-442.16"/>
</g>
<!-- Node18 -->
<g id="node18" class="node">
<title>Node18</title>
<g id="a_node18"><a xlink:href="execution__node_8c.html#adc2c91230d4a0a1a1f98db2a888afcaa" target="_top" xlink:title="error message management for the specific case of execution">
<polygon fill="none" stroke="black" points="604,-441.53 604,-460.53 693,-460.53 693,-441.53 604,-441.53"/>
<text text-anchor="middle" x="648.5" y="-448.53" font-family="Helvetica,sans-Serif" font-size="10.00">message_error</text>
</a>
</g>
</g>
<!-- Node16&#45;&gt;Node18 -->
<g id="edge55" class="edge">
<title>Node16&#45;&gt;Node18</title>
<path fill="none" stroke="midnightblue" d="M424.3,-415.89C462.82,-418.7 519.26,-423.8 568,-432.03 579.14,-433.91 591.04,-436.46 602.15,-439.08"/>
<polygon fill="midnightblue" stroke="midnightblue" points="601.55,-442.53 612.09,-441.49 603.2,-435.73 601.55,-442.53"/>
</g>
<!-- Node19 -->
<g id="node19" class="node">
<title>Node19</title>
<g id="a_node19"><a xlink:href="launcher_8c.html#a3acc0bb56da881cc8609ca9e94ec8e93" target="_top" xlink:title="detect if it&#39;s a builtin with strncmp() but the real question is &quot;is it a builtin I have &#160;to launch i...">
<polygon fill="none" stroke="black" points="481,-365.53 481,-384.53 554,-384.53 554,-365.53 481,-365.53"/>
<text text-anchor="middle" x="517.5" y="-372.53" font-family="Helvetica,sans-Serif" font-size="10.00">is_it_builtin</text>
</a>
</g>
</g>
<!-- Node16&#45;&gt;Node19 -->
<g id="edge24" class="edge">
<title>Node16&#45;&gt;Node19</title>
<path fill="none" stroke="midnightblue" d="M413.32,-403.44C431.14,-398.54 453.02,-392.51 472.04,-387.27"/>
<polygon fill="midnightblue" stroke="midnightblue" points="472.98,-390.65 481.69,-384.62 471.12,-383.9 472.98,-390.65"/>
</g>
<!-- Node20 -->
<g id="node20" class="node">
<title>Node20</title>
<g id="a_node20"><a xlink:href="launcher_8c.html#a7bee4f6fbfd70ef7ec1f52856538ac71" target="_top" xlink:title="launch the builtin &#160;&#160;some of them are not present because we have to fork() them why ?...">
<polygon fill="none" stroke="black" points="475,-308.53 475,-327.53 560,-327.53 560,-308.53 475,-308.53"/>
<text text-anchor="middle" x="517.5" y="-315.53" font-family="Helvetica,sans-Serif" font-size="10.00">launch_builtin</text>
</a>
</g>
</g>
<!-- Node16&#45;&gt;Node20 -->
<g id="edge25" class="edge">
<title>Node16&#45;&gt;Node20</title>
<path fill="none" stroke="midnightblue" d="M392.49,-403.4C416.36,-386.97 465.14,-353.39 493.9,-333.59"/>
<polygon fill="midnightblue" stroke="midnightblue" points="496.22,-336.24 502.47,-327.69 492.25,-330.48 496.22,-336.24"/>
</g>
<!-- Node42 -->
<g id="node42" class="node">
<title>Node42</title>
<g id="a_node42"><a xlink:href="lst__env__two_8c.html#aafcce0b2f2958645e84ae23b14116680" target="_top" xlink:title=" ">
<polygon fill="none" stroke="black" points="473.5,-479.53 473.5,-498.53 561.5,-498.53 561.5,-479.53 473.5,-479.53"/>
<text text-anchor="middle" x="517.5" y="-486.53" font-family="Helvetica,sans-Serif" font-size="10.00">lst_to_tab_env</text>
</a>
</g>
</g>
<!-- Node16&#45;&gt;Node42 -->
<g id="edge52" class="edge">
<title>Node16&#45;&gt;Node42</title>
<path fill="none" stroke="midnightblue" d="M391.48,-422.61C408.3,-434.73 438.8,-455.73 467,-470.03 470.83,-471.97 474.91,-473.84 479.03,-475.59"/>
<polygon fill="midnightblue" stroke="midnightblue" points="477.99,-478.95 488.57,-479.46 480.62,-472.46 477.99,-478.95"/>
</g>
<!-- Node45 -->
<g id="node45" class="node">
<title>Node45</title>
<g id="a_node45"><a xlink:href="getenv_8c.html#a5d0cf05c2622983111dcfc0f179c5739" target="_top" xlink:title=" ">
<polygon fill="none" stroke="black" points="479.5,-517.53 479.5,-536.53 555.5,-536.53 555.5,-517.53 479.5,-517.53"/>
<text text-anchor="middle" x="517.5" y="-524.53" font-family="Helvetica,sans-Serif" font-size="10.00">search_path</text>
</a>
</g>
</g>
<!-- Node16&#45;&gt;Node45 -->
<g id="edge56" class="edge">
<title>Node16&#45;&gt;Node45</title>
<path fill="none" stroke="midnightblue" d="M385.18,-422.74C398.62,-441.63 430.75,-483.57 467,-508.03 469.75,-509.88 472.7,-511.59 475.75,-513.16"/>
<polygon fill="midnightblue" stroke="midnightblue" points="474.51,-516.44 485.06,-517.44 477.43,-510.08 474.51,-516.44"/>
</g>
<!-- Node17&#45;&gt;Node18 -->
<g id="edge23" class="edge">
<title>Node17&#45;&gt;Node18</title>
<path fill="none" stroke="midnightblue" d="M568.01,-451.03C576.39,-451.03 585.13,-451.03 593.62,-451.03"/>
<polygon fill="midnightblue" stroke="midnightblue" points="593.82,-454.53 603.82,-451.03 593.82,-447.53 593.82,-454.53"/>
</g>
<!-- Node21 -->
<g id="node21" class="node">
<title>Node21</title>
<g id="a_node21"><a xlink:href="cd_8c.html#afa3cf8a1d55856208b8d44453d4cf9b4" target="_top" xlink:title=" ">
<polygon fill="none" stroke="black" points="634,-403.53 634,-422.53 663,-422.53 663,-403.53 634,-403.53"/>
<text text-anchor="middle" x="648.5" y="-410.53" font-family="Helvetica,sans-Serif" font-size="10.00">cd</text>
</a>
</g>
</g>
<!-- Node20&#45;&gt;Node21 -->
<g id="edge26" class="edge">
<title>Node20&#45;&gt;Node21</title>
<path fill="none" stroke="midnightblue" d="M532.41,-327.8C542.59,-335.17 556.57,-345.73 568,-356.03 585.28,-371.61 584.96,-380.66 604,-394.03 610.16,-398.36 617.47,-402.02 624.32,-404.93"/>
<polygon fill="midnightblue" stroke="midnightblue" points="623.25,-408.27 633.83,-408.67 625.8,-401.76 623.25,-408.27"/>
</g>
<!-- Node26 -->
<g id="node26" class="node">
<title>Node26</title>
<g id="a_node26"><a xlink:href="env_8c.html#a08aa1a32a4d2f6bcca10f6424195d4ef" target="_top" xlink:title=" ">
<polygon fill="none" stroke="black" points="631,-175.53 631,-194.53 666,-194.53 666,-175.53 631,-175.53"/>
<text text-anchor="middle" x="648.5" y="-182.53" font-family="Helvetica,sans-Serif" font-size="10.00">env</text>
</a>
</g>
</g>
<!-- Node20&#45;&gt;Node26 -->
<g id="edge31" class="edge">
<title>Node20&#45;&gt;Node26</title>
<path fill="none" stroke="midnightblue" d="M523.41,-308.46C534.84,-287.05 565.2,-234.74 604,-204.03 609.05,-200.03 615.07,-196.71 621,-194.01"/>
<polygon fill="midnightblue" stroke="midnightblue" points="622.75,-197.08 630.7,-190.07 620.12,-190.59 622.75,-197.08"/>
</g>
<!-- Node27 -->
<g id="node27" class="node">
<title>Node27</title>
<g id="a_node27"><a xlink:href="export_8c.html#a1bb2544b6254ee4ddb592a4cfa61734f" target="_top" xlink:title=" ">
<polygon fill="none" stroke="black" points="613,-289.53 613,-308.53 684,-308.53 684,-289.53 613,-289.53"/>
<text text-anchor="middle" x="648.5" y="-296.53" font-family="Helvetica,sans-Serif" font-size="10.00">export_call</text>
</a>
</g>
</g>
<!-- Node20&#45;&gt;Node27 -->
<g id="edge32" class="edge">
<title>Node20&#45;&gt;Node27</title>
<path fill="none" stroke="midnightblue" d="M560.03,-311.91C573.64,-309.91 588.83,-307.67 602.68,-305.63"/>
<polygon fill="midnightblue" stroke="midnightblue" points="603.58,-309.04 612.96,-304.12 602.56,-302.11 603.58,-309.04"/>
</g>
<!-- Node35 -->
<g id="node35" class="node">
<title>Node35</title>
<g id="a_node35"><a xlink:href="my__echo_8c.html#a5522916069f77552d810e207670e3170" target="_top" xlink:title=" ">
<polygon fill="none" stroke="black" points="618,-365.53 618,-384.53 679,-384.53 679,-365.53 618,-365.53"/>
<text text-anchor="middle" x="648.5" y="-372.53" font-family="Helvetica,sans-Serif" font-size="10.00">my_echo</text>
</a>
</g>
</g>
<!-- Node20&#45;&gt;Node35 -->
<g id="edge41" class="edge">
<title>Node20&#45;&gt;Node35</title>
<path fill="none" stroke="midnightblue" d="M539.92,-327.59C557.2,-335.3 582.15,-346.4 604,-356.03 607.9,-357.75 612.01,-359.55 616.07,-361.33"/>
<polygon fill="midnightblue" stroke="midnightblue" points="614.79,-364.59 625.36,-365.39 617.6,-358.18 614.79,-364.59"/>
</g>
<!-- Node37 -->
<g id="node37" class="node">
<title>Node37</title>
<g id="a_node37"><a xlink:href="exit_8c.html#adcbec3416f97b2d0b8d53cf4c2b2a436" target="_top" xlink:title=" ">
<polygon fill="none" stroke="black" points="620.5,-213.53 620.5,-232.53 676.5,-232.53 676.5,-213.53 620.5,-213.53"/>
<text text-anchor="middle" x="648.5" y="-220.53" font-family="Helvetica,sans-Serif" font-size="10.00">my_exit</text>
</a>
</g>
</g>
<!-- Node20&#45;&gt;Node37 -->
<g id="edge44" class="edge">
<title>Node20&#45;&gt;Node37</title>
<path fill="none" stroke="midnightblue" d="M527.68,-308.05C542.52,-292.37 573.22,-261.73 604,-242.03 606.78,-240.25 609.75,-238.57 612.78,-236.99"/>
<polygon fill="midnightblue" stroke="midnightblue" points="614.46,-240.07 621.96,-232.59 611.43,-233.76 614.46,-240.07"/>
</g>
<!-- Node39 -->
<g id="node39" class="node">
<title>Node39</title>
<g id="a_node39"><a xlink:href="pwd_8c.html#ac6977235be2514ba716ef89aad796063" target="_top" xlink:title=" ">
<polygon fill="none" stroke="black" points="630,-327.53 630,-346.53 667,-346.53 667,-327.53 630,-327.53"/>
<text text-anchor="middle" x="648.5" y="-334.53" font-family="Helvetica,sans-Serif" font-size="10.00">pwd</text>
</a>
</g>
</g>
<!-- Node20&#45;&gt;Node39 -->
<g id="edge49" class="edge">
<title>Node20&#45;&gt;Node39</title>
<path fill="none" stroke="midnightblue" d="M560.03,-324.15C579.54,-327.02 602.29,-330.37 619.7,-332.94"/>
<polygon fill="midnightblue" stroke="midnightblue" points="619.36,-336.42 629.77,-334.42 620.38,-329.5 619.36,-336.42"/>
</g>
<!-- Node40 -->
<g id="node40" class="node">
<title>Node40</title>
<g id="a_node40"><a xlink:href="unset_8c.html#abcfd4d5a4f0408bdc748ce044e5ce08c" target="_top" xlink:title=" ">
<polygon fill="none" stroke="black" points="615.5,-251.53 615.5,-270.53 681.5,-270.53 681.5,-251.53 615.5,-251.53"/>
<text text-anchor="middle" x="648.5" y="-258.53" font-family="Helvetica,sans-Serif" font-size="10.00">unset_call</text>
</a>
</g>
</g>
<!-- Node20&#45;&gt;Node40 -->
<g id="edge50" class="edge">
<title>Node20&#45;&gt;Node40</title>
<path fill="none" stroke="midnightblue" d="M539.92,-308.47C557.2,-300.76 582.15,-289.66 604,-280.03 607.9,-278.31 612.01,-276.51 616.07,-274.73"/>
<polygon fill="midnightblue" stroke="midnightblue" points="617.6,-277.88 625.36,-270.67 614.79,-271.47 617.6,-277.88"/>
</g>
<!-- Node22 -->
<g id="node22" class="node">
<title>Node22</title>
<g id="a_node22"><a xlink:href="cd_8c.html#a7593627e795ae769b5117673b60846c9" target="_top" xlink:title=" ">
<polygon fill="none" stroke="black" points="768,-327.53 768,-346.53 800,-346.53 800,-327.53 768,-327.53"/>
<text text-anchor="middle" x="784" y="-334.53" font-family="Helvetica,sans-Serif" font-size="10.00">len</text>
</a>
</g>
</g>
<!-- Node21&#45;&gt;Node22 -->
<g id="edge27" class="edge">
<title>Node21&#45;&gt;Node22</title>
<path fill="none" stroke="midnightblue" d="M663.17,-408.67C672.12,-405.43 683.83,-400.47 693,-394.03 712.04,-380.66 709.48,-368.69 729,-356.03 737.82,-350.31 748.56,-346.08 758.14,-343.07"/>
<polygon fill="midnightblue" stroke="midnightblue" points="759.27,-346.39 767.93,-340.29 757.35,-339.66 759.27,-346.39"/>
</g>
<!-- Node23 -->
<g id="node23" class="node">
<title>Node23</title>
<g id="a_node23"><a xlink:href="lst__env__two_8c.html#a4d4a14327b2c3ff88099102b6bd77986" target="_top" xlink:title=" ">
<polygon fill="none" stroke="black" points="732,-498.53 732,-517.53 836,-517.53 836,-498.53 732,-498.53"/>
<text text-anchor="middle" x="784" y="-505.53" font-family="Helvetica,sans-Serif" font-size="10.00">research_key_env</text>
</a>
</g>
</g>
<!-- Node21&#45;&gt;Node23 -->
<g id="edge28" class="edge">
<title>Node21&#45;&gt;Node23</title>
<path fill="none" stroke="midnightblue" d="M663.33,-417.89C672.14,-421.26 683.62,-426.2 693,-432.03 720.46,-449.11 748.33,-474.09 765.63,-490.69"/>
<polygon fill="midnightblue" stroke="midnightblue" points="763.63,-493.62 773.23,-498.09 768.51,-488.61 763.63,-493.62"/>
</g>
<!-- Node24 -->
<g id="node24" class="node">
<title>Node24</title>
<g id="a_node24"><a xlink:href="cd_8c.html#a68bb8beb2cf13bb992af8322f31f94e7" target="_top" xlink:title=" ">
<polygon fill="none" stroke="black" points="892,-384.53 892,-403.53 968,-403.53 968,-384.53 892,-384.53"/>
<text text-anchor="middle" x="930" y="-391.53" font-family="Helvetica,sans-Serif" font-size="10.00">update_pwd</text>
</a>
</g>
</g>
<!-- Node21&#45;&gt;Node24 -->
<g id="edge29" class="edge">
<title>Node21&#45;&gt;Node24</title>
<path fill="none" stroke="midnightblue" d="M663.36,-412.09C702.78,-409.41 816.86,-401.65 881.98,-397.23"/>
<polygon fill="midnightblue" stroke="midnightblue" points="882.26,-400.72 892,-396.55 881.78,-393.73 882.26,-400.72"/>
</g>
<!-- Node25 -->
<g id="node25" class="node">
<title>Node25</title>
<g id="a_node25"><a xlink:href="lst__env__two_8c.html#a8cd6579fc3858072521e55ef235a2637" target="_top" xlink:title=" ">
<polygon fill="none" stroke="black" points="1035,-365.53 1035,-384.53 1146,-384.53 1146,-365.53 1035,-365.53"/>
<text text-anchor="middle" x="1090.5" y="-372.53" font-family="Helvetica,sans-Serif" font-size="10.00">research_node_env</text>
</a>
</g>
</g>
<!-- Node24&#45;&gt;Node25 -->
<g id="edge30" class="edge">
<title>Node24&#45;&gt;Node25</title>
<path fill="none" stroke="midnightblue" d="M968.16,-389.58C985.07,-387.55 1005.58,-385.09 1024.89,-382.78"/>
<polygon fill="midnightblue" stroke="midnightblue" points="1025.34,-386.25 1034.85,-381.58 1024.5,-379.3 1025.34,-386.25"/>
</g>
<!-- Node28 -->
<g id="node28" class="node">
<title>Node28</title>
<g id="a_node28"><a xlink:href="export_8c.html#a63ef72e778f2b52c924bf77ae989dc80" target="_top" xlink:title=" ">
<polygon fill="none" stroke="black" points="760,-289.53 760,-308.53 808,-308.53 808,-289.53 760,-289.53"/>
<text text-anchor="middle" x="784" y="-296.53" font-family="Helvetica,sans-Serif" font-size="10.00">export</text>
</a>
</g>
</g>
<!-- Node27&#45;&gt;Node28 -->
<g id="edge33" class="edge">
<title>Node27&#45;&gt;Node28</title>
<path fill="none" stroke="midnightblue" d="M684.23,-299.03C704.4,-299.03 729.68,-299.03 749.62,-299.03"/>
<polygon fill="midnightblue" stroke="midnightblue" points="749.79,-302.53 759.79,-299.03 749.79,-295.53 749.79,-302.53"/>
</g>
<!-- Node29 -->
<g id="node29" class="node">
<title>Node29</title>
<g id="a_node29"><a xlink:href="export_8c.html#a077edb8749298d8320620813ff84519c" target="_top" xlink:title=" ">
<polygon fill="none" stroke="black" points="875,-327.53 875,-346.53 985,-346.53 985,-327.53 875,-327.53"/>
<text text-anchor="middle" x="930" y="-334.53" font-family="Helvetica,sans-Serif" font-size="10.00">check_validity_key</text>
</a>
</g>
</g>
<!-- Node28&#45;&gt;Node29 -->
<g id="edge34" class="edge">
<title>Node28&#45;&gt;Node29</title>
<path fill="none" stroke="midnightblue" d="M808.14,-305.14C828.35,-310.47 858.29,-318.37 883.32,-324.98"/>
<polygon fill="midnightblue" stroke="midnightblue" points="882.43,-328.36 892.99,-327.53 884.21,-321.59 882.43,-328.36"/>
</g>
<!-- Node30 -->
<g id="node30" class="node">
<title>Node30</title>
<g id="a_node30"><a xlink:href="export_8c.html#a90ff129fee9412bd5c6d74be5970b99f" target="_top" xlink:title=" ">
<polygon fill="none" stroke="black" points="875,-289.53 875,-308.53 985,-308.53 985,-289.53 875,-289.53"/>
<text text-anchor="middle" x="930" y="-296.53" font-family="Helvetica,sans-Serif" font-size="10.00">export_env_update</text>
</a>
</g>
</g>
<!-- Node28&#45;&gt;Node30 -->
<g id="edge35" class="edge">
<title>Node28&#45;&gt;Node30</title>
<path fill="none" stroke="midnightblue" d="M808.14,-299.03C823.51,-299.03 844.5,-299.03 864.68,-299.03"/>
<polygon fill="midnightblue" stroke="midnightblue" points="864.81,-302.53 874.81,-299.03 864.81,-295.53 864.81,-302.53"/>
</g>
<!-- Node30&#45;&gt;Node25 -->
<g id="edge40" class="edge">
<title>Node30&#45;&gt;Node25</title>
<path fill="none" stroke="midnightblue" d="M960.76,-308.54C968.74,-311.35 977.28,-314.6 985,-318.03 1013.32,-330.64 1044.34,-348.05 1065.16,-360.3"/>
<polygon fill="midnightblue" stroke="midnightblue" points="1063.58,-363.43 1073.97,-365.53 1067.16,-357.41 1063.58,-363.43"/>
</g>
<!-- Node31 -->
<g id="node31" class="node">
<title>Node31</title>
<g id="a_node31"><a xlink:href="export_8c.html#a56cdba320963b2a94cb193c22ca238b7" target="_top" xlink:title=" ">
<polygon fill="none" stroke="black" points="1061.5,-289.53 1061.5,-308.53 1119.5,-308.53 1119.5,-289.53 1061.5,-289.53"/>
<text text-anchor="middle" x="1090.5" y="-296.53" font-family="Helvetica,sans-Serif" font-size="10.00">add_env</text>
</a>
</g>
</g>
<!-- Node30&#45;&gt;Node31 -->
<g id="edge36" class="edge">
<title>Node30&#45;&gt;Node31</title>
<path fill="none" stroke="midnightblue" d="M985.1,-299.03C1006.84,-299.03 1031.4,-299.03 1051.24,-299.03"/>
<polygon fill="midnightblue" stroke="midnightblue" points="1051.43,-302.53 1061.43,-299.03 1051.43,-295.53 1051.43,-302.53"/>
</g>
<!-- Node32 -->
<g id="node32" class="node">
<title>Node32</title>
<g id="a_node32"><a xlink:href="lst__env_8c.html#a9c375db3cbfe2e87b52bae7ee7472eae" target="_top" xlink:title=" ">
<polygon fill="none" stroke="black" points="1196,-270.53 1196,-289.53 1296,-289.53 1296,-270.53 1196,-270.53"/>
<text text-anchor="middle" x="1246" y="-277.53" font-family="Helvetica,sans-Serif" font-size="10.00">create_node_env</text>
</a>
</g>
</g>
<!-- Node31&#45;&gt;Node32 -->
<g id="edge37" class="edge">
<title>Node31&#45;&gt;Node32</title>
<path fill="none" stroke="midnightblue" d="M1119.65,-295.55C1138.2,-293.25 1163.18,-290.16 1185.96,-287.34"/>
<polygon fill="midnightblue" stroke="midnightblue" points="1186.4,-290.81 1195.9,-286.11 1185.54,-283.86 1186.4,-290.81"/>
</g>
<!-- Node33 -->
<g id="node33" class="node">
<title>Node33</title>
<g id="a_node33"><a xlink:href="lst__env_8c.html#a5976d1b2a8159220749fac94a83d5c95" target="_top" xlink:title=" ">
<polygon fill="none" stroke="black" points="1200,-308.53 1200,-327.53 1292,-327.53 1292,-308.53 1200,-308.53"/>
<text text-anchor="middle" x="1246" y="-315.53" font-family="Helvetica,sans-Serif" font-size="10.00">push_back_env</text>
</a>
</g>
</g>
<!-- Node31&#45;&gt;Node33 -->
<g id="edge38" class="edge">
<title>Node31&#45;&gt;Node33</title>
<path fill="none" stroke="midnightblue" d="M1119.65,-302.52C1139.27,-304.94 1166.08,-308.26 1189.87,-311.21"/>
<polygon fill="midnightblue" stroke="midnightblue" points="1189.5,-314.69 1199.85,-312.44 1190.36,-307.74 1189.5,-314.69"/>
</g>
<!-- Node34 -->
<g id="node34" class="node">
<title>Node34</title>
<g id="a_node34"><a xlink:href="env__utils_8c.html#ac7b3f84bb622bdf477616c5b0022f035" target="_top" xlink:title=" ">
<polygon fill="none" stroke="black" points="1332,-308.53 1332,-327.53 1411,-327.53 1411,-308.53 1332,-308.53"/>
<text text-anchor="middle" x="1371.5" y="-315.53" font-family="Helvetica,sans-Serif" font-size="10.00">get_last_env</text>
</a>
</g>
</g>
<!-- Node33&#45;&gt;Node34 -->
<g id="edge39" class="edge">
<title>Node33&#45;&gt;Node34</title>
<path fill="none" stroke="midnightblue" d="M1292.29,-318.03C1301.79,-318.03 1311.86,-318.03 1321.49,-318.03"/>
<polygon fill="midnightblue" stroke="midnightblue" points="1321.73,-321.53 1331.73,-318.03 1321.73,-314.53 1321.73,-321.53"/>
</g>
<!-- Node35&#45;&gt;Node22 -->
<g id="edge43" class="edge">
<title>Node35&#45;&gt;Node22</title>
<path fill="none" stroke="midnightblue" d="M679.13,-366.6C702.87,-359.84 735.8,-350.47 758.17,-344.1"/>
<polygon fill="midnightblue" stroke="midnightblue" points="759.27,-347.43 767.93,-341.32 757.35,-340.69 759.27,-347.43"/>
</g>
<!-- Node36 -->
<g id="node36" class="node">
<title>Node36</title>
<g id="a_node36"><a xlink:href="my__echo_8c.html#a7c657de7306d33ae5cdab2bf43f35ae1" target="_top" xlink:title=" ">
<polygon fill="none" stroke="black" points="729,-365.53 729,-384.53 839,-384.53 839,-365.53 729,-365.53"/>
<text text-anchor="middle" x="784" y="-372.53" font-family="Helvetica,sans-Serif" font-size="10.00">check_option_echo</text>
</a>
</g>
</g>
<!-- Node35&#45;&gt;Node36 -->
<g id="edge42" class="edge">
<title>Node35&#45;&gt;Node36</title>
<path fill="none" stroke="midnightblue" d="M679.13,-375.03C690.87,-375.03 704.87,-375.03 718.72,-375.03"/>
<polygon fill="midnightblue" stroke="midnightblue" points="718.74,-378.53 728.74,-375.03 718.74,-371.53 718.74,-378.53"/>
</g>
<!-- Node37&#45;&gt;Node10 -->
<g id="edge46" class="edge">
<title>Node37&#45;&gt;Node10</title>
<path fill="none" stroke="midnightblue" d="M676.17,-213.4C681.96,-210.77 687.87,-207.63 693,-204.03 712.04,-190.66 709.48,-178.69 729,-166.03 732.1,-164.02 735.44,-162.19 738.88,-160.54"/>
<polygon fill="midnightblue" stroke="midnightblue" points="740.35,-163.72 748.15,-156.55 737.58,-157.29 740.35,-163.72"/>
</g>
<!-- Node37&#45;&gt;Node14 -->
<g id="edge47" class="edge">
<title>Node37&#45;&gt;Node14</title>
<path fill="none" stroke="midnightblue" d="M676.52,-215.34C694.59,-210.2 718.77,-203.31 739.52,-197.41"/>
<polygon fill="midnightblue" stroke="midnightblue" points="740.73,-200.7 749.39,-194.6 738.81,-193.97 740.73,-200.7"/>
</g>
<!-- Node37&#45;&gt;Node22 -->
<g id="edge48" class="edge">
<title>Node37&#45;&gt;Node22</title>
<path fill="none" stroke="midnightblue" d="M676.65,-231.32C682.55,-234.04 688.39,-237.56 693,-242.03 719.83,-268.05 701.23,-293.01 729,-318.03 737,-325.24 747.9,-329.75 757.82,-332.55"/>
<polygon fill="midnightblue" stroke="midnightblue" points="757.09,-335.98 767.63,-334.9 758.72,-329.17 757.09,-335.98"/>
</g>
<!-- Node38 -->
<g id="node38" class="node">
<title>Node38</title>
<g id="a_node38"><a xlink:href="exit_8c.html#a7e369b4894a31549c9b65f718e28823f" target="_top" xlink:title=" ">
<polygon fill="none" stroke="black" points="749.5,-213.53 749.5,-232.53 818.5,-232.53 818.5,-213.53 749.5,-213.53"/>
<text text-anchor="middle" x="784" y="-220.53" font-family="Helvetica,sans-Serif" font-size="10.00">check_exit</text>
</a>
</g>
</g>
<!-- Node37&#45;&gt;Node38 -->
<g id="edge45" class="edge">
<title>Node37&#45;&gt;Node38</title>
<path fill="none" stroke="midnightblue" d="M676.52,-223.03C694.5,-223.03 718.55,-223.03 739.23,-223.03"/>
<polygon fill="midnightblue" stroke="midnightblue" points="739.39,-226.53 749.39,-223.03 739.39,-219.53 739.39,-226.53"/>
</g>
<!-- Node41 -->
<g id="node41" class="node">
<title>Node41</title>
<g id="a_node41"><a xlink:href="unset_8c.html#a4b3bbc6cfa6ff293119825a11324fb9f" target="_top" xlink:title=" ">
<polygon fill="none" stroke="black" points="762,-251.53 762,-270.53 806,-270.53 806,-251.53 762,-251.53"/>
<text text-anchor="middle" x="784" y="-258.53" font-family="Helvetica,sans-Serif" font-size="10.00">unset</text>
</a>
</g>
</g>
<!-- Node40&#45;&gt;Node41 -->
<g id="edge51" class="edge">
<title>Node40&#45;&gt;Node41</title>
<path fill="none" stroke="midnightblue" d="M681.82,-261.03C703.07,-261.03 730.75,-261.03 751.78,-261.03"/>
<polygon fill="midnightblue" stroke="midnightblue" points="751.81,-264.53 761.81,-261.03 751.81,-257.53 751.81,-264.53"/>
</g>
<!-- Node43 -->
<g id="node43" class="node">
<title>Node43</title>
<g id="a_node43"><a xlink:href="env__utils_8c.html#a7cc35c974bce053dbba1c1ec1028f36b" target="_top" xlink:title=" ">
<polygon fill="none" stroke="black" points="610,-479.53 610,-498.53 687,-498.53 687,-479.53 610,-479.53"/>
<text text-anchor="middle" x="648.5" y="-486.53" font-family="Helvetica,sans-Serif" font-size="10.00">env_lst_size</text>
</a>
</g>
</g>
<!-- Node42&#45;&gt;Node43 -->
<g id="edge53" class="edge">
<title>Node42&#45;&gt;Node43</title>
<path fill="none" stroke="midnightblue" d="M561.81,-489.03C573.94,-489.03 587.18,-489.03 599.56,-489.03"/>
<polygon fill="midnightblue" stroke="midnightblue" points="599.7,-492.53 609.7,-489.03 599.7,-485.53 599.7,-492.53"/>
</g>
<!-- Node44 -->
<g id="node44" class="node">
<title>Node44</title>
<g id="a_node44"><a xlink:href="getenv_8c.html#a0250cce1862c20e31d0c0ece960bc3a0" target="_top" xlink:title=" ">
<polygon fill="none" stroke="black" points="617.5,-517.53 617.5,-536.53 679.5,-536.53 679.5,-517.53 617.5,-517.53"/>
<text text-anchor="middle" x="648.5" y="-524.53" font-family="Helvetica,sans-Serif" font-size="10.00">join_path</text>
</a>
</g>
</g>
<!-- Node42&#45;&gt;Node44 -->
<g id="edge54" class="edge">
<title>Node42&#45;&gt;Node44</title>
<path fill="none" stroke="midnightblue" d="M551.05,-498.62C568.18,-503.67 589.33,-509.9 607.46,-515.24"/>
<polygon fill="midnightblue" stroke="midnightblue" points="606.59,-518.63 617.17,-518.1 608.57,-511.91 606.59,-518.63"/>
</g>
<!-- Node45&#45;&gt;Node23 -->
<g id="edge58" class="edge">
<title>Node45&#45;&gt;Node23</title>
<path fill="none" stroke="midnightblue" d="M551.26,-536.55C586.53,-545.43 644.17,-555.92 693,-546.03 715.58,-541.46 739.54,-531.04 757.06,-522.26"/>
<polygon fill="midnightblue" stroke="midnightblue" points="758.79,-525.31 766.07,-517.61 755.58,-519.09 758.79,-525.31"/>
</g>
<!-- Node45&#45;&gt;Node44 -->
<g id="edge57" class="edge">
<title>Node45&#45;&gt;Node44</title>
<path fill="none" stroke="midnightblue" d="M555.81,-527.03C571.8,-527.03 590.53,-527.03 606.87,-527.03"/>
<polygon fill="midnightblue" stroke="midnightblue" points="607.21,-530.53 617.21,-527.03 607.21,-523.53 607.21,-530.53"/>
</g>
</g>
</svg>
        <g id="navigator" transform="translate(0 0)" fill="#404254">
                <rect fill="#f2f5e9" fill-opacity="0.5" stroke="#606060" stroke-width=".5" x="0" y="0" width="60" height="60"/>
                <use id="zoomplus" xlink:href="#zoomPlus" x="17" y="9" onmousedown="handleZoom(evt,'in')"/>
                <use id="zoomminus" xlink:href="#zoomMin" x="42" y="9" onmousedown="handleZoom(evt,'out')"/>
                <use id="reset" xlink:href="#resetDef" x="30" y="36" onmousedown="handleReset()"/>
                <g id="arrowUp" xlink:href="#dirArrow" transform="translate(30 24)" onmousedown="handlePan(0,-1)">
                  <use xlink:href="#rim" fill="#404040">
                        <set attributeName="fill" to="#808080" begin="arrowUp.mouseover" end="arrowUp.mouseout"/>
                  </use>
                  <path fill="none" stroke="white" stroke-width="1.5" d="M0,-3.0v7 M-2.5,-0.5L0,-3.0L2.5,-0.5"/>
                </g>
                <g id="arrowRight" xlink:href="#dirArrow" transform="rotate(90) translate(36 -43)" onmousedown="handlePan(1,0)">
                  <use xlink:href="#rim" fill="#404040">
                        <set attributeName="fill" to="#808080" begin="arrowRight.mouseover" end="arrowRight.mouseout"/>
                  </use>
                  <path fill="none" stroke="white" stroke-width="1.5" d="M0,-3.0v7 M-2.5,-0.5L0,-3.0L2.5,-0.5"/>
                </g>
                <g id="arrowDown" xlink:href="#dirArrow" transform="rotate(180) translate(-30 -48)" onmousedown="handlePan(0,1)">
                  <use xlink:href="#rim" fill="#404040">
                        <set attributeName="fill" to="#808080" begin="arrowDown.mouseover" end="arrowDown.mouseout"/>
                  </use>
                  <path fill="none" stroke="white" stroke-width="1.5" d="M0,-3.0v7 M-2.5,-0.5L0,-3.0L2.5,-0.5"/>
                </g>
                <g id="arrowLeft" xlink:href="#dirArrow" transform="rotate(270) translate(-36 17)" onmousedown="handlePan(-1,0)">
                  <use xlink:href="#rim" fill="#404040">
                        <set attributeName="fill" to="#808080" begin="arrowLeft.mouseover" end="arrowLeft.mouseout"/>
                  </use>
                  <path fill="none" stroke="white" stroke-width="1.5" d="M0,-3.0v7 M-2.5,-0.5L0,-3.0L2.5,-0.5"/>
                </g>
        </g>
        <svg viewBox="0 0 15 15" width="100%" height="30px" preserveAspectRatio="xMaxYMin meet">
         <g id="arrow_out" transform="scale(0.3 0.3)">
          <a xlink:href="multipipe_8c_af31c329200501f497cd102a470450103_cgraph_org.svg" target="_base">
           <rect id="button" ry="5" rx="5" y="6" x="6" height="38" width="38"
                fill="#f2f5e9" fill-opacity="0.5" stroke="#606060" stroke-width="1.0"/>
           <path id="arrow"
             d="M 11.500037,31.436501 C 11.940474,20.09759 22.043105,11.32322 32.158766,21.979434 L 37.068811,17.246167 C 37.068811,17.246167 37.088388,32 37.088388,32 L 22.160133,31.978069 C 22.160133,31.978069 26.997745,27.140456 26.997745,27.140456 C 18.528582,18.264221 13.291696,25.230495 11.500037,31.436501 z"
             style="fill:#404040;"/>
          </a>
         </g>
        </svg>
</svg>
