<?xml version="1.0" encoding="UTF-8" standalone="no"?>
<!DOCTYPE svg PUBLIC "-//W3C//DTD SVG 1.1//EN"
 "http://www.w3.org/Graphics/SVG/1.1/DTD/svg11.dtd">
<!-- Generated by graphviz version 2.43.0 (0)
 -->
<!-- Title: multipipe_cmd Pages: 1 -->
<svg width="1179pt" height="1047pt"
 viewBox="0.00 0.00 1179.00 1046.67" xmlns="http://www.w3.org/2000/svg" xmlns:xlink="http://www.w3.org/1999/xlink">
<g id="graph0" class="graph" transform="scale(1 1) rotate(0) translate(4 1042.67)">
<title>multipipe_cmd</title>
<!-- Node1 -->
<g id="node1" class="node">
<title>Node1</title>
<g id="a_node1"><a xlink:title="management of the multipipe (= name when we have at least one pipe) First step is to manage the hered...">
<polygon fill="#bfbfbf" stroke="black" points="0,-402.17 0,-421.17 89,-421.17 89,-402.17 0,-402.17"/>
<text text-anchor="middle" x="44.5" y="-409.17" font-family="Helvetica,sans-Serif" font-size="10.00">multipipe_cmd</text>
</a>
</g>
</g>
<!-- Node2 -->
<g id="node2" class="node">
<title>Node2</title>
<g id="a_node2"><a xlink:href="multipipe_8c.html#a9b21b82386f20636501d279a66b7260d" target="_top" xlink:title="in the case of an error in the redirection, we have a case where the here_doc opened in a previous si...">
<polygon fill="none" stroke="black" points="153.5,-487.17 153.5,-506.17 254.5,-506.17 254.5,-487.17 153.5,-487.17"/>
<text text-anchor="middle" x="204" y="-494.17" font-family="Helvetica,sans-Serif" font-size="10.00">close_redir_temp</text>
</a>
</g>
</g>
<!-- Node1&#45;&gt;Node2 -->
<g id="edge1" class="edge">
<title>Node1&#45;&gt;Node2</title>
<path fill="none" stroke="midnightblue" d="M55.48,-421.25C69.8,-434.52 97.48,-458.46 125,-472.67 133.6,-477.1 143.16,-480.88 152.55,-484.03"/>
<polygon fill="midnightblue" stroke="midnightblue" points="151.65,-487.42 162.24,-487.1 153.76,-480.75 151.65,-487.42"/>
</g>
<!-- Node3 -->
<g id="node3" class="node">
<title>Node3</title>
<g id="a_node3"><a xlink:href="redirection__multipipe_8c.html#a1bca6910c90a19d96b36506a2e2cebf6" target="_top" xlink:title="as fd are all setup to &#45;1 at the beginning we check if they are open before trying to close we avoid ...">
<polygon fill="none" stroke="black" points="827.5,-259.17 827.5,-278.17 896.5,-278.17 896.5,-259.17 827.5,-259.17"/>
<text text-anchor="middle" x="862" y="-266.17" font-family="Helvetica,sans-Serif" font-size="10.00">ft_close_fd</text>
</a>
</g>
</g>
<!-- Node1&#45;&gt;Node3 -->
<g id="edge7" class="edge">
<title>Node1&#45;&gt;Node3</title>
<path fill="none" stroke="midnightblue" d="M86.75,-421.18C150.01,-434.91 274.99,-458.67 382.5,-458.67 382.5,-458.67 382.5,-458.67 558,-458.67 687.18,-458.67 806.52,-333.17 846.69,-286.17"/>
<polygon fill="midnightblue" stroke="midnightblue" points="849.5,-288.26 853.25,-278.35 844.14,-283.76 849.5,-288.26"/>
</g>
<!-- Node4 -->
<g id="node4" class="node">
<title>Node4</title>
<g id="a_node4"><a xlink:href="lst__cmd2_8c.html#a132395876bb5a7cfe926b9e37571a1e3" target="_top" xlink:title=" ">
<polygon fill="none" stroke="black" points="511,-772.17 511,-791.17 603,-791.17 603,-772.17 511,-772.17"/>
<text text-anchor="middle" x="557" y="-779.17" font-family="Helvetica,sans-Serif" font-size="10.00">destructor_cmd</text>
</a>
</g>
</g>
<!-- Node1&#45;&gt;Node4 -->
<g id="edge3" class="edge">
<title>Node1&#45;&gt;Node4</title>
<path fill="none" stroke="midnightblue" d="M51.42,-421.36C63.57,-440.77 92.89,-485.12 125,-515.67 265.33,-649.14 307.98,-681.87 484,-762.67 489.42,-765.15 495.22,-767.36 501.1,-769.31"/>
<polygon fill="midnightblue" stroke="midnightblue" points="500.41,-772.76 510.99,-772.35 502.46,-766.07 500.41,-772.76"/>
</g>
<!-- Node8 -->
<g id="node8" class="node">
<title>Node8</title>
<g id="a_node8"><a xlink:href="heredoc_8c.html#aa5260679719a4e1f862a6efd1f12cf85" target="_top" xlink:title="the function will go through all the commands and check the redirection if we encounter a heredoc we ...">
<polygon fill="none" stroke="black" points="138.5,-383.17 138.5,-402.17 269.5,-402.17 269.5,-383.17 138.5,-383.17"/>
<text text-anchor="middle" x="204" y="-390.17" font-family="Helvetica,sans-Serif" font-size="10.00">here_doc_management</text>
</a>
</g>
</g>
<!-- Node1&#45;&gt;Node8 -->
<g id="edge8" class="edge">
<title>Node1&#45;&gt;Node8</title>
<path fill="none" stroke="midnightblue" d="M89.37,-406.37C101.49,-404.91 114.98,-403.28 128.31,-401.68"/>
<polygon fill="midnightblue" stroke="midnightblue" points="128.95,-405.12 138.46,-400.45 128.11,-398.17 128.95,-405.12"/>
</g>
<!-- Node15 -->
<g id="node15" class="node">
<title>Node15</title>
<g id="a_node15"><a xlink:href="multipipe_8c.html#af32b88ab44b94650a0bb6f805f70a805" target="_top" xlink:title="it&#39;s where the fork happen and sent to be execute">
<polygon fill="none" stroke="black" points="125,-288.17 125,-307.17 283,-307.17 283,-288.17 125,-288.17"/>
<text text-anchor="middle" x="204" y="-295.17" font-family="Helvetica,sans-Serif" font-size="10.00">multipipe_intermediary_cmd</text>
</a>
</g>
</g>
<!-- Node1&#45;&gt;Node15 -->
<g id="edge21" class="edge">
<title>Node1&#45;&gt;Node15</title>
<path fill="none" stroke="midnightblue" d="M58.66,-402.14C85.8,-382.49 148.25,-337.29 181.41,-313.3"/>
<polygon fill="midnightblue" stroke="midnightblue" points="183.5,-316.1 189.55,-307.4 179.39,-310.43 183.5,-316.1"/>
</g>
<!-- Node43 -->
<g id="node43" class="node">
<title>Node43</title>
<g id="a_node43"><a xlink:href="redirection__verification_8c.html#af9b05287627b76434ceb0070c5cb2c8a" target="_top" xlink:title="we go through each node of the redirection and we have special treatment depending of the following c...">
<polygon fill="none" stroke="black" points="319,-88.17 319,-107.17 448,-107.17 448,-88.17 319,-88.17"/>
<text text-anchor="middle" x="383.5" y="-95.17" font-family="Helvetica,sans-Serif" font-size="10.00">redirection_verification</text>
</a>
</g>
</g>
<!-- Node1&#45;&gt;Node43 -->
<g id="edge59" class="edge">
<title>Node1&#45;&gt;Node43</title>
<path fill="none" stroke="midnightblue" d="M49.55,-402.08C59.67,-378.91 87.95,-318.78 125,-278.67 195.7,-202.11 303.97,-139.17 354.59,-112.04"/>
<polygon fill="midnightblue" stroke="midnightblue" points="356.44,-115.02 363.64,-107.25 353.16,-108.84 356.44,-115.02"/>
</g>
<!-- Node2&#45;&gt;Node3 -->
<g id="edge2" class="edge">
<title>Node2&#45;&gt;Node3</title>
<path fill="none" stroke="midnightblue" d="M254.78,-501.25C378.43,-511.61 695.61,-531.59 779,-472.67 840.68,-429.08 856,-331.01 859.78,-288.71"/>
<polygon fill="midnightblue" stroke="midnightblue" points="863.28,-288.8 860.55,-278.57 856.3,-288.27 863.28,-288.8"/>
</g>
<!-- Node5 -->
<g id="node5" class="node">
<title>Node5</title>
<g id="a_node5"><a xlink:href="lst__cmd2_8c.html#a8e2b63759f149b547e0d07f210ede9b3" target="_top" xlink:title=" ">
<polygon fill="none" stroke="black" points="692,-972.17 692,-991.17 753,-991.17 753,-972.17 692,-972.17"/>
<text text-anchor="middle" x="722.5" y="-979.17" font-family="Helvetica,sans-Serif" font-size="10.00">pop_cmd</text>
</a>
</g>
</g>
<!-- Node4&#45;&gt;Node5 -->
<g id="edge4" class="edge">
<title>Node4&#45;&gt;Node5</title>
<path fill="none" stroke="midnightblue" d="M565.83,-791.37C583.58,-813.36 628.28,-868.67 666,-914.67 679.83,-931.53 695.71,-950.68 706.93,-964.18"/>
<polygon fill="midnightblue" stroke="midnightblue" points="704.48,-966.7 713.57,-972.15 709.86,-962.22 704.48,-966.7"/>
</g>
<!-- Node6 -->
<g id="node6" class="node">
<title>Node6</title>
<g id="a_node6"><a xlink:href="lst__redir2_8c.html#a30ccaf401a4f897e48ead5fe54f4b307" target="_top" xlink:title=" ">
<polygon fill="none" stroke="black" points="815,-1019.17 815,-1038.17 909,-1038.17 909,-1019.17 815,-1019.17"/>
<text text-anchor="middle" x="862" y="-1026.17" font-family="Helvetica,sans-Serif" font-size="10.00">destructor_redir</text>
</a>
</g>
</g>
<!-- Node5&#45;&gt;Node6 -->
<g id="edge5" class="edge">
<title>Node5&#45;&gt;Node6</title>
<path fill="none" stroke="midnightblue" d="M751.33,-991.18C771.97,-998.23 800.35,-1007.94 823.07,-1015.7"/>
<polygon fill="midnightblue" stroke="midnightblue" points="822.15,-1019.08 832.74,-1019.01 824.41,-1012.46 822.15,-1019.08"/>
</g>
<!-- Node7 -->
<g id="node7" class="node">
<title>Node7</title>
<g id="a_node7"><a xlink:href="lst__redir2_8c.html#ade8f0bdda51d9bf348ebeb38fefba881" target="_top" xlink:title=" ">
<polygon fill="none" stroke="black" points="969.5,-1019.17 969.5,-1038.17 1031.5,-1038.17 1031.5,-1019.17 969.5,-1019.17"/>
<text text-anchor="middle" x="1000.5" y="-1026.17" font-family="Helvetica,sans-Serif" font-size="10.00">pop_redir</text>
</a>
</g>
</g>
<!-- Node6&#45;&gt;Node7 -->
<g id="edge6" class="edge">
<title>Node6&#45;&gt;Node7</title>
<path fill="none" stroke="midnightblue" d="M909.21,-1028.67C925.3,-1028.67 943.22,-1028.67 958.82,-1028.67"/>
<polygon fill="midnightblue" stroke="midnightblue" points="959.21,-1032.17 969.21,-1028.67 959.21,-1025.17 959.21,-1032.17"/>
</g>
<!-- Node9 -->
<g id="node9" class="node">
<title>Node9</title>
<g id="a_node9"><a xlink:href="heredoc_8c.html#ab68377acf2c8adf39f991dc425297c09" target="_top" xlink:title="it&#39;s where we open the heredoc and start writing inside our pipe each time we check if it&#39;s the word ...">
<polygon fill="none" stroke="black" points="340.5,-335.17 340.5,-354.17 426.5,-354.17 426.5,-335.17 340.5,-335.17"/>
<text text-anchor="middle" x="383.5" y="-342.17" font-family="Helvetica,sans-Serif" font-size="10.00">heredoc_input</text>
</a>
</g>
</g>
<!-- Node8&#45;&gt;Node9 -->
<g id="edge9" class="edge">
<title>Node8&#45;&gt;Node9</title>
<path fill="none" stroke="midnightblue" d="M240.49,-383.07C268.31,-375.55 307.19,-365.03 337.25,-356.9"/>
<polygon fill="midnightblue" stroke="midnightblue" points="338.33,-360.24 347.07,-354.25 336.5,-353.48 338.33,-360.24"/>
</g>
<!-- Node9&#45;&gt;Node3 -->
<g id="edge12" class="edge">
<title>Node9&#45;&gt;Node3</title>
<path fill="none" stroke="midnightblue" d="M426.63,-345.84C499.84,-346.75 654.62,-343.71 779,-307.67 798.94,-301.89 820.06,-291.74 835.87,-283.24"/>
<polygon fill="midnightblue" stroke="midnightblue" points="837.91,-286.11 844.97,-278.21 834.53,-279.98 837.91,-286.11"/>
</g>
<!-- Node10 -->
<g id="node10" class="node">
<title>Node10</title>
<g id="a_node10"><a xlink:href="heredoc_8c.html#a3e1410633d8c1ad5b1441509a020b0d4" target="_top" xlink:title="allow us to close the file descriptors when we have fork() again the process">
<polygon fill="none" stroke="black" points="666,-259.17 666,-278.17 779,-278.17 779,-259.17 666,-259.17"/>
<text text-anchor="middle" x="722.5" y="-266.17" font-family="Helvetica,sans-Serif" font-size="10.00">close_fd_heredocs2</text>
</a>
</g>
</g>
<!-- Node9&#45;&gt;Node10 -->
<g id="edge10" class="edge">
<title>Node9&#45;&gt;Node10</title>
<path fill="none" stroke="midnightblue" d="M396.85,-335.16C414.87,-321.87 449.96,-298.2 484,-287.67 540.26,-270.26 607.4,-266.34 655.92,-266.29"/>
<polygon fill="midnightblue" stroke="midnightblue" points="655.96,-269.79 665.98,-266.33 655.99,-262.79 655.96,-269.79"/>
</g>
<!-- Node11 -->
<g id="node11" class="node">
<title>Node11</title>
<g id="a_node11"><a xlink:href="heredoc_8c.html#ae1fac908d63c4fd12485122128c0c0fd" target="_top" xlink:title="function which allow me to do the loop to call GNL =&gt; there is also the management to leave with the ...">
<polygon fill="none" stroke="black" points="505.5,-297.17 505.5,-316.17 608.5,-316.17 608.5,-297.17 505.5,-297.17"/>
<text text-anchor="middle" x="557" y="-304.17" font-family="Helvetica,sans-Serif" font-size="10.00">read_gnl_heredoc</text>
</a>
</g>
</g>
<!-- Node9&#45;&gt;Node11 -->
<g id="edge13" class="edge">
<title>Node9&#45;&gt;Node11</title>
<path fill="none" stroke="midnightblue" d="M426.89,-335.27C449.91,-330.17 478.58,-323.82 503.05,-318.4"/>
<polygon fill="midnightblue" stroke="midnightblue" points="503.9,-321.8 512.9,-316.21 502.38,-314.96 503.9,-321.8"/>
</g>
<!-- Node12 -->
<g id="node12" class="node">
<title>Node12</title>
<g id="a_node12"><a xlink:href="ctl_8c.html#a4fd8e3642e456e9a2f7fe4dc8f44ad43" target="_top" xlink:title="remove the echoctl which are the symbol which appears when you press CTRL+C or CTRL+\ it&#39;s different ...">
<polygon fill="none" stroke="black" points="509.5,-411.17 509.5,-430.17 604.5,-430.17 604.5,-411.17 509.5,-411.17"/>
<text text-anchor="middle" x="557" y="-418.17" font-family="Helvetica,sans-Serif" font-size="10.00">remove_echoctl</text>
</a>
</g>
</g>
<!-- Node9&#45;&gt;Node12 -->
<g id="edge16" class="edge">
<title>Node9&#45;&gt;Node12</title>
<path fill="none" stroke="midnightblue" d="M398.4,-354.2C417.11,-366.67 451.77,-388.45 484,-401.67 489.89,-404.08 496.17,-406.27 502.48,-408.23"/>
<polygon fill="midnightblue" stroke="midnightblue" points="501.79,-411.67 512.37,-411.12 503.76,-404.95 501.79,-411.67"/>
</g>
<!-- Node13 -->
<g id="node13" class="node">
<title>Node13</title>
<g id="a_node13"><a xlink:href="signals_8c.html#a7ea78f2f2215fe1ed765af80a1b2893d" target="_top" xlink:title="allow us to warn the process child heredoc it&#39;s time to stop and close the file descriptor">
<polygon fill="none" stroke="black" points="513,-373.17 513,-392.17 601,-392.17 601,-373.17 513,-373.17"/>
<text text-anchor="middle" x="557" y="-380.17" font-family="Helvetica,sans-Serif" font-size="10.00">sigint_heredoc</text>
</a>
</g>
</g>
<!-- Node9&#45;&gt;Node13 -->
<g id="edge17" class="edge">
<title>Node9&#45;&gt;Node13</title>
<path fill="none" stroke="midnightblue" d="M426.89,-354.06C449.91,-359.16 478.58,-365.51 503.05,-370.93"/>
<polygon fill="midnightblue" stroke="midnightblue" points="502.38,-374.37 512.9,-373.12 503.9,-367.54 502.38,-374.37"/>
</g>
<!-- Node14 -->
<g id="node14" class="node">
<title>Node14</title>
<g id="a_node14"><a xlink:href="heredoc_8c.html#a1e49e3a472f4fd4b4c38a3e393868e67" target="_top" xlink:title="origin of creation ; the norm what it is doing ? juste close the fd the right way if we encounter the...">
<polygon fill="none" stroke="black" points="514,-221.17 514,-240.17 600,-240.17 600,-221.17 514,-221.17"/>
<text text-anchor="middle" x="557" y="-228.17" font-family="Helvetica,sans-Serif" font-size="10.00">update_status</text>
</a>
</g>
</g>
<!-- Node9&#45;&gt;Node14 -->
<g id="edge18" class="edge">
<title>Node9&#45;&gt;Node14</title>
<path fill="none" stroke="midnightblue" d="M392.56,-335.11C408.34,-316.98 445.18,-277.33 484,-254.67 491.44,-250.32 499.78,-246.63 508.07,-243.54"/>
<polygon fill="midnightblue" stroke="midnightblue" points="509.43,-246.77 517.73,-240.19 507.13,-240.16 509.43,-246.77"/>
</g>
<!-- Node10&#45;&gt;Node3 -->
<g id="edge11" class="edge">
<title>Node10&#45;&gt;Node3</title>
<path fill="none" stroke="midnightblue" d="M779.03,-268.67C791.71,-268.67 805.02,-268.67 817.13,-268.67"/>
<polygon fill="midnightblue" stroke="midnightblue" points="817.43,-272.17 827.43,-268.67 817.43,-265.17 817.43,-272.17"/>
</g>
<!-- Node11&#45;&gt;Node3 -->
<g id="edge15" class="edge">
<title>Node11&#45;&gt;Node3</title>
<path fill="none" stroke="midnightblue" d="M608.72,-304.35C653.67,-301.82 720.99,-296.83 779,-287.67 791.52,-285.69 804.96,-282.87 817.27,-280.01"/>
<polygon fill="midnightblue" stroke="midnightblue" points="818.39,-283.34 827.3,-277.61 816.76,-276.53 818.39,-283.34"/>
</g>
<!-- Node11&#45;&gt;Node10 -->
<g id="edge14" class="edge">
<title>Node11&#45;&gt;Node10</title>
<path fill="none" stroke="midnightblue" d="M599.26,-297.08C620.93,-292.04 647.68,-285.82 670.63,-280.49"/>
<polygon fill="midnightblue" stroke="midnightblue" points="671.59,-283.86 680.54,-278.19 670.01,-277.04 671.59,-283.86"/>
</g>
<!-- Node14&#45;&gt;Node3 -->
<g id="edge20" class="edge">
<title>Node14&#45;&gt;Node3</title>
<path fill="none" stroke="midnightblue" d="M600.17,-232.51C644.8,-234.87 717.19,-239.9 779,-249.67 791.52,-251.64 804.96,-254.46 817.27,-257.32"/>
<polygon fill="midnightblue" stroke="midnightblue" points="816.76,-260.8 827.3,-259.72 818.39,-253.99 816.76,-260.8"/>
</g>
<!-- Node14&#45;&gt;Node10 -->
<g id="edge19" class="edge">
<title>Node14&#45;&gt;Node10</title>
<path fill="none" stroke="midnightblue" d="M599.26,-240.25C620.93,-245.29 647.68,-251.51 670.63,-256.84"/>
<polygon fill="midnightblue" stroke="midnightblue" points="670.01,-260.29 680.54,-259.15 671.59,-253.47 670.01,-260.29"/>
</g>
<!-- Node15&#45;&gt;Node3 -->
<g id="edge58" class="edge">
<title>Node15&#45;&gt;Node3</title>
<path fill="none" stroke="midnightblue" d="M217.97,-288.14C238.41,-273.57 279.83,-245.86 319,-230.67 388.89,-203.54 409.44,-203.49 484,-195.67 614.42,-181.98 656.39,-155.14 779,-201.67 806.22,-212 831.15,-235.19 846.2,-251.38"/>
<polygon fill="midnightblue" stroke="midnightblue" points="843.85,-253.99 853.13,-259.1 849.06,-249.32 843.85,-253.99"/>
</g>
<!-- Node16 -->
<g id="node16" class="node">
<title>Node16</title>
<g id="a_node16"><a xlink:href="redirection__multipipe_8c.html#af7980d82e7ea7c0c84519ef3e3011b98" target="_top" xlink:title=" ">
<polygon fill="none" stroke="black" points="336.5,-240.17 336.5,-259.17 430.5,-259.17 430.5,-240.17 336.5,-240.17"/>
<text text-anchor="middle" x="383.5" y="-247.17" font-family="Helvetica,sans-Serif" font-size="10.00">close_fd_parent</text>
</a>
</g>
</g>
<!-- Node15&#45;&gt;Node16 -->
<g id="edge22" class="edge">
<title>Node15&#45;&gt;Node16</title>
<path fill="none" stroke="midnightblue" d="M240.49,-288.07C268.31,-280.55 307.19,-270.03 337.25,-261.9"/>
<polygon fill="midnightblue" stroke="midnightblue" points="338.33,-265.24 347.07,-259.25 336.5,-258.48 338.33,-265.24"/>
</g>
<!-- Node17 -->
<g id="node17" class="node">
<title>Node17</title>
<g id="a_node17"><a xlink:href="multipipe_8c.html#a43baea25481fdd02ce42e4d249f12353" target="_top" xlink:title=" ">
<polygon fill="none" stroke="black" points="342,-582.17 342,-601.17 425,-601.17 425,-582.17 342,-582.17"/>
<text text-anchor="middle" x="383.5" y="-589.17" font-family="Helvetica,sans-Serif" font-size="10.00">execute_child</text>
</a>
</g>
</g>
<!-- Node15&#45;&gt;Node17 -->
<g id="edge24" class="edge">
<title>Node15&#45;&gt;Node17</title>
<path fill="none" stroke="midnightblue" d="M217.48,-307.32C234.16,-320.74 263.85,-346.45 283,-373.67 329.84,-440.21 363.19,-532.34 376.32,-572.1"/>
<polygon fill="midnightblue" stroke="midnightblue" points="373.07,-573.43 379.48,-581.87 379.73,-571.27 373.07,-573.43"/>
</g>
<!-- Node16&#45;&gt;Node3 -->
<g id="edge23" class="edge">
<title>Node16&#45;&gt;Node3</title>
<path fill="none" stroke="midnightblue" d="M403.34,-240.08C422.92,-230.7 454.72,-217.07 484,-211.67 613.29,-187.82 652.47,-197.96 779,-233.67 797.63,-238.92 817.62,-247.39 833.2,-254.69"/>
<polygon fill="midnightblue" stroke="midnightblue" points="831.75,-257.87 842.28,-259.03 834.78,-251.56 831.75,-257.87"/>
</g>
<!-- Node17&#45;&gt;Node4 -->
<g id="edge32" class="edge">
<title>Node17&#45;&gt;Node4</title>
<path fill="none" stroke="midnightblue" d="M391.13,-601.41C403.05,-619.07 428.67,-657.71 448,-691.67 465.5,-722.41 456.48,-740.42 484,-762.67 489.08,-766.77 494.96,-770 501.13,-772.53"/>
<polygon fill="midnightblue" stroke="midnightblue" points="500.38,-775.98 510.98,-775.97 502.69,-769.37 500.38,-775.98"/>
</g>
<!-- Node18 -->
<g id="node18" class="node">
<title>Node18</title>
<g id="a_node18"><a xlink:href="multipipe_8c.html#ac70e2499b8aeb789658ff4596ded7221" target="_top" xlink:title="as we are going to fork and create process, the new process will have inherited of all the opened fd....">
<polygon fill="none" stroke="black" points="503.5,-525.17 503.5,-544.17 610.5,-544.17 610.5,-525.17 503.5,-525.17"/>
<text text-anchor="middle" x="557" y="-532.17" font-family="Helvetica,sans-Serif" font-size="10.00">close_fd_heredocs</text>
</a>
</g>
</g>
<!-- Node17&#45;&gt;Node18 -->
<g id="edge25" class="edge">
<title>Node17&#45;&gt;Node18</title>
<path fill="none" stroke="midnightblue" d="M407.57,-582.05C427.58,-573.9 457.42,-562.22 484,-553.67 491.44,-551.27 499.38,-548.95 507.18,-546.79"/>
<polygon fill="midnightblue" stroke="midnightblue" points="508.17,-550.15 516.92,-544.17 506.35,-543.39 508.17,-550.15"/>
</g>
<!-- Node19 -->
<g id="node19" class="node">
<title>Node19</title>
<g id="a_node19"><a xlink:href="redirection__multipipe_8c.html#a19e2c31eeb0eb25575df2277cbd7774e" target="_top" xlink:title=" ">
<polygon fill="none" stroke="black" points="503,-601.17 503,-620.17 611,-620.17 611,-601.17 503,-601.17"/>
<text text-anchor="middle" x="557" y="-608.17" font-family="Helvetica,sans-Serif" font-size="10.00">command_redirect</text>
</a>
</g>
</g>
<!-- Node17&#45;&gt;Node19 -->
<g id="edge26" class="edge">
<title>Node17&#45;&gt;Node19</title>
<path fill="none" stroke="midnightblue" d="M425.14,-596.17C445.33,-598.4 470.18,-601.16 492.78,-603.66"/>
<polygon fill="midnightblue" stroke="midnightblue" points="492.65,-607.17 502.98,-604.79 493.42,-600.21 492.65,-607.17"/>
</g>
<!-- Node22 -->
<g id="node22" class="node">
<title>Node22</title>
<g id="a_node22"><a xlink:href="lst__env_8c.html#a226ae0aa054e697998b2ecbc5d61d592" target="_top" xlink:title=" ">
<polygon fill="none" stroke="black" points="512.5,-563.17 512.5,-582.17 601.5,-582.17 601.5,-563.17 512.5,-563.17"/>
<text text-anchor="middle" x="557" y="-570.17" font-family="Helvetica,sans-Serif" font-size="10.00">destructor_env</text>
</a>
</g>
</g>
<!-- Node17&#45;&gt;Node22 -->
<g id="edge33" class="edge">
<title>Node17&#45;&gt;Node22</title>
<path fill="none" stroke="midnightblue" d="M425.14,-587.16C448.21,-584.61 477.37,-581.38 502.31,-578.61"/>
<polygon fill="midnightblue" stroke="midnightblue" points="502.79,-582.08 512.35,-577.5 502.02,-575.12 502.79,-582.08"/>
</g>
<!-- Node24 -->
<g id="node24" class="node">
<title>Node24</title>
<g id="a_node24"><a xlink:href="execution__node_8c.html#a6cfdc545c2222bbb0ca1dfc8431f72a3" target="_top" xlink:title="we are going to execute the command here we have a security about absolute path given =&gt; because it&#39;s...">
<polygon fill="none" stroke="black" points="510.5,-734.17 510.5,-753.17 603.5,-753.17 603.5,-734.17 510.5,-734.17"/>
<text text-anchor="middle" x="557" y="-741.17" font-family="Helvetica,sans-Serif" font-size="10.00">execution_node</text>
</a>
</g>
</g>
<!-- Node17&#45;&gt;Node24 -->
<g id="edge35" class="edge">
<title>Node17&#45;&gt;Node24</title>
<path fill="none" stroke="midnightblue" d="M395.23,-601.17C423.74,-626.44 501.67,-695.51 537.51,-727.28"/>
<polygon fill="midnightblue" stroke="midnightblue" points="535.47,-730.15 545.28,-734.16 540.11,-724.91 535.47,-730.15"/>
</g>
<!-- Node19&#45;&gt;Node3 -->
<g id="edge31" class="edge">
<title>Node19&#45;&gt;Node3</title>
<path fill="none" stroke="midnightblue" d="M600.04,-620.17C648.97,-628.58 729.39,-633.79 779,-591.67 826.23,-551.57 851.83,-352.49 858.93,-288.51"/>
<polygon fill="midnightblue" stroke="midnightblue" points="862.45,-288.52 860.04,-278.2 855.49,-287.77 862.45,-288.52"/>
</g>
<!-- Node20 -->
<g id="node20" class="node">
<title>Node20</title>
<g id="a_node20"><a xlink:href="redirection__multipipe_8c.html#a3a0d7f695cf53df46301e14ffab77638" target="_top" xlink:title=" ">
<polygon fill="none" stroke="black" points="678,-563.17 678,-582.17 767,-582.17 767,-563.17 678,-563.17"/>
<text text-anchor="middle" x="722.5" y="-570.17" font-family="Helvetica,sans-Serif" font-size="10.00">close_previous</text>
</a>
</g>
</g>
<!-- Node19&#45;&gt;Node20 -->
<g id="edge27" class="edge">
<title>Node19&#45;&gt;Node20</title>
<path fill="none" stroke="midnightblue" d="M599.26,-601.08C620.93,-596.04 647.68,-589.82 670.63,-584.49"/>
<polygon fill="midnightblue" stroke="midnightblue" points="671.59,-587.86 680.54,-582.19 670.01,-581.04 671.59,-587.86"/>
</g>
<!-- Node21 -->
<g id="node21" class="node">
<title>Node21</title>
<g id="a_node21"><a xlink:href="redirection__multipipe_8c.html#a5b749bc2b4088984c0efe1c479ae6ec8" target="_top" xlink:title=" ">
<polygon fill="none" stroke="black" points="682.5,-639.17 682.5,-658.17 762.5,-658.17 762.5,-639.17 682.5,-639.17"/>
<text text-anchor="middle" x="722.5" y="-646.17" font-family="Helvetica,sans-Serif" font-size="10.00">fail_previous</text>
</a>
</g>
</g>
<!-- Node19&#45;&gt;Node21 -->
<g id="edge29" class="edge">
<title>Node19&#45;&gt;Node21</title>
<path fill="none" stroke="midnightblue" d="M599.26,-620.25C621.43,-625.41 648.91,-631.79 672.19,-637.21"/>
<polygon fill="midnightblue" stroke="midnightblue" points="671.69,-640.68 682.23,-639.54 673.28,-633.86 671.69,-640.68"/>
</g>
<!-- Node20&#45;&gt;Node3 -->
<g id="edge28" class="edge">
<title>Node20&#45;&gt;Node3</title>
<path fill="none" stroke="midnightblue" d="M765.83,-563.15C770.72,-560.68 775.28,-557.58 779,-553.67 851.93,-477.02 860.61,-339.78 861.2,-288.62"/>
<polygon fill="midnightblue" stroke="midnightblue" points="864.7,-288.3 861.22,-278.3 857.7,-288.29 864.7,-288.3"/>
</g>
<!-- Node21&#45;&gt;Node3 -->
<g id="edge30" class="edge">
<title>Node21&#45;&gt;Node3</title>
<path fill="none" stroke="midnightblue" d="M759.08,-639.12C766.56,-635.64 773.76,-630.96 779,-624.67 822.84,-572.03 851.08,-354.77 858.83,-288.17"/>
<polygon fill="midnightblue" stroke="midnightblue" points="862.31,-288.51 859.97,-278.18 855.36,-287.72 862.31,-288.51"/>
</g>
<!-- Node23 -->
<g id="node23" class="node">
<title>Node23</title>
<g id="a_node23"><a xlink:href="lst__env_8c.html#a058c245b5f2ef22f9d2659f90e4d3537" target="_top" xlink:title=" ">
<polygon fill="none" stroke="black" points="693.5,-525.17 693.5,-544.17 751.5,-544.17 751.5,-525.17 693.5,-525.17"/>
<text text-anchor="middle" x="722.5" y="-532.17" font-family="Helvetica,sans-Serif" font-size="10.00">pop_env</text>
</a>
</g>
</g>
<!-- Node22&#45;&gt;Node23 -->
<g id="edge34" class="edge">
<title>Node22&#45;&gt;Node23</title>
<path fill="none" stroke="midnightblue" d="M599.26,-563.08C625.12,-557.07 658.21,-549.38 683.43,-543.51"/>
<polygon fill="midnightblue" stroke="midnightblue" points="684.43,-546.87 693.38,-541.2 682.84,-540.06 684.43,-546.87"/>
</g>
<!-- Node25 -->
<g id="node25" class="node">
<title>Node25</title>
<g id="a_node25"><a xlink:href="execution__node_8c.html#a74f4c34ebdc38c1fb50db2aa13f97b66" target="_top" xlink:title=" ">
<polygon fill="none" stroke="black" points="672,-829.17 672,-848.17 773,-848.17 773,-829.17 672,-829.17"/>
<text text-anchor="middle" x="722.5" y="-836.17" font-family="Helvetica,sans-Serif" font-size="10.00">check_accessible</text>
</a>
</g>
</g>
<!-- Node24&#45;&gt;Node25 -->
<g id="edge36" class="edge">
<title>Node24&#45;&gt;Node25</title>
<path fill="none" stroke="midnightblue" d="M603.55,-750.49C612.85,-753.27 622.17,-757.17 630,-762.67 653.01,-778.81 644.26,-796.84 666,-814.67 670.73,-818.55 676.19,-821.9 681.79,-824.77"/>
<polygon fill="midnightblue" stroke="midnightblue" points="680.71,-828.13 691.26,-829.16 683.65,-821.78 680.71,-828.13"/>
</g>
<!-- Node26 -->
<g id="node26" class="node">
<title>Node26</title>
<g id="a_node26"><a xlink:href="execution__node_8c.html#adc2c91230d4a0a1a1f98db2a888afcaa" target="_top" xlink:title="error message management for the specific case of execution">
<polygon fill="none" stroke="black" points="817.5,-791.17 817.5,-810.17 906.5,-810.17 906.5,-791.17 817.5,-791.17"/>
<text text-anchor="middle" x="862" y="-798.17" font-family="Helvetica,sans-Serif" font-size="10.00">message_error</text>
</a>
</g>
</g>
<!-- Node24&#45;&gt;Node26 -->
<g id="edge54" class="edge">
<title>Node24&#45;&gt;Node26</title>
<path fill="none" stroke="midnightblue" d="M600.77,-753.24C610.52,-755.89 620.73,-759.05 630,-762.67 646.86,-769.24 648.67,-776.47 666,-781.67 712.46,-795.6 767.66,-799.9 807.45,-800.99"/>
<polygon fill="midnightblue" stroke="midnightblue" points="807.4,-804.49 817.47,-801.2 807.55,-797.49 807.4,-804.49"/>
</g>
<!-- Node27 -->
<g id="node27" class="node">
<title>Node27</title>
<g id="a_node27"><a xlink:href="execution_8c.html#a3acc0bb56da881cc8609ca9e94ec8e93" target="_top" xlink:title="detect if it&#39;s a builtin with strncmp() but the real question is &quot;is it a builtin I have &#160;to launch i...">
<polygon fill="none" stroke="black" points="686,-677.17 686,-696.17 759,-696.17 759,-677.17 686,-677.17"/>
<text text-anchor="middle" x="722.5" y="-684.17" font-family="Helvetica,sans-Serif" font-size="10.00">is_it_builtin</text>
</a>
</g>
</g>
<!-- Node24&#45;&gt;Node27 -->
<g id="edge38" class="edge">
<title>Node24&#45;&gt;Node27</title>
<path fill="none" stroke="midnightblue" d="M585.05,-734.08C606.88,-726.35 638.4,-715.25 666,-705.67 671.73,-703.68 677.8,-701.58 683.74,-699.54"/>
<polygon fill="midnightblue" stroke="midnightblue" points="685.21,-702.74 693.53,-696.19 682.94,-696.12 685.21,-702.74"/>
</g>
<!-- Node28 -->
<g id="node28" class="node">
<title>Node28</title>
<g id="a_node28"><a xlink:href="execution_8c.html#a8b2bd9dba90bfc9b2ead44af5e630315" target="_top" xlink:title="launch the builtin &#160;&#160;some of them are not present because we have to fork() them why ?...">
<polygon fill="none" stroke="black" points="680,-886.17 680,-905.17 765,-905.17 765,-886.17 680,-886.17"/>
<text text-anchor="middle" x="722.5" y="-893.17" font-family="Helvetica,sans-Serif" font-size="10.00">launch_builtin</text>
</a>
</g>
</g>
<!-- Node24&#45;&gt;Node28 -->
<g id="edge39" class="edge">
<title>Node24&#45;&gt;Node28</title>
<path fill="none" stroke="midnightblue" d="M603.53,-748.77C613.14,-751.63 622.6,-756 630,-762.67 663.55,-792.89 638.09,-822.17 666,-857.67 673.29,-866.94 683.48,-874.82 693.14,-880.95"/>
<polygon fill="midnightblue" stroke="midnightblue" points="691.37,-883.98 701.76,-886.08 694.96,-877.96 691.37,-883.98"/>
</g>
<!-- Node39 -->
<g id="node39" class="node">
<title>Node39</title>
<g id="a_node39"><a xlink:href="lst__env__two_8c.html#aafcce0b2f2958645e84ae23b14116680" target="_top" xlink:title=" ">
<polygon fill="none" stroke="black" points="678.5,-715.17 678.5,-734.17 766.5,-734.17 766.5,-715.17 678.5,-715.17"/>
<text text-anchor="middle" x="722.5" y="-722.17" font-family="Helvetica,sans-Serif" font-size="10.00">lst_to_tab_env</text>
</a>
</g>
</g>
<!-- Node24&#45;&gt;Node39 -->
<g id="edge51" class="edge">
<title>Node24&#45;&gt;Node39</title>
<path fill="none" stroke="midnightblue" d="M603.54,-738.37C623.68,-736.03 647.49,-733.27 668.43,-730.83"/>
<polygon fill="midnightblue" stroke="midnightblue" points="668.92,-734.3 678.45,-729.67 668.11,-727.35 668.92,-734.3"/>
</g>
<!-- Node42 -->
<g id="node42" class="node">
<title>Node42</title>
<g id="a_node42"><a xlink:href="getenv_8c.html#a5d0cf05c2622983111dcfc0f179c5739" target="_top" xlink:title=" ">
<polygon fill="none" stroke="black" points="684.5,-753.17 684.5,-772.17 760.5,-772.17 760.5,-753.17 684.5,-753.17"/>
<text text-anchor="middle" x="722.5" y="-760.17" font-family="Helvetica,sans-Serif" font-size="10.00">search_path</text>
</a>
</g>
</g>
<!-- Node24&#45;&gt;Node42 -->
<g id="edge55" class="edge">
<title>Node24&#45;&gt;Node42</title>
<path fill="none" stroke="midnightblue" d="M603.54,-748.96C625.57,-751.52 651.99,-754.59 674.23,-757.17"/>
<polygon fill="midnightblue" stroke="midnightblue" points="674.12,-760.68 684.45,-758.36 674.92,-753.73 674.12,-760.68"/>
</g>
<!-- Node25&#45;&gt;Node26 -->
<g id="edge37" class="edge">
<title>Node25&#45;&gt;Node26</title>
<path fill="none" stroke="midnightblue" d="M758.2,-829.08C775.87,-824.19 797.55,-818.2 816.44,-812.98"/>
<polygon fill="midnightblue" stroke="midnightblue" points="817.61,-816.29 826.31,-810.25 815.74,-809.54 817.61,-816.29"/>
</g>
<!-- Node29 -->
<g id="node29" class="node">
<title>Node29</title>
<g id="a_node29"><a xlink:href="cd_8c.html#a68ca1d5a8272f17815cfd7394a24ad19" target="_top" xlink:title=" ">
<polygon fill="none" stroke="black" points="847.5,-829.17 847.5,-848.17 876.5,-848.17 876.5,-829.17 847.5,-829.17"/>
<text text-anchor="middle" x="862" y="-836.17" font-family="Helvetica,sans-Serif" font-size="10.00">cd</text>
</a>
</g>
</g>
<!-- Node28&#45;&gt;Node29 -->
<g id="edge40" class="edge">
<title>Node28&#45;&gt;Node29</title>
<path fill="none" stroke="midnightblue" d="M746.43,-886.13C764.94,-878.43 791.64,-867.34 815,-857.67 822.46,-854.57 830.61,-851.21 837.95,-848.18"/>
<polygon fill="midnightblue" stroke="midnightblue" points="839.4,-851.36 847.31,-844.31 836.73,-844.89 839.4,-851.36"/>
</g>
<!-- Node31 -->
<g id="node31" class="node">
<title>Node31</title>
<g id="a_node31"><a xlink:href="env_8c.html#ad7678c59b5365c776294bdeefd3d7583" target="_top" xlink:title=" ">
<polygon fill="none" stroke="black" points="983,-943.17 983,-962.17 1018,-962.17 1018,-943.17 983,-943.17"/>
<text text-anchor="middle" x="1000.5" y="-950.17" font-family="Helvetica,sans-Serif" font-size="10.00">env</text>
</a>
</g>
</g>
<!-- Node28&#45;&gt;Node31 -->
<g id="edge42" class="edge">
<title>Node28&#45;&gt;Node31</title>
<path fill="none" stroke="midnightblue" d="M741.88,-905.17C759.98,-914.08 788.65,-926.99 815,-933.67 869.88,-947.57 936.4,-951.34 972.69,-952.33"/>
<polygon fill="midnightblue" stroke="midnightblue" points="972.86,-955.84 982.93,-952.56 973.01,-948.84 972.86,-955.84"/>
</g>
<!-- Node32 -->
<g id="node32" class="node">
<title>Node32</title>
<g id="a_node32"><a xlink:href="export_8c.html#ab409cd8fcc654b7e32155051ded49ff5" target="_top" xlink:title=" ">
<polygon fill="none" stroke="black" points="838,-905.17 838,-924.17 886,-924.17 886,-905.17 838,-905.17"/>
<text text-anchor="middle" x="862" y="-912.17" font-family="Helvetica,sans-Serif" font-size="10.00">export</text>
</a>
</g>
</g>
<!-- Node28&#45;&gt;Node32 -->
<g id="edge43" class="edge">
<title>Node28&#45;&gt;Node32</title>
<path fill="none" stroke="midnightblue" d="M765.13,-901.42C785.27,-904.2 809.11,-907.49 827.98,-910.1"/>
<polygon fill="midnightblue" stroke="midnightblue" points="827.51,-913.57 837.89,-911.47 828.47,-906.64 827.51,-913.57"/>
</g>
<!-- Node37 -->
<g id="node37" class="node">
<title>Node37</title>
<g id="a_node37"><a xlink:href="my__echo_8c.html#a5522916069f77552d810e207670e3170" target="_top" xlink:title=" ">
<polygon fill="none" stroke="black" points="831.5,-867.17 831.5,-886.17 892.5,-886.17 892.5,-867.17 831.5,-867.17"/>
<text text-anchor="middle" x="862" y="-874.17" font-family="Helvetica,sans-Serif" font-size="10.00">my_echo</text>
</a>
</g>
</g>
<!-- Node28&#45;&gt;Node37 -->
<g id="edge49" class="edge">
<title>Node28&#45;&gt;Node37</title>
<path fill="none" stroke="midnightblue" d="M765.13,-889.91C782.97,-887.45 803.71,-884.58 821.33,-882.15"/>
<polygon fill="midnightblue" stroke="midnightblue" points="821.87,-885.61 831.3,-880.77 820.91,-878.67 821.87,-885.61"/>
</g>
<!-- Node38 -->
<g id="node38" class="node">
<title>Node38</title>
<g id="a_node38"><a xlink:href="pwd_8c.html#ab62618359287b6604bd60852145b9726" target="_top" xlink:title=" ">
<polygon fill="none" stroke="black" points="843.5,-981.17 843.5,-1000.17 880.5,-1000.17 880.5,-981.17 843.5,-981.17"/>
<text text-anchor="middle" x="862" y="-988.17" font-family="Helvetica,sans-Serif" font-size="10.00">pwd</text>
</a>
</g>
</g>
<!-- Node28&#45;&gt;Node38 -->
<g id="edge50" class="edge">
<title>Node28&#45;&gt;Node38</title>
<path fill="none" stroke="midnightblue" d="M734.57,-905.32C751.31,-919.66 784.37,-947.01 815,-966.67 821.01,-970.52 827.71,-974.29 834.1,-977.66"/>
<polygon fill="midnightblue" stroke="midnightblue" points="832.61,-980.83 843.11,-982.27 835.8,-974.6 832.61,-980.83"/>
</g>
<!-- Node30 -->
<g id="node30" class="node">
<title>Node30</title>
<g id="a_node30"><a xlink:href="lst__env__two_8c.html#a4d4a14327b2c3ff88099102b6bd77986" target="_top" xlink:title=" ">
<polygon fill="none" stroke="black" points="948.5,-772.17 948.5,-791.17 1052.5,-791.17 1052.5,-772.17 948.5,-772.17"/>
<text text-anchor="middle" x="1000.5" y="-779.17" font-family="Helvetica,sans-Serif" font-size="10.00">research_key_env</text>
</a>
</g>
</g>
<!-- Node29&#45;&gt;Node30 -->
<g id="edge41" class="edge">
<title>Node29&#45;&gt;Node30</title>
<path fill="none" stroke="midnightblue" d="M876.7,-833.03C885.85,-829.26 898.15,-824.18 909,-819.67 928.33,-811.61 949.96,-802.54 967.22,-795.27"/>
<polygon fill="midnightblue" stroke="midnightblue" points="968.97,-798.33 976.83,-791.23 966.25,-791.88 968.97,-798.33"/>
</g>
<!-- Node32&#45;&gt;Node31 -->
<g id="edge45" class="edge">
<title>Node32&#45;&gt;Node31</title>
<path fill="none" stroke="midnightblue" d="M886.16,-921.11C910.22,-927.81 947.83,-938.28 973.05,-945.3"/>
<polygon fill="midnightblue" stroke="midnightblue" points="972.13,-948.68 982.7,-947.99 974.01,-941.94 972.13,-948.68"/>
</g>
<!-- Node33 -->
<g id="node33" class="node">
<title>Node33</title>
<g id="a_node33"><a xlink:href="lst__env_8c.html#a9c375db3cbfe2e87b52bae7ee7472eae" target="_top" xlink:title=" ">
<polygon fill="none" stroke="black" points="950.5,-905.17 950.5,-924.17 1050.5,-924.17 1050.5,-905.17 950.5,-905.17"/>
<text text-anchor="middle" x="1000.5" y="-912.17" font-family="Helvetica,sans-Serif" font-size="10.00">create_node_env</text>
</a>
</g>
</g>
<!-- Node32&#45;&gt;Node33 -->
<g id="edge44" class="edge">
<title>Node32&#45;&gt;Node33</title>
<path fill="none" stroke="midnightblue" d="M886.16,-914.67C901.05,-914.67 921.13,-914.67 940.25,-914.67"/>
<polygon fill="midnightblue" stroke="midnightblue" points="940.43,-918.17 950.43,-914.67 940.43,-911.17 940.43,-918.17"/>
</g>
<!-- Node34 -->
<g id="node34" class="node">
<title>Node34</title>
<g id="a_node34"><a xlink:href="lst__env_8c.html#a5976d1b2a8159220749fac94a83d5c95" target="_top" xlink:title=" ">
<polygon fill="none" stroke="black" points="954.5,-867.17 954.5,-886.17 1046.5,-886.17 1046.5,-867.17 954.5,-867.17"/>
<text text-anchor="middle" x="1000.5" y="-874.17" font-family="Helvetica,sans-Serif" font-size="10.00">push_back_env</text>
</a>
</g>
</g>
<!-- Node32&#45;&gt;Node34 -->
<g id="edge46" class="edge">
<title>Node32&#45;&gt;Node34</title>
<path fill="none" stroke="midnightblue" d="M886.16,-908.22C905.04,-902.96 932.26,-895.38 955.29,-888.97"/>
<polygon fill="midnightblue" stroke="midnightblue" points="956.5,-892.27 965.2,-886.21 954.63,-885.52 956.5,-892.27"/>
</g>
<!-- Node36 -->
<g id="node36" class="node">
<title>Node36</title>
<g id="a_node36"><a xlink:href="export_8c.html#a2db1828ad3293b53b14b47a11c636e51" target="_top" xlink:title=" ">
<polygon fill="none" stroke="black" points="945,-829.17 945,-848.17 1056,-848.17 1056,-829.17 945,-829.17"/>
<text text-anchor="middle" x="1000.5" y="-836.17" font-family="Helvetica,sans-Serif" font-size="10.00">research_node_env</text>
</a>
</g>
</g>
<!-- Node32&#45;&gt;Node36 -->
<g id="edge48" class="edge">
<title>Node32&#45;&gt;Node36</title>
<path fill="none" stroke="midnightblue" d="M886.43,-907.18C893.99,-904.21 902.16,-900.36 909,-895.67 928.17,-882.49 925.46,-870.3 945,-857.67 948.08,-855.67 951.4,-853.86 954.83,-852.22"/>
<polygon fill="midnightblue" stroke="midnightblue" points="956.23,-855.42 964.04,-848.26 953.47,-848.99 956.23,-855.42"/>
</g>
<!-- Node35 -->
<g id="node35" class="node">
<title>Node35</title>
<g id="a_node35"><a xlink:href="env__utils_8c.html#ac7b3f84bb622bdf477616c5b0022f035" target="_top" xlink:title=" ">
<polygon fill="none" stroke="black" points="1092,-867.17 1092,-886.17 1171,-886.17 1171,-867.17 1092,-867.17"/>
<text text-anchor="middle" x="1131.5" y="-874.17" font-family="Helvetica,sans-Serif" font-size="10.00">get_last_env</text>
</a>
</g>
</g>
<!-- Node34&#45;&gt;Node35 -->
<g id="edge47" class="edge">
<title>Node34&#45;&gt;Node35</title>
<path fill="none" stroke="midnightblue" d="M1046.62,-876.67C1057.85,-876.67 1069.96,-876.67 1081.38,-876.67"/>
<polygon fill="midnightblue" stroke="midnightblue" points="1081.63,-880.17 1091.63,-876.67 1081.63,-873.17 1081.63,-880.17"/>
</g>
<!-- Node40 -->
<g id="node40" class="node">
<title>Node40</title>
<g id="a_node40"><a xlink:href="env__utils_8c.html#a7cc35c974bce053dbba1c1ec1028f36b" target="_top" xlink:title=" ">
<polygon fill="none" stroke="black" points="823.5,-677.17 823.5,-696.17 900.5,-696.17 900.5,-677.17 823.5,-677.17"/>
<text text-anchor="middle" x="862" y="-684.17" font-family="Helvetica,sans-Serif" font-size="10.00">env_lst_size</text>
</a>
</g>
</g>
<!-- Node39&#45;&gt;Node40 -->
<g id="edge52" class="edge">
<title>Node39&#45;&gt;Node40</title>
<path fill="none" stroke="midnightblue" d="M758.2,-715.08C775.87,-710.19 797.55,-704.2 816.44,-698.98"/>
<polygon fill="midnightblue" stroke="midnightblue" points="817.61,-702.29 826.31,-696.25 815.74,-695.54 817.61,-702.29"/>
</g>
<!-- Node41 -->
<g id="node41" class="node">
<title>Node41</title>
<g id="a_node41"><a xlink:href="getenv_8c.html#a0250cce1862c20e31d0c0ece960bc3a0" target="_top" xlink:title=" ">
<polygon fill="none" stroke="black" points="831,-715.17 831,-734.17 893,-734.17 893,-715.17 831,-715.17"/>
<text text-anchor="middle" x="862" y="-722.17" font-family="Helvetica,sans-Serif" font-size="10.00">join_path</text>
</a>
</g>
</g>
<!-- Node39&#45;&gt;Node41 -->
<g id="edge53" class="edge">
<title>Node39&#45;&gt;Node41</title>
<path fill="none" stroke="midnightblue" d="M766.63,-724.67C783.85,-724.67 803.57,-724.67 820.51,-724.67"/>
<polygon fill="midnightblue" stroke="midnightblue" points="820.66,-728.17 830.66,-724.67 820.66,-721.17 820.66,-728.17"/>
</g>
<!-- Node42&#45;&gt;Node30 -->
<g id="edge57" class="edge">
<title>Node42&#45;&gt;Node30</title>
<path fill="none" stroke="midnightblue" d="M760.72,-765.23C806.2,-768.36 883.79,-773.7 938.14,-777.44"/>
<polygon fill="midnightblue" stroke="midnightblue" points="938.13,-780.95 948.35,-778.14 938.61,-773.97 938.13,-780.95"/>
</g>
<!-- Node42&#45;&gt;Node41 -->
<g id="edge56" class="edge">
<title>Node42&#45;&gt;Node41</title>
<path fill="none" stroke="midnightblue" d="M758.2,-753.08C777.39,-747.77 801.32,-741.16 821.26,-735.65"/>
<polygon fill="midnightblue" stroke="midnightblue" points="822.28,-739 830.98,-732.96 820.41,-732.25 822.28,-739"/>
</g>
<!-- Node43&#45;&gt;Node3 -->
<g id="edge60" class="edge">
<title>Node43&#45;&gt;Node3</title>
<path fill="none" stroke="midnightblue" d="M448.17,-98.04C545.38,-99.69 725.2,-107.32 779,-140.67 819.96,-166.05 844.2,-220.33 854.74,-249.38"/>
<polygon fill="midnightblue" stroke="midnightblue" points="851.44,-250.53 858.01,-258.84 858.05,-248.25 851.44,-250.53"/>
</g>
<!-- Node44 -->
<g id="node44" class="node">
<title>Node44</title>
<g id="a_node44"><a xlink:href="redirection__verification_8c.html#a95641b4885e9c0b07b477846c96c0d2f" target="_top" xlink:title="we have to check if the file exist then if we are allowed to open it in any error case we write a mes...">
<polygon fill="none" stroke="black" points="508,-69.17 508,-88.17 606,-88.17 606,-69.17 508,-69.17"/>
<text text-anchor="middle" x="557" y="-76.17" font-family="Helvetica,sans-Serif" font-size="10.00">infile_redirection</text>
</a>
</g>
</g>
<!-- Node43&#45;&gt;Node44 -->
<g id="edge61" class="edge">
<title>Node43&#45;&gt;Node44</title>
<path fill="none" stroke="midnightblue" d="M448.36,-90.59C464.53,-88.8 481.82,-86.88 497.7,-85.12"/>
<polygon fill="midnightblue" stroke="midnightblue" points="498.35,-88.57 507.9,-83.99 497.58,-81.62 498.35,-88.57"/>
</g>
<!-- Node46 -->
<g id="node46" class="node">
<title>Node46</title>
<g id="a_node46"><a xlink:href="redirection__verification_8c.html#ac61790fa82f2a9b6b904cd92135b6acb" target="_top" xlink:title="outfile and append are open with the right flags in a case of an error we write a message with the na...">
<polygon fill="none" stroke="black" points="484,-31.17 484,-50.17 630,-50.17 630,-31.17 484,-31.17"/>
<text text-anchor="middle" x="557" y="-38.17" font-family="Helvetica,sans-Serif" font-size="10.00">outfile_append_redirection</text>
</a>
</g>
</g>
<!-- Node43&#45;&gt;Node46 -->
<g id="edge65" class="edge">
<title>Node43&#45;&gt;Node46</title>
<path fill="none" stroke="midnightblue" d="M407.57,-88.05C427.58,-79.9 457.42,-68.22 484,-59.67 491.44,-57.27 499.38,-54.95 507.18,-52.79"/>
<polygon fill="midnightblue" stroke="midnightblue" points="508.17,-56.15 516.92,-50.17 506.35,-49.39 508.17,-56.15"/>
</g>
<!-- Node44&#45;&gt;Node3 -->
<g id="edge64" class="edge">
<title>Node44&#45;&gt;Node3</title>
<path fill="none" stroke="midnightblue" d="M606.12,-71.38C654.25,-66.75 728.23,-67.18 779,-102.67 829.4,-137.89 850.26,-213.17 857.59,-248.96"/>
<polygon fill="midnightblue" stroke="midnightblue" points="854.21,-249.93 859.52,-259.1 861.09,-248.62 854.21,-249.93"/>
</g>
<!-- Node45 -->
<g id="node45" class="node">
<title>Node45</title>
<g id="a_node45"><a xlink:href="redirection__verification_8c.html#a5b79f4b52353f6558575b5da0dd28fd4" target="_top" xlink:title="we close the fd_in and fd_out in case of a fail this function is able to manage the error coming from...">
<polygon fill="none" stroke="black" points="679.5,-31.17 679.5,-50.17 765.5,-50.17 765.5,-31.17 679.5,-31.17"/>
<text text-anchor="middle" x="722.5" y="-38.17" font-family="Helvetica,sans-Serif" font-size="10.00">close_fd_error</text>
</a>
</g>
</g>
<!-- Node44&#45;&gt;Node45 -->
<g id="edge62" class="edge">
<title>Node44&#45;&gt;Node45</title>
<path fill="none" stroke="midnightblue" d="M599.26,-69.08C620.93,-64.04 647.68,-57.82 670.63,-52.49"/>
<polygon fill="midnightblue" stroke="midnightblue" points="671.59,-55.86 680.54,-50.19 670.01,-49.04 671.59,-55.86"/>
</g>
<!-- Node45&#45;&gt;Node3 -->
<g id="edge63" class="edge">
<title>Node45&#45;&gt;Node3</title>
<path fill="none" stroke="midnightblue" d="M756.95,-50.18C764.95,-53.71 772.92,-58.42 779,-64.67 831,-118.03 851.37,-208.61 858.12,-248.64"/>
<polygon fill="midnightblue" stroke="midnightblue" points="854.69,-249.38 859.71,-258.72 861.61,-248.3 854.69,-249.38"/>
</g>
<!-- Node46&#45;&gt;Node3 -->
<g id="edge67" class="edge">
<title>Node46&#45;&gt;Node3</title>
<path fill="none" stroke="midnightblue" d="M578,-31.03C619.77,-12.45 717.48,22.73 779,-21.67 853.79,-75.64 861.45,-200.59 861.48,-249"/>
<polygon fill="midnightblue" stroke="midnightblue" points="857.98,-249.06 861.37,-259.1 864.98,-249.14 857.98,-249.06"/>
</g>
<!-- Node46&#45;&gt;Node45 -->
<g id="edge66" class="edge">
<title>Node46&#45;&gt;Node45</title>
<path fill="none" stroke="midnightblue" d="M630.19,-40.67C643.29,-40.67 656.72,-40.67 669.11,-40.67"/>
<polygon fill="midnightblue" stroke="midnightblue" points="669.25,-44.17 679.25,-40.67 669.25,-37.17 669.25,-44.17"/>
</g>
</g>
</svg>
