<?xml version="1.0" encoding="UTF-8" standalone="no"?>
<!DOCTYPE svg PUBLIC "-//W3C//DTD SVG 1.1//EN"
 "http://www.w3.org/Graphics/SVG/1.1/DTD/svg11.dtd">
<!-- Generated by graphviz version 2.43.0 (0)
 -->
<!-- Title: advance Pages: 1 -->
<svg width="513pt" height="218pt"
 viewBox="0.00 0.00 513.00 218.00" xmlns="http://www.w3.org/2000/svg" xmlns:xlink="http://www.w3.org/1999/xlink">
<g id="graph0" class="graph" transform="scale(1 1) rotate(0) translate(4 214)">
<title>advance</title>
<!-- Node1 -->
<g id="node1" class="node">
<title>Node1</title>
<g id="a_node1"><a xlink:title="Advance one byte in the struct t_lexer to keep track of progress.">
<polygon fill="#bfbfbf" stroke="black" points="447,-95.5 447,-114.5 505,-114.5 505,-95.5 447,-95.5"/>
<text text-anchor="middle" x="476" y="-102.5" font-family="Helvetica,sans-Serif" font-size="10.00">advance</text>
</a>
</g>
</g>
<!-- Node2 -->
<g id="node2" class="node">
<title>Node2</title>
<g id="a_node2"><a xlink:href="lexer__word_8c.html#a088ba907ca2f9f7d89809627a5ef8313" target="_top" xlink:title="Lexes a segment delimited by double quotes.">
<polygon fill="none" stroke="black" points="274,-190.5 274,-209.5 411,-209.5 411,-190.5 274,-190.5"/>
<text text-anchor="middle" x="342.5" y="-197.5" font-family="Helvetica,sans-Serif" font-size="10.00">double_quoted_segment</text>
</a>
</g>
</g>
<!-- Node1&#45;&gt;Node2 -->
<g id="edge1" class="edge">
<title>Node1&#45;&gt;Node2</title>
<path fill="none" stroke="midnightblue" d="M462.69,-123.12C451.04,-139.04 432.22,-161.81 411,-176 401.9,-182.08 391.08,-186.82 380.8,-190.42"/>
<polygon fill="midnightblue" stroke="midnightblue" points="465.76,-124.85 468.68,-114.66 460.05,-120.8 465.76,-124.85"/>
</g>
<!-- Node3 -->
<g id="node3" class="node">
<title>Node3</title>
<g id="a_node3"><a xlink:href="lexer__word_8c.html#a4093905b7d1dfe02710752ee5da8fe01" target="_top" xlink:title="Lexes the string to create a WORD token.">
<polygon fill="none" stroke="black" points="165.5,-114.5 165.5,-133.5 226.5,-133.5 226.5,-114.5 165.5,-114.5"/>
<text text-anchor="middle" x="196" y="-121.5" font-family="Helvetica,sans-Serif" font-size="10.00">lex_word</text>
</a>
</g>
</g>
<!-- Node1&#45;&gt;Node3 -->
<g id="edge9" class="edge">
<title>Node1&#45;&gt;Node3</title>
<path fill="none" stroke="midnightblue" d="M454.82,-120.81C442.83,-129.2 426.89,-138.64 411,-143 346.98,-160.57 268.53,-144.52 226.66,-133.11"/>
<polygon fill="midnightblue" stroke="midnightblue" points="457.16,-123.44 463.16,-114.71 453.02,-117.79 457.16,-123.44"/>
</g>
<!-- Node6 -->
<g id="node6" class="node">
<title>Node6</title>
<g id="a_node6"><a xlink:href="lexer__word_8c.html#ad7d5fd37a954794c29d8d8b4807c233e" target="_top" xlink:title="Handle backslash to escape next char correctly.">
<polygon fill="none" stroke="black" points="293,-114.5 293,-133.5 392,-133.5 392,-114.5 293,-114.5"/>
<text text-anchor="middle" x="342.5" y="-121.5" font-family="Helvetica,sans-Serif" font-size="10.00">escape_segment</text>
</a>
</g>
</g>
<!-- Node1&#45;&gt;Node6 -->
<g id="edge5" class="edge">
<title>Node1&#45;&gt;Node6</title>
<path fill="none" stroke="midnightblue" d="M436.59,-110.55C422.68,-112.56 406.79,-114.86 392.11,-116.98"/>
<polygon fill="midnightblue" stroke="midnightblue" points="437.39,-113.97 446.79,-109.08 436.39,-107.04 437.39,-113.97"/>
</g>
<!-- Node7 -->
<g id="node7" class="node">
<title>Node7</title>
<g id="a_node7"><a xlink:href="lexer_8c.html#a4224de0ac9d722a19a477ae2880f54da" target="_top" xlink:title="Make the operator in the global string a token.">
<polygon fill="none" stroke="black" points="157,-38.5 157,-57.5 235,-57.5 235,-38.5 157,-38.5"/>
<text text-anchor="middle" x="196" y="-45.5" font-family="Helvetica,sans-Serif" font-size="10.00">lex_operator</text>
</a>
</g>
</g>
<!-- Node1&#45;&gt;Node7 -->
<g id="edge7" class="edge">
<title>Node1&#45;&gt;Node7</title>
<path fill="none" stroke="midnightblue" d="M454.21,-89.41C442.22,-81.27 426.48,-72 411,-67 351.72,-47.87 278.71,-45.61 235.12,-46.36"/>
<polygon fill="midnightblue" stroke="midnightblue" points="452.4,-92.41 462.59,-95.31 456.43,-86.69 452.4,-92.41"/>
</g>
<!-- Node8 -->
<g id="node8" class="node">
<title>Node8</title>
<g id="a_node8"><a xlink:href="lexer__word_8c.html#ad9e7809fee584699717eb691257a6ded" target="_top" xlink:title="Lexes a segment delimited by single quotes.">
<polygon fill="none" stroke="black" points="276,-76.5 276,-95.5 409,-95.5 409,-76.5 276,-76.5"/>
<text text-anchor="middle" x="342.5" y="-83.5" font-family="Helvetica,sans-Serif" font-size="10.00">single_quoted_segment</text>
</a>
</g>
</g>
<!-- Node1&#45;&gt;Node8 -->
<g id="edge10" class="edge">
<title>Node1&#45;&gt;Node8</title>
<path fill="none" stroke="midnightblue" d="M436.68,-99.46C428.04,-98.22 418.63,-96.86 409.22,-95.5"/>
<polygon fill="midnightblue" stroke="midnightblue" points="436.39,-102.96 446.79,-100.92 437.39,-96.03 436.39,-102.96"/>
</g>
<!-- Node9 -->
<g id="node9" class="node">
<title>Node9</title>
<g id="a_node9"><a xlink:href="lexer__utils_8c.html#a0665b31ffb5665ad2a085f2b1a5e0e25" target="_top" xlink:title="Skip whitespaces in the t_lexer struct.">
<polygon fill="none" stroke="black" points="154,-0.5 154,-19.5 238,-19.5 238,-0.5 154,-0.5"/>
<text text-anchor="middle" x="196" y="-7.5" font-family="Helvetica,sans-Serif" font-size="10.00">skip_wspaces</text>
</a>
</g>
</g>
<!-- Node1&#45;&gt;Node9 -->
<g id="edge12" class="edge">
<title>Node1&#45;&gt;Node9</title>
<path fill="none" stroke="midnightblue" d="M462.1,-87.12C450.48,-72.47 432.03,-52.49 411,-42 355.71,-14.4 283.11,-9.06 238.28,-8.76"/>
<polygon fill="midnightblue" stroke="midnightblue" points="459.57,-89.59 468.41,-95.43 465.15,-85.35 459.57,-89.59"/>
</g>
<!-- Node2&#45;&gt;Node3 -->
<g id="edge2" class="edge">
<title>Node2&#45;&gt;Node3</title>
<path fill="none" stroke="midnightblue" d="M299.9,-187.07C291.17,-183.84 282.15,-180.12 274,-176 249.67,-163.71 223.9,-144.98 209.2,-133.68"/>
<polygon fill="midnightblue" stroke="midnightblue" points="298.97,-190.45 309.56,-190.49 301.3,-183.85 298.97,-190.45"/>
</g>
<!-- Node4 -->
<g id="node4" class="node">
<title>Node4</title>
<g id="a_node4"><a xlink:href="lexer_8c.html#aced469451204cf536fd18b4cf94f6b91" target="_top" xlink:title="Global lexing function, that traverses readline&#39;s string and separate in tokens.">
<polygon fill="none" stroke="black" points="77,-38.5 77,-57.5 118,-57.5 118,-38.5 77,-38.5"/>
<text text-anchor="middle" x="97.5" y="-45.5" font-family="Helvetica,sans-Serif" font-size="10.00">lexer</text>
</a>
</g>
</g>
<!-- Node3&#45;&gt;Node4 -->
<g id="edge3" class="edge">
<title>Node3&#45;&gt;Node4</title>
<path fill="none" stroke="midnightblue" d="M174.85,-108.13C155.44,-92.85 126.74,-70.24 110.62,-57.55"/>
<polygon fill="midnightblue" stroke="midnightblue" points="172.76,-110.94 182.78,-114.37 177.09,-105.44 172.76,-110.94"/>
</g>
<!-- Node5 -->
<g id="node5" class="node">
<title>Node5</title>
<g id="a_node5"><a xlink:href="main_8c.html#a647f21a28344e1d9c643f4115516d7c9" target="_top" xlink:title=" ">
<polygon fill="none" stroke="black" points="0,-38.5 0,-57.5 41,-57.5 41,-38.5 0,-38.5"/>
<text text-anchor="middle" x="20.5" y="-45.5" font-family="Helvetica,sans-Serif" font-size="10.00">main</text>
</a>
</g>
</g>
<!-- Node4&#45;&gt;Node5 -->
<g id="edge4" class="edge">
<title>Node4&#45;&gt;Node5</title>
<path fill="none" stroke="midnightblue" d="M66.69,-48C58.08,-48 48.9,-48 41.07,-48"/>
<polygon fill="midnightblue" stroke="midnightblue" points="66.79,-51.5 76.79,-48 66.79,-44.5 66.79,-51.5"/>
</g>
<!-- Node6&#45;&gt;Node3 -->
<g id="edge6" class="edge">
<title>Node6&#45;&gt;Node3</title>
<path fill="none" stroke="midnightblue" d="M282.74,-124C263.45,-124 242.83,-124 226.65,-124"/>
<polygon fill="midnightblue" stroke="midnightblue" points="282.98,-127.5 292.98,-124 282.98,-120.5 282.98,-127.5"/>
</g>
<!-- Node7&#45;&gt;Node4 -->
<g id="edge8" class="edge">
<title>Node7&#45;&gt;Node4</title>
<path fill="none" stroke="midnightblue" d="M146.77,-48C136.61,-48 126.45,-48 118.09,-48"/>
<polygon fill="midnightblue" stroke="midnightblue" points="146.86,-51.5 156.86,-48 146.86,-44.5 146.86,-51.5"/>
</g>
<!-- Node8&#45;&gt;Node3 -->
<g id="edge11" class="edge">
<title>Node8&#45;&gt;Node3</title>
<path fill="none" stroke="midnightblue" d="M295.34,-98.14C272.83,-104.06 246.42,-111 226.65,-116.2"/>
<polygon fill="midnightblue" stroke="midnightblue" points="296.26,-101.52 305.04,-95.59 294.48,-94.75 296.26,-101.52"/>
</g>
<!-- Node9&#45;&gt;Node4 -->
<g id="edge13" class="edge">
<title>Node9&#45;&gt;Node4</title>
<path fill="none" stroke="midnightblue" d="M161.1,-23.35C146.79,-28.98 130.62,-35.35 118.3,-40.2"/>
<polygon fill="midnightblue" stroke="midnightblue" points="162.63,-26.51 170.65,-19.59 160.06,-20 162.63,-26.51"/>
</g>
</g>
</svg>
