<?xml version="1.0" encoding="UTF-8" standalone="no"?>
<!DOCTYPE svg PUBLIC "-//W3C//DTD SVG 1.1//EN"
 "http://www.w3.org/Graphics/SVG/1.1/DTD/svg11.dtd">
<!-- Generated by graphviz version 2.43.0 (0)
 -->
<!-- Title: syntax_error Pages: 1 -->
<svg width="682pt" height="66pt"
 viewBox="0.00 0.00 682.00 66.00" xmlns="http://www.w3.org/2000/svg" xmlns:xlink="http://www.w3.org/1999/xlink">
<g id="graph0" class="graph" transform="scale(1 1) rotate(0) translate(4 62)">
<title>syntax_error</title>
<!-- Node1 -->
<g id="node1" class="node">
<title>Node1</title>
<g id="a_node1"><a xlink:title=" ">
<polygon fill="#bfbfbf" stroke="black" points="0,-19.5 0,-38.5 78,-38.5 78,-19.5 0,-19.5"/>
<text text-anchor="middle" x="39" y="-26.5" font-family="Helvetica,sans-Serif" font-size="10.00">syntax_error</text>
</a>
</g>
</g>
<!-- Node2 -->
<g id="node2" class="node">
<title>Node2</title>
<g id="a_node2"><a xlink:href="error_8c.html#a193034f887c71fdb2486835d8cbd9dd3" target="_top" xlink:title=" ">
<polygon fill="none" stroke="black" points="114,-19.5 114,-38.5 221,-38.5 221,-19.5 114,-19.5"/>
<text text-anchor="middle" x="167.5" y="-26.5" font-family="Helvetica,sans-Serif" font-size="10.00">parsing_destructor</text>
</a>
</g>
</g>
<!-- Node1&#45;&gt;Node2 -->
<g id="edge1" class="edge">
<title>Node1&#45;&gt;Node2</title>
<path fill="none" stroke="midnightblue" d="M78.3,-29C86.35,-29 95.04,-29 103.72,-29"/>
<polygon fill="midnightblue" stroke="midnightblue" points="103.86,-32.5 113.86,-29 103.86,-25.5 103.86,-32.5"/>
</g>
<!-- Node3 -->
<g id="node3" class="node">
<title>Node3</title>
<g id="a_node3"><a xlink:href="lst__cmd2_8c.html#a132395876bb5a7cfe926b9e37571a1e3" target="_top" xlink:title=" ">
<polygon fill="none" stroke="black" points="257,-38.5 257,-57.5 349,-57.5 349,-38.5 257,-38.5"/>
<text text-anchor="middle" x="303" y="-45.5" font-family="Helvetica,sans-Serif" font-size="10.00">destructor_cmd</text>
</a>
</g>
</g>
<!-- Node2&#45;&gt;Node3 -->
<g id="edge2" class="edge">
<title>Node2&#45;&gt;Node3</title>
<path fill="none" stroke="midnightblue" d="M221.26,-36.51C229.66,-37.7 238.36,-38.94 246.81,-40.14"/>
<polygon fill="midnightblue" stroke="midnightblue" points="246.55,-43.64 256.95,-41.59 247.54,-36.71 246.55,-43.64"/>
</g>
<!-- Node7 -->
<g id="node7" class="node">
<title>Node7</title>
<g id="a_node7"><a xlink:href="token__utils_8c.html#ab3d9f0b7ddaf8661f8a3b3243d33bce7" target="_top" xlink:title="Free t_token entire linked list.">
<polygon fill="none" stroke="black" points="266,-0.5 266,-19.5 340,-19.5 340,-0.5 266,-0.5"/>
<text text-anchor="middle" x="303" y="-7.5" font-family="Helvetica,sans-Serif" font-size="10.00">free_tokens</text>
</a>
</g>
</g>
<!-- Node2&#45;&gt;Node7 -->
<g id="edge6" class="edge">
<title>Node2&#45;&gt;Node7</title>
<path fill="none" stroke="midnightblue" d="M221.26,-21.49C232.65,-19.87 244.6,-18.17 255.71,-16.59"/>
<polygon fill="midnightblue" stroke="midnightblue" points="256.23,-20.05 265.64,-15.17 255.25,-13.12 256.23,-20.05"/>
</g>
<!-- Node4 -->
<g id="node4" class="node">
<title>Node4</title>
<g id="a_node4"><a xlink:href="lst__cmd2_8c.html#a8e2b63759f149b547e0d07f210ede9b3" target="_top" xlink:title=" ">
<polygon fill="none" stroke="black" points="385,-38.5 385,-57.5 446,-57.5 446,-38.5 385,-38.5"/>
<text text-anchor="middle" x="415.5" y="-45.5" font-family="Helvetica,sans-Serif" font-size="10.00">pop_cmd</text>
</a>
</g>
</g>
<!-- Node3&#45;&gt;Node4 -->
<g id="edge3" class="edge">
<title>Node3&#45;&gt;Node4</title>
<path fill="none" stroke="midnightblue" d="M349.26,-48C357.73,-48 366.52,-48 374.8,-48"/>
<polygon fill="midnightblue" stroke="midnightblue" points="374.95,-51.5 384.95,-48 374.95,-44.5 374.95,-51.5"/>
</g>
<!-- Node5 -->
<g id="node5" class="node">
<title>Node5</title>
<g id="a_node5"><a xlink:href="lst__redir2_8c.html#a30ccaf401a4f897e48ead5fe54f4b307" target="_top" xlink:title=" ">
<polygon fill="none" stroke="black" points="482,-38.5 482,-57.5 576,-57.5 576,-38.5 482,-38.5"/>
<text text-anchor="middle" x="529" y="-45.5" font-family="Helvetica,sans-Serif" font-size="10.00">destructor_redir</text>
</a>
</g>
</g>
<!-- Node4&#45;&gt;Node5 -->
<g id="edge4" class="edge">
<title>Node4&#45;&gt;Node5</title>
<path fill="none" stroke="midnightblue" d="M446.09,-48C454.06,-48 462.95,-48 471.85,-48"/>
<polygon fill="midnightblue" stroke="midnightblue" points="471.86,-51.5 481.86,-48 471.86,-44.5 471.86,-51.5"/>
</g>
<!-- Node6 -->
<g id="node6" class="node">
<title>Node6</title>
<g id="a_node6"><a xlink:href="lst__redir2_8c.html#ade8f0bdda51d9bf348ebeb38fefba881" target="_top" xlink:title=" ">
<polygon fill="none" stroke="black" points="612,-38.5 612,-57.5 674,-57.5 674,-38.5 612,-38.5"/>
<text text-anchor="middle" x="643" y="-45.5" font-family="Helvetica,sans-Serif" font-size="10.00">pop_redir</text>
</a>
</g>
</g>
<!-- Node5&#45;&gt;Node6 -->
<g id="edge5" class="edge">
<title>Node5&#45;&gt;Node6</title>
<path fill="none" stroke="midnightblue" d="M576.2,-48C584.67,-48 593.46,-48 601.74,-48"/>
<polygon fill="midnightblue" stroke="midnightblue" points="601.9,-51.5 611.9,-48 601.9,-44.5 601.9,-51.5"/>
</g>
</g>
</svg>
