<?xml version="1.0" encoding="UTF-8" standalone="no"?>
<!DOCTYPE svg PUBLIC "-//W3C//DTD SVG 1.1//EN"
 "http://www.w3.org/Graphics/SVG/1.1/DTD/svg11.dtd">
<!-- Generated by graphviz version 2.43.0 (0)
 -->
<!-- Title: expand_manager Pages: 1 -->
<!--zoomable 497 -->
<svg id="main" version="1.1" xmlns="http://www.w3.org/2000/svg" xmlns:xlink="http://www.w3.org/1999/xlink" xml:space="preserve" onload="init(evt)">
<style type="text/css"><![CDATA[
.edge:hover path { stroke: red; }
.edge:hover polygon { stroke: red; fill: red; }
]]></style>
<script type="text/javascript"><![CDATA[
var edges = document.getElementsByTagName('g');
if (edges && edges.length) {
  for (var i=0;i<edges.length;i++) {
    if (edges[i].id.substr(0,4)=='edge') {
      edges[i].setAttribute('class','edge');
    }
  }
}
]]></script>
        <defs>
                <circle id="rim" cx="0" cy="0" r="7"/>
                <circle id="rim2" cx="0" cy="0" r="3.5"/>
                <g id="zoomPlus">
                        <use xlink:href="#rim" fill="#404040">
                                <set attributeName="fill" to="#808080" begin="zoomplus.mouseover" end="zoomplus.mouseout"/>
                        </use>
                        <path d="M-4,0h8M0,-4v8" fill="none" stroke="white" stroke-width="1.5" pointer-events="none"/>
                </g>
                <g id="zoomMin">
                        <use xlink:href="#rim" fill="#404040">
                                <set attributeName="fill" to="#808080" begin="zoomminus.mouseover" end="zoomminus.mouseout"/>
                        </use>
                        <path d="M-4,0h8" fill="none" stroke="white" stroke-width="1.5" pointer-events="none"/>
                </g>
                <g id="dirArrow">
                        <path fill="none" stroke="white" stroke-width="1.5" d="M0,-3.0v7 M-2.5,-0.5L0,-3.0L2.5,-0.5"/>
                </g>
               <g id="resetDef">
                       <use xlink:href="#rim2" fill="#404040">
                               <set attributeName="fill" to="#808080" begin="reset.mouseover" end="reset.mouseout"/>
                       </use>
               </g>
        </defs>

<script type="text/javascript">
var viewWidth = 874;
var viewHeight = 497;
var sectionId = 'dynsection-5';
</script>
<script xlink:href="svgpan.js"/>
<svg id="graph" class="graph">
<g id="viewport">
<title>expand_manager</title>
<!-- Node1 -->
<g id="node1" class="node">
<title>Node1</title>
<g id="a_node1"><a xlink:title="Iterate over every args and redir of each command to expand and dequote what needs to be.">
<polygon fill="#bfbfbf" stroke="black" points="0,-374.97 0,-393.97 101,-393.97 101,-374.97 0,-374.97"/>
<text text-anchor="middle" x="50.5" y="-381.97" font-family="Helvetica,sans-Serif" font-size="10.00">expand_manager</text>
</a>
</g>
</g>
<!-- Node2 -->
<g id="node2" class="node">
<title>Node2</title>
<g id="a_node2"><a xlink:href="expand_8c.html#a7ebf77f962efcddaed1e2913bb8b799a" target="_top" xlink:title="Removes a given index of an argv in case of env variable not found.">
<polygon fill="none" stroke="black" points="137,-412.97 137,-431.97 250,-431.97 250,-412.97 137,-412.97"/>
<text text-anchor="middle" x="193.5" y="-419.97" font-family="Helvetica,sans-Serif" font-size="10.00">argv_remove_index</text>
</a>
</g>
</g>
<!-- Node1&#45;&gt;Node2 -->
<g id="edge1" class="edge">
<title>Node1&#45;&gt;Node2</title>
<path fill="none" stroke="midnightblue" d="M87.08,-394.06C105.28,-398.96 127.64,-404.99 147.07,-410.23"/>
<polygon fill="midnightblue" stroke="midnightblue" points="146.36,-413.66 156.93,-412.88 148.19,-406.9 146.36,-413.66"/>
</g>
<!-- Node3 -->
<g id="node3" class="node">
<title>Node3</title>
<g id="a_node3"><a xlink:href="expand_8c.html#aa18c8661b304a521d512b7acc7d7a1cb" target="_top" xlink:title=" ">
<polygon fill="none" stroke="black" points="148,-374.97 148,-393.97 239,-393.97 239,-374.97 148,-374.97"/>
<text text-anchor="middle" x="193.5" y="-381.97" font-family="Helvetica,sans-Serif" font-size="10.00">exp_redir_error</text>
</a>
</g>
</g>
<!-- Node1&#45;&gt;Node3 -->
<g id="edge2" class="edge">
<title>Node1&#45;&gt;Node3</title>
<path fill="none" stroke="midnightblue" d="M101.21,-384.47C112.99,-384.47 125.61,-384.47 137.6,-384.47"/>
<polygon fill="midnightblue" stroke="midnightblue" points="137.94,-387.97 147.94,-384.47 137.94,-380.97 137.94,-387.97"/>
</g>
<!-- Node9 -->
<g id="node9" class="node">
<title>Node9</title>
<g id="a_node9"><a xlink:href="expand__word_8c.html#a0ec378990f411456436a9bb6a71babfc" target="_top" xlink:title="Scans the word to dequote/expand and build correct output.">
<polygon fill="none" stroke="black" points="152.5,-260.97 152.5,-279.97 234.5,-279.97 234.5,-260.97 152.5,-260.97"/>
<text text-anchor="middle" x="193.5" y="-267.97" font-family="Helvetica,sans-Serif" font-size="10.00">expand_word</text>
</a>
</g>
</g>
<!-- Node1&#45;&gt;Node9 -->
<g id="edge9" class="edge">
<title>Node1&#45;&gt;Node9</title>
<path fill="none" stroke="midnightblue" d="M63.52,-374.75C87.77,-355.15 142.74,-310.7 172.49,-286.65"/>
<polygon fill="midnightblue" stroke="midnightblue" points="174.93,-289.17 180.51,-280.16 170.53,-283.73 174.93,-289.17"/>
</g>
<!-- Node4 -->
<g id="node4" class="node">
<title>Node4</title>
<g id="a_node4"><a xlink:href="lst__cmd2_8c.html#a132395876bb5a7cfe926b9e37571a1e3" target="_top" xlink:title=" ">
<polygon fill="none" stroke="black" points="286,-450.97 286,-469.97 378,-469.97 378,-450.97 286,-450.97"/>
<text text-anchor="middle" x="332" y="-457.97" font-family="Helvetica,sans-Serif" font-size="10.00">destructor_cmd</text>
</a>
</g>
</g>
<!-- Node3&#45;&gt;Node4 -->
<g id="edge3" class="edge">
<title>Node3&#45;&gt;Node4</title>
<path fill="none" stroke="midnightblue" d="M229.53,-394C236.55,-396.58 243.7,-399.72 250,-403.47 268.66,-414.55 268.28,-423.93 286,-436.47 290.7,-439.79 295.91,-442.98 301.07,-445.88"/>
<polygon fill="midnightblue" stroke="midnightblue" points="299.73,-449.13 310.2,-450.76 303.03,-442.95 299.73,-449.13"/>
</g>
<!-- Node5 -->
<g id="node5" class="node">
<title>Node5</title>
<g id="a_node5"><a xlink:href="lst__cmd2_8c.html#a8e2b63759f149b547e0d07f210ede9b3" target="_top" xlink:title=" ">
<polygon fill="none" stroke="black" points="435.5,-450.97 435.5,-469.97 496.5,-469.97 496.5,-450.97 435.5,-450.97"/>
<text text-anchor="middle" x="466" y="-457.97" font-family="Helvetica,sans-Serif" font-size="10.00">pop_cmd</text>
</a>
</g>
</g>
<!-- Node4&#45;&gt;Node5 -->
<g id="edge4" class="edge">
<title>Node4&#45;&gt;Node5</title>
<path fill="none" stroke="midnightblue" d="M378.06,-460.47C393.32,-460.47 410.26,-460.47 425.09,-460.47"/>
<polygon fill="midnightblue" stroke="midnightblue" points="425.47,-463.97 435.47,-460.47 425.47,-456.97 425.47,-463.97"/>
</g>
<!-- Node6 -->
<g id="node6" class="node">
<title>Node6</title>
<g id="a_node6"><a xlink:href="lst__redir2_8c.html#a30ccaf401a4f897e48ead5fe54f4b307" target="_top" xlink:title=" ">
<polygon fill="none" stroke="black" points="554,-450.97 554,-469.97 648,-469.97 648,-450.97 554,-450.97"/>
<text text-anchor="middle" x="601" y="-457.97" font-family="Helvetica,sans-Serif" font-size="10.00">destructor_redir</text>
</a>
</g>
</g>
<!-- Node5&#45;&gt;Node6 -->
<g id="edge5" class="edge">
<title>Node5&#45;&gt;Node6</title>
<path fill="none" stroke="midnightblue" d="M496.52,-460.47C510.33,-460.47 527.26,-460.47 543.4,-460.47"/>
<polygon fill="midnightblue" stroke="midnightblue" points="543.84,-463.97 553.84,-460.47 543.84,-456.97 543.84,-463.97"/>
</g>
<!-- Node8 -->
<g id="node8" class="node">
<title>Node8</title>
<g id="a_node8"><a xlink:href="utils_8c.html#a1bca6910c90a19d96b36506a2e2cebf6" target="_top" xlink:title="as fd are all setup to &#45;1 at the beginning we check if they are open before trying to close we avoid ...">
<polygon fill="none" stroke="black" points="797,-469.97 797,-488.97 866,-488.97 866,-469.97 797,-469.97"/>
<text text-anchor="middle" x="831.5" y="-476.97" font-family="Helvetica,sans-Serif" font-size="10.00">ft_close_fd</text>
</a>
</g>
</g>
<!-- Node5&#45;&gt;Node8 -->
<g id="edge8" class="edge">
<title>Node5&#45;&gt;Node8</title>
<path fill="none" stroke="midnightblue" d="M496.54,-468.57C513.25,-472.74 534.63,-477.38 554,-479.47 635.83,-488.3 732.07,-485.3 786.72,-482.36"/>
<polygon fill="midnightblue" stroke="midnightblue" points="786.96,-485.85 796.75,-481.79 786.57,-478.86 786.96,-485.85"/>
</g>
<!-- Node7 -->
<g id="node7" class="node">
<title>Node7</title>
<g id="a_node7"><a xlink:href="lst__redir2_8c.html#ade8f0bdda51d9bf348ebeb38fefba881" target="_top" xlink:title=" ">
<polygon fill="none" stroke="black" points="691.5,-450.97 691.5,-469.97 753.5,-469.97 753.5,-450.97 691.5,-450.97"/>
<text text-anchor="middle" x="722.5" y="-457.97" font-family="Helvetica,sans-Serif" font-size="10.00">pop_redir</text>
</a>
</g>
</g>
<!-- Node6&#45;&gt;Node7 -->
<g id="edge6" class="edge">
<title>Node6&#45;&gt;Node7</title>
<path fill="none" stroke="midnightblue" d="M648.2,-460.47C659.04,-460.47 670.5,-460.47 681.07,-460.47"/>
<polygon fill="midnightblue" stroke="midnightblue" points="681.27,-463.97 691.27,-460.47 681.27,-456.97 681.27,-463.97"/>
</g>
<!-- Node7&#45;&gt;Node8 -->
<g id="edge7" class="edge">
<title>Node7&#45;&gt;Node8</title>
<path fill="none" stroke="midnightblue" d="M753.59,-465.81C763.91,-467.64 775.67,-469.73 786.84,-471.72"/>
<polygon fill="midnightblue" stroke="midnightblue" points="786.42,-475.2 796.88,-473.5 787.64,-468.3 786.42,-475.2"/>
</g>
<!-- Node10 -->
<g id="node10" class="node">
<title>Node10</title>
<g id="a_node10"><a xlink:href="lexer__utils_8c.html#a6b132516dacc9599762b1fe7341a0f04" target="_top" xlink:title="Advance one byte in the struct t_lexer to keep track of progress.">
<polygon fill="none" stroke="black" points="572,-108.97 572,-127.97 630,-127.97 630,-108.97 572,-108.97"/>
<text text-anchor="middle" x="601" y="-115.97" font-family="Helvetica,sans-Serif" font-size="10.00">advance</text>
</a>
</g>
</g>
<!-- Node9&#45;&gt;Node10 -->
<g id="edge10" class="edge">
<title>Node9&#45;&gt;Node10</title>
<path fill="none" stroke="midnightblue" d="M196.24,-260.57C202.38,-228.44 226.03,-125.98 286,-70.47 363.21,1 422.34,20.33 518,-23.47 552.17,-39.11 577.52,-76.8 590.42,-99.73"/>
<polygon fill="midnightblue" stroke="midnightblue" points="587.49,-101.67 595.32,-108.81 593.66,-98.35 587.49,-101.67"/>
</g>
<!-- Node11 -->
<g id="node11" class="node">
<title>Node11</title>
<g id="a_node11"><a xlink:href="expand__dollar_8c.html#ac3e15865744ed2c1300a5cb96f24e33d" target="_top" xlink:title="Manages all possibilities with expand : $?, known and unknown env variable.">
<polygon fill="none" stroke="black" points="290.5,-222.97 290.5,-241.97 373.5,-241.97 373.5,-222.97 290.5,-222.97"/>
<text text-anchor="middle" x="332" y="-229.97" font-family="Helvetica,sans-Serif" font-size="10.00">handle_dollar</text>
</a>
</g>
</g>
<!-- Node9&#45;&gt;Node11 -->
<g id="edge11" class="edge">
<title>Node9&#45;&gt;Node11</title>
<path fill="none" stroke="midnightblue" d="M228.94,-260.88C246.48,-256 268.01,-250 286.76,-244.78"/>
<polygon fill="midnightblue" stroke="midnightblue" points="287.87,-248.11 296.57,-242.06 285.99,-241.37 287.87,-248.11"/>
</g>
<!-- Node13 -->
<g id="node13" class="node">
<title>Node13</title>
<g id="a_node13"><a xlink:href="string__builder_8c.html#a54e602a5da87bd89687c69c2d86f34d2" target="_top" xlink:title="Put char in the struct t_str_buf so we can build a string in the struct. The point is to create the s...">
<polygon fill="none" stroke="black" points="684,-165.97 684,-184.97 761,-184.97 761,-165.97 684,-165.97"/>
<text text-anchor="middle" x="722.5" y="-172.97" font-family="Helvetica,sans-Serif" font-size="10.00">str_buf_putc</text>
</a>
</g>
</g>
<!-- Node9&#45;&gt;Node13 -->
<g id="edge33" class="edge">
<title>Node9&#45;&gt;Node13</title>
<path fill="none" stroke="midnightblue" d="M202.31,-280.2C216.97,-297.88 250.36,-335.49 286,-357.47 375.47,-412.65 419.21,-439.4 518,-403.47 620.43,-366.21 689.51,-241.93 712.8,-194.29"/>
<polygon fill="midnightblue" stroke="midnightblue" points="716.04,-195.63 717.19,-185.1 709.72,-192.62 716.04,-195.63"/>
</g>
<!-- Node18 -->
<g id="node18" class="node">
<title>Node18</title>
<g id="a_node18"><a xlink:href="string__builder_8c.html#a1bfdfae2d27c541b15b526d7d67b7577" target="_top" xlink:title="End and null terminate the string created in t_str_buf, reset the struct so it can be reused and retu...">
<polygon fill="none" stroke="black" points="429,-32.97 429,-51.97 503,-51.97 503,-32.97 429,-32.97"/>
<text text-anchor="middle" x="466" y="-39.97" font-family="Helvetica,sans-Serif" font-size="10.00">str_buf_end</text>
</a>
</g>
</g>
<!-- Node9&#45;&gt;Node18 -->
<g id="edge31" class="edge">
<title>Node9&#45;&gt;Node18</title>
<path fill="none" stroke="midnightblue" d="M198.76,-260.9C209.97,-236.59 242.44,-171.6 286,-131.47 326.35,-94.29 385.13,-69.09 424.19,-55.25"/>
<polygon fill="midnightblue" stroke="midnightblue" points="425.36,-58.55 433.67,-51.97 423.08,-51.93 425.36,-58.55"/>
</g>
<!-- Node19 -->
<g id="node19" class="node">
<title>Node19</title>
<g id="a_node19"><a xlink:href="string__builder_8c.html#a2ff0766da574e4904598f3119c7d3749" target="_top" xlink:title=" ">
<polygon fill="none" stroke="black" points="430.5,-374.97 430.5,-393.97 501.5,-393.97 501.5,-374.97 430.5,-374.97"/>
<text text-anchor="middle" x="466" y="-381.97" font-family="Helvetica,sans-Serif" font-size="10.00">str_buf_init</text>
</a>
</g>
</g>
<!-- Node9&#45;&gt;Node19 -->
<g id="edge32" class="edge">
<title>Node9&#45;&gt;Node19</title>
<path fill="none" stroke="midnightblue" d="M207.55,-280.06C224.79,-292.39 256.44,-313.81 286,-327.47 330.11,-347.85 383.51,-363.81 420.44,-373.6"/>
<polygon fill="midnightblue" stroke="midnightblue" points="419.84,-377.06 430.4,-376.19 421.61,-370.28 419.84,-377.06"/>
</g>
<!-- Node20 -->
<g id="node20" class="node">
<title>Node20</title>
<g id="a_node20"><a xlink:href="expand__word_8c.html#ae5fd7fdfce4171a392a4f6c781f4e813" target="_top" xlink:title="Dequotes and manage quote state to expand correctly.">
<polygon fill="none" stroke="black" points="422,-70.97 422,-89.97 510,-89.97 510,-70.97 422,-70.97"/>
<text text-anchor="middle" x="466" y="-77.97" font-family="Helvetica,sans-Serif" font-size="10.00">handle_quotes</text>
</a>
</g>
</g>
<!-- Node9&#45;&gt;Node20 -->
<g id="edge26" class="edge">
<title>Node9&#45;&gt;Node20</title>
<path fill="none" stroke="midnightblue" d="M207.05,-260.64C240.14,-234.89 332.79,-163.77 414,-110.47 421.99,-105.23 430.9,-99.83 439.02,-95.09"/>
<polygon fill="midnightblue" stroke="midnightblue" points="440.83,-98.09 447.74,-90.06 437.33,-92.02 440.83,-98.09"/>
</g>
<!-- Node21 -->
<g id="node21" class="node">
<title>Node21</title>
<g id="a_node21"><a xlink:href="expand__word_8c.html#af8312a725cf021e108e011dfa4d60f73" target="_top" xlink:title="Initialise expand struct.">
<polygon fill="none" stroke="black" points="295,-298.97 295,-317.97 369,-317.97 369,-298.97 295,-298.97"/>
<text text-anchor="middle" x="332" y="-305.97" font-family="Helvetica,sans-Serif" font-size="10.00">init_expand</text>
</a>
</g>
</g>
<!-- Node9&#45;&gt;Node21 -->
<g id="edge29" class="edge">
<title>Node9&#45;&gt;Node21</title>
<path fill="none" stroke="midnightblue" d="M228.94,-280.06C246.48,-284.94 268.01,-290.93 286.76,-296.15"/>
<polygon fill="midnightblue" stroke="midnightblue" points="285.99,-299.57 296.57,-298.88 287.87,-292.83 285.99,-299.57"/>
</g>
<!-- Node22 -->
<g id="node22" class="node">
<title>Node22</title>
<g id="a_node22"><a xlink:href="lexer__utils_8c.html#a5226e7cc8fd04bded427425b8bee4439" target="_top" xlink:title="Initialize t_lexer.">
<polygon fill="none" stroke="black" points="305.5,-260.97 305.5,-279.97 358.5,-279.97 358.5,-260.97 305.5,-260.97"/>
<text text-anchor="middle" x="332" y="-267.97" font-family="Helvetica,sans-Serif" font-size="10.00">lex_init</text>
</a>
</g>
</g>
<!-- Node9&#45;&gt;Node22 -->
<g id="edge30" class="edge">
<title>Node9&#45;&gt;Node22</title>
<path fill="none" stroke="midnightblue" d="M234.72,-270.47C253.87,-270.47 276.59,-270.47 295.15,-270.47"/>
<polygon fill="midnightblue" stroke="midnightblue" points="295.26,-273.97 305.26,-270.47 295.26,-266.97 295.26,-273.97"/>
</g>
<!-- Node11&#45;&gt;Node10 -->
<g id="edge12" class="edge">
<title>Node11&#45;&gt;Node10</title>
<path fill="none" stroke="midnightblue" d="M337.9,-222.82C348.61,-202.87 376.19,-157.31 414,-137.47 460.44,-113.1 522.34,-111.92 561.7,-114.37"/>
<polygon fill="midnightblue" stroke="midnightblue" points="561.45,-117.86 571.68,-115.1 561.96,-110.88 561.45,-117.86"/>
</g>
<!-- Node12 -->
<g id="node12" class="node">
<title>Node12</title>
<g id="a_node12"><a xlink:href="expand__dollar_8c.html#a1cf0ce389e469994b9ddb06a944e531e" target="_top" xlink:title="Handle $? to expand on current error code.">
<polygon fill="none" stroke="black" points="421.5,-146.97 421.5,-165.97 510.5,-165.97 510.5,-146.97 421.5,-146.97"/>
<text text-anchor="middle" x="466" y="-153.97" font-family="Helvetica,sans-Serif" font-size="10.00">error_code_var</text>
</a>
</g>
</g>
<!-- Node11&#45;&gt;Node12 -->
<g id="edge13" class="edge">
<title>Node11&#45;&gt;Node12</title>
<path fill="none" stroke="midnightblue" d="M346.71,-222.88C362.55,-211.99 389.58,-193.98 414,-180.47 420.27,-177 427.13,-173.55 433.72,-170.4"/>
<polygon fill="midnightblue" stroke="midnightblue" points="435.52,-173.42 443.1,-166.01 432.56,-167.08 435.52,-173.42"/>
</g>
<!-- Node11&#45;&gt;Node13 -->
<g id="edge24" class="edge">
<title>Node11&#45;&gt;Node13</title>
<path fill="none" stroke="midnightblue" d="M364.36,-242.16C369.31,-244.65 374.08,-247.71 378,-251.47 404.99,-277.33 382.42,-307.48 414,-327.47 453.06,-352.19 474.14,-342.04 518,-327.47 599.4,-300.42 674.59,-226.72 706.01,-192.88"/>
<polygon fill="midnightblue" stroke="midnightblue" points="708.87,-194.93 713.03,-185.19 703.7,-190.21 708.87,-194.93"/>
</g>
<!-- Node14 -->
<g id="node14" class="node">
<title>Node14</title>
<g id="a_node14"><a xlink:href="string__builder_8c.html#a4bb0bb42cbf7ca9f7feff204d3059306" target="_top" xlink:title="Put a null terminated string in the t_str_buf struct.">
<polygon fill="none" stroke="black" points="562.5,-184.97 562.5,-203.97 639.5,-203.97 639.5,-184.97 562.5,-184.97"/>
<text text-anchor="middle" x="601" y="-191.97" font-family="Helvetica,sans-Serif" font-size="10.00">str_buf_puts</text>
</a>
</g>
</g>
<!-- Node11&#45;&gt;Node14 -->
<g id="edge25" class="edge">
<title>Node11&#45;&gt;Node14</title>
<path fill="none" stroke="midnightblue" d="M369.09,-222.96C383.04,-219.55 399.18,-215.95 414,-213.47 460.67,-205.64 514.51,-200.57 552.22,-197.65"/>
<polygon fill="midnightblue" stroke="midnightblue" points="552.69,-201.12 562.4,-196.88 552.17,-194.14 552.69,-201.12"/>
</g>
<!-- Node15 -->
<g id="node15" class="node">
<title>Node15</title>
<g id="a_node15"><a xlink:href="expand_8c.html#a19e46ed1e16f9b3f3b1e8961163feedc" target="_top" xlink:title="Checks if a given char is a valid character for the key of an env variable.">
<polygon fill="none" stroke="black" points="418.5,-298.97 418.5,-317.97 513.5,-317.97 513.5,-298.97 418.5,-298.97"/>
<text text-anchor="middle" x="466" y="-305.97" font-family="Helvetica,sans-Serif" font-size="10.00">is_valid_for_key</text>
</a>
</g>
</g>
<!-- Node11&#45;&gt;Node15 -->
<g id="edge18" class="edge">
<title>Node11&#45;&gt;Node15</title>
<path fill="none" stroke="midnightblue" d="M360.6,-242C366.58,-244.63 372.7,-247.8 378,-251.47 397.12,-264.72 394.6,-276.63 414,-289.47 416.93,-291.4 420.07,-293.18 423.32,-294.8"/>
<polygon fill="midnightblue" stroke="midnightblue" points="422.07,-298.07 432.63,-298.95 424.92,-291.68 422.07,-298.07"/>
</g>
<!-- Node16 -->
<g id="node16" class="node">
<title>Node16</title>
<g id="a_node16"><a xlink:href="lexer__utils_8c.html#a855a36981b55d317a52d24560c0809bf" target="_top" xlink:title="&quot;Peek&quot;, Look at the next character in the input string">
<polygon fill="none" stroke="black" points="445.5,-260.97 445.5,-279.97 486.5,-279.97 486.5,-260.97 445.5,-260.97"/>
<text text-anchor="middle" x="466" y="-267.97" font-family="Helvetica,sans-Serif" font-size="10.00">peek</text>
</a>
</g>
</g>
<!-- Node11&#45;&gt;Node16 -->
<g id="edge19" class="edge">
<title>Node11&#45;&gt;Node16</title>
<path fill="none" stroke="midnightblue" d="M366.31,-242.06C387.61,-248.19 414.99,-256.07 435.5,-261.98"/>
<polygon fill="midnightblue" stroke="midnightblue" points="434.67,-265.38 445.25,-264.78 436.61,-258.65 434.67,-265.38"/>
</g>
<!-- Node17 -->
<g id="node17" class="node">
<title>Node17</title>
<g id="a_node17"><a xlink:href="lst__env__two_8c.html#a4d4a14327b2c3ff88099102b6bd77986" target="_top" xlink:title=" ">
<polygon fill="none" stroke="black" points="414,-222.97 414,-241.97 518,-241.97 518,-222.97 414,-222.97"/>
<text text-anchor="middle" x="466" y="-229.97" font-family="Helvetica,sans-Serif" font-size="10.00">research_key_env</text>
</a>
</g>
</g>
<!-- Node11&#45;&gt;Node17 -->
<g id="edge20" class="edge">
<title>Node11&#45;&gt;Node17</title>
<path fill="none" stroke="midnightblue" d="M373.68,-232.47C383.23,-232.47 393.6,-232.47 403.83,-232.47"/>
<polygon fill="midnightblue" stroke="midnightblue" points="403.96,-235.97 413.96,-232.47 403.96,-228.97 403.96,-235.97"/>
</g>
<!-- Node11&#45;&gt;Node18 -->
<g id="edge21" class="edge">
<title>Node11&#45;&gt;Node18</title>
<path fill="none" stroke="midnightblue" d="M334.89,-222.82C341.02,-194.11 362.93,-108.33 414,-61.47 415.89,-59.74 417.95,-58.16 420.12,-56.72"/>
<polygon fill="midnightblue" stroke="midnightblue" points="421.9,-59.74 428.96,-51.84 418.51,-53.61 421.9,-59.74"/>
</g>
<!-- Node11&#45;&gt;Node19 -->
<g id="edge23" class="edge">
<title>Node11&#45;&gt;Node19</title>
<path fill="none" stroke="midnightblue" d="M365.22,-242.01C369.96,-244.5 374.43,-247.6 378,-251.47 412.59,-288.97 380.17,-322.28 414,-360.47 417.24,-364.12 421.15,-367.26 425.35,-369.95"/>
<polygon fill="midnightblue" stroke="midnightblue" points="423.8,-373.1 434.25,-374.86 427.18,-366.97 423.8,-373.1"/>
</g>
<!-- Node12&#45;&gt;Node10 -->
<g id="edge14" class="edge">
<title>Node12&#45;&gt;Node10</title>
<path fill="none" stroke="midnightblue" d="M500.56,-146.88C519.3,-141.53 542.71,-134.84 562.11,-129.29"/>
<polygon fill="midnightblue" stroke="midnightblue" points="563.19,-132.63 571.84,-126.51 561.27,-125.9 563.19,-132.63"/>
</g>
<!-- Node12&#45;&gt;Node13 -->
<g id="edge15" class="edge">
<title>Node12&#45;&gt;Node13</title>
<path fill="none" stroke="midnightblue" d="M510.75,-159.74C556.07,-163.12 626.69,-168.39 673.51,-171.89"/>
<polygon fill="midnightblue" stroke="midnightblue" points="673.47,-175.39 683.71,-172.65 674,-168.41 673.47,-175.39"/>
</g>
<!-- Node12&#45;&gt;Node14 -->
<g id="edge16" class="edge">
<title>Node12&#45;&gt;Node14</title>
<path fill="none" stroke="midnightblue" d="M500.56,-166.06C517.57,-170.92 538.43,-176.88 556.64,-182.08"/>
<polygon fill="midnightblue" stroke="midnightblue" points="555.87,-185.5 566.45,-184.88 557.8,-178.77 555.87,-185.5"/>
</g>
<!-- Node14&#45;&gt;Node13 -->
<g id="edge17" class="edge">
<title>Node14&#45;&gt;Node13</title>
<path fill="none" stroke="midnightblue" d="M639.81,-188.46C650.6,-186.74 662.49,-184.85 673.78,-183.06"/>
<polygon fill="midnightblue" stroke="midnightblue" points="674.61,-186.47 683.94,-181.44 673.51,-179.56 674.61,-186.47"/>
</g>
<!-- Node18&#45;&gt;Node13 -->
<g id="edge22" class="edge">
<title>Node18&#45;&gt;Node13</title>
<path fill="none" stroke="midnightblue" d="M503.13,-41.15C541.82,-41.41 603.61,-46.74 648,-74.47 679.72,-94.29 702.06,-133.25 713.26,-156.56"/>
<polygon fill="midnightblue" stroke="midnightblue" points="710.14,-158.15 717.5,-165.77 716.5,-155.22 710.14,-158.15"/>
</g>
<!-- Node20&#45;&gt;Node10 -->
<g id="edge27" class="edge">
<title>Node20&#45;&gt;Node10</title>
<path fill="none" stroke="midnightblue" d="M500.56,-90.06C519.3,-95.41 542.71,-102.1 562.11,-107.64"/>
<polygon fill="midnightblue" stroke="midnightblue" points="561.27,-111.04 571.84,-110.42 563.19,-104.31 561.27,-111.04"/>
</g>
<!-- Node20&#45;&gt;Node13 -->
<g id="edge28" class="edge">
<title>Node20&#45;&gt;Node13</title>
<path fill="none" stroke="midnightblue" d="M510.22,-76.94C548.38,-75.64 604.54,-78.3 648,-99.47 674.7,-112.48 697.01,-139.4 709.81,-157.45"/>
<polygon fill="midnightblue" stroke="midnightblue" points="707.09,-159.67 715.61,-165.97 712.87,-155.73 707.09,-159.67"/>
</g>
</g>
</svg>
        <g id="navigator" transform="translate(0 0)" fill="#404254">
                <rect fill="#f2f5e9" fill-opacity="0.5" stroke="#606060" stroke-width=".5" x="0" y="0" width="60" height="60"/>
                <use id="zoomplus" xlink:href="#zoomPlus" x="17" y="9" onmousedown="handleZoom(evt,'in')"/>
                <use id="zoomminus" xlink:href="#zoomMin" x="42" y="9" onmousedown="handleZoom(evt,'out')"/>
                <use id="reset" xlink:href="#resetDef" x="30" y="36" onmousedown="handleReset()"/>
                <g id="arrowUp" xlink:href="#dirArrow" transform="translate(30 24)" onmousedown="handlePan(0,-1)">
                  <use xlink:href="#rim" fill="#404040">
                        <set attributeName="fill" to="#808080" begin="arrowUp.mouseover" end="arrowUp.mouseout"/>
                  </use>
                  <path fill="none" stroke="white" stroke-width="1.5" d="M0,-3.0v7 M-2.5,-0.5L0,-3.0L2.5,-0.5"/>
                </g>
                <g id="arrowRight" xlink:href="#dirArrow" transform="rotate(90) translate(36 -43)" onmousedown="handlePan(1,0)">
                  <use xlink:href="#rim" fill="#404040">
                        <set attributeName="fill" to="#808080" begin="arrowRight.mouseover" end="arrowRight.mouseout"/>
                  </use>
                  <path fill="none" stroke="white" stroke-width="1.5" d="M0,-3.0v7 M-2.5,-0.5L0,-3.0L2.5,-0.5"/>
                </g>
                <g id="arrowDown" xlink:href="#dirArrow" transform="rotate(180) translate(-30 -48)" onmousedown="handlePan(0,1)">
                  <use xlink:href="#rim" fill="#404040">
                        <set attributeName="fill" to="#808080" begin="arrowDown.mouseover" end="arrowDown.mouseout"/>
                  </use>
                  <path fill="none" stroke="white" stroke-width="1.5" d="M0,-3.0v7 M-2.5,-0.5L0,-3.0L2.5,-0.5"/>
                </g>
                <g id="arrowLeft" xlink:href="#dirArrow" transform="rotate(270) translate(-36 17)" onmousedown="handlePan(-1,0)">
                  <use xlink:href="#rim" fill="#404040">
                        <set attributeName="fill" to="#808080" begin="arrowLeft.mouseover" end="arrowLeft.mouseout"/>
                  </use>
                  <path fill="none" stroke="white" stroke-width="1.5" d="M0,-3.0v7 M-2.5,-0.5L0,-3.0L2.5,-0.5"/>
                </g>
        </g>
        <svg viewBox="0 0 15 15" width="100%" height="30px" preserveAspectRatio="xMaxYMin meet">
         <g id="arrow_out" transform="scale(0.3 0.3)">
          <a xlink:href="parsing_8h_a53c53e75b0ad8c8888217cd918304b8b_cgraph_org.svg" target="_base">
           <rect id="button" ry="5" rx="5" y="6" x="6" height="38" width="38"
                fill="#f2f5e9" fill-opacity="0.5" stroke="#606060" stroke-width="1.0"/>
           <path id="arrow"
             d="M 11.500037,31.436501 C 11.940474,20.09759 22.043105,11.32322 32.158766,21.979434 L 37.068811,17.246167 C 37.068811,17.246167 37.088388,32 37.088388,32 L 22.160133,31.978069 C 22.160133,31.978069 26.997745,27.140456 26.997745,27.140456 C 18.528582,18.264221 13.291696,25.230495 11.500037,31.436501 z"
             style="fill:#404040;"/>
          </a>
         </g>
        </svg>
</svg>
