<?xml version="1.0" encoding="UTF-8" standalone="no"?>
<!DOCTYPE svg PUBLIC "-//W3C//DTD SVG 1.1//EN"
 "http://www.w3.org/Graphics/SVG/1.1/DTD/svg11.dtd">
<!-- Generated by graphviz version 2.43.0 (0)
 -->
<!-- Title: parser Pages: 1 -->
<!--zoomable 446 -->
<svg id="main" version="1.1" xmlns="http://www.w3.org/2000/svg" xmlns:xlink="http://www.w3.org/1999/xlink" xml:space="preserve" onload="init(evt)">
<style type="text/css"><![CDATA[
.edge:hover path { stroke: red; }
.edge:hover polygon { stroke: red; fill: red; }
]]></style>
<script type="text/javascript"><![CDATA[
var edges = document.getElementsByTagName('g');
if (edges && edges.length) {
  for (var i=0;i<edges.length;i++) {
    if (edges[i].id.substr(0,4)=='edge') {
      edges[i].setAttribute('class','edge');
    }
  }
}
]]></script>
        <defs>
                <circle id="rim" cx="0" cy="0" r="7"/>
                <circle id="rim2" cx="0" cy="0" r="3.5"/>
                <g id="zoomPlus">
                        <use xlink:href="#rim" fill="#404040">
                                <set attributeName="fill" to="#808080" begin="zoomplus.mouseover" end="zoomplus.mouseout"/>
                        </use>
                        <path d="M-4,0h8M0,-4v8" fill="none" stroke="white" stroke-width="1.5" pointer-events="none"/>
                </g>
                <g id="zoomMin">
                        <use xlink:href="#rim" fill="#404040">
                                <set attributeName="fill" to="#808080" begin="zoomminus.mouseover" end="zoomminus.mouseout"/>
                        </use>
                        <path d="M-4,0h8" fill="none" stroke="white" stroke-width="1.5" pointer-events="none"/>
                </g>
                <g id="dirArrow">
                        <path fill="none" stroke="white" stroke-width="1.5" d="M0,-3.0v7 M-2.5,-0.5L0,-3.0L2.5,-0.5"/>
                </g>
               <g id="resetDef">
                       <use xlink:href="#rim2" fill="#404040">
                               <set attributeName="fill" to="#808080" begin="reset.mouseover" end="reset.mouseout"/>
                       </use>
               </g>
        </defs>

<script type="text/javascript">
var viewWidth = 907;
var viewHeight = 446;
var sectionId = 'dynsection-22';
</script>
<script xlink:href="svgpan.js"/>
<svg id="graph" class="graph">
<g id="viewport">
<title>parser</title>
<!-- Node1 -->
<g id="node1" class="node">
<title>Node1</title>
<g id="a_node1"><a xlink:title=" ">
<polygon fill="#bfbfbf" stroke="black" points="0,-199.5 0,-218.5 47,-218.5 47,-199.5 0,-199.5"/>
<text text-anchor="middle" x="23.5" y="-206.5" font-family="Helvetica,sans-Serif" font-size="10.00">parser</text>
</a>
</g>
</g>
<!-- Node2 -->
<g id="node2" class="node">
<title>Node2</title>
<g id="a_node2"><a xlink:href="lst__cmd_8c.html#a8dd9c58ef8144c1956483eb089e5080f" target="_top" xlink:title=" ">
<polygon fill="none" stroke="black" points="83,-418.5 83,-437.5 186,-437.5 186,-418.5 83,-418.5"/>
<text text-anchor="middle" x="134.5" y="-425.5" font-family="Helvetica,sans-Serif" font-size="10.00">create_node_cmd</text>
</a>
</g>
</g>
<!-- Node1&#45;&gt;Node2 -->
<g id="edge1" class="edge">
<title>Node1&#45;&gt;Node2</title>
<path fill="none" stroke="midnightblue" d="M24.75,-218.82C26.03,-249.82 33.97,-346.87 83,-404 86.15,-407.67 89.99,-410.83 94.14,-413.52"/>
<polygon fill="midnightblue" stroke="midnightblue" points="92.5,-416.62 102.94,-418.44 95.91,-410.5 92.5,-416.62"/>
</g>
<!-- Node3 -->
<g id="node3" class="node">
<title>Node3</title>
<g id="a_node3"><a xlink:href="parser_8c.html#a2e2699d47ad80d706e124c654b57b375" target="_top" xlink:title=" ">
<polygon fill="none" stroke="black" points="387.5,-342.5 387.5,-361.5 446.5,-361.5 446.5,-342.5 387.5,-342.5"/>
<text text-anchor="middle" x="417" y="-349.5" font-family="Helvetica,sans-Serif" font-size="10.00">cur_next</text>
</a>
</g>
</g>
<!-- Node1&#45;&gt;Node3 -->
<g id="edge2" class="edge">
<title>Node1&#45;&gt;Node3</title>
<path fill="none" stroke="midnightblue" d="M35.54,-218.61C64.06,-242.8 143.46,-306.17 222,-333 273.59,-350.62 337.08,-353.59 377.06,-353.37"/>
<polygon fill="midnightblue" stroke="midnightblue" points="377.23,-356.87 387.19,-353.24 377.14,-349.87 377.23,-356.87"/>
</g>
<!-- Node4 -->
<g id="node4" class="node">
<title>Node4</title>
<g id="a_node4"><a xlink:href="token__utils_8c.html#ab3d9f0b7ddaf8661f8a3b3243d33bce7" target="_top" xlink:title="Free t_token entire linked list.">
<polygon fill="none" stroke="black" points="380,-76.5 380,-95.5 454,-95.5 454,-76.5 380,-76.5"/>
<text text-anchor="middle" x="417" y="-83.5" font-family="Helvetica,sans-Serif" font-size="10.00">free_tokens</text>
</a>
</g>
</g>
<!-- Node1&#45;&gt;Node4 -->
<g id="edge3" class="edge">
<title>Node1&#45;&gt;Node4</title>
<path fill="none" stroke="midnightblue" d="M32.18,-199.17C42.49,-186.58 61.96,-164.88 83,-152 173.54,-96.58 301.52,-86.48 369.43,-85.35"/>
<polygon fill="midnightblue" stroke="midnightblue" points="369.84,-88.85 379.8,-85.24 369.77,-81.85 369.84,-88.85"/>
</g>
<!-- Node5 -->
<g id="node5" class="node">
<title>Node5</title>
<g id="a_node5"><a xlink:href="parser_8c.html#a504166f8c7680aafbdfdb58ab412d498" target="_top" xlink:title=" ">
<polygon fill="none" stroke="black" points="233,-114.5 233,-133.5 318,-133.5 318,-114.5 233,-114.5"/>
<text text-anchor="middle" x="275.5" y="-121.5" font-family="Helvetica,sans-Serif" font-size="10.00">is_token_redir</text>
</a>
</g>
</g>
<!-- Node1&#45;&gt;Node5 -->
<g id="edge4" class="edge">
<title>Node1&#45;&gt;Node5</title>
<path fill="none" stroke="midnightblue" d="M47.13,-201.31C90.15,-186.68 184.14,-154.72 236.81,-136.81"/>
<polygon fill="midnightblue" stroke="midnightblue" points="238.12,-140.07 246.46,-133.53 235.86,-133.44 238.12,-140.07"/>
</g>
<!-- Node6 -->
<g id="node6" class="node">
<title>Node6</title>
<g id="a_node6"><a xlink:href="parser_8c.html#a53cd1de291e3e0bab0192a7880cd6449" target="_top" xlink:title=" ">
<polygon fill="none" stroke="black" points="99.5,-214.5 99.5,-233.5 169.5,-233.5 169.5,-214.5 99.5,-214.5"/>
<text text-anchor="middle" x="134.5" y="-221.5" font-family="Helvetica,sans-Serif" font-size="10.00">parse_cmd</text>
</a>
</g>
</g>
<!-- Node1&#45;&gt;Node6 -->
<g id="edge5" class="edge">
<title>Node1&#45;&gt;Node6</title>
<path fill="none" stroke="midnightblue" d="M47.08,-212.11C59.23,-213.78 74.63,-215.9 89.07,-217.89"/>
<polygon fill="midnightblue" stroke="midnightblue" points="88.96,-221.4 99.34,-219.3 89.91,-214.47 88.96,-221.4"/>
</g>
<!-- Node11 -->
<g id="node11" class="node">
<title>Node11</title>
<g id="a_node11"><a xlink:href="parser_8c.html#a196c06f986a99e4ad591e374a4bb6339" target="_top" xlink:title=" ">
<polygon fill="none" stroke="black" points="240,-380.5 240,-399.5 311,-399.5 311,-380.5 240,-380.5"/>
<text text-anchor="middle" x="275.5" y="-387.5" font-family="Helvetica,sans-Serif" font-size="10.00">parse_redir</text>
</a>
</g>
</g>
<!-- Node1&#45;&gt;Node11 -->
<g id="edge15" class="edge">
<title>Node1&#45;&gt;Node11</title>
<path fill="none" stroke="midnightblue" d="M24.85,-218.71C26.42,-246.73 35.1,-328.1 83,-366 124.39,-398.75 187.34,-400.28 229.66,-396.62"/>
<polygon fill="midnightblue" stroke="midnightblue" points="230.07,-400.09 239.68,-395.62 229.38,-393.13 230.07,-400.09"/>
</g>
<!-- Node13 -->
<g id="node13" class="node">
<title>Node13</title>
<g id="a_node13"><a xlink:href="lst__cmd_8c.html#aed036fcdab112b64cbd705f26aee31e0" target="_top" xlink:title=" ">
<polygon fill="none" stroke="black" points="87,-0.5 87,-19.5 182,-19.5 182,-0.5 87,-0.5"/>
<text text-anchor="middle" x="134.5" y="-7.5" font-family="Helvetica,sans-Serif" font-size="10.00">push_back_cmd</text>
</a>
</g>
</g>
<!-- Node1&#45;&gt;Node13 -->
<g id="edge16" class="edge">
<title>Node1&#45;&gt;Node13</title>
<path fill="none" stroke="midnightblue" d="M24.83,-199.34C26.34,-169.76 34.88,-79.37 83,-29 84.38,-27.55 85.89,-26.21 87.48,-24.98"/>
<polygon fill="midnightblue" stroke="midnightblue" points="89.46,-27.87 96.08,-19.6 85.75,-21.93 89.46,-27.87"/>
</g>
<!-- Node15 -->
<g id="node15" class="node">
<title>Node15</title>
<g id="a_node15"><a xlink:href="error_8c.html#a8f5f1cfa591c395b88733e1134d8de3d" target="_top" xlink:title=" ">
<polygon fill="none" stroke="black" points="95.5,-38.5 95.5,-57.5 173.5,-57.5 173.5,-38.5 95.5,-38.5"/>
<text text-anchor="middle" x="134.5" y="-45.5" font-family="Helvetica,sans-Serif" font-size="10.00">syntax_error</text>
</a>
</g>
</g>
<!-- Node1&#45;&gt;Node15 -->
<g id="edge18" class="edge">
<title>Node1&#45;&gt;Node15</title>
<path fill="none" stroke="midnightblue" d="M26.17,-199.41C30.85,-175.08 46.27,-110.23 83,-72 86.57,-68.29 90.82,-65.09 95.32,-62.34"/>
<polygon fill="midnightblue" stroke="midnightblue" points="97.01,-65.41 104.18,-57.61 93.71,-59.23 97.01,-65.41"/>
</g>
<!-- Node6&#45;&gt;Node3 -->
<g id="edge10" class="edge">
<title>Node6&#45;&gt;Node3</title>
<path fill="none" stroke="midnightblue" d="M169.83,-223.29C210.3,-223.88 278.43,-229.43 329,-257 362.68,-275.36 390.28,-311.76 404.83,-333.78"/>
<polygon fill="midnightblue" stroke="midnightblue" points="401.91,-335.71 410.25,-342.25 407.8,-331.94 401.91,-335.71"/>
</g>
<!-- Node6&#45;&gt;Node5 -->
<g id="edge11" class="edge">
<title>Node6&#45;&gt;Node5</title>
<path fill="none" stroke="midnightblue" d="M143.36,-214.44C157.5,-197.79 188.85,-163.32 222,-143 225.2,-141.04 228.64,-139.23 232.17,-137.58"/>
<polygon fill="midnightblue" stroke="midnightblue" points="233.78,-140.7 241.62,-133.58 231.05,-134.26 233.78,-140.7"/>
</g>
<!-- Node7 -->
<g id="node7" class="node">
<title>Node7</title>
<g id="a_node7"><a xlink:href="argv__builder_8c.html#a5f4104276b4a0d98dde31f75622668b4" target="_top" xlink:title="Ends and null terminate the argv so it can be used.">
<polygon fill="none" stroke="black" points="234,-152.5 234,-171.5 317,-171.5 317,-152.5 234,-152.5"/>
<text text-anchor="middle" x="275.5" y="-159.5" font-family="Helvetica,sans-Serif" font-size="10.00">argv_buf_end</text>
</a>
</g>
</g>
<!-- Node6&#45;&gt;Node7 -->
<g id="edge6" class="edge">
<title>Node6&#45;&gt;Node7</title>
<path fill="none" stroke="midnightblue" d="M153.44,-214.33C170.74,-205.18 197.79,-191.36 222,-181 226.72,-178.98 231.74,-176.98 236.73,-175.08"/>
<polygon fill="midnightblue" stroke="midnightblue" points="238.04,-178.33 246.21,-171.57 235.61,-171.76 238.04,-178.33"/>
</g>
<!-- Node8 -->
<g id="node8" class="node">
<title>Node8</title>
<g id="a_node8"><a xlink:href="argv__builder_8c.html#a182f853e31c31af45e572979074a4d99" target="_top" xlink:title="Free each string of the argv then the global array.">
<polygon fill="none" stroke="black" points="233.5,-304.5 233.5,-323.5 317.5,-323.5 317.5,-304.5 233.5,-304.5"/>
<text text-anchor="middle" x="275.5" y="-311.5" font-family="Helvetica,sans-Serif" font-size="10.00">argv_buf_free</text>
</a>
</g>
</g>
<!-- Node6&#45;&gt;Node8 -->
<g id="edge7" class="edge">
<title>Node6&#45;&gt;Node8</title>
<path fill="none" stroke="midnightblue" d="M145.05,-233.74C160.17,-248.69 191.1,-277.42 222,-295 225.5,-296.99 229.25,-298.84 233.07,-300.53"/>
<polygon fill="midnightblue" stroke="midnightblue" points="232.05,-303.9 242.63,-304.43 234.69,-297.41 232.05,-303.9"/>
</g>
<!-- Node9 -->
<g id="node9" class="node">
<title>Node9</title>
<g id="a_node9"><a xlink:href="argv__builder_8c.html#aee97e8a2ae269ee4063d3ea917e93ffc" target="_top" xlink:title=" ">
<polygon fill="none" stroke="black" points="235.5,-266.5 235.5,-285.5 315.5,-285.5 315.5,-266.5 235.5,-266.5"/>
<text text-anchor="middle" x="275.5" y="-273.5" font-family="Helvetica,sans-Serif" font-size="10.00">argv_buf_init</text>
</a>
</g>
</g>
<!-- Node6&#45;&gt;Node9 -->
<g id="edge8" class="edge">
<title>Node6&#45;&gt;Node9</title>
<path fill="none" stroke="midnightblue" d="M160.99,-233.54C182.9,-241.73 214.71,-253.63 239.09,-262.75"/>
<polygon fill="midnightblue" stroke="midnightblue" points="238.1,-266.12 248.7,-266.35 240.56,-259.56 238.1,-266.12"/>
</g>
<!-- Node10 -->
<g id="node10" class="node">
<title>Node10</title>
<g id="a_node10"><a xlink:href="argv__builder_8c.html#a9f9516f7f412bb9019d1fe829f2395a3" target="_top" xlink:title="Tool to build an argv with a buffer that reallocates when more memory is needed and add a string to t...">
<polygon fill="none" stroke="black" points="231.5,-190.5 231.5,-209.5 319.5,-209.5 319.5,-190.5 231.5,-190.5"/>
<text text-anchor="middle" x="275.5" y="-197.5" font-family="Helvetica,sans-Serif" font-size="10.00">argv_buf_push</text>
</a>
</g>
</g>
<!-- Node6&#45;&gt;Node10 -->
<g id="edge9" class="edge">
<title>Node6&#45;&gt;Node10</title>
<path fill="none" stroke="midnightblue" d="M169.5,-218.13C185.09,-215.44 203.93,-212.18 221.33,-209.18"/>
<polygon fill="midnightblue" stroke="midnightblue" points="222.11,-212.6 231.37,-207.45 220.92,-205.7 222.11,-212.6"/>
</g>
<!-- Node6&#45;&gt;Node11 -->
<g id="edge12" class="edge">
<title>Node6&#45;&gt;Node11</title>
<path fill="none" stroke="midnightblue" d="M142.68,-233.52C157.22,-252.7 191.38,-297.2 222,-333 233.68,-346.66 247.47,-361.58 257.98,-372.73"/>
<polygon fill="midnightblue" stroke="midnightblue" points="255.56,-375.26 264.98,-380.11 260.64,-370.45 255.56,-375.26"/>
</g>
<!-- Node11&#45;&gt;Node3 -->
<g id="edge14" class="edge">
<title>Node11&#45;&gt;Node3</title>
<path fill="none" stroke="midnightblue" d="M311.34,-380.51C331.45,-375.03 356.78,-368.13 377.49,-362.49"/>
<polygon fill="midnightblue" stroke="midnightblue" points="378.51,-365.84 387.23,-359.84 376.67,-359.09 378.51,-365.84"/>
</g>
<!-- Node12 -->
<g id="node12" class="node">
<title>Node12</title>
<g id="a_node12"><a xlink:href="lst__redir_8c.html#acb0801286560639fb0d37901d566a3e5" target="_top" xlink:title=" ">
<polygon fill="none" stroke="black" points="365,-380.5 365,-399.5 469,-399.5 469,-380.5 365,-380.5"/>
<text text-anchor="middle" x="417" y="-387.5" font-family="Helvetica,sans-Serif" font-size="10.00">create_node_redir</text>
</a>
</g>
</g>
<!-- Node11&#45;&gt;Node12 -->
<g id="edge13" class="edge">
<title>Node11&#45;&gt;Node12</title>
<path fill="none" stroke="midnightblue" d="M311.34,-390C324.46,-390 339.79,-390 354.61,-390"/>
<polygon fill="midnightblue" stroke="midnightblue" points="354.75,-393.5 364.75,-390 354.75,-386.5 354.75,-393.5"/>
</g>
<!-- Node14 -->
<g id="node14" class="node">
<title>Node14</title>
<g id="a_node14"><a xlink:href="lst__cmd_8c.html#ab80db2e6dc59c16654afb6a26d633a21" target="_top" xlink:title=" ">
<polygon fill="none" stroke="black" points="234.5,-0.5 234.5,-19.5 316.5,-19.5 316.5,-0.5 234.5,-0.5"/>
<text text-anchor="middle" x="275.5" y="-7.5" font-family="Helvetica,sans-Serif" font-size="10.00">get_last_cmd</text>
</a>
</g>
</g>
<!-- Node13&#45;&gt;Node14 -->
<g id="edge17" class="edge">
<title>Node13&#45;&gt;Node14</title>
<path fill="none" stroke="midnightblue" d="M182.17,-10C195.62,-10 210.35,-10 224.02,-10"/>
<polygon fill="midnightblue" stroke="midnightblue" points="224.23,-13.5 234.23,-10 224.23,-6.5 224.23,-13.5"/>
</g>
<!-- Node16 -->
<g id="node16" class="node">
<title>Node16</title>
<g id="a_node16"><a xlink:href="error_8c.html#a193034f887c71fdb2486835d8cbd9dd3" target="_top" xlink:title=" ">
<polygon fill="none" stroke="black" points="222,-38.5 222,-57.5 329,-57.5 329,-38.5 222,-38.5"/>
<text text-anchor="middle" x="275.5" y="-45.5" font-family="Helvetica,sans-Serif" font-size="10.00">parsing_destructor</text>
</a>
</g>
</g>
<!-- Node15&#45;&gt;Node16 -->
<g id="edge19" class="edge">
<title>Node15&#45;&gt;Node16</title>
<path fill="none" stroke="midnightblue" d="M173.85,-48C185.58,-48 198.8,-48 211.71,-48"/>
<polygon fill="midnightblue" stroke="midnightblue" points="211.97,-51.5 221.97,-48 211.97,-44.5 211.97,-51.5"/>
</g>
<!-- Node16&#45;&gt;Node4 -->
<g id="edge26" class="edge">
<title>Node16&#45;&gt;Node4</title>
<path fill="none" stroke="midnightblue" d="M311.7,-57.59C329.71,-62.49 351.83,-68.52 371.06,-73.76"/>
<polygon fill="midnightblue" stroke="midnightblue" points="370.24,-77.16 380.81,-76.41 372.08,-70.41 370.24,-77.16"/>
</g>
<!-- Node17 -->
<g id="node17" class="node">
<title>Node17</title>
<g id="a_node17"><a xlink:href="lst__cmd2_8c.html#a132395876bb5a7cfe926b9e37571a1e3" target="_top" xlink:title=" ">
<polygon fill="none" stroke="black" points="371,-38.5 371,-57.5 463,-57.5 463,-38.5 371,-38.5"/>
<text text-anchor="middle" x="417" y="-45.5" font-family="Helvetica,sans-Serif" font-size="10.00">destructor_cmd</text>
</a>
</g>
</g>
<!-- Node16&#45;&gt;Node17 -->
<g id="edge20" class="edge">
<title>Node16&#45;&gt;Node17</title>
<path fill="none" stroke="midnightblue" d="M329.24,-48C339.54,-48 350.37,-48 360.75,-48"/>
<polygon fill="midnightblue" stroke="midnightblue" points="360.94,-51.5 370.94,-48 360.94,-44.5 360.94,-51.5"/>
</g>
<!-- Node18 -->
<g id="node18" class="node">
<title>Node18</title>
<g id="a_node18"><a xlink:href="lst__cmd2_8c.html#a8e2b63759f149b547e0d07f210ede9b3" target="_top" xlink:title=" ">
<polygon fill="none" stroke="black" points="505,-38.5 505,-57.5 566,-57.5 566,-38.5 505,-38.5"/>
<text text-anchor="middle" x="535.5" y="-45.5" font-family="Helvetica,sans-Serif" font-size="10.00">pop_cmd</text>
</a>
</g>
</g>
<!-- Node17&#45;&gt;Node18 -->
<g id="edge21" class="edge">
<title>Node17&#45;&gt;Node18</title>
<path fill="none" stroke="midnightblue" d="M463.04,-48C473.4,-48 484.35,-48 494.48,-48"/>
<polygon fill="midnightblue" stroke="midnightblue" points="494.68,-51.5 504.68,-48 494.68,-44.5 494.68,-51.5"/>
</g>
<!-- Node19 -->
<g id="node19" class="node">
<title>Node19</title>
<g id="a_node19"><a xlink:href="lst__redir2_8c.html#a30ccaf401a4f897e48ead5fe54f4b307" target="_top" xlink:title=" ">
<polygon fill="none" stroke="black" points="602,-19.5 602,-38.5 696,-38.5 696,-19.5 602,-19.5"/>
<text text-anchor="middle" x="649" y="-26.5" font-family="Helvetica,sans-Serif" font-size="10.00">destructor_redir</text>
</a>
</g>
</g>
<!-- Node18&#45;&gt;Node19 -->
<g id="edge22" class="edge">
<title>Node18&#45;&gt;Node19</title>
<path fill="none" stroke="midnightblue" d="M566.09,-42.96C574.06,-41.6 582.95,-40.09 591.85,-38.57"/>
<polygon fill="midnightblue" stroke="midnightblue" points="592.59,-41.99 601.86,-36.86 591.42,-35.09 592.59,-41.99"/>
</g>
<!-- Node21 -->
<g id="node21" class="node">
<title>Node21</title>
<g id="a_node21"><a xlink:href="utils_8c.html#a1bca6910c90a19d96b36506a2e2cebf6" target="_top" xlink:title="as fd are all setup to &#45;1 at the beginning we check if they are open before trying to close we avoid ...">
<polygon fill="none" stroke="black" points="830,-38.5 830,-57.5 899,-57.5 899,-38.5 830,-38.5"/>
<text text-anchor="middle" x="864.5" y="-45.5" font-family="Helvetica,sans-Serif" font-size="10.00">ft_close_fd</text>
</a>
</g>
</g>
<!-- Node18&#45;&gt;Node21 -->
<g id="edge25" class="edge">
<title>Node18&#45;&gt;Node21</title>
<path fill="none" stroke="midnightblue" d="M566.1,-48C623.85,-48 751.82,-48 819.53,-48"/>
<polygon fill="midnightblue" stroke="midnightblue" points="819.86,-51.5 829.86,-48 819.85,-44.5 819.86,-51.5"/>
</g>
<!-- Node20 -->
<g id="node20" class="node">
<title>Node20</title>
<g id="a_node20"><a xlink:href="lst__redir2_8c.html#ade8f0bdda51d9bf348ebeb38fefba881" target="_top" xlink:title=" ">
<polygon fill="none" stroke="black" points="732,-19.5 732,-38.5 794,-38.5 794,-19.5 732,-19.5"/>
<text text-anchor="middle" x="763" y="-26.5" font-family="Helvetica,sans-Serif" font-size="10.00">pop_redir</text>
</a>
</g>
</g>
<!-- Node19&#45;&gt;Node20 -->
<g id="edge23" class="edge">
<title>Node19&#45;&gt;Node20</title>
<path fill="none" stroke="midnightblue" d="M696.2,-29C704.67,-29 713.46,-29 721.74,-29"/>
<polygon fill="midnightblue" stroke="midnightblue" points="721.9,-32.5 731.9,-29 721.9,-25.5 721.9,-32.5"/>
</g>
<!-- Node20&#45;&gt;Node21 -->
<g id="edge24" class="edge">
<title>Node20&#45;&gt;Node21</title>
<path fill="none" stroke="midnightblue" d="M794.12,-34.75C802.18,-36.29 811.06,-37.99 819.69,-39.63"/>
<polygon fill="midnightblue" stroke="midnightblue" points="819.17,-43.1 829.65,-41.54 820.49,-36.22 819.17,-43.1"/>
</g>
</g>
</svg>
        <g id="navigator" transform="translate(0 0)" fill="#404254">
                <rect fill="#f2f5e9" fill-opacity="0.5" stroke="#606060" stroke-width=".5" x="0" y="0" width="60" height="60"/>
                <use id="zoomplus" xlink:href="#zoomPlus" x="17" y="9" onmousedown="handleZoom(evt,'in')"/>
                <use id="zoomminus" xlink:href="#zoomMin" x="42" y="9" onmousedown="handleZoom(evt,'out')"/>
                <use id="reset" xlink:href="#resetDef" x="30" y="36" onmousedown="handleReset()"/>
                <g id="arrowUp" xlink:href="#dirArrow" transform="translate(30 24)" onmousedown="handlePan(0,-1)">
                  <use xlink:href="#rim" fill="#404040">
                        <set attributeName="fill" to="#808080" begin="arrowUp.mouseover" end="arrowUp.mouseout"/>
                  </use>
                  <path fill="none" stroke="white" stroke-width="1.5" d="M0,-3.0v7 M-2.5,-0.5L0,-3.0L2.5,-0.5"/>
                </g>
                <g id="arrowRight" xlink:href="#dirArrow" transform="rotate(90) translate(36 -43)" onmousedown="handlePan(1,0)">
                  <use xlink:href="#rim" fill="#404040">
                        <set attributeName="fill" to="#808080" begin="arrowRight.mouseover" end="arrowRight.mouseout"/>
                  </use>
                  <path fill="none" stroke="white" stroke-width="1.5" d="M0,-3.0v7 M-2.5,-0.5L0,-3.0L2.5,-0.5"/>
                </g>
                <g id="arrowDown" xlink:href="#dirArrow" transform="rotate(180) translate(-30 -48)" onmousedown="handlePan(0,1)">
                  <use xlink:href="#rim" fill="#404040">
                        <set attributeName="fill" to="#808080" begin="arrowDown.mouseover" end="arrowDown.mouseout"/>
                  </use>
                  <path fill="none" stroke="white" stroke-width="1.5" d="M0,-3.0v7 M-2.5,-0.5L0,-3.0L2.5,-0.5"/>
                </g>
                <g id="arrowLeft" xlink:href="#dirArrow" transform="rotate(270) translate(-36 17)" onmousedown="handlePan(-1,0)">
                  <use xlink:href="#rim" fill="#404040">
                        <set attributeName="fill" to="#808080" begin="arrowLeft.mouseover" end="arrowLeft.mouseout"/>
                  </use>
                  <path fill="none" stroke="white" stroke-width="1.5" d="M0,-3.0v7 M-2.5,-0.5L0,-3.0L2.5,-0.5"/>
                </g>
        </g>
        <svg viewBox="0 0 15 15" width="100%" height="30px" preserveAspectRatio="xMaxYMin meet">
         <g id="arrow_out" transform="scale(0.3 0.3)">
          <a xlink:href="parsing_8h_a302af903b3f87eaaff83762f60c2d8cb_cgraph_org.svg" target="_base">
           <rect id="button" ry="5" rx="5" y="6" x="6" height="38" width="38"
                fill="#f2f5e9" fill-opacity="0.5" stroke="#606060" stroke-width="1.0"/>
           <path id="arrow"
             d="M 11.500037,31.436501 C 11.940474,20.09759 22.043105,11.32322 32.158766,21.979434 L 37.068811,17.246167 C 37.068811,17.246167 37.088388,32 37.088388,32 L 22.160133,31.978069 C 22.160133,31.978069 26.997745,27.140456 26.997745,27.140456 C 18.528582,18.264221 13.291696,25.230495 11.500037,31.436501 z"
             style="fill:#404040;"/>
          </a>
         </g>
        </svg>
</svg>
