<?xml version="1.0" encoding="UTF-8" standalone="no"?>
<!DOCTYPE svg PUBLIC "-//W3C//DTD SVG 1.1//EN"
 "http://www.w3.org/Graphics/SVG/1.1/DTD/svg11.dtd">
<!-- Generated by graphviz version 2.43.0 (0)
 -->
<!-- Title: lex_word Pages: 1 -->
<svg width="478pt" height="294pt"
 viewBox="0.00 0.00 478.00 294.00" xmlns="http://www.w3.org/2000/svg" xmlns:xlink="http://www.w3.org/1999/xlink">
<g id="graph0" class="graph" transform="scale(1 1) rotate(0) translate(4 290)">
<title>lex_word</title>
<!-- Node1 -->
<g id="node1" class="node">
<title>Node1</title>
<g id="a_node1"><a xlink:title="Lexes the string to create a WORD token.">
<polygon fill="#bfbfbf" stroke="black" points="0,-57.5 0,-76.5 61,-76.5 61,-57.5 0,-57.5"/>
<text text-anchor="middle" x="30.5" y="-64.5" font-family="Helvetica,sans-Serif" font-size="10.00">lex_word</text>
</a>
</g>
</g>
<!-- Node2 -->
<g id="node2" class="node">
<title>Node2</title>
<g id="a_node2"><a xlink:href="lexer__word_8c.html#a8c3afe25ab140f0d5490ae1a8389e162" target="_top" xlink:title=" ">
<polygon fill="none" stroke="black" points="97,-152.5 97,-171.5 184,-171.5 184,-152.5 97,-152.5"/>
<text text-anchor="middle" x="140.5" y="-159.5" font-family="Helvetica,sans-Serif" font-size="10.00">lex_word_loop</text>
</a>
</g>
</g>
<!-- Node1&#45;&gt;Node2 -->
<g id="edge1" class="edge">
<title>Node1&#45;&gt;Node2</title>
<path fill="none" stroke="midnightblue" d="M42.65,-76.81C61.18,-93.11 98.49,-125.93 121.01,-145.73"/>
<polygon fill="midnightblue" stroke="midnightblue" points="118.75,-148.41 128.57,-152.39 123.37,-143.15 118.75,-148.41"/>
</g>
<!-- Node9 -->
<g id="node9" class="node">
<title>Node9</title>
<g id="a_node9"><a xlink:href="token__utils_8c.html#a9fd4752dfeaa8c87b63c2c53710b28f5" target="_top" xlink:title="Build a token.">
<polygon fill="none" stroke="black" points="102.5,-38.5 102.5,-57.5 178.5,-57.5 178.5,-38.5 102.5,-38.5"/>
<text text-anchor="middle" x="140.5" y="-45.5" font-family="Helvetica,sans-Serif" font-size="10.00">make_token</text>
</a>
</g>
</g>
<!-- Node1&#45;&gt;Node9 -->
<g id="edge12" class="edge">
<title>Node1&#45;&gt;Node9</title>
<path fill="none" stroke="midnightblue" d="M61.01,-61.81C70.67,-60.11 81.65,-58.18 92.27,-56.31"/>
<polygon fill="midnightblue" stroke="midnightblue" points="93.05,-59.73 102.29,-54.55 91.84,-52.83 93.05,-59.73"/>
</g>
<!-- Node10 -->
<g id="node10" class="node">
<title>Node10</title>
<g id="a_node10"><a xlink:href="string__builder_8c.html#a1bfdfae2d27c541b15b526d7d67b7577" target="_top" xlink:title="End and null terminate the string created in t_str_buf, reset the struct so it can be reused and retu...">
<polygon fill="none" stroke="black" points="103.5,-76.5 103.5,-95.5 177.5,-95.5 177.5,-76.5 103.5,-76.5"/>
<text text-anchor="middle" x="140.5" y="-83.5" font-family="Helvetica,sans-Serif" font-size="10.00">str_buf_end</text>
</a>
</g>
</g>
<!-- Node1&#45;&gt;Node10 -->
<g id="edge13" class="edge">
<title>Node1&#45;&gt;Node10</title>
<path fill="none" stroke="midnightblue" d="M61.01,-72.19C71.05,-73.96 82.53,-75.98 93.55,-77.92"/>
<polygon fill="midnightblue" stroke="midnightblue" points="93.03,-81.38 103.48,-79.66 94.24,-74.48 93.03,-81.38"/>
</g>
<!-- Node11 -->
<g id="node11" class="node">
<title>Node11</title>
<g id="a_node11"><a xlink:href="string__builder_8c.html#a2ff0766da574e4904598f3119c7d3749" target="_top" xlink:title=" ">
<polygon fill="none" stroke="black" points="105,-0.5 105,-19.5 176,-19.5 176,-0.5 105,-0.5"/>
<text text-anchor="middle" x="140.5" y="-7.5" font-family="Helvetica,sans-Serif" font-size="10.00">str_buf_init</text>
</a>
</g>
</g>
<!-- Node1&#45;&gt;Node11 -->
<g id="edge15" class="edge">
<title>Node1&#45;&gt;Node11</title>
<path fill="none" stroke="midnightblue" d="M46.86,-57.47C59.98,-49.49 79.45,-37.98 97,-29 100.36,-27.28 103.92,-25.55 107.48,-23.88"/>
<polygon fill="midnightblue" stroke="midnightblue" points="109.15,-26.96 116.79,-19.62 106.24,-20.6 109.15,-26.96"/>
</g>
<!-- Node3 -->
<g id="node3" class="node">
<title>Node3</title>
<g id="a_node3"><a xlink:href="lexer__utils_8c.html#a6b132516dacc9599762b1fe7341a0f04" target="_top" xlink:title="Advance one byte in the struct t_lexer to keep track of progress.">
<polygon fill="none" stroke="black" points="402.5,-152.5 402.5,-171.5 460.5,-171.5 460.5,-152.5 402.5,-152.5"/>
<text text-anchor="middle" x="431.5" y="-159.5" font-family="Helvetica,sans-Serif" font-size="10.00">advance</text>
</a>
</g>
</g>
<!-- Node2&#45;&gt;Node3 -->
<g id="edge2" class="edge">
<title>Node2&#45;&gt;Node3</title>
<path fill="none" stroke="midnightblue" d="M150.52,-171.61C164.07,-185.26 191.17,-209.64 220,-219 277.91,-237.81 299.39,-238.72 357,-219 379.99,-211.13 401.34,-192.82 415.05,-179.06"/>
<polygon fill="midnightblue" stroke="midnightblue" points="417.8,-181.25 422.18,-171.6 412.74,-176.41 417.8,-181.25"/>
</g>
<!-- Node4 -->
<g id="node4" class="node">
<title>Node4</title>
<g id="a_node4"><a xlink:href="lexer__word_8c.html#a088ba907ca2f9f7d89809627a5ef8313" target="_top" xlink:title="Lexes a segment delimited by double quotes.">
<polygon fill="none" stroke="black" points="220,-114.5 220,-133.5 357,-133.5 357,-114.5 220,-114.5"/>
<text text-anchor="middle" x="288.5" y="-121.5" font-family="Helvetica,sans-Serif" font-size="10.00">double_quoted_segment</text>
</a>
</g>
</g>
<!-- Node2&#45;&gt;Node4 -->
<g id="edge3" class="edge">
<title>Node2&#45;&gt;Node4</title>
<path fill="none" stroke="midnightblue" d="M178.34,-152.41C197.35,-147.46 220.73,-141.38 240.97,-136.11"/>
<polygon fill="midnightblue" stroke="midnightblue" points="242.13,-139.43 250.92,-133.52 240.36,-132.65 242.13,-139.43"/>
</g>
<!-- Node5 -->
<g id="node5" class="node">
<title>Node5</title>
<g id="a_node5"><a xlink:href="string__builder_8c.html#a2630bac2d2575ee6ecee7ed88e5f8296" target="_top" xlink:title="Put char in the struct t_str_buf so we can build a string in the struct. The point is to create the s...">
<polygon fill="none" stroke="black" points="393,-95.5 393,-114.5 470,-114.5 470,-95.5 393,-95.5"/>
<text text-anchor="middle" x="431.5" y="-102.5" font-family="Helvetica,sans-Serif" font-size="10.00">str_buf_putc</text>
</a>
</g>
</g>
<!-- Node2&#45;&gt;Node5 -->
<g id="edge11" class="edge">
<title>Node2&#45;&gt;Node5</title>
<path fill="none" stroke="midnightblue" d="M150.52,-152.39C164.07,-138.74 191.17,-114.36 220,-105 273.74,-87.55 339.34,-91.18 382.88,-96.79"/>
<polygon fill="midnightblue" stroke="midnightblue" points="382.53,-100.27 392.91,-98.16 383.48,-93.34 382.53,-100.27"/>
</g>
<!-- Node6 -->
<g id="node6" class="node">
<title>Node6</title>
<g id="a_node6"><a xlink:href="lexer_8c.html#a36667927c23670d83624ca9049adfc2d" target="_top" xlink:title="Check if the char is one of the possible operator, currently &#39;&lt;&#39;, &#39;&gt;&#39; or &#39;|&#39;.">
<polygon fill="none" stroke="black" points="239.5,-266.5 239.5,-285.5 337.5,-285.5 337.5,-266.5 239.5,-266.5"/>
<text text-anchor="middle" x="288.5" y="-273.5" font-family="Helvetica,sans-Serif" font-size="10.00">is_char_operator</text>
</a>
</g>
</g>
<!-- Node2&#45;&gt;Node6 -->
<g id="edge6" class="edge">
<title>Node2&#45;&gt;Node6</title>
<path fill="none" stroke="midnightblue" d="M147.41,-171.58C159.1,-189.76 186.92,-229.49 220,-252 226.15,-256.19 233.11,-259.73 240.17,-262.69"/>
<polygon fill="midnightblue" stroke="midnightblue" points="239.19,-266.07 249.78,-266.39 241.71,-259.53 239.19,-266.07"/>
</g>
<!-- Node7 -->
<g id="node7" class="node">
<title>Node7</title>
<g id="a_node7"><a xlink:href="lexer__word_8c.html#ad9e7809fee584699717eb691257a6ded" target="_top" xlink:title="Lexes a segment delimited by single quotes.">
<polygon fill="none" stroke="black" points="222,-152.5 222,-171.5 355,-171.5 355,-152.5 222,-152.5"/>
<text text-anchor="middle" x="288.5" y="-159.5" font-family="Helvetica,sans-Serif" font-size="10.00">single_quoted_segment</text>
</a>
</g>
</g>
<!-- Node2&#45;&gt;Node7 -->
<g id="edge7" class="edge">
<title>Node2&#45;&gt;Node7</title>
<path fill="none" stroke="midnightblue" d="M184.12,-162C192.78,-162 202.12,-162 211.53,-162"/>
<polygon fill="midnightblue" stroke="midnightblue" points="211.74,-165.5 221.74,-162 211.74,-158.5 211.74,-165.5"/>
</g>
<!-- Node8 -->
<g id="node8" class="node">
<title>Node8</title>
<g id="a_node8"><a xlink:href="string__builder_8c.html#a34739f65bf6f3e3e2b9e19dadf5fe217" target="_top" xlink:title=" ">
<polygon fill="none" stroke="black" points="251,-190.5 251,-209.5 326,-209.5 326,-190.5 251,-190.5"/>
<text text-anchor="middle" x="288.5" y="-197.5" font-family="Helvetica,sans-Serif" font-size="10.00">str_buf_free</text>
</a>
</g>
</g>
<!-- Node2&#45;&gt;Node8 -->
<g id="edge10" class="edge">
<title>Node2&#45;&gt;Node8</title>
<path fill="none" stroke="midnightblue" d="M178.34,-171.59C197.35,-176.54 220.73,-182.62 240.97,-187.89"/>
<polygon fill="midnightblue" stroke="midnightblue" points="240.36,-191.35 250.92,-190.48 242.13,-184.57 240.36,-191.35"/>
</g>
<!-- Node4&#45;&gt;Node3 -->
<g id="edge4" class="edge">
<title>Node4&#45;&gt;Node3</title>
<path fill="none" stroke="midnightblue" d="M325.08,-133.59C345.69,-139.14 371.63,-146.14 392.62,-151.79"/>
<polygon fill="midnightblue" stroke="midnightblue" points="391.92,-155.23 402.48,-154.45 393.74,-148.47 391.92,-155.23"/>
</g>
<!-- Node4&#45;&gt;Node5 -->
<g id="edge5" class="edge">
<title>Node4&#45;&gt;Node5</title>
<path fill="none" stroke="midnightblue" d="M357.11,-114.89C365.76,-113.72 374.46,-112.55 382.7,-111.44"/>
<polygon fill="midnightblue" stroke="midnightblue" points="383.41,-114.88 392.85,-110.07 382.48,-107.94 383.41,-114.88"/>
</g>
<!-- Node7&#45;&gt;Node3 -->
<g id="edge8" class="edge">
<title>Node7&#45;&gt;Node3</title>
<path fill="none" stroke="midnightblue" d="M355.05,-162C367.82,-162 380.81,-162 392.33,-162"/>
<polygon fill="midnightblue" stroke="midnightblue" points="392.45,-165.5 402.45,-162 392.45,-158.5 392.45,-165.5"/>
</g>
<!-- Node7&#45;&gt;Node5 -->
<g id="edge9" class="edge">
<title>Node7&#45;&gt;Node5</title>
<path fill="none" stroke="midnightblue" d="M328.5,-152.47C337.95,-149.77 347.94,-146.57 357,-143 373.61,-136.45 391.42,-127.3 405.35,-119.62"/>
<polygon fill="midnightblue" stroke="midnightblue" points="407.3,-122.54 414.31,-114.59 403.88,-116.43 407.3,-122.54"/>
</g>
<!-- Node10&#45;&gt;Node5 -->
<g id="edge14" class="edge">
<title>Node10&#45;&gt;Node5</title>
<path fill="none" stroke="midnightblue" d="M177.78,-77.65C220.97,-69.08 295.04,-58.73 357,-72 374,-75.64 391.82,-83.53 405.66,-90.68"/>
<polygon fill="midnightblue" stroke="midnightblue" points="404.08,-93.8 414.54,-95.45 407.39,-87.63 404.08,-93.8"/>
</g>
</g>
</svg>
