<?xml version="1.0" encoding="UTF-8" standalone="no"?>
<!DOCTYPE svg PUBLIC "-//W3C//DTD SVG 1.1//EN"
 "http://www.w3.org/Graphics/SVG/1.1/DTD/svg11.dtd">
<!-- Generated by graphviz version 2.43.0 (0)
 -->
<!-- Title: expand_word Pages: 1 -->
<!--zoomable 427 -->
<svg id="main" version="1.1" xmlns="http://www.w3.org/2000/svg" xmlns:xlink="http://www.w3.org/1999/xlink" xml:space="preserve" onload="init(evt)">
<style type="text/css"><![CDATA[
.edge:hover path { stroke: red; }
.edge:hover polygon { stroke: red; fill: red; }
]]></style>
<script type="text/javascript"><![CDATA[
var edges = document.getElementsByTagName('g');
if (edges && edges.length) {
  for (var i=0;i<edges.length;i++) {
    if (edges[i].id.substr(0,4)=='edge') {
      edges[i].setAttribute('class','edge');
    }
  }
}
]]></script>
        <defs>
                <circle id="rim" cx="0" cy="0" r="7"/>
                <circle id="rim2" cx="0" cy="0" r="3.5"/>
                <g id="zoomPlus">
                        <use xlink:href="#rim" fill="#404040">
                                <set attributeName="fill" to="#808080" begin="zoomplus.mouseover" end="zoomplus.mouseout"/>
                        </use>
                        <path d="M-4,0h8M0,-4v8" fill="none" stroke="white" stroke-width="1.5" pointer-events="none"/>
                </g>
                <g id="zoomMin">
                        <use xlink:href="#rim" fill="#404040">
                                <set attributeName="fill" to="#808080" begin="zoomminus.mouseover" end="zoomminus.mouseout"/>
                        </use>
                        <path d="M-4,0h8" fill="none" stroke="white" stroke-width="1.5" pointer-events="none"/>
                </g>
                <g id="dirArrow">
                        <path fill="none" stroke="white" stroke-width="1.5" d="M0,-3.0v7 M-2.5,-0.5L0,-3.0L2.5,-0.5"/>
                </g>
               <g id="resetDef">
                       <use xlink:href="#rim2" fill="#404040">
                               <set attributeName="fill" to="#808080" begin="reset.mouseover" end="reset.mouseout"/>
                       </use>
               </g>
        </defs>

<script type="text/javascript">
var viewWidth = 575;
var viewHeight = 427;
var sectionId = 'dynsection-8';
</script>
<script xlink:href="svgpan.js"/>
<svg id="graph" class="graph">
<g id="viewport">
<title>expand_word</title>
<!-- Node1 -->
<g id="node1" class="node">
<title>Node1</title>
<g id="a_node1"><a xlink:title="Scans the word to dequote/expand and build correct output.">
<polygon fill="#bfbfbf" stroke="black" points="0,-152.5 0,-171.5 82,-171.5 82,-152.5 0,-152.5"/>
<text text-anchor="middle" x="41" y="-159.5" font-family="Helvetica,sans-Serif" font-size="10.00">expand_word</text>
</a>
</g>
</g>
<!-- Node2 -->
<g id="node2" class="node">
<title>Node2</title>
<g id="a_node2"><a xlink:href="lexer__utils_8c.html#a6b132516dacc9599762b1fe7341a0f04" target="_top" xlink:title="Advance one byte in the struct t_lexer to keep track of progress.">
<polygon fill="none" stroke="black" points="386.5,-314.5 386.5,-333.5 444.5,-333.5 444.5,-314.5 386.5,-314.5"/>
<text text-anchor="middle" x="415.5" y="-321.5" font-family="Helvetica,sans-Serif" font-size="10.00">advance</text>
</a>
</g>
</g>
<!-- Node1&#45;&gt;Node2 -->
<g id="edge1" class="edge">
<title>Node1&#45;&gt;Node2</title>
<path fill="none" stroke="midnightblue" d="M49.55,-171.82C73.19,-201.68 149.5,-291.27 237,-323 282.62,-339.54 339.27,-336.11 376.12,-331.02"/>
<polygon fill="midnightblue" stroke="midnightblue" points="377.06,-334.42 386.43,-329.48 376.02,-327.5 377.06,-334.42"/>
</g>
<!-- Node3 -->
<g id="node3" class="node">
<title>Node3</title>
<g id="a_node3"><a xlink:href="expand__dollar_8c.html#ac3e15865744ed2c1300a5cb96f24e33d" target="_top" xlink:title="Manages all possibilities with expand : $?, known and unknown env variable.">
<polygon fill="none" stroke="black" points="118,-171.5 118,-190.5 201,-190.5 201,-171.5 118,-171.5"/>
<text text-anchor="middle" x="159.5" y="-178.5" font-family="Helvetica,sans-Serif" font-size="10.00">handle_dollar</text>
</a>
</g>
</g>
<!-- Node1&#45;&gt;Node3 -->
<g id="edge2" class="edge">
<title>Node1&#45;&gt;Node3</title>
<path fill="none" stroke="midnightblue" d="M82.09,-168.54C90.42,-169.9 99.29,-171.34 107.94,-172.75"/>
<polygon fill="midnightblue" stroke="midnightblue" points="107.5,-176.23 117.94,-174.38 108.63,-169.32 107.5,-176.23"/>
</g>
<!-- Node5 -->
<g id="node5" class="node">
<title>Node5</title>
<g id="a_node5"><a xlink:href="string__builder_8c.html#a54e602a5da87bd89687c69c2d86f34d2" target="_top" xlink:title="Put char in the struct t_str_buf so we can build a string in the struct. The point is to create the s...">
<polygon fill="none" stroke="black" points="490,-171.5 490,-190.5 567,-190.5 567,-171.5 490,-171.5"/>
<text text-anchor="middle" x="528.5" y="-178.5" font-family="Helvetica,sans-Serif" font-size="10.00">str_buf_putc</text>
</a>
</g>
</g>
<!-- Node1&#45;&gt;Node5 -->
<g id="edge24" class="edge">
<title>Node1&#45;&gt;Node5</title>
<path fill="none" stroke="midnightblue" d="M41.82,-171.93C41.73,-208.31 46.73,-335.2 118,-394 159.12,-427.92 183.8,-405.66 237,-409 334.5,-415.12 382.76,-440.85 454,-374 504.92,-326.21 520.91,-239.42 525.64,-200.64"/>
<polygon fill="midnightblue" stroke="midnightblue" points="529.12,-200.96 526.73,-190.64 522.16,-200.2 529.12,-200.96"/>
</g>
<!-- Node10 -->
<g id="node10" class="node">
<title>Node10</title>
<g id="a_node10"><a xlink:href="string__builder_8c.html#a1bfdfae2d27c541b15b526d7d67b7577" target="_top" xlink:title="End and null terminate the string created in t_str_buf, reset the struct so it can be reused and retu...">
<polygon fill="none" stroke="black" points="252,-0.5 252,-19.5 326,-19.5 326,-0.5 252,-0.5"/>
<text text-anchor="middle" x="289" y="-7.5" font-family="Helvetica,sans-Serif" font-size="10.00">str_buf_end</text>
</a>
</g>
</g>
<!-- Node1&#45;&gt;Node10 -->
<g id="edge22" class="edge">
<title>Node1&#45;&gt;Node10</title>
<path fill="none" stroke="midnightblue" d="M57.39,-152.47C72.51,-143.3 96.4,-129.35 118,-119 153.8,-101.85 170.46,-111.36 201,-86 224.05,-66.86 213.74,-47.89 237,-29 239.05,-27.33 241.27,-25.8 243.58,-24.4"/>
<polygon fill="midnightblue" stroke="midnightblue" points="245.61,-27.29 252.89,-19.6 242.4,-21.07 245.61,-27.29"/>
</g>
<!-- Node11 -->
<g id="node11" class="node">
<title>Node11</title>
<g id="a_node11"><a xlink:href="string__builder_8c.html#a2ff0766da574e4904598f3119c7d3749" target="_top" xlink:title=" ">
<polygon fill="none" stroke="black" points="253.5,-38.5 253.5,-57.5 324.5,-57.5 324.5,-38.5 253.5,-38.5"/>
<text text-anchor="middle" x="289" y="-45.5" font-family="Helvetica,sans-Serif" font-size="10.00">str_buf_init</text>
</a>
</g>
</g>
<!-- Node1&#45;&gt;Node11 -->
<g id="edge23" class="edge">
<title>Node1&#45;&gt;Node11</title>
<path fill="none" stroke="midnightblue" d="M82.05,-156.26C115.35,-150.33 163.23,-139.03 201,-119 219.65,-109.11 220.69,-101.41 237,-88 246.85,-79.9 257.97,-71.14 267.31,-63.88"/>
<polygon fill="midnightblue" stroke="midnightblue" points="269.53,-66.59 275.3,-57.7 265.25,-61.05 269.53,-66.59"/>
</g>
<!-- Node12 -->
<g id="node12" class="node">
<title>Node12</title>
<g id="a_node12"><a xlink:href="expand__word_8c.html#ae5fd7fdfce4171a392a4f6c781f4e813" target="_top" xlink:title="Dequotes and manage quote state to expand correctly.">
<polygon fill="none" stroke="black" points="245,-380.5 245,-399.5 333,-399.5 333,-380.5 245,-380.5"/>
<text text-anchor="middle" x="289" y="-387.5" font-family="Helvetica,sans-Serif" font-size="10.00">handle_quotes</text>
</a>
</g>
</g>
<!-- Node1&#45;&gt;Node12 -->
<g id="edge17" class="edge">
<title>Node1&#45;&gt;Node12</title>
<path fill="none" stroke="midnightblue" d="M42.33,-171.64C44.01,-204.78 54.38,-314.84 118,-366 150.49,-392.12 198.21,-396.86 234.83,-395.79"/>
<polygon fill="midnightblue" stroke="midnightblue" points="235.01,-399.29 244.85,-395.35 234.7,-392.3 235.01,-399.29"/>
</g>
<!-- Node13 -->
<g id="node13" class="node">
<title>Node13</title>
<g id="a_node13"><a xlink:href="expand__word_8c.html#af8312a725cf021e108e011dfa4d60f73" target="_top" xlink:title="Initialise expand struct.">
<polygon fill="none" stroke="black" points="122.5,-57.5 122.5,-76.5 196.5,-76.5 196.5,-57.5 122.5,-57.5"/>
<text text-anchor="middle" x="159.5" y="-64.5" font-family="Helvetica,sans-Serif" font-size="10.00">init_expand</text>
</a>
</g>
</g>
<!-- Node1&#45;&gt;Node13 -->
<g id="edge20" class="edge">
<title>Node1&#45;&gt;Node13</title>
<path fill="none" stroke="midnightblue" d="M51.24,-152.1C64.98,-137.67 91.99,-110.49 118,-91 122.22,-87.83 126.9,-84.74 131.52,-81.88"/>
<polygon fill="midnightblue" stroke="midnightblue" points="133.41,-84.83 140.22,-76.71 129.84,-78.81 133.41,-84.83"/>
</g>
<!-- Node14 -->
<g id="node14" class="node">
<title>Node14</title>
<g id="a_node14"><a xlink:href="lexer__utils_8c.html#a5226e7cc8fd04bded427425b8bee4439" target="_top" xlink:title="Initialize t_lexer.">
<polygon fill="none" stroke="black" points="133,-19.5 133,-38.5 186,-38.5 186,-19.5 133,-19.5"/>
<text text-anchor="middle" x="159.5" y="-26.5" font-family="Helvetica,sans-Serif" font-size="10.00">lex_init</text>
</a>
</g>
</g>
<!-- Node1&#45;&gt;Node14 -->
<g id="edge21" class="edge">
<title>Node1&#45;&gt;Node14</title>
<path fill="none" stroke="midnightblue" d="M46.14,-152.48C55.84,-131.16 81.94,-79.04 118,-48 119.77,-46.48 121.68,-45.05 123.68,-43.72"/>
<polygon fill="midnightblue" stroke="midnightblue" points="125.88,-46.49 132.8,-38.47 122.39,-40.42 125.88,-46.49"/>
</g>
<!-- Node3&#45;&gt;Node2 -->
<g id="edge3" class="edge">
<title>Node3&#45;&gt;Node2</title>
<path fill="none" stroke="midnightblue" d="M163.87,-190.6C172.28,-213.05 196.49,-268.98 237,-295 279.03,-321.99 337.84,-326.57 376.04,-326.21"/>
<polygon fill="midnightblue" stroke="midnightblue" points="376.32,-329.71 386.24,-326 376.17,-322.71 376.32,-329.71"/>
</g>
<!-- Node4 -->
<g id="node4" class="node">
<title>Node4</title>
<g id="a_node4"><a xlink:href="expand__dollar_8c.html#a1cf0ce389e469994b9ddb06a944e531e" target="_top" xlink:title="Handle $? to expand on current error code.">
<polygon fill="none" stroke="black" points="244.5,-152.5 244.5,-171.5 333.5,-171.5 333.5,-152.5 244.5,-152.5"/>
<text text-anchor="middle" x="289" y="-159.5" font-family="Helvetica,sans-Serif" font-size="10.00">error_code_var</text>
</a>
</g>
</g>
<!-- Node3&#45;&gt;Node4 -->
<g id="edge4" class="edge">
<title>Node3&#45;&gt;Node4</title>
<path fill="none" stroke="midnightblue" d="M201.19,-174.94C211.68,-173.37 223.13,-171.67 234.18,-170.02"/>
<polygon fill="midnightblue" stroke="midnightblue" points="234.79,-173.47 244.17,-168.53 233.76,-166.54 234.79,-173.47"/>
</g>
<!-- Node3&#45;&gt;Node5 -->
<g id="edge15" class="edge">
<title>Node3&#45;&gt;Node5</title>
<path fill="none" stroke="midnightblue" d="M201.34,-183.01C258.05,-185.5 363.85,-189.06 454,-186 462.27,-185.72 471.05,-185.26 479.56,-184.73"/>
<polygon fill="midnightblue" stroke="midnightblue" points="480.01,-188.21 489.76,-184.06 479.55,-181.23 480.01,-188.21"/>
</g>
<!-- Node6 -->
<g id="node6" class="node">
<title>Node6</title>
<g id="a_node6"><a xlink:href="string__builder_8c.html#a4bb0bb42cbf7ca9f7feff204d3059306" target="_top" xlink:title="Put a null terminated string in the t_str_buf struct.">
<polygon fill="none" stroke="black" points="377,-114.5 377,-133.5 454,-133.5 454,-114.5 377,-114.5"/>
<text text-anchor="middle" x="415.5" y="-121.5" font-family="Helvetica,sans-Serif" font-size="10.00">str_buf_puts</text>
</a>
</g>
</g>
<!-- Node3&#45;&gt;Node6 -->
<g id="edge16" class="edge">
<title>Node3&#45;&gt;Node6</title>
<path fill="none" stroke="midnightblue" d="M180.63,-171.33C187.53,-167.45 195.02,-162.57 201,-157 221.57,-137.84 212.1,-118.05 237,-105 283.55,-80.61 346.3,-96.86 383.38,-110.62"/>
<polygon fill="midnightblue" stroke="midnightblue" points="382.53,-114.05 393.12,-114.4 385.06,-107.52 382.53,-114.05"/>
</g>
<!-- Node7 -->
<g id="node7" class="node">
<title>Node7</title>
<g id="a_node7"><a xlink:href="expand_8c.html#a19e46ed1e16f9b3f3b1e8961163feedc" target="_top" xlink:title="Checks if a given char is a valid character for the key of an env variable.">
<polygon fill="none" stroke="black" points="241.5,-114.5 241.5,-133.5 336.5,-133.5 336.5,-114.5 241.5,-114.5"/>
<text text-anchor="middle" x="289" y="-121.5" font-family="Helvetica,sans-Serif" font-size="10.00">is_valid_for_key</text>
</a>
</g>
</g>
<!-- Node3&#45;&gt;Node7 -->
<g id="edge9" class="edge">
<title>Node3&#45;&gt;Node7</title>
<path fill="none" stroke="midnightblue" d="M178.49,-171.4C193.83,-163.37 216.59,-151.84 237,-143 241.53,-141.04 246.34,-139.08 251.12,-137.22"/>
<polygon fill="midnightblue" stroke="midnightblue" points="252.69,-140.36 260.79,-133.54 250.2,-133.82 252.69,-140.36"/>
</g>
<!-- Node8 -->
<g id="node8" class="node">
<title>Node8</title>
<g id="a_node8"><a xlink:href="lexer__utils_8c.html#a855a36981b55d317a52d24560c0809bf" target="_top" xlink:title="&quot;Peek&quot;, Look at the next character in the input string">
<polygon fill="none" stroke="black" points="268.5,-266.5 268.5,-285.5 309.5,-285.5 309.5,-266.5 268.5,-266.5"/>
<text text-anchor="middle" x="289" y="-273.5" font-family="Helvetica,sans-Serif" font-size="10.00">peek</text>
</a>
</g>
</g>
<!-- Node3&#45;&gt;Node8 -->
<g id="edge10" class="edge">
<title>Node3&#45;&gt;Node8</title>
<path fill="none" stroke="midnightblue" d="M167.95,-190.73C180.58,-206.61 207.67,-238.23 237,-257 243.57,-261.2 251.2,-264.67 258.52,-267.44"/>
<polygon fill="midnightblue" stroke="midnightblue" points="257.6,-270.82 268.2,-270.79 259.89,-264.21 257.6,-270.82"/>
</g>
<!-- Node9 -->
<g id="node9" class="node">
<title>Node9</title>
<g id="a_node9"><a xlink:href="lst__env__two_8c.html#a4d4a14327b2c3ff88099102b6bd77986" target="_top" xlink:title=" ">
<polygon fill="none" stroke="black" points="237,-228.5 237,-247.5 341,-247.5 341,-228.5 237,-228.5"/>
<text text-anchor="middle" x="289" y="-235.5" font-family="Helvetica,sans-Serif" font-size="10.00">research_key_env</text>
</a>
</g>
</g>
<!-- Node3&#45;&gt;Node9 -->
<g id="edge11" class="edge">
<title>Node3&#45;&gt;Node9</title>
<path fill="none" stroke="midnightblue" d="M181.84,-190.54C202.53,-199.79 234.11,-213.91 257.46,-224.35"/>
<polygon fill="midnightblue" stroke="midnightblue" points="256.03,-227.54 266.59,-228.43 258.89,-221.15 256.03,-227.54"/>
</g>
<!-- Node3&#45;&gt;Node10 -->
<g id="edge12" class="edge">
<title>Node3&#45;&gt;Node10</title>
<path fill="none" stroke="midnightblue" d="M167.73,-171.28C176.36,-159.37 190.92,-138.39 201,-119 220.88,-80.78 206.18,-59.1 237,-29 238.83,-27.21 240.85,-25.59 242.99,-24.11"/>
<polygon fill="midnightblue" stroke="midnightblue" points="244.78,-27.12 251.75,-19.15 241.32,-21.04 244.78,-27.12"/>
</g>
<!-- Node3&#45;&gt;Node11 -->
<g id="edge14" class="edge">
<title>Node3&#45;&gt;Node11</title>
<path fill="none" stroke="midnightblue" d="M182.55,-171.28C189.14,-167.56 195.94,-162.78 201,-157 228,-126.11 208.56,-101.57 237,-72 240.6,-68.26 244.89,-65.04 249.44,-62.29"/>
<polygon fill="midnightblue" stroke="midnightblue" points="251.18,-65.32 258.38,-57.55 247.91,-59.14 251.18,-65.32"/>
</g>
<!-- Node4&#45;&gt;Node2 -->
<g id="edge5" class="edge">
<title>Node4&#45;&gt;Node2</title>
<path fill="none" stroke="midnightblue" d="M299.4,-171.78C309.93,-182.89 327.31,-201.73 341,-219 364.36,-248.47 388.91,-284.79 402.9,-306.07"/>
<polygon fill="midnightblue" stroke="midnightblue" points="399.98,-308 408.37,-314.46 405.84,-304.17 399.98,-308"/>
</g>
<!-- Node4&#45;&gt;Node5 -->
<g id="edge6" class="edge">
<title>Node4&#45;&gt;Node5</title>
<path fill="none" stroke="midnightblue" d="M333.56,-165.48C374.88,-168.79 436.84,-173.75 479.55,-177.16"/>
<polygon fill="midnightblue" stroke="midnightblue" points="479.45,-180.67 489.7,-177.98 480.01,-173.69 479.45,-180.67"/>
</g>
<!-- Node4&#45;&gt;Node6 -->
<g id="edge7" class="edge">
<title>Node4&#45;&gt;Node6</title>
<path fill="none" stroke="midnightblue" d="M321.42,-152.41C337.19,-147.6 356.51,-141.7 373.44,-136.53"/>
<polygon fill="midnightblue" stroke="midnightblue" points="374.55,-139.85 383.09,-133.59 372.51,-133.16 374.55,-139.85"/>
</g>
<!-- Node6&#45;&gt;Node5 -->
<g id="edge8" class="edge">
<title>Node6&#45;&gt;Node5</title>
<path fill="none" stroke="midnightblue" d="M435.08,-133.54C452.77,-142.62 479.61,-156.41 499.82,-166.79"/>
<polygon fill="midnightblue" stroke="midnightblue" points="498.37,-169.97 508.86,-171.43 501.56,-163.75 498.37,-169.97"/>
</g>
<!-- Node10&#45;&gt;Node5 -->
<g id="edge13" class="edge">
<title>Node10&#45;&gt;Node5</title>
<path fill="none" stroke="midnightblue" d="M319.37,-19.6C326.59,-22.32 334.19,-25.5 341,-29 394.84,-56.65 407.6,-66.14 454,-105 476.05,-123.46 498.64,-147.8 512.85,-163.9"/>
<polygon fill="midnightblue" stroke="midnightblue" points="510.26,-166.25 519.47,-171.49 515.54,-161.65 510.26,-166.25"/>
</g>
<!-- Node12&#45;&gt;Node2 -->
<g id="edge18" class="edge">
<title>Node12&#45;&gt;Node2</title>
<path fill="none" stroke="midnightblue" d="M311.28,-380.45C320.49,-376.19 331.36,-371.01 341,-366 357.58,-357.38 375.82,-346.96 389.98,-338.66"/>
<polygon fill="midnightblue" stroke="midnightblue" points="391.81,-341.64 398.64,-333.55 388.25,-335.62 391.81,-341.64"/>
</g>
<!-- Node12&#45;&gt;Node5 -->
<g id="edge19" class="edge">
<title>Node12&#45;&gt;Node5</title>
<path fill="none" stroke="midnightblue" d="M333.05,-387.51C369.17,-383.32 420.14,-372.22 454,-343 498.11,-304.93 517.13,-234.98 524.08,-200.82"/>
<polygon fill="midnightblue" stroke="midnightblue" points="527.57,-201.18 525.99,-190.71 520.69,-199.88 527.57,-201.18"/>
</g>
</g>
</svg>
        <g id="navigator" transform="translate(0 0)" fill="#404254">
                <rect fill="#f2f5e9" fill-opacity="0.5" stroke="#606060" stroke-width=".5" x="0" y="0" width="60" height="60"/>
                <use id="zoomplus" xlink:href="#zoomPlus" x="17" y="9" onmousedown="handleZoom(evt,'in')"/>
                <use id="zoomminus" xlink:href="#zoomMin" x="42" y="9" onmousedown="handleZoom(evt,'out')"/>
                <use id="reset" xlink:href="#resetDef" x="30" y="36" onmousedown="handleReset()"/>
                <g id="arrowUp" xlink:href="#dirArrow" transform="translate(30 24)" onmousedown="handlePan(0,-1)">
                  <use xlink:href="#rim" fill="#404040">
                        <set attributeName="fill" to="#808080" begin="arrowUp.mouseover" end="arrowUp.mouseout"/>
                  </use>
                  <path fill="none" stroke="white" stroke-width="1.5" d="M0,-3.0v7 M-2.5,-0.5L0,-3.0L2.5,-0.5"/>
                </g>
                <g id="arrowRight" xlink:href="#dirArrow" transform="rotate(90) translate(36 -43)" onmousedown="handlePan(1,0)">
                  <use xlink:href="#rim" fill="#404040">
                        <set attributeName="fill" to="#808080" begin="arrowRight.mouseover" end="arrowRight.mouseout"/>
                  </use>
                  <path fill="none" stroke="white" stroke-width="1.5" d="M0,-3.0v7 M-2.5,-0.5L0,-3.0L2.5,-0.5"/>
                </g>
                <g id="arrowDown" xlink:href="#dirArrow" transform="rotate(180) translate(-30 -48)" onmousedown="handlePan(0,1)">
                  <use xlink:href="#rim" fill="#404040">
                        <set attributeName="fill" to="#808080" begin="arrowDown.mouseover" end="arrowDown.mouseout"/>
                  </use>
                  <path fill="none" stroke="white" stroke-width="1.5" d="M0,-3.0v7 M-2.5,-0.5L0,-3.0L2.5,-0.5"/>
                </g>
                <g id="arrowLeft" xlink:href="#dirArrow" transform="rotate(270) translate(-36 17)" onmousedown="handlePan(-1,0)">
                  <use xlink:href="#rim" fill="#404040">
                        <set attributeName="fill" to="#808080" begin="arrowLeft.mouseover" end="arrowLeft.mouseout"/>
                  </use>
                  <path fill="none" stroke="white" stroke-width="1.5" d="M0,-3.0v7 M-2.5,-0.5L0,-3.0L2.5,-0.5"/>
                </g>
        </g>
        <svg viewBox="0 0 15 15" width="100%" height="30px" preserveAspectRatio="xMaxYMin meet">
         <g id="arrow_out" transform="scale(0.3 0.3)">
          <a xlink:href="parsing_8h_a0ec378990f411456436a9bb6a71babfc_cgraph_org.svg" target="_base">
           <rect id="button" ry="5" rx="5" y="6" x="6" height="38" width="38"
                fill="#f2f5e9" fill-opacity="0.5" stroke="#606060" stroke-width="1.0"/>
           <path id="arrow"
             d="M 11.500037,31.436501 C 11.940474,20.09759 22.043105,11.32322 32.158766,21.979434 L 37.068811,17.246167 C 37.068811,17.246167 37.088388,32 37.088388,32 L 22.160133,31.978069 C 22.160133,31.978069 26.997745,27.140456 26.997745,27.140456 C 18.528582,18.264221 13.291696,25.230495 11.500037,31.436501 z"
             style="fill:#404040;"/>
          </a>
         </g>
        </svg>
</svg>
