<?xml version="1.0" encoding="UTF-8" standalone="no"?>
<!DOCTYPE svg PUBLIC "-//W3C//DTD SVG 1.1//EN"
 "http://www.w3.org/Graphics/SVG/1.1/DTD/svg11.dtd">
<!-- Generated by graphviz version 2.43.0 (0)
 -->
<!-- Title: includes/parsing_helpers.h Pages: 1 -->
<svg width="1792pt" height="151pt"
 viewBox="0.00 0.00 1792.00 151.00" xmlns="http://www.w3.org/2000/svg" xmlns:xlink="http://www.w3.org/1999/xlink">
<g id="graph0" class="graph" transform="scale(1 1) rotate(0) translate(4 147)">
<title>includes/parsing_helpers.h</title>
<!-- Node1 -->
<g id="node1" class="node">
<title>Node1</title>
<g id="a_node1"><a xlink:title=" ">
<polygon fill="#bfbfbf" stroke="black" points="729.5,-123.5 729.5,-142.5 875.5,-142.5 875.5,-123.5 729.5,-123.5"/>
<text text-anchor="middle" x="802.5" y="-130.5" font-family="Helvetica,sans-Serif" font-size="10.00">includes/parsing_helpers.h</text>
</a>
</g>
</g>
<!-- Node2 -->
<g id="node2" class="node">
<title>Node2</title>
<g id="a_node2"><a xlink:href="main_8c.html" target="_top" xlink:title=" ">
<polygon fill="none" stroke="black" points="0,-6 0,-25 67,-25 67,-6 0,-6"/>
<text text-anchor="middle" x="33.5" y="-13" font-family="Helvetica,sans-Serif" font-size="10.00">src/main.c</text>
</a>
</g>
</g>
<!-- Node1&#45;&gt;Node2 -->
<g id="edge1" class="edge">
<title>Node1&#45;&gt;Node2</title>
<path fill="none" stroke="midnightblue" d="M719.05,-125.71C582.85,-114.28 304.97,-86 75.5,-31 69.05,-29.45 62.19,-27.31 55.93,-25.14"/>
<polygon fill="midnightblue" stroke="midnightblue" points="719.14,-129.23 729.4,-126.57 719.72,-122.26 719.14,-129.23"/>
</g>
<!-- Node3 -->
<g id="node3" class="node">
<title>Node3</title>
<g id="a_node3"><a xlink:href="parsing_8h.html" target="_top" xlink:title=" ">
<polygon fill="none" stroke="black" points="750,-67.5 750,-86.5 855,-86.5 855,-67.5 750,-67.5"/>
<text text-anchor="middle" x="802.5" y="-74.5" font-family="Helvetica,sans-Serif" font-size="10.00">includes/parsing.h</text>
</a>
</g>
</g>
<!-- Node1&#45;&gt;Node3 -->
<g id="edge2" class="edge">
<title>Node1&#45;&gt;Node3</title>
<path fill="none" stroke="midnightblue" d="M796.03,-113.1C795.4,-104.14 795.84,-93.86 797.37,-86.75"/>
<polygon fill="midnightblue" stroke="midnightblue" points="792.57,-113.62 797.33,-123.08 799.51,-112.71 792.57,-113.62"/>
</g>
<!-- Node3&#45;&gt;Node1 -->
<g id="edge16" class="edge">
<title>Node3&#45;&gt;Node1</title>
<path fill="none" stroke="midnightblue" d="M808.96,-96.69C809.61,-105.64 809.18,-115.93 807.67,-123.08"/>
<polygon fill="midnightblue" stroke="midnightblue" points="812.42,-96.2 807.63,-86.75 805.48,-97.13 812.42,-96.2"/>
</g>
<!-- Node3&#45;&gt;Node2 -->
<g id="edge11" class="edge">
<title>Node3&#45;&gt;Node2</title>
<path fill="none" stroke="midnightblue" d="M739.67,-74.29C587.38,-69.8 201.8,-56.22 75.5,-31 68.54,-29.61 61.16,-27.35 54.56,-25.02"/>
<polygon fill="midnightblue" stroke="midnightblue" points="739.7,-77.79 749.79,-74.59 739.9,-70.8 739.7,-77.79"/>
</g>
<!-- Node4 -->
<g id="node4" class="node">
<title>Node4</title>
<g id="a_node4"><a xlink:href="expand_8c.html" target="_top" xlink:title=" ">
<polygon fill="none" stroke="black" points="85,-6 85,-25 202,-25 202,-6 85,-6"/>
<text text-anchor="middle" x="143.5" y="-13" font-family="Helvetica,sans-Serif" font-size="10.00">src/expand/expand.c</text>
</a>
</g>
</g>
<!-- Node3&#45;&gt;Node4 -->
<g id="edge3" class="edge">
<title>Node3&#45;&gt;Node4</title>
<path fill="none" stroke="midnightblue" d="M739.86,-74.06C631.49,-70.09 402.2,-58.89 210.5,-31 200.02,-29.47 188.73,-27.26 178.46,-25.01"/>
<polygon fill="midnightblue" stroke="midnightblue" points="739.85,-77.57 749.97,-74.43 740.1,-70.57 739.85,-77.57"/>
</g>
<!-- Node5 -->
<g id="node5" class="node">
<title>Node5</title>
<g id="a_node5"><a xlink:href="expand__dollar_8c.html" target="_top" xlink:title=" ">
<polygon fill="none" stroke="black" points="220,-6 220,-25 369,-25 369,-6 220,-6"/>
<text text-anchor="middle" x="294.5" y="-13" font-family="Helvetica,sans-Serif" font-size="10.00">src/expand/expand_dollar.c</text>
</a>
</g>
</g>
<!-- Node3&#45;&gt;Node5 -->
<g id="edge4" class="edge">
<title>Node3&#45;&gt;Node5</title>
<path fill="none" stroke="midnightblue" d="M739.8,-70.63C656.92,-63.25 506.42,-48.81 378.5,-31 366.19,-29.29 352.91,-27.14 340.63,-25.02"/>
<polygon fill="midnightblue" stroke="midnightblue" points="739.55,-74.12 749.82,-71.52 740.16,-67.15 739.55,-74.12"/>
</g>
<!-- Node6 -->
<g id="node6" class="node">
<title>Node6</title>
<g id="a_node6"><a xlink:href="expand__word_8c.html" target="_top" xlink:title=" ">
<polygon fill="none" stroke="black" points="387.5,-6 387.5,-25 533.5,-25 533.5,-6 387.5,-6"/>
<text text-anchor="middle" x="460.5" y="-13" font-family="Helvetica,sans-Serif" font-size="10.00">src/expand/expand_word.c</text>
</a>
</g>
</g>
<!-- Node3&#45;&gt;Node6 -->
<g id="edge5" class="edge">
<title>Node3&#45;&gt;Node6</title>
<path fill="none" stroke="midnightblue" d="M742.46,-65.67C689.76,-56.59 611.03,-42.99 542.5,-31 531.53,-29.08 519.75,-27.01 508.62,-25.04"/>
<polygon fill="midnightblue" stroke="midnightblue" points="742.2,-69.18 752.65,-67.43 743.39,-62.28 742.2,-69.18"/>
</g>
<!-- Node7 -->
<g id="node7" class="node">
<title>Node7</title>
<g id="a_node7"><a xlink:href="lexer_8c.html" target="_top" xlink:title=" ">
<polygon fill="none" stroke="black" points="551.5,-6 551.5,-25 649.5,-25 649.5,-6 551.5,-6"/>
<text text-anchor="middle" x="600.5" y="-13" font-family="Helvetica,sans-Serif" font-size="10.00">src/lexing/lexer.c</text>
</a>
</g>
</g>
<!-- Node3&#45;&gt;Node7 -->
<g id="edge6" class="edge">
<title>Node3&#45;&gt;Node7</title>
<path fill="none" stroke="midnightblue" d="M763.81,-64.6C724.55,-53.04 664.69,-35.41 629.39,-25.01"/>
<polygon fill="midnightblue" stroke="midnightblue" points="762.98,-68.01 773.56,-67.48 764.95,-61.29 762.98,-68.01"/>
</g>
<!-- Node8 -->
<g id="node8" class="node">
<title>Node8</title>
<g id="a_node8"><a xlink:href="lexer__utils_8c.html" target="_top" xlink:title=" ">
<polygon fill="none" stroke="black" points="668,-6 668,-25 793,-25 793,-6 668,-6"/>
<text text-anchor="middle" x="730.5" y="-13" font-family="Helvetica,sans-Serif" font-size="10.00">src/lexing/lexer_utils.c</text>
</a>
</g>
</g>
<!-- Node3&#45;&gt;Node8 -->
<g id="edge7" class="edge">
<title>Node3&#45;&gt;Node8</title>
<path fill="none" stroke="midnightblue" d="M784.32,-60.97C770.54,-49.59 752.12,-34.37 740.8,-25.01"/>
<polygon fill="midnightblue" stroke="midnightblue" points="782.25,-63.8 792.18,-67.48 786.71,-58.41 782.25,-63.8"/>
</g>
<!-- Node9 -->
<g id="node9" class="node">
<title>Node9</title>
<g id="a_node9"><a xlink:href="lexer__word_8c.html" target="_top" xlink:title=" ">
<polygon fill="none" stroke="black" points="811.5,-6 811.5,-25 939.5,-25 939.5,-6 811.5,-6"/>
<text text-anchor="middle" x="875.5" y="-13" font-family="Helvetica,sans-Serif" font-size="10.00">src/lexing/lexer_word.c</text>
</a>
</g>
</g>
<!-- Node3&#45;&gt;Node9 -->
<g id="edge8" class="edge">
<title>Node3&#45;&gt;Node9</title>
<path fill="none" stroke="midnightblue" d="M820.94,-60.97C834.9,-49.59 853.58,-34.37 865.06,-25.01"/>
<polygon fill="midnightblue" stroke="midnightblue" points="818.5,-58.44 812.96,-67.48 822.92,-63.87 818.5,-58.44"/>
</g>
<!-- Node10 -->
<g id="node10" class="node">
<title>Node10</title>
<g id="a_node10"><a xlink:href="string__builder_8c.html" target="_top" xlink:title=" ">
<polygon fill="none" stroke="black" points="958,-6 958,-25 1099,-25 1099,-6 958,-6"/>
<text text-anchor="middle" x="1028.5" y="-13" font-family="Helvetica,sans-Serif" font-size="10.00">src/lexing/string_builder.c</text>
</a>
</g>
</g>
<!-- Node3&#45;&gt;Node10 -->
<g id="edge9" class="edge">
<title>Node3&#45;&gt;Node10</title>
<path fill="none" stroke="midnightblue" d="M844.68,-64.9C888.57,-53.34 956.35,-35.5 996.18,-25.01"/>
<polygon fill="midnightblue" stroke="midnightblue" points="843.66,-61.54 834.88,-67.48 845.44,-68.31 843.66,-61.54"/>
</g>
<!-- Node11 -->
<g id="node11" class="node">
<title>Node11</title>
<g id="a_node11"><a xlink:href="token__utils_8c.html" target="_top" xlink:title=" ">
<polygon fill="none" stroke="black" points="1117.5,-6 1117.5,-25 1245.5,-25 1245.5,-6 1117.5,-6"/>
<text text-anchor="middle" x="1181.5" y="-13" font-family="Helvetica,sans-Serif" font-size="10.00">src/lexing/token_utils.c</text>
</a>
</g>
</g>
<!-- Node3&#45;&gt;Node11 -->
<g id="edge10" class="edge">
<title>Node3&#45;&gt;Node11</title>
<path fill="none" stroke="midnightblue" d="M865.16,-67.72C927.11,-59.31 1024.54,-45.5 1108.5,-31 1118.81,-29.22 1129.91,-27.11 1140.26,-25.07"/>
<polygon fill="midnightblue" stroke="midnightblue" points="864.59,-64.27 855.15,-69.07 865.53,-71.2 864.59,-64.27"/>
</g>
<!-- Node12 -->
<g id="node12" class="node">
<title>Node12</title>
<g id="a_node12"><a xlink:href="argv__builder_8c.html" target="_top" xlink:title=" ">
<polygon fill="none" stroke="black" points="1264,-6 1264,-25 1405,-25 1405,-6 1264,-6"/>
<text text-anchor="middle" x="1334.5" y="-13" font-family="Helvetica,sans-Serif" font-size="10.00">src/parsing/argv_builder.c</text>
</a>
</g>
</g>
<!-- Node3&#45;&gt;Node12 -->
<g id="edge12" class="edge">
<title>Node3&#45;&gt;Node12</title>
<path fill="none" stroke="midnightblue" d="M865.23,-71.35C952.68,-64.51 1116.09,-50.4 1254.5,-31 1266.38,-29.33 1279.19,-27.18 1291.01,-25.04"/>
<polygon fill="midnightblue" stroke="midnightblue" points="864.9,-67.87 855.21,-72.13 865.45,-74.85 864.9,-67.87"/>
</g>
<!-- Node13 -->
<g id="node13" class="node">
<title>Node13</title>
<g id="a_node13"><a xlink:href="parser_8c.html" target="_top" xlink:title=" ">
<polygon fill="none" stroke="black" points="1423,-6 1423,-25 1534,-25 1534,-6 1423,-6"/>
<text text-anchor="middle" x="1478.5" y="-13" font-family="Helvetica,sans-Serif" font-size="10.00">src/parsing/parser.c</text>
</a>
</g>
</g>
<!-- Node3&#45;&gt;Node13 -->
<g id="edge13" class="edge">
<title>Node3&#45;&gt;Node13</title>
<path fill="none" stroke="midnightblue" d="M865.22,-74.48C976.44,-71.09 1215.25,-60.73 1414.5,-31 1424.53,-29.5 1435.32,-27.3 1445.13,-25.05"/>
<polygon fill="midnightblue" stroke="midnightblue" points="865.08,-70.98 855.19,-74.77 865.28,-77.98 865.08,-70.98"/>
</g>
<!-- Node14 -->
<g id="node14" class="node">
<title>Node14</title>
<g id="a_node14"><a xlink:href="parser__utils_8c.html" target="_top" xlink:title=" ">
<polygon fill="none" stroke="black" points="1552.5,-0.5 1552.5,-30.5 1656.5,-30.5 1656.5,-0.5 1552.5,-0.5"/>
<text text-anchor="start" x="1560.5" y="-18.5" font-family="Helvetica,sans-Serif" font-size="10.00">src/parsing/parser</text>
<text text-anchor="middle" x="1604.5" y="-7.5" font-family="Helvetica,sans-Serif" font-size="10.00">_utils.c</text>
</a>
</g>
</g>
<!-- Node3&#45;&gt;Node14 -->
<g id="edge14" class="edge">
<title>Node3&#45;&gt;Node14</title>
<path fill="none" stroke="midnightblue" d="M865.42,-75.83C993.68,-74.69 1294.31,-67.9 1543.5,-31 1546.41,-30.57 1549.38,-30.07 1552.37,-29.52"/>
<polygon fill="midnightblue" stroke="midnightblue" points="865.35,-72.33 855.38,-75.91 865.41,-79.33 865.35,-72.33"/>
</g>
<!-- Node15 -->
<g id="node15" class="node">
<title>Node15</title>
<g id="a_node15"><a xlink:href="parsing__error_8c.html" target="_top" xlink:title=" ">
<polygon fill="none" stroke="black" points="1675,-0.5 1675,-30.5 1784,-30.5 1784,-0.5 1675,-0.5"/>
<text text-anchor="start" x="1683" y="-18.5" font-family="Helvetica,sans-Serif" font-size="10.00">src/parsing/parsing</text>
<text text-anchor="middle" x="1729.5" y="-7.5" font-family="Helvetica,sans-Serif" font-size="10.00">_error.c</text>
</a>
</g>
</g>
<!-- Node3&#45;&gt;Node15 -->
<g id="edge15" class="edge">
<title>Node3&#45;&gt;Node15</title>
<path fill="none" stroke="midnightblue" d="M865.66,-76.38C1008.75,-76.45 1368.28,-72.11 1665.5,-31 1668.55,-30.58 1671.66,-30.08 1674.8,-29.54"/>
<polygon fill="midnightblue" stroke="midnightblue" points="865.34,-72.88 855.33,-76.37 865.33,-79.88 865.34,-72.88"/>
</g>
</g>
</svg>
