<?xml version="1.0" encoding="UTF-8" standalone="no"?>
<!DOCTYPE svg PUBLIC "-//W3C//DTD SVG 1.1//EN"
 "http://www.w3.org/Graphics/SVG/1.1/DTD/svg11.dtd">
<!-- Generated by graphviz version 2.43.0 (0)
 -->
<!-- Title: includes/parsing_helpers.h Pages: 1 -->
<svg width="1669pt" height="151pt"
 viewBox="0.00 0.00 1669.00 151.00" xmlns="http://www.w3.org/2000/svg" xmlns:xlink="http://www.w3.org/1999/xlink">
<g id="graph0" class="graph" transform="scale(1 1) rotate(0) translate(4 147)">
<title>includes/parsing_helpers.h</title>
<!-- Node1 -->
<g id="node1" class="node">
<title>Node1</title>
<g id="a_node1"><a xlink:title=" ">
<polygon fill="#bfbfbf" stroke="black" points="657.5,-123.5 657.5,-142.5 803.5,-142.5 803.5,-123.5 657.5,-123.5"/>
<text text-anchor="middle" x="730.5" y="-130.5" font-family="Helvetica,sans-Serif" font-size="10.00">includes/parsing_helpers.h</text>
</a>
</g>
</g>
<!-- Node2 -->
<g id="node2" class="node">
<title>Node2</title>
<g id="a_node2"><a xlink:href="main_8c.html" target="_top" xlink:title=" ">
<polygon fill="none" stroke="black" points="0,-6 0,-25 67,-25 67,-6 0,-6"/>
<text text-anchor="middle" x="33.5" y="-13" font-family="Helvetica,sans-Serif" font-size="10.00">src/main.c</text>
</a>
</g>
</g>
<!-- Node1&#45;&gt;Node2 -->
<g id="edge1" class="edge">
<title>Node1&#45;&gt;Node2</title>
<path fill="none" stroke="midnightblue" d="M647.16,-123.99C521.8,-110.87 277.83,-81.09 75.5,-31 69.06,-29.41 62.21,-27.25 55.95,-25.08"/>
<polygon fill="midnightblue" stroke="midnightblue" points="647.14,-127.51 657.45,-125.06 647.87,-120.55 647.14,-127.51"/>
</g>
<!-- Node3 -->
<g id="node3" class="node">
<title>Node3</title>
<g id="a_node3"><a xlink:href="parsing_8h.html" target="_top" xlink:title=" ">
<polygon fill="none" stroke="black" points="678,-67.5 678,-86.5 783,-86.5 783,-67.5 678,-67.5"/>
<text text-anchor="middle" x="730.5" y="-74.5" font-family="Helvetica,sans-Serif" font-size="10.00">includes/parsing.h</text>
</a>
</g>
</g>
<!-- Node1&#45;&gt;Node3 -->
<g id="edge2" class="edge">
<title>Node1&#45;&gt;Node3</title>
<path fill="none" stroke="midnightblue" d="M724.03,-113.1C723.4,-104.14 723.84,-93.86 725.37,-86.75"/>
<polygon fill="midnightblue" stroke="midnightblue" points="720.57,-113.62 725.33,-123.08 727.51,-112.71 720.57,-113.62"/>
</g>
<!-- Node3&#45;&gt;Node1 -->
<g id="edge15" class="edge">
<title>Node3&#45;&gt;Node1</title>
<path fill="none" stroke="midnightblue" d="M736.96,-96.69C737.61,-105.64 737.18,-115.93 735.67,-123.08"/>
<polygon fill="midnightblue" stroke="midnightblue" points="740.42,-96.2 735.63,-86.75 733.48,-97.13 740.42,-96.2"/>
</g>
<!-- Node3&#45;&gt;Node2 -->
<g id="edge11" class="edge">
<title>Node3&#45;&gt;Node2</title>
<path fill="none" stroke="midnightblue" d="M667.76,-73.8C526.6,-68.5 187.61,-53.78 75.5,-31 68.7,-29.62 61.49,-27.41 54.99,-25.14"/>
<polygon fill="midnightblue" stroke="midnightblue" points="667.86,-77.3 677.98,-74.18 668.12,-70.31 667.86,-77.3"/>
</g>
<!-- Node4 -->
<g id="node4" class="node">
<title>Node4</title>
<g id="a_node4"><a xlink:href="expand_8c.html" target="_top" xlink:title=" ">
<polygon fill="none" stroke="black" points="85,-6 85,-25 202,-25 202,-6 85,-6"/>
<text text-anchor="middle" x="143.5" y="-13" font-family="Helvetica,sans-Serif" font-size="10.00">src/expand/expand.c</text>
</a>
</g>
</g>
<!-- Node3&#45;&gt;Node4 -->
<g id="edge3" class="edge">
<title>Node3&#45;&gt;Node4</title>
<path fill="none" stroke="midnightblue" d="M667.8,-73.15C569.78,-68.11 374.49,-55.74 210.5,-31 200.14,-29.44 188.99,-27.24 178.81,-25.02"/>
<polygon fill="midnightblue" stroke="midnightblue" points="667.67,-76.64 677.84,-73.65 668.03,-69.65 667.67,-76.64"/>
</g>
<!-- Node5 -->
<g id="node5" class="node">
<title>Node5</title>
<g id="a_node5"><a xlink:href="expand__dollar_8c.html" target="_top" xlink:title=" ">
<polygon fill="none" stroke="black" points="220,-6 220,-25 369,-25 369,-6 220,-6"/>
<text text-anchor="middle" x="294.5" y="-13" font-family="Helvetica,sans-Serif" font-size="10.00">src/expand/expand_dollar.c</text>
</a>
</g>
</g>
<!-- Node3&#45;&gt;Node5 -->
<g id="edge4" class="edge">
<title>Node3&#45;&gt;Node5</title>
<path fill="none" stroke="midnightblue" d="M667.87,-68.83C597.4,-60.57 479.54,-46.17 378.5,-31 366.65,-29.22 353.88,-27.11 341.97,-25.07"/>
<polygon fill="midnightblue" stroke="midnightblue" points="667.58,-72.32 677.92,-70.01 668.39,-65.37 667.58,-72.32"/>
</g>
<!-- Node6 -->
<g id="node6" class="node">
<title>Node6</title>
<g id="a_node6"><a xlink:href="expand__word_8c.html" target="_top" xlink:title=" ">
<polygon fill="none" stroke="black" points="387.5,-6 387.5,-25 533.5,-25 533.5,-6 387.5,-6"/>
<text text-anchor="middle" x="460.5" y="-13" font-family="Helvetica,sans-Serif" font-size="10.00">src/expand/expand_word.c</text>
</a>
</g>
</g>
<!-- Node3&#45;&gt;Node6 -->
<g id="edge5" class="edge">
<title>Node3&#45;&gt;Node6</title>
<path fill="none" stroke="midnightblue" d="M681.76,-65.26C629.38,-53.72 547.2,-35.61 499.11,-25.01"/>
<polygon fill="midnightblue" stroke="midnightblue" points="681.3,-68.74 691.82,-67.48 682.8,-61.9 681.3,-68.74"/>
</g>
<!-- Node7 -->
<g id="node7" class="node">
<title>Node7</title>
<g id="a_node7"><a xlink:href="lexer_8c.html" target="_top" xlink:title=" ">
<polygon fill="none" stroke="black" points="551.5,-6 551.5,-25 649.5,-25 649.5,-6 551.5,-6"/>
<text text-anchor="middle" x="600.5" y="-13" font-family="Helvetica,sans-Serif" font-size="10.00">src/lexing/lexer.c</text>
</a>
</g>
</g>
<!-- Node3&#45;&gt;Node7 -->
<g id="edge6" class="edge">
<title>Node3&#45;&gt;Node7</title>
<path fill="none" stroke="midnightblue" d="M702.48,-63.17C677.25,-51.63 640.89,-34.99 619.09,-25.01"/>
<polygon fill="midnightblue" stroke="midnightblue" points="701.32,-66.5 711.87,-67.48 704.24,-60.13 701.32,-66.5"/>
</g>
<!-- Node8 -->
<g id="node8" class="node">
<title>Node8</title>
<g id="a_node8"><a xlink:href="lexer__utils_8c.html" target="_top" xlink:title=" ">
<polygon fill="none" stroke="black" points="668,-6 668,-25 793,-25 793,-6 668,-6"/>
<text text-anchor="middle" x="730.5" y="-13" font-family="Helvetica,sans-Serif" font-size="10.00">src/lexing/lexer_utils.c</text>
</a>
</g>
</g>
<!-- Node3&#45;&gt;Node8 -->
<g id="edge7" class="edge">
<title>Node3&#45;&gt;Node8</title>
<path fill="none" stroke="midnightblue" d="M730.5,-57.32C730.5,-46.5 730.5,-33.4 730.5,-25.01"/>
<polygon fill="midnightblue" stroke="midnightblue" points="727,-57.48 730.5,-67.48 734,-57.48 727,-57.48"/>
</g>
<!-- Node9 -->
<g id="node9" class="node">
<title>Node9</title>
<g id="a_node9"><a xlink:href="lexer__word_8c.html" target="_top" xlink:title=" ">
<polygon fill="none" stroke="black" points="811.5,-6 811.5,-25 939.5,-25 939.5,-6 811.5,-6"/>
<text text-anchor="middle" x="875.5" y="-13" font-family="Helvetica,sans-Serif" font-size="10.00">src/lexing/lexer_word.c</text>
</a>
</g>
</g>
<!-- Node3&#45;&gt;Node9 -->
<g id="edge8" class="edge">
<title>Node3&#45;&gt;Node9</title>
<path fill="none" stroke="midnightblue" d="M760.64,-63.63C788.81,-52.07 830.12,-35.12 854.76,-25.01"/>
<polygon fill="midnightblue" stroke="midnightblue" points="759.2,-60.44 751.27,-67.48 761.86,-66.92 759.2,-60.44"/>
</g>
<!-- Node10 -->
<g id="node10" class="node">
<title>Node10</title>
<g id="a_node10"><a xlink:href="string__builder_8c.html" target="_top" xlink:title=" ">
<polygon fill="none" stroke="black" points="958,-6 958,-25 1099,-25 1099,-6 958,-6"/>
<text text-anchor="middle" x="1028.5" y="-13" font-family="Helvetica,sans-Serif" font-size="10.00">src/lexing/string_builder.c</text>
</a>
</g>
</g>
<!-- Node3&#45;&gt;Node10 -->
<g id="edge9" class="edge">
<title>Node3&#45;&gt;Node10</title>
<path fill="none" stroke="midnightblue" d="M783.22,-65.47C840.97,-53.94 932.48,-35.67 985.88,-25.01"/>
<polygon fill="midnightblue" stroke="midnightblue" points="782.32,-62.08 773.2,-67.48 783.69,-68.95 782.32,-62.08"/>
</g>
<!-- Node11 -->
<g id="node11" class="node">
<title>Node11</title>
<g id="a_node11"><a xlink:href="token__utils_8c.html" target="_top" xlink:title=" ">
<polygon fill="none" stroke="black" points="1117.5,-6 1117.5,-25 1245.5,-25 1245.5,-6 1117.5,-6"/>
<text text-anchor="middle" x="1181.5" y="-13" font-family="Helvetica,sans-Serif" font-size="10.00">src/lexing/token_utils.c</text>
</a>
</g>
</g>
<!-- Node3&#45;&gt;Node11 -->
<g id="edge10" class="edge">
<title>Node3&#45;&gt;Node11</title>
<path fill="none" stroke="midnightblue" d="M793.51,-70.01C868.71,-62.51 998.16,-48.5 1108.5,-31 1119.22,-29.3 1130.76,-27.15 1141.44,-25.04"/>
<polygon fill="midnightblue" stroke="midnightblue" points="792.87,-66.55 783.27,-71.02 793.56,-73.52 792.87,-66.55"/>
</g>
<!-- Node12 -->
<g id="node12" class="node">
<title>Node12</title>
<g id="a_node12"><a xlink:href="argv__builder_8c.html" target="_top" xlink:title=" ">
<polygon fill="none" stroke="black" points="1264,-6 1264,-25 1405,-25 1405,-6 1264,-6"/>
<text text-anchor="middle" x="1334.5" y="-13" font-family="Helvetica,sans-Serif" font-size="10.00">src/parsing/argv_builder.c</text>
</a>
</g>
</g>
<!-- Node3&#45;&gt;Node12 -->
<g id="edge12" class="edge">
<title>Node3&#45;&gt;Node12</title>
<path fill="none" stroke="midnightblue" d="M793.19,-72.52C891.71,-66.62 1088.63,-53.1 1254.5,-31 1266.53,-29.4 1279.51,-27.23 1291.44,-25.07"/>
<polygon fill="midnightblue" stroke="midnightblue" points="792.89,-69.03 783.11,-73.12 793.3,-76.02 792.89,-69.03"/>
</g>
<!-- Node13 -->
<g id="node13" class="node">
<title>Node13</title>
<g id="a_node13"><a xlink:href="parser_8c.html" target="_top" xlink:title=" ">
<polygon fill="none" stroke="black" points="1423,-6 1423,-25 1534,-25 1534,-6 1423,-6"/>
<text text-anchor="middle" x="1478.5" y="-13" font-family="Helvetica,sans-Serif" font-size="10.00">src/parsing/parser.c</text>
</a>
</g>
</g>
<!-- Node3&#45;&gt;Node13 -->
<g id="edge13" class="edge">
<title>Node3&#45;&gt;Node13</title>
<path fill="none" stroke="midnightblue" d="M793.32,-75.16C914.2,-72.82 1187.35,-64 1414.5,-31 1424.65,-29.53 1435.57,-27.3 1445.47,-25.02"/>
<polygon fill="midnightblue" stroke="midnightblue" points="793.07,-71.66 783.14,-75.35 793.2,-78.66 793.07,-71.66"/>
</g>
<!-- Node14 -->
<g id="node14" class="node">
<title>Node14</title>
<g id="a_node14"><a xlink:href="parsing__error_8c.html" target="_top" xlink:title=" ">
<polygon fill="none" stroke="black" points="1552,-0.5 1552,-30.5 1661,-30.5 1661,-0.5 1552,-0.5"/>
<text text-anchor="start" x="1560" y="-18.5" font-family="Helvetica,sans-Serif" font-size="10.00">src/parsing/parsing</text>
<text text-anchor="middle" x="1606.5" y="-7.5" font-family="Helvetica,sans-Serif" font-size="10.00">_error.c</text>
</a>
</g>
</g>
<!-- Node3&#45;&gt;Node14 -->
<g id="edge14" class="edge">
<title>Node3&#45;&gt;Node14</title>
<path fill="none" stroke="midnightblue" d="M793.42,-76.17C930.46,-75.73 1265.91,-70.33 1543.5,-31 1546.28,-30.61 1549.11,-30.15 1551.97,-29.65"/>
<polygon fill="midnightblue" stroke="midnightblue" points="793.11,-72.67 783.12,-76.19 793.12,-79.67 793.11,-72.67"/>
</g>
</g>
</svg>
