<?xml version="1.0" encoding="UTF-8" standalone="no"?>
<!DOCTYPE svg PUBLIC "-//W3C//DTD SVG 1.1//EN"
 "http://www.w3.org/Graphics/SVG/1.1/DTD/svg11.dtd">
<!-- Generated by graphviz version 2.43.0 (0)
 -->
<!-- Title: free_tokens Pages: 1 -->
<!--zoomable 256 -->
<svg id="main" version="1.1" xmlns="http://www.w3.org/2000/svg" xmlns:xlink="http://www.w3.org/1999/xlink" xml:space="preserve" onload="init(evt)">
<style type="text/css"><![CDATA[
.edge:hover path { stroke: red; }
.edge:hover polygon { stroke: red; fill: red; }
]]></style>
<script type="text/javascript"><![CDATA[
var edges = document.getElementsByTagName('g');
if (edges && edges.length) {
  for (var i=0;i<edges.length;i++) {
    if (edges[i].id.substr(0,4)=='edge') {
      edges[i].setAttribute('class','edge');
    }
  }
}
]]></script>
        <defs>
                <circle id="rim" cx="0" cy="0" r="7"/>
                <circle id="rim2" cx="0" cy="0" r="3.5"/>
                <g id="zoomPlus">
                        <use xlink:href="#rim" fill="#404040">
                                <set attributeName="fill" to="#808080" begin="zoomplus.mouseover" end="zoomplus.mouseout"/>
                        </use>
                        <path d="M-4,0h8M0,-4v8" fill="none" stroke="white" stroke-width="1.5" pointer-events="none"/>
                </g>
                <g id="zoomMin">
                        <use xlink:href="#rim" fill="#404040">
                                <set attributeName="fill" to="#808080" begin="zoomminus.mouseover" end="zoomminus.mouseout"/>
                        </use>
                        <path d="M-4,0h8" fill="none" stroke="white" stroke-width="1.5" pointer-events="none"/>
                </g>
                <g id="dirArrow">
                        <path fill="none" stroke="white" stroke-width="1.5" d="M0,-3.0v7 M-2.5,-0.5L0,-3.0L2.5,-0.5"/>
                </g>
               <g id="resetDef">
                       <use xlink:href="#rim2" fill="#404040">
                               <set attributeName="fill" to="#808080" begin="reset.mouseover" end="reset.mouseout"/>
                       </use>
               </g>
        </defs>

<script type="text/javascript">
var viewWidth = 712;
var viewHeight = 256;
var sectionId = 'dynsection-11';
</script>
<script xlink:href="svgpan.js"/>
<svg id="graph" class="graph">
<g id="viewport">
<title>free_tokens</title>
<!-- Node1 -->
<g id="node1" class="node">
<title>Node1</title>
<g id="a_node1"><a xlink:title="Free t_token entire linked list.">
<polygon fill="#bfbfbf" stroke="black" points="630,-152.5 630,-171.5 704,-171.5 704,-152.5 630,-152.5"/>
<text text-anchor="middle" x="667" y="-159.5" font-family="Helvetica,sans-Serif" font-size="10.00">free_tokens</text>
</a>
</g>
</g>
<!-- Node2 -->
<g id="node2" class="node">
<title>Node2</title>
<g id="a_node2"><a xlink:href="lexer_8c.html#aced469451204cf536fd18b4cf94f6b91" target="_top" xlink:title="Global lexing function, that traverses readline&#39;s string and separate in tokens.">
<polygon fill="none" stroke="black" points="288.5,-228.5 288.5,-247.5 329.5,-247.5 329.5,-228.5 288.5,-228.5"/>
<text text-anchor="middle" x="309" y="-235.5" font-family="Helvetica,sans-Serif" font-size="10.00">lexer</text>
</a>
</g>
</g>
<!-- Node1&#45;&gt;Node2 -->
<g id="edge1" class="edge">
<title>Node1&#45;&gt;Node2</title>
<path fill="none" stroke="midnightblue" d="M648.7,-178.7C635.02,-190.78 614.83,-206.28 594,-214 500.04,-248.82 377.03,-243.57 329.72,-239.86"/>
<polygon fill="midnightblue" stroke="midnightblue" points="651.3,-181.05 656.31,-171.72 646.58,-175.89 651.3,-181.05"/>
</g>
<!-- Node4 -->
<g id="node4" class="node">
<title>Node4</title>
<g id="a_node4"><a xlink:href="parser_8c.html#ae22079ec4dbb24c0eb15425a8dd785bd" target="_top" xlink:title=" ">
<polygon fill="none" stroke="black" points="77,-114.5 77,-133.5 124,-133.5 124,-114.5 77,-114.5"/>
<text text-anchor="middle" x="100.5" y="-121.5" font-family="Helvetica,sans-Serif" font-size="10.00">parser</text>
</a>
</g>
</g>
<!-- Node1&#45;&gt;Node4 -->
<g id="edge3" class="edge">
<title>Node1&#45;&gt;Node4</title>
<path fill="none" stroke="midnightblue" d="M620.08,-173.25C570.26,-184.46 488.24,-200 416.5,-200 416.5,-200 416.5,-200 308,-200 231.98,-200 149.37,-154.08 116.35,-133.63"/>
<polygon fill="midnightblue" stroke="midnightblue" points="620.93,-176.65 629.9,-171.01 619.37,-169.82 620.93,-176.65"/>
</g>
<!-- Node5 -->
<g id="node5" class="node">
<title>Node5</title>
<g id="a_node5"><a xlink:href="parser_8c.html#a3902c1c0f51a35acf377da51345103b7" target="_top" xlink:title=" ">
<polygon fill="none" stroke="black" points="491,-114.5 491,-133.5 590,-133.5 590,-114.5 491,-114.5"/>
<text text-anchor="middle" x="540.5" y="-121.5" font-family="Helvetica,sans-Serif" font-size="10.00">parser_exit_fatal</text>
</a>
</g>
</g>
<!-- Node1&#45;&gt;Node5 -->
<g id="edge5" class="edge">
<title>Node1&#45;&gt;Node5</title>
<path fill="none" stroke="midnightblue" d="M624.93,-149.46C607.99,-144.3 588.68,-138.4 572.91,-133.59"/>
<polygon fill="midnightblue" stroke="midnightblue" points="624,-152.84 634.58,-152.41 626.04,-146.14 624,-152.84"/>
</g>
<!-- Node9 -->
<g id="node9" class="node">
<title>Node9</title>
<g id="a_node9"><a xlink:href="parsing__error_8c.html#a6507bf5fc88fbdbe6bf5be24ec314bd8" target="_top" xlink:title=" ">
<polygon fill="none" stroke="black" points="487,-38.5 487,-57.5 594,-57.5 594,-38.5 487,-38.5"/>
<text text-anchor="middle" x="540.5" y="-45.5" font-family="Helvetica,sans-Serif" font-size="10.00">parsing_destructor</text>
</a>
</g>
</g>
<!-- Node1&#45;&gt;Node9 -->
<g id="edge14" class="edge">
<title>Node1&#45;&gt;Node9</title>
<path fill="none" stroke="midnightblue" d="M647.96,-145.48C621.6,-121.34 573.38,-77.19 552.09,-57.69"/>
<polygon fill="midnightblue" stroke="midnightblue" points="645.65,-148.11 655.39,-152.28 650.37,-142.95 645.65,-148.11"/>
</g>
<!-- Node3 -->
<g id="node3" class="node">
<title>Node3</title>
<g id="a_node3"><a xlink:href="main_8c.html#a647f21a28344e1d9c643f4115516d7c9" target="_top" xlink:title=" ">
<polygon fill="none" stroke="black" points="0,-171.5 0,-190.5 41,-190.5 41,-171.5 0,-171.5"/>
<text text-anchor="middle" x="20.5" y="-178.5" font-family="Helvetica,sans-Serif" font-size="10.00">main</text>
</a>
</g>
</g>
<!-- Node2&#45;&gt;Node3 -->
<g id="edge2" class="edge">
<title>Node2&#45;&gt;Node3</title>
<path fill="none" stroke="midnightblue" d="M278.08,-233.8C248.1,-229.45 200.69,-222.14 160,-214 117.34,-205.47 67.87,-193.07 41.12,-186.16"/>
<polygon fill="midnightblue" stroke="midnightblue" points="277.89,-237.31 288.29,-235.27 278.89,-230.38 277.89,-237.31"/>
</g>
<!-- Node4&#45;&gt;Node3 -->
<g id="edge4" class="edge">
<title>Node4&#45;&gt;Node3</title>
<path fill="none" stroke="midnightblue" d="M78.16,-139.59C64.2,-149.79 46.42,-162.79 34.54,-171.47"/>
<polygon fill="midnightblue" stroke="midnightblue" points="80.26,-142.4 86.27,-133.67 76.13,-136.74 80.26,-142.4"/>
</g>
<!-- Node5&#45;&gt;Node4 -->
<g id="edge12" class="edge">
<title>Node5&#45;&gt;Node4</title>
<path fill="none" stroke="midnightblue" d="M521.17,-107.65C504.29,-93.78 477.87,-74.91 451,-67 329.21,-31.17 176.49,-90.23 121.99,-114.41"/>
<polygon fill="midnightblue" stroke="midnightblue" points="519.19,-110.56 529.08,-114.37 523.72,-105.23 519.19,-110.56"/>
</g>
<!-- Node6 -->
<g id="node6" class="node">
<title>Node6</title>
<g id="a_node6"><a xlink:href="parser_8c.html#ad8a725eb1fe38bc14d96924df6878b56" target="_top" xlink:title=" ">
<polygon fill="none" stroke="black" points="274,-114.5 274,-133.5 344,-133.5 344,-114.5 274,-114.5"/>
<text text-anchor="middle" x="309" y="-121.5" font-family="Helvetica,sans-Serif" font-size="10.00">parse_cmd</text>
</a>
</g>
</g>
<!-- Node5&#45;&gt;Node6 -->
<g id="edge6" class="edge">
<title>Node5&#45;&gt;Node6</title>
<path fill="none" stroke="midnightblue" d="M480.71,-124C437.42,-124 380.06,-124 344.09,-124"/>
<polygon fill="midnightblue" stroke="midnightblue" points="480.83,-127.5 490.83,-124 480.83,-120.5 480.83,-127.5"/>
</g>
<!-- Node7 -->
<g id="node7" class="node">
<title>Node7</title>
<g id="a_node7"><a xlink:href="parser_8c.html#a7e8d15749e17fe4ed49f75c3c6998719" target="_top" xlink:title=" ">
<polygon fill="none" stroke="black" points="162,-114.5 162,-133.5 236,-133.5 236,-114.5 162,-114.5"/>
<text text-anchor="middle" x="199" y="-121.5" font-family="Helvetica,sans-Serif" font-size="10.00">parser_loop</text>
</a>
</g>
</g>
<!-- Node5&#45;&gt;Node7 -->
<g id="edge13" class="edge">
<title>Node5&#45;&gt;Node7</title>
<path fill="none" stroke="midnightblue" d="M480.83,-134.81C426.92,-143.17 344.85,-151.95 274,-143 259.26,-141.14 243.26,-137.27 229.91,-133.5"/>
<polygon fill="midnightblue" stroke="midnightblue" points="481.57,-138.23 490.9,-133.2 480.47,-131.32 481.57,-138.23"/>
</g>
<!-- Node8 -->
<g id="node8" class="node">
<title>Node8</title>
<g id="a_node8"><a xlink:href="parser_8c.html#a3fb162f9c645f99a8764a678b4768f38" target="_top" xlink:title=" ">
<polygon fill="none" stroke="black" points="380,-76.5 380,-95.5 451,-95.5 451,-76.5 380,-76.5"/>
<text text-anchor="middle" x="415.5" y="-83.5" font-family="Helvetica,sans-Serif" font-size="10.00">parse_redir</text>
</a>
</g>
</g>
<!-- Node5&#45;&gt;Node8 -->
<g id="edge9" class="edge">
<title>Node5&#45;&gt;Node8</title>
<path fill="none" stroke="midnightblue" d="M498.46,-111.32C481.84,-106.19 462.97,-100.36 447.53,-95.59"/>
<polygon fill="midnightblue" stroke="midnightblue" points="497.87,-114.8 508.46,-114.41 499.94,-108.12 497.87,-114.8"/>
</g>
<!-- Node6&#45;&gt;Node7 -->
<g id="edge7" class="edge">
<title>Node6&#45;&gt;Node7</title>
<path fill="none" stroke="midnightblue" d="M263.71,-124C254.56,-124 245.01,-124 236.19,-124"/>
<polygon fill="midnightblue" stroke="midnightblue" points="263.83,-127.5 273.83,-124 263.83,-120.5 263.83,-127.5"/>
</g>
<!-- Node7&#45;&gt;Node4 -->
<g id="edge8" class="edge">
<title>Node7&#45;&gt;Node4</title>
<path fill="none" stroke="midnightblue" d="M151.56,-124C142.02,-124 132.4,-124 124.17,-124"/>
<polygon fill="midnightblue" stroke="midnightblue" points="151.79,-127.5 161.79,-124 151.79,-120.5 151.79,-127.5"/>
</g>
<!-- Node8&#45;&gt;Node6 -->
<g id="edge10" class="edge">
<title>Node8&#45;&gt;Node6</title>
<path fill="none" stroke="midnightblue" d="M378.43,-99.12C364.6,-104.14 349.11,-109.78 336.36,-114.41"/>
<polygon fill="midnightblue" stroke="midnightblue" points="379.93,-102.3 388.13,-95.59 377.54,-95.72 379.93,-102.3"/>
</g>
<!-- Node8&#45;&gt;Node7 -->
<g id="edge11" class="edge">
<title>Node8&#45;&gt;Node7</title>
<path fill="none" stroke="midnightblue" d="M369.78,-90.7C342.07,-93.94 305.81,-98.79 274,-105 260.72,-107.59 246.28,-111.14 233.7,-114.46"/>
<polygon fill="midnightblue" stroke="midnightblue" points="370.42,-94.14 379.96,-89.53 369.63,-87.19 370.42,-94.14"/>
</g>
<!-- Node10 -->
<g id="node10" class="node">
<title>Node10</title>
<g id="a_node10"><a xlink:href="parsing__error_8c.html#a858393a79410c7eb4d9a6f615396f426" target="_top" xlink:title=" ">
<polygon fill="none" stroke="black" points="160,-0.5 160,-19.5 238,-19.5 238,-0.5 160,-0.5"/>
<text text-anchor="middle" x="199" y="-7.5" font-family="Helvetica,sans-Serif" font-size="10.00">syntax_error</text>
</a>
</g>
</g>
<!-- Node9&#45;&gt;Node10 -->
<g id="edge15" class="edge">
<title>Node9&#45;&gt;Node10</title>
<path fill="none" stroke="midnightblue" d="M476.67,-37.57C468.06,-36.29 459.32,-35.05 451,-34 375.87,-24.47 287.66,-16.86 238.35,-12.93"/>
<polygon fill="midnightblue" stroke="midnightblue" points="476.28,-41.05 486.69,-39.1 477.34,-34.13 476.28,-41.05"/>
</g>
<!-- Node10&#45;&gt;Node4 -->
<g id="edge16" class="edge">
<title>Node10&#45;&gt;Node4</title>
<path fill="none" stroke="midnightblue" d="M170.94,-25.02C167.06,-27.75 163.27,-30.77 160,-34 134.67,-59 114.57,-96.8 106,-114.38"/>
<polygon fill="midnightblue" stroke="midnightblue" points="172.94,-27.9 179.44,-19.54 169.14,-22.02 172.94,-27.9"/>
</g>
</g>
</svg>
        <g id="navigator" transform="translate(0 0)" fill="#404254">
                <rect fill="#f2f5e9" fill-opacity="0.5" stroke="#606060" stroke-width=".5" x="0" y="0" width="60" height="60"/>
                <use id="zoomplus" xlink:href="#zoomPlus" x="17" y="9" onmousedown="handleZoom(evt,'in')"/>
                <use id="zoomminus" xlink:href="#zoomMin" x="42" y="9" onmousedown="handleZoom(evt,'out')"/>
                <use id="reset" xlink:href="#resetDef" x="30" y="36" onmousedown="handleReset()"/>
                <g id="arrowUp" xlink:href="#dirArrow" transform="translate(30 24)" onmousedown="handlePan(0,-1)">
                  <use xlink:href="#rim" fill="#404040">
                        <set attributeName="fill" to="#808080" begin="arrowUp.mouseover" end="arrowUp.mouseout"/>
                  </use>
                  <path fill="none" stroke="white" stroke-width="1.5" d="M0,-3.0v7 M-2.5,-0.5L0,-3.0L2.5,-0.5"/>
                </g>
                <g id="arrowRight" xlink:href="#dirArrow" transform="rotate(90) translate(36 -43)" onmousedown="handlePan(1,0)">
                  <use xlink:href="#rim" fill="#404040">
                        <set attributeName="fill" to="#808080" begin="arrowRight.mouseover" end="arrowRight.mouseout"/>
                  </use>
                  <path fill="none" stroke="white" stroke-width="1.5" d="M0,-3.0v7 M-2.5,-0.5L0,-3.0L2.5,-0.5"/>
                </g>
                <g id="arrowDown" xlink:href="#dirArrow" transform="rotate(180) translate(-30 -48)" onmousedown="handlePan(0,1)">
                  <use xlink:href="#rim" fill="#404040">
                        <set attributeName="fill" to="#808080" begin="arrowDown.mouseover" end="arrowDown.mouseout"/>
                  </use>
                  <path fill="none" stroke="white" stroke-width="1.5" d="M0,-3.0v7 M-2.5,-0.5L0,-3.0L2.5,-0.5"/>
                </g>
                <g id="arrowLeft" xlink:href="#dirArrow" transform="rotate(270) translate(-36 17)" onmousedown="handlePan(-1,0)">
                  <use xlink:href="#rim" fill="#404040">
                        <set attributeName="fill" to="#808080" begin="arrowLeft.mouseover" end="arrowLeft.mouseout"/>
                  </use>
                  <path fill="none" stroke="white" stroke-width="1.5" d="M0,-3.0v7 M-2.5,-0.5L0,-3.0L2.5,-0.5"/>
                </g>
        </g>
        <svg viewBox="0 0 15 15" width="100%" height="30px" preserveAspectRatio="xMaxYMin meet">
         <g id="arrow_out" transform="scale(0.3 0.3)">
          <a xlink:href="parsing_8h_ab3d9f0b7ddaf8661f8a3b3243d33bce7_icgraph_org.svg" target="_base">
           <rect id="button" ry="5" rx="5" y="6" x="6" height="38" width="38"
                fill="#f2f5e9" fill-opacity="0.5" stroke="#606060" stroke-width="1.0"/>
           <path id="arrow"
             d="M 11.500037,31.436501 C 11.940474,20.09759 22.043105,11.32322 32.158766,21.979434 L 37.068811,17.246167 C 37.068811,17.246167 37.088388,32 37.088388,32 L 22.160133,31.978069 C 22.160133,31.978069 26.997745,27.140456 26.997745,27.140456 C 18.528582,18.264221 13.291696,25.230495 11.500037,31.436501 z"
             style="fill:#404040;"/>
          </a>
         </g>
        </svg>
</svg>
