<?xml version="1.0" encoding="UTF-8" standalone="no"?>
<!DOCTYPE svg PUBLIC "-//W3C//DTD SVG 1.1//EN"
 "http://www.w3.org/Graphics/SVG/1.1/DTD/svg11.dtd">
<!-- Generated by graphviz version 2.43.0 (0)
 -->
<!-- Title: advance Pages: 1 -->
<!--zoomable 321 -->
<svg id="main" version="1.1" xmlns="http://www.w3.org/2000/svg" xmlns:xlink="http://www.w3.org/1999/xlink" xml:space="preserve" onload="init(evt)">
<style type="text/css"><![CDATA[
.edge:hover path { stroke: red; }
.edge:hover polygon { stroke: red; fill: red; }
]]></style>
<script type="text/javascript"><![CDATA[
var edges = document.getElementsByTagName('g');
if (edges && edges.length) {
  for (var i=0;i<edges.length;i++) {
    if (edges[i].id.substr(0,4)=='edge') {
      edges[i].setAttribute('class','edge');
    }
  }
}
]]></script>
        <defs>
                <circle id="rim" cx="0" cy="0" r="7"/>
                <circle id="rim2" cx="0" cy="0" r="3.5"/>
                <g id="zoomPlus">
                        <use xlink:href="#rim" fill="#404040">
                                <set attributeName="fill" to="#808080" begin="zoomplus.mouseover" end="zoomplus.mouseout"/>
                        </use>
                        <path d="M-4,0h8M0,-4v8" fill="none" stroke="white" stroke-width="1.5" pointer-events="none"/>
                </g>
                <g id="zoomMin">
                        <use xlink:href="#rim" fill="#404040">
                                <set attributeName="fill" to="#808080" begin="zoomminus.mouseover" end="zoomminus.mouseout"/>
                        </use>
                        <path d="M-4,0h8" fill="none" stroke="white" stroke-width="1.5" pointer-events="none"/>
                </g>
                <g id="dirArrow">
                        <path fill="none" stroke="white" stroke-width="1.5" d="M0,-3.0v7 M-2.5,-0.5L0,-3.0L2.5,-0.5"/>
                </g>
               <g id="resetDef">
                       <use xlink:href="#rim2" fill="#404040">
                               <set attributeName="fill" to="#808080" begin="reset.mouseover" end="reset.mouseout"/>
                       </use>
               </g>
        </defs>

<script type="text/javascript">
var viewWidth = 695;
var viewHeight = 321;
var sectionId = 'dynsection-2';
</script>
<script xlink:href="svgpan.js"/>
<svg id="graph" class="graph">
<g id="viewport">
<title>advance</title>
<!-- Node1 -->
<g id="node1" class="node">
<title>Node1</title>
<g id="a_node1"><a xlink:title="Advance one byte in the struct t_lexer to keep track of progress.">
<polygon fill="#bfbfbf" stroke="black" points="629,-152.08 629,-171.08 687,-171.08 687,-152.08 629,-152.08"/>
<text text-anchor="middle" x="658" y="-159.08" font-family="Helvetica,sans-Serif" font-size="10.00">advance</text>
</a>
</g>
</g>
<!-- Node2 -->
<g id="node2" class="node">
<title>Node2</title>
<g id="a_node2"><a xlink:href="lexer__word_8c.html#a088ba907ca2f9f7d89809627a5ef8313" target="_top" xlink:title="Lexes a segment delimited by double quotes.">
<polygon fill="none" stroke="black" points="456,-76.08 456,-95.08 593,-95.08 593,-76.08 456,-76.08"/>
<text text-anchor="middle" x="524.5" y="-83.08" font-family="Helvetica,sans-Serif" font-size="10.00">double_quoted_segment</text>
</a>
</g>
</g>
<!-- Node1&#45;&gt;Node2 -->
<g id="edge1" class="edge">
<title>Node1&#45;&gt;Node2</title>
<path fill="none" stroke="midnightblue" d="M641.85,-144.41C629.79,-131.71 611.84,-114.9 593,-104.58 586.06,-100.78 578.29,-97.69 570.56,-95.18"/>
<polygon fill="midnightblue" stroke="midnightblue" points="639.54,-147.06 648.89,-152.05 644.69,-142.32 639.54,-147.06"/>
</g>
<!-- Node3 -->
<g id="node3" class="node">
<title>Node3</title>
<g id="a_node3"><a xlink:href="lexer__word_8c.html#a4093905b7d1dfe02710752ee5da8fe01" target="_top" xlink:title="Lexes the string to create a WORD token.">
<polygon fill="none" stroke="black" points="345.5,-109.08 345.5,-128.08 406.5,-128.08 406.5,-109.08 345.5,-109.08"/>
<text text-anchor="middle" x="376" y="-116.08" font-family="Helvetica,sans-Serif" font-size="10.00">lex_word</text>
</a>
</g>
</g>
<!-- Node1&#45;&gt;Node3 -->
<g id="edge16" class="edge">
<title>Node1&#45;&gt;Node3</title>
<path fill="none" stroke="midnightblue" d="M618.76,-160.25C578.07,-158.3 512,-153.62 456,-142.58 438.28,-139.09 418.87,-133.22 403.72,-128.16"/>
<polygon fill="midnightblue" stroke="midnightblue" points="618.63,-163.75 628.78,-160.7 618.95,-156.75 618.63,-163.75"/>
</g>
<!-- Node6 -->
<g id="node6" class="node">
<title>Node6</title>
<g id="a_node6"><a xlink:href="expand__dollar_8c.html#a1cf0ce389e469994b9ddb06a944e531e" target="_top" xlink:title="Handle $? to expand on current error code.">
<polygon fill="none" stroke="black" points="480,-266.08 480,-285.08 569,-285.08 569,-266.08 480,-266.08"/>
<text text-anchor="middle" x="524.5" y="-273.08" font-family="Helvetica,sans-Serif" font-size="10.00">error_code_var</text>
</a>
</g>
</g>
<!-- Node1&#45;&gt;Node6 -->
<g id="edge5" class="edge">
<title>Node1&#45;&gt;Node6</title>
<path fill="none" stroke="midnightblue" d="M648.08,-180.35C637.55,-200.59 618.26,-232.5 593,-251.58 584.76,-257.81 574.77,-262.52 565.03,-266.04"/>
<polygon fill="midnightblue" stroke="midnightblue" points="651.31,-181.71 652.64,-171.2 645.04,-178.58 651.31,-181.71"/>
</g>
<!-- Node7 -->
<g id="node7" class="node">
<title>Node7</title>
<g id="a_node7"><a xlink:href="expand__dollar_8c.html#ac3e15865744ed2c1300a5cb96f24e33d" target="_top" xlink:title="Manages all possibilities with expand : $?, known and unknown env variable.">
<polygon fill="none" stroke="black" points="334.5,-266.08 334.5,-285.08 417.5,-285.08 417.5,-266.08 334.5,-266.08"/>
<text text-anchor="middle" x="376" y="-273.08" font-family="Helvetica,sans-Serif" font-size="10.00">handle_dollar</text>
</a>
</g>
</g>
<!-- Node1&#45;&gt;Node7 -->
<g id="edge11" class="edge">
<title>Node1&#45;&gt;Node7</title>
<path fill="none" stroke="midnightblue" d="M654.09,-181.5C648.44,-212.04 632.82,-269.55 593,-294.58 531.01,-333.55 438.53,-302.34 397.68,-285.09"/>
<polygon fill="midnightblue" stroke="midnightblue" points="657.61,-181.67 655.8,-171.23 650.71,-180.52 657.61,-181.67"/>
</g>
<!-- Node8 -->
<g id="node8" class="node">
<title>Node8</title>
<g id="a_node8"><a xlink:href="expand__word_8c.html#a0ec378990f411456436a9bb6a71babfc" target="_top" xlink:title="Scans the word to dequote/expand and build correct output.">
<polygon fill="none" stroke="black" points="214,-209.08 214,-228.08 296,-228.08 296,-209.08 214,-209.08"/>
<text text-anchor="middle" x="255" y="-216.08" font-family="Helvetica,sans-Serif" font-size="10.00">expand_word</text>
</a>
</g>
</g>
<!-- Node1&#45;&gt;Node8 -->
<g id="edge10" class="edge">
<title>Node1&#45;&gt;Node8</title>
<path fill="none" stroke="midnightblue" d="M635.11,-176.74C623.19,-184.24 607.87,-192.71 593,-197.58 490.22,-231.25 360.55,-227.3 296.13,-222.46"/>
<polygon fill="midnightblue" stroke="midnightblue" points="637.04,-179.66 643.5,-171.26 633.21,-173.79 637.04,-179.66"/>
</g>
<!-- Node10 -->
<g id="node10" class="node">
<title>Node10</title>
<g id="a_node10"><a xlink:href="expand__word_8c.html#ae5fd7fdfce4171a392a4f6c781f4e813" target="_top" xlink:title="Dequotes and manage quote state to expand correctly.">
<polygon fill="none" stroke="black" points="332,-190.08 332,-209.08 420,-209.08 420,-190.08 332,-190.08"/>
<text text-anchor="middle" x="376" y="-197.08" font-family="Helvetica,sans-Serif" font-size="10.00">handle_quotes</text>
</a>
</g>
</g>
<!-- Node1&#45;&gt;Node10 -->
<g id="edge12" class="edge">
<title>Node1&#45;&gt;Node10</title>
<path fill="none" stroke="midnightblue" d="M618.76,-170.63C610.31,-172.44 601.38,-174.2 593,-175.58 533.43,-185.38 463.95,-192.31 420.21,-196.12"/>
<polygon fill="midnightblue" stroke="midnightblue" points="619.76,-174 628.77,-168.43 618.25,-167.16 619.76,-174"/>
</g>
<!-- Node11 -->
<g id="node11" class="node">
<title>Node11</title>
<g id="a_node11"><a xlink:href="lexer_8c.html#a4224de0ac9d722a19a477ae2880f54da" target="_top" xlink:title="Make the operator in the global string a token.">
<polygon fill="none" stroke="black" points="337,-5.08 337,-24.08 415,-24.08 415,-5.08 337,-5.08"/>
<text text-anchor="middle" x="376" y="-12.08" font-family="Helvetica,sans-Serif" font-size="10.00">lex_operator</text>
</a>
</g>
</g>
<!-- Node1&#45;&gt;Node11 -->
<g id="edge14" class="edge">
<title>Node1&#45;&gt;Node11</title>
<path fill="none" stroke="midnightblue" d="M653.81,-141.54C647.82,-111.29 631.8,-54.76 593,-28.58 539.73,7.36 461.25,1.53 415.01,-6.3"/>
<polygon fill="midnightblue" stroke="midnightblue" points="650.42,-142.5 655.64,-151.72 657.31,-141.26 650.42,-142.5"/>
</g>
<!-- Node12 -->
<g id="node12" class="node">
<title>Node12</title>
<g id="a_node12"><a xlink:href="lexer__word_8c.html#ad9e7809fee584699717eb691257a6ded" target="_top" xlink:title="Lexes a segment delimited by single quotes.">
<polygon fill="none" stroke="black" points="458,-114.08 458,-133.08 591,-133.08 591,-114.08 458,-114.08"/>
<text text-anchor="middle" x="524.5" y="-121.08" font-family="Helvetica,sans-Serif" font-size="10.00">single_quoted_segment</text>
</a>
</g>
</g>
<!-- Node1&#45;&gt;Node12 -->
<g id="edge17" class="edge">
<title>Node1&#45;&gt;Node12</title>
<path fill="none" stroke="midnightblue" d="M618.95,-150.59C599.92,-145.09 577.1,-138.49 558.78,-133.2"/>
<polygon fill="midnightblue" stroke="midnightblue" points="618.21,-154.02 628.79,-153.43 620.15,-147.29 618.21,-154.02"/>
</g>
<!-- Node13 -->
<g id="node13" class="node">
<title>Node13</title>
<g id="a_node13"><a xlink:href="lexer__utils_8c.html#a0665b31ffb5665ad2a085f2b1a5e0e25" target="_top" xlink:title="Skip whitespaces in the t_lexer struct.">
<polygon fill="none" stroke="black" points="482.5,-38.08 482.5,-57.08 566.5,-57.08 566.5,-38.08 482.5,-38.08"/>
<text text-anchor="middle" x="524.5" y="-45.08" font-family="Helvetica,sans-Serif" font-size="10.00">skip_wspaces</text>
</a>
</g>
</g>
<!-- Node1&#45;&gt;Node13 -->
<g id="edge19" class="edge">
<title>Node1&#45;&gt;Node13</title>
<path fill="none" stroke="midnightblue" d="M649.03,-142.4C639.08,-120.78 620,-86.11 593,-66.58 585.21,-60.95 575.8,-56.98 566.51,-54.19"/>
<polygon fill="midnightblue" stroke="midnightblue" points="645.95,-144.1 653.18,-151.84 652.36,-141.28 645.95,-144.1"/>
</g>
<!-- Node2&#45;&gt;Node3 -->
<g id="edge2" class="edge">
<title>Node2&#45;&gt;Node3</title>
<path fill="none" stroke="midnightblue" d="M471.09,-97.39C449.47,-102.26 425.2,-107.72 406.73,-111.89"/>
<polygon fill="midnightblue" stroke="midnightblue" points="472.14,-100.74 481.13,-95.13 470.6,-93.91 472.14,-100.74"/>
</g>
<!-- Node4 -->
<g id="node4" class="node">
<title>Node4</title>
<g id="a_node4"><a xlink:href="lexer_8c.html#aced469451204cf536fd18b4cf94f6b91" target="_top" xlink:title="Global lexing function, that traverses readline&#39;s string and separate in tokens.">
<polygon fill="none" stroke="black" points="234.5,-73.08 234.5,-92.08 275.5,-92.08 275.5,-73.08 234.5,-73.08"/>
<text text-anchor="middle" x="255" y="-80.08" font-family="Helvetica,sans-Serif" font-size="10.00">lexer</text>
</a>
</g>
</g>
<!-- Node3&#45;&gt;Node4 -->
<g id="edge3" class="edge">
<title>Node3&#45;&gt;Node4</title>
<path fill="none" stroke="midnightblue" d="M335.45,-106.62C315.38,-100.55 291.88,-93.44 275.67,-88.53"/>
<polygon fill="midnightblue" stroke="midnightblue" points="334.69,-110.05 345.28,-109.59 336.72,-103.35 334.69,-110.05"/>
</g>
<!-- Node5 -->
<g id="node5" class="node">
<title>Node5</title>
<g id="a_node5"><a xlink:href="main_8c.html#a647f21a28344e1d9c643f4115516d7c9" target="_top" xlink:title=" ">
<polygon fill="none" stroke="black" points="0,-119.08 0,-138.08 41,-138.08 41,-119.08 0,-119.08"/>
<text text-anchor="middle" x="20.5" y="-126.08" font-family="Helvetica,sans-Serif" font-size="10.00">main</text>
</a>
</g>
</g>
<!-- Node4&#45;&gt;Node5 -->
<g id="edge4" class="edge">
<title>Node4&#45;&gt;Node5</title>
<path fill="none" stroke="midnightblue" d="M224.35,-88.45C176.17,-97.98 82.15,-116.58 41.27,-124.67"/>
<polygon fill="midnightblue" stroke="midnightblue" points="225.05,-91.88 234.18,-86.5 223.69,-85.01 225.05,-91.88"/>
</g>
<!-- Node6&#45;&gt;Node7 -->
<g id="edge6" class="edge">
<title>Node6&#45;&gt;Node7</title>
<path fill="none" stroke="midnightblue" d="M469.5,-275.58C452.34,-275.58 433.68,-275.58 417.63,-275.58"/>
<polygon fill="midnightblue" stroke="midnightblue" points="469.94,-279.08 479.94,-275.58 469.94,-272.08 469.94,-279.08"/>
</g>
<!-- Node7&#45;&gt;Node8 -->
<g id="edge7" class="edge">
<title>Node7&#45;&gt;Node8</title>
<path fill="none" stroke="midnightblue" d="M345.99,-261.69C324.27,-251.29 295.14,-237.33 275.98,-228.15"/>
<polygon fill="midnightblue" stroke="midnightblue" points="344.55,-264.88 355.08,-266.04 347.58,-258.57 344.55,-264.88"/>
</g>
<!-- Node9 -->
<g id="node9" class="node">
<title>Node9</title>
<g id="a_node9"><a xlink:href="expand_8c.html#a53c53e75b0ad8c8888217cd918304b8b" target="_top" xlink:title="Iterate over every args and redir of each command to expand and dequote what needs to be.">
<polygon fill="none" stroke="black" points="77,-185.08 77,-204.08 178,-204.08 178,-185.08 77,-185.08"/>
<text text-anchor="middle" x="127.5" y="-192.08" font-family="Helvetica,sans-Serif" font-size="10.00">expand_manager</text>
</a>
</g>
</g>
<!-- Node8&#45;&gt;Node9 -->
<g id="edge8" class="edge">
<title>Node8&#45;&gt;Node9</title>
<path fill="none" stroke="midnightblue" d="M203.87,-209C195.45,-207.39 186.72,-205.72 178.3,-204.11"/>
<polygon fill="midnightblue" stroke="midnightblue" points="203.47,-212.48 213.95,-210.92 204.78,-205.61 203.47,-212.48"/>
</g>
<!-- Node9&#45;&gt;Node5 -->
<g id="edge9" class="edge">
<title>Node9&#45;&gt;Node5</title>
<path fill="none" stroke="midnightblue" d="M102.35,-179.4C82.14,-166.7 53.91,-148.96 36.72,-138.15"/>
<polygon fill="midnightblue" stroke="midnightblue" points="100.68,-182.49 111.01,-184.84 104.4,-176.56 100.68,-182.49"/>
</g>
<!-- Node10&#45;&gt;Node8 -->
<g id="edge13" class="edge">
<title>Node10&#45;&gt;Node8</title>
<path fill="none" stroke="midnightblue" d="M321.78,-208.08C313.22,-209.45 304.49,-210.84 296.3,-212.15"/>
<polygon fill="midnightblue" stroke="midnightblue" points="322.38,-211.53 331.7,-206.5 321.27,-204.62 322.38,-211.53"/>
</g>
<!-- Node11&#45;&gt;Node4 -->
<g id="edge15" class="edge">
<title>Node11&#45;&gt;Node4</title>
<path fill="none" stroke="midnightblue" d="M349.26,-29.29C326.05,-42.55 292.61,-61.66 272.71,-73.03"/>
<polygon fill="midnightblue" stroke="midnightblue" points="351.26,-32.18 358.2,-24.18 347.78,-26.1 351.26,-32.18"/>
</g>
<!-- Node12&#45;&gt;Node3 -->
<g id="edge18" class="edge">
<title>Node12&#45;&gt;Node3</title>
<path fill="none" stroke="midnightblue" d="M447.81,-121C433.14,-120.5 418.6,-120 406.54,-119.59"/>
<polygon fill="midnightblue" stroke="midnightblue" points="447.85,-124.5 457.96,-121.35 448.09,-117.51 447.85,-124.5"/>
</g>
<!-- Node13&#45;&gt;Node4 -->
<g id="edge20" class="edge">
<title>Node13&#45;&gt;Node4</title>
<path fill="none" stroke="midnightblue" d="M472.3,-54.28C412.54,-62.1 316.68,-74.64 275.66,-80.01"/>
<polygon fill="midnightblue" stroke="midnightblue" points="472.83,-57.74 482.29,-52.97 471.92,-50.8 472.83,-57.74"/>
</g>
</g>
</svg>
        <g id="navigator" transform="translate(0 0)" fill="#404254">
                <rect fill="#f2f5e9" fill-opacity="0.5" stroke="#606060" stroke-width=".5" x="0" y="0" width="60" height="60"/>
                <use id="zoomplus" xlink:href="#zoomPlus" x="17" y="9" onmousedown="handleZoom(evt,'in')"/>
                <use id="zoomminus" xlink:href="#zoomMin" x="42" y="9" onmousedown="handleZoom(evt,'out')"/>
                <use id="reset" xlink:href="#resetDef" x="30" y="36" onmousedown="handleReset()"/>
                <g id="arrowUp" xlink:href="#dirArrow" transform="translate(30 24)" onmousedown="handlePan(0,-1)">
                  <use xlink:href="#rim" fill="#404040">
                        <set attributeName="fill" to="#808080" begin="arrowUp.mouseover" end="arrowUp.mouseout"/>
                  </use>
                  <path fill="none" stroke="white" stroke-width="1.5" d="M0,-3.0v7 M-2.5,-0.5L0,-3.0L2.5,-0.5"/>
                </g>
                <g id="arrowRight" xlink:href="#dirArrow" transform="rotate(90) translate(36 -43)" onmousedown="handlePan(1,0)">
                  <use xlink:href="#rim" fill="#404040">
                        <set attributeName="fill" to="#808080" begin="arrowRight.mouseover" end="arrowRight.mouseout"/>
                  </use>
                  <path fill="none" stroke="white" stroke-width="1.5" d="M0,-3.0v7 M-2.5,-0.5L0,-3.0L2.5,-0.5"/>
                </g>
                <g id="arrowDown" xlink:href="#dirArrow" transform="rotate(180) translate(-30 -48)" onmousedown="handlePan(0,1)">
                  <use xlink:href="#rim" fill="#404040">
                        <set attributeName="fill" to="#808080" begin="arrowDown.mouseover" end="arrowDown.mouseout"/>
                  </use>
                  <path fill="none" stroke="white" stroke-width="1.5" d="M0,-3.0v7 M-2.5,-0.5L0,-3.0L2.5,-0.5"/>
                </g>
                <g id="arrowLeft" xlink:href="#dirArrow" transform="rotate(270) translate(-36 17)" onmousedown="handlePan(-1,0)">
                  <use xlink:href="#rim" fill="#404040">
                        <set attributeName="fill" to="#808080" begin="arrowLeft.mouseover" end="arrowLeft.mouseout"/>
                  </use>
                  <path fill="none" stroke="white" stroke-width="1.5" d="M0,-3.0v7 M-2.5,-0.5L0,-3.0L2.5,-0.5"/>
                </g>
        </g>
        <svg viewBox="0 0 15 15" width="100%" height="30px" preserveAspectRatio="xMaxYMin meet">
         <g id="arrow_out" transform="scale(0.3 0.3)">
          <a xlink:href="parsing_8h_a6b132516dacc9599762b1fe7341a0f04_icgraph_org.svg" target="_base">
           <rect id="button" ry="5" rx="5" y="6" x="6" height="38" width="38"
                fill="#f2f5e9" fill-opacity="0.5" stroke="#606060" stroke-width="1.0"/>
           <path id="arrow"
             d="M 11.500037,31.436501 C 11.940474,20.09759 22.043105,11.32322 32.158766,21.979434 L 37.068811,17.246167 C 37.068811,17.246167 37.088388,32 37.088388,32 L 22.160133,31.978069 C 22.160133,31.978069 26.997745,27.140456 26.997745,27.140456 C 18.528582,18.264221 13.291696,25.230495 11.500037,31.436501 z"
             style="fill:#404040;"/>
          </a>
         </g>
        </svg>
</svg>
