<?xml version="1.0" encoding="UTF-8" standalone="no"?>
<!DOCTYPE svg PUBLIC "-//W3C//DTD SVG 1.1//EN"
 "http://www.w3.org/Graphics/SVG/1.1/DTD/svg11.dtd">
<!-- Generated by graphviz version 2.43.0 (0)
 -->
<!-- Title: parse_cmd Pages: 1 -->
<svg width="342pt" height="256pt"
 viewBox="0.00 0.00 342.00 256.00" xmlns="http://www.w3.org/2000/svg" xmlns:xlink="http://www.w3.org/1999/xlink">
<g id="graph0" class="graph" transform="scale(1 1) rotate(0) translate(4 252)">
<title>parse_cmd</title>
<!-- Node1 -->
<g id="node1" class="node">
<title>Node1</title>
<g id="a_node1"><a xlink:title=" ">
<polygon fill="#bfbfbf" stroke="black" points="0,-114.5 0,-133.5 70,-133.5 70,-114.5 0,-114.5"/>
<text text-anchor="middle" x="35" y="-121.5" font-family="Helvetica,sans-Serif" font-size="10.00">parse_cmd</text>
</a>
</g>
</g>
<!-- Node2 -->
<g id="node2" class="node">
<title>Node2</title>
<g id="a_node2"><a xlink:href="argv__builder_8c.html#a5f4104276b4a0d98dde31f75622668b4" target="_top" xlink:title=" ">
<polygon fill="none" stroke="black" points="108.5,-228.5 108.5,-247.5 191.5,-247.5 191.5,-228.5 108.5,-228.5"/>
<text text-anchor="middle" x="150" y="-235.5" font-family="Helvetica,sans-Serif" font-size="10.00">argv_buf_end</text>
</a>
</g>
</g>
<!-- Node1&#45;&gt;Node2 -->
<g id="edge1" class="edge">
<title>Node1&#45;&gt;Node2</title>
<path fill="none" stroke="midnightblue" d="M40.87,-133.64C50.78,-152.4 74.99,-194.14 106,-219 108.01,-220.61 110.17,-222.11 112.42,-223.5"/>
<polygon fill="midnightblue" stroke="midnightblue" points="110.94,-226.68 121.4,-228.36 114.27,-220.52 110.94,-226.68"/>
</g>
<!-- Node3 -->
<g id="node3" class="node">
<title>Node3</title>
<g id="a_node3"><a xlink:href="argv__builder_8c.html#a182f853e31c31af45e572979074a4d99" target="_top" xlink:title=" ">
<polygon fill="none" stroke="black" points="108,-190.5 108,-209.5 192,-209.5 192,-190.5 108,-190.5"/>
<text text-anchor="middle" x="150" y="-197.5" font-family="Helvetica,sans-Serif" font-size="10.00">argv_buf_free</text>
</a>
</g>
</g>
<!-- Node1&#45;&gt;Node3 -->
<g id="edge2" class="edge">
<title>Node1&#45;&gt;Node3</title>
<path fill="none" stroke="midnightblue" d="M46.24,-133.83C59.32,-146.03 83.02,-166.92 106,-181 108.94,-182.8 112.09,-184.53 115.28,-186.15"/>
<polygon fill="midnightblue" stroke="midnightblue" points="113.78,-189.32 124.32,-190.45 116.79,-182.99 113.78,-189.32"/>
</g>
<!-- Node4 -->
<g id="node4" class="node">
<title>Node4</title>
<g id="a_node4"><a xlink:href="argv__builder_8c.html#aee97e8a2ae269ee4063d3ea917e93ffc" target="_top" xlink:title=" ">
<polygon fill="none" stroke="black" points="110,-152.5 110,-171.5 190,-171.5 190,-152.5 110,-152.5"/>
<text text-anchor="middle" x="150" y="-159.5" font-family="Helvetica,sans-Serif" font-size="10.00">argv_buf_init</text>
</a>
</g>
</g>
<!-- Node1&#45;&gt;Node4 -->
<g id="edge3" class="edge">
<title>Node1&#45;&gt;Node4</title>
<path fill="none" stroke="midnightblue" d="M64.51,-133.59C78.57,-138.31 95.71,-144.08 110.87,-149.18"/>
<polygon fill="midnightblue" stroke="midnightblue" points="109.9,-152.54 120.49,-152.41 112.13,-145.91 109.9,-152.54"/>
</g>
<!-- Node5 -->
<g id="node5" class="node">
<title>Node5</title>
<g id="a_node5"><a xlink:href="argv__builder_8c.html#a9f9516f7f412bb9019d1fe829f2395a3" target="_top" xlink:title=" ">
<polygon fill="none" stroke="black" points="106,-114.5 106,-133.5 194,-133.5 194,-114.5 106,-114.5"/>
<text text-anchor="middle" x="150" y="-121.5" font-family="Helvetica,sans-Serif" font-size="10.00">argv_buf_push</text>
</a>
</g>
</g>
<!-- Node1&#45;&gt;Node5 -->
<g id="edge4" class="edge">
<title>Node1&#45;&gt;Node5</title>
<path fill="none" stroke="midnightblue" d="M70.21,-124C78.24,-124 86.99,-124 95.63,-124"/>
<polygon fill="midnightblue" stroke="midnightblue" points="95.69,-127.5 105.69,-124 95.69,-120.5 95.69,-127.5"/>
</g>
<!-- Node6 -->
<g id="node6" class="node">
<title>Node6</title>
<g id="a_node6"><a xlink:href="parser_8c.html#a2e2699d47ad80d706e124c654b57b375" target="_top" xlink:title=" ">
<polygon fill="none" stroke="black" points="252.5,-57.5 252.5,-76.5 311.5,-76.5 311.5,-57.5 252.5,-57.5"/>
<text text-anchor="middle" x="282" y="-64.5" font-family="Helvetica,sans-Serif" font-size="10.00">cur_next</text>
</a>
</g>
</g>
<!-- Node1&#45;&gt;Node6 -->
<g id="edge5" class="edge">
<title>Node1&#45;&gt;Node6</title>
<path fill="none" stroke="midnightblue" d="M69.73,-114.47C81.21,-111.33 94.13,-107.9 106,-105 152.73,-93.59 206.9,-82.09 242.45,-74.78"/>
<polygon fill="midnightblue" stroke="midnightblue" points="243.31,-78.18 252.4,-72.74 241.91,-71.32 243.31,-78.18"/>
</g>
<!-- Node7 -->
<g id="node7" class="node">
<title>Node7</title>
<g id="a_node7"><a xlink:href="parser_8c.html#a504166f8c7680aafbdfdb58ab412d498" target="_top" xlink:title=" ">
<polygon fill="none" stroke="black" points="107.5,-38.5 107.5,-57.5 192.5,-57.5 192.5,-38.5 107.5,-38.5"/>
<text text-anchor="middle" x="150" y="-45.5" font-family="Helvetica,sans-Serif" font-size="10.00">is_token_redir</text>
</a>
</g>
</g>
<!-- Node1&#45;&gt;Node7 -->
<g id="edge6" class="edge">
<title>Node1&#45;&gt;Node7</title>
<path fill="none" stroke="midnightblue" d="M48.05,-114.3C61.73,-103.46 84.9,-85.65 106,-72 111.06,-68.73 116.59,-65.44 121.95,-62.39"/>
<polygon fill="midnightblue" stroke="midnightblue" points="123.66,-65.45 130.7,-57.53 120.26,-59.33 123.66,-65.45"/>
</g>
<!-- Node8 -->
<g id="node8" class="node">
<title>Node8</title>
<g id="a_node8"><a xlink:href="parser_8c.html#a196c06f986a99e4ad591e374a4bb6339" target="_top" xlink:title=" ">
<polygon fill="none" stroke="black" points="114.5,-0.5 114.5,-19.5 185.5,-19.5 185.5,-0.5 114.5,-0.5"/>
<text text-anchor="middle" x="150" y="-7.5" font-family="Helvetica,sans-Serif" font-size="10.00">parse_redir</text>
</a>
</g>
</g>
<!-- Node1&#45;&gt;Node8 -->
<g id="edge7" class="edge">
<title>Node1&#45;&gt;Node8</title>
<path fill="none" stroke="midnightblue" d="M40.87,-114.36C50.78,-95.6 74.99,-53.86 106,-29 108.01,-27.39 110.17,-25.89 112.42,-24.5"/>
<polygon fill="midnightblue" stroke="midnightblue" points="114.27,-27.48 121.4,-19.64 110.94,-21.32 114.27,-27.48"/>
</g>
<!-- Node8&#45;&gt;Node6 -->
<g id="edge9" class="edge">
<title>Node8&#45;&gt;Node6</title>
<path fill="none" stroke="midnightblue" d="M172.76,-19.54C193.85,-28.79 226.06,-42.91 249.86,-53.35"/>
<polygon fill="midnightblue" stroke="midnightblue" points="248.61,-56.62 259.17,-57.43 251.42,-50.21 248.61,-56.62"/>
</g>
<!-- Node9 -->
<g id="node9" class="node">
<title>Node9</title>
<g id="a_node9"><a xlink:href="lst__redir_8c.html#acb0801286560639fb0d37901d566a3e5" target="_top" xlink:title=" ">
<polygon fill="none" stroke="black" points="230,-0.5 230,-19.5 334,-19.5 334,-0.5 230,-0.5"/>
<text text-anchor="middle" x="282" y="-7.5" font-family="Helvetica,sans-Serif" font-size="10.00">create_node_redir</text>
</a>
</g>
</g>
<!-- Node8&#45;&gt;Node9 -->
<g id="edge8" class="edge">
<title>Node8&#45;&gt;Node9</title>
<path fill="none" stroke="midnightblue" d="M185.84,-10C196.31,-10 208.12,-10 219.77,-10"/>
<polygon fill="midnightblue" stroke="midnightblue" points="219.93,-13.5 229.93,-10 219.93,-6.5 219.93,-13.5"/>
</g>
</g>
</svg>
