<?xml version="1.0" encoding="UTF-8" standalone="no"?>
<!DOCTYPE svg PUBLIC "-//W3C//DTD SVG 1.1//EN"
 "http://www.w3.org/Graphics/SVG/1.1/DTD/svg11.dtd">
<!-- Generated by graphviz version 2.43.0 (0)
 -->
<!-- Title: free_tokens Pages: 1 -->
<svg width="499pt" height="104pt"
 viewBox="0.00 0.00 499.00 104.00" xmlns="http://www.w3.org/2000/svg" xmlns:xlink="http://www.w3.org/1999/xlink">
<g id="graph0" class="graph" transform="scale(1 1) rotate(0) translate(4 100)">
<title>free_tokens</title>
<!-- Node1 -->
<g id="node1" class="node">
<title>Node1</title>
<g id="a_node1"><a xlink:title="Free t_token entire linked list.">
<polygon fill="#bfbfbf" stroke="black" points="417,-38.5 417,-57.5 491,-57.5 491,-38.5 417,-38.5"/>
<text text-anchor="middle" x="454" y="-45.5" font-family="Helvetica,sans-Serif" font-size="10.00">free_tokens</text>
</a>
</g>
</g>
<!-- Node2 -->
<g id="node2" class="node">
<title>Node2</title>
<g id="a_node2"><a xlink:href="lexer_8c.html#aced469451204cf536fd18b4cf94f6b91" target="_top" xlink:title="Global lexing function, that traverses readline&#39;s string and separate in tokens.">
<polygon fill="none" stroke="black" points="178.5,-76.5 178.5,-95.5 219.5,-95.5 219.5,-76.5 178.5,-76.5"/>
<text text-anchor="middle" x="199" y="-83.5" font-family="Helvetica,sans-Serif" font-size="10.00">lexer</text>
</a>
</g>
</g>
<!-- Node1&#45;&gt;Node2 -->
<g id="edge1" class="edge">
<title>Node1&#45;&gt;Node2</title>
<path fill="none" stroke="midnightblue" d="M406.92,-57.39C398.32,-59.02 389.4,-60.63 381,-62 322.5,-71.56 252.89,-79.96 219.61,-83.79"/>
<polygon fill="midnightblue" stroke="midnightblue" points="407.66,-60.81 416.82,-55.48 406.34,-53.94 407.66,-60.81"/>
</g>
<!-- Node4 -->
<g id="node4" class="node">
<title>Node4</title>
<g id="a_node4"><a xlink:href="parser_8c.html#a302af903b3f87eaaff83762f60c2d8cb" target="_top" xlink:title=" ">
<polygon fill="none" stroke="black" points="77,-38.5 77,-57.5 124,-57.5 124,-38.5 77,-38.5"/>
<text text-anchor="middle" x="100.5" y="-45.5" font-family="Helvetica,sans-Serif" font-size="10.00">parser</text>
</a>
</g>
</g>
<!-- Node1&#45;&gt;Node4 -->
<g id="edge3" class="edge">
<title>Node1&#45;&gt;Node4</title>
<path fill="none" stroke="midnightblue" d="M406.43,-48C330.03,-48 180.93,-48 124.17,-48"/>
<polygon fill="midnightblue" stroke="midnightblue" points="406.71,-51.5 416.71,-48 406.71,-44.5 406.71,-51.5"/>
</g>
<!-- Node5 -->
<g id="node5" class="node">
<title>Node5</title>
<g id="a_node5"><a xlink:href="parsing__error_8c.html#a193034f887c71fdb2486835d8cbd9dd3" target="_top" xlink:title=" ">
<polygon fill="none" stroke="black" points="274,-0.5 274,-19.5 381,-19.5 381,-0.5 274,-0.5"/>
<text text-anchor="middle" x="327.5" y="-7.5" font-family="Helvetica,sans-Serif" font-size="10.00">parsing_destructor</text>
</a>
</g>
</g>
<!-- Node1&#45;&gt;Node5 -->
<g id="edge5" class="edge">
<title>Node1&#45;&gt;Node5</title>
<path fill="none" stroke="midnightblue" d="M411.93,-35.46C394.99,-30.3 375.68,-24.4 359.91,-19.59"/>
<polygon fill="midnightblue" stroke="midnightblue" points="411,-38.84 421.58,-38.41 413.04,-32.14 411,-38.84"/>
</g>
<!-- Node3 -->
<g id="node3" class="node">
<title>Node3</title>
<g id="a_node3"><a xlink:href="main_8c.html#a647f21a28344e1d9c643f4115516d7c9" target="_top" xlink:title=" ">
<polygon fill="none" stroke="black" points="0,-57.5 0,-76.5 41,-76.5 41,-57.5 0,-57.5"/>
<text text-anchor="middle" x="20.5" y="-64.5" font-family="Helvetica,sans-Serif" font-size="10.00">main</text>
</a>
</g>
</g>
<!-- Node2&#45;&gt;Node3 -->
<g id="edge2" class="edge">
<title>Node2&#45;&gt;Node3</title>
<path fill="none" stroke="midnightblue" d="M168.49,-82.82C132.33,-78.93 72.08,-72.45 41.15,-69.12"/>
<polygon fill="midnightblue" stroke="midnightblue" points="168.12,-86.3 178.44,-83.89 168.87,-79.34 168.12,-86.3"/>
</g>
<!-- Node4&#45;&gt;Node3 -->
<g id="edge4" class="edge">
<title>Node4&#45;&gt;Node3</title>
<path fill="none" stroke="midnightblue" d="M66.94,-55.93C58.16,-58.07 48.93,-60.32 41.1,-62.23"/>
<polygon fill="midnightblue" stroke="midnightblue" points="68.05,-59.26 76.94,-53.5 66.39,-52.46 68.05,-59.26"/>
</g>
<!-- Node6 -->
<g id="node6" class="node">
<title>Node6</title>
<g id="a_node6"><a xlink:href="parsing__error_8c.html#a8f5f1cfa591c395b88733e1134d8de3d" target="_top" xlink:title=" ">
<polygon fill="none" stroke="black" points="160,-0.5 160,-19.5 238,-19.5 238,-0.5 160,-0.5"/>
<text text-anchor="middle" x="199" y="-7.5" font-family="Helvetica,sans-Serif" font-size="10.00">syntax_error</text>
</a>
</g>
</g>
<!-- Node5&#45;&gt;Node6 -->
<g id="edge6" class="edge">
<title>Node5&#45;&gt;Node6</title>
<path fill="none" stroke="midnightblue" d="M263.79,-10C255.09,-10 246.38,-10 238.31,-10"/>
<polygon fill="midnightblue" stroke="midnightblue" points="263.95,-13.5 273.95,-10 263.95,-6.5 263.95,-13.5"/>
</g>
<!-- Node6&#45;&gt;Node4 -->
<g id="edge7" class="edge">
<title>Node6&#45;&gt;Node4</title>
<path fill="none" stroke="midnightblue" d="M164.33,-23.26C151.05,-28.49 136.15,-34.36 124.19,-39.07"/>
<polygon fill="midnightblue" stroke="midnightblue" points="165.63,-26.51 173.65,-19.59 163.06,-20 165.63,-26.51"/>
</g>
</g>
</svg>
