<?xml version="1.0" encoding="UTF-8" standalone="no"?>
<!DOCTYPE svg PUBLIC "-//W3C//DTD SVG 1.1//EN"
 "http://www.w3.org/Graphics/SVG/1.1/DTD/svg11.dtd">
<!-- Generated by graphviz version 2.43.0 (0)
 -->
<!-- Title: includes/parsing.h Pages: 1 -->
<svg width="1787pt" height="151pt"
 viewBox="0.00 0.00 1786.50 151.00" xmlns="http://www.w3.org/2000/svg" xmlns:xlink="http://www.w3.org/1999/xlink">
<g id="graph0" class="graph" transform="scale(1 1) rotate(0) translate(4 147)">
<title>includes/parsing.h</title>
<!-- Node1 -->
<g id="node1" class="node">
<title>Node1</title>
<g id="a_node1"><a xlink:title=" ">
<polygon fill="#bfbfbf" stroke="black" points="967,-123.5 967,-142.5 1072,-142.5 1072,-123.5 967,-123.5"/>
<text text-anchor="middle" x="1019.5" y="-130.5" font-family="Helvetica,sans-Serif" font-size="10.00">includes/parsing.h</text>
</a>
</g>
</g>
<!-- Node2 -->
<g id="node2" class="node">
<title>Node2</title>
<g id="a_node2"><a xlink:href="expand_8c.html" target="_top" xlink:title=" ">
<polygon fill="none" stroke="black" points="0,-62 0,-81 117,-81 117,-62 0,-62"/>
<text text-anchor="middle" x="58.5" y="-69" font-family="Helvetica,sans-Serif" font-size="10.00">src/expand/expand.c</text>
</a>
</g>
</g>
<!-- Node1&#45;&gt;Node2 -->
<g id="edge1" class="edge">
<title>Node1&#45;&gt;Node2</title>
<path fill="none" stroke="midnightblue" d="M956.69,-132.34C810.32,-132.38 435.42,-128.06 125.5,-87 114.76,-85.58 103.19,-83.33 92.74,-81.03"/>
<polygon fill="midnightblue" stroke="midnightblue" points="956.83,-135.84 966.83,-132.33 956.83,-128.84 956.83,-135.84"/>
</g>
<!-- Node3 -->
<g id="node3" class="node">
<title>Node3</title>
<g id="a_node3"><a xlink:href="expand__dollar_8c.html" target="_top" xlink:title=" ">
<polygon fill="none" stroke="black" points="135,-62 135,-81 284,-81 284,-62 135,-62"/>
<text text-anchor="middle" x="209.5" y="-69" font-family="Helvetica,sans-Serif" font-size="10.00">src/expand/expand_dollar.c</text>
</a>
</g>
</g>
<!-- Node1&#45;&gt;Node3 -->
<g id="edge2" class="edge">
<title>Node1&#45;&gt;Node3</title>
<path fill="none" stroke="midnightblue" d="M956.71,-130.41C830.62,-126.72 537.8,-115.57 293.5,-87 280.42,-85.47 266.28,-83.25 253.4,-81.01"/>
<polygon fill="midnightblue" stroke="midnightblue" points="956.84,-133.92 966.94,-130.71 957.04,-126.92 956.84,-133.92"/>
</g>
<!-- Node4 -->
<g id="node4" class="node">
<title>Node4</title>
<g id="a_node4"><a xlink:href="expand__word_8c.html" target="_top" xlink:title=" ">
<polygon fill="none" stroke="black" points="302.5,-62 302.5,-81 448.5,-81 448.5,-62 302.5,-62"/>
<text text-anchor="middle" x="375.5" y="-69" font-family="Helvetica,sans-Serif" font-size="10.00">src/expand/expand_word.c</text>
</a>
</g>
</g>
<!-- Node1&#45;&gt;Node4 -->
<g id="edge3" class="edge">
<title>Node1&#45;&gt;Node4</title>
<path fill="none" stroke="midnightblue" d="M956.61,-128.92C852.5,-123.38 637.9,-110.12 457.5,-87 445.02,-85.4 431.56,-83.21 419.21,-81.02"/>
<polygon fill="midnightblue" stroke="midnightblue" points="956.47,-132.42 966.64,-129.45 956.84,-125.43 956.47,-132.42"/>
</g>
<!-- Node5 -->
<g id="node5" class="node">
<title>Node5</title>
<g id="a_node5"><a xlink:href="lexer_8c.html" target="_top" xlink:title=" ">
<polygon fill="none" stroke="black" points="466.5,-62 466.5,-81 564.5,-81 564.5,-62 466.5,-62"/>
<text text-anchor="middle" x="515.5" y="-69" font-family="Helvetica,sans-Serif" font-size="10.00">src/lexing/lexer.c</text>
</a>
</g>
</g>
<!-- Node1&#45;&gt;Node5 -->
<g id="edge4" class="edge">
<title>Node1&#45;&gt;Node5</title>
<path fill="none" stroke="midnightblue" d="M956.59,-128.43C870.04,-122.88 709.61,-110.32 574.5,-87 565.46,-85.44 555.75,-83.26 546.87,-81.07"/>
<polygon fill="midnightblue" stroke="midnightblue" points="956.57,-131.93 966.77,-129.07 957.01,-124.95 956.57,-131.93"/>
</g>
<!-- Node6 -->
<g id="node6" class="node">
<title>Node6</title>
<g id="a_node6"><a xlink:href="lexer__utils_8c.html" target="_top" xlink:title=" ">
<polygon fill="none" stroke="black" points="583,-62 583,-81 708,-81 708,-62 583,-62"/>
<text text-anchor="middle" x="645.5" y="-69" font-family="Helvetica,sans-Serif" font-size="10.00">src/lexing/lexer_utils.c</text>
</a>
</g>
</g>
<!-- Node1&#45;&gt;Node6 -->
<g id="edge5" class="edge">
<title>Node1&#45;&gt;Node6</title>
<path fill="none" stroke="midnightblue" d="M956.73,-123.59C895.54,-115.18 799.93,-101.43 717.5,-87 707.33,-85.22 696.38,-83.11 686.17,-81.07"/>
<polygon fill="midnightblue" stroke="midnightblue" points="956.61,-127.11 966.99,-125 957.56,-120.18 956.61,-127.11"/>
</g>
<!-- Node7 -->
<g id="node7" class="node">
<title>Node7</title>
<g id="a_node7"><a xlink:href="lexer__word_8c.html" target="_top" xlink:title=" ">
<polygon fill="none" stroke="black" points="726.5,-62 726.5,-81 854.5,-81 854.5,-62 726.5,-62"/>
<text text-anchor="middle" x="790.5" y="-69" font-family="Helvetica,sans-Serif" font-size="10.00">src/lexing/lexer_word.c</text>
</a>
</g>
</g>
<!-- Node1&#45;&gt;Node7 -->
<g id="edge6" class="edge">
<title>Node1&#45;&gt;Node7</title>
<path fill="none" stroke="midnightblue" d="M976.76,-120.9C932.29,-109.34 863.61,-91.5 823.25,-81.01"/>
<polygon fill="midnightblue" stroke="midnightblue" points="976.13,-124.35 986.69,-123.48 977.89,-117.57 976.13,-124.35"/>
</g>
<!-- Node8 -->
<g id="node8" class="node">
<title>Node8</title>
<g id="a_node8"><a xlink:href="string__builder_8c.html" target="_top" xlink:title=" ">
<polygon fill="none" stroke="black" points="873,-62 873,-81 1014,-81 1014,-62 873,-62"/>
<text text-anchor="middle" x="943.5" y="-69" font-family="Helvetica,sans-Serif" font-size="10.00">src/lexing/string_builder.c</text>
</a>
</g>
</g>
<!-- Node1&#45;&gt;Node8 -->
<g id="edge7" class="edge">
<title>Node1&#45;&gt;Node8</title>
<path fill="none" stroke="midnightblue" d="M1000.72,-117.29C986.14,-105.88 966.44,-90.46 954.37,-81.01"/>
<polygon fill="midnightblue" stroke="midnightblue" points="998.58,-120.07 1008.61,-123.48 1002.89,-114.55 998.58,-120.07"/>
</g>
<!-- Node9 -->
<g id="node9" class="node">
<title>Node9</title>
<g id="a_node9"><a xlink:href="token__utils_8c.html" target="_top" xlink:title=" ">
<polygon fill="none" stroke="black" points="1032.5,-62 1032.5,-81 1160.5,-81 1160.5,-62 1032.5,-62"/>
<text text-anchor="middle" x="1096.5" y="-69" font-family="Helvetica,sans-Serif" font-size="10.00">src/lexing/token_utils.c</text>
</a>
</g>
</g>
<!-- Node1&#45;&gt;Node9 -->
<g id="edge8" class="edge">
<title>Node1&#45;&gt;Node9</title>
<path fill="none" stroke="midnightblue" d="M1038.53,-117.29C1053.3,-105.88 1073.26,-90.46 1085.49,-81.01"/>
<polygon fill="midnightblue" stroke="midnightblue" points="1036.31,-114.59 1030.53,-123.48 1040.59,-120.13 1036.31,-114.59"/>
</g>
<!-- Node10 -->
<g id="node10" class="node">
<title>Node10</title>
<g id="a_node10"><a xlink:href="main_8c.html" target="_top" xlink:title=" ">
<polygon fill="none" stroke="black" points="1413,-0.5 1413,-19.5 1480,-19.5 1480,-0.5 1413,-0.5"/>
<text text-anchor="middle" x="1446.5" y="-7.5" font-family="Helvetica,sans-Serif" font-size="10.00">src/main.c</text>
</a>
</g>
</g>
<!-- Node1&#45;&gt;Node10 -->
<g id="edge9" class="edge">
<title>Node1&#45;&gt;Node10</title>
<path fill="none" stroke="midnightblue" d="M1073.62,-121.04C1103.03,-113.8 1139.43,-102.71 1169.5,-87 1189.12,-76.75 1188.37,-65.22 1208.5,-56 1276.56,-24.85 1365.04,-15.26 1412.64,-12.31"/>
<polygon fill="midnightblue" stroke="midnightblue" points="1072.45,-117.72 1063.54,-123.44 1074.07,-124.53 1072.45,-117.72"/>
</g>
<!-- Node11 -->
<g id="node11" class="node">
<title>Node11</title>
<g id="a_node11"><a xlink:href="argv__builder_8c.html" target="_top" xlink:title=" ">
<polygon fill="none" stroke="black" points="1217,-62 1217,-81 1358,-81 1358,-62 1217,-62"/>
<text text-anchor="middle" x="1287.5" y="-69" font-family="Helvetica,sans-Serif" font-size="10.00">src/parsing/argv_builder.c</text>
</a>
</g>
</g>
<!-- Node1&#45;&gt;Node11 -->
<g id="edge10" class="edge">
<title>Node1&#45;&gt;Node11</title>
<path fill="none" stroke="midnightblue" d="M1067.88,-121.26C1119.87,-109.72 1201.44,-91.61 1249.17,-81.01"/>
<polygon fill="midnightblue" stroke="midnightblue" points="1066.9,-117.89 1057.9,-123.48 1068.42,-124.72 1066.9,-117.89"/>
</g>
<!-- Node12 -->
<g id="node12" class="node">
<title>Node12</title>
<g id="a_node12"><a xlink:href="parser_8c.html" target="_top" xlink:title=" ">
<polygon fill="none" stroke="black" points="1376,-62 1376,-81 1487,-81 1487,-62 1376,-62"/>
<text text-anchor="middle" x="1431.5" y="-69" font-family="Helvetica,sans-Serif" font-size="10.00">src/parsing/parser.c</text>
</a>
</g>
</g>
<!-- Node1&#45;&gt;Node12 -->
<g id="edge11" class="edge">
<title>Node1&#45;&gt;Node12</title>
<path fill="none" stroke="midnightblue" d="M1082.17,-125.69C1152.06,-118.25 1268.31,-104.61 1367.5,-87 1377.03,-85.31 1387.29,-83.14 1396.74,-81"/>
<polygon fill="midnightblue" stroke="midnightblue" points="1081.78,-122.22 1072.21,-126.75 1082.52,-129.18 1081.78,-122.22"/>
</g>
<!-- Node13 -->
<g id="node13" class="node">
<title>Node13</title>
<g id="a_node13"><a xlink:href="parsing__error_8c.html" target="_top" xlink:title=" ">
<polygon fill="none" stroke="black" points="1505,-56.5 1505,-86.5 1614,-86.5 1614,-56.5 1505,-56.5"/>
<text text-anchor="start" x="1513" y="-74.5" font-family="Helvetica,sans-Serif" font-size="10.00">src/parsing/parsing</text>
<text text-anchor="middle" x="1559.5" y="-63.5" font-family="Helvetica,sans-Serif" font-size="10.00">_error.c</text>
</a>
</g>
</g>
<!-- Node1&#45;&gt;Node13 -->
<g id="edge12" class="edge">
<title>Node1&#45;&gt;Node13</title>
<path fill="none" stroke="midnightblue" d="M1082.22,-128.73C1173.74,-123.36 1349.04,-110.82 1496.5,-87 1499.27,-86.55 1502.1,-86.05 1504.95,-85.52"/>
<polygon fill="midnightblue" stroke="midnightblue" points="1081.8,-125.25 1072.02,-129.32 1082.2,-132.24 1081.8,-125.25"/>
</g>
<!-- Node14 -->
<g id="node14" class="node">
<title>Node14</title>
<g id="a_node14"><a xlink:href="parsing__helpers_8h.html" target="_top" xlink:title=" ">
<polygon fill="none" stroke="black" points="1632.5,-62 1632.5,-81 1778.5,-81 1778.5,-62 1632.5,-62"/>
<text text-anchor="middle" x="1705.5" y="-69" font-family="Helvetica,sans-Serif" font-size="10.00">includes/parsing_helpers.h</text>
</a>
</g>
</g>
<!-- Node1&#45;&gt;Node14 -->
<g id="edge13" class="edge">
<title>Node1&#45;&gt;Node14</title>
<path fill="none" stroke="midnightblue" d="M1082.48,-129.14C1191.33,-123.96 1421.19,-111.23 1614.5,-87 1626.98,-85.44 1640.45,-83.26 1653.14,-81.07"/>
<polygon fill="midnightblue" stroke="midnightblue" points="1082.15,-125.65 1072.33,-129.62 1082.48,-132.65 1082.15,-125.65"/>
</g>
<!-- Node14&#45;&gt;Node1 -->
<g id="edge15" class="edge">
<title>Node14&#45;&gt;Node1</title>
<path fill="none" stroke="midnightblue" d="M1660.32,-82.85C1651.16,-84.4 1641.57,-85.86 1632.5,-87 1426.44,-112.83 1178.83,-125.59 1072.29,-130.07"/>
<polygon fill="midnightblue" stroke="midnightblue" points="1661.2,-86.25 1670.44,-81.07 1659.98,-79.36 1661.2,-86.25"/>
</g>
<!-- Node14&#45;&gt;Node10 -->
<g id="edge14" class="edge">
<title>Node14&#45;&gt;Node10</title>
<path fill="none" stroke="midnightblue" d="M1658.51,-59.71C1607.04,-47.88 1525.76,-29.21 1480.24,-18.75"/>
<polygon fill="midnightblue" stroke="midnightblue" points="1657.86,-63.15 1668.39,-61.98 1659.43,-56.32 1657.86,-63.15"/>
</g>
</g>
</svg>
