<?xml version="1.0" encoding="UTF-8" standalone="no"?>
<!DOCTYPE svg PUBLIC "-//W3C//DTD SVG 1.1//EN"
 "http://www.w3.org/Graphics/SVG/1.1/DTD/svg11.dtd">
<!-- Generated by graphviz version 2.43.0 (0)
 -->
<!-- Title: includes/parsing.h Pages: 1 -->
<svg width="1910pt" height="151pt"
 viewBox="0.00 0.00 1909.50 151.00" xmlns="http://www.w3.org/2000/svg" xmlns:xlink="http://www.w3.org/1999/xlink">
<g id="graph0" class="graph" transform="scale(1 1) rotate(0) translate(4 147)">
<title>includes/parsing.h</title>
<!-- Node1 -->
<g id="node1" class="node">
<title>Node1</title>
<g id="a_node1"><a xlink:title=" ">
<polygon fill="#bfbfbf" stroke="black" points="1044,-123.5 1044,-142.5 1149,-142.5 1149,-123.5 1044,-123.5"/>
<text text-anchor="middle" x="1096.5" y="-130.5" font-family="Helvetica,sans-Serif" font-size="10.00">includes/parsing.h</text>
</a>
</g>
</g>
<!-- Node2 -->
<g id="node2" class="node">
<title>Node2</title>
<g id="a_node2"><a xlink:href="expand_8c.html" target="_top" xlink:title=" ">
<polygon fill="none" stroke="black" points="0,-62 0,-81 117,-81 117,-62 0,-62"/>
<text text-anchor="middle" x="58.5" y="-69" font-family="Helvetica,sans-Serif" font-size="10.00">src/expand/expand.c</text>
</a>
</g>
</g>
<!-- Node1&#45;&gt;Node2 -->
<g id="edge1" class="edge">
<title>Node1&#45;&gt;Node2</title>
<path fill="none" stroke="midnightblue" d="M1033.59,-132.7C878.55,-133.66 465.95,-131.41 125.5,-87 114.76,-85.6 103.19,-83.36 92.74,-81.06"/>
<polygon fill="midnightblue" stroke="midnightblue" points="1033.89,-136.2 1043.87,-132.63 1033.84,-129.2 1033.89,-136.2"/>
</g>
<!-- Node3 -->
<g id="node3" class="node">
<title>Node3</title>
<g id="a_node3"><a xlink:href="expand__dollar_8c.html" target="_top" xlink:title=" ">
<polygon fill="none" stroke="black" points="135,-62 135,-81 284,-81 284,-62 135,-62"/>
<text text-anchor="middle" x="209.5" y="-69" font-family="Helvetica,sans-Serif" font-size="10.00">src/expand/expand_dollar.c</text>
</a>
</g>
</g>
<!-- Node1&#45;&gt;Node3 -->
<g id="edge2" class="edge">
<title>Node1&#45;&gt;Node3</title>
<path fill="none" stroke="midnightblue" d="M1033.5,-130.93C897.81,-128.09 567.97,-118.28 293.5,-87 280.41,-85.51 266.27,-83.3 253.39,-81.06"/>
<polygon fill="midnightblue" stroke="midnightblue" points="1033.64,-134.43 1043.71,-131.14 1033.78,-127.44 1033.64,-134.43"/>
</g>
<!-- Node4 -->
<g id="node4" class="node">
<title>Node4</title>
<g id="a_node4"><a xlink:href="expand__word_8c.html" target="_top" xlink:title=" ">
<polygon fill="none" stroke="black" points="302.5,-62 302.5,-81 448.5,-81 448.5,-62 302.5,-62"/>
<text text-anchor="middle" x="375.5" y="-69" font-family="Helvetica,sans-Serif" font-size="10.00">src/expand/expand_word.c</text>
</a>
</g>
</g>
<!-- Node1&#45;&gt;Node4 -->
<g id="edge3" class="edge">
<title>Node1&#45;&gt;Node4</title>
<path fill="none" stroke="midnightblue" d="M1033.71,-129.76C918.94,-125.18 667.77,-112.92 457.5,-87 444.87,-85.44 431.24,-83.24 418.78,-81.03"/>
<polygon fill="midnightblue" stroke="midnightblue" points="1033.59,-133.26 1043.72,-130.15 1033.87,-126.26 1033.59,-133.26"/>
</g>
<!-- Node5 -->
<g id="node5" class="node">
<title>Node5</title>
<g id="a_node5"><a xlink:href="lexer_8c.html" target="_top" xlink:title=" ">
<polygon fill="none" stroke="black" points="466.5,-62 466.5,-81 564.5,-81 564.5,-62 466.5,-62"/>
<text text-anchor="middle" x="515.5" y="-69" font-family="Helvetica,sans-Serif" font-size="10.00">src/lexing/lexer.c</text>
</a>
</g>
</g>
<!-- Node1&#45;&gt;Node5 -->
<g id="edge4" class="edge">
<title>Node1&#45;&gt;Node5</title>
<path fill="none" stroke="midnightblue" d="M1033.86,-129.74C935.48,-125.48 738.98,-114.13 574.5,-87 565.24,-85.47 555.28,-83.25 546.24,-81.01"/>
<polygon fill="midnightblue" stroke="midnightblue" points="1033.79,-133.24 1043.93,-130.16 1034.09,-126.24 1033.79,-133.24"/>
</g>
<!-- Node6 -->
<g id="node6" class="node">
<title>Node6</title>
<g id="a_node6"><a xlink:href="lexer__utils_8c.html" target="_top" xlink:title=" ">
<polygon fill="none" stroke="black" points="583,-62 583,-81 708,-81 708,-62 583,-62"/>
<text text-anchor="middle" x="645.5" y="-69" font-family="Helvetica,sans-Serif" font-size="10.00">src/lexing/lexer_utils.c</text>
</a>
</g>
</g>
<!-- Node1&#45;&gt;Node6 -->
<g id="edge5" class="edge">
<title>Node1&#45;&gt;Node6</title>
<path fill="none" stroke="midnightblue" d="M1033.63,-126.1C958.27,-118.67 828.27,-104.7 717.5,-87 706.92,-85.31 695.54,-83.17 685.01,-81.05"/>
<polygon fill="midnightblue" stroke="midnightblue" points="1033.6,-129.61 1043.9,-127.11 1034.28,-122.65 1033.6,-129.61"/>
</g>
<!-- Node7 -->
<g id="node7" class="node">
<title>Node7</title>
<g id="a_node7"><a xlink:href="lexer__word_8c.html" target="_top" xlink:title=" ">
<polygon fill="none" stroke="black" points="726.5,-62 726.5,-81 854.5,-81 854.5,-62 726.5,-62"/>
<text text-anchor="middle" x="790.5" y="-69" font-family="Helvetica,sans-Serif" font-size="10.00">src/lexing/lexer_word.c</text>
</a>
</g>
</g>
<!-- Node1&#45;&gt;Node7 -->
<g id="edge6" class="edge">
<title>Node1&#45;&gt;Node7</title>
<path fill="none" stroke="midnightblue" d="M1042.48,-121.55C995.46,-112.45 925.47,-98.89 864.5,-87 854.61,-85.07 843.97,-82.99 833.93,-81.02"/>
<polygon fill="midnightblue" stroke="midnightblue" points="1041.97,-125.02 1052.45,-123.48 1043.3,-118.15 1041.97,-125.02"/>
</g>
<!-- Node8 -->
<g id="node8" class="node">
<title>Node8</title>
<g id="a_node8"><a xlink:href="string__builder_8c.html" target="_top" xlink:title=" ">
<polygon fill="none" stroke="black" points="873,-62 873,-81 1014,-81 1014,-62 873,-62"/>
<text text-anchor="middle" x="943.5" y="-69" font-family="Helvetica,sans-Serif" font-size="10.00">src/lexing/string_builder.c</text>
</a>
</g>
</g>
<!-- Node1&#45;&gt;Node8 -->
<g id="edge7" class="edge">
<title>Node1&#45;&gt;Node8</title>
<path fill="none" stroke="midnightblue" d="M1065.08,-119.78C1035.35,-108.22 991.49,-91.16 965.38,-81.01"/>
<polygon fill="midnightblue" stroke="midnightblue" points="1063.99,-123.11 1074.58,-123.48 1066.53,-116.59 1063.99,-123.11"/>
</g>
<!-- Node9 -->
<g id="node9" class="node">
<title>Node9</title>
<g id="a_node9"><a xlink:href="token__utils_8c.html" target="_top" xlink:title=" ">
<polygon fill="none" stroke="black" points="1032.5,-62 1032.5,-81 1160.5,-81 1160.5,-62 1032.5,-62"/>
<text text-anchor="middle" x="1096.5" y="-69" font-family="Helvetica,sans-Serif" font-size="10.00">src/lexing/token_utils.c</text>
</a>
</g>
</g>
<!-- Node1&#45;&gt;Node9 -->
<g id="edge8" class="edge">
<title>Node1&#45;&gt;Node9</title>
<path fill="none" stroke="midnightblue" d="M1096.5,-113.32C1096.5,-102.5 1096.5,-89.4 1096.5,-81.01"/>
<polygon fill="midnightblue" stroke="midnightblue" points="1093,-113.48 1096.5,-123.48 1100,-113.48 1093,-113.48"/>
</g>
<!-- Node10 -->
<g id="node10" class="node">
<title>Node10</title>
<g id="a_node10"><a xlink:href="main_8c.html" target="_top" xlink:title=" ">
<polygon fill="none" stroke="black" points="1475,-0.5 1475,-19.5 1542,-19.5 1542,-0.5 1475,-0.5"/>
<text text-anchor="middle" x="1508.5" y="-7.5" font-family="Helvetica,sans-Serif" font-size="10.00">src/main.c</text>
</a>
</g>
</g>
<!-- Node1&#45;&gt;Node10 -->
<g id="edge9" class="edge">
<title>Node1&#45;&gt;Node10</title>
<path fill="none" stroke="midnightblue" d="M1120.49,-118.19C1134.96,-109.63 1153.61,-98.16 1169.5,-87 1187.62,-74.28 1188.2,-64.83 1208.5,-56 1298.81,-16.72 1417.26,-10.81 1474.55,-10.48"/>
<polygon fill="midnightblue" stroke="midnightblue" points="1118.51,-115.3 1111.65,-123.37 1122.05,-121.33 1118.51,-115.3"/>
</g>
<!-- Node11 -->
<g id="node11" class="node">
<title>Node11</title>
<g id="a_node11"><a xlink:href="argv__builder_8c.html" target="_top" xlink:title=" ">
<polygon fill="none" stroke="black" points="1217,-62 1217,-81 1358,-81 1358,-62 1217,-62"/>
<text text-anchor="middle" x="1287.5" y="-69" font-family="Helvetica,sans-Serif" font-size="10.00">src/parsing/argv_builder.c</text>
</a>
</g>
</g>
<!-- Node1&#45;&gt;Node11 -->
<g id="edge10" class="edge">
<title>Node1&#45;&gt;Node11</title>
<path fill="none" stroke="midnightblue" d="M1133.8,-120.38C1170.93,-108.82 1227.02,-91.34 1260.19,-81.01"/>
<polygon fill="midnightblue" stroke="midnightblue" points="1132.37,-117.16 1123.87,-123.48 1134.45,-123.84 1132.37,-117.16"/>
</g>
<!-- Node12 -->
<g id="node12" class="node">
<title>Node12</title>
<g id="a_node12"><a xlink:href="parser_8c.html" target="_top" xlink:title=" ">
<polygon fill="none" stroke="black" points="1376,-62 1376,-81 1487,-81 1487,-62 1376,-62"/>
<text text-anchor="middle" x="1431.5" y="-69" font-family="Helvetica,sans-Serif" font-size="10.00">src/parsing/parser.c</text>
</a>
</g>
</g>
<!-- Node1&#45;&gt;Node12 -->
<g id="edge11" class="edge">
<title>Node1&#45;&gt;Node12</title>
<path fill="none" stroke="midnightblue" d="M1159.08,-122.67C1214.12,-114.21 1296.34,-100.96 1367.5,-87 1376.56,-85.22 1386.29,-83.12 1395.36,-81.07"/>
<polygon fill="midnightblue" stroke="midnightblue" points="1158.48,-119.22 1149.12,-124.19 1159.54,-126.14 1158.48,-119.22"/>
</g>
<!-- Node13 -->
<g id="node13" class="node">
<title>Node13</title>
<g id="a_node13"><a xlink:href="parser__utils_8c.html" target="_top" xlink:title=" ">
<polygon fill="none" stroke="black" points="1505.5,-56.5 1505.5,-86.5 1609.5,-86.5 1609.5,-56.5 1505.5,-56.5"/>
<text text-anchor="start" x="1513.5" y="-74.5" font-family="Helvetica,sans-Serif" font-size="10.00">src/parsing/parser</text>
<text text-anchor="middle" x="1557.5" y="-63.5" font-family="Helvetica,sans-Serif" font-size="10.00">_utils.c</text>
</a>
</g>
</g>
<!-- Node1&#45;&gt;Node13 -->
<g id="edge12" class="edge">
<title>Node1&#45;&gt;Node13</title>
<path fill="none" stroke="midnightblue" d="M1159.48,-127.29C1238.57,-120.84 1378.24,-107.63 1496.5,-87 1499.4,-86.49 1502.36,-85.94 1505.34,-85.34"/>
<polygon fill="midnightblue" stroke="midnightblue" points="1158.89,-123.83 1149.21,-128.12 1159.45,-130.81 1158.89,-123.83"/>
</g>
<!-- Node14 -->
<g id="node14" class="node">
<title>Node14</title>
<g id="a_node14"><a xlink:href="parsing__error_8c.html" target="_top" xlink:title=" ">
<polygon fill="none" stroke="black" points="1628,-56.5 1628,-86.5 1737,-86.5 1737,-56.5 1628,-56.5"/>
<text text-anchor="start" x="1636" y="-74.5" font-family="Helvetica,sans-Serif" font-size="10.00">src/parsing/parsing</text>
<text text-anchor="middle" x="1682.5" y="-63.5" font-family="Helvetica,sans-Serif" font-size="10.00">_error.c</text>
</a>
</g>
</g>
<!-- Node1&#45;&gt;Node14 -->
<g id="edge13" class="edge">
<title>Node1&#45;&gt;Node14</title>
<path fill="none" stroke="midnightblue" d="M1159.08,-129.37C1257.39,-124.63 1453.78,-112.64 1618.5,-87 1621.54,-86.53 1624.65,-85.99 1627.78,-85.41"/>
<polygon fill="midnightblue" stroke="midnightblue" points="1158.84,-125.88 1149.02,-129.85 1159.17,-132.87 1158.84,-125.88"/>
</g>
<!-- Node15 -->
<g id="node15" class="node">
<title>Node15</title>
<g id="a_node15"><a xlink:href="parsing__helpers_8h.html" target="_top" xlink:title=" ">
<polygon fill="none" stroke="black" points="1755.5,-62 1755.5,-81 1901.5,-81 1901.5,-62 1755.5,-62"/>
<text text-anchor="middle" x="1828.5" y="-69" font-family="Helvetica,sans-Serif" font-size="10.00">includes/parsing_helpers.h</text>
</a>
</g>
</g>
<!-- Node1&#45;&gt;Node15 -->
<g id="edge14" class="edge">
<title>Node1&#45;&gt;Node15</title>
<path fill="none" stroke="midnightblue" d="M1159.47,-129.65C1274.62,-125.04 1526.34,-112.91 1737.5,-87 1750.13,-85.45 1763.76,-83.25 1776.59,-81.04"/>
<polygon fill="midnightblue" stroke="midnightblue" points="1159.28,-126.15 1149.42,-130.05 1159.55,-133.15 1159.28,-126.15"/>
</g>
<!-- Node15&#45;&gt;Node1 -->
<g id="edge16" class="edge">
<title>Node15&#45;&gt;Node1</title>
<path fill="none" stroke="midnightblue" d="M1783.94,-82.79C1774.59,-84.38 1764.77,-85.86 1755.5,-87 1531.23,-114.51 1261.21,-126.49 1149.1,-130.42"/>
<polygon fill="midnightblue" stroke="midnightblue" points="1784.62,-86.22 1793.86,-81.04 1783.4,-79.33 1784.62,-86.22"/>
</g>
<!-- Node15&#45;&gt;Node10 -->
<g id="edge15" class="edge">
<title>Node15&#45;&gt;Node10</title>
<path fill="none" stroke="midnightblue" d="M1772.74,-60.13C1706.13,-47.75 1596.84,-27.43 1542.04,-17.24"/>
<polygon fill="midnightblue" stroke="midnightblue" points="1772.18,-63.59 1782.65,-61.98 1773.46,-56.71 1772.18,-63.59"/>
</g>
</g>
</svg>
