<?xml version="1.0" encoding="UTF-8" standalone="no"?>
<!DOCTYPE svg PUBLIC "-//W3C//DTD SVG 1.1//EN"
 "http://www.w3.org/Graphics/SVG/1.1/DTD/svg11.dtd">
<!-- Generated by graphviz version 2.43.0 (0)
 -->
<!-- Title: cur_next Pages: 1 -->
<svg width="550pt" height="81pt"
 viewBox="0.00 0.00 550.00 80.75" xmlns="http://www.w3.org/2000/svg" xmlns:xlink="http://www.w3.org/1999/xlink">
<g id="graph0" class="graph" transform="scale(1 1) rotate(0) translate(4 76.75)">
<title>cur_next</title>
<!-- Node1 -->
<g id="node1" class="node">
<title>Node1</title>
<g id="a_node1"><a xlink:title=" ">
<polygon fill="#bfbfbf" stroke="black" points="483,-38.5 483,-57.5 542,-57.5 542,-38.5 483,-38.5"/>
<text text-anchor="middle" x="512.5" y="-45.5" font-family="Helvetica,sans-Serif" font-size="10.00">cur_next</text>
</a>
</g>
</g>
<!-- Node2 -->
<g id="node2" class="node">
<title>Node2</title>
<g id="a_node2"><a xlink:href="parser_8c.html#ad8a725eb1fe38bc14d96924df6878b56" target="_top" xlink:title=" ">
<polygon fill="none" stroke="black" points="270,-38.5 270,-57.5 340,-57.5 340,-38.5 270,-38.5"/>
<text text-anchor="middle" x="305" y="-45.5" font-family="Helvetica,sans-Serif" font-size="10.00">parse_cmd</text>
</a>
</g>
</g>
<!-- Node1&#45;&gt;Node2 -->
<g id="edge1" class="edge">
<title>Node1&#45;&gt;Node2</title>
<path fill="none" stroke="midnightblue" d="M472.7,-48C434.48,-48 376.66,-48 340.14,-48"/>
<polygon fill="midnightblue" stroke="midnightblue" points="472.93,-51.5 482.93,-48 472.93,-44.5 472.93,-51.5"/>
</g>
<!-- Node3 -->
<g id="node3" class="node">
<title>Node3</title>
<g id="a_node3"><a xlink:href="parser_8c.html#a7e8d15749e17fe4ed49f75c3c6998719" target="_top" xlink:title=" ">
<polygon fill="none" stroke="black" points="160,-38.5 160,-57.5 234,-57.5 234,-38.5 160,-38.5"/>
<text text-anchor="middle" x="197" y="-45.5" font-family="Helvetica,sans-Serif" font-size="10.00">parser_loop</text>
</a>
</g>
</g>
<!-- Node1&#45;&gt;Node3 -->
<g id="edge8" class="edge">
<title>Node1&#45;&gt;Node3</title>
<path fill="none" stroke="midnightblue" d="M472.78,-57.5C464.33,-59.27 455.4,-60.9 447,-62 368.97,-72.22 348.04,-77.12 270,-67 255.64,-65.14 240.06,-61.27 227.09,-57.5"/>
<polygon fill="midnightblue" stroke="midnightblue" points="473.76,-60.87 482.78,-55.31 472.27,-54.03 473.76,-60.87"/>
</g>
<!-- Node6 -->
<g id="node6" class="node">
<title>Node6</title>
<g id="a_node6"><a xlink:href="parser_8c.html#a3fb162f9c645f99a8764a678b4768f38" target="_top" xlink:title=" ">
<polygon fill="none" stroke="black" points="376,-0.5 376,-19.5 447,-19.5 447,-0.5 376,-0.5"/>
<text text-anchor="middle" x="411.5" y="-7.5" font-family="Helvetica,sans-Serif" font-size="10.00">parse_redir</text>
</a>
</g>
</g>
<!-- Node1&#45;&gt;Node6 -->
<g id="edge5" class="edge">
<title>Node1&#45;&gt;Node6</title>
<path fill="none" stroke="midnightblue" d="M476.94,-34.74C463.95,-29.75 449.43,-24.18 437.47,-19.59"/>
<polygon fill="midnightblue" stroke="midnightblue" points="475.93,-38.1 486.52,-38.41 478.44,-31.56 475.93,-38.1"/>
</g>
<!-- Node2&#45;&gt;Node3 -->
<g id="edge2" class="edge">
<title>Node2&#45;&gt;Node3</title>
<path fill="none" stroke="midnightblue" d="M259.74,-48C251.25,-48 242.45,-48 234.25,-48"/>
<polygon fill="midnightblue" stroke="midnightblue" points="259.88,-51.5 269.88,-48 259.88,-44.5 259.88,-51.5"/>
</g>
<!-- Node4 -->
<g id="node4" class="node">
<title>Node4</title>
<g id="a_node4"><a xlink:href="parser_8c.html#ae22079ec4dbb24c0eb15425a8dd785bd" target="_top" xlink:title=" ">
<polygon fill="none" stroke="black" points="77,-38.5 77,-57.5 124,-57.5 124,-38.5 77,-38.5"/>
<text text-anchor="middle" x="100.5" y="-45.5" font-family="Helvetica,sans-Serif" font-size="10.00">parser</text>
</a>
</g>
</g>
<!-- Node3&#45;&gt;Node4 -->
<g id="edge3" class="edge">
<title>Node3&#45;&gt;Node4</title>
<path fill="none" stroke="midnightblue" d="M149.47,-48C140.65,-48 131.8,-48 124.14,-48"/>
<polygon fill="midnightblue" stroke="midnightblue" points="149.73,-51.5 159.73,-48 149.73,-44.5 149.73,-51.5"/>
</g>
<!-- Node5 -->
<g id="node5" class="node">
<title>Node5</title>
<g id="a_node5"><a xlink:href="main_8c.html#a647f21a28344e1d9c643f4115516d7c9" target="_top" xlink:title=" ">
<polygon fill="none" stroke="black" points="0,-38.5 0,-57.5 41,-57.5 41,-38.5 0,-38.5"/>
<text text-anchor="middle" x="20.5" y="-45.5" font-family="Helvetica,sans-Serif" font-size="10.00">main</text>
</a>
</g>
</g>
<!-- Node4&#45;&gt;Node5 -->
<g id="edge4" class="edge">
<title>Node4&#45;&gt;Node5</title>
<path fill="none" stroke="midnightblue" d="M66.66,-48C57.96,-48 48.84,-48 41.1,-48"/>
<polygon fill="midnightblue" stroke="midnightblue" points="66.94,-51.5 76.94,-48 66.94,-44.5 66.94,-51.5"/>
</g>
<!-- Node6&#45;&gt;Node2 -->
<g id="edge6" class="edge">
<title>Node6&#45;&gt;Node2</title>
<path fill="none" stroke="midnightblue" d="M374.43,-23.12C360.6,-28.14 345.11,-33.78 332.36,-38.41"/>
<polygon fill="midnightblue" stroke="midnightblue" points="375.93,-26.3 384.13,-19.59 373.54,-19.72 375.93,-26.3"/>
</g>
<!-- Node6&#45;&gt;Node3 -->
<g id="edge7" class="edge">
<title>Node6&#45;&gt;Node3</title>
<path fill="none" stroke="midnightblue" d="M365.77,-14.62C338.05,-17.84 301.79,-22.68 270,-29 257.07,-31.57 243.01,-35.11 230.78,-38.44"/>
<polygon fill="midnightblue" stroke="midnightblue" points="366.4,-18.07 375.95,-13.47 365.62,-11.11 366.4,-18.07"/>
</g>
</g>
</svg>
