<?xml version="1.0" encoding="UTF-8" standalone="no"?>
<!DOCTYPE svg PUBLIC "-//W3C//DTD SVG 1.1//EN"
 "http://www.w3.org/Graphics/SVG/1.1/DTD/svg11.dtd">
<!-- Generated by graphviz version 2.43.0 (0)
 -->
<!-- Title: cur_next Pages: 1 -->
<svg width="440pt" height="82pt"
 viewBox="0.00 0.00 440.00 81.75" xmlns="http://www.w3.org/2000/svg" xmlns:xlink="http://www.w3.org/1999/xlink">
<g id="graph0" class="graph" transform="scale(1 1) rotate(0) translate(4 77.75)">
<title>cur_next</title>
<!-- Node1 -->
<g id="node1" class="node">
<title>Node1</title>
<g id="a_node1"><a xlink:title=" ">
<polygon fill="#bfbfbf" stroke="black" points="373,-38.5 373,-57.5 432,-57.5 432,-38.5 373,-38.5"/>
<text text-anchor="middle" x="402.5" y="-45.5" font-family="Helvetica,sans-Serif" font-size="10.00">cur_next</text>
</a>
</g>
</g>
<!-- Node2 -->
<g id="node2" class="node">
<title>Node2</title>
<g id="a_node2"><a xlink:href="parser_8c.html#a53cd1de291e3e0bab0192a7880cd6449" target="_top" xlink:title=" ">
<polygon fill="none" stroke="black" points="160,-38.5 160,-57.5 230,-57.5 230,-38.5 160,-38.5"/>
<text text-anchor="middle" x="195" y="-45.5" font-family="Helvetica,sans-Serif" font-size="10.00">parse_cmd</text>
</a>
</g>
</g>
<!-- Node1&#45;&gt;Node2 -->
<g id="edge1" class="edge">
<title>Node1&#45;&gt;Node2</title>
<path fill="none" stroke="midnightblue" d="M362.7,-48C324.48,-48 266.66,-48 230.14,-48"/>
<polygon fill="midnightblue" stroke="midnightblue" points="362.93,-51.5 372.93,-48 362.93,-44.5 362.93,-51.5"/>
</g>
<!-- Node3 -->
<g id="node3" class="node">
<title>Node3</title>
<g id="a_node3"><a xlink:href="parser_8c.html#a302af903b3f87eaaff83762f60c2d8cb" target="_top" xlink:title=" ">
<polygon fill="none" stroke="black" points="77,-38.5 77,-57.5 124,-57.5 124,-38.5 77,-38.5"/>
<text text-anchor="middle" x="100.5" y="-45.5" font-family="Helvetica,sans-Serif" font-size="10.00">parser</text>
</a>
</g>
</g>
<!-- Node1&#45;&gt;Node3 -->
<g id="edge7" class="edge">
<title>Node1&#45;&gt;Node3</title>
<path fill="none" stroke="midnightblue" d="M362.78,-57.5C354.33,-59.27 345.4,-60.9 337,-62 258.97,-72.22 237.73,-79.31 160,-67 147.87,-65.08 134.83,-61.05 124.15,-57.19"/>
<polygon fill="midnightblue" stroke="midnightblue" points="363.76,-60.87 372.78,-55.31 362.27,-54.03 363.76,-60.87"/>
</g>
<!-- Node5 -->
<g id="node5" class="node">
<title>Node5</title>
<g id="a_node5"><a xlink:href="parser_8c.html#a196c06f986a99e4ad591e374a4bb6339" target="_top" xlink:title=" ">
<polygon fill="none" stroke="black" points="266,-0.5 266,-19.5 337,-19.5 337,-0.5 266,-0.5"/>
<text text-anchor="middle" x="301.5" y="-7.5" font-family="Helvetica,sans-Serif" font-size="10.00">parse_redir</text>
</a>
</g>
</g>
<!-- Node1&#45;&gt;Node5 -->
<g id="edge4" class="edge">
<title>Node1&#45;&gt;Node5</title>
<path fill="none" stroke="midnightblue" d="M366.94,-34.74C353.95,-29.75 339.43,-24.18 327.47,-19.59"/>
<polygon fill="midnightblue" stroke="midnightblue" points="365.93,-38.1 376.52,-38.41 368.44,-31.56 365.93,-38.1"/>
</g>
<!-- Node2&#45;&gt;Node3 -->
<g id="edge2" class="edge">
<title>Node2&#45;&gt;Node3</title>
<path fill="none" stroke="midnightblue" d="M149.55,-48C140.7,-48 131.76,-48 124.04,-48"/>
<polygon fill="midnightblue" stroke="midnightblue" points="149.82,-51.5 159.82,-48 149.82,-44.5 149.82,-51.5"/>
</g>
<!-- Node4 -->
<g id="node4" class="node">
<title>Node4</title>
<g id="a_node4"><a xlink:href="main_8c.html#a647f21a28344e1d9c643f4115516d7c9" target="_top" xlink:title=" ">
<polygon fill="none" stroke="black" points="0,-38.5 0,-57.5 41,-57.5 41,-38.5 0,-38.5"/>
<text text-anchor="middle" x="20.5" y="-45.5" font-family="Helvetica,sans-Serif" font-size="10.00">main</text>
</a>
</g>
</g>
<!-- Node3&#45;&gt;Node4 -->
<g id="edge3" class="edge">
<title>Node3&#45;&gt;Node4</title>
<path fill="none" stroke="midnightblue" d="M66.66,-48C57.96,-48 48.84,-48 41.1,-48"/>
<polygon fill="midnightblue" stroke="midnightblue" points="66.94,-51.5 76.94,-48 66.94,-44.5 66.94,-51.5"/>
</g>
<!-- Node5&#45;&gt;Node2 -->
<g id="edge5" class="edge">
<title>Node5&#45;&gt;Node2</title>
<path fill="none" stroke="midnightblue" d="M264.43,-23.12C250.6,-28.14 235.11,-33.78 222.36,-38.41"/>
<polygon fill="midnightblue" stroke="midnightblue" points="265.93,-26.3 274.13,-19.59 263.54,-19.72 265.93,-26.3"/>
</g>
<!-- Node5&#45;&gt;Node3 -->
<g id="edge6" class="edge">
<title>Node5&#45;&gt;Node3</title>
<path fill="none" stroke="midnightblue" d="M255.63,-13.99C227.86,-16.97 191.6,-21.79 160,-29 147.92,-31.75 134.78,-35.91 124.02,-39.64"/>
<polygon fill="midnightblue" stroke="midnightblue" points="256.25,-17.45 265.83,-12.94 255.53,-10.48 256.25,-17.45"/>
</g>
</g>
</svg>
