<?xml version="1.0" encoding="UTF-8" standalone="no"?>
<!DOCTYPE svg PUBLIC "-//W3C//DTD SVG 1.1//EN"
 "http://www.w3.org/Graphics/SVG/1.1/DTD/svg11.dtd">
<!-- Generated by graphviz version 2.43.0 (0)
 -->
<!-- Title: parser Pages: 1 -->
<!--zoomable 408 -->
<svg id="main" version="1.1" xmlns="http://www.w3.org/2000/svg" xmlns:xlink="http://www.w3.org/1999/xlink" xml:space="preserve" onload="init(evt)">
<style type="text/css"><![CDATA[
.edge:hover path { stroke: red; }
.edge:hover polygon { stroke: red; fill: red; }
]]></style>
<script type="text/javascript"><![CDATA[
var edges = document.getElementsByTagName('g');
if (edges && edges.length) {
  for (var i=0;i<edges.length;i++) {
    if (edges[i].id.substr(0,4)=='edge') {
      edges[i].setAttribute('class','edge');
    }
  }
}
]]></script>
        <defs>
                <circle id="rim" cx="0" cy="0" r="7"/>
                <circle id="rim2" cx="0" cy="0" r="3.5"/>
                <g id="zoomPlus">
                        <use xlink:href="#rim" fill="#404040">
                                <set attributeName="fill" to="#808080" begin="zoomplus.mouseover" end="zoomplus.mouseout"/>
                        </use>
                        <path d="M-4,0h8M0,-4v8" fill="none" stroke="white" stroke-width="1.5" pointer-events="none"/>
                </g>
                <g id="zoomMin">
                        <use xlink:href="#rim" fill="#404040">
                                <set attributeName="fill" to="#808080" begin="zoomminus.mouseover" end="zoomminus.mouseout"/>
                        </use>
                        <path d="M-4,0h8" fill="none" stroke="white" stroke-width="1.5" pointer-events="none"/>
                </g>
                <g id="dirArrow">
                        <path fill="none" stroke="white" stroke-width="1.5" d="M0,-3.0v7 M-2.5,-0.5L0,-3.0L2.5,-0.5"/>
                </g>
               <g id="resetDef">
                       <use xlink:href="#rim2" fill="#404040">
                               <set attributeName="fill" to="#808080" begin="reset.mouseover" end="reset.mouseout"/>
                       </use>
               </g>
        </defs>

<script type="text/javascript">
var viewWidth = 802;
var viewHeight = 408;
var sectionId = 'dynsection-7';
</script>
<script xlink:href="svgpan.js"/>
<svg id="graph" class="graph">
<g id="viewport">
<title>parser</title>
<!-- Node1 -->
<g id="node1" class="node">
<title>Node1</title>
<g id="a_node1"><a xlink:title=" ">
<polygon fill="#bfbfbf" stroke="black" points="0,-114.5 0,-133.5 47,-133.5 47,-114.5 0,-114.5"/>
<text text-anchor="middle" x="23.5" y="-121.5" font-family="Helvetica,sans-Serif" font-size="10.00">parser</text>
</a>
</g>
</g>
<!-- Node2 -->
<g id="node2" class="node">
<title>Node2</title>
<g id="a_node2"><a xlink:href="lst__cmd_8c.html#a8dd9c58ef8144c1956483eb089e5080f" target="_top" xlink:title=" ">
<polygon fill="none" stroke="black" points="83,-380.5 83,-399.5 186,-399.5 186,-380.5 83,-380.5"/>
<text text-anchor="middle" x="134.5" y="-387.5" font-family="Helvetica,sans-Serif" font-size="10.00">create_node_cmd</text>
</a>
</g>
</g>
<!-- Node1&#45;&gt;Node2 -->
<g id="edge1" class="edge">
<title>Node1&#45;&gt;Node2</title>
<path fill="none" stroke="midnightblue" d="M24.06,-133.58C22.94,-168.8 23.59,-292.86 83,-366 85.9,-369.57 89.46,-372.64 93.33,-375.28"/>
<polygon fill="midnightblue" stroke="midnightblue" points="91.77,-378.42 102.18,-380.37 95.26,-372.35 91.77,-378.42"/>
</g>
<!-- Node3 -->
<g id="node3" class="node">
<title>Node3</title>
<g id="a_node3"><a xlink:href="parser_8c.html#a2e2699d47ad80d706e124c654b57b375" target="_top" xlink:title=" ">
<polygon fill="none" stroke="black" points="387.5,-304.5 387.5,-323.5 446.5,-323.5 446.5,-304.5 387.5,-304.5"/>
<text text-anchor="middle" x="417" y="-311.5" font-family="Helvetica,sans-Serif" font-size="10.00">cur_next</text>
</a>
</g>
</g>
<!-- Node1&#45;&gt;Node3 -->
<g id="edge2" class="edge">
<title>Node1&#45;&gt;Node3</title>
<path fill="none" stroke="midnightblue" d="M30,-133.76C50.1,-168.23 123.58,-284.16 222,-321 273.1,-340.13 337.16,-332.26 377.35,-323.89"/>
<polygon fill="midnightblue" stroke="midnightblue" points="378.26,-327.28 387.28,-321.72 376.76,-320.44 378.26,-327.28"/>
</g>
<!-- Node4 -->
<g id="node4" class="node">
<title>Node4</title>
<g id="a_node4"><a xlink:href="token__utils_8c.html#ab3d9f0b7ddaf8661f8a3b3243d33bce7" target="_top" xlink:title="Free t_token entire linked list.">
<polygon fill="none" stroke="black" points="380,-38.5 380,-57.5 454,-57.5 454,-38.5 380,-38.5"/>
<text text-anchor="middle" x="417" y="-45.5" font-family="Helvetica,sans-Serif" font-size="10.00">free_tokens</text>
</a>
</g>
</g>
<!-- Node1&#45;&gt;Node4 -->
<g id="edge3" class="edge">
<title>Node1&#45;&gt;Node4</title>
<path fill="none" stroke="midnightblue" d="M41.7,-114.41C53.12,-108.39 68.6,-100.87 83,-96 181.61,-62.66 304.31,-52.48 369.77,-49.37"/>
<polygon fill="midnightblue" stroke="midnightblue" points="369.93,-52.86 379.77,-48.93 369.62,-45.87 369.93,-52.86"/>
</g>
<!-- Node5 -->
<g id="node5" class="node">
<title>Node5</title>
<g id="a_node5"><a xlink:href="parser_8c.html#a504166f8c7680aafbdfdb58ab412d498" target="_top" xlink:title=" ">
<polygon fill="none" stroke="black" points="233,-76.5 233,-95.5 318,-95.5 318,-76.5 233,-76.5"/>
<text text-anchor="middle" x="275.5" y="-83.5" font-family="Helvetica,sans-Serif" font-size="10.00">is_token_redir</text>
</a>
</g>
</g>
<!-- Node1&#45;&gt;Node5 -->
<g id="edge4" class="edge">
<title>Node1&#45;&gt;Node5</title>
<path fill="none" stroke="midnightblue" d="M47.13,-120.56C86.53,-114.57 168.71,-102.08 222.72,-93.87"/>
<polygon fill="midnightblue" stroke="midnightblue" points="223.43,-97.3 232.79,-92.34 222.38,-90.38 223.43,-97.3"/>
</g>
<!-- Node6 -->
<g id="node6" class="node">
<title>Node6</title>
<g id="a_node6"><a xlink:href="parser_8c.html#a53cd1de291e3e0bab0192a7880cd6449" target="_top" xlink:title=" ">
<polygon fill="none" stroke="black" points="99.5,-171.5 99.5,-190.5 169.5,-190.5 169.5,-171.5 99.5,-171.5"/>
<text text-anchor="middle" x="134.5" y="-178.5" font-family="Helvetica,sans-Serif" font-size="10.00">parse_cmd</text>
</a>
</g>
</g>
<!-- Node1&#45;&gt;Node6 -->
<g id="edge5" class="edge">
<title>Node1&#45;&gt;Node6</title>
<path fill="none" stroke="midnightblue" d="M42.99,-133.67C60.32,-142.73 86.44,-156.39 106.17,-166.71"/>
<polygon fill="midnightblue" stroke="midnightblue" points="104.8,-169.94 115.28,-171.47 108.04,-163.74 104.8,-169.94"/>
</g>
<!-- Node11 -->
<g id="node11" class="node">
<title>Node11</title>
<g id="a_node11"><a xlink:href="parser_8c.html#a196c06f986a99e4ad591e374a4bb6339" target="_top" xlink:title=" ">
<polygon fill="none" stroke="black" points="240,-114.5 240,-133.5 311,-133.5 311,-114.5 240,-114.5"/>
<text text-anchor="middle" x="275.5" y="-121.5" font-family="Helvetica,sans-Serif" font-size="10.00">parse_redir</text>
</a>
</g>
</g>
<!-- Node1&#45;&gt;Node11 -->
<g id="edge15" class="edge">
<title>Node1&#45;&gt;Node11</title>
<path fill="none" stroke="midnightblue" d="M47.13,-124C88.26,-124 175.97,-124 229.63,-124"/>
<polygon fill="midnightblue" stroke="midnightblue" points="229.88,-127.5 239.88,-124 229.88,-120.5 229.88,-127.5"/>
</g>
<!-- Node13 -->
<g id="node13" class="node">
<title>Node13</title>
<g id="a_node13"><a xlink:href="error_8c.html#a8f5f1cfa591c395b88733e1134d8de3d" target="_top" xlink:title=" ">
<polygon fill="none" stroke="black" points="95.5,-0.5 95.5,-19.5 173.5,-19.5 173.5,-0.5 95.5,-0.5"/>
<text text-anchor="middle" x="134.5" y="-7.5" font-family="Helvetica,sans-Serif" font-size="10.00">syntax_error</text>
</a>
</g>
</g>
<!-- Node1&#45;&gt;Node13 -->
<g id="edge16" class="edge">
<title>Node1&#45;&gt;Node13</title>
<path fill="none" stroke="midnightblue" d="M28.59,-114.36C36.63,-96.41 56.08,-57.57 83,-34 87.25,-30.28 92.17,-27.02 97.24,-24.19"/>
<polygon fill="midnightblue" stroke="midnightblue" points="99.06,-27.19 106.41,-19.57 95.91,-20.94 99.06,-27.19"/>
</g>
<!-- Node6&#45;&gt;Node3 -->
<g id="edge10" class="edge">
<title>Node6&#45;&gt;Node3</title>
<path fill="none" stroke="midnightblue" d="M139.58,-190.81C149.66,-213.69 178.19,-270.52 222,-295 270.24,-321.96 335.86,-322.26 377.07,-318.94"/>
<polygon fill="midnightblue" stroke="midnightblue" points="377.62,-322.4 387.25,-318 376.98,-315.43 377.62,-322.4"/>
</g>
<!-- Node6&#45;&gt;Node5 -->
<g id="edge11" class="edge">
<title>Node6&#45;&gt;Node5</title>
<path fill="none" stroke="midnightblue" d="M144.19,-171.31C158.83,-155.47 190,-123.93 222,-105 225.42,-102.98 229.1,-101.11 232.85,-99.41"/>
<polygon fill="midnightblue" stroke="midnightblue" points="234.36,-102.57 242.26,-95.51 231.68,-96.11 234.36,-102.57"/>
</g>
<!-- Node7 -->
<g id="node7" class="node">
<title>Node7</title>
<g id="a_node7"><a xlink:href="argv__builder_8c.html#a5f4104276b4a0d98dde31f75622668b4" target="_top" xlink:title=" ">
<polygon fill="none" stroke="black" points="234,-228.5 234,-247.5 317,-247.5 317,-228.5 234,-228.5"/>
<text text-anchor="middle" x="275.5" y="-235.5" font-family="Helvetica,sans-Serif" font-size="10.00">argv_buf_end</text>
</a>
</g>
</g>
<!-- Node6&#45;&gt;Node7 -->
<g id="edge6" class="edge">
<title>Node6&#45;&gt;Node7</title>
<path fill="none" stroke="midnightblue" d="M156.31,-190.61C173.73,-198.54 199.31,-209.92 222,-219 226.94,-220.97 232.17,-222.98 237.34,-224.9"/>
<polygon fill="midnightblue" stroke="midnightblue" points="236.53,-228.33 247.12,-228.48 238.93,-221.76 236.53,-228.33"/>
</g>
<!-- Node8 -->
<g id="node8" class="node">
<title>Node8</title>
<g id="a_node8"><a xlink:href="argv__builder_8c.html#a182f853e31c31af45e572979074a4d99" target="_top" xlink:title=" ">
<polygon fill="none" stroke="black" points="233.5,-190.5 233.5,-209.5 317.5,-209.5 317.5,-190.5 233.5,-190.5"/>
<text text-anchor="middle" x="275.5" y="-197.5" font-family="Helvetica,sans-Serif" font-size="10.00">argv_buf_free</text>
</a>
</g>
</g>
<!-- Node6&#45;&gt;Node8 -->
<g id="edge7" class="edge">
<title>Node6&#45;&gt;Node8</title>
<path fill="none" stroke="midnightblue" d="M169.5,-185.65C185.7,-187.86 205.42,-190.56 223.38,-193.01"/>
<polygon fill="midnightblue" stroke="midnightblue" points="223.04,-196.5 233.42,-194.38 223.98,-189.56 223.04,-196.5"/>
</g>
<!-- Node9 -->
<g id="node9" class="node">
<title>Node9</title>
<g id="a_node9"><a xlink:href="argv__builder_8c.html#aee97e8a2ae269ee4063d3ea917e93ffc" target="_top" xlink:title=" ">
<polygon fill="none" stroke="black" points="235.5,-152.5 235.5,-171.5 315.5,-171.5 315.5,-152.5 235.5,-152.5"/>
<text text-anchor="middle" x="275.5" y="-159.5" font-family="Helvetica,sans-Serif" font-size="10.00">argv_buf_init</text>
</a>
</g>
</g>
<!-- Node6&#45;&gt;Node9 -->
<g id="edge8" class="edge">
<title>Node6&#45;&gt;Node9</title>
<path fill="none" stroke="midnightblue" d="M169.5,-176.35C186.32,-174.05 206.93,-171.24 225.42,-168.71"/>
<polygon fill="midnightblue" stroke="midnightblue" points="226.01,-172.16 235.44,-167.34 225.06,-165.23 226.01,-172.16"/>
</g>
<!-- Node10 -->
<g id="node10" class="node">
<title>Node10</title>
<g id="a_node10"><a xlink:href="argv__builder_8c.html#a9f9516f7f412bb9019d1fe829f2395a3" target="_top" xlink:title=" ">
<polygon fill="none" stroke="black" points="231.5,-266.5 231.5,-285.5 319.5,-285.5 319.5,-266.5 231.5,-266.5"/>
<text text-anchor="middle" x="275.5" y="-273.5" font-family="Helvetica,sans-Serif" font-size="10.00">argv_buf_push</text>
</a>
</g>
</g>
<!-- Node6&#45;&gt;Node10 -->
<g id="edge9" class="edge">
<title>Node6&#45;&gt;Node10</title>
<path fill="none" stroke="midnightblue" d="M144.19,-190.69C158.83,-206.53 190,-238.07 222,-257 225.42,-259.02 229.1,-260.89 232.85,-262.59"/>
<polygon fill="midnightblue" stroke="midnightblue" points="231.68,-265.89 242.26,-266.49 234.36,-259.43 231.68,-265.89"/>
</g>
<!-- Node6&#45;&gt;Node11 -->
<g id="edge12" class="edge">
<title>Node6&#45;&gt;Node11</title>
<path fill="none" stroke="midnightblue" d="M156.31,-171.39C173.73,-163.46 199.31,-152.08 222,-143 226.94,-141.03 232.17,-139.02 237.34,-137.1"/>
<polygon fill="midnightblue" stroke="midnightblue" points="238.93,-140.24 247.12,-133.52 236.53,-133.67 238.93,-140.24"/>
</g>
<!-- Node11&#45;&gt;Node3 -->
<g id="edge14" class="edge">
<title>Node11&#45;&gt;Node3</title>
<path fill="none" stroke="midnightblue" d="M311.05,-132.29C317.51,-134.95 323.84,-138.44 329,-143 376.52,-184.99 401.48,-259.11 411.15,-294.34"/>
<polygon fill="midnightblue" stroke="midnightblue" points="407.85,-295.53 413.76,-304.32 414.62,-293.76 407.85,-295.53"/>
</g>
<!-- Node12 -->
<g id="node12" class="node">
<title>Node12</title>
<g id="a_node12"><a xlink:href="lst__redir_8c.html#acb0801286560639fb0d37901d566a3e5" target="_top" xlink:title=" ">
<polygon fill="none" stroke="black" points="365,-114.5 365,-133.5 469,-133.5 469,-114.5 365,-114.5"/>
<text text-anchor="middle" x="417" y="-121.5" font-family="Helvetica,sans-Serif" font-size="10.00">create_node_redir</text>
</a>
</g>
</g>
<!-- Node11&#45;&gt;Node12 -->
<g id="edge13" class="edge">
<title>Node11&#45;&gt;Node12</title>
<path fill="none" stroke="midnightblue" d="M311.34,-124C324.46,-124 339.79,-124 354.61,-124"/>
<polygon fill="midnightblue" stroke="midnightblue" points="354.75,-127.5 364.75,-124 354.75,-120.5 354.75,-127.5"/>
</g>
<!-- Node14 -->
<g id="node14" class="node">
<title>Node14</title>
<g id="a_node14"><a xlink:href="error_8c.html#a193034f887c71fdb2486835d8cbd9dd3" target="_top" xlink:title=" ">
<polygon fill="none" stroke="black" points="222,-0.5 222,-19.5 329,-19.5 329,-0.5 222,-0.5"/>
<text text-anchor="middle" x="275.5" y="-7.5" font-family="Helvetica,sans-Serif" font-size="10.00">parsing_destructor</text>
</a>
</g>
</g>
<!-- Node13&#45;&gt;Node14 -->
<g id="edge17" class="edge">
<title>Node13&#45;&gt;Node14</title>
<path fill="none" stroke="midnightblue" d="M173.85,-10C185.58,-10 198.8,-10 211.71,-10"/>
<polygon fill="midnightblue" stroke="midnightblue" points="211.97,-13.5 221.97,-10 211.97,-6.5 211.97,-13.5"/>
</g>
<!-- Node14&#45;&gt;Node4 -->
<g id="edge22" class="edge">
<title>Node14&#45;&gt;Node4</title>
<path fill="none" stroke="midnightblue" d="M311.7,-19.59C329.71,-24.49 351.83,-30.52 371.06,-35.76"/>
<polygon fill="midnightblue" stroke="midnightblue" points="370.24,-39.16 380.81,-38.41 372.08,-32.41 370.24,-39.16"/>
</g>
<!-- Node15 -->
<g id="node15" class="node">
<title>Node15</title>
<g id="a_node15"><a xlink:href="lst__cmd2_8c.html#a132395876bb5a7cfe926b9e37571a1e3" target="_top" xlink:title=" ">
<polygon fill="none" stroke="black" points="371,-0.5 371,-19.5 463,-19.5 463,-0.5 371,-0.5"/>
<text text-anchor="middle" x="417" y="-7.5" font-family="Helvetica,sans-Serif" font-size="10.00">destructor_cmd</text>
</a>
</g>
</g>
<!-- Node14&#45;&gt;Node15 -->
<g id="edge18" class="edge">
<title>Node14&#45;&gt;Node15</title>
<path fill="none" stroke="midnightblue" d="M329.24,-10C339.54,-10 350.37,-10 360.75,-10"/>
<polygon fill="midnightblue" stroke="midnightblue" points="360.94,-13.5 370.94,-10 360.94,-6.5 360.94,-13.5"/>
</g>
<!-- Node16 -->
<g id="node16" class="node">
<title>Node16</title>
<g id="a_node16"><a xlink:href="lst__cmd2_8c.html#a8e2b63759f149b547e0d07f210ede9b3" target="_top" xlink:title=" ">
<polygon fill="none" stroke="black" points="505,-0.5 505,-19.5 566,-19.5 566,-0.5 505,-0.5"/>
<text text-anchor="middle" x="535.5" y="-7.5" font-family="Helvetica,sans-Serif" font-size="10.00">pop_cmd</text>
</a>
</g>
</g>
<!-- Node15&#45;&gt;Node16 -->
<g id="edge19" class="edge">
<title>Node15&#45;&gt;Node16</title>
<path fill="none" stroke="midnightblue" d="M463.04,-10C473.4,-10 484.35,-10 494.48,-10"/>
<polygon fill="midnightblue" stroke="midnightblue" points="494.68,-13.5 504.68,-10 494.68,-6.5 494.68,-13.5"/>
</g>
<!-- Node17 -->
<g id="node17" class="node">
<title>Node17</title>
<g id="a_node17"><a xlink:href="lst__redir2_8c.html#a30ccaf401a4f897e48ead5fe54f4b307" target="_top" xlink:title=" ">
<polygon fill="none" stroke="black" points="602,-0.5 602,-19.5 696,-19.5 696,-0.5 602,-0.5"/>
<text text-anchor="middle" x="649" y="-7.5" font-family="Helvetica,sans-Serif" font-size="10.00">destructor_redir</text>
</a>
</g>
</g>
<!-- Node16&#45;&gt;Node17 -->
<g id="edge20" class="edge">
<title>Node16&#45;&gt;Node17</title>
<path fill="none" stroke="midnightblue" d="M566.09,-10C574.06,-10 582.95,-10 591.85,-10"/>
<polygon fill="midnightblue" stroke="midnightblue" points="591.86,-13.5 601.86,-10 591.86,-6.5 591.86,-13.5"/>
</g>
<!-- Node18 -->
<g id="node18" class="node">
<title>Node18</title>
<g id="a_node18"><a xlink:href="lst__redir2_8c.html#ade8f0bdda51d9bf348ebeb38fefba881" target="_top" xlink:title=" ">
<polygon fill="none" stroke="black" points="732,-0.5 732,-19.5 794,-19.5 794,-0.5 732,-0.5"/>
<text text-anchor="middle" x="763" y="-7.5" font-family="Helvetica,sans-Serif" font-size="10.00">pop_redir</text>
</a>
</g>
</g>
<!-- Node17&#45;&gt;Node18 -->
<g id="edge21" class="edge">
<title>Node17&#45;&gt;Node18</title>
<path fill="none" stroke="midnightblue" d="M696.2,-10C704.67,-10 713.46,-10 721.74,-10"/>
<polygon fill="midnightblue" stroke="midnightblue" points="721.9,-13.5 731.9,-10 721.9,-6.5 721.9,-13.5"/>
</g>
</g>
</svg>
        <g id="navigator" transform="translate(0 0)" fill="#404254">
                <rect fill="#f2f5e9" fill-opacity="0.5" stroke="#606060" stroke-width=".5" x="0" y="0" width="60" height="60"/>
                <use id="zoomplus" xlink:href="#zoomPlus" x="17" y="9" onmousedown="handleZoom(evt,'in')"/>
                <use id="zoomminus" xlink:href="#zoomMin" x="42" y="9" onmousedown="handleZoom(evt,'out')"/>
                <use id="reset" xlink:href="#resetDef" x="30" y="36" onmousedown="handleReset()"/>
                <g id="arrowUp" xlink:href="#dirArrow" transform="translate(30 24)" onmousedown="handlePan(0,-1)">
                  <use xlink:href="#rim" fill="#404040">
                        <set attributeName="fill" to="#808080" begin="arrowUp.mouseover" end="arrowUp.mouseout"/>
                  </use>
                  <path fill="none" stroke="white" stroke-width="1.5" d="M0,-3.0v7 M-2.5,-0.5L0,-3.0L2.5,-0.5"/>
                </g>
                <g id="arrowRight" xlink:href="#dirArrow" transform="rotate(90) translate(36 -43)" onmousedown="handlePan(1,0)">
                  <use xlink:href="#rim" fill="#404040">
                        <set attributeName="fill" to="#808080" begin="arrowRight.mouseover" end="arrowRight.mouseout"/>
                  </use>
                  <path fill="none" stroke="white" stroke-width="1.5" d="M0,-3.0v7 M-2.5,-0.5L0,-3.0L2.5,-0.5"/>
                </g>
                <g id="arrowDown" xlink:href="#dirArrow" transform="rotate(180) translate(-30 -48)" onmousedown="handlePan(0,1)">
                  <use xlink:href="#rim" fill="#404040">
                        <set attributeName="fill" to="#808080" begin="arrowDown.mouseover" end="arrowDown.mouseout"/>
                  </use>
                  <path fill="none" stroke="white" stroke-width="1.5" d="M0,-3.0v7 M-2.5,-0.5L0,-3.0L2.5,-0.5"/>
                </g>
                <g id="arrowLeft" xlink:href="#dirArrow" transform="rotate(270) translate(-36 17)" onmousedown="handlePan(-1,0)">
                  <use xlink:href="#rim" fill="#404040">
                        <set attributeName="fill" to="#808080" begin="arrowLeft.mouseover" end="arrowLeft.mouseout"/>
                  </use>
                  <path fill="none" stroke="white" stroke-width="1.5" d="M0,-3.0v7 M-2.5,-0.5L0,-3.0L2.5,-0.5"/>
                </g>
        </g>
        <svg viewBox="0 0 15 15" width="100%" height="30px" preserveAspectRatio="xMaxYMin meet">
         <g id="arrow_out" transform="scale(0.3 0.3)">
          <a xlink:href="parser_8c_a302af903b3f87eaaff83762f60c2d8cb_cgraph_org.svg" target="_base">
           <rect id="button" ry="5" rx="5" y="6" x="6" height="38" width="38"
                fill="#f2f5e9" fill-opacity="0.5" stroke="#606060" stroke-width="1.0"/>
           <path id="arrow"
             d="M 11.500037,31.436501 C 11.940474,20.09759 22.043105,11.32322 32.158766,21.979434 L 37.068811,17.246167 C 37.068811,17.246167 37.088388,32 37.088388,32 L 22.160133,31.978069 C 22.160133,31.978069 26.997745,27.140456 26.997745,27.140456 C 18.528582,18.264221 13.291696,25.230495 11.500037,31.436501 z"
             style="fill:#404040;"/>
          </a>
         </g>
        </svg>
</svg>
