<?xml version="1.0" encoding="UTF-8" standalone="no"?>
<!DOCTYPE svg PUBLIC "-//W3C//DTD SVG 1.1//EN"
 "http://www.w3.org/Graphics/SVG/1.1/DTD/svg11.dtd">
<!-- Generated by graphviz version 2.43.0 (0)
 -->
<!-- Title: handle_dollar Pages: 1 -->
<svg width="457pt" height="332pt"
 viewBox="0.00 0.00 457.00 332.00" xmlns="http://www.w3.org/2000/svg" xmlns:xlink="http://www.w3.org/1999/xlink">
<g id="graph0" class="graph" transform="scale(1 1) rotate(0) translate(4 328)">
<title>handle_dollar</title>
<!-- Node1 -->
<g id="node1" class="node">
<title>Node1</title>
<g id="a_node1"><a xlink:title="Manages all possibilities with expand : $?, known and unknown env variable.">
<polygon fill="#bfbfbf" stroke="black" points="0,-152.5 0,-171.5 83,-171.5 83,-152.5 0,-152.5"/>
<text text-anchor="middle" x="41.5" y="-159.5" font-family="Helvetica,sans-Serif" font-size="10.00">handle_dollar</text>
</a>
</g>
</g>
<!-- Node2 -->
<g id="node2" class="node">
<title>Node2</title>
<g id="a_node2"><a xlink:href="lexer__utils_8c.html#a6b132516dacc9599762b1fe7341a0f04" target="_top" xlink:title="Advance one byte in the struct t_lexer to keep track of progress.">
<polygon fill="none" stroke="black" points="268.5,-304.5 268.5,-323.5 326.5,-323.5 326.5,-304.5 268.5,-304.5"/>
<text text-anchor="middle" x="297.5" y="-311.5" font-family="Helvetica,sans-Serif" font-size="10.00">advance</text>
</a>
</g>
</g>
<!-- Node1&#45;&gt;Node2 -->
<g id="edge1" class="edge">
<title>Node1&#45;&gt;Node2</title>
<path fill="none" stroke="midnightblue" d="M44.85,-171.81C51.51,-197.17 73.03,-265.03 119,-295 160.65,-322.15 219.8,-322.74 258.16,-319.39"/>
<polygon fill="midnightblue" stroke="midnightblue" points="258.8,-322.84 268.4,-318.36 258.1,-315.88 258.8,-322.84"/>
</g>
<!-- Node3 -->
<g id="node3" class="node">
<title>Node3</title>
<g id="a_node3"><a xlink:href="expand__dollar_8c.html#a1cf0ce389e469994b9ddb06a944e531e" target="_top" xlink:title="Handle $? to expand on current error code.">
<polygon fill="none" stroke="black" points="126.5,-266.5 126.5,-285.5 215.5,-285.5 215.5,-266.5 126.5,-266.5"/>
<text text-anchor="middle" x="171" y="-273.5" font-family="Helvetica,sans-Serif" font-size="10.00">error_code_var</text>
</a>
</g>
</g>
<!-- Node1&#45;&gt;Node3 -->
<g id="edge2" class="edge">
<title>Node1&#45;&gt;Node3</title>
<path fill="none" stroke="midnightblue" d="M48.59,-171.58C60.33,-189.41 87.73,-228.08 119,-252 123.83,-255.69 129.32,-259.01 134.86,-261.91"/>
<polygon fill="midnightblue" stroke="midnightblue" points="133.62,-265.2 144.14,-266.4 136.66,-258.89 133.62,-265.2"/>
</g>
<!-- Node4 -->
<g id="node4" class="node">
<title>Node4</title>
<g id="a_node4"><a xlink:href="string__builder_8c.html#a54e602a5da87bd89687c69c2d86f34d2" target="_top" xlink:title="Put char in the struct t_str_buf so we can build a string in the struct. The point is to create the s...">
<polygon fill="none" stroke="black" points="372,-209.5 372,-228.5 449,-228.5 449,-209.5 372,-209.5"/>
<text text-anchor="middle" x="410.5" y="-216.5" font-family="Helvetica,sans-Serif" font-size="10.00">str_buf_putc</text>
</a>
</g>
</g>
<!-- Node1&#45;&gt;Node4 -->
<g id="edge13" class="edge">
<title>Node1&#45;&gt;Node4</title>
<path fill="none" stroke="midnightblue" d="M77.35,-171.54C90.35,-174.87 105.28,-178.41 119,-181 203.69,-197 303.55,-208.47 361.38,-214.39"/>
<polygon fill="midnightblue" stroke="midnightblue" points="361.38,-217.91 371.68,-215.44 362.08,-210.95 361.38,-217.91"/>
</g>
<!-- Node5 -->
<g id="node5" class="node">
<title>Node5</title>
<g id="a_node5"><a xlink:href="string__builder_8c.html#a4bb0bb42cbf7ca9f7feff204d3059306" target="_top" xlink:title="Put a null terminated string in the t_str_buf struct.">
<polygon fill="none" stroke="black" points="259,-228.5 259,-247.5 336,-247.5 336,-228.5 259,-228.5"/>
<text text-anchor="middle" x="297.5" y="-235.5" font-family="Helvetica,sans-Serif" font-size="10.00">str_buf_puts</text>
</a>
</g>
</g>
<!-- Node1&#45;&gt;Node5 -->
<g id="edge14" class="edge">
<title>Node1&#45;&gt;Node5</title>
<path fill="none" stroke="midnightblue" d="M52.99,-171.51C66.94,-183.58 92.91,-204.01 119,-214 160.89,-230.04 211.94,-235.63 248.51,-237.44"/>
<polygon fill="midnightblue" stroke="midnightblue" points="248.76,-240.96 258.9,-237.88 249.06,-233.96 248.76,-240.96"/>
</g>
<!-- Node6 -->
<g id="node6" class="node">
<title>Node6</title>
<g id="a_node6"><a xlink:href="expand_8c.html#a19e46ed1e16f9b3f3b1e8961163feedc" target="_top" xlink:title="Checks if a given char is a valid character for the key of an env variable.">
<polygon fill="none" stroke="black" points="123.5,-152.5 123.5,-171.5 218.5,-171.5 218.5,-152.5 123.5,-152.5"/>
<text text-anchor="middle" x="171" y="-159.5" font-family="Helvetica,sans-Serif" font-size="10.00">is_valid_for_key</text>
</a>
</g>
</g>
<!-- Node1&#45;&gt;Node6 -->
<g id="edge7" class="edge">
<title>Node1&#45;&gt;Node6</title>
<path fill="none" stroke="midnightblue" d="M83.19,-162C92.81,-162 103.24,-162 113.42,-162"/>
<polygon fill="midnightblue" stroke="midnightblue" points="113.48,-165.5 123.48,-162 113.48,-158.5 113.48,-165.5"/>
</g>
<!-- Node7 -->
<g id="node7" class="node">
<title>Node7</title>
<g id="a_node7"><a xlink:href="lexer__utils_8c.html#a855a36981b55d317a52d24560c0809bf" target="_top" xlink:title="&quot;Peek&quot;, Look at the next character in the input string">
<polygon fill="none" stroke="black" points="150.5,-114.5 150.5,-133.5 191.5,-133.5 191.5,-114.5 150.5,-114.5"/>
<text text-anchor="middle" x="171" y="-121.5" font-family="Helvetica,sans-Serif" font-size="10.00">peek</text>
</a>
</g>
</g>
<!-- Node1&#45;&gt;Node7 -->
<g id="edge8" class="edge">
<title>Node1&#45;&gt;Node7</title>
<path fill="none" stroke="midnightblue" d="M74.67,-152.41C94.9,-146.38 120.8,-138.66 140.5,-132.79"/>
<polygon fill="midnightblue" stroke="midnightblue" points="141.59,-136.12 150.17,-129.91 139.59,-129.41 141.59,-136.12"/>
</g>
<!-- Node8 -->
<g id="node8" class="node">
<title>Node8</title>
<g id="a_node8"><a xlink:href="lst__env__two_8c.html#a4d4a14327b2c3ff88099102b6bd77986" target="_top" xlink:title=" ">
<polygon fill="none" stroke="black" points="119,-76.5 119,-95.5 223,-95.5 223,-76.5 119,-76.5"/>
<text text-anchor="middle" x="171" y="-83.5" font-family="Helvetica,sans-Serif" font-size="10.00">research_key_env</text>
</a>
</g>
</g>
<!-- Node1&#45;&gt;Node8 -->
<g id="edge9" class="edge">
<title>Node1&#45;&gt;Node8</title>
<path fill="none" stroke="midnightblue" d="M53.23,-152.44C67.44,-140.16 93.69,-118.78 119,-105 122.69,-102.99 126.63,-101.11 130.63,-99.37"/>
<polygon fill="midnightblue" stroke="midnightblue" points="132.03,-102.58 139.97,-95.57 129.39,-96.09 132.03,-102.58"/>
</g>
<!-- Node9 -->
<g id="node9" class="node">
<title>Node9</title>
<g id="a_node9"><a xlink:href="string__builder_8c.html#a1bfdfae2d27c541b15b526d7d67b7577" target="_top" xlink:title="End and null terminate the string created in t_str_buf, reset the struct so it can be reused and retu...">
<polygon fill="none" stroke="black" points="260.5,-95.5 260.5,-114.5 334.5,-114.5 334.5,-95.5 260.5,-95.5"/>
<text text-anchor="middle" x="297.5" y="-102.5" font-family="Helvetica,sans-Serif" font-size="10.00">str_buf_end</text>
</a>
</g>
</g>
<!-- Node1&#45;&gt;Node9 -->
<g id="edge10" class="edge">
<title>Node1&#45;&gt;Node9</title>
<path fill="none" stroke="midnightblue" d="M46.68,-152.37C56.1,-132.03 81.18,-85.1 119,-67 160.69,-47.04 178.09,-56.08 223,-67 241.43,-71.48 260.41,-81.45 274.46,-90.06"/>
<polygon fill="midnightblue" stroke="midnightblue" points="272.61,-93.03 282.93,-95.44 276.37,-87.12 272.61,-93.03"/>
</g>
<!-- Node10 -->
<g id="node10" class="node">
<title>Node10</title>
<g id="a_node10"><a xlink:href="string__builder_8c.html#a2ff0766da574e4904598f3119c7d3749" target="_top" xlink:title=" ">
<polygon fill="none" stroke="black" points="135.5,-0.5 135.5,-19.5 206.5,-19.5 206.5,-0.5 135.5,-0.5"/>
<text text-anchor="middle" x="171" y="-7.5" font-family="Helvetica,sans-Serif" font-size="10.00">str_buf_init</text>
</a>
</g>
</g>
<!-- Node1&#45;&gt;Node10 -->
<g id="edge12" class="edge">
<title>Node1&#45;&gt;Node10</title>
<path fill="none" stroke="midnightblue" d="M45.97,-152.35C54.77,-129.09 80.05,-69.28 119,-34 123.13,-30.26 127.93,-27 132.92,-24.19"/>
<polygon fill="midnightblue" stroke="midnightblue" points="134.63,-27.25 141.98,-19.61 131.47,-21 134.63,-27.25"/>
</g>
<!-- Node3&#45;&gt;Node2 -->
<g id="edge3" class="edge">
<title>Node3&#45;&gt;Node2</title>
<path fill="none" stroke="midnightblue" d="M203.42,-285.59C220.16,-290.7 240.88,-297.02 258.52,-302.41"/>
<polygon fill="midnightblue" stroke="midnightblue" points="257.91,-305.88 268.49,-305.45 259.95,-299.18 257.91,-305.88"/>
</g>
<!-- Node3&#45;&gt;Node4 -->
<g id="edge4" class="edge">
<title>Node3&#45;&gt;Node4</title>
<path fill="none" stroke="midnightblue" d="M215.69,-275.21C249.24,-273.59 296.39,-269.09 336,-257 353.64,-251.62 372.07,-242.08 386.06,-233.9"/>
<polygon fill="midnightblue" stroke="midnightblue" points="388.22,-236.69 394.98,-228.53 384.61,-230.69 388.22,-236.69"/>
</g>
<!-- Node3&#45;&gt;Node5 -->
<g id="edge5" class="edge">
<title>Node3&#45;&gt;Node5</title>
<path fill="none" stroke="midnightblue" d="M203.42,-266.41C219.19,-261.6 238.51,-255.7 255.44,-250.53"/>
<polygon fill="midnightblue" stroke="midnightblue" points="256.55,-253.85 265.09,-247.59 254.51,-247.16 256.55,-253.85"/>
</g>
<!-- Node5&#45;&gt;Node4 -->
<g id="edge6" class="edge">
<title>Node5&#45;&gt;Node4</title>
<path fill="none" stroke="midnightblue" d="M336.08,-231.57C344.4,-230.14 353.32,-228.62 361.97,-227.14"/>
<polygon fill="midnightblue" stroke="midnightblue" points="362.69,-230.56 371.96,-225.43 361.51,-223.66 362.69,-230.56"/>
</g>
<!-- Node9&#45;&gt;Node4 -->
<g id="edge11" class="edge">
<title>Node9&#45;&gt;Node4</title>
<path fill="none" stroke="midnightblue" d="M307.96,-114.72C326.8,-134.07 369.22,-177.63 392.83,-201.88"/>
<polygon fill="midnightblue" stroke="midnightblue" points="390.58,-204.58 400.06,-209.31 395.59,-199.7 390.58,-204.58"/>
</g>
</g>
</svg>
