<?xml version="1.0" encoding="UTF-8" standalone="no"?>
<!DOCTYPE svg PUBLIC "-//W3C//DTD SVG 1.1//EN"
 "http://www.w3.org/Graphics/SVG/1.1/DTD/svg11.dtd">
<!-- Generated by graphviz version 2.43.0 (0)
 -->
<!-- Title: exit_expand_fatal Pages: 1 -->
<svg width="1094pt" height="148pt"
 viewBox="0.00 0.00 1094.00 148.21" xmlns="http://www.w3.org/2000/svg" xmlns:xlink="http://www.w3.org/1999/xlink">
<g id="graph0" class="graph" transform="scale(1 1) rotate(0) translate(4 144.21)">
<title>exit_expand_fatal</title>
<!-- Node1 -->
<g id="node1" class="node">
<title>Node1</title>
<g id="a_node1"><a xlink:title=" ">
<polygon fill="#bfbfbf" stroke="black" points="982,-28.5 982,-47.5 1086,-47.5 1086,-28.5 982,-28.5"/>
<text text-anchor="middle" x="1034" y="-35.5" font-family="Helvetica,sans-Serif" font-size="10.00">exit_expand_fatal</text>
</a>
</g>
</g>
<!-- Node2 -->
<g id="node2" class="node">
<title>Node2</title>
<g id="a_node2"><a xlink:href="expand__dollar_8c.html#af17c527615f14d68b20a8edf80264943" target="_top" xlink:title=" ">
<polygon fill="none" stroke="black" points="878,-85.5 878,-104.5 946,-104.5 946,-85.5 878,-85.5"/>
<text text-anchor="middle" x="912" y="-92.5" font-family="Helvetica,sans-Serif" font-size="10.00">exit_dollar</text>
</a>
</g>
</g>
<!-- Node1&#45;&gt;Node2 -->
<g id="edge1" class="edge">
<title>Node1&#45;&gt;Node2</title>
<path fill="none" stroke="midnightblue" d="M1003.74,-51.9C981.85,-62.3 952.47,-76.25 933.15,-85.43"/>
<polygon fill="midnightblue" stroke="midnightblue" points="1005.38,-54.99 1012.91,-47.54 1002.38,-48.67 1005.38,-54.99"/>
</g>
<!-- Node5 -->
<g id="node5" class="node">
<title>Node5</title>
<g id="a_node5"><a xlink:href="expand__word_8c.html#a051bcabe3f6edf5f6d234199cea49f48" target="_top" xlink:title=" ">
<polygon fill="none" stroke="black" points="332,-28.5 332,-47.5 440,-47.5 440,-28.5 332,-28.5"/>
<text text-anchor="middle" x="386" y="-35.5" font-family="Helvetica,sans-Serif" font-size="10.00">expand_word_loop</text>
</a>
</g>
</g>
<!-- Node1&#45;&gt;Node5 -->
<g id="edge12" class="edge">
<title>Node1&#45;&gt;Node5</title>
<path fill="none" stroke="midnightblue" d="M971.52,-38C919.97,-38 844.43,-38 778.5,-38 778.5,-38 778.5,-38 635,-38 567.83,-38 490.43,-38 440.22,-38"/>
<polygon fill="midnightblue" stroke="midnightblue" points="971.82,-41.5 981.82,-38 971.82,-34.5 971.82,-41.5"/>
</g>
<!-- Node6 -->
<g id="node6" class="node">
<title>Node6</title>
<g id="a_node6"><a xlink:href="expand__word_8c.html#a0ec378990f411456436a9bb6a71babfc" target="_top" xlink:title="Scans the word to dequote/expand and build correct output.">
<polygon fill="none" stroke="black" points="214,-9.5 214,-28.5 296,-28.5 296,-9.5 214,-9.5"/>
<text text-anchor="middle" x="255" y="-16.5" font-family="Helvetica,sans-Serif" font-size="10.00">expand_word</text>
</a>
</g>
</g>
<!-- Node1&#45;&gt;Node6 -->
<g id="edge11" class="edge">
<title>Node1&#45;&gt;Node6</title>
<path fill="none" stroke="midnightblue" d="M983.82,-26.24C932.8,-15.08 850.54,0 778.5,0 778.5,0 778.5,0 516.5,0 438.28,0 347.19,-8.63 296.1,-14.25"/>
<polygon fill="midnightblue" stroke="midnightblue" points="983.08,-29.66 993.6,-28.41 984.6,-22.82 983.08,-29.66"/>
</g>
<!-- Node3 -->
<g id="node3" class="node">
<title>Node3</title>
<g id="a_node3"><a xlink:href="expand__dollar_8c.html#a6d96e914be2d2db42405f61048e85370" target="_top" xlink:title=" ">
<polygon fill="none" stroke="black" points="595,-104.5 595,-123.5 677,-123.5 677,-104.5 595,-104.5"/>
<text text-anchor="middle" x="636" y="-111.5" font-family="Helvetica,sans-Serif" font-size="10.00">expand_valid</text>
</a>
</g>
</g>
<!-- Node2&#45;&gt;Node3 -->
<g id="edge2" class="edge">
<title>Node2&#45;&gt;Node3</title>
<path fill="none" stroke="midnightblue" d="M889.82,-110.34C876.74,-118.84 859.22,-128.57 842,-133 782.11,-148.4 709.55,-134.31 668.79,-123.55"/>
<polygon fill="midnightblue" stroke="midnightblue" points="891.79,-113.23 898.11,-104.72 887.87,-107.43 891.79,-113.23"/>
</g>
<!-- Node4 -->
<g id="node4" class="node">
<title>Node4</title>
<g id="a_node4"><a xlink:href="expand__dollar_8c.html#ac3e15865744ed2c1300a5cb96f24e33d" target="_top" xlink:title="Manages all possibilities with expand : $?, known and unknown env variable.">
<polygon fill="none" stroke="black" points="476,-66.5 476,-85.5 559,-85.5 559,-66.5 476,-66.5"/>
<text text-anchor="middle" x="517.5" y="-73.5" font-family="Helvetica,sans-Serif" font-size="10.00">handle_dollar</text>
</a>
</g>
</g>
<!-- Node2&#45;&gt;Node4 -->
<g id="edge10" class="edge">
<title>Node2&#45;&gt;Node4</title>
<path fill="none" stroke="midnightblue" d="M867.65,-92.9C791.25,-89.2 633.69,-81.58 559.21,-77.97"/>
<polygon fill="midnightblue" stroke="midnightblue" points="867.72,-96.41 877.87,-93.4 868.05,-89.42 867.72,-96.41"/>
</g>
<!-- Node9 -->
<g id="node9" class="node">
<title>Node9</title>
<g id="a_node9"><a xlink:href="expand__dollar_8c.html#a288ca34d78433c242163338d2e877550" target="_top" xlink:title=" ">
<polygon fill="none" stroke="black" points="713,-104.5 713,-123.5 842,-123.5 842,-104.5 713,-104.5"/>
<text text-anchor="middle" x="777.5" y="-111.5" font-family="Helvetica,sans-Serif" font-size="10.00">expand_valid_build_str</text>
</a>
</g>
</g>
<!-- Node2&#45;&gt;Node9 -->
<g id="edge8" class="edge">
<title>Node2&#45;&gt;Node9</title>
<path fill="none" stroke="midnightblue" d="M867.83,-101.19C859.61,-102.37 850.86,-103.62 842.16,-104.87"/>
<polygon fill="midnightblue" stroke="midnightblue" points="868.5,-104.63 877.91,-99.75 867.51,-97.7 868.5,-104.63"/>
</g>
<!-- Node3&#45;&gt;Node4 -->
<g id="edge3" class="edge">
<title>Node3&#45;&gt;Node4</title>
<path fill="none" stroke="midnightblue" d="M595.68,-101.17C580.05,-96.08 562.37,-90.31 547.89,-85.59"/>
<polygon fill="midnightblue" stroke="midnightblue" points="595.01,-104.64 605.6,-104.41 597.18,-97.98 595.01,-104.64"/>
</g>
<!-- Node4&#45;&gt;Node5 -->
<g id="edge4" class="edge">
<title>Node4&#45;&gt;Node5</title>
<path fill="none" stroke="midnightblue" d="M473.78,-63.46C456.16,-58.3 436.08,-52.4 419.67,-47.59"/>
<polygon fill="midnightblue" stroke="midnightblue" points="473.24,-66.95 483.82,-66.41 475.21,-60.24 473.24,-66.95"/>
</g>
<!-- Node5&#45;&gt;Node6 -->
<g id="edge5" class="edge">
<title>Node5&#45;&gt;Node6</title>
<path fill="none" stroke="midnightblue" d="M321.63,-28.67C312.93,-27.38 304.2,-26.1 296.08,-24.9"/>
<polygon fill="midnightblue" stroke="midnightblue" points="321.38,-32.17 331.79,-30.16 322.4,-25.24 321.38,-32.17"/>
</g>
<!-- Node7 -->
<g id="node7" class="node">
<title>Node7</title>
<g id="a_node7"><a xlink:href="expand_8c.html#a53c53e75b0ad8c8888217cd918304b8b" target="_top" xlink:title="Iterate over every args and redir of each command to expand and dequote what needs to be.">
<polygon fill="none" stroke="black" points="77,-9.5 77,-28.5 178,-28.5 178,-9.5 77,-9.5"/>
<text text-anchor="middle" x="127.5" y="-16.5" font-family="Helvetica,sans-Serif" font-size="10.00">expand_manager</text>
</a>
</g>
</g>
<!-- Node6&#45;&gt;Node7 -->
<g id="edge6" class="edge">
<title>Node6&#45;&gt;Node7</title>
<path fill="none" stroke="midnightblue" d="M203.87,-19C195.45,-19 186.72,-19 178.3,-19"/>
<polygon fill="midnightblue" stroke="midnightblue" points="203.95,-22.5 213.95,-19 203.95,-15.5 203.95,-22.5"/>
</g>
<!-- Node8 -->
<g id="node8" class="node">
<title>Node8</title>
<g id="a_node8"><a xlink:href="main_8c.html#a647f21a28344e1d9c643f4115516d7c9" target="_top" xlink:title=" ">
<polygon fill="none" stroke="black" points="0,-9.5 0,-28.5 41,-28.5 41,-9.5 0,-9.5"/>
<text text-anchor="middle" x="20.5" y="-16.5" font-family="Helvetica,sans-Serif" font-size="10.00">main</text>
</a>
</g>
</g>
<!-- Node7&#45;&gt;Node8 -->
<g id="edge7" class="edge">
<title>Node7&#45;&gt;Node8</title>
<path fill="none" stroke="midnightblue" d="M66.72,-19C57.53,-19 48.64,-19 41.2,-19"/>
<polygon fill="midnightblue" stroke="midnightblue" points="66.77,-22.5 76.77,-19 66.77,-15.5 66.77,-22.5"/>
</g>
<!-- Node9&#45;&gt;Node3 -->
<g id="edge9" class="edge">
<title>Node9&#45;&gt;Node3</title>
<path fill="none" stroke="midnightblue" d="M702.66,-114C693.97,-114 685.36,-114 677.38,-114"/>
<polygon fill="midnightblue" stroke="midnightblue" points="702.87,-117.5 712.87,-114 702.87,-110.5 702.87,-117.5"/>
</g>
</g>
</svg>
