<?xml version="1.0" encoding="UTF-8" standalone="no"?>
<!DOCTYPE svg PUBLIC "-//W3C//DTD SVG 1.1//EN"
 "http://www.w3.org/Graphics/SVG/1.1/DTD/svg11.dtd">
<!-- Generated by graphviz version 2.43.0 (0)
 -->
<!-- Title: parser_exit_fatal Pages: 1 -->
<svg width="590pt" height="100pt"
 viewBox="0.00 0.00 590.00 99.51" xmlns="http://www.w3.org/2000/svg" xmlns:xlink="http://www.w3.org/1999/xlink">
<g id="graph0" class="graph" transform="scale(1 1) rotate(0) translate(4 95.51)">
<title>parser_exit_fatal</title>
<!-- Node1 -->
<g id="node1" class="node">
<title>Node1</title>
<g id="a_node1"><a xlink:title=" ">
<polygon fill="#bfbfbf" stroke="black" points="483,-38.5 483,-57.5 582,-57.5 582,-38.5 483,-38.5"/>
<text text-anchor="middle" x="532.5" y="-45.5" font-family="Helvetica,sans-Serif" font-size="10.00">parser_exit_fatal</text>
</a>
</g>
</g>
<!-- Node2 -->
<g id="node2" class="node">
<title>Node2</title>
<g id="a_node2"><a xlink:href="parser_8c.html#ad8a725eb1fe38bc14d96924df6878b56" target="_top" xlink:title=" ">
<polygon fill="none" stroke="black" points="270,-19.5 270,-38.5 340,-38.5 340,-19.5 270,-19.5"/>
<text text-anchor="middle" x="305" y="-26.5" font-family="Helvetica,sans-Serif" font-size="10.00">parse_cmd</text>
</a>
</g>
</g>
<!-- Node1&#45;&gt;Node2 -->
<g id="edge1" class="edge">
<title>Node1&#45;&gt;Node2</title>
<path fill="none" stroke="midnightblue" d="M472.72,-43.05C430.61,-39.5 375.37,-34.84 340.27,-31.89"/>
<polygon fill="midnightblue" stroke="midnightblue" points="472.59,-46.55 482.85,-43.9 473.18,-39.57 472.59,-46.55"/>
</g>
<!-- Node3 -->
<g id="node3" class="node">
<title>Node3</title>
<g id="a_node3"><a xlink:href="parser_8c.html#a7e8d15749e17fe4ed49f75c3c6998719" target="_top" xlink:title=" ">
<polygon fill="none" stroke="black" points="160,-38.5 160,-57.5 234,-57.5 234,-38.5 160,-38.5"/>
<text text-anchor="middle" x="197" y="-45.5" font-family="Helvetica,sans-Serif" font-size="10.00">parser_loop</text>
</a>
</g>
</g>
<!-- Node1&#45;&gt;Node3 -->
<g id="edge9" class="edge">
<title>Node1&#45;&gt;Node3</title>
<path fill="none" stroke="midnightblue" d="M506.79,-62.47C490.43,-71.19 468.17,-81.46 447,-86 365.55,-103.47 267.44,-73.9 222.56,-57.62"/>
<polygon fill="midnightblue" stroke="midnightblue" points="508.62,-65.46 515.69,-57.57 505.24,-59.33 508.62,-65.46"/>
</g>
<!-- Node4 -->
<g id="node4" class="node">
<title>Node4</title>
<g id="a_node4"><a xlink:href="parser_8c.html#ae22079ec4dbb24c0eb15425a8dd785bd" target="_top" xlink:title=" ">
<polygon fill="none" stroke="black" points="77,-0.5 77,-19.5 124,-19.5 124,-0.5 77,-0.5"/>
<text text-anchor="middle" x="100.5" y="-7.5" font-family="Helvetica,sans-Serif" font-size="10.00">parser</text>
</a>
</g>
</g>
<!-- Node1&#45;&gt;Node4 -->
<g id="edge8" class="edge">
<title>Node1&#45;&gt;Node4</title>
<path fill="none" stroke="midnightblue" d="M474.04,-36.4C465,-34.59 455.74,-32.74 447,-31 399.47,-21.55 388.24,-14.69 340,-10 261.08,-2.33 166.77,-6.13 124.26,-8.54"/>
<polygon fill="midnightblue" stroke="midnightblue" points="473.64,-39.89 484.13,-38.43 475.02,-33.03 473.64,-39.89"/>
</g>
<!-- Node6 -->
<g id="node6" class="node">
<title>Node6</title>
<g id="a_node6"><a xlink:href="parser_8c.html#a3fb162f9c645f99a8764a678b4768f38" target="_top" xlink:title=" ">
<polygon fill="none" stroke="black" points="376,-57.5 376,-76.5 447,-76.5 447,-57.5 376,-57.5"/>
<text text-anchor="middle" x="411.5" y="-64.5" font-family="Helvetica,sans-Serif" font-size="10.00">parse_redir</text>
</a>
</g>
</g>
<!-- Node1&#45;&gt;Node6 -->
<g id="edge5" class="edge">
<title>Node1&#45;&gt;Node6</title>
<path fill="none" stroke="midnightblue" d="M472.87,-57.36C464.07,-58.77 455.24,-60.18 447.16,-61.47"/>
<polygon fill="midnightblue" stroke="midnightblue" points="473.43,-60.82 482.75,-55.78 472.33,-53.9 473.43,-60.82"/>
</g>
<!-- Node2&#45;&gt;Node3 -->
<g id="edge2" class="edge">
<title>Node2&#45;&gt;Node3</title>
<path fill="none" stroke="midnightblue" d="M260.02,-36.88C251.44,-38.42 242.54,-40.02 234.25,-41.5"/>
<polygon fill="midnightblue" stroke="midnightblue" points="260.65,-40.33 269.88,-35.12 259.42,-33.44 260.65,-40.33"/>
</g>
<!-- Node3&#45;&gt;Node4 -->
<g id="edge3" class="edge">
<title>Node3&#45;&gt;Node4</title>
<path fill="none" stroke="midnightblue" d="M162.72,-34.62C149.92,-29.47 135.6,-23.71 124.04,-19.06"/>
<polygon fill="midnightblue" stroke="midnightblue" points="161.57,-37.93 172.15,-38.41 164.18,-31.43 161.57,-37.93"/>
</g>
<!-- Node5 -->
<g id="node5" class="node">
<title>Node5</title>
<g id="a_node5"><a xlink:href="main_8c.html#a647f21a28344e1d9c643f4115516d7c9" target="_top" xlink:title=" ">
<polygon fill="none" stroke="black" points="0,-0.5 0,-19.5 41,-19.5 41,-0.5 0,-0.5"/>
<text text-anchor="middle" x="20.5" y="-7.5" font-family="Helvetica,sans-Serif" font-size="10.00">main</text>
</a>
</g>
</g>
<!-- Node4&#45;&gt;Node5 -->
<g id="edge4" class="edge">
<title>Node4&#45;&gt;Node5</title>
<path fill="none" stroke="midnightblue" d="M66.66,-10C57.96,-10 48.84,-10 41.1,-10"/>
<polygon fill="midnightblue" stroke="midnightblue" points="66.94,-13.5 76.94,-10 66.94,-6.5 66.94,-13.5"/>
</g>
<!-- Node6&#45;&gt;Node2 -->
<g id="edge6" class="edge">
<title>Node6&#45;&gt;Node2</title>
<path fill="none" stroke="midnightblue" d="M374.43,-53.88C360.6,-48.86 345.11,-43.22 332.36,-38.59"/>
<polygon fill="midnightblue" stroke="midnightblue" points="373.54,-57.28 384.13,-57.41 375.93,-50.7 373.54,-57.28"/>
</g>
<!-- Node6&#45;&gt;Node3 -->
<g id="edge7" class="edge">
<title>Node6&#45;&gt;Node3</title>
<path fill="none" stroke="midnightblue" d="M365.82,-63C326.63,-59.5 270.39,-54.47 234.02,-51.22"/>
<polygon fill="midnightblue" stroke="midnightblue" points="365.61,-66.5 375.89,-63.91 366.24,-59.53 365.61,-66.5"/>
</g>
</g>
</svg>
