<?xml version="1.0" encoding="UTF-8" standalone="no"?>
<!DOCTYPE svg PUBLIC "-//W3C//DTD SVG 1.1//EN"
 "http://www.w3.org/Graphics/SVG/1.1/DTD/svg11.dtd">
<!-- Generated by graphviz version 2.43.0 (0)
 -->
<!-- Title: parser_loop Pages: 1 -->
<svg width="1043pt" height="408pt"
 viewBox="0.00 0.00 1043.00 408.00" xmlns="http://www.w3.org/2000/svg" xmlns:xlink="http://www.w3.org/1999/xlink">
<g id="graph0" class="graph" transform="scale(1 1) rotate(0) translate(4 404)">
<title>parser_loop</title>
<!-- Node1 -->
<g id="node1" class="node">
<title>Node1</title>
<g id="a_node1"><a xlink:title=" ">
<polygon fill="#bfbfbf" stroke="black" points="0,-152.5 0,-171.5 74,-171.5 74,-152.5 0,-152.5"/>
<text text-anchor="middle" x="37" y="-159.5" font-family="Helvetica,sans-Serif" font-size="10.00">parser_loop</text>
</a>
</g>
</g>
<!-- Node2 -->
<g id="node2" class="node">
<title>Node2</title>
<g id="a_node2"><a xlink:href="lst__cmd_8c.html#a8dd9c58ef8144c1956483eb089e5080f" target="_top" xlink:title=" ">
<polygon fill="none" stroke="black" points="110,-285.5 110,-304.5 213,-304.5 213,-285.5 110,-285.5"/>
<text text-anchor="middle" x="161.5" y="-292.5" font-family="Helvetica,sans-Serif" font-size="10.00">create_node_cmd</text>
</a>
</g>
</g>
<!-- Node1&#45;&gt;Node2 -->
<g id="edge1" class="edge">
<title>Node1&#45;&gt;Node2</title>
<path fill="none" stroke="midnightblue" d="M42.19,-171.71C51.57,-192.45 76.1,-241.55 110,-271 114.26,-274.7 119.19,-277.96 124.26,-280.78"/>
<polygon fill="midnightblue" stroke="midnightblue" points="122.93,-284.03 133.44,-285.4 126.08,-277.78 122.93,-284.03"/>
</g>
<!-- Node3 -->
<g id="node3" class="node">
<title>Node3</title>
<g id="a_node3"><a xlink:href="parser__utils_8c.html#aa186cacc84a5d4dc8cd19bc371be0b61" target="_top" xlink:title=" ">
<polygon fill="none" stroke="black" points="395.5,-152.5 395.5,-171.5 454.5,-171.5 454.5,-152.5 395.5,-152.5"/>
<text text-anchor="middle" x="425" y="-159.5" font-family="Helvetica,sans-Serif" font-size="10.00">cur_next</text>
</a>
</g>
</g>
<!-- Node1&#45;&gt;Node3 -->
<g id="edge2" class="edge">
<title>Node1&#45;&gt;Node3</title>
<path fill="none" stroke="midnightblue" d="M74.31,-162C147.03,-162 309.94,-162 384.89,-162"/>
<polygon fill="midnightblue" stroke="midnightblue" points="385.29,-165.5 395.29,-162 385.29,-158.5 385.29,-165.5"/>
</g>
<!-- Node4 -->
<g id="node4" class="node">
<title>Node4</title>
<g id="a_node4"><a xlink:href="parser__utils_8c.html#a504166f8c7680aafbdfdb58ab412d498" target="_top" xlink:title=" ">
<polygon fill="none" stroke="black" points="250.5,-380.5 250.5,-399.5 335.5,-399.5 335.5,-380.5 250.5,-380.5"/>
<text text-anchor="middle" x="293" y="-387.5" font-family="Helvetica,sans-Serif" font-size="10.00">is_token_redir</text>
</a>
</g>
</g>
<!-- Node1&#45;&gt;Node4 -->
<g id="edge3" class="edge">
<title>Node1&#45;&gt;Node4</title>
<path fill="none" stroke="midnightblue" d="M44.69,-171.51C56.29,-187.36 81.63,-219.29 110,-238 150.74,-264.86 178.35,-241.65 213,-276 245.07,-307.79 217.94,-338.22 249,-371 250.24,-372.3 251.58,-373.52 252.99,-374.66"/>
<polygon fill="midnightblue" stroke="midnightblue" points="251.49,-377.86 261.78,-380.37 255.3,-371.99 251.49,-377.86"/>
</g>
<!-- Node5 -->
<g id="node5" class="node">
<title>Node5</title>
<g id="a_node5"><a xlink:href="parser_8c.html#ad8a725eb1fe38bc14d96924df6878b56" target="_top" xlink:title=" ">
<polygon fill="none" stroke="black" points="126.5,-209.5 126.5,-228.5 196.5,-228.5 196.5,-209.5 126.5,-209.5"/>
<text text-anchor="middle" x="161.5" y="-216.5" font-family="Helvetica,sans-Serif" font-size="10.00">parse_cmd</text>
</a>
</g>
</g>
<!-- Node1&#45;&gt;Node5 -->
<g id="edge4" class="edge">
<title>Node1&#45;&gt;Node5</title>
<path fill="none" stroke="midnightblue" d="M58.5,-171.54C78.29,-180.75 108.46,-194.78 130.86,-205.21"/>
<polygon fill="midnightblue" stroke="midnightblue" points="129.39,-208.38 139.93,-209.43 132.34,-202.04 129.39,-208.38"/>
</g>
<!-- Node11 -->
<g id="node11" class="node">
<title>Node11</title>
<g id="a_node11"><a xlink:href="parser_8c.html#a3fb162f9c645f99a8764a678b4768f38" target="_top" xlink:title=" ">
<polygon fill="none" stroke="black" points="257.5,-114.5 257.5,-133.5 328.5,-133.5 328.5,-114.5 257.5,-114.5"/>
<text text-anchor="middle" x="293" y="-121.5" font-family="Helvetica,sans-Serif" font-size="10.00">parse_redir</text>
</a>
</g>
</g>
<!-- Node1&#45;&gt;Node11 -->
<g id="edge27" class="edge">
<title>Node1&#45;&gt;Node11</title>
<path fill="none" stroke="midnightblue" d="M74.18,-154.52C85.61,-152.27 98.31,-149.91 110,-148 156.72,-140.38 210.5,-133.53 247.41,-129.11"/>
<polygon fill="midnightblue" stroke="midnightblue" points="247.84,-132.58 257.36,-127.93 247.01,-125.63 247.84,-132.58"/>
</g>
<!-- Node13 -->
<g id="node13" class="node">
<title>Node13</title>
<g id="a_node13"><a xlink:href="parser_8c.html#a3902c1c0f51a35acf377da51345103b7" target="_top" xlink:title=" ">
<polygon fill="none" stroke="black" points="375.5,-76.5 375.5,-95.5 474.5,-95.5 474.5,-76.5 375.5,-76.5"/>
<text text-anchor="middle" x="425" y="-83.5" font-family="Helvetica,sans-Serif" font-size="10.00">parser_exit_fatal</text>
</a>
</g>
</g>
<!-- Node1&#45;&gt;Node13 -->
<g id="edge28" class="edge">
<title>Node1&#45;&gt;Node13</title>
<path fill="none" stroke="midnightblue" d="M58,-152.36C72.36,-145.56 92.22,-136.39 110,-129 170.91,-103.69 184.09,-88.74 249,-77 287.49,-70.04 297.94,-74.99 337,-77 346.13,-77.47 355.78,-78.22 365.2,-79.09"/>
<polygon fill="midnightblue" stroke="midnightblue" points="365,-82.58 375.29,-80.07 365.68,-75.62 365,-82.58"/>
</g>
<!-- Node22 -->
<g id="node22" class="node">
<title>Node22</title>
<g id="a_node22"><a xlink:href="lst__cmd_8c.html#aed036fcdab112b64cbd705f26aee31e0" target="_top" xlink:title=" ">
<polygon fill="none" stroke="black" points="114,-0.5 114,-19.5 209,-19.5 209,-0.5 114,-0.5"/>
<text text-anchor="middle" x="161.5" y="-7.5" font-family="Helvetica,sans-Serif" font-size="10.00">push_back_cmd</text>
</a>
</g>
</g>
<!-- Node1&#45;&gt;Node22 -->
<g id="edge29" class="edge">
<title>Node1&#45;&gt;Node22</title>
<path fill="none" stroke="midnightblue" d="M41.12,-152.35C49.06,-129.11 72.17,-69.32 110,-34 114.04,-30.23 118.77,-26.95 123.7,-24.13"/>
<polygon fill="midnightblue" stroke="midnightblue" points="125.35,-27.22 132.65,-19.55 122.16,-20.99 125.35,-27.22"/>
</g>
<!-- Node5&#45;&gt;Node3 -->
<g id="edge11" class="edge">
<title>Node5&#45;&gt;Node3</title>
<path fill="none" stroke="midnightblue" d="M196.69,-211.55C245.39,-200.93 334.47,-181.52 385.45,-170.4"/>
<polygon fill="midnightblue" stroke="midnightblue" points="386.4,-173.78 395.42,-168.23 384.91,-166.94 386.4,-173.78"/>
</g>
<!-- Node5&#45;&gt;Node4 -->
<g id="edge12" class="edge">
<title>Node5&#45;&gt;Node4</title>
<path fill="none" stroke="midnightblue" d="M193.14,-228.5C200.5,-232.04 207.74,-236.77 213,-243 251.1,-288.17 210.28,-326.36 249,-371 250.14,-372.31 251.39,-373.54 252.72,-374.69"/>
<polygon fill="midnightblue" stroke="midnightblue" points="250.83,-377.63 261.06,-380.39 254.78,-371.86 250.83,-377.63"/>
</g>
<!-- Node6 -->
<g id="node6" class="node">
<title>Node6</title>
<g id="a_node6"><a xlink:href="argv__builder_8c.html#a5f4104276b4a0d98dde31f75622668b4" target="_top" xlink:title="Ends and null terminate the argv so it can be used.">
<polygon fill="none" stroke="black" points="251.5,-228.5 251.5,-247.5 334.5,-247.5 334.5,-228.5 251.5,-228.5"/>
<text text-anchor="middle" x="293" y="-235.5" font-family="Helvetica,sans-Serif" font-size="10.00">argv_buf_end</text>
</a>
</g>
</g>
<!-- Node5&#45;&gt;Node6 -->
<g id="edge5" class="edge">
<title>Node5&#45;&gt;Node6</title>
<path fill="none" stroke="midnightblue" d="M196.52,-223.99C210.16,-225.99 226.17,-228.34 241.14,-230.54"/>
<polygon fill="midnightblue" stroke="midnightblue" points="240.89,-234.04 251.29,-232.03 241.91,-227.11 240.89,-234.04"/>
</g>
<!-- Node8 -->
<g id="node8" class="node">
<title>Node8</title>
<g id="a_node8"><a xlink:href="argv__builder_8c.html#a182f853e31c31af45e572979074a4d99" target="_top" xlink:title="Free each string of the argv then the global array.">
<polygon fill="none" stroke="black" points="251,-342.5 251,-361.5 335,-361.5 335,-342.5 251,-342.5"/>
<text text-anchor="middle" x="293" y="-349.5" font-family="Helvetica,sans-Serif" font-size="10.00">argv_buf_free</text>
</a>
</g>
</g>
<!-- Node5&#45;&gt;Node8 -->
<g id="edge7" class="edge">
<title>Node5&#45;&gt;Node8</title>
<path fill="none" stroke="midnightblue" d="M191.91,-228.52C199.54,-232.1 207.22,-236.84 213,-243 242.49,-274.41 219.08,-302 249,-333 250.25,-334.29 251.6,-335.5 253.02,-336.64"/>
<polygon fill="midnightblue" stroke="midnightblue" points="251.54,-339.84 261.84,-342.31 255.33,-333.96 251.54,-339.84"/>
</g>
<!-- Node9 -->
<g id="node9" class="node">
<title>Node9</title>
<g id="a_node9"><a xlink:href="argv__builder_8c.html#aee97e8a2ae269ee4063d3ea917e93ffc" target="_top" xlink:title=" ">
<polygon fill="none" stroke="black" points="253,-304.5 253,-323.5 333,-323.5 333,-304.5 253,-304.5"/>
<text text-anchor="middle" x="293" y="-311.5" font-family="Helvetica,sans-Serif" font-size="10.00">argv_buf_init</text>
</a>
</g>
</g>
<!-- Node5&#45;&gt;Node9 -->
<g id="edge8" class="edge">
<title>Node5&#45;&gt;Node9</title>
<path fill="none" stroke="midnightblue" d="M189.22,-228.57C197.39,-232.29 206.05,-237.09 213,-243 234.42,-261.2 227.33,-277.09 249,-295 250.98,-296.64 253.13,-298.16 255.37,-299.57"/>
<polygon fill="midnightblue" stroke="midnightblue" points="253.86,-302.74 264.31,-304.47 257.22,-296.59 253.86,-302.74"/>
</g>
<!-- Node10 -->
<g id="node10" class="node">
<title>Node10</title>
<g id="a_node10"><a xlink:href="argv__builder_8c.html#a71866a37dc221a296b930979eb5e98c2" target="_top" xlink:title="Tool to build an argv with a buffer that reallocates when more memory is needed and add a string to t...">
<polygon fill="none" stroke="black" points="249,-266.5 249,-285.5 337,-285.5 337,-266.5 249,-266.5"/>
<text text-anchor="middle" x="293" y="-273.5" font-family="Helvetica,sans-Serif" font-size="10.00">argv_buf_push</text>
</a>
</g>
</g>
<!-- Node5&#45;&gt;Node10 -->
<g id="edge9" class="edge">
<title>Node5&#45;&gt;Node10</title>
<path fill="none" stroke="midnightblue" d="M184.18,-228.54C205.19,-237.79 237.27,-251.91 260.98,-262.35"/>
<polygon fill="midnightblue" stroke="midnightblue" points="259.69,-265.6 270.25,-266.43 262.51,-259.2 259.69,-265.6"/>
</g>
<!-- Node5&#45;&gt;Node11 -->
<g id="edge13" class="edge">
<title>Node5&#45;&gt;Node11</title>
<path fill="none" stroke="midnightblue" d="M175.87,-209.19C198.28,-192.75 243.61,-159.5 270.53,-139.75"/>
<polygon fill="midnightblue" stroke="midnightblue" points="272.9,-142.35 278.89,-133.61 268.76,-136.71 272.9,-142.35"/>
</g>
<!-- Node5&#45;&gt;Node13 -->
<g id="edge26" class="edge">
<title>Node5&#45;&gt;Node13</title>
<path fill="none" stroke="midnightblue" d="M166.59,-209.22C176.72,-186.41 205.32,-129.71 249,-105 283.98,-85.21 329.21,-80.74 364.92,-81.07"/>
<polygon fill="midnightblue" stroke="midnightblue" points="365.12,-84.57 375.2,-81.3 365.28,-77.58 365.12,-84.57"/>
</g>
<!-- Node7 -->
<g id="node7" class="node">
<title>Node7</title>
<g id="a_node7"><a xlink:href="argv__builder_8c.html#a7fec561409ecbd9e81d2402e8b4ce370" target="_top" xlink:title=" ">
<polygon fill="none" stroke="black" points="394.5,-247.5 394.5,-266.5 455.5,-266.5 455.5,-247.5 394.5,-247.5"/>
<text text-anchor="middle" x="425" y="-254.5" font-family="Helvetica,sans-Serif" font-size="10.00">fall_back</text>
</a>
</g>
</g>
<!-- Node6&#45;&gt;Node7 -->
<g id="edge6" class="edge">
<title>Node6&#45;&gt;Node7</title>
<path fill="none" stroke="midnightblue" d="M334.78,-243.96C350.54,-246.26 368.51,-248.89 384.18,-251.18"/>
<polygon fill="midnightblue" stroke="midnightblue" points="383.69,-254.65 394.1,-252.63 384.71,-247.72 383.69,-254.65"/>
</g>
<!-- Node10&#45;&gt;Node7 -->
<g id="edge10" class="edge">
<title>Node10&#45;&gt;Node7</title>
<path fill="none" stroke="midnightblue" d="M337.29,-269.67C352.53,-267.45 369.57,-264.95 384.49,-262.77"/>
<polygon fill="midnightblue" stroke="midnightblue" points="385.04,-266.23 394.43,-261.32 384.03,-259.31 385.04,-266.23"/>
</g>
<!-- Node11&#45;&gt;Node3 -->
<g id="edge15" class="edge">
<title>Node11&#45;&gt;Node3</title>
<path fill="none" stroke="midnightblue" d="M326.8,-133.59C344.66,-138.81 366.84,-145.29 385.51,-150.75"/>
<polygon fill="midnightblue" stroke="midnightblue" points="384.61,-154.13 395.19,-153.58 386.57,-147.41 384.61,-154.13"/>
</g>
<!-- Node12 -->
<g id="node12" class="node">
<title>Node12</title>
<g id="a_node12"><a xlink:href="lst__redir_8c.html#acb0801286560639fb0d37901d566a3e5" target="_top" xlink:title=" ">
<polygon fill="none" stroke="black" points="373,-114.5 373,-133.5 477,-133.5 477,-114.5 373,-114.5"/>
<text text-anchor="middle" x="425" y="-121.5" font-family="Helvetica,sans-Serif" font-size="10.00">create_node_redir</text>
</a>
</g>
</g>
<!-- Node11&#45;&gt;Node12 -->
<g id="edge14" class="edge">
<title>Node11&#45;&gt;Node12</title>
<path fill="none" stroke="midnightblue" d="M328.84,-124C339.31,-124 351.12,-124 362.77,-124"/>
<polygon fill="midnightblue" stroke="midnightblue" points="362.93,-127.5 372.93,-124 362.93,-120.5 362.93,-127.5"/>
</g>
<!-- Node11&#45;&gt;Node13 -->
<g id="edge16" class="edge">
<title>Node11&#45;&gt;Node13</title>
<path fill="none" stroke="midnightblue" d="M326.8,-114.41C343.28,-109.6 363.44,-103.7 381.13,-98.53"/>
<polygon fill="midnightblue" stroke="midnightblue" points="382.59,-101.75 391.21,-95.59 380.63,-95.03 382.59,-101.75"/>
</g>
<!-- Node14 -->
<g id="node14" class="node">
<title>Node14</title>
<g id="a_node14"><a xlink:href="lst__cmd2_8c.html#a132395876bb5a7cfe926b9e37571a1e3" target="_top" xlink:title=" ">
<polygon fill="none" stroke="black" points="513,-114.5 513,-133.5 605,-133.5 605,-114.5 513,-114.5"/>
<text text-anchor="middle" x="559" y="-121.5" font-family="Helvetica,sans-Serif" font-size="10.00">destructor_cmd</text>
</a>
</g>
</g>
<!-- Node13&#45;&gt;Node14 -->
<g id="edge17" class="edge">
<title>Node13&#45;&gt;Node14</title>
<path fill="none" stroke="midnightblue" d="M459.31,-95.59C476.19,-100.45 496.89,-106.41 514.97,-111.61"/>
<polygon fill="midnightblue" stroke="midnightblue" points="514.12,-115.01 524.7,-114.41 516.06,-108.28 514.12,-115.01"/>
</g>
<!-- Node19 -->
<g id="node19" class="node">
<title>Node19</title>
<g id="a_node19"><a xlink:href="lst__env_8c.html#a226ae0aa054e697998b2ecbc5d61d592" target="_top" xlink:title=" ">
<polygon fill="none" stroke="black" points="514.5,-76.5 514.5,-95.5 603.5,-95.5 603.5,-76.5 514.5,-76.5"/>
<text text-anchor="middle" x="559" y="-83.5" font-family="Helvetica,sans-Serif" font-size="10.00">destructor_env</text>
</a>
</g>
</g>
<!-- Node13&#45;&gt;Node19 -->
<g id="edge23" class="edge">
<title>Node13&#45;&gt;Node19</title>
<path fill="none" stroke="midnightblue" d="M474.78,-86C484.27,-86 494.27,-86 503.92,-86"/>
<polygon fill="midnightblue" stroke="midnightblue" points="504.22,-89.5 514.22,-86 504.22,-82.5 504.22,-89.5"/>
</g>
<!-- Node21 -->
<g id="node21" class="node">
<title>Node21</title>
<g id="a_node21"><a xlink:href="token__utils_8c.html#ab3d9f0b7ddaf8661f8a3b3243d33bce7" target="_top" xlink:title="Free t_token entire linked list.">
<polygon fill="none" stroke="black" points="522,-38.5 522,-57.5 596,-57.5 596,-38.5 522,-38.5"/>
<text text-anchor="middle" x="559" y="-45.5" font-family="Helvetica,sans-Serif" font-size="10.00">free_tokens</text>
</a>
</g>
</g>
<!-- Node13&#45;&gt;Node21 -->
<g id="edge25" class="edge">
<title>Node13&#45;&gt;Node21</title>
<path fill="none" stroke="midnightblue" d="M459.31,-76.41C476.19,-71.55 496.89,-65.59 514.97,-60.39"/>
<polygon fill="midnightblue" stroke="midnightblue" points="516.06,-63.72 524.7,-57.59 514.12,-56.99 516.06,-63.72"/>
</g>
<!-- Node15 -->
<g id="node15" class="node">
<title>Node15</title>
<g id="a_node15"><a xlink:href="lst__cmd2_8c.html#a8e2b63759f149b547e0d07f210ede9b3" target="_top" xlink:title=" ">
<polygon fill="none" stroke="black" points="641,-114.5 641,-133.5 702,-133.5 702,-114.5 641,-114.5"/>
<text text-anchor="middle" x="671.5" y="-121.5" font-family="Helvetica,sans-Serif" font-size="10.00">pop_cmd</text>
</a>
</g>
</g>
<!-- Node14&#45;&gt;Node15 -->
<g id="edge18" class="edge">
<title>Node14&#45;&gt;Node15</title>
<path fill="none" stroke="midnightblue" d="M605.26,-124C613.73,-124 622.52,-124 630.8,-124"/>
<polygon fill="midnightblue" stroke="midnightblue" points="630.95,-127.5 640.95,-124 630.95,-120.5 630.95,-127.5"/>
</g>
<!-- Node16 -->
<g id="node16" class="node">
<title>Node16</title>
<g id="a_node16"><a xlink:href="lst__redir2_8c.html#a30ccaf401a4f897e48ead5fe54f4b307" target="_top" xlink:title=" ">
<polygon fill="none" stroke="black" points="738,-133.5 738,-152.5 832,-152.5 832,-133.5 738,-133.5"/>
<text text-anchor="middle" x="785" y="-140.5" font-family="Helvetica,sans-Serif" font-size="10.00">destructor_redir</text>
</a>
</g>
</g>
<!-- Node15&#45;&gt;Node16 -->
<g id="edge19" class="edge">
<title>Node15&#45;&gt;Node16</title>
<path fill="none" stroke="midnightblue" d="M702.09,-129.04C710.06,-130.4 718.95,-131.91 727.85,-133.43"/>
<polygon fill="midnightblue" stroke="midnightblue" points="727.42,-136.91 737.86,-135.14 728.59,-130.01 727.42,-136.91"/>
</g>
<!-- Node18 -->
<g id="node18" class="node">
<title>Node18</title>
<g id="a_node18"><a xlink:href="utils_8c.html#a1bca6910c90a19d96b36506a2e2cebf6" target="_top" xlink:title="as fd are all setup to &#45;1 at the beginning we check if they are open before trying to close we avoid ...">
<polygon fill="none" stroke="black" points="966,-114.5 966,-133.5 1035,-133.5 1035,-114.5 966,-114.5"/>
<text text-anchor="middle" x="1000.5" y="-121.5" font-family="Helvetica,sans-Serif" font-size="10.00">ft_close_fd</text>
</a>
</g>
</g>
<!-- Node15&#45;&gt;Node18 -->
<g id="edge22" class="edge">
<title>Node15&#45;&gt;Node18</title>
<path fill="none" stroke="midnightblue" d="M702.1,-124C759.85,-124 887.82,-124 955.53,-124"/>
<polygon fill="midnightblue" stroke="midnightblue" points="955.86,-127.5 965.86,-124 955.85,-120.5 955.86,-127.5"/>
</g>
<!-- Node17 -->
<g id="node17" class="node">
<title>Node17</title>
<g id="a_node17"><a xlink:href="lst__redir2_8c.html#ade8f0bdda51d9bf348ebeb38fefba881" target="_top" xlink:title=" ">
<polygon fill="none" stroke="black" points="868,-133.5 868,-152.5 930,-152.5 930,-133.5 868,-133.5"/>
<text text-anchor="middle" x="899" y="-140.5" font-family="Helvetica,sans-Serif" font-size="10.00">pop_redir</text>
</a>
</g>
</g>
<!-- Node16&#45;&gt;Node17 -->
<g id="edge20" class="edge">
<title>Node16&#45;&gt;Node17</title>
<path fill="none" stroke="midnightblue" d="M832.2,-143C840.67,-143 849.46,-143 857.74,-143"/>
<polygon fill="midnightblue" stroke="midnightblue" points="857.9,-146.5 867.9,-143 857.9,-139.5 857.9,-146.5"/>
</g>
<!-- Node17&#45;&gt;Node18 -->
<g id="edge21" class="edge">
<title>Node17&#45;&gt;Node18</title>
<path fill="none" stroke="midnightblue" d="M930.12,-137.25C938.18,-135.71 947.06,-134.01 955.69,-132.37"/>
<polygon fill="midnightblue" stroke="midnightblue" points="956.49,-135.78 965.65,-130.46 955.17,-128.9 956.49,-135.78"/>
</g>
<!-- Node20 -->
<g id="node20" class="node">
<title>Node20</title>
<g id="a_node20"><a xlink:href="lst__env_8c.html#a058c245b5f2ef22f9d2659f90e4d3537" target="_top" xlink:title=" ">
<polygon fill="none" stroke="black" points="642.5,-76.5 642.5,-95.5 700.5,-95.5 700.5,-76.5 642.5,-76.5"/>
<text text-anchor="middle" x="671.5" y="-83.5" font-family="Helvetica,sans-Serif" font-size="10.00">pop_env</text>
</a>
</g>
</g>
<!-- Node19&#45;&gt;Node20 -->
<g id="edge24" class="edge">
<title>Node19&#45;&gt;Node20</title>
<path fill="none" stroke="midnightblue" d="M603.67,-86C613.14,-86 623.08,-86 632.32,-86"/>
<polygon fill="midnightblue" stroke="midnightblue" points="632.38,-89.5 642.38,-86 632.38,-82.5 632.38,-89.5"/>
</g>
<!-- Node23 -->
<g id="node23" class="node">
<title>Node23</title>
<g id="a_node23"><a xlink:href="lst__cmd_8c.html#ab80db2e6dc59c16654afb6a26d633a21" target="_top" xlink:title=" ">
<polygon fill="none" stroke="black" points="252,-0.5 252,-19.5 334,-19.5 334,-0.5 252,-0.5"/>
<text text-anchor="middle" x="293" y="-7.5" font-family="Helvetica,sans-Serif" font-size="10.00">get_last_cmd</text>
</a>
</g>
</g>
<!-- Node22&#45;&gt;Node23 -->
<g id="edge30" class="edge">
<title>Node22&#45;&gt;Node23</title>
<path fill="none" stroke="midnightblue" d="M209.25,-10C219.79,-10 231.03,-10 241.71,-10"/>
<polygon fill="midnightblue" stroke="midnightblue" points="241.74,-13.5 251.74,-10 241.74,-6.5 241.74,-13.5"/>
</g>
</g>
</svg>
