<?xml version="1.0" encoding="UTF-8" standalone="no"?>
<!DOCTYPE svg PUBLIC "-//W3C//DTD SVG 1.1//EN"
 "http://www.w3.org/Graphics/SVG/1.1/DTD/svg11.dtd">
<!-- Generated by graphviz version 2.43.0 (0)
 -->
<!-- Title: parser_exit_fatal Pages: 1 -->
<svg width="665pt" height="123pt"
 viewBox="0.00 0.00 665.00 123.00" xmlns="http://www.w3.org/2000/svg" xmlns:xlink="http://www.w3.org/1999/xlink">
<g id="graph0" class="graph" transform="scale(1 1) rotate(0) translate(4 119)">
<title>parser_exit_fatal</title>
<!-- Node1 -->
<g id="node1" class="node">
<title>Node1</title>
<g id="a_node1"><a xlink:title=" ">
<polygon fill="#bfbfbf" stroke="black" points="0,-38.5 0,-57.5 99,-57.5 99,-38.5 0,-38.5"/>
<text text-anchor="middle" x="49.5" y="-45.5" font-family="Helvetica,sans-Serif" font-size="10.00">parser_exit_fatal</text>
</a>
</g>
</g>
<!-- Node2 -->
<g id="node2" class="node">
<title>Node2</title>
<g id="a_node2"><a xlink:href="lst__cmd2_8c.html#a132395876bb5a7cfe926b9e37571a1e3" target="_top" xlink:title=" ">
<polygon fill="none" stroke="black" points="135,-76.5 135,-95.5 227,-95.5 227,-76.5 135,-76.5"/>
<text text-anchor="middle" x="181" y="-83.5" font-family="Helvetica,sans-Serif" font-size="10.00">destructor_cmd</text>
</a>
</g>
</g>
<!-- Node1&#45;&gt;Node2 -->
<g id="edge1" class="edge">
<title>Node1&#45;&gt;Node2</title>
<path fill="none" stroke="midnightblue" d="M83.18,-57.59C99.59,-62.4 119.68,-68.3 137.29,-73.47"/>
<polygon fill="midnightblue" stroke="midnightblue" points="136.75,-76.96 147.33,-76.41 138.72,-70.24 136.75,-76.96"/>
</g>
<!-- Node7 -->
<g id="node7" class="node">
<title>Node7</title>
<g id="a_node7"><a xlink:href="lst__env_8c.html#a226ae0aa054e697998b2ecbc5d61d592" target="_top" xlink:title=" ">
<polygon fill="none" stroke="black" points="136.5,-38.5 136.5,-57.5 225.5,-57.5 225.5,-38.5 136.5,-38.5"/>
<text text-anchor="middle" x="181" y="-45.5" font-family="Helvetica,sans-Serif" font-size="10.00">destructor_env</text>
</a>
</g>
</g>
<!-- Node1&#45;&gt;Node7 -->
<g id="edge7" class="edge">
<title>Node1&#45;&gt;Node7</title>
<path fill="none" stroke="midnightblue" d="M99.09,-48C107.95,-48 117.25,-48 126.25,-48"/>
<polygon fill="midnightblue" stroke="midnightblue" points="126.26,-51.5 136.26,-48 126.26,-44.5 126.26,-51.5"/>
</g>
<!-- Node9 -->
<g id="node9" class="node">
<title>Node9</title>
<g id="a_node9"><a xlink:href="token__utils_8c.html#ab3d9f0b7ddaf8661f8a3b3243d33bce7" target="_top" xlink:title="Free t_token entire linked list.">
<polygon fill="none" stroke="black" points="144,-0.5 144,-19.5 218,-19.5 218,-0.5 144,-0.5"/>
<text text-anchor="middle" x="181" y="-7.5" font-family="Helvetica,sans-Serif" font-size="10.00">free_tokens</text>
</a>
</g>
</g>
<!-- Node1&#45;&gt;Node9 -->
<g id="edge9" class="edge">
<title>Node1&#45;&gt;Node9</title>
<path fill="none" stroke="midnightblue" d="M83.18,-38.41C99.59,-33.6 119.68,-27.7 137.29,-22.53"/>
<polygon fill="midnightblue" stroke="midnightblue" points="138.72,-25.76 147.33,-19.59 136.75,-19.04 138.72,-25.76"/>
</g>
<!-- Node3 -->
<g id="node3" class="node">
<title>Node3</title>
<g id="a_node3"><a xlink:href="lst__cmd2_8c.html#a8e2b63759f149b547e0d07f210ede9b3" target="_top" xlink:title=" ">
<polygon fill="none" stroke="black" points="263,-76.5 263,-95.5 324,-95.5 324,-76.5 263,-76.5"/>
<text text-anchor="middle" x="293.5" y="-83.5" font-family="Helvetica,sans-Serif" font-size="10.00">pop_cmd</text>
</a>
</g>
</g>
<!-- Node2&#45;&gt;Node3 -->
<g id="edge2" class="edge">
<title>Node2&#45;&gt;Node3</title>
<path fill="none" stroke="midnightblue" d="M227.26,-86C235.73,-86 244.52,-86 252.8,-86"/>
<polygon fill="midnightblue" stroke="midnightblue" points="252.95,-89.5 262.95,-86 252.95,-82.5 252.95,-89.5"/>
</g>
<!-- Node4 -->
<g id="node4" class="node">
<title>Node4</title>
<g id="a_node4"><a xlink:href="lst__redir2_8c.html#a30ccaf401a4f897e48ead5fe54f4b307" target="_top" xlink:title=" ">
<polygon fill="none" stroke="black" points="360,-95.5 360,-114.5 454,-114.5 454,-95.5 360,-95.5"/>
<text text-anchor="middle" x="407" y="-102.5" font-family="Helvetica,sans-Serif" font-size="10.00">destructor_redir</text>
</a>
</g>
</g>
<!-- Node3&#45;&gt;Node4 -->
<g id="edge3" class="edge">
<title>Node3&#45;&gt;Node4</title>
<path fill="none" stroke="midnightblue" d="M324.09,-91.04C332.06,-92.4 340.95,-93.91 349.85,-95.43"/>
<polygon fill="midnightblue" stroke="midnightblue" points="349.42,-98.91 359.86,-97.14 350.59,-92.01 349.42,-98.91"/>
</g>
<!-- Node6 -->
<g id="node6" class="node">
<title>Node6</title>
<g id="a_node6"><a xlink:href="utils_8c.html#a1bca6910c90a19d96b36506a2e2cebf6" target="_top" xlink:title="as fd are all setup to &#45;1 at the beginning we check if they are open before trying to close we avoid ...">
<polygon fill="none" stroke="black" points="588,-76.5 588,-95.5 657,-95.5 657,-76.5 588,-76.5"/>
<text text-anchor="middle" x="622.5" y="-83.5" font-family="Helvetica,sans-Serif" font-size="10.00">ft_close_fd</text>
</a>
</g>
</g>
<!-- Node3&#45;&gt;Node6 -->
<g id="edge6" class="edge">
<title>Node3&#45;&gt;Node6</title>
<path fill="none" stroke="midnightblue" d="M324.1,-86C381.85,-86 509.82,-86 577.53,-86"/>
<polygon fill="midnightblue" stroke="midnightblue" points="577.86,-89.5 587.86,-86 577.85,-82.5 577.86,-89.5"/>
</g>
<!-- Node5 -->
<g id="node5" class="node">
<title>Node5</title>
<g id="a_node5"><a xlink:href="lst__redir2_8c.html#ade8f0bdda51d9bf348ebeb38fefba881" target="_top" xlink:title=" ">
<polygon fill="none" stroke="black" points="490,-95.5 490,-114.5 552,-114.5 552,-95.5 490,-95.5"/>
<text text-anchor="middle" x="521" y="-102.5" font-family="Helvetica,sans-Serif" font-size="10.00">pop_redir</text>
</a>
</g>
</g>
<!-- Node4&#45;&gt;Node5 -->
<g id="edge4" class="edge">
<title>Node4&#45;&gt;Node5</title>
<path fill="none" stroke="midnightblue" d="M454.2,-105C462.67,-105 471.46,-105 479.74,-105"/>
<polygon fill="midnightblue" stroke="midnightblue" points="479.9,-108.5 489.9,-105 479.9,-101.5 479.9,-108.5"/>
</g>
<!-- Node5&#45;&gt;Node6 -->
<g id="edge5" class="edge">
<title>Node5&#45;&gt;Node6</title>
<path fill="none" stroke="midnightblue" d="M552.12,-99.25C560.18,-97.71 569.06,-96.01 577.69,-94.37"/>
<polygon fill="midnightblue" stroke="midnightblue" points="578.49,-97.78 587.65,-92.46 577.17,-90.9 578.49,-97.78"/>
</g>
<!-- Node8 -->
<g id="node8" class="node">
<title>Node8</title>
<g id="a_node8"><a xlink:href="lst__env_8c.html#a058c245b5f2ef22f9d2659f90e4d3537" target="_top" xlink:title=" ">
<polygon fill="none" stroke="black" points="264.5,-38.5 264.5,-57.5 322.5,-57.5 322.5,-38.5 264.5,-38.5"/>
<text text-anchor="middle" x="293.5" y="-45.5" font-family="Helvetica,sans-Serif" font-size="10.00">pop_env</text>
</a>
</g>
</g>
<!-- Node7&#45;&gt;Node8 -->
<g id="edge8" class="edge">
<title>Node7&#45;&gt;Node8</title>
<path fill="none" stroke="midnightblue" d="M225.67,-48C235.14,-48 245.08,-48 254.32,-48"/>
<polygon fill="midnightblue" stroke="midnightblue" points="254.38,-51.5 264.38,-48 254.38,-44.5 254.38,-51.5"/>
</g>
</g>
</svg>
