<?xml version="1.0" encoding="UTF-8" standalone="no"?>
<!DOCTYPE svg PUBLIC "-//W3C//DTD SVG 1.1//EN"
 "http://www.w3.org/Graphics/SVG/1.1/DTD/svg11.dtd">
<!-- Generated by graphviz version 2.43.0 (0)
 -->
<!-- Title: includes/parsing_helpers.h Pages: 1 -->
<!--zoomable 140 -->
<svg id="main" version="1.1" xmlns="http://www.w3.org/2000/svg" xmlns:xlink="http://www.w3.org/1999/xlink" xml:space="preserve" onload="init(evt)">
<style type="text/css"><![CDATA[
.edge:hover path { stroke: red; }
.edge:hover polygon { stroke: red; fill: red; }
]]></style>
<script type="text/javascript"><![CDATA[
var edges = document.getElementsByTagName('g');
if (edges && edges.length) {
  for (var i=0;i<edges.length;i++) {
    if (edges[i].id.substr(0,4)=='edge') {
      edges[i].setAttribute('class','edge');
    }
  }
}
]]></script>
        <defs>
                <circle id="rim" cx="0" cy="0" r="7"/>
                <circle id="rim2" cx="0" cy="0" r="3.5"/>
                <g id="zoomPlus">
                        <use xlink:href="#rim" fill="#404040">
                                <set attributeName="fill" to="#808080" begin="zoomplus.mouseover" end="zoomplus.mouseout"/>
                        </use>
                        <path d="M-4,0h8M0,-4v8" fill="none" stroke="white" stroke-width="1.5" pointer-events="none"/>
                </g>
                <g id="zoomMin">
                        <use xlink:href="#rim" fill="#404040">
                                <set attributeName="fill" to="#808080" begin="zoomminus.mouseover" end="zoomminus.mouseout"/>
                        </use>
                        <path d="M-4,0h8" fill="none" stroke="white" stroke-width="1.5" pointer-events="none"/>
                </g>
                <g id="dirArrow">
                        <path fill="none" stroke="white" stroke-width="1.5" d="M0,-3.0v7 M-2.5,-0.5L0,-3.0L2.5,-0.5"/>
                </g>
               <g id="resetDef">
                       <use xlink:href="#rim2" fill="#404040">
                               <set attributeName="fill" to="#808080" begin="reset.mouseover" end="reset.mouseout"/>
                       </use>
               </g>
        </defs>

<script type="text/javascript">
var viewWidth = 1199;
var viewHeight = 140;
var sectionId = 'dynsection-1';
</script>
<script xlink:href="svgpan.js"/>
<svg id="graph" class="graph">
<g id="viewport">
<title>includes/parsing_helpers.h</title>
<!-- Node1 -->
<g id="node1" class="node">
<title>Node1</title>
<g id="a_node1"><a xlink:title=" ">
<polygon fill="#bfbfbf" stroke="black" points="412.5,-112.5 412.5,-131.5 558.5,-131.5 558.5,-112.5 412.5,-112.5"/>
<text text-anchor="middle" x="485.5" y="-119.5" font-family="Helvetica,sans-Serif" font-size="10.00">includes/parsing_helpers.h</text>
</a>
</g>
</g>
<!-- Node2 -->
<g id="node2" class="node">
<title>Node2</title>
<g id="a_node2"><a xlink:href="main_8c.html" target="_top" xlink:title=" ">
<polygon fill="none" stroke="black" points="0,-0.5 0,-19.5 67,-19.5 67,-0.5 0,-0.5"/>
<text text-anchor="middle" x="33.5" y="-7.5" font-family="Helvetica,sans-Serif" font-size="10.00">src/main.c</text>
</a>
</g>
</g>
<!-- Node1&#45;&gt;Node2 -->
<g id="edge1" class="edge">
<title>Node1&#45;&gt;Node2</title>
<path fill="none" stroke="midnightblue" d="M440.44,-110.03C349.77,-87.97 147.15,-38.66 67.03,-19.16"/>
<polygon fill="midnightblue" stroke="midnightblue" points="439.86,-113.5 450.41,-112.46 441.52,-106.69 439.86,-113.5"/>
</g>
<!-- Node3 -->
<g id="node3" class="node">
<title>Node3</title>
<g id="a_node3"><a xlink:href="parsing_8h.html" target="_top" xlink:title=" ">
<polygon fill="none" stroke="black" points="433,-56.5 433,-75.5 538,-75.5 538,-56.5 433,-56.5"/>
<text text-anchor="middle" x="485.5" y="-63.5" font-family="Helvetica,sans-Serif" font-size="10.00">includes/parsing.h</text>
</a>
</g>
</g>
<!-- Node1&#45;&gt;Node3 -->
<g id="edge2" class="edge">
<title>Node1&#45;&gt;Node3</title>
<path fill="none" stroke="midnightblue" d="M479.03,-102.1C478.4,-93.14 478.84,-82.86 480.37,-75.75"/>
<polygon fill="midnightblue" stroke="midnightblue" points="475.57,-102.62 480.33,-112.08 482.51,-101.71 475.57,-102.62"/>
</g>
<!-- Node3&#45;&gt;Node1 -->
<g id="edge12" class="edge">
<title>Node3&#45;&gt;Node1</title>
<path fill="none" stroke="midnightblue" d="M491.96,-85.69C492.61,-94.64 492.18,-104.93 490.67,-112.08"/>
<polygon fill="midnightblue" stroke="midnightblue" points="495.42,-85.2 490.63,-75.75 488.48,-86.13 495.42,-85.2"/>
</g>
<!-- Node3&#45;&gt;Node2 -->
<g id="edge8" class="edge">
<title>Node3&#45;&gt;Node2</title>
<path fill="none" stroke="midnightblue" d="M423.02,-60.02C342.58,-53.17 198.61,-39.45 76.5,-20 73.49,-19.52 70.37,-18.97 67.24,-18.38"/>
<polygon fill="midnightblue" stroke="midnightblue" points="422.73,-63.51 432.99,-60.86 423.32,-56.53 422.73,-63.51"/>
</g>
<!-- Node4 -->
<g id="node4" class="node">
<title>Node4</title>
<g id="a_node4"><a xlink:href="lexer_8c.html" target="_top" xlink:title=" ">
<polygon fill="none" stroke="black" points="85.5,-0.5 85.5,-19.5 183.5,-19.5 183.5,-0.5 85.5,-0.5"/>
<text text-anchor="middle" x="134.5" y="-7.5" font-family="Helvetica,sans-Serif" font-size="10.00">src/lexing/lexer.c</text>
</a>
</g>
</g>
<!-- Node3&#45;&gt;Node4 -->
<g id="edge3" class="edge">
<title>Node3&#45;&gt;Node4</title>
<path fill="none" stroke="midnightblue" d="M422.87,-55.41C363.54,-46.32 271.95,-32.27 192.5,-20 189.58,-19.55 186.58,-19.08 183.55,-18.62"/>
<polygon fill="midnightblue" stroke="midnightblue" points="422.42,-58.88 432.83,-56.94 423.48,-51.96 422.42,-58.88"/>
</g>
<!-- Node5 -->
<g id="node5" class="node">
<title>Node5</title>
<g id="a_node5"><a xlink:href="lexer__utils_8c.html" target="_top" xlink:title=" ">
<polygon fill="none" stroke="black" points="202,-0.5 202,-19.5 327,-19.5 327,-0.5 202,-0.5"/>
<text text-anchor="middle" x="264.5" y="-7.5" font-family="Helvetica,sans-Serif" font-size="10.00">src/lexing/lexer_utils.c</text>
</a>
</g>
</g>
<!-- Node3&#45;&gt;Node5 -->
<g id="edge4" class="edge">
<title>Node3&#45;&gt;Node5</title>
<path fill="none" stroke="midnightblue" d="M440.58,-54.02C398.83,-43.82 337.52,-28.84 299.35,-19.52"/>
<polygon fill="midnightblue" stroke="midnightblue" points="439.94,-57.47 450.48,-56.44 441.6,-50.67 439.94,-57.47"/>
</g>
<!-- Node6 -->
<g id="node6" class="node">
<title>Node6</title>
<g id="a_node6"><a xlink:href="lexer__word_8c.html" target="_top" xlink:title=" ">
<polygon fill="none" stroke="black" points="345.5,-0.5 345.5,-19.5 473.5,-19.5 473.5,-0.5 345.5,-0.5"/>
<text text-anchor="middle" x="409.5" y="-7.5" font-family="Helvetica,sans-Serif" font-size="10.00">src/lexing/lexer_word.c</text>
</a>
</g>
</g>
<!-- Node3&#45;&gt;Node6 -->
<g id="edge5" class="edge">
<title>Node3&#45;&gt;Node6</title>
<path fill="none" stroke="midnightblue" d="M464.92,-50.38C451.19,-40.62 433.57,-28.11 421.93,-19.83"/>
<polygon fill="midnightblue" stroke="midnightblue" points="463.11,-53.38 473.29,-56.32 467.16,-47.68 463.11,-53.38"/>
</g>
<!-- Node7 -->
<g id="node7" class="node">
<title>Node7</title>
<g id="a_node7"><a xlink:href="string__builder_8c.html" target="_top" xlink:title=" ">
<polygon fill="none" stroke="black" points="492,-0.5 492,-19.5 633,-19.5 633,-0.5 492,-0.5"/>
<text text-anchor="middle" x="562.5" y="-7.5" font-family="Helvetica,sans-Serif" font-size="10.00">src/lexing/string_builder.c</text>
</a>
</g>
</g>
<!-- Node3&#45;&gt;Node7 -->
<g id="edge6" class="edge">
<title>Node3&#45;&gt;Node7</title>
<path fill="none" stroke="midnightblue" d="M506.4,-50.34C520.41,-40.52 538.38,-27.91 550.16,-19.65"/>
<polygon fill="midnightblue" stroke="midnightblue" points="504.05,-47.72 497.87,-56.32 508.07,-53.45 504.05,-47.72"/>
</g>
<!-- Node8 -->
<g id="node8" class="node">
<title>Node8</title>
<g id="a_node8"><a xlink:href="token__utils_8c.html" target="_top" xlink:title=" ">
<polygon fill="none" stroke="black" points="651.5,-0.5 651.5,-19.5 779.5,-19.5 779.5,-0.5 651.5,-0.5"/>
<text text-anchor="middle" x="715.5" y="-7.5" font-family="Helvetica,sans-Serif" font-size="10.00">src/lexing/token_utils.c</text>
</a>
</g>
</g>
<!-- Node3&#45;&gt;Node8 -->
<g id="edge7" class="edge">
<title>Node3&#45;&gt;Node8</title>
<path fill="none" stroke="midnightblue" d="M531.7,-54.15C575.16,-43.95 639.34,-28.88 679.23,-19.52"/>
<polygon fill="midnightblue" stroke="midnightblue" points="530.88,-50.75 521.94,-56.44 532.48,-57.57 530.88,-50.75"/>
</g>
<!-- Node9 -->
<g id="node9" class="node">
<title>Node9</title>
<g id="a_node9"><a xlink:href="argv__builder_8c.html" target="_top" xlink:title=" ">
<polygon fill="none" stroke="black" points="798,-0.5 798,-19.5 939,-19.5 939,-0.5 798,-0.5"/>
<text text-anchor="middle" x="868.5" y="-7.5" font-family="Helvetica,sans-Serif" font-size="10.00">src/parsing/argv_builder.c</text>
</a>
</g>
</g>
<!-- Node3&#45;&gt;Node9 -->
<g id="edge9" class="edge">
<title>Node3&#45;&gt;Node9</title>
<path fill="none" stroke="midnightblue" d="M548.63,-56.1C620.53,-45.96 737.19,-29.51 807.99,-19.53"/>
<polygon fill="midnightblue" stroke="midnightblue" points="547.77,-52.69 538.35,-57.55 548.74,-59.62 547.77,-52.69"/>
</g>
<!-- Node10 -->
<g id="node10" class="node">
<title>Node10</title>
<g id="a_node10"><a xlink:href="error_8c.html" target="_top" xlink:title=" ">
<polygon fill="none" stroke="black" points="957.5,-0.5 957.5,-19.5 1061.5,-19.5 1061.5,-0.5 957.5,-0.5"/>
<text text-anchor="middle" x="1009.5" y="-7.5" font-family="Helvetica,sans-Serif" font-size="10.00">src/parsing/error.c</text>
</a>
</g>
</g>
<!-- Node3&#45;&gt;Node10 -->
<g id="edge10" class="edge">
<title>Node3&#45;&gt;Node10</title>
<path fill="none" stroke="midnightblue" d="M548.22,-59.9C637.34,-52.42 805.65,-37.47 948.5,-20 951.37,-19.65 954.31,-19.27 957.28,-18.88"/>
<polygon fill="midnightblue" stroke="midnightblue" points="547.69,-56.43 538.02,-60.75 548.27,-63.41 547.69,-56.43"/>
</g>
<!-- Node11 -->
<g id="node11" class="node">
<title>Node11</title>
<g id="a_node11"><a xlink:href="parser_8c.html" target="_top" xlink:title=" ">
<polygon fill="none" stroke="black" points="1080,-0.5 1080,-19.5 1191,-19.5 1191,-0.5 1080,-0.5"/>
<text text-anchor="middle" x="1135.5" y="-7.5" font-family="Helvetica,sans-Serif" font-size="10.00">src/parsing/parser.c</text>
</a>
</g>
</g>
<!-- Node3&#45;&gt;Node11 -->
<g id="edge11" class="edge">
<title>Node3&#45;&gt;Node11</title>
<path fill="none" stroke="midnightblue" d="M548.03,-61.44C655.17,-55.07 880.65,-40.43 1070.5,-20 1073.56,-19.67 1076.69,-19.31 1079.86,-18.93"/>
<polygon fill="midnightblue" stroke="midnightblue" points="547.81,-57.95 538.04,-62.03 548.23,-64.94 547.81,-57.95"/>
</g>
</g>
</svg>
        <g id="navigator" transform="translate(0 0)" fill="#404254">
                <rect fill="#f2f5e9" fill-opacity="0.5" stroke="#606060" stroke-width=".5" x="0" y="0" width="60" height="60"/>
                <use id="zoomplus" xlink:href="#zoomPlus" x="17" y="9" onmousedown="handleZoom(evt,'in')"/>
                <use id="zoomminus" xlink:href="#zoomMin" x="42" y="9" onmousedown="handleZoom(evt,'out')"/>
                <use id="reset" xlink:href="#resetDef" x="30" y="36" onmousedown="handleReset()"/>
                <g id="arrowUp" xlink:href="#dirArrow" transform="translate(30 24)" onmousedown="handlePan(0,-1)">
                  <use xlink:href="#rim" fill="#404040">
                        <set attributeName="fill" to="#808080" begin="arrowUp.mouseover" end="arrowUp.mouseout"/>
                  </use>
                  <path fill="none" stroke="white" stroke-width="1.5" d="M0,-3.0v7 M-2.5,-0.5L0,-3.0L2.5,-0.5"/>
                </g>
                <g id="arrowRight" xlink:href="#dirArrow" transform="rotate(90) translate(36 -43)" onmousedown="handlePan(1,0)">
                  <use xlink:href="#rim" fill="#404040">
                        <set attributeName="fill" to="#808080" begin="arrowRight.mouseover" end="arrowRight.mouseout"/>
                  </use>
                  <path fill="none" stroke="white" stroke-width="1.5" d="M0,-3.0v7 M-2.5,-0.5L0,-3.0L2.5,-0.5"/>
                </g>
                <g id="arrowDown" xlink:href="#dirArrow" transform="rotate(180) translate(-30 -48)" onmousedown="handlePan(0,1)">
                  <use xlink:href="#rim" fill="#404040">
                        <set attributeName="fill" to="#808080" begin="arrowDown.mouseover" end="arrowDown.mouseout"/>
                  </use>
                  <path fill="none" stroke="white" stroke-width="1.5" d="M0,-3.0v7 M-2.5,-0.5L0,-3.0L2.5,-0.5"/>
                </g>
                <g id="arrowLeft" xlink:href="#dirArrow" transform="rotate(270) translate(-36 17)" onmousedown="handlePan(-1,0)">
                  <use xlink:href="#rim" fill="#404040">
                        <set attributeName="fill" to="#808080" begin="arrowLeft.mouseover" end="arrowLeft.mouseout"/>
                  </use>
                  <path fill="none" stroke="white" stroke-width="1.5" d="M0,-3.0v7 M-2.5,-0.5L0,-3.0L2.5,-0.5"/>
                </g>
        </g>
        <svg viewBox="0 0 15 15" width="100%" height="30px" preserveAspectRatio="xMaxYMin meet">
         <g id="arrow_out" transform="scale(0.3 0.3)">
          <a xlink:href="parsing__helpers_8h__dep__incl_org.svg" target="_base">
           <rect id="button" ry="5" rx="5" y="6" x="6" height="38" width="38"
                fill="#f2f5e9" fill-opacity="0.5" stroke="#606060" stroke-width="1.0"/>
           <path id="arrow"
             d="M 11.500037,31.436501 C 11.940474,20.09759 22.043105,11.32322 32.158766,21.979434 L 37.068811,17.246167 C 37.068811,17.246167 37.088388,32 37.088388,32 L 22.160133,31.978069 C 22.160133,31.978069 26.997745,27.140456 26.997745,27.140456 C 18.528582,18.264221 13.291696,25.230495 11.500037,31.436501 z"
             style="fill:#404040;"/>
          </a>
         </g>
        </svg>
</svg>
