<?xml version="1.0" encoding="UTF-8" standalone="no"?>
<!DOCTYPE svg PUBLIC "-//W3C//DTD SVG 1.1//EN"
 "http://www.w3.org/Graphics/SVG/1.1/DTD/svg11.dtd">
<!-- Generated by graphviz version 2.43.0 (0)
 -->
<!-- Title: lex_word Pages: 1 -->
<svg width="355pt" height="321pt"
 viewBox="0.00 0.00 355.00 321.05" xmlns="http://www.w3.org/2000/svg" xmlns:xlink="http://www.w3.org/1999/xlink">
<g id="graph0" class="graph" transform="scale(1 1) rotate(0) translate(4 317.05)">
<title>lex_word</title>
<!-- Node1 -->
<g id="node1" class="node">
<title>Node1</title>
<g id="a_node1"><a xlink:title="Lexes the string to create a WORD token.">
<polygon fill="#bfbfbf" stroke="black" points="0,-152.5 0,-171.5 61,-171.5 61,-152.5 0,-152.5"/>
<text text-anchor="middle" x="30.5" y="-159.5" font-family="Helvetica,sans-Serif" font-size="10.00">lex_word</text>
</a>
</g>
</g>
<!-- Node2 -->
<g id="node2" class="node">
<title>Node2</title>
<g id="a_node2"><a xlink:href="lexer__utils_8c.html#a6b132516dacc9599762b1fe7341a0f04" target="_top" xlink:title="Advance one byte in the struct t_lexer to keep track of progress.">
<polygon fill="none" stroke="black" points="279.5,-266.5 279.5,-285.5 337.5,-285.5 337.5,-266.5 279.5,-266.5"/>
<text text-anchor="middle" x="308.5" y="-273.5" font-family="Helvetica,sans-Serif" font-size="10.00">advance</text>
</a>
</g>
</g>
<!-- Node1&#45;&gt;Node2 -->
<g id="edge1" class="edge">
<title>Node1&#45;&gt;Node2</title>
<path fill="none" stroke="midnightblue" d="M32.81,-171.66C36.86,-197.27 51.76,-266.85 97,-295 152.93,-329.8 233.93,-306.45 277.34,-289.39"/>
<polygon fill="midnightblue" stroke="midnightblue" points="278.83,-292.57 286.77,-285.55 276.18,-286.08 278.83,-292.57"/>
</g>
<!-- Node3 -->
<g id="node3" class="node">
<title>Node3</title>
<g id="a_node3"><a xlink:href="lexer__word_8c.html#a088ba907ca2f9f7d89809627a5ef8313" target="_top" xlink:title="Lexes a segment delimited by double quotes.">
<polygon fill="none" stroke="black" points="97,-228.5 97,-247.5 234,-247.5 234,-228.5 97,-228.5"/>
<text text-anchor="middle" x="165.5" y="-235.5" font-family="Helvetica,sans-Serif" font-size="10.00">double_quoted_segment</text>
</a>
</g>
</g>
<!-- Node1&#45;&gt;Node3 -->
<g id="edge2" class="edge">
<title>Node1&#45;&gt;Node3</title>
<path fill="none" stroke="midnightblue" d="M39.85,-171.53C51.45,-184.18 73.66,-206.39 97,-219 101.2,-221.27 105.69,-223.29 110.29,-225.08"/>
<polygon fill="midnightblue" stroke="midnightblue" points="109.23,-228.42 119.83,-228.45 111.57,-221.82 109.23,-228.42"/>
</g>
<!-- Node4 -->
<g id="node4" class="node">
<title>Node4</title>
<g id="a_node4"><a xlink:href="string__builder_8c.html#a54e602a5da87bd89687c69c2d86f34d2" target="_top" xlink:title="Put char in the struct t_str_buf so we can build a string in the struct. The point is to create the s...">
<polygon fill="none" stroke="black" points="270,-209.5 270,-228.5 347,-228.5 347,-209.5 270,-209.5"/>
<text text-anchor="middle" x="308.5" y="-216.5" font-family="Helvetica,sans-Serif" font-size="10.00">str_buf_putc</text>
</a>
</g>
</g>
<!-- Node1&#45;&gt;Node4 -->
<g id="edge14" class="edge">
<title>Node1&#45;&gt;Node4</title>
<path fill="none" stroke="midnightblue" d="M61.34,-161.28C101.43,-161.1 174.54,-163.56 234,-181 251.7,-186.19 270.13,-195.73 284.11,-203.95"/>
<polygon fill="midnightblue" stroke="midnightblue" points="282.65,-207.16 293.01,-209.37 286.28,-201.18 282.65,-207.16"/>
</g>
<!-- Node5 -->
<g id="node5" class="node">
<title>Node5</title>
<g id="a_node5"><a xlink:href="lexer_8c.html#a36667927c23670d83624ca9049adfc2d" target="_top" xlink:title="Check if the char is one of the possible operator, currently &#39;&lt;&#39;, &#39;&gt;&#39; or &#39;|&#39;.">
<polygon fill="none" stroke="black" points="116.5,-114.5 116.5,-133.5 214.5,-133.5 214.5,-114.5 116.5,-114.5"/>
<text text-anchor="middle" x="165.5" y="-121.5" font-family="Helvetica,sans-Serif" font-size="10.00">is_char_operator</text>
</a>
</g>
</g>
<!-- Node1&#45;&gt;Node5 -->
<g id="edge5" class="edge">
<title>Node1&#45;&gt;Node5</title>
<path fill="none" stroke="midnightblue" d="M61.02,-153.57C78.69,-148.52 101.48,-142.01 121.17,-136.38"/>
<polygon fill="midnightblue" stroke="midnightblue" points="122.19,-139.73 130.85,-133.62 120.27,-133 122.19,-139.73"/>
</g>
<!-- Node6 -->
<g id="node6" class="node">
<title>Node6</title>
<g id="a_node6"><a xlink:href="token__utils_8c.html#a9fd4752dfeaa8c87b63c2c53710b28f5" target="_top" xlink:title="Build a token.">
<polygon fill="none" stroke="black" points="127.5,-76.5 127.5,-95.5 203.5,-95.5 203.5,-76.5 127.5,-76.5"/>
<text text-anchor="middle" x="165.5" y="-83.5" font-family="Helvetica,sans-Serif" font-size="10.00">make_token</text>
</a>
</g>
</g>
<!-- Node1&#45;&gt;Node6 -->
<g id="edge6" class="edge">
<title>Node1&#45;&gt;Node6</title>
<path fill="none" stroke="midnightblue" d="M39.85,-152.47C51.45,-139.82 73.66,-117.61 97,-105 103.41,-101.54 110.5,-98.66 117.62,-96.28"/>
<polygon fill="midnightblue" stroke="midnightblue" points="118.73,-99.6 127.27,-93.33 116.69,-92.9 118.73,-99.6"/>
</g>
<!-- Node7 -->
<g id="node7" class="node">
<title>Node7</title>
<g id="a_node7"><a xlink:href="lexer__word_8c.html#ad9e7809fee584699717eb691257a6ded" target="_top" xlink:title="Lexes a segment delimited by single quotes.">
<polygon fill="none" stroke="black" points="99,-266.5 99,-285.5 232,-285.5 232,-266.5 99,-266.5"/>
<text text-anchor="middle" x="165.5" y="-273.5" font-family="Helvetica,sans-Serif" font-size="10.00">single_quoted_segment</text>
</a>
</g>
</g>
<!-- Node1&#45;&gt;Node7 -->
<g id="edge7" class="edge">
<title>Node1&#45;&gt;Node7</title>
<path fill="none" stroke="midnightblue" d="M35.47,-171.74C43.85,-191.05 65.22,-234.28 97,-257 99.72,-258.95 102.64,-260.7 105.68,-262.26"/>
<polygon fill="midnightblue" stroke="midnightblue" points="104.52,-265.58 115.08,-266.46 107.37,-259.19 104.52,-265.58"/>
</g>
<!-- Node8 -->
<g id="node8" class="node">
<title>Node8</title>
<g id="a_node8"><a xlink:href="string__builder_8c.html#a1bfdfae2d27c541b15b526d7d67b7577" target="_top" xlink:title="End and null terminate the string created in t_str_buf, reset the struct so it can be reused and retu...">
<polygon fill="none" stroke="black" points="128.5,-190.5 128.5,-209.5 202.5,-209.5 202.5,-190.5 128.5,-190.5"/>
<text text-anchor="middle" x="165.5" y="-197.5" font-family="Helvetica,sans-Serif" font-size="10.00">str_buf_end</text>
</a>
</g>
</g>
<!-- Node1&#45;&gt;Node8 -->
<g id="edge10" class="edge">
<title>Node1&#45;&gt;Node8</title>
<path fill="none" stroke="midnightblue" d="M61.02,-170.43C78.69,-175.48 101.48,-181.99 121.17,-187.62"/>
<polygon fill="midnightblue" stroke="midnightblue" points="120.27,-191 130.85,-190.38 122.19,-184.27 120.27,-191"/>
</g>
<!-- Node9 -->
<g id="node9" class="node">
<title>Node9</title>
<g id="a_node9"><a xlink:href="string__builder_8c.html#a34739f65bf6f3e3e2b9e19dadf5fe217" target="_top" xlink:title=" ">
<polygon fill="none" stroke="black" points="128,-38.5 128,-57.5 203,-57.5 203,-38.5 128,-38.5"/>
<text text-anchor="middle" x="165.5" y="-45.5" font-family="Helvetica,sans-Serif" font-size="10.00">str_buf_free</text>
</a>
</g>
</g>
<!-- Node1&#45;&gt;Node9 -->
<g id="edge12" class="edge">
<title>Node1&#45;&gt;Node9</title>
<path fill="none" stroke="midnightblue" d="M35.47,-152.26C43.85,-132.95 65.22,-89.72 97,-67 103.27,-62.52 110.56,-59.09 117.99,-56.47"/>
<polygon fill="midnightblue" stroke="midnightblue" points="119.22,-59.75 127.75,-53.47 117.17,-53.06 119.22,-59.75"/>
</g>
<!-- Node10 -->
<g id="node10" class="node">
<title>Node10</title>
<g id="a_node10"><a xlink:href="string__builder_8c.html#a2ff0766da574e4904598f3119c7d3749" target="_top" xlink:title=" ">
<polygon fill="none" stroke="black" points="130,-0.5 130,-19.5 201,-19.5 201,-0.5 130,-0.5"/>
<text text-anchor="middle" x="165.5" y="-7.5" font-family="Helvetica,sans-Serif" font-size="10.00">str_buf_init</text>
</a>
</g>
</g>
<!-- Node1&#45;&gt;Node10 -->
<g id="edge13" class="edge">
<title>Node1&#45;&gt;Node10</title>
<path fill="none" stroke="midnightblue" d="M33.43,-152.28C38.83,-127.73 56.43,-62.74 97,-29 103.66,-23.46 111.83,-19.53 120.16,-16.75"/>
<polygon fill="midnightblue" stroke="midnightblue" points="121.27,-20.07 129.93,-13.98 119.36,-13.34 121.27,-20.07"/>
</g>
<!-- Node3&#45;&gt;Node2 -->
<g id="edge3" class="edge">
<title>Node3&#45;&gt;Node2</title>
<path fill="none" stroke="midnightblue" d="M202.08,-247.59C222.69,-253.14 248.63,-260.14 269.62,-265.79"/>
<polygon fill="midnightblue" stroke="midnightblue" points="268.92,-269.23 279.48,-268.45 270.74,-262.47 268.92,-269.23"/>
</g>
<!-- Node3&#45;&gt;Node4 -->
<g id="edge4" class="edge">
<title>Node3&#45;&gt;Node4</title>
<path fill="none" stroke="midnightblue" d="M234.11,-228.89C242.76,-227.72 251.46,-226.55 259.7,-225.44"/>
<polygon fill="midnightblue" stroke="midnightblue" points="260.41,-228.88 269.85,-224.07 259.48,-221.94 260.41,-228.88"/>
</g>
<!-- Node7&#45;&gt;Node2 -->
<g id="edge8" class="edge">
<title>Node7&#45;&gt;Node2</title>
<path fill="none" stroke="midnightblue" d="M232.05,-276C244.82,-276 257.81,-276 269.33,-276"/>
<polygon fill="midnightblue" stroke="midnightblue" points="269.45,-279.5 279.45,-276 269.45,-272.5 269.45,-279.5"/>
</g>
<!-- Node7&#45;&gt;Node4 -->
<g id="edge9" class="edge">
<title>Node7&#45;&gt;Node4</title>
<path fill="none" stroke="midnightblue" d="M205.5,-266.47C214.95,-263.77 224.94,-260.57 234,-257 250.61,-250.45 268.42,-241.3 282.35,-233.62"/>
<polygon fill="midnightblue" stroke="midnightblue" points="284.3,-236.54 291.31,-228.59 280.88,-230.43 284.3,-236.54"/>
</g>
<!-- Node8&#45;&gt;Node4 -->
<g id="edge11" class="edge">
<title>Node8&#45;&gt;Node4</title>
<path fill="none" stroke="midnightblue" d="M202.81,-204.89C220.16,-207.23 241.15,-210.06 259.77,-212.57"/>
<polygon fill="midnightblue" stroke="midnightblue" points="259.46,-216.06 269.84,-213.92 260.39,-209.12 259.46,-216.06"/>
</g>
</g>
</svg>
