<?xml version="1.0" encoding="UTF-8" standalone="no"?>
<!DOCTYPE svg PUBLIC "-//W3C//DTD SVG 1.1//EN"
 "http://www.w3.org/Graphics/SVG/1.1/DTD/svg11.dtd">
<!-- Generated by graphviz version 2.43.0 (0)
 -->
<!-- Title: parser Pages: 1 -->
<!--zoomable 512 -->
<svg id="main" version="1.1" xmlns="http://www.w3.org/2000/svg" xmlns:xlink="http://www.w3.org/1999/xlink" xml:space="preserve" onload="init(evt)">
<style type="text/css"><![CDATA[
.edge:hover path { stroke: red; }
.edge:hover polygon { stroke: red; fill: red; }
]]></style>
<script type="text/javascript"><![CDATA[
var edges = document.getElementsByTagName('g');
if (edges && edges.length) {
  for (var i=0;i<edges.length;i++) {
    if (edges[i].id.substr(0,4)=='edge') {
      edges[i].setAttribute('class','edge');
    }
  }
}
]]></script>
        <defs>
                <circle id="rim" cx="0" cy="0" r="7"/>
                <circle id="rim2" cx="0" cy="0" r="3.5"/>
                <g id="zoomPlus">
                        <use xlink:href="#rim" fill="#404040">
                                <set attributeName="fill" to="#808080" begin="zoomplus.mouseover" end="zoomplus.mouseout"/>
                        </use>
                        <path d="M-4,0h8M0,-4v8" fill="none" stroke="white" stroke-width="1.5" pointer-events="none"/>
                </g>
                <g id="zoomMin">
                        <use xlink:href="#rim" fill="#404040">
                                <set attributeName="fill" to="#808080" begin="zoomminus.mouseover" end="zoomminus.mouseout"/>
                        </use>
                        <path d="M-4,0h8" fill="none" stroke="white" stroke-width="1.5" pointer-events="none"/>
                </g>
                <g id="dirArrow">
                        <path fill="none" stroke="white" stroke-width="1.5" d="M0,-3.0v7 M-2.5,-0.5L0,-3.0L2.5,-0.5"/>
                </g>
               <g id="resetDef">
                       <use xlink:href="#rim2" fill="#404040">
                               <set attributeName="fill" to="#808080" begin="reset.mouseover" end="reset.mouseout"/>
                       </use>
               </g>
        </defs>

<script type="text/javascript">
var viewWidth = 1129;
var viewHeight = 512;
var sectionId = 'dynsection-5';
</script>
<script xlink:href="svgpan.js"/>
<svg id="graph" class="graph">
<g id="viewport">
<title>parser</title>
<!-- Node1 -->
<g id="node1" class="node">
<title>Node1</title>
<g id="a_node1"><a xlink:title=" ">
<polygon fill="#bfbfbf" stroke="black" points="0,-380.5 0,-399.5 47,-399.5 47,-380.5 0,-380.5"/>
<text text-anchor="middle" x="23.5" y="-387.5" font-family="Helvetica,sans-Serif" font-size="10.00">parser</text>
</a>
</g>
</g>
<!-- Node2 -->
<g id="node2" class="node">
<title>Node2</title>
<g id="a_node2"><a xlink:href="lst__cmd_8c.html#a8dd9c58ef8144c1956483eb089e5080f" target="_top" xlink:title=" ">
<polygon fill="none" stroke="black" points="193,-418.5 193,-437.5 296,-437.5 296,-418.5 193,-418.5"/>
<text text-anchor="middle" x="244.5" y="-425.5" font-family="Helvetica,sans-Serif" font-size="10.00">create_node_cmd</text>
</a>
</g>
</g>
<!-- Node1&#45;&gt;Node2 -->
<g id="edge1" class="edge">
<title>Node1&#45;&gt;Node2</title>
<path fill="none" stroke="midnightblue" d="M47.11,-393.92C78.81,-399.42 137.63,-409.63 182.66,-417.44"/>
<polygon fill="midnightblue" stroke="midnightblue" points="182.17,-420.91 192.62,-419.17 183.37,-414.01 182.17,-420.91"/>
</g>
<!-- Node3 -->
<g id="node3" class="node">
<title>Node3</title>
<g id="a_node3"><a xlink:href="token__utils_8c.html#ab3d9f0b7ddaf8661f8a3b3243d33bce7" target="_top" xlink:title="Free t_token entire linked list.">
<polygon fill="none" stroke="black" points="608,-456.5 608,-475.5 682,-475.5 682,-456.5 608,-456.5"/>
<text text-anchor="middle" x="645" y="-463.5" font-family="Helvetica,sans-Serif" font-size="10.00">free_tokens</text>
</a>
</g>
</g>
<!-- Node1&#45;&gt;Node3 -->
<g id="edge2" class="edge">
<title>Node1&#45;&gt;Node3</title>
<path fill="none" stroke="midnightblue" d="M32.72,-399.6C43.3,-411.45 62.75,-431.54 83,-444 147.86,-483.91 167.35,-504 243.5,-504 243.5,-504 243.5,-504 377,-504 460.1,-504 481.05,-498.74 563,-485 574.46,-483.08 586.71,-480.49 598.13,-477.84"/>
<polygon fill="midnightblue" stroke="midnightblue" points="598.99,-481.23 607.91,-475.51 597.37,-474.42 598.99,-481.23"/>
</g>
<!-- Node4 -->
<g id="node4" class="node">
<title>Node4</title>
<g id="a_node4"><a xlink:href="parser_8c.html#a3902c1c0f51a35acf377da51345103b7" target="_top" xlink:title=" ">
<polygon fill="none" stroke="black" points="460,-152.5 460,-171.5 559,-171.5 559,-152.5 460,-152.5"/>
<text text-anchor="middle" x="509.5" y="-159.5" font-family="Helvetica,sans-Serif" font-size="10.00">parser_exit_fatal</text>
</a>
</g>
</g>
<!-- Node1&#45;&gt;Node4 -->
<g id="edge3" class="edge">
<title>Node1&#45;&gt;Node4</title>
<path fill="none" stroke="midnightblue" d="M27.9,-380.43C41.73,-342.98 97.61,-205.37 193,-142 277.67,-85.75 321.47,-89 420,-114 444.73,-120.27 470.03,-135 487.21,-146.5"/>
<polygon fill="midnightblue" stroke="midnightblue" points="485.65,-149.67 495.87,-152.48 489.63,-143.91 485.65,-149.67"/>
</g>
<!-- Node12 -->
<g id="node12" class="node">
<title>Node12</title>
<g id="a_node12"><a xlink:href="parser_8c.html#a7e8d15749e17fe4ed49f75c3c6998719" target="_top" xlink:title=" ">
<polygon fill="none" stroke="black" points="83,-323.5 83,-342.5 157,-342.5 157,-323.5 83,-323.5"/>
<text text-anchor="middle" x="120" y="-330.5" font-family="Helvetica,sans-Serif" font-size="10.00">parser_loop</text>
</a>
</g>
</g>
<!-- Node1&#45;&gt;Node12 -->
<g id="edge13" class="edge">
<title>Node1&#45;&gt;Node12</title>
<path fill="none" stroke="midnightblue" d="M40.53,-380.33C55.28,-371.43 77.38,-358.1 94.37,-347.86"/>
<polygon fill="midnightblue" stroke="midnightblue" points="96.45,-350.69 103.21,-342.53 92.84,-344.69 96.45,-350.69"/>
</g>
<!-- Node23 -->
<g id="node23" class="node">
<title>Node23</title>
<g id="a_node23"><a xlink:href="lst__cmd_8c.html#aed036fcdab112b64cbd705f26aee31e0" target="_top" xlink:title=" ">
<polygon fill="none" stroke="black" points="197,-0.5 197,-19.5 292,-19.5 292,-0.5 197,-0.5"/>
<text text-anchor="middle" x="244.5" y="-7.5" font-family="Helvetica,sans-Serif" font-size="10.00">push_back_cmd</text>
</a>
</g>
</g>
<!-- Node1&#45;&gt;Node23 -->
<g id="edge35" class="edge">
<title>Node1&#45;&gt;Node23</title>
<path fill="none" stroke="midnightblue" d="M24.62,-380.3C25.44,-328.42 32.04,-84.23 83,-34 109.64,-7.74 151.82,-2.26 186.25,-3.08"/>
<polygon fill="midnightblue" stroke="midnightblue" points="186.52,-6.59 196.66,-3.51 186.82,0.4 186.52,-6.59"/>
</g>
<!-- Node25 -->
<g id="node25" class="node">
<title>Node25</title>
<g id="a_node25"><a xlink:href="parsing__error_8c.html#a858393a79410c7eb4d9a6f615396f426" target="_top" xlink:title=" ">
<polygon fill="none" stroke="black" points="337,-456.5 337,-475.5 415,-475.5 415,-456.5 337,-456.5"/>
<text text-anchor="middle" x="376" y="-463.5" font-family="Helvetica,sans-Serif" font-size="10.00">syntax_error</text>
</a>
</g>
</g>
<!-- Node1&#45;&gt;Node25 -->
<g id="edge36" class="edge">
<title>Node1&#45;&gt;Node25</title>
<path fill="none" stroke="midnightblue" d="M40.92,-399.73C52.4,-406.2 68.24,-414.49 83,-420 165.09,-450.65 267.58,-460.87 326.73,-464.29"/>
<polygon fill="midnightblue" stroke="midnightblue" points="326.73,-467.79 336.91,-464.83 327.11,-460.8 326.73,-467.79"/>
</g>
<!-- Node4&#45;&gt;Node3 -->
<g id="edge12" class="edge">
<title>Node4&#45;&gt;Node3</title>
<path fill="none" stroke="midnightblue" d="M518.57,-171.77C529.78,-185.73 550.14,-212.52 563,-238 585.23,-282.04 582.52,-296.5 599,-343 612.1,-379.97 627.97,-422.95 636.94,-447.07"/>
<polygon fill="midnightblue" stroke="midnightblue" points="633.66,-448.3 640.43,-456.45 640.22,-445.86 633.66,-448.3"/>
</g>
<!-- Node5 -->
<g id="node5" class="node">
<title>Node5</title>
<g id="a_node5"><a xlink:href="lst__cmd2_8c.html#a132395876bb5a7cfe926b9e37571a1e3" target="_top" xlink:title=" ">
<polygon fill="none" stroke="black" points="599,-314.5 599,-333.5 691,-333.5 691,-314.5 599,-314.5"/>
<text text-anchor="middle" x="645" y="-321.5" font-family="Helvetica,sans-Serif" font-size="10.00">destructor_cmd</text>
</a>
</g>
</g>
<!-- Node4&#45;&gt;Node5 -->
<g id="edge4" class="edge">
<title>Node4&#45;&gt;Node5</title>
<path fill="none" stroke="midnightblue" d="M518.45,-171.65C540.29,-198.15 601.42,-272.34 629.53,-306.44"/>
<polygon fill="midnightblue" stroke="midnightblue" points="626.86,-308.71 635.92,-314.2 632.26,-304.25 626.86,-308.71"/>
</g>
<!-- Node10 -->
<g id="node10" class="node">
<title>Node10</title>
<g id="a_node10"><a xlink:href="lst__env_8c.html#a226ae0aa054e697998b2ecbc5d61d592" target="_top" xlink:title=" ">
<polygon fill="none" stroke="black" points="600.5,-152.5 600.5,-171.5 689.5,-171.5 689.5,-152.5 600.5,-152.5"/>
<text text-anchor="middle" x="645" y="-159.5" font-family="Helvetica,sans-Serif" font-size="10.00">destructor_env</text>
</a>
</g>
</g>
<!-- Node4&#45;&gt;Node10 -->
<g id="edge10" class="edge">
<title>Node4&#45;&gt;Node10</title>
<path fill="none" stroke="midnightblue" d="M559.07,-162C569.14,-162 579.8,-162 590.04,-162"/>
<polygon fill="midnightblue" stroke="midnightblue" points="590.11,-165.5 600.11,-162 590.11,-158.5 590.11,-165.5"/>
</g>
<!-- Node6 -->
<g id="node6" class="node">
<title>Node6</title>
<g id="a_node6"><a xlink:href="lst__cmd2_8c.html#a8e2b63759f149b547e0d07f210ede9b3" target="_top" xlink:title=" ">
<polygon fill="none" stroke="black" points="727,-314.5 727,-333.5 788,-333.5 788,-314.5 727,-314.5"/>
<text text-anchor="middle" x="757.5" y="-321.5" font-family="Helvetica,sans-Serif" font-size="10.00">pop_cmd</text>
</a>
</g>
</g>
<!-- Node5&#45;&gt;Node6 -->
<g id="edge5" class="edge">
<title>Node5&#45;&gt;Node6</title>
<path fill="none" stroke="midnightblue" d="M691.26,-324C699.73,-324 708.52,-324 716.8,-324"/>
<polygon fill="midnightblue" stroke="midnightblue" points="716.95,-327.5 726.95,-324 716.95,-320.5 716.95,-327.5"/>
</g>
<!-- Node7 -->
<g id="node7" class="node">
<title>Node7</title>
<g id="a_node7"><a xlink:href="lst__redir2_8c.html#a30ccaf401a4f897e48ead5fe54f4b307" target="_top" xlink:title=" ">
<polygon fill="none" stroke="black" points="824,-295.5 824,-314.5 918,-314.5 918,-295.5 824,-295.5"/>
<text text-anchor="middle" x="871" y="-302.5" font-family="Helvetica,sans-Serif" font-size="10.00">destructor_redir</text>
</a>
</g>
</g>
<!-- Node6&#45;&gt;Node7 -->
<g id="edge6" class="edge">
<title>Node6&#45;&gt;Node7</title>
<path fill="none" stroke="midnightblue" d="M788.09,-318.96C796.06,-317.6 804.95,-316.09 813.85,-314.57"/>
<polygon fill="midnightblue" stroke="midnightblue" points="814.59,-317.99 823.86,-312.86 813.42,-311.09 814.59,-317.99"/>
</g>
<!-- Node9 -->
<g id="node9" class="node">
<title>Node9</title>
<g id="a_node9"><a xlink:href="utils_8c.html#a1bca6910c90a19d96b36506a2e2cebf6" target="_top" xlink:title="as fd are all setup to &#45;1 at the beginning we check if they are open before trying to close we avoid ...">
<polygon fill="none" stroke="black" points="1052,-314.5 1052,-333.5 1121,-333.5 1121,-314.5 1052,-314.5"/>
<text text-anchor="middle" x="1086.5" y="-321.5" font-family="Helvetica,sans-Serif" font-size="10.00">ft_close_fd</text>
</a>
</g>
</g>
<!-- Node6&#45;&gt;Node9 -->
<g id="edge9" class="edge">
<title>Node6&#45;&gt;Node9</title>
<path fill="none" stroke="midnightblue" d="M788.1,-324C845.85,-324 973.82,-324 1041.53,-324"/>
<polygon fill="midnightblue" stroke="midnightblue" points="1041.86,-327.5 1051.86,-324 1041.85,-320.5 1041.86,-327.5"/>
</g>
<!-- Node8 -->
<g id="node8" class="node">
<title>Node8</title>
<g id="a_node8"><a xlink:href="lst__redir2_8c.html#ade8f0bdda51d9bf348ebeb38fefba881" target="_top" xlink:title=" ">
<polygon fill="none" stroke="black" points="954,-295.5 954,-314.5 1016,-314.5 1016,-295.5 954,-295.5"/>
<text text-anchor="middle" x="985" y="-302.5" font-family="Helvetica,sans-Serif" font-size="10.00">pop_redir</text>
</a>
</g>
</g>
<!-- Node7&#45;&gt;Node8 -->
<g id="edge7" class="edge">
<title>Node7&#45;&gt;Node8</title>
<path fill="none" stroke="midnightblue" d="M918.2,-305C926.67,-305 935.46,-305 943.74,-305"/>
<polygon fill="midnightblue" stroke="midnightblue" points="943.9,-308.5 953.9,-305 943.9,-301.5 943.9,-308.5"/>
</g>
<!-- Node8&#45;&gt;Node9 -->
<g id="edge8" class="edge">
<title>Node8&#45;&gt;Node9</title>
<path fill="none" stroke="midnightblue" d="M1016.12,-310.75C1024.18,-312.29 1033.06,-313.99 1041.69,-315.63"/>
<polygon fill="midnightblue" stroke="midnightblue" points="1041.17,-319.1 1051.65,-317.54 1042.49,-312.22 1041.17,-319.1"/>
</g>
<!-- Node11 -->
<g id="node11" class="node">
<title>Node11</title>
<g id="a_node11"><a xlink:href="lst__env_8c.html#a058c245b5f2ef22f9d2659f90e4d3537" target="_top" xlink:title=" ">
<polygon fill="none" stroke="black" points="728.5,-152.5 728.5,-171.5 786.5,-171.5 786.5,-152.5 728.5,-152.5"/>
<text text-anchor="middle" x="757.5" y="-159.5" font-family="Helvetica,sans-Serif" font-size="10.00">pop_env</text>
</a>
</g>
</g>
<!-- Node10&#45;&gt;Node11 -->
<g id="edge11" class="edge">
<title>Node10&#45;&gt;Node11</title>
<path fill="none" stroke="midnightblue" d="M689.67,-162C699.14,-162 709.08,-162 718.32,-162"/>
<polygon fill="midnightblue" stroke="midnightblue" points="718.38,-165.5 728.38,-162 718.38,-158.5 718.38,-165.5"/>
</g>
<!-- Node12&#45;&gt;Node2 -->
<g id="edge14" class="edge">
<title>Node12&#45;&gt;Node2</title>
<path fill="none" stroke="midnightblue" d="M129.01,-342.77C141.48,-357.52 166.83,-385.67 193,-404 198.27,-407.69 204.2,-411.08 210.09,-414.08"/>
<polygon fill="midnightblue" stroke="midnightblue" points="208.68,-417.28 219.21,-418.45 211.7,-410.97 208.68,-417.28"/>
</g>
<!-- Node12&#45;&gt;Node4 -->
<g id="edge32" class="edge">
<title>Node12&#45;&gt;Node4</title>
<path fill="none" stroke="midnightblue" d="M126.69,-323.4C148.12,-288.36 228.02,-167.28 332,-126 383.28,-105.64 447.7,-130.44 482.8,-147.82"/>
<polygon fill="midnightblue" stroke="midnightblue" points="481.39,-151.03 491.89,-152.49 484.59,-144.81 481.39,-151.03"/>
</g>
<!-- Node13 -->
<g id="node13" class="node">
<title>Node13</title>
<g id="a_node13"><a xlink:href="parser__utils_8c.html#aa186cacc84a5d4dc8cd19bc371be0b61" target="_top" xlink:title=" ">
<polygon fill="none" stroke="black" points="480,-342.5 480,-361.5 539,-361.5 539,-342.5 480,-342.5"/>
<text text-anchor="middle" x="509.5" y="-349.5" font-family="Helvetica,sans-Serif" font-size="10.00">cur_next</text>
</a>
</g>
</g>
<!-- Node12&#45;&gt;Node13 -->
<g id="edge15" class="edge">
<title>Node12&#45;&gt;Node13</title>
<path fill="none" stroke="midnightblue" d="M135.04,-342.52C149.14,-351.72 171.78,-365.47 193,-374 252.11,-397.76 268.78,-401.16 332,-409 370.81,-413.81 382.48,-420.04 420,-409 446.87,-401.09 473.29,-382.22 490.17,-368.35"/>
<polygon fill="midnightblue" stroke="midnightblue" points="492.72,-370.77 498.08,-361.63 488.19,-365.44 492.72,-370.77"/>
</g>
<!-- Node14 -->
<g id="node14" class="node">
<title>Node14</title>
<g id="a_node14"><a xlink:href="parser__utils_8c.html#a504166f8c7680aafbdfdb58ab412d498" target="_top" xlink:title=" ">
<polygon fill="none" stroke="black" points="333.5,-380.5 333.5,-399.5 418.5,-399.5 418.5,-380.5 333.5,-380.5"/>
<text text-anchor="middle" x="376" y="-387.5" font-family="Helvetica,sans-Serif" font-size="10.00">is_token_redir</text>
</a>
</g>
</g>
<!-- Node12&#45;&gt;Node14 -->
<g id="edge16" class="edge">
<title>Node12&#45;&gt;Node14</title>
<path fill="none" stroke="midnightblue" d="M157.12,-341.11C200.56,-350.85 273.78,-367.29 323.23,-378.38"/>
<polygon fill="midnightblue" stroke="midnightblue" points="322.56,-381.82 333.09,-380.59 324.1,-374.99 322.56,-381.82"/>
</g>
<!-- Node15 -->
<g id="node15" class="node">
<title>Node15</title>
<g id="a_node15"><a xlink:href="parser_8c.html#ad8a725eb1fe38bc14d96924df6878b56" target="_top" xlink:title=" ">
<polygon fill="none" stroke="black" points="209.5,-266.5 209.5,-285.5 279.5,-285.5 279.5,-266.5 209.5,-266.5"/>
<text text-anchor="middle" x="244.5" y="-273.5" font-family="Helvetica,sans-Serif" font-size="10.00">parse_cmd</text>
</a>
</g>
</g>
<!-- Node12&#45;&gt;Node15 -->
<g id="edge17" class="edge">
<title>Node12&#45;&gt;Node15</title>
<path fill="none" stroke="midnightblue" d="M141.5,-323.46C161.29,-314.25 191.46,-300.22 213.86,-289.79"/>
<polygon fill="midnightblue" stroke="midnightblue" points="215.34,-292.96 222.93,-285.57 212.39,-286.62 215.34,-292.96"/>
</g>
<!-- Node21 -->
<g id="node21" class="node">
<title>Node21</title>
<g id="a_node21"><a xlink:href="parser_8c.html#a3fb162f9c645f99a8764a678b4768f38" target="_top" xlink:title=" ">
<polygon fill="none" stroke="black" points="340.5,-304.5 340.5,-323.5 411.5,-323.5 411.5,-304.5 340.5,-304.5"/>
<text text-anchor="middle" x="376" y="-311.5" font-family="Helvetica,sans-Serif" font-size="10.00">parse_redir</text>
</a>
</g>
</g>
<!-- Node12&#45;&gt;Node21 -->
<g id="edge31" class="edge">
<title>Node12&#45;&gt;Node21</title>
<path fill="none" stroke="midnightblue" d="M157.12,-330.3C202.64,-326.89 280.87,-321.04 330.17,-317.35"/>
<polygon fill="midnightblue" stroke="midnightblue" points="330.51,-320.84 340.23,-316.6 329.99,-313.86 330.51,-320.84"/>
</g>
<!-- Node12&#45;&gt;Node23 -->
<g id="edge33" class="edge">
<title>Node12&#45;&gt;Node23</title>
<path fill="none" stroke="midnightblue" d="M122.18,-323.47C126.84,-288.3 146.01,-163.06 193,-72 201.69,-55.16 215.47,-38.65 226.44,-26.91"/>
<polygon fill="midnightblue" stroke="midnightblue" points="229.07,-29.22 233.49,-19.59 224.03,-24.37 229.07,-29.22"/>
</g>
<!-- Node15&#45;&gt;Node4 -->
<g id="edge30" class="edge">
<title>Node15&#45;&gt;Node4</title>
<path fill="none" stroke="midnightblue" d="M248.29,-266.24C256.26,-240.37 281.88,-170.19 332,-143 378.18,-117.95 441.12,-134.68 478.03,-148.67"/>
<polygon fill="midnightblue" stroke="midnightblue" points="477.12,-152.07 487.71,-152.5 479.7,-145.56 477.12,-152.07"/>
</g>
<!-- Node15&#45;&gt;Node13 -->
<g id="edge24" class="edge">
<title>Node15&#45;&gt;Node13</title>
<path fill="none" stroke="midnightblue" d="M256.31,-285.64C271.82,-298.85 301.87,-322.18 332,-333 377.27,-349.27 432.96,-352.76 469.52,-353.01"/>
<polygon fill="midnightblue" stroke="midnightblue" points="469.77,-356.51 479.76,-353 469.76,-349.51 469.77,-356.51"/>
</g>
<!-- Node15&#45;&gt;Node14 -->
<g id="edge25" class="edge">
<title>Node15&#45;&gt;Node14</title>
<path fill="none" stroke="midnightblue" d="M253.06,-285.57C267.21,-303.06 299.23,-340.71 332,-366 336.29,-369.31 341.09,-372.45 345.89,-375.31"/>
<polygon fill="midnightblue" stroke="midnightblue" points="344.54,-378.56 354.97,-380.41 347.97,-372.46 344.54,-378.56"/>
</g>
<!-- Node16 -->
<g id="node16" class="node">
<title>Node16</title>
<g id="a_node16"><a xlink:href="argv__builder_8c.html#a5f4104276b4a0d98dde31f75622668b4" target="_top" xlink:title="Ends and null terminate the argv so it can be used.">
<polygon fill="none" stroke="black" points="334.5,-266.5 334.5,-285.5 417.5,-285.5 417.5,-266.5 334.5,-266.5"/>
<text text-anchor="middle" x="376" y="-273.5" font-family="Helvetica,sans-Serif" font-size="10.00">argv_buf_end</text>
</a>
</g>
</g>
<!-- Node15&#45;&gt;Node16 -->
<g id="edge18" class="edge">
<title>Node15&#45;&gt;Node16</title>
<path fill="none" stroke="midnightblue" d="M279.52,-276C293.16,-276 309.17,-276 324.14,-276"/>
<polygon fill="midnightblue" stroke="midnightblue" points="324.29,-279.5 334.29,-276 324.29,-272.5 324.29,-279.5"/>
</g>
<!-- Node18 -->
<g id="node18" class="node">
<title>Node18</title>
<g id="a_node18"><a xlink:href="argv__builder_8c.html#a182f853e31c31af45e572979074a4d99" target="_top" xlink:title="Free each string of the argv then the global array.">
<polygon fill="none" stroke="black" points="334,-190.5 334,-209.5 418,-209.5 418,-190.5 334,-190.5"/>
<text text-anchor="middle" x="376" y="-197.5" font-family="Helvetica,sans-Serif" font-size="10.00">argv_buf_free</text>
</a>
</g>
</g>
<!-- Node15&#45;&gt;Node18 -->
<g id="edge20" class="edge">
<title>Node15&#45;&gt;Node18</title>
<path fill="none" stroke="midnightblue" d="M258.56,-266.4C275.13,-254.45 304.84,-233.81 332,-219 335.27,-217.21 338.75,-215.46 342.25,-213.79"/>
<polygon fill="midnightblue" stroke="midnightblue" points="343.82,-216.91 351.45,-209.56 340.9,-210.55 343.82,-216.91"/>
</g>
<!-- Node19 -->
<g id="node19" class="node">
<title>Node19</title>
<g id="a_node19"><a xlink:href="argv__builder_8c.html#aee97e8a2ae269ee4063d3ea917e93ffc" target="_top" xlink:title=" ">
<polygon fill="none" stroke="black" points="336,-152.5 336,-171.5 416,-171.5 416,-152.5 336,-152.5"/>
<text text-anchor="middle" x="376" y="-159.5" font-family="Helvetica,sans-Serif" font-size="10.00">argv_buf_init</text>
</a>
</g>
</g>
<!-- Node15&#45;&gt;Node19 -->
<g id="edge21" class="edge">
<title>Node15&#45;&gt;Node19</title>
<path fill="none" stroke="midnightblue" d="M252.08,-266.43C265.32,-247.81 296.89,-206.29 332,-181 334.36,-179.3 336.89,-177.71 339.51,-176.22"/>
<polygon fill="midnightblue" stroke="midnightblue" points="341.27,-179.26 348.58,-171.59 338.09,-173.02 341.27,-179.26"/>
</g>
<!-- Node20 -->
<g id="node20" class="node">
<title>Node20</title>
<g id="a_node20"><a xlink:href="argv__builder_8c.html#a71866a37dc221a296b930979eb5e98c2" target="_top" xlink:title="Tool to build an argv with a buffer that reallocates when more memory is needed and add a string to t...">
<polygon fill="none" stroke="black" points="332,-228.5 332,-247.5 420,-247.5 420,-228.5 332,-228.5"/>
<text text-anchor="middle" x="376" y="-235.5" font-family="Helvetica,sans-Serif" font-size="10.00">argv_buf_push</text>
</a>
</g>
</g>
<!-- Node15&#45;&gt;Node20 -->
<g id="edge22" class="edge">
<title>Node15&#45;&gt;Node20</title>
<path fill="none" stroke="midnightblue" d="M278.18,-266.41C294.59,-261.6 314.68,-255.7 332.29,-250.53"/>
<polygon fill="midnightblue" stroke="midnightblue" points="333.72,-253.76 342.33,-247.59 331.75,-247.04 333.72,-253.76"/>
</g>
<!-- Node15&#45;&gt;Node21 -->
<g id="edge26" class="edge">
<title>Node15&#45;&gt;Node21</title>
<path fill="none" stroke="midnightblue" d="M278.18,-285.59C294.59,-290.4 314.68,-296.3 332.29,-301.47"/>
<polygon fill="midnightblue" stroke="midnightblue" points="331.75,-304.96 342.33,-304.41 333.72,-298.24 331.75,-304.96"/>
</g>
<!-- Node17 -->
<g id="node17" class="node">
<title>Node17</title>
<g id="a_node17"><a xlink:href="argv__builder_8c.html#a7fec561409ecbd9e81d2402e8b4ce370" target="_top" xlink:title=" ">
<polygon fill="none" stroke="black" points="479,-247.5 479,-266.5 540,-266.5 540,-247.5 479,-247.5"/>
<text text-anchor="middle" x="509.5" y="-254.5" font-family="Helvetica,sans-Serif" font-size="10.00">fall_back</text>
</a>
</g>
</g>
<!-- Node16&#45;&gt;Node17 -->
<g id="edge19" class="edge">
<title>Node16&#45;&gt;Node17</title>
<path fill="none" stroke="midnightblue" d="M417.53,-270.14C433.75,-267.8 452.38,-265.11 468.54,-262.77"/>
<polygon fill="midnightblue" stroke="midnightblue" points="469.36,-266.19 478.75,-261.3 468.36,-259.26 469.36,-266.19"/>
</g>
<!-- Node20&#45;&gt;Node17 -->
<g id="edge23" class="edge">
<title>Node20&#45;&gt;Node17</title>
<path fill="none" stroke="midnightblue" d="M420.06,-244.22C435.64,-246.47 453.16,-249 468.47,-251.22"/>
<polygon fill="midnightblue" stroke="midnightblue" points="468.26,-254.72 478.66,-252.69 469.26,-247.79 468.26,-254.72"/>
</g>
<!-- Node21&#45;&gt;Node4 -->
<g id="edge29" class="edge">
<title>Node21&#45;&gt;Node4</title>
<path fill="none" stroke="midnightblue" d="M405.26,-304.39C410.5,-301.84 415.67,-298.73 420,-295 442.69,-275.43 439.48,-263 456,-238 469.18,-218.06 484.81,-195.57 495.57,-180.27"/>
<polygon fill="midnightblue" stroke="midnightblue" points="498.67,-181.94 501.57,-171.75 492.95,-177.91 498.67,-181.94"/>
</g>
<!-- Node21&#45;&gt;Node13 -->
<g id="edge28" class="edge">
<title>Node21&#45;&gt;Node13</title>
<path fill="none" stroke="midnightblue" d="M410.18,-323.59C428.37,-328.84 451.01,-335.39 469.97,-340.87"/>
<polygon fill="midnightblue" stroke="midnightblue" points="469.22,-344.29 479.79,-343.7 471.16,-337.57 469.22,-344.29"/>
</g>
<!-- Node22 -->
<g id="node22" class="node">
<title>Node22</title>
<g id="a_node22"><a xlink:href="lst__redir_8c.html#acb0801286560639fb0d37901d566a3e5" target="_top" xlink:title=" ">
<polygon fill="none" stroke="black" points="457.5,-304.5 457.5,-323.5 561.5,-323.5 561.5,-304.5 457.5,-304.5"/>
<text text-anchor="middle" x="509.5" y="-311.5" font-family="Helvetica,sans-Serif" font-size="10.00">create_node_redir</text>
</a>
</g>
</g>
<!-- Node21&#45;&gt;Node22 -->
<g id="edge27" class="edge">
<title>Node21&#45;&gt;Node22</title>
<path fill="none" stroke="midnightblue" d="M411.55,-314C422.49,-314 434.93,-314 447.16,-314"/>
<polygon fill="midnightblue" stroke="midnightblue" points="447.35,-317.5 457.35,-314 447.35,-310.5 447.35,-317.5"/>
</g>
<!-- Node24 -->
<g id="node24" class="node">
<title>Node24</title>
<g id="a_node24"><a xlink:href="lst__cmd_8c.html#ab80db2e6dc59c16654afb6a26d633a21" target="_top" xlink:title=" ">
<polygon fill="none" stroke="black" points="335,-0.5 335,-19.5 417,-19.5 417,-0.5 335,-0.5"/>
<text text-anchor="middle" x="376" y="-7.5" font-family="Helvetica,sans-Serif" font-size="10.00">get_last_cmd</text>
</a>
</g>
</g>
<!-- Node23&#45;&gt;Node24 -->
<g id="edge34" class="edge">
<title>Node23&#45;&gt;Node24</title>
<path fill="none" stroke="midnightblue" d="M292.25,-10C302.79,-10 314.03,-10 324.71,-10"/>
<polygon fill="midnightblue" stroke="midnightblue" points="324.74,-13.5 334.74,-10 324.74,-6.5 324.74,-13.5"/>
</g>
<!-- Node26 -->
<g id="node26" class="node">
<title>Node26</title>
<g id="a_node26"><a xlink:href="parsing__error_8c.html#acde72ccd89a0314d72f669a3271e4e4c" target="_top" xlink:title=" ">
<polygon fill="none" stroke="black" points="457.5,-418.5 457.5,-437.5 561.5,-437.5 561.5,-418.5 457.5,-418.5"/>
<text text-anchor="middle" x="509.5" y="-425.5" font-family="Helvetica,sans-Serif" font-size="10.00">find_redir_symbol</text>
</a>
</g>
</g>
<!-- Node25&#45;&gt;Node26 -->
<g id="edge37" class="edge">
<title>Node25&#45;&gt;Node26</title>
<path fill="none" stroke="midnightblue" d="M410.18,-456.41C427,-451.55 447.63,-445.59 465.63,-440.39"/>
<polygon fill="midnightblue" stroke="midnightblue" points="466.69,-443.72 475.33,-437.59 464.75,-437 466.69,-443.72"/>
</g>
<!-- Node27 -->
<g id="node27" class="node">
<title>Node27</title>
<g id="a_node27"><a xlink:href="parsing__error_8c.html#a6507bf5fc88fbdbe6bf5be24ec314bd8" target="_top" xlink:title=" ">
<polygon fill="none" stroke="black" points="456,-456.5 456,-475.5 563,-475.5 563,-456.5 456,-456.5"/>
<text text-anchor="middle" x="509.5" y="-463.5" font-family="Helvetica,sans-Serif" font-size="10.00">parsing_destructor</text>
</a>
</g>
</g>
<!-- Node25&#45;&gt;Node27 -->
<g id="edge38" class="edge">
<title>Node25&#45;&gt;Node27</title>
<path fill="none" stroke="midnightblue" d="M415.04,-466C424.69,-466 435.33,-466 445.85,-466"/>
<polygon fill="midnightblue" stroke="midnightblue" points="445.88,-469.5 455.88,-466 445.88,-462.5 445.88,-469.5"/>
</g>
<!-- Node27&#45;&gt;Node3 -->
<g id="edge40" class="edge">
<title>Node27&#45;&gt;Node3</title>
<path fill="none" stroke="midnightblue" d="M563.26,-466C574.53,-466 586.35,-466 597.37,-466"/>
<polygon fill="midnightblue" stroke="midnightblue" points="597.64,-469.5 607.64,-466 597.64,-462.5 597.64,-469.5"/>
</g>
<!-- Node27&#45;&gt;Node5 -->
<g id="edge39" class="edge">
<title>Node27&#45;&gt;Node5</title>
<path fill="none" stroke="midnightblue" d="M546.58,-456.45C552.41,-453.95 558.13,-450.84 563,-447 598.8,-418.76 624.03,-370.18 636.04,-343.3"/>
<polygon fill="midnightblue" stroke="midnightblue" points="639.38,-344.41 640.12,-333.84 632.95,-341.64 639.38,-344.41"/>
</g>
</g>
</svg>
        <g id="navigator" transform="translate(0 0)" fill="#404254">
                <rect fill="#f2f5e9" fill-opacity="0.5" stroke="#606060" stroke-width=".5" x="0" y="0" width="60" height="60"/>
                <use id="zoomplus" xlink:href="#zoomPlus" x="17" y="9" onmousedown="handleZoom(evt,'in')"/>
                <use id="zoomminus" xlink:href="#zoomMin" x="42" y="9" onmousedown="handleZoom(evt,'out')"/>
                <use id="reset" xlink:href="#resetDef" x="30" y="36" onmousedown="handleReset()"/>
                <g id="arrowUp" xlink:href="#dirArrow" transform="translate(30 24)" onmousedown="handlePan(0,-1)">
                  <use xlink:href="#rim" fill="#404040">
                        <set attributeName="fill" to="#808080" begin="arrowUp.mouseover" end="arrowUp.mouseout"/>
                  </use>
                  <path fill="none" stroke="white" stroke-width="1.5" d="M0,-3.0v7 M-2.5,-0.5L0,-3.0L2.5,-0.5"/>
                </g>
                <g id="arrowRight" xlink:href="#dirArrow" transform="rotate(90) translate(36 -43)" onmousedown="handlePan(1,0)">
                  <use xlink:href="#rim" fill="#404040">
                        <set attributeName="fill" to="#808080" begin="arrowRight.mouseover" end="arrowRight.mouseout"/>
                  </use>
                  <path fill="none" stroke="white" stroke-width="1.5" d="M0,-3.0v7 M-2.5,-0.5L0,-3.0L2.5,-0.5"/>
                </g>
                <g id="arrowDown" xlink:href="#dirArrow" transform="rotate(180) translate(-30 -48)" onmousedown="handlePan(0,1)">
                  <use xlink:href="#rim" fill="#404040">
                        <set attributeName="fill" to="#808080" begin="arrowDown.mouseover" end="arrowDown.mouseout"/>
                  </use>
                  <path fill="none" stroke="white" stroke-width="1.5" d="M0,-3.0v7 M-2.5,-0.5L0,-3.0L2.5,-0.5"/>
                </g>
                <g id="arrowLeft" xlink:href="#dirArrow" transform="rotate(270) translate(-36 17)" onmousedown="handlePan(-1,0)">
                  <use xlink:href="#rim" fill="#404040">
                        <set attributeName="fill" to="#808080" begin="arrowLeft.mouseover" end="arrowLeft.mouseout"/>
                  </use>
                  <path fill="none" stroke="white" stroke-width="1.5" d="M0,-3.0v7 M-2.5,-0.5L0,-3.0L2.5,-0.5"/>
                </g>
        </g>
        <svg viewBox="0 0 15 15" width="100%" height="30px" preserveAspectRatio="xMaxYMin meet">
         <g id="arrow_out" transform="scale(0.3 0.3)">
          <a xlink:href="parser_8c_ae22079ec4dbb24c0eb15425a8dd785bd_cgraph_org.svg" target="_base">
           <rect id="button" ry="5" rx="5" y="6" x="6" height="38" width="38"
                fill="#f2f5e9" fill-opacity="0.5" stroke="#606060" stroke-width="1.0"/>
           <path id="arrow"
             d="M 11.500037,31.436501 C 11.940474,20.09759 22.043105,11.32322 32.158766,21.979434 L 37.068811,17.246167 C 37.068811,17.246167 37.088388,32 37.088388,32 L 22.160133,31.978069 C 22.160133,31.978069 26.997745,27.140456 26.997745,27.140456 C 18.528582,18.264221 13.291696,25.230495 11.500037,31.436501 z"
             style="fill:#404040;"/>
          </a>
         </g>
        </svg>
</svg>
