<?xml version="1.0" encoding="UTF-8" standalone="no"?>
<!DOCTYPE svg PUBLIC "-//W3C//DTD SVG 1.1//EN"
 "http://www.w3.org/Graphics/SVG/1.1/DTD/svg11.dtd">
<!-- Generated by graphviz version 2.43.0 (0)
 -->
<!-- Title: lexer Pages: 1 -->
<!--zoomable 408 -->
<svg id="main" version="1.1" xmlns="http://www.w3.org/2000/svg" xmlns:xlink="http://www.w3.org/1999/xlink" xml:space="preserve" onload="init(evt)">
<style type="text/css"><![CDATA[
.edge:hover path { stroke: red; }
.edge:hover polygon { stroke: red; fill: red; }
]]></style>
<script type="text/javascript"><![CDATA[
var edges = document.getElementsByTagName('g');
if (edges && edges.length) {
  for (var i=0;i<edges.length;i++) {
    if (edges[i].id.substr(0,4)=='edge') {
      edges[i].setAttribute('class','edge');
    }
  }
}
]]></script>
        <defs>
                <circle id="rim" cx="0" cy="0" r="7"/>
                <circle id="rim2" cx="0" cy="0" r="3.5"/>
                <g id="zoomPlus">
                        <use xlink:href="#rim" fill="#404040">
                                <set attributeName="fill" to="#808080" begin="zoomplus.mouseover" end="zoomplus.mouseout"/>
                        </use>
                        <path d="M-4,0h8M0,-4v8" fill="none" stroke="white" stroke-width="1.5" pointer-events="none"/>
                </g>
                <g id="zoomMin">
                        <use xlink:href="#rim" fill="#404040">
                                <set attributeName="fill" to="#808080" begin="zoomminus.mouseover" end="zoomminus.mouseout"/>
                        </use>
                        <path d="M-4,0h8" fill="none" stroke="white" stroke-width="1.5" pointer-events="none"/>
                </g>
                <g id="dirArrow">
                        <path fill="none" stroke="white" stroke-width="1.5" d="M0,-3.0v7 M-2.5,-0.5L0,-3.0L2.5,-0.5"/>
                </g>
               <g id="resetDef">
                       <use xlink:href="#rim2" fill="#404040">
                               <set attributeName="fill" to="#808080" begin="reset.mouseover" end="reset.mouseout"/>
                       </use>
               </g>
        </defs>

<script type="text/javascript">
var viewWidth = 579;
var viewHeight = 408;
var sectionId = 'dynsection-20';
</script>
<script xlink:href="svgpan.js"/>
<svg id="graph" class="graph">
<g id="viewport">
<title>lexer</title>
<!-- Node1 -->
<g id="node1" class="node">
<title>Node1</title>
<g id="a_node1"><a xlink:title="Global lexing function, that traverses readline&#39;s string and separate in tokens.">
<polygon fill="#bfbfbf" stroke="black" points="0,-171.5 0,-190.5 41,-190.5 41,-171.5 0,-171.5"/>
<text text-anchor="middle" x="20.5" y="-178.5" font-family="Helvetica,sans-Serif" font-size="10.00">lexer</text>
</a>
</g>
</g>
<!-- Node2 -->
<g id="node2" class="node">
<title>Node2</title>
<g id="a_node2"><a xlink:href="token__utils_8c.html#abe4c47d3831fc3c644e4b78391dfa502" target="_top" xlink:title="Method of append is a linked list with pointers.">
<polygon fill="none" stroke="black" points="77,-380.5 77,-399.5 162,-399.5 162,-380.5 77,-380.5"/>
<text text-anchor="middle" x="119.5" y="-387.5" font-family="Helvetica,sans-Serif" font-size="10.00">append_token</text>
</a>
</g>
</g>
<!-- Node1&#45;&gt;Node2 -->
<g id="edge1" class="edge">
<title>Node1&#45;&gt;Node2</title>
<path fill="none" stroke="midnightblue" d="M21.62,-190.59C22.5,-220.87 29.13,-315.63 77,-371 78.14,-372.32 79.39,-373.55 80.72,-374.7"/>
<polygon fill="midnightblue" stroke="midnightblue" points="78.86,-377.67 89.08,-380.44 82.82,-371.9 78.86,-377.67"/>
</g>
<!-- Node3 -->
<g id="node3" class="node">
<title>Node3</title>
<g id="a_node3"><a xlink:href="token__utils_8c.html#ab3d9f0b7ddaf8661f8a3b3243d33bce7" target="_top" xlink:title="Free t_token entire linked list.">
<polygon fill="none" stroke="black" points="82.5,-342.5 82.5,-361.5 156.5,-361.5 156.5,-342.5 82.5,-342.5"/>
<text text-anchor="middle" x="119.5" y="-349.5" font-family="Helvetica,sans-Serif" font-size="10.00">free_tokens</text>
</a>
</g>
</g>
<!-- Node1&#45;&gt;Node3 -->
<g id="edge2" class="edge">
<title>Node1&#45;&gt;Node3</title>
<path fill="none" stroke="midnightblue" d="M22.86,-190.73C26.86,-216.08 40.64,-285.16 77,-328 79.93,-331.45 83.48,-334.51 87.26,-337.2"/>
<polygon fill="midnightblue" stroke="midnightblue" points="85.42,-340.18 95.76,-342.5 89.12,-334.24 85.42,-340.18"/>
</g>
<!-- Node4 -->
<g id="node4" class="node">
<title>Node4</title>
<g id="a_node4"><a xlink:href="lexer_8c.html#a36667927c23670d83624ca9049adfc2d" target="_top" xlink:title="Check if the char is one of the possible operator, currently &#39;&lt;&#39;, &#39;&gt;&#39; or &#39;|&#39;.">
<polygon fill="none" stroke="black" points="340.5,-304.5 340.5,-323.5 438.5,-323.5 438.5,-304.5 340.5,-304.5"/>
<text text-anchor="middle" x="389.5" y="-311.5" font-family="Helvetica,sans-Serif" font-size="10.00">is_char_operator</text>
</a>
</g>
</g>
<!-- Node1&#45;&gt;Node4 -->
<g id="edge3" class="edge">
<title>Node1&#45;&gt;Node4</title>
<path fill="none" stroke="midnightblue" d="M32.06,-190.55C58.01,-213.38 127.95,-271 198,-295 240.72,-309.64 291.75,-314.09 330.24,-315.05"/>
<polygon fill="midnightblue" stroke="midnightblue" points="330.18,-318.54 340.24,-315.22 330.3,-311.55 330.18,-318.54"/>
</g>
<!-- Node5 -->
<g id="node5" class="node">
<title>Node5</title>
<g id="a_node5"><a xlink:href="lexer__utils_8c.html#a5226e7cc8fd04bded427425b8bee4439" target="_top" xlink:title="Initialize t_lexer.">
<polygon fill="none" stroke="black" points="93,-0.5 93,-19.5 146,-19.5 146,-0.5 93,-0.5"/>
<text text-anchor="middle" x="119.5" y="-7.5" font-family="Helvetica,sans-Serif" font-size="10.00">lex_init</text>
</a>
</g>
</g>
<!-- Node1&#45;&gt;Node5 -->
<g id="edge4" class="edge">
<title>Node1&#45;&gt;Node5</title>
<path fill="none" stroke="midnightblue" d="M22.86,-171.27C26.86,-145.92 40.64,-76.84 77,-34 79.93,-30.55 83.48,-27.49 87.26,-24.8"/>
<polygon fill="midnightblue" stroke="midnightblue" points="89.12,-27.76 95.76,-19.5 85.42,-21.82 89.12,-27.76"/>
</g>
<!-- Node6 -->
<g id="node6" class="node">
<title>Node6</title>
<g id="a_node6"><a xlink:href="lexer_8c.html#a4224de0ac9d722a19a477ae2880f54da" target="_top" xlink:title="Make the operator in the global string a token.">
<polygon fill="none" stroke="black" points="80.5,-114.5 80.5,-133.5 158.5,-133.5 158.5,-114.5 80.5,-114.5"/>
<text text-anchor="middle" x="119.5" y="-121.5" font-family="Helvetica,sans-Serif" font-size="10.00">lex_operator</text>
</a>
</g>
</g>
<!-- Node1&#45;&gt;Node6 -->
<g id="edge5" class="edge">
<title>Node1&#45;&gt;Node6</title>
<path fill="none" stroke="midnightblue" d="M37.5,-171.42C48.57,-164.8 63.66,-155.83 77,-148 82.24,-144.93 87.87,-141.65 93.24,-138.54"/>
<polygon fill="midnightblue" stroke="midnightblue" points="95.01,-141.56 101.91,-133.53 91.5,-135.5 95.01,-141.56"/>
</g>
<!-- Node8 -->
<g id="node8" class="node">
<title>Node8</title>
<g id="a_node8"><a xlink:href="token__utils_8c.html#a9fd4752dfeaa8c87b63c2c53710b28f5" target="_top" xlink:title="Build a token.">
<polygon fill="none" stroke="black" points="203.5,-152.5 203.5,-171.5 279.5,-171.5 279.5,-152.5 203.5,-152.5"/>
<text text-anchor="middle" x="241.5" y="-159.5" font-family="Helvetica,sans-Serif" font-size="10.00">make_token</text>
</a>
</g>
</g>
<!-- Node1&#45;&gt;Node8 -->
<g id="edge25" class="edge">
<title>Node1&#45;&gt;Node8</title>
<path fill="none" stroke="midnightblue" d="M41.32,-179.28C75.36,-176.33 145.82,-170.21 193.14,-166.11"/>
<polygon fill="midnightblue" stroke="midnightblue" points="193.5,-169.59 203.16,-165.24 192.89,-162.62 193.5,-169.59"/>
</g>
<!-- Node10 -->
<g id="node10" class="node">
<title>Node10</title>
<g id="a_node10"><a xlink:href="lexer__word_8c.html#a4093905b7d1dfe02710752ee5da8fe01" target="_top" xlink:title="Lexes the string to create a WORD token.">
<polygon fill="none" stroke="black" points="89,-190.5 89,-209.5 150,-209.5 150,-190.5 89,-190.5"/>
<text text-anchor="middle" x="119.5" y="-197.5" font-family="Helvetica,sans-Serif" font-size="10.00">lex_word</text>
</a>
</g>
</g>
<!-- Node1&#45;&gt;Node10 -->
<g id="edge9" class="edge">
<title>Node1&#45;&gt;Node10</title>
<path fill="none" stroke="midnightblue" d="M41.13,-184.84C51.96,-186.97 65.82,-189.68 78.8,-192.22"/>
<polygon fill="midnightblue" stroke="midnightblue" points="78.47,-195.72 88.95,-194.21 79.81,-188.86 78.47,-195.72"/>
</g>
<!-- Node18 -->
<g id="node18" class="node">
<title>Node18</title>
<g id="a_node18"><a xlink:href="lexer__utils_8c.html#a0665b31ffb5665ad2a085f2b1a5e0e25" target="_top" xlink:title="Skip whitespaces in the t_lexer struct.">
<polygon fill="none" stroke="black" points="347.5,-38.5 347.5,-57.5 431.5,-57.5 431.5,-38.5 347.5,-38.5"/>
<text text-anchor="middle" x="389.5" y="-45.5" font-family="Helvetica,sans-Serif" font-size="10.00">skip_wspaces</text>
</a>
</g>
</g>
<!-- Node1&#45;&gt;Node18 -->
<g id="edge26" class="edge">
<title>Node1&#45;&gt;Node18</title>
<path fill="none" stroke="midnightblue" d="M26.01,-171.29C34,-155.15 52.17,-122.81 77,-105 154.82,-49.19 270.95,-42.94 337.23,-44.64"/>
<polygon fill="midnightblue" stroke="midnightblue" points="337.32,-48.15 347.43,-44.98 337.55,-41.15 337.32,-48.15"/>
</g>
<!-- Node7 -->
<g id="node7" class="node">
<title>Node7</title>
<g id="a_node7"><a xlink:href="lexer__utils_8c.html#a6b132516dacc9599762b1fe7341a0f04" target="_top" xlink:title="Advance one byte in the struct t_lexer to keep track of progress.">
<polygon fill="none" stroke="black" points="503.5,-114.5 503.5,-133.5 561.5,-133.5 561.5,-114.5 503.5,-114.5"/>
<text text-anchor="middle" x="532.5" y="-121.5" font-family="Helvetica,sans-Serif" font-size="10.00">advance</text>
</a>
</g>
</g>
<!-- Node6&#45;&gt;Node7 -->
<g id="edge6" class="edge">
<title>Node6&#45;&gt;Node7</title>
<path fill="none" stroke="midnightblue" d="M158.51,-120.47C221.04,-115.2 349.51,-106.65 458,-114 469.51,-114.78 481.96,-116.24 493.29,-117.8"/>
<polygon fill="midnightblue" stroke="midnightblue" points="492.92,-121.29 503.32,-119.26 493.93,-114.36 492.92,-121.29"/>
</g>
<!-- Node6&#45;&gt;Node8 -->
<g id="edge7" class="edge">
<title>Node6&#45;&gt;Node8</title>
<path fill="none" stroke="midnightblue" d="M150.78,-133.59C165.85,-138.36 184.25,-144.19 200.47,-149.32"/>
<polygon fill="midnightblue" stroke="midnightblue" points="199.64,-152.73 210.23,-152.41 201.75,-146.06 199.64,-152.73"/>
</g>
<!-- Node9 -->
<g id="node9" class="node">
<title>Node9</title>
<g id="a_node9"><a xlink:href="lexer__utils_8c.html#a855a36981b55d317a52d24560c0809bf" target="_top" xlink:title="&quot;Peek&quot;, Look at the next character in the input string">
<polygon fill="none" stroke="black" points="221,-76.5 221,-95.5 262,-95.5 262,-76.5 221,-76.5"/>
<text text-anchor="middle" x="241.5" y="-83.5" font-family="Helvetica,sans-Serif" font-size="10.00">peek</text>
</a>
</g>
</g>
<!-- Node6&#45;&gt;Node9 -->
<g id="edge8" class="edge">
<title>Node6&#45;&gt;Node9</title>
<path fill="none" stroke="midnightblue" d="M150.78,-114.41C169.29,-108.55 192.86,-101.09 211.19,-95.28"/>
<polygon fill="midnightblue" stroke="midnightblue" points="212.29,-98.6 220.77,-92.25 210.18,-91.93 212.29,-98.6"/>
</g>
<!-- Node10&#45;&gt;Node8 -->
<g id="edge21" class="edge">
<title>Node10&#45;&gt;Node8</title>
<path fill="none" stroke="midnightblue" d="M150.16,-190.61C165.34,-185.8 184.02,-179.88 200.46,-174.68"/>
<polygon fill="midnightblue" stroke="midnightblue" points="201.87,-177.9 210.34,-171.55 199.75,-171.23 201.87,-177.9"/>
</g>
<!-- Node11 -->
<g id="node11" class="node">
<title>Node11</title>
<g id="a_node11"><a xlink:href="lexer__word_8c.html#a8c3afe25ab140f0d5490ae1a8389e162" target="_top" xlink:title=" ">
<polygon fill="none" stroke="black" points="198,-190.5 198,-209.5 285,-209.5 285,-190.5 198,-190.5"/>
<text text-anchor="middle" x="241.5" y="-197.5" font-family="Helvetica,sans-Serif" font-size="10.00">lex_word_loop</text>
</a>
</g>
</g>
<!-- Node10&#45;&gt;Node11 -->
<g id="edge10" class="edge">
<title>Node10&#45;&gt;Node11</title>
<path fill="none" stroke="midnightblue" d="M150.16,-200C161.44,-200 174.67,-200 187.46,-200"/>
<polygon fill="midnightblue" stroke="midnightblue" points="187.59,-203.5 197.59,-200 187.59,-196.5 187.59,-203.5"/>
</g>
<!-- Node16 -->
<g id="node16" class="node">
<title>Node16</title>
<g id="a_node16"><a xlink:href="string__builder_8c.html#a1bfdfae2d27c541b15b526d7d67b7577" target="_top" xlink:title="End and null terminate the string created in t_str_buf, reset the struct so it can be reused and retu...">
<polygon fill="none" stroke="black" points="204.5,-228.5 204.5,-247.5 278.5,-247.5 278.5,-228.5 204.5,-228.5"/>
<text text-anchor="middle" x="241.5" y="-235.5" font-family="Helvetica,sans-Serif" font-size="10.00">str_buf_end</text>
</a>
</g>
</g>
<!-- Node10&#45;&gt;Node16 -->
<g id="edge22" class="edge">
<title>Node10&#45;&gt;Node16</title>
<path fill="none" stroke="midnightblue" d="M150.16,-209.39C165.34,-214.2 184.02,-220.12 200.46,-225.32"/>
<polygon fill="midnightblue" stroke="midnightblue" points="199.75,-228.77 210.34,-228.45 201.87,-222.1 199.75,-228.77"/>
</g>
<!-- Node17 -->
<g id="node17" class="node">
<title>Node17</title>
<g id="a_node17"><a xlink:href="string__builder_8c.html#a2ff0766da574e4904598f3119c7d3749" target="_top" xlink:title=" ">
<polygon fill="none" stroke="black" points="206,-266.5 206,-285.5 277,-285.5 277,-266.5 206,-266.5"/>
<text text-anchor="middle" x="241.5" y="-273.5" font-family="Helvetica,sans-Serif" font-size="10.00">str_buf_init</text>
</a>
</g>
</g>
<!-- Node10&#45;&gt;Node17 -->
<g id="edge24" class="edge">
<title>Node10&#45;&gt;Node17</title>
<path fill="none" stroke="midnightblue" d="M131.78,-209.5C146.42,-221.54 173.03,-242.46 198,-257 201.03,-258.76 204.24,-260.47 207.5,-262.1"/>
<polygon fill="midnightblue" stroke="midnightblue" points="206.13,-265.32 216.67,-266.42 209.12,-258.99 206.13,-265.32"/>
</g>
<!-- Node11&#45;&gt;Node4 -->
<g id="edge15" class="edge">
<title>Node11&#45;&gt;Node4</title>
<path fill="none" stroke="midnightblue" d="M271.16,-209.56C276.16,-212.09 281.02,-215.21 285,-219 310.62,-243.4 294.44,-266.63 321,-290 325.72,-294.15 331.2,-297.6 336.97,-300.46"/>
<polygon fill="midnightblue" stroke="midnightblue" points="335.63,-303.69 346.19,-304.49 338.43,-297.28 335.63,-303.69"/>
</g>
<!-- Node11&#45;&gt;Node7 -->
<g id="edge11" class="edge">
<title>Node11&#45;&gt;Node7</title>
<path fill="none" stroke="midnightblue" d="M268.55,-190.3C274.21,-187.67 279.99,-184.55 285,-181 303.98,-167.55 300.06,-153.14 321,-143 376.33,-116.19 449.42,-116.34 493.31,-119.64"/>
<polygon fill="midnightblue" stroke="midnightblue" points="493.01,-123.12 503.27,-120.48 493.6,-116.15 493.01,-123.12"/>
</g>
<!-- Node12 -->
<g id="node12" class="node">
<title>Node12</title>
<g id="a_node12"><a xlink:href="lexer__word_8c.html#a088ba907ca2f9f7d89809627a5ef8313" target="_top" xlink:title="Lexes a segment delimited by double quotes.">
<polygon fill="none" stroke="black" points="321,-228.5 321,-247.5 458,-247.5 458,-228.5 321,-228.5"/>
<text text-anchor="middle" x="389.5" y="-235.5" font-family="Helvetica,sans-Serif" font-size="10.00">double_quoted_segment</text>
</a>
</g>
</g>
<!-- Node11&#45;&gt;Node12 -->
<g id="edge12" class="edge">
<title>Node11&#45;&gt;Node12</title>
<path fill="none" stroke="midnightblue" d="M279.34,-209.59C298.35,-214.54 321.73,-220.62 341.97,-225.89"/>
<polygon fill="midnightblue" stroke="midnightblue" points="341.36,-229.35 351.92,-228.48 343.13,-222.57 341.36,-229.35"/>
</g>
<!-- Node13 -->
<g id="node13" class="node">
<title>Node13</title>
<g id="a_node13"><a xlink:href="string__builder_8c.html#a2630bac2d2575ee6ecee7ed88e5f8296" target="_top" xlink:title="Put char in the struct t_str_buf so we can build a string in the struct. The point is to create the s...">
<polygon fill="none" stroke="black" points="494,-247.5 494,-266.5 571,-266.5 571,-247.5 494,-247.5"/>
<text text-anchor="middle" x="532.5" y="-254.5" font-family="Helvetica,sans-Serif" font-size="10.00">str_buf_putc</text>
</a>
</g>
</g>
<!-- Node11&#45;&gt;Node13 -->
<g id="edge20" class="edge">
<title>Node11&#45;&gt;Node13</title>
<path fill="none" stroke="midnightblue" d="M268.55,-209.7C274.21,-212.33 279.99,-215.45 285,-219 303.98,-232.45 299.63,-247.81 321,-257 373.32,-279.51 439.96,-274.61 484.09,-267.33"/>
<polygon fill="midnightblue" stroke="midnightblue" points="484.73,-270.77 493.97,-265.6 483.52,-263.88 484.73,-270.77"/>
</g>
<!-- Node14 -->
<g id="node14" class="node">
<title>Node14</title>
<g id="a_node14"><a xlink:href="lexer__word_8c.html#ad9e7809fee584699717eb691257a6ded" target="_top" xlink:title="Lexes a segment delimited by single quotes.">
<polygon fill="none" stroke="black" points="323,-190.5 323,-209.5 456,-209.5 456,-190.5 323,-190.5"/>
<text text-anchor="middle" x="389.5" y="-197.5" font-family="Helvetica,sans-Serif" font-size="10.00">single_quoted_segment</text>
</a>
</g>
</g>
<!-- Node11&#45;&gt;Node14 -->
<g id="edge16" class="edge">
<title>Node11&#45;&gt;Node14</title>
<path fill="none" stroke="midnightblue" d="M285.12,-200C293.78,-200 303.12,-200 312.53,-200"/>
<polygon fill="midnightblue" stroke="midnightblue" points="312.74,-203.5 322.74,-200 312.74,-196.5 312.74,-203.5"/>
</g>
<!-- Node15 -->
<g id="node15" class="node">
<title>Node15</title>
<g id="a_node15"><a xlink:href="string__builder_8c.html#a34739f65bf6f3e3e2b9e19dadf5fe217" target="_top" xlink:title=" ">
<polygon fill="none" stroke="black" points="352,-152.5 352,-171.5 427,-171.5 427,-152.5 352,-152.5"/>
<text text-anchor="middle" x="389.5" y="-159.5" font-family="Helvetica,sans-Serif" font-size="10.00">str_buf_free</text>
</a>
</g>
</g>
<!-- Node11&#45;&gt;Node15 -->
<g id="edge19" class="edge">
<title>Node11&#45;&gt;Node15</title>
<path fill="none" stroke="midnightblue" d="M279.34,-190.41C298.35,-185.46 321.73,-179.38 341.97,-174.11"/>
<polygon fill="midnightblue" stroke="midnightblue" points="343.13,-177.43 351.92,-171.52 341.36,-170.65 343.13,-177.43"/>
</g>
<!-- Node12&#45;&gt;Node7 -->
<g id="edge13" class="edge">
<title>Node12&#45;&gt;Node7</title>
<path fill="none" stroke="midnightblue" d="M439.02,-228.44C445.71,-225.97 452.25,-222.88 458,-219 487.24,-199.28 509.92,-164.16 521.95,-142.59"/>
<polygon fill="midnightblue" stroke="midnightblue" points="525.06,-144.2 526.71,-133.74 518.89,-140.89 525.06,-144.2"/>
</g>
<!-- Node12&#45;&gt;Node13 -->
<g id="edge14" class="edge">
<title>Node12&#45;&gt;Node13</title>
<path fill="none" stroke="midnightblue" d="M458.11,-247.11C466.76,-248.28 475.46,-249.45 483.7,-250.56"/>
<polygon fill="midnightblue" stroke="midnightblue" points="483.48,-254.06 493.85,-251.93 484.41,-247.12 483.48,-254.06"/>
</g>
<!-- Node14&#45;&gt;Node7 -->
<g id="edge17" class="edge">
<title>Node14&#45;&gt;Node7</title>
<path fill="none" stroke="midnightblue" d="M433.93,-190.45C442.14,-187.91 450.5,-184.78 458,-181 478.97,-170.43 499.84,-153.47 513.95,-140.79"/>
<polygon fill="midnightblue" stroke="midnightblue" points="516.45,-143.25 521.43,-133.9 511.7,-138.1 516.45,-143.25"/>
</g>
<!-- Node14&#45;&gt;Node13 -->
<g id="edge18" class="edge">
<title>Node14&#45;&gt;Node13</title>
<path fill="none" stroke="midnightblue" d="M429.5,-209.53C438.95,-212.23 448.94,-215.43 458,-219 474.61,-225.55 492.42,-234.7 506.35,-242.38"/>
<polygon fill="midnightblue" stroke="midnightblue" points="504.88,-245.57 515.31,-247.41 508.3,-239.46 504.88,-245.57"/>
</g>
<!-- Node16&#45;&gt;Node13 -->
<g id="edge23" class="edge">
<title>Node16&#45;&gt;Node13</title>
<path fill="none" stroke="midnightblue" d="M271.68,-247.7C276.52,-250.2 281.19,-253.27 285,-257 311.72,-283.14 289.42,-313.01 321,-333 372.45,-365.56 401.94,-356.77 458,-333 485.61,-321.29 507.92,-293.57 520.44,-275.04"/>
<polygon fill="midnightblue" stroke="midnightblue" points="523.44,-276.86 525.93,-266.56 517.56,-273.06 523.44,-276.86"/>
</g>
<!-- Node18&#45;&gt;Node7 -->
<g id="edge27" class="edge">
<title>Node18&#45;&gt;Node7</title>
<path fill="none" stroke="midnightblue" d="M423.19,-57.61C434.5,-61.45 447.07,-66.33 458,-72 477.53,-82.14 497.81,-96.85 512.11,-108.04"/>
<polygon fill="midnightblue" stroke="midnightblue" points="510.18,-110.98 520.17,-114.48 514.54,-105.51 510.18,-110.98"/>
</g>
</g>
</svg>
        <g id="navigator" transform="translate(0 0)" fill="#404254">
                <rect fill="#f2f5e9" fill-opacity="0.5" stroke="#606060" stroke-width=".5" x="0" y="0" width="60" height="60"/>
                <use id="zoomplus" xlink:href="#zoomPlus" x="17" y="9" onmousedown="handleZoom(evt,'in')"/>
                <use id="zoomminus" xlink:href="#zoomMin" x="42" y="9" onmousedown="handleZoom(evt,'out')"/>
                <use id="reset" xlink:href="#resetDef" x="30" y="36" onmousedown="handleReset()"/>
                <g id="arrowUp" xlink:href="#dirArrow" transform="translate(30 24)" onmousedown="handlePan(0,-1)">
                  <use xlink:href="#rim" fill="#404040">
                        <set attributeName="fill" to="#808080" begin="arrowUp.mouseover" end="arrowUp.mouseout"/>
                  </use>
                  <path fill="none" stroke="white" stroke-width="1.5" d="M0,-3.0v7 M-2.5,-0.5L0,-3.0L2.5,-0.5"/>
                </g>
                <g id="arrowRight" xlink:href="#dirArrow" transform="rotate(90) translate(36 -43)" onmousedown="handlePan(1,0)">
                  <use xlink:href="#rim" fill="#404040">
                        <set attributeName="fill" to="#808080" begin="arrowRight.mouseover" end="arrowRight.mouseout"/>
                  </use>
                  <path fill="none" stroke="white" stroke-width="1.5" d="M0,-3.0v7 M-2.5,-0.5L0,-3.0L2.5,-0.5"/>
                </g>
                <g id="arrowDown" xlink:href="#dirArrow" transform="rotate(180) translate(-30 -48)" onmousedown="handlePan(0,1)">
                  <use xlink:href="#rim" fill="#404040">
                        <set attributeName="fill" to="#808080" begin="arrowDown.mouseover" end="arrowDown.mouseout"/>
                  </use>
                  <path fill="none" stroke="white" stroke-width="1.5" d="M0,-3.0v7 M-2.5,-0.5L0,-3.0L2.5,-0.5"/>
                </g>
                <g id="arrowLeft" xlink:href="#dirArrow" transform="rotate(270) translate(-36 17)" onmousedown="handlePan(-1,0)">
                  <use xlink:href="#rim" fill="#404040">
                        <set attributeName="fill" to="#808080" begin="arrowLeft.mouseover" end="arrowLeft.mouseout"/>
                  </use>
                  <path fill="none" stroke="white" stroke-width="1.5" d="M0,-3.0v7 M-2.5,-0.5L0,-3.0L2.5,-0.5"/>
                </g>
        </g>
        <svg viewBox="0 0 15 15" width="100%" height="30px" preserveAspectRatio="xMaxYMin meet">
         <g id="arrow_out" transform="scale(0.3 0.3)">
          <a xlink:href="parsing_8h_a050765808030dae001e2dc9c076fee4f_cgraph_org.svg" target="_base">
           <rect id="button" ry="5" rx="5" y="6" x="6" height="38" width="38"
                fill="#f2f5e9" fill-opacity="0.5" stroke="#606060" stroke-width="1.0"/>
           <path id="arrow"
             d="M 11.500037,31.436501 C 11.940474,20.09759 22.043105,11.32322 32.158766,21.979434 L 37.068811,17.246167 C 37.068811,17.246167 37.088388,32 37.088388,32 L 22.160133,31.978069 C 22.160133,31.978069 26.997745,27.140456 26.997745,27.140456 C 18.528582,18.264221 13.291696,25.230495 11.500037,31.436501 z"
             style="fill:#404040;"/>
          </a>
         </g>
        </svg>
</svg>
