<?xml version="1.0" encoding="UTF-8" standalone="no"?>
<!DOCTYPE svg PUBLIC "-//W3C//DTD SVG 1.1//EN"
 "http://www.w3.org/Graphics/SVG/1.1/DTD/svg11.dtd">
<!-- Generated by graphviz version 2.43.0 (0)
 -->
<!-- Title: str_buf_putc Pages: 1 -->
<!--zoomable 334 -->
<svg id="main" version="1.1" xmlns="http://www.w3.org/2000/svg" xmlns:xlink="http://www.w3.org/1999/xlink" xml:space="preserve" onload="init(evt)">
<style type="text/css"><![CDATA[
.edge:hover path { stroke: red; }
.edge:hover polygon { stroke: red; fill: red; }
]]></style>
<script type="text/javascript"><![CDATA[
var edges = document.getElementsByTagName('g');
if (edges && edges.length) {
  for (var i=0;i<edges.length;i++) {
    if (edges[i].id.substr(0,4)=='edge') {
      edges[i].setAttribute('class','edge');
    }
  }
}
]]></script>
        <defs>
                <circle id="rim" cx="0" cy="0" r="7"/>
                <circle id="rim2" cx="0" cy="0" r="3.5"/>
                <g id="zoomPlus">
                        <use xlink:href="#rim" fill="#404040">
                                <set attributeName="fill" to="#808080" begin="zoomplus.mouseover" end="zoomplus.mouseout"/>
                        </use>
                        <path d="M-4,0h8M0,-4v8" fill="none" stroke="white" stroke-width="1.5" pointer-events="none"/>
                </g>
                <g id="zoomMin">
                        <use xlink:href="#rim" fill="#404040">
                                <set attributeName="fill" to="#808080" begin="zoomminus.mouseover" end="zoomminus.mouseout"/>
                        </use>
                        <path d="M-4,0h8" fill="none" stroke="white" stroke-width="1.5" pointer-events="none"/>
                </g>
                <g id="dirArrow">
                        <path fill="none" stroke="white" stroke-width="1.5" d="M0,-3.0v7 M-2.5,-0.5L0,-3.0L2.5,-0.5"/>
                </g>
               <g id="resetDef">
                       <use xlink:href="#rim2" fill="#404040">
                               <set attributeName="fill" to="#808080" begin="reset.mouseover" end="reset.mouseout"/>
                       </use>
               </g>
        </defs>

<script type="text/javascript">
var viewWidth = 834;
var viewHeight = 334;
var sectionId = 'dynsection-10';
</script>
<script xlink:href="svgpan.js"/>
<svg id="graph" class="graph">
<g id="viewport">
<title>str_buf_putc</title>
<!-- Node1 -->
<g id="node1" class="node">
<title>Node1</title>
<g id="a_node1"><a xlink:title="Put char in the struct t_str_buf so we can build a string in the struct. The point is to create the s...">
<polygon fill="#bfbfbf" stroke="black" points="749,-165.3 749,-184.3 826,-184.3 826,-165.3 749,-165.3"/>
<text text-anchor="middle" x="787.5" y="-172.3" font-family="Helvetica,sans-Serif" font-size="10.00">str_buf_putc</text>
</a>
</g>
</g>
<!-- Node2 -->
<g id="node2" class="node">
<title>Node2</title>
<g id="a_node2"><a xlink:href="lexer__word_8c.html#a088ba907ca2f9f7d89809627a5ef8313" target="_top" xlink:title="Lexes a segment delimited by double quotes.">
<polygon fill="none" stroke="black" points="576,-279.3 576,-298.3 713,-298.3 713,-279.3 576,-279.3"/>
<text text-anchor="middle" x="644.5" y="-286.3" font-family="Helvetica,sans-Serif" font-size="10.00">double_quoted_segment</text>
</a>
</g>
</g>
<!-- Node1&#45;&gt;Node2 -->
<g id="edge1" class="edge">
<title>Node1&#45;&gt;Node2</title>
<path fill="none" stroke="midnightblue" d="M776.95,-193.39C764.92,-214.96 742.24,-250.08 713,-269.8 707.25,-273.68 700.71,-276.77 694.02,-279.24"/>
<polygon fill="midnightblue" stroke="midnightblue" points="780.06,-195 781.71,-184.54 773.89,-191.68 780.06,-195"/>
</g>
<!-- Node3 -->
<g id="node3" class="node">
<title>Node3</title>
<g id="a_node3"><a xlink:href="lexer__word_8c.html#a4093905b7d1dfe02710752ee5da8fe01" target="_top" xlink:title="Lexes the string to create a WORD token.">
<polygon fill="none" stroke="black" points="465,-279.3 465,-298.3 526,-298.3 526,-279.3 465,-279.3"/>
<text text-anchor="middle" x="495.5" y="-286.3" font-family="Helvetica,sans-Serif" font-size="10.00">lex_word</text>
</a>
</g>
</g>
<!-- Node1&#45;&gt;Node3 -->
<g id="edge14" class="edge">
<title>Node1&#45;&gt;Node3</title>
<path fill="none" stroke="midnightblue" d="M782.3,-194.41C774.56,-224.99 754.89,-283.09 713,-307.8 650.28,-344.8 559.08,-315.21 517.99,-298.41"/>
<polygon fill="midnightblue" stroke="midnightblue" points="785.74,-195.04 784.62,-184.5 778.93,-193.44 785.74,-195.04"/>
</g>
<!-- Node6 -->
<g id="node6" class="node">
<title>Node6</title>
<g id="a_node6"><a xlink:href="expand__dollar_8c.html#a1cf0ce389e469994b9ddb06a944e531e" target="_top" xlink:title="Handle $? to expand on current error code.">
<polygon fill="none" stroke="black" points="451,-127.3 451,-146.3 540,-146.3 540,-127.3 451,-127.3"/>
<text text-anchor="middle" x="495.5" y="-134.3" font-family="Helvetica,sans-Serif" font-size="10.00">error_code_var</text>
</a>
</g>
</g>
<!-- Node1&#45;&gt;Node6 -->
<g id="edge5" class="edge">
<title>Node1&#45;&gt;Node6</title>
<path fill="none" stroke="midnightblue" d="M738.91,-165.17C730.31,-163.59 721.4,-162.06 713,-160.8 653.35,-151.82 583.99,-144.72 540.17,-140.63"/>
<polygon fill="midnightblue" stroke="midnightblue" points="738.35,-168.63 748.83,-167.04 739.65,-161.75 738.35,-168.63"/>
</g>
<!-- Node7 -->
<g id="node7" class="node">
<title>Node7</title>
<g id="a_node7"><a xlink:href="expand__dollar_8c.html#ac3e15865744ed2c1300a5cb96f24e33d" target="_top" xlink:title="Manages all possibilities with expand : $?, known and unknown env variable.">
<polygon fill="none" stroke="black" points="332,-134.3 332,-153.3 415,-153.3 415,-134.3 332,-134.3"/>
<text text-anchor="middle" x="373.5" y="-141.3" font-family="Helvetica,sans-Serif" font-size="10.00">handle_dollar</text>
</a>
</g>
</g>
<!-- Node1&#45;&gt;Node7 -->
<g id="edge11" class="edge">
<title>Node1&#45;&gt;Node7</title>
<path fill="none" stroke="midnightblue" d="M738.55,-173.57C673.33,-171.57 553.07,-166.67 451,-155.8 439.37,-154.56 426.81,-152.78 415.29,-150.96"/>
<polygon fill="midnightblue" stroke="midnightblue" points="738.82,-177.08 748.92,-173.88 739.02,-170.09 738.82,-177.08"/>
</g>
<!-- Node8 -->
<g id="node8" class="node">
<title>Node8</title>
<g id="a_node8"><a xlink:href="expand__word_8c.html#a0ec378990f411456436a9bb6a71babfc" target="_top" xlink:title="Scans the word to dequote/expand and build correct output.">
<polygon fill="none" stroke="black" points="214,-134.3 214,-153.3 296,-153.3 296,-134.3 214,-134.3"/>
<text text-anchor="middle" x="255" y="-141.3" font-family="Helvetica,sans-Serif" font-size="10.00">expand_word</text>
</a>
</g>
</g>
<!-- Node1&#45;&gt;Node8 -->
<g id="edge10" class="edge">
<title>Node1&#45;&gt;Node8</title>
<path fill="none" stroke="midnightblue" d="M781.5,-155.15C772.93,-126.09 752.45,-72.53 713,-48.8 567.22,38.9 481.06,-3.78 332,-85.8 306.7,-99.72 280.68,-121.51 266.61,-134.04"/>
<polygon fill="midnightblue" stroke="midnightblue" points="778.17,-156.27 784.21,-164.97 784.92,-154.4 778.17,-156.27"/>
</g>
<!-- Node10 -->
<g id="node10" class="node">
<title>Node10</title>
<g id="a_node10"><a xlink:href="expand__word_8c.html#ae5fd7fdfce4171a392a4f6c781f4e813" target="_top" xlink:title="Dequotes and manage quote state to expand correctly.">
<polygon fill="none" stroke="black" points="451.5,-51.3 451.5,-70.3 539.5,-70.3 539.5,-51.3 451.5,-51.3"/>
<text text-anchor="middle" x="495.5" y="-58.3" font-family="Helvetica,sans-Serif" font-size="10.00">handle_quotes</text>
</a>
</g>
</g>
<!-- Node1&#45;&gt;Node10 -->
<g id="edge12" class="edge">
<title>Node1&#45;&gt;Node10</title>
<path fill="none" stroke="midnightblue" d="M777.89,-155.92C766.53,-133.47 744.26,-96.87 713,-79.8 658.86,-50.23 585.56,-50.68 539.67,-54.86"/>
<polygon fill="midnightblue" stroke="midnightblue" points="774.83,-157.64 782.33,-165.12 781.14,-154.6 774.83,-157.64"/>
</g>
<!-- Node11 -->
<g id="node11" class="node">
<title>Node11</title>
<g id="a_node11"><a xlink:href="lexer__word_8c.html#ad9e7809fee584699717eb691257a6ded" target="_top" xlink:title="Lexes a segment delimited by single quotes.">
<polygon fill="none" stroke="black" points="578,-241.3 578,-260.3 711,-260.3 711,-241.3 578,-241.3"/>
<text text-anchor="middle" x="644.5" y="-248.3" font-family="Helvetica,sans-Serif" font-size="10.00">single_quoted_segment</text>
</a>
</g>
</g>
<!-- Node1&#45;&gt;Node11 -->
<g id="edge15" class="edge">
<title>Node1&#45;&gt;Node11</title>
<path fill="none" stroke="midnightblue" d="M768.95,-191.59C754.84,-204.26 733.97,-221.22 713,-231.8 705.5,-235.58 697.14,-238.7 688.93,-241.25"/>
<polygon fill="midnightblue" stroke="midnightblue" points="771.45,-194.05 776.43,-184.7 766.7,-188.9 771.45,-194.05"/>
</g>
<!-- Node12 -->
<g id="node12" class="node">
<title>Node12</title>
<g id="a_node12"><a xlink:href="string__builder_8c.html#a1bfdfae2d27c541b15b526d7d67b7577" target="_top" xlink:title="End and null terminate the string created in t_str_buf, reset the struct so it can be reused and retu...">
<polygon fill="none" stroke="black" points="607.5,-203.3 607.5,-222.3 681.5,-222.3 681.5,-203.3 607.5,-203.3"/>
<text text-anchor="middle" x="644.5" y="-210.3" font-family="Helvetica,sans-Serif" font-size="10.00">str_buf_end</text>
</a>
</g>
</g>
<!-- Node1&#45;&gt;Node12 -->
<g id="edge17" class="edge">
<title>Node1&#45;&gt;Node12</title>
<path fill="none" stroke="midnightblue" d="M741.06,-187.04C721.63,-192.28 699.27,-198.31 681.07,-203.21"/>
<polygon fill="midnightblue" stroke="midnightblue" points="742.18,-190.37 750.92,-184.39 740.35,-183.61 742.18,-190.37"/>
</g>
<!-- Node13 -->
<g id="node13" class="node">
<title>Node13</title>
<g id="a_node13"><a xlink:href="string__builder_8c.html#a4bb0bb42cbf7ca9f7feff204d3059306" target="_top" xlink:title="Put a null terminated string in the t_str_buf struct.">
<polygon fill="none" stroke="black" points="606,-89.3 606,-108.3 683,-108.3 683,-89.3 606,-89.3"/>
<text text-anchor="middle" x="644.5" y="-96.3" font-family="Helvetica,sans-Serif" font-size="10.00">str_buf_puts</text>
</a>
</g>
</g>
<!-- Node1&#45;&gt;Node13 -->
<g id="edge21" class="edge">
<title>Node1&#45;&gt;Node13</title>
<path fill="none" stroke="midnightblue" d="M767.11,-158.84C752.81,-147.65 732.53,-132.93 713,-122.8 702.07,-117.13 689.5,-112.25 678.19,-108.41"/>
<polygon fill="midnightblue" stroke="midnightblue" points="765.18,-161.78 775.17,-165.28 769.54,-156.3 765.18,-161.78"/>
</g>
<!-- Node2&#45;&gt;Node3 -->
<g id="edge2" class="edge">
<title>Node2&#45;&gt;Node3</title>
<path fill="none" stroke="midnightblue" d="M565.44,-288.8C551.5,-288.8 537.79,-288.8 526.3,-288.8"/>
<polygon fill="midnightblue" stroke="midnightblue" points="565.59,-292.3 575.59,-288.8 565.59,-285.3 565.59,-292.3"/>
</g>
<!-- Node4 -->
<g id="node4" class="node">
<title>Node4</title>
<g id="a_node4"><a xlink:href="lexer_8c.html#aced469451204cf536fd18b4cf94f6b91" target="_top" xlink:title="Global lexing function, that traverses readline&#39;s string and separate in tokens.">
<polygon fill="none" stroke="black" points="234.5,-271.3 234.5,-290.3 275.5,-290.3 275.5,-271.3 234.5,-271.3"/>
<text text-anchor="middle" x="255" y="-278.3" font-family="Helvetica,sans-Serif" font-size="10.00">lexer</text>
</a>
</g>
</g>
<!-- Node3&#45;&gt;Node4 -->
<g id="edge3" class="edge">
<title>Node3&#45;&gt;Node4</title>
<path fill="none" stroke="midnightblue" d="M454.64,-287.46C402.95,-285.73 314.78,-282.77 275.68,-281.46"/>
<polygon fill="midnightblue" stroke="midnightblue" points="454.66,-290.96 464.78,-287.8 454.9,-283.97 454.66,-290.96"/>
</g>
<!-- Node5 -->
<g id="node5" class="node">
<title>Node5</title>
<g id="a_node5"><a xlink:href="main_8c.html#a647f21a28344e1d9c643f4115516d7c9" target="_top" xlink:title=" ">
<polygon fill="none" stroke="black" points="0,-210.3 0,-229.3 41,-229.3 41,-210.3 0,-210.3"/>
<text text-anchor="middle" x="20.5" y="-217.3" font-family="Helvetica,sans-Serif" font-size="10.00">main</text>
</a>
</g>
</g>
<!-- Node4&#45;&gt;Node5 -->
<g id="edge4" class="edge">
<title>Node4&#45;&gt;Node5</title>
<path fill="none" stroke="midnightblue" d="M224.35,-273.02C176.17,-260.38 82.15,-235.71 41.27,-224.99"/>
<polygon fill="midnightblue" stroke="midnightblue" points="223.62,-276.44 234.18,-275.6 225.39,-269.67 223.62,-276.44"/>
</g>
<!-- Node6&#45;&gt;Node7 -->
<g id="edge6" class="edge">
<title>Node6&#45;&gt;Node7</title>
<path fill="none" stroke="midnightblue" d="M440.83,-139.93C432.2,-140.43 423.39,-140.95 415.14,-141.43"/>
<polygon fill="midnightblue" stroke="midnightblue" points="441.06,-143.42 450.84,-139.34 440.65,-136.43 441.06,-143.42"/>
</g>
<!-- Node7&#45;&gt;Node8 -->
<g id="edge7" class="edge">
<title>Node7&#45;&gt;Node8</title>
<path fill="none" stroke="midnightblue" d="M321.54,-143.8C313.03,-143.8 304.32,-143.8 296.13,-143.8"/>
<polygon fill="midnightblue" stroke="midnightblue" points="321.75,-147.3 331.75,-143.8 321.75,-140.3 321.75,-147.3"/>
</g>
<!-- Node9 -->
<g id="node9" class="node">
<title>Node9</title>
<g id="a_node9"><a xlink:href="expand_8c.html#a53c53e75b0ad8c8888217cd918304b8b" target="_top" xlink:title="Iterate over every args and redir of each command to expand and dequote what needs to be.">
<polygon fill="none" stroke="black" points="77,-191.3 77,-210.3 178,-210.3 178,-191.3 77,-191.3"/>
<text text-anchor="middle" x="127.5" y="-198.3" font-family="Helvetica,sans-Serif" font-size="10.00">expand_manager</text>
</a>
</g>
</g>
<!-- Node8&#45;&gt;Node9 -->
<g id="edge8" class="edge">
<title>Node8&#45;&gt;Node9</title>
<path fill="none" stroke="midnightblue" d="M223.71,-157.55C200.78,-167.97 169.87,-182.01 149.57,-191.23"/>
<polygon fill="midnightblue" stroke="midnightblue" points="225.34,-160.66 232.99,-153.34 222.44,-154.29 225.34,-160.66"/>
</g>
<!-- Node9&#45;&gt;Node5 -->
<g id="edge9" class="edge">
<title>Node9&#45;&gt;Node5</title>
<path fill="none" stroke="midnightblue" d="M66.72,-211.61C57.53,-213.28 48.64,-214.89 41.2,-216.23"/>
<polygon fill="midnightblue" stroke="midnightblue" points="67.55,-215.02 76.77,-209.8 66.3,-208.13 67.55,-215.02"/>
</g>
<!-- Node10&#45;&gt;Node8 -->
<g id="edge13" class="edge">
<title>Node10&#45;&gt;Node8</title>
<path fill="none" stroke="midnightblue" d="M457.42,-73.7C409.25,-90.47 326.27,-119.34 283.41,-134.26"/>
<polygon fill="midnightblue" stroke="midnightblue" points="458.85,-76.91 467.14,-70.32 456.55,-70.3 458.85,-76.91"/>
</g>
<!-- Node11&#45;&gt;Node3 -->
<g id="edge16" class="edge">
<title>Node11&#45;&gt;Node3</title>
<path fill="none" stroke="midnightblue" d="M596.47,-262.96C573.41,-268.92 546.33,-275.92 526.18,-281.12"/>
<polygon fill="midnightblue" stroke="midnightblue" points="597.6,-266.28 606.41,-260.39 595.85,-259.5 597.6,-266.28"/>
</g>
<!-- Node12&#45;&gt;Node3 -->
<g id="edge20" class="edge">
<title>Node12&#45;&gt;Node3</title>
<path fill="none" stroke="midnightblue" d="M597.53,-222.6C590.09,-225.06 582.66,-228.09 576,-231.8 557.04,-242.36 557.63,-252.13 540,-264.8 532.58,-270.13 523.84,-275.16 516.15,-279.23"/>
<polygon fill="midnightblue" stroke="midnightblue" points="598.67,-225.91 607.24,-219.68 596.65,-219.21 598.67,-225.91"/>
</g>
<!-- Node12&#45;&gt;Node7 -->
<g id="edge19" class="edge">
<title>Node12&#45;&gt;Node7</title>
<path fill="none" stroke="midnightblue" d="M597.22,-212.26C557.47,-210.58 499.15,-205.18 451,-188.8 426.64,-180.51 401.51,-163.89 386.98,-153.33"/>
<polygon fill="midnightblue" stroke="midnightblue" points="597.29,-215.77 607.41,-212.63 597.54,-208.77 597.29,-215.77"/>
</g>
<!-- Node12&#45;&gt;Node8 -->
<g id="edge18" class="edge">
<title>Node12&#45;&gt;Node8</title>
<path fill="none" stroke="midnightblue" d="M597.3,-216.79C558.07,-219.18 500.43,-220.3 451,-211.8 384.75,-200.4 310.94,-169.22 276.18,-153.35"/>
<polygon fill="midnightblue" stroke="midnightblue" points="597.61,-220.28 607.36,-216.13 597.15,-213.29 597.61,-220.28"/>
</g>
<!-- Node13&#45;&gt;Node6 -->
<g id="edge22" class="edge">
<title>Node13&#45;&gt;Node6</title>
<path fill="none" stroke="midnightblue" d="M596.65,-110.91C576.17,-116.2 552.51,-122.32 533.33,-127.28"/>
<polygon fill="midnightblue" stroke="midnightblue" points="597.6,-114.28 606.41,-108.39 595.85,-107.5 597.6,-114.28"/>
</g>
<!-- Node13&#45;&gt;Node7 -->
<g id="edge23" class="edge">
<title>Node13&#45;&gt;Node7</title>
<path fill="none" stroke="midnightblue" d="M595.76,-100.47C556.52,-102.57 499.66,-107.27 451,-117.8 432.77,-121.74 412.83,-128.61 397.88,-134.29"/>
<polygon fill="midnightblue" stroke="midnightblue" points="596.03,-103.96 605.84,-99.97 595.68,-96.97 596.03,-103.96"/>
</g>
</g>
</svg>
        <g id="navigator" transform="translate(0 0)" fill="#404254">
                <rect fill="#f2f5e9" fill-opacity="0.5" stroke="#606060" stroke-width=".5" x="0" y="0" width="60" height="60"/>
                <use id="zoomplus" xlink:href="#zoomPlus" x="17" y="9" onmousedown="handleZoom(evt,'in')"/>
                <use id="zoomminus" xlink:href="#zoomMin" x="42" y="9" onmousedown="handleZoom(evt,'out')"/>
                <use id="reset" xlink:href="#resetDef" x="30" y="36" onmousedown="handleReset()"/>
                <g id="arrowUp" xlink:href="#dirArrow" transform="translate(30 24)" onmousedown="handlePan(0,-1)">
                  <use xlink:href="#rim" fill="#404040">
                        <set attributeName="fill" to="#808080" begin="arrowUp.mouseover" end="arrowUp.mouseout"/>
                  </use>
                  <path fill="none" stroke="white" stroke-width="1.5" d="M0,-3.0v7 M-2.5,-0.5L0,-3.0L2.5,-0.5"/>
                </g>
                <g id="arrowRight" xlink:href="#dirArrow" transform="rotate(90) translate(36 -43)" onmousedown="handlePan(1,0)">
                  <use xlink:href="#rim" fill="#404040">
                        <set attributeName="fill" to="#808080" begin="arrowRight.mouseover" end="arrowRight.mouseout"/>
                  </use>
                  <path fill="none" stroke="white" stroke-width="1.5" d="M0,-3.0v7 M-2.5,-0.5L0,-3.0L2.5,-0.5"/>
                </g>
                <g id="arrowDown" xlink:href="#dirArrow" transform="rotate(180) translate(-30 -48)" onmousedown="handlePan(0,1)">
                  <use xlink:href="#rim" fill="#404040">
                        <set attributeName="fill" to="#808080" begin="arrowDown.mouseover" end="arrowDown.mouseout"/>
                  </use>
                  <path fill="none" stroke="white" stroke-width="1.5" d="M0,-3.0v7 M-2.5,-0.5L0,-3.0L2.5,-0.5"/>
                </g>
                <g id="arrowLeft" xlink:href="#dirArrow" transform="rotate(270) translate(-36 17)" onmousedown="handlePan(-1,0)">
                  <use xlink:href="#rim" fill="#404040">
                        <set attributeName="fill" to="#808080" begin="arrowLeft.mouseover" end="arrowLeft.mouseout"/>
                  </use>
                  <path fill="none" stroke="white" stroke-width="1.5" d="M0,-3.0v7 M-2.5,-0.5L0,-3.0L2.5,-0.5"/>
                </g>
        </g>
        <svg viewBox="0 0 15 15" width="100%" height="30px" preserveAspectRatio="xMaxYMin meet">
         <g id="arrow_out" transform="scale(0.3 0.3)">
          <a xlink:href="parsing__helpers_8h_a54e602a5da87bd89687c69c2d86f34d2_icgraph_org.svg" target="_base">
           <rect id="button" ry="5" rx="5" y="6" x="6" height="38" width="38"
                fill="#f2f5e9" fill-opacity="0.5" stroke="#606060" stroke-width="1.0"/>
           <path id="arrow"
             d="M 11.500037,31.436501 C 11.940474,20.09759 22.043105,11.32322 32.158766,21.979434 L 37.068811,17.246167 C 37.068811,17.246167 37.088388,32 37.088388,32 L 22.160133,31.978069 C 22.160133,31.978069 26.997745,27.140456 26.997745,27.140456 C 18.528582,18.264221 13.291696,25.230495 11.500037,31.436501 z"
             style="fill:#404040;"/>
          </a>
         </g>
        </svg>
</svg>
