<?xml version="1.0" encoding="UTF-8" standalone="no"?>
<!DOCTYPE svg PUBLIC "-//W3C//DTD SVG 1.1//EN"
 "http://www.w3.org/Graphics/SVG/1.1/DTD/svg11.dtd">
<!-- Generated by graphviz version 2.43.0 (0)
 -->
<!-- Title: parse_redir Pages: 1 -->
<svg width="777pt" height="142pt"
 viewBox="0.00 0.00 777.00 142.00" xmlns="http://www.w3.org/2000/svg" xmlns:xlink="http://www.w3.org/1999/xlink">
<g id="graph0" class="graph" transform="scale(1 1) rotate(0) translate(4 138)">
<title>parse_redir</title>
<!-- Node1 -->
<g id="node1" class="node">
<title>Node1</title>
<g id="a_node1"><a xlink:title=" ">
<polygon fill="#bfbfbf" stroke="black" points="0,-76.5 0,-95.5 71,-95.5 71,-76.5 0,-76.5"/>
<text text-anchor="middle" x="35.5" y="-83.5" font-family="Helvetica,sans-Serif" font-size="10.00">parse_redir</text>
</a>
</g>
</g>
<!-- Node2 -->
<g id="node2" class="node">
<title>Node2</title>
<g id="a_node2"><a xlink:href="lst__redir_8c.html#acb0801286560639fb0d37901d566a3e5" target="_top" xlink:title=" ">
<polygon fill="none" stroke="black" points="107,-114.5 107,-133.5 211,-133.5 211,-114.5 107,-114.5"/>
<text text-anchor="middle" x="159" y="-121.5" font-family="Helvetica,sans-Serif" font-size="10.00">create_node_redir</text>
</a>
</g>
</g>
<!-- Node1&#45;&gt;Node2 -->
<g id="edge1" class="edge">
<title>Node1&#45;&gt;Node2</title>
<path fill="none" stroke="midnightblue" d="M67.16,-95.59C82.41,-100.36 101.05,-106.19 117.47,-111.32"/>
<polygon fill="midnightblue" stroke="midnightblue" points="116.76,-114.77 127.35,-114.41 118.85,-108.09 116.76,-114.77"/>
</g>
<!-- Node3 -->
<g id="node3" class="node">
<title>Node3</title>
<g id="a_node3"><a xlink:href="parser__utils_8c.html#aa186cacc84a5d4dc8cd19bc371be0b61" target="_top" xlink:title=" ">
<polygon fill="none" stroke="black" points="129.5,-76.5 129.5,-95.5 188.5,-95.5 188.5,-76.5 129.5,-76.5"/>
<text text-anchor="middle" x="159" y="-83.5" font-family="Helvetica,sans-Serif" font-size="10.00">cur_next</text>
</a>
</g>
</g>
<!-- Node1&#45;&gt;Node3 -->
<g id="edge2" class="edge">
<title>Node1&#45;&gt;Node3</title>
<path fill="none" stroke="midnightblue" d="M71.32,-86C86.24,-86 103.74,-86 119.1,-86"/>
<polygon fill="midnightblue" stroke="midnightblue" points="119.32,-89.5 129.32,-86 119.32,-82.5 119.32,-89.5"/>
</g>
<!-- Node4 -->
<g id="node4" class="node">
<title>Node4</title>
<g id="a_node4"><a xlink:href="parser_8c.html#a3902c1c0f51a35acf377da51345103b7" target="_top" xlink:title=" ">
<polygon fill="none" stroke="black" points="109.5,-38.5 109.5,-57.5 208.5,-57.5 208.5,-38.5 109.5,-38.5"/>
<text text-anchor="middle" x="159" y="-45.5" font-family="Helvetica,sans-Serif" font-size="10.00">parser_exit_fatal</text>
</a>
</g>
</g>
<!-- Node1&#45;&gt;Node4 -->
<g id="edge3" class="edge">
<title>Node1&#45;&gt;Node4</title>
<path fill="none" stroke="midnightblue" d="M67.16,-76.41C82.41,-71.64 101.05,-65.81 117.47,-60.68"/>
<polygon fill="midnightblue" stroke="midnightblue" points="118.85,-63.91 127.35,-57.59 116.76,-57.23 118.85,-63.91"/>
</g>
<!-- Node5 -->
<g id="node5" class="node">
<title>Node5</title>
<g id="a_node5"><a xlink:href="lst__cmd2_8c.html#a132395876bb5a7cfe926b9e37571a1e3" target="_top" xlink:title=" ">
<polygon fill="none" stroke="black" points="247,-76.5 247,-95.5 339,-95.5 339,-76.5 247,-76.5"/>
<text text-anchor="middle" x="293" y="-83.5" font-family="Helvetica,sans-Serif" font-size="10.00">destructor_cmd</text>
</a>
</g>
</g>
<!-- Node4&#45;&gt;Node5 -->
<g id="edge4" class="edge">
<title>Node4&#45;&gt;Node5</title>
<path fill="none" stroke="midnightblue" d="M193.31,-57.59C210.19,-62.45 230.89,-68.41 248.97,-73.61"/>
<polygon fill="midnightblue" stroke="midnightblue" points="248.12,-77.01 258.7,-76.41 250.06,-70.28 248.12,-77.01"/>
</g>
<!-- Node10 -->
<g id="node10" class="node">
<title>Node10</title>
<g id="a_node10"><a xlink:href="lst__env_8c.html#a226ae0aa054e697998b2ecbc5d61d592" target="_top" xlink:title=" ">
<polygon fill="none" stroke="black" points="248.5,-38.5 248.5,-57.5 337.5,-57.5 337.5,-38.5 248.5,-38.5"/>
<text text-anchor="middle" x="293" y="-45.5" font-family="Helvetica,sans-Serif" font-size="10.00">destructor_env</text>
</a>
</g>
</g>
<!-- Node4&#45;&gt;Node10 -->
<g id="edge10" class="edge">
<title>Node4&#45;&gt;Node10</title>
<path fill="none" stroke="midnightblue" d="M208.78,-48C218.27,-48 228.27,-48 237.92,-48"/>
<polygon fill="midnightblue" stroke="midnightblue" points="238.22,-51.5 248.22,-48 238.22,-44.5 238.22,-51.5"/>
</g>
<!-- Node12 -->
<g id="node12" class="node">
<title>Node12</title>
<g id="a_node12"><a xlink:href="token__utils_8c.html#ab3d9f0b7ddaf8661f8a3b3243d33bce7" target="_top" xlink:title="Free t_token entire linked list.">
<polygon fill="none" stroke="black" points="256,-0.5 256,-19.5 330,-19.5 330,-0.5 256,-0.5"/>
<text text-anchor="middle" x="293" y="-7.5" font-family="Helvetica,sans-Serif" font-size="10.00">free_tokens</text>
</a>
</g>
</g>
<!-- Node4&#45;&gt;Node12 -->
<g id="edge12" class="edge">
<title>Node4&#45;&gt;Node12</title>
<path fill="none" stroke="midnightblue" d="M193.31,-38.41C210.19,-33.55 230.89,-27.59 248.97,-22.39"/>
<polygon fill="midnightblue" stroke="midnightblue" points="250.06,-25.72 258.7,-19.59 248.12,-18.99 250.06,-25.72"/>
</g>
<!-- Node6 -->
<g id="node6" class="node">
<title>Node6</title>
<g id="a_node6"><a xlink:href="lst__cmd2_8c.html#a8e2b63759f149b547e0d07f210ede9b3" target="_top" xlink:title=" ">
<polygon fill="none" stroke="black" points="375,-76.5 375,-95.5 436,-95.5 436,-76.5 375,-76.5"/>
<text text-anchor="middle" x="405.5" y="-83.5" font-family="Helvetica,sans-Serif" font-size="10.00">pop_cmd</text>
</a>
</g>
</g>
<!-- Node5&#45;&gt;Node6 -->
<g id="edge5" class="edge">
<title>Node5&#45;&gt;Node6</title>
<path fill="none" stroke="midnightblue" d="M339.26,-86C347.73,-86 356.52,-86 364.8,-86"/>
<polygon fill="midnightblue" stroke="midnightblue" points="364.95,-89.5 374.95,-86 364.95,-82.5 364.95,-89.5"/>
</g>
<!-- Node7 -->
<g id="node7" class="node">
<title>Node7</title>
<g id="a_node7"><a xlink:href="lst__redir2_8c.html#a30ccaf401a4f897e48ead5fe54f4b307" target="_top" xlink:title=" ">
<polygon fill="none" stroke="black" points="472,-95.5 472,-114.5 566,-114.5 566,-95.5 472,-95.5"/>
<text text-anchor="middle" x="519" y="-102.5" font-family="Helvetica,sans-Serif" font-size="10.00">destructor_redir</text>
</a>
</g>
</g>
<!-- Node6&#45;&gt;Node7 -->
<g id="edge6" class="edge">
<title>Node6&#45;&gt;Node7</title>
<path fill="none" stroke="midnightblue" d="M436.09,-91.04C444.06,-92.4 452.95,-93.91 461.85,-95.43"/>
<polygon fill="midnightblue" stroke="midnightblue" points="461.42,-98.91 471.86,-97.14 462.59,-92.01 461.42,-98.91"/>
</g>
<!-- Node9 -->
<g id="node9" class="node">
<title>Node9</title>
<g id="a_node9"><a xlink:href="utils_8c.html#a1bca6910c90a19d96b36506a2e2cebf6" target="_top" xlink:title="as fd are all setup to &#45;1 at the beginning we check if they are open before trying to close we avoid ...">
<polygon fill="none" stroke="black" points="700,-76.5 700,-95.5 769,-95.5 769,-76.5 700,-76.5"/>
<text text-anchor="middle" x="734.5" y="-83.5" font-family="Helvetica,sans-Serif" font-size="10.00">ft_close_fd</text>
</a>
</g>
</g>
<!-- Node6&#45;&gt;Node9 -->
<g id="edge9" class="edge">
<title>Node6&#45;&gt;Node9</title>
<path fill="none" stroke="midnightblue" d="M436.1,-86C493.85,-86 621.82,-86 689.53,-86"/>
<polygon fill="midnightblue" stroke="midnightblue" points="689.86,-89.5 699.86,-86 689.85,-82.5 689.86,-89.5"/>
</g>
<!-- Node8 -->
<g id="node8" class="node">
<title>Node8</title>
<g id="a_node8"><a xlink:href="lst__redir2_8c.html#ade8f0bdda51d9bf348ebeb38fefba881" target="_top" xlink:title=" ">
<polygon fill="none" stroke="black" points="602,-95.5 602,-114.5 664,-114.5 664,-95.5 602,-95.5"/>
<text text-anchor="middle" x="633" y="-102.5" font-family="Helvetica,sans-Serif" font-size="10.00">pop_redir</text>
</a>
</g>
</g>
<!-- Node7&#45;&gt;Node8 -->
<g id="edge7" class="edge">
<title>Node7&#45;&gt;Node8</title>
<path fill="none" stroke="midnightblue" d="M566.2,-105C574.67,-105 583.46,-105 591.74,-105"/>
<polygon fill="midnightblue" stroke="midnightblue" points="591.9,-108.5 601.9,-105 591.9,-101.5 591.9,-108.5"/>
</g>
<!-- Node8&#45;&gt;Node9 -->
<g id="edge8" class="edge">
<title>Node8&#45;&gt;Node9</title>
<path fill="none" stroke="midnightblue" d="M664.12,-99.25C672.18,-97.71 681.06,-96.01 689.69,-94.37"/>
<polygon fill="midnightblue" stroke="midnightblue" points="690.49,-97.78 699.65,-92.46 689.17,-90.9 690.49,-97.78"/>
</g>
<!-- Node11 -->
<g id="node11" class="node">
<title>Node11</title>
<g id="a_node11"><a xlink:href="lst__env_8c.html#a058c245b5f2ef22f9d2659f90e4d3537" target="_top" xlink:title=" ">
<polygon fill="none" stroke="black" points="376.5,-38.5 376.5,-57.5 434.5,-57.5 434.5,-38.5 376.5,-38.5"/>
<text text-anchor="middle" x="405.5" y="-45.5" font-family="Helvetica,sans-Serif" font-size="10.00">pop_env</text>
</a>
</g>
</g>
<!-- Node10&#45;&gt;Node11 -->
<g id="edge11" class="edge">
<title>Node10&#45;&gt;Node11</title>
<path fill="none" stroke="midnightblue" d="M337.67,-48C347.14,-48 357.08,-48 366.32,-48"/>
<polygon fill="midnightblue" stroke="midnightblue" points="366.38,-51.5 376.38,-48 366.38,-44.5 366.38,-51.5"/>
</g>
</g>
</svg>
