<?xml version="1.0" encoding="UTF-8" standalone="no"?>
<!DOCTYPE svg PUBLIC "-//W3C//DTD SVG 1.1//EN"
 "http://www.w3.org/Graphics/SVG/1.1/DTD/svg11.dtd">
<!-- Generated by graphviz version 2.43.0 (0)
 -->
<!-- Title: str_buf_putc Pages: 1 -->
<!--zoomable 377 -->
<svg id="main" version="1.1" xmlns="http://www.w3.org/2000/svg" xmlns:xlink="http://www.w3.org/1999/xlink" xml:space="preserve" onload="init(evt)">
<style type="text/css"><![CDATA[
.edge:hover path { stroke: red; }
.edge:hover polygon { stroke: red; fill: red; }
]]></style>
<script type="text/javascript"><![CDATA[
var edges = document.getElementsByTagName('g');
if (edges && edges.length) {
  for (var i=0;i<edges.length;i++) {
    if (edges[i].id.substr(0,4)=='edge') {
      edges[i].setAttribute('class','edge');
    }
  }
}
]]></script>
        <defs>
                <circle id="rim" cx="0" cy="0" r="7"/>
                <circle id="rim2" cx="0" cy="0" r="3.5"/>
                <g id="zoomPlus">
                        <use xlink:href="#rim" fill="#404040">
                                <set attributeName="fill" to="#808080" begin="zoomplus.mouseover" end="zoomplus.mouseout"/>
                        </use>
                        <path d="M-4,0h8M0,-4v8" fill="none" stroke="white" stroke-width="1.5" pointer-events="none"/>
                </g>
                <g id="zoomMin">
                        <use xlink:href="#rim" fill="#404040">
                                <set attributeName="fill" to="#808080" begin="zoomminus.mouseover" end="zoomminus.mouseout"/>
                        </use>
                        <path d="M-4,0h8" fill="none" stroke="white" stroke-width="1.5" pointer-events="none"/>
                </g>
                <g id="dirArrow">
                        <path fill="none" stroke="white" stroke-width="1.5" d="M0,-3.0v7 M-2.5,-0.5L0,-3.0L2.5,-0.5"/>
                </g>
               <g id="resetDef">
                       <use xlink:href="#rim2" fill="#404040">
                               <set attributeName="fill" to="#808080" begin="reset.mouseover" end="reset.mouseout"/>
                       </use>
               </g>
        </defs>

<script type="text/javascript">
var viewWidth = 834;
var viewHeight = 377;
var sectionId = 'dynsection-10';
</script>
<script xlink:href="svgpan.js"/>
<svg id="graph" class="graph">
<g id="viewport">
<title>str_buf_putc</title>
<!-- Node1 -->
<g id="node1" class="node">
<title>Node1</title>
<g id="a_node1"><a xlink:title="Put char in the struct t_str_buf so we can build a string in the struct. The point is to create the s...">
<polygon fill="#bfbfbf" stroke="black" points="749,-187.22 749,-206.22 826,-206.22 826,-187.22 749,-187.22"/>
<text text-anchor="middle" x="787.5" y="-194.22" font-family="Helvetica,sans-Serif" font-size="10.00">str_buf_putc</text>
</a>
</g>
</g>
<!-- Node2 -->
<g id="node2" class="node">
<title>Node2</title>
<g id="a_node2"><a xlink:href="lexer__word_8c.html#a088ba907ca2f9f7d89809627a5ef8313" target="_top" xlink:title="Lexes a segment delimited by double quotes.">
<polygon fill="none" stroke="black" points="576,-320.22 576,-339.22 713,-339.22 713,-320.22 576,-320.22"/>
<text text-anchor="middle" x="644.5" y="-327.22" font-family="Helvetica,sans-Serif" font-size="10.00">double_quoted_segment</text>
</a>
</g>
</g>
<!-- Node1&#45;&gt;Node2 -->
<g id="edge1" class="edge">
<title>Node1&#45;&gt;Node2</title>
<path fill="none" stroke="midnightblue" d="M779.34,-215.66C768.74,-241.11 746.46,-286 713,-310.72 707.71,-314.63 701.65,-317.73 695.38,-320.2"/>
<polygon fill="midnightblue" stroke="midnightblue" points="782.6,-216.94 783.05,-206.35 776.1,-214.35 782.6,-216.94"/>
</g>
<!-- Node3 -->
<g id="node3" class="node">
<title>Node3</title>
<g id="a_node3"><a xlink:href="lexer__word_8c.html#a4093905b7d1dfe02710752ee5da8fe01" target="_top" xlink:title="Lexes the string to create a WORD token.">
<polygon fill="none" stroke="black" points="465,-282.22 465,-301.22 526,-301.22 526,-282.22 465,-282.22"/>
<text text-anchor="middle" x="495.5" y="-289.22" font-family="Helvetica,sans-Serif" font-size="10.00">lex_word</text>
</a>
</g>
</g>
<!-- Node1&#45;&gt;Node3 -->
<g id="edge16" class="edge">
<title>Node1&#45;&gt;Node3</title>
<path fill="none" stroke="midnightblue" d="M783.64,-216.64C777.57,-250.71 759.85,-319.34 713,-348.72 661.42,-381.08 633.97,-367.36 576,-348.72 546.9,-339.37 519.42,-314.99 505.66,-301.34"/>
<polygon fill="midnightblue" stroke="midnightblue" points="787.14,-216.95 785.28,-206.52 780.23,-215.83 787.14,-216.95"/>
</g>
<!-- Node6 -->
<g id="node6" class="node">
<title>Node6</title>
<g id="a_node6"><a xlink:href="expand__dollar_8c.html#a1cf0ce389e469994b9ddb06a944e531e" target="_top" xlink:title="Handle $? to expand on current error code.">
<polygon fill="none" stroke="black" points="451,-130.22 451,-149.22 540,-149.22 540,-130.22 451,-130.22"/>
<text text-anchor="middle" x="495.5" y="-137.22" font-family="Helvetica,sans-Serif" font-size="10.00">error_code_var</text>
</a>
</g>
</g>
<!-- Node1&#45;&gt;Node6 -->
<g id="edge5" class="edge">
<title>Node1&#45;&gt;Node6</title>
<path fill="none" stroke="midnightblue" d="M759.99,-182.4C746.33,-175.65 729.18,-168.14 713,-163.72 654.62,-147.81 584.65,-142.41 540.37,-140.6"/>
<polygon fill="midnightblue" stroke="midnightblue" points="758.75,-185.7 769.25,-187.12 761.93,-179.46 758.75,-185.7"/>
</g>
<!-- Node7 -->
<g id="node7" class="node">
<title>Node7</title>
<g id="a_node7"><a xlink:href="expand__dollar_8c.html#ac3e15865744ed2c1300a5cb96f24e33d" target="_top" xlink:title="Manages all possibilities with expand : $?, known and unknown env variable.">
<polygon fill="none" stroke="black" points="332,-137.22 332,-156.22 415,-156.22 415,-137.22 332,-137.22"/>
<text text-anchor="middle" x="373.5" y="-144.22" font-family="Helvetica,sans-Serif" font-size="10.00">handle_dollar</text>
</a>
</g>
</g>
<!-- Node1&#45;&gt;Node7 -->
<g id="edge13" class="edge">
<title>Node1&#45;&gt;Node7</title>
<path fill="none" stroke="midnightblue" d="M738.99,-191.99C673.91,-185.36 553.43,-172.55 451,-158.72 439.41,-157.16 426.86,-155.27 415.35,-153.46"/>
<polygon fill="midnightblue" stroke="midnightblue" points="738.65,-195.47 748.95,-193 739.35,-188.51 738.65,-195.47"/>
</g>
<!-- Node8 -->
<g id="node8" class="node">
<title>Node8</title>
<g id="a_node8"><a xlink:href="expand__word_8c.html#a0ec378990f411456436a9bb6a71babfc" target="_top" xlink:title="Scans the word to dequote/expand and build correct output.">
<polygon fill="none" stroke="black" points="214,-137.22 214,-156.22 296,-156.22 296,-137.22 214,-137.22"/>
<text text-anchor="middle" x="255" y="-144.22" font-family="Helvetica,sans-Serif" font-size="10.00">expand_word</text>
</a>
</g>
</g>
<!-- Node1&#45;&gt;Node8 -->
<g id="edge12" class="edge">
<title>Node1&#45;&gt;Node8</title>
<path fill="none" stroke="midnightblue" d="M783.16,-176.68C776.46,-143.6 757.97,-78.42 713,-49.72 569.51,41.85 481.13,-6.67 332,-88.72 306.7,-102.65 280.68,-124.44 266.61,-136.97"/>
<polygon fill="midnightblue" stroke="midnightblue" points="779.79,-177.73 785.06,-186.92 786.68,-176.45 779.79,-177.73"/>
</g>
<!-- Node10 -->
<g id="node10" class="node">
<title>Node10</title>
<g id="a_node10"><a xlink:href="lexer__word_8c.html#ad7d5fd37a954794c29d8d8b4807c233e" target="_top" xlink:title="Handle backslash to escape next char correctly.">
<polygon fill="none" stroke="black" points="595,-282.22 595,-301.22 694,-301.22 694,-282.22 595,-282.22"/>
<text text-anchor="middle" x="644.5" y="-289.22" font-family="Helvetica,sans-Serif" font-size="10.00">escape_segment</text>
</a>
</g>
</g>
<!-- Node1&#45;&gt;Node10 -->
<g id="edge10" class="edge">
<title>Node1&#45;&gt;Node10</title>
<path fill="none" stroke="midnightblue" d="M773.69,-214.67C760.41,-231.99 738.1,-257.74 713,-272.72 706.52,-276.59 699.22,-279.7 691.87,-282.19"/>
<polygon fill="midnightblue" stroke="midnightblue" points="776.62,-216.59 779.78,-206.48 771.01,-212.41 776.62,-216.59"/>
</g>
<!-- Node11 -->
<g id="node11" class="node">
<title>Node11</title>
<g id="a_node11"><a xlink:href="expand__word_8c.html#ae5fd7fdfce4171a392a4f6c781f4e813" target="_top" xlink:title="Dequotes and manage quote state to expand correctly.">
<polygon fill="none" stroke="black" points="451.5,-54.22 451.5,-73.22 539.5,-73.22 539.5,-54.22 451.5,-54.22"/>
<text text-anchor="middle" x="495.5" y="-61.22" font-family="Helvetica,sans-Serif" font-size="10.00">handle_quotes</text>
</a>
</g>
</g>
<!-- Node1&#45;&gt;Node11 -->
<g id="edge14" class="edge">
<title>Node1&#45;&gt;Node11</title>
<path fill="none" stroke="midnightblue" d="M780.11,-177.25C770.29,-150.79 748.8,-104.32 713,-82.72 660.02,-50.76 586.07,-51.95 539.76,-56.94"/>
<polygon fill="midnightblue" stroke="midnightblue" points="776.89,-178.65 783.51,-186.93 783.5,-176.33 776.89,-178.65"/>
</g>
<!-- Node12 -->
<g id="node12" class="node">
<title>Node12</title>
<g id="a_node12"><a xlink:href="lexer__word_8c.html#ad9e7809fee584699717eb691257a6ded" target="_top" xlink:title="Lexes a segment delimited by single quotes.">
<polygon fill="none" stroke="black" points="578,-244.22 578,-263.22 711,-263.22 711,-244.22 578,-244.22"/>
<text text-anchor="middle" x="644.5" y="-251.22" font-family="Helvetica,sans-Serif" font-size="10.00">single_quoted_segment</text>
</a>
</g>
</g>
<!-- Node1&#45;&gt;Node12 -->
<g id="edge17" class="edge">
<title>Node1&#45;&gt;Node12</title>
<path fill="none" stroke="midnightblue" d="M761.35,-211.34C747.42,-219.02 729.61,-228.17 713,-234.72 703.94,-238.3 693.95,-241.49 684.5,-244.2"/>
<polygon fill="midnightblue" stroke="midnightblue" points="763.3,-214.26 770.31,-206.31 759.88,-208.16 763.3,-214.26"/>
</g>
<!-- Node13 -->
<g id="node13" class="node">
<title>Node13</title>
<g id="a_node13"><a xlink:href="string__builder_8c.html#a1bfdfae2d27c541b15b526d7d67b7577" target="_top" xlink:title="End and null terminate the string created in t_str_buf, reset the struct so it can be reused and retu...">
<polygon fill="none" stroke="black" points="607.5,-206.22 607.5,-225.22 681.5,-225.22 681.5,-206.22 607.5,-206.22"/>
<text text-anchor="middle" x="644.5" y="-213.22" font-family="Helvetica,sans-Serif" font-size="10.00">str_buf_end</text>
</a>
</g>
</g>
<!-- Node1&#45;&gt;Node13 -->
<g id="edge19" class="edge">
<title>Node1&#45;&gt;Node13</title>
<path fill="none" stroke="midnightblue" d="M738.69,-203.17C720.13,-205.67 699.23,-208.48 681.93,-210.81"/>
<polygon fill="midnightblue" stroke="midnightblue" points="739.27,-206.62 748.71,-201.82 738.34,-199.68 739.27,-206.62"/>
</g>
<!-- Node14 -->
<g id="node14" class="node">
<title>Node14</title>
<g id="a_node14"><a xlink:href="string__builder_8c.html#a4bb0bb42cbf7ca9f7feff204d3059306" target="_top" xlink:title="Put a null terminated string in the t_str_buf struct.">
<polygon fill="none" stroke="black" points="606,-92.22 606,-111.22 683,-111.22 683,-92.22 606,-92.22"/>
<text text-anchor="middle" x="644.5" y="-99.22" font-family="Helvetica,sans-Serif" font-size="10.00">str_buf_puts</text>
</a>
</g>
</g>
<!-- Node1&#45;&gt;Node14 -->
<g id="edge23" class="edge">
<title>Node1&#45;&gt;Node14</title>
<path fill="none" stroke="midnightblue" d="M772.19,-179.13C758.46,-163.26 736.41,-140.23 713,-125.72 703.27,-119.7 691.82,-114.9 681.14,-111.23"/>
<polygon fill="midnightblue" stroke="midnightblue" points="769.79,-181.72 778.91,-187.12 775.15,-177.21 769.79,-181.72"/>
</g>
<!-- Node2&#45;&gt;Node3 -->
<g id="edge2" class="edge">
<title>Node2&#45;&gt;Node3</title>
<path fill="none" stroke="midnightblue" d="M596.47,-317.57C573.41,-311.6 546.33,-304.61 526.18,-299.4"/>
<polygon fill="midnightblue" stroke="midnightblue" points="595.85,-321.02 606.41,-320.13 597.6,-314.24 595.85,-321.02"/>
</g>
<!-- Node4 -->
<g id="node4" class="node">
<title>Node4</title>
<g id="a_node4"><a xlink:href="lexer_8c.html#aced469451204cf536fd18b4cf94f6b91" target="_top" xlink:title="Global lexing function, that traverses readline&#39;s string and separate in tokens.">
<polygon fill="none" stroke="black" points="234.5,-274.22 234.5,-293.22 275.5,-293.22 275.5,-274.22 234.5,-274.22"/>
<text text-anchor="middle" x="255" y="-281.22" font-family="Helvetica,sans-Serif" font-size="10.00">lexer</text>
</a>
</g>
</g>
<!-- Node3&#45;&gt;Node4 -->
<g id="edge3" class="edge">
<title>Node3&#45;&gt;Node4</title>
<path fill="none" stroke="midnightblue" d="M454.64,-290.39C402.95,-288.65 314.78,-285.7 275.68,-284.38"/>
<polygon fill="midnightblue" stroke="midnightblue" points="454.66,-293.89 464.78,-290.73 454.9,-286.89 454.66,-293.89"/>
</g>
<!-- Node5 -->
<g id="node5" class="node">
<title>Node5</title>
<g id="a_node5"><a xlink:href="main_8c.html#a647f21a28344e1d9c643f4115516d7c9" target="_top" xlink:title=" ">
<polygon fill="none" stroke="black" points="0,-213.22 0,-232.22 41,-232.22 41,-213.22 0,-213.22"/>
<text text-anchor="middle" x="20.5" y="-220.22" font-family="Helvetica,sans-Serif" font-size="10.00">main</text>
</a>
</g>
</g>
<!-- Node4&#45;&gt;Node5 -->
<g id="edge4" class="edge">
<title>Node4&#45;&gt;Node5</title>
<path fill="none" stroke="midnightblue" d="M224.35,-275.94C176.17,-263.3 82.15,-238.64 41.27,-227.91"/>
<polygon fill="midnightblue" stroke="midnightblue" points="223.62,-279.37 234.18,-278.52 225.39,-272.6 223.62,-279.37"/>
</g>
<!-- Node6&#45;&gt;Node7 -->
<g id="edge6" class="edge">
<title>Node6&#45;&gt;Node7</title>
<path fill="none" stroke="midnightblue" d="M440.83,-142.85C432.2,-143.36 423.39,-143.87 415.14,-144.35"/>
<polygon fill="midnightblue" stroke="midnightblue" points="441.06,-146.35 450.84,-142.27 440.65,-139.36 441.06,-146.35"/>
</g>
<!-- Node7&#45;&gt;Node8 -->
<g id="edge7" class="edge">
<title>Node7&#45;&gt;Node8</title>
<path fill="none" stroke="midnightblue" d="M321.54,-146.72C313.03,-146.72 304.32,-146.72 296.13,-146.72"/>
<polygon fill="midnightblue" stroke="midnightblue" points="321.75,-150.22 331.75,-146.72 321.75,-143.22 321.75,-150.22"/>
</g>
<!-- Node9 -->
<g id="node9" class="node">
<title>Node9</title>
<g id="a_node9"><a xlink:href="expand_8c.html#a53c53e75b0ad8c8888217cd918304b8b" target="_top" xlink:title="Iterate over every args and redir of each command to expand and dequote what needs to be.">
<polygon fill="none" stroke="black" points="77,-194.22 77,-213.22 178,-213.22 178,-194.22 77,-194.22"/>
<text text-anchor="middle" x="127.5" y="-201.22" font-family="Helvetica,sans-Serif" font-size="10.00">expand_manager</text>
</a>
</g>
</g>
<!-- Node8&#45;&gt;Node9 -->
<g id="edge8" class="edge">
<title>Node8&#45;&gt;Node9</title>
<path fill="none" stroke="midnightblue" d="M223.71,-160.48C200.78,-170.9 169.87,-184.93 149.57,-194.15"/>
<polygon fill="midnightblue" stroke="midnightblue" points="225.34,-163.59 232.99,-156.26 222.44,-157.21 225.34,-163.59"/>
</g>
<!-- Node9&#45;&gt;Node5 -->
<g id="edge9" class="edge">
<title>Node9&#45;&gt;Node5</title>
<path fill="none" stroke="midnightblue" d="M66.72,-214.54C57.53,-216.2 48.64,-217.81 41.2,-219.16"/>
<polygon fill="midnightblue" stroke="midnightblue" points="67.55,-217.95 76.77,-212.72 66.3,-211.06 67.55,-217.95"/>
</g>
<!-- Node10&#45;&gt;Node3 -->
<g id="edge11" class="edge">
<title>Node10&#45;&gt;Node3</title>
<path fill="none" stroke="midnightblue" d="M584.9,-291.72C564.73,-291.72 543,-291.72 526.13,-291.72"/>
<polygon fill="midnightblue" stroke="midnightblue" points="584.96,-295.22 594.96,-291.72 584.96,-288.22 584.96,-295.22"/>
</g>
<!-- Node11&#45;&gt;Node8 -->
<g id="edge15" class="edge">
<title>Node11&#45;&gt;Node8</title>
<path fill="none" stroke="midnightblue" d="M457.42,-76.63C409.25,-93.39 326.27,-122.27 283.41,-137.19"/>
<polygon fill="midnightblue" stroke="midnightblue" points="458.85,-79.84 467.14,-73.24 456.55,-73.23 458.85,-79.84"/>
</g>
<!-- Node12&#45;&gt;Node3 -->
<g id="edge18" class="edge">
<title>Node12&#45;&gt;Node3</title>
<path fill="none" stroke="midnightblue" d="M596.47,-265.88C573.41,-271.84 546.33,-278.84 526.18,-284.05"/>
<polygon fill="midnightblue" stroke="midnightblue" points="597.6,-269.2 606.41,-263.31 595.85,-262.43 597.6,-269.2"/>
</g>
<!-- Node13&#45;&gt;Node3 -->
<g id="edge22" class="edge">
<title>Node13&#45;&gt;Node3</title>
<path fill="none" stroke="midnightblue" d="M597.53,-225.52C590.09,-227.99 582.66,-231.02 576,-234.72 557.04,-245.28 557.63,-255.06 540,-267.72 532.58,-273.06 523.84,-278.09 516.15,-282.16"/>
<polygon fill="midnightblue" stroke="midnightblue" points="598.67,-228.84 607.24,-222.61 596.65,-222.13 598.67,-228.84"/>
</g>
<!-- Node13&#45;&gt;Node7 -->
<g id="edge21" class="edge">
<title>Node13&#45;&gt;Node7</title>
<path fill="none" stroke="midnightblue" d="M597.22,-215.19C557.47,-213.51 499.15,-208.1 451,-191.72 426.64,-183.44 401.51,-166.81 386.98,-156.25"/>
<polygon fill="midnightblue" stroke="midnightblue" points="597.29,-218.69 607.41,-215.56 597.54,-211.7 597.29,-218.69"/>
</g>
<!-- Node13&#45;&gt;Node8 -->
<g id="edge20" class="edge">
<title>Node13&#45;&gt;Node8</title>
<path fill="none" stroke="midnightblue" d="M597.3,-219.72C558.07,-222.1 500.43,-223.23 451,-214.72 384.75,-203.33 310.94,-172.15 276.18,-156.28"/>
<polygon fill="midnightblue" stroke="midnightblue" points="597.61,-223.21 607.36,-219.05 597.15,-216.22 597.61,-223.21"/>
</g>
<!-- Node14&#45;&gt;Node6 -->
<g id="edge24" class="edge">
<title>Node14&#45;&gt;Node6</title>
<path fill="none" stroke="midnightblue" d="M596.65,-113.84C576.17,-119.13 552.51,-125.25 533.33,-130.2"/>
<polygon fill="midnightblue" stroke="midnightblue" points="597.6,-117.2 606.41,-111.31 595.85,-110.43 597.6,-117.2"/>
</g>
<!-- Node14&#45;&gt;Node7 -->
<g id="edge25" class="edge">
<title>Node14&#45;&gt;Node7</title>
<path fill="none" stroke="midnightblue" d="M595.76,-103.39C556.52,-105.49 499.66,-110.2 451,-120.72 432.77,-124.67 412.83,-131.53 397.88,-137.22"/>
<polygon fill="midnightblue" stroke="midnightblue" points="596.03,-106.89 605.84,-102.89 595.68,-99.89 596.03,-106.89"/>
</g>
</g>
</svg>
        <g id="navigator" transform="translate(0 0)" fill="#404254">
                <rect fill="#f2f5e9" fill-opacity="0.5" stroke="#606060" stroke-width=".5" x="0" y="0" width="60" height="60"/>
                <use id="zoomplus" xlink:href="#zoomPlus" x="17" y="9" onmousedown="handleZoom(evt,'in')"/>
                <use id="zoomminus" xlink:href="#zoomMin" x="42" y="9" onmousedown="handleZoom(evt,'out')"/>
                <use id="reset" xlink:href="#resetDef" x="30" y="36" onmousedown="handleReset()"/>
                <g id="arrowUp" xlink:href="#dirArrow" transform="translate(30 24)" onmousedown="handlePan(0,-1)">
                  <use xlink:href="#rim" fill="#404040">
                        <set attributeName="fill" to="#808080" begin="arrowUp.mouseover" end="arrowUp.mouseout"/>
                  </use>
                  <path fill="none" stroke="white" stroke-width="1.5" d="M0,-3.0v7 M-2.5,-0.5L0,-3.0L2.5,-0.5"/>
                </g>
                <g id="arrowRight" xlink:href="#dirArrow" transform="rotate(90) translate(36 -43)" onmousedown="handlePan(1,0)">
                  <use xlink:href="#rim" fill="#404040">
                        <set attributeName="fill" to="#808080" begin="arrowRight.mouseover" end="arrowRight.mouseout"/>
                  </use>
                  <path fill="none" stroke="white" stroke-width="1.5" d="M0,-3.0v7 M-2.5,-0.5L0,-3.0L2.5,-0.5"/>
                </g>
                <g id="arrowDown" xlink:href="#dirArrow" transform="rotate(180) translate(-30 -48)" onmousedown="handlePan(0,1)">
                  <use xlink:href="#rim" fill="#404040">
                        <set attributeName="fill" to="#808080" begin="arrowDown.mouseover" end="arrowDown.mouseout"/>
                  </use>
                  <path fill="none" stroke="white" stroke-width="1.5" d="M0,-3.0v7 M-2.5,-0.5L0,-3.0L2.5,-0.5"/>
                </g>
                <g id="arrowLeft" xlink:href="#dirArrow" transform="rotate(270) translate(-36 17)" onmousedown="handlePan(-1,0)">
                  <use xlink:href="#rim" fill="#404040">
                        <set attributeName="fill" to="#808080" begin="arrowLeft.mouseover" end="arrowLeft.mouseout"/>
                  </use>
                  <path fill="none" stroke="white" stroke-width="1.5" d="M0,-3.0v7 M-2.5,-0.5L0,-3.0L2.5,-0.5"/>
                </g>
        </g>
        <svg viewBox="0 0 15 15" width="100%" height="30px" preserveAspectRatio="xMaxYMin meet">
         <g id="arrow_out" transform="scale(0.3 0.3)">
          <a xlink:href="parsing__helpers_8h_a54e602a5da87bd89687c69c2d86f34d2_icgraph_org.svg" target="_base">
           <rect id="button" ry="5" rx="5" y="6" x="6" height="38" width="38"
                fill="#f2f5e9" fill-opacity="0.5" stroke="#606060" stroke-width="1.0"/>
           <path id="arrow"
             d="M 11.500037,31.436501 C 11.940474,20.09759 22.043105,11.32322 32.158766,21.979434 L 37.068811,17.246167 C 37.068811,17.246167 37.088388,32 37.088388,32 L 22.160133,31.978069 C 22.160133,31.978069 26.997745,27.140456 26.997745,27.140456 C 18.528582,18.264221 13.291696,25.230495 11.500037,31.436501 z"
             style="fill:#404040;"/>
          </a>
         </g>
        </svg>
</svg>
