<?xml version="1.0" encoding="UTF-8" standalone="no"?>
<!DOCTYPE svg PUBLIC "-//W3C//DTD SVG 1.1//EN"
 "http://www.w3.org/Graphics/SVG/1.1/DTD/svg11.dtd">
<!-- Generated by graphviz version 2.43.0 (0)
 -->
<!-- Title: str_buf_puts Pages: 1 -->
<svg width="661pt" height="47pt"
 viewBox="0.00 0.00 661.00 47.00" xmlns="http://www.w3.org/2000/svg" xmlns:xlink="http://www.w3.org/1999/xlink">
<g id="graph0" class="graph" transform="scale(1 1) rotate(0) translate(4 43)">
<title>str_buf_puts</title>
<!-- Node1 -->
<g id="node1" class="node">
<title>Node1</title>
<g id="a_node1"><a xlink:title="Put a null terminated string in the t_str_buf struct.">
<polygon fill="#bfbfbf" stroke="black" points="576,-0.5 576,-19.5 653,-19.5 653,-0.5 576,-0.5"/>
<text text-anchor="middle" x="614.5" y="-7.5" font-family="Helvetica,sans-Serif" font-size="10.00">str_buf_puts</text>
</a>
</g>
</g>
<!-- Node2 -->
<g id="node2" class="node">
<title>Node2</title>
<g id="a_node2"><a xlink:href="expand__dollar_8c.html#a1cf0ce389e469994b9ddb06a944e531e" target="_top" xlink:title="Handle $? to expand on current error code.">
<polygon fill="none" stroke="black" points="451,-19.5 451,-38.5 540,-38.5 540,-19.5 451,-19.5"/>
<text text-anchor="middle" x="495.5" y="-26.5" font-family="Helvetica,sans-Serif" font-size="10.00">error_code_var</text>
</a>
</g>
</g>
<!-- Node1&#45;&gt;Node2 -->
<g id="edge1" class="edge">
<title>Node1&#45;&gt;Node2</title>
<path fill="none" stroke="midnightblue" d="M565.74,-17.76C557.29,-19.13 548.53,-20.55 540.2,-21.9"/>
<polygon fill="midnightblue" stroke="midnightblue" points="566.53,-21.17 575.84,-16.12 565.4,-14.26 566.53,-21.17"/>
</g>
<!-- Node3 -->
<g id="node3" class="node">
<title>Node3</title>
<g id="a_node3"><a xlink:href="expand__dollar_8c.html#ac3e15865744ed2c1300a5cb96f24e33d" target="_top" xlink:title="Manages all possibilities with expand : $?, known and unknown env variable.">
<polygon fill="none" stroke="black" points="332,-0.5 332,-19.5 415,-19.5 415,-0.5 332,-0.5"/>
<text text-anchor="middle" x="373.5" y="-7.5" font-family="Helvetica,sans-Serif" font-size="10.00">handle_dollar</text>
</a>
</g>
</g>
<!-- Node1&#45;&gt;Node3 -->
<g id="edge6" class="edge">
<title>Node1&#45;&gt;Node3</title>
<path fill="none" stroke="midnightblue" d="M565.7,-10C521.58,-10 456.75,-10 415.08,-10"/>
<polygon fill="midnightblue" stroke="midnightblue" points="565.89,-13.5 575.89,-10 565.89,-6.5 565.89,-13.5"/>
</g>
<!-- Node2&#45;&gt;Node3 -->
<g id="edge2" class="edge">
<title>Node2&#45;&gt;Node3</title>
<path fill="none" stroke="midnightblue" d="M440.83,-20.5C432.2,-19.14 423.39,-17.74 415.14,-16.43"/>
<polygon fill="midnightblue" stroke="midnightblue" points="440.41,-23.98 450.84,-22.09 441.51,-17.07 440.41,-23.98"/>
</g>
<!-- Node4 -->
<g id="node4" class="node">
<title>Node4</title>
<g id="a_node4"><a xlink:href="expand__word_8c.html#a0ec378990f411456436a9bb6a71babfc" target="_top" xlink:title="Scans the word to dequote/expand and build correct output.">
<polygon fill="none" stroke="black" points="214,-0.5 214,-19.5 296,-19.5 296,-0.5 214,-0.5"/>
<text text-anchor="middle" x="255" y="-7.5" font-family="Helvetica,sans-Serif" font-size="10.00">expand_word</text>
</a>
</g>
</g>
<!-- Node3&#45;&gt;Node4 -->
<g id="edge3" class="edge">
<title>Node3&#45;&gt;Node4</title>
<path fill="none" stroke="midnightblue" d="M321.54,-10C313.03,-10 304.32,-10 296.13,-10"/>
<polygon fill="midnightblue" stroke="midnightblue" points="321.75,-13.5 331.75,-10 321.75,-6.5 321.75,-13.5"/>
</g>
<!-- Node5 -->
<g id="node5" class="node">
<title>Node5</title>
<g id="a_node5"><a xlink:href="expand_8c.html#a53c53e75b0ad8c8888217cd918304b8b" target="_top" xlink:title="Iterate over every args and redir of each command to expand and dequote what needs to be.">
<polygon fill="none" stroke="black" points="77,-0.5 77,-19.5 178,-19.5 178,-0.5 77,-0.5"/>
<text text-anchor="middle" x="127.5" y="-7.5" font-family="Helvetica,sans-Serif" font-size="10.00">expand_manager</text>
</a>
</g>
</g>
<!-- Node4&#45;&gt;Node5 -->
<g id="edge4" class="edge">
<title>Node4&#45;&gt;Node5</title>
<path fill="none" stroke="midnightblue" d="M203.87,-10C195.45,-10 186.72,-10 178.3,-10"/>
<polygon fill="midnightblue" stroke="midnightblue" points="203.95,-13.5 213.95,-10 203.95,-6.5 203.95,-13.5"/>
</g>
<!-- Node6 -->
<g id="node6" class="node">
<title>Node6</title>
<g id="a_node6"><a xlink:href="main_8c.html#a647f21a28344e1d9c643f4115516d7c9" target="_top" xlink:title=" ">
<polygon fill="none" stroke="black" points="0,-0.5 0,-19.5 41,-19.5 41,-0.5 0,-0.5"/>
<text text-anchor="middle" x="20.5" y="-7.5" font-family="Helvetica,sans-Serif" font-size="10.00">main</text>
</a>
</g>
</g>
<!-- Node5&#45;&gt;Node6 -->
<g id="edge5" class="edge">
<title>Node5&#45;&gt;Node6</title>
<path fill="none" stroke="midnightblue" d="M66.72,-10C57.53,-10 48.64,-10 41.2,-10"/>
<polygon fill="midnightblue" stroke="midnightblue" points="66.77,-13.5 76.77,-10 66.77,-6.5 66.77,-13.5"/>
</g>
</g>
</svg>
