<?xml version="1.0" encoding="UTF-8" standalone="no"?>
<!DOCTYPE svg PUBLIC "-//W3C//DTD SVG 1.1//EN"
 "http://www.w3.org/Graphics/SVG/1.1/DTD/svg11.dtd">
<!-- Generated by graphviz version 2.43.0 (0)
 -->
<!-- Title: lex_word Pages: 1 -->
<svg width="402pt" height="370pt"
 viewBox="0.00 0.00 402.00 370.00" xmlns="http://www.w3.org/2000/svg" xmlns:xlink="http://www.w3.org/1999/xlink">
<g id="graph0" class="graph" transform="scale(1 1) rotate(0) translate(4 366)">
<title>lex_word</title>
<!-- Node1 -->
<g id="node1" class="node">
<title>Node1</title>
<g id="a_node1"><a xlink:title="Lexes the string to create a WORD token.">
<polygon fill="#bfbfbf" stroke="black" points="0,-171.5 0,-190.5 61,-190.5 61,-171.5 0,-171.5"/>
<text text-anchor="middle" x="30.5" y="-178.5" font-family="Helvetica,sans-Serif" font-size="10.00">lex_word</text>
</a>
</g>
</g>
<!-- Node2 -->
<g id="node2" class="node">
<title>Node2</title>
<g id="a_node2"><a xlink:href="lexer__utils_8c.html#a6b132516dacc9599762b1fe7341a0f04" target="_top" xlink:title="Advance one byte in the struct t_lexer to keep track of progress.">
<polygon fill="none" stroke="black" points="303,-266.5 303,-285.5 361,-285.5 361,-266.5 303,-266.5"/>
<text text-anchor="middle" x="332" y="-273.5" font-family="Helvetica,sans-Serif" font-size="10.00">advance</text>
</a>
</g>
</g>
<!-- Node1&#45;&gt;Node2 -->
<g id="edge1" class="edge">
<title>Node1&#45;&gt;Node2</title>
<path fill="none" stroke="midnightblue" d="M33.6,-190.65C39.21,-213.71 56.9,-271.79 97,-295 149.7,-325.5 173.4,-300.88 234,-295 253.56,-293.1 275.03,-289.1 292.79,-285.26"/>
<polygon fill="midnightblue" stroke="midnightblue" points="293.78,-288.62 302.78,-283.03 292.25,-281.79 293.78,-288.62"/>
</g>
<!-- Node3 -->
<g id="node3" class="node">
<title>Node3</title>
<g id="a_node3"><a xlink:href="lexer__word_8c.html#a088ba907ca2f9f7d89809627a5ef8313" target="_top" xlink:title="Lexes a segment delimited by double quotes.">
<polygon fill="none" stroke="black" points="97,-342.5 97,-361.5 234,-361.5 234,-342.5 97,-342.5"/>
<text text-anchor="middle" x="165.5" y="-349.5" font-family="Helvetica,sans-Serif" font-size="10.00">double_quoted_segment</text>
</a>
</g>
</g>
<!-- Node1&#45;&gt;Node3 -->
<g id="edge2" class="edge">
<title>Node1&#45;&gt;Node3</title>
<path fill="none" stroke="midnightblue" d="M33.11,-190.78C37.92,-216.85 54.55,-288.72 97,-328 101.39,-332.06 106.5,-335.44 111.92,-338.25"/>
<polygon fill="midnightblue" stroke="midnightblue" points="110.7,-341.54 121.25,-342.47 113.59,-335.16 110.7,-341.54"/>
</g>
<!-- Node6 -->
<g id="node6" class="node">
<title>Node6</title>
<g id="a_node6"><a xlink:href="string__builder_8c.html#a54e602a5da87bd89687c69c2d86f34d2" target="_top" xlink:title="Put char in the struct t_str_buf so we can build a string in the struct. The point is to create the s...">
<polygon fill="none" stroke="black" points="293.5,-228.5 293.5,-247.5 370.5,-247.5 370.5,-228.5 293.5,-228.5"/>
<text text-anchor="middle" x="332" y="-235.5" font-family="Helvetica,sans-Serif" font-size="10.00">str_buf_putc</text>
</a>
</g>
</g>
<!-- Node1&#45;&gt;Node6 -->
<g id="edge20" class="edge">
<title>Node1&#45;&gt;Node6</title>
<path fill="none" stroke="midnightblue" d="M61.03,-186.46C100.47,-193.78 172.52,-207.21 234,-219 250.04,-222.08 267.55,-225.49 283.23,-228.57"/>
<polygon fill="midnightblue" stroke="midnightblue" points="282.75,-232.04 293.24,-230.53 284.1,-225.17 282.75,-232.04"/>
</g>
<!-- Node7 -->
<g id="node7" class="node">
<title>Node7</title>
<g id="a_node7"><a xlink:href="lexer__word_8c.html#ad7d5fd37a954794c29d8d8b4807c233e" target="_top" xlink:title="Handle backslash to escape next char correctly.">
<polygon fill="none" stroke="black" points="116,-266.5 116,-285.5 215,-285.5 215,-266.5 116,-266.5"/>
<text text-anchor="middle" x="165.5" y="-273.5" font-family="Helvetica,sans-Serif" font-size="10.00">escape_segment</text>
</a>
</g>
</g>
<!-- Node1&#45;&gt;Node7 -->
<g id="edge7" class="edge">
<title>Node1&#45;&gt;Node7</title>
<path fill="none" stroke="midnightblue" d="M37.06,-190.52C47,-206.67 69.38,-239.41 97,-257 100.31,-259.11 103.86,-260.99 107.54,-262.66"/>
<polygon fill="midnightblue" stroke="midnightblue" points="106.28,-265.93 116.87,-266.42 108.9,-259.44 106.28,-265.93"/>
</g>
<!-- Node8 -->
<g id="node8" class="node">
<title>Node8</title>
<g id="a_node8"><a xlink:href="lexer_8c.html#a36667927c23670d83624ca9049adfc2d" target="_top" xlink:title="Check if the char is one of the possible operator, currently &#39;&lt;&#39;, &#39;&gt;&#39; or &#39;|&#39;.">
<polygon fill="none" stroke="black" points="116.5,-114.5 116.5,-133.5 214.5,-133.5 214.5,-114.5 116.5,-114.5"/>
<text text-anchor="middle" x="165.5" y="-121.5" font-family="Helvetica,sans-Serif" font-size="10.00">is_char_operator</text>
</a>
</g>
</g>
<!-- Node1&#45;&gt;Node8 -->
<g id="edge11" class="edge">
<title>Node1&#45;&gt;Node8</title>
<path fill="none" stroke="midnightblue" d="M45.53,-171.46C58.44,-163.03 78.35,-150.88 97,-143 102.53,-140.66 108.44,-138.52 114.37,-136.58"/>
<polygon fill="midnightblue" stroke="midnightblue" points="115.78,-139.81 124.31,-133.52 113.72,-133.12 115.78,-139.81"/>
</g>
<!-- Node9 -->
<g id="node9" class="node">
<title>Node9</title>
<g id="a_node9"><a xlink:href="token__utils_8c.html#a583251578e050c27ff17b5c7b40c8eef" target="_top" xlink:title="Build a token.">
<polygon fill="none" stroke="black" points="127.5,-76.5 127.5,-95.5 203.5,-95.5 203.5,-76.5 127.5,-76.5"/>
<text text-anchor="middle" x="165.5" y="-83.5" font-family="Helvetica,sans-Serif" font-size="10.00">make_token</text>
</a>
</g>
</g>
<!-- Node1&#45;&gt;Node9 -->
<g id="edge12" class="edge">
<title>Node1&#45;&gt;Node9</title>
<path fill="none" stroke="midnightblue" d="M37.06,-171.48C47,-155.33 69.38,-122.59 97,-105 103.28,-101 110.42,-97.83 117.64,-95.31"/>
<polygon fill="midnightblue" stroke="midnightblue" points="118.95,-98.57 127.47,-92.28 116.88,-91.88 118.95,-98.57"/>
</g>
<!-- Node10 -->
<g id="node10" class="node">
<title>Node10</title>
<g id="a_node10"><a xlink:href="lexer__word_8c.html#ad9e7809fee584699717eb691257a6ded" target="_top" xlink:title="Lexes a segment delimited by single quotes.">
<polygon fill="none" stroke="black" points="99,-228.5 99,-247.5 232,-247.5 232,-228.5 99,-228.5"/>
<text text-anchor="middle" x="165.5" y="-235.5" font-family="Helvetica,sans-Serif" font-size="10.00">single_quoted_segment</text>
</a>
</g>
</g>
<!-- Node1&#45;&gt;Node10 -->
<g id="edge13" class="edge">
<title>Node1&#45;&gt;Node10</title>
<path fill="none" stroke="midnightblue" d="M49.01,-190.57C62.04,-197.51 80.38,-206.89 97,-214 106.08,-217.88 116.02,-221.67 125.42,-225.04"/>
<polygon fill="midnightblue" stroke="midnightblue" points="124.36,-228.38 134.95,-228.39 126.68,-221.77 124.36,-228.38"/>
</g>
<!-- Node11 -->
<g id="node11" class="node">
<title>Node11</title>
<g id="a_node11"><a xlink:href="string__builder_8c.html#a1bfdfae2d27c541b15b526d7d67b7577" target="_top" xlink:title="End and null terminate the string created in t_str_buf, reset the struct so it can be reused and retu...">
<polygon fill="none" stroke="black" points="128.5,-152.5 128.5,-171.5 202.5,-171.5 202.5,-152.5 128.5,-152.5"/>
<text text-anchor="middle" x="165.5" y="-159.5" font-family="Helvetica,sans-Serif" font-size="10.00">str_buf_end</text>
</a>
</g>
</g>
<!-- Node1&#45;&gt;Node11 -->
<g id="edge16" class="edge">
<title>Node1&#45;&gt;Node11</title>
<path fill="none" stroke="midnightblue" d="M61.02,-176.78C77.88,-174.37 99.4,-171.3 118.45,-168.58"/>
<polygon fill="midnightblue" stroke="midnightblue" points="119.03,-172.03 128.43,-167.15 118.04,-165.1 119.03,-172.03"/>
</g>
<!-- Node12 -->
<g id="node12" class="node">
<title>Node12</title>
<g id="a_node12"><a xlink:href="string__builder_8c.html#a34739f65bf6f3e3e2b9e19dadf5fe217" target="_top" xlink:title=" ">
<polygon fill="none" stroke="black" points="128,-38.5 128,-57.5 203,-57.5 203,-38.5 128,-38.5"/>
<text text-anchor="middle" x="165.5" y="-45.5" font-family="Helvetica,sans-Serif" font-size="10.00">str_buf_free</text>
</a>
</g>
</g>
<!-- Node1&#45;&gt;Node12 -->
<g id="edge18" class="edge">
<title>Node1&#45;&gt;Node12</title>
<path fill="none" stroke="midnightblue" d="M34.26,-171.38C41.07,-149.39 60.81,-95.2 97,-67 103.21,-62.16 110.6,-58.55 118.16,-55.86"/>
<polygon fill="midnightblue" stroke="midnightblue" points="119.23,-59.2 127.77,-52.93 117.18,-52.5 119.23,-59.2"/>
</g>
<!-- Node13 -->
<g id="node13" class="node">
<title>Node13</title>
<g id="a_node13"><a xlink:href="string__builder_8c.html#a2ff0766da574e4904598f3119c7d3749" target="_top" xlink:title=" ">
<polygon fill="none" stroke="black" points="130,-0.5 130,-19.5 201,-19.5 201,-0.5 130,-0.5"/>
<text text-anchor="middle" x="165.5" y="-7.5" font-family="Helvetica,sans-Serif" font-size="10.00">str_buf_init</text>
</a>
</g>
</g>
<!-- Node1&#45;&gt;Node13 -->
<g id="edge19" class="edge">
<title>Node1&#45;&gt;Node13</title>
<path fill="none" stroke="midnightblue" d="M32.8,-171.13C36.9,-144.11 52.03,-68.37 97,-29 103.52,-23.29 111.63,-19.29 119.94,-16.49"/>
<polygon fill="midnightblue" stroke="midnightblue" points="121.04,-19.81 129.71,-13.71 119.13,-13.08 121.04,-19.81"/>
</g>
<!-- Node3&#45;&gt;Node2 -->
<g id="edge3" class="edge">
<title>Node3&#45;&gt;Node2</title>
<path fill="none" stroke="midnightblue" d="M201.69,-342.46C212.47,-338.76 224.09,-333.96 234,-328 252.6,-316.81 251.18,-305.82 270,-295 277.1,-290.92 285.18,-287.61 293.08,-284.97"/>
<polygon fill="midnightblue" stroke="midnightblue" points="294.36,-288.24 302.91,-281.97 292.32,-281.54 294.36,-288.24"/>
</g>
<!-- Node4 -->
<g id="node4" class="node">
<title>Node4</title>
<g id="a_node4"><a xlink:href="lexer__word_8c.html#a31c5ee7f4519eba6de3c2a29c59fe26c" target="_top" xlink:title=" ">
<polygon fill="none" stroke="black" points="270,-342.5 270,-361.5 394,-361.5 394,-342.5 270,-342.5"/>
<text text-anchor="middle" x="332" y="-349.5" font-family="Helvetica,sans-Serif" font-size="10.00">is_dquotes_escapable</text>
</a>
</g>
</g>
<!-- Node3&#45;&gt;Node4 -->
<g id="edge4" class="edge">
<title>Node3&#45;&gt;Node4</title>
<path fill="none" stroke="midnightblue" d="M234.36,-352C242.73,-352 251.3,-352 259.72,-352"/>
<polygon fill="midnightblue" stroke="midnightblue" points="259.88,-355.5 269.88,-352 259.88,-348.5 259.88,-355.5"/>
</g>
<!-- Node5 -->
<g id="node5" class="node">
<title>Node5</title>
<g id="a_node5"><a xlink:href="lexer__utils_8c.html#a855a36981b55d317a52d24560c0809bf" target="_top" xlink:title="&quot;Peek&quot;, Look at the next character in the input string">
<polygon fill="none" stroke="black" points="311.5,-304.5 311.5,-323.5 352.5,-323.5 352.5,-304.5 311.5,-304.5"/>
<text text-anchor="middle" x="332" y="-311.5" font-family="Helvetica,sans-Serif" font-size="10.00">peek</text>
</a>
</g>
</g>
<!-- Node3&#45;&gt;Node5 -->
<g id="edge5" class="edge">
<title>Node3&#45;&gt;Node5</title>
<path fill="none" stroke="midnightblue" d="M208.01,-342.41C237.12,-335.69 275.34,-326.86 301.4,-320.84"/>
<polygon fill="midnightblue" stroke="midnightblue" points="302.47,-324.18 311.42,-318.52 300.89,-317.36 302.47,-324.18"/>
</g>
<!-- Node3&#45;&gt;Node6 -->
<g id="edge6" class="edge">
<title>Node3&#45;&gt;Node6</title>
<path fill="none" stroke="midnightblue" d="M178.55,-342.5C192.33,-331.49 215.38,-312.59 234,-295 250.91,-279.03 250.25,-269.3 270,-257 274.3,-254.32 279.01,-251.99 283.85,-249.97"/>
<polygon fill="midnightblue" stroke="midnightblue" points="285.09,-253.25 293.23,-246.47 282.64,-246.69 285.09,-253.25"/>
</g>
<!-- Node7&#45;&gt;Node2 -->
<g id="edge8" class="edge">
<title>Node7&#45;&gt;Node2</title>
<path fill="none" stroke="midnightblue" d="M215.41,-276C240.05,-276 269.49,-276 292.5,-276"/>
<polygon fill="midnightblue" stroke="midnightblue" points="292.57,-279.5 302.57,-276 292.57,-272.5 292.57,-279.5"/>
</g>
<!-- Node7&#45;&gt;Node5 -->
<g id="edge9" class="edge">
<title>Node7&#45;&gt;Node5</title>
<path fill="none" stroke="midnightblue" d="M208.01,-285.59C237.12,-292.31 275.34,-301.14 301.4,-307.16"/>
<polygon fill="midnightblue" stroke="midnightblue" points="300.89,-310.64 311.42,-309.48 302.47,-303.82 300.89,-310.64"/>
</g>
<!-- Node7&#45;&gt;Node6 -->
<g id="edge10" class="edge">
<title>Node7&#45;&gt;Node6</title>
<path fill="none" stroke="midnightblue" d="M208.01,-266.41C231,-261.1 259.66,-254.48 283.53,-248.96"/>
<polygon fill="midnightblue" stroke="midnightblue" points="284.49,-252.34 293.44,-246.68 282.91,-245.52 284.49,-252.34"/>
</g>
<!-- Node10&#45;&gt;Node2 -->
<g id="edge14" class="edge">
<title>Node10&#45;&gt;Node2</title>
<path fill="none" stroke="midnightblue" d="M208.01,-247.59C234.11,-253.62 267.53,-261.34 292.95,-267.21"/>
<polygon fill="midnightblue" stroke="midnightblue" points="292.42,-270.68 302.96,-269.52 294,-263.86 292.42,-270.68"/>
</g>
<!-- Node10&#45;&gt;Node6 -->
<g id="edge15" class="edge">
<title>Node10&#45;&gt;Node6</title>
<path fill="none" stroke="midnightblue" d="M232.46,-238C249.47,-238 267.45,-238 283.33,-238"/>
<polygon fill="midnightblue" stroke="midnightblue" points="283.43,-241.5 293.43,-238 283.43,-234.5 283.43,-241.5"/>
</g>
<!-- Node11&#45;&gt;Node6 -->
<g id="edge17" class="edge">
<title>Node11&#45;&gt;Node6</title>
<path fill="none" stroke="midnightblue" d="M196.45,-171.57C208.3,-175.63 221.95,-180.66 234,-186 259.22,-197.17 286.85,-212.28 306.14,-223.33"/>
<polygon fill="midnightblue" stroke="midnightblue" points="304.49,-226.42 314.9,-228.4 308,-220.36 304.49,-226.42"/>
</g>
</g>
</svg>
