<?xml version="1.0" encoding="UTF-8" standalone="no"?>
<!DOCTYPE svg PUBLIC "-//W3C//DTD SVG 1.1//EN"
 "http://www.w3.org/Graphics/SVG/1.1/DTD/svg11.dtd">
<!-- Generated by graphviz version 2.43.0 (0)
 -->
<!-- Title: advance Pages: 1 -->
<!--zoomable 406 -->
<svg id="main" version="1.1" xmlns="http://www.w3.org/2000/svg" xmlns:xlink="http://www.w3.org/1999/xlink" xml:space="preserve" onload="init(evt)">
<style type="text/css"><![CDATA[
.edge:hover path { stroke: red; }
.edge:hover polygon { stroke: red; fill: red; }
]]></style>
<script type="text/javascript"><![CDATA[
var edges = document.getElementsByTagName('g');
if (edges && edges.length) {
  for (var i=0;i<edges.length;i++) {
    if (edges[i].id.substr(0,4)=='edge') {
      edges[i].setAttribute('class','edge');
    }
  }
}
]]></script>
        <defs>
                <circle id="rim" cx="0" cy="0" r="7"/>
                <circle id="rim2" cx="0" cy="0" r="3.5"/>
                <g id="zoomPlus">
                        <use xlink:href="#rim" fill="#404040">
                                <set attributeName="fill" to="#808080" begin="zoomplus.mouseover" end="zoomplus.mouseout"/>
                        </use>
                        <path d="M-4,0h8M0,-4v8" fill="none" stroke="white" stroke-width="1.5" pointer-events="none"/>
                </g>
                <g id="zoomMin">
                        <use xlink:href="#rim" fill="#404040">
                                <set attributeName="fill" to="#808080" begin="zoomminus.mouseover" end="zoomminus.mouseout"/>
                        </use>
                        <path d="M-4,0h8" fill="none" stroke="white" stroke-width="1.5" pointer-events="none"/>
                </g>
                <g id="dirArrow">
                        <path fill="none" stroke="white" stroke-width="1.5" d="M0,-3.0v7 M-2.5,-0.5L0,-3.0L2.5,-0.5"/>
                </g>
               <g id="resetDef">
                       <use xlink:href="#rim2" fill="#404040">
                               <set attributeName="fill" to="#808080" begin="reset.mouseover" end="reset.mouseout"/>
                       </use>
               </g>
        </defs>

<script type="text/javascript">
var viewWidth = 964;
var viewHeight = 406;
var sectionId = 'dynsection-2';
</script>
<script xlink:href="svgpan.js"/>
<svg id="graph" class="graph">
<g id="viewport">
<title>advance</title>
<!-- Node1 -->
<g id="node1" class="node">
<title>Node1</title>
<g id="a_node1"><a xlink:title="Advance one byte in the struct t_lexer to keep track of progress.">
<polygon fill="#bfbfbf" stroke="black" points="898,-191.13 898,-210.13 956,-210.13 956,-191.13 898,-191.13"/>
<text text-anchor="middle" x="927" y="-198.13" font-family="Helvetica,sans-Serif" font-size="10.00">advance</text>
</a>
</g>
</g>
<!-- Node2 -->
<g id="node2" class="node">
<title>Node2</title>
<g id="a_node2"><a xlink:href="lexer__word_8c.html#a088ba907ca2f9f7d89809627a5ef8313" target="_top" xlink:title="Lexes a segment delimited by double quotes.">
<polygon fill="none" stroke="black" points="725,-77.13 725,-96.13 862,-96.13 862,-77.13 725,-77.13"/>
<text text-anchor="middle" x="793.5" y="-84.13" font-family="Helvetica,sans-Serif" font-size="10.00">double_quoted_segment</text>
</a>
</g>
</g>
<!-- Node1&#45;&gt;Node2 -->
<g id="edge1" class="edge">
<title>Node1&#45;&gt;Node2</title>
<path fill="none" stroke="midnightblue" d="M918.03,-181.45C908.08,-159.83 889,-125.16 862,-105.63 856.67,-101.78 850.59,-98.7 844.31,-96.25"/>
<polygon fill="midnightblue" stroke="midnightblue" points="914.95,-183.14 922.18,-190.89 921.36,-180.33 914.95,-183.14"/>
</g>
<!-- Node3 -->
<g id="node3" class="node">
<title>Node3</title>
<g id="a_node3"><a xlink:href="lexer__word_8c.html#a8c3afe25ab140f0d5490ae1a8389e162" target="_top" xlink:title=" ">
<polygon fill="none" stroke="black" points="601,-110.13 601,-129.13 688,-129.13 688,-110.13 601,-110.13"/>
<text text-anchor="middle" x="644.5" y="-117.13" font-family="Helvetica,sans-Serif" font-size="10.00">lex_word_loop</text>
</a>
</g>
</g>
<!-- Node1&#45;&gt;Node3 -->
<g id="edge22" class="edge">
<title>Node1&#45;&gt;Node3</title>
<path fill="none" stroke="midnightblue" d="M888.29,-190.14C847.85,-178.84 781.8,-160.26 725,-143.63 709.09,-138.97 691.43,-133.66 676.8,-129.21"/>
<polygon fill="midnightblue" stroke="midnightblue" points="887.42,-193.53 897.99,-192.85 889.3,-186.79 887.42,-193.53"/>
</g>
<!-- Node7 -->
<g id="node7" class="node">
<title>Node7</title>
<g id="a_node7"><a xlink:href="expand__dollar_8c.html#ae2c40b201e71a1f59fb92ee39ac89d70" target="_top" xlink:title="Handle $? to expand on current error code.">
<polygon fill="none" stroke="black" points="600,-267.13 600,-286.13 689,-286.13 689,-267.13 600,-267.13"/>
<text text-anchor="middle" x="644.5" y="-274.13" font-family="Helvetica,sans-Serif" font-size="10.00">error_code_var</text>
</a>
</g>
</g>
<!-- Node1&#45;&gt;Node7 -->
<g id="edge6" class="edge">
<title>Node1&#45;&gt;Node7</title>
<path fill="none" stroke="midnightblue" d="M910.57,-217.53C898.58,-229.48 880.85,-244.74 862,-252.63 805.66,-276.21 734.24,-279.59 689.19,-278.87"/>
<polygon fill="midnightblue" stroke="midnightblue" points="913.16,-219.89 917.58,-210.26 908.12,-215.03 913.16,-219.89"/>
</g>
<!-- Node8 -->
<g id="node8" class="node">
<title>Node8</title>
<g id="a_node8"><a xlink:href="expand__dollar_8c.html#ac3e15865744ed2c1300a5cb96f24e33d" target="_top" xlink:title="Manages all possibilities with expand : $?, known and unknown env variable.">
<polygon fill="none" stroke="black" points="478.5,-286.13 478.5,-305.13 561.5,-305.13 561.5,-286.13 478.5,-286.13"/>
<text text-anchor="middle" x="520" y="-293.13" font-family="Helvetica,sans-Serif" font-size="10.00">handle_dollar</text>
</a>
</g>
</g>
<!-- Node1&#45;&gt;Node8 -->
<g id="edge17" class="edge">
<title>Node1&#45;&gt;Node8</title>
<path fill="none" stroke="midnightblue" d="M925.41,-220.25C923.12,-257.25 912.28,-336.76 862,-371.63 753.34,-446.98 582.46,-338.89 534.13,-305.14"/>
<polygon fill="midnightblue" stroke="midnightblue" points="928.91,-220.38 925.89,-210.23 921.92,-220.05 928.91,-220.38"/>
</g>
<!-- Node9 -->
<g id="node9" class="node">
<title>Node9</title>
<g id="a_node9"><a xlink:href="expand__word_8c.html#a051bcabe3f6edf5f6d234199cea49f48" target="_top" xlink:title=" ">
<polygon fill="none" stroke="black" points="332,-210.13 332,-229.13 440,-229.13 440,-210.13 332,-210.13"/>
<text text-anchor="middle" x="386" y="-217.13" font-family="Helvetica,sans-Serif" font-size="10.00">expand_word_loop</text>
</a>
</g>
</g>
<!-- Node1&#45;&gt;Node9 -->
<g id="edge16" class="edge">
<title>Node1&#45;&gt;Node9</title>
<path fill="none" stroke="midnightblue" d="M887.85,-210.27C879.39,-212.05 870.43,-213.65 862,-214.63 709.84,-232.37 528.42,-227 440.3,-222.71"/>
<polygon fill="midnightblue" stroke="midnightblue" points="888.85,-213.64 897.85,-208.05 887.33,-206.8 888.85,-213.64"/>
</g>
<!-- Node12 -->
<g id="node12" class="node">
<title>Node12</title>
<g id="a_node12"><a xlink:href="expand__dollar_8c.html#a6d96e914be2d2db42405f61048e85370" target="_top" xlink:title=" ">
<polygon fill="none" stroke="black" points="603.5,-305.13 603.5,-324.13 685.5,-324.13 685.5,-305.13 603.5,-305.13"/>
<text text-anchor="middle" x="644.5" y="-312.13" font-family="Helvetica,sans-Serif" font-size="10.00">expand_valid</text>
</a>
</g>
</g>
<!-- Node1&#45;&gt;Node12 -->
<g id="edge12" class="edge">
<title>Node1&#45;&gt;Node12</title>
<path fill="none" stroke="midnightblue" d="M916.2,-219.03C905.45,-237.28 886.42,-264.51 862,-278.63 806.91,-310.48 731.57,-316.1 685.83,-316.15"/>
<polygon fill="midnightblue" stroke="midnightblue" points="919.32,-220.62 921.18,-210.19 913.22,-217.18 919.32,-220.62"/>
</g>
<!-- Node13 -->
<g id="node13" class="node">
<title>Node13</title>
<g id="a_node13"><a xlink:href="expand__dollar_8c.html#a288ca34d78433c242163338d2e877550" target="_top" xlink:title=" ">
<polygon fill="none" stroke="black" points="729,-343.13 729,-362.13 858,-362.13 858,-343.13 729,-343.13"/>
<text text-anchor="middle" x="793.5" y="-350.13" font-family="Helvetica,sans-Serif" font-size="10.00">expand_valid_build_str</text>
</a>
</g>
</g>
<!-- Node1&#45;&gt;Node13 -->
<g id="edge14" class="edge">
<title>Node1&#45;&gt;Node13</title>
<path fill="none" stroke="midnightblue" d="M921.29,-219.9C913.55,-247.7 895.51,-298.98 862,-328.63 854.92,-334.89 846.1,-339.55 837.19,-343.01"/>
<polygon fill="midnightblue" stroke="midnightblue" points="924.69,-220.73 923.85,-210.17 917.92,-218.95 924.69,-220.73"/>
</g>
<!-- Node14 -->
<g id="node14" class="node">
<title>Node14</title>
<g id="a_node14"><a xlink:href="expand__word_8c.html#add0124b30c1b263c28a7881e90685366" target="_top" xlink:title="Dequotes and manage quote state to expand correctly.">
<polygon fill="none" stroke="black" points="476,-191.13 476,-210.13 564,-210.13 564,-191.13 476,-191.13"/>
<text text-anchor="middle" x="520" y="-198.13" font-family="Helvetica,sans-Serif" font-size="10.00">handle_quotes</text>
</a>
</g>
</g>
<!-- Node1&#45;&gt;Node14 -->
<g id="edge18" class="edge">
<title>Node1&#45;&gt;Node14</title>
<path fill="none" stroke="midnightblue" d="M887.8,-200.63C812.1,-200.63 643.51,-200.63 564.04,-200.63"/>
<polygon fill="midnightblue" stroke="midnightblue" points="887.84,-204.13 897.84,-200.63 887.84,-197.13 887.84,-204.13"/>
</g>
<!-- Node15 -->
<g id="node15" class="node">
<title>Node15</title>
<g id="a_node15"><a xlink:href="lexer_8c.html#a4224de0ac9d722a19a477ae2880f54da" target="_top" xlink:title="Make the operator in the global string a token.">
<polygon fill="none" stroke="black" points="605.5,-1.13 605.5,-20.13 683.5,-20.13 683.5,-1.13 605.5,-1.13"/>
<text text-anchor="middle" x="644.5" y="-8.13" font-family="Helvetica,sans-Serif" font-size="10.00">lex_operator</text>
</a>
</g>
</g>
<!-- Node1&#45;&gt;Node15 -->
<g id="edge20" class="edge">
<title>Node1&#45;&gt;Node15</title>
<path fill="none" stroke="midnightblue" d="M924.72,-180.58C921.27,-144.85 908.58,-70.53 862,-34.63 810.63,4.96 730.92,2.28 683.9,-3.81"/>
<polygon fill="midnightblue" stroke="midnightblue" points="921.25,-181.05 925.55,-190.73 928.23,-180.48 921.25,-181.05"/>
</g>
<!-- Node16 -->
<g id="node16" class="node">
<title>Node16</title>
<g id="a_node16"><a xlink:href="lexer__word_8c.html#ad9e7809fee584699717eb691257a6ded" target="_top" xlink:title="Lexes a segment delimited by single quotes.">
<polygon fill="none" stroke="black" points="727,-115.13 727,-134.13 860,-134.13 860,-115.13 727,-115.13"/>
<text text-anchor="middle" x="793.5" y="-122.13" font-family="Helvetica,sans-Serif" font-size="10.00">single_quoted_segment</text>
</a>
</g>
</g>
<!-- Node1&#45;&gt;Node16 -->
<g id="edge23" class="edge">
<title>Node1&#45;&gt;Node16</title>
<path fill="none" stroke="midnightblue" d="M908.75,-183.87C896.51,-172.69 879.24,-158.32 862,-148.63 851.59,-142.78 839.5,-137.94 828.44,-134.18"/>
<polygon fill="midnightblue" stroke="midnightblue" points="906.68,-186.72 916.37,-191 911.46,-181.61 906.68,-186.72"/>
</g>
<!-- Node17 -->
<g id="node17" class="node">
<title>Node17</title>
<g id="a_node17"><a xlink:href="lexer__utils_8c.html#a0665b31ffb5665ad2a085f2b1a5e0e25" target="_top" xlink:title="Skip whitespaces in the t_lexer struct.">
<polygon fill="none" stroke="black" points="478,-51.13 478,-70.13 562,-70.13 562,-51.13 478,-51.13"/>
<text text-anchor="middle" x="520" y="-58.13" font-family="Helvetica,sans-Serif" font-size="10.00">skip_wspaces</text>
</a>
</g>
</g>
<!-- Node1&#45;&gt;Node17 -->
<g id="edge25" class="edge">
<title>Node1&#45;&gt;Node17</title>
<path fill="none" stroke="midnightblue" d="M923.03,-180.81C917.29,-150.4 901.56,-93.07 862,-67.63 813.56,-36.49 641.89,-48.63 562.2,-56.26"/>
<polygon fill="midnightblue" stroke="midnightblue" points="919.64,-181.76 924.77,-191.03 926.54,-180.58 919.64,-181.76"/>
</g>
<!-- Node2&#45;&gt;Node3 -->
<g id="edge2" class="edge">
<title>Node2&#45;&gt;Node3</title>
<path fill="none" stroke="midnightblue" d="M740.13,-98.39C723.01,-102.23 704.22,-106.45 687.92,-110.11"/>
<polygon fill="midnightblue" stroke="midnightblue" points="740.99,-101.78 749.98,-96.17 739.46,-94.95 740.99,-101.78"/>
</g>
<!-- Node4 -->
<g id="node4" class="node">
<title>Node4</title>
<g id="a_node4"><a xlink:href="lexer__word_8c.html#a4093905b7d1dfe02710752ee5da8fe01" target="_top" xlink:title="Lexes the string to create a WORD token.">
<polygon fill="none" stroke="black" points="489.5,-91.13 489.5,-110.13 550.5,-110.13 550.5,-91.13 489.5,-91.13"/>
<text text-anchor="middle" x="520" y="-98.13" font-family="Helvetica,sans-Serif" font-size="10.00">lex_word</text>
</a>
</g>
</g>
<!-- Node3&#45;&gt;Node4 -->
<g id="edge3" class="edge">
<title>Node3&#45;&gt;Node4</title>
<path fill="none" stroke="midnightblue" d="M591.09,-111.5C577.28,-109.36 562.85,-107.12 550.7,-105.24"/>
<polygon fill="midnightblue" stroke="midnightblue" points="590.58,-114.96 601,-113.04 591.65,-108.05 590.58,-114.96"/>
</g>
<!-- Node5 -->
<g id="node5" class="node">
<title>Node5</title>
<g id="a_node5"><a xlink:href="lexer_8c.html#aced469451204cf536fd18b4cf94f6b91" target="_top" xlink:title="Global lexing function, that traverses readline&#39;s string and separate in tokens.">
<polygon fill="none" stroke="black" points="365.5,-66.13 365.5,-85.13 406.5,-85.13 406.5,-66.13 365.5,-66.13"/>
<text text-anchor="middle" x="386" y="-73.13" font-family="Helvetica,sans-Serif" font-size="10.00">lexer</text>
</a>
</g>
</g>
<!-- Node4&#45;&gt;Node5 -->
<g id="edge4" class="edge">
<title>Node4&#45;&gt;Node5</title>
<path fill="none" stroke="midnightblue" d="M479.48,-93.14C455.47,-88.6 425.85,-82.99 406.71,-79.36"/>
<polygon fill="midnightblue" stroke="midnightblue" points="478.9,-96.6 489.38,-95.02 480.2,-89.72 478.9,-96.6"/>
</g>
<!-- Node6 -->
<g id="node6" class="node">
<title>Node6</title>
<g id="a_node6"><a xlink:href="main_8c.html#a647f21a28344e1d9c643f4115516d7c9" target="_top" xlink:title=" ">
<polygon fill="none" stroke="black" points="0,-108.13 0,-127.13 41,-127.13 41,-108.13 0,-108.13"/>
<text text-anchor="middle" x="20.5" y="-115.13" font-family="Helvetica,sans-Serif" font-size="10.00">main</text>
</a>
</g>
</g>
<!-- Node5&#45;&gt;Node6 -->
<g id="edge5" class="edge">
<title>Node5&#45;&gt;Node6</title>
<path fill="none" stroke="midnightblue" d="M355.28,-79.06C283.33,-87.38 101.3,-108.41 41.14,-115.36"/>
<polygon fill="midnightblue" stroke="midnightblue" points="355.92,-82.51 365.46,-77.89 355.12,-75.56 355.92,-82.51"/>
</g>
<!-- Node7&#45;&gt;Node8 -->
<g id="edge7" class="edge">
<title>Node7&#45;&gt;Node8</title>
<path fill="none" stroke="midnightblue" d="M589.81,-284.96C580.32,-286.43 570.58,-287.94 561.53,-289.34"/>
<polygon fill="midnightblue" stroke="midnightblue" points="590.62,-288.37 599.97,-283.38 589.55,-281.46 590.62,-288.37"/>
</g>
<!-- Node8&#45;&gt;Node9 -->
<g id="edge8" class="edge">
<title>Node8&#45;&gt;Node9</title>
<path fill="none" stroke="midnightblue" d="M493.55,-280.97C467.02,-265.7 426.22,-242.21 403.58,-229.18"/>
<polygon fill="midnightblue" stroke="midnightblue" points="491.87,-284.05 502.28,-286 495.36,-277.98 491.87,-284.05"/>
</g>
<!-- Node10 -->
<g id="node10" class="node">
<title>Node10</title>
<g id="a_node10"><a xlink:href="expand__word_8c.html#a0ec378990f411456436a9bb6a71babfc" target="_top" xlink:title="Scans the word to dequote/expand and build correct output.">
<polygon fill="none" stroke="black" points="214,-198.13 214,-217.13 296,-217.13 296,-198.13 214,-198.13"/>
<text text-anchor="middle" x="255" y="-205.13" font-family="Helvetica,sans-Serif" font-size="10.00">expand_word</text>
</a>
</g>
</g>
<!-- Node9&#45;&gt;Node10 -->
<g id="edge9" class="edge">
<title>Node9&#45;&gt;Node10</title>
<path fill="none" stroke="midnightblue" d="M321.63,-213.73C312.93,-212.92 304.2,-212.11 296.08,-211.36"/>
<polygon fill="midnightblue" stroke="midnightblue" points="321.5,-217.24 331.79,-214.68 322.15,-210.27 321.5,-217.24"/>
</g>
<!-- Node11 -->
<g id="node11" class="node">
<title>Node11</title>
<g id="a_node11"><a xlink:href="expand_8c.html#a53c53e75b0ad8c8888217cd918304b8b" target="_top" xlink:title="Iterate over every args and redir of each command to expand and dequote what needs to be.">
<polygon fill="none" stroke="black" points="77,-174.13 77,-193.13 178,-193.13 178,-174.13 77,-174.13"/>
<text text-anchor="middle" x="127.5" y="-181.13" font-family="Helvetica,sans-Serif" font-size="10.00">expand_manager</text>
</a>
</g>
</g>
<!-- Node10&#45;&gt;Node11 -->
<g id="edge10" class="edge">
<title>Node10&#45;&gt;Node11</title>
<path fill="none" stroke="midnightblue" d="M203.87,-198.04C195.45,-196.43 186.72,-194.76 178.3,-193.15"/>
<polygon fill="midnightblue" stroke="midnightblue" points="203.47,-201.53 213.95,-199.97 204.78,-194.65 203.47,-201.53"/>
</g>
<!-- Node11&#45;&gt;Node6 -->
<g id="edge11" class="edge">
<title>Node11&#45;&gt;Node6</title>
<path fill="none" stroke="midnightblue" d="M102.35,-168.45C82.14,-155.74 53.91,-138 36.72,-127.19"/>
<polygon fill="midnightblue" stroke="midnightblue" points="100.68,-171.53 111.01,-173.89 104.4,-165.61 100.68,-171.53"/>
</g>
<!-- Node12&#45;&gt;Node8 -->
<g id="edge13" class="edge">
<title>Node12&#45;&gt;Node8</title>
<path fill="none" stroke="midnightblue" d="M593.43,-306.86C582.85,-305.22 571.8,-303.51 561.62,-301.93"/>
<polygon fill="midnightblue" stroke="midnightblue" points="592.97,-310.33 603.39,-308.41 594.04,-303.42 592.97,-310.33"/>
</g>
<!-- Node13&#45;&gt;Node12 -->
<g id="edge15" class="edge">
<title>Node13&#45;&gt;Node12</title>
<path fill="none" stroke="midnightblue" d="M745.65,-340.52C725.17,-335.22 701.51,-329.11 682.33,-324.15"/>
<polygon fill="midnightblue" stroke="midnightblue" points="744.85,-343.93 755.41,-343.04 746.6,-337.15 744.85,-343.93"/>
</g>
<!-- Node14&#45;&gt;Node9 -->
<g id="edge19" class="edge">
<title>Node14&#45;&gt;Node9</title>
<path fill="none" stroke="midnightblue" d="M465.65,-208.31C457.19,-209.53 448.45,-210.78 440,-212"/>
<polygon fill="midnightblue" stroke="midnightblue" points="466.38,-211.74 475.78,-206.85 465.38,-204.81 466.38,-211.74"/>
</g>
<!-- Node15&#45;&gt;Node5 -->
<g id="edge21" class="edge">
<title>Node15&#45;&gt;Node5</title>
<path fill="none" stroke="midnightblue" d="M595.4,-17.15C561.63,-22.31 515.61,-30.5 476,-41.63 451.64,-48.48 424.61,-59.28 406.8,-66.87"/>
<polygon fill="midnightblue" stroke="midnightblue" points="596.09,-20.59 605.46,-15.65 595.06,-13.67 596.09,-20.59"/>
</g>
<!-- Node16&#45;&gt;Node3 -->
<g id="edge24" class="edge">
<title>Node16&#45;&gt;Node3</title>
<path fill="none" stroke="midnightblue" d="M716.65,-122.05C706.96,-121.72 697.33,-121.39 688.42,-121.09"/>
<polygon fill="midnightblue" stroke="midnightblue" points="716.63,-125.55 726.74,-122.39 716.86,-118.55 716.63,-125.55"/>
</g>
<!-- Node17&#45;&gt;Node5 -->
<g id="edge26" class="edge">
<title>Node17&#45;&gt;Node5</title>
<path fill="none" stroke="midnightblue" d="M467.97,-66.43C446.5,-68.87 422.81,-71.56 406.63,-73.4"/>
<polygon fill="midnightblue" stroke="midnightblue" points="468.42,-69.9 477.96,-65.29 467.63,-62.94 468.42,-69.9"/>
</g>
</g>
</svg>
        <g id="navigator" transform="translate(0 0)" fill="#404254">
                <rect fill="#f2f5e9" fill-opacity="0.5" stroke="#606060" stroke-width=".5" x="0" y="0" width="60" height="60"/>
                <use id="zoomplus" xlink:href="#zoomPlus" x="17" y="9" onmousedown="handleZoom(evt,'in')"/>
                <use id="zoomminus" xlink:href="#zoomMin" x="42" y="9" onmousedown="handleZoom(evt,'out')"/>
                <use id="reset" xlink:href="#resetDef" x="30" y="36" onmousedown="handleReset()"/>
                <g id="arrowUp" xlink:href="#dirArrow" transform="translate(30 24)" onmousedown="handlePan(0,-1)">
                  <use xlink:href="#rim" fill="#404040">
                        <set attributeName="fill" to="#808080" begin="arrowUp.mouseover" end="arrowUp.mouseout"/>
                  </use>
                  <path fill="none" stroke="white" stroke-width="1.5" d="M0,-3.0v7 M-2.5,-0.5L0,-3.0L2.5,-0.5"/>
                </g>
                <g id="arrowRight" xlink:href="#dirArrow" transform="rotate(90) translate(36 -43)" onmousedown="handlePan(1,0)">
                  <use xlink:href="#rim" fill="#404040">
                        <set attributeName="fill" to="#808080" begin="arrowRight.mouseover" end="arrowRight.mouseout"/>
                  </use>
                  <path fill="none" stroke="white" stroke-width="1.5" d="M0,-3.0v7 M-2.5,-0.5L0,-3.0L2.5,-0.5"/>
                </g>
                <g id="arrowDown" xlink:href="#dirArrow" transform="rotate(180) translate(-30 -48)" onmousedown="handlePan(0,1)">
                  <use xlink:href="#rim" fill="#404040">
                        <set attributeName="fill" to="#808080" begin="arrowDown.mouseover" end="arrowDown.mouseout"/>
                  </use>
                  <path fill="none" stroke="white" stroke-width="1.5" d="M0,-3.0v7 M-2.5,-0.5L0,-3.0L2.5,-0.5"/>
                </g>
                <g id="arrowLeft" xlink:href="#dirArrow" transform="rotate(270) translate(-36 17)" onmousedown="handlePan(-1,0)">
                  <use xlink:href="#rim" fill="#404040">
                        <set attributeName="fill" to="#808080" begin="arrowLeft.mouseover" end="arrowLeft.mouseout"/>
                  </use>
                  <path fill="none" stroke="white" stroke-width="1.5" d="M0,-3.0v7 M-2.5,-0.5L0,-3.0L2.5,-0.5"/>
                </g>
        </g>
        <svg viewBox="0 0 15 15" width="100%" height="30px" preserveAspectRatio="xMaxYMin meet">
         <g id="arrow_out" transform="scale(0.3 0.3)">
          <a xlink:href="parsing_8h_a6b132516dacc9599762b1fe7341a0f04_icgraph_org.svg" target="_base">
           <rect id="button" ry="5" rx="5" y="6" x="6" height="38" width="38"
                fill="#f2f5e9" fill-opacity="0.5" stroke="#606060" stroke-width="1.0"/>
           <path id="arrow"
             d="M 11.500037,31.436501 C 11.940474,20.09759 22.043105,11.32322 32.158766,21.979434 L 37.068811,17.246167 C 37.068811,17.246167 37.088388,32 37.088388,32 L 22.160133,31.978069 C 22.160133,31.978069 26.997745,27.140456 26.997745,27.140456 C 18.528582,18.264221 13.291696,25.230495 11.500037,31.436501 z"
             style="fill:#404040;"/>
          </a>
         </g>
        </svg>
</svg>
