<?xml version="1.0" encoding="UTF-8" standalone="no"?>
<!DOCTYPE svg PUBLIC "-//W3C//DTD SVG 1.1//EN"
 "http://www.w3.org/Graphics/SVG/1.1/DTD/svg11.dtd">
<!-- Generated by graphviz version 2.43.0 (0)
 -->
<!-- Title: includes/parsing.h Pages: 1 -->
<svg width="1316pt" height="140pt"
 viewBox="0.00 0.00 1316.00 140.00" xmlns="http://www.w3.org/2000/svg" xmlns:xlink="http://www.w3.org/1999/xlink">
<g id="graph0" class="graph" transform="scale(1 1) rotate(0) translate(4 136)">
<title>includes/parsing.h</title>
<!-- Node1 -->
<g id="node1" class="node">
<title>Node1</title>
<g id="a_node1"><a xlink:title=" ">
<polygon fill="#bfbfbf" stroke="black" points="669.5,-112.5 669.5,-131.5 774.5,-131.5 774.5,-112.5 669.5,-112.5"/>
<text text-anchor="middle" x="722" y="-119.5" font-family="Helvetica,sans-Serif" font-size="10.00">includes/parsing.h</text>
</a>
</g>
</g>
<!-- Node2 -->
<g id="node2" class="node">
<title>Node2</title>
<g id="a_node2"><a xlink:href="lexer_8c.html" target="_top" xlink:title=" ">
<polygon fill="none" stroke="black" points="0,-56.5 0,-75.5 98,-75.5 98,-56.5 0,-56.5"/>
<text text-anchor="middle" x="49" y="-63.5" font-family="Helvetica,sans-Serif" font-size="10.00">src/lexing/lexer.c</text>
</a>
</g>
</g>
<!-- Node1&#45;&gt;Node2 -->
<g id="edge1" class="edge">
<title>Node1&#45;&gt;Node2</title>
<path fill="none" stroke="midnightblue" d="M659.16,-118.08C547.69,-112.54 308.14,-98.93 107,-76 104.06,-75.67 101.05,-75.29 98.01,-74.89"/>
<polygon fill="midnightblue" stroke="midnightblue" points="659.06,-121.58 669.22,-118.58 659.4,-114.59 659.06,-121.58"/>
</g>
<!-- Node3 -->
<g id="node3" class="node">
<title>Node3</title>
<g id="a_node3"><a xlink:href="lexer__utils_8c.html" target="_top" xlink:title=" ">
<polygon fill="none" stroke="black" points="116.5,-56.5 116.5,-75.5 241.5,-75.5 241.5,-56.5 116.5,-56.5"/>
<text text-anchor="middle" x="179" y="-63.5" font-family="Helvetica,sans-Serif" font-size="10.00">src/lexing/lexer_utils.c</text>
</a>
</g>
</g>
<!-- Node1&#45;&gt;Node3 -->
<g id="edge2" class="edge">
<title>Node1&#45;&gt;Node3</title>
<path fill="none" stroke="midnightblue" d="M659.25,-115.59C568.92,-107.67 397.03,-92.1 251,-76 247.99,-75.67 244.92,-75.32 241.82,-74.96"/>
<polygon fill="midnightblue" stroke="midnightblue" points="659.06,-119.09 669.32,-116.47 659.67,-112.11 659.06,-119.09"/>
</g>
<!-- Node4 -->
<g id="node4" class="node">
<title>Node4</title>
<g id="a_node4"><a xlink:href="lexer__word_8c.html" target="_top" xlink:title=" ">
<polygon fill="none" stroke="black" points="260,-56.5 260,-75.5 388,-75.5 388,-56.5 260,-56.5"/>
<text text-anchor="middle" x="324" y="-63.5" font-family="Helvetica,sans-Serif" font-size="10.00">src/lexing/lexer_word.c</text>
</a>
</g>
</g>
<!-- Node1&#45;&gt;Node4 -->
<g id="edge3" class="edge">
<title>Node1&#45;&gt;Node4</title>
<path fill="none" stroke="midnightblue" d="M658.97,-112.45C584.5,-102.34 461.35,-85.63 386.92,-75.54"/>
<polygon fill="midnightblue" stroke="midnightblue" points="658.77,-115.95 669.15,-113.83 659.71,-109.02 658.77,-115.95"/>
</g>
<!-- Node5 -->
<g id="node5" class="node">
<title>Node5</title>
<g id="a_node5"><a xlink:href="string__builder_8c.html" target="_top" xlink:title=" ">
<polygon fill="none" stroke="black" points="406.5,-56.5 406.5,-75.5 547.5,-75.5 547.5,-56.5 406.5,-56.5"/>
<text text-anchor="middle" x="477" y="-63.5" font-family="Helvetica,sans-Serif" font-size="10.00">src/lexing/string_builder.c</text>
</a>
</g>
</g>
<!-- Node1&#45;&gt;Node5 -->
<g id="edge4" class="edge">
<title>Node1&#45;&gt;Node5</title>
<path fill="none" stroke="midnightblue" d="M673.37,-110.28C627.07,-100.08 558.31,-84.92 515.64,-75.52"/>
<polygon fill="midnightblue" stroke="midnightblue" points="672.66,-113.71 683.18,-112.44 674.17,-106.87 672.66,-113.71"/>
</g>
<!-- Node6 -->
<g id="node6" class="node">
<title>Node6</title>
<g id="a_node6"><a xlink:href="token__utils_8c.html" target="_top" xlink:title=" ">
<polygon fill="none" stroke="black" points="566,-56.5 566,-75.5 694,-75.5 694,-56.5 566,-56.5"/>
<text text-anchor="middle" x="630" y="-63.5" font-family="Helvetica,sans-Serif" font-size="10.00">src/lexing/token_utils.c</text>
</a>
</g>
</g>
<!-- Node1&#45;&gt;Node6 -->
<g id="edge5" class="edge">
<title>Node1&#45;&gt;Node6</title>
<path fill="none" stroke="midnightblue" d="M698.45,-107.18C681.52,-97.24 659.22,-84.15 644.74,-75.65"/>
<polygon fill="midnightblue" stroke="midnightblue" points="696.82,-110.28 707.22,-112.32 700.37,-104.24 696.82,-110.28"/>
</g>
<!-- Node7 -->
<g id="node7" class="node">
<title>Node7</title>
<g id="a_node7"><a xlink:href="main_8c.html" target="_top" xlink:title=" ">
<polygon fill="none" stroke="black" points="944.5,-0.5 944.5,-19.5 1011.5,-19.5 1011.5,-0.5 944.5,-0.5"/>
<text text-anchor="middle" x="978" y="-7.5" font-family="Helvetica,sans-Serif" font-size="10.00">src/main.c</text>
</a>
</g>
</g>
<!-- Node1&#45;&gt;Node7 -->
<g id="edge6" class="edge">
<title>Node1&#45;&gt;Node7</title>
<path fill="none" stroke="midnightblue" d="M722.72,-102.34C724.32,-87.62 728.96,-67.67 742,-56 771.44,-29.63 886.61,-17.64 944.46,-13.19"/>
<polygon fill="midnightblue" stroke="midnightblue" points="719.22,-102.14 722,-112.36 726.21,-102.64 719.22,-102.14"/>
</g>
<!-- Node8 -->
<g id="node8" class="node">
<title>Node8</title>
<g id="a_node8"><a xlink:href="argv__builder_8c.html" target="_top" xlink:title=" ">
<polygon fill="none" stroke="black" points="750.5,-56.5 750.5,-75.5 891.5,-75.5 891.5,-56.5 750.5,-56.5"/>
<text text-anchor="middle" x="821" y="-63.5" font-family="Helvetica,sans-Serif" font-size="10.00">src/parsing/argv_builder.c</text>
</a>
</g>
</g>
<!-- Node1&#45;&gt;Node8 -->
<g id="edge7" class="edge">
<title>Node1&#45;&gt;Node8</title>
<path fill="none" stroke="midnightblue" d="M746.84,-107.45C765.11,-97.48 789.42,-84.23 805.13,-75.65"/>
<polygon fill="midnightblue" stroke="midnightblue" points="745.01,-104.46 737.91,-112.32 748.36,-110.61 745.01,-104.46"/>
</g>
<!-- Node9 -->
<g id="node9" class="node">
<title>Node9</title>
<g id="a_node9"><a xlink:href="error_8c.html" target="_top" xlink:title=" ">
<polygon fill="none" stroke="black" points="910,-56.5 910,-75.5 1014,-75.5 1014,-56.5 910,-56.5"/>
<text text-anchor="middle" x="962" y="-63.5" font-family="Helvetica,sans-Serif" font-size="10.00">src/parsing/error.c</text>
</a>
</g>
</g>
<!-- Node1&#45;&gt;Node9 -->
<g id="edge8" class="edge">
<title>Node1&#45;&gt;Node9</title>
<path fill="none" stroke="midnightblue" d="M769.92,-110.22C815.27,-100.01 882.44,-84.9 924.15,-75.52"/>
<polygon fill="midnightblue" stroke="midnightblue" points="769.02,-106.83 760.03,-112.44 770.55,-113.66 769.02,-106.83"/>
</g>
<!-- Node10 -->
<g id="node10" class="node">
<title>Node10</title>
<g id="a_node10"><a xlink:href="parser_8c.html" target="_top" xlink:title=" ">
<polygon fill="none" stroke="black" points="1032.5,-56.5 1032.5,-75.5 1143.5,-75.5 1143.5,-56.5 1032.5,-56.5"/>
<text text-anchor="middle" x="1088" y="-63.5" font-family="Helvetica,sans-Serif" font-size="10.00">src/parsing/parser.c</text>
</a>
</g>
</g>
<!-- Node1&#45;&gt;Node10 -->
<g id="edge9" class="edge">
<title>Node1&#45;&gt;Node10</title>
<path fill="none" stroke="midnightblue" d="M784.8,-111.73C854.49,-101.45 965.88,-85.02 1032.49,-75.19"/>
<polygon fill="midnightblue" stroke="midnightblue" points="784.21,-108.28 774.83,-113.21 785.23,-115.21 784.21,-108.28"/>
</g>
<!-- Node11 -->
<g id="node11" class="node">
<title>Node11</title>
<g id="a_node11"><a xlink:href="parsing__helpers_8h.html" target="_top" xlink:title=" ">
<polygon fill="none" stroke="black" points="1162,-56.5 1162,-75.5 1308,-75.5 1308,-56.5 1162,-56.5"/>
<text text-anchor="middle" x="1235" y="-63.5" font-family="Helvetica,sans-Serif" font-size="10.00">includes/parsing_helpers.h</text>
</a>
</g>
</g>
<!-- Node1&#45;&gt;Node11 -->
<g id="edge10" class="edge">
<title>Node1&#45;&gt;Node11</title>
<path fill="none" stroke="midnightblue" d="M784.55,-113.92C866.97,-105.15 1016.18,-89.69 1144,-76 1149.7,-75.39 1155.61,-74.75 1161.58,-74.11"/>
<polygon fill="midnightblue" stroke="midnightblue" points="784.17,-110.44 774.59,-114.98 784.91,-117.4 784.17,-110.44"/>
</g>
<!-- Node11&#45;&gt;Node1 -->
<g id="edge12" class="edge">
<title>Node11&#45;&gt;Node1</title>
<path fill="none" stroke="midnightblue" d="M1156.16,-76.62C1014.8,-91.73 855.56,-108.19 774.72,-116.15"/>
<polygon fill="midnightblue" stroke="midnightblue" points="1156.74,-80.08 1166.31,-75.54 1155.99,-73.12 1156.74,-80.08"/>
</g>
<!-- Node11&#45;&gt;Node7 -->
<g id="edge11" class="edge">
<title>Node11&#45;&gt;Node7</title>
<path fill="none" stroke="midnightblue" d="M1184.41,-54.37C1133.25,-43.62 1055.6,-27.3 1011.57,-18.05"/>
<polygon fill="midnightblue" stroke="midnightblue" points="1183.77,-57.81 1194.28,-56.44 1185.21,-50.96 1183.77,-57.81"/>
</g>
</g>
</svg>
