<?xml version="1.0" encoding="UTF-8" standalone="no"?>
<!DOCTYPE svg PUBLIC "-//W3C//DTD SVG 1.1//EN"
 "http://www.w3.org/Graphics/SVG/1.1/DTD/svg11.dtd">
<!-- Generated by graphviz version 2.43.0 (0)
 -->
<!-- Title: parse_cmd Pages: 1 -->
<svg width="900pt" height="332pt"
 viewBox="0.00 0.00 900.00 332.00" xmlns="http://www.w3.org/2000/svg" xmlns:xlink="http://www.w3.org/1999/xlink">
<g id="graph0" class="graph" transform="scale(1 1) rotate(0) translate(4 328)">
<title>parse_cmd</title>
<!-- Node1 -->
<g id="node1" class="node">
<title>Node1</title>
<g id="a_node1"><a xlink:title=" ">
<polygon fill="#bfbfbf" stroke="black" points="0,-171.5 0,-190.5 70,-190.5 70,-171.5 0,-171.5"/>
<text text-anchor="middle" x="35" y="-178.5" font-family="Helvetica,sans-Serif" font-size="10.00">parse_cmd</text>
</a>
</g>
</g>
<!-- Node2 -->
<g id="node2" class="node">
<title>Node2</title>
<g id="a_node2"><a xlink:href="argv__builder_8c.html#a5f4104276b4a0d98dde31f75622668b4" target="_top" xlink:title="Ends and null terminate the argv so it can be used.">
<polygon fill="none" stroke="black" points="108.5,-304.5 108.5,-323.5 191.5,-323.5 191.5,-304.5 108.5,-304.5"/>
<text text-anchor="middle" x="150" y="-311.5" font-family="Helvetica,sans-Serif" font-size="10.00">argv_buf_end</text>
</a>
</g>
</g>
<!-- Node1&#45;&gt;Node2 -->
<g id="edge1" class="edge">
<title>Node1&#45;&gt;Node2</title>
<path fill="none" stroke="midnightblue" d="M39.56,-190.59C47.97,-212.05 71.02,-264.44 106,-295 107.75,-296.53 109.64,-297.95 111.62,-299.27"/>
<polygon fill="midnightblue" stroke="midnightblue" points="110.28,-302.54 120.7,-304.44 113.74,-296.45 110.28,-302.54"/>
</g>
<!-- Node4 -->
<g id="node4" class="node">
<title>Node4</title>
<g id="a_node4"><a xlink:href="argv__builder_8c.html#a182f853e31c31af45e572979074a4d99" target="_top" xlink:title="Free each string of the argv then the global array.">
<polygon fill="none" stroke="black" points="108,-266.5 108,-285.5 192,-285.5 192,-266.5 108,-266.5"/>
<text text-anchor="middle" x="150" y="-273.5" font-family="Helvetica,sans-Serif" font-size="10.00">argv_buf_free</text>
</a>
</g>
</g>
<!-- Node1&#45;&gt;Node4 -->
<g id="edge3" class="edge">
<title>Node1&#45;&gt;Node4</title>
<path fill="none" stroke="midnightblue" d="M42.75,-190.58C54.21,-206.26 78.87,-237.58 106,-257 108.36,-258.69 110.9,-260.28 113.52,-261.76"/>
<polygon fill="midnightblue" stroke="midnightblue" points="112.1,-264.97 122.6,-266.38 115.28,-258.73 112.1,-264.97"/>
</g>
<!-- Node5 -->
<g id="node5" class="node">
<title>Node5</title>
<g id="a_node5"><a xlink:href="argv__builder_8c.html#aee97e8a2ae269ee4063d3ea917e93ffc" target="_top" xlink:title=" ">
<polygon fill="none" stroke="black" points="110,-228.5 110,-247.5 190,-247.5 190,-228.5 110,-228.5"/>
<text text-anchor="middle" x="150" y="-235.5" font-family="Helvetica,sans-Serif" font-size="10.00">argv_buf_init</text>
</a>
</g>
</g>
<!-- Node1&#45;&gt;Node5 -->
<g id="edge4" class="edge">
<title>Node1&#45;&gt;Node5</title>
<path fill="none" stroke="midnightblue" d="M52.77,-190.6C66.83,-198.53 87.51,-209.91 106,-219 109.61,-220.77 113.41,-222.56 117.21,-224.3"/>
<polygon fill="midnightblue" stroke="midnightblue" points="115.97,-227.58 126.52,-228.48 118.83,-221.19 115.97,-227.58"/>
</g>
<!-- Node6 -->
<g id="node6" class="node">
<title>Node6</title>
<g id="a_node6"><a xlink:href="argv__builder_8c.html#a71866a37dc221a296b930979eb5e98c2" target="_top" xlink:title="Tool to build an argv with a buffer that reallocates when more memory is needed and add a string to t...">
<polygon fill="none" stroke="black" points="106,-190.5 106,-209.5 194,-209.5 194,-190.5 106,-190.5"/>
<text text-anchor="middle" x="150" y="-197.5" font-family="Helvetica,sans-Serif" font-size="10.00">argv_buf_push</text>
</a>
</g>
</g>
<!-- Node1&#45;&gt;Node6 -->
<g id="edge5" class="edge">
<title>Node1&#45;&gt;Node6</title>
<path fill="none" stroke="midnightblue" d="M70.21,-186.75C78.24,-188.1 86.99,-189.57 95.63,-191.03"/>
<polygon fill="midnightblue" stroke="midnightblue" points="95.25,-194.51 105.69,-192.72 96.41,-187.61 95.25,-194.51"/>
</g>
<!-- Node7 -->
<g id="node7" class="node">
<title>Node7</title>
<g id="a_node7"><a xlink:href="parser__utils_8c.html#aa186cacc84a5d4dc8cd19bc371be0b61" target="_top" xlink:title=" ">
<polygon fill="none" stroke="black" points="252.5,-142.5 252.5,-161.5 311.5,-161.5 311.5,-142.5 252.5,-142.5"/>
<text text-anchor="middle" x="282" y="-149.5" font-family="Helvetica,sans-Serif" font-size="10.00">cur_next</text>
</a>
</g>
</g>
<!-- Node1&#45;&gt;Node7 -->
<g id="edge7" class="edge">
<title>Node1&#45;&gt;Node7</title>
<path fill="none" stroke="midnightblue" d="M70.07,-176.97C115.17,-171.63 194.53,-162.24 241.99,-156.62"/>
<polygon fill="midnightblue" stroke="midnightblue" points="242.66,-160.06 252.18,-155.41 241.84,-153.11 242.66,-160.06"/>
</g>
<!-- Node8 -->
<g id="node8" class="node">
<title>Node8</title>
<g id="a_node8"><a xlink:href="parser__utils_8c.html#a504166f8c7680aafbdfdb58ab412d498" target="_top" xlink:title=" ">
<polygon fill="none" stroke="black" points="107.5,-114.5 107.5,-133.5 192.5,-133.5 192.5,-114.5 107.5,-114.5"/>
<text text-anchor="middle" x="150" y="-121.5" font-family="Helvetica,sans-Serif" font-size="10.00">is_token_redir</text>
</a>
</g>
</g>
<!-- Node1&#45;&gt;Node8 -->
<g id="edge8" class="edge">
<title>Node1&#45;&gt;Node8</title>
<path fill="none" stroke="midnightblue" d="M54.91,-171.46C72.92,-162.38 100.25,-148.59 120.82,-138.21"/>
<polygon fill="midnightblue" stroke="midnightblue" points="122.67,-141.2 130.02,-133.57 119.52,-134.95 122.67,-141.2"/>
</g>
<!-- Node9 -->
<g id="node9" class="node">
<title>Node9</title>
<g id="a_node9"><a xlink:href="parser_8c.html#a3fb162f9c645f99a8764a678b4768f38" target="_top" xlink:title=" ">
<polygon fill="none" stroke="black" points="114.5,-76.5 114.5,-95.5 185.5,-95.5 185.5,-76.5 114.5,-76.5"/>
<text text-anchor="middle" x="150" y="-83.5" font-family="Helvetica,sans-Serif" font-size="10.00">parse_redir</text>
</a>
</g>
</g>
<!-- Node1&#45;&gt;Node9 -->
<g id="edge9" class="edge">
<title>Node1&#45;&gt;Node9</title>
<path fill="none" stroke="midnightblue" d="M42.75,-171.42C54.21,-155.74 78.87,-124.42 106,-105 108.36,-103.31 110.9,-101.72 113.52,-100.24"/>
<polygon fill="midnightblue" stroke="midnightblue" points="115.28,-103.27 122.6,-95.62 112.1,-97.03 115.28,-103.27"/>
</g>
<!-- Node11 -->
<g id="node11" class="node">
<title>Node11</title>
<g id="a_node11"><a xlink:href="parser_8c.html#a3902c1c0f51a35acf377da51345103b7" target="_top" xlink:title=" ">
<polygon fill="none" stroke="black" points="232.5,-38.5 232.5,-57.5 331.5,-57.5 331.5,-38.5 232.5,-38.5"/>
<text text-anchor="middle" x="282" y="-45.5" font-family="Helvetica,sans-Serif" font-size="10.00">parser_exit_fatal</text>
</a>
</g>
</g>
<!-- Node1&#45;&gt;Node11 -->
<g id="edge22" class="edge">
<title>Node1&#45;&gt;Node11</title>
<path fill="none" stroke="midnightblue" d="M38.74,-171.27C45.69,-148.56 66.35,-92.08 106,-67 140.2,-45.36 185.85,-41.03 221.94,-41.88"/>
<polygon fill="midnightblue" stroke="midnightblue" points="222.21,-45.39 232.34,-42.28 222.47,-38.4 222.21,-45.39"/>
</g>
<!-- Node3 -->
<g id="node3" class="node">
<title>Node3</title>
<g id="a_node3"><a xlink:href="argv__builder_8c.html#a7fec561409ecbd9e81d2402e8b4ce370" target="_top" xlink:title=" ">
<polygon fill="none" stroke="black" points="251.5,-199.5 251.5,-218.5 312.5,-218.5 312.5,-199.5 251.5,-199.5"/>
<text text-anchor="middle" x="282" y="-206.5" font-family="Helvetica,sans-Serif" font-size="10.00">fall_back</text>
</a>
</g>
</g>
<!-- Node2&#45;&gt;Node3 -->
<g id="edge2" class="edge">
<title>Node2&#45;&gt;Node3</title>
<path fill="none" stroke="midnightblue" d="M176.83,-304.41C182.69,-301.75 188.74,-298.58 194,-295 222.92,-275.3 250.65,-245.34 266.75,-226.48"/>
<polygon fill="midnightblue" stroke="midnightblue" points="269.55,-228.59 273.28,-218.67 264.18,-224.09 269.55,-228.59"/>
</g>
<!-- Node6&#45;&gt;Node3 -->
<g id="edge6" class="edge">
<title>Node6&#45;&gt;Node3</title>
<path fill="none" stroke="midnightblue" d="M194.29,-203C209.38,-204.04 226.25,-205.21 241.06,-206.23"/>
<polygon fill="midnightblue" stroke="midnightblue" points="241.21,-209.75 251.43,-206.95 241.69,-202.77 241.21,-209.75"/>
</g>
<!-- Node9&#45;&gt;Node7 -->
<g id="edge11" class="edge">
<title>Node9&#45;&gt;Node7</title>
<path fill="none" stroke="midnightblue" d="M173.47,-95.53C180.13,-98.46 187.4,-101.77 194,-105 214.94,-115.26 238.16,-127.87 255.33,-137.44"/>
<polygon fill="midnightblue" stroke="midnightblue" points="253.77,-140.58 264.2,-142.41 257.19,-134.47 253.77,-140.58"/>
</g>
<!-- Node10 -->
<g id="node10" class="node">
<title>Node10</title>
<g id="a_node10"><a xlink:href="lst__redir_8c.html#acb0801286560639fb0d37901d566a3e5" target="_top" xlink:title=" ">
<polygon fill="none" stroke="black" points="230,-76.5 230,-95.5 334,-95.5 334,-76.5 230,-76.5"/>
<text text-anchor="middle" x="282" y="-83.5" font-family="Helvetica,sans-Serif" font-size="10.00">create_node_redir</text>
</a>
</g>
</g>
<!-- Node9&#45;&gt;Node10 -->
<g id="edge10" class="edge">
<title>Node9&#45;&gt;Node10</title>
<path fill="none" stroke="midnightblue" d="M185.84,-86C196.31,-86 208.12,-86 219.77,-86"/>
<polygon fill="midnightblue" stroke="midnightblue" points="219.93,-89.5 229.93,-86 219.93,-82.5 219.93,-89.5"/>
</g>
<!-- Node9&#45;&gt;Node11 -->
<g id="edge12" class="edge">
<title>Node9&#45;&gt;Node11</title>
<path fill="none" stroke="midnightblue" d="M183.8,-76.41C200.28,-71.6 220.44,-65.7 238.13,-60.53"/>
<polygon fill="midnightblue" stroke="midnightblue" points="239.59,-63.75 248.21,-57.59 237.63,-57.03 239.59,-63.75"/>
</g>
<!-- Node12 -->
<g id="node12" class="node">
<title>Node12</title>
<g id="a_node12"><a xlink:href="lst__cmd2_8c.html#a132395876bb5a7cfe926b9e37571a1e3" target="_top" xlink:title=" ">
<polygon fill="none" stroke="black" points="370,-76.5 370,-95.5 462,-95.5 462,-76.5 370,-76.5"/>
<text text-anchor="middle" x="416" y="-83.5" font-family="Helvetica,sans-Serif" font-size="10.00">destructor_cmd</text>
</a>
</g>
</g>
<!-- Node11&#45;&gt;Node12 -->
<g id="edge13" class="edge">
<title>Node11&#45;&gt;Node12</title>
<path fill="none" stroke="midnightblue" d="M316.31,-57.59C333.19,-62.45 353.89,-68.41 371.97,-73.61"/>
<polygon fill="midnightblue" stroke="midnightblue" points="371.12,-77.01 381.7,-76.41 373.06,-70.28 371.12,-77.01"/>
</g>
<!-- Node17 -->
<g id="node17" class="node">
<title>Node17</title>
<g id="a_node17"><a xlink:href="lst__env_8c.html#a226ae0aa054e697998b2ecbc5d61d592" target="_top" xlink:title=" ">
<polygon fill="none" stroke="black" points="371.5,-38.5 371.5,-57.5 460.5,-57.5 460.5,-38.5 371.5,-38.5"/>
<text text-anchor="middle" x="416" y="-45.5" font-family="Helvetica,sans-Serif" font-size="10.00">destructor_env</text>
</a>
</g>
</g>
<!-- Node11&#45;&gt;Node17 -->
<g id="edge19" class="edge">
<title>Node11&#45;&gt;Node17</title>
<path fill="none" stroke="midnightblue" d="M331.78,-48C341.27,-48 351.27,-48 360.92,-48"/>
<polygon fill="midnightblue" stroke="midnightblue" points="361.22,-51.5 371.22,-48 361.22,-44.5 361.22,-51.5"/>
</g>
<!-- Node19 -->
<g id="node19" class="node">
<title>Node19</title>
<g id="a_node19"><a xlink:href="token__utils_8c.html#ab3d9f0b7ddaf8661f8a3b3243d33bce7" target="_top" xlink:title="Free t_token entire linked list.">
<polygon fill="none" stroke="black" points="379,-0.5 379,-19.5 453,-19.5 453,-0.5 379,-0.5"/>
<text text-anchor="middle" x="416" y="-7.5" font-family="Helvetica,sans-Serif" font-size="10.00">free_tokens</text>
</a>
</g>
</g>
<!-- Node11&#45;&gt;Node19 -->
<g id="edge21" class="edge">
<title>Node11&#45;&gt;Node19</title>
<path fill="none" stroke="midnightblue" d="M316.31,-38.41C333.19,-33.55 353.89,-27.59 371.97,-22.39"/>
<polygon fill="midnightblue" stroke="midnightblue" points="373.06,-25.72 381.7,-19.59 371.12,-18.99 373.06,-25.72"/>
</g>
<!-- Node13 -->
<g id="node13" class="node">
<title>Node13</title>
<g id="a_node13"><a xlink:href="lst__cmd2_8c.html#a8e2b63759f149b547e0d07f210ede9b3" target="_top" xlink:title=" ">
<polygon fill="none" stroke="black" points="498,-76.5 498,-95.5 559,-95.5 559,-76.5 498,-76.5"/>
<text text-anchor="middle" x="528.5" y="-83.5" font-family="Helvetica,sans-Serif" font-size="10.00">pop_cmd</text>
</a>
</g>
</g>
<!-- Node12&#45;&gt;Node13 -->
<g id="edge14" class="edge">
<title>Node12&#45;&gt;Node13</title>
<path fill="none" stroke="midnightblue" d="M462.26,-86C470.73,-86 479.52,-86 487.8,-86"/>
<polygon fill="midnightblue" stroke="midnightblue" points="487.95,-89.5 497.95,-86 487.95,-82.5 487.95,-89.5"/>
</g>
<!-- Node14 -->
<g id="node14" class="node">
<title>Node14</title>
<g id="a_node14"><a xlink:href="lst__redir2_8c.html#a30ccaf401a4f897e48ead5fe54f4b307" target="_top" xlink:title=" ">
<polygon fill="none" stroke="black" points="595,-95.5 595,-114.5 689,-114.5 689,-95.5 595,-95.5"/>
<text text-anchor="middle" x="642" y="-102.5" font-family="Helvetica,sans-Serif" font-size="10.00">destructor_redir</text>
</a>
</g>
</g>
<!-- Node13&#45;&gt;Node14 -->
<g id="edge15" class="edge">
<title>Node13&#45;&gt;Node14</title>
<path fill="none" stroke="midnightblue" d="M559.09,-91.04C567.06,-92.4 575.95,-93.91 584.85,-95.43"/>
<polygon fill="midnightblue" stroke="midnightblue" points="584.42,-98.91 594.86,-97.14 585.59,-92.01 584.42,-98.91"/>
</g>
<!-- Node16 -->
<g id="node16" class="node">
<title>Node16</title>
<g id="a_node16"><a xlink:href="utils_8c.html#a1bca6910c90a19d96b36506a2e2cebf6" target="_top" xlink:title="as fd are all setup to &#45;1 at the beginning we check if they are open before trying to close we avoid ...">
<polygon fill="none" stroke="black" points="823,-76.5 823,-95.5 892,-95.5 892,-76.5 823,-76.5"/>
<text text-anchor="middle" x="857.5" y="-83.5" font-family="Helvetica,sans-Serif" font-size="10.00">ft_close_fd</text>
</a>
</g>
</g>
<!-- Node13&#45;&gt;Node16 -->
<g id="edge18" class="edge">
<title>Node13&#45;&gt;Node16</title>
<path fill="none" stroke="midnightblue" d="M559.1,-86C616.85,-86 744.82,-86 812.53,-86"/>
<polygon fill="midnightblue" stroke="midnightblue" points="812.86,-89.5 822.86,-86 812.85,-82.5 812.86,-89.5"/>
</g>
<!-- Node15 -->
<g id="node15" class="node">
<title>Node15</title>
<g id="a_node15"><a xlink:href="lst__redir2_8c.html#ade8f0bdda51d9bf348ebeb38fefba881" target="_top" xlink:title=" ">
<polygon fill="none" stroke="black" points="725,-95.5 725,-114.5 787,-114.5 787,-95.5 725,-95.5"/>
<text text-anchor="middle" x="756" y="-102.5" font-family="Helvetica,sans-Serif" font-size="10.00">pop_redir</text>
</a>
</g>
</g>
<!-- Node14&#45;&gt;Node15 -->
<g id="edge16" class="edge">
<title>Node14&#45;&gt;Node15</title>
<path fill="none" stroke="midnightblue" d="M689.2,-105C697.67,-105 706.46,-105 714.74,-105"/>
<polygon fill="midnightblue" stroke="midnightblue" points="714.9,-108.5 724.9,-105 714.9,-101.5 714.9,-108.5"/>
</g>
<!-- Node15&#45;&gt;Node16 -->
<g id="edge17" class="edge">
<title>Node15&#45;&gt;Node16</title>
<path fill="none" stroke="midnightblue" d="M787.12,-99.25C795.18,-97.71 804.06,-96.01 812.69,-94.37"/>
<polygon fill="midnightblue" stroke="midnightblue" points="813.49,-97.78 822.65,-92.46 812.17,-90.9 813.49,-97.78"/>
</g>
<!-- Node18 -->
<g id="node18" class="node">
<title>Node18</title>
<g id="a_node18"><a xlink:href="lst__env_8c.html#a058c245b5f2ef22f9d2659f90e4d3537" target="_top" xlink:title=" ">
<polygon fill="none" stroke="black" points="499.5,-38.5 499.5,-57.5 557.5,-57.5 557.5,-38.5 499.5,-38.5"/>
<text text-anchor="middle" x="528.5" y="-45.5" font-family="Helvetica,sans-Serif" font-size="10.00">pop_env</text>
</a>
</g>
</g>
<!-- Node17&#45;&gt;Node18 -->
<g id="edge20" class="edge">
<title>Node17&#45;&gt;Node18</title>
<path fill="none" stroke="midnightblue" d="M460.67,-48C470.14,-48 480.08,-48 489.32,-48"/>
<polygon fill="midnightblue" stroke="midnightblue" points="489.38,-51.5 499.38,-48 489.38,-44.5 489.38,-51.5"/>
</g>
</g>
</svg>
