<?xml version="1.0" encoding="UTF-8" standalone="no"?>
<!DOCTYPE svg PUBLIC "-//W3C//DTD SVG 1.1//EN"
 "http://www.w3.org/Graphics/SVG/1.1/DTD/svg11.dtd">
<!-- Generated by graphviz version 2.43.0 (0)
 -->
<!-- Title: infile_redirection Pages: 1 -->
<svg width="333pt" height="47pt"
 viewBox="0.00 0.00 333.00 47.00" xmlns="http://www.w3.org/2000/svg" xmlns:xlink="http://www.w3.org/1999/xlink">
<g id="graph0" class="graph" transform="scale(1 1) rotate(0) translate(4 43)">
<title>infile_redirection</title>
<!-- Node1 -->
<g id="node1" class="node">
<title>Node1</title>
<g id="a_node1"><a xlink:title="we have to check if the file exist then if we are allowed to open it in any error case we write a mes...">
<polygon fill="#bfbfbf" stroke="black" points="0,-0.5 0,-19.5 98,-19.5 98,-0.5 0,-0.5"/>
<text text-anchor="middle" x="49" y="-7.5" font-family="Helvetica,sans-Serif" font-size="10.00">infile_redirection</text>
</a>
</g>
</g>
<!-- Node2 -->
<g id="node2" class="node">
<title>Node2</title>
<g id="a_node2"><a xlink:href="redirection__verification_8c.html#a5b79f4b52353f6558575b5da0dd28fd4" target="_top" xlink:title="we close the fd_in and fd_out in case of a fail this function is able to manage the error coming from...">
<polygon fill="none" stroke="black" points="134,-19.5 134,-38.5 220,-38.5 220,-19.5 134,-19.5"/>
<text text-anchor="middle" x="177" y="-26.5" font-family="Helvetica,sans-Serif" font-size="10.00">close_fd_error</text>
</a>
</g>
</g>
<!-- Node1&#45;&gt;Node2 -->
<g id="edge1" class="edge">
<title>Node1&#45;&gt;Node2</title>
<path fill="none" stroke="midnightblue" d="M98.35,-17.29C106.64,-18.54 115.29,-19.85 123.68,-21.11"/>
<polygon fill="midnightblue" stroke="midnightblue" points="123.33,-24.6 133.74,-22.63 124.37,-17.67 123.33,-24.6"/>
</g>
<!-- Node3 -->
<g id="node3" class="node">
<title>Node3</title>
<g id="a_node3"><a xlink:href="redirection__multipipe_8c.html#a1bca6910c90a19d96b36506a2e2cebf6" target="_top" xlink:title="as fd are all setup to &#45;1 at the beginning we check if they are open before trying to close we avoid ...">
<polygon fill="none" stroke="black" points="256,-0.5 256,-19.5 325,-19.5 325,-0.5 256,-0.5"/>
<text text-anchor="middle" x="290.5" y="-7.5" font-family="Helvetica,sans-Serif" font-size="10.00">ft_close_fd</text>
</a>
</g>
</g>
<!-- Node1&#45;&gt;Node3 -->
<g id="edge3" class="edge">
<title>Node1&#45;&gt;Node3</title>
<path fill="none" stroke="midnightblue" d="M98.18,-10C141.24,-10 203.82,-10 245.55,-10"/>
<polygon fill="midnightblue" stroke="midnightblue" points="245.68,-13.5 255.68,-10 245.68,-6.5 245.68,-13.5"/>
</g>
<!-- Node2&#45;&gt;Node3 -->
<g id="edge2" class="edge">
<title>Node2&#45;&gt;Node3</title>
<path fill="none" stroke="midnightblue" d="M220.15,-21.82C228.57,-20.38 237.43,-18.87 245.9,-17.43"/>
<polygon fill="midnightblue" stroke="midnightblue" points="246.7,-20.84 255.97,-15.71 245.52,-13.94 246.7,-20.84"/>
</g>
</g>
</svg>
