<?xml version="1.0" encoding="UTF-8" standalone="no"?>
<!DOCTYPE svg PUBLIC "-//W3C//DTD SVG 1.1//EN"
 "http://www.w3.org/Graphics/SVG/1.1/DTD/svg11.dtd">
<!-- Generated by graphviz version 2.43.0 (0)
 -->
<!-- Title: redirection_verification Pages: 1 -->
<svg width="546pt" height="98pt"
 viewBox="0.00 0.00 546.00 97.65" xmlns="http://www.w3.org/2000/svg" xmlns:xlink="http://www.w3.org/1999/xlink">
<g id="graph0" class="graph" transform="scale(1 1) rotate(0) translate(4 93.65)">
<title>redirection_verification</title>
<!-- Node1 -->
<g id="node1" class="node">
<title>Node1</title>
<g id="a_node1"><a xlink:title="we go through each node of the redirection and we have special treatment depending of the following c...">
<polygon fill="#bfbfbf" stroke="black" points="0,-54.15 0,-73.15 129,-73.15 129,-54.15 0,-54.15"/>
<text text-anchor="middle" x="64.5" y="-61.15" font-family="Helvetica,sans-Serif" font-size="10.00">redirection_verification</text>
</a>
</g>
</g>
<!-- Node2 -->
<g id="node2" class="node">
<title>Node2</title>
<g id="a_node2"><a xlink:href="utils_8c.html#a1bca6910c90a19d96b36506a2e2cebf6" target="_top" xlink:title="as fd are all setup to &#45;1 at the beginning we check if they are open before trying to close we avoid ...">
<polygon fill="none" stroke="black" points="469,-35.15 469,-54.15 538,-54.15 538,-35.15 469,-35.15"/>
<text text-anchor="middle" x="503.5" y="-42.15" font-family="Helvetica,sans-Serif" font-size="10.00">ft_close_fd</text>
</a>
</g>
</g>
<!-- Node1&#45;&gt;Node2 -->
<g id="edge1" class="edge">
<title>Node1&#45;&gt;Node2</title>
<path fill="none" stroke="midnightblue" d="M105.92,-73.16C123.89,-76.93 145.39,-80.79 165,-82.65 283.79,-93.89 316.51,-92.51 433,-66.65 443.95,-64.22 455.66,-60.83 466.28,-57.44"/>
<polygon fill="midnightblue" stroke="midnightblue" points="467.66,-60.67 476.07,-54.23 465.47,-54.02 467.66,-60.67"/>
</g>
<!-- Node3 -->
<g id="node3" class="node">
<title>Node3</title>
<g id="a_node3"><a xlink:href="redirection__verification_8c.html#a95641b4885e9c0b07b477846c96c0d2f" target="_top" xlink:title="we have to check if the file exist then if we are allowed to open it in any error case we write a mes...">
<polygon fill="none" stroke="black" points="189,-54.15 189,-73.15 287,-73.15 287,-54.15 189,-54.15"/>
<text text-anchor="middle" x="238" y="-61.15" font-family="Helvetica,sans-Serif" font-size="10.00">infile_redirection</text>
</a>
</g>
</g>
<!-- Node1&#45;&gt;Node3 -->
<g id="edge2" class="edge">
<title>Node1&#45;&gt;Node3</title>
<path fill="none" stroke="midnightblue" d="M129.36,-63.65C145.53,-63.65 162.82,-63.65 178.7,-63.65"/>
<polygon fill="midnightblue" stroke="midnightblue" points="178.9,-67.15 188.9,-63.65 178.9,-60.15 178.9,-67.15"/>
</g>
<!-- Node5 -->
<g id="node5" class="node">
<title>Node5</title>
<g id="a_node5"><a xlink:href="redirection__verification_8c.html#ac61790fa82f2a9b6b904cd92135b6acb" target="_top" xlink:title="outfile and append are open with the right flags in a case of an error we write a message with the na...">
<polygon fill="none" stroke="black" points="165,-16.15 165,-35.15 311,-35.15 311,-16.15 165,-16.15"/>
<text text-anchor="middle" x="238" y="-23.15" font-family="Helvetica,sans-Serif" font-size="10.00">outfile_append_redirection</text>
</a>
</g>
</g>
<!-- Node1&#45;&gt;Node5 -->
<g id="edge6" class="edge">
<title>Node1&#45;&gt;Node5</title>
<path fill="none" stroke="midnightblue" d="M108.78,-54.06C131.61,-49 159.82,-42.75 183.96,-37.4"/>
<polygon fill="midnightblue" stroke="midnightblue" points="185.03,-40.75 194.03,-35.17 183.51,-33.92 185.03,-40.75"/>
</g>
<!-- Node3&#45;&gt;Node2 -->
<g id="edge5" class="edge">
<title>Node3&#45;&gt;Node2</title>
<path fill="none" stroke="midnightblue" d="M287.02,-60.19C335.88,-56.66 410.96,-51.25 458.36,-47.83"/>
<polygon fill="midnightblue" stroke="midnightblue" points="458.9,-51.3 468.62,-47.09 458.39,-44.32 458.9,-51.3"/>
</g>
<!-- Node4 -->
<g id="node4" class="node">
<title>Node4</title>
<g id="a_node4"><a xlink:href="redirection__verification_8c.html#a5b79f4b52353f6558575b5da0dd28fd4" target="_top" xlink:title="we close the fd_in and fd_out in case of a fail this function is able to manage the error coming from...">
<polygon fill="none" stroke="black" points="347,-16.15 347,-35.15 433,-35.15 433,-16.15 347,-16.15"/>
<text text-anchor="middle" x="390" y="-23.15" font-family="Helvetica,sans-Serif" font-size="10.00">close_fd_error</text>
</a>
</g>
</g>
<!-- Node3&#45;&gt;Node4 -->
<g id="edge3" class="edge">
<title>Node3&#45;&gt;Node4</title>
<path fill="none" stroke="midnightblue" d="M276.85,-54.06C296.47,-49.09 320.62,-42.97 341.48,-37.69"/>
<polygon fill="midnightblue" stroke="midnightblue" points="342.59,-41.02 351.42,-35.17 340.87,-34.23 342.59,-41.02"/>
</g>
<!-- Node4&#45;&gt;Node2 -->
<g id="edge4" class="edge">
<title>Node4&#45;&gt;Node2</title>
<path fill="none" stroke="midnightblue" d="M433.15,-32.83C441.57,-34.27 450.43,-35.78 458.9,-37.22"/>
<polygon fill="midnightblue" stroke="midnightblue" points="458.52,-40.71 468.97,-38.94 459.7,-33.81 458.52,-40.71"/>
</g>
<!-- Node5&#45;&gt;Node2 -->
<g id="edge8" class="edge">
<title>Node5&#45;&gt;Node2</title>
<path fill="none" stroke="midnightblue" d="M270.08,-16.11C308.81,-5.69 376.77,7.72 433,-6.65 450.32,-11.08 467.97,-20.81 481.15,-29.31"/>
<polygon fill="midnightblue" stroke="midnightblue" points="479.25,-32.25 489.5,-34.92 483.16,-26.44 479.25,-32.25"/>
</g>
<!-- Node5&#45;&gt;Node4 -->
<g id="edge7" class="edge">
<title>Node5&#45;&gt;Node4</title>
<path fill="none" stroke="midnightblue" d="M311.36,-25.65C319.9,-25.65 328.48,-25.65 336.66,-25.65"/>
<polygon fill="midnightblue" stroke="midnightblue" points="336.78,-29.15 346.78,-25.65 336.78,-22.15 336.78,-29.15"/>
</g>
</g>
</svg>
