<?xml version="1.0" encoding="UTF-8" standalone="no"?>
<!DOCTYPE svg PUBLIC "-//W3C//DTD SVG 1.1//EN"
 "http://www.w3.org/Graphics/SVG/1.1/DTD/svg11.dtd">
<!-- Generated by graphviz version 2.43.0 (0)
 -->
<!-- Title: str_buf_end Pages: 1 -->
<svg width="533pt" height="78pt"
 viewBox="0.00 0.00 533.00 78.50" xmlns="http://www.w3.org/2000/svg" xmlns:xlink="http://www.w3.org/1999/xlink">
<g id="graph0" class="graph" transform="scale(1 1) rotate(0) translate(4 74.5)">
<title>str_buf_end</title>
<!-- Node1 -->
<g id="node1" class="node">
<title>Node1</title>
<g id="a_node1"><a xlink:title="End and null terminate the string created in t_str_buf, reset the struct so it can be reused and retu...">
<polygon fill="#bfbfbf" stroke="black" points="451,-38.5 451,-57.5 525,-57.5 525,-38.5 451,-38.5"/>
<text text-anchor="middle" x="488" y="-45.5" font-family="Helvetica,sans-Serif" font-size="10.00">str_buf_end</text>
</a>
</g>
</g>
<!-- Node2 -->
<g id="node2" class="node">
<title>Node2</title>
<g id="a_node2"><a xlink:href="expand__word_8c.html#a0ec378990f411456436a9bb6a71babfc" target="_top" xlink:title="Scans the word to dequote/expand and build correct output.">
<polygon fill="none" stroke="black" points="214,-38.5 214,-57.5 296,-57.5 296,-38.5 214,-38.5"/>
<text text-anchor="middle" x="255" y="-45.5" font-family="Helvetica,sans-Serif" font-size="10.00">expand_word</text>
</a>
</g>
</g>
<!-- Node1&#45;&gt;Node2 -->
<g id="edge1" class="edge">
<title>Node1&#45;&gt;Node2</title>
<path fill="none" stroke="midnightblue" d="M448.08,-60.23C437.46,-63.02 425.88,-65.59 415,-67 378.42,-71.75 368.61,-71.51 332,-67 316.88,-65.14 300.44,-61.27 286.74,-57.51"/>
<polygon fill="midnightblue" stroke="midnightblue" points="449.21,-63.55 457.91,-57.5 447.34,-56.8 449.21,-63.55"/>
</g>
<!-- Node5 -->
<g id="node5" class="node">
<title>Node5</title>
<g id="a_node5"><a xlink:href="expand__dollar_8c.html#ac3e15865744ed2c1300a5cb96f24e33d" target="_top" xlink:title="Manages all possibilities with expand : $?, known and unknown env variable.">
<polygon fill="none" stroke="black" points="332,-38.5 332,-57.5 415,-57.5 415,-38.5 332,-38.5"/>
<text text-anchor="middle" x="373.5" y="-45.5" font-family="Helvetica,sans-Serif" font-size="10.00">handle_dollar</text>
</a>
</g>
</g>
<!-- Node1&#45;&gt;Node5 -->
<g id="edge4" class="edge">
<title>Node1&#45;&gt;Node5</title>
<path fill="none" stroke="midnightblue" d="M440.72,-48C432.31,-48 423.58,-48 415.33,-48"/>
<polygon fill="midnightblue" stroke="midnightblue" points="440.79,-51.5 450.79,-48 440.79,-44.5 440.79,-51.5"/>
</g>
<!-- Node6 -->
<g id="node6" class="node">
<title>Node6</title>
<g id="a_node6"><a xlink:href="lexer__word_8c.html#a4093905b7d1dfe02710752ee5da8fe01" target="_top" xlink:title="Lexes the string to create a WORD token.">
<polygon fill="none" stroke="black" points="343,-0.5 343,-19.5 404,-19.5 404,-0.5 343,-0.5"/>
<text text-anchor="middle" x="373.5" y="-7.5" font-family="Helvetica,sans-Serif" font-size="10.00">lex_word</text>
</a>
</g>
</g>
<!-- Node1&#45;&gt;Node6 -->
<g id="edge6" class="edge">
<title>Node1&#45;&gt;Node6</title>
<path fill="none" stroke="midnightblue" d="M449.03,-35.17C433.93,-30.08 416.87,-24.31 402.88,-19.59"/>
<polygon fill="midnightblue" stroke="midnightblue" points="448.02,-38.53 458.61,-38.41 450.26,-31.89 448.02,-38.53"/>
</g>
<!-- Node3 -->
<g id="node3" class="node">
<title>Node3</title>
<g id="a_node3"><a xlink:href="expand_8c.html#a53c53e75b0ad8c8888217cd918304b8b" target="_top" xlink:title="Iterate over every args and redir of each command to expand and dequote what needs to be.">
<polygon fill="none" stroke="black" points="77,-38.5 77,-57.5 178,-57.5 178,-38.5 77,-38.5"/>
<text text-anchor="middle" x="127.5" y="-45.5" font-family="Helvetica,sans-Serif" font-size="10.00">expand_manager</text>
</a>
</g>
</g>
<!-- Node2&#45;&gt;Node3 -->
<g id="edge2" class="edge">
<title>Node2&#45;&gt;Node3</title>
<path fill="none" stroke="midnightblue" d="M203.87,-48C195.45,-48 186.72,-48 178.3,-48"/>
<polygon fill="midnightblue" stroke="midnightblue" points="203.95,-51.5 213.95,-48 203.95,-44.5 203.95,-51.5"/>
</g>
<!-- Node4 -->
<g id="node4" class="node">
<title>Node4</title>
<g id="a_node4"><a xlink:href="main_8c.html#a647f21a28344e1d9c643f4115516d7c9" target="_top" xlink:title=" ">
<polygon fill="none" stroke="black" points="0,-19.5 0,-38.5 41,-38.5 41,-19.5 0,-19.5"/>
<text text-anchor="middle" x="20.5" y="-26.5" font-family="Helvetica,sans-Serif" font-size="10.00">main</text>
</a>
</g>
</g>
<!-- Node3&#45;&gt;Node4 -->
<g id="edge3" class="edge">
<title>Node3&#45;&gt;Node4</title>
<path fill="none" stroke="midnightblue" d="M66.72,-37.18C57.53,-35.52 48.64,-33.91 41.2,-32.57"/>
<polygon fill="midnightblue" stroke="midnightblue" points="66.3,-40.66 76.77,-39 67.55,-33.78 66.3,-40.66"/>
</g>
<!-- Node5&#45;&gt;Node2 -->
<g id="edge5" class="edge">
<title>Node5&#45;&gt;Node2</title>
<path fill="none" stroke="midnightblue" d="M321.54,-48C313.03,-48 304.32,-48 296.13,-48"/>
<polygon fill="midnightblue" stroke="midnightblue" points="321.75,-51.5 331.75,-48 321.75,-44.5 321.75,-51.5"/>
</g>
<!-- Node7 -->
<g id="node7" class="node">
<title>Node7</title>
<g id="a_node7"><a xlink:href="lexer_8c.html#aced469451204cf536fd18b4cf94f6b91" target="_top" xlink:title="Global lexing function, that traverses readline&#39;s string and separate in tokens.">
<polygon fill="none" stroke="black" points="107,-0.5 107,-19.5 148,-19.5 148,-0.5 107,-0.5"/>
<text text-anchor="middle" x="127.5" y="-7.5" font-family="Helvetica,sans-Serif" font-size="10.00">lexer</text>
</a>
</g>
</g>
<!-- Node6&#45;&gt;Node7 -->
<g id="edge7" class="edge">
<title>Node6&#45;&gt;Node7</title>
<path fill="none" stroke="midnightblue" d="M332.52,-10C279.5,-10 188,-10 148.08,-10"/>
<polygon fill="midnightblue" stroke="midnightblue" points="332.58,-13.5 342.58,-10 332.58,-6.5 332.58,-13.5"/>
</g>
<!-- Node7&#45;&gt;Node4 -->
<g id="edge8" class="edge">
<title>Node7&#45;&gt;Node4</title>
<path fill="none" stroke="midnightblue" d="M96.84,-15.37C79.02,-18.59 56.83,-22.61 41.16,-25.44"/>
<polygon fill="midnightblue" stroke="midnightblue" points="97.53,-18.8 106.75,-13.57 96.29,-11.91 97.53,-18.8"/>
</g>
</g>
</svg>
