<?xml version="1.0" encoding="UTF-8" standalone="no"?>
<!DOCTYPE svg PUBLIC "-//W3C//DTD SVG 1.1//EN"
 "http://www.w3.org/Graphics/SVG/1.1/DTD/svg11.dtd">
<!-- Generated by graphviz version 2.43.0 (0)
 -->
<!-- Title: str_buf_putc Pages: 1 -->
<svg width="509pt" height="218pt"
 viewBox="0.00 0.00 509.00 218.00" xmlns="http://www.w3.org/2000/svg" xmlns:xlink="http://www.w3.org/1999/xlink">
<g id="graph0" class="graph" transform="scale(1 1) rotate(0) translate(4 214)">
<title>str_buf_putc</title>
<!-- Node1 -->
<g id="node1" class="node">
<title>Node1</title>
<g id="a_node1"><a xlink:title="Put char in the struct t_str_buf so we can build a string in the struct. The point is to create the s...">
<polygon fill="#bfbfbf" stroke="black" points="424,-95.5 424,-114.5 501,-114.5 501,-95.5 424,-95.5"/>
<text text-anchor="middle" x="462.5" y="-102.5" font-family="Helvetica,sans-Serif" font-size="10.00">str_buf_putc</text>
</a>
</g>
</g>
<!-- Node2 -->
<g id="node2" class="node">
<title>Node2</title>
<g id="a_node2"><a xlink:href="lexer__word_8c.html#a088ba907ca2f9f7d89809627a5ef8313" target="_top" xlink:title="Lexes a segment delimited by double quotes.">
<polygon fill="none" stroke="black" points="251,-190.5 251,-209.5 388,-209.5 388,-190.5 251,-190.5"/>
<text text-anchor="middle" x="319.5" y="-197.5" font-family="Helvetica,sans-Serif" font-size="10.00">double_quoted_segment</text>
</a>
</g>
</g>
<!-- Node1&#45;&gt;Node2 -->
<g id="edge1" class="edge">
<title>Node1&#45;&gt;Node2</title>
<path fill="none" stroke="midnightblue" d="M447.19,-122.59C433.46,-138.47 411.41,-161.49 388,-176 378.27,-182.03 366.82,-186.82 356.14,-190.49"/>
<polygon fill="midnightblue" stroke="midnightblue" points="450.15,-124.51 453.91,-114.61 444.79,-120 450.15,-124.51"/>
</g>
<!-- Node3 -->
<g id="node3" class="node">
<title>Node3</title>
<g id="a_node3"><a xlink:href="lexer__word_8c.html#a4093905b7d1dfe02710752ee5da8fe01" target="_top" xlink:title="Lexes the string to create a WORD token.">
<polygon fill="none" stroke="black" points="154,-114.5 154,-133.5 215,-133.5 215,-114.5 154,-114.5"/>
<text text-anchor="middle" x="184.5" y="-121.5" font-family="Helvetica,sans-Serif" font-size="10.00">lex_word</text>
</a>
</g>
</g>
<!-- Node1&#45;&gt;Node3 -->
<g id="edge7" class="edge">
<title>Node1&#45;&gt;Node3</title>
<path fill="none" stroke="midnightblue" d="M439.46,-119.94C425.41,-128.55 406.43,-138.52 388,-143 328.84,-157.39 311.28,-151.57 251,-143 237.87,-141.13 223.69,-137.26 211.9,-133.5"/>
<polygon fill="midnightblue" stroke="midnightblue" points="441.37,-122.88 447.93,-114.56 437.61,-116.97 441.37,-122.88"/>
</g>
<!-- Node6 -->
<g id="node6" class="node">
<title>Node6</title>
<g id="a_node6"><a xlink:href="lexer__word_8c.html#ad7d5fd37a954794c29d8d8b4807c233e" target="_top" xlink:title="Handle backslash to escape next char correctly.">
<polygon fill="none" stroke="black" points="270,-114.5 270,-133.5 369,-133.5 369,-114.5 270,-114.5"/>
<text text-anchor="middle" x="319.5" y="-121.5" font-family="Helvetica,sans-Serif" font-size="10.00">escape_segment</text>
</a>
</g>
</g>
<!-- Node1&#45;&gt;Node6 -->
<g id="edge5" class="edge">
<title>Node1&#45;&gt;Node6</title>
<path fill="none" stroke="midnightblue" d="M413.54,-111.46C399.18,-113.4 383.43,-115.52 369.03,-117.46"/>
<polygon fill="midnightblue" stroke="midnightblue" points="414.27,-114.9 423.71,-110.09 413.34,-107.96 414.27,-114.9"/>
</g>
<!-- Node7 -->
<g id="node7" class="node">
<title>Node7</title>
<g id="a_node7"><a xlink:href="lexer__word_8c.html#ad9e7809fee584699717eb691257a6ded" target="_top" xlink:title="Lexes a segment delimited by single quotes.">
<polygon fill="none" stroke="black" points="253,-76.5 253,-95.5 386,-95.5 386,-76.5 253,-76.5"/>
<text text-anchor="middle" x="319.5" y="-83.5" font-family="Helvetica,sans-Serif" font-size="10.00">single_quoted_segment</text>
</a>
</g>
</g>
<!-- Node1&#45;&gt;Node7 -->
<g id="edge8" class="edge">
<title>Node1&#45;&gt;Node7</title>
<path fill="none" stroke="midnightblue" d="M413.62,-98.55C404.78,-97.36 395.41,-96.09 386.15,-94.85"/>
<polygon fill="midnightblue" stroke="midnightblue" points="413.34,-102.04 423.71,-99.91 414.27,-95.1 413.34,-102.04"/>
</g>
<!-- Node8 -->
<g id="node8" class="node">
<title>Node8</title>
<g id="a_node8"><a xlink:href="string__builder_8c.html#a1bfdfae2d27c541b15b526d7d67b7577" target="_top" xlink:title="End and null terminate the string created in t_str_buf, reset the struct so it can be reused and retu...">
<polygon fill="none" stroke="black" points="282.5,-38.5 282.5,-57.5 356.5,-57.5 356.5,-38.5 282.5,-38.5"/>
<text text-anchor="middle" x="319.5" y="-45.5" font-family="Helvetica,sans-Serif" font-size="10.00">str_buf_end</text>
</a>
</g>
</g>
<!-- Node1&#45;&gt;Node8 -->
<g id="edge10" class="edge">
<title>Node1&#45;&gt;Node8</title>
<path fill="none" stroke="midnightblue" d="M436.35,-90.38C422.42,-82.7 404.61,-73.55 388,-67 378.03,-63.07 366.94,-59.59 356.68,-56.73"/>
<polygon fill="midnightblue" stroke="midnightblue" points="434.88,-93.57 445.31,-95.41 438.3,-87.46 434.88,-93.57"/>
</g>
<!-- Node9 -->
<g id="node9" class="node">
<title>Node9</title>
<g id="a_node9"><a xlink:href="string__builder_8c.html#a4bb0bb42cbf7ca9f7feff204d3059306" target="_top" xlink:title=" ">
<polygon fill="none" stroke="black" points="281,-0.5 281,-19.5 358,-19.5 358,-0.5 281,-0.5"/>
<text text-anchor="middle" x="319.5" y="-7.5" font-family="Helvetica,sans-Serif" font-size="10.00">str_buf_puts</text>
</a>
</g>
</g>
<!-- Node1&#45;&gt;Node9 -->
<g id="edge12" class="edge">
<title>Node1&#45;&gt;Node9</title>
<path fill="none" stroke="midnightblue" d="M448.69,-87.06C435.41,-69.73 413.1,-43.98 388,-29 378.91,-23.57 368.2,-19.64 358.02,-16.81"/>
<polygon fill="midnightblue" stroke="midnightblue" points="446.01,-89.31 454.78,-95.25 451.62,-85.13 446.01,-89.31"/>
</g>
<!-- Node2&#45;&gt;Node3 -->
<g id="edge2" class="edge">
<title>Node2&#45;&gt;Node3</title>
<path fill="none" stroke="midnightblue" d="M275.34,-187.05C267.04,-183.9 258.58,-180.21 251,-176 229.41,-164.03 207.61,-145.03 195.4,-133.61"/>
<polygon fill="midnightblue" stroke="midnightblue" points="274.34,-190.41 284.94,-190.5 276.71,-183.82 274.34,-190.41"/>
</g>
<!-- Node4 -->
<g id="node4" class="node">
<title>Node4</title>
<g id="a_node4"><a xlink:href="lexer_8c.html#aced469451204cf536fd18b4cf94f6b91" target="_top" xlink:title="Global lexing function, that traverses readline&#39;s string and separate in tokens.">
<polygon fill="none" stroke="black" points="77,-114.5 77,-133.5 118,-133.5 118,-114.5 77,-114.5"/>
<text text-anchor="middle" x="97.5" y="-121.5" font-family="Helvetica,sans-Serif" font-size="10.00">lexer</text>
</a>
</g>
</g>
<!-- Node3&#45;&gt;Node4 -->
<g id="edge3" class="edge">
<title>Node3&#45;&gt;Node4</title>
<path fill="none" stroke="midnightblue" d="M143.58,-124C134.77,-124 125.81,-124 118.22,-124"/>
<polygon fill="midnightblue" stroke="midnightblue" points="143.77,-127.5 153.77,-124 143.77,-120.5 143.77,-127.5"/>
</g>
<!-- Node5 -->
<g id="node5" class="node">
<title>Node5</title>
<g id="a_node5"><a xlink:href="main_8c.html#a647f21a28344e1d9c643f4115516d7c9" target="_top" xlink:title=" ">
<polygon fill="none" stroke="black" points="0,-114.5 0,-133.5 41,-133.5 41,-114.5 0,-114.5"/>
<text text-anchor="middle" x="20.5" y="-121.5" font-family="Helvetica,sans-Serif" font-size="10.00">main</text>
</a>
</g>
</g>
<!-- Node4&#45;&gt;Node5 -->
<g id="edge4" class="edge">
<title>Node4&#45;&gt;Node5</title>
<path fill="none" stroke="midnightblue" d="M66.69,-124C58.08,-124 48.9,-124 41.07,-124"/>
<polygon fill="midnightblue" stroke="midnightblue" points="66.79,-127.5 76.79,-124 66.79,-120.5 66.79,-127.5"/>
</g>
<!-- Node6&#45;&gt;Node3 -->
<g id="edge6" class="edge">
<title>Node6&#45;&gt;Node3</title>
<path fill="none" stroke="midnightblue" d="M259.31,-124C244.08,-124 228.33,-124 215.31,-124"/>
<polygon fill="midnightblue" stroke="midnightblue" points="259.73,-127.5 269.73,-124 259.73,-120.5 259.73,-127.5"/>
</g>
<!-- Node7&#45;&gt;Node3 -->
<g id="edge9" class="edge">
<title>Node7&#45;&gt;Node3</title>
<path fill="none" stroke="midnightblue" d="M274.69,-98.28C266.8,-100.5 258.65,-102.81 251,-105 239.27,-108.35 226.38,-112.08 215.16,-115.34"/>
<polygon fill="midnightblue" stroke="midnightblue" points="275.82,-101.6 284.49,-95.52 273.92,-94.86 275.82,-101.6"/>
</g>
<!-- Node8&#45;&gt;Node3 -->
<g id="edge11" class="edge">
<title>Node8&#45;&gt;Node3</title>
<path fill="none" stroke="midnightblue" d="M272.61,-57.95C265.16,-60.39 257.7,-63.38 251,-67 227.66,-79.61 205.45,-101.82 193.85,-114.47"/>
<polygon fill="midnightblue" stroke="midnightblue" points="273.75,-61.26 282.32,-55.04 271.74,-54.56 273.75,-61.26"/>
</g>
</g>
</svg>
