<?xml version="1.0" encoding="UTF-8" standalone="no"?>
<!DOCTYPE svg PUBLIC "-//W3C//DTD SVG 1.1//EN"
 "http://www.w3.org/Graphics/SVG/1.1/DTD/svg11.dtd">
<!-- Generated by graphviz version 2.43.0 (0)
 -->
<!-- Title: str_buf_putc Pages: 1 -->
<!--zoomable 373 -->
<svg id="main" version="1.1" xmlns="http://www.w3.org/2000/svg" xmlns:xlink="http://www.w3.org/1999/xlink" xml:space="preserve" onload="init(evt)">
<style type="text/css"><![CDATA[
.edge:hover path { stroke: red; }
.edge:hover polygon { stroke: red; fill: red; }
]]></style>
<script type="text/javascript"><![CDATA[
var edges = document.getElementsByTagName('g');
if (edges && edges.length) {
  for (var i=0;i<edges.length;i++) {
    if (edges[i].id.substr(0,4)=='edge') {
      edges[i].setAttribute('class','edge');
    }
  }
}
]]></script>
        <defs>
                <circle id="rim" cx="0" cy="0" r="7"/>
                <circle id="rim2" cx="0" cy="0" r="3.5"/>
                <g id="zoomPlus">
                        <use xlink:href="#rim" fill="#404040">
                                <set attributeName="fill" to="#808080" begin="zoomplus.mouseover" end="zoomplus.mouseout"/>
                        </use>
                        <path d="M-4,0h8M0,-4v8" fill="none" stroke="white" stroke-width="1.5" pointer-events="none"/>
                </g>
                <g id="zoomMin">
                        <use xlink:href="#rim" fill="#404040">
                                <set attributeName="fill" to="#808080" begin="zoomminus.mouseover" end="zoomminus.mouseout"/>
                        </use>
                        <path d="M-4,0h8" fill="none" stroke="white" stroke-width="1.5" pointer-events="none"/>
                </g>
                <g id="dirArrow">
                        <path fill="none" stroke="white" stroke-width="1.5" d="M0,-3.0v7 M-2.5,-0.5L0,-3.0L2.5,-0.5"/>
                </g>
               <g id="resetDef">
                       <use xlink:href="#rim2" fill="#404040">
                               <set attributeName="fill" to="#808080" begin="reset.mouseover" end="reset.mouseout"/>
                       </use>
               </g>
        </defs>

<script type="text/javascript">
var viewWidth = 983;
var viewHeight = 373;
var sectionId = 'dynsection-5';
</script>
<script xlink:href="svgpan.js"/>
<svg id="graph" class="graph">
<g id="viewport">
<title>str_buf_putc</title>
<!-- Node1 -->
<g id="node1" class="node">
<title>Node1</title>
<g id="a_node1"><a xlink:title="Put char in the struct t_str_buf so we can build a string in the struct. The point is to create the s...">
<polygon fill="#bfbfbf" stroke="black" points="898,-183.12 898,-202.12 975,-202.12 975,-183.12 898,-183.12"/>
<text text-anchor="middle" x="936.5" y="-190.12" font-family="Helvetica,sans-Serif" font-size="10.00">str_buf_putc</text>
</a>
</g>
</g>
<!-- Node2 -->
<g id="node2" class="node">
<title>Node2</title>
<g id="a_node2"><a xlink:href="lexer__word_8c.html#a088ba907ca2f9f7d89809627a5ef8313" target="_top" xlink:title="Lexes a segment delimited by double quotes.">
<polygon fill="none" stroke="black" points="725,-278.12 725,-297.12 862,-297.12 862,-278.12 725,-278.12"/>
<text text-anchor="middle" x="793.5" y="-285.12" font-family="Helvetica,sans-Serif" font-size="10.00">double_quoted_segment</text>
</a>
</g>
</g>
<!-- Node1&#45;&gt;Node2 -->
<g id="edge1" class="edge">
<title>Node1&#45;&gt;Node2</title>
<path fill="none" stroke="midnightblue" d="M922.69,-210.56C909.41,-227.89 887.1,-253.64 862,-268.62 855.52,-272.49 848.22,-275.6 840.87,-278.09"/>
<polygon fill="midnightblue" stroke="midnightblue" points="925.62,-212.49 928.78,-202.37 920.01,-208.31 925.62,-212.49"/>
</g>
<!-- Node3 -->
<g id="node3" class="node">
<title>Node3</title>
<g id="a_node3"><a xlink:href="lexer__word_8c.html#a8c3afe25ab140f0d5490ae1a8389e162" target="_top" xlink:title=" ">
<polygon fill="none" stroke="black" points="601,-278.12 601,-297.12 688,-297.12 688,-278.12 601,-278.12"/>
<text text-anchor="middle" x="644.5" y="-285.12" font-family="Helvetica,sans-Serif" font-size="10.00">lex_word_loop</text>
</a>
</g>
</g>
<!-- Node1&#45;&gt;Node3 -->
<g id="edge19" class="edge">
<title>Node1&#45;&gt;Node3</title>
<path fill="none" stroke="midnightblue" d="M932.64,-212.53C926.57,-246.6 908.85,-315.24 862,-344.62 810.42,-376.97 782.97,-363.25 725,-344.62 695.9,-335.27 668.42,-310.89 654.66,-297.24"/>
<polygon fill="midnightblue" stroke="midnightblue" points="936.14,-212.84 934.28,-202.41 929.23,-211.72 936.14,-212.84"/>
</g>
<!-- Node7 -->
<g id="node7" class="node">
<title>Node7</title>
<g id="a_node7"><a xlink:href="expand__dollar_8c.html#ae2c40b201e71a1f59fb92ee39ac89d70" target="_top" xlink:title="Handle $? to expand on current error code.">
<polygon fill="none" stroke="black" points="600,-126.12 600,-145.12 689,-145.12 689,-126.12 600,-126.12"/>
<text text-anchor="middle" x="644.5" y="-133.12" font-family="Helvetica,sans-Serif" font-size="10.00">error_code_var</text>
</a>
</g>
</g>
<!-- Node1&#45;&gt;Node7 -->
<g id="edge6" class="edge">
<title>Node1&#45;&gt;Node7</title>
<path fill="none" stroke="midnightblue" d="M912.12,-177.54C898.14,-169.3 879.71,-159.76 862,-154.62 803.84,-137.75 733.51,-134.56 689.13,-134.54"/>
<polygon fill="midnightblue" stroke="midnightblue" points="910.66,-180.74 921.02,-182.96 914.3,-174.77 910.66,-180.74"/>
</g>
<!-- Node8 -->
<g id="node8" class="node">
<title>Node8</title>
<g id="a_node8"><a xlink:href="expand__dollar_8c.html#ac3e15865744ed2c1300a5cb96f24e33d" target="_top" xlink:title="Manages all possibilities with expand : $?, known and unknown env variable.">
<polygon fill="none" stroke="black" points="478.5,-107.12 478.5,-126.12 561.5,-126.12 561.5,-107.12 478.5,-107.12"/>
<text text-anchor="middle" x="520" y="-114.12" font-family="Helvetica,sans-Serif" font-size="10.00">handle_dollar</text>
</a>
</g>
</g>
<!-- Node1&#45;&gt;Node8 -->
<g id="edge16" class="edge">
<title>Node1&#45;&gt;Node8</title>
<path fill="none" stroke="midnightblue" d="M921,-175.47C907.42,-160.74 885.7,-140.38 862,-130.62 760.65,-88.87 627.7,-100.15 561.75,-109.62"/>
<polygon fill="midnightblue" stroke="midnightblue" points="918.41,-177.83 927.67,-182.98 923.64,-173.18 918.41,-177.83"/>
</g>
<!-- Node9 -->
<g id="node9" class="node">
<title>Node9</title>
<g id="a_node9"><a xlink:href="expand__word_8c.html#a051bcabe3f6edf5f6d234199cea49f48" target="_top" xlink:title=" ">
<polygon fill="none" stroke="black" points="332,-79.12 332,-98.12 440,-98.12 440,-79.12 332,-79.12"/>
<text text-anchor="middle" x="386" y="-86.12" font-family="Helvetica,sans-Serif" font-size="10.00">expand_word_loop</text>
</a>
</g>
</g>
<!-- Node1&#45;&gt;Node9 -->
<g id="edge15" class="edge">
<title>Node1&#45;&gt;Node9</title>
<path fill="none" stroke="midnightblue" d="M927.25,-173.73C916.13,-150.94 893.99,-113.7 862,-97.62 714.6,-23.56 507.6,-59.72 424.08,-79.09"/>
<polygon fill="midnightblue" stroke="midnightblue" points="924.19,-175.46 931.57,-183.06 930.54,-172.51 924.19,-175.46"/>
</g>
<!-- Node12 -->
<g id="node12" class="node">
<title>Node12</title>
<g id="a_node12"><a xlink:href="expand__dollar_8c.html#a288ca34d78433c242163338d2e877550" target="_top" xlink:title=" ">
<polygon fill="none" stroke="black" points="729,-202.12 729,-221.12 858,-221.12 858,-202.12 729,-202.12"/>
<text text-anchor="middle" x="793.5" y="-209.12" font-family="Helvetica,sans-Serif" font-size="10.00">expand_valid_build_str</text>
</a>
</g>
</g>
<!-- Node1&#45;&gt;Node12 -->
<g id="edge12" class="edge">
<title>Node1&#45;&gt;Node12</title>
<path fill="none" stroke="midnightblue" d="M887.71,-199.06C878.24,-200.34 868.16,-201.7 858.25,-203.03"/>
<polygon fill="midnightblue" stroke="midnightblue" points="888.27,-202.52 897.71,-197.71 887.34,-195.58 888.27,-202.52"/>
</g>
<!-- Node14 -->
<g id="node14" class="node">
<title>Node14</title>
<g id="a_node14"><a xlink:href="expand__word_8c.html#add0124b30c1b263c28a7881e90685366" target="_top" xlink:title="Dequotes and manage quote state to expand correctly.">
<polygon fill="none" stroke="black" points="476,-12.12 476,-31.12 564,-31.12 564,-12.12 476,-12.12"/>
<text text-anchor="middle" x="520" y="-19.12" font-family="Helvetica,sans-Serif" font-size="10.00">handle_quotes</text>
</a>
</g>
</g>
<!-- Node1&#45;&gt;Node14 -->
<g id="edge17" class="edge">
<title>Node1&#45;&gt;Node14</title>
<path fill="none" stroke="midnightblue" d="M932.03,-172.77C925.13,-140 906.36,-75.24 862,-45.62 770.57,15.43 632.9,0.69 563.79,-12.12"/>
<polygon fill="midnightblue" stroke="midnightblue" points="928.65,-173.77 933.99,-182.92 935.53,-172.44 928.65,-173.77"/>
</g>
<!-- Node15 -->
<g id="node15" class="node">
<title>Node15</title>
<g id="a_node15"><a xlink:href="lexer__word_8c.html#ad9e7809fee584699717eb691257a6ded" target="_top" xlink:title="Lexes a segment delimited by single quotes.">
<polygon fill="none" stroke="black" points="727,-316.12 727,-335.12 860,-335.12 860,-316.12 727,-316.12"/>
<text text-anchor="middle" x="793.5" y="-323.12" font-family="Helvetica,sans-Serif" font-size="10.00">single_quoted_segment</text>
</a>
</g>
</g>
<!-- Node1&#45;&gt;Node15 -->
<g id="edge20" class="edge">
<title>Node1&#45;&gt;Node15</title>
<path fill="none" stroke="midnightblue" d="M928.34,-211.56C917.74,-237.01 895.46,-281.9 862,-306.62 856.71,-310.53 850.65,-313.63 844.38,-316.1"/>
<polygon fill="midnightblue" stroke="midnightblue" points="931.6,-212.84 932.05,-202.25 925.1,-210.24 931.6,-212.84"/>
</g>
<!-- Node16 -->
<g id="node16" class="node">
<title>Node16</title>
<g id="a_node16"><a xlink:href="string__builder_8c.html#a1bfdfae2d27c541b15b526d7d67b7577" target="_top" xlink:title="End and null terminate the string created in t_str_buf, reset the struct so it can be reused and retu...">
<polygon fill="none" stroke="black" points="756.5,-240.12 756.5,-259.12 830.5,-259.12 830.5,-240.12 756.5,-240.12"/>
<text text-anchor="middle" x="793.5" y="-247.12" font-family="Helvetica,sans-Serif" font-size="10.00">str_buf_end</text>
</a>
</g>
</g>
<!-- Node1&#45;&gt;Node16 -->
<g id="edge22" class="edge">
<title>Node1&#45;&gt;Node16</title>
<path fill="none" stroke="midnightblue" d="M910.35,-207.24C896.42,-214.92 878.61,-224.07 862,-230.62 852.03,-234.55 840.94,-238.03 830.68,-240.89"/>
<polygon fill="midnightblue" stroke="midnightblue" points="912.3,-210.16 919.31,-202.21 908.88,-204.05 912.3,-210.16"/>
</g>
<!-- Node17 -->
<g id="node17" class="node">
<title>Node17</title>
<g id="a_node17"><a xlink:href="string__builder_8c.html#ae2f6bd82646cd8367e2f42a0b737b556" target="_top" xlink:title="Put a null terminated string in the t_str_buf struct.">
<polygon fill="none" stroke="black" points="755,-164.12 755,-183.12 832,-183.12 832,-164.12 755,-164.12"/>
<text text-anchor="middle" x="793.5" y="-171.12" font-family="Helvetica,sans-Serif" font-size="10.00">str_buf_puts</text>
</a>
</g>
</g>
<!-- Node1&#45;&gt;Node17 -->
<g id="edge26" class="edge">
<title>Node1&#45;&gt;Node17</title>
<path fill="none" stroke="midnightblue" d="M887.68,-186.18C869.64,-183.75 849.39,-181.02 832.39,-178.73"/>
<polygon fill="midnightblue" stroke="midnightblue" points="887.34,-189.66 897.71,-187.53 888.27,-182.73 887.34,-189.66"/>
</g>
<!-- Node2&#45;&gt;Node3 -->
<g id="edge2" class="edge">
<title>Node2&#45;&gt;Node3</title>
<path fill="none" stroke="midnightblue" d="M714.45,-287.62C705.48,-287.62 696.6,-287.62 688.35,-287.62"/>
<polygon fill="midnightblue" stroke="midnightblue" points="714.59,-291.12 724.59,-287.62 714.59,-284.12 714.59,-291.12"/>
</g>
<!-- Node4 -->
<g id="node4" class="node">
<title>Node4</title>
<g id="a_node4"><a xlink:href="lexer__word_8c.html#a4093905b7d1dfe02710752ee5da8fe01" target="_top" xlink:title="Lexes the string to create a WORD token.">
<polygon fill="none" stroke="black" points="489.5,-240.12 489.5,-259.12 550.5,-259.12 550.5,-240.12 489.5,-240.12"/>
<text text-anchor="middle" x="520" y="-247.12" font-family="Helvetica,sans-Serif" font-size="10.00">lex_word</text>
</a>
</g>
</g>
<!-- Node3&#45;&gt;Node4 -->
<g id="edge3" class="edge">
<title>Node3&#45;&gt;Node4</title>
<path fill="none" stroke="midnightblue" d="M602.87,-275.02C585.8,-269.72 566.31,-263.68 550.63,-258.81"/>
<polygon fill="midnightblue" stroke="midnightblue" points="602,-278.41 612.59,-278.03 604.07,-271.73 602,-278.41"/>
</g>
<!-- Node5 -->
<g id="node5" class="node">
<title>Node5</title>
<g id="a_node5"><a xlink:href="lexer_8c.html#aced469451204cf536fd18b4cf94f6b91" target="_top" xlink:title="Global lexing function, that traverses readline&#39;s string and separate in tokens.">
<polygon fill="none" stroke="black" points="234.5,-240.12 234.5,-259.12 275.5,-259.12 275.5,-240.12 234.5,-240.12"/>
<text text-anchor="middle" x="255" y="-247.12" font-family="Helvetica,sans-Serif" font-size="10.00">lexer</text>
</a>
</g>
</g>
<!-- Node4&#45;&gt;Node5 -->
<g id="edge4" class="edge">
<title>Node4&#45;&gt;Node5</title>
<path fill="none" stroke="midnightblue" d="M479.21,-249.62C421.96,-249.62 318.49,-249.62 275.52,-249.62"/>
<polygon fill="midnightblue" stroke="midnightblue" points="479.34,-253.12 489.34,-249.62 479.34,-246.12 479.34,-253.12"/>
</g>
<!-- Node6 -->
<g id="node6" class="node">
<title>Node6</title>
<g id="a_node6"><a xlink:href="main_8c.html#a647f21a28344e1d9c643f4115516d7c9" target="_top" xlink:title=" ">
<polygon fill="none" stroke="black" points="0,-221.12 0,-240.12 41,-240.12 41,-221.12 0,-221.12"/>
<text text-anchor="middle" x="20.5" y="-228.12" font-family="Helvetica,sans-Serif" font-size="10.00">main</text>
</a>
</g>
</g>
<!-- Node5&#45;&gt;Node6 -->
<g id="edge5" class="edge">
<title>Node5&#45;&gt;Node6</title>
<path fill="none" stroke="midnightblue" d="M224.05,-247.17C175.77,-243.23 82.07,-235.57 41.27,-232.24"/>
<polygon fill="midnightblue" stroke="midnightblue" points="223.93,-250.67 234.18,-248 224.5,-243.7 223.93,-250.67"/>
</g>
<!-- Node7&#45;&gt;Node8 -->
<g id="edge7" class="edge">
<title>Node7&#45;&gt;Node8</title>
<path fill="none" stroke="midnightblue" d="M589.81,-127.29C580.32,-125.82 570.58,-124.31 561.53,-122.91"/>
<polygon fill="midnightblue" stroke="midnightblue" points="589.55,-130.79 599.97,-128.87 590.62,-123.88 589.55,-130.79"/>
</g>
<!-- Node8&#45;&gt;Node9 -->
<g id="edge8" class="edge">
<title>Node8&#45;&gt;Node9</title>
<path fill="none" stroke="midnightblue" d="M468.43,-105.89C456.41,-103.34 443.66,-100.64 431.92,-98.15"/>
<polygon fill="midnightblue" stroke="midnightblue" points="467.81,-109.34 478.32,-107.99 469.26,-102.49 467.81,-109.34"/>
</g>
<!-- Node10 -->
<g id="node10" class="node">
<title>Node10</title>
<g id="a_node10"><a xlink:href="expand__word_8c.html#a0ec378990f411456436a9bb6a71babfc" target="_top" xlink:title="Scans the word to dequote/expand and build correct output.">
<polygon fill="none" stroke="black" points="214,-202.12 214,-221.12 296,-221.12 296,-202.12 214,-202.12"/>
<text text-anchor="middle" x="255" y="-209.12" font-family="Helvetica,sans-Serif" font-size="10.00">expand_word</text>
</a>
</g>
</g>
<!-- Node9&#45;&gt;Node10 -->
<g id="edge9" class="edge">
<title>Node9&#45;&gt;Node10</title>
<path fill="none" stroke="midnightblue" d="M367.55,-105.26C340.17,-131.37 287.98,-181.13 266.08,-202.01"/>
<polygon fill="midnightblue" stroke="midnightblue" points="370.06,-107.71 374.88,-98.27 365.22,-102.64 370.06,-107.71"/>
</g>
<!-- Node11 -->
<g id="node11" class="node">
<title>Node11</title>
<g id="a_node11"><a xlink:href="expand_8c.html#a53c53e75b0ad8c8888217cd918304b8b" target="_top" xlink:title="Iterate over every args and redir of each command to expand and dequote what needs to be.">
<polygon fill="none" stroke="black" points="77,-202.12 77,-221.12 178,-221.12 178,-202.12 77,-202.12"/>
<text text-anchor="middle" x="127.5" y="-209.12" font-family="Helvetica,sans-Serif" font-size="10.00">expand_manager</text>
</a>
</g>
</g>
<!-- Node10&#45;&gt;Node11 -->
<g id="edge10" class="edge">
<title>Node10&#45;&gt;Node11</title>
<path fill="none" stroke="midnightblue" d="M203.87,-211.62C195.45,-211.62 186.72,-211.62 178.3,-211.62"/>
<polygon fill="midnightblue" stroke="midnightblue" points="203.95,-215.12 213.95,-211.62 203.95,-208.12 203.95,-215.12"/>
</g>
<!-- Node11&#45;&gt;Node6 -->
<g id="edge11" class="edge">
<title>Node11&#45;&gt;Node6</title>
<path fill="none" stroke="midnightblue" d="M66.72,-222.44C57.53,-224.1 48.64,-225.71 41.2,-227.06"/>
<polygon fill="midnightblue" stroke="midnightblue" points="67.55,-225.84 76.77,-220.62 66.3,-218.96 67.55,-225.84"/>
</g>
<!-- Node13 -->
<g id="node13" class="node">
<title>Node13</title>
<g id="a_node13"><a xlink:href="expand__dollar_8c.html#a6d96e914be2d2db42405f61048e85370" target="_top" xlink:title=" ">
<polygon fill="none" stroke="black" points="603.5,-164.12 603.5,-183.12 685.5,-183.12 685.5,-164.12 603.5,-164.12"/>
<text text-anchor="middle" x="644.5" y="-171.12" font-family="Helvetica,sans-Serif" font-size="10.00">expand_valid</text>
</a>
</g>
</g>
<!-- Node12&#45;&gt;Node13 -->
<g id="edge13" class="edge">
<title>Node12&#45;&gt;Node13</title>
<path fill="none" stroke="midnightblue" d="M745.65,-199.51C725.17,-194.22 701.51,-188.1 682.33,-183.14"/>
<polygon fill="midnightblue" stroke="midnightblue" points="744.85,-202.92 755.41,-202.03 746.6,-196.14 744.85,-202.92"/>
</g>
<!-- Node13&#45;&gt;Node8 -->
<g id="edge14" class="edge">
<title>Node13&#45;&gt;Node8</title>
<path fill="none" stroke="midnightblue" d="M612.02,-160.03C607.96,-158.23 603.88,-156.4 600,-154.62 579.53,-145.23 556.32,-134 540.39,-126.19"/>
<polygon fill="midnightblue" stroke="midnightblue" points="610.74,-163.29 621.3,-164.11 613.55,-156.88 610.74,-163.29"/>
</g>
<!-- Node14&#45;&gt;Node9 -->
<g id="edge18" class="edge">
<title>Node14&#45;&gt;Node9</title>
<path fill="none" stroke="midnightblue" d="M490.89,-35.89C465.26,-48.9 428.11,-67.75 405.88,-79.04"/>
<polygon fill="midnightblue" stroke="midnightblue" points="492.75,-38.87 500.09,-31.22 489.59,-32.63 492.75,-38.87"/>
</g>
<!-- Node15&#45;&gt;Node3 -->
<g id="edge21" class="edge">
<title>Node15&#45;&gt;Node3</title>
<path fill="none" stroke="midnightblue" d="M745.65,-313.51C725.17,-308.22 701.51,-302.1 682.33,-297.14"/>
<polygon fill="midnightblue" stroke="midnightblue" points="744.85,-316.92 755.41,-316.03 746.6,-310.14 744.85,-316.92"/>
</g>
<!-- Node16&#45;&gt;Node4 -->
<g id="edge25" class="edge">
<title>Node16&#45;&gt;Node4</title>
<path fill="none" stroke="midnightblue" d="M746.45,-249.62C690.49,-249.62 597.72,-249.62 550.53,-249.62"/>
<polygon fill="midnightblue" stroke="midnightblue" points="746.45,-253.12 756.45,-249.62 746.45,-246.12 746.45,-253.12"/>
</g>
<!-- Node16&#45;&gt;Node10 -->
<g id="edge24" class="edge">
<title>Node16&#45;&gt;Node10</title>
<path fill="none" stroke="midnightblue" d="M746.11,-245.47C699.96,-241.41 627.12,-235.19 564,-230.62 468.09,-223.68 355.25,-217.13 296.38,-213.84"/>
<polygon fill="midnightblue" stroke="midnightblue" points="745.84,-248.96 756.11,-246.35 746.46,-241.99 745.84,-248.96"/>
</g>
<!-- Node16&#45;&gt;Node13 -->
<g id="edge23" class="edge">
<title>Node16&#45;&gt;Node13</title>
<path fill="none" stroke="midnightblue" d="M746.53,-239.82C739.09,-237.36 731.66,-234.33 725,-230.62 706.04,-220.06 706.63,-210.29 689,-197.62 681.58,-192.29 672.84,-187.25 665.15,-183.19"/>
<polygon fill="midnightblue" stroke="midnightblue" points="745.65,-243.21 756.24,-242.74 747.67,-236.51 745.65,-243.21"/>
</g>
<!-- Node17&#45;&gt;Node7 -->
<g id="edge27" class="edge">
<title>Node17&#45;&gt;Node7</title>
<path fill="none" stroke="midnightblue" d="M745.65,-161.51C725.17,-156.22 701.51,-150.1 682.33,-145.14"/>
<polygon fill="midnightblue" stroke="midnightblue" points="744.85,-164.92 755.41,-164.03 746.6,-158.14 744.85,-164.92"/>
</g>
<!-- Node17&#45;&gt;Node13 -->
<g id="edge28" class="edge">
<title>Node17&#45;&gt;Node13</title>
<path fill="none" stroke="midnightblue" d="M744.64,-173.62C725.53,-173.62 703.79,-173.62 685.54,-173.62"/>
<polygon fill="midnightblue" stroke="midnightblue" points="744.64,-177.12 754.64,-173.62 744.64,-170.12 744.64,-177.12"/>
</g>
</g>
</svg>
        <g id="navigator" transform="translate(0 0)" fill="#404254">
                <rect fill="#f2f5e9" fill-opacity="0.5" stroke="#606060" stroke-width=".5" x="0" y="0" width="60" height="60"/>
                <use id="zoomplus" xlink:href="#zoomPlus" x="17" y="9" onmousedown="handleZoom(evt,'in')"/>
                <use id="zoomminus" xlink:href="#zoomMin" x="42" y="9" onmousedown="handleZoom(evt,'out')"/>
                <use id="reset" xlink:href="#resetDef" x="30" y="36" onmousedown="handleReset()"/>
                <g id="arrowUp" xlink:href="#dirArrow" transform="translate(30 24)" onmousedown="handlePan(0,-1)">
                  <use xlink:href="#rim" fill="#404040">
                        <set attributeName="fill" to="#808080" begin="arrowUp.mouseover" end="arrowUp.mouseout"/>
                  </use>
                  <path fill="none" stroke="white" stroke-width="1.5" d="M0,-3.0v7 M-2.5,-0.5L0,-3.0L2.5,-0.5"/>
                </g>
                <g id="arrowRight" xlink:href="#dirArrow" transform="rotate(90) translate(36 -43)" onmousedown="handlePan(1,0)">
                  <use xlink:href="#rim" fill="#404040">
                        <set attributeName="fill" to="#808080" begin="arrowRight.mouseover" end="arrowRight.mouseout"/>
                  </use>
                  <path fill="none" stroke="white" stroke-width="1.5" d="M0,-3.0v7 M-2.5,-0.5L0,-3.0L2.5,-0.5"/>
                </g>
                <g id="arrowDown" xlink:href="#dirArrow" transform="rotate(180) translate(-30 -48)" onmousedown="handlePan(0,1)">
                  <use xlink:href="#rim" fill="#404040">
                        <set attributeName="fill" to="#808080" begin="arrowDown.mouseover" end="arrowDown.mouseout"/>
                  </use>
                  <path fill="none" stroke="white" stroke-width="1.5" d="M0,-3.0v7 M-2.5,-0.5L0,-3.0L2.5,-0.5"/>
                </g>
                <g id="arrowLeft" xlink:href="#dirArrow" transform="rotate(270) translate(-36 17)" onmousedown="handlePan(-1,0)">
                  <use xlink:href="#rim" fill="#404040">
                        <set attributeName="fill" to="#808080" begin="arrowLeft.mouseover" end="arrowLeft.mouseout"/>
                  </use>
                  <path fill="none" stroke="white" stroke-width="1.5" d="M0,-3.0v7 M-2.5,-0.5L0,-3.0L2.5,-0.5"/>
                </g>
        </g>
        <svg viewBox="0 0 15 15" width="100%" height="30px" preserveAspectRatio="xMaxYMin meet">
         <g id="arrow_out" transform="scale(0.3 0.3)">
          <a xlink:href="string__builder_8c_a2630bac2d2575ee6ecee7ed88e5f8296_icgraph_org.svg" target="_base">
           <rect id="button" ry="5" rx="5" y="6" x="6" height="38" width="38"
                fill="#f2f5e9" fill-opacity="0.5" stroke="#606060" stroke-width="1.0"/>
           <path id="arrow"
             d="M 11.500037,31.436501 C 11.940474,20.09759 22.043105,11.32322 32.158766,21.979434 L 37.068811,17.246167 C 37.068811,17.246167 37.088388,32 37.088388,32 L 22.160133,31.978069 C 22.160133,31.978069 26.997745,27.140456 26.997745,27.140456 C 18.528582,18.264221 13.291696,25.230495 11.500037,31.436501 z"
             style="fill:#404040;"/>
          </a>
         </g>
        </svg>
</svg>
