<?xml version="1.0" encoding="UTF-8" standalone="no"?>
<!DOCTYPE svg PUBLIC "-//W3C//DTD SVG 1.1//EN"
 "http://www.w3.org/Graphics/SVG/1.1/DTD/svg11.dtd">
<!-- Generated by graphviz version 2.43.0 (0)
 -->
<!-- Title: str_buf_free Pages: 1 -->
<svg width="1084pt" height="159pt"
 viewBox="0.00 0.00 1084.00 158.80" xmlns="http://www.w3.org/2000/svg" xmlns:xlink="http://www.w3.org/1999/xlink">
<g id="graph0" class="graph" transform="scale(1 1) rotate(0) translate(4 154.8)">
<title>str_buf_free</title>
<!-- Node1 -->
<g id="node1" class="node">
<title>Node1</title>
<g id="a_node1"><a xlink:title=" ">
<polygon fill="#bfbfbf" stroke="black" points="1001,-38.5 1001,-57.5 1076,-57.5 1076,-38.5 1001,-38.5"/>
<text text-anchor="middle" x="1038.5" y="-45.5" font-family="Helvetica,sans-Serif" font-size="10.00">str_buf_free</text>
</a>
</g>
</g>
<!-- Node2 -->
<g id="node2" class="node">
<title>Node2</title>
<g id="a_node2"><a xlink:href="expand__dollar_8c.html#af17c527615f14d68b20a8edf80264943" target="_top" xlink:title=" ">
<polygon fill="none" stroke="black" points="887.5,-95.5 887.5,-114.5 955.5,-114.5 955.5,-95.5 887.5,-95.5"/>
<text text-anchor="middle" x="921.5" y="-102.5" font-family="Helvetica,sans-Serif" font-size="10.00">exit_dollar</text>
</a>
</g>
</g>
<!-- Node1&#45;&gt;Node2 -->
<g id="edge1" class="edge">
<title>Node1&#45;&gt;Node2</title>
<path fill="none" stroke="midnightblue" d="M1009.18,-62.04C988.23,-72.42 960.24,-86.29 941.81,-95.43"/>
<polygon fill="midnightblue" stroke="midnightblue" points="1010.85,-65.12 1018.25,-57.54 1007.74,-58.85 1010.85,-65.12"/>
</g>
<!-- Node5 -->
<g id="node5" class="node">
<title>Node5</title>
<g id="a_node5"><a xlink:href="expand__word_8c.html#a051bcabe3f6edf5f6d234199cea49f48" target="_top" xlink:title=" ">
<polygon fill="none" stroke="black" points="332,-38.5 332,-57.5 440,-57.5 440,-38.5 332,-38.5"/>
<text text-anchor="middle" x="386" y="-45.5" font-family="Helvetica,sans-Serif" font-size="10.00">expand_word_loop</text>
</a>
</g>
</g>
<!-- Node1&#45;&gt;Node5 -->
<g id="edge11" class="edge">
<title>Node1&#45;&gt;Node5</title>
<path fill="none" stroke="midnightblue" d="M990.39,-48C938.48,-48 852.54,-48 778.5,-48 778.5,-48 778.5,-48 635,-48 567.83,-48 490.43,-48 440.22,-48"/>
<polygon fill="midnightblue" stroke="midnightblue" points="990.61,-51.5 1000.61,-48 990.61,-44.5 990.61,-51.5"/>
</g>
<!-- Node10 -->
<g id="node10" class="node">
<title>Node10</title>
<g id="a_node10"><a xlink:href="lexer__word_8c.html#a8c3afe25ab140f0d5490ae1a8389e162" target="_top" xlink:title=" ">
<polygon fill="none" stroke="black" points="878,-0.5 878,-19.5 965,-19.5 965,-0.5 878,-0.5"/>
<text text-anchor="middle" x="921.5" y="-7.5" font-family="Helvetica,sans-Serif" font-size="10.00">lex_word_loop</text>
</a>
</g>
</g>
<!-- Node1&#45;&gt;Node10 -->
<g id="edge12" class="edge">
<title>Node1&#45;&gt;Node10</title>
<path fill="none" stroke="midnightblue" d="M998.68,-35.17C983.25,-30.08 965.81,-24.31 951.51,-19.59"/>
<polygon fill="midnightblue" stroke="midnightblue" points="997.89,-38.6 1008.48,-38.41 1000.08,-31.95 997.89,-38.6"/>
</g>
<!-- Node3 -->
<g id="node3" class="node">
<title>Node3</title>
<g id="a_node3"><a xlink:href="expand__dollar_8c.html#a6d96e914be2d2db42405f61048e85370" target="_top" xlink:title=" ">
<polygon fill="none" stroke="black" points="595,-114.5 595,-133.5 677,-133.5 677,-114.5 595,-114.5"/>
<text text-anchor="middle" x="636" y="-121.5" font-family="Helvetica,sans-Serif" font-size="10.00">expand_valid</text>
</a>
</g>
</g>
<!-- Node2&#45;&gt;Node3 -->
<g id="edge2" class="edge">
<title>Node2&#45;&gt;Node3</title>
<path fill="none" stroke="midnightblue" d="M897.25,-119.71C882.15,-128.37 861.68,-138.49 842,-143 786.12,-155.81 769.9,-150.01 713,-143 697.88,-141.14 681.44,-137.27 667.74,-133.51"/>
<polygon fill="midnightblue" stroke="midnightblue" points="899.1,-122.68 905.91,-114.56 895.52,-116.66 899.1,-122.68"/>
</g>
<!-- Node4 -->
<g id="node4" class="node">
<title>Node4</title>
<g id="a_node4"><a xlink:href="expand__dollar_8c.html#ac3e15865744ed2c1300a5cb96f24e33d" target="_top" xlink:title="Manages all possibilities with expand : $?, known and unknown env variable.">
<polygon fill="none" stroke="black" points="476,-76.5 476,-95.5 559,-95.5 559,-76.5 476,-76.5"/>
<text text-anchor="middle" x="517.5" y="-83.5" font-family="Helvetica,sans-Serif" font-size="10.00">handle_dollar</text>
</a>
</g>
</g>
<!-- Node2&#45;&gt;Node4 -->
<g id="edge10" class="edge">
<title>Node2&#45;&gt;Node4</title>
<path fill="none" stroke="midnightblue" d="M877.27,-102.96C799.11,-99.26 635.37,-91.52 559.14,-87.92"/>
<polygon fill="midnightblue" stroke="midnightblue" points="877.11,-106.45 887.26,-103.43 877.44,-99.46 877.11,-106.45"/>
</g>
<!-- Node9 -->
<g id="node9" class="node">
<title>Node9</title>
<g id="a_node9"><a xlink:href="expand__dollar_8c.html#a288ca34d78433c242163338d2e877550" target="_top" xlink:title=" ">
<polygon fill="none" stroke="black" points="713,-114.5 713,-133.5 842,-133.5 842,-114.5 713,-114.5"/>
<text text-anchor="middle" x="777.5" y="-121.5" font-family="Helvetica,sans-Serif" font-size="10.00">expand_valid_build_str</text>
</a>
</g>
</g>
<!-- Node2&#45;&gt;Node9 -->
<g id="edge8" class="edge">
<title>Node2&#45;&gt;Node9</title>
<path fill="none" stroke="midnightblue" d="M877.04,-110.82C866.05,-112.29 854.02,-113.9 842.26,-115.47"/>
<polygon fill="midnightblue" stroke="midnightblue" points="877.76,-114.25 887.21,-109.45 876.83,-107.31 877.76,-114.25"/>
</g>
<!-- Node3&#45;&gt;Node4 -->
<g id="edge3" class="edge">
<title>Node3&#45;&gt;Node4</title>
<path fill="none" stroke="midnightblue" d="M595.68,-111.17C580.05,-106.08 562.37,-100.31 547.89,-95.59"/>
<polygon fill="midnightblue" stroke="midnightblue" points="595.01,-114.64 605.6,-114.41 597.18,-107.98 595.01,-114.64"/>
</g>
<!-- Node4&#45;&gt;Node5 -->
<g id="edge4" class="edge">
<title>Node4&#45;&gt;Node5</title>
<path fill="none" stroke="midnightblue" d="M473.78,-73.46C456.16,-68.3 436.08,-62.4 419.67,-57.59"/>
<polygon fill="midnightblue" stroke="midnightblue" points="473.24,-76.95 483.82,-76.41 475.21,-70.24 473.24,-76.95"/>
</g>
<!-- Node6 -->
<g id="node6" class="node">
<title>Node6</title>
<g id="a_node6"><a xlink:href="expand__word_8c.html#a0ec378990f411456436a9bb6a71babfc" target="_top" xlink:title="Scans the word to dequote/expand and build correct output.">
<polygon fill="none" stroke="black" points="214,-38.5 214,-57.5 296,-57.5 296,-38.5 214,-38.5"/>
<text text-anchor="middle" x="255" y="-45.5" font-family="Helvetica,sans-Serif" font-size="10.00">expand_word</text>
</a>
</g>
</g>
<!-- Node5&#45;&gt;Node6 -->
<g id="edge5" class="edge">
<title>Node5&#45;&gt;Node6</title>
<path fill="none" stroke="midnightblue" d="M321.63,-48C312.93,-48 304.2,-48 296.08,-48"/>
<polygon fill="midnightblue" stroke="midnightblue" points="321.79,-51.5 331.79,-48 321.79,-44.5 321.79,-51.5"/>
</g>
<!-- Node7 -->
<g id="node7" class="node">
<title>Node7</title>
<g id="a_node7"><a xlink:href="expand_8c.html#a53c53e75b0ad8c8888217cd918304b8b" target="_top" xlink:title="Iterate over every args and redir of each command to expand and dequote what needs to be.">
<polygon fill="none" stroke="black" points="77,-38.5 77,-57.5 178,-57.5 178,-38.5 77,-38.5"/>
<text text-anchor="middle" x="127.5" y="-45.5" font-family="Helvetica,sans-Serif" font-size="10.00">expand_manager</text>
</a>
</g>
</g>
<!-- Node6&#45;&gt;Node7 -->
<g id="edge6" class="edge">
<title>Node6&#45;&gt;Node7</title>
<path fill="none" stroke="midnightblue" d="M203.87,-48C195.45,-48 186.72,-48 178.3,-48"/>
<polygon fill="midnightblue" stroke="midnightblue" points="203.95,-51.5 213.95,-48 203.95,-44.5 203.95,-51.5"/>
</g>
<!-- Node8 -->
<g id="node8" class="node">
<title>Node8</title>
<g id="a_node8"><a xlink:href="main_8c.html#a647f21a28344e1d9c643f4115516d7c9" target="_top" xlink:title=" ">
<polygon fill="none" stroke="black" points="0,-19.5 0,-38.5 41,-38.5 41,-19.5 0,-19.5"/>
<text text-anchor="middle" x="20.5" y="-26.5" font-family="Helvetica,sans-Serif" font-size="10.00">main</text>
</a>
</g>
</g>
<!-- Node7&#45;&gt;Node8 -->
<g id="edge7" class="edge">
<title>Node7&#45;&gt;Node8</title>
<path fill="none" stroke="midnightblue" d="M66.72,-37.18C57.53,-35.52 48.64,-33.91 41.2,-32.57"/>
<polygon fill="midnightblue" stroke="midnightblue" points="66.3,-40.66 76.77,-39 67.55,-33.78 66.3,-40.66"/>
</g>
<!-- Node9&#45;&gt;Node3 -->
<g id="edge9" class="edge">
<title>Node9&#45;&gt;Node3</title>
<path fill="none" stroke="midnightblue" d="M702.66,-124C693.97,-124 685.36,-124 677.38,-124"/>
<polygon fill="midnightblue" stroke="midnightblue" points="702.87,-127.5 712.87,-124 702.87,-120.5 702.87,-127.5"/>
</g>
<!-- Node11 -->
<g id="node11" class="node">
<title>Node11</title>
<g id="a_node11"><a xlink:href="lexer__word_8c.html#a4093905b7d1dfe02710752ee5da8fe01" target="_top" xlink:title="Lexes the string to create a WORD token.">
<polygon fill="none" stroke="black" points="747,-0.5 747,-19.5 808,-19.5 808,-0.5 747,-0.5"/>
<text text-anchor="middle" x="777.5" y="-7.5" font-family="Helvetica,sans-Serif" font-size="10.00">lex_word</text>
</a>
</g>
</g>
<!-- Node10&#45;&gt;Node11 -->
<g id="edge13" class="edge">
<title>Node10&#45;&gt;Node11</title>
<path fill="none" stroke="midnightblue" d="M867.87,-10C847.65,-10 825.31,-10 808.01,-10"/>
<polygon fill="midnightblue" stroke="midnightblue" points="867.9,-13.5 877.9,-10 867.9,-6.5 867.9,-13.5"/>
</g>
<!-- Node12 -->
<g id="node12" class="node">
<title>Node12</title>
<g id="a_node12"><a xlink:href="lexer_8c.html#aced469451204cf536fd18b4cf94f6b91" target="_top" xlink:title="Global lexing function, that traverses readline&#39;s string and separate in tokens.">
<polygon fill="none" stroke="black" points="497,-0.5 497,-19.5 538,-19.5 538,-0.5 497,-0.5"/>
<text text-anchor="middle" x="517.5" y="-7.5" font-family="Helvetica,sans-Serif" font-size="10.00">lexer</text>
</a>
</g>
</g>
<!-- Node11&#45;&gt;Node12 -->
<g id="edge14" class="edge">
<title>Node11&#45;&gt;Node12</title>
<path fill="none" stroke="midnightblue" d="M736.64,-10C680.56,-10 580.51,-10 538.23,-10"/>
<polygon fill="midnightblue" stroke="midnightblue" points="736.9,-13.5 746.9,-10 736.9,-6.5 736.9,-13.5"/>
</g>
<!-- Node12&#45;&gt;Node8 -->
<g id="edge15" class="edge">
<title>Node12&#45;&gt;Node8</title>
<path fill="none" stroke="midnightblue" d="M486.79,-11.14C395.04,-14.66 117.82,-25.3 41.27,-28.24"/>
<polygon fill="midnightblue" stroke="midnightblue" points="486.93,-14.64 496.79,-10.76 486.66,-7.64 486.93,-14.64"/>
</g>
</g>
</svg>
