<?xml version="1.0" encoding="UTF-8" standalone="no"?>
<!DOCTYPE svg PUBLIC "-//W3C//DTD SVG 1.1//EN"
 "http://www.w3.org/Graphics/SVG/1.1/DTD/svg11.dtd">
<!-- Generated by graphviz version 2.43.0 (0)
 -->
<!-- Title: s_cmd Pages: 1 -->
<svg width="126pt" height="97pt"
 viewBox="0.00 0.00 125.50 97.00" xmlns="http://www.w3.org/2000/svg" xmlns:xlink="http://www.w3.org/1999/xlink">
<g id="graph0" class="graph" transform="scale(1 1) rotate(0) translate(4 93)">
<title>s_cmd</title>
<!-- Node1 -->
<g id="node1" class="node">
<title>Node1</title>
<g id="a_node1"><a xlink:title=" ">
<polygon fill="#bfbfbf" stroke="black" points="8.5,-1.5 8.5,-20.5 56.5,-20.5 56.5,-1.5 8.5,-1.5"/>
<text text-anchor="middle" x="32.5" y="-8.5" font-family="Helvetica,sans-Serif" font-size="10.00">s_cmd</text>
</a>
</g>
</g>
<!-- Node1&#45;&gt;Node1 -->
<g id="edge3" class="edge">
<title>Node1&#45;&gt;Node1</title>
<path fill="none" stroke="#9a32cd" stroke-dasharray="5,2" d="M66.92,-16.62C71.48,-15.67 74.5,-13.79 74.5,-11 74.5,-6.42 66.36,-4.31 56.67,-4.66"/>
<polygon fill="#9a32cd" stroke="#9a32cd" points="66.4,-13.15 56.67,-17.34 66.89,-20.14 66.4,-13.15"/>
<text text-anchor="middle" x="96" y="-14" font-family="Helvetica,sans-Serif" font-size="10.00"> next</text>
<text text-anchor="middle" x="96" y="-3" font-family="Helvetica,sans-Serif" font-size="10.00">previous</text>
</g>
<!-- Node2 -->
<g id="node2" class="node">
<title>Node2</title>
<g id="a_node2"><a xlink:href="structs__redirect.html" target="_top" xlink:title=" ">
<polygon fill="none" stroke="black" points="0,-69.5 0,-88.5 65,-88.5 65,-69.5 0,-69.5"/>
<text text-anchor="middle" x="32.5" y="-76.5" font-family="Helvetica,sans-Serif" font-size="10.00">s_redirect</text>
</a>
</g>
</g>
<!-- Node2&#45;&gt;Node1 -->
<g id="edge1" class="edge">
<title>Node2&#45;&gt;Node1</title>
<path fill="none" stroke="#9a32cd" stroke-dasharray="5,2" d="M32.5,-59.04C32.5,-46.47 32.5,-30.56 32.5,-20.84"/>
<polygon fill="#9a32cd" stroke="#9a32cd" points="29,-59.37 32.5,-69.37 36,-59.37 29,-59.37"/>
<text text-anchor="middle" x="45.5" y="-43" font-family="Helvetica,sans-Serif" font-size="10.00"> redir</text>
</g>
<!-- Node2&#45;&gt;Node2 -->
<g id="edge2" class="edge">
<title>Node2&#45;&gt;Node2</title>
<path fill="none" stroke="#9a32cd" stroke-dasharray="5,2" d="M75.14,-84.07C79.91,-83.11 83,-81.42 83,-79 83,-75.12 75.1,-73.13 65.04,-73.01"/>
<polygon fill="#9a32cd" stroke="#9a32cd" points="74.68,-80.59 65.04,-84.99 75.32,-87.56 74.68,-80.59"/>
<text text-anchor="middle" x="95.5" y="-76.5" font-family="Helvetica,sans-Serif" font-size="10.00"> next</text>
</g>
</g>
</svg>
