<?xml version="1.0" encoding="UTF-8" standalone="no"?>
<!DOCTYPE svg PUBLIC "-//W3C//DTD SVG 1.1//EN"
 "http://www.w3.org/Graphics/SVG/1.1/DTD/svg11.dtd">
<!-- Generated by graphviz version 2.43.0 (0)
 -->
<!-- Title: s_minishell Pages: 1 -->
<svg width="366pt" height="164pt"
 viewBox="0.00 0.00 365.50 164.00" xmlns="http://www.w3.org/2000/svg" xmlns:xlink="http://www.w3.org/1999/xlink">
<g id="graph0" class="graph" transform="scale(1 1) rotate(0) translate(4 160)">
<title>s_minishell</title>
<!-- Node1 -->
<g id="node1" class="node">
<title>Node1</title>
<g id="a_node1"><a xlink:title=" ">
<polygon fill="#bfbfbf" stroke="black" points="122.5,-0.5 122.5,-19.5 194.5,-19.5 194.5,-0.5 122.5,-0.5"/>
<text text-anchor="middle" x="158.5" y="-7.5" font-family="Helvetica,sans-Serif" font-size="10.00">s_minishell</text>
</a>
</g>
</g>
<!-- Node2 -->
<g id="node2" class="node">
<title>Node2</title>
<g id="a_node2"><a xlink:href="structs__cmd.html" target="_top" xlink:title=" ">
<polygon fill="none" stroke="black" points="8.5,-68.5 8.5,-87.5 56.5,-87.5 56.5,-68.5 8.5,-68.5"/>
<text text-anchor="middle" x="32.5" y="-75.5" font-family="Helvetica,sans-Serif" font-size="10.00">s_cmd</text>
</a>
</g>
</g>
<!-- Node2&#45;&gt;Node1 -->
<g id="edge1" class="edge">
<title>Node2&#45;&gt;Node1</title>
<path fill="none" stroke="#9a32cd" stroke-dasharray="5,2" d="M57.91,-63.69C83,-50.55 120.61,-30.85 142.02,-19.63"/>
<polygon fill="#9a32cd" stroke="#9a32cd" points="56.21,-60.63 48.97,-68.37 59.45,-66.83 56.21,-60.63"/>
<text text-anchor="middle" x="130.5" y="-41" font-family="Helvetica,sans-Serif" font-size="10.00"> top_cmd</text>
</g>
<!-- Node2&#45;&gt;Node2 -->
<g id="edge4" class="edge">
<title>Node2&#45;&gt;Node2</title>
<path fill="none" stroke="#9a32cd" stroke-dasharray="5,2" d="M66.92,-83.62C71.48,-82.67 74.5,-80.79 74.5,-78 74.5,-73.42 66.36,-71.31 56.67,-71.66"/>
<polygon fill="#9a32cd" stroke="#9a32cd" points="66.4,-80.15 56.67,-84.34 66.89,-87.14 66.4,-80.15"/>
<text text-anchor="middle" x="96" y="-81" font-family="Helvetica,sans-Serif" font-size="10.00"> next</text>
<text text-anchor="middle" x="96" y="-70" font-family="Helvetica,sans-Serif" font-size="10.00">previous</text>
</g>
<!-- Node3 -->
<g id="node3" class="node">
<title>Node3</title>
<g id="a_node3"><a xlink:href="structs__redirect.html" target="_top" xlink:title=" ">
<polygon fill="none" stroke="black" points="0,-136.5 0,-155.5 65,-155.5 65,-136.5 0,-136.5"/>
<text text-anchor="middle" x="32.5" y="-143.5" font-family="Helvetica,sans-Serif" font-size="10.00">s_redirect</text>
</a>
</g>
</g>
<!-- Node3&#45;&gt;Node2 -->
<g id="edge2" class="edge">
<title>Node3&#45;&gt;Node2</title>
<path fill="none" stroke="#9a32cd" stroke-dasharray="5,2" d="M32.5,-126.04C32.5,-113.47 32.5,-97.56 32.5,-87.84"/>
<polygon fill="#9a32cd" stroke="#9a32cd" points="29,-126.37 32.5,-136.37 36,-126.37 29,-126.37"/>
<text text-anchor="middle" x="45.5" y="-110" font-family="Helvetica,sans-Serif" font-size="10.00"> redir</text>
</g>
<!-- Node3&#45;&gt;Node3 -->
<g id="edge3" class="edge">
<title>Node3&#45;&gt;Node3</title>
<path fill="none" stroke="#9a32cd" stroke-dasharray="5,2" d="M75.14,-151.07C79.91,-150.11 83,-148.42 83,-146 83,-142.12 75.1,-140.13 65.04,-140.01"/>
<polygon fill="#9a32cd" stroke="#9a32cd" points="74.68,-147.59 65.04,-151.99 75.32,-154.56 74.68,-147.59"/>
<text text-anchor="middle" x="95.5" y="-143.5" font-family="Helvetica,sans-Serif" font-size="10.00"> next</text>
</g>
<!-- Node4 -->
<g id="node4" class="node">
<title>Node4</title>
<g id="a_node4"><a xlink:href="structs__env.html" target="_top" xlink:title=" ">
<polygon fill="none" stroke="black" points="136,-68.5 136,-87.5 181,-87.5 181,-68.5 136,-68.5"/>
<text text-anchor="middle" x="158.5" y="-75.5" font-family="Helvetica,sans-Serif" font-size="10.00">s_env</text>
</a>
</g>
</g>
<!-- Node4&#45;&gt;Node1 -->
<g id="edge5" class="edge">
<title>Node4&#45;&gt;Node1</title>
<path fill="none" stroke="#9a32cd" stroke-dasharray="5,2" d="M158.5,-58.04C158.5,-45.47 158.5,-29.56 158.5,-19.84"/>
<polygon fill="#9a32cd" stroke="#9a32cd" points="155,-58.37 158.5,-68.37 162,-58.37 155,-58.37"/>
<text text-anchor="middle" x="180" y="-41" font-family="Helvetica,sans-Serif" font-size="10.00"> top_env</text>
</g>
<!-- Node4&#45;&gt;Node4 -->
<g id="edge6" class="edge">
<title>Node4&#45;&gt;Node4</title>
<path fill="none" stroke="#9a32cd" stroke-dasharray="5,2" d="M191.5,-83.67C196,-82.72 199,-80.83 199,-78 199,-73.35 190.93,-71.25 181.4,-71.68"/>
<polygon fill="#9a32cd" stroke="#9a32cd" points="191.15,-80.18 181.4,-84.32 191.6,-87.17 191.15,-80.18"/>
<text text-anchor="middle" x="220.5" y="-81" font-family="Helvetica,sans-Serif" font-size="10.00"> next</text>
<text text-anchor="middle" x="220.5" y="-70" font-family="Helvetica,sans-Serif" font-size="10.00">previous</text>
</g>
<!-- Node5 -->
<g id="node5" class="node">
<title>Node5</title>
<g id="a_node5"><a xlink:href="structs__token.html" target="_top" xlink:title=" ">
<polygon fill="none" stroke="black" points="260.5,-68.5 260.5,-87.5 314.5,-87.5 314.5,-68.5 260.5,-68.5"/>
<text text-anchor="middle" x="287.5" y="-75.5" font-family="Helvetica,sans-Serif" font-size="10.00">s_token</text>
</a>
</g>
</g>
<!-- Node5&#45;&gt;Node1 -->
<g id="edge7" class="edge">
<title>Node5&#45;&gt;Node1</title>
<path fill="none" stroke="#9a32cd" stroke-dasharray="5,2" d="M261.48,-63.69C235.8,-50.55 197.29,-30.85 175.37,-19.63"/>
<polygon fill="#9a32cd" stroke="#9a32cd" points="260.14,-66.93 270.64,-68.37 263.33,-60.7 260.14,-66.93"/>
<text text-anchor="middle" x="250.5" y="-41" font-family="Helvetica,sans-Serif" font-size="10.00"> top_tok</text>
</g>
<!-- Node5&#45;&gt;Node5 -->
<g id="edge8" class="edge">
<title>Node5&#45;&gt;Node5</title>
<path fill="none" stroke="#9a32cd" stroke-dasharray="5,2" d="M325.01,-83.49C329.54,-82.5 332.5,-80.67 332.5,-78 332.5,-73.62 324.52,-71.49 314.74,-71.63"/>
<polygon fill="#9a32cd" stroke="#9a32cd" points="324.41,-80.03 314.74,-84.37 325,-87.01 324.41,-80.03"/>
<text text-anchor="middle" x="345" y="-75.5" font-family="Helvetica,sans-Serif" font-size="10.00"> next</text>
</g>
</g>
</svg>
