<?xml version="1.0" encoding="UTF-8" standalone="no"?>
<!DOCTYPE svg PUBLIC "-//W3C//DTD SVG 1.1//EN"
 "http://www.w3.org/Graphics/SVG/1.1/DTD/svg11.dtd">
<!-- Generated by graphviz version 2.43.0 (0)
 -->
<!-- Title: unset Pages: 1 -->
<svg width="156pt" height="66pt"
 viewBox="0.00 0.00 156.00 66.00" xmlns="http://www.w3.org/2000/svg" xmlns:xlink="http://www.w3.org/1999/xlink">
<g id="graph0" class="graph" transform="scale(1 1) rotate(0) translate(4 62)">
<title>unset</title>
<!-- Node1 -->
<g id="node1" class="node">
<title>Node1</title>
<g id="a_node1"><a xlink:title=" ">
<polygon fill="#bfbfbf" stroke="black" points="0,-19.5 0,-38.5 44,-38.5 44,-19.5 0,-19.5"/>
<text text-anchor="middle" x="22" y="-26.5" font-family="Helvetica,sans-Serif" font-size="10.00">unset</text>
</a>
</g>
</g>
<!-- Node2 -->
<g id="node2" class="node">
<title>Node2</title>
<g id="a_node2"><a xlink:href="ft__strlen_8c.html#a828402378653640f545a4be2e00e92f9" target="_top" xlink:title=" ">
<polygon fill="none" stroke="black" points="86,-38.5 86,-57.5 142,-57.5 142,-38.5 86,-38.5"/>
<text text-anchor="middle" x="114" y="-45.5" font-family="Helvetica,sans-Serif" font-size="10.00">ft_strlen</text>
</a>
</g>
</g>
<!-- Node1&#45;&gt;Node2 -->
<g id="edge1" class="edge">
<title>Node1&#45;&gt;Node2</title>
<path fill="none" stroke="midnightblue" d="M44.33,-33.5C53.7,-35.48 65,-37.87 75.69,-40.12"/>
<polygon fill="midnightblue" stroke="midnightblue" points="75.17,-43.59 85.68,-42.23 76.62,-36.74 75.17,-43.59"/>
</g>
<!-- Node3 -->
<g id="node3" class="node">
<title>Node3</title>
<g id="a_node3"><a xlink:href="ft__strncmp_8c.html#a9d2fe792187aa4ed08e5864fb2c4d6dc" target="_top" xlink:title=" ">
<polygon fill="none" stroke="black" points="80,-0.5 80,-19.5 148,-19.5 148,-0.5 80,-0.5"/>
<text text-anchor="middle" x="114" y="-7.5" font-family="Helvetica,sans-Serif" font-size="10.00">ft_strncmp</text>
</a>
</g>
</g>
<!-- Node1&#45;&gt;Node3 -->
<g id="edge2" class="edge">
<title>Node1&#45;&gt;Node3</title>
<path fill="none" stroke="midnightblue" d="M44.33,-24.5C52.03,-22.87 61.03,-20.97 69.93,-19.09"/>
<polygon fill="midnightblue" stroke="midnightblue" points="70.8,-22.49 79.86,-17 69.35,-15.64 70.8,-22.49"/>
</g>
</g>
</svg>
