<?xml version="1.0" encoding="UTF-8" standalone="no"?>
<!DOCTYPE svg PUBLIC "-//W3C//DTD SVG 1.1//EN"
 "http://www.w3.org/Graphics/SVG/1.1/DTD/svg11.dtd">
<!-- Generated by graphviz version 2.43.0 (0)
 -->
<!-- Title: ft_close_fd Pages: 1 -->
<svg width="1777pt" height="828pt"
 viewBox="0.00 0.00 1777.00 827.92" xmlns="http://www.w3.org/2000/svg" xmlns:xlink="http://www.w3.org/1999/xlink">
<g id="graph0" class="graph" transform="scale(1 1) rotate(0) translate(4 823.92)">
<title>ft_close_fd</title>
<!-- Node1 -->
<g id="node1" class="node">
<title>Node1</title>
<g id="a_node1"><a xlink:title="as fd are all setup to &#45;1 at the beginning we check if they are open before trying to close we avoid ...">
<polygon fill="#bfbfbf" stroke="black" points="1700,-476.74 1700,-495.74 1769,-495.74 1769,-476.74 1700,-476.74"/>
<text text-anchor="middle" x="1734.5" y="-483.74" font-family="Helvetica,sans-Serif" font-size="10.00">ft_close_fd</text>
</a>
</g>
</g>
<!-- Node2 -->
<g id="node2" class="node">
<title>Node2</title>
<g id="a_node2"><a xlink:href="heredoc_8c.html#a98f0cdaa70ea9d777053df568b66e32a" target="_top" xlink:title="origin of creation ; the norm what it is doing ? juste close the fd the right way if we encounter the...">
<polygon fill="none" stroke="black" points="787,-343.74 787,-362.74 900,-362.74 900,-343.74 787,-343.74"/>
<text text-anchor="middle" x="843.5" y="-350.74" font-family="Helvetica,sans-Serif" font-size="10.00">child_work_heredoc</text>
</a>
</g>
</g>
<!-- Node1&#45;&gt;Node2 -->
<g id="edge1" class="edge">
<title>Node1&#45;&gt;Node2</title>
<path fill="none" stroke="midnightblue" d="M1730.25,-466.36C1723.83,-434.09 1706.32,-370.86 1664,-340.24 1592.5,-288.5 1555.26,-315.24 1467,-315.24 1467,-315.24 1467,-315.24 1134.5,-315.24 1045.87,-315.24 1023.63,-320.99 936,-334.24 919.48,-336.74 901.44,-340.3 885.78,-343.67"/>
<polygon fill="midnightblue" stroke="midnightblue" points="1726.84,-467.17 1732.08,-476.37 1733.72,-465.91 1726.84,-467.17"/>
</g>
<!-- Node3 -->
<g id="node3" class="node">
<title>Node3</title>
<g id="a_node3"><a xlink:href="heredoc_8c.html#a0b4a5d07e8877b06b8977b47a6d51930" target="_top" xlink:title="it&#39;s where we open the heredoc and start writing inside our pipe each time we check if it&#39;s the word ...">
<polygon fill="none" stroke="black" points="661.5,-367.74 661.5,-386.74 747.5,-386.74 747.5,-367.74 661.5,-367.74"/>
<text text-anchor="middle" x="704.5" y="-374.74" font-family="Helvetica,sans-Serif" font-size="10.00">heredoc_input</text>
</a>
</g>
</g>
<!-- Node1&#45;&gt;Node3 -->
<g id="edge39" class="edge">
<title>Node1&#45;&gt;Node3</title>
<path fill="none" stroke="midnightblue" d="M1732.23,-465.99C1728.67,-427.69 1715.13,-344.84 1664,-304.24 1594.79,-249.28 1555.37,-277.24 1467,-277.24 1467,-277.24 1467,-277.24 988.5,-277.24 880.63,-277.24 762.18,-342.62 720.78,-367.65"/>
<polygon fill="midnightblue" stroke="midnightblue" points="1728.78,-466.66 1733.05,-476.35 1735.75,-466.11 1728.78,-466.66"/>
</g>
<!-- Node5 -->
<g id="node5" class="node">
<title>Node5</title>
<g id="a_node5"><a xlink:href="multipipe_8c.html#aa4f1c217eeb689ecbc622baecd2c5dec" target="_top" xlink:title="management of the multipipe (= name when we have at least one pipe) First step is to manage the hered...">
<polygon fill="none" stroke="black" points="172,-590.74 172,-609.74 261,-609.74 261,-590.74 172,-590.74"/>
<text text-anchor="middle" x="216.5" y="-597.74" font-family="Helvetica,sans-Serif" font-size="10.00">multipipe_cmd</text>
</a>
</g>
</g>
<!-- Node1&#45;&gt;Node5 -->
<g id="edge41" class="edge">
<title>Node1&#45;&gt;Node5</title>
<path fill="none" stroke="midnightblue" d="M1733.21,-506.11C1731.48,-549.22 1721.21,-651.92 1664,-708.24 1592.35,-778.78 1382.68,-809.24 1136.5,-809.24 1136.5,-809.24 1136.5,-809.24 555.5,-809.24 401.65,-809.24 259.36,-650.65 225.23,-609.76"/>
<polygon fill="midnightblue" stroke="midnightblue" points="1736.72,-505.94 1733.5,-495.84 1729.72,-505.74 1736.72,-505.94"/>
</g>
<!-- Node9 -->
<g id="node9" class="node">
<title>Node9</title>
<g id="a_node9"><a xlink:href="redirection__verification_8c.html#a5b79f4b52353f6558575b5da0dd28fd4" target="_top" xlink:title="we close the fd_in and fd_out in case of a fail this function is able to manage the error coming from...">
<polygon fill="none" stroke="black" points="1576.5,-571.74 1576.5,-590.74 1662.5,-590.74 1662.5,-571.74 1576.5,-571.74"/>
<text text-anchor="middle" x="1619.5" y="-578.74" font-family="Helvetica,sans-Serif" font-size="10.00">close_fd_error</text>
</a>
</g>
</g>
<!-- Node1&#45;&gt;Node9 -->
<g id="edge9" class="edge">
<title>Node1&#45;&gt;Node9</title>
<path fill="none" stroke="midnightblue" d="M1719.15,-503.54C1705.88,-518.86 1685.08,-541.21 1664,-557.24 1656.86,-562.67 1648.34,-567.65 1640.74,-571.64"/>
<polygon fill="midnightblue" stroke="midnightblue" points="1721.89,-505.73 1725.7,-495.84 1716.55,-501.19 1721.89,-505.73"/>
</g>
<!-- Node10 -->
<g id="node10" class="node">
<title>Node10</title>
<g id="a_node10"><a xlink:href="redirection__verification_8c.html#a95641b4885e9c0b07b477846c96c0d2f" target="_top" xlink:title="we have to check if the file exist then if we are allowed to open it in any error case we write a mes...">
<polygon fill="none" stroke="black" points="1417,-552.74 1417,-571.74 1515,-571.74 1515,-552.74 1417,-552.74"/>
<text text-anchor="middle" x="1466" y="-559.74" font-family="Helvetica,sans-Serif" font-size="10.00">infile_redirection</text>
</a>
</g>
</g>
<!-- Node1&#45;&gt;Node10 -->
<g id="edge40" class="edge">
<title>Node1&#45;&gt;Node10</title>
<path fill="none" stroke="midnightblue" d="M1707.15,-500.5C1694.4,-506.94 1678.71,-514.22 1664,-519.24 1614.47,-536.15 1555.61,-547.98 1515.2,-554.89"/>
<polygon fill="midnightblue" stroke="midnightblue" points="1708.98,-503.49 1716.25,-495.79 1705.76,-497.28 1708.98,-503.49"/>
</g>
<!-- Node11 -->
<g id="node11" class="node">
<title>Node11</title>
<g id="a_node11"><a xlink:href="redirection__verification_8c.html#af9b05287627b76434ceb0070c5cb2c8a" target="_top" xlink:title="we go through each node of the redirection and we have special treatment depending of the following c...">
<polygon fill="none" stroke="black" points="1228,-571.74 1228,-590.74 1357,-590.74 1357,-571.74 1228,-571.74"/>
<text text-anchor="middle" x="1292.5" y="-578.74" font-family="Helvetica,sans-Serif" font-size="10.00">redirection_verification</text>
</a>
</g>
</g>
<!-- Node1&#45;&gt;Node11 -->
<g id="edge65" class="edge">
<title>Node1&#45;&gt;Node11</title>
<path fill="none" stroke="midnightblue" d="M1730.16,-505.92C1723.67,-537.21 1706.1,-597.39 1664,-623.24 1547.05,-695.05 1369.71,-619.12 1312.21,-590.9"/>
<polygon fill="midnightblue" stroke="midnightblue" points="1733.65,-506.3 1732.07,-495.82 1726.77,-504.99 1733.65,-506.3"/>
</g>
<!-- Node12 -->
<g id="node12" class="node">
<title>Node12</title>
<g id="a_node12"><a xlink:href="redirection__verification_8c.html#ac61790fa82f2a9b6b904cd92135b6acb" target="_top" xlink:title="outfile and append are open with the right flags in a case of an error we write a message with the na...">
<polygon fill="none" stroke="black" points="1393,-590.74 1393,-609.74 1539,-609.74 1539,-590.74 1393,-590.74"/>
<text text-anchor="middle" x="1466" y="-597.74" font-family="Helvetica,sans-Serif" font-size="10.00">outfile_append_redirection</text>
</a>
</g>
</g>
<!-- Node1&#45;&gt;Node12 -->
<g id="edge43" class="edge">
<title>Node1&#45;&gt;Node12</title>
<path fill="none" stroke="midnightblue" d="M1728.16,-505.72C1719.61,-532.59 1700.06,-579.99 1664,-600.24 1613.15,-628.79 1542.65,-619.31 1501.23,-609.79"/>
<polygon fill="midnightblue" stroke="midnightblue" points="1731.58,-506.49 1731.07,-495.91 1724.87,-504.5 1731.58,-506.49"/>
</g>
<!-- Node13 -->
<g id="node13" class="node">
<title>Node13</title>
<g id="a_node13"><a xlink:href="heredoc_8c.html#a3e1410633d8c1ad5b1441509a020b0d4" target="_top" xlink:title="allow us to close the file descriptors when we have fork() again the process">
<polygon fill="none" stroke="black" points="1079,-400.74 1079,-419.74 1192,-419.74 1192,-400.74 1079,-400.74"/>
<text text-anchor="middle" x="1135.5" y="-407.74" font-family="Helvetica,sans-Serif" font-size="10.00">close_fd_heredocs2</text>
</a>
</g>
</g>
<!-- Node1&#45;&gt;Node13 -->
<g id="edge16" class="edge">
<title>Node1&#45;&gt;Node13</title>
<path fill="none" stroke="midnightblue" d="M1731.89,-506.19C1727.78,-542.38 1713.41,-618.15 1664,-651.24 1658.52,-654.91 1406.82,-654.36 1393,-652.24 1317.01,-640.55 1286.13,-650.57 1228,-600.24 1168.77,-548.95 1144.63,-450.64 1138.3,-419.76"/>
<polygon fill="midnightblue" stroke="midnightblue" points="1735.41,-506.23 1732.9,-495.94 1728.44,-505.55 1735.41,-506.23"/>
</g>
<!-- Node14 -->
<g id="node14" class="node">
<title>Node14</title>
<g id="a_node14"><a xlink:href="heredoc_8c.html#aa11261ffe1d93fd87488514776e2df34" target="_top" xlink:title=" ">
<polygon fill="none" stroke="black" points="938,-343.74 938,-362.74 1041,-362.74 1041,-343.74 938,-343.74"/>
<text text-anchor="middle" x="989.5" y="-350.74" font-family="Helvetica,sans-Serif" font-size="10.00">read_gnl_heredoc</text>
</a>
</g>
</g>
<!-- Node1&#45;&gt;Node14 -->
<g id="edge64" class="edge">
<title>Node1&#45;&gt;Node14</title>
<path fill="none" stroke="midnightblue" d="M1727.74,-466.83C1718.8,-440.46 1698.87,-394.09 1664,-372.24 1589.46,-325.53 1554.96,-353.24 1467,-353.24 1467,-353.24 1467,-353.24 1291.5,-353.24 1203.45,-353.24 1100.9,-353.24 1041.09,-353.24"/>
<polygon fill="midnightblue" stroke="midnightblue" points="1724.45,-468.02 1730.82,-476.48 1731.12,-465.89 1724.45,-468.02"/>
</g>
<!-- Node16 -->
<g id="node16" class="node">
<title>Node16</title>
<g id="a_node16"><a xlink:href="redirection__multipipe_8c.html#af7980d82e7ea7c0c84519ef3e3011b98" target="_top" xlink:title=" ">
<polygon fill="none" stroke="black" points="1088.5,-761.74 1088.5,-780.74 1182.5,-780.74 1182.5,-761.74 1088.5,-761.74"/>
<text text-anchor="middle" x="1135.5" y="-768.74" font-family="Helvetica,sans-Serif" font-size="10.00">close_fd_parent</text>
</a>
</g>
</g>
<!-- Node1&#45;&gt;Node16 -->
<g id="edge22" class="edge">
<title>Node1&#45;&gt;Node16</title>
<path fill="none" stroke="midnightblue" d="M1731.25,-505.84C1724.46,-561.16 1702.27,-716.42 1664,-747.24 1513.89,-868.14 1254.54,-806.64 1166.64,-780.8"/>
<polygon fill="midnightblue" stroke="midnightblue" points="1734.72,-506.25 1732.43,-495.91 1727.77,-505.42 1734.72,-506.25"/>
</g>
<!-- Node18 -->
<g id="node18" class="node">
<title>Node18</title>
<g id="a_node18"><a xlink:href="redirection__multipipe_8c.html#a3a0d7f695cf53df46301e14ffab77638" target="_top" xlink:title=" ">
<polygon fill="none" stroke="black" points="1575,-457.74 1575,-476.74 1664,-476.74 1664,-457.74 1575,-457.74"/>
<text text-anchor="middle" x="1619.5" y="-464.74" font-family="Helvetica,sans-Serif" font-size="10.00">close_previous</text>
</a>
</g>
</g>
<!-- Node1&#45;&gt;Node18 -->
<g id="edge25" class="edge">
<title>Node1&#45;&gt;Node18</title>
<path fill="none" stroke="midnightblue" d="M1689.89,-478.91C1681.48,-477.49 1672.66,-476.01 1664.24,-474.59"/>
<polygon fill="midnightblue" stroke="midnightblue" points="1689.46,-482.38 1699.9,-480.59 1690.62,-475.48 1689.46,-482.38"/>
</g>
<!-- Node19 -->
<g id="node19" class="node">
<title>Node19</title>
<g id="a_node19"><a xlink:href="redirection__multipipe_8c.html#a221f4b2814fe6c3ab1b3ad1fd7f24fb2" target="_top" xlink:title=" ">
<polygon fill="none" stroke="black" points="1396.5,-457.74 1396.5,-476.74 1535.5,-476.74 1535.5,-457.74 1396.5,-457.74"/>
<text text-anchor="middle" x="1466" y="-464.74" font-family="Helvetica,sans-Serif" font-size="10.00">command_redirect_part2</text>
</a>
</g>
</g>
<!-- Node1&#45;&gt;Node19 -->
<g id="edge36" class="edge">
<title>Node1&#45;&gt;Node19</title>
<path fill="none" stroke="midnightblue" d="M1712.15,-470.9C1698.97,-462.39 1681.32,-452.66 1664,-448.24 1606.74,-433.61 1537.49,-447.21 1498.22,-457.72"/>
<polygon fill="midnightblue" stroke="midnightblue" points="1710.25,-473.84 1720.5,-476.51 1714.16,-468.03 1710.25,-473.84"/>
</g>
<!-- Node20 -->
<g id="node20" class="node">
<title>Node20</title>
<g id="a_node20"><a xlink:href="redirection__multipipe_8c.html#a26c96266f1645047a9bdd9af22de94a7" target="_top" xlink:title=" ">
<polygon fill="none" stroke="black" points="1238.5,-457.74 1238.5,-476.74 1346.5,-476.74 1346.5,-457.74 1238.5,-457.74"/>
<text text-anchor="middle" x="1292.5" y="-464.74" font-family="Helvetica,sans-Serif" font-size="10.00">command_redirect</text>
</a>
</g>
</g>
<!-- Node1&#45;&gt;Node20 -->
<g id="edge35" class="edge">
<title>Node1&#45;&gt;Node20</title>
<path fill="none" stroke="midnightblue" d="M1689.28,-488.89C1624.21,-492.19 1498.92,-496.26 1393,-486.24 1373.39,-484.38 1351.89,-480.51 1333.92,-476.75"/>
<polygon fill="midnightblue" stroke="midnightblue" points="1689.77,-492.37 1699.57,-488.35 1689.4,-485.38 1689.77,-492.37"/>
</g>
<!-- Node22 -->
<g id="node22" class="node">
<title>Node22</title>
<g id="a_node22"><a xlink:href="execution_8c.html#aa6f3ac2f0c10538c125eafcb587fd021" target="_top" xlink:title="in this function we do the fork to create a child process we do the redirection if we need to">
<polygon fill="none" stroke="black" points="492.5,-191.74 492.5,-210.74 620.5,-210.74 620.5,-191.74 492.5,-191.74"/>
<text text-anchor="middle" x="556.5" y="-198.74" font-family="Helvetica,sans-Serif" font-size="10.00">one_command_execve</text>
</a>
</g>
</g>
<!-- Node1&#45;&gt;Node22 -->
<g id="edge42" class="edge">
<title>Node1&#45;&gt;Node22</title>
<path fill="none" stroke="midnightblue" d="M1732.02,-466.32C1724.15,-376.22 1679.19,-11.24 1467,-11.24 1467,-11.24 1467,-11.24 988.5,-11.24 807.78,-11.24 617.88,-152.84 569.33,-191.55"/>
<polygon fill="midnightblue" stroke="midnightblue" points="1728.53,-466.63 1732.84,-476.32 1735.51,-466.07 1728.53,-466.63"/>
</g>
<!-- Node23 -->
<g id="node23" class="node">
<title>Node23</title>
<g id="a_node23"><a xlink:href="multipipe_8c.html#a9b21b82386f20636501d279a66b7260d" target="_top" xlink:title="in the case of an error in the redirection, we have a case where the here_doc opened in a previous si...">
<polygon fill="none" stroke="black" points="506,-609.74 506,-628.74 607,-628.74 607,-609.74 506,-609.74"/>
<text text-anchor="middle" x="556.5" y="-616.74" font-family="Helvetica,sans-Serif" font-size="10.00">close_redir_temp</text>
</a>
</g>
</g>
<!-- Node1&#45;&gt;Node23 -->
<g id="edge32" class="edge">
<title>Node1&#45;&gt;Node23</title>
<path fill="none" stroke="midnightblue" d="M1731.35,-505.94C1726.31,-542.61 1710.42,-621.66 1664,-666.24 1597.29,-730.29 1559.48,-733.24 1467,-733.24 1467,-733.24 1467,-733.24 842.5,-733.24 730.32,-733.24 609.93,-656.16 570.68,-628.76"/>
<polygon fill="midnightblue" stroke="midnightblue" points="1734.82,-506.36 1732.59,-496 1727.88,-505.49 1734.82,-506.36"/>
</g>
<!-- Node24 -->
<g id="node24" class="node">
<title>Node24</title>
<g id="a_node24"><a xlink:href="redirection__multipipe_8c.html#a5b749bc2b4088984c0efe1c479ae6ec8" target="_top" xlink:title=" ">
<polygon fill="none" stroke="black" points="1579.5,-381.74 1579.5,-400.74 1659.5,-400.74 1659.5,-381.74 1579.5,-381.74"/>
<text text-anchor="middle" x="1619.5" y="-388.74" font-family="Helvetica,sans-Serif" font-size="10.00">fail_previous</text>
</a>
</g>
</g>
<!-- Node1&#45;&gt;Node24 -->
<g id="edge37" class="edge">
<title>Node1&#45;&gt;Node24</title>
<path fill="none" stroke="midnightblue" d="M1719.15,-468.93C1705.88,-453.62 1685.08,-431.27 1664,-415.24 1656.86,-409.81 1648.34,-404.83 1640.74,-400.83"/>
<polygon fill="midnightblue" stroke="midnightblue" points="1716.55,-471.28 1725.7,-476.63 1721.89,-466.75 1716.55,-471.28"/>
</g>
<!-- Node25 -->
<g id="node25" class="node">
<title>Node25</title>
<g id="a_node25"><a xlink:href="lst__cmd2_8c.html#a8e2b63759f149b547e0d07f210ede9b3" target="_top" xlink:title=" ">
<polygon fill="none" stroke="black" points="1262,-191.74 1262,-210.74 1323,-210.74 1323,-191.74 1262,-191.74"/>
<text text-anchor="middle" x="1292.5" y="-198.74" font-family="Helvetica,sans-Serif" font-size="10.00">pop_cmd</text>
</a>
</g>
</g>
<!-- Node1&#45;&gt;Node25 -->
<g id="edge44" class="edge">
<title>Node1&#45;&gt;Node25</title>
<path fill="none" stroke="midnightblue" d="M1733.78,-466.26C1733.23,-422.16 1725.23,-316.19 1664,-263.24 1617.88,-223.35 1453.07,-230.74 1393,-220.24 1369.44,-216.12 1342.83,-211.02 1323.06,-207.13"/>
<polygon fill="midnightblue" stroke="midnightblue" points="1730.28,-466.3 1733.79,-476.3 1737.28,-466.29 1730.28,-466.3"/>
</g>
<!-- Node33 -->
<g id="node33" class="node">
<title>Node33</title>
<g id="a_node33"><a xlink:href="lst__redir2_8c.html#ade8f0bdda51d9bf348ebeb38fefba881" target="_top" xlink:title=" ">
<polygon fill="none" stroke="black" points="1588.5,-191.74 1588.5,-210.74 1650.5,-210.74 1650.5,-191.74 1588.5,-191.74"/>
<text text-anchor="middle" x="1619.5" y="-198.74" font-family="Helvetica,sans-Serif" font-size="10.00">pop_redir</text>
</a>
</g>
</g>
<!-- Node1&#45;&gt;Node33 -->
<g id="edge61" class="edge">
<title>Node1&#45;&gt;Node33</title>
<path fill="none" stroke="midnightblue" d="M1733.32,-466.48C1731.91,-419.6 1722.42,-299.98 1664,-225.24 1659.33,-219.26 1652.72,-214.55 1646.07,-210.95"/>
<polygon fill="midnightblue" stroke="midnightblue" points="1729.82,-466.6 1733.53,-476.53 1736.82,-466.46 1729.82,-466.6"/>
</g>
<!-- Node2&#45;&gt;Node3 -->
<g id="edge2" class="edge">
<title>Node2&#45;&gt;Node3</title>
<path fill="none" stroke="midnightblue" d="M778.1,-364.52C767.75,-366.33 757.26,-368.17 747.61,-369.86"/>
<polygon fill="midnightblue" stroke="midnightblue" points="778.71,-367.97 787.96,-362.79 777.51,-361.07 778.71,-367.97"/>
</g>
<!-- Node4 -->
<g id="node4" class="node">
<title>Node4</title>
<g id="a_node4"><a xlink:href="heredoc_8c.html#a17337782f10170a6f2f9188bf557de0f" target="_top" xlink:title="the function will go through all the commands and check the redirection if we encounter a heredoc we ...">
<polygon fill="none" stroke="black" points="491,-400.74 491,-419.74 622,-419.74 622,-400.74 491,-400.74"/>
<text text-anchor="middle" x="556.5" y="-407.74" font-family="Helvetica,sans-Serif" font-size="10.00">here_doc_management</text>
</a>
</g>
</g>
<!-- Node3&#45;&gt;Node4 -->
<g id="edge3" class="edge">
<title>Node3&#45;&gt;Node4</title>
<path fill="none" stroke="midnightblue" d="M651.48,-389C634.48,-392.84 615.82,-397.06 599.63,-400.71"/>
<polygon fill="midnightblue" stroke="midnightblue" points="652.29,-392.4 661.27,-386.78 650.75,-385.57 652.29,-392.4"/>
</g>
<!-- Node4&#45;&gt;Node5 -->
<g id="edge4" class="edge">
<title>Node4&#45;&gt;Node5</title>
<path fill="none" stroke="midnightblue" d="M529.29,-424.97C462.98,-462.24 289.91,-559.54 234.69,-590.57"/>
<polygon fill="midnightblue" stroke="midnightblue" points="531.27,-427.87 538.27,-419.92 527.84,-421.77 531.27,-427.87"/>
</g>
<!-- Node8 -->
<g id="node8" class="node">
<title>Node8</title>
<g id="a_node8"><a xlink:href="execution_8c.html#a38335028b2bc7aa436f8f79a3753ce5e" target="_top" xlink:title="here we check if it&#39;s a builtin where we have to fork or not we still need to do the redirection veri...">
<polygon fill="none" stroke="black" points="331.5,-400.74 331.5,-419.74 420.5,-419.74 420.5,-400.74 331.5,-400.74"/>
<text text-anchor="middle" x="376" y="-407.74" font-family="Helvetica,sans-Serif" font-size="10.00">one_command</text>
</a>
</g>
</g>
<!-- Node4&#45;&gt;Node8 -->
<g id="edge7" class="edge">
<title>Node4&#45;&gt;Node8</title>
<path fill="none" stroke="midnightblue" d="M480.55,-410.24C460.1,-410.24 438.63,-410.24 420.57,-410.24"/>
<polygon fill="midnightblue" stroke="midnightblue" points="480.81,-413.74 490.81,-410.24 480.8,-406.74 480.81,-413.74"/>
</g>
<!-- Node6 -->
<g id="node6" class="node">
<title>Node6</title>
<g id="a_node6"><a xlink:href="execution_8c.html#a9542b61daba3eb4d45c8887c5648b2f6" target="_top" xlink:title="first function of the execution part when we have something to do we have to deal with two cases ; if...">
<polygon fill="none" stroke="black" points="77,-400.74 77,-419.74 136,-419.74 136,-400.74 77,-400.74"/>
<text text-anchor="middle" x="106.5" y="-407.74" font-family="Helvetica,sans-Serif" font-size="10.00">executor</text>
</a>
</g>
</g>
<!-- Node5&#45;&gt;Node6 -->
<g id="edge5" class="edge">
<title>Node5&#45;&gt;Node6</title>
<path fill="none" stroke="midnightblue" d="M204.95,-581.67C182.43,-542.06 130.32,-450.39 113.12,-420.13"/>
<polygon fill="midnightblue" stroke="midnightblue" points="202.01,-583.59 210,-590.55 208.1,-580.13 202.01,-583.59"/>
</g>
<!-- Node7 -->
<g id="node7" class="node">
<title>Node7</title>
<g id="a_node7"><a xlink:href="main_8c.html#a647f21a28344e1d9c643f4115516d7c9" target="_top" xlink:title=" ">
<polygon fill="none" stroke="black" points="0,-39.74 0,-58.74 41,-58.74 41,-39.74 0,-39.74"/>
<text text-anchor="middle" x="20.5" y="-46.74" font-family="Helvetica,sans-Serif" font-size="10.00">main</text>
</a>
</g>
</g>
<!-- Node6&#45;&gt;Node7 -->
<g id="edge6" class="edge">
<title>Node6&#45;&gt;Node7</title>
<path fill="none" stroke="midnightblue" d="M100.92,-390.55C85.36,-323.69 34.91,-106.87 23.71,-58.76"/>
<polygon fill="midnightblue" stroke="midnightblue" points="97.58,-391.64 103.25,-400.58 104.4,-390.05 97.58,-391.64"/>
</g>
<!-- Node8&#45;&gt;Node6 -->
<g id="edge8" class="edge">
<title>Node8&#45;&gt;Node6</title>
<path fill="none" stroke="midnightblue" d="M321.37,-410.24C265.58,-410.24 180.35,-410.24 136.22,-410.24"/>
<polygon fill="midnightblue" stroke="midnightblue" points="321.43,-413.74 331.43,-410.24 321.43,-406.74 321.43,-413.74"/>
</g>
<!-- Node9&#45;&gt;Node10 -->
<g id="edge10" class="edge">
<title>Node9&#45;&gt;Node10</title>
<path fill="none" stroke="midnightblue" d="M1566.22,-574.68C1549.64,-572.6 1531.39,-570.31 1515.12,-568.27"/>
<polygon fill="midnightblue" stroke="midnightblue" points="1565.94,-578.17 1576.3,-575.95 1566.81,-571.23 1565.94,-578.17"/>
</g>
<!-- Node9&#45;&gt;Node12 -->
<g id="edge14" class="edge">
<title>Node9&#45;&gt;Node12</title>
<path fill="none" stroke="midnightblue" d="M1566.27,-587.79C1557.52,-588.89 1548.3,-590.04 1539.15,-591.19"/>
<polygon fill="midnightblue" stroke="midnightblue" points="1566.81,-591.25 1576.3,-586.53 1565.94,-584.3 1566.81,-591.25"/>
</g>
<!-- Node10&#45;&gt;Node11 -->
<g id="edge11" class="edge">
<title>Node10&#45;&gt;Node11</title>
<path fill="none" stroke="midnightblue" d="M1406.53,-568.72C1390.6,-570.48 1373.26,-572.4 1357.06,-574.2"/>
<polygon fill="midnightblue" stroke="midnightblue" points="1407.22,-572.16 1416.77,-567.58 1406.45,-565.2 1407.22,-572.16"/>
</g>
<!-- Node11&#45;&gt;Node5 -->
<g id="edge12" class="edge">
<title>Node11&#45;&gt;Node5</title>
<path fill="none" stroke="midnightblue" d="M1217.5,-581.24C1156.57,-581.24 1067.93,-581.24 990.5,-581.24 990.5,-581.24 990.5,-581.24 555.5,-581.24 449.71,-581.24 325.58,-590.63 261.21,-596.21"/>
<polygon fill="midnightblue" stroke="midnightblue" points="1217.79,-584.74 1227.79,-581.24 1217.79,-577.74 1217.79,-584.74"/>
</g>
<!-- Node11&#45;&gt;Node8 -->
<g id="edge13" class="edge">
<title>Node11&#45;&gt;Node8</title>
<path fill="none" stroke="midnightblue" d="M1234.99,-569.8C1174.7,-558.61 1076.27,-543.24 990.5,-543.24 990.5,-543.24 990.5,-543.24 703.5,-543.24 607.56,-543.24 577.97,-545.74 491,-505.24 445.23,-483.92 402.72,-439.56 385.31,-419.93"/>
<polygon fill="midnightblue" stroke="midnightblue" points="1234.59,-573.29 1245.06,-571.7 1235.88,-566.41 1234.59,-573.29"/>
</g>
<!-- Node12&#45;&gt;Node11 -->
<g id="edge15" class="edge">
<title>Node12&#45;&gt;Node11</title>
<path fill="none" stroke="midnightblue" d="M1382.74,-591.12C1374.16,-590.17 1365.54,-589.22 1357.21,-588.3"/>
<polygon fill="midnightblue" stroke="midnightblue" points="1382.44,-594.61 1392.77,-592.24 1383.21,-587.66 1382.44,-594.61"/>
</g>
<!-- Node13&#45;&gt;Node2 -->
<g id="edge17" class="edge">
<title>Node13&#45;&gt;Node2</title>
<path fill="none" stroke="midnightblue" d="M1073.51,-398.82C1034.22,-391.4 982.06,-381.43 936,-372.24 920.88,-369.22 904.39,-365.83 889.62,-362.75"/>
<polygon fill="midnightblue" stroke="midnightblue" points="1072.99,-402.28 1083.46,-400.69 1074.28,-395.4 1072.99,-402.28"/>
</g>
<!-- Node13&#45;&gt;Node14 -->
<g id="edge18" class="edge">
<title>Node13&#45;&gt;Node14</title>
<path fill="none" stroke="midnightblue" d="M1100.8,-396.9C1074.39,-386.44 1038.28,-372.15 1014.68,-362.81"/>
<polygon fill="midnightblue" stroke="midnightblue" points="1099.81,-400.27 1110.4,-400.7 1102.39,-393.76 1099.81,-400.27"/>
</g>
<!-- Node15 -->
<g id="node15" class="node">
<title>Node15</title>
<g id="a_node15"><a xlink:href="heredoc2_8c.html#ac2c940d294494f86fcc389ffeedfd752" target="_top" xlink:title="origin of creation ; the norm what it is doing ? juste close the fd the right way if we encounter the...">
<polygon fill="none" stroke="black" points="800.5,-390.74 800.5,-409.74 886.5,-409.74 886.5,-390.74 800.5,-390.74"/>
<text text-anchor="middle" x="843.5" y="-397.74" font-family="Helvetica,sans-Serif" font-size="10.00">update_status</text>
</a>
</g>
</g>
<!-- Node13&#45;&gt;Node15 -->
<g id="edge20" class="edge">
<title>Node13&#45;&gt;Node15</title>
<path fill="none" stroke="midnightblue" d="M1068.78,-409.07C1030.11,-408.26 980.27,-407 936,-405.24 919.94,-404.6 902.32,-403.68 886.85,-402.81"/>
<polygon fill="midnightblue" stroke="midnightblue" points="1068.8,-412.57 1078.87,-409.27 1068.94,-405.57 1068.8,-412.57"/>
</g>
<!-- Node14&#45;&gt;Node2 -->
<g id="edge19" class="edge">
<title>Node14&#45;&gt;Node2</title>
<path fill="none" stroke="midnightblue" d="M927.6,-353.24C918.51,-353.24 909.18,-353.24 900.2,-353.24"/>
<polygon fill="midnightblue" stroke="midnightblue" points="927.73,-356.74 937.73,-353.24 927.73,-349.74 927.73,-356.74"/>
</g>
<!-- Node15&#45;&gt;Node3 -->
<g id="edge21" class="edge">
<title>Node15&#45;&gt;Node3</title>
<path fill="none" stroke="midnightblue" d="M790.27,-391.47C776.24,-389.11 761.24,-386.6 747.82,-384.34"/>
<polygon fill="midnightblue" stroke="midnightblue" points="789.84,-394.95 800.28,-393.15 791,-388.04 789.84,-394.95"/>
</g>
<!-- Node17 -->
<g id="node17" class="node">
<title>Node17</title>
<g id="a_node17"><a xlink:href="multipipe_8c.html#af31c329200501f497cd102a470450103" target="_top" xlink:title="it&#39;s where the fork happen and sent to be execute">
<polygon fill="none" stroke="black" points="297,-647.74 297,-666.74 455,-666.74 455,-647.74 297,-647.74"/>
<text text-anchor="middle" x="376" y="-654.74" font-family="Helvetica,sans-Serif" font-size="10.00">multipipe_intermediary_cmd</text>
</a>
</g>
</g>
<!-- Node16&#45;&gt;Node17 -->
<g id="edge23" class="edge">
<title>Node16&#45;&gt;Node17</title>
<path fill="none" stroke="midnightblue" d="M1078.16,-771.24C1019.73,-771.24 925.72,-771.24 844.5,-771.24 844.5,-771.24 844.5,-771.24 703.5,-771.24 577.12,-771.24 437.82,-694.16 392.3,-666.76"/>
<polygon fill="midnightblue" stroke="midnightblue" points="1078.29,-774.74 1088.29,-771.24 1078.29,-767.74 1078.29,-774.74"/>
</g>
<!-- Node17&#45;&gt;Node5 -->
<g id="edge24" class="edge">
<title>Node17&#45;&gt;Node5</title>
<path fill="none" stroke="midnightblue" d="M331.65,-644.7C320.31,-641.2 308.13,-637.25 297,-633.24 277.04,-626.04 254.76,-616.68 238.88,-609.76"/>
<polygon fill="midnightblue" stroke="midnightblue" points="330.78,-648.09 341.37,-647.65 332.82,-641.4 330.78,-648.09"/>
</g>
<!-- Node18&#45;&gt;Node19 -->
<g id="edge26" class="edge">
<title>Node18&#45;&gt;Node19</title>
<path fill="none" stroke="midnightblue" d="M1564.67,-467.24C1555.24,-467.24 1545.32,-467.24 1535.55,-467.24"/>
<polygon fill="midnightblue" stroke="midnightblue" points="1564.68,-470.74 1574.68,-467.24 1564.68,-463.74 1564.68,-470.74"/>
</g>
<!-- Node19&#45;&gt;Node20 -->
<g id="edge27" class="edge">
<title>Node19&#45;&gt;Node20</title>
<path fill="none" stroke="midnightblue" d="M1386.09,-467.24C1372.75,-467.24 1359.19,-467.24 1346.7,-467.24"/>
<polygon fill="midnightblue" stroke="midnightblue" points="1386.23,-470.74 1396.23,-467.24 1386.23,-463.74 1386.23,-470.74"/>
</g>
<!-- Node21 -->
<g id="node21" class="node">
<title>Node21</title>
<g id="a_node21"><a xlink:href="multipipe_8c.html#a461ae962ce9a1aee7221ac4b9c581f98" target="_top" xlink:title=" ">
<polygon fill="none" stroke="black" points="515,-476.74 515,-495.74 598,-495.74 598,-476.74 515,-476.74"/>
<text text-anchor="middle" x="556.5" y="-483.74" font-family="Helvetica,sans-Serif" font-size="10.00">execute_child</text>
</a>
</g>
</g>
<!-- Node20&#45;&gt;Node21 -->
<g id="edge28" class="edge">
<title>Node20&#45;&gt;Node21</title>
<path fill="none" stroke="midnightblue" d="M1234.99,-478.67C1174.7,-489.86 1076.27,-505.24 990.5,-505.24 990.5,-505.24 990.5,-505.24 842.5,-505.24 755.22,-505.24 653.25,-496.26 598.03,-490.64"/>
<polygon fill="midnightblue" stroke="midnightblue" points="1235.88,-482.07 1245.06,-476.78 1234.59,-475.19 1235.88,-482.07"/>
</g>
<!-- Node20&#45;&gt;Node22 -->
<g id="edge30" class="edge">
<title>Node20&#45;&gt;Node22</title>
<path fill="none" stroke="midnightblue" d="M1228.26,-467.24C1167.36,-467.24 1072.63,-467.24 990.5,-467.24 990.5,-467.24 990.5,-467.24 842.5,-467.24 754.64,-467.24 723.41,-454.9 658,-396.24 597.33,-341.82 567.86,-242.12 559.83,-210.87"/>
<polygon fill="midnightblue" stroke="midnightblue" points="1228.49,-470.74 1238.49,-467.24 1228.49,-463.74 1228.49,-470.74"/>
</g>
<!-- Node21&#45;&gt;Node17 -->
<g id="edge29" class="edge">
<title>Node21&#45;&gt;Node17</title>
<path fill="none" stroke="midnightblue" d="M537.86,-503.14C500.83,-538.61 416.07,-619.81 387,-647.66"/>
<polygon fill="midnightblue" stroke="midnightblue" points="540.59,-505.37 545.39,-495.92 535.75,-500.31 540.59,-505.37"/>
</g>
<!-- Node22&#45;&gt;Node8 -->
<g id="edge31" class="edge">
<title>Node22&#45;&gt;Node8</title>
<path fill="none" stroke="midnightblue" d="M540.75,-218.51C504.7,-260.72 413.07,-368 385.18,-400.66"/>
<polygon fill="midnightblue" stroke="midnightblue" points="543.53,-220.64 547.37,-210.76 538.21,-216.09 543.53,-220.64"/>
</g>
<!-- Node23&#45;&gt;Node5 -->
<g id="edge33" class="edge">
<title>Node23&#45;&gt;Node5</title>
<path fill="none" stroke="midnightblue" d="M495.98,-615.89C428.8,-612.12 321.1,-606.06 261.23,-602.7"/>
<polygon fill="midnightblue" stroke="midnightblue" points="495.81,-619.39 505.99,-616.45 496.2,-612.4 495.81,-619.39"/>
</g>
<!-- Node23&#45;&gt;Node8 -->
<g id="edge34" class="edge">
<title>Node23&#45;&gt;Node8</title>
<path fill="none" stroke="midnightblue" d="M536.95,-602.75C523.67,-590.62 505.62,-573.5 491,-557.24 446.95,-508.25 400.71,-443.99 383.75,-419.91"/>
<polygon fill="midnightblue" stroke="midnightblue" points="534.76,-605.49 544.53,-609.6 539.46,-600.29 534.76,-605.49"/>
</g>
<!-- Node24&#45;&gt;Node20 -->
<g id="edge38" class="edge">
<title>Node24&#45;&gt;Node20</title>
<path fill="none" stroke="midnightblue" d="M1569.42,-402.71C1505.3,-417.71 1394.16,-443.7 1334.37,-457.68"/>
<polygon fill="midnightblue" stroke="midnightblue" points="1570.36,-406.09 1579.3,-400.41 1568.76,-399.27 1570.36,-406.09"/>
</g>
<!-- Node26 -->
<g id="node26" class="node">
<title>Node26</title>
<g id="a_node26"><a xlink:href="lst__cmd2_8c.html#a132395876bb5a7cfe926b9e37571a1e3" target="_top" xlink:title=" ">
<polygon fill="none" stroke="black" points="1089.5,-172.74 1089.5,-191.74 1181.5,-191.74 1181.5,-172.74 1089.5,-172.74"/>
<text text-anchor="middle" x="1135.5" y="-179.74" font-family="Helvetica,sans-Serif" font-size="10.00">destructor_cmd</text>
</a>
</g>
</g>
<!-- Node25&#45;&gt;Node26 -->
<g id="edge45" class="edge">
<title>Node25&#45;&gt;Node26</title>
<path fill="none" stroke="midnightblue" d="M1251.93,-196.39C1230.52,-193.76 1204,-190.51 1181.77,-187.79"/>
<polygon fill="midnightblue" stroke="midnightblue" points="1251.63,-199.88 1261.98,-197.62 1252.48,-192.93 1251.63,-199.88"/>
</g>
<!-- Node26&#45;&gt;Node2 -->
<g id="edge46" class="edge">
<title>Node26&#45;&gt;Node2</title>
<path fill="none" stroke="midnightblue" d="M1109.16,-197.18C1050.93,-231.52 908.86,-315.29 860.74,-343.66"/>
<polygon fill="midnightblue" stroke="midnightblue" points="1111.24,-200.02 1118.08,-191.92 1107.69,-193.99 1111.24,-200.02"/>
</g>
<!-- Node26&#45;&gt;Node7 -->
<g id="edge48" class="edge">
<title>Node26&#45;&gt;Node7</title>
<path fill="none" stroke="midnightblue" d="M1125.46,-163.53C1111.68,-137.27 1082.77,-90.26 1043,-68.24 852.93,37 774.76,-11.24 557.5,-11.24 557.5,-11.24 557.5,-11.24 215.5,-11.24 150.63,-11.24 75.81,-31.95 41.08,-42.79"/>
<polygon fill="midnightblue" stroke="midnightblue" points="1122.35,-165.13 1129.99,-172.48 1128.6,-161.97 1122.35,-165.13"/>
</g>
<!-- Node26&#45;&gt;Node14 -->
<g id="edge60" class="edge">
<title>Node26&#45;&gt;Node14</title>
<path fill="none" stroke="midnightblue" d="M1119.89,-199.59C1089.83,-235.29 1021.92,-315.93 998.57,-343.66"/>
<polygon fill="midnightblue" stroke="midnightblue" points="1122.58,-201.83 1126.35,-191.92 1117.23,-197.32 1122.58,-201.83"/>
</g>
<!-- Node26&#45;&gt;Node21 -->
<g id="edge47" class="edge">
<title>Node26&#45;&gt;Node21</title>
<path fill="none" stroke="midnightblue" d="M1079.28,-188.12C1008.8,-197.16 884.32,-218.38 787,-263.24 722.34,-293.04 704.01,-303.9 658,-358.24 635.14,-385.24 643.64,-401.25 622,-429.24 607.19,-448.39 585.3,-466.13 571.21,-476.57"/>
<polygon fill="midnightblue" stroke="midnightblue" points="1079.79,-191.58 1089.28,-186.87 1078.93,-184.63 1079.79,-191.58"/>
</g>
<!-- Node26&#45;&gt;Node22 -->
<g id="edge55" class="edge">
<title>Node26&#45;&gt;Node22</title>
<path fill="none" stroke="midnightblue" d="M1108.09,-168C1090.28,-159.23 1065.92,-148.81 1043,-144.24 931.42,-121.99 899.94,-130.42 787,-144.24 713.45,-153.24 629.52,-177.88 586.42,-191.64"/>
<polygon fill="midnightblue" stroke="midnightblue" points="1106.77,-171.25 1117.27,-172.66 1109.94,-165.01 1106.77,-171.25"/>
</g>
<!-- Node27 -->
<g id="node27" class="node">
<title>Node27</title>
<g id="a_node27"><a xlink:href="exit_8c.html#adcbec3416f97b2d0b8d53cf4c2b2a436" target="_top" xlink:title=" ">
<polygon fill="none" stroke="black" points="961.5,-153.74 961.5,-172.74 1017.5,-172.74 1017.5,-153.74 961.5,-153.74"/>
<text text-anchor="middle" x="989.5" y="-160.74" font-family="Helvetica,sans-Serif" font-size="10.00">my_exit</text>
</a>
</g>
</g>
<!-- Node26&#45;&gt;Node27 -->
<g id="edge49" class="edge">
<title>Node26&#45;&gt;Node27</title>
<path fill="none" stroke="midnightblue" d="M1079.22,-174.94C1058.23,-172.17 1035.23,-169.14 1017.91,-166.85"/>
<polygon fill="midnightblue" stroke="midnightblue" points="1078.96,-178.44 1089.33,-176.28 1079.88,-171.5 1078.96,-178.44"/>
</g>
<!-- Node30 -->
<g id="node30" class="node">
<title>Node30</title>
<g id="a_node30"><a xlink:href="error_8c.html#a193034f887c71fdb2486835d8cbd9dd3" target="_top" xlink:title=" ">
<polygon fill="none" stroke="black" points="936,-77.74 936,-96.74 1043,-96.74 1043,-77.74 936,-77.74"/>
<text text-anchor="middle" x="989.5" y="-84.74" font-family="Helvetica,sans-Serif" font-size="10.00">parsing_destructor</text>
</a>
</g>
</g>
<!-- Node26&#45;&gt;Node30 -->
<g id="edge56" class="edge">
<title>Node26&#45;&gt;Node30</title>
<path fill="none" stroke="midnightblue" d="M1115.94,-165.76C1098.09,-150.41 1069.9,-127.52 1043,-111.24 1034,-105.79 1023.55,-100.77 1014.35,-96.75"/>
<polygon fill="midnightblue" stroke="midnightblue" points="1113.99,-168.69 1123.83,-172.62 1118.59,-163.41 1113.99,-168.69"/>
</g>
<!-- Node28 -->
<g id="node28" class="node">
<title>Node28</title>
<g id="a_node28"><a xlink:href="launcher_8c.html#a7bee4f6fbfd70ef7ec1f52856538ac71" target="_top" xlink:title="launch the builtin &#160;&#160;some of them are not present because we have to fork() them why ?...">
<polygon fill="none" stroke="black" points="801,-153.74 801,-172.74 886,-172.74 886,-153.74 801,-153.74"/>
<text text-anchor="middle" x="843.5" y="-160.74" font-family="Helvetica,sans-Serif" font-size="10.00">launch_builtin</text>
</a>
</g>
</g>
<!-- Node27&#45;&gt;Node28 -->
<g id="edge50" class="edge">
<title>Node27&#45;&gt;Node28</title>
<path fill="none" stroke="midnightblue" d="M951.18,-163.24C931.28,-163.24 906.72,-163.24 886.19,-163.24"/>
<polygon fill="midnightblue" stroke="midnightblue" points="951.41,-166.74 961.41,-163.24 951.41,-159.74 951.41,-166.74"/>
</g>
<!-- Node28&#45;&gt;Node8 -->
<g id="edge54" class="edge">
<title>Node28&#45;&gt;Node8</title>
<path fill="none" stroke="midnightblue" d="M793.88,-151.63C721.41,-137.25 583.66,-121.45 491,-182.24 409.96,-235.4 384.15,-364.46 378.38,-400.66"/>
<polygon fill="midnightblue" stroke="midnightblue" points="793.59,-155.14 804.09,-153.73 795,-148.29 793.59,-155.14"/>
</g>
<!-- Node29 -->
<g id="node29" class="node">
<title>Node29</title>
<g id="a_node29"><a xlink:href="execution__node_8c.html#adda76b40c34c18ec83b1d98700083f8a" target="_top" xlink:title="we are going to execute the command here we have a security about absolute path given =&gt; because it&#39;s...">
<polygon fill="none" stroke="black" points="658,-191.74 658,-210.74 751,-210.74 751,-191.74 658,-191.74"/>
<text text-anchor="middle" x="704.5" y="-198.74" font-family="Helvetica,sans-Serif" font-size="10.00">execution_node</text>
</a>
</g>
</g>
<!-- Node28&#45;&gt;Node29 -->
<g id="edge51" class="edge">
<title>Node28&#45;&gt;Node29</title>
<path fill="none" stroke="midnightblue" d="M798.09,-175.56C779.27,-180.78 757.66,-186.77 740.06,-191.65"/>
<polygon fill="midnightblue" stroke="midnightblue" points="799.23,-178.87 807.93,-172.83 797.36,-172.13 799.23,-178.87"/>
</g>
<!-- Node29&#45;&gt;Node21 -->
<g id="edge52" class="edge">
<title>Node29&#45;&gt;Node21</title>
<path fill="none" stroke="midnightblue" d="M666.75,-216.5C663.43,-219.02 660.42,-221.92 658,-225.24 603.76,-299.63 667.01,-348.93 622,-429.24 610.46,-449.83 588.59,-466.72 573.54,-476.63"/>
<polygon fill="midnightblue" stroke="midnightblue" points="668.9,-219.28 675.47,-210.97 665.15,-213.37 668.9,-219.28"/>
</g>
<!-- Node29&#45;&gt;Node22 -->
<g id="edge53" class="edge">
<title>Node29&#45;&gt;Node22</title>
<path fill="none" stroke="midnightblue" d="M647.53,-201.24C638.69,-201.24 629.5,-201.24 620.52,-201.24"/>
<polygon fill="midnightblue" stroke="midnightblue" points="647.71,-204.74 657.71,-201.24 647.71,-197.74 647.71,-204.74"/>
</g>
<!-- Node31 -->
<g id="node31" class="node">
<title>Node31</title>
<g id="a_node31"><a xlink:href="error_8c.html#a8f5f1cfa591c395b88733e1134d8de3d" target="_top" xlink:title=" ">
<polygon fill="none" stroke="black" points="804.5,-77.74 804.5,-96.74 882.5,-96.74 882.5,-77.74 804.5,-77.74"/>
<text text-anchor="middle" x="843.5" y="-84.74" font-family="Helvetica,sans-Serif" font-size="10.00">syntax_error</text>
</a>
</g>
</g>
<!-- Node30&#45;&gt;Node31 -->
<g id="edge57" class="edge">
<title>Node30&#45;&gt;Node31</title>
<path fill="none" stroke="midnightblue" d="M925.29,-87.24C910.84,-87.24 895.9,-87.24 882.87,-87.24"/>
<polygon fill="midnightblue" stroke="midnightblue" points="925.7,-90.74 935.7,-87.24 925.7,-83.74 925.7,-90.74"/>
</g>
<!-- Node32 -->
<g id="node32" class="node">
<title>Node32</title>
<g id="a_node32"><a xlink:href="parser_8c.html#a302af903b3f87eaaff83762f60c2d8cb" target="_top" xlink:title=" ">
<polygon fill="none" stroke="black" points="193,-39.74 193,-58.74 240,-58.74 240,-39.74 193,-39.74"/>
<text text-anchor="middle" x="216.5" y="-46.74" font-family="Helvetica,sans-Serif" font-size="10.00">parser</text>
</a>
</g>
</g>
<!-- Node31&#45;&gt;Node32 -->
<g id="edge58" class="edge">
<title>Node31&#45;&gt;Node32</title>
<path fill="none" stroke="midnightblue" d="M794.19,-84.3C667.79,-76.62 330.82,-56.13 240.2,-50.62"/>
<polygon fill="midnightblue" stroke="midnightblue" points="794.15,-87.8 804.34,-84.92 794.58,-80.82 794.15,-87.8"/>
</g>
<!-- Node32&#45;&gt;Node7 -->
<g id="edge59" class="edge">
<title>Node32&#45;&gt;Node7</title>
<path fill="none" stroke="midnightblue" d="M182.68,-49.24C142.09,-49.24 74.31,-49.24 41.08,-49.24"/>
<polygon fill="midnightblue" stroke="midnightblue" points="182.87,-52.74 192.87,-49.24 182.87,-45.74 182.87,-52.74"/>
</g>
<!-- Node34 -->
<g id="node34" class="node">
<title>Node34</title>
<g id="a_node34"><a xlink:href="lst__redir2_8c.html#a30ccaf401a4f897e48ead5fe54f4b307" target="_top" xlink:title=" ">
<polygon fill="none" stroke="black" points="1419,-191.74 1419,-210.74 1513,-210.74 1513,-191.74 1419,-191.74"/>
<text text-anchor="middle" x="1466" y="-198.74" font-family="Helvetica,sans-Serif" font-size="10.00">destructor_redir</text>
</a>
</g>
</g>
<!-- Node33&#45;&gt;Node34 -->
<g id="edge62" class="edge">
<title>Node33&#45;&gt;Node34</title>
<path fill="none" stroke="midnightblue" d="M1578.16,-201.24C1558.13,-201.24 1533.83,-201.24 1513.07,-201.24"/>
<polygon fill="midnightblue" stroke="midnightblue" points="1578.21,-204.74 1588.21,-201.24 1578.21,-197.74 1578.21,-204.74"/>
</g>
<!-- Node34&#45;&gt;Node25 -->
<g id="edge63" class="edge">
<title>Node34&#45;&gt;Node25</title>
<path fill="none" stroke="midnightblue" d="M1408.36,-201.24C1379.91,-201.24 1346.61,-201.24 1323.21,-201.24"/>
<polygon fill="midnightblue" stroke="midnightblue" points="1408.59,-204.74 1418.59,-201.24 1408.59,-197.74 1408.59,-204.74"/>
</g>
</g>
</svg>
